<?xml version="1.0" encoding="UTF-8" standalone="no"?>
<!DOCTYPE svg PUBLIC "-//W3C//DTD SVG 1.1//EN"
 "http://www.w3.org/Graphics/SVG/1.1/DTD/svg11.dtd">
<!-- Generated by graphviz version 2.43.0 (0)
 -->
<!-- Title: src/model/Bonus.cpp Pages: 1 -->
<svg width="195pt" height="247pt"
 viewBox="0.00 0.00 194.50 247.00" xmlns="http://www.w3.org/2000/svg" xmlns:xlink="http://www.w3.org/1999/xlink">

<svg id="main" version="1.1" xmlns="http://www.w3.org/2000/svg" xmlns:xlink="http://www.w3.org/1999/xlink" xml:space="preserve" onload="init(evt)">
<style type="text/css"><![CDATA[
.node, .edge {opacity: 0.7;}
.node.selected, .edge.selected {opacity: 1;}
.edge:hover path { stroke: red; }
.edge:hover polygon { stroke: red; fill: red; }
]]></style>
<script type="application/ecmascript" xlink:href="svg.min.js"/>
<svg id="graph" class="graph">
<g id="graph0" class="graph" transform="scale(1 1) rotate(0) translate(4 243)">
<title>src/model/Bonus.cpp</title>
<!-- Node1 -->
<g id="Node000001" class="node">
<title>Node1</title>
<g id="a_Node000001"><a xlink:title="Implementation of power&#45;up bonuses with various effects for player tank.">
<polygon fill="#999999" stroke="#666666" points="118,-239 0,-239 0,-220 118,-220 118,-239"/>
<text text-anchor="middle" x="59" y="-227" font-family="Helvetica,sans-Serif" font-size="10.00">src/model/Bonus.cpp</text>
</a>
</g>
</g>
<!-- Node2 -->
<g id="Node000002" class="node">
<title>Node2</title>
<g id="a_Node000002"><a xlink:href="Bonus_8h.html" target="_top" xlink:title="Power&#45;up bonuses with various effects for enhancing player abilities.">
<polygon fill="white" stroke="#666666" points="59,-74 3,-74 3,-55 59,-55 59,-74"/>
<text text-anchor="middle" x="31" y="-62" font-family="Helvetica,sans-Serif" font-size="10.00">Bonus.h</text>
</a>
</g>
</g>
<!-- Node1&#45;&gt;Node2 -->
<g id="edge1_Node000001_Node000002" class="edge">
<title>Node1&#45;&gt;Node2</title>
<g id="a_edge1_Node000001_Node000002"><a xlink:title=" ">
<path fill="none" stroke="#63b8ff" d="M55.44,-219.79C51.97,-210.94 46.81,-196.74 44,-184 36.33,-149.26 33.1,-107.76 31.81,-84.23"/>
<polygon fill="#63b8ff" stroke="#63b8ff" points="35.3,-84.04 31.31,-74.23 28.31,-84.39 35.3,-84.04"/>
</a>
</g>
</g>
<!-- Node4 -->
<g id="Node000004" class="node">
<title>Node4</title>
<g id="a_Node000004"><a xlink:href="PlayerTank_8h.html" target="_top" xlink:title="Player&#45;controlled tank with lives, score system, and special abilities.">
<polygon fill="white" stroke="#666666" points="132.5,-184 53.5,-184 53.5,-165 132.5,-165 132.5,-184"/>
<text text-anchor="middle" x="93" y="-172" font-family="Helvetica,sans-Serif" font-size="10.00">PlayerTank.h</text>
</a>
</g>
</g>
<!-- Node1&#45;&gt;Node4 -->
<g id="edge3_Node000001_Node000004" class="edge">
<title>Node1&#45;&gt;Node4</title>
<g id="a_edge3_Node000001_Node000004"><a xlink:title=" ">
<path fill="none" stroke="#63b8ff" d="M64.61,-219.75C69.32,-212.42 76.17,-201.73 81.97,-192.7"/>
<polygon fill="#63b8ff" stroke="#63b8ff" points="85.04,-194.4 87.49,-184.09 79.14,-190.62 85.04,-194.4"/>
</a>
</g>
</g>
<!-- Node3 -->
<g id="Node000003" class="node">
<title>Node3</title>
<g id="a_Node000003"><a xlink:href="GameObject_8h.html" target="_top" xlink:title="Base class and structures for all game objects with position, direction, and health.">
<polygon fill="white" stroke="#666666" points="119,-19 33,-19 33,0 119,0 119,-19"/>
<text text-anchor="middle" x="76" y="-7" font-family="Helvetica,sans-Serif" font-size="10.00">GameObject.h</text>
</a>
</g>
</g>
<!-- Node2&#45;&gt;Node3 -->
<g id="edge2_Node000002_Node000003" class="edge">
<title>Node2&#45;&gt;Node3</title>
<g id="a_edge2_Node000002_Node000003"><a xlink:title=" ">
<path fill="none" stroke="#63b8ff" d="M38.43,-54.75C44.85,-47.18 54.31,-36.05 62.12,-26.84"/>
<polygon fill="#63b8ff" stroke="#63b8ff" points="64.9,-28.98 68.71,-19.09 59.57,-24.45 64.9,-28.98"/>
</a>
</g>
</g>
<!-- Node5 -->
<g id="Node000005" class="node">
<title>Node5</title>
<g id="a_Node000005"><a xlink:href="Tank_8h.html" target="_top" xlink:title="Abstract tank base class with shooting, bonuses, and combat mechanics.">
<polygon fill="white" stroke="#666666" points="114,-129 66,-129 66,-110 114,-110 114,-129"/>
<text text-anchor="middle" x="90" y="-117" font-family="Helvetica,sans-Serif" font-size="10.00">Tank.h</text>
</a>
</g>
</g>
<!-- Node4&#45;&gt;Node5 -->
<g id="edge4_Node000004_Node000005" class="edge">
<title>Node4&#45;&gt;Node5</title>
<g id="a_edge4_Node000004_Node000005"><a xlink:title=" ">
<path fill="none" stroke="#63b8ff" d="M92.5,-164.75C92.11,-157.8 91.55,-147.85 91.05,-139.13"/>
<polygon fill="#63b8ff" stroke="#63b8ff" points="94.55,-138.88 90.49,-129.09 87.56,-139.27 94.55,-138.88"/>
</a>
</g>
</g>
<!-- Node5&#45;&gt;Node2 -->
<g id="edge9_Node000005_Node000002" class="edge">
<title>Node5&#45;&gt;Node2</title>
<g id="a_edge9_Node000005_Node000002"><a xlink:title=" ">
<path fill="none" stroke="#63b8ff" d="M80.52,-109.98C71.8,-102.15 58.66,-90.34 48.1,-80.86"/>
<polygon fill="#63b8ff" stroke="#63b8ff" points="50.43,-78.25 40.65,-74.17 45.75,-83.46 50.43,-78.25"/>
</a>
</g>
</g>
<!-- Node5&#45;&gt;Node3 -->
<g id="edge5_Node000005_Node000003" class="edge">
<title>Node5&#45;&gt;Node3</title>
<g id="a_edge5_Node000005_Node000003"><a xlink:title=" ">
<path fill="none" stroke="#63b8ff" d="M88.85,-109.66C86.59,-92.17 81.48,-52.8 78.43,-29.27"/>
<polygon fill="#63b8ff" stroke="#63b8ff" points="81.88,-28.63 77.12,-19.16 74.94,-29.53 81.88,-28.63"/>
</a>
</g>
</g>
<!-- Node6 -->
<g id="Node000006" class="node">
<title>Node6</title>
<g id="a_Node000006"><a xlink:href="Projectile_8h.html" target="_top" xlink:title="Projectile class for bullets fired by tanks with collision detection.">
<polygon fill="white" stroke="#666666" points="186.5,-74 115.5,-74 115.5,-55 186.5,-55 186.5,-74"/>
<text text-anchor="middle" x="151" y="-62" font-family="Helvetica,sans-Serif" font-size="10.00">Projectile.h</text>
</a>
</g>
</g>
<!-- Node5&#45;&gt;Node6 -->
<g id="edge6_Node000005_Node000006" class="edge">
<title>Node5&#45;&gt;Node6</title>
<g id="a_edge6_Node000005_Node000006"><a xlink:title=" ">
<path fill="none" stroke="#63b8ff" d="M99.8,-109.98C108.82,-102.15 122.41,-90.34 133.32,-80.86"/>
<polygon fill="#63b8ff" stroke="#63b8ff" points="135.77,-83.37 141.02,-74.17 131.18,-78.09 135.77,-83.37"/>
</a>
</g>
</g>
<!-- Node6&#45;&gt;Node3 -->
<g id="edge7_Node000006_Node000003" class="edge">
<title>Node6&#45;&gt;Node3</title>
<g id="a_edge7_Node000006_Node000003"><a xlink:title=" ">
<path fill="none" stroke="#63b8ff" d="M138.95,-54.98C127.54,-46.92 110.17,-34.65 96.57,-25.03"/>
<polygon fill="#63b8ff" stroke="#63b8ff" points="98.46,-22.08 88.27,-19.17 94.42,-27.8 98.46,-22.08"/>
</a>
</g>
</g>
<!-- Node7 -->
<g id="Node000007" class="node">
<title>Node7</title>
<g id="a_Node000007"><a xlink:title=" ">
<polygon fill="#e0e0e0" stroke="#999999" points="184.5,-19 137.5,-19 137.5,0 184.5,0 184.5,-19"/>
<text text-anchor="middle" x="161" y="-7" font-family="Helvetica,sans-Serif" font-size="10.00">vector</text>
</a>
</g>
</g>
<!-- Node6&#45;&gt;Node7 -->
<g id="edge8_Node000006_Node000007" class="edge">
<title>Node6&#45;&gt;Node7</title>
<g id="a_edge8_Node000006_Node000007"><a xlink:title=" ">
<path fill="none" stroke="#63b8ff" d="M152.65,-54.75C153.96,-47.8 155.84,-37.85 157.48,-29.13"/>
<polygon fill="#63b8ff" stroke="#63b8ff" points="160.96,-29.56 159.38,-19.09 154.09,-28.27 160.96,-29.56"/>
</a>
</g>
</g>
</g>
</svg>
</svg>

<style type='text/css'>
<![CDATA[
[data-mouse-over-selected='false'] { opacity: 0.7; }
[data-mouse-over-selected='true']  { opacity: 1.0; }
]]>
</style>
<script type="application/ecmascript"><![CDATA[
document.addEventListener('DOMContentLoaded', (event) => {
  highlightEdges();
  highlightAdjacentNodes();
});
]]></script>
</svg>
