<?xml version="1.0" encoding="UTF-8" standalone="no"?>
<!DOCTYPE svg PUBLIC "-//W3C//DTD SVG 1.1//EN"
 "http://www.w3.org/Graphics/SVG/1.1/DTD/svg11.dtd">
<!-- Generated by graphviz version 2.43.0 (0)
 -->
<!-- Title: src/model/Bonus.h Pages: 1 -->
<svg width="797pt" height="412pt"
 viewBox="0.00 0.00 797.00 412.00" xmlns="http://www.w3.org/2000/svg" xmlns:xlink="http://www.w3.org/1999/xlink">
<g id="graph0" class="graph" transform="scale(1 1) rotate(0) translate(4 408)">
<title>src/model/Bonus.h</title>
<!-- Node1 -->
<g id="Node000001" class="node">
<title>Node1</title>
<g id="a_Node000001"><a xlink:title="Power&#45;up bonuses with various effects for enhancing player abilities.">
<polygon fill="#999999" stroke="#666666" points="425.5,-404 318.5,-404 318.5,-385 425.5,-385 425.5,-404"/>
<text text-anchor="middle" x="372" y="-392" font-family="Helvetica,sans-Serif" font-size="10.00">src/model/Bonus.h</text>
</a>
</g>
</g>
<!-- Node2 -->
<g id="Node000002" class="node">
<title>Node2</title>
<g id="a_Node000002"><a xlink:href="Bonus_8cpp.html" target="_top" xlink:title="Implementation of power&#45;up bonuses with various effects for player tank.">
<polygon fill="white" stroke="#666666" points="118,-239 0,-239 0,-220 118,-220 118,-239"/>
<text text-anchor="middle" x="59" y="-227" font-family="Helvetica,sans-Serif" font-size="10.00">src/model/Bonus.cpp</text>
</a>
</g>
</g>
<!-- Node1&#45;&gt;Node2 -->
<g id="edge1_Node000001_Node000002" class="edge">
<title>Node1&#45;&gt;Node2</title>
<g id="a_edge1_Node000001_Node000002"><a xlink:title=" ">
<path fill="none" stroke="#63b8ff" d="M307.97,-388.67C241.54,-380.27 139,-357.21 78,-294 63.3,-278.76 59.91,-252.63 59.17,-239.13"/>
<polygon fill="#63b8ff" stroke="#63b8ff" points="307.97,-392.2 318.31,-389.9 308.8,-385.25 307.97,-392.2"/>
</a>
</g>
</g>
<!-- Node3 -->
<g id="Node000003" class="node">
<title>Node3</title>
<g id="a_Node000003"><a xlink:href="GameWorld_8h.html" target="_top" xlink:title="Main game world manager handling objects, collisions, states, and game logic.">
<polygon fill="white" stroke="#666666" points="589,-239 455,-239 455,-220 589,-220 589,-239"/>
<text text-anchor="middle" x="522" y="-227" font-family="Helvetica,sans-Serif" font-size="10.00">src/model/GameWorld.h</text>
</a>
</g>
</g>
<!-- Node1&#45;&gt;Node3 -->
<g id="edge2_Node000001_Node000003" class="edge">
<title>Node1&#45;&gt;Node3</title>
<g id="a_edge2_Node000001_Node000003"><a xlink:title=" ">
<path fill="none" stroke="#63b8ff" d="M400.11,-380.09C430.84,-363.96 479.26,-333.99 506,-294 517.5,-276.8 520.74,-251.96 521.65,-239.04"/>
<polygon fill="#63b8ff" stroke="#63b8ff" points="398.12,-377.17 390.8,-384.83 401.3,-383.41 398.12,-377.17"/>
</a>
</g>
</g>
<!-- Node12 -->
<g id="Node000012" class="node">
<title>Node12</title>
<g id="a_Node000012"><a xlink:href="Tank_8h.html" target="_top" xlink:title="Abstract tank base class with shooting, bonuses, and combat mechanics.">
<polygon fill="white" stroke="#666666" points="421.5,-349 322.5,-349 322.5,-330 421.5,-330 421.5,-349"/>
<text text-anchor="middle" x="372" y="-337" font-family="Helvetica,sans-Serif" font-size="10.00">src/model/Tank.h</text>
</a>
</g>
</g>
<!-- Node1&#45;&gt;Node12 -->
<g id="edge14_Node000001_Node000012" class="edge">
<title>Node1&#45;&gt;Node12</title>
<g id="a_edge14_Node000001_Node000012"><a xlink:title=" ">
<path fill="none" stroke="#63b8ff" d="M372,-374.66C372,-365.93 372,-355.99 372,-349.09"/>
<polygon fill="#63b8ff" stroke="#63b8ff" points="368.5,-374.75 372,-384.75 375.5,-374.75 368.5,-374.75"/>
</a>
</g>
</g>
<!-- Node4 -->
<g id="Node000004" class="node">
<title>Node4</title>
<g id="a_Node000004"><a xlink:href="GameController_8h.html" target="_top" xlink:title="Central game controller coordinating model, view, and input systems.">
<polygon fill="white" stroke="#666666" points="759.5,-74 590.5,-74 590.5,-55 759.5,-55 759.5,-74"/>
<text text-anchor="middle" x="675" y="-62" font-family="Helvetica,sans-Serif" font-size="10.00">src/controller/GameController.h</text>
</a>
</g>
</g>
<!-- Node3&#45;&gt;Node4 -->
<g id="edge3_Node000003_Node000004" class="edge">
<title>Node3&#45;&gt;Node4</title>
<g id="a_edge3_Node000003_Node000004"><a xlink:title=" ">
<path fill="none" stroke="#63b8ff" d="M592.41,-218.21C631.71,-210.86 675.11,-199.52 687,-184 712.65,-150.51 689.8,-95.15 679.46,-74.04"/>
<polygon fill="#63b8ff" stroke="#63b8ff" points="591.74,-214.77 582.52,-219.99 592.99,-221.66 591.74,-214.77"/>
</a>
</g>
</g>
<!-- Node7 -->
<g id="Node000007" class="node">
<title>Node7</title>
<g id="a_Node000007"><a xlink:href="GameWorld_8cpp.html" target="_top" xlink:title="Core game simulation with object management, collisions, and level generation.">
<polygon fill="white" stroke="#666666" points="491.5,-184 346.5,-184 346.5,-165 491.5,-165 491.5,-184"/>
<text text-anchor="middle" x="419" y="-172" font-family="Helvetica,sans-Serif" font-size="10.00">src/model/GameWorld.cpp</text>
</a>
</g>
</g>
<!-- Node3&#45;&gt;Node7 -->
<g id="edge6_Node000003_Node000007" class="edge">
<title>Node3&#45;&gt;Node7</title>
<g id="a_edge6_Node000003_Node000007"><a xlink:title=" ">
<path fill="none" stroke="#63b8ff" d="M496.48,-215.37C477.56,-205.63 452.3,-192.64 435.85,-184.17"/>
<polygon fill="#63b8ff" stroke="#63b8ff" points="494.96,-218.52 505.45,-219.98 498.16,-212.3 494.96,-218.52"/>
</a>
</g>
</g>
<!-- Node8 -->
<g id="Node000008" class="node">
<title>Node8</title>
<g id="a_Node000008"><a xlink:href="MapManager_8h.html" target="_top" xlink:title="Manages game maps, level generation, and procedural content.">
<polygon fill="white" stroke="#666666" points="678,-184 548,-184 548,-165 678,-165 678,-184"/>
<text text-anchor="middle" x="613" y="-172" font-family="Helvetica,sans-Serif" font-size="10.00">src/utils/MapManager.h</text>
</a>
</g>
</g>
<!-- Node3&#45;&gt;Node8 -->
<g id="edge7_Node000003_Node000008" class="edge">
<title>Node3&#45;&gt;Node8</title>
<g id="a_edge7_Node000003_Node000008"><a xlink:title=" ">
<path fill="none" stroke="#63b8ff" d="M545.7,-214.7C562.28,-205.04 583.91,-192.44 598.11,-184.17"/>
<polygon fill="#63b8ff" stroke="#63b8ff" points="543.5,-211.93 536.62,-219.98 547.02,-217.98 543.5,-211.93"/>
</a>
</g>
</g>
<!-- Node10 -->
<g id="Node000010" class="node">
<title>Node10</title>
<g id="a_Node000010"><a xlink:href="ConsoleRenderer_8h.html" target="_top" xlink:title="Renders game state, menus, and UI elements to the console.">
<polygon fill="white" stroke="#666666" points="607,-129 455,-129 455,-110 607,-110 607,-129"/>
<text text-anchor="middle" x="531" y="-117" font-family="Helvetica,sans-Serif" font-size="10.00">src/view/ConsoleRenderer.h</text>
</a>
</g>
</g>
<!-- Node3&#45;&gt;Node10 -->
<g id="edge13_Node000003_Node000010" class="edge">
<title>Node3&#45;&gt;Node10</title>
<g id="a_edge13_Node000003_Node000010"><a xlink:title=" ">
<path fill="none" stroke="#63b8ff" d="M523.58,-209.48C525.55,-185.84 528.83,-146.5 530.28,-129.16"/>
<polygon fill="#63b8ff" stroke="#63b8ff" points="520.08,-209.41 522.74,-219.66 527.05,-209.99 520.08,-209.41"/>
</a>
</g>
</g>
<!-- Node5 -->
<g id="Node000005" class="node">
<title>Node5</title>
<g id="a_Node000005"><a xlink:href="GameController_8cpp.html" target="_top" xlink:title="Implementation of main game controller and game loop logic.">
<polygon fill="white" stroke="#666666" points="691,-19 511,-19 511,0 691,0 691,-19"/>
<text text-anchor="middle" x="601" y="-7" font-family="Helvetica,sans-Serif" font-size="10.00">src/controller/GameController.cpp</text>
</a>
</g>
</g>
<!-- Node4&#45;&gt;Node5 -->
<g id="edge4_Node000004_Node000005" class="edge">
<title>Node4&#45;&gt;Node5</title>
<g id="a_edge4_Node000004_Node000005"><a xlink:title=" ">
<path fill="none" stroke="#63b8ff" d="M654.97,-49.15C641.59,-39.57 624.44,-27.29 613.11,-19.17"/>
<polygon fill="#63b8ff" stroke="#63b8ff" points="652.94,-52.01 663.11,-54.98 657.02,-46.32 652.94,-52.01"/>
</a>
</g>
</g>
<!-- Node6 -->
<g id="Node000006" class="node">
<title>Node6</title>
<g id="a_Node000006"><a xlink:href="main_8cpp.html" target="_top" xlink:title="Main entry point for the Tank Simulator game.">
<polygon fill="white" stroke="#666666" points="788.5,-19 709.5,-19 709.5,0 788.5,0 788.5,-19"/>
<text text-anchor="middle" x="749" y="-7" font-family="Helvetica,sans-Serif" font-size="10.00">src/main.cpp</text>
</a>
</g>
</g>
<!-- Node4&#45;&gt;Node6 -->
<g id="edge5_Node000004_Node000006" class="edge">
<title>Node4&#45;&gt;Node6</title>
<g id="a_edge5_Node000004_Node000006"><a xlink:title=" ">
<path fill="none" stroke="#63b8ff" d="M695.03,-49.15C708.41,-39.57 725.56,-27.29 736.89,-19.17"/>
<polygon fill="#63b8ff" stroke="#63b8ff" points="692.98,-46.32 686.89,-54.98 697.06,-52.01 692.98,-46.32"/>
</a>
</g>
</g>
<!-- Node8&#45;&gt;Node4 -->
<g id="edge8_Node000008_Node000004" class="edge">
<title>Node8&#45;&gt;Node4</title>
<g id="a_edge8_Node000008_Node000004"><a xlink:title=" ">
<path fill="none" stroke="#63b8ff" d="M623.19,-155.76C636.66,-132.28 659.89,-91.81 670.03,-74.16"/>
<polygon fill="#63b8ff" stroke="#63b8ff" points="620.02,-154.25 618.07,-164.66 626.09,-157.73 620.02,-154.25"/>
</a>
</g>
</g>
<!-- Node9 -->
<g id="Node000009" class="node">
<title>Node9</title>
<g id="a_Node000009"><a xlink:href="MapManager_8cpp.html" target="_top" xlink:title="Implementation for loading, creating, and managing game maps.">
<polygon fill="white" stroke="#666666" points="418.5,-129 277.5,-129 277.5,-110 418.5,-110 418.5,-129"/>
<text text-anchor="middle" x="348" y="-117" font-family="Helvetica,sans-Serif" font-size="10.00">src/utils/MapManager.cpp</text>
</a>
</g>
</g>
<!-- Node8&#45;&gt;Node9 -->
<g id="edge9_Node000008_Node000009" class="edge">
<title>Node8&#45;&gt;Node9</title>
<g id="a_edge9_Node000008_Node000009"><a xlink:title=" ">
<path fill="none" stroke="#63b8ff" d="M560.51,-163C510.84,-153.07 437.17,-138.33 390.91,-129.08"/>
<polygon fill="#63b8ff" stroke="#63b8ff" points="559.93,-166.46 570.42,-164.98 561.3,-159.59 559.93,-166.46"/>
</a>
</g>
</g>
<!-- Node8&#45;&gt;Node10 -->
<g id="edge10_Node000008_Node000010" class="edge">
<title>Node8&#45;&gt;Node10</title>
<g id="a_edge10_Node000008_Node000010"><a xlink:title=" ">
<path fill="none" stroke="#63b8ff" d="M591.22,-159.42C576.34,-149.81 557.09,-137.37 544.41,-129.17"/>
<polygon fill="#63b8ff" stroke="#63b8ff" points="589.53,-162.5 599.83,-164.98 593.33,-156.62 589.53,-162.5"/>
</a>
</g>
</g>
<!-- Node10&#45;&gt;Node4 -->
<g id="edge11_Node000010_Node000004" class="edge">
<title>Node10&#45;&gt;Node4</title>
<g id="a_edge11_Node000010_Node000004"><a xlink:title=" ">
<path fill="none" stroke="#63b8ff" d="M563.82,-106.42C590.53,-96.59 627.6,-82.95 651.44,-74.17"/>
<polygon fill="#63b8ff" stroke="#63b8ff" points="562.31,-103.25 554.14,-109.98 564.73,-109.82 562.31,-103.25"/>
</a>
</g>
</g>
<!-- Node11 -->
<g id="Node000011" class="node">
<title>Node11</title>
<g id="a_Node000011"><a xlink:href="ConsoleRenderer_8cpp.html" target="_top" xlink:title="Implementation of console&#45;based game rendering with ASCII/Unicode support.">
<polygon fill="white" stroke="#666666" points="572.5,-74 409.5,-74 409.5,-55 572.5,-55 572.5,-74"/>
<text text-anchor="middle" x="491" y="-62" font-family="Helvetica,sans-Serif" font-size="10.00">src/view/ConsoleRenderer.cpp</text>
</a>
</g>
</g>
<!-- Node10&#45;&gt;Node11 -->
<g id="edge12_Node000010_Node000011" class="edge">
<title>Node10&#45;&gt;Node11</title>
<g id="a_edge12_Node000010_Node000011"><a xlink:title=" ">
<path fill="none" stroke="#63b8ff" d="M518.3,-101.67C511.37,-92.5 503.09,-81.52 497.48,-74.09"/>
<polygon fill="#63b8ff" stroke="#63b8ff" points="515.58,-103.87 524.39,-109.75 521.16,-99.66 515.58,-103.87"/>
</a>
</g>
</g>
<!-- Node13 -->
<g id="Node000013" class="node">
<title>Node13</title>
<g id="a_Node000013"><a xlink:href="EnemyTank_8h.html" target="_top" xlink:title="AI&#45;controlled enemy tanks with various behaviors, types, and difficulty levels.">
<polygon fill="white" stroke="#666666" points="686.5,-294 553.5,-294 553.5,-275 686.5,-275 686.5,-294"/>
<text text-anchor="middle" x="620" y="-282" font-family="Helvetica,sans-Serif" font-size="10.00">src/model/EnemyTank.h</text>
</a>
</g>
</g>
<!-- Node12&#45;&gt;Node13 -->
<g id="edge15_Node000012_Node000013" class="edge">
<title>Node12&#45;&gt;Node13</title>
<g id="a_edge15_Node000012_Node000013"><a xlink:title=" ">
<path fill="none" stroke="#63b8ff" d="M421.7,-327.88C468.18,-317.94 536.73,-303.3 579.84,-294.08"/>
<polygon fill="#63b8ff" stroke="#63b8ff" points="420.89,-324.47 411.85,-329.98 422.36,-331.32 420.89,-324.47"/>
</a>
</g>
</g>
<!-- Node15 -->
<g id="Node000015" class="node">
<title>Node15</title>
<g id="a_Node000015"><a xlink:href="PlayerTank_8h.html" target="_top" xlink:title="Player&#45;controlled tank with lives, score system, and special abilities.">
<polygon fill="white" stroke="#666666" points="217,-294 87,-294 87,-275 217,-275 217,-294"/>
<text text-anchor="middle" x="152" y="-282" font-family="Helvetica,sans-Serif" font-size="10.00">src/model/PlayerTank.h</text>
</a>
</g>
</g>
<!-- Node12&#45;&gt;Node15 -->
<g id="edge19_Node000012_Node000015" class="edge">
<title>Node12&#45;&gt;Node15</title>
<g id="a_edge19_Node000012_Node000015"><a xlink:title=" ">
<path fill="none" stroke="#63b8ff" d="M326.87,-327.63C285.66,-317.7 225.55,-303.22 187.62,-294.08"/>
<polygon fill="#63b8ff" stroke="#63b8ff" points="326.11,-331.05 336.65,-329.98 327.75,-324.24 326.11,-331.05"/>
</a>
</g>
</g>
<!-- Node17 -->
<g id="Node000017" class="node">
<title>Node17</title>
<g id="a_Node000017"><a xlink:href="Projectile_8cpp.html" target="_top" xlink:title="Implementation of projectile movement, collision detection, and damage calculation.">
<polygon fill="white" stroke="#666666" points="369,-294 235,-294 235,-275 369,-275 369,-294"/>
<text text-anchor="middle" x="302" y="-282" font-family="Helvetica,sans-Serif" font-size="10.00">src/model/Projectile.cpp</text>
</a>
</g>
</g>
<!-- Node12&#45;&gt;Node17 -->
<g id="edge24_Node000012_Node000017" class="edge">
<title>Node12&#45;&gt;Node17</title>
<g id="a_edge24_Node000012_Node000017"><a xlink:title=" ">
<path fill="none" stroke="#63b8ff" d="M352.69,-323.88C340.09,-314.34 324.07,-302.21 313.45,-294.17"/>
<polygon fill="#63b8ff" stroke="#63b8ff" points="350.67,-326.74 360.75,-329.98 354.89,-321.16 350.67,-326.74"/>
</a>
</g>
</g>
<!-- Node18 -->
<g id="Node000018" class="node">
<title>Node18</title>
<g id="a_Node000018"><a xlink:href="Tank_8cpp.html" target="_top" xlink:title="Implementation of tank mechanics including movement, firing, and bonus effects.">
<polygon fill="white" stroke="#666666" points="497,-294 387,-294 387,-275 497,-275 497,-294"/>
<text text-anchor="middle" x="442" y="-282" font-family="Helvetica,sans-Serif" font-size="10.00">src/model/Tank.cpp</text>
</a>
</g>
</g>
<!-- Node12&#45;&gt;Node18 -->
<g id="edge25_Node000012_Node000018" class="edge">
<title>Node12&#45;&gt;Node18</title>
<g id="a_edge25_Node000012_Node000018"><a xlink:title=" ">
<path fill="none" stroke="#63b8ff" d="M391.31,-323.88C403.91,-314.34 419.93,-302.21 430.55,-294.17"/>
<polygon fill="#63b8ff" stroke="#63b8ff" points="389.11,-321.16 383.25,-329.98 393.33,-326.74 389.11,-321.16"/>
</a>
</g>
</g>
<!-- Node13&#45;&gt;Node3 -->
<g id="edge17_Node000013_Node000003" class="edge">
<title>Node13&#45;&gt;Node3</title>
<g id="a_edge17_Node000013_Node000003"><a xlink:title=" ">
<path fill="none" stroke="#63b8ff" d="M594.97,-269.97C577.06,-260.28 553.47,-247.52 538.03,-239.17"/>
<polygon fill="#63b8ff" stroke="#63b8ff" points="593.79,-273.31 604.25,-274.98 597.12,-267.15 593.79,-273.31"/>
</a>
</g>
</g>
<!-- Node13&#45;&gt;Node8 -->
<g id="edge18_Node000013_Node000008" class="edge">
<title>Node13&#45;&gt;Node8</title>
<g id="a_edge18_Node000013_Node000008"><a xlink:title=" ">
<path fill="none" stroke="#63b8ff" d="M618.77,-264.48C617.24,-240.84 614.69,-201.5 613.56,-184.16"/>
<polygon fill="#63b8ff" stroke="#63b8ff" points="615.29,-264.91 619.43,-274.66 622.27,-264.46 615.29,-264.91"/>
</a>
</g>
</g>
<!-- Node14 -->
<g id="Node000014" class="node">
<title>Node14</title>
<g id="a_Node000014"><a xlink:href="EnemyTank_8cpp.html" target="_top" xlink:title="Implementation of enemy tank AI behaviors, movement patterns, and combat logic.">
<polygon fill="white" stroke="#666666" points="789,-239 645,-239 645,-220 789,-220 789,-239"/>
<text text-anchor="middle" x="717" y="-227" font-family="Helvetica,sans-Serif" font-size="10.00">src/model/EnemyTank.cpp</text>
</a>
</g>
</g>
<!-- Node13&#45;&gt;Node14 -->
<g id="edge16_Node000013_Node000014" class="edge">
<title>Node13&#45;&gt;Node14</title>
<g id="a_edge16_Node000013_Node000014"><a xlink:title=" ">
<path fill="none" stroke="#63b8ff" d="M644.77,-269.97C662.5,-260.28 685.85,-247.52 701.13,-239.17"/>
<polygon fill="#63b8ff" stroke="#63b8ff" points="642.68,-267.12 635.58,-274.98 646.04,-273.26 642.68,-267.12"/>
</a>
</g>
</g>
<!-- Node15&#45;&gt;Node2 -->
<g id="edge20_Node000015_Node000002" class="edge">
<title>Node15&#45;&gt;Node2</title>
<g id="a_edge20_Node000015_Node000002"><a xlink:title=" ">
<path fill="none" stroke="#63b8ff" d="M128.25,-269.97C111.25,-260.28 88.87,-247.52 74.21,-239.17"/>
<polygon fill="#63b8ff" stroke="#63b8ff" points="126.64,-273.07 137.06,-274.98 130.1,-266.99 126.64,-273.07"/>
</a>
</g>
</g>
<!-- Node15&#45;&gt;Node3 -->
<g id="edge21_Node000015_Node000003" class="edge">
<title>Node15&#45;&gt;Node3</title>
<g id="a_edge21_Node000015_Node000003"><a xlink:title=" ">
<path fill="none" stroke="#63b8ff" d="M221.42,-273.56C290.89,-263.61 396.62,-248.46 462.39,-239.04"/>
<polygon fill="#63b8ff" stroke="#63b8ff" points="220.85,-270.1 211.45,-274.98 221.84,-277.03 220.85,-270.1"/>
</a>
</g>
</g>
<!-- Node15&#45;&gt;Node9 -->
<g id="edge23_Node000015_Node000009" class="edge">
<title>Node15&#45;&gt;Node9</title>
<g id="a_edge23_Node000015_Node000009"><a xlink:title=" ">
<path fill="none" stroke="#63b8ff" d="M217.6,-272.39C241.19,-265.8 266.72,-255.4 286,-239 322.26,-208.17 340.21,-150.73 345.92,-129.06"/>
<polygon fill="#63b8ff" stroke="#63b8ff" points="216.42,-269.08 207.63,-274.98 218.18,-275.85 216.42,-269.08"/>
</a>
</g>
</g>
<!-- Node16 -->
<g id="Node000016" class="node">
<title>Node16</title>
<g id="a_Node000016"><a xlink:href="PlayerTank_8cpp.html" target="_top" xlink:title="Implementation of player&#45;controlled tank with lives, score, and bonus management.">
<polygon fill="white" stroke="#666666" points="277.5,-239 136.5,-239 136.5,-220 277.5,-220 277.5,-239"/>
<text text-anchor="middle" x="207" y="-227" font-family="Helvetica,sans-Serif" font-size="10.00">src/model/PlayerTank.cpp</text>
</a>
</g>
</g>
<!-- Node15&#45;&gt;Node16 -->
<g id="edge22_Node000015_Node000016" class="edge">
<title>Node15&#45;&gt;Node16</title>
<g id="a_edge22_Node000015_Node000016"><a xlink:title=" ">
<path fill="none" stroke="#63b8ff" d="M168.29,-267.8C178.04,-258.41 190.05,-246.83 198.09,-239.09"/>
<polygon fill="#63b8ff" stroke="#63b8ff" points="165.85,-265.29 161.08,-274.75 170.71,-270.33 165.85,-265.29"/>
</a>
</g>
</g>
</g>
</svg>
