<?xml version="1.0" encoding="UTF-8" standalone="no"?>
<!DOCTYPE svg PUBLIC "-//W3C//DTD SVG 1.1//EN"
 "http://www.w3.org/Graphics/SVG/1.1/DTD/svg11.dtd">
<!-- Generated by graphviz version 2.43.0 (0)
 -->
<!-- Title: PlatformUtils::getTerminalSize Pages: 1 -->
<!--zoomable 595 -->

<svg id="main" version="1.1" xmlns="http://www.w3.org/2000/svg" xmlns:xlink="http://www.w3.org/1999/xlink" xml:space="preserve" onload="init(evt)">
<style type="text/css"><![CDATA[
.node, .edge {opacity: 0.7;}
.node.selected, .edge.selected {opacity: 1;}
.edge:hover path { stroke: red; }
.edge:hover polygon { stroke: red; fill: red; }
]]></style>

<defs>
  <circle id="rim" cx="0" cy="0" r="7"/>
  <circle id="rim2" cx="0" cy="0" r="3.5"/>
  <g id="zoomPlus">
    <use xlink:href="#rim" fill="#404040"><set attributeName="fill" to="#808080" begin="zoomplus.mouseover" end="zoomplus.mouseout"/></use>
    <path d="M-4,0h8M0,-4v8" fill="none" stroke="white" stroke-width="1.5" pointer-events="none"/>
  </g>
  <g id="zoomMin">
    <use xlink:href="#rim" fill="#404040"><set attributeName="fill" to="#808080" begin="zoomminus.mouseover" end="zoomminus.mouseout"/></use>
    <path d="M-4,0h8" fill="none" stroke="white" stroke-width="1.5" pointer-events="none"/>
  </g>
  <g id="arrowUp" transform="translate(30 24)">
    <use xlink:href="#rim"/>
    <path pointer-events="none" fill="none" stroke="white" stroke-width="1.5" d="M0,-3.0v7 M-2.5,-0.5L0,-3.0L2.5,-0.5"/>
  </g>
  <g id="arrowRight" transform="rotate(90) translate(36 -43)">
    <use xlink:href="#rim"/>
    <path pointer-events="none" fill="none" stroke="white" stroke-width="1.5" d="M0,-3.0v7 M-2.5,-0.5L0,-3.0L2.5,-0.5"/>
  </g>
  <g id="arrowDown" transform="rotate(180) translate(-30 -48)">
    <use xlink:href="#rim"/>
    <path pointer-events="none" fill="none" stroke="white" stroke-width="1.5" d="M0,-3.0v7 M-2.5,-0.5L0,-3.0L2.5,-0.5"/>
  </g>
  <g id="arrowLeft" transform="rotate(270) translate(-36 17)">
    <use xlink:href="#rim"/>
    <path pointer-events="none" fill="none" stroke="white" stroke-width="1.5" d="M0,-3.0v7 M-2.5,-0.5L0,-3.0L2.5,-0.5"/>
  </g>
  <g id="resetDef">
    <use xlink:href="#rim2" fill="#404040"><set attributeName="fill" to="#808080" begin="reset.mouseover" end="reset.mouseout"/></use>
  </g>
</defs>
<script type="application/ecmascript">
var viewWidth = 2175;
var viewHeight = 595;
var sectionId = 'dynsection-2';
</script>
<script type="application/ecmascript" xlink:href="svg.min.js"/>
<svg id="graph" class="graph">
<g id="viewport">
<title>PlatformUtils::getTerminalSize</title>
<!-- Node1 -->
<g id="Node000001" class="node">
<title>Node1</title>
<g id="a_Node000001"><a xlink:title="Gets current terminal dimensions.">
<polygon fill="#999999" stroke="#666666" points="2167,-529.19 2002,-529.19 2002,-510.19 2167,-510.19 2167,-529.19"/>
<text text-anchor="middle" x="2084.5" y="-517.19" font-family="Helvetica,sans-Serif" font-size="10.00">PlatformUtils::getTerminalSize</text>
</a>
</g>
</g>
<!-- Node2 -->
<g id="Node000002" class="node">
<title>Node2</title>
<g id="a_Node000002"><a xlink:href="classPlatformUtils.html#a83f2ca1f10bf991d53883913641a3821" target="_top" xlink:title="Checks if terminal meets minimum size requirements.">
<polygon fill="white" stroke="#666666" points="643.5,-558.69 506.5,-558.69 506.5,-528.69 643.5,-528.69 643.5,-558.69"/>
<text text-anchor="start" x="514.5" y="-546.69" font-family="Helvetica,sans-Serif" font-size="10.00">PlatformUtils::isTerminal</text>
<text text-anchor="middle" x="575" y="-535.69" font-family="Helvetica,sans-Serif" font-size="10.00">SizeValid</text>
</a>
</g>
</g>
<!-- Node1&#45;&gt;Node2 -->
<g id="edge1_Node000001_Node000002" class="edge">
<title>Node1&#45;&gt;Node2</title>
<g id="a_edge1_Node000001_Node000002"><a xlink:title=" ">
<path fill="none" stroke="#63b8ff" d="M1991.66,-526.44C1900.18,-532.58 1755.71,-540.69 1630.5,-540.69 1630.5,-540.69 1630.5,-540.69 977,-540.69 859.86,-540.69 723.49,-541.98 643.76,-542.87"/>
<polygon fill="#63b8ff" stroke="#63b8ff" points="1991.98,-529.93 2001.72,-525.76 1991.5,-522.94 1991.98,-529.93"/>
</a>
</g>
</g>
<!-- Node3 -->
<g id="Node000003" class="node">
<title>Node3</title>
<g id="a_Node000003"><a xlink:href="main_8cpp.html#ae66f6b31b5ad750f1fe042a706a4e3d4" target="_top" xlink:title="Main function that serves as the application entry point.">
<polygon fill="white" stroke="#666666" points="41,-536.19 0,-536.19 0,-517.19 41,-517.19 41,-536.19"/>
<text text-anchor="middle" x="20.5" y="-524.19" font-family="Helvetica,sans-Serif" font-size="10.00">main</text>
</a>
</g>
</g>
<!-- Node1&#45;&gt;Node3 -->
<g id="edge3_Node000001_Node000003" class="edge">
<title>Node1&#45;&gt;Node3</title>
<g id="a_edge3_Node000001_Node000003"><a xlink:title=" ">
<path fill="none" stroke="#63b8ff" d="M2038.31,-531.78C2016.57,-537.25 1990.07,-543.43 1966,-547.69 1818.17,-573.8 1780.62,-586.69 1630.5,-586.69 1630.5,-586.69 1630.5,-586.69 350.5,-586.69 227.9,-586.69 195.18,-583.33 77,-550.69 64.25,-547.16 50.61,-541.3 40.04,-536.24"/>
<polygon fill="#63b8ff" stroke="#63b8ff" points="2039.43,-535.1 2048.25,-529.24 2037.69,-528.32 2039.43,-535.1"/>
</a>
</g>
</g>
<!-- Node4 -->
<g id="Node000004" class="node">
<title>Node4</title>
<g id="a_Node000004"><a xlink:href="classPlatformUtils.html#a706d468490e5e97ebfcdd6e4cf68b860" target="_top" xlink:title="Displays message about required terminal size.">
<polygon fill="white" stroke="#666666" points="424,-518.69 279,-518.69 279,-488.69 424,-488.69 424,-518.69"/>
<text text-anchor="start" x="287" y="-506.69" font-family="Helvetica,sans-Serif" font-size="10.00">PlatformUtils::showResize</text>
<text text-anchor="middle" x="351.5" y="-495.69" font-family="Helvetica,sans-Serif" font-size="10.00">Message</text>
</a>
</g>
</g>
<!-- Node1&#45;&gt;Node4 -->
<g id="edge4_Node000001_Node000004" class="edge">
<title>Node1&#45;&gt;Node4</title>
<g id="a_edge4_Node000001_Node000004"><a xlink:title=" ">
<path fill="none" stroke="#63b8ff" d="M1991.65,-513.57C1900.16,-508.02 1755.69,-500.69 1630.5,-500.69 1630.5,-500.69 1630.5,-500.69 783,-500.69 656.69,-500.69 509.53,-501.99 424.1,-502.88"/>
<polygon fill="#63b8ff" stroke="#63b8ff" points="1991.51,-517.07 2001.71,-514.19 1991.94,-510.08 1991.51,-517.07"/>
</a>
</g>
</g>
<!-- Node6 -->
<g id="Node000006" class="node">
<title>Node6</title>
<g id="a_Node000006"><a xlink:href="classConsoleRenderer.html#aae418386985b5ad1286af9cb8a7726c9" target="_top" xlink:title="Updates terminal size information.">
<polygon fill="white" stroke="#666666" points="1966,-424.19 1764,-424.19 1764,-405.19 1966,-405.19 1966,-424.19"/>
<text text-anchor="middle" x="1865" y="-412.19" font-family="Helvetica,sans-Serif" font-size="10.00">ConsoleRenderer::updateTerminalSize</text>
</a>
</g>
</g>
<!-- Node1&#45;&gt;Node6 -->
<g id="edge8_Node000001_Node000006" class="edge">
<title>Node1&#45;&gt;Node6</title>
<g id="a_edge8_Node000001_Node000006"><a xlink:title=" ">
<path fill="none" stroke="#63b8ff" d="M2054.62,-505.74C2009.73,-484.07 1924.37,-442.86 1885.8,-424.24"/>
<polygon fill="#63b8ff" stroke="#63b8ff" points="2053.29,-508.99 2063.81,-510.18 2056.33,-502.68 2053.29,-508.99"/>
</a>
</g>
</g>
<!-- Node2&#45;&gt;Node3 -->
<g id="edge2_Node000002_Node000003" class="edge">
<title>Node2&#45;&gt;Node3</title>
<g id="a_edge2_Node000002_Node000003"><a xlink:title=" ">
<path fill="none" stroke="#63b8ff" d="M496.29,-544.02C398.4,-543.97 225.06,-542.31 77,-532.69 65.1,-531.91 51.83,-530.5 41.24,-529.24"/>
<polygon fill="#63b8ff" stroke="#63b8ff" points="496.39,-547.52 506.39,-544.02 496.39,-540.52 496.39,-547.52"/>
</a>
</g>
</g>
<!-- Node4&#45;&gt;Node3 -->
<g id="edge5_Node000004_Node000003" class="edge">
<title>Node4&#45;&gt;Node3</title>
<g id="a_edge5_Node000004_Node000003"><a xlink:title=" ">
<path fill="none" stroke="#63b8ff" d="M268.67,-509.41C192.71,-514.72 84.95,-522.25 41.15,-525.31"/>
<polygon fill="#63b8ff" stroke="#63b8ff" points="268.97,-512.89 278.71,-508.7 268.49,-505.91 268.97,-512.89"/>
</a>
</g>
</g>
<!-- Node5 -->
<g id="Node000005" class="node">
<title>Node5</title>
<g id="a_Node000005"><a xlink:href="classGameController.html#ac958989c8f7f08488546930e5fcb0d82" target="_top" xlink:title="Starts and runs the main game loop.">
<polygon fill="white" stroke="#666666" points="222,-470.19 77,-470.19 77,-451.19 222,-451.19 222,-470.19"/>
<text text-anchor="middle" x="149.5" y="-458.19" font-family="Helvetica,sans-Serif" font-size="10.00">GameController::runGame</text>
</a>
</g>
</g>
<!-- Node4&#45;&gt;Node5 -->
<g id="edge6_Node000004_Node000005" class="edge">
<title>Node4&#45;&gt;Node5</title>
<g id="a_edge6_Node000004_Node000005"><a xlink:title=" ">
<path fill="none" stroke="#63b8ff" d="M270.74,-486.54C244.87,-480.98 217.11,-475.01 194.79,-470.21"/>
<polygon fill="#63b8ff" stroke="#63b8ff" points="270.04,-489.97 280.55,-488.65 271.51,-483.12 270.04,-489.97"/>
</a>
</g>
</g>
<!-- Node5&#45;&gt;Node3 -->
<g id="edge7_Node000005_Node000003" class="edge">
<title>Node5&#45;&gt;Node3</title>
<g id="a_edge7_Node000005_Node000003"><a xlink:title=" ">
<path fill="none" stroke="#63b8ff" d="M114.61,-474.12C102.55,-479.23 88.99,-485.35 77,-491.69 62.29,-499.45 46.31,-509.74 35.29,-517.15"/>
<polygon fill="#63b8ff" stroke="#63b8ff" points="116.02,-477.33 123.91,-470.26 113.33,-470.86 116.02,-477.33"/>
</a>
</g>
</g>
<!-- Node7 -->
<g id="Node000007" class="node">
<title>Node7</title>
<g id="a_Node000007"><a xlink:href="classConsoleRenderer.html#a9576db66ee7dc8d9fdec36f0181b9a12" target="_top" xlink:title="Checks if terminal size meets requirements.">
<polygon fill="white" stroke="#666666" points="1728,-337.19 1531,-337.19 1531,-318.19 1728,-318.19 1728,-337.19"/>
<text text-anchor="middle" x="1629.5" y="-325.19" font-family="Helvetica,sans-Serif" font-size="10.00">ConsoleRenderer::checkTerminalSize</text>
</a>
</g>
</g>
<!-- Node6&#45;&gt;Node7 -->
<g id="edge9_Node000006_Node000007" class="edge">
<title>Node6&#45;&gt;Node7</title>
<g id="a_edge9_Node000006_Node000007"><a xlink:title=" ">
<path fill="none" stroke="#63b8ff" d="M1828.56,-401.48C1781.09,-383.79 1698,-352.83 1656.14,-337.24"/>
<polygon fill="#63b8ff" stroke="#63b8ff" points="1827.53,-404.83 1838.12,-405.04 1829.97,-398.27 1827.53,-404.83"/>
</a>
</g>
</g>
<!-- Node23 -->
<g id="Node000023" class="node">
<title>Node23</title>
<g id="a_Node000023"><a xlink:href="classConsoleRenderer.html#a737ede37b60e5b2eaf26dbd1408dd03d" target="_top" xlink:title="Constructs a ConsoleRenderer object.">
<polygon fill="white" stroke="#666666" points="1702,-429.69 1557,-429.69 1557,-399.69 1702,-399.69 1702,-429.69"/>
<text text-anchor="start" x="1565" y="-417.69" font-family="Helvetica,sans-Serif" font-size="10.00">ConsoleRenderer::Console</text>
<text text-anchor="middle" x="1629.5" y="-406.69" font-family="Helvetica,sans-Serif" font-size="10.00">Renderer</text>
</a>
</g>
</g>
<!-- Node6&#45;&gt;Node23 -->
<g id="edge45_Node000006_Node000023" class="edge">
<title>Node6&#45;&gt;Node23</title>
<g id="a_edge45_Node000006_Node000023"><a xlink:title=" ">
<path fill="none" stroke="#63b8ff" d="M1753.68,-414.69C1736.16,-414.69 1718.44,-414.69 1702.12,-414.69"/>
<polygon fill="#63b8ff" stroke="#63b8ff" points="1753.96,-418.19 1763.96,-414.69 1753.96,-411.19 1753.96,-418.19"/>
</a>
</g>
</g>
<!-- Node7&#45;&gt;Node5 -->
<g id="edge44_Node000007_Node000005" class="edge">
<title>Node7&#45;&gt;Node5</title>
<g id="a_edge44_Node000007_Node000005"><a xlink:title=" ">
<path fill="none" stroke="#63b8ff" d="M1606.19,-342.96C1580.49,-359.83 1536.48,-386.62 1495,-401.69 1365.02,-448.9 1327.79,-460.69 1189.5,-460.69 1189.5,-460.69 1189.5,-460.69 574,-460.69 450.3,-460.69 306.27,-460.69 222.06,-460.69"/>
<polygon fill="#63b8ff" stroke="#63b8ff" points="1608.4,-345.69 1614.78,-337.23 1604.52,-339.86 1608.4,-345.69"/>
</a>
</g>
</g>
<!-- Node8 -->
<g id="Node000008" class="node">
<title>Node8</title>
<g id="a_Node000008"><a xlink:href="classConsoleRenderer.html#a38306106200aabcfd90f6fe0552e18ea" target="_top" xlink:title="Draws game over screen.">
<polygon fill="white" stroke="#666666" points="1279.5,-45.19 1097.5,-45.19 1097.5,-26.19 1279.5,-26.19 1279.5,-45.19"/>
<text text-anchor="middle" x="1188.5" y="-33.19" font-family="Helvetica,sans-Serif" font-size="10.00">ConsoleRenderer::drawGameOver</text>
</a>
</g>
</g>
<!-- Node7&#45;&gt;Node8 -->
<g id="edge10_Node000007_Node000008" class="edge">
<title>Node7&#45;&gt;Node8</title>
<g id="a_edge10_Node000007_Node000008"><a xlink:title=" ">
<path fill="none" stroke="#63b8ff" d="M1625.08,-308.02C1615.21,-257.83 1581.66,-124.81 1495,-65.69 1420.49,-14.85 1310.97,-18.12 1245.3,-26.17"/>
<polygon fill="#63b8ff" stroke="#63b8ff" points="1621.7,-308.97 1626.97,-318.17 1628.58,-307.69 1621.7,-308.97"/>
</a>
</g>
</g>
<!-- Node10 -->
<g id="Node000010" class="node">
<title>Node10</title>
<g id="a_Node000010"><a xlink:href="classConsoleRenderer.html#a8c9ea938ec7728f1f3436a0a9d944cf2" target="_top" xlink:title="Draws level completion screen.">
<polygon fill="white" stroke="#666666" points="1056,-362.69 900,-362.69 900,-332.69 1056,-332.69 1056,-362.69"/>
<text text-anchor="start" x="908" y="-350.69" font-family="Helvetica,sans-Serif" font-size="10.00">ConsoleRenderer::drawLevel</text>
<text text-anchor="middle" x="978" y="-339.69" font-family="Helvetica,sans-Serif" font-size="10.00">Complete</text>
</a>
</g>
</g>
<!-- Node7&#45;&gt;Node10 -->
<g id="edge13_Node000007_Node000010" class="edge">
<title>Node7&#45;&gt;Node10</title>
<g id="a_edge13_Node000007_Node000010"><a xlink:title=" ">
<path fill="none" stroke="#63b8ff" d="M1573.02,-339.15C1549.11,-343.7 1520.78,-348.59 1495,-351.69 1317.52,-373.03 1271.27,-377.9 1093,-364.69 1081.03,-363.8 1068.4,-362.39 1056.09,-360.76"/>
<polygon fill="#63b8ff" stroke="#63b8ff" points="1573.82,-342.56 1582.98,-337.23 1572.49,-335.69 1573.82,-342.56"/>
</a>
</g>
</g>
<!-- Node12 -->
<g id="Node000012" class="node">
<title>Node12</title>
<g id="a_Node000012"><a xlink:href="classConsoleRenderer.html#afd03640670c991dfa8240af639c2f0da" target="_top" xlink:title="Draws map selection screen.">
<polygon fill="white" stroke="#666666" points="1483,-210.69 1332,-210.69 1332,-180.69 1483,-180.69 1483,-210.69"/>
<text text-anchor="start" x="1340" y="-198.69" font-family="Helvetica,sans-Serif" font-size="10.00">ConsoleRenderer::drawMap</text>
<text text-anchor="middle" x="1407.5" y="-187.69" font-family="Helvetica,sans-Serif" font-size="10.00">Selection</text>
</a>
</g>
</g>
<!-- Node7&#45;&gt;Node12 -->
<g id="edge16_Node000007_Node000012" class="edge">
<title>Node7&#45;&gt;Node12</title>
<g id="a_edge16_Node000007_Node000012"><a xlink:title=" ">
<path fill="none" stroke="#63b8ff" d="M1612.33,-310.8C1588.7,-287.08 1542.39,-244.08 1495,-219.69 1488.35,-216.26 1481.15,-213.28 1473.85,-210.69"/>
<polygon fill="#63b8ff" stroke="#63b8ff" points="1609.94,-313.36 1619.44,-318.05 1614.93,-308.46 1609.94,-313.36"/>
</a>
</g>
</g>
<!-- Node17 -->
<g id="Node000017" class="node">
<title>Node17</title>
<g id="a_Node000017"><a xlink:href="classConsoleRenderer.html#aa9273ce964dc1492d66a30b772213e81" target="_top" xlink:title="Draws main menu screen.">
<polygon fill="white" stroke="#666666" points="1267,-356.19 1110,-356.19 1110,-337.19 1267,-337.19 1267,-356.19"/>
<text text-anchor="middle" x="1188.5" y="-344.19" font-family="Helvetica,sans-Serif" font-size="10.00">ConsoleRenderer::drawMenu</text>
</a>
</g>
</g>
<!-- Node7&#45;&gt;Node17 -->
<g id="edge27_Node000007_Node000017" class="edge">
<title>Node7&#45;&gt;Node17</title>
<g id="a_edge27_Node000007_Node000017"><a xlink:title=" ">
<path fill="none" stroke="#63b8ff" d="M1520.39,-332.36C1441.9,-335.76 1337.56,-340.28 1267.2,-343.32"/>
<polygon fill="#63b8ff" stroke="#63b8ff" points="1520.96,-335.84 1530.8,-331.91 1520.66,-328.85 1520.96,-335.84"/>
</a>
</g>
</g>
<!-- Node18 -->
<g id="Node000018" class="node">
<title>Node18</title>
<g id="a_Node000018"><a xlink:href="classConsoleRenderer.html#a678f6e7177b2d466b8953d4f01bb7436" target="_top" xlink:title="Draws pause screen.">
<polygon fill="white" stroke="#666666" points="1057,-91.69 899,-91.69 899,-61.69 1057,-61.69 1057,-91.69"/>
<text text-anchor="start" x="907" y="-79.69" font-family="Helvetica,sans-Serif" font-size="10.00">ConsoleRenderer::drawPause</text>
<text text-anchor="middle" x="978" y="-68.69" font-family="Helvetica,sans-Serif" font-size="10.00">Screen</text>
</a>
</g>
</g>
<!-- Node7&#45;&gt;Node18 -->
<g id="edge29_Node000007_Node000018" class="edge">
<title>Node7&#45;&gt;Node18</title>
<g id="a_edge29_Node000007_Node000018"><a xlink:title=" ">
<path fill="none" stroke="#63b8ff" d="M1617.54,-309.06C1597.4,-276.42 1551.36,-208.86 1495,-171.69 1360.22,-82.79 1164.71,-71.45 1057.18,-72.89"/>
<polygon fill="#63b8ff" stroke="#63b8ff" points="1614.77,-311.24 1622.94,-317.99 1620.76,-307.62 1614.77,-311.24"/>
</a>
</g>
</g>
<!-- Node19 -->
<g id="Node000019" class="node">
<title>Node19</title>
<g id="a_Node000019"><a xlink:href="classConsoleRenderer.html#a0e17aa687bd8d7381b2bf8425b2a9709" target="_top" xlink:title="Draws settings screen.">
<polygon fill="white" stroke="#666666" points="1492.5,-318.19 1322.5,-318.19 1322.5,-299.19 1492.5,-299.19 1492.5,-318.19"/>
<text text-anchor="middle" x="1407.5" y="-306.19" font-family="Helvetica,sans-Serif" font-size="10.00">ConsoleRenderer::drawSettings</text>
</a>
</g>
</g>
<!-- Node7&#45;&gt;Node19 -->
<g id="edge32_Node000007_Node000019" class="edge">
<title>Node7&#45;&gt;Node19</title>
<g id="a_edge32_Node000007_Node000019"><a xlink:title=" ">
<path fill="none" stroke="#63b8ff" d="M1520.54,-318.36C1511.13,-317.55 1501.71,-316.74 1492.54,-315.94"/>
<polygon fill="#63b8ff" stroke="#63b8ff" points="1520.46,-321.87 1530.72,-319.24 1521.06,-314.89 1520.46,-321.87"/>
</a>
</g>
</g>
<!-- Node21 -->
<g id="Node000021" class="node">
<title>Node21</title>
<g id="a_Node000021"><a xlink:href="classGameController.html#a19dc0995b5ee51a87bf49dff90f4e991" target="_top" xlink:title="Handles terminal resize events.">
<polygon fill="white" stroke="#666666" points="1495,-258.69 1320,-258.69 1320,-228.69 1495,-228.69 1495,-258.69"/>
<text text-anchor="start" x="1328" y="-246.69" font-family="Helvetica,sans-Serif" font-size="10.00">GameController::handleTerminal</text>
<text text-anchor="middle" x="1407.5" y="-235.69" font-family="Helvetica,sans-Serif" font-size="10.00">Resize</text>
</a>
</g>
</g>
<!-- Node7&#45;&gt;Node21 -->
<g id="edge35_Node000007_Node000021" class="edge">
<title>Node7&#45;&gt;Node21</title>
<g id="a_edge35_Node000007_Node000021"><a xlink:title=" ">
<path fill="none" stroke="#63b8ff" d="M1593.75,-314.42C1554.09,-299.28 1489.37,-274.56 1447.88,-258.72"/>
<polygon fill="#63b8ff" stroke="#63b8ff" points="1592.67,-317.75 1603.26,-318.05 1595.17,-311.21 1592.67,-317.75"/>
</a>
</g>
</g>
<!-- Node22 -->
<g id="Node000022" class="node">
<title>Node22</title>
<g id="a_Node000022"><a xlink:href="classConsoleRenderer.html#ab34fa7af4ede79de3951f1d5271d7a27" target="_top" xlink:title="Renders the game world to console.">
<polygon fill="white" stroke="#666666" points="852.5,-415.19 715.5,-415.19 715.5,-396.19 852.5,-396.19 852.5,-415.19"/>
<text text-anchor="middle" x="784" y="-403.19" font-family="Helvetica,sans-Serif" font-size="10.00">ConsoleRenderer::render</text>
</a>
</g>
</g>
<!-- Node7&#45;&gt;Node22 -->
<g id="edge42_Node000007_Node000022" class="edge">
<title>Node7&#45;&gt;Node22</title>
<g id="a_edge42_Node000007_Node000022"><a xlink:title=" ">
<path fill="none" stroke="#63b8ff" d="M1597.8,-341.42C1571.19,-352.61 1531.37,-367.65 1495,-374.69 1262.72,-419.62 980.07,-414.63 852.83,-409.3"/>
<polygon fill="#63b8ff" stroke="#63b8ff" points="1599.49,-344.5 1607.31,-337.35 1596.74,-338.07 1599.49,-344.5"/>
</a>
</g>
</g>
<!-- Node9 -->
<g id="Node000009" class="node">
<title>Node9</title>
<g id="a_Node000009"><a xlink:href="classGameController.html#af2367e58f03d8a1441c9a574967fd360" target="_top" xlink:title="Processes a single game turn/update cycle.">
<polygon fill="white" stroke="#666666" points="445,-205.19 258,-205.19 258,-186.19 445,-186.19 445,-205.19"/>
<text text-anchor="middle" x="351.5" y="-193.19" font-family="Helvetica,sans-Serif" font-size="10.00">GameController::processGameTurn</text>
</a>
</g>
</g>
<!-- Node8&#45;&gt;Node9 -->
<g id="edge11_Node000008_Node000009" class="edge">
<title>Node8&#45;&gt;Node9</title>
<g id="a_edge11_Node000008_Node000009"><a xlink:title=" ">
<path fill="none" stroke="#63b8ff" d="M1128.78,-24.35C1003.41,-3.04 702.92,32.57 481,-65.69 420.93,-92.28 373.99,-160.86 358.22,-186.14"/>
<polygon fill="#63b8ff" stroke="#63b8ff" points="1128.48,-27.85 1138.93,-26.11 1129.68,-20.96 1128.48,-27.85"/>
</a>
</g>
</g>
<!-- Node9&#45;&gt;Node5 -->
<g id="edge12_Node000009_Node000005" class="edge">
<title>Node9&#45;&gt;Node5</title>
<g id="a_edge12_Node000009_Node000005"><a xlink:title=" ">
<path fill="none" stroke="#63b8ff" d="M321.83,-209.99C302.03,-220.96 276.1,-237.6 258,-257.69 201.12,-320.78 164.47,-419.41 153.77,-450.77"/>
<polygon fill="#63b8ff" stroke="#63b8ff" points="323.57,-213.03 330.73,-205.22 320.26,-206.86 323.57,-213.03"/>
</a>
</g>
</g>
<!-- Node11 -->
<g id="Node000011" class="node">
<title>Node11</title>
<g id="a_Node000011"><a xlink:href="classGameController.html#a85bcf4ecfd197aad278e116215a3717b" target="_top" xlink:title="Displays level completion screen.">
<polygon fill="white" stroke="#666666" points="860,-329.69 708,-329.69 708,-299.69 860,-299.69 860,-329.69"/>
<text text-anchor="start" x="716" y="-317.69" font-family="Helvetica,sans-Serif" font-size="10.00">GameController::showLevel</text>
<text text-anchor="middle" x="784" y="-306.69" font-family="Helvetica,sans-Serif" font-size="10.00">CompleteScreen</text>
</a>
</g>
</g>
<!-- Node10&#45;&gt;Node11 -->
<g id="edge14_Node000010_Node000011" class="edge">
<title>Node10&#45;&gt;Node11</title>
<g id="a_edge14_Node000010_Node000011"><a xlink:title=" ">
<path fill="none" stroke="#63b8ff" d="M889.58,-332.66C879.78,-330.98 869.86,-329.27 860.23,-327.62"/>
<polygon fill="#63b8ff" stroke="#63b8ff" points="889.29,-336.16 899.74,-334.41 890.47,-329.26 889.29,-336.16"/>
</a>
</g>
</g>
<!-- Node11&#45;&gt;Node9 -->
<g id="edge15_Node000011_Node000009" class="edge">
<title>Node11&#45;&gt;Node9</title>
<g id="a_edge15_Node000011_Node000009"><a xlink:title=" ">
<path fill="none" stroke="#63b8ff" d="M718.68,-296.91C626.23,-271.35 459.01,-225.13 387.01,-205.22"/>
<polygon fill="#63b8ff" stroke="#63b8ff" points="717.91,-300.32 728.48,-299.61 719.77,-293.58 717.91,-300.32"/>
</a>
</g>
</g>
<!-- Node13 -->
<g id="Node000013" class="node">
<title>Node13</title>
<g id="a_Node000013"><a xlink:href="classGameController.html#a4a9c94fe33cf6c73bb5dfc415d04d309" target="_top" xlink:title="Displays map selection screen.">
<polygon fill="white" stroke="#666666" points="1284,-205.19 1093,-205.19 1093,-186.19 1284,-186.19 1284,-205.19"/>
<text text-anchor="middle" x="1188.5" y="-193.19" font-family="Helvetica,sans-Serif" font-size="10.00">GameController::showMapSelection</text>
</a>
</g>
</g>
<!-- Node12&#45;&gt;Node13 -->
<g id="edge17_Node000012_Node000013" class="edge">
<title>Node12&#45;&gt;Node13</title>
<g id="a_edge17_Node000012_Node000013"><a xlink:title=" ">
<path fill="none" stroke="#63b8ff" d="M1321.64,-195.69C1309.37,-195.69 1296.69,-195.69 1284.25,-195.69"/>
<polygon fill="#63b8ff" stroke="#63b8ff" points="1321.82,-199.19 1331.82,-195.69 1321.82,-192.19 1321.82,-199.19"/>
</a>
</g>
</g>
<!-- Node14 -->
<g id="Node000014" class="node">
<title>Node14</title>
<g id="a_Node000014"><a xlink:href="classGameController.html#a971b3d8f6296a74f0bebc83b5e79c186" target="_top" xlink:title="Processes a user command.">
<polygon fill="white" stroke="#666666" points="669,-205.19 481,-205.19 481,-186.19 669,-186.19 669,-205.19"/>
<text text-anchor="middle" x="575" y="-193.19" font-family="Helvetica,sans-Serif" font-size="10.00">GameController::processCommand</text>
</a>
</g>
</g>
<!-- Node13&#45;&gt;Node14 -->
<g id="edge18_Node000013_Node000014" class="edge">
<title>Node13&#45;&gt;Node14</title>
<g id="a_edge18_Node000013_Node000014"><a xlink:title=" ">
<path fill="none" stroke="#63b8ff" d="M1082.63,-195.69C966.35,-195.69 780.55,-195.69 669.2,-195.69"/>
<polygon fill="#63b8ff" stroke="#63b8ff" points="1082.96,-199.19 1092.96,-195.69 1082.96,-192.19 1082.96,-199.19"/>
</a>
</g>
</g>
<!-- Node15 -->
<g id="Node000015" class="node">
<title>Node15</title>
<g id="a_Node000015"><a xlink:href="classGameController.html#a9d11b5a6255b7249bddba49df0837cf3" target="_top" xlink:title="Displays and manages the main menu.">
<polygon fill="white" stroke="#666666" points="1054,-243.19 902,-243.19 902,-224.19 1054,-224.19 1054,-243.19"/>
<text text-anchor="middle" x="978" y="-231.19" font-family="Helvetica,sans-Serif" font-size="10.00">GameController::showMenu</text>
</a>
</g>
</g>
<!-- Node13&#45;&gt;Node15 -->
<g id="edge20_Node000013_Node000015" class="edge">
<title>Node13&#45;&gt;Node15</title>
<g id="a_edge20_Node000013_Node000015"><a xlink:title=" ">
<path fill="none" stroke="#63b8ff" d="M1088.57,-206.97C1057.95,-212.47 1026.72,-218.85 1005.47,-224.18"/>
<polygon fill="#63b8ff" stroke="#63b8ff" points="1089.23,-210.41 1098.47,-205.23 1088.02,-203.52 1089.23,-210.41"/>
</a>
</g>
</g>
<!-- Node14&#45;&gt;Node9 -->
<g id="edge19_Node000014_Node000009" class="edge">
<title>Node14&#45;&gt;Node9</title>
<g id="a_edge19_Node000014_Node000009"><a xlink:title=" ">
<path fill="none" stroke="#63b8ff" d="M470.5,-195.69C462.1,-195.69 453.65,-195.69 445.33,-195.69"/>
<polygon fill="#63b8ff" stroke="#63b8ff" points="470.71,-199.19 480.71,-195.69 470.71,-192.19 470.71,-199.19"/>
</a>
</g>
</g>
<!-- Node15&#45;&gt;Node5 -->
<g id="edge24_Node000015_Node000005" class="edge">
<title>Node15&#45;&gt;Node5</title>
<g id="a_edge24_Node000015_Node000005"><a xlink:title=" ">
<path fill="none" stroke="#63b8ff" d="M914.52,-245.1C859.15,-255.62 776.26,-272.34 705,-290.69 500.72,-343.29 259.43,-423.65 178.52,-451.1"/>
<polygon fill="#63b8ff" stroke="#63b8ff" points="915.35,-248.51 924.53,-243.21 914.05,-241.63 915.35,-248.51"/>
</a>
</g>
</g>
<!-- Node15&#45;&gt;Node11 -->
<g id="edge25_Node000015_Node000011" class="edge">
<title>Node15&#45;&gt;Node11</title>
<g id="a_edge25_Node000015_Node000011"><a xlink:title=" ">
<path fill="none" stroke="#63b8ff" d="M926.53,-246.27C917.14,-249.43 907.58,-253.22 899,-257.69 881.02,-267.04 880.71,-275.82 863,-285.69 853.54,-290.96 842.92,-295.63 832.64,-299.61"/>
<polygon fill="#63b8ff" stroke="#63b8ff" points="927.74,-249.56 936.22,-243.21 925.63,-242.89 927.74,-249.56"/>
</a>
</g>
</g>
<!-- Node15&#45;&gt;Node13 -->
<g id="edge26_Node000015_Node000013" class="edge">
<title>Node15&#45;&gt;Node13</title>
<g id="a_edge26_Node000015_Node000013"><a xlink:title=" ">
<path fill="none" stroke="#63b8ff" d="M1064.29,-224.79C1098.83,-218.87 1136.24,-211.4 1160.67,-205.28"/>
<polygon fill="#63b8ff" stroke="#63b8ff" points="1063.44,-221.39 1054.16,-226.5 1064.6,-228.29 1063.44,-221.39"/>
</a>
</g>
</g>
<!-- Node15&#45;&gt;Node14 -->
<g id="edge23_Node000015_Node000014" class="edge">
<title>Node15&#45;&gt;Node14</title>
<g id="a_edge23_Node000015_Node000014"><a xlink:title=" ">
<path fill="none" stroke="#63b8ff" d="M891.77,-226.61C838.14,-222.04 767.49,-215.83 705,-209.69 690.88,-208.3 675.89,-206.74 661.32,-205.19"/>
<polygon fill="#63b8ff" stroke="#63b8ff" points="891.66,-230.11 901.92,-227.47 892.25,-223.14 891.66,-230.11"/>
</a>
</g>
</g>
<!-- Node16 -->
<g id="Node000016" class="node">
<title>Node16</title>
<g id="a_Node000016"><a xlink:href="classGameController.html#a637ea4e72ed2be4a2884b30160b3e8ab" target="_top" xlink:title="Pauses the game and displays pause screen.">
<polygon fill="white" stroke="#666666" points="863,-167.19 705,-167.19 705,-148.19 863,-148.19 863,-167.19"/>
<text text-anchor="middle" x="784" y="-155.19" font-family="Helvetica,sans-Serif" font-size="10.00">GameController::pauseGame</text>
</a>
</g>
</g>
<!-- Node15&#45;&gt;Node16 -->
<g id="edge21_Node000015_Node000016" class="edge">
<title>Node15&#45;&gt;Node16</title>
<g id="a_edge21_Node000015_Node000016"><a xlink:title=" ">
<path fill="none" stroke="#63b8ff" d="M942.97,-220.21C904.52,-205 842.91,-180.61 809.12,-167.23"/>
<polygon fill="#63b8ff" stroke="#63b8ff" points="942.1,-223.63 952.68,-224.06 944.67,-217.13 942.1,-223.63"/>
</a>
</g>
</g>
<!-- Node16&#45;&gt;Node14 -->
<g id="edge22_Node000016_Node000014" class="edge">
<title>Node16&#45;&gt;Node14</title>
<g id="a_edge22_Node000016_Node000014"><a xlink:title=" ">
<path fill="none" stroke="#63b8ff" d="M721.19,-169.03C691.49,-174.48 656.29,-180.95 627.99,-186.14"/>
<polygon fill="#63b8ff" stroke="#63b8ff" points="721.83,-172.47 731.03,-167.23 720.56,-165.59 721.83,-172.47"/>
</a>
</g>
</g>
<!-- Node17&#45;&gt;Node15 -->
<g id="edge28_Node000017_Node000015" class="edge">
<title>Node17&#45;&gt;Node15</title>
<g id="a_edge28_Node000017_Node000015"><a xlink:title=" ">
<path fill="none" stroke="#63b8ff" d="M1109.6,-334.27C1103.87,-332.37 1098.28,-330.2 1093,-327.69 1047.6,-306.09 1004.89,-262.46 987.37,-243.2"/>
<polygon fill="#63b8ff" stroke="#63b8ff" points="1108.75,-337.66 1119.33,-337.18 1110.76,-330.96 1108.75,-337.66"/>
</a>
</g>
</g>
<!-- Node18&#45;&gt;Node9 -->
<g id="edge31_Node000018_Node000009" class="edge">
<title>Node18&#45;&gt;Node9</title>
<g id="a_edge31_Node000018_Node000009"><a xlink:title=" ">
<path fill="none" stroke="#63b8ff" d="M888.64,-67.64C787.2,-60.45 617.27,-58.3 481,-105.69 430.58,-123.22 382.04,-166.66 362.06,-186.06"/>
<polygon fill="#63b8ff" stroke="#63b8ff" points="888.61,-71.15 898.84,-68.4 889.13,-64.17 888.61,-71.15"/>
</a>
</g>
</g>
<!-- Node18&#45;&gt;Node16 -->
<g id="edge30_Node000018_Node000016" class="edge">
<title>Node18&#45;&gt;Node16</title>
<g id="a_edge30_Node000018_Node000016"><a xlink:title=" ">
<path fill="none" stroke="#63b8ff" d="M931.77,-95.77C892.73,-112.24 837.95,-135.35 807.56,-148.17"/>
<polygon fill="#63b8ff" stroke="#63b8ff" points="933.48,-98.84 941.34,-91.73 930.76,-92.39 933.48,-98.84"/>
</a>
</g>
</g>
<!-- Node20 -->
<g id="Node000020" class="node">
<title>Node20</title>
<g id="a_Node000020"><a xlink:href="classGameController.html#a24f5cae258418d4a5934e6f412c28945" target="_top" xlink:title="Displays and manages the settings menu.">
<polygon fill="white" stroke="#666666" points="1271,-319.19 1106,-319.19 1106,-300.19 1271,-300.19 1271,-319.19"/>
<text text-anchor="middle" x="1188.5" y="-307.19" font-family="Helvetica,sans-Serif" font-size="10.00">GameController::showSettings</text>
</a>
</g>
</g>
<!-- Node19&#45;&gt;Node20 -->
<g id="edge33_Node000019_Node000020" class="edge">
<title>Node19&#45;&gt;Node20</title>
<g id="a_edge33_Node000019_Node000020"><a xlink:title=" ">
<path fill="none" stroke="#63b8ff" d="M1311.97,-309.12C1298.37,-309.18 1284.48,-309.25 1271.17,-309.31"/>
<polygon fill="#63b8ff" stroke="#63b8ff" points="1312.31,-312.62 1322.29,-309.07 1312.28,-305.62 1312.31,-312.62"/>
</a>
</g>
</g>
<!-- Node20&#45;&gt;Node15 -->
<g id="edge34_Node000020_Node000015" class="edge">
<title>Node20&#45;&gt;Node15</title>
<g id="a_edge34_Node000020_Node000015"><a xlink:title=" ">
<path fill="none" stroke="#63b8ff" d="M1151.6,-296.6C1109.93,-281.41 1042.2,-256.72 1005.19,-243.23"/>
<polygon fill="#63b8ff" stroke="#63b8ff" points="1150.5,-299.92 1161.09,-300.06 1152.9,-293.35 1150.5,-299.92"/>
</a>
</g>
</g>
<!-- Node21&#45;&gt;Node9 -->
<g id="edge37_Node000021_Node000009" class="edge">
<title>Node21&#45;&gt;Node9</title>
<g id="a_edge37_Node000021_Node000009"><a xlink:title=" ">
<path fill="none" stroke="#63b8ff" d="M1324.76,-223.3C1323.12,-222.16 1321.53,-220.96 1320,-219.69 1291.89,-196.28 1314.15,-166.38 1284,-145.69 1171.83,-68.7 1115.05,-119.69 979,-119.69 979,-119.69 979,-119.69 783,-119.69 631.78,-119.69 455.17,-165.73 384.29,-186.14"/>
<polygon fill="#63b8ff" stroke="#63b8ff" points="1322.99,-226.32 1333.36,-228.49 1326.61,-220.33 1322.99,-226.32"/>
</a>
</g>
</g>
<!-- Node21&#45;&gt;Node11 -->
<g id="edge38_Node000021_Node000011" class="edge">
<title>Node21&#45;&gt;Node11</title>
<g id="a_edge38_Node000021_Node000011"><a xlink:title=" ">
<path fill="none" stroke="#63b8ff" d="M1309.5,-254.77C1185.4,-268.94 973.05,-293.2 860.37,-306.08"/>
<polygon fill="#63b8ff" stroke="#63b8ff" points="1310.22,-258.21 1319.76,-253.6 1309.42,-251.25 1310.22,-258.21"/>
</a>
</g>
</g>
<!-- Node21&#45;&gt;Node13 -->
<g id="edge39_Node000021_Node000013" class="edge">
<title>Node21&#45;&gt;Node13</title>
<g id="a_edge39_Node000021_Node000013"><a xlink:title=" ">
<path fill="none" stroke="#63b8ff" d="M1328.56,-226.45C1296.3,-219.31 1260.11,-211.3 1232.74,-205.25"/>
<polygon fill="#63b8ff" stroke="#63b8ff" points="1327.92,-229.89 1338.44,-228.63 1329.43,-223.05 1327.92,-229.89"/>
</a>
</g>
</g>
<!-- Node21&#45;&gt;Node15 -->
<g id="edge40_Node000021_Node000015" class="edge">
<title>Node21&#45;&gt;Node15</title>
<g id="a_edge40_Node000021_Node000015"><a xlink:title=" ">
<path fill="none" stroke="#63b8ff" d="M1309.75,-241.42C1232.36,-239.61 1125.4,-237.11 1054.3,-235.45"/>
<polygon fill="#63b8ff" stroke="#63b8ff" points="1309.91,-244.93 1319.99,-241.66 1310.07,-237.93 1309.91,-244.93"/>
</a>
</g>
</g>
<!-- Node21&#45;&gt;Node16 -->
<g id="edge36_Node000021_Node000016" class="edge">
<title>Node21&#45;&gt;Node16</title>
<g id="a_edge36_Node000021_Node000016"><a xlink:title=" ">
<path fill="none" stroke="#63b8ff" d="M1328.12,-224.37C1325.32,-222.92 1322.6,-221.36 1320,-219.69 1299.05,-206.19 1306.38,-187.66 1284,-176.69 1212.19,-141.47 984.7,-147.15 863.23,-153.06"/>
<polygon fill="#63b8ff" stroke="#63b8ff" points="1326.77,-227.61 1337.31,-228.66 1329.73,-221.26 1326.77,-227.61"/>
</a>
</g>
</g>
<!-- Node21&#45;&gt;Node20 -->
<g id="edge41_Node000021_Node000020" class="edge">
<title>Node21&#45;&gt;Node20</title>
<g id="a_edge41_Node000021_Node000020"><a xlink:title=" ">
<path fill="none" stroke="#63b8ff" d="M1355.92,-262.07C1333.95,-269.78 1307.84,-278.59 1284,-285.69 1266.48,-290.9 1246.92,-295.99 1230.17,-300.13"/>
<polygon fill="#63b8ff" stroke="#63b8ff" points="1357.12,-265.35 1365.38,-258.72 1354.78,-258.75 1357.12,-265.35"/>
</a>
</g>
</g>
<!-- Node22&#45;&gt;Node9 -->
<g id="edge43_Node000022_Node000009" class="edge">
<title>Node22&#45;&gt;Node9</title>
<g id="a_edge43_Node000022_Node000009"><a xlink:title=" ">
<path fill="none" stroke="#63b8ff" d="M749.12,-392.39C692.58,-369.83 575.81,-321.72 481,-272.69 438.5,-250.7 390.71,-220.54 367.19,-205.32"/>
<polygon fill="#63b8ff" stroke="#63b8ff" points="748.06,-395.73 758.64,-396.17 750.64,-389.22 748.06,-395.73"/>
</a>
</g>
</g>
</g>
</svg>

<g id="navigator" transform="translate(0 0)" fill="#404254">
  <rect fill="#f2f5e9" fill-opacity="0.5" stroke="#606060" stroke-width=".5" x="0" y="0" width="60" height="60"/>
  <use id="zoomplus" xlink:href="#zoomPlus" x="17" y="9" onmousedown="handleZoom(evt,'in')"/>
  <use id="zoomminus" xlink:href="#zoomMin" x="42" y="9" onmousedown="handleZoom(evt,'out')"/>
  <use id="reset" xlink:href="#resetDef" x="30" y="36" onmousedown="handleReset()"/>
   <use id="arrowup" xlink:href="#arrowUp" x="0" y="0" onmousedown="handlePan(0,-1)"/>
  <use id="arrowright" xlink:href="#arrowRight" x="0" y="0" onmousedown="handlePan(1,0)"/>
  <use id="arrowdown" xlink:href="#arrowDown" x="0" y="0" onmousedown="handlePan(0,1)"/>
  <use id="arrowleft" xlink:href="#arrowLeft" x="0" y="0" onmousedown="handlePan(-1,0)"/>
</g>
<svg viewBox="0 0 15 15" width="100%" height="30px" preserveAspectRatio="xMaxYMin meet">
 <g id="arrow_out" transform="scale(0.3 0.3)">
  <a xlink:href="classPlatformUtils_a9fb2159f36325087d8c93e7937d6da0b_icgraph_org.svg" target="_base">
   <rect id="button" ry="5" rx="5" y="6" x="6" height="38" width="38"
        fill="#f2f5e9" fill-opacity="0.5" stroke="#606060" stroke-width="1.0"/>
   <path id="arrow"
     d="M 11.500037,31.436501 C 11.940474,20.09759 22.043105,11.32322 32.158766,21.979434 L 37.068811,17.246167 C 37.068811,17.246167 37.088388,32 37.088388,32 L 22.160133,31.978069 C 22.160133,31.978069 26.997745,27.140456 26.997745,27.140456 C 18.528582,18.264221 13.291696,25.230495 11.500037,31.436501 z"
     style="fill:#404040;"/>
  </a>
 </g>
</svg>

<style type='text/css'>
<![CDATA[
[data-mouse-over-selected='false'] { opacity: 0.7; }
[data-mouse-over-selected='true']  { opacity: 1.0; }
]]>
</style>
<script type="application/ecmascript"><![CDATA[
document.addEventListener('DOMContentLoaded', (event) => {
  highlightEdges();
  highlightAdjacentNodes();
});
]]></script>
</svg>
