<?xml version="1.0" encoding="UTF-8" standalone="no"?>
<!DOCTYPE svg PUBLIC "-//W3C//DTD SVG 1.1//EN"
 "http://www.w3.org/Graphics/SVG/1.1/DTD/svg11.dtd">
<!-- Generated by graphviz version 2.43.0 (0)
 -->
<!-- Title: GameWorld::isValidPosition Pages: 1 -->
<!--zoomable 261 -->

<svg id="main" version="1.1" xmlns="http://www.w3.org/2000/svg" xmlns:xlink="http://www.w3.org/1999/xlink" xml:space="preserve" onload="init(evt)">
<style type="text/css"><![CDATA[
.node, .edge {opacity: 0.7;}
.node.selected, .edge.selected {opacity: 1;}
.edge:hover path { stroke: red; }
.edge:hover polygon { stroke: red; fill: red; }
]]></style>

<defs>
  <circle id="rim" cx="0" cy="0" r="7"/>
  <circle id="rim2" cx="0" cy="0" r="3.5"/>
  <g id="zoomPlus">
    <use xlink:href="#rim" fill="#404040"><set attributeName="fill" to="#808080" begin="zoomplus.mouseover" end="zoomplus.mouseout"/></use>
    <path d="M-4,0h8M0,-4v8" fill="none" stroke="white" stroke-width="1.5" pointer-events="none"/>
  </g>
  <g id="zoomMin">
    <use xlink:href="#rim" fill="#404040"><set attributeName="fill" to="#808080" begin="zoomminus.mouseover" end="zoomminus.mouseout"/></use>
    <path d="M-4,0h8" fill="none" stroke="white" stroke-width="1.5" pointer-events="none"/>
  </g>
  <g id="arrowUp" transform="translate(30 24)">
    <use xlink:href="#rim"/>
    <path pointer-events="none" fill="none" stroke="white" stroke-width="1.5" d="M0,-3.0v7 M-2.5,-0.5L0,-3.0L2.5,-0.5"/>
  </g>
  <g id="arrowRight" transform="rotate(90) translate(36 -43)">
    <use xlink:href="#rim"/>
    <path pointer-events="none" fill="none" stroke="white" stroke-width="1.5" d="M0,-3.0v7 M-2.5,-0.5L0,-3.0L2.5,-0.5"/>
  </g>
  <g id="arrowDown" transform="rotate(180) translate(-30 -48)">
    <use xlink:href="#rim"/>
    <path pointer-events="none" fill="none" stroke="white" stroke-width="1.5" d="M0,-3.0v7 M-2.5,-0.5L0,-3.0L2.5,-0.5"/>
  </g>
  <g id="arrowLeft" transform="rotate(270) translate(-36 17)">
    <use xlink:href="#rim"/>
    <path pointer-events="none" fill="none" stroke="white" stroke-width="1.5" d="M0,-3.0v7 M-2.5,-0.5L0,-3.0L2.5,-0.5"/>
  </g>
  <g id="resetDef">
    <use xlink:href="#rim2" fill="#404040"><set attributeName="fill" to="#808080" begin="reset.mouseover" end="reset.mouseout"/></use>
  </g>
</defs>
<script type="application/ecmascript">
var viewWidth = 2153;
var viewHeight = 261;
var sectionId = 'dynsection-46';
</script>
<script type="application/ecmascript" xlink:href="svg.min.js"/>
<svg id="graph" class="graph">
<g id="viewport">
<title>GameWorld::isValidPosition</title>
<!-- Node1 -->
<g id="Node000001" class="node">
<title>Node1</title>
<g id="a_Node000001"><a xlink:title="Checks if position is valid.">
<polygon fill="#999999" stroke="#666666" points="2145,-190 1994,-190 1994,-171 2145,-171 2145,-190"/>
<text text-anchor="middle" x="2069.5" y="-178" font-family="Helvetica,sans-Serif" font-size="10.00">GameWorld::isValidPosition</text>
</a>
</g>
</g>
<!-- Node2 -->
<g id="Node000002" class="node">
<title>Node2</title>
<g id="a_Node000002"><a xlink:href="classGameWorld.html#a704a245a7945b1d7453b22bd698ff5b3" target="_top" xlink:title="Creates obstacles for level.">
<polygon fill="white" stroke="#666666" points="1956.5,-172 1771.5,-172 1771.5,-153 1956.5,-153 1956.5,-172"/>
<text text-anchor="middle" x="1864" y="-160" font-family="Helvetica,sans-Serif" font-size="10.00">GameWorld::createLevelObstacles</text>
</a>
</g>
</g>
<!-- Node1&#45;&gt;Node2 -->
<g id="edge1_Node000001_Node000002" class="edge">
<title>Node1&#45;&gt;Node2</title>
<g id="a_edge1_Node000001_Node000002"><a xlink:title=" ">
<path fill="none" stroke="#63b8ff" d="M1983.81,-173.01C1974.82,-172.21 1965.63,-171.4 1956.56,-170.6"/>
<polygon fill="#63b8ff" stroke="#63b8ff" points="1983.61,-176.5 1993.88,-173.9 1984.23,-169.53 1983.61,-176.5"/>
</a>
</g>
</g>
<!-- Node14 -->
<g id="Node000014" class="node">
<title>Node14</title>
<g id="a_Node000014"><a xlink:href="classGameWorld.html#a982893516231aaf0aec251561189b5c9" target="_top" xlink:title="Handles enemy collision.">
<polygon fill="white" stroke="#666666" points="1958,-209 1770,-209 1770,-190 1958,-190 1958,-209"/>
<text text-anchor="middle" x="1864" y="-197" font-family="Helvetica,sans-Serif" font-size="10.00">GameWorld::handleEnemyCollision</text>
</a>
</g>
</g>
<!-- Node1&#45;&gt;Node14 -->
<g id="edge21_Node000001_Node000014" class="edge">
<title>Node1&#45;&gt;Node14</title>
<g id="a_edge21_Node000001_Node000014"><a xlink:title=" ">
<path fill="none" stroke="#63b8ff" d="M1983.74,-188.41C1975.34,-189.2 1966.79,-190 1958.31,-190.79"/>
<polygon fill="#63b8ff" stroke="#63b8ff" points="1984.25,-191.88 1993.88,-187.47 1983.6,-184.91 1984.25,-191.88"/>
</a>
</g>
</g>
<!-- Node15 -->
<g id="Node000015" class="node">
<title>Node15</title>
<g id="a_Node000015"><a xlink:href="classGameWorld.html#a49a5714c352312fbc4502adc5dfa8854" target="_top" xlink:title="Updates movement for specific enemy.">
<polygon fill="white" stroke="#666666" points="1734,-247 1534,-247 1534,-228 1734,-228 1734,-247"/>
<text text-anchor="middle" x="1634" y="-235" font-family="Helvetica,sans-Serif" font-size="10.00">GameWorld::updateEnemyMovement</text>
</a>
</g>
</g>
<!-- Node1&#45;&gt;Node15 -->
<g id="edge28_Node000001_Node000015" class="edge">
<title>Node1&#45;&gt;Node15</title>
<g id="a_edge28_Node000001_Node000015"><a xlink:title=" ">
<path fill="none" stroke="#63b8ff" d="M2037.16,-193.84C2015.38,-202.48 1985.44,-213.08 1958,-218.5 1883.88,-233.14 1798.48,-237.64 1734.12,-238.62"/>
<polygon fill="#63b8ff" stroke="#63b8ff" points="2038.6,-197.04 2046.56,-190.04 2035.98,-190.55 2038.6,-197.04"/>
</a>
</g>
</g>
<!-- Node18 -->
<g id="Node000018" class="node">
<title>Node18</title>
<g id="a_Node000018"><a xlink:href="classGameWorld.html#a2b1db90f0ef907c7e93b1114357b8a90" target="_top" xlink:title="Moves player tank in specified direction.">
<polygon fill="white" stroke="#666666" points="1043.5,-19 906.5,-19 906.5,0 1043.5,0 1043.5,-19"/>
<text text-anchor="middle" x="975" y="-7" font-family="Helvetica,sans-Serif" font-size="10.00">GameWorld::playerMove</text>
</a>
</g>
</g>
<!-- Node1&#45;&gt;Node18 -->
<g id="edge26_Node000001_Node000018" class="edge">
<title>Node1&#45;&gt;Node18</title>
<g id="a_edge26_Node000001_Node000018"><a xlink:title=" ">
<path fill="none" stroke="#63b8ff" d="M2041.47,-166.12C1974.58,-131.9 1795.09,-48.5 1635,-48.5 1635,-48.5 1635,-48.5 1405,-48.5 1275.25,-48.5 1124.32,-30.59 1040.52,-19.04"/>
<polygon fill="#63b8ff" stroke="#63b8ff" points="2040.02,-169.31 2050.51,-170.79 2043.24,-163.09 2040.02,-169.31"/>
</a>
</g>
</g>
<!-- Node3 -->
<g id="Node000003" class="node">
<title>Node3</title>
<g id="a_Node000003"><a xlink:href="classGameWorld.html#a13fd8123f71f48726bfeb233961f88da" target="_top" xlink:title="Loads specified level.">
<polygon fill="white" stroke="#666666" points="1697.5,-172 1570.5,-172 1570.5,-153 1697.5,-153 1697.5,-172"/>
<text text-anchor="middle" x="1634" y="-160" font-family="Helvetica,sans-Serif" font-size="10.00">GameWorld::loadLevel</text>
</a>
</g>
</g>
<!-- Node2&#45;&gt;Node3 -->
<g id="edge2_Node000002_Node000003" class="edge">
<title>Node2&#45;&gt;Node3</title>
<g id="a_edge2_Node000002_Node000003"><a xlink:title=" ">
<path fill="none" stroke="#63b8ff" d="M1761.03,-162.5C1739.4,-162.5 1717.19,-162.5 1697.55,-162.5"/>
<polygon fill="#63b8ff" stroke="#63b8ff" points="1761.25,-166 1771.25,-162.5 1761.25,-159 1761.25,-166"/>
</a>
</g>
</g>
<!-- Node4 -->
<g id="Node000004" class="node">
<title>Node4</title>
<g id="a_Node000004"><a xlink:href="classGameController.html#a4086fc466d91f45c41b2bc5df06af77a" target="_top" xlink:title="Loads the next game level.">
<polygon fill="white" stroke="#666666" points="1254.5,-215.5 1110.5,-215.5 1110.5,-185.5 1254.5,-185.5 1254.5,-215.5"/>
<text text-anchor="start" x="1118.5" y="-203.5" font-family="Helvetica,sans-Serif" font-size="10.00">GameController::loadNext</text>
<text text-anchor="middle" x="1182.5" y="-192.5" font-family="Helvetica,sans-Serif" font-size="10.00">Level</text>
</a>
</g>
</g>
<!-- Node3&#45;&gt;Node4 -->
<g id="edge3_Node000003_Node000004" class="edge">
<title>Node3&#45;&gt;Node4</title>
<g id="a_edge3_Node000003_Node000004"><a xlink:title=" ">
<path fill="none" stroke="#63b8ff" d="M1560.22,-173.14C1540.1,-175.83 1518.23,-178.51 1498,-180.5 1414.69,-188.69 1318.63,-194.24 1254.81,-197.37"/>
<polygon fill="#63b8ff" stroke="#63b8ff" points="1560.82,-176.59 1570.26,-171.78 1559.88,-169.66 1560.82,-176.59"/>
</a>
</g>
</g>
<!-- Node9 -->
<g id="Node000009" class="node">
<title>Node9</title>
<g id="a_Node000009"><a xlink:href="classGameController.html#a09c76a5ae9b8f514163dafe31273f44f" target="_top" xlink:title="Loads the currently selected map.">
<polygon fill="white" stroke="#666666" points="1498,-172 1314,-172 1314,-153 1498,-153 1498,-172"/>
<text text-anchor="middle" x="1406" y="-160" font-family="Helvetica,sans-Serif" font-size="10.00">GameController::loadSelectedMap</text>
</a>
</g>
</g>
<!-- Node3&#45;&gt;Node9 -->
<g id="edge8_Node000003_Node000009" class="edge">
<title>Node3&#45;&gt;Node9</title>
<g id="a_edge8_Node000003_Node000009"><a xlink:title=" ">
<path fill="none" stroke="#63b8ff" d="M1560.2,-162.5C1540.43,-162.5 1518.77,-162.5 1498.13,-162.5"/>
<polygon fill="#63b8ff" stroke="#63b8ff" points="1560.35,-166 1570.35,-162.5 1560.35,-159 1560.35,-166"/>
</a>
</g>
</g>
<!-- Node10 -->
<g id="Node000010" class="node">
<title>Node10</title>
<g id="a_Node000010"><a xlink:href="classGameController.html#a4a9c94fe33cf6c73bb5dfc415d04d309" target="_top" xlink:title="Displays map selection screen.">
<polygon fill="white" stroke="#666666" points="1278,-134 1087,-134 1087,-115 1278,-115 1278,-134"/>
<text text-anchor="middle" x="1182.5" y="-122" font-family="Helvetica,sans-Serif" font-size="10.00">GameController::showMapSelection</text>
</a>
</g>
</g>
<!-- Node3&#45;&gt;Node10 -->
<g id="edge20_Node000003_Node000010" class="edge">
<title>Node3&#45;&gt;Node10</title>
<g id="a_edge20_Node000003_Node000010"><a xlink:title=" ">
<path fill="none" stroke="#63b8ff" d="M1562.62,-151.52C1541.85,-148.57 1519.05,-145.61 1498,-143.5 1424.39,-136.11 1340.77,-131.22 1278.27,-128.26"/>
<polygon fill="#63b8ff" stroke="#63b8ff" points="1562.24,-155 1572.64,-152.96 1563.24,-148.07 1562.24,-155"/>
</a>
</g>
</g>
<!-- Node5 -->
<g id="Node000005" class="node">
<title>Node5</title>
<g id="a_Node000005"><a xlink:href="classGameController.html#a85bcf4ecfd197aad278e116215a3717b" target="_top" xlink:title="Displays level completion screen.">
<polygon fill="white" stroke="#666666" points="860,-219.5 708,-219.5 708,-189.5 860,-189.5 860,-219.5"/>
<text text-anchor="start" x="716" y="-207.5" font-family="Helvetica,sans-Serif" font-size="10.00">GameController::showLevel</text>
<text text-anchor="middle" x="784" y="-196.5" font-family="Helvetica,sans-Serif" font-size="10.00">CompleteScreen</text>
</a>
</g>
</g>
<!-- Node4&#45;&gt;Node5 -->
<g id="edge4_Node000004_Node000005" class="edge">
<title>Node4&#45;&gt;Node5</title>
<g id="a_edge4_Node000004_Node000005"><a xlink:title=" ">
<path fill="none" stroke="#63b8ff" d="M1100,-201.32C1029.58,-202.03 928.65,-203.05 860.15,-203.74"/>
<polygon fill="#63b8ff" stroke="#63b8ff" points="1100.19,-204.82 1110.16,-201.22 1100.12,-197.82 1100.19,-204.82"/>
</a>
</g>
</g>
<!-- Node6 -->
<g id="Node000006" class="node">
<title>Node6</title>
<g id="a_Node000006"><a xlink:href="classGameController.html#af2367e58f03d8a1441c9a574967fd360" target="_top" xlink:title="Processes a single game turn/update cycle.">
<polygon fill="white" stroke="#666666" points="445,-210 258,-210 258,-191 445,-191 445,-210"/>
<text text-anchor="middle" x="351.5" y="-198" font-family="Helvetica,sans-Serif" font-size="10.00">GameController::processGameTurn</text>
</a>
</g>
</g>
<!-- Node5&#45;&gt;Node6 -->
<g id="edge5_Node000005_Node000006" class="edge">
<title>Node5&#45;&gt;Node6</title>
<g id="a_edge5_Node000005_Node000006"><a xlink:title=" ">
<path fill="none" stroke="#63b8ff" d="M697.45,-203.71C624.55,-203.03 520.01,-202.06 445.15,-201.36"/>
<polygon fill="#63b8ff" stroke="#63b8ff" points="697.49,-207.21 707.52,-203.8 697.55,-200.21 697.49,-207.21"/>
</a>
</g>
</g>
<!-- Node7 -->
<g id="Node000007" class="node">
<title>Node7</title>
<g id="a_Node000007"><a xlink:href="classGameController.html#ac958989c8f7f08488546930e5fcb0d82" target="_top" xlink:title="Starts and runs the main game loop.">
<polygon fill="white" stroke="#666666" points="222,-190 77,-190 77,-171 222,-171 222,-190"/>
<text text-anchor="middle" x="149.5" y="-178" font-family="Helvetica,sans-Serif" font-size="10.00">GameController::runGame</text>
</a>
</g>
</g>
<!-- Node6&#45;&gt;Node7 -->
<g id="edge6_Node000006_Node000007" class="edge">
<title>Node6&#45;&gt;Node7</title>
<g id="a_edge6_Node000006_Node000007"><a xlink:title=" ">
<path fill="none" stroke="#63b8ff" d="M247.71,-190.22C239.1,-189.36 230.52,-188.5 222.22,-187.67"/>
<polygon fill="#63b8ff" stroke="#63b8ff" points="247.52,-193.72 257.82,-191.23 248.22,-186.75 247.52,-193.72"/>
</a>
</g>
</g>
<!-- Node8 -->
<g id="Node000008" class="node">
<title>Node8</title>
<g id="a_Node000008"><a xlink:href="main_8cpp.html#ae66f6b31b5ad750f1fe042a706a4e3d4" target="_top" xlink:title="Main function that serves as the application entry point.">
<polygon fill="white" stroke="#666666" points="41,-190 0,-190 0,-171 41,-171 41,-190"/>
<text text-anchor="middle" x="20.5" y="-178" font-family="Helvetica,sans-Serif" font-size="10.00">main</text>
</a>
</g>
</g>
<!-- Node7&#45;&gt;Node8 -->
<g id="edge7_Node000007_Node000008" class="edge">
<title>Node7&#45;&gt;Node8</title>
<g id="a_edge7_Node000007_Node000008"><a xlink:title=" ">
<path fill="none" stroke="#63b8ff" d="M66.79,-180.5C57.31,-180.5 48.43,-180.5 41.08,-180.5"/>
<polygon fill="#63b8ff" stroke="#63b8ff" points="66.83,-184 76.83,-180.5 66.83,-177 66.83,-184"/>
</a>
</g>
</g>
<!-- Node9&#45;&gt;Node4 -->
<g id="edge9_Node000009_Node000004" class="edge">
<title>Node9&#45;&gt;Node4</title>
<g id="a_edge9_Node000009_Node000004"><a xlink:title=" ">
<path fill="none" stroke="#63b8ff" d="M1339.4,-173.75C1312.74,-178.33 1281.87,-183.62 1254.67,-188.29"/>
<polygon fill="#63b8ff" stroke="#63b8ff" points="1340.13,-177.18 1349.39,-172.04 1338.94,-170.28 1340.13,-177.18"/>
</a>
</g>
</g>
<!-- Node9&#45;&gt;Node10 -->
<g id="edge10_Node000009_Node000010" class="edge">
<title>Node9&#45;&gt;Node10</title>
<g id="a_edge10_Node000009_Node000010"><a xlink:title=" ">
<path fill="none" stroke="#63b8ff" d="M1339.27,-151.22C1307.41,-145.76 1269.55,-139.26 1239.13,-134.04"/>
<polygon fill="#63b8ff" stroke="#63b8ff" points="1338.94,-154.72 1349.39,-152.96 1340.13,-147.82 1338.94,-154.72"/>
</a>
</g>
</g>
<!-- Node11 -->
<g id="Node000011" class="node">
<title>Node11</title>
<g id="a_Node000011"><a xlink:href="classGameController.html#a971b3d8f6296a74f0bebc83b5e79c186" target="_top" xlink:title="Processes a user command.">
<polygon fill="white" stroke="#666666" points="669,-95 481,-95 481,-76 669,-76 669,-95"/>
<text text-anchor="middle" x="575" y="-83" font-family="Helvetica,sans-Serif" font-size="10.00">GameController::processCommand</text>
</a>
</g>
</g>
<!-- Node10&#45;&gt;Node11 -->
<g id="edge11_Node000010_Node000011" class="edge">
<title>Node10&#45;&gt;Node11</title>
<g id="a_edge11_Node000010_Node000011"><a xlink:title=" ">
<path fill="none" stroke="#63b8ff" d="M1132.15,-112.65C1069.87,-98.37 959.24,-75.19 863,-66.5 793.06,-60.18 775.03,-61.37 705,-66.5 679.71,-68.35 651.86,-72.22 628.53,-75.99"/>
<polygon fill="#63b8ff" stroke="#63b8ff" points="1131.56,-116.11 1142.09,-114.95 1133.14,-109.29 1131.56,-116.11"/>
</a>
</g>
</g>
<!-- Node12 -->
<g id="Node000012" class="node">
<title>Node12</title>
<g id="a_Node000012"><a xlink:href="classGameController.html#a9d11b5a6255b7249bddba49df0837cf3" target="_top" xlink:title="Displays and manages the main menu.">
<polygon fill="white" stroke="#666666" points="1051,-134 899,-134 899,-115 1051,-115 1051,-134"/>
<text text-anchor="middle" x="975" y="-122" font-family="Helvetica,sans-Serif" font-size="10.00">GameController::showMenu</text>
</a>
</g>
</g>
<!-- Node10&#45;&gt;Node12 -->
<g id="edge13_Node000010_Node000012" class="edge">
<title>Node10&#45;&gt;Node12</title>
<g id="a_edge13_Node000010_Node000012"><a xlink:title=" ">
<path fill="none" stroke="#63b8ff" d="M1076.72,-117.75C1068.06,-117.76 1059.43,-117.84 1051.06,-117.97"/>
<polygon fill="#63b8ff" stroke="#63b8ff" points="1076.86,-121.25 1086.87,-117.77 1076.88,-114.25 1076.86,-121.25"/>
</a>
</g>
</g>
<!-- Node11&#45;&gt;Node6 -->
<g id="edge12_Node000011_Node000006" class="edge">
<title>Node11&#45;&gt;Node6</title>
<g id="a_edge12_Node000011_Node000006"><a xlink:title=" ">
<path fill="none" stroke="#63b8ff" d="M546.44,-99.81C500.66,-123.58 410.12,-170.58 371.11,-190.84"/>
<polygon fill="#63b8ff" stroke="#63b8ff" points="548.23,-102.82 555.5,-95.11 545.01,-96.61 548.23,-102.82"/>
</a>
</g>
</g>
<!-- Node12&#45;&gt;Node5 -->
<g id="edge18_Node000012_Node000005" class="edge">
<title>Node12&#45;&gt;Node5</title>
<g id="a_edge18_Node000012_Node000005"><a xlink:title=" ">
<path fill="none" stroke="#63b8ff" d="M944.92,-138.58C922.68,-149.18 891.15,-163.82 863,-175.5 851.52,-180.26 838.96,-185.1 827.32,-189.42"/>
<polygon fill="#63b8ff" stroke="#63b8ff" points="946.64,-141.64 954.15,-134.17 943.62,-135.33 946.64,-141.64"/>
</a>
</g>
</g>
<!-- Node12&#45;&gt;Node7 -->
<g id="edge17_Node000012_Node000007" class="edge">
<title>Node12&#45;&gt;Node7</title>
<g id="a_edge17_Node000012_Node000007"><a xlink:title=" ">
<path fill="none" stroke="#63b8ff" d="M888.28,-130.33C725.26,-141.41 373.37,-165.34 222.05,-175.63"/>
<polygon fill="#63b8ff" stroke="#63b8ff" points="889,-133.79 898.74,-129.62 888.52,-126.8 889,-133.79"/>
</a>
</g>
</g>
<!-- Node12&#45;&gt;Node10 -->
<g id="edge19_Node000012_Node000010" class="edge">
<title>Node12&#45;&gt;Node10</title>
<g id="a_edge19_Node000012_Node000010"><a xlink:title=" ">
<path fill="none" stroke="#63b8ff" d="M1061.27,-131.16C1069.72,-131.25 1078.33,-131.27 1086.87,-131.23"/>
<polygon fill="#63b8ff" stroke="#63b8ff" points="1061.1,-127.66 1051.06,-131.03 1061.01,-134.66 1061.1,-127.66"/>
</a>
</g>
</g>
<!-- Node12&#45;&gt;Node11 -->
<g id="edge16_Node000012_Node000011" class="edge">
<title>Node12&#45;&gt;Node11</title>
<g id="a_edge16_Node000012_Node000011"><a xlink:title=" ">
<path fill="none" stroke="#63b8ff" d="M888.78,-119.18C835.81,-115.54 766.36,-110.17 705,-103.5 683.31,-101.14 659.64,-98 638.57,-95.01"/>
<polygon fill="#63b8ff" stroke="#63b8ff" points="888.59,-122.67 898.81,-119.86 889.07,-115.69 888.59,-122.67"/>
</a>
</g>
</g>
<!-- Node13 -->
<g id="Node000013" class="node">
<title>Node13</title>
<g id="a_Node000013"><a xlink:href="classGameController.html#a637ea4e72ed2be4a2884b30160b3e8ab" target="_top" xlink:title="Pauses the game and displays pause screen.">
<polygon fill="white" stroke="#666666" points="863,-95 705,-95 705,-76 863,-76 863,-95"/>
<text text-anchor="middle" x="784" y="-83" font-family="Helvetica,sans-Serif" font-size="10.00">GameController::pauseGame</text>
</a>
</g>
</g>
<!-- Node12&#45;&gt;Node13 -->
<g id="edge14_Node000012_Node000013" class="edge">
<title>Node12&#45;&gt;Node13</title>
<g id="a_edge14_Node000012_Node000013"><a xlink:title=" ">
<path fill="none" stroke="#63b8ff" d="M917.84,-112.91C890.18,-107.2 857.24,-100.41 831.08,-95.01"/>
<polygon fill="#63b8ff" stroke="#63b8ff" points="917.26,-116.37 927.77,-114.96 918.68,-109.51 917.26,-116.37"/>
</a>
</g>
</g>
<!-- Node13&#45;&gt;Node11 -->
<g id="edge15_Node000013_Node000011" class="edge">
<title>Node13&#45;&gt;Node11</title>
<g id="a_edge15_Node000013_Node000011"><a xlink:title=" ">
<path fill="none" stroke="#63b8ff" d="M694.62,-85.5C686.25,-85.5 677.75,-85.5 669.34,-85.5"/>
<polygon fill="#63b8ff" stroke="#63b8ff" points="694.74,-89 704.74,-85.5 694.74,-82 694.74,-89"/>
</a>
</g>
</g>
<!-- Node14&#45;&gt;Node15 -->
<g id="edge22_Node000014_Node000015" class="edge">
<title>Node14&#45;&gt;Node15</title>
<g id="a_edge22_Node000014_Node000015"><a xlink:title=" ">
<path fill="none" stroke="#63b8ff" d="M1795.77,-210.7C1762.88,-216.19 1723.71,-222.72 1692.26,-227.96"/>
<polygon fill="#63b8ff" stroke="#63b8ff" points="1796.47,-214.14 1805.76,-209.04 1795.32,-207.23 1796.47,-214.14"/>
</a>
</g>
</g>
<!-- Node16 -->
<g id="Node000016" class="node">
<title>Node16</title>
<g id="a_Node000016"><a xlink:href="classGameWorld.html#a48cb994868f422ae759b15f3b9c861b6" target="_top" xlink:title="Updates AI for all enemies.">
<polygon fill="white" stroke="#666666" points="1484.5,-253 1327.5,-253 1327.5,-234 1484.5,-234 1484.5,-253"/>
<text text-anchor="middle" x="1406" y="-241" font-family="Helvetica,sans-Serif" font-size="10.00">GameWorld::updateEnemyAI</text>
</a>
</g>
</g>
<!-- Node15&#45;&gt;Node16 -->
<g id="edge23_Node000015_Node000016" class="edge">
<title>Node15&#45;&gt;Node16</title>
<g id="a_edge23_Node000015_Node000016"><a xlink:title=" ">
<path fill="none" stroke="#63b8ff" d="M1523.79,-240.4C1510.57,-240.75 1497.28,-241.1 1484.65,-241.44"/>
<polygon fill="#63b8ff" stroke="#63b8ff" points="1523.97,-243.9 1533.87,-240.13 1523.78,-236.9 1523.97,-243.9"/>
</a>
</g>
</g>
<!-- Node17 -->
<g id="Node000017" class="node">
<title>Node17</title>
<g id="a_Node000017"><a xlink:href="classGameWorld.html#ab645acf30cb0a4640a8fb5b88c5c7c94" target="_top" xlink:title="Updates all game objects and logic.">
<polygon fill="white" stroke="#666666" points="631.5,-253 518.5,-253 518.5,-234 631.5,-234 631.5,-253"/>
<text text-anchor="middle" x="575" y="-241" font-family="Helvetica,sans-Serif" font-size="10.00">GameWorld::update</text>
</a>
</g>
</g>
<!-- Node16&#45;&gt;Node17 -->
<g id="edge24_Node000016_Node000017" class="edge">
<title>Node16&#45;&gt;Node17</title>
<g id="a_edge24_Node000016_Node000017"><a xlink:title=" ">
<path fill="none" stroke="#63b8ff" d="M1317.16,-243.5C1146.1,-243.5 772.72,-243.5 631.55,-243.5"/>
<polygon fill="#63b8ff" stroke="#63b8ff" points="1317.38,-247 1327.38,-243.5 1317.38,-240 1317.38,-247"/>
</a>
</g>
</g>
<!-- Node17&#45;&gt;Node6 -->
<g id="edge25_Node000017_Node000006" class="edge">
<title>Node17&#45;&gt;Node6</title>
<g id="a_edge25_Node000017_Node000006"><a xlink:title=" ">
<path fill="none" stroke="#63b8ff" d="M514.65,-231.98C479.27,-225.11 434.9,-216.5 401.52,-210.02"/>
<polygon fill="#63b8ff" stroke="#63b8ff" points="514.36,-235.49 524.84,-233.96 515.69,-228.62 514.36,-235.49"/>
</a>
</g>
</g>
<!-- Node18&#45;&gt;Node11 -->
<g id="edge27_Node000018_Node000011" class="edge">
<title>Node18&#45;&gt;Node11</title>
<g id="a_edge27_Node000018_Node000011"><a xlink:title=" ">
<path fill="none" stroke="#63b8ff" d="M896,-10.42C841.77,-12.53 768.17,-18.3 705,-33.5 664.15,-43.33 619.24,-63.82 594.65,-75.94"/>
<polygon fill="#63b8ff" stroke="#63b8ff" points="896.36,-13.91 906.23,-10.06 896.11,-6.92 896.36,-13.91"/>
</a>
</g>
</g>
</g>
</svg>

<g id="navigator" transform="translate(0 0)" fill="#404254">
  <rect fill="#f2f5e9" fill-opacity="0.5" stroke="#606060" stroke-width=".5" x="0" y="0" width="60" height="60"/>
  <use id="zoomplus" xlink:href="#zoomPlus" x="17" y="9" onmousedown="handleZoom(evt,'in')"/>
  <use id="zoomminus" xlink:href="#zoomMin" x="42" y="9" onmousedown="handleZoom(evt,'out')"/>
  <use id="reset" xlink:href="#resetDef" x="30" y="36" onmousedown="handleReset()"/>
   <use id="arrowup" xlink:href="#arrowUp" x="0" y="0" onmousedown="handlePan(0,-1)"/>
  <use id="arrowright" xlink:href="#arrowRight" x="0" y="0" onmousedown="handlePan(1,0)"/>
  <use id="arrowdown" xlink:href="#arrowDown" x="0" y="0" onmousedown="handlePan(0,1)"/>
  <use id="arrowleft" xlink:href="#arrowLeft" x="0" y="0" onmousedown="handlePan(-1,0)"/>
</g>
<svg viewBox="0 0 15 15" width="100%" height="30px" preserveAspectRatio="xMaxYMin meet">
 <g id="arrow_out" transform="scale(0.3 0.3)">
  <a xlink:href="classGameWorld_a44dd38e9393e523caefeac7448cfc18c_icgraph_org.svg" target="_base">
   <rect id="button" ry="5" rx="5" y="6" x="6" height="38" width="38"
        fill="#f2f5e9" fill-opacity="0.5" stroke="#606060" stroke-width="1.0"/>
   <path id="arrow"
     d="M 11.500037,31.436501 C 11.940474,20.09759 22.043105,11.32322 32.158766,21.979434 L 37.068811,17.246167 C 37.068811,17.246167 37.088388,32 37.088388,32 L 22.160133,31.978069 C 22.160133,31.978069 26.997745,27.140456 26.997745,27.140456 C 18.528582,18.264221 13.291696,25.230495 11.500037,31.436501 z"
     style="fill:#404040;"/>
  </a>
 </g>
</svg>

<style type='text/css'>
<![CDATA[
[data-mouse-over-selected='false'] { opacity: 0.7; }
[data-mouse-over-selected='true']  { opacity: 1.0; }
]]>
</style>
<script type="application/ecmascript"><![CDATA[
document.addEventListener('DOMContentLoaded', (event) => {
  highlightEdges();
  highlightAdjacentNodes();
});
]]></script>
</svg>
