<?xml version="1.0" encoding="UTF-8" standalone="no"?>
<!DOCTYPE svg PUBLIC "-//W3C//DTD SVG 1.1//EN"
 "http://www.w3.org/Graphics/SVG/1.1/DTD/svg11.dtd">
<!-- Generated by graphviz version 2.43.0 (0)
 -->
<!-- Title: EnemyTank::cautiousApproach Pages: 1 -->
<svg width="732pt" height="178pt"
 viewBox="0.00 0.00 732.00 178.21" xmlns="http://www.w3.org/2000/svg" xmlns:xlink="http://www.w3.org/1999/xlink">
<g id="graph0" class="graph" transform="scale(1 1) rotate(0) translate(4 174.21)">
<title>EnemyTank::cautiousApproach</title>
<!-- Node1 -->
<g id="Node000001" class="node">
<title>Node1</title>
<g id="a_Node000001"><a xlink:title="Carefully approaches player.">
<polygon fill="#999999" stroke="#666666" points="166,-81.71 0,-81.71 0,-62.71 166,-62.71 166,-81.71"/>
<text text-anchor="middle" x="83" y="-69.71" font-family="Helvetica,sans-Serif" font-size="10.00">EnemyTank::cautiousApproach</text>
</a>
</g>
</g>
<!-- Node2 -->
<g id="Node000002" class="node">
<title>Node2</title>
<g id="a_Node000002"><a xlink:href="classEnemyTank.html#a9eb0cacdd5e196535f1d60da1ca622ac" target="_top" xlink:title="Gets direction towards last known player position.">
<polygon fill="white" stroke="#666666" points="569.5,-170.21 420.5,-170.21 420.5,-140.21 569.5,-140.21 569.5,-170.21"/>
<text text-anchor="start" x="428.5" y="-158.21" font-family="Helvetica,sans-Serif" font-size="10.00">EnemyTank::getDirectionTo</text>
<text text-anchor="middle" x="495" y="-147.21" font-family="Helvetica,sans-Serif" font-size="10.00">Player</text>
</a>
</g>
</g>
<!-- Node1&#45;&gt;Node2 -->
<g id="edge1_Node000001_Node000002" class="edge">
<title>Node1&#45;&gt;Node2</title>
<g id="a_edge1_Node000001_Node000002"><a xlink:title=" ">
<path fill="none" stroke="#63b8ff" d="M96.21,-81.73C116.72,-97.09 159.96,-126.86 202,-139.21 270.15,-159.22 351.03,-162.14 410.36,-160.67"/>
<polygon fill="#63b8ff" stroke="#63b8ff" points="410.54,-164.16 420.44,-160.37 410.34,-157.17 410.54,-164.16"/>
</a>
</g>
</g>
<!-- Node3 -->
<g id="Node000003" class="node">
<title>Node3</title>
<g id="a_Node000003"><a xlink:href="classEnemyTank.html#a99abccd6cdea62b595ec72f9e374d841" target="_top" xlink:title="Gets Manhattan distance to player.">
<polygon fill="white" stroke="#666666" points="364.5,-130.21 216.5,-130.21 216.5,-100.21 364.5,-100.21 364.5,-130.21"/>
<text text-anchor="start" x="224.5" y="-118.21" font-family="Helvetica,sans-Serif" font-size="10.00">EnemyTank::getDistanceTo</text>
<text text-anchor="middle" x="290.5" y="-107.21" font-family="Helvetica,sans-Serif" font-size="10.00">Player</text>
</a>
</g>
</g>
<!-- Node1&#45;&gt;Node3 -->
<g id="edge2_Node000001_Node000003" class="edge">
<title>Node1&#45;&gt;Node3</title>
<g id="a_edge2_Node000001_Node000003"><a xlink:title=" ">
<path fill="none" stroke="#63b8ff" d="M129.61,-81.75C152.57,-86.56 181.11,-92.53 207.7,-98.09"/>
<polygon fill="#63b8ff" stroke="#63b8ff" points="207.28,-101.58 217.78,-100.2 208.71,-94.73 207.28,-101.58"/>
</a>
</g>
</g>
<!-- Node4 -->
<g id="Node000004" class="node">
<title>Node4</title>
<g id="a_Node000004"><a xlink:href="classEnemyTank.html#ad9f295f9b2df24bb291db3783b292289" target="_top" xlink:title="Moves enemy tank in specified direction.">
<polygon fill="white" stroke="#666666" points="548.5,-43.71 441.5,-43.71 441.5,-24.71 548.5,-24.71 548.5,-43.71"/>
<text text-anchor="middle" x="495" y="-31.71" font-family="Helvetica,sans-Serif" font-size="10.00">EnemyTank::move</text>
</a>
</g>
</g>
<!-- Node1&#45;&gt;Node4 -->
<g id="edge3_Node000001_Node000004" class="edge">
<title>Node1&#45;&gt;Node4</title>
<g id="a_edge3_Node000001_Node000004"><a xlink:title=" ">
<path fill="none" stroke="#63b8ff" d="M140,-62.69C159.57,-59.63 181.71,-56.45 202,-54.21 280.74,-45.52 371.86,-40 431.08,-37.01"/>
<polygon fill="#63b8ff" stroke="#63b8ff" points="431.58,-40.49 441.4,-36.49 431.24,-33.49 431.58,-40.49"/>
</a>
</g>
</g>
<!-- Node5 -->
<g id="Node000005" class="node">
<title>Node5</title>
<g id="a_Node000005"><a xlink:href="classGameObject.html#a4bc41ca14c07e61dafa74a03c4f3e2df" target="_top" xlink:title="Rotates the object to face new direction.">
<polygon fill="white" stroke="#666666" points="724,-61.71 611,-61.71 611,-42.71 724,-42.71 724,-61.71"/>
<text text-anchor="middle" x="667.5" y="-49.71" font-family="Helvetica,sans-Serif" font-size="10.00">GameObject::rotate</text>
</a>
</g>
</g>
<!-- Node1&#45;&gt;Node5 -->
<g id="edge11_Node000001_Node000005" class="edge">
<title>Node1&#45;&gt;Node5</title>
<g id="a_edge11_Node000001_Node000005"><a xlink:title=" ">
<path fill="none" stroke="#63b8ff" d="M108.91,-62.67C132.52,-54.05 169.15,-41.74 202,-35.21 364.8,-2.81 411.91,14.72 575,-16.21 597.36,-20.45 621.24,-30.03 639,-38.25"/>
<polygon fill="#63b8ff" stroke="#63b8ff" points="637.66,-41.49 648.19,-42.63 640.67,-35.17 637.66,-41.49"/>
</a>
</g>
</g>
<!-- Node6 -->
<g id="Node000006" class="node">
<title>Node6</title>
<g id="a_Node000006"><a xlink:href="classEnemyTank.html#aa7421a7881c97b14301ef95e11fac1a8" target="_top" xlink:title="Moves towards player position.">
<polygon fill="white" stroke="#666666" points="379,-81.71 202,-81.71 202,-62.71 379,-62.71 379,-81.71"/>
<text text-anchor="middle" x="290.5" y="-69.71" font-family="Helvetica,sans-Serif" font-size="10.00">EnemyTank::moveTowardsPlayer</text>
</a>
</g>
</g>
<!-- Node1&#45;&gt;Node6 -->
<g id="edge5_Node000001_Node000006" class="edge">
<title>Node1&#45;&gt;Node6</title>
<g id="a_edge5_Node000001_Node000006"><a xlink:title=" ">
<path fill="none" stroke="#63b8ff" d="M166.1,-72.21C174.54,-72.21 183.17,-72.21 191.76,-72.21"/>
<polygon fill="#63b8ff" stroke="#63b8ff" points="191.8,-75.71 201.8,-72.21 191.8,-68.71 191.8,-75.71"/>
</a>
</g>
</g>
<!-- Node4&#45;&gt;Node5 -->
<g id="edge4_Node000004_Node000005" class="edge">
<title>Node4&#45;&gt;Node5</title>
<g id="a_edge4_Node000004_Node000005"><a xlink:title=" ">
<path fill="none" stroke="#63b8ff" d="M548.55,-39.76C565.07,-41.5 583.52,-43.45 600.84,-45.28"/>
<polygon fill="#63b8ff" stroke="#63b8ff" points="600.56,-48.77 610.88,-46.34 601.3,-41.8 600.56,-48.77"/>
</a>
</g>
</g>
<!-- Node6&#45;&gt;Node2 -->
<g id="edge6_Node000006_Node000002" class="edge">
<title>Node6&#45;&gt;Node2</title>
<g id="a_edge6_Node000006_Node000002"><a xlink:title=" ">
<path fill="none" stroke="#63b8ff" d="M354.52,-81.79C362.99,-84.25 371.38,-87.33 379,-91.21 398.08,-100.91 396.81,-111.91 415,-123.21 422.75,-128.02 431.36,-132.38 439.95,-136.21"/>
<polygon fill="#63b8ff" stroke="#63b8ff" points="438.66,-139.47 449.24,-140.16 441.41,-133.02 438.66,-139.47"/>
</a>
</g>
</g>
<!-- Node6&#45;&gt;Node4 -->
<g id="edge7_Node000006_Node000004" class="edge">
<title>Node6&#45;&gt;Node4</title>
<g id="a_edge7_Node000006_Node000004"><a xlink:title=" ">
<path fill="none" stroke="#63b8ff" d="M342.34,-62.67C369.9,-57.5 404.15,-51.07 433.13,-45.63"/>
<polygon fill="#63b8ff" stroke="#63b8ff" points="433.96,-49.04 443.14,-43.75 432.67,-42.16 433.96,-49.04"/>
</a>
</g>
</g>
<!-- Node6&#45;&gt;Node5 -->
<g id="edge10_Node000006_Node000005" class="edge">
<title>Node6&#45;&gt;Node5</title>
<g id="a_edge10_Node000006_Node000005"><a xlink:title=" ">
<path fill="none" stroke="#63b8ff" d="M334.22,-81.73C390.12,-92.64 490.84,-106.99 575,-90.21 597.92,-85.64 622.28,-75.22 640.09,-66.44"/>
<polygon fill="#63b8ff" stroke="#63b8ff" points="641.94,-69.43 649.27,-61.79 638.77,-63.19 641.94,-69.43"/>
</a>
</g>
</g>
<!-- Node7 -->
<g id="Node000007" class="node">
<title>Node7</title>
<g id="a_Node000007"><a xlink:href="classEnemyTank.html#a327ab507c7512b075c5a4c85d6933bba" target="_top" xlink:title="Executes random movement behavior.">
<polygon fill="white" stroke="#666666" points="575,-80.71 415,-80.71 415,-61.71 575,-61.71 575,-80.71"/>
<text text-anchor="middle" x="495" y="-68.71" font-family="Helvetica,sans-Serif" font-size="10.00">EnemyTank::randomBehavior</text>
</a>
</g>
</g>
<!-- Node6&#45;&gt;Node7 -->
<g id="edge8_Node000006_Node000007" class="edge">
<title>Node6&#45;&gt;Node7</title>
<g id="a_edge8_Node000006_Node000007"><a xlink:title=" ">
<path fill="none" stroke="#63b8ff" d="M379.14,-71.77C387.58,-71.73 396.14,-71.69 404.59,-71.65"/>
<polygon fill="#63b8ff" stroke="#63b8ff" points="404.85,-75.15 414.83,-71.6 404.81,-68.15 404.85,-75.15"/>
</a>
</g>
</g>
<!-- Node7&#45;&gt;Node5 -->
<g id="edge9_Node000007_Node000005" class="edge">
<title>Node7&#45;&gt;Node5</title>
<g id="a_edge9_Node000007_Node000005"><a xlink:title=" ">
<path fill="none" stroke="#63b8ff" d="M575.26,-62.38C583.79,-61.42 592.4,-60.46 600.75,-59.53"/>
<polygon fill="#63b8ff" stroke="#63b8ff" points="601.23,-63 610.78,-58.42 600.46,-56.05 601.23,-63"/>
</a>
</g>
</g>
</g>
</svg>
