<?xml version="1.0" encoding="UTF-8" standalone="no"?>
<!DOCTYPE svg PUBLIC "-//W3C//DTD SVG 1.1//EN"
 "http://www.w3.org/Graphics/SVG/1.1/DTD/svg11.dtd">
<!-- Generated by graphviz version 2.43.0 (0)
 -->
<!-- Title: MapManager::calculateAdjustedEnemyCount Pages: 1 -->
<svg width="1942pt" height="145pt"
 viewBox="0.00 0.00 1942.00 145.27" xmlns="http://www.w3.org/2000/svg" xmlns:xlink="http://www.w3.org/1999/xlink">
<g id="graph0" class="graph" transform="scale(1 1) rotate(0) translate(4 141.27)">
<title>MapManager::calculateAdjustedEnemyCount</title>
<!-- Node1 -->
<g id="Node000001" class="node">
<title>Node1</title>
<g id="a_Node000001"><a xlink:title="Calculates adjusted enemy count based on level.">
<polygon fill="#999999" stroke="#666666" points="1934,-71 1761,-71 1761,-41 1934,-41 1934,-71"/>
<text text-anchor="start" x="1769" y="-59" font-family="Helvetica,sans-Serif" font-size="10.00">MapManager::calculateAdjusted</text>
<text text-anchor="middle" x="1847.5" y="-48" font-family="Helvetica,sans-Serif" font-size="10.00">EnemyCount</text>
</a>
</g>
</g>
<!-- Node2 -->
<g id="Node000002" class="node">
<title>Node2</title>
<g id="a_Node000002"><a xlink:href="classMapManager.html#ac1472dad9f9391e45fafadef9c30c1ab" target="_top" xlink:title="Creates game world from map layout.">
<polygon fill="white" stroke="#666666" points="1725,-65.5 1534,-65.5 1534,-46.5 1725,-46.5 1725,-65.5"/>
<text text-anchor="middle" x="1629.5" y="-53.5" font-family="Helvetica,sans-Serif" font-size="10.00">MapManager::createWorldFromMap</text>
</a>
</g>
</g>
<!-- Node1&#45;&gt;Node2 -->
<g id="edge1_Node000001_Node000002" class="edge">
<title>Node1&#45;&gt;Node2</title>
<g id="a_edge1_Node000001_Node000002"><a xlink:title=" ">
<path fill="none" stroke="#63b8ff" d="M1750.63,-56C1742.23,-56 1733.72,-56 1725.33,-56"/>
<polygon fill="#63b8ff" stroke="#63b8ff" points="1750.82,-59.5 1760.82,-56 1750.82,-52.5 1750.82,-59.5"/>
</a>
</g>
</g>
<!-- Node3 -->
<g id="Node000003" class="node">
<title>Node3</title>
<g id="a_Node000003"><a xlink:href="classGameController.html#a09c76a5ae9b8f514163dafe31273f44f" target="_top" xlink:title="Loads the currently selected map.">
<polygon fill="white" stroke="#666666" points="1498,-65.5 1314,-65.5 1314,-46.5 1498,-46.5 1498,-65.5"/>
<text text-anchor="middle" x="1406" y="-53.5" font-family="Helvetica,sans-Serif" font-size="10.00">GameController::loadSelectedMap</text>
</a>
</g>
</g>
<!-- Node2&#45;&gt;Node3 -->
<g id="edge2_Node000002_Node000003" class="edge">
<title>Node2&#45;&gt;Node3</title>
<g id="a_edge2_Node000002_Node000003"><a xlink:title=" ">
<path fill="none" stroke="#63b8ff" d="M1523.85,-56C1515.25,-56 1506.59,-56 1498.1,-56"/>
<polygon fill="#63b8ff" stroke="#63b8ff" points="1523.92,-59.5 1533.92,-56 1523.92,-52.5 1523.92,-59.5"/>
</a>
</g>
</g>
<!-- Node4 -->
<g id="Node000004" class="node">
<title>Node4</title>
<g id="a_Node000004"><a xlink:href="classGameController.html#a4086fc466d91f45c41b2bc5df06af77a" target="_top" xlink:title="Loads the next game level.">
<polygon fill="white" stroke="#666666" points="1047,-49 903,-49 903,-19 1047,-19 1047,-49"/>
<text text-anchor="start" x="911" y="-37" font-family="Helvetica,sans-Serif" font-size="10.00">GameController::loadNext</text>
<text text-anchor="middle" x="975" y="-26" font-family="Helvetica,sans-Serif" font-size="10.00">Level</text>
</a>
</g>
</g>
<!-- Node3&#45;&gt;Node4 -->
<g id="edge3_Node000003_Node000004" class="edge">
<title>Node3&#45;&gt;Node4</title>
<g id="a_edge3_Node000003_Node000004"><a xlink:title=" ">
<path fill="none" stroke="#63b8ff" d="M1303.31,-50.79C1224.46,-46.74 1117.18,-41.24 1047.27,-37.65"/>
<polygon fill="#63b8ff" stroke="#63b8ff" points="1303.59,-54.3 1313.76,-51.32 1303.95,-47.31 1303.59,-54.3"/>
</a>
</g>
</g>
<!-- Node9 -->
<g id="Node000009" class="node">
<title>Node9</title>
<g id="a_Node000009"><a xlink:href="classGameController.html#a4a9c94fe33cf6c73bb5dfc415d04d309" target="_top" xlink:title="Displays map selection screen.">
<polygon fill="white" stroke="#666666" points="1278,-86.5 1087,-86.5 1087,-67.5 1278,-67.5 1278,-86.5"/>
<text text-anchor="middle" x="1182.5" y="-74.5" font-family="Helvetica,sans-Serif" font-size="10.00">GameController::showMapSelection</text>
</a>
</g>
</g>
<!-- Node3&#45;&gt;Node9 -->
<g id="edge8_Node000003_Node000009" class="edge">
<title>Node3&#45;&gt;Node9</title>
<g id="a_edge8_Node000003_Node000009"><a xlink:title=" ">
<path fill="none" stroke="#63b8ff" d="M1303.92,-65.58C1295.34,-66.4 1286.68,-67.22 1278.14,-68.03"/>
<polygon fill="#63b8ff" stroke="#63b8ff" points="1304.32,-69.06 1313.95,-64.63 1303.66,-62.09 1304.32,-69.06"/>
</a>
</g>
</g>
<!-- Node5 -->
<g id="Node000005" class="node">
<title>Node5</title>
<g id="a_Node000005"><a xlink:href="classGameController.html#a85bcf4ecfd197aad278e116215a3717b" target="_top" xlink:title="Displays level completion screen.">
<polygon fill="white" stroke="#666666" points="860,-30 708,-30 708,0 860,0 860,-30"/>
<text text-anchor="start" x="716" y="-18" font-family="Helvetica,sans-Serif" font-size="10.00">GameController::showLevel</text>
<text text-anchor="middle" x="784" y="-7" font-family="Helvetica,sans-Serif" font-size="10.00">CompleteScreen</text>
</a>
</g>
</g>
<!-- Node4&#45;&gt;Node5 -->
<g id="edge4_Node000004_Node000005" class="edge">
<title>Node4&#45;&gt;Node5</title>
<g id="a_edge4_Node000004_Node000005"><a xlink:title=" ">
<path fill="none" stroke="#63b8ff" d="M892.6,-25.82C881.84,-24.74 870.86,-23.63 860.22,-22.56"/>
<polygon fill="#63b8ff" stroke="#63b8ff" points="892.52,-29.33 902.82,-26.84 893.22,-22.36 892.52,-29.33"/>
</a>
</g>
</g>
<!-- Node6 -->
<g id="Node000006" class="node">
<title>Node6</title>
<g id="a_Node000006"><a xlink:href="classGameController.html#af2367e58f03d8a1441c9a574967fd360" target="_top" xlink:title="Processes a single game turn/update cycle.">
<polygon fill="white" stroke="#666666" points="445,-105.5 258,-105.5 258,-86.5 445,-86.5 445,-105.5"/>
<text text-anchor="middle" x="351.5" y="-93.5" font-family="Helvetica,sans-Serif" font-size="10.00">GameController::processGameTurn</text>
</a>
</g>
</g>
<!-- Node5&#45;&gt;Node6 -->
<g id="edge5_Node000005_Node000006" class="edge">
<title>Node5&#45;&gt;Node6</title>
<g id="a_edge5_Node000005_Node000006"><a xlink:title=" ">
<path fill="none" stroke="#63b8ff" d="M697.57,-31.07C609.69,-47.61 475.72,-72.82 403.27,-86.45"/>
<polygon fill="#63b8ff" stroke="#63b8ff" points="698.34,-34.49 707.52,-29.2 697.05,-27.61 698.34,-34.49"/>
</a>
</g>
</g>
<!-- Node7 -->
<g id="Node000007" class="node">
<title>Node7</title>
<g id="a_Node000007"><a xlink:href="classGameController.html#ac958989c8f7f08488546930e5fcb0d82" target="_top" xlink:title="Starts and runs the main game loop.">
<polygon fill="white" stroke="#666666" points="222,-86.5 77,-86.5 77,-67.5 222,-67.5 222,-86.5"/>
<text text-anchor="middle" x="149.5" y="-74.5" font-family="Helvetica,sans-Serif" font-size="10.00">GameController::runGame</text>
</a>
</g>
</g>
<!-- Node6&#45;&gt;Node7 -->
<g id="edge6_Node000006_Node000007" class="edge">
<title>Node6&#45;&gt;Node7</title>
<g id="a_edge6_Node000006_Node000007"><a xlink:title=" ">
<path fill="none" stroke="#63b8ff" d="M247.71,-86.24C239.1,-85.42 230.52,-84.6 222.22,-83.81"/>
<polygon fill="#63b8ff" stroke="#63b8ff" points="247.53,-89.73 257.82,-87.2 248.19,-82.77 247.53,-89.73"/>
</a>
</g>
</g>
<!-- Node8 -->
<g id="Node000008" class="node">
<title>Node8</title>
<g id="a_Node000008"><a xlink:href="main_8cpp.html#ae66f6b31b5ad750f1fe042a706a4e3d4" target="_top" xlink:title="Main function that serves as the application entry point.">
<polygon fill="white" stroke="#666666" points="41,-86.5 0,-86.5 0,-67.5 41,-67.5 41,-86.5"/>
<text text-anchor="middle" x="20.5" y="-74.5" font-family="Helvetica,sans-Serif" font-size="10.00">main</text>
</a>
</g>
</g>
<!-- Node7&#45;&gt;Node8 -->
<g id="edge7_Node000007_Node000008" class="edge">
<title>Node7&#45;&gt;Node8</title>
<g id="a_edge7_Node000007_Node000008"><a xlink:title=" ">
<path fill="none" stroke="#63b8ff" d="M66.79,-77C57.31,-77 48.43,-77 41.08,-77"/>
<polygon fill="#63b8ff" stroke="#63b8ff" points="66.83,-80.5 76.83,-77 66.83,-73.5 66.83,-80.5"/>
</a>
</g>
</g>
<!-- Node10 -->
<g id="Node000010" class="node">
<title>Node10</title>
<g id="a_Node000010"><a xlink:href="classGameController.html#a971b3d8f6296a74f0bebc83b5e79c186" target="_top" xlink:title="Processes a user command.">
<polygon fill="white" stroke="#666666" points="669,-124.5 481,-124.5 481,-105.5 669,-105.5 669,-124.5"/>
<text text-anchor="middle" x="575" y="-112.5" font-family="Helvetica,sans-Serif" font-size="10.00">GameController::processCommand</text>
</a>
</g>
</g>
<!-- Node9&#45;&gt;Node10 -->
<g id="edge9_Node000009_Node000010" class="edge">
<title>Node9&#45;&gt;Node10</title>
<g id="a_edge9_Node000009_Node000010"><a xlink:title=" ">
<path fill="none" stroke="#63b8ff" d="M1130.57,-88.78C1067.99,-102.6 958.37,-124.68 863,-133 793.04,-139.1 775.05,-137.86 705,-133 680.98,-131.33 654.61,-127.94 632.02,-124.54"/>
<polygon fill="#63b8ff" stroke="#63b8ff" points="1131.57,-92.14 1140.57,-86.55 1130.05,-85.31 1131.57,-92.14"/>
</a>
</g>
</g>
<!-- Node11 -->
<g id="Node000011" class="node">
<title>Node11</title>
<g id="a_Node000011"><a xlink:href="classGameController.html#a9d11b5a6255b7249bddba49df0837cf3" target="_top" xlink:title="Displays and manages the main menu.">
<polygon fill="white" stroke="#666666" points="1051,-86.5 899,-86.5 899,-67.5 1051,-67.5 1051,-86.5"/>
<text text-anchor="middle" x="975" y="-74.5" font-family="Helvetica,sans-Serif" font-size="10.00">GameController::showMenu</text>
</a>
</g>
</g>
<!-- Node9&#45;&gt;Node11 -->
<g id="edge11_Node000009_Node000011" class="edge">
<title>Node9&#45;&gt;Node11</title>
<g id="a_edge11_Node000009_Node000011"><a xlink:title=" ">
<path fill="none" stroke="#63b8ff" d="M1076.72,-70.25C1068.06,-70.26 1059.43,-70.34 1051.06,-70.47"/>
<polygon fill="#63b8ff" stroke="#63b8ff" points="1076.86,-73.75 1086.87,-70.27 1076.88,-66.75 1076.86,-73.75"/>
</a>
</g>
</g>
<!-- Node10&#45;&gt;Node6 -->
<g id="edge10_Node000010_Node000006" class="edge">
<title>Node10&#45;&gt;Node6</title>
<g id="a_edge10_Node000010_Node000006"><a xlink:title=" ">
<path fill="none" stroke="#63b8ff" d="M470.5,-106.12C462.1,-105.4 453.65,-104.68 445.33,-103.96"/>
<polygon fill="#63b8ff" stroke="#63b8ff" points="470.44,-109.63 480.71,-107 471.04,-102.66 470.44,-109.63"/>
</a>
</g>
</g>
<!-- Node11&#45;&gt;Node5 -->
<g id="edge16_Node000011_Node000005" class="edge">
<title>Node11&#45;&gt;Node5</title>
<g id="a_edge16_Node000011_Node000005"><a xlink:title=" ">
<path fill="none" stroke="#63b8ff" d="M922.55,-64.86C914.62,-62.73 906.56,-60.42 899,-58 882.65,-52.77 879.05,-50.1 863,-44 850.98,-39.43 837.89,-34.53 825.93,-30.09"/>
<polygon fill="#63b8ff" stroke="#63b8ff" points="921.92,-68.31 932.48,-67.45 923.69,-61.54 921.92,-68.31"/>
</a>
</g>
</g>
<!-- Node11&#45;&gt;Node7 -->
<g id="edge15_Node000011_Node000007" class="edge">
<title>Node11&#45;&gt;Node7</title>
<g id="a_edge15_Node000011_Node000007"><a xlink:title=" ">
<path fill="none" stroke="#63b8ff" d="M888.28,-77C725.26,-77 373.37,-77 222.05,-77"/>
<polygon fill="#63b8ff" stroke="#63b8ff" points="888.74,-80.5 898.74,-77 888.74,-73.5 888.74,-80.5"/>
</a>
</g>
</g>
<!-- Node11&#45;&gt;Node9 -->
<g id="edge17_Node000011_Node000009" class="edge">
<title>Node11&#45;&gt;Node9</title>
<g id="a_edge17_Node000011_Node000009"><a xlink:title=" ">
<path fill="none" stroke="#63b8ff" d="M1061.27,-83.66C1069.72,-83.75 1078.33,-83.77 1086.87,-83.73"/>
<polygon fill="#63b8ff" stroke="#63b8ff" points="1061.1,-80.16 1051.06,-83.53 1061.01,-87.16 1061.1,-80.16"/>
</a>
</g>
</g>
<!-- Node11&#45;&gt;Node10 -->
<g id="edge14_Node000011_Node000010" class="edge">
<title>Node11&#45;&gt;Node10</title>
<g id="a_edge14_Node000011_Node000010"><a xlink:title=" ">
<path fill="none" stroke="#63b8ff" d="M943.43,-90.53C921.52,-99.45 891.05,-110.33 863,-115 798.86,-125.68 725.53,-125.47 669.05,-122.7"/>
<polygon fill="#63b8ff" stroke="#63b8ff" points="944.97,-93.67 952.85,-86.59 942.28,-87.21 944.97,-93.67"/>
</a>
</g>
</g>
<!-- Node12 -->
<g id="Node000012" class="node">
<title>Node12</title>
<g id="a_Node000012"><a xlink:href="classGameController.html#a637ea4e72ed2be4a2884b30160b3e8ab" target="_top" xlink:title="Pauses the game and displays pause screen.">
<polygon fill="white" stroke="#666666" points="863,-105.5 705,-105.5 705,-86.5 863,-86.5 863,-105.5"/>
<text text-anchor="middle" x="784" y="-93.5" font-family="Helvetica,sans-Serif" font-size="10.00">GameController::pauseGame</text>
</a>
</g>
</g>
<!-- Node11&#45;&gt;Node12 -->
<g id="edge12_Node000011_Node000012" class="edge">
<title>Node11&#45;&gt;Node12</title>
<g id="a_edge12_Node000011_Node000012"><a xlink:title=" ">
<path fill="none" stroke="#63b8ff" d="M888.78,-85.57C880.22,-86.43 871.56,-87.3 863.08,-88.15"/>
<polygon fill="#63b8ff" stroke="#63b8ff" points="889.16,-89.05 898.76,-84.56 888.46,-82.08 889.16,-89.05"/>
</a>
</g>
</g>
<!-- Node12&#45;&gt;Node10 -->
<g id="edge13_Node000012_Node000010" class="edge">
<title>Node12&#45;&gt;Node10</title>
<g id="a_edge13_Node000012_Node000010"><a xlink:title=" ">
<path fill="none" stroke="#63b8ff" d="M694.62,-104.11C686.25,-104.88 677.75,-105.66 669.34,-106.43"/>
<polygon fill="#63b8ff" stroke="#63b8ff" points="695.1,-107.58 704.74,-103.18 694.46,-100.61 695.1,-107.58"/>
</a>
</g>
</g>
</g>
</svg>
