<?xml version="1.0" encoding="UTF-8" standalone="no"?>
<!DOCTYPE svg PUBLIC "-//W3C//DTD SVG 1.1//EN"
 "http://www.w3.org/Graphics/SVG/1.1/DTD/svg11.dtd">
<!-- Generated by graphviz version 2.43.0 (0)
 -->
<!-- Title: ConsoleRenderer::updateTerminalSize Pages: 1 -->
<svg width="1974pt" height="495pt"
 viewBox="0.00 0.00 1974.00 495.10" xmlns="http://www.w3.org/2000/svg" xmlns:xlink="http://www.w3.org/1999/xlink">
<g id="graph0" class="graph" transform="scale(1 1) rotate(0) translate(4 491.1)">
<title>ConsoleRenderer::updateTerminalSize</title>
<!-- Node1 -->
<g id="Node000001" class="node">
<title>Node1</title>
<g id="a_Node000001"><a xlink:title="Updates terminal size information.">
<polygon fill="#999999" stroke="#666666" points="1966,-269.6 1764,-269.6 1764,-250.6 1966,-250.6 1966,-269.6"/>
<text text-anchor="middle" x="1865" y="-257.6" font-family="Helvetica,sans-Serif" font-size="10.00">ConsoleRenderer::updateTerminalSize</text>
</a>
</g>
</g>
<!-- Node2 -->
<g id="Node000002" class="node">
<title>Node2</title>
<g id="a_Node000002"><a xlink:href="classConsoleRenderer.html#a9576db66ee7dc8d9fdec36f0181b9a12" target="_top" xlink:title="Checks if terminal size meets requirements.">
<polygon fill="white" stroke="#666666" points="1728,-291.6 1531,-291.6 1531,-272.6 1728,-272.6 1728,-291.6"/>
<text text-anchor="middle" x="1629.5" y="-279.6" font-family="Helvetica,sans-Serif" font-size="10.00">ConsoleRenderer::checkTerminalSize</text>
</a>
</g>
</g>
<!-- Node1&#45;&gt;Node2 -->
<g id="edge1_Node000001_Node000002" class="edge">
<title>Node1&#45;&gt;Node2</title>
<g id="a_edge1_Node000001_Node000002"><a xlink:title=" ">
<path fill="none" stroke="#63b8ff" d="M1753.89,-270.48C1745.28,-271.29 1736.62,-272.1 1728.11,-272.91"/>
<polygon fill="#63b8ff" stroke="#63b8ff" points="1754.33,-273.95 1763.96,-269.53 1753.67,-266.98 1754.33,-273.95"/>
</a>
</g>
</g>
<!-- Node20 -->
<g id="Node000020" class="node">
<title>Node20</title>
<g id="a_Node000020"><a xlink:href="classConsoleRenderer.html#a737ede37b60e5b2eaf26dbd1408dd03d" target="_top" xlink:title="Constructs a ConsoleRenderer object.">
<polygon fill="white" stroke="#666666" points="1702,-254.1 1557,-254.1 1557,-224.1 1702,-224.1 1702,-254.1"/>
<text text-anchor="start" x="1565" y="-242.1" font-family="Helvetica,sans-Serif" font-size="10.00">ConsoleRenderer::Console</text>
<text text-anchor="middle" x="1629.5" y="-231.1" font-family="Helvetica,sans-Serif" font-size="10.00">Renderer</text>
</a>
</g>
</g>
<!-- Node1&#45;&gt;Node20 -->
<g id="edge38_Node000001_Node000020" class="edge">
<title>Node1&#45;&gt;Node20</title>
<g id="a_edge38_Node000001_Node000020"><a xlink:title=" ">
<path fill="none" stroke="#63b8ff" d="M1753.68,-250.18C1736.16,-248.61 1718.44,-247.01 1702.12,-245.55"/>
<polygon fill="#63b8ff" stroke="#63b8ff" points="1753.69,-253.7 1763.96,-251.11 1754.31,-246.72 1753.69,-253.7"/>
</a>
</g>
</g>
<!-- Node3 -->
<g id="Node000003" class="node">
<title>Node3</title>
<g id="a_Node000003"><a xlink:href="classConsoleRenderer.html#a38306106200aabcfd90f6fe0552e18ea" target="_top" xlink:title="Draws game over screen.">
<polygon fill="white" stroke="#666666" points="666,-99.6 484,-99.6 484,-80.6 666,-80.6 666,-99.6"/>
<text text-anchor="middle" x="575" y="-87.6" font-family="Helvetica,sans-Serif" font-size="10.00">ConsoleRenderer::drawGameOver</text>
</a>
</g>
</g>
<!-- Node2&#45;&gt;Node3 -->
<g id="edge2_Node000002_Node000003" class="edge">
<title>Node2&#45;&gt;Node3</title>
<g id="a_edge2_Node000002_Node000003"><a xlink:title=" ">
<path fill="none" stroke="#63b8ff" d="M1535.78,-267.04C1534.12,-265.81 1532.52,-264.5 1531,-263.1 1488.09,-223.73 1538.56,-175.76 1495,-137.1 1392.14,-45.84 1327.01,-88.1 1189.5,-88.1 1189.5,-88.1 1189.5,-88.1 977,-88.1 870.31,-88.1 747.65,-88.82 666.38,-89.4"/>
<polygon fill="#63b8ff" stroke="#63b8ff" points="1534.19,-270.17 1544.53,-272.49 1537.89,-264.23 1534.19,-270.17"/>
</a>
</g>
</g>
<!-- Node5 -->
<g id="Node000005" class="node">
<title>Node5</title>
<g id="a_Node000005"><a xlink:href="classGameController.html#ac958989c8f7f08488546930e5fcb0d82" target="_top" xlink:title="Starts and runs the main game loop.">
<polygon fill="white" stroke="#666666" points="222,-335.6 77,-335.6 77,-316.6 222,-316.6 222,-335.6"/>
<text text-anchor="middle" x="149.5" y="-323.6" font-family="Helvetica,sans-Serif" font-size="10.00">GameController::runGame</text>
</a>
</g>
</g>
<!-- Node2&#45;&gt;Node5 -->
<g id="edge37_Node000002_Node000005" class="edge">
<title>Node2&#45;&gt;Node5</title>
<g id="a_edge37_Node000002_Node000005"><a xlink:title=" ">
<path fill="none" stroke="#63b8ff" d="M1614.89,-299.49C1592.68,-326.67 1546,-379.12 1495,-408.1 1373.07,-477.4 1329.74,-487.1 1189.5,-487.1 1189.5,-487.1 1189.5,-487.1 574,-487.1 402.53,-487.1 215.99,-370.35 164.39,-335.69"/>
<polygon fill="#63b8ff" stroke="#63b8ff" points="1617.68,-301.6 1621.21,-291.61 1612.22,-297.22 1617.68,-301.6"/>
</a>
</g>
</g>
<!-- Node7 -->
<g id="Node000007" class="node">
<title>Node7</title>
<g id="a_Node000007"><a xlink:href="classConsoleRenderer.html#a8c9ea938ec7728f1f3436a0a9d944cf2" target="_top" xlink:title="Draws level completion screen.">
<polygon fill="white" stroke="#666666" points="1266.5,-459.1 1110.5,-459.1 1110.5,-429.1 1266.5,-429.1 1266.5,-459.1"/>
<text text-anchor="start" x="1118.5" y="-447.1" font-family="Helvetica,sans-Serif" font-size="10.00">ConsoleRenderer::drawLevel</text>
<text text-anchor="middle" x="1188.5" y="-436.1" font-family="Helvetica,sans-Serif" font-size="10.00">Complete</text>
</a>
</g>
</g>
<!-- Node2&#45;&gt;Node7 -->
<g id="edge6_Node000002_Node000007" class="edge">
<title>Node2&#45;&gt;Node7</title>
<g id="a_edge6_Node000002_Node000007"><a xlink:title=" ">
<path fill="none" stroke="#63b8ff" d="M1608.37,-298.11C1583.23,-317.36 1538.24,-349.41 1495,-368.1 1420.63,-400.26 1329.94,-420.66 1266.78,-432.13"/>
<polygon fill="#63b8ff" stroke="#63b8ff" points="1610.65,-300.78 1616.4,-291.88 1606.35,-295.25 1610.65,-300.78"/>
</a>
</g>
</g>
<!-- Node9 -->
<g id="Node000009" class="node">
<title>Node9</title>
<g id="a_Node000009"><a xlink:href="classConsoleRenderer.html#afd03640670c991dfa8240af639c2f0da" target="_top" xlink:title="Draws map selection screen.">
<polygon fill="white" stroke="#666666" points="1483,-249.1 1332,-249.1 1332,-219.1 1483,-219.1 1483,-249.1"/>
<text text-anchor="start" x="1340" y="-237.1" font-family="Helvetica,sans-Serif" font-size="10.00">ConsoleRenderer::drawMap</text>
<text text-anchor="middle" x="1407.5" y="-226.1" font-family="Helvetica,sans-Serif" font-size="10.00">Selection</text>
</a>
</g>
</g>
<!-- Node2&#45;&gt;Node9 -->
<g id="edge9_Node000002_Node000009" class="edge">
<title>Node2&#45;&gt;Node9</title>
<g id="a_edge9_Node000002_Node000009"><a xlink:title=" ">
<path fill="none" stroke="#63b8ff" d="M1567.53,-270.61C1555.41,-268.22 1542.79,-265.65 1531,-263.1 1511.02,-258.79 1489.3,-253.77 1469.77,-249.12"/>
<polygon fill="#63b8ff" stroke="#63b8ff" points="1567.08,-274.09 1577.57,-272.58 1568.42,-267.22 1567.08,-274.09"/>
</a>
</g>
</g>
<!-- Node14 -->
<g id="Node000014" class="node">
<title>Node14</title>
<g id="a_Node000014"><a xlink:href="classConsoleRenderer.html#aa9273ce964dc1492d66a30b772213e81" target="_top" xlink:title="Draws main menu screen.">
<polygon fill="white" stroke="#666666" points="1267,-372.6 1110,-372.6 1110,-353.6 1267,-353.6 1267,-372.6"/>
<text text-anchor="middle" x="1188.5" y="-360.6" font-family="Helvetica,sans-Serif" font-size="10.00">ConsoleRenderer::drawMenu</text>
</a>
</g>
</g>
<!-- Node2&#45;&gt;Node14 -->
<g id="edge20_Node000002_Node000014" class="edge">
<title>Node2&#45;&gt;Node14</title>
<g id="a_edge20_Node000002_Node000014"><a xlink:title=" ">
<path fill="none" stroke="#63b8ff" d="M1604,-296.9C1577.98,-311.77 1535.15,-333.92 1495,-344.1 1419.28,-363.31 1329.79,-366.73 1267.31,-366.15"/>
<polygon fill="#63b8ff" stroke="#63b8ff" points="1605.9,-299.84 1612.78,-291.78 1602.38,-293.79 1605.9,-299.84"/>
</a>
</g>
</g>
<!-- Node15 -->
<g id="Node000015" class="node">
<title>Node15</title>
<g id="a_Node000015"><a xlink:href="classConsoleRenderer.html#a678f6e7177b2d466b8953d4f01bb7436" target="_top" xlink:title="Draws pause screen.">
<polygon fill="white" stroke="#666666" points="1057,-146.1 899,-146.1 899,-116.1 1057,-116.1 1057,-146.1"/>
<text text-anchor="start" x="907" y="-134.1" font-family="Helvetica,sans-Serif" font-size="10.00">ConsoleRenderer::drawPause</text>
<text text-anchor="middle" x="978" y="-123.1" font-family="Helvetica,sans-Serif" font-size="10.00">Screen</text>
</a>
</g>
</g>
<!-- Node2&#45;&gt;Node15 -->
<g id="edge22_Node000002_Node000015" class="edge">
<title>Node2&#45;&gt;Node15</title>
<g id="a_edge22_Node000002_Node000015"><a xlink:title=" ">
<path fill="none" stroke="#63b8ff" d="M1540.33,-268.42C1537.09,-266.83 1533.97,-265.06 1531,-263.1 1507.23,-247.42 1518.45,-226.26 1495,-210.1 1362.54,-118.82 1165.7,-116.14 1057.44,-123.08"/>
<polygon fill="#63b8ff" stroke="#63b8ff" points="1539.13,-271.72 1549.69,-272.47 1541.9,-265.29 1539.13,-271.72"/>
</a>
</g>
</g>
<!-- Node16 -->
<g id="Node000016" class="node">
<title>Node16</title>
<g id="a_Node000016"><a xlink:href="classConsoleRenderer.html#a0e17aa687bd8d7381b2bf8425b2a9709" target="_top" xlink:title="Draws settings screen.">
<polygon fill="white" stroke="#666666" points="1492.5,-334.6 1322.5,-334.6 1322.5,-315.6 1492.5,-315.6 1492.5,-334.6"/>
<text text-anchor="middle" x="1407.5" y="-322.6" font-family="Helvetica,sans-Serif" font-size="10.00">ConsoleRenderer::drawSettings</text>
</a>
</g>
</g>
<!-- Node2&#45;&gt;Node16 -->
<g id="edge25_Node000002_Node000016" class="edge">
<title>Node2&#45;&gt;Node16</title>
<g id="a_edge25_Node000002_Node000016"><a xlink:title=" ">
<path fill="none" stroke="#63b8ff" d="M1569.55,-293.63C1534.41,-300.49 1490.34,-309.11 1457.19,-315.59"/>
<polygon fill="#63b8ff" stroke="#63b8ff" points="1570.53,-297 1579.67,-291.65 1569.19,-290.13 1570.53,-297"/>
</a>
</g>
</g>
<!-- Node18 -->
<g id="Node000018" class="node">
<title>Node18</title>
<g id="a_Node000018"><a xlink:href="classGameController.html#a19dc0995b5ee51a87bf49dff90f4e991" target="_top" xlink:title="Handles terminal resize events.">
<polygon fill="white" stroke="#666666" points="1495,-297.1 1320,-297.1 1320,-267.1 1495,-267.1 1495,-297.1"/>
<text text-anchor="start" x="1328" y="-285.1" font-family="Helvetica,sans-Serif" font-size="10.00">GameController::handleTerminal</text>
<text text-anchor="middle" x="1407.5" y="-274.1" font-family="Helvetica,sans-Serif" font-size="10.00">Resize</text>
</a>
</g>
</g>
<!-- Node2&#45;&gt;Node18 -->
<g id="edge28_Node000002_Node000018" class="edge">
<title>Node2&#45;&gt;Node18</title>
<g id="a_edge28_Node000002_Node000018"><a xlink:title=" ">
<path fill="none" stroke="#63b8ff" d="M1520.72,-282.1C1512.18,-282.1 1503.62,-282.1 1495.25,-282.1"/>
<polygon fill="#63b8ff" stroke="#63b8ff" points="1520.72,-285.6 1530.72,-282.1 1520.72,-278.6 1520.72,-285.6"/>
</a>
</g>
</g>
<!-- Node19 -->
<g id="Node000019" class="node">
<title>Node19</title>
<g id="a_Node000019"><a xlink:href="classConsoleRenderer.html#ab34fa7af4ede79de3951f1d5271d7a27" target="_top" xlink:title="Renders the game world to console.">
<polygon fill="white" stroke="#666666" points="1046.5,-59.6 909.5,-59.6 909.5,-40.6 1046.5,-40.6 1046.5,-59.6"/>
<text text-anchor="middle" x="978" y="-47.6" font-family="Helvetica,sans-Serif" font-size="10.00">ConsoleRenderer::render</text>
</a>
</g>
</g>
<!-- Node2&#45;&gt;Node19 -->
<g id="edge35_Node000002_Node000019" class="edge">
<title>Node2&#45;&gt;Node19</title>
<g id="a_edge35_Node000002_Node000019"><a xlink:title=" ">
<path fill="none" stroke="#63b8ff" d="M1534.93,-266.68C1533.57,-265.55 1532.25,-264.36 1531,-263.1 1470.66,-202.51 1559.59,-130.14 1495,-74.1 1352.06,49.89 1094.21,-14.21 1007.98,-40.57"/>
<polygon fill="#63b8ff" stroke="#63b8ff" points="1533.02,-269.61 1543.24,-272.4 1536.99,-263.84 1533.02,-269.61"/>
</a>
</g>
</g>
<!-- Node4 -->
<g id="Node000004" class="node">
<title>Node4</title>
<g id="a_Node000004"><a xlink:href="classGameController.html#af2367e58f03d8a1441c9a574967fd360" target="_top" xlink:title="Processes a single game turn/update cycle.">
<polygon fill="white" stroke="#666666" points="445,-183.6 258,-183.6 258,-164.6 445,-164.6 445,-183.6"/>
<text text-anchor="middle" x="351.5" y="-171.6" font-family="Helvetica,sans-Serif" font-size="10.00">GameController::processGameTurn</text>
</a>
</g>
</g>
<!-- Node3&#45;&gt;Node4 -->
<g id="edge3_Node000003_Node000004" class="edge">
<title>Node3&#45;&gt;Node4</title>
<g id="a_edge3_Node000003_Node000004"><a xlink:title=" ">
<path fill="none" stroke="#63b8ff" d="M530.58,-102.64C514.85,-107.44 497.01,-113.2 481,-119.1 442.3,-133.38 398.33,-152.95 373.16,-164.49"/>
<polygon fill="#63b8ff" stroke="#63b8ff" points="532.02,-105.86 540.58,-99.62 530,-99.16 532.02,-105.86"/>
</a>
</g>
</g>
<!-- Node4&#45;&gt;Node5 -->
<g id="edge4_Node000004_Node000005" class="edge">
<title>Node4&#45;&gt;Node5</title>
<g id="a_edge4_Node000004_Node000005"><a xlink:title=" ">
<path fill="none" stroke="#63b8ff" d="M329.98,-189.7C288.67,-221.1 196.53,-291.12 163.01,-316.6"/>
<polygon fill="#63b8ff" stroke="#63b8ff" points="332.15,-192.45 337.99,-183.61 327.91,-186.88 332.15,-192.45"/>
</a>
</g>
</g>
<!-- Node6 -->
<g id="Node000006" class="node">
<title>Node6</title>
<g id="a_Node000006"><a xlink:href="main_8cpp.html#ae66f6b31b5ad750f1fe042a706a4e3d4" target="_top" xlink:title="Main function that serves as the application entry point.">
<polygon fill="white" stroke="#666666" points="41,-335.6 0,-335.6 0,-316.6 41,-316.6 41,-335.6"/>
<text text-anchor="middle" x="20.5" y="-323.6" font-family="Helvetica,sans-Serif" font-size="10.00">main</text>
</a>
</g>
</g>
<!-- Node5&#45;&gt;Node6 -->
<g id="edge5_Node000005_Node000006" class="edge">
<title>Node5&#45;&gt;Node6</title>
<g id="a_edge5_Node000005_Node000006"><a xlink:title=" ">
<path fill="none" stroke="#63b8ff" d="M66.79,-326.1C57.31,-326.1 48.43,-326.1 41.08,-326.1"/>
<polygon fill="#63b8ff" stroke="#63b8ff" points="66.83,-329.6 76.83,-326.1 66.83,-322.6 66.83,-329.6"/>
</a>
</g>
</g>
<!-- Node8 -->
<g id="Node000008" class="node">
<title>Node8</title>
<g id="a_Node000008"><a xlink:href="classGameController.html#a85bcf4ecfd197aad278e116215a3717b" target="_top" xlink:title="Displays level completion screen.">
<polygon fill="white" stroke="#666666" points="860,-407.1 708,-407.1 708,-377.1 860,-377.1 860,-407.1"/>
<text text-anchor="start" x="716" y="-395.1" font-family="Helvetica,sans-Serif" font-size="10.00">GameController::showLevel</text>
<text text-anchor="middle" x="784" y="-384.1" font-family="Helvetica,sans-Serif" font-size="10.00">CompleteScreen</text>
</a>
</g>
</g>
<!-- Node7&#45;&gt;Node8 -->
<g id="edge7_Node000007_Node000008" class="edge">
<title>Node7&#45;&gt;Node8</title>
<g id="a_edge7_Node000007_Node000008"><a xlink:title=" ">
<path fill="none" stroke="#63b8ff" d="M1100.28,-437.6C1042.91,-432.76 966.27,-425.24 899,-415.1 884.33,-412.89 868.68,-410.05 853.83,-407.13"/>
<polygon fill="#63b8ff" stroke="#63b8ff" points="1100.15,-441.1 1110.4,-438.44 1100.73,-434.12 1100.15,-441.1"/>
</a>
</g>
</g>
<!-- Node8&#45;&gt;Node4 -->
<g id="edge8_Node000008_Node000004" class="edge">
<title>Node8&#45;&gt;Node4</title>
<g id="a_edge8_Node000008_Node000004"><a xlink:title=" ">
<path fill="none" stroke="#63b8ff" d="M739.13,-372.76C679.84,-346.3 571.17,-296.65 481,-249.1 439.42,-227.17 392.01,-198.52 368.08,-183.78"/>
<polygon fill="#63b8ff" stroke="#63b8ff" points="738,-376.09 748.56,-376.96 740.85,-369.7 738,-376.09"/>
</a>
</g>
</g>
<!-- Node10 -->
<g id="Node000010" class="node">
<title>Node10</title>
<g id="a_Node000010"><a xlink:href="classGameController.html#a4a9c94fe33cf6c73bb5dfc415d04d309" target="_top" xlink:title="Displays map selection screen.">
<polygon fill="white" stroke="#666666" points="1284,-259.6 1093,-259.6 1093,-240.6 1284,-240.6 1284,-259.6"/>
<text text-anchor="middle" x="1188.5" y="-247.6" font-family="Helvetica,sans-Serif" font-size="10.00">GameController::showMapSelection</text>
</a>
</g>
</g>
<!-- Node9&#45;&gt;Node10 -->
<g id="edge10_Node000009_Node000010" class="edge">
<title>Node9&#45;&gt;Node10</title>
<g id="a_edge10_Node000009_Node000010"><a xlink:title=" ">
<path fill="none" stroke="#63b8ff" d="M1321.64,-240.36C1309.37,-241.27 1296.69,-242.2 1284.25,-243.12"/>
<polygon fill="#63b8ff" stroke="#63b8ff" points="1322.11,-243.84 1331.82,-239.61 1321.59,-236.86 1322.11,-243.84"/>
</a>
</g>
</g>
<!-- Node11 -->
<g id="Node000011" class="node">
<title>Node11</title>
<g id="a_Node000011"><a xlink:href="classGameController.html#a971b3d8f6296a74f0bebc83b5e79c186" target="_top" xlink:title="Processes a user command.">
<polygon fill="white" stroke="#666666" points="669,-240.6 481,-240.6 481,-221.6 669,-221.6 669,-240.6"/>
<text text-anchor="middle" x="575" y="-228.6" font-family="Helvetica,sans-Serif" font-size="10.00">GameController::processCommand</text>
</a>
</g>
</g>
<!-- Node10&#45;&gt;Node11 -->
<g id="edge11_Node000010_Node000011" class="edge">
<title>Node10&#45;&gt;Node11</title>
<g id="a_edge11_Node000010_Node000011"><a xlink:title=" ">
<path fill="none" stroke="#63b8ff" d="M1082.63,-246.85C966.35,-243.23 780.55,-237.46 669.2,-234"/>
<polygon fill="#63b8ff" stroke="#63b8ff" points="1082.85,-250.35 1092.96,-247.17 1083.07,-243.36 1082.85,-250.35"/>
</a>
</g>
</g>
<!-- Node12 -->
<g id="Node000012" class="node">
<title>Node12</title>
<g id="a_Node000012"><a xlink:href="classGameController.html#a9d11b5a6255b7249bddba49df0837cf3" target="_top" xlink:title="Displays and manages the main menu.">
<polygon fill="white" stroke="#666666" points="1054,-297.6 902,-297.6 902,-278.6 1054,-278.6 1054,-297.6"/>
<text text-anchor="middle" x="978" y="-285.6" font-family="Helvetica,sans-Serif" font-size="10.00">GameController::showMenu</text>
</a>
</g>
</g>
<!-- Node10&#45;&gt;Node12 -->
<g id="edge13_Node000010_Node000012" class="edge">
<title>Node10&#45;&gt;Node12</title>
<g id="a_edge13_Node000010_Node000012"><a xlink:title=" ">
<path fill="none" stroke="#63b8ff" d="M1088.57,-261.39C1057.95,-266.88 1026.72,-273.26 1005.47,-278.6"/>
<polygon fill="#63b8ff" stroke="#63b8ff" points="1089.23,-264.83 1098.47,-259.64 1088.02,-257.94 1089.23,-264.83"/>
</a>
</g>
</g>
<!-- Node11&#45;&gt;Node4 -->
<g id="edge12_Node000011_Node000004" class="edge">
<title>Node11&#45;&gt;Node4</title>
<g id="a_edge12_Node000011_Node000004"><a xlink:title=" ">
<path fill="none" stroke="#63b8ff" d="M527.18,-219.05C486.22,-208.51 427.51,-193.41 389.7,-183.68"/>
<polygon fill="#63b8ff" stroke="#63b8ff" points="526.37,-222.46 536.93,-221.56 528.11,-215.68 526.37,-222.46"/>
</a>
</g>
</g>
<!-- Node12&#45;&gt;Node5 -->
<g id="edge17_Node000012_Node000005" class="edge">
<title>Node12&#45;&gt;Node5</title>
<g id="a_edge17_Node000012_Node000005"><a xlink:title=" ">
<path fill="none" stroke="#63b8ff" d="M891.83,-292.02C728.52,-299.53 374.12,-315.82 222.1,-322.81"/>
<polygon fill="#63b8ff" stroke="#63b8ff" points="892,-295.52 901.83,-291.56 891.68,-288.52 892,-295.52"/>
</a>
</g>
</g>
<!-- Node12&#45;&gt;Node8 -->
<g id="edge18_Node000012_Node000008" class="edge">
<title>Node12&#45;&gt;Node8</title>
<g id="a_edge18_Node000012_Node000008"><a xlink:title=" ">
<path fill="none" stroke="#63b8ff" d="M950.28,-302.58C914.03,-322.21 849.58,-357.12 812.79,-377.05"/>
<polygon fill="#63b8ff" stroke="#63b8ff" points="952.16,-305.54 959.28,-297.7 948.82,-299.39 952.16,-305.54"/>
</a>
</g>
</g>
<!-- Node12&#45;&gt;Node10 -->
<g id="edge19_Node000012_Node000010" class="edge">
<title>Node12&#45;&gt;Node10</title>
<g id="a_edge19_Node000012_Node000010"><a xlink:title=" ">
<path fill="none" stroke="#63b8ff" d="M1064.29,-279.21C1098.83,-273.28 1136.24,-265.82 1160.67,-259.7"/>
<polygon fill="#63b8ff" stroke="#63b8ff" points="1063.44,-275.8 1054.16,-280.92 1064.6,-282.71 1063.44,-275.8"/>
</a>
</g>
</g>
<!-- Node12&#45;&gt;Node11 -->
<g id="edge16_Node000012_Node000011" class="edge">
<title>Node12&#45;&gt;Node11</title>
<g id="a_edge16_Node000012_Node000011"><a xlink:title=" ">
<path fill="none" stroke="#63b8ff" d="M891.64,-284.14C837.81,-280.76 767.01,-274.7 705,-264.1 671.16,-258.32 633.17,-248.14 607.24,-240.62"/>
<polygon fill="#63b8ff" stroke="#63b8ff" points="891.63,-287.64 901.83,-284.76 892.06,-280.66 891.63,-287.64"/>
</a>
</g>
</g>
<!-- Node13 -->
<g id="Node000013" class="node">
<title>Node13</title>
<g id="a_Node000013"><a xlink:href="classGameController.html#a637ea4e72ed2be4a2884b30160b3e8ab" target="_top" xlink:title="Pauses the game and displays pause screen.">
<polygon fill="white" stroke="#666666" points="863,-221.6 705,-221.6 705,-202.6 863,-202.6 863,-221.6"/>
<text text-anchor="middle" x="784" y="-209.6" font-family="Helvetica,sans-Serif" font-size="10.00">GameController::pauseGame</text>
</a>
</g>
</g>
<!-- Node12&#45;&gt;Node13 -->
<g id="edge14_Node000012_Node000013" class="edge">
<title>Node12&#45;&gt;Node13</title>
<g id="a_edge14_Node000012_Node000013"><a xlink:title=" ">
<path fill="none" stroke="#63b8ff" d="M942.97,-274.63C904.52,-259.41 842.91,-235.03 809.12,-221.65"/>
<polygon fill="#63b8ff" stroke="#63b8ff" points="942.1,-278.05 952.68,-278.48 944.67,-271.54 942.1,-278.05"/>
</a>
</g>
</g>
<!-- Node13&#45;&gt;Node11 -->
<g id="edge15_Node000013_Node000011" class="edge">
<title>Node13&#45;&gt;Node11</title>
<g id="a_edge15_Node000013_Node000011"><a xlink:title=" ">
<path fill="none" stroke="#63b8ff" d="M694.62,-220.22C686.25,-220.98 677.75,-221.76 669.34,-222.54"/>
<polygon fill="#63b8ff" stroke="#63b8ff" points="695.1,-223.69 704.74,-219.29 694.46,-216.72 695.1,-223.69"/>
</a>
</g>
</g>
<!-- Node14&#45;&gt;Node12 -->
<g id="edge21_Node000014_Node000012" class="edge">
<title>Node14&#45;&gt;Node12</title>
<g id="a_edge21_Node000014_Node000012"><a xlink:title=" ">
<path fill="none" stroke="#63b8ff" d="M1114.39,-351.27C1107.09,-349.47 1099.85,-347.42 1093,-345.1 1056.11,-332.63 1016.06,-310.37 994.63,-297.67"/>
<polygon fill="#63b8ff" stroke="#63b8ff" points="1113.82,-354.73 1124.35,-353.58 1115.4,-347.91 1113.82,-354.73"/>
</a>
</g>
</g>
<!-- Node15&#45;&gt;Node4 -->
<g id="edge24_Node000015_Node000004" class="edge">
<title>Node15&#45;&gt;Node4</title>
<g id="a_edge24_Node000015_Node000004"><a xlink:title=" ">
<path fill="none" stroke="#63b8ff" d="M888.45,-134.94C789.16,-139.55 623.38,-148.19 481,-160.1 465.79,-161.38 449.6,-162.96 434.01,-164.6"/>
<polygon fill="#63b8ff" stroke="#63b8ff" points="888.91,-138.42 898.74,-134.47 888.59,-131.43 888.91,-138.42"/>
</a>
</g>
</g>
<!-- Node15&#45;&gt;Node13 -->
<g id="edge23_Node000015_Node000013" class="edge">
<title>Node15&#45;&gt;Node13</title>
<g id="a_edge23_Node000015_Node000013"><a xlink:title=" ">
<path fill="none" stroke="#63b8ff" d="M931.77,-150.18C892.73,-166.66 837.95,-189.77 807.56,-202.59"/>
<polygon fill="#63b8ff" stroke="#63b8ff" points="933.48,-153.26 941.34,-146.15 930.76,-146.81 933.48,-153.26"/>
</a>
</g>
</g>
<!-- Node17 -->
<g id="Node000017" class="node">
<title>Node17</title>
<g id="a_Node000017"><a xlink:href="classGameController.html#a24f5cae258418d4a5934e6f412c28945" target="_top" xlink:title="Displays and manages the settings menu.">
<polygon fill="white" stroke="#666666" points="1271,-335.6 1106,-335.6 1106,-316.6 1271,-316.6 1271,-335.6"/>
<text text-anchor="middle" x="1188.5" y="-323.6" font-family="Helvetica,sans-Serif" font-size="10.00">GameController::showSettings</text>
</a>
</g>
</g>
<!-- Node16&#45;&gt;Node17 -->
<g id="edge26_Node000016_Node000017" class="edge">
<title>Node16&#45;&gt;Node17</title>
<g id="a_edge26_Node000016_Node000017"><a xlink:title=" ">
<path fill="none" stroke="#63b8ff" d="M1311.97,-325.54C1298.37,-325.6 1284.48,-325.67 1271.17,-325.73"/>
<polygon fill="#63b8ff" stroke="#63b8ff" points="1312.31,-329.04 1322.29,-325.49 1312.28,-322.04 1312.31,-329.04"/>
</a>
</g>
</g>
<!-- Node17&#45;&gt;Node12 -->
<g id="edge27_Node000017_Node000012" class="edge">
<title>Node17&#45;&gt;Node12</title>
<g id="a_edge27_Node000017_Node000012"><a xlink:title=" ">
<path fill="none" stroke="#63b8ff" d="M1125.24,-314.76C1095.33,-309.3 1059.87,-302.84 1031.37,-297.65"/>
<polygon fill="#63b8ff" stroke="#63b8ff" points="1124.69,-318.21 1135.16,-316.56 1125.95,-311.33 1124.69,-318.21"/>
</a>
</g>
</g>
<!-- Node18&#45;&gt;Node4 -->
<g id="edge30_Node000018_Node000004" class="edge">
<title>Node18&#45;&gt;Node4</title>
<g id="a_edge30_Node000018_Node000004"><a xlink:title=" ">
<path fill="none" stroke="#63b8ff" d="M1324.97,-261.73C1323.26,-260.59 1321.6,-259.38 1320,-258.1 1293.59,-237 1312.52,-209.25 1284,-191.1 1169.46,-118.22 1114.77,-174.1 979,-174.1 979,-174.1 979,-174.1 783,-174.1 666.59,-174.1 532.48,-174.1 445.29,-174.1"/>
<polygon fill="#63b8ff" stroke="#63b8ff" points="1323.53,-264.94 1333.94,-266.94 1327.05,-258.89 1323.53,-264.94"/>
</a>
</g>
</g>
<!-- Node18&#45;&gt;Node8 -->
<g id="edge31_Node000018_Node000008" class="edge">
<title>Node18&#45;&gt;Node8</title>
<g id="a_edge31_Node000018_Node000008"><a xlink:title=" ">
<path fill="none" stroke="#63b8ff" d="M1326.25,-302.4C1324.07,-303.86 1321.98,-305.43 1320,-307.1 1291.78,-330.99 1315.1,-362.1 1284,-382.1 1216.05,-425.82 982.27,-411.15 860.34,-399.96"/>
<polygon fill="#63b8ff" stroke="#63b8ff" points="1328.15,-305.34 1335.02,-297.27 1324.62,-299.3 1328.15,-305.34"/>
</a>
</g>
</g>
<!-- Node18&#45;&gt;Node10 -->
<g id="edge32_Node000018_Node000010" class="edge">
<title>Node18&#45;&gt;Node10</title>
<g id="a_edge32_Node000018_Node000010"><a xlink:title=" ">
<path fill="none" stroke="#63b8ff" d="M1309.69,-267.83C1290.83,-265.05 1271.5,-262.2 1254,-259.62"/>
<polygon fill="#63b8ff" stroke="#63b8ff" points="1309.4,-271.32 1319.8,-269.32 1310.42,-264.4 1309.4,-271.32"/>
</a>
</g>
</g>
<!-- Node18&#45;&gt;Node12 -->
<g id="edge33_Node000018_Node000012" class="edge">
<title>Node18&#45;&gt;Node12</title>
<g id="a_edge33_Node000018_Node000012"><a xlink:title=" ">
<path fill="none" stroke="#63b8ff" d="M1309.75,-283.46C1232.36,-284.55 1125.4,-286.05 1054.3,-287.05"/>
<polygon fill="#63b8ff" stroke="#63b8ff" points="1310.04,-286.96 1319.99,-283.32 1309.94,-279.96 1310.04,-286.96"/>
</a>
</g>
</g>
<!-- Node18&#45;&gt;Node13 -->
<g id="edge29_Node000018_Node000013" class="edge">
<title>Node18&#45;&gt;Node13</title>
<g id="a_edge29_Node000018_Node000013"><a xlink:title=" ">
<path fill="none" stroke="#63b8ff" d="M1332.34,-263.54C1328.11,-261.86 1323.96,-260.05 1320,-258.1 1302.05,-249.28 1302.85,-237.79 1284,-231.1 1135.9,-178.59 947.38,-190.91 849.91,-202.58"/>
<polygon fill="#63b8ff" stroke="#63b8ff" points="1331.14,-266.83 1341.74,-267.02 1333.57,-260.27 1331.14,-266.83"/>
</a>
</g>
</g>
<!-- Node18&#45;&gt;Node17 -->
<g id="edge34_Node000018_Node000017" class="edge">
<title>Node18&#45;&gt;Node17</title>
<g id="a_edge34_Node000018_Node000017"><a xlink:title=" ">
<path fill="none" stroke="#63b8ff" d="M1322.62,-299.11C1293.36,-305.04 1261.58,-311.49 1236.41,-316.59"/>
<polygon fill="#63b8ff" stroke="#63b8ff" points="1323.32,-302.54 1332.43,-297.12 1321.93,-295.68 1323.32,-302.54"/>
</a>
</g>
</g>
<!-- Node19&#45;&gt;Node4 -->
<g id="edge36_Node000019_Node000004" class="edge">
<title>Node19&#45;&gt;Node4</title>
<g id="a_edge36_Node000019_Node000004"><a xlink:title=" ">
<path fill="none" stroke="#63b8ff" d="M903.9,-39.4C804.61,-27.89 623.18,-17.75 481,-71.1 427.46,-91.19 379.15,-142.76 360.57,-164.36"/>
<polygon fill="#63b8ff" stroke="#63b8ff" points="903.49,-42.88 913.84,-40.59 904.33,-35.92 903.49,-42.88"/>
</a>
</g>
</g>
</g>
</svg>
