<?xml version="1.0" encoding="UTF-8" standalone="no"?>
<!DOCTYPE svg PUBLIC "-//W3C//DTD SVG 1.1//EN"
 "http://www.w3.org/Graphics/SVG/1.1/DTD/svg11.dtd">
<!-- Generated by graphviz version 2.43.0 (0)
 -->
<!-- Title: GameWorld::checkBonusCollisions Pages: 1 -->
<svg width="763pt" height="140pt"
 viewBox="0.00 0.00 763.00 140.00" xmlns="http://www.w3.org/2000/svg" xmlns:xlink="http://www.w3.org/1999/xlink">
<g id="graph0" class="graph" transform="scale(1 1) rotate(0) translate(4 136)">
<title>GameWorld::checkBonusCollisions</title>
<!-- Node1 -->
<g id="Node000001" class="node">
<title>Node1</title>
<g id="a_Node000001"><a xlink:title="Checks bonus collection.">
<polygon fill="#999999" stroke="#666666" points="185,-76 0,-76 0,-57 185,-57 185,-76"/>
<text text-anchor="middle" x="92.5" y="-64" font-family="Helvetica,sans-Serif" font-size="10.00">GameWorld::checkBonusCollisions</text>
</a>
</g>
</g>
<!-- Node2 -->
<g id="Node000002" class="node">
<title>Node2</title>
<g id="a_Node000002"><a xlink:href="classPlayerTank.html#a34ecaf7829cc7b3e4965afa9ef6c25f0" target="_top" xlink:title="Adds points to player&#39;s score.">
<polygon fill="white" stroke="#666666" points="372.5,-132 251.5,-132 251.5,-113 372.5,-113 372.5,-132"/>
<text text-anchor="middle" x="312" y="-120" font-family="Helvetica,sans-Serif" font-size="10.00">PlayerTank::addScore</text>
</a>
</g>
</g>
<!-- Node1&#45;&gt;Node2 -->
<g id="edge1_Node000001_Node000002" class="edge">
<title>Node1&#45;&gt;Node2</title>
<g id="a_edge1_Node000001_Node000002"><a xlink:title=" ">
<path fill="none" stroke="#63b8ff" d="M122.66,-76.03C148.37,-84.23 186.93,-96.03 221,-104.5 229.97,-106.73 239.5,-108.87 248.87,-110.85"/>
<polygon fill="#63b8ff" stroke="#63b8ff" points="248.44,-114.34 258.94,-112.94 249.86,-107.48 248.44,-114.34"/>
</a>
</g>
</g>
<!-- Node3 -->
<g id="Node000003" class="node">
<title>Node3</title>
<g id="a_Node000003"><a xlink:href="classGameWorld.html#aa547d7890c6acf2e8ee3014a52d741b9" target="_top" xlink:title="Applies slow effect to all enemies.">
<polygon fill="white" stroke="#666666" points="403,-95 221,-95 221,-76 403,-76 403,-95"/>
<text text-anchor="middle" x="312" y="-83" font-family="Helvetica,sans-Serif" font-size="10.00">GameWorld::applySlowToEnemies</text>
</a>
</g>
</g>
<!-- Node1&#45;&gt;Node3 -->
<g id="edge2_Node000001_Node000003" class="edge">
<title>Node1&#45;&gt;Node3</title>
<g id="a_edge2_Node000001_Node000003"><a xlink:title=" ">
<path fill="none" stroke="#63b8ff" d="M185.11,-74.5C193.62,-75.25 202.28,-76 210.86,-76.75"/>
<polygon fill="#63b8ff" stroke="#63b8ff" points="210.62,-80.24 220.89,-77.63 211.23,-73.27 210.62,-80.24"/>
</a>
</g>
</g>
<!-- Node6 -->
<g id="Node000006" class="node">
<title>Node6</title>
<g id="a_Node000006"><a xlink:href="classGameObject.html#a51ac0947e5c628f04657cafecc9fe36b" target="_top" xlink:title="Checks if object is destroyed.">
<polygon fill="white" stroke="#666666" points="588.5,-58 446.5,-58 446.5,-39 588.5,-39 588.5,-58"/>
<text text-anchor="middle" x="517.5" y="-46" font-family="Helvetica,sans-Serif" font-size="10.00">GameObject::isDestroyed</text>
</a>
</g>
</g>
<!-- Node1&#45;&gt;Node6 -->
<g id="edge7_Node000001_Node000006" class="edge">
<title>Node1&#45;&gt;Node6</title>
<g id="a_edge7_Node000001_Node000006"><a xlink:title=" ">
<path fill="none" stroke="#63b8ff" d="M185.02,-62.61C259.81,-59.42 364.51,-54.97 436.1,-51.92"/>
<polygon fill="#63b8ff" stroke="#63b8ff" points="436.58,-55.4 446.42,-51.48 436.28,-48.41 436.58,-55.4"/>
</a>
</g>
</g>
<!-- Node7 -->
<g id="Node000007" class="node">
<title>Node7</title>
<g id="a_Node000007"><a xlink:href="classGameObject.html#aa4dd19d6b0ea5701d860b64b08435ae6" target="_top" xlink:title="Gets current position of the object.">
<polygon fill="white" stroke="#666666" points="381,-19 243,-19 243,0 381,0 381,-19"/>
<text text-anchor="middle" x="312" y="-7" font-family="Helvetica,sans-Serif" font-size="10.00">GameObject::getPosition</text>
</a>
</g>
</g>
<!-- Node1&#45;&gt;Node7 -->
<g id="edge6_Node000001_Node000007" class="edge">
<title>Node1&#45;&gt;Node7</title>
<g id="a_edge6_Node000001_Node000007"><a xlink:title=" ">
<path fill="none" stroke="#63b8ff" d="M129.9,-56.96C166.92,-47.26 224.39,-32.2 264.64,-21.65"/>
<polygon fill="#63b8ff" stroke="#63b8ff" points="265.69,-24.99 274.48,-19.07 263.92,-18.22 265.69,-24.99"/>
</a>
</g>
</g>
<!-- Node4 -->
<g id="Node000004" class="node">
<title>Node4</title>
<g id="a_Node000004"><a xlink:href="classEnemyTank.html#ac30fc0d640fb804d2e382603b424faa7" target="_top" xlink:title="Applies slow effect to enemy tank.">
<polygon fill="white" stroke="#666666" points="596,-95 439,-95 439,-76 596,-76 596,-95"/>
<text text-anchor="middle" x="517.5" y="-83" font-family="Helvetica,sans-Serif" font-size="10.00">EnemyTank::applySlowEffect</text>
</a>
</g>
</g>
<!-- Node3&#45;&gt;Node4 -->
<g id="edge3_Node000003_Node000004" class="edge">
<title>Node3&#45;&gt;Node4</title>
<g id="a_edge3_Node000003_Node000004"><a xlink:title=" ">
<path fill="none" stroke="#63b8ff" d="M403.15,-85.5C411.61,-85.5 420.19,-85.5 428.63,-85.5"/>
<polygon fill="#63b8ff" stroke="#63b8ff" points="428.85,-89 438.85,-85.5 428.85,-82 428.85,-89"/>
</a>
</g>
</g>
<!-- Node3&#45;&gt;Node6 -->
<g id="edge5_Node000003_Node000006" class="edge">
<title>Node3&#45;&gt;Node6</title>
<g id="a_edge5_Node000003_Node000006"><a xlink:title=" ">
<path fill="none" stroke="#63b8ff" d="M365.41,-75.97C392.36,-71.07 425.41,-65.06 453.72,-59.91"/>
<polygon fill="#63b8ff" stroke="#63b8ff" points="454.71,-63.29 463.92,-58.06 453.45,-56.41 454.71,-63.29"/>
</a>
</g>
</g>
<!-- Node5 -->
<g id="Node000005" class="node">
<title>Node5</title>
<g id="a_Node000005"><a xlink:href="classTank.html#ad2c4d964485d2fa5b948f92ae0a76250" target="_top" xlink:title="Applies slow effect to the tank.">
<polygon fill="white" stroke="#666666" points="755,-95 632,-95 632,-76 755,-76 755,-95"/>
<text text-anchor="middle" x="693.5" y="-83" font-family="Helvetica,sans-Serif" font-size="10.00">Tank::applySlowEffect</text>
</a>
</g>
</g>
<!-- Node4&#45;&gt;Node5 -->
<g id="edge4_Node000004_Node000005" class="edge">
<title>Node4&#45;&gt;Node5</title>
<g id="a_edge4_Node000004_Node000005"><a xlink:title=" ">
<path fill="none" stroke="#63b8ff" d="M596.09,-85.5C604.59,-85.5 613.22,-85.5 621.63,-85.5"/>
<polygon fill="#63b8ff" stroke="#63b8ff" points="621.77,-89 631.77,-85.5 621.77,-82 621.77,-89"/>
</a>
</g>
</g>
</g>
</svg>
