<?xml version="1.0" encoding="UTF-8" standalone="no"?>
<!DOCTYPE svg PUBLIC "-//W3C//DTD SVG 1.1//EN"
 "http://www.w3.org/Graphics/SVG/1.1/DTD/svg11.dtd">
<!-- Generated by graphviz version 2.43.0 (0)
 -->
<!-- Title: EnemyTank::getDistanceToPlayer Pages: 1 -->
<svg width="916pt" height="78pt"
 viewBox="0.00 0.00 916.00 78.09" xmlns="http://www.w3.org/2000/svg" xmlns:xlink="http://www.w3.org/1999/xlink">
<g id="graph0" class="graph" transform="scale(1 1) rotate(0) translate(4 74.09)">
<title>EnemyTank::getDistanceToPlayer</title>
<!-- Node1 -->
<g id="Node000001" class="node">
<title>Node1</title>
<g id="a_Node000001"><a xlink:title="Gets Manhattan distance to player.">
<polygon fill="#999999" stroke="#666666" points="908,-38.59 760,-38.59 760,-8.59 908,-8.59 908,-38.59"/>
<text text-anchor="start" x="768" y="-26.59" font-family="Helvetica,sans-Serif" font-size="10.00">EnemyTank::getDistanceTo</text>
<text text-anchor="middle" x="834" y="-15.59" font-family="Helvetica,sans-Serif" font-size="10.00">Player</text>
</a>
</g>
</g>
<!-- Node2 -->
<g id="Node000002" class="node">
<title>Node2</title>
<g id="a_Node000002"><a xlink:href="classEnemyTank.html#a5b53b4d6721012b14e41a0882bd1c2a3" target="_top" xlink:title="Executes aggressive behavior.">
<polygon fill="white" stroke="#666666" points="522,-70.09 346,-70.09 346,-51.09 522,-51.09 522,-70.09"/>
<text text-anchor="middle" x="434" y="-58.09" font-family="Helvetica,sans-Serif" font-size="10.00">EnemyTank::aggressiveBehavior</text>
</a>
</g>
</g>
<!-- Node1&#45;&gt;Node2 -->
<g id="edge1_Node000001_Node000002" class="edge">
<title>Node1&#45;&gt;Node2</title>
<g id="a_edge1_Node000001_Node000002"><a xlink:title=" ">
<path fill="none" stroke="#63b8ff" d="M749.71,-38.21C741.04,-39.47 732.35,-40.63 724,-41.59 656.44,-49.37 579.6,-54.23 522.14,-57.09"/>
<polygon fill="#63b8ff" stroke="#63b8ff" points="750.48,-41.63 759.85,-36.68 749.44,-34.71 750.48,-41.63"/>
</a>
</g>
</g>
<!-- Node5 -->
<g id="Node000005" class="node">
<title>Node5</title>
<g id="a_Node000005"><a xlink:href="classEnemyTank.html#aa70aff895200207527e2465c9439fc05" target="_top" xlink:title="Carefully approaches player.">
<polygon fill="white" stroke="#666666" points="724,-33.09 558,-33.09 558,-14.09 724,-14.09 724,-33.09"/>
<text text-anchor="middle" x="641" y="-21.09" font-family="Helvetica,sans-Serif" font-size="10.00">EnemyTank::cautiousApproach</text>
</a>
</g>
</g>
<!-- Node1&#45;&gt;Node5 -->
<g id="edge4_Node000001_Node000005" class="edge">
<title>Node1&#45;&gt;Node5</title>
<g id="a_edge4_Node000001_Node000005"><a xlink:title=" ">
<path fill="none" stroke="#63b8ff" d="M749.74,-23.59C741.27,-23.59 732.68,-23.59 724.23,-23.59"/>
<polygon fill="#63b8ff" stroke="#63b8ff" points="749.97,-27.09 759.97,-23.59 749.97,-20.09 749.97,-27.09"/>
</a>
</g>
</g>
<!-- Node6 -->
<g id="Node000006" class="node">
<title>Node6</title>
<g id="a_Node000006"><a xlink:href="classEnemyTank.html#a39add8a8beb8bb7b69124753ec2dae74" target="_top" xlink:title="Executes defensive behavior.">
<polygon fill="white" stroke="#666666" points="519,-33.09 349,-33.09 349,-14.09 519,-14.09 519,-33.09"/>
<text text-anchor="middle" x="434" y="-21.09" font-family="Helvetica,sans-Serif" font-size="10.00">EnemyTank::defensiveBehavior</text>
</a>
</g>
</g>
<!-- Node1&#45;&gt;Node6 -->
<g id="edge7_Node000001_Node000006" class="edge">
<title>Node1&#45;&gt;Node6</title>
<g id="a_edge7_Node000001_Node000006"><a xlink:title=" ">
<path fill="none" stroke="#63b8ff" d="M749.78,-7.57C741.1,-6.35 732.39,-5.32 724,-4.59 650.5,1.77 631.56,1.06 558,-4.59 533.87,-6.44 507.31,-10.31 485.07,-14.08"/>
<polygon fill="#63b8ff" stroke="#63b8ff" points="749.53,-11.07 759.94,-9.07 750.56,-4.14 749.53,-11.07"/>
</a>
</g>
</g>
<!-- Node3 -->
<g id="Node000003" class="node">
<title>Node3</title>
<g id="a_Node000003"><a xlink:href="classEnemyTank.html#a338556623afc739ebf5585caaa73fcdb" target="_top" xlink:title="Decides next action based on behavior.">
<polygon fill="white" stroke="#666666" points="310,-51.09 149,-51.09 149,-32.09 310,-32.09 310,-51.09"/>
<text text-anchor="middle" x="229.5" y="-39.09" font-family="Helvetica,sans-Serif" font-size="10.00">EnemyTank::decideNextMove</text>
</a>
</g>
</g>
<!-- Node2&#45;&gt;Node3 -->
<g id="edge2_Node000002_Node000003" class="edge">
<title>Node2&#45;&gt;Node3</title>
<g id="a_edge2_Node000002_Node000003"><a xlink:title=" ">
<path fill="none" stroke="#63b8ff" d="M335.86,-51.48C327.24,-50.67 318.58,-49.86 310.12,-49.06"/>
<polygon fill="#63b8ff" stroke="#63b8ff" points="335.66,-54.97 345.95,-52.42 336.32,-48 335.66,-54.97"/>
</a>
</g>
</g>
<!-- Node4 -->
<g id="Node000004" class="node">
<title>Node4</title>
<g id="a_Node000004"><a xlink:href="classEnemyTank.html#a7ae5efc6eff4e7a19abb7f37b44835fc" target="_top" xlink:title="Updates enemy tank state and AI decisions.">
<polygon fill="white" stroke="#666666" points="113,-51.09 0,-51.09 0,-32.09 113,-32.09 113,-51.09"/>
<text text-anchor="middle" x="56.5" y="-39.09" font-family="Helvetica,sans-Serif" font-size="10.00">EnemyTank::update</text>
</a>
</g>
</g>
<!-- Node3&#45;&gt;Node4 -->
<g id="edge3_Node000003_Node000004" class="edge">
<title>Node3&#45;&gt;Node4</title>
<g id="a_edge3_Node000003_Node000004"><a xlink:title=" ">
<path fill="none" stroke="#63b8ff" d="M138.6,-41.59C129.96,-41.59 121.38,-41.59 113.21,-41.59"/>
<polygon fill="#63b8ff" stroke="#63b8ff" points="138.76,-45.09 148.76,-41.59 138.76,-38.09 138.76,-45.09"/>
</a>
</g>
</g>
<!-- Node5&#45;&gt;Node6 -->
<g id="edge5_Node000005_Node000006" class="edge">
<title>Node5&#45;&gt;Node6</title>
<g id="a_edge5_Node000005_Node000006"><a xlink:title=" ">
<path fill="none" stroke="#63b8ff" d="M547.6,-23.59C538.15,-23.59 528.58,-23.59 519.23,-23.59"/>
<polygon fill="#63b8ff" stroke="#63b8ff" points="547.8,-27.09 557.8,-23.59 547.8,-20.09 547.8,-27.09"/>
</a>
</g>
</g>
<!-- Node6&#45;&gt;Node3 -->
<g id="edge6_Node000006_Node000003" class="edge">
<title>Node6&#45;&gt;Node3</title>
<g id="a_edge6_Node000006_Node000003"><a xlink:title=" ">
<path fill="none" stroke="#63b8ff" d="M338.9,-31.96C329.28,-32.81 319.58,-33.67 310.14,-34.51"/>
<polygon fill="#63b8ff" stroke="#63b8ff" points="339.23,-35.44 348.88,-31.07 338.61,-28.47 339.23,-35.44"/>
</a>
</g>
</g>
</g>
</svg>
