<?xml version="1.0" encoding="UTF-8" standalone="no"?>
<!DOCTYPE svg PUBLIC "-//W3C//DTD SVG 1.1//EN"
 "http://www.w3.org/Graphics/SVG/1.1/DTD/svg11.dtd">
<!-- Generated by graphviz version 2.43.0 (0)
 -->
<!-- Title: PlatformUtils::readUTF8Char Pages: 1 -->
<svg width="1690pt" height="358pt"
 viewBox="0.00 0.00 1690.00 357.81" xmlns="http://www.w3.org/2000/svg" xmlns:xlink="http://www.w3.org/1999/xlink">
<g id="graph0" class="graph" transform="scale(1 1) rotate(0) translate(4 353.81)">
<title>PlatformUtils::readUTF8Char</title>
<!-- Node1 -->
<g id="Node000001" class="node">
<title>Node1</title>
<g id="a_Node000001"><a xlink:title="Reads a single UTF&#45;8 character from input.">
<polygon fill="#999999" stroke="#666666" points="1682,-245.77 1525,-245.77 1525,-226.77 1682,-226.77 1682,-245.77"/>
<text text-anchor="middle" x="1603.5" y="-233.77" font-family="Helvetica,sans-Serif" font-size="10.00">PlatformUtils::readUTF8Char</text>
</a>
</g>
</g>
<!-- Node2 -->
<g id="Node000002" class="node">
<title>Node2</title>
<g id="a_Node000002"><a xlink:href="classGameController.html#a19dc0995b5ee51a87bf49dff90f4e991" target="_top" xlink:title="Handles terminal resize events.">
<polygon fill="white" stroke="#666666" points="1489,-251.27 1314,-251.27 1314,-221.27 1489,-221.27 1489,-251.27"/>
<text text-anchor="start" x="1322" y="-239.27" font-family="Helvetica,sans-Serif" font-size="10.00">GameController::handleTerminal</text>
<text text-anchor="middle" x="1401.5" y="-228.27" font-family="Helvetica,sans-Serif" font-size="10.00">Resize</text>
</a>
</g>
</g>
<!-- Node1&#45;&gt;Node2 -->
<g id="edge1_Node000001_Node000002" class="edge">
<title>Node1&#45;&gt;Node2</title>
<g id="a_edge1_Node000001_Node000002"><a xlink:title=" ">
<path fill="none" stroke="#63b8ff" d="M1514.89,-236.27C1506.31,-236.27 1497.6,-236.27 1489.03,-236.27"/>
<polygon fill="#63b8ff" stroke="#63b8ff" points="1514.89,-239.77 1524.89,-236.27 1514.89,-232.77 1514.89,-239.77"/>
</a>
</g>
</g>
<!-- Node9 -->
<g id="Node000009" class="node">
<title>Node9</title>
<g id="a_Node000009"><a xlink:href="classGameController.html#a4a9c94fe33cf6c73bb5dfc415d04d309" target="_top" xlink:title="Displays map selection screen.">
<polygon fill="white" stroke="#666666" points="1278,-313.77 1087,-313.77 1087,-294.77 1278,-294.77 1278,-313.77"/>
<text text-anchor="middle" x="1182.5" y="-301.77" font-family="Helvetica,sans-Serif" font-size="10.00">GameController::showMapSelection</text>
</a>
</g>
</g>
<!-- Node1&#45;&gt;Node9 -->
<g id="edge21_Node000001_Node000009" class="edge">
<title>Node1&#45;&gt;Node9</title>
<g id="a_edge21_Node000001_Node000009"><a xlink:title=" ">
<path fill="none" stroke="#63b8ff" d="M1550.76,-247.95C1531.44,-252.12 1509.26,-256.67 1489,-260.27 1411.05,-274.11 1321.31,-286.63 1259.36,-294.74"/>
<polygon fill="#63b8ff" stroke="#63b8ff" points="1551.56,-251.36 1560.58,-245.81 1550.07,-244.52 1551.56,-251.36"/>
</a>
</g>
</g>
<!-- Node12 -->
<g id="Node000012" class="node">
<title>Node12</title>
<g id="a_Node000012"><a xlink:href="classInputHandler.html#a913dc5151c57d77fa9c56cb4ad2c2621" target="_top" xlink:title="Waits for and returns a user command.">
<polygon fill="white" stroke="#666666" points="1487.5,-104.77 1315.5,-104.77 1315.5,-85.77 1487.5,-85.77 1487.5,-104.77"/>
<text text-anchor="middle" x="1401.5" y="-92.77" font-family="Helvetica,sans-Serif" font-size="10.00">InputHandler::waitForCommand</text>
</a>
</g>
</g>
<!-- Node1&#45;&gt;Node12 -->
<g id="edge22_Node000001_Node000012" class="edge">
<title>Node1&#45;&gt;Node12</title>
<g id="a_edge22_Node000001_Node000012"><a xlink:title=" ">
<path fill="none" stroke="#63b8ff" d="M1580.4,-220.68C1538.8,-191.36 1450.02,-128.77 1416.08,-104.84"/>
<polygon fill="#63b8ff" stroke="#63b8ff" points="1578.56,-223.67 1588.75,-226.57 1582.6,-217.95 1578.56,-223.67"/>
</a>
</g>
</g>
<!-- Node3 -->
<g id="Node000003" class="node">
<title>Node3</title>
<g id="a_Node000003"><a xlink:href="classGameController.html#a637ea4e72ed2be4a2884b30160b3e8ab" target="_top" xlink:title="Pauses the game and displays pause screen.">
<polygon fill="white" stroke="#666666" points="863,-275.77 705,-275.77 705,-256.77 863,-256.77 863,-275.77"/>
<text text-anchor="middle" x="784" y="-263.77" font-family="Helvetica,sans-Serif" font-size="10.00">GameController::pauseGame</text>
</a>
</g>
</g>
<!-- Node2&#45;&gt;Node3 -->
<g id="edge2_Node000002_Node000003" class="edge">
<title>Node2&#45;&gt;Node3</title>
<g id="a_edge2_Node000002_Node000003"><a xlink:title=" ">
<path fill="none" stroke="#63b8ff" d="M1303.68,-244.54C1295,-245.17 1286.34,-245.76 1278,-246.27 1131.58,-255.21 960.44,-261.14 863.18,-264.08"/>
<polygon fill="#63b8ff" stroke="#63b8ff" points="1304.15,-248.01 1313.87,-243.78 1303.63,-241.03 1304.15,-248.01"/>
</a>
</g>
</g>
<!-- Node5 -->
<g id="Node000005" class="node">
<title>Node5</title>
<g id="a_Node000005"><a xlink:href="classGameController.html#af2367e58f03d8a1441c9a574967fd360" target="_top" xlink:title="Processes a single game turn/update cycle.">
<polygon fill="white" stroke="#666666" points="445,-237.77 258,-237.77 258,-218.77 445,-218.77 445,-237.77"/>
<text text-anchor="middle" x="351.5" y="-225.77" font-family="Helvetica,sans-Serif" font-size="10.00">GameController::processGameTurn</text>
</a>
</g>
</g>
<!-- Node2&#45;&gt;Node5 -->
<g id="edge7_Node000002_Node000005" class="edge">
<title>Node2&#45;&gt;Node5</title>
<g id="a_edge7_Node000002_Node000005"><a xlink:title=" ">
<path fill="none" stroke="#63b8ff" d="M1377.62,-258.57C1354.57,-279.47 1316.93,-309.48 1278,-323.27 1151.22,-368.14 1110.49,-342.27 976,-342.27 976,-342.27 976,-342.27 783,-342.27 620.25,-342.27 434.08,-265.19 373.04,-237.79"/>
<polygon fill="#63b8ff" stroke="#63b8ff" points="1380.18,-260.97 1385.14,-251.61 1375.42,-255.83 1380.18,-260.97"/>
</a>
</g>
</g>
<!-- Node8 -->
<g id="Node000008" class="node">
<title>Node8</title>
<g id="a_Node000008"><a xlink:href="classGameController.html#a85bcf4ecfd197aad278e116215a3717b" target="_top" xlink:title="Displays level completion screen.">
<polygon fill="white" stroke="#666666" points="860,-162.27 708,-162.27 708,-132.27 860,-132.27 860,-162.27"/>
<text text-anchor="start" x="716" y="-150.27" font-family="Helvetica,sans-Serif" font-size="10.00">GameController::showLevel</text>
<text text-anchor="middle" x="784" y="-139.27" font-family="Helvetica,sans-Serif" font-size="10.00">CompleteScreen</text>
</a>
</g>
</g>
<!-- Node2&#45;&gt;Node8 -->
<g id="edge8_Node000002_Node000008" class="edge">
<title>Node2&#45;&gt;Node8</title>
<g id="a_edge8_Node000002_Node000008"><a xlink:title=" ">
<path fill="none" stroke="#63b8ff" d="M1370.57,-215.55C1346.69,-200.26 1311.76,-180.54 1278,-171.27 1134.23,-131.75 958.14,-134.86 860.09,-140.91"/>
<polygon fill="#63b8ff" stroke="#63b8ff" points="1368.88,-218.62 1379.16,-221.17 1372.71,-212.77 1368.88,-218.62"/>
</a>
</g>
</g>
<!-- Node2&#45;&gt;Node9 -->
<g id="edge10_Node000002_Node000009" class="edge">
<title>Node2&#45;&gt;Node9</title>
<g id="a_edge10_Node000002_Node000009"><a xlink:title=" ">
<path fill="none" stroke="#63b8ff" d="M1352.05,-254.88C1329.68,-263.16 1302.66,-272.72 1278,-280.27 1260.68,-285.56 1241.33,-290.62 1224.67,-294.72"/>
<polygon fill="#63b8ff" stroke="#63b8ff" points="1353.5,-258.07 1361.65,-251.3 1351.06,-251.52 1353.5,-258.07"/>
</a>
</g>
</g>
<!-- Node10 -->
<g id="Node000010" class="node">
<title>Node10</title>
<g id="a_Node000010"><a xlink:href="classGameController.html#a9d11b5a6255b7249bddba49df0837cf3" target="_top" xlink:title="Displays and manages the main menu.">
<polygon fill="white" stroke="#666666" points="1051,-237.77 899,-237.77 899,-218.77 1051,-218.77 1051,-237.77"/>
<text text-anchor="middle" x="975" y="-225.77" font-family="Helvetica,sans-Serif" font-size="10.00">GameController::showMenu</text>
</a>
</g>
</g>
<!-- Node2&#45;&gt;Node10 -->
<g id="edge18_Node000002_Node000010" class="edge">
<title>Node2&#45;&gt;Node10</title>
<g id="a_edge18_Node000002_Node000010"><a xlink:title=" ">
<path fill="none" stroke="#63b8ff" d="M1303.69,-234.44C1227.05,-233 1121.56,-231.01 1051.19,-229.68"/>
<polygon fill="#63b8ff" stroke="#63b8ff" points="1303.76,-237.94 1313.83,-234.63 1303.9,-230.94 1303.76,-237.94"/>
</a>
</g>
</g>
<!-- Node11 -->
<g id="Node000011" class="node">
<title>Node11</title>
<g id="a_Node000011"><a xlink:href="classGameController.html#a24f5cae258418d4a5934e6f412c28945" target="_top" xlink:title="Displays and manages the settings menu.">
<polygon fill="white" stroke="#666666" points="1265,-199.77 1100,-199.77 1100,-180.77 1265,-180.77 1265,-199.77"/>
<text text-anchor="middle" x="1182.5" y="-187.77" font-family="Helvetica,sans-Serif" font-size="10.00">GameController::showSettings</text>
</a>
</g>
</g>
<!-- Node2&#45;&gt;Node11 -->
<g id="edge19_Node000002_Node000011" class="edge">
<title>Node2&#45;&gt;Node11</title>
<g id="a_edge19_Node000002_Node000011"><a xlink:title=" ">
<path fill="none" stroke="#63b8ff" d="M1319.57,-219.11C1288.75,-212.58 1254.75,-205.37 1228.45,-199.79"/>
<polygon fill="#63b8ff" stroke="#63b8ff" points="1318.94,-222.55 1329.45,-221.2 1320.39,-215.71 1318.94,-222.55"/>
</a>
</g>
</g>
<!-- Node4 -->
<g id="Node000004" class="node">
<title>Node4</title>
<g id="a_Node000004"><a xlink:href="classGameController.html#a971b3d8f6296a74f0bebc83b5e79c186" target="_top" xlink:title="Processes a user command.">
<polygon fill="white" stroke="#666666" points="669,-256.77 481,-256.77 481,-237.77 669,-237.77 669,-256.77"/>
<text text-anchor="middle" x="575" y="-244.77" font-family="Helvetica,sans-Serif" font-size="10.00">GameController::processCommand</text>
</a>
</g>
</g>
<!-- Node3&#45;&gt;Node4 -->
<g id="edge3_Node000003_Node000004" class="edge">
<title>Node3&#45;&gt;Node4</title>
<g id="a_edge3_Node000003_Node000004"><a xlink:title=" ">
<path fill="none" stroke="#63b8ff" d="M694.62,-258.15C686.25,-257.38 677.75,-256.6 669.34,-255.83"/>
<polygon fill="#63b8ff" stroke="#63b8ff" points="694.46,-261.65 704.74,-259.08 695.1,-254.68 694.46,-261.65"/>
</a>
</g>
</g>
<!-- Node4&#45;&gt;Node5 -->
<g id="edge4_Node000004_Node000005" class="edge">
<title>Node4&#45;&gt;Node5</title>
<g id="a_edge4_Node000004_Node000005"><a xlink:title=" ">
<path fill="none" stroke="#63b8ff" d="M470.5,-238.39C462.1,-237.67 453.65,-236.94 445.33,-236.23"/>
<polygon fill="#63b8ff" stroke="#63b8ff" points="470.44,-241.9 480.71,-239.26 471.04,-234.92 470.44,-241.9"/>
</a>
</g>
</g>
<!-- Node6 -->
<g id="Node000006" class="node">
<title>Node6</title>
<g id="a_Node000006"><a xlink:href="classGameController.html#ac958989c8f7f08488546930e5fcb0d82" target="_top" xlink:title="Starts and runs the main game loop.">
<polygon fill="white" stroke="#666666" points="222,-218.77 77,-218.77 77,-199.77 222,-199.77 222,-218.77"/>
<text text-anchor="middle" x="149.5" y="-206.77" font-family="Helvetica,sans-Serif" font-size="10.00">GameController::runGame</text>
</a>
</g>
</g>
<!-- Node5&#45;&gt;Node6 -->
<g id="edge5_Node000005_Node000006" class="edge">
<title>Node5&#45;&gt;Node6</title>
<g id="a_edge5_Node000005_Node000006"><a xlink:title=" ">
<path fill="none" stroke="#63b8ff" d="M247.71,-218.5C239.1,-217.68 230.52,-216.87 222.22,-216.08"/>
<polygon fill="#63b8ff" stroke="#63b8ff" points="247.53,-222 257.82,-219.46 248.19,-215.03 247.53,-222"/>
</a>
</g>
</g>
<!-- Node7 -->
<g id="Node000007" class="node">
<title>Node7</title>
<g id="a_Node000007"><a xlink:href="main_8cpp.html#ae66f6b31b5ad750f1fe042a706a4e3d4" target="_top" xlink:title="Main function that serves as the application entry point.">
<polygon fill="white" stroke="#666666" points="41,-218.77 0,-218.77 0,-199.77 41,-199.77 41,-218.77"/>
<text text-anchor="middle" x="20.5" y="-206.77" font-family="Helvetica,sans-Serif" font-size="10.00">main</text>
</a>
</g>
</g>
<!-- Node6&#45;&gt;Node7 -->
<g id="edge6_Node000006_Node000007" class="edge">
<title>Node6&#45;&gt;Node7</title>
<g id="a_edge6_Node000006_Node000007"><a xlink:title=" ">
<path fill="none" stroke="#63b8ff" d="M66.79,-209.27C57.31,-209.27 48.43,-209.27 41.08,-209.27"/>
<polygon fill="#63b8ff" stroke="#63b8ff" points="66.83,-212.77 76.83,-209.27 66.83,-205.77 66.83,-212.77"/>
</a>
</g>
</g>
<!-- Node8&#45;&gt;Node5 -->
<g id="edge9_Node000008_Node000005" class="edge">
<title>Node8&#45;&gt;Node5</title>
<g id="a_edge9_Node000008_Node000005"><a xlink:title=" ">
<path fill="none" stroke="#63b8ff" d="M697.57,-163.34C609.69,-179.87 475.72,-205.08 403.27,-218.71"/>
<polygon fill="#63b8ff" stroke="#63b8ff" points="698.34,-166.76 707.52,-161.47 697.05,-159.88 698.34,-166.76"/>
</a>
</g>
</g>
<!-- Node9&#45;&gt;Node4 -->
<g id="edge11_Node000009_Node000004" class="edge">
<title>Node9&#45;&gt;Node4</title>
<g id="a_edge11_Node000009_Node000004"><a xlink:title=" ">
<path fill="none" stroke="#63b8ff" d="M1076.7,-306.97C979.67,-307.79 831.7,-304.79 705,-284.27 668.66,-278.38 628.04,-265.66 602.26,-256.79"/>
<polygon fill="#63b8ff" stroke="#63b8ff" points="1076.84,-310.47 1086.81,-306.87 1076.77,-303.47 1076.84,-310.47"/>
</a>
</g>
</g>
<!-- Node9&#45;&gt;Node10 -->
<g id="edge12_Node000009_Node000010" class="edge">
<title>Node9&#45;&gt;Node10</title>
<g id="a_edge12_Node000009_Node000010"><a xlink:title=" ">
<path fill="none" stroke="#63b8ff" d="M1156.28,-290.32C1121.44,-274.93 1058.2,-251.24 1016.65,-237.79"/>
<polygon fill="#63b8ff" stroke="#63b8ff" points="1155.16,-293.66 1165.72,-294.62 1158.07,-287.29 1155.16,-293.66"/>
</a>
</g>
</g>
<!-- Node10&#45;&gt;Node3 -->
<g id="edge13_Node000010_Node000003" class="edge">
<title>Node10&#45;&gt;Node3</title>
<g id="a_edge13_Node000010_Node000003"><a xlink:title=" ">
<path fill="none" stroke="#63b8ff" d="M916.26,-239.87C889.38,-245.28 857.8,-251.63 832.35,-256.75"/>
<polygon fill="#63b8ff" stroke="#63b8ff" points="917.19,-243.26 926.31,-237.85 915.81,-236.39 917.19,-243.26"/>
</a>
</g>
</g>
<!-- Node10&#45;&gt;Node4 -->
<g id="edge14_Node000010_Node000004" class="edge">
<title>Node10&#45;&gt;Node4</title>
<g id="a_edge14_Node000010_Node000004"><a xlink:title=" ">
<path fill="none" stroke="#63b8ff" d="M888.53,-232.35C824.02,-235.43 735.58,-239.65 669.25,-242.81"/>
<polygon fill="#63b8ff" stroke="#63b8ff" points="888.85,-235.83 898.67,-231.86 888.52,-228.84 888.85,-235.83"/>
</a>
</g>
</g>
<!-- Node10&#45;&gt;Node6 -->
<g id="edge15_Node000010_Node000006" class="edge">
<title>Node10&#45;&gt;Node6</title>
<g id="a_edge15_Node000010_Node000006"><a xlink:title=" ">
<path fill="none" stroke="#63b8ff" d="M888.5,-224.25C783.93,-219.56 601.51,-212.07 445,-209.27 368.96,-207.9 281.86,-208.12 222.22,-208.55"/>
<polygon fill="#63b8ff" stroke="#63b8ff" points="888.54,-227.75 898.69,-224.71 888.85,-220.76 888.54,-227.75"/>
</a>
</g>
</g>
<!-- Node10&#45;&gt;Node8 -->
<g id="edge16_Node000010_Node000008" class="edge">
<title>Node10&#45;&gt;Node8</title>
<g id="a_edge16_Node000010_Node000008"><a xlink:title=" ">
<path fill="none" stroke="#63b8ff" d="M945.76,-214.25C923.5,-203.39 891.55,-188.24 863,-176.27 851.54,-171.46 838.98,-166.61 827.35,-162.29"/>
<polygon fill="#63b8ff" stroke="#63b8ff" points="944.44,-217.5 954.96,-218.76 947.53,-211.22 944.44,-217.5"/>
</a>
</g>
</g>
<!-- Node10&#45;&gt;Node9 -->
<g id="edge17_Node000010_Node000009" class="edge">
<title>Node10&#45;&gt;Node9</title>
<g id="a_edge17_Node000010_Node000009"><a xlink:title=" ">
<path fill="none" stroke="#63b8ff" d="M1001.3,-242.25C1036.17,-257.65 1099.38,-281.31 1140.9,-294.75"/>
<polygon fill="#63b8ff" stroke="#63b8ff" points="1002.41,-238.9 991.86,-237.94 999.51,-245.27 1002.41,-238.9"/>
</a>
</g>
</g>
<!-- Node11&#45;&gt;Node10 -->
<g id="edge20_Node000011_Node000010" class="edge">
<title>Node11&#45;&gt;Node10</title>
<g id="a_edge20_Node000011_Node000010"><a xlink:title=" ">
<path fill="none" stroke="#63b8ff" d="M1119.75,-201.68C1090.35,-207.12 1055.59,-213.55 1027.61,-218.72"/>
<polygon fill="#63b8ff" stroke="#63b8ff" points="1120.71,-205.07 1129.91,-199.81 1119.44,-198.18 1120.71,-205.07"/>
</a>
</g>
</g>
<!-- Node12&#45;&gt;Node3 -->
<g id="edge23_Node000012_Node000003" class="edge">
<title>Node12&#45;&gt;Node3</title>
<g id="a_edge23_Node000012_Node000003"><a xlink:title=" ">
<path fill="none" stroke="#63b8ff" d="M1304.89,-92.06C1241.97,-92.29 1158.35,-97.05 1087,-116.27 996.99,-140.51 982.47,-167.75 899,-209.27 865.52,-225.92 826.56,-245.42 803.95,-256.76"/>
<polygon fill="#63b8ff" stroke="#63b8ff" points="1305.2,-95.56 1315.2,-92.07 1305.2,-88.56 1305.2,-95.56"/>
</a>
</g>
</g>
<!-- Node12&#45;&gt;Node5 -->
<g id="edge24_Node000012_Node000005" class="edge">
<title>Node12&#45;&gt;Node5</title>
<g id="a_edge24_Node000012_Node000005"><a xlink:title=" ">
<path fill="none" stroke="#63b8ff" d="M1377.03,-80.45C1353.09,-66.11 1314.41,-45.01 1278,-34.27 1148.46,3.98 1111.07,-0.27 976,-0.27 976,-0.27 976,-0.27 783,-0.27 593.13,-0.27 405.2,-175.61 361.83,-218.76"/>
<polygon fill="#63b8ff" stroke="#63b8ff" points="1375.38,-83.54 1385.74,-85.76 1379.02,-77.57 1375.38,-83.54"/>
</a>
</g>
</g>
<!-- Node12&#45;&gt;Node8 -->
<g id="edge25_Node000012_Node000008" class="edge">
<title>Node12&#45;&gt;Node8</title>
<g id="a_edge25_Node000012_Node000008"><a xlink:title=" ">
<path fill="none" stroke="#63b8ff" d="M1361.33,-82.91C1275.16,-57.79 1063.7,-7.62 899,-62.27 857.29,-76.1 818.47,-111.79 798.68,-132.25"/>
<polygon fill="#63b8ff" stroke="#63b8ff" points="1360.39,-86.28 1370.97,-85.76 1362.38,-79.57 1360.39,-86.28"/>
</a>
</g>
</g>
<!-- Node12&#45;&gt;Node10 -->
<g id="edge26_Node000012_Node000010" class="edge">
<title>Node12&#45;&gt;Node10</title>
<g id="a_edge26_Node000012_Node000010"><a xlink:title=" ">
<path fill="none" stroke="#63b8ff" d="M1334.07,-106.63C1269.67,-118.75 1169.83,-140.45 1087,-171.27 1051.47,-184.48 1012.64,-206.27 991.63,-218.73"/>
<polygon fill="#63b8ff" stroke="#63b8ff" points="1334.91,-110.04 1344.1,-104.77 1333.63,-103.16 1334.91,-110.04"/>
</a>
</g>
</g>
<!-- Node12&#45;&gt;Node11 -->
<g id="edge27_Node000012_Node000011" class="edge">
<title>Node12&#45;&gt;Node11</title>
<g id="a_edge27_Node000012_Node000011"><a xlink:title=" ">
<path fill="none" stroke="#63b8ff" d="M1369.3,-108.92C1324.71,-128.44 1243.89,-163.83 1205.24,-180.75"/>
<polygon fill="#63b8ff" stroke="#63b8ff" points="1370.74,-112.11 1378.5,-104.9 1367.93,-105.7 1370.74,-112.11"/>
</a>
</g>
</g>
</g>
</svg>
