<?xml version="1.0" encoding="UTF-8" standalone="no"?>
<!DOCTYPE svg PUBLIC "-//W3C//DTD SVG 1.1//EN"
 "http://www.w3.org/Graphics/SVG/1.1/DTD/svg11.dtd">
<!-- Generated by graphviz version 2.43.0 (0)
 -->
<!-- Title: SettingsManager::loadSettings Pages: 1 -->
<svg width="557pt" height="38pt"
 viewBox="0.00 0.00 557.00 38.00" xmlns="http://www.w3.org/2000/svg" xmlns:xlink="http://www.w3.org/1999/xlink">
<g id="graph0" class="graph" transform="scale(1 1) rotate(0) translate(4 34)">
<title>SettingsManager::loadSettings</title>
<!-- Node1 -->
<g id="Node000001" class="node">
<title>Node1</title>
<g id="a_Node000001"><a xlink:title="Loads settings from configuration file.">
<polygon fill="#999999" stroke="#666666" points="166,-24.5 0,-24.5 0,-5.5 166,-5.5 166,-24.5"/>
<text text-anchor="middle" x="83" y="-12.5" font-family="Helvetica,sans-Serif" font-size="10.00">SettingsManager::loadSettings</text>
</a>
</g>
</g>
<!-- Node2 -->
<g id="Node000002" class="node">
<title>Node2</title>
<g id="a_Node000002"><a xlink:href="classSettingsManager.html#a9eb3e4c128197920e5d078728dba654c" target="_top" xlink:title="Sets default settings if configuration file doesn&#39;t exist.">
<polygon fill="white" stroke="#666666" points="358,-30 202,-30 202,0 358,0 358,-30"/>
<text text-anchor="start" x="210" y="-18" font-family="Helvetica,sans-Serif" font-size="10.00">SettingsManager::setDefault</text>
<text text-anchor="middle" x="280" y="-7" font-family="Helvetica,sans-Serif" font-size="10.00">Settings</text>
</a>
</g>
</g>
<!-- Node1&#45;&gt;Node2 -->
<g id="edge1_Node000001_Node000002" class="edge">
<title>Node1&#45;&gt;Node2</title>
<g id="a_edge1_Node000001_Node000002"><a xlink:title=" ">
<path fill="none" stroke="#63b8ff" d="M166.13,-15C174.66,-15 183.35,-15 191.93,-15"/>
<polygon fill="#63b8ff" stroke="#63b8ff" points="191.94,-18.5 201.94,-15 191.94,-11.5 191.94,-18.5"/>
</a>
</g>
</g>
<!-- Node3 -->
<g id="Node000003" class="node">
<title>Node3</title>
<g id="a_Node000003"><a xlink:href="classPlatformUtils.html#a3cb085d8a5a464f034989e1a3f4a956e" target="_top" xlink:title="Checks and reports Unicode support status.">
<polygon fill="white" stroke="#666666" points="549,-30 394,-30 394,0 549,0 549,-30"/>
<text text-anchor="start" x="402" y="-18" font-family="Helvetica,sans-Serif" font-size="10.00">PlatformUtils::checkUnicode</text>
<text text-anchor="middle" x="471.5" y="-7" font-family="Helvetica,sans-Serif" font-size="10.00">Support</text>
</a>
</g>
</g>
<!-- Node2&#45;&gt;Node3 -->
<g id="edge2_Node000002_Node000003" class="edge">
<title>Node2&#45;&gt;Node3</title>
<g id="a_edge2_Node000002_Node000003"><a xlink:title=" ">
<path fill="none" stroke="#63b8ff" d="M358.08,-15C366.55,-15 375.21,-15 383.79,-15"/>
<polygon fill="#63b8ff" stroke="#63b8ff" points="383.8,-18.5 393.8,-15 383.8,-11.5 383.8,-18.5"/>
</a>
</g>
</g>
</g>
</svg>
