<?xml version="1.0" encoding="UTF-8" standalone="no"?>
<!DOCTYPE svg PUBLIC "-//W3C//DTD SVG 1.1//EN"
 "http://www.w3.org/Graphics/SVG/1.1/DTD/svg11.dtd">
<!-- Generated by graphviz version 2.43.0 (0)
 -->
<!-- Title: ConsoleRenderer::drawSymbolLegend Pages: 1 -->
<!--zoomable 140 -->

<svg id="main" version="1.1" xmlns="http://www.w3.org/2000/svg" xmlns:xlink="http://www.w3.org/1999/xlink" xml:space="preserve" onload="init(evt)">
<style type="text/css"><![CDATA[
.node, .edge {opacity: 0.7;}
.node.selected, .edge.selected {opacity: 1;}
.edge:hover path { stroke: red; }
.edge:hover polygon { stroke: red; fill: red; }
]]></style>

<defs>
  <circle id="rim" cx="0" cy="0" r="7"/>
  <circle id="rim2" cx="0" cy="0" r="3.5"/>
  <g id="zoomPlus">
    <use xlink:href="#rim" fill="#404040"><set attributeName="fill" to="#808080" begin="zoomplus.mouseover" end="zoomplus.mouseout"/></use>
    <path d="M-4,0h8M0,-4v8" fill="none" stroke="white" stroke-width="1.5" pointer-events="none"/>
  </g>
  <g id="zoomMin">
    <use xlink:href="#rim" fill="#404040"><set attributeName="fill" to="#808080" begin="zoomminus.mouseover" end="zoomminus.mouseout"/></use>
    <path d="M-4,0h8" fill="none" stroke="white" stroke-width="1.5" pointer-events="none"/>
  </g>
  <g id="arrowUp" transform="translate(30 24)">
    <use xlink:href="#rim"/>
    <path pointer-events="none" fill="none" stroke="white" stroke-width="1.5" d="M0,-3.0v7 M-2.5,-0.5L0,-3.0L2.5,-0.5"/>
  </g>
  <g id="arrowRight" transform="rotate(90) translate(36 -43)">
    <use xlink:href="#rim"/>
    <path pointer-events="none" fill="none" stroke="white" stroke-width="1.5" d="M0,-3.0v7 M-2.5,-0.5L0,-3.0L2.5,-0.5"/>
  </g>
  <g id="arrowDown" transform="rotate(180) translate(-30 -48)">
    <use xlink:href="#rim"/>
    <path pointer-events="none" fill="none" stroke="white" stroke-width="1.5" d="M0,-3.0v7 M-2.5,-0.5L0,-3.0L2.5,-0.5"/>
  </g>
  <g id="arrowLeft" transform="rotate(270) translate(-36 17)">
    <use xlink:href="#rim"/>
    <path pointer-events="none" fill="none" stroke="white" stroke-width="1.5" d="M0,-3.0v7 M-2.5,-0.5L0,-3.0L2.5,-0.5"/>
  </g>
  <g id="resetDef">
    <use xlink:href="#rim2" fill="#404040"><set attributeName="fill" to="#808080" begin="reset.mouseover" end="reset.mouseout"/></use>
  </g>
</defs>
<script type="application/ecmascript">
var viewWidth = 726;
var viewHeight = 140;
var sectionId = 'dynsection-24';
</script>
<script type="application/ecmascript" xlink:href="svg.min.js"/>
<svg id="graph" class="graph">
<g id="viewport">
<title>ConsoleRenderer::drawSymbolLegend</title>
<!-- Node1 -->
<g id="Node000001" class="node">
<title>Node1</title>
<g id="a_Node000001"><a xlink:title="Draws symbol legend explaining game symbols.">
<polygon fill="#999999" stroke="#666666" points="167,-81.5 0,-81.5 0,-51.5 167,-51.5 167,-81.5"/>
<text text-anchor="start" x="8" y="-69.5" font-family="Helvetica,sans-Serif" font-size="10.00">ConsoleRenderer::drawSymbol</text>
<text text-anchor="middle" x="83.5" y="-58.5" font-family="Helvetica,sans-Serif" font-size="10.00">Legend</text>
</a>
</g>
</g>
<!-- Node2 -->
<g id="Node000002" class="node">
<title>Node2</title>
<g id="a_Node000002"><a xlink:href="ConsoleRenderer_8cpp.html#a279be60aa96dcc35cae7933c2617f6d6" target="_top" xlink:title=" ">
<polygon fill="white" stroke="#666666" points="335.5,-132 239.5,-132 239.5,-113 335.5,-113 335.5,-132"/>
<text text-anchor="middle" x="287.5" y="-120" font-family="Helvetica,sans-Serif" font-size="10.00">getGraphicsMap</text>
</a>
</g>
</g>
<!-- Node1&#45;&gt;Node2 -->
<g id="edge1_Node000001_Node000002" class="edge">
<title>Node1&#45;&gt;Node2</title>
<g id="a_edge1_Node000001_Node000002"><a xlink:title=" ">
<path fill="none" stroke="#63b8ff" d="M127.81,-81.52C150.12,-88.96 177.85,-97.77 203,-104.5 211.54,-106.78 220.62,-108.98 229.54,-111"/>
<polygon fill="#63b8ff" stroke="#63b8ff" points="228.97,-114.46 239.49,-113.21 230.49,-107.63 228.97,-114.46"/>
</a>
</g>
</g>
<!-- Node3 -->
<g id="Node000003" class="node">
<title>Node3</title>
<g id="a_Node000003"><a xlink:href="classConsoleRenderer.html#a39097953ecd72be19860424c9d00b0ea" target="_top" xlink:title="Resets terminal color to default.">
<polygon fill="white" stroke="#666666" points="365.5,-95 209.5,-95 209.5,-76 365.5,-76 365.5,-95"/>
<text text-anchor="middle" x="287.5" y="-83" font-family="Helvetica,sans-Serif" font-size="10.00">ConsoleRenderer::resetColor</text>
</a>
</g>
</g>
<!-- Node1&#45;&gt;Node3 -->
<g id="edge2_Node000001_Node000003" class="edge">
<title>Node1&#45;&gt;Node3</title>
<g id="a_edge2_Node000001_Node000003"><a xlink:title=" ">
<path fill="none" stroke="#63b8ff" d="M167.24,-74.28C177.81,-75.28 188.66,-76.3 199.29,-77.3"/>
<polygon fill="#63b8ff" stroke="#63b8ff" points="199.13,-80.8 209.41,-78.25 199.78,-73.83 199.13,-80.8"/>
</a>
</g>
</g>
<!-- Node6 -->
<g id="Node000006" class="node">
<title>Node6</title>
<g id="a_Node000006"><a xlink:href="classConsoleRenderer.html#af06444dbf726424a13127fd4f3a70a8d" target="_top" xlink:title="Sets terminal text color.">
<polygon fill="white" stroke="#666666" points="554,-57 408,-57 408,-38 554,-38 554,-57"/>
<text text-anchor="middle" x="481" y="-45" font-family="Helvetica,sans-Serif" font-size="10.00">ConsoleRenderer::setColor</text>
</a>
</g>
</g>
<!-- Node1&#45;&gt;Node6 -->
<g id="edge5_Node000001_Node000006" class="edge">
<title>Node1&#45;&gt;Node6</title>
<g id="a_edge5_Node000001_Node000006"><a xlink:title=" ">
<path fill="none" stroke="#63b8ff" d="M167.41,-62.52C235.06,-59.27 330.15,-54.7 397.65,-51.46"/>
<polygon fill="#63b8ff" stroke="#63b8ff" points="398,-54.94 407.82,-50.97 397.67,-47.95 398,-54.94"/>
</a>
</g>
</g>
<!-- Node7 -->
<g id="Node000007" class="node">
<title>Node7</title>
<g id="a_Node000007"><a xlink:href="classPlatformUtils.html#a964fb97fe6351330adbcf813a9706eb6" target="_top" xlink:title="Checks if terminal supports Unicode.">
<polygon fill="white" stroke="#666666" points="372,-19 203,-19 203,0 372,0 372,-19"/>
<text text-anchor="middle" x="287.5" y="-7" font-family="Helvetica,sans-Serif" font-size="10.00">PlatformUtils::supportsUnicode</text>
</a>
</g>
</g>
<!-- Node1&#45;&gt;Node7 -->
<g id="edge7_Node000001_Node000007" class="edge">
<title>Node1&#45;&gt;Node7</title>
<g id="a_edge7_Node000001_Node000007"><a xlink:title=" ">
<path fill="none" stroke="#63b8ff" d="M137.84,-51.45C170.5,-42.23 211.79,-30.58 242.56,-21.9"/>
<polygon fill="#63b8ff" stroke="#63b8ff" points="243.89,-25.16 252.56,-19.08 241.99,-18.42 243.89,-25.16"/>
</a>
</g>
</g>
<!-- Node4 -->
<g id="Node000004" class="node">
<title>Node4</title>
<g id="a_Node000004"><a xlink:href="classPlatformUtils.html#ae3607ef4c4fbee33349ec982eda7bf07" target="_top" xlink:title="Resets terminal color to default.">
<polygon fill="white" stroke="#666666" points="549.5,-94 412.5,-94 412.5,-75 549.5,-75 549.5,-94"/>
<text text-anchor="middle" x="481" y="-82" font-family="Helvetica,sans-Serif" font-size="10.00">PlatformUtils::resetColor</text>
</a>
</g>
</g>
<!-- Node3&#45;&gt;Node4 -->
<g id="edge3_Node000003_Node000004" class="edge">
<title>Node3&#45;&gt;Node4</title>
<g id="a_edge3_Node000003_Node000004"><a xlink:title=" ">
<path fill="none" stroke="#63b8ff" d="M365.56,-85.1C377.66,-85.03 390.17,-84.97 402.29,-84.91"/>
<polygon fill="#63b8ff" stroke="#63b8ff" points="402.37,-88.41 412.35,-84.85 402.33,-81.41 402.37,-88.41"/>
</a>
</g>
</g>
<!-- Node5 -->
<g id="Node000005" class="node">
<title>Node5</title>
<g id="a_Node000005"><a xlink:href="classPlatformUtils.html#a48de38e18726881bbe61e398ebabb97e" target="_top" xlink:title="Sets terminal text color.">
<polygon fill="white" stroke="#666666" points="718,-75 590,-75 590,-56 718,-56 718,-75"/>
<text text-anchor="middle" x="654" y="-63" font-family="Helvetica,sans-Serif" font-size="10.00">PlatformUtils::setColor</text>
</a>
</g>
</g>
<!-- Node4&#45;&gt;Node5 -->
<g id="edge4_Node000004_Node000005" class="edge">
<title>Node4&#45;&gt;Node5</title>
<g id="a_edge4_Node000004_Node000005"><a xlink:title=" ">
<path fill="none" stroke="#63b8ff" d="M549.58,-76.99C559.53,-75.89 569.81,-74.74 579.85,-73.63"/>
<polygon fill="#63b8ff" stroke="#63b8ff" points="580.25,-77.1 589.8,-72.52 579.48,-70.15 580.25,-77.1"/>
</a>
</g>
</g>
<!-- Node6&#45;&gt;Node5 -->
<g id="edge6_Node000006_Node000005" class="edge">
<title>Node6&#45;&gt;Node5</title>
<g id="a_edge6_Node000006_Node000005"><a xlink:title=" ">
<path fill="none" stroke="#63b8ff" d="M554.02,-55.08C562.46,-55.97 571.08,-56.88 579.53,-57.77"/>
<polygon fill="#63b8ff" stroke="#63b8ff" points="579.43,-61.28 589.74,-58.84 580.16,-54.31 579.43,-61.28"/>
</a>
</g>
</g>
</g>
</svg>

<g id="navigator" transform="translate(0 0)" fill="#404254">
  <rect fill="#f2f5e9" fill-opacity="0.5" stroke="#606060" stroke-width=".5" x="0" y="0" width="60" height="60"/>
  <use id="zoomplus" xlink:href="#zoomPlus" x="17" y="9" onmousedown="handleZoom(evt,'in')"/>
  <use id="zoomminus" xlink:href="#zoomMin" x="42" y="9" onmousedown="handleZoom(evt,'out')"/>
  <use id="reset" xlink:href="#resetDef" x="30" y="36" onmousedown="handleReset()"/>
   <use id="arrowup" xlink:href="#arrowUp" x="0" y="0" onmousedown="handlePan(0,-1)"/>
  <use id="arrowright" xlink:href="#arrowRight" x="0" y="0" onmousedown="handlePan(1,0)"/>
  <use id="arrowdown" xlink:href="#arrowDown" x="0" y="0" onmousedown="handlePan(0,1)"/>
  <use id="arrowleft" xlink:href="#arrowLeft" x="0" y="0" onmousedown="handlePan(-1,0)"/>
</g>
<svg viewBox="0 0 15 15" width="100%" height="30px" preserveAspectRatio="xMaxYMin meet">
 <g id="arrow_out" transform="scale(0.3 0.3)">
  <a xlink:href="classConsoleRenderer_ae0a5ec8d9b0ab1252c3a8a9eae7bceaa_cgraph_org.svg" target="_base">
   <rect id="button" ry="5" rx="5" y="6" x="6" height="38" width="38"
        fill="#f2f5e9" fill-opacity="0.5" stroke="#606060" stroke-width="1.0"/>
   <path id="arrow"
     d="M 11.500037,31.436501 C 11.940474,20.09759 22.043105,11.32322 32.158766,21.979434 L 37.068811,17.246167 C 37.068811,17.246167 37.088388,32 37.088388,32 L 22.160133,31.978069 C 22.160133,31.978069 26.997745,27.140456 26.997745,27.140456 C 18.528582,18.264221 13.291696,25.230495 11.500037,31.436501 z"
     style="fill:#404040;"/>
  </a>
 </g>
</svg>

<style type='text/css'>
<![CDATA[
[data-mouse-over-selected='false'] { opacity: 0.7; }
[data-mouse-over-selected='true']  { opacity: 1.0; }
]]>
</style>
<script type="application/ecmascript"><![CDATA[
document.addEventListener('DOMContentLoaded', (event) => {
  highlightEdges();
  highlightAdjacentNodes();
});
]]></script>
</svg>
