<?xml version="1.0" encoding="UTF-8" standalone="no"?>
<!DOCTYPE svg PUBLIC "-//W3C//DTD SVG 1.1//EN"
 "http://www.w3.org/Graphics/SVG/1.1/DTD/svg11.dtd">
<!-- Generated by graphviz version 2.43.0 (0)
 -->
<!-- Title: PlatformUtils::sleep Pages: 1 -->
<svg width="1650pt" height="210pt"
 viewBox="0.00 0.00 1650.00 209.50" xmlns="http://www.w3.org/2000/svg" xmlns:xlink="http://www.w3.org/1999/xlink">
<g id="graph0" class="graph" transform="scale(1 1) rotate(0) translate(4 205.5)">
<title>PlatformUtils::sleep</title>
<!-- Node1 -->
<g id="Node000001" class="node">
<title>Node1</title>
<g id="a_Node000001"><a xlink:title="Pauses execution for specified milliseconds.">
<polygon fill="#999999" stroke="#666666" points="1642,-57 1529,-57 1529,-38 1642,-38 1642,-57"/>
<text text-anchor="middle" x="1585.5" y="-45" font-family="Helvetica,sans-Serif" font-size="10.00">PlatformUtils::sleep</text>
</a>
</g>
</g>
<!-- Node2 -->
<g id="Node000002" class="node">
<title>Node2</title>
<g id="a_Node000002"><a xlink:href="classGameController.html#a19dc0995b5ee51a87bf49dff90f4e991" target="_top" xlink:title="Handles terminal resize events.">
<polygon fill="white" stroke="#666666" points="1491,-99.5 1316,-99.5 1316,-69.5 1491,-69.5 1491,-99.5"/>
<text text-anchor="start" x="1324" y="-87.5" font-family="Helvetica,sans-Serif" font-size="10.00">GameController::handleTerminal</text>
<text text-anchor="middle" x="1403.5" y="-76.5" font-family="Helvetica,sans-Serif" font-size="10.00">Resize</text>
</a>
</g>
</g>
<!-- Node1&#45;&gt;Node2 -->
<g id="edge1_Node000001_Node000002" class="edge">
<title>Node1&#45;&gt;Node2</title>
<g id="a_edge1_Node000001_Node000002"><a xlink:title=" ">
<path fill="none" stroke="#63b8ff" d="M1527.92,-59.13C1511.96,-62.41 1494.37,-66.03 1477.59,-69.48"/>
<polygon fill="#63b8ff" stroke="#63b8ff" points="1529.06,-62.47 1538.15,-57.03 1527.65,-55.61 1529.06,-62.47"/>
</a>
</g>
</g>
<!-- Node12 -->
<g id="Node000012" class="node">
<title>Node12</title>
<g id="a_Node000012"><a xlink:href="classGameController.html#a47c26eedd973ec104d31a7c96b60d658" target="_top" xlink:title="Toggles between advanced and symbolic graphics modes.">
<polygon fill="white" stroke="#666666" points="1493,-38.5 1314,-38.5 1314,-8.5 1493,-8.5 1493,-38.5"/>
<text text-anchor="start" x="1322" y="-26.5" font-family="Helvetica,sans-Serif" font-size="10.00">GameController::toggleAdvanced</text>
<text text-anchor="middle" x="1403.5" y="-15.5" font-family="Helvetica,sans-Serif" font-size="10.00">Graphics</text>
</a>
</g>
</g>
<!-- Node1&#45;&gt;Node12 -->
<g id="edge21_Node000001_Node000012" class="edge">
<title>Node1&#45;&gt;Node12</title>
<g id="a_edge21_Node000001_Node000012"><a xlink:title=" ">
<path fill="none" stroke="#63b8ff" d="M1518.59,-38.71C1510.3,-37.61 1501.72,-36.46 1493.15,-35.32"/>
<polygon fill="#63b8ff" stroke="#63b8ff" points="1518.16,-42.19 1528.53,-40.04 1519.08,-35.25 1518.16,-42.19"/>
</a>
</g>
</g>
<!-- Node3 -->
<g id="Node000003" class="node">
<title>Node3</title>
<g id="a_Node000003"><a xlink:href="classGameController.html#a637ea4e72ed2be4a2884b30160b3e8ab" target="_top" xlink:title="Pauses the game and displays pause screen.">
<polygon fill="white" stroke="#666666" points="863,-125 705,-125 705,-106 863,-106 863,-125"/>
<text text-anchor="middle" x="784" y="-113" font-family="Helvetica,sans-Serif" font-size="10.00">GameController::pauseGame</text>
</a>
</g>
</g>
<!-- Node2&#45;&gt;Node3 -->
<g id="edge2_Node000002_Node000003" class="edge">
<title>Node2&#45;&gt;Node3</title>
<g id="a_edge2_Node000002_Node000003"><a xlink:title=" ">
<path fill="none" stroke="#63b8ff" d="M1305.89,-89.35C1183.73,-95.48 975.79,-105.92 863.12,-111.58"/>
<polygon fill="#63b8ff" stroke="#63b8ff" points="1306.18,-92.84 1315.99,-88.84 1305.83,-85.85 1306.18,-92.84"/>
</a>
</g>
</g>
<!-- Node5 -->
<g id="Node000005" class="node">
<title>Node5</title>
<g id="a_Node000005"><a xlink:href="classGameController.html#af2367e58f03d8a1441c9a574967fd360" target="_top" xlink:title="Processes a single game turn/update cycle.">
<polygon fill="white" stroke="#666666" points="445,-137 258,-137 258,-118 445,-118 445,-137"/>
<text text-anchor="middle" x="351.5" y="-125" font-family="Helvetica,sans-Serif" font-size="10.00">GameController::processGameTurn</text>
</a>
</g>
</g>
<!-- Node2&#45;&gt;Node5 -->
<g id="edge7_Node000002_Node000005" class="edge">
<title>Node2&#45;&gt;Node5</title>
<g id="a_edge7_Node000002_Node000005"><a xlink:title=" ">
<path fill="none" stroke="#63b8ff" d="M1361.13,-103.84C1286.1,-137.07 1121.86,-201.5 976,-201.5 976,-201.5 976,-201.5 783,-201.5 632.47,-201.5 456.55,-157.01 385.12,-137.02"/>
<polygon fill="#63b8ff" stroke="#63b8ff" points="1362.99,-106.84 1370.68,-99.56 1360.13,-100.45 1362.99,-106.84"/>
</a>
</g>
</g>
<!-- Node8 -->
<g id="Node000008" class="node">
<title>Node8</title>
<g id="a_Node000008"><a xlink:href="classGameController.html#a85bcf4ecfd197aad278e116215a3717b" target="_top" xlink:title="Displays level completion screen.">
<polygon fill="white" stroke="#666666" points="860,-173.5 708,-173.5 708,-143.5 860,-143.5 860,-173.5"/>
<text text-anchor="start" x="716" y="-161.5" font-family="Helvetica,sans-Serif" font-size="10.00">GameController::showLevel</text>
<text text-anchor="middle" x="784" y="-150.5" font-family="Helvetica,sans-Serif" font-size="10.00">CompleteScreen</text>
</a>
</g>
</g>
<!-- Node2&#45;&gt;Node8 -->
<g id="edge8_Node000002_Node000008" class="edge">
<title>Node2&#45;&gt;Node8</title>
<g id="a_edge8_Node000002_Node000008"><a xlink:title=" ">
<path fill="none" stroke="#63b8ff" d="M1327.22,-101.6C1311.04,-104.88 1294,-108.06 1278,-110.5 1130.72,-132.98 956.99,-147.02 860.07,-153.74"/>
<polygon fill="#63b8ff" stroke="#63b8ff" points="1328.08,-104.99 1337.16,-99.54 1326.66,-98.14 1328.08,-104.99"/>
</a>
</g>
</g>
<!-- Node9 -->
<g id="Node000009" class="node">
<title>Node9</title>
<g id="a_Node000009"><a xlink:href="classGameController.html#a4a9c94fe33cf6c73bb5dfc415d04d309" target="_top" xlink:title="Displays map selection screen.">
<polygon fill="white" stroke="#666666" points="1278,-56 1087,-56 1087,-37 1278,-37 1278,-56"/>
<text text-anchor="middle" x="1182.5" y="-44" font-family="Helvetica,sans-Serif" font-size="10.00">GameController::showMapSelection</text>
</a>
</g>
</g>
<!-- Node2&#45;&gt;Node9 -->
<g id="edge10_Node000002_Node000009" class="edge">
<title>Node2&#45;&gt;Node9</title>
<g id="a_edge10_Node000002_Node000009"><a xlink:title=" ">
<path fill="none" stroke="#63b8ff" d="M1306.05,-67.76C1282.83,-63.74 1258.81,-59.57 1238.26,-56"/>
<polygon fill="#63b8ff" stroke="#63b8ff" points="1305.49,-71.22 1315.95,-69.48 1306.69,-64.32 1305.49,-71.22"/>
</a>
</g>
</g>
<!-- Node10 -->
<g id="Node000010" class="node">
<title>Node10</title>
<g id="a_Node000010"><a xlink:href="classGameController.html#a9d11b5a6255b7249bddba49df0837cf3" target="_top" xlink:title="Displays and manages the main menu.">
<polygon fill="white" stroke="#666666" points="1051,-71 899,-71 899,-52 1051,-52 1051,-71"/>
<text text-anchor="middle" x="975" y="-59" font-family="Helvetica,sans-Serif" font-size="10.00">GameController::showMenu</text>
</a>
</g>
</g>
<!-- Node2&#45;&gt;Node10 -->
<g id="edge18_Node000002_Node000010" class="edge">
<title>Node2&#45;&gt;Node10</title>
<g id="a_edge18_Node000002_Node000010"><a xlink:title=" ">
<path fill="none" stroke="#63b8ff" d="M1305.72,-79.28C1228.5,-75.12 1121.88,-69.37 1051.03,-65.55"/>
<polygon fill="#63b8ff" stroke="#63b8ff" points="1305.76,-82.79 1315.93,-79.83 1306.14,-75.8 1305.76,-82.79"/>
</a>
</g>
</g>
<!-- Node11 -->
<g id="Node000011" class="node">
<title>Node11</title>
<g id="a_Node000011"><a xlink:href="classGameController.html#a24f5cae258418d4a5934e6f412c28945" target="_top" xlink:title="Displays and manages the settings menu.">
<polygon fill="white" stroke="#666666" points="1265,-19 1100,-19 1100,0 1265,0 1265,-19"/>
<text text-anchor="middle" x="1182.5" y="-7" font-family="Helvetica,sans-Serif" font-size="10.00">GameController::showSettings</text>
</a>
</g>
</g>
<!-- Node2&#45;&gt;Node11 -->
<g id="edge19_Node000002_Node000011" class="edge">
<title>Node2&#45;&gt;Node11</title>
<g id="a_edge19_Node000002_Node000011"><a xlink:title=" ">
<path fill="none" stroke="#63b8ff" d="M1354.35,-65.51C1341.14,-59.99 1326.9,-53.76 1314,-47.5 1297.53,-39.51 1295.21,-33.74 1278,-27.5 1268.66,-24.11 1258.55,-21.33 1248.54,-19.05"/>
<polygon fill="#63b8ff" stroke="#63b8ff" points="1353.17,-68.81 1363.75,-69.39 1355.84,-62.34 1353.17,-68.81"/>
</a>
</g>
</g>
<!-- Node4 -->
<g id="Node000004" class="node">
<title>Node4</title>
<g id="a_Node000004"><a xlink:href="classGameController.html#a971b3d8f6296a74f0bebc83b5e79c186" target="_top" xlink:title="Processes a user command.">
<polygon fill="white" stroke="#666666" points="669,-106 481,-106 481,-87 669,-87 669,-106"/>
<text text-anchor="middle" x="575" y="-94" font-family="Helvetica,sans-Serif" font-size="10.00">GameController::processCommand</text>
</a>
</g>
</g>
<!-- Node3&#45;&gt;Node4 -->
<g id="edge3_Node000003_Node000004" class="edge">
<title>Node3&#45;&gt;Node4</title>
<g id="a_edge3_Node000003_Node000004"><a xlink:title=" ">
<path fill="none" stroke="#63b8ff" d="M694.62,-107.39C686.25,-106.62 677.75,-105.84 669.34,-105.07"/>
<polygon fill="#63b8ff" stroke="#63b8ff" points="694.46,-110.89 704.74,-108.32 695.1,-103.92 694.46,-110.89"/>
</a>
</g>
</g>
<!-- Node4&#45;&gt;Node5 -->
<g id="edge4_Node000004_Node000005" class="edge">
<title>Node4&#45;&gt;Node5</title>
<g id="a_edge4_Node000004_Node000005"><a xlink:title=" ">
<path fill="none" stroke="#63b8ff" d="M496.03,-107.41C471.47,-110.85 444.54,-114.62 420.72,-117.95"/>
<polygon fill="#63b8ff" stroke="#63b8ff" points="496.62,-110.86 506.04,-106.01 495.65,-103.93 496.62,-110.86"/>
</a>
</g>
</g>
<!-- Node6 -->
<g id="Node000006" class="node">
<title>Node6</title>
<g id="a_Node000006"><a xlink:href="classGameController.html#ac958989c8f7f08488546930e5fcb0d82" target="_top" xlink:title="Starts and runs the main game loop.">
<polygon fill="white" stroke="#666666" points="222,-87 77,-87 77,-68 222,-68 222,-87"/>
<text text-anchor="middle" x="149.5" y="-75" font-family="Helvetica,sans-Serif" font-size="10.00">GameController::runGame</text>
</a>
</g>
</g>
<!-- Node5&#45;&gt;Node6 -->
<g id="edge5_Node000005_Node000006" class="edge">
<title>Node5&#45;&gt;Node6</title>
<g id="a_edge5_Node000005_Node000006"><a xlink:title=" ">
<path fill="none" stroke="#63b8ff" d="M302.46,-115.49C267.62,-106.78 221.13,-95.16 188.79,-87.07"/>
<polygon fill="#63b8ff" stroke="#63b8ff" points="301.86,-118.95 312.41,-117.98 303.56,-112.16 301.86,-118.95"/>
</a>
</g>
</g>
<!-- Node7 -->
<g id="Node000007" class="node">
<title>Node7</title>
<g id="a_Node000007"><a xlink:href="main_8cpp.html#ae66f6b31b5ad750f1fe042a706a4e3d4" target="_top" xlink:title="Main function that serves as the application entry point.">
<polygon fill="white" stroke="#666666" points="41,-87 0,-87 0,-68 41,-68 41,-87"/>
<text text-anchor="middle" x="20.5" y="-75" font-family="Helvetica,sans-Serif" font-size="10.00">main</text>
</a>
</g>
</g>
<!-- Node6&#45;&gt;Node7 -->
<g id="edge6_Node000006_Node000007" class="edge">
<title>Node6&#45;&gt;Node7</title>
<g id="a_edge6_Node000006_Node000007"><a xlink:title=" ">
<path fill="none" stroke="#63b8ff" d="M66.79,-77.5C57.31,-77.5 48.43,-77.5 41.08,-77.5"/>
<polygon fill="#63b8ff" stroke="#63b8ff" points="66.83,-81 76.83,-77.5 66.83,-74 66.83,-81"/>
</a>
</g>
</g>
<!-- Node8&#45;&gt;Node5 -->
<g id="edge9_Node000008_Node000005" class="edge">
<title>Node8&#45;&gt;Node5</title>
<g id="a_edge9_Node000008_Node000005"><a xlink:title=" ">
<path fill="none" stroke="#63b8ff" d="M697.45,-152.34C624.55,-147.09 520.01,-139.56 445.15,-134.17"/>
<polygon fill="#63b8ff" stroke="#63b8ff" points="697.29,-155.84 707.52,-153.06 697.8,-148.86 697.29,-155.84"/>
</a>
</g>
</g>
<!-- Node9&#45;&gt;Node4 -->
<g id="edge11_Node000009_Node000004" class="edge">
<title>Node9&#45;&gt;Node4</title>
<g id="a_edge11_Node000009_Node000004"><a xlink:title=" ">
<path fill="none" stroke="#63b8ff" d="M1076.56,-43C1067.91,-42.8 1059.31,-42.63 1051,-42.5 983.45,-41.47 966.41,-38 899,-42.5 812.2,-48.29 790.69,-53.48 705,-68.5 674.98,-73.76 641.33,-81.11 615.93,-86.96"/>
<polygon fill="#63b8ff" stroke="#63b8ff" points="1076.63,-46.51 1086.71,-43.25 1076.8,-39.51 1076.63,-46.51"/>
</a>
</g>
</g>
<!-- Node9&#45;&gt;Node10 -->
<g id="edge12_Node000009_Node000010" class="edge">
<title>Node9&#45;&gt;Node10</title>
<g id="a_edge12_Node000009_Node000010"><a xlink:title=" ">
<path fill="none" stroke="#63b8ff" d="M1076.48,-47.42C1058.82,-48.73 1041.26,-50.3 1025.86,-51.98"/>
<polygon fill="#63b8ff" stroke="#63b8ff" points="1077.14,-50.88 1086.87,-46.68 1076.65,-43.9 1077.14,-50.88"/>
</a>
</g>
</g>
<!-- Node10&#45;&gt;Node3 -->
<g id="edge13_Node000010_Node000003" class="edge">
<title>Node10&#45;&gt;Node3</title>
<g id="a_edge13_Node000010_Node000003"><a xlink:title=" ">
<path fill="none" stroke="#63b8ff" d="M930.93,-73.81C896.76,-83.57 849.68,-97.02 818.34,-105.97"/>
<polygon fill="#63b8ff" stroke="#63b8ff" points="931.99,-77.14 940.65,-71.03 930.07,-70.41 931.99,-77.14"/>
</a>
</g>
</g>
<!-- Node10&#45;&gt;Node4 -->
<g id="edge14_Node000010_Node000004" class="edge">
<title>Node10&#45;&gt;Node4</title>
<g id="a_edge14_Node000010_Node000004"><a xlink:title=" ">
<path fill="none" stroke="#63b8ff" d="M888.53,-69.02C824.02,-74.69 735.58,-82.47 669.25,-88.3"/>
<polygon fill="#63b8ff" stroke="#63b8ff" points="889.02,-72.49 898.67,-68.12 888.4,-65.51 889.02,-72.49"/>
</a>
</g>
</g>
<!-- Node10&#45;&gt;Node6 -->
<g id="edge15_Node000010_Node000006" class="edge">
<title>Node10&#45;&gt;Node6</title>
<g id="a_edge15_Node000010_Node000006"><a xlink:title=" ">
<path fill="none" stroke="#63b8ff" d="M888.28,-63.17C725.26,-66.33 373.37,-73.17 222.05,-76.11"/>
<polygon fill="#63b8ff" stroke="#63b8ff" points="888.81,-66.66 898.74,-62.96 888.67,-59.66 888.81,-66.66"/>
</a>
</g>
</g>
<!-- Node10&#45;&gt;Node8 -->
<g id="edge16_Node000010_Node000008" class="edge">
<title>Node10&#45;&gt;Node8</title>
<g id="a_edge16_Node000010_Node000008"><a xlink:title=" ">
<path fill="none" stroke="#63b8ff" d="M953.58,-77.13C932.02,-93.04 896.56,-117.58 863,-133.5 855.29,-137.16 846.91,-140.47 838.6,-143.4"/>
<polygon fill="#63b8ff" stroke="#63b8ff" points="955.75,-79.88 961.66,-71.08 951.56,-74.27 955.75,-79.88"/>
</a>
</g>
</g>
<!-- Node10&#45;&gt;Node9 -->
<g id="edge17_Node000010_Node000009" class="edge">
<title>Node10&#45;&gt;Node9</title>
<g id="a_edge17_Node000010_Node000009"><a xlink:title=" ">
<path fill="none" stroke="#63b8ff" d="M1061.53,-61.92C1085.45,-60.41 1110.65,-58.31 1131.75,-56.01"/>
<polygon fill="#63b8ff" stroke="#63b8ff" points="1061.14,-58.44 1051.37,-62.53 1061.56,-65.43 1061.14,-58.44"/>
</a>
</g>
</g>
<!-- Node11&#45;&gt;Node10 -->
<g id="edge20_Node000011_Node000010" class="edge">
<title>Node11&#45;&gt;Node10</title>
<g id="a_edge20_Node000011_Node000010"><a xlink:title=" ">
<path fill="none" stroke="#63b8ff" d="M1115.8,-21.06C1106.1,-23.04 1096.26,-25.21 1087,-27.5 1058.44,-34.57 1026.35,-44.64 1004.05,-51.98"/>
<polygon fill="#63b8ff" stroke="#63b8ff" points="1116.69,-24.45 1125.81,-19.06 1115.32,-17.58 1116.69,-24.45"/>
</a>
</g>
</g>
<!-- Node12&#45;&gt;Node11 -->
<g id="edge22_Node000012_Node000011" class="edge">
<title>Node12&#45;&gt;Node11</title>
<g id="a_edge22_Node000012_Node000011"><a xlink:title=" ">
<path fill="none" stroke="#63b8ff" d="M1303.54,-17.17C1290.76,-16.36 1277.78,-15.53 1265.32,-14.73"/>
<polygon fill="#63b8ff" stroke="#63b8ff" points="1303.54,-20.68 1313.74,-17.83 1303.98,-13.69 1303.54,-20.68"/>
</a>
</g>
</g>
</g>
</svg>
