<?xml version="1.0" encoding="UTF-8" standalone="no"?>
<!DOCTYPE svg PUBLIC "-//W3C//DTD SVG 1.1//EN"
 "http://www.w3.org/Graphics/SVG/1.1/DTD/svg11.dtd">
<!-- Generated by graphviz version 2.43.0 (0)
 -->
<!-- Title: PlayerTank::setLives Pages: 1 -->
<svg width="1885pt" height="220pt"
 viewBox="0.00 0.00 1885.00 220.47" xmlns="http://www.w3.org/2000/svg" xmlns:xlink="http://www.w3.org/1999/xlink">
<g id="graph0" class="graph" transform="scale(1 1) rotate(0) translate(4 216.47)">
<title>PlayerTank::setLives</title>
<!-- Node1 -->
<g id="Node000001" class="node">
<title>Node1</title>
<g id="a_Node000001"><a xlink:title="Sets number of player lives.">
<polygon fill="#999999" stroke="#666666" points="1877,-87.97 1761,-87.97 1761,-68.97 1877,-68.97 1877,-87.97"/>
<text text-anchor="middle" x="1819" y="-75.97" font-family="Helvetica,sans-Serif" font-size="10.00">PlayerTank::setLives</text>
</a>
</g>
</g>
<!-- Node2 -->
<g id="Node000002" class="node">
<title>Node2</title>
<g id="a_Node000002"><a xlink:href="classMapManager.html#ac1472dad9f9391e45fafadef9c30c1ab" target="_top" xlink:title="Creates game world from map layout.">
<polygon fill="white" stroke="#666666" points="1725,-125.97 1534,-125.97 1534,-106.97 1725,-106.97 1725,-125.97"/>
<text text-anchor="middle" x="1629.5" y="-113.97" font-family="Helvetica,sans-Serif" font-size="10.00">MapManager::createWorldFromMap</text>
</a>
</g>
</g>
<!-- Node1&#45;&gt;Node2 -->
<g id="edge1_Node000001_Node000002" class="edge">
<title>Node1&#45;&gt;Node2</title>
<g id="a_edge1_Node000001_Node000002"><a xlink:title=" ">
<path fill="none" stroke="#63b8ff" d="M1760.72,-90.08C1734.05,-95.48 1702.72,-101.83 1677.47,-106.95"/>
<polygon fill="#63b8ff" stroke="#63b8ff" points="1761.58,-93.47 1770.69,-88.06 1760.19,-86.61 1761.58,-93.47"/>
</a>
</g>
</g>
<!-- Node3 -->
<g id="Node000003" class="node">
<title>Node3</title>
<g id="a_Node000003"><a xlink:href="classGameController.html#a09c76a5ae9b8f514163dafe31273f44f" target="_top" xlink:title="Loads the currently selected map.">
<polygon fill="white" stroke="#666666" points="1498,-115.97 1314,-115.97 1314,-96.97 1498,-96.97 1498,-115.97"/>
<text text-anchor="middle" x="1406" y="-103.97" font-family="Helvetica,sans-Serif" font-size="10.00">GameController::loadSelectedMap</text>
</a>
</g>
</g>
<!-- Node1&#45;&gt;Node3 -->
<g id="edge18_Node000001_Node000003" class="edge">
<title>Node1&#45;&gt;Node3</title>
<g id="a_edge18_Node000001_Node000003"><a xlink:title=" ">
<path fill="none" stroke="#63b8ff" d="M1750.82,-82.89C1693.27,-86.69 1608.18,-92.36 1534,-97.47 1522.42,-98.27 1510.25,-99.11 1498.22,-99.96"/>
<polygon fill="#63b8ff" stroke="#63b8ff" points="1751.13,-86.37 1760.88,-82.22 1750.67,-79.39 1751.13,-86.37"/>
</a>
</g>
</g>
<!-- Node10 -->
<g id="Node000010" class="node">
<title>Node10</title>
<g id="a_Node000010"><a xlink:href="classGameController.html#a971b3d8f6296a74f0bebc83b5e79c186" target="_top" xlink:title="Processes a user command.">
<polygon fill="white" stroke="#666666" points="669,-87.97 481,-87.97 481,-68.97 669,-68.97 669,-87.97"/>
<text text-anchor="middle" x="575" y="-75.97" font-family="Helvetica,sans-Serif" font-size="10.00">GameController::processCommand</text>
</a>
</g>
</g>
<!-- Node1&#45;&gt;Node10 -->
<g id="edge20_Node000001_Node000010" class="edge">
<title>Node1&#45;&gt;Node10</title>
<g id="a_edge20_Node000001_Node000010"><a xlink:title=" ">
<path fill="none" stroke="#63b8ff" d="M1788.07,-64.73C1770.13,-57.05 1746.67,-47.94 1725,-42.47 1586.88,-7.61 1549.45,-2.47 1407,-2.47 1407,-2.47 1407,-2.47 974,-2.47 854.15,-2.47 821.32,7.4 705,-21.47 662.46,-32.03 616.34,-55.69 592.45,-68.97"/>
<polygon fill="#63b8ff" stroke="#63b8ff" points="1786.86,-68.02 1797.42,-68.82 1789.66,-61.61 1786.86,-68.02"/>
</a>
</g>
</g>
<!-- Node11 -->
<g id="Node000011" class="node">
<title>Node11</title>
<g id="a_Node000011"><a xlink:href="classGameController.html#a9d11b5a6255b7249bddba49df0837cf3" target="_top" xlink:title="Displays and manages the main menu.">
<polygon fill="white" stroke="#666666" points="1051,-125.97 899,-125.97 899,-106.97 1051,-106.97 1051,-125.97"/>
<text text-anchor="middle" x="975" y="-113.97" font-family="Helvetica,sans-Serif" font-size="10.00">GameController::showMenu</text>
</a>
</g>
</g>
<!-- Node1&#45;&gt;Node11 -->
<g id="edge21_Node000001_Node000011" class="edge">
<title>Node1&#45;&gt;Node11</title>
<g id="a_edge21_Node000001_Node000011"><a xlink:title=" ">
<path fill="none" stroke="#63b8ff" d="M1799.08,-94.45C1781.27,-108.36 1753.19,-127.52 1725,-135.47 1464.6,-208.92 1132.89,-150.47 1017.66,-125.97"/>
<polygon fill="#63b8ff" stroke="#63b8ff" points="1801.36,-97.11 1806.95,-88.11 1796.97,-91.65 1801.36,-97.11"/>
</a>
</g>
</g>
<!-- Node12 -->
<g id="Node000012" class="node">
<title>Node12</title>
<g id="a_Node000012"><a xlink:href="classGameController.html#a637ea4e72ed2be4a2884b30160b3e8ab" target="_top" xlink:title="Pauses the game and displays pause screen.">
<polygon fill="white" stroke="#666666" points="863,-49.97 705,-49.97 705,-30.97 863,-30.97 863,-49.97"/>
<text text-anchor="middle" x="784" y="-37.97" font-family="Helvetica,sans-Serif" font-size="10.00">GameController::pauseGame</text>
</a>
</g>
</g>
<!-- Node1&#45;&gt;Node12 -->
<g id="edge19_Node000001_Node000012" class="edge">
<title>Node1&#45;&gt;Node12</title>
<g id="a_edge19_Node000001_Node000012"><a xlink:title=" ">
<path fill="none" stroke="#63b8ff" d="M1750.89,-68.43C1669.66,-57.17 1528.63,-40.47 1407,-40.47 1407,-40.47 1407,-40.47 1181.5,-40.47 1071.02,-40.47 943.22,-40.47 863.24,-40.47"/>
<polygon fill="#63b8ff" stroke="#63b8ff" points="1750.58,-71.92 1760.97,-69.85 1751.56,-64.99 1750.58,-71.92"/>
</a>
</g>
</g>
<!-- Node2&#45;&gt;Node3 -->
<g id="edge2_Node000002_Node000003" class="edge">
<title>Node2&#45;&gt;Node3</title>
<g id="a_edge2_Node000002_Node000003"><a xlink:title=" ">
<path fill="none" stroke="#63b8ff" d="M1523.85,-111.74C1515.25,-111.36 1506.59,-110.96 1498.1,-110.58"/>
<polygon fill="#63b8ff" stroke="#63b8ff" points="1523.77,-115.24 1533.92,-112.2 1524.09,-108.25 1523.77,-115.24"/>
</a>
</g>
</g>
<!-- Node4 -->
<g id="Node000004" class="node">
<title>Node4</title>
<g id="a_Node000004"><a xlink:href="classGameController.html#a4086fc466d91f45c41b2bc5df06af77a" target="_top" xlink:title="Loads the next game level.">
<polygon fill="white" stroke="#666666" points="1047,-193.47 903,-193.47 903,-163.47 1047,-163.47 1047,-193.47"/>
<text text-anchor="start" x="911" y="-181.47" font-family="Helvetica,sans-Serif" font-size="10.00">GameController::loadNext</text>
<text text-anchor="middle" x="975" y="-170.47" font-family="Helvetica,sans-Serif" font-size="10.00">Level</text>
</a>
</g>
</g>
<!-- Node3&#45;&gt;Node4 -->
<g id="edge3_Node000003_Node000004" class="edge">
<title>Node3&#45;&gt;Node4</title>
<g id="a_edge3_Node000003_Node000004"><a xlink:title=" ">
<path fill="none" stroke="#63b8ff" d="M1337.7,-117.76C1258.59,-131.04 1127.87,-152.98 1047.14,-166.53"/>
<polygon fill="#63b8ff" stroke="#63b8ff" points="1338.75,-121.14 1348.03,-116.03 1337.59,-114.23 1338.75,-121.14"/>
</a>
</g>
</g>
<!-- Node9 -->
<g id="Node000009" class="node">
<title>Node9</title>
<g id="a_Node000009"><a xlink:href="classGameController.html#a4a9c94fe33cf6c73bb5dfc415d04d309" target="_top" xlink:title="Displays map selection screen.">
<polygon fill="white" stroke="#666666" points="1278,-106.97 1087,-106.97 1087,-87.97 1278,-87.97 1278,-106.97"/>
<text text-anchor="middle" x="1182.5" y="-94.97" font-family="Helvetica,sans-Serif" font-size="10.00">GameController::showMapSelection</text>
</a>
</g>
</g>
<!-- Node3&#45;&gt;Node9 -->
<g id="edge8_Node000003_Node000009" class="edge">
<title>Node3&#45;&gt;Node9</title>
<g id="a_edge8_Node000003_Node000009"><a xlink:title=" ">
<path fill="none" stroke="#63b8ff" d="M1303.92,-102.36C1295.34,-102.01 1286.68,-101.66 1278.14,-101.31"/>
<polygon fill="#63b8ff" stroke="#63b8ff" points="1303.81,-105.86 1313.95,-102.77 1304.1,-98.87 1303.81,-105.86"/>
</a>
</g>
</g>
<!-- Node5 -->
<g id="Node000005" class="node">
<title>Node5</title>
<g id="a_Node000005"><a xlink:href="classGameController.html#a85bcf4ecfd197aad278e116215a3717b" target="_top" xlink:title="Displays level completion screen.">
<polygon fill="white" stroke="#666666" points="860,-212.47 708,-212.47 708,-182.47 860,-182.47 860,-212.47"/>
<text text-anchor="start" x="716" y="-200.47" font-family="Helvetica,sans-Serif" font-size="10.00">GameController::showLevel</text>
<text text-anchor="middle" x="784" y="-189.47" font-family="Helvetica,sans-Serif" font-size="10.00">CompleteScreen</text>
</a>
</g>
</g>
<!-- Node4&#45;&gt;Node5 -->
<g id="edge4_Node000004_Node000005" class="edge">
<title>Node4&#45;&gt;Node5</title>
<g id="a_edge4_Node000004_Node000005"><a xlink:title=" ">
<path fill="none" stroke="#63b8ff" d="M892.6,-186.65C881.84,-187.73 870.86,-188.84 860.22,-189.91"/>
<polygon fill="#63b8ff" stroke="#63b8ff" points="893.22,-190.11 902.82,-185.62 892.52,-183.14 893.22,-190.11"/>
</a>
</g>
</g>
<!-- Node6 -->
<g id="Node000006" class="node">
<title>Node6</title>
<g id="a_Node000006"><a xlink:href="classGameController.html#af2367e58f03d8a1441c9a574967fd360" target="_top" xlink:title="Processes a single game turn/update cycle.">
<polygon fill="white" stroke="#666666" points="445,-201.97 258,-201.97 258,-182.97 445,-182.97 445,-201.97"/>
<text text-anchor="middle" x="351.5" y="-189.97" font-family="Helvetica,sans-Serif" font-size="10.00">GameController::processGameTurn</text>
</a>
</g>
</g>
<!-- Node5&#45;&gt;Node6 -->
<g id="edge5_Node000005_Node000006" class="edge">
<title>Node5&#45;&gt;Node6</title>
<g id="a_edge5_Node000005_Node000006"><a xlink:title=" ">
<path fill="none" stroke="#63b8ff" d="M697.45,-196.47C624.55,-195.63 520.01,-194.41 445.15,-193.54"/>
<polygon fill="#63b8ff" stroke="#63b8ff" points="697.48,-199.97 707.52,-196.59 697.56,-192.98 697.48,-199.97"/>
</a>
</g>
</g>
<!-- Node7 -->
<g id="Node000007" class="node">
<title>Node7</title>
<g id="a_Node000007"><a xlink:href="classGameController.html#ac958989c8f7f08488546930e5fcb0d82" target="_top" xlink:title="Starts and runs the main game loop.">
<polygon fill="white" stroke="#666666" points="222,-182.97 77,-182.97 77,-163.97 222,-163.97 222,-182.97"/>
<text text-anchor="middle" x="149.5" y="-170.97" font-family="Helvetica,sans-Serif" font-size="10.00">GameController::runGame</text>
</a>
</g>
</g>
<!-- Node6&#45;&gt;Node7 -->
<g id="edge6_Node000006_Node000007" class="edge">
<title>Node6&#45;&gt;Node7</title>
<g id="a_edge6_Node000006_Node000007"><a xlink:title=" ">
<path fill="none" stroke="#63b8ff" d="M247.71,-182.7C239.1,-181.89 230.52,-181.07 222.22,-180.28"/>
<polygon fill="#63b8ff" stroke="#63b8ff" points="247.53,-186.2 257.82,-183.66 248.19,-179.23 247.53,-186.2"/>
</a>
</g>
</g>
<!-- Node8 -->
<g id="Node000008" class="node">
<title>Node8</title>
<g id="a_Node000008"><a xlink:href="main_8cpp.html#ae66f6b31b5ad750f1fe042a706a4e3d4" target="_top" xlink:title="Main function that serves as the application entry point.">
<polygon fill="white" stroke="#666666" points="41,-182.97 0,-182.97 0,-163.97 41,-163.97 41,-182.97"/>
<text text-anchor="middle" x="20.5" y="-170.97" font-family="Helvetica,sans-Serif" font-size="10.00">main</text>
</a>
</g>
</g>
<!-- Node7&#45;&gt;Node8 -->
<g id="edge7_Node000007_Node000008" class="edge">
<title>Node7&#45;&gt;Node8</title>
<g id="a_edge7_Node000007_Node000008"><a xlink:title=" ">
<path fill="none" stroke="#63b8ff" d="M66.79,-173.47C57.31,-173.47 48.43,-173.47 41.08,-173.47"/>
<polygon fill="#63b8ff" stroke="#63b8ff" points="66.83,-176.97 76.83,-173.47 66.83,-169.97 66.83,-176.97"/>
</a>
</g>
</g>
<!-- Node9&#45;&gt;Node10 -->
<g id="edge9_Node000009_Node000010" class="edge">
<title>Node9&#45;&gt;Node10</title>
<g id="a_edge9_Node000009_Node000010"><a xlink:title=" ">
<path fill="none" stroke="#63b8ff" d="M1076.69,-94.18C961.9,-90.58 779.52,-84.85 669.45,-81.4"/>
<polygon fill="#63b8ff" stroke="#63b8ff" points="1076.79,-97.68 1086.89,-94.5 1077.01,-90.69 1076.79,-97.68"/>
</a>
</g>
</g>
<!-- Node9&#45;&gt;Node11 -->
<g id="edge11_Node000009_Node000011" class="edge">
<title>Node9&#45;&gt;Node11</title>
<g id="a_edge11_Node000009_Node000011"><a xlink:title=" ">
<path fill="none" stroke="#63b8ff" d="M1076.76,-100.4C1056.16,-102.33 1035.66,-104.61 1018.59,-106.94"/>
<polygon fill="#63b8ff" stroke="#63b8ff" points="1077.23,-103.88 1086.87,-99.49 1076.59,-96.9 1077.23,-103.88"/>
</a>
</g>
</g>
<!-- Node10&#45;&gt;Node6 -->
<g id="edge10_Node000010_Node000006" class="edge">
<title>Node10&#45;&gt;Node6</title>
<g id="a_edge10_Node000010_Node000006"><a xlink:title=" ">
<path fill="none" stroke="#63b8ff" d="M546.44,-92.65C500.66,-116.21 410.12,-162.81 371.11,-182.89"/>
<polygon fill="#63b8ff" stroke="#63b8ff" points="548.21,-95.68 555.5,-87.99 545,-89.46 548.21,-95.68"/>
</a>
</g>
</g>
<!-- Node11&#45;&gt;Node5 -->
<g id="edge16_Node000011_Node000005" class="edge">
<title>Node11&#45;&gt;Node5</title>
<g id="a_edge16_Node000011_Node000005"><a xlink:title=" ">
<path fill="none" stroke="#63b8ff" d="M945.76,-130.48C923.5,-141.34 891.55,-156.5 863,-168.47 851.54,-173.27 838.98,-178.12 827.35,-182.44"/>
<polygon fill="#63b8ff" stroke="#63b8ff" points="947.53,-133.51 954.96,-125.97 944.44,-127.23 947.53,-133.51"/>
</a>
</g>
</g>
<!-- Node11&#45;&gt;Node7 -->
<g id="edge15_Node000011_Node000007" class="edge">
<title>Node11&#45;&gt;Node7</title>
<g id="a_edge15_Node000011_Node000007"><a xlink:title=" ">
<path fill="none" stroke="#63b8ff" d="M888.28,-122.4C725.26,-133.69 373.37,-158.04 222.05,-168.52"/>
<polygon fill="#63b8ff" stroke="#63b8ff" points="889,-125.86 898.74,-121.68 888.52,-118.88 889,-125.86"/>
</a>
</g>
</g>
<!-- Node11&#45;&gt;Node9 -->
<g id="edge17_Node000011_Node000009" class="edge">
<title>Node11&#45;&gt;Node9</title>
<g id="a_edge17_Node000011_Node000009"><a xlink:title=" ">
<path fill="none" stroke="#63b8ff" d="M1061.49,-115.23C1088.2,-113.03 1116.51,-110.05 1138.92,-107"/>
<polygon fill="#63b8ff" stroke="#63b8ff" points="1061.04,-111.75 1051.35,-116.03 1061.59,-118.73 1061.04,-111.75"/>
</a>
</g>
</g>
<!-- Node11&#45;&gt;Node10 -->
<g id="edge14_Node000011_Node000010" class="edge">
<title>Node11&#45;&gt;Node10</title>
<g id="a_edge14_Node000011_Node000010"><a xlink:title=" ">
<path fill="none" stroke="#63b8ff" d="M888.86,-109.29C835.93,-104.73 766.48,-98.55 705,-92.47 690.99,-91.08 676.13,-89.54 661.67,-88"/>
<polygon fill="#63b8ff" stroke="#63b8ff" points="888.62,-112.78 898.88,-110.15 889.22,-105.81 888.62,-112.78"/>
</a>
</g>
</g>
<!-- Node11&#45;&gt;Node12 -->
<g id="edge12_Node000011_Node000012" class="edge">
<title>Node11&#45;&gt;Node12</title>
<g id="a_edge12_Node000011_Node000012"><a xlink:title=" ">
<path fill="none" stroke="#63b8ff" d="M940.5,-103C902.65,-87.78 842.01,-63.39 808.74,-50.02"/>
<polygon fill="#63b8ff" stroke="#63b8ff" points="939.48,-106.36 950.06,-106.84 942.09,-99.86 939.48,-106.36"/>
</a>
</g>
</g>
<!-- Node12&#45;&gt;Node10 -->
<g id="edge13_Node000012_Node000010" class="edge">
<title>Node12&#45;&gt;Node10</title>
<g id="a_edge13_Node000012_Node000010"><a xlink:title=" ">
<path fill="none" stroke="#63b8ff" d="M721.19,-51.82C691.49,-57.27 656.29,-63.73 627.99,-68.92"/>
<polygon fill="#63b8ff" stroke="#63b8ff" points="721.83,-55.26 731.03,-50.01 720.56,-48.37 721.83,-55.26"/>
</a>
</g>
</g>
</g>
</svg>
