<?xml version="1.0" encoding="UTF-8" standalone="no"?>
<!DOCTYPE svg PUBLIC "-//W3C//DTD SVG 1.1//EN"
 "http://www.w3.org/Graphics/SVG/1.1/DTD/svg11.dtd">
<!-- Generated by graphviz version 2.43.0 (0)
 -->
<!-- Title: GameController Pages: 1 -->
<svg width="702pt" height="337pt"
 viewBox="0.00 0.00 701.50 337.00" xmlns="http://www.w3.org/2000/svg" xmlns:xlink="http://www.w3.org/1999/xlink">
<g id="graph0" class="graph" transform="scale(1 1) rotate(0) translate(4 333)">
<title>GameController</title>
<!-- Node1 -->
<g id="Node000001" class="node">
<title>Node1</title>
<g id="a_Node000001"><a xlink:title="Main game controller class that manages the game flow and logic.">
<polygon fill="#999999" stroke="#666666" points="399.5,-19 305.5,-19 305.5,0 399.5,0 399.5,-19"/>
<text text-anchor="middle" x="352.5" y="-7" font-family="Helvetica,sans-Serif" font-size="10.00">GameController</text>
</a>
</g>
</g>
<!-- Node2 -->
<g id="Node000002" class="node">
<title>Node2</title>
<g id="a_Node000002"><a xlink:href="classGameWorld.html" target="_top" xlink:title="Main game world class managing all game objects and logic.">
<polygon fill="white" stroke="#666666" points="75.5,-85 1.5,-85 1.5,-66 75.5,-66 75.5,-85"/>
<text text-anchor="middle" x="38.5" y="-73" font-family="Helvetica,sans-Serif" font-size="10.00">GameWorld</text>
</a>
</g>
</g>
<!-- Node2&#45;&gt;Node1 -->
<g id="edge1_Node000001_Node000002" class="edge">
<title>Node2&#45;&gt;Node1</title>
<g id="a_edge1_Node000001_Node000002"><a xlink:title=" ">
<path fill="none" stroke="#9a32cd" stroke-dasharray="5,2" d="M74.1,-63C100.49,-54.82 137.45,-44.07 170.5,-37 215.93,-27.28 268.51,-20.05 305.44,-15.62"/>
<polygon fill="#9a32cd" stroke="#9a32cd" points="73.04,-59.67 64.54,-66 75.13,-66.35 73.04,-59.67"/>
</a>
</g>
<text text-anchor="middle" x="187.5" y="-40" font-family="Helvetica,sans-Serif" font-size="10.00" fill="grey"> model</text>
</g>
<!-- Node3 -->
<g id="Node000003" class="node">
<title>Node3</title>
<g id="a_Node000003"><a xlink:href="classPlayerTank.html" target="_top" xlink:title="Class representing the player&#45;controlled tank.">
<polygon fill="white" stroke="#666666" points="73.5,-151 3.5,-151 3.5,-132 73.5,-132 73.5,-151"/>
<text text-anchor="middle" x="38.5" y="-139" font-family="Helvetica,sans-Serif" font-size="10.00">PlayerTank</text>
</a>
</g>
</g>
<!-- Node3&#45;&gt;Node2 -->
<g id="edge2_Node000002_Node000003" class="edge">
<title>Node3&#45;&gt;Node2</title>
<g id="a_edge2_Node000002_Node000003"><a xlink:title=" ">
<path fill="none" stroke="#9a32cd" stroke-dasharray="5,2" d="M38.5,-121.58C38.5,-109.63 38.5,-94.72 38.5,-85.41"/>
<polygon fill="#9a32cd" stroke="#9a32cd" points="35,-121.87 38.5,-131.87 42,-121.87 35,-121.87"/>
</a>
</g>
<text text-anchor="middle" x="55.5" y="-106" font-family="Helvetica,sans-Serif" font-size="10.00" fill="grey"> player</text>
</g>
<!-- Node4 -->
<g id="Node000004" class="node">
<title>Node4</title>
<g id="a_Node000004"><a xlink:href="classTank.html" target="_top" xlink:title="Abstract base class for all tank entities.">
<polygon fill="white" stroke="#666666" points="58,-207 19,-207 19,-188 58,-188 58,-207"/>
<text text-anchor="middle" x="38.5" y="-195" font-family="Helvetica,sans-Serif" font-size="10.00">Tank</text>
</a>
</g>
</g>
<!-- Node4&#45;&gt;Node3 -->
<g id="edge3_Node000003_Node000004" class="edge">
<title>Node4&#45;&gt;Node3</title>
<g id="a_edge3_Node000003_Node000004"><a xlink:title=" ">
<path fill="none" stroke="#63b8ff" d="M38.5,-177.3C38.5,-168.41 38.5,-158.28 38.5,-151.25"/>
<polygon fill="#63b8ff" stroke="#63b8ff" points="35,-177.58 38.5,-187.58 42,-177.58 35,-177.58"/>
</a>
</g>
</g>
<!-- Node5 -->
<g id="Node000005" class="node">
<title>Node5</title>
<g id="a_Node000005"><a xlink:href="classGameObject.html" target="_top" xlink:title="Abstract base class for all game objects.">
<polygon fill="white" stroke="#666666" points="77,-263 0,-263 0,-244 77,-244 77,-263"/>
<text text-anchor="middle" x="38.5" y="-251" font-family="Helvetica,sans-Serif" font-size="10.00">GameObject</text>
</a>
</g>
</g>
<!-- Node5&#45;&gt;Node4 -->
<g id="edge4_Node000004_Node000005" class="edge">
<title>Node5&#45;&gt;Node4</title>
<g id="a_edge4_Node000004_Node000005"><a xlink:title=" ">
<path fill="none" stroke="#63b8ff" d="M38.5,-233.3C38.5,-224.41 38.5,-214.28 38.5,-207.25"/>
<polygon fill="#63b8ff" stroke="#63b8ff" points="35,-233.58 38.5,-243.58 42,-233.58 35,-233.58"/>
</a>
</g>
</g>
<!-- Node6 -->
<g id="Node000006" class="node">
<title>Node6</title>
<g id="a_Node000006"><a xlink:href="structPoint.html" target="_top" xlink:title="Structure representing a 2D point with integer coordinates.">
<polygon fill="white" stroke="#666666" points="59,-329 18,-329 18,-310 59,-310 59,-329"/>
<text text-anchor="middle" x="38.5" y="-317" font-family="Helvetica,sans-Serif" font-size="10.00">Point</text>
</a>
</g>
</g>
<!-- Node6&#45;&gt;Node5 -->
<g id="edge5_Node000005_Node000006" class="edge">
<title>Node6&#45;&gt;Node5</title>
<g id="a_edge5_Node000005_Node000006"><a xlink:title=" ">
<path fill="none" stroke="#9a32cd" stroke-dasharray="5,2" d="M38.5,-299.58C38.5,-287.63 38.5,-272.72 38.5,-263.41"/>
<polygon fill="#9a32cd" stroke="#9a32cd" points="35,-299.87 38.5,-309.87 42,-299.87 35,-299.87"/>
</a>
</g>
<text text-anchor="middle" x="60" y="-284" font-family="Helvetica,sans-Serif" font-size="10.00" fill="grey"> position</text>
</g>
<!-- Node7 -->
<g id="Node000007" class="node">
<title>Node7</title>
<g id="a_Node000007"><a xlink:href="classConsoleRenderer.html" target="_top" xlink:title="Class responsible for console&#45;based rendering of the game.">
<polygon fill="white" stroke="#666666" points="193.5,-85 93.5,-85 93.5,-66 193.5,-66 193.5,-85"/>
<text text-anchor="middle" x="143.5" y="-73" font-family="Helvetica,sans-Serif" font-size="10.00">ConsoleRenderer</text>
</a>
</g>
</g>
<!-- Node7&#45;&gt;Node1 -->
<g id="edge6_Node000001_Node000007" class="edge">
<title>Node7&#45;&gt;Node1</title>
<g id="a_edge6_Node000001_Node000007"><a xlink:title=" ">
<path fill="none" stroke="#9a32cd" stroke-dasharray="5,2" d="M172.24,-61.87C190.88,-54 215.83,-44.07 238.5,-37 261.49,-29.83 287.62,-23.62 309.06,-19.02"/>
<polygon fill="#9a32cd" stroke="#9a32cd" points="170.67,-58.74 162.85,-65.89 173.42,-65.17 170.67,-58.74"/>
</a>
</g>
<text text-anchor="middle" x="252" y="-40" font-family="Helvetica,sans-Serif" font-size="10.00" fill="grey"> view</text>
</g>
<!-- Node8 -->
<g id="Node000008" class="node">
<title>Node8</title>
<g id="a_Node000008"><a xlink:href="classInputHandler.html" target="_top" xlink:title="Class for handling user input and mapping it to game commands.">
<polygon fill="white" stroke="#666666" points="291.5,-85 211.5,-85 211.5,-66 291.5,-66 291.5,-85"/>
<text text-anchor="middle" x="251.5" y="-73" font-family="Helvetica,sans-Serif" font-size="10.00">InputHandler</text>
</a>
</g>
</g>
<!-- Node8&#45;&gt;Node1 -->
<g id="edge7_Node000001_Node000008" class="edge">
<title>Node8&#45;&gt;Node1</title>
<g id="a_edge7_Node000001_Node000008"><a xlink:title=" ">
<path fill="none" stroke="#9a32cd" stroke-dasharray="5,2" d="M262.05,-57.55C267.19,-50.41 273.9,-42.5 281.5,-37 292.48,-29.05 306.11,-23.21 318.49,-19.07"/>
<polygon fill="#9a32cd" stroke="#9a32cd" points="259.09,-55.68 256.43,-65.94 264.91,-59.57 259.09,-55.68"/>
</a>
</g>
<text text-anchor="middle" x="315" y="-40" font-family="Helvetica,sans-Serif" font-size="10.00" fill="grey"> inputHandler</text>
</g>
<!-- Node9 -->
<g id="Node000009" class="node">
<title>Node9</title>
<g id="a_Node000009"><a xlink:href="classScoreManager.html" target="_top" xlink:title="Class for managing high scores and player achievements.">
<polygon fill="white" stroke="#666666" points="395.5,-85 309.5,-85 309.5,-66 395.5,-66 395.5,-85"/>
<text text-anchor="middle" x="352.5" y="-73" font-family="Helvetica,sans-Serif" font-size="10.00">ScoreManager</text>
</a>
</g>
</g>
<!-- Node9&#45;&gt;Node1 -->
<g id="edge8_Node000001_Node000009" class="edge">
<title>Node9&#45;&gt;Node1</title>
<g id="a_edge8_Node000001_Node000009"><a xlink:title=" ">
<path fill="none" stroke="#9a32cd" stroke-dasharray="5,2" d="M352.5,-55.58C352.5,-43.63 352.5,-28.72 352.5,-19.41"/>
<polygon fill="#9a32cd" stroke="#9a32cd" points="349,-55.87 352.5,-65.87 356,-55.87 349,-55.87"/>
</a>
</g>
<text text-anchor="middle" x="389" y="-40" font-family="Helvetica,sans-Serif" font-size="10.00" fill="grey"> scoreManager</text>
</g>
<!-- Node10 -->
<g id="Node000010" class="node">
<title>Node10</title>
<g id="a_Node000010"><a xlink:href="classMapManager.html" target="_top" xlink:title="Class for managing game maps and level generation.">
<polygon fill="white" stroke="#666666" points="493.5,-85 413.5,-85 413.5,-66 493.5,-66 493.5,-85"/>
<text text-anchor="middle" x="453.5" y="-73" font-family="Helvetica,sans-Serif" font-size="10.00">MapManager</text>
</a>
</g>
</g>
<!-- Node10&#45;&gt;Node1 -->
<g id="edge9_Node000001_Node000010" class="edge">
<title>Node10&#45;&gt;Node1</title>
<g id="a_edge9_Node000001_Node000010"><a xlink:title=" ">
<path fill="none" stroke="#9a32cd" stroke-dasharray="5,2" d="M444.05,-57C439.53,-49.98 433.55,-42.31 426.5,-37 415.71,-28.87 402.19,-23.07 389.68,-19.01"/>
<polygon fill="#9a32cd" stroke="#9a32cd" points="441.19,-59.05 449.28,-65.89 447.23,-55.5 441.19,-59.05"/>
</a>
</g>
<text text-anchor="middle" x="470.5" y="-40" font-family="Helvetica,sans-Serif" font-size="10.00" fill="grey"> mapManager</text>
</g>
<!-- Node11 -->
<g id="Node000011" class="node">
<title>Node11</title>
<g id="a_Node000011"><a xlink:href="structMapInfo.html" target="_top" xlink:title="Structure containing map information and layout.">
<polygon fill="white" stroke="#666666" points="567.5,-85 511.5,-85 511.5,-66 567.5,-66 567.5,-85"/>
<text text-anchor="middle" x="539.5" y="-73" font-family="Helvetica,sans-Serif" font-size="10.00">MapInfo</text>
</a>
</g>
</g>
<!-- Node11&#45;&gt;Node1 -->
<g id="edge10_Node000001_Node000011" class="edge">
<title>Node11&#45;&gt;Node1</title>
<g id="a_edge10_Node000001_Node000011"><a xlink:title=" ">
<path fill="none" stroke="#9a32cd" stroke-dasharray="5,2" d="M529.15,-57.12C523.88,-49.77 516.83,-41.82 508.5,-37 475.44,-17.89 432.29,-11.72 399.75,-10.07"/>
<polygon fill="#9a32cd" stroke="#9a32cd" points="526.43,-59.35 534.82,-65.82 532.29,-55.53 526.43,-59.35"/>
</a>
</g>
<text text-anchor="middle" x="554.5" y="-40" font-family="Helvetica,sans-Serif" font-size="10.00" fill="grey"> selectedMap</text>
</g>
<!-- Node12 -->
<g id="Node000012" class="node">
<title>Node12</title>
<g id="a_Node000012"><a xlink:href="classSettingsManager.html" target="_top" xlink:title="Class for managing game settings and configuration.">
<polygon fill="white" stroke="#666666" points="685,-85 586,-85 586,-66 685,-66 685,-85"/>
<text text-anchor="middle" x="635.5" y="-73" font-family="Helvetica,sans-Serif" font-size="10.00">SettingsManager</text>
</a>
</g>
</g>
<!-- Node12&#45;&gt;Node1 -->
<g id="edge11_Node000001_Node000012" class="edge">
<title>Node12&#45;&gt;Node1</title>
<g id="a_edge11_Node000001_Node000012"><a xlink:title=" ">
<path fill="none" stroke="#9a32cd" stroke-dasharray="5,2" d="M621.39,-58.62C613.43,-50.75 602.83,-41.9 591.5,-37 558.07,-22.54 459.17,-15.48 399.58,-12.45"/>
<polygon fill="#9a32cd" stroke="#9a32cd" points="618.96,-61.15 628.39,-65.98 624.03,-56.32 618.96,-61.15"/>
</a>
</g>
<text text-anchor="middle" x="651" y="-40" font-family="Helvetica,sans-Serif" font-size="10.00" fill="grey"> settingsManager</text>
</g>
</g>
</svg>
