<?xml version="1.0" encoding="UTF-8" standalone="no"?>
<!DOCTYPE svg PUBLIC "-//W3C//DTD SVG 1.1//EN"
 "http://www.w3.org/Graphics/SVG/1.1/DTD/svg11.dtd">
<!-- Generated by graphviz version 2.43.0 (0)
 -->
<!-- Title: ConsoleRenderer::render Pages: 1 -->
<svg width="981pt" height="806pt"
 viewBox="0.00 0.00 981.00 805.50" xmlns="http://www.w3.org/2000/svg" xmlns:xlink="http://www.w3.org/1999/xlink">
<g id="graph0" class="graph" transform="scale(1 1) rotate(0) translate(4 801.5)">
<title>ConsoleRenderer::render</title>
<!-- Node1 -->
<g id="Node000001" class="node">
<title>Node1</title>
<g id="a_Node000001"><a xlink:title="Renders the game world to console.">
<polygon fill="#999999" stroke="#666666" points="137,-400.5 0,-400.5 0,-381.5 137,-381.5 137,-400.5"/>
<text text-anchor="middle" x="68.5" y="-388.5" font-family="Helvetica,sans-Serif" font-size="10.00">ConsoleRenderer::render</text>
</a>
</g>
</g>
<!-- Node2 -->
<g id="Node000002" class="node">
<title>Node2</title>
<g id="a_Node000002"><a xlink:href="classConsoleRenderer.html#a9576db66ee7dc8d9fdec36f0181b9a12" target="_top" xlink:title="Checks if terminal size meets requirements.">
<polygon fill="white" stroke="#666666" points="370,-797.5 173,-797.5 173,-778.5 370,-778.5 370,-797.5"/>
<text text-anchor="middle" x="271.5" y="-785.5" font-family="Helvetica,sans-Serif" font-size="10.00">ConsoleRenderer::checkTerminalSize</text>
</a>
</g>
</g>
<!-- Node1&#45;&gt;Node2 -->
<g id="edge1_Node000001_Node000002" class="edge">
<title>Node1&#45;&gt;Node2</title>
<g id="a_edge1_Node000001_Node000002"><a xlink:title=" ">
<path fill="none" stroke="#63b8ff" d="M70.75,-400.64C77.89,-454.44 115.38,-717.03 173,-770 174,-770.92 175.03,-771.8 176.08,-772.64"/>
<polygon fill="#63b8ff" stroke="#63b8ff" points="174.42,-775.73 184.69,-778.36 178.3,-769.91 174.42,-775.73"/>
</a>
</g>
</g>
<!-- Node5 -->
<g id="Node000005" class="node">
<title>Node5</title>
<g id="a_Node000005"><a xlink:href="classConsoleRenderer.html#ae53c0928ccdb899f11bc74868141c18b" target="_top" xlink:title="Draws screen border.">
<polygon fill="white" stroke="#666666" points="352.5,-760.5 190.5,-760.5 190.5,-741.5 352.5,-741.5 352.5,-760.5"/>
<text text-anchor="middle" x="271.5" y="-748.5" font-family="Helvetica,sans-Serif" font-size="10.00">ConsoleRenderer::drawBorder</text>
</a>
</g>
</g>
<!-- Node1&#45;&gt;Node5 -->
<g id="edge4_Node000001_Node000005" class="edge">
<title>Node1&#45;&gt;Node5</title>
<g id="a_edge4_Node000001_Node000005"><a xlink:title=" ">
<path fill="none" stroke="#63b8ff" d="M69.14,-400.69C68.02,-446 69.67,-638.73 173,-732 175.64,-734.38 178.49,-736.51 181.49,-738.39"/>
<polygon fill="#63b8ff" stroke="#63b8ff" points="179.86,-741.49 190.33,-743.12 183.16,-735.32 179.86,-741.49"/>
</a>
</g>
</g>
<!-- Node6 -->
<g id="Node000006" class="node">
<title>Node6</title>
<g id="a_Node000006"><a xlink:href="classConsoleRenderer.html#af59760cefd8647cf4b6fe34774cac2c1" target="_top" xlink:title="Draws an error message about terminal size.">
<polygon fill="white" stroke="#666666" points="348,-723 195,-723 195,-693 348,-693 348,-723"/>
<text text-anchor="start" x="203" y="-711" font-family="Helvetica,sans-Serif" font-size="10.00">ConsoleRenderer::drawError</text>
<text text-anchor="middle" x="271.5" y="-700" font-family="Helvetica,sans-Serif" font-size="10.00">Message</text>
</a>
</g>
</g>
<!-- Node1&#45;&gt;Node6 -->
<g id="edge5_Node000001_Node000006" class="edge">
<title>Node1&#45;&gt;Node6</title>
<g id="a_edge5_Node000001_Node000006"><a xlink:title=" ">
<path fill="none" stroke="#63b8ff" d="M69.96,-400.6C72.4,-440.89 87.3,-597.96 173,-679 176.83,-682.62 181.1,-685.8 185.64,-688.57"/>
<polygon fill="#63b8ff" stroke="#63b8ff" points="184.22,-691.78 194.68,-693.44 187.54,-685.62 184.22,-691.78"/>
</a>
</g>
</g>
<!-- Node10 -->
<g id="Node000010" class="node">
<title>Node10</title>
<g id="a_Node000010"><a xlink:href="classConsoleRenderer.html#ae0a5ec8d9b0ab1252c3a8a9eae7bceaa" target="_top" xlink:title="Draws symbol legend explaining game symbols.">
<polygon fill="white" stroke="#666666" points="355,-599 188,-599 188,-569 355,-569 355,-599"/>
<text text-anchor="start" x="196" y="-587" font-family="Helvetica,sans-Serif" font-size="10.00">ConsoleRenderer::drawSymbol</text>
<text text-anchor="middle" x="271.5" y="-576" font-family="Helvetica,sans-Serif" font-size="10.00">Legend</text>
</a>
</g>
</g>
<!-- Node1&#45;&gt;Node10 -->
<g id="edge9_Node000001_Node000010" class="edge">
<title>Node1&#45;&gt;Node10</title>
<g id="a_edge9_Node000001_Node000010"><a xlink:title=" ">
<path fill="none" stroke="#63b8ff" d="M72.87,-400.85C83.1,-429.3 116.65,-512.3 173,-555 177.82,-558.66 183.1,-561.85 188.63,-564.65"/>
<polygon fill="#63b8ff" stroke="#63b8ff" points="187.58,-568.01 198.13,-568.98 190.49,-561.65 187.58,-568.01"/>
</a>
</g>
</g>
<!-- Node11 -->
<g id="Node000011" class="node">
<title>Node11</title>
<g id="a_Node000011"><a xlink:href="ConsoleRenderer_8cpp.html#a279be60aa96dcc35cae7933c2617f6d6" target="_top" xlink:title=" ">
<polygon fill="white" stroke="#666666" points="555,-657.5 459,-657.5 459,-638.5 555,-638.5 555,-657.5"/>
<text text-anchor="middle" x="507" y="-645.5" font-family="Helvetica,sans-Serif" font-size="10.00">getGraphicsMap</text>
</a>
</g>
</g>
<!-- Node1&#45;&gt;Node11 -->
<g id="edge22_Node000001_Node000011" class="edge">
<title>Node1&#45;&gt;Node11</title>
<g id="a_edge22_Node000001_Node000011"><a xlink:title=" ">
<path fill="none" stroke="#63b8ff" d="M70.24,-400.73C73.68,-438.13 91.54,-573.3 173,-630 258.99,-689.85 389.8,-674.08 459.1,-659.69"/>
<polygon fill="#63b8ff" stroke="#63b8ff" points="460.24,-663.03 469.28,-657.5 458.76,-656.19 460.24,-663.03"/>
</a>
</g>
</g>
<!-- Node12 -->
<g id="Node000012" class="node">
<title>Node12</title>
<g id="a_Node000012"><a xlink:href="classConsoleRenderer.html#a39097953ecd72be19860424c9d00b0ea" target="_top" xlink:title="Resets terminal color to default.">
<polygon fill="white" stroke="#666666" points="585,-615.5 429,-615.5 429,-596.5 585,-596.5 585,-615.5"/>
<text text-anchor="middle" x="507" y="-603.5" font-family="Helvetica,sans-Serif" font-size="10.00">ConsoleRenderer::resetColor</text>
</a>
</g>
</g>
<!-- Node1&#45;&gt;Node12 -->
<g id="edge31_Node000001_Node000012" class="edge">
<title>Node1&#45;&gt;Node12</title>
<g id="a_edge31_Node000001_Node000012"><a xlink:title=" ">
<path fill="none" stroke="#63b8ff" d="M70.58,-400.71C75.1,-436.23 96.05,-559.44 173,-608 212.76,-633.09 336.4,-625.49 421.3,-616.61"/>
<polygon fill="#63b8ff" stroke="#63b8ff" points="421.88,-620.07 431.45,-615.53 421.14,-613.11 421.88,-620.07"/>
</a>
</g>
</g>
<!-- Node15 -->
<g id="Node000015" class="node">
<title>Node15</title>
<g id="a_Node000015"><a xlink:href="classConsoleRenderer.html#af06444dbf726424a13127fd4f3a70a8d" target="_top" xlink:title="Sets terminal text color.">
<polygon fill="white" stroke="#666666" points="580,-577.5 434,-577.5 434,-558.5 580,-558.5 580,-577.5"/>
<text text-anchor="middle" x="507" y="-565.5" font-family="Helvetica,sans-Serif" font-size="10.00">ConsoleRenderer::setColor</text>
</a>
</g>
</g>
<!-- Node1&#45;&gt;Node15 -->
<g id="edge32_Node000001_Node000015" class="edge">
<title>Node1&#45;&gt;Node15</title>
<g id="a_edge32_Node000001_Node000015"><a xlink:title=" ">
<path fill="none" stroke="#63b8ff" d="M74.15,-400.68C86.45,-425.06 122.34,-489.13 173,-518 214.61,-541.71 339.35,-555.55 423.78,-562.45"/>
<polygon fill="#63b8ff" stroke="#63b8ff" points="423.62,-565.94 433.87,-563.25 424.18,-558.97 423.62,-565.94"/>
</a>
</g>
</g>
<!-- Node16 -->
<g id="Node000016" class="node">
<title>Node16</title>
<g id="a_Node000016"><a xlink:href="classPlatformUtils.html#a964fb97fe6351330adbcf813a9706eb6" target="_top" xlink:title="Checks if terminal supports Unicode.">
<polygon fill="white" stroke="#666666" points="591.5,-531.5 422.5,-531.5 422.5,-512.5 591.5,-512.5 591.5,-531.5"/>
<text text-anchor="middle" x="507" y="-519.5" font-family="Helvetica,sans-Serif" font-size="10.00">PlatformUtils::supportsUnicode</text>
</a>
</g>
</g>
<!-- Node1&#45;&gt;Node16 -->
<g id="edge33_Node000001_Node000016" class="edge">
<title>Node1&#45;&gt;Node16</title>
<g id="a_edge33_Node000001_Node000016"><a xlink:title=" ">
<path fill="none" stroke="#63b8ff" d="M76.81,-400.61C92.18,-420.03 130.01,-463.72 173,-483 248.52,-516.87 342.89,-525.15 411.87,-525.81"/>
<polygon fill="#63b8ff" stroke="#63b8ff" points="412.27,-529.31 422.28,-525.86 412.3,-522.31 412.27,-529.31"/>
</a>
</g>
</g>
<!-- Node17 -->
<g id="Node000017" class="node">
<title>Node17</title>
<g id="a_Node000017"><a xlink:href="classTank.html#adb4ee907d4e3e2fe770fbbc825815b89" target="_top" xlink:title="Gets maximum remaining bonus duration.">
<polygon fill="white" stroke="#666666" points="338,-474.5 205,-474.5 205,-455.5 338,-455.5 338,-474.5"/>
<text text-anchor="middle" x="271.5" y="-462.5" font-family="Helvetica,sans-Serif" font-size="10.00">Tank::getBonusDuration</text>
</a>
</g>
</g>
<!-- Node1&#45;&gt;Node17 -->
<g id="edge17_Node000001_Node000017" class="edge">
<title>Node1&#45;&gt;Node17</title>
<g id="a_edge17_Node000001_Node000017"><a xlink:title=" ">
<path fill="none" stroke="#63b8ff" d="M84.28,-400.67C103.81,-413.02 139.63,-434.18 173,-446 180.77,-448.75 189.04,-451.14 197.34,-453.2"/>
<polygon fill="#63b8ff" stroke="#63b8ff" points="196.56,-456.61 207.09,-455.48 198.15,-449.79 196.56,-456.61"/>
</a>
</g>
</g>
<!-- Node18 -->
<g id="Node000018" class="node">
<title>Node18</title>
<g id="a_Node000018"><a xlink:href="classGameWorld.html#a8ccfe5d146791d20012d963e01262163" target="_top" xlink:title="Gets all active bonuses.">
<polygon fill="white" stroke="#666666" points="340,-437.5 203,-437.5 203,-418.5 340,-418.5 340,-437.5"/>
<text text-anchor="middle" x="271.5" y="-425.5" font-family="Helvetica,sans-Serif" font-size="10.00">GameWorld::getBonuses</text>
</a>
</g>
</g>
<!-- Node1&#45;&gt;Node18 -->
<g id="edge18_Node000001_Node000018" class="edge">
<title>Node1&#45;&gt;Node18</title>
<g id="a_edge18_Node000001_Node000018"><a xlink:title=" ">
<path fill="none" stroke="#63b8ff" d="M121.26,-400.53C147.89,-405.43 180.53,-411.44 208.49,-416.59"/>
<polygon fill="#63b8ff" stroke="#63b8ff" points="208.1,-420.07 218.56,-418.44 209.36,-413.19 208.1,-420.07"/>
</a>
</g>
</g>
<!-- Node19 -->
<g id="Node000019" class="node">
<title>Node19</title>
<g id="a_Node000019"><a xlink:href="classGameWorld.html#ad9ff37f139acbfdc8db505d1d89d7979" target="_top" xlink:title="Gets current level number.">
<polygon fill="white" stroke="#666666" points="350.5,-400.5 192.5,-400.5 192.5,-381.5 350.5,-381.5 350.5,-400.5"/>
<text text-anchor="middle" x="271.5" y="-388.5" font-family="Helvetica,sans-Serif" font-size="10.00">GameWorld::getCurrentLevel</text>
</a>
</g>
</g>
<!-- Node1&#45;&gt;Node19 -->
<g id="edge19_Node000001_Node000019" class="edge">
<title>Node1&#45;&gt;Node19</title>
<g id="a_edge19_Node000001_Node000019"><a xlink:title=" ">
<path fill="none" stroke="#63b8ff" d="M137.27,-391C151.62,-391 166.98,-391 181.97,-391"/>
<polygon fill="#63b8ff" stroke="#63b8ff" points="182.27,-394.5 192.27,-391 182.27,-387.5 182.27,-394.5"/>
</a>
</g>
</g>
<!-- Node20 -->
<g id="Node000020" class="node">
<title>Node20</title>
<g id="a_Node000020"><a xlink:href="classTank.html#a41a3b155f539a9bb0fa12798b26cb340" target="_top" xlink:title="Checks if double fire is active.">
<polygon fill="white" stroke="#666666" points="328,-363.5 215,-363.5 215,-344.5 328,-344.5 328,-363.5"/>
<text text-anchor="middle" x="271.5" y="-351.5" font-family="Helvetica,sans-Serif" font-size="10.00">Tank::getDoubleFire</text>
</a>
</g>
</g>
<!-- Node1&#45;&gt;Node20 -->
<g id="edge20_Node000001_Node000020" class="edge">
<title>Node1&#45;&gt;Node20</title>
<g id="a_edge20_Node000001_Node000020"><a xlink:title=" ">
<path fill="none" stroke="#63b8ff" d="M121.26,-381.47C147.89,-376.57 180.53,-370.56 208.49,-365.41"/>
<polygon fill="#63b8ff" stroke="#63b8ff" points="209.36,-368.81 218.56,-363.56 208.1,-361.93 209.36,-368.81"/>
</a>
</g>
</g>
<!-- Node21 -->
<g id="Node000021" class="node">
<title>Node21</title>
<g id="a_Node000021"><a xlink:href="classGameWorld.html#af85d8105e2c2048f51a8587db0938be8" target="_top" xlink:title="Gets all active explosions.">
<polygon fill="white" stroke="#666666" points="345.5,-326.5 197.5,-326.5 197.5,-307.5 345.5,-307.5 345.5,-326.5"/>
<text text-anchor="middle" x="271.5" y="-314.5" font-family="Helvetica,sans-Serif" font-size="10.00">GameWorld::getExplosions</text>
</a>
</g>
</g>
<!-- Node1&#45;&gt;Node21 -->
<g id="edge21_Node000001_Node000021" class="edge">
<title>Node1&#45;&gt;Node21</title>
<g id="a_edge21_Node000001_Node000021"><a xlink:title=" ">
<path fill="none" stroke="#63b8ff" d="M83.9,-381.3C103.3,-368.7 139.28,-346.9 173,-335 179.49,-332.71 186.33,-330.7 193.25,-328.93"/>
<polygon fill="#63b8ff" stroke="#63b8ff" points="194.5,-332.23 203.42,-326.51 192.89,-325.42 194.5,-332.23"/>
</a>
</g>
</g>
<!-- Node22 -->
<g id="Node000022" class="node">
<title>Node22</title>
<g id="a_Node000022"><a xlink:href="classTank.html#a7ae1ea6c5725d624fbf210019e8d8dc1" target="_top" xlink:title="Checks if tank has active shield.">
<polygon fill="white" stroke="#666666" points="326.5,-289.5 216.5,-289.5 216.5,-270.5 326.5,-270.5 326.5,-289.5"/>
<text text-anchor="middle" x="271.5" y="-277.5" font-family="Helvetica,sans-Serif" font-size="10.00">Tank::getHasShield</text>
</a>
</g>
</g>
<!-- Node1&#45;&gt;Node22 -->
<g id="edge23_Node000001_Node000022" class="edge">
<title>Node1&#45;&gt;Node22</title>
<g id="a_edge23_Node000001_Node000022"><a xlink:title=" ">
<path fill="none" stroke="#63b8ff" d="M77.13,-381.22C92.81,-361.87 130.73,-318.8 173,-298 183.33,-292.92 194.92,-289.26 206.41,-286.63"/>
<polygon fill="#63b8ff" stroke="#63b8ff" points="207.35,-290.01 216.44,-284.58 205.94,-283.15 207.35,-290.01"/>
</a>
</g>
</g>
<!-- Node23 -->
<g id="Node000023" class="node">
<title>Node23</title>
<g id="a_Node000023"><a xlink:href="classGameObject.html#aef9f45389e1ce2fe2260bcfd2c84c16a" target="_top" xlink:title="Gets current health points.">
<polygon fill="white" stroke="#666666" points="337,-252.5 206,-252.5 206,-233.5 337,-233.5 337,-252.5"/>
<text text-anchor="middle" x="271.5" y="-240.5" font-family="Helvetica,sans-Serif" font-size="10.00">GameObject::getHealth</text>
</a>
</g>
</g>
<!-- Node1&#45;&gt;Node23 -->
<g id="edge24_Node000001_Node000023" class="edge">
<title>Node1&#45;&gt;Node23</title>
<g id="a_edge24_Node000001_Node000023"><a xlink:title=" ">
<path fill="none" stroke="#63b8ff" d="M74.15,-381.2C86.43,-356.49 122.29,-291.43 173,-261 180.16,-256.7 188.11,-253.39 196.29,-250.84"/>
<polygon fill="#63b8ff" stroke="#63b8ff" points="197.25,-254.2 205.97,-248.18 195.4,-247.45 197.25,-254.2"/>
</a>
</g>
</g>
<!-- Node24 -->
<g id="Node000024" class="node">
<title>Node24</title>
<g id="a_Node000024"><a xlink:href="classPlayerTank.html#a8e48786bd674e0a64713a2fd8786fc41" target="_top" xlink:title="Gets number of remaining lives.">
<polygon fill="white" stroke="#666666" points="330,-215.5 213,-215.5 213,-196.5 330,-196.5 330,-215.5"/>
<text text-anchor="middle" x="271.5" y="-203.5" font-family="Helvetica,sans-Serif" font-size="10.00">PlayerTank::getLives</text>
</a>
</g>
</g>
<!-- Node1&#45;&gt;Node24 -->
<g id="edge25_Node000001_Node000024" class="edge">
<title>Node1&#45;&gt;Node24</title>
<g id="a_edge25_Node000001_Node000024"><a xlink:title=" ">
<path fill="none" stroke="#63b8ff" d="M72.46,-381.1C81.8,-351.72 113.57,-264.59 173,-224 181.92,-217.9 192.33,-213.72 202.97,-210.87"/>
<polygon fill="#63b8ff" stroke="#63b8ff" points="203.8,-214.27 212.76,-208.61 202.22,-207.45 203.8,-214.27"/>
</a>
</g>
</g>
<!-- Node25 -->
<g id="Node000025" class="node">
<title>Node25</title>
<g id="a_Node000025"><a xlink:href="classGameWorld.html#aeb0de8b4054d1ab65b71436966d1a01d" target="_top" xlink:title="Gets all game objects.">
<polygon fill="white" stroke="#666666" points="337.5,-178.5 205.5,-178.5 205.5,-159.5 337.5,-159.5 337.5,-178.5"/>
<text text-anchor="middle" x="271.5" y="-166.5" font-family="Helvetica,sans-Serif" font-size="10.00">GameWorld::getObjects</text>
</a>
</g>
</g>
<!-- Node1&#45;&gt;Node25 -->
<g id="edge26_Node000001_Node000025" class="edge">
<title>Node1&#45;&gt;Node25</title>
<g id="a_edge26_Node000001_Node000025"><a xlink:title=" ">
<path fill="none" stroke="#63b8ff" d="M71.26,-381.38C77.85,-348.28 104.29,-238.36 173,-187 179.79,-181.93 187.57,-178.14 195.72,-175.33"/>
<polygon fill="#63b8ff" stroke="#63b8ff" points="196.81,-178.66 205.41,-172.46 194.82,-171.94 196.81,-178.66"/>
</a>
</g>
</g>
<!-- Node26 -->
<g id="Node000026" class="node">
<title>Node26</title>
<g id="a_Node000026"><a xlink:href="classGameWorld.html#af726f3547318b0ebae1bb8713611b0ab" target="_top" xlink:title="Gets pointer to player tank.">
<polygon fill="white" stroke="#666666" points="334.5,-141.5 208.5,-141.5 208.5,-122.5 334.5,-122.5 334.5,-141.5"/>
<text text-anchor="middle" x="271.5" y="-129.5" font-family="Helvetica,sans-Serif" font-size="10.00">GameWorld::getPlayer</text>
</a>
</g>
</g>
<!-- Node1&#45;&gt;Node26 -->
<g id="edge27_Node000001_Node000026" class="edge">
<title>Node1&#45;&gt;Node26</title>
<g id="a_edge27_Node000001_Node000026"><a xlink:title=" ">
<path fill="none" stroke="#63b8ff" d="M70.48,-381.25C74.73,-344.36 95.07,-212.23 173,-150 180.49,-144.02 189.33,-139.79 198.58,-136.83"/>
<polygon fill="#63b8ff" stroke="#63b8ff" points="199.59,-140.18 208.33,-134.19 197.76,-133.43 199.59,-140.18"/>
</a>
</g>
</g>
<!-- Node27 -->
<g id="Node000027" class="node">
<title>Node27</title>
<g id="a_Node000027"><a xlink:href="classGameWorld.html#a7b7eb39217a9ca7e8686781766fa982b" target="_top" xlink:title="Gets all active projectiles.">
<polygon fill="white" stroke="#666666" points="344.5,-104.5 198.5,-104.5 198.5,-85.5 344.5,-85.5 344.5,-104.5"/>
<text text-anchor="middle" x="271.5" y="-92.5" font-family="Helvetica,sans-Serif" font-size="10.00">GameWorld::getProjectiles</text>
</a>
</g>
</g>
<!-- Node1&#45;&gt;Node27 -->
<g id="edge28_Node000001_Node000027" class="edge">
<title>Node1&#45;&gt;Node27</title>
<g id="a_edge28_Node000001_Node000027"><a xlink:title=" ">
<path fill="none" stroke="#63b8ff" d="M69.86,-381.48C71.91,-341.59 85.44,-186.52 173,-113 177.84,-108.93 183.31,-105.66 189.11,-103.04"/>
<polygon fill="#63b8ff" stroke="#63b8ff" points="190.39,-106.3 198.47,-99.44 187.88,-99.77 190.39,-106.3"/>
</a>
</g>
</g>
<!-- Node28 -->
<g id="Node000028" class="node">
<title>Node28</title>
<g id="a_Node000028"><a xlink:href="classPlayerTank.html#ac650158a9f0f60fb07a410fca2cee03f" target="_top" xlink:title="Gets current player score.">
<polygon fill="white" stroke="#666666" points="331,-67.5 212,-67.5 212,-48.5 331,-48.5 331,-67.5"/>
<text text-anchor="middle" x="271.5" y="-55.5" font-family="Helvetica,sans-Serif" font-size="10.00">PlayerTank::getScore</text>
</a>
</g>
</g>
<!-- Node1&#45;&gt;Node28 -->
<g id="edge29_Node000001_Node000028" class="edge">
<title>Node1&#45;&gt;Node28</title>
<g id="a_edge29_Node000001_Node000028"><a xlink:title=" ">
<path fill="none" stroke="#63b8ff" d="M69.4,-381.44C69.48,-338.38 75.89,-160.82 173,-76 181.24,-68.8 191.39,-64.07 202.01,-61.02"/>
<polygon fill="#63b8ff" stroke="#63b8ff" points="202.93,-64.4 211.84,-58.67 201.3,-57.59 202.93,-64.4"/>
</a>
</g>
</g>
<!-- Node29 -->
<g id="Node000029" class="node">
<title>Node29</title>
<g id="a_Node000029"><a xlink:href="classGameWorld.html#a8c0869284a43dbe64a93aca4d71a3415" target="_top" xlink:title="Checks if damage flash effect is active.">
<polygon fill="white" stroke="#666666" points="349,-30 194,-30 194,0 349,0 349,-30"/>
<text text-anchor="start" x="202" y="-18" font-family="Helvetica,sans-Serif" font-size="10.00">GameWorld::isDamageFlash</text>
<text text-anchor="middle" x="271.5" y="-7" font-family="Helvetica,sans-Serif" font-size="10.00">Active</text>
</a>
</g>
</g>
<!-- Node1&#45;&gt;Node29 -->
<g id="edge30_Node000001_Node000029" class="edge">
<title>Node1&#45;&gt;Node29</title>
<g id="a_edge30_Node000001_Node000029"><a xlink:title=" ">
<path fill="none" stroke="#63b8ff" d="M69.14,-381.43C67.96,-335.78 69.19,-138.28 173,-39 176.59,-35.57 180.59,-32.6 184.86,-30.04"/>
<polygon fill="#63b8ff" stroke="#63b8ff" points="186.7,-33.03 193.97,-25.33 183.48,-26.81 186.7,-33.03"/>
</a>
</g>
</g>
<!-- Node3 -->
<g id="Node000003" class="node">
<title>Node3</title>
<g id="a_Node000003"><a xlink:href="classConsoleRenderer.html#aae418386985b5ad1286af9cb8a7726c9" target="_top" xlink:title="Updates terminal size information.">
<polygon fill="white" stroke="#666666" points="608,-797.5 406,-797.5 406,-778.5 608,-778.5 608,-797.5"/>
<text text-anchor="middle" x="507" y="-785.5" font-family="Helvetica,sans-Serif" font-size="10.00">ConsoleRenderer::updateTerminalSize</text>
</a>
</g>
</g>
<!-- Node2&#45;&gt;Node3 -->
<g id="edge2_Node000002_Node000003" class="edge">
<title>Node2&#45;&gt;Node3</title>
<g id="a_edge2_Node000002_Node000003"><a xlink:title=" ">
<path fill="none" stroke="#63b8ff" d="M370.17,-788C378.52,-788 387.01,-788 395.45,-788"/>
<polygon fill="#63b8ff" stroke="#63b8ff" points="395.72,-791.5 405.72,-788 395.72,-784.5 395.72,-791.5"/>
</a>
</g>
</g>
<!-- Node4 -->
<g id="Node000004" class="node">
<title>Node4</title>
<g id="a_Node000004"><a xlink:href="classPlatformUtils.html#a9fb2159f36325087d8c93e7937d6da0b" target="_top" xlink:title="Gets current terminal dimensions.">
<polygon fill="white" stroke="#666666" points="809,-797.5 644,-797.5 644,-778.5 809,-778.5 809,-797.5"/>
<text text-anchor="middle" x="726.5" y="-785.5" font-family="Helvetica,sans-Serif" font-size="10.00">PlatformUtils::getTerminalSize</text>
</a>
</g>
</g>
<!-- Node3&#45;&gt;Node4 -->
<g id="edge3_Node000003_Node000004" class="edge">
<title>Node3&#45;&gt;Node4</title>
<g id="a_edge3_Node000003_Node000004"><a xlink:title=" ">
<path fill="none" stroke="#63b8ff" d="M608.16,-788C616.64,-788 625.19,-788 633.6,-788"/>
<polygon fill="#63b8ff" stroke="#63b8ff" points="633.78,-791.5 643.78,-788 633.78,-784.5 633.78,-791.5"/>
</a>
</g>
</g>
<!-- Node7 -->
<g id="Node000007" class="node">
<title>Node7</title>
<g id="a_Node000007"><a xlink:href="classConsoleRenderer.html#a041e99f6c0427c254b0349b57fbe2a84" target="_top" xlink:title="Clears the terminal screen.">
<polygon fill="white" stroke="#666666" points="588.5,-696.5 425.5,-696.5 425.5,-677.5 588.5,-677.5 588.5,-696.5"/>
<text text-anchor="middle" x="507" y="-684.5" font-family="Helvetica,sans-Serif" font-size="10.00">ConsoleRenderer::clearScreen</text>
</a>
</g>
</g>
<!-- Node6&#45;&gt;Node7 -->
<g id="edge6_Node000006_Node000007" class="edge">
<title>Node6&#45;&gt;Node7</title>
<g id="a_edge6_Node000006_Node000007"><a xlink:title=" ">
<path fill="none" stroke="#63b8ff" d="M348.31,-701.18C369.67,-699.26 393.13,-697.15 415.27,-695.16"/>
<polygon fill="#63b8ff" stroke="#63b8ff" points="415.7,-698.64 425.34,-694.25 415.07,-691.66 415.7,-698.64"/>
</a>
</g>
</g>
<!-- Node9 -->
<g id="Node000009" class="node">
<title>Node9</title>
<g id="a_Node000009"><a xlink:href="classConsoleRenderer.html#a71e694cb8e3ecdd88b44a78b339a3963" target="_top" xlink:title="Draws centered text within specified width.">
<polygon fill="white" stroke="#666666" points="604,-733.5 410,-733.5 410,-714.5 604,-714.5 604,-733.5"/>
<text text-anchor="middle" x="507" y="-721.5" font-family="Helvetica,sans-Serif" font-size="10.00">ConsoleRenderer::drawCenteredText</text>
</a>
</g>
</g>
<!-- Node6&#45;&gt;Node9 -->
<g id="edge8_Node000006_Node000009" class="edge">
<title>Node6&#45;&gt;Node9</title>
<g id="a_edge8_Node000006_Node000009"><a xlink:title=" ">
<path fill="none" stroke="#63b8ff" d="M348.31,-713.19C364.67,-714.32 382.27,-715.52 399.56,-716.71"/>
<polygon fill="#63b8ff" stroke="#63b8ff" points="399.47,-720.21 409.69,-717.4 399.95,-713.22 399.47,-720.21"/>
</a>
</g>
</g>
<!-- Node8 -->
<g id="Node000008" class="node">
<title>Node8</title>
<g id="a_Node000008"><a xlink:href="classPlatformUtils.html#acddd420e3f04cd70a8932b5472fce01d" target="_top" xlink:title="Clears the terminal screen.">
<polygon fill="white" stroke="#666666" points="798.5,-696.5 654.5,-696.5 654.5,-677.5 798.5,-677.5 798.5,-696.5"/>
<text text-anchor="middle" x="726.5" y="-684.5" font-family="Helvetica,sans-Serif" font-size="10.00">PlatformUtils::clearScreen</text>
</a>
</g>
</g>
<!-- Node7&#45;&gt;Node8 -->
<g id="edge7_Node000007_Node000008" class="edge">
<title>Node7&#45;&gt;Node8</title>
<g id="a_edge7_Node000007_Node000008"><a xlink:title=" ">
<path fill="none" stroke="#63b8ff" d="M588.68,-687C606.75,-687 625.94,-687 644.04,-687"/>
<polygon fill="#63b8ff" stroke="#63b8ff" points="644.26,-690.5 654.26,-687 644.26,-683.5 644.26,-690.5"/>
</a>
</g>
</g>
<!-- Node10&#45;&gt;Node11 -->
<g id="edge10_Node000010_Node000011" class="edge">
<title>Node10&#45;&gt;Node11</title>
<g id="a_edge10_Node000010_Node000011"><a xlink:title=" ">
<path fill="none" stroke="#63b8ff" d="M318.6,-599.05C344.21,-607.19 376.73,-617.15 406,-625 420.68,-628.94 436.68,-632.8 451.49,-636.21"/>
<polygon fill="#63b8ff" stroke="#63b8ff" points="451,-639.69 461.53,-638.49 452.55,-632.86 451,-639.69"/>
</a>
</g>
</g>
<!-- Node10&#45;&gt;Node12 -->
<g id="edge11_Node000010_Node000012" class="edge">
<title>Node10&#45;&gt;Node12</title>
<g id="a_edge11_Node000010_Node000012"><a xlink:title=" ">
<path fill="none" stroke="#63b8ff" d="M355.15,-591.79C375.78,-593.73 397.97,-595.82 418.82,-597.79"/>
<polygon fill="#63b8ff" stroke="#63b8ff" points="418.64,-601.28 428.93,-598.74 419.3,-594.32 418.64,-601.28"/>
</a>
</g>
</g>
<!-- Node10&#45;&gt;Node15 -->
<g id="edge14_Node000010_Node000015" class="edge">
<title>Node10&#45;&gt;Node15</title>
<g id="a_edge14_Node000010_Node000015"><a xlink:title=" ">
<path fill="none" stroke="#63b8ff" d="M355.15,-578.34C377.45,-576.81 401.57,-575.16 423.84,-573.63"/>
<polygon fill="#63b8ff" stroke="#63b8ff" points="424.19,-577.11 433.93,-572.94 423.71,-570.13 424.19,-577.11"/>
</a>
</g>
</g>
<!-- Node10&#45;&gt;Node16 -->
<g id="edge16_Node000010_Node000016" class="edge">
<title>Node10&#45;&gt;Node16</title>
<g id="a_edge16_Node000010_Node000016"><a xlink:title=" ">
<path fill="none" stroke="#63b8ff" d="M329.02,-568.99C369.29,-558.3 422.72,-544.11 460.3,-534.13"/>
<polygon fill="#63b8ff" stroke="#63b8ff" points="461.21,-537.51 469.98,-531.57 459.41,-530.75 461.21,-537.51"/>
</a>
</g>
</g>
<!-- Node13 -->
<g id="Node000013" class="node">
<title>Node13</title>
<g id="a_Node000013"><a xlink:href="classPlatformUtils.html#ae3607ef4c4fbee33349ec982eda7bf07" target="_top" xlink:title="Resets terminal color to default.">
<polygon fill="white" stroke="#666666" points="795,-615.5 658,-615.5 658,-596.5 795,-596.5 795,-615.5"/>
<text text-anchor="middle" x="726.5" y="-603.5" font-family="Helvetica,sans-Serif" font-size="10.00">PlatformUtils::resetColor</text>
</a>
</g>
</g>
<!-- Node12&#45;&gt;Node13 -->
<g id="edge12_Node000012_Node000013" class="edge">
<title>Node12&#45;&gt;Node13</title>
<g id="a_edge12_Node000012_Node000013"><a xlink:title=" ">
<path fill="none" stroke="#63b8ff" d="M585.29,-606C605.56,-606 627.42,-606 647.71,-606"/>
<polygon fill="#63b8ff" stroke="#63b8ff" points="647.84,-609.5 657.84,-606 647.84,-602.5 647.84,-609.5"/>
</a>
</g>
</g>
<!-- Node14 -->
<g id="Node000014" class="node">
<title>Node14</title>
<g id="a_Node000014"><a xlink:href="classPlatformUtils.html#a48de38e18726881bbe61e398ebabb97e" target="_top" xlink:title="Sets terminal text color.">
<polygon fill="white" stroke="#666666" points="973,-596.5 845,-596.5 845,-577.5 973,-577.5 973,-596.5"/>
<text text-anchor="middle" x="909" y="-584.5" font-family="Helvetica,sans-Serif" font-size="10.00">PlatformUtils::setColor</text>
</a>
</g>
</g>
<!-- Node13&#45;&gt;Node14 -->
<g id="edge13_Node000013_Node000014" class="edge">
<title>Node13&#45;&gt;Node14</title>
<g id="a_edge13_Node000013_Node000014"><a xlink:title=" ">
<path fill="none" stroke="#63b8ff" d="M795.23,-598.87C808.09,-597.52 821.61,-596.09 834.64,-594.72"/>
<polygon fill="#63b8ff" stroke="#63b8ff" points="835.39,-598.16 844.97,-593.64 834.65,-591.2 835.39,-598.16"/>
</a>
</g>
</g>
<!-- Node15&#45;&gt;Node14 -->
<g id="edge15_Node000015_Node000014" class="edge">
<title>Node15&#45;&gt;Node14</title>
<g id="a_edge15_Node000015_Node000014"><a xlink:title=" ">
<path fill="none" stroke="#63b8ff" d="M580.44,-571.44C652.43,-574.86 762.27,-580.08 834.6,-583.51"/>
<polygon fill="#63b8ff" stroke="#63b8ff" points="834.83,-587.03 844.99,-584.01 835.16,-580.04 834.83,-587.03"/>
</a>
</g>
</g>
</g>
</svg>
