<?xml version="1.0" encoding="UTF-8" standalone="no"?>
<!DOCTYPE svg PUBLIC "-//W3C//DTD SVG 1.1//EN"
 "http://www.w3.org/Graphics/SVG/1.1/DTD/svg11.dtd">
<!-- Generated by graphviz version 2.43.0 (0)
 -->
<!-- Title: Tank Pages: 1 -->
<svg width="170pt" height="137pt"
 viewBox="0.00 0.00 169.50 137.00" xmlns="http://www.w3.org/2000/svg" xmlns:xlink="http://www.w3.org/1999/xlink">
<g id="graph0" class="graph" transform="scale(1 1) rotate(0) translate(4 133)">
<title>Tank</title>
<!-- Node1 -->
<g id="Node000001" class="node">
<title>Node1</title>
<g id="a_Node000001"><a xlink:title="Abstract base class for all tank entities.">
<polygon fill="#999999" stroke="#666666" points="101,-74 62,-74 62,-55 101,-55 101,-74"/>
<text text-anchor="middle" x="81.5" y="-62" font-family="Helvetica,sans-Serif" font-size="10.00">Tank</text>
</a>
</g>
</g>
<!-- Node3 -->
<g id="Node000003" class="node">
<title>Node3</title>
<g id="a_Node000003"><a xlink:href="classEnemyTank.html" target="_top" xlink:title="Class representing enemy tanks with AI behavior.">
<polygon fill="white" stroke="#666666" points="73,-19 0,-19 0,0 73,0 73,-19"/>
<text text-anchor="middle" x="36.5" y="-7" font-family="Helvetica,sans-Serif" font-size="10.00">EnemyTank</text>
</a>
</g>
</g>
<!-- Node1&#45;&gt;Node3 -->
<g id="edge2_Node000001_Node000003" class="edge">
<title>Node1&#45;&gt;Node3</title>
<g id="a_edge2_Node000001_Node000003"><a xlink:title=" ">
<path fill="none" stroke="#63b8ff" d="M67.45,-46.96C59.61,-37.72 50.17,-26.6 43.79,-19.09"/>
<polygon fill="#63b8ff" stroke="#63b8ff" points="64.93,-49.39 74.07,-54.75 70.26,-44.86 64.93,-49.39"/>
</a>
</g>
</g>
<!-- Node4 -->
<g id="Node000004" class="node">
<title>Node4</title>
<g id="a_Node000004"><a xlink:href="classPlayerTank.html" target="_top" xlink:title="Class representing the player&#45;controlled tank.">
<polygon fill="white" stroke="#666666" points="161.5,-19 91.5,-19 91.5,0 161.5,0 161.5,-19"/>
<text text-anchor="middle" x="126.5" y="-7" font-family="Helvetica,sans-Serif" font-size="10.00">PlayerTank</text>
</a>
</g>
</g>
<!-- Node1&#45;&gt;Node4 -->
<g id="edge3_Node000001_Node000004" class="edge">
<title>Node1&#45;&gt;Node4</title>
<g id="a_edge3_Node000001_Node000004"><a xlink:title=" ">
<path fill="none" stroke="#63b8ff" d="M95.55,-46.96C103.39,-37.72 112.83,-26.6 119.21,-19.09"/>
<polygon fill="#63b8ff" stroke="#63b8ff" points="92.74,-44.86 88.93,-54.75 98.07,-49.39 92.74,-44.86"/>
</a>
</g>
</g>
<!-- Node2 -->
<g id="Node000002" class="node">
<title>Node2</title>
<g id="a_Node000002"><a xlink:href="classGameObject.html" target="_top" xlink:title="Abstract base class for all game objects.">
<polygon fill="white" stroke="#666666" points="120,-129 43,-129 43,-110 120,-110 120,-129"/>
<text text-anchor="middle" x="81.5" y="-117" font-family="Helvetica,sans-Serif" font-size="10.00">GameObject</text>
</a>
</g>
</g>
<!-- Node2&#45;&gt;Node1 -->
<g id="edge1_Node000001_Node000002" class="edge">
<title>Node2&#45;&gt;Node1</title>
<g id="a_edge1_Node000001_Node000002"><a xlink:title=" ">
<path fill="none" stroke="#63b8ff" d="M81.5,-99.66C81.5,-90.93 81.5,-80.99 81.5,-74.09"/>
<polygon fill="#63b8ff" stroke="#63b8ff" points="78,-99.75 81.5,-109.75 85,-99.75 78,-99.75"/>
</a>
</g>
</g>
</g>
</svg>
