<?xml version="1.0" encoding="UTF-8" standalone="no"?>
<!DOCTYPE svg PUBLIC "-//W3C//DTD SVG 1.1//EN"
 "http://www.w3.org/Graphics/SVG/1.1/DTD/svg11.dtd">
<!-- Generated by graphviz version 2.43.0 (0)
 -->
<!-- Title: EnemyTank::decideNextMove Pages: 1 -->
<svg width="1167pt" height="761pt"
 viewBox="0.00 0.00 1167.00 761.47" xmlns="http://www.w3.org/2000/svg" xmlns:xlink="http://www.w3.org/1999/xlink">
<g id="graph0" class="graph" transform="scale(1 1) rotate(0) translate(4 757.47)">
<title>EnemyTank::decideNextMove</title>
<!-- Node1 -->
<g id="Node000001" class="node">
<title>Node1</title>
<g id="a_Node000001"><a xlink:title="Decides next action based on behavior.">
<polygon fill="#999999" stroke="#666666" points="161,-333 0,-333 0,-314 161,-314 161,-333"/>
<text text-anchor="middle" x="80.5" y="-321" font-family="Helvetica,sans-Serif" font-size="10.00">EnemyTank::decideNextMove</text>
</a>
</g>
</g>
<!-- Node2 -->
<g id="Node000002" class="node">
<title>Node2</title>
<g id="a_Node000002"><a xlink:href="classEnemyTank.html#a5b53b4d6721012b14e41a0882bd1c2a3" target="_top" xlink:title="Executes aggressive behavior.">
<polygon fill="white" stroke="#666666" points="579,-409 403,-409 403,-390 579,-390 579,-409"/>
<text text-anchor="middle" x="491" y="-397" font-family="Helvetica,sans-Serif" font-size="10.00">EnemyTank::aggressiveBehavior</text>
</a>
</g>
</g>
<!-- Node1&#45;&gt;Node2 -->
<g id="edge1_Node000001_Node000002" class="edge">
<title>Node1&#45;&gt;Node2</title>
<g id="a_edge1_Node000001_Node000002"><a xlink:title=" ">
<path fill="none" stroke="#63b8ff" d="M132.82,-333.05C208.14,-347.06 348.36,-373.15 428.89,-388.13"/>
<polygon fill="#63b8ff" stroke="#63b8ff" points="428.42,-391.6 438.89,-389.99 429.7,-384.72 428.42,-391.6"/>
</a>
</g>
</g>
<!-- Node12 -->
<g id="Node000012" class="node">
<title>Node12</title>
<g id="a_Node000012"><a xlink:href="classEnemyTank.html#a327ab507c7512b075c5a4c85d6933bba" target="_top" xlink:title="Executes random movement behavior.">
<polygon fill="white" stroke="#666666" points="999,-76 839,-76 839,-57 999,-57 999,-76"/>
<text text-anchor="middle" x="919" y="-64" font-family="Helvetica,sans-Serif" font-size="10.00">EnemyTank::randomBehavior</text>
</a>
</g>
</g>
<!-- Node1&#45;&gt;Node12 -->
<g id="edge50_Node000001_Node000012" class="edge">
<title>Node1&#45;&gt;Node12</title>
<g id="a_edge50_Node000001_Node000012"><a xlink:title=" ">
<path fill="none" stroke="#63b8ff" d="M92.91,-313.95C132.8,-281.08 270.78,-171.51 403,-115.5 543,-56.19 723.05,-53.9 828.96,-59.14"/>
<polygon fill="#63b8ff" stroke="#63b8ff" points="828.8,-62.64 838.97,-59.67 829.17,-55.65 828.8,-62.64"/>
</a>
</g>
</g>
<!-- Node13 -->
<g id="Node000013" class="node">
<title>Node13</title>
<g id="a_Node000013"><a xlink:href="classEnemyTank.html#a5759e09a78eab14d4b85dc1bd93ead19" target="_top" xlink:title="Attempts to shoot at player.">
<polygon fill="white" stroke="#666666" points="561,-599 421,-599 421,-580 561,-580 561,-599"/>
<text text-anchor="middle" x="491" y="-587" font-family="Helvetica,sans-Serif" font-size="10.00">EnemyTank::attemptShot</text>
</a>
</g>
</g>
<!-- Node1&#45;&gt;Node13 -->
<g id="edge19_Node000001_Node000013" class="edge">
<title>Node1&#45;&gt;Node13</title>
<g id="a_edge19_Node000001_Node000013"><a xlink:title=" ">
<path fill="none" stroke="#63b8ff" d="M91.78,-333.01C130.02,-367.97 268.81,-490.9 403,-560.5 415.62,-567.05 430.03,-572.56 443.44,-576.95"/>
<polygon fill="#63b8ff" stroke="#63b8ff" points="442.39,-580.3 452.98,-579.96 444.5,-573.62 442.39,-580.3"/>
</a>
</g>
</g>
<!-- Node17 -->
<g id="Node000017" class="node">
<title>Node17</title>
<g id="a_Node000017"><a xlink:href="classEnemyTank.html#aa4efd03207e3ae1a5d659cf5d445960d" target="_top" xlink:title="Checks if enemy can see the player.">
<polygon fill="white" stroke="#666666" points="354.5,-19 209.5,-19 209.5,0 354.5,0 354.5,-19"/>
<text text-anchor="middle" x="282" y="-7" font-family="Helvetica,sans-Serif" font-size="10.00">EnemyTank::canSeePlayer</text>
</a>
</g>
</g>
<!-- Node1&#45;&gt;Node17 -->
<g id="edge31_Node000001_Node000017" class="edge">
<title>Node1&#45;&gt;Node17</title>
<g id="a_edge31_Node000001_Node000017"><a xlink:title=" ">
<path fill="none" stroke="#63b8ff" d="M82.35,-313.78C86.44,-273.02 107.75,-114.18 197,-33.5 201.47,-29.46 206.57,-26.1 212.01,-23.3"/>
<polygon fill="#63b8ff" stroke="#63b8ff" points="213.71,-26.37 221.41,-19.09 210.85,-19.98 213.71,-26.37"/>
</a>
</g>
</g>
<!-- Node18 -->
<g id="Node000018" class="node">
<title>Node18</title>
<g id="a_Node000018"><a xlink:href="classEnemyTank.html#a39add8a8beb8bb7b69124753ec2dae74" target="_top" xlink:title="Executes defensive behavior.">
<polygon fill="white" stroke="#666666" points="367,-333 197,-333 197,-314 367,-314 367,-333"/>
<text text-anchor="middle" x="282" y="-321" font-family="Helvetica,sans-Serif" font-size="10.00">EnemyTank::defensiveBehavior</text>
</a>
</g>
</g>
<!-- Node1&#45;&gt;Node18 -->
<g id="edge32_Node000001_Node000018" class="edge">
<title>Node1&#45;&gt;Node18</title>
<g id="a_edge32_Node000001_Node000018"><a xlink:title=" ">
<path fill="none" stroke="#63b8ff" d="M161.21,-323.5C169.63,-323.5 178.26,-323.5 186.83,-323.5"/>
<polygon fill="#63b8ff" stroke="#63b8ff" points="186.84,-327 196.84,-323.5 186.84,-320 186.84,-327"/>
</a>
</g>
</g>
<!-- Node3 -->
<g id="Node000003" class="node">
<title>Node3</title>
<g id="a_Node000003"><a xlink:href="classTank.html#a6a39f37aa7ebbf66d0661815c43b37ef" target="_top" xlink:title="Checks if tank can fire.">
<polygon fill="white" stroke="#666666" points="1142.5,-693 1062.5,-693 1062.5,-674 1142.5,-674 1142.5,-693"/>
<text text-anchor="middle" x="1102.5" y="-681" font-family="Helvetica,sans-Serif" font-size="10.00">Tank::canFire</text>
</a>
</g>
</g>
<!-- Node2&#45;&gt;Node3 -->
<g id="edge2_Node000002_Node000003" class="edge">
<title>Node2&#45;&gt;Node3</title>
<g id="a_edge2_Node000002_Node000003"><a xlink:title=" ">
<path fill="none" stroke="#63b8ff" d="M513.94,-409.02C563.64,-430.65 688.57,-485.35 792,-533.5 896.43,-582.11 1019.23,-642.64 1073.41,-669.52"/>
<polygon fill="#63b8ff" stroke="#63b8ff" points="1071.89,-672.68 1082.4,-673.99 1075,-666.41 1071.89,-672.68"/>
</a>
</g>
</g>
<!-- Node4 -->
<g id="Node000004" class="node">
<title>Node4</title>
<g id="a_Node000004"><a xlink:href="classEnemyTank.html#a85bd09ffb86b2c36c6b76fe6f6752324" target="_top" xlink:title="Moves away from player.">
<polygon fill="white" stroke="#666666" points="780.5,-371 626.5,-371 626.5,-352 780.5,-352 780.5,-371"/>
<text text-anchor="middle" x="703.5" y="-359" font-family="Helvetica,sans-Serif" font-size="10.00">EnemyTank::defensiveMove</text>
</a>
</g>
</g>
<!-- Node2&#45;&gt;Node4 -->
<g id="edge3_Node000002_Node000004" class="edge">
<title>Node2&#45;&gt;Node4</title>
<g id="a_edge3_Node000002_Node000004"><a xlink:title=" ">
<path fill="none" stroke="#63b8ff" d="M544.85,-389.96C573.62,-384.77 609.42,-378.3 639.62,-372.85"/>
<polygon fill="#63b8ff" stroke="#63b8ff" points="640.41,-376.26 649.63,-371.04 639.17,-369.38 640.41,-376.26"/>
</a>
</g>
</g>
<!-- Node5 -->
<g id="Node000005" class="node">
<title>Node5</title>
<g id="a_Node000005"><a xlink:href="classEnemyTank.html#a9eb0cacdd5e196535f1d60da1ca622ac" target="_top" xlink:title="Gets direction towards last known player position.">
<polygon fill="white" stroke="#666666" points="993.5,-333.5 844.5,-333.5 844.5,-303.5 993.5,-303.5 993.5,-333.5"/>
<text text-anchor="start" x="852.5" y="-321.5" font-family="Helvetica,sans-Serif" font-size="10.00">EnemyTank::getDirectionTo</text>
<text text-anchor="middle" x="919" y="-310.5" font-family="Helvetica,sans-Serif" font-size="10.00">Player</text>
</a>
</g>
</g>
<!-- Node2&#45;&gt;Node5 -->
<g id="edge9_Node000002_Node000005" class="edge">
<title>Node2&#45;&gt;Node5</title>
<g id="a_edge9_Node000002_Node000005"><a xlink:title=" ">
<path fill="none" stroke="#63b8ff" d="M568.1,-409.01C631.05,-413.55 721.28,-412.18 792,-379.5 812.83,-369.88 808.2,-354.1 828,-342.5 831.02,-340.73 834.18,-339.09 837.42,-337.56"/>
<polygon fill="#63b8ff" stroke="#63b8ff" points="838.94,-340.72 846.76,-333.58 836.19,-334.29 838.94,-340.72"/>
</a>
</g>
</g>
<!-- Node8 -->
<g id="Node000008" class="node">
<title>Node8</title>
<g id="a_Node000008"><a xlink:href="classGameObject.html#a4bc41ca14c07e61dafa74a03c4f3e2df" target="_top" xlink:title="Rotates the object to face new direction.">
<polygon fill="white" stroke="#666666" points="1159,-347 1046,-347 1046,-328 1159,-328 1159,-347"/>
<text text-anchor="middle" x="1102.5" y="-335" font-family="Helvetica,sans-Serif" font-size="10.00">GameObject::rotate</text>
</a>
</g>
</g>
<!-- Node2&#45;&gt;Node8 -->
<g id="edge18_Node000002_Node000008" class="edge">
<title>Node2&#45;&gt;Node8</title>
<g id="a_edge18_Node000002_Node000008"><a xlink:title=" ">
<path fill="none" stroke="#63b8ff" d="M539.64,-409.05C632.83,-425.66 844.56,-453.18 1010,-398.5 1038.35,-389.13 1066.21,-368.44 1083.6,-353.76"/>
<polygon fill="#63b8ff" stroke="#63b8ff" points="1086,-356.31 1091.25,-347.11 1081.41,-351.03 1086,-356.31"/>
</a>
</g>
</g>
<!-- Node9 -->
<g id="Node000009" class="node">
<title>Node9</title>
<g id="a_Node000009"><a xlink:href="classEnemyTank.html#a99abccd6cdea62b595ec72f9e374d841" target="_top" xlink:title="Gets Manhattan distance to player.">
<polygon fill="white" stroke="#666666" points="777.5,-295.5 629.5,-295.5 629.5,-265.5 777.5,-265.5 777.5,-295.5"/>
<text text-anchor="start" x="637.5" y="-283.5" font-family="Helvetica,sans-Serif" font-size="10.00">EnemyTank::getDistanceTo</text>
<text text-anchor="middle" x="703.5" y="-272.5" font-family="Helvetica,sans-Serif" font-size="10.00">Player</text>
</a>
</g>
</g>
<!-- Node2&#45;&gt;Node9 -->
<g id="edge10_Node000002_Node000009" class="edge">
<title>Node2&#45;&gt;Node9</title>
<g id="a_edge10_Node000002_Node000009"><a xlink:title=" ">
<path fill="none" stroke="#63b8ff" d="M508.87,-389.96C543.08,-370.62 621.24,-326.44 667.11,-300.5"/>
<polygon fill="#63b8ff" stroke="#63b8ff" points="668.85,-303.54 675.84,-295.57 665.41,-297.45 668.85,-303.54"/>
</a>
</g>
</g>
<!-- Node10 -->
<g id="Node000010" class="node">
<title>Node10</title>
<g id="a_Node000010"><a xlink:href="classEnemyTank.html#abf1f9838c12039c2a0872181aeee713e" target="_top" xlink:title="Checks if tank has clear line of sight to player.">
<polygon fill="white" stroke="#666666" points="775,-561 632,-561 632,-542 775,-542 775,-561"/>
<text text-anchor="middle" x="703.5" y="-549" font-family="Helvetica,sans-Serif" font-size="10.00">EnemyTank::hasClearShot</text>
</a>
</g>
</g>
<!-- Node2&#45;&gt;Node10 -->
<g id="edge11_Node000002_Node000010" class="edge">
<title>Node2&#45;&gt;Node10</title>
<g id="a_edge11_Node000002_Node000010"><a xlink:title=" ">
<path fill="none" stroke="#63b8ff" d="M504.88,-409.02C527.22,-425.52 574.63,-460.43 615,-489.5 637.13,-505.43 662.58,-523.43 680.31,-535.91"/>
<polygon fill="#63b8ff" stroke="#63b8ff" points="678.62,-539.01 688.81,-541.9 682.65,-533.28 678.62,-539.01"/>
</a>
</g>
</g>
<!-- Node11 -->
<g id="Node000011" class="node">
<title>Node11</title>
<g id="a_Node000011"><a xlink:href="classEnemyTank.html#aa7421a7881c97b14301ef95e11fac1a8" target="_top" xlink:title="Moves towards player position.">
<polygon fill="white" stroke="#666666" points="792,-209 615,-209 615,-190 792,-190 792,-209"/>
<text text-anchor="middle" x="703.5" y="-197" font-family="Helvetica,sans-Serif" font-size="10.00">EnemyTank::moveTowardsPlayer</text>
</a>
</g>
</g>
<!-- Node2&#45;&gt;Node11 -->
<g id="edge12_Node000002_Node000011" class="edge">
<title>Node2&#45;&gt;Node11</title>
<g id="a_edge12_Node000002_Node000011"><a xlink:title=" ">
<path fill="none" stroke="#63b8ff" d="M498.69,-390C516,-365.81 564.48,-300.71 615,-256.5 633.82,-240.03 657.77,-224.76 675.85,-214.18"/>
<polygon fill="#63b8ff" stroke="#63b8ff" points="677.78,-217.1 684.71,-209.09 674.3,-211.03 677.78,-217.1"/>
</a>
</g>
</g>
<!-- Node4&#45;&gt;Node5 -->
<g id="edge4_Node000004_Node000005" class="edge">
<title>Node4&#45;&gt;Node5</title>
<g id="a_edge4_Node000004_Node000005"><a xlink:title=" ">
<path fill="none" stroke="#63b8ff" d="M751.88,-351.96C776.17,-347.07 806.47,-340.96 834.51,-335.31"/>
<polygon fill="#63b8ff" stroke="#63b8ff" points="835.21,-338.74 844.32,-333.34 833.83,-331.88 835.21,-338.74"/>
</a>
</g>
</g>
<!-- Node6 -->
<g id="Node000006" class="node">
<title>Node6</title>
<g id="a_Node000006"><a xlink:href="classEnemyTank.html#a8e77035e33942a8ac511fbb3970917bc" target="_top" xlink:title="Gets opposite direction.">
<polygon fill="white" stroke="#666666" points="1010,-371 828,-371 828,-352 1010,-352 1010,-371"/>
<text text-anchor="middle" x="919" y="-359" font-family="Helvetica,sans-Serif" font-size="10.00">EnemyTank::getOppositeDirection</text>
</a>
</g>
</g>
<!-- Node4&#45;&gt;Node6 -->
<g id="edge5_Node000004_Node000006" class="edge">
<title>Node4&#45;&gt;Node6</title>
<g id="a_edge5_Node000004_Node000006"><a xlink:title=" ">
<path fill="none" stroke="#63b8ff" d="M780.67,-361.5C792.77,-361.5 805.44,-361.5 817.98,-361.5"/>
<polygon fill="#63b8ff" stroke="#63b8ff" points="818,-365 828,-361.5 818,-358 818,-365"/>
</a>
</g>
</g>
<!-- Node7 -->
<g id="Node000007" class="node">
<title>Node7</title>
<g id="a_Node000007"><a xlink:href="classEnemyTank.html#ad9f295f9b2df24bb291db3783b292289" target="_top" xlink:title="Moves enemy tank in specified direction.">
<polygon fill="white" stroke="#666666" points="972.5,-209 865.5,-209 865.5,-190 972.5,-190 972.5,-209"/>
<text text-anchor="middle" x="919" y="-197" font-family="Helvetica,sans-Serif" font-size="10.00">EnemyTank::move</text>
</a>
</g>
</g>
<!-- Node4&#45;&gt;Node7 -->
<g id="edge6_Node000004_Node000007" class="edge">
<title>Node4&#45;&gt;Node7</title>
<g id="a_edge6_Node000004_Node000007"><a xlink:title=" ">
<path fill="none" stroke="#63b8ff" d="M720.36,-351.95C738.19,-341.04 767.79,-322.38 792,-304.5 831.75,-275.15 875.51,-237.34 899.58,-216.03"/>
<polygon fill="#63b8ff" stroke="#63b8ff" points="902.08,-218.48 907.23,-209.22 897.43,-213.25 902.08,-218.48"/>
</a>
</g>
</g>
<!-- Node4&#45;&gt;Node8 -->
<g id="edge8_Node000004_Node000008" class="edge">
<title>Node4&#45;&gt;Node8</title>
<g id="a_edge8_Node000004_Node000008"><a xlink:title=" ">
<path fill="none" stroke="#63b8ff" d="M746.07,-371.02C805.38,-383.01 917.35,-399.75 1010,-379.5 1033.92,-374.27 1059.05,-362.19 1076.91,-352.32"/>
<polygon fill="#63b8ff" stroke="#63b8ff" points="1079.08,-355.12 1086.03,-347.13 1075.61,-349.04 1079.08,-355.12"/>
</a>
</g>
</g>
<!-- Node7&#45;&gt;Node8 -->
<g id="edge7_Node000007_Node000008" class="edge">
<title>Node7&#45;&gt;Node8</title>
<g id="a_edge7_Node000007_Node000008"><a xlink:title=" ">
<path fill="none" stroke="#63b8ff" d="M946.18,-209.09C964.91,-216.62 990.2,-228.22 1010,-242.5 1041.36,-265.12 1071.16,-299.24 1087.82,-319.84"/>
<polygon fill="#63b8ff" stroke="#63b8ff" points="1085.15,-322.12 1094.12,-327.77 1090.64,-317.76 1085.15,-322.12"/>
</a>
</g>
</g>
<!-- Node11&#45;&gt;Node5 -->
<g id="edge13_Node000011_Node000005" class="edge">
<title>Node11&#45;&gt;Node5</title>
<g id="a_edge13_Node000011_Node000005"><a xlink:title=" ">
<path fill="none" stroke="#63b8ff" d="M760.55,-209.06C771.55,-212.5 782.59,-217.17 792,-223.5 813.83,-238.19 807.94,-253.48 828,-270.5 841.2,-281.69 857.43,-291.34 872.46,-298.98"/>
<polygon fill="#63b8ff" stroke="#63b8ff" points="871.11,-302.22 881.63,-303.48 874.19,-295.93 871.11,-302.22"/>
</a>
</g>
</g>
<!-- Node11&#45;&gt;Node7 -->
<g id="edge14_Node000011_Node000007" class="edge">
<title>Node11&#45;&gt;Node7</title>
<g id="a_edge14_Node000011_Node000007"><a xlink:title=" ">
<path fill="none" stroke="#63b8ff" d="M792.26,-199.5C813.42,-199.5 835.6,-199.5 855.34,-199.5"/>
<polygon fill="#63b8ff" stroke="#63b8ff" points="855.43,-203 865.43,-199.5 855.43,-196 855.43,-203"/>
</a>
</g>
</g>
<!-- Node11&#45;&gt;Node8 -->
<g id="edge17_Node000011_Node000008" class="edge">
<title>Node11&#45;&gt;Node8</title>
<g id="a_edge17_Node000011_Node000008"><a xlink:title=" ">
<path fill="none" stroke="#63b8ff" d="M745.19,-209.04C759.99,-212.69 776.82,-217.06 792,-221.5 890.06,-250.2 915.16,-256.48 1010,-294.5 1031.72,-303.21 1055.63,-314.51 1073.56,-323.34"/>
<polygon fill="#63b8ff" stroke="#63b8ff" points="1072.34,-326.64 1082.86,-327.96 1075.46,-320.37 1072.34,-326.64"/>
</a>
</g>
</g>
<!-- Node11&#45;&gt;Node12 -->
<g id="edge15_Node000011_Node000012" class="edge">
<title>Node11&#45;&gt;Node12</title>
<g id="a_edge15_Node000011_Node000012"><a xlink:title=" ">
<path fill="none" stroke="#63b8ff" d="M719.85,-189.93C756.54,-167.08 849.53,-109.16 893.82,-81.56"/>
<polygon fill="#63b8ff" stroke="#63b8ff" points="895.86,-84.42 902.5,-76.16 892.16,-78.47 895.86,-84.42"/>
</a>
</g>
</g>
<!-- Node12&#45;&gt;Node8 -->
<g id="edge16_Node000012_Node000008" class="edge">
<title>Node12&#45;&gt;Node8</title>
<g id="a_edge16_Node000012_Node000008"><a xlink:title=" ">
<path fill="none" stroke="#63b8ff" d="M985.79,-76.03C994.65,-79.5 1003.06,-84.19 1010,-90.5 1078.58,-152.91 1095.93,-271.43 1100.17,-318.01"/>
<polygon fill="#63b8ff" stroke="#63b8ff" points="1096.69,-318.3 1100.98,-327.99 1103.66,-317.74 1096.69,-318.3"/>
</a>
</g>
</g>
<!-- Node13&#45;&gt;Node3 -->
<g id="edge20_Node000013_Node000003" class="edge">
<title>Node13&#45;&gt;Node3</title>
<g id="a_edge20_Node000013_Node000003"><a xlink:title=" ">
<path fill="none" stroke="#63b8ff" d="M501.58,-599.15C521.14,-618.31 567.79,-661.27 615,-684.5 702.82,-727.72 730.92,-727.95 828,-740.5 908.22,-750.87 932.23,-762.74 1010,-740.5 1037.58,-732.61 1064.94,-713.73 1082.45,-699.86"/>
<polygon fill="#63b8ff" stroke="#63b8ff" points="1085.14,-702.18 1090.66,-693.14 1080.7,-696.76 1085.14,-702.18"/>
</a>
</g>
</g>
<!-- Node13&#45;&gt;Node5 -->
<g id="edge28_Node000013_Node000005" class="edge">
<title>Node13&#45;&gt;Node5</title>
<g id="a_edge28_Node000013_Node000005"><a xlink:title=" ">
<path fill="none" stroke="#63b8ff" d="M561.1,-594.7C639.1,-598.96 759.4,-600.19 792,-570.5 867.85,-501.42 759.33,-418.71 828,-342.5 830.4,-339.84 833.06,-337.45 835.92,-335.32"/>
<polygon fill="#63b8ff" stroke="#63b8ff" points="837.83,-338.25 844.43,-329.97 834.1,-332.33 837.83,-338.25"/>
</a>
</g>
</g>
<!-- Node13&#45;&gt;Node8 -->
<g id="edge30_Node000013_Node000008" class="edge">
<title>Node13&#45;&gt;Node8</title>
<g id="a_edge30_Node000013_Node000008"><a xlink:title=" ">
<path fill="none" stroke="#63b8ff" d="M561.24,-594.79C578.77,-595.92 597.57,-596.93 615,-597.5 693.63,-600.05 722.15,-633.69 792,-597.5 816.63,-584.74 804.81,-561.73 828,-546.5 897.08,-501.15 943.85,-558.02 1010,-508.5 1061.78,-469.73 1087.38,-392.84 1096.93,-356.88"/>
<polygon fill="#63b8ff" stroke="#63b8ff" points="1100.33,-357.68 1099.38,-347.13 1093.55,-355.97 1100.33,-357.68"/>
</a>
</g>
</g>
<!-- Node13&#45;&gt;Node10 -->
<g id="edge29_Node000013_Node000010" class="edge">
<title>Node13&#45;&gt;Node10</title>
<g id="a_edge29_Node000013_Node000010"><a xlink:title=" ">
<path fill="none" stroke="#63b8ff" d="M544.85,-579.96C573.62,-574.77 609.42,-568.3 639.62,-562.85"/>
<polygon fill="#63b8ff" stroke="#63b8ff" points="640.41,-566.26 649.63,-561.04 639.17,-559.38 640.41,-566.26"/>
</a>
</g>
</g>
<!-- Node14 -->
<g id="Node000014" class="node">
<title>Node14</title>
<g id="a_Node000014"><a xlink:href="classEnemyTank.html#a502b571b6aadbbcd72392d182b7fd85c" target="_top" xlink:title="Fires projectile from enemy tank.">
<polygon fill="white" stroke="#666666" points="751,-675 656,-675 656,-656 751,-656 751,-675"/>
<text text-anchor="middle" x="703.5" y="-663" font-family="Helvetica,sans-Serif" font-size="10.00">EnemyTank::fire</text>
</a>
</g>
</g>
<!-- Node13&#45;&gt;Node14 -->
<g id="edge21_Node000013_Node000014" class="edge">
<title>Node13&#45;&gt;Node14</title>
<g id="a_edge21_Node000013_Node000014"><a xlink:title=" ">
<path fill="none" stroke="#63b8ff" d="M512.57,-599.18C536.73,-610.33 578.2,-628.74 615,-641.5 627.33,-645.78 640.84,-649.8 653.48,-653.28"/>
<polygon fill="#63b8ff" stroke="#63b8ff" points="652.83,-656.73 663.4,-655.96 654.65,-649.97 652.83,-656.73"/>
</a>
</g>
</g>
<!-- Node14&#45;&gt;Node3 -->
<g id="edge22_Node000014_Node000003" class="edge">
<title>Node14&#45;&gt;Node3</title>
<g id="a_edge22_Node000014_Node000003"><a xlink:title=" ">
<path fill="none" stroke="#63b8ff" d="M751.21,-663.05C811.25,-660.49 918.64,-657.93 1010,-666.5 1023.72,-667.79 1038.45,-670.1 1051.99,-672.62"/>
<polygon fill="#63b8ff" stroke="#63b8ff" points="1051.6,-676.11 1062.09,-674.57 1052.93,-669.23 1051.6,-676.11"/>
</a>
</g>
</g>
<!-- Node14&#45;&gt;Node5 -->
<g id="edge25_Node000014_Node000005" class="edge">
<title>Node14&#45;&gt;Node5</title>
<g id="a_edge25_Node000014_Node000005"><a xlink:title=" ">
<path fill="none" stroke="#63b8ff" d="M727.22,-655.87C747.73,-645.92 776.93,-628.33 792,-603.5 852.78,-503.41 750.47,-430.25 828,-342.5 830.37,-339.81 833.01,-337.41 835.85,-335.27"/>
<polygon fill="#63b8ff" stroke="#63b8ff" points="837.77,-338.19 844.33,-329.87 834.01,-332.29 837.77,-338.19"/>
</a>
</g>
</g>
<!-- Node14&#45;&gt;Node8 -->
<g id="edge26_Node000014_Node000008" class="edge">
<title>Node14&#45;&gt;Node8</title>
<g id="a_edge26_Node000014_Node000008"><a xlink:title=" ">
<path fill="none" stroke="#63b8ff" d="M751.22,-659.22C817.26,-647.98 937.89,-618.48 1010,-546.5 1065.09,-491.5 1089.52,-397.78 1097.9,-357.2"/>
<polygon fill="#63b8ff" stroke="#63b8ff" points="1101.36,-357.72 1099.85,-347.24 1094.49,-356.38 1101.36,-357.72"/>
</a>
</g>
</g>
<!-- Node15 -->
<g id="Node000015" class="node">
<title>Node15</title>
<g id="a_Node000015"><a xlink:href="classTank.html#a99218709d4502fafb8e0787121a68e54" target="_top" xlink:title="Fires a projectile from the tank.">
<polygon fill="white" stroke="#666666" points="949.5,-731 888.5,-731 888.5,-712 949.5,-712 949.5,-731"/>
<text text-anchor="middle" x="919" y="-719" font-family="Helvetica,sans-Serif" font-size="10.00">Tank::fire</text>
</a>
</g>
</g>
<!-- Node14&#45;&gt;Node15 -->
<g id="edge23_Node000014_Node000015" class="edge">
<title>Node14&#45;&gt;Node15</title>
<g id="a_edge23_Node000014_Node000015"><a xlink:title=" ">
<path fill="none" stroke="#63b8ff" d="M732.72,-675.08C757.6,-683.3 794.94,-695.13 828,-703.5 844.35,-707.64 862.56,-711.43 878.3,-714.46"/>
<polygon fill="#63b8ff" stroke="#63b8ff" points="877.76,-717.92 888.24,-716.33 879.06,-711.04 877.76,-717.92"/>
</a>
</g>
</g>
<!-- Node16 -->
<g id="Node000016" class="node">
<title>Node16</title>
<g id="a_Node000016"><a xlink:href="classProjectile.html#a667a26abf9fb92759a4935fbd439c701" target="_top" xlink:title="Sets new damage value for projectile.">
<polygon fill="white" stroke="#666666" points="981.5,-694 856.5,-694 856.5,-675 981.5,-675 981.5,-694"/>
<text text-anchor="middle" x="919" y="-682" font-family="Helvetica,sans-Serif" font-size="10.00">Projectile::setDamage</text>
</a>
</g>
</g>
<!-- Node14&#45;&gt;Node16 -->
<g id="edge27_Node000014_Node000016" class="edge">
<title>Node14&#45;&gt;Node16</title>
<g id="a_edge27_Node000014_Node000016"><a xlink:title=" ">
<path fill="none" stroke="#63b8ff" d="M751.09,-669.65C778.88,-672.12 814.74,-675.31 846.1,-678.1"/>
<polygon fill="#63b8ff" stroke="#63b8ff" points="845.84,-681.59 856.11,-678.99 846.46,-674.62 845.84,-681.59"/>
</a>
</g>
</g>
<!-- Node15&#45;&gt;Node3 -->
<g id="edge24_Node000015_Node000003" class="edge">
<title>Node15&#45;&gt;Node3</title>
<g id="a_edge24_Node000015_Node000003"><a xlink:title=" ">
<path fill="none" stroke="#63b8ff" d="M949.62,-715.71C967.18,-712.25 989.88,-707.71 1010,-703.5 1023.83,-700.61 1038.82,-697.37 1052.58,-694.36"/>
<polygon fill="#63b8ff" stroke="#63b8ff" points="1053.33,-697.78 1062.35,-692.22 1051.83,-690.94 1053.33,-697.78"/>
</a>
</g>
</g>
<!-- Node18&#45;&gt;Node4 -->
<g id="edge39_Node000018_Node000004" class="edge">
<title>Node18&#45;&gt;Node4</title>
<g id="a_edge39_Node000018_Node000004"><a xlink:title=" ">
<path fill="none" stroke="#63b8ff" d="M361.06,-333.02C375.02,-334.61 389.43,-336.17 403,-337.5 474.77,-344.56 556.37,-350.99 616.25,-355.42"/>
<polygon fill="#63b8ff" stroke="#63b8ff" points="616.19,-358.92 626.42,-356.17 616.71,-351.94 616.19,-358.92"/>
</a>
</g>
</g>
<!-- Node18&#45;&gt;Node5 -->
<g id="edge46_Node000018_Node000005" class="edge">
<title>Node18&#45;&gt;Node5</title>
<g id="a_edge46_Node000018_Node000005"><a xlink:title=" ">
<path fill="none" stroke="#63b8ff" d="M367.32,-322.84C488.94,-321.88 712.29,-320.12 833.83,-319.16"/>
<polygon fill="#63b8ff" stroke="#63b8ff" points="834.22,-322.66 844.19,-319.08 834.16,-315.66 834.22,-322.66"/>
</a>
</g>
</g>
<!-- Node18&#45;&gt;Node8 -->
<g id="edge49_Node000018_Node000008" class="edge">
<title>Node18&#45;&gt;Node8</title>
<g id="a_edge49_Node000018_Node000008"><a xlink:title=" ">
<path fill="none" stroke="#63b8ff" d="M291.49,-333.05C309.68,-352.78 354.71,-397.86 403,-417.5 490.79,-453.21 520.36,-435.38 615,-440.5 790.38,-449.99 849.54,-499.93 1010,-428.5 1045.1,-412.87 1074.24,-377.34 1089.65,-355.59"/>
<polygon fill="#63b8ff" stroke="#63b8ff" points="1092.62,-357.44 1095.39,-347.21 1086.85,-353.48 1092.62,-357.44"/>
</a>
</g>
</g>
<!-- Node18&#45;&gt;Node9 -->
<g id="edge47_Node000018_Node000009" class="edge">
<title>Node18&#45;&gt;Node9</title>
<g id="a_edge47_Node000018_Node000009"><a xlink:title=" ">
<path fill="none" stroke="#63b8ff" d="M362.69,-313.98C376.14,-312.44 389.96,-310.89 403,-309.5 475.92,-301.72 558.92,-293.75 619.03,-288.14"/>
<polygon fill="#63b8ff" stroke="#63b8ff" points="619.59,-291.6 629.22,-287.19 618.94,-284.63 619.59,-291.6"/>
</a>
</g>
</g>
<!-- Node18&#45;&gt;Node10 -->
<g id="edge48_Node000018_Node000010" class="edge">
<title>Node18&#45;&gt;Node10</title>
<g id="a_edge48_Node000018_Node000010"><a xlink:title=" ">
<path fill="none" stroke="#63b8ff" d="M287.18,-333.04C303.6,-370.09 364.69,-503.51 403,-527.5 474.65,-572.37 575.63,-570.05 640.08,-562.3"/>
<polygon fill="#63b8ff" stroke="#63b8ff" points="640.62,-565.76 650.09,-561.02 639.73,-558.82 640.62,-565.76"/>
</a>
</g>
</g>
<!-- Node19 -->
<g id="Node000019" class="node">
<title>Node19</title>
<g id="a_Node000019"><a xlink:href="classEnemyTank.html#aa70aff895200207527e2465c9439fc05" target="_top" xlink:title="Carefully approaches player.">
<polygon fill="white" stroke="#666666" points="574,-228 408,-228 408,-209 574,-209 574,-228"/>
<text text-anchor="middle" x="491" y="-216" font-family="Helvetica,sans-Serif" font-size="10.00">EnemyTank::cautiousApproach</text>
</a>
</g>
</g>
<!-- Node18&#45;&gt;Node19 -->
<g id="edge33_Node000018_Node000019" class="edge">
<title>Node18&#45;&gt;Node19</title>
<g id="a_edge33_Node000018_Node000019"><a xlink:title=" ">
<path fill="none" stroke="#63b8ff" d="M301.73,-314C338.28,-295.46 419.25,-254.39 462.12,-232.64"/>
<polygon fill="#63b8ff" stroke="#63b8ff" points="463.82,-235.7 471.16,-228.06 460.66,-229.46 463.82,-235.7"/>
</a>
</g>
</g>
<!-- Node20 -->
<g id="Node000020" class="node">
<title>Node20</title>
<g id="a_Node000020"><a xlink:href="classEnemyTank.html#a3038987b5595e2ec68508dfde4a35d51" target="_top" xlink:title="Searches for cover.">
<polygon fill="white" stroke="#666666" points="766,-95 641,-95 641,-76 766,-76 766,-95"/>
<text text-anchor="middle" x="703.5" y="-83" font-family="Helvetica,sans-Serif" font-size="10.00">EnemyTank::findCover</text>
</a>
</g>
</g>
<!-- Node18&#45;&gt;Node20 -->
<g id="edge40_Node000018_Node000020" class="edge">
<title>Node18&#45;&gt;Node20</title>
<g id="a_edge40_Node000018_Node000020"><a xlink:title=" ">
<path fill="none" stroke="#63b8ff" d="M290.11,-313.85C307.24,-291.15 353.11,-233.75 403,-199.5 480.66,-146.18 586.62,-113.52 649.46,-97.52"/>
<polygon fill="#63b8ff" stroke="#63b8ff" points="650.69,-100.82 659.54,-95 648.99,-94.03 650.69,-100.82"/>
</a>
</g>
</g>
<!-- Node19&#45;&gt;Node5 -->
<g id="edge34_Node000019_Node000005" class="edge">
<title>Node19&#45;&gt;Node5</title>
<g id="a_edge34_Node000019_Node000005"><a xlink:title=" ">
<path fill="none" stroke="#63b8ff" d="M574.05,-221.58C635.21,-225.62 720.22,-234.95 792,-256.5 809.72,-261.82 850.73,-282.63 881.18,-298.69"/>
<polygon fill="#63b8ff" stroke="#63b8ff" points="879.77,-301.91 890.25,-303.5 883.05,-295.72 879.77,-301.91"/>
</a>
</g>
</g>
<!-- Node19&#45;&gt;Node7 -->
<g id="edge36_Node000019_Node000007" class="edge">
<title>Node19&#45;&gt;Node7</title>
<g id="a_edge36_Node000019_Node000007"><a xlink:title=" ">
<path fill="none" stroke="#63b8ff" d="M515.54,-208.9C539.94,-199.52 579.42,-185.87 615,-180.5 698.93,-167.83 797.16,-178.62 858.5,-188.37"/>
<polygon fill="#63b8ff" stroke="#63b8ff" points="857.95,-191.82 868.39,-189.98 859.08,-184.92 857.95,-191.82"/>
</a>
</g>
</g>
<!-- Node19&#45;&gt;Node8 -->
<g id="edge38_Node000019_Node000008" class="edge">
<title>Node19&#45;&gt;Node8</title>
<g id="a_edge38_Node000019_Node000008"><a xlink:title=" ">
<path fill="none" stroke="#63b8ff" d="M510.55,-208.94C534.1,-197.4 576.33,-178.64 615,-171.5 787.69,-139.63 859.58,-89.89 1010,-180.5 1061.45,-211.49 1086.98,-283.23 1096.69,-317.96"/>
<polygon fill="#63b8ff" stroke="#63b8ff" points="1093.36,-319.06 1099.3,-327.84 1100.13,-317.27 1093.36,-319.06"/>
</a>
</g>
</g>
<!-- Node19&#45;&gt;Node9 -->
<g id="edge35_Node000019_Node000009" class="edge">
<title>Node19&#45;&gt;Node9</title>
<g id="a_edge35_Node000019_Node000009"><a xlink:title=" ">
<path fill="none" stroke="#63b8ff" d="M524.43,-228.05C555.45,-237.19 603.02,-251.2 641.19,-262.44"/>
<polygon fill="#63b8ff" stroke="#63b8ff" points="640.6,-265.92 651.18,-265.38 642.58,-259.2 640.6,-265.92"/>
</a>
</g>
</g>
<!-- Node19&#45;&gt;Node11 -->
<g id="edge37_Node000019_Node000011" class="edge">
<title>Node19&#45;&gt;Node11</title>
<g id="a_edge37_Node000019_Node000011"><a xlink:title=" ">
<path fill="none" stroke="#63b8ff" d="M574.29,-211.07C584.23,-210.17 594.47,-209.25 604.61,-208.34"/>
<polygon fill="#63b8ff" stroke="#63b8ff" points="605.06,-211.81 614.71,-207.42 604.43,-204.84 605.06,-211.81"/>
</a>
</g>
</g>
<!-- Node20&#45;&gt;Node5 -->
<g id="edge41_Node000020_Node000005" class="edge">
<title>Node20&#45;&gt;Node5</title>
<g id="a_edge41_Node000020_Node000005"><a xlink:title=" ">
<path fill="none" stroke="#63b8ff" d="M713.46,-95.2C729.31,-112.37 763.36,-149.27 792,-180.5 829.12,-220.98 872.25,-268.27 897.2,-295.66"/>
<polygon fill="#63b8ff" stroke="#63b8ff" points="894.72,-298.13 904.04,-303.16 899.89,-293.41 894.72,-298.13"/>
</a>
</g>
</g>
<!-- Node20&#45;&gt;Node7 -->
<g id="edge43_Node000020_Node000007" class="edge">
<title>Node20&#45;&gt;Node7</title>
<g id="a_edge43_Node000020_Node000007"><a xlink:title=" ">
<path fill="none" stroke="#63b8ff" d="M722.34,-95.02C759.78,-115.02 846.75,-161.46 891.04,-185.11"/>
<polygon fill="#63b8ff" stroke="#63b8ff" points="889.6,-188.3 900.06,-189.92 892.89,-182.13 889.6,-188.3"/>
</a>
</g>
</g>
<!-- Node20&#45;&gt;Node8 -->
<g id="edge45_Node000020_Node000008" class="edge">
<title>Node20&#45;&gt;Node8</title>
<g id="a_edge45_Node000020_Node000008"><a xlink:title=" ">
<path fill="none" stroke="#63b8ff" d="M766.02,-87.2C843.98,-90.51 972.72,-100.22 1010,-128.5 1072.57,-175.97 1093.11,-275.28 1099.19,-317.66"/>
<polygon fill="#63b8ff" stroke="#63b8ff" points="1095.72,-318.12 1100.49,-327.57 1102.66,-317.2 1095.72,-318.12"/>
</a>
</g>
</g>
<!-- Node20&#45;&gt;Node12 -->
<g id="edge44_Node000020_Node000012" class="edge">
<title>Node20&#45;&gt;Node12</title>
<g id="a_edge44_Node000020_Node000012"><a xlink:title=" ">
<path fill="none" stroke="#63b8ff" d="M766.25,-80C785.73,-78.27 807.65,-76.32 828.64,-74.45"/>
<polygon fill="#63b8ff" stroke="#63b8ff" points="829.21,-77.92 838.86,-73.54 828.59,-70.94 829.21,-77.92"/>
</a>
</g>
</g>
<!-- Node21 -->
<g id="Node000021" class="node">
<title>Node21</title>
<g id="a_Node000021"><a xlink:href="classEnemyTank.html#a8e7ed1aeded64d0b118d54a5f78099b2" target="_top" xlink:title="Gets perpendicular direction.">
<polygon fill="white" stroke="#666666" points="999.5,-38.5 838.5,-38.5 838.5,-8.5 999.5,-8.5 999.5,-38.5"/>
<text text-anchor="start" x="846.5" y="-26.5" font-family="Helvetica,sans-Serif" font-size="10.00">EnemyTank::getPerpendicular</text>
<text text-anchor="middle" x="919" y="-15.5" font-family="Helvetica,sans-Serif" font-size="10.00">Direction</text>
</a>
</g>
</g>
<!-- Node20&#45;&gt;Node21 -->
<g id="edge42_Node000020_Node000021" class="edge">
<title>Node20&#45;&gt;Node21</title>
<g id="a_edge42_Node000020_Node000021"><a xlink:title=" ">
<path fill="none" stroke="#63b8ff" d="M734.35,-75.97C759.31,-68.08 795.87,-56.72 828,-47.5 835.24,-45.42 842.83,-43.3 850.39,-41.23"/>
<polygon fill="#63b8ff" stroke="#63b8ff" points="851.56,-44.54 860.3,-38.54 849.73,-37.79 851.56,-44.54"/>
</a>
</g>
</g>
</g>
</svg>
