<?xml version="1.0" encoding="UTF-8" standalone="no"?>
<!DOCTYPE svg PUBLIC "-//W3C//DTD SVG 1.1//EN"
 "http://www.w3.org/Graphics/SVG/1.1/DTD/svg11.dtd">
<!-- Generated by graphviz version 2.43.0 (0)
 -->
<!-- Title: ConsoleRenderer::drawSettings Pages: 1 -->
<svg width="850pt" height="114pt"
 viewBox="0.00 0.00 850.00 113.50" xmlns="http://www.w3.org/2000/svg" xmlns:xlink="http://www.w3.org/1999/xlink">
<g id="graph0" class="graph" transform="scale(1 1) rotate(0) translate(4 109.5)">
<title>ConsoleRenderer::drawSettings</title>
<!-- Node1 -->
<g id="Node000001" class="node">
<title>Node1</title>
<g id="a_Node000001"><a xlink:title="Draws settings screen.">
<polygon fill="#999999" stroke="#666666" points="170,-67.5 0,-67.5 0,-48.5 170,-48.5 170,-67.5"/>
<text text-anchor="middle" x="85" y="-55.5" font-family="Helvetica,sans-Serif" font-size="10.00">ConsoleRenderer::drawSettings</text>
</a>
</g>
</g>
<!-- Node2 -->
<g id="Node000002" class="node">
<title>Node2</title>
<g id="a_Node000002"><a xlink:href="classConsoleRenderer.html#a9576db66ee7dc8d9fdec36f0181b9a12" target="_top" xlink:title="Checks if terminal size meets requirements.">
<polygon fill="white" stroke="#666666" points="403,-105.5 206,-105.5 206,-86.5 403,-86.5 403,-105.5"/>
<text text-anchor="middle" x="304.5" y="-93.5" font-family="Helvetica,sans-Serif" font-size="10.00">ConsoleRenderer::checkTerminalSize</text>
</a>
</g>
</g>
<!-- Node1&#45;&gt;Node2 -->
<g id="edge1_Node000001_Node000002" class="edge">
<title>Node1&#45;&gt;Node2</title>
<g id="a_edge1_Node000001_Node000002"><a xlink:title=" ">
<path fill="none" stroke="#63b8ff" d="M140.6,-67.54C170.47,-72.76 207.64,-79.25 238.94,-84.72"/>
<polygon fill="#63b8ff" stroke="#63b8ff" points="238.42,-88.18 248.87,-86.46 239.63,-81.29 238.42,-88.18"/>
</a>
</g>
</g>
<!-- Node5 -->
<g id="Node000005" class="node">
<title>Node5</title>
<g id="a_Node000005"><a xlink:href="classConsoleRenderer.html#a041e99f6c0427c254b0349b57fbe2a84" target="_top" xlink:title="Clears the terminal screen.">
<polygon fill="white" stroke="#666666" points="621.5,-64.5 458.5,-64.5 458.5,-45.5 621.5,-45.5 621.5,-64.5"/>
<text text-anchor="middle" x="540" y="-52.5" font-family="Helvetica,sans-Serif" font-size="10.00">ConsoleRenderer::clearScreen</text>
</a>
</g>
</g>
<!-- Node1&#45;&gt;Node5 -->
<g id="edge4_Node000001_Node000005" class="edge">
<title>Node1&#45;&gt;Node5</title>
<g id="a_edge4_Node000001_Node000005"><a xlink:title=" ">
<path fill="none" stroke="#63b8ff" d="M170.14,-57.44C249.15,-56.92 367.03,-56.14 448.15,-55.6"/>
<polygon fill="#63b8ff" stroke="#63b8ff" points="448.37,-59.1 458.35,-55.53 448.33,-52.1 448.37,-59.1"/>
</a>
</g>
</g>
<!-- Node7 -->
<g id="Node000007" class="node">
<title>Node7</title>
<g id="a_Node000007"><a xlink:href="classConsoleRenderer.html#af59760cefd8647cf4b6fe34774cac2c1" target="_top" xlink:title="Draws an error message about terminal size.">
<polygon fill="white" stroke="#666666" points="381,-30 228,-30 228,0 381,0 381,-30"/>
<text text-anchor="start" x="236" y="-18" font-family="Helvetica,sans-Serif" font-size="10.00">ConsoleRenderer::drawError</text>
<text text-anchor="middle" x="304.5" y="-7" font-family="Helvetica,sans-Serif" font-size="10.00">Message</text>
</a>
</g>
</g>
<!-- Node1&#45;&gt;Node7 -->
<g id="edge6_Node000001_Node000007" class="edge">
<title>Node1&#45;&gt;Node7</title>
<g id="a_edge6_Node000001_Node000007"><a xlink:title=" ">
<path fill="none" stroke="#63b8ff" d="M134.27,-48.46C158.79,-43.61 189.32,-37.57 217.67,-31.97"/>
<polygon fill="#63b8ff" stroke="#63b8ff" points="218.46,-35.38 227.6,-30.01 217.11,-28.51 218.46,-35.38"/>
</a>
</g>
</g>
<!-- Node3 -->
<g id="Node000003" class="node">
<title>Node3</title>
<g id="a_Node000003"><a xlink:href="classConsoleRenderer.html#aae418386985b5ad1286af9cb8a7726c9" target="_top" xlink:title="Updates terminal size information.">
<polygon fill="white" stroke="#666666" points="641,-105.5 439,-105.5 439,-86.5 641,-86.5 641,-105.5"/>
<text text-anchor="middle" x="540" y="-93.5" font-family="Helvetica,sans-Serif" font-size="10.00">ConsoleRenderer::updateTerminalSize</text>
</a>
</g>
</g>
<!-- Node2&#45;&gt;Node3 -->
<g id="edge2_Node000002_Node000003" class="edge">
<title>Node2&#45;&gt;Node3</title>
<g id="a_edge2_Node000002_Node000003"><a xlink:title=" ">
<path fill="none" stroke="#63b8ff" d="M403.17,-96C411.52,-96 420.01,-96 428.45,-96"/>
<polygon fill="#63b8ff" stroke="#63b8ff" points="428.72,-99.5 438.72,-96 428.72,-92.5 428.72,-99.5"/>
</a>
</g>
</g>
<!-- Node4 -->
<g id="Node000004" class="node">
<title>Node4</title>
<g id="a_Node000004"><a xlink:href="classPlatformUtils.html#a9fb2159f36325087d8c93e7937d6da0b" target="_top" xlink:title="Gets current terminal dimensions.">
<polygon fill="white" stroke="#666666" points="842,-105.5 677,-105.5 677,-86.5 842,-86.5 842,-105.5"/>
<text text-anchor="middle" x="759.5" y="-93.5" font-family="Helvetica,sans-Serif" font-size="10.00">PlatformUtils::getTerminalSize</text>
</a>
</g>
</g>
<!-- Node3&#45;&gt;Node4 -->
<g id="edge3_Node000003_Node000004" class="edge">
<title>Node3&#45;&gt;Node4</title>
<g id="a_edge3_Node000003_Node000004"><a xlink:title=" ">
<path fill="none" stroke="#63b8ff" d="M641.16,-96C649.64,-96 658.19,-96 666.6,-96"/>
<polygon fill="#63b8ff" stroke="#63b8ff" points="666.78,-99.5 676.78,-96 666.78,-92.5 666.78,-99.5"/>
</a>
</g>
</g>
<!-- Node6 -->
<g id="Node000006" class="node">
<title>Node6</title>
<g id="a_Node000006"><a xlink:href="classPlatformUtils.html#acddd420e3f04cd70a8932b5472fce01d" target="_top" xlink:title="Clears the terminal screen.">
<polygon fill="white" stroke="#666666" points="831.5,-64.5 687.5,-64.5 687.5,-45.5 831.5,-45.5 831.5,-64.5"/>
<text text-anchor="middle" x="759.5" y="-52.5" font-family="Helvetica,sans-Serif" font-size="10.00">PlatformUtils::clearScreen</text>
</a>
</g>
</g>
<!-- Node5&#45;&gt;Node6 -->
<g id="edge5_Node000005_Node000006" class="edge">
<title>Node5&#45;&gt;Node6</title>
<g id="a_edge5_Node000005_Node000006"><a xlink:title=" ">
<path fill="none" stroke="#63b8ff" d="M621.68,-55C639.75,-55 658.94,-55 677.04,-55"/>
<polygon fill="#63b8ff" stroke="#63b8ff" points="677.26,-58.5 687.26,-55 677.26,-51.5 677.26,-58.5"/>
</a>
</g>
</g>
<!-- Node7&#45;&gt;Node5 -->
<g id="edge7_Node000007_Node000005" class="edge">
<title>Node7&#45;&gt;Node5</title>
<g id="a_edge7_Node000007_Node000005"><a xlink:title=" ">
<path fill="none" stroke="#63b8ff" d="M381.31,-27.99C411.09,-33.09 444.94,-38.89 473.62,-43.8"/>
<polygon fill="#63b8ff" stroke="#63b8ff" points="473.09,-47.26 483.54,-45.5 474.27,-40.36 473.09,-47.26"/>
</a>
</g>
</g>
<!-- Node8 -->
<g id="Node000008" class="node">
<title>Node8</title>
<g id="a_Node000008"><a xlink:href="classConsoleRenderer.html#a71e694cb8e3ecdd88b44a78b339a3963" target="_top" xlink:title="Draws centered text within specified width.">
<polygon fill="white" stroke="#666666" points="637,-24.5 443,-24.5 443,-5.5 637,-5.5 637,-24.5"/>
<text text-anchor="middle" x="540" y="-12.5" font-family="Helvetica,sans-Serif" font-size="10.00">ConsoleRenderer::drawCenteredText</text>
</a>
</g>
</g>
<!-- Node7&#45;&gt;Node8 -->
<g id="edge8_Node000007_Node000008" class="edge">
<title>Node7&#45;&gt;Node8</title>
<g id="a_edge8_Node000007_Node000008"><a xlink:title=" ">
<path fill="none" stroke="#63b8ff" d="M381.31,-15C397.67,-15 415.27,-15 432.56,-15"/>
<polygon fill="#63b8ff" stroke="#63b8ff" points="432.69,-18.5 442.69,-15 432.69,-11.5 432.69,-18.5"/>
</a>
</g>
</g>
</g>
</svg>
