<?xml version="1.0" encoding="UTF-8" standalone="no"?>
<!DOCTYPE svg PUBLIC "-//W3C//DTD SVG 1.1//EN"
 "http://www.w3.org/Graphics/SVG/1.1/DTD/svg11.dtd">
<!-- Generated by graphviz version 2.43.0 (0)
 -->
<!-- Title: GameController::showSettings Pages: 1 -->
<!--zoomable 513 -->

<svg id="main" version="1.1" xmlns="http://www.w3.org/2000/svg" xmlns:xlink="http://www.w3.org/1999/xlink" xml:space="preserve" onload="init(evt)">
<style type="text/css"><![CDATA[
.node, .edge {opacity: 0.7;}
.node.selected, .edge.selected {opacity: 1;}
.edge:hover path { stroke: red; }
.edge:hover polygon { stroke: red; fill: red; }
]]></style>

<defs>
  <circle id="rim" cx="0" cy="0" r="7"/>
  <circle id="rim2" cx="0" cy="0" r="3.5"/>
  <g id="zoomPlus">
    <use xlink:href="#rim" fill="#404040"><set attributeName="fill" to="#808080" begin="zoomplus.mouseover" end="zoomplus.mouseout"/></use>
    <path d="M-4,0h8M0,-4v8" fill="none" stroke="white" stroke-width="1.5" pointer-events="none"/>
  </g>
  <g id="zoomMin">
    <use xlink:href="#rim" fill="#404040"><set attributeName="fill" to="#808080" begin="zoomminus.mouseover" end="zoomminus.mouseout"/></use>
    <path d="M-4,0h8" fill="none" stroke="white" stroke-width="1.5" pointer-events="none"/>
  </g>
  <g id="arrowUp" transform="translate(30 24)">
    <use xlink:href="#rim"/>
    <path pointer-events="none" fill="none" stroke="white" stroke-width="1.5" d="M0,-3.0v7 M-2.5,-0.5L0,-3.0L2.5,-0.5"/>
  </g>
  <g id="arrowRight" transform="rotate(90) translate(36 -43)">
    <use xlink:href="#rim"/>
    <path pointer-events="none" fill="none" stroke="white" stroke-width="1.5" d="M0,-3.0v7 M-2.5,-0.5L0,-3.0L2.5,-0.5"/>
  </g>
  <g id="arrowDown" transform="rotate(180) translate(-30 -48)">
    <use xlink:href="#rim"/>
    <path pointer-events="none" fill="none" stroke="white" stroke-width="1.5" d="M0,-3.0v7 M-2.5,-0.5L0,-3.0L2.5,-0.5"/>
  </g>
  <g id="arrowLeft" transform="rotate(270) translate(-36 17)">
    <use xlink:href="#rim"/>
    <path pointer-events="none" fill="none" stroke="white" stroke-width="1.5" d="M0,-3.0v7 M-2.5,-0.5L0,-3.0L2.5,-0.5"/>
  </g>
  <g id="resetDef">
    <use xlink:href="#rim2" fill="#404040"><set attributeName="fill" to="#808080" begin="reset.mouseover" end="reset.mouseout"/></use>
  </g>
</defs>
<script type="application/ecmascript">
var viewWidth = 1060;
var viewHeight = 513;
var sectionId = 'dynsection-22';
</script>
<script type="application/ecmascript" xlink:href="svg.min.js"/>
<svg id="graph" class="graph">
<g id="viewport">
<title>GameController::showSettings</title>
<!-- Node1 -->
<g id="Node000001" class="node">
<title>Node1</title>
<g id="a_Node000001"><a xlink:title="Displays and manages the settings menu.">
<polygon fill="#999999" stroke="#666666" points="165,-222.5 0,-222.5 0,-203.5 165,-203.5 165,-222.5"/>
<text text-anchor="middle" x="82.5" y="-210.5" font-family="Helvetica,sans-Serif" font-size="10.00">GameController::showSettings</text>
</a>
</g>
</g>
<!-- Node2 -->
<g id="Node000002" class="node">
<title>Node2</title>
<g id="a_Node000002"><a xlink:href="classConsoleRenderer.html#a041e99f6c0427c254b0349b57fbe2a84" target="_top" xlink:title="Clears the terminal screen.">
<polygon fill="white" stroke="#666666" points="831.5,-400.5 668.5,-400.5 668.5,-381.5 831.5,-381.5 831.5,-400.5"/>
<text text-anchor="middle" x="750" y="-388.5" font-family="Helvetica,sans-Serif" font-size="10.00">ConsoleRenderer::clearScreen</text>
</a>
</g>
</g>
<!-- Node1&#45;&gt;Node2 -->
<g id="edge1_Node000001_Node000002" class="edge">
<title>Node1&#45;&gt;Node2</title>
<g id="a_edge1_Node000001_Node000002"><a xlink:title=" ">
<path fill="none" stroke="#63b8ff" d="M86.68,-222.69C97.46,-254.11 135.67,-354.27 201,-408 279.51,-472.57 315.89,-468.4 416,-486 502.23,-501.16 532.34,-520.06 613,-486 634.14,-477.07 630.91,-463.11 649,-449 671.23,-431.66 699.18,-415.89 719.87,-405.18"/>
<polygon fill="#63b8ff" stroke="#63b8ff" points="721.5,-408.28 728.82,-400.63 718.32,-402.04 721.5,-408.28"/>
</a>
</g>
</g>
<!-- Node4 -->
<g id="Node000004" class="node">
<title>Node4</title>
<g id="a_Node000004"><a xlink:href="classConsoleRenderer.html#a0e17aa687bd8d7381b2bf8425b2a9709" target="_top" xlink:title="Draws settings screen.">
<polygon fill="white" stroke="#666666" points="375.5,-398.5 205.5,-398.5 205.5,-379.5 375.5,-379.5 375.5,-398.5"/>
<text text-anchor="middle" x="290.5" y="-386.5" font-family="Helvetica,sans-Serif" font-size="10.00">ConsoleRenderer::drawSettings</text>
</a>
</g>
</g>
<!-- Node1&#45;&gt;Node4 -->
<g id="edge3_Node000001_Node000004" class="edge">
<title>Node1&#45;&gt;Node4</title>
<g id="a_edge3_Node000001_Node000004"><a xlink:title=" ">
<path fill="none" stroke="#63b8ff" d="M92.11,-222.62C110.83,-243.29 157.13,-292.99 201,-329 221.5,-345.83 246.68,-362.56 264.93,-374.06"/>
<polygon fill="#63b8ff" stroke="#63b8ff" points="263.2,-377.1 273.54,-379.42 266.9,-371.16 263.2,-377.1"/>
</a>
</g>
</g>
<!-- Node10 -->
<g id="Node000010" class="node">
<title>Node10</title>
<g id="a_Node000010"><a xlink:href="classSettingsManager.html#a1686a183b6d975ae02e1a97cde31b226" target="_top" xlink:title="Gets a boolean setting value.">
<polygon fill="white" stroke="#666666" points="586,-30 443,-30 443,0 586,0 586,-30"/>
<text text-anchor="start" x="451" y="-18" font-family="Helvetica,sans-Serif" font-size="10.00">SettingsManager::getBool</text>
<text text-anchor="middle" x="514.5" y="-7" font-family="Helvetica,sans-Serif" font-size="10.00">Setting</text>
</a>
</g>
</g>
<!-- Node1&#45;&gt;Node10 -->
<g id="edge11_Node000001_Node000010" class="edge">
<title>Node1&#45;&gt;Node10</title>
<g id="a_edge11_Node000001_Node000010"><a xlink:title=" ">
<path fill="none" stroke="#63b8ff" d="M105.24,-203.5C128.56,-193.58 166.86,-178.1 201,-168 278.99,-144.94 317.88,-182.49 380,-130 413.22,-101.93 383.24,-67.6 416,-39 421.21,-34.46 427.14,-30.74 433.44,-27.71"/>
<polygon fill="#63b8ff" stroke="#63b8ff" points="435.04,-30.84 442.91,-23.75 432.34,-24.38 435.04,-30.84"/>
</a>
</g>
</g>
<!-- Node12 -->
<g id="Node000012" class="node">
<title>Node12</title>
<g id="a_Node000012"><a xlink:href="classGameController.html#a19dc0995b5ee51a87bf49dff90f4e991" target="_top" xlink:title="Handles terminal resize events.">
<polygon fill="white" stroke="#666666" points="378,-320 203,-320 203,-290 378,-290 378,-320"/>
<text text-anchor="start" x="211" y="-308" font-family="Helvetica,sans-Serif" font-size="10.00">GameController::handleTerminal</text>
<text text-anchor="middle" x="290.5" y="-297" font-family="Helvetica,sans-Serif" font-size="10.00">Resize</text>
</a>
</g>
</g>
<!-- Node1&#45;&gt;Node12 -->
<g id="edge13_Node000001_Node000012" class="edge">
<title>Node1&#45;&gt;Node12</title>
<g id="a_edge13_Node000001_Node000012"><a xlink:title=" ">
<path fill="none" stroke="#63b8ff" d="M105.16,-222.67C138.55,-237.59 203.27,-266.49 246.44,-285.77"/>
<polygon fill="#63b8ff" stroke="#63b8ff" points="245.01,-288.97 255.57,-289.85 247.87,-282.57 245.01,-288.97"/>
</a>
</g>
</g>
<!-- Node16 -->
<g id="Node000016" class="node">
<title>Node16</title>
<g id="a_Node000016"><a xlink:href="classGameWorld.html#a0cfc65f0eb89ee76d777f6e2f76cb901" target="_top" xlink:title="Sets current game state.">
<polygon fill="white" stroke="#666666" points="350.5,-120.5 230.5,-120.5 230.5,-101.5 350.5,-101.5 350.5,-120.5"/>
<text text-anchor="middle" x="290.5" y="-108.5" font-family="Helvetica,sans-Serif" font-size="10.00">GameWorld::setState</text>
</a>
</g>
</g>
<!-- Node1&#45;&gt;Node16 -->
<g id="edge21_Node000001_Node000016" class="edge">
<title>Node1&#45;&gt;Node16</title>
<g id="a_edge21_Node000001_Node000016"><a xlink:title=" ">
<path fill="none" stroke="#63b8ff" d="M95.09,-203.43C115.36,-187.16 159.07,-154 201,-135 211.1,-130.42 222.26,-126.56 233.15,-123.36"/>
<polygon fill="#63b8ff" stroke="#63b8ff" points="234.35,-126.66 243.04,-120.61 232.47,-119.92 234.35,-126.66"/>
</a>
</g>
</g>
<!-- Node17 -->
<g id="Node000017" class="node">
<title>Node17</title>
<g id="a_Node000017"><a xlink:href="classPlatformUtils.html#a964fb97fe6351330adbcf813a9706eb6" target="_top" xlink:title="Checks if terminal supports Unicode.">
<polygon fill="white" stroke="#666666" points="375,-83.5 206,-83.5 206,-64.5 375,-64.5 375,-83.5"/>
<text text-anchor="middle" x="290.5" y="-71.5" font-family="Helvetica,sans-Serif" font-size="10.00">PlatformUtils::supportsUnicode</text>
</a>
</g>
</g>
<!-- Node1&#45;&gt;Node17 -->
<g id="edge22_Node000001_Node000017" class="edge">
<title>Node1&#45;&gt;Node17</title>
<g id="a_edge22_Node000001_Node000017"><a xlink:title=" ">
<path fill="none" stroke="#63b8ff" d="M89.82,-203.26C105.52,-179.89 148.85,-120.52 201,-92 204.29,-90.2 207.74,-88.58 211.28,-87.12"/>
<polygon fill="#63b8ff" stroke="#63b8ff" points="212.67,-90.34 220.86,-83.63 210.27,-83.77 212.67,-90.34"/>
</a>
</g>
</g>
<!-- Node18 -->
<g id="Node000018" class="node">
<title>Node18</title>
<g id="a_Node000018"><a xlink:href="classGameController.html#a47c26eedd973ec104d31a7c96b60d658" target="_top" xlink:title="Toggles between advanced and symbolic graphics modes.">
<polygon fill="white" stroke="#666666" points="380,-207 201,-207 201,-177 380,-177 380,-207"/>
<text text-anchor="start" x="209" y="-195" font-family="Helvetica,sans-Serif" font-size="10.00">GameController::toggleAdvanced</text>
<text text-anchor="middle" x="290.5" y="-184" font-family="Helvetica,sans-Serif" font-size="10.00">Graphics</text>
</a>
</g>
</g>
<!-- Node1&#45;&gt;Node18 -->
<g id="edge23_Node000001_Node000018" class="edge">
<title>Node1&#45;&gt;Node18</title>
<g id="a_edge23_Node000001_Node000018"><a xlink:title=" ">
<path fill="none" stroke="#63b8ff" d="M165.21,-204.67C173.61,-203.81 182.2,-202.94 190.76,-202.07"/>
<polygon fill="#63b8ff" stroke="#63b8ff" points="191.18,-205.54 200.77,-201.05 190.47,-198.58 191.18,-205.54"/>
</a>
</g>
</g>
<!-- Node21 -->
<g id="Node000021" class="node">
<title>Node21</title>
<g id="a_Node000021"><a xlink:href="classInputHandler.html#a913dc5151c57d77fa9c56cb4ad2c2621" target="_top" xlink:title="Waits for and returns a user command.">
<polygon fill="white" stroke="#666666" points="376.5,-244.5 204.5,-244.5 204.5,-225.5 376.5,-225.5 376.5,-244.5"/>
<text text-anchor="middle" x="290.5" y="-232.5" font-family="Helvetica,sans-Serif" font-size="10.00">InputHandler::waitForCommand</text>
</a>
</g>
</g>
<!-- Node1&#45;&gt;Node21 -->
<g id="edge29_Node000001_Node000021" class="edge">
<title>Node1&#45;&gt;Node21</title>
<g id="a_edge29_Node000001_Node000021"><a xlink:title=" ">
<path fill="none" stroke="#63b8ff" d="M165.21,-221.73C174.72,-222.74 184.47,-223.78 194.14,-224.82"/>
<polygon fill="#63b8ff" stroke="#63b8ff" points="193.85,-228.31 204.17,-225.89 194.6,-221.34 193.85,-228.31"/>
</a>
</g>
</g>
<!-- Node3 -->
<g id="Node000003" class="node">
<title>Node3</title>
<g id="a_Node000003"><a xlink:href="classPlatformUtils.html#acddd420e3f04cd70a8932b5472fce01d" target="_top" xlink:title="Clears the terminal screen.">
<polygon fill="white" stroke="#666666" points="1041.5,-400.5 897.5,-400.5 897.5,-381.5 1041.5,-381.5 1041.5,-400.5"/>
<text text-anchor="middle" x="969.5" y="-388.5" font-family="Helvetica,sans-Serif" font-size="10.00">PlatformUtils::clearScreen</text>
</a>
</g>
</g>
<!-- Node2&#45;&gt;Node3 -->
<g id="edge2_Node000002_Node000003" class="edge">
<title>Node2&#45;&gt;Node3</title>
<g id="a_edge2_Node000002_Node000003"><a xlink:title=" ">
<path fill="none" stroke="#63b8ff" d="M831.68,-391C849.75,-391 868.94,-391 887.04,-391"/>
<polygon fill="#63b8ff" stroke="#63b8ff" points="887.26,-394.5 897.26,-391 887.26,-387.5 887.26,-394.5"/>
</a>
</g>
</g>
<!-- Node4&#45;&gt;Node2 -->
<g id="edge7_Node000004_Node000002" class="edge">
<title>Node4&#45;&gt;Node2</title>
<g id="a_edge7_Node000004_Node000002"><a xlink:title=" ">
<path fill="none" stroke="#63b8ff" d="M353.41,-398.54C373.34,-401.19 395.56,-403.69 416,-405 503.38,-410.59 525.56,-409.49 613,-405 628.17,-404.22 644.25,-402.96 659.84,-401.5"/>
<polygon fill="#63b8ff" stroke="#63b8ff" points="660.38,-404.96 670,-400.52 659.71,-398 660.38,-404.96"/>
</a>
</g>
</g>
<!-- Node5 -->
<g id="Node000005" class="node">
<title>Node5</title>
<g id="a_Node000005"><a xlink:href="classConsoleRenderer.html#a9576db66ee7dc8d9fdec36f0181b9a12" target="_top" xlink:title="Checks if terminal size meets requirements.">
<polygon fill="white" stroke="#666666" points="613,-476.5 416,-476.5 416,-457.5 613,-457.5 613,-476.5"/>
<text text-anchor="middle" x="514.5" y="-464.5" font-family="Helvetica,sans-Serif" font-size="10.00">ConsoleRenderer::checkTerminalSize</text>
</a>
</g>
</g>
<!-- Node4&#45;&gt;Node5 -->
<g id="edge4_Node000004_Node000005" class="edge">
<title>Node4&#45;&gt;Node5</title>
<g id="a_edge4_Node000004_Node000005"><a xlink:title=" ">
<path fill="none" stroke="#63b8ff" d="M310.94,-398.65C335.1,-410.36 377.83,-430.12 416,-443 429.42,-447.53 444.15,-451.6 458,-455.05"/>
<polygon fill="#63b8ff" stroke="#63b8ff" points="457.36,-458.49 467.9,-457.45 459.01,-451.69 457.36,-458.49"/>
</a>
</g>
</g>
<!-- Node8 -->
<g id="Node000008" class="node">
<title>Node8</title>
<g id="a_Node000008"><a xlink:href="classConsoleRenderer.html#af59760cefd8647cf4b6fe34774cac2c1" target="_top" xlink:title="Draws an error message about terminal size.">
<polygon fill="white" stroke="#666666" points="591,-363 438,-363 438,-333 591,-333 591,-363"/>
<text text-anchor="start" x="446" y="-351" font-family="Helvetica,sans-Serif" font-size="10.00">ConsoleRenderer::drawError</text>
<text text-anchor="middle" x="514.5" y="-340" font-family="Helvetica,sans-Serif" font-size="10.00">Message</text>
</a>
</g>
</g>
<!-- Node4&#45;&gt;Node8 -->
<g id="edge8_Node000004_Node000008" class="edge">
<title>Node4&#45;&gt;Node8</title>
<g id="a_edge8_Node000004_Node000008"><a xlink:title=" ">
<path fill="none" stroke="#63b8ff" d="M342.99,-379.49C368.2,-374.84 399.22,-369.11 427.86,-363.82"/>
<polygon fill="#63b8ff" stroke="#63b8ff" points="428.68,-367.22 437.88,-361.97 427.41,-360.34 428.68,-367.22"/>
</a>
</g>
</g>
<!-- Node6 -->
<g id="Node000006" class="node">
<title>Node6</title>
<g id="a_Node000006"><a xlink:href="classConsoleRenderer.html#aae418386985b5ad1286af9cb8a7726c9" target="_top" xlink:title="Updates terminal size information.">
<polygon fill="white" stroke="#666666" points="851,-476.5 649,-476.5 649,-457.5 851,-457.5 851,-476.5"/>
<text text-anchor="middle" x="750" y="-464.5" font-family="Helvetica,sans-Serif" font-size="10.00">ConsoleRenderer::updateTerminalSize</text>
</a>
</g>
</g>
<!-- Node5&#45;&gt;Node6 -->
<g id="edge5_Node000005_Node000006" class="edge">
<title>Node5&#45;&gt;Node6</title>
<g id="a_edge5_Node000005_Node000006"><a xlink:title=" ">
<path fill="none" stroke="#63b8ff" d="M613.17,-467C621.52,-467 630.01,-467 638.45,-467"/>
<polygon fill="#63b8ff" stroke="#63b8ff" points="638.72,-470.5 648.72,-467 638.72,-463.5 638.72,-470.5"/>
</a>
</g>
</g>
<!-- Node7 -->
<g id="Node000007" class="node">
<title>Node7</title>
<g id="a_Node000007"><a xlink:href="classPlatformUtils.html#a9fb2159f36325087d8c93e7937d6da0b" target="_top" xlink:title="Gets current terminal dimensions.">
<polygon fill="white" stroke="#666666" points="1052,-476.5 887,-476.5 887,-457.5 1052,-457.5 1052,-476.5"/>
<text text-anchor="middle" x="969.5" y="-464.5" font-family="Helvetica,sans-Serif" font-size="10.00">PlatformUtils::getTerminalSize</text>
</a>
</g>
</g>
<!-- Node6&#45;&gt;Node7 -->
<g id="edge6_Node000006_Node000007" class="edge">
<title>Node6&#45;&gt;Node7</title>
<g id="a_edge6_Node000006_Node000007"><a xlink:title=" ">
<path fill="none" stroke="#63b8ff" d="M851.16,-467C859.64,-467 868.19,-467 876.6,-467"/>
<polygon fill="#63b8ff" stroke="#63b8ff" points="876.78,-470.5 886.78,-467 876.78,-463.5 876.78,-470.5"/>
</a>
</g>
</g>
<!-- Node8&#45;&gt;Node2 -->
<g id="edge9_Node000008_Node000002" class="edge">
<title>Node8&#45;&gt;Node2</title>
<g id="a_edge9_Node000008_Node000002"><a xlink:title=" ">
<path fill="none" stroke="#63b8ff" d="M591.31,-361.96C622.28,-367.66 657.65,-374.18 687.04,-379.59"/>
<polygon fill="#63b8ff" stroke="#63b8ff" points="686.7,-383.09 697.17,-381.45 687.96,-376.2 686.7,-383.09"/>
</a>
</g>
</g>
<!-- Node9 -->
<g id="Node000009" class="node">
<title>Node9</title>
<g id="a_Node000009"><a xlink:href="classConsoleRenderer.html#a71e694cb8e3ecdd88b44a78b339a3963" target="_top" xlink:title="Draws centered text within specified width.">
<polygon fill="white" stroke="#666666" points="847,-357.5 653,-357.5 653,-338.5 847,-338.5 847,-357.5"/>
<text text-anchor="middle" x="750" y="-345.5" font-family="Helvetica,sans-Serif" font-size="10.00">ConsoleRenderer::drawCenteredText</text>
</a>
</g>
</g>
<!-- Node8&#45;&gt;Node9 -->
<g id="edge10_Node000008_Node000009" class="edge">
<title>Node8&#45;&gt;Node9</title>
<g id="a_edge10_Node000008_Node000009"><a xlink:title=" ">
<path fill="none" stroke="#63b8ff" d="M591.31,-348C607.67,-348 625.27,-348 642.56,-348"/>
<polygon fill="#63b8ff" stroke="#63b8ff" points="642.69,-351.5 652.69,-348 642.69,-344.5 642.69,-351.5"/>
</a>
</g>
</g>
<!-- Node11 -->
<g id="Node000011" class="node">
<title>Node11</title>
<g id="a_Node000011"><a xlink:href="classSettingsManager.html#a824eef45a26393d9038ac52ce0413596" target="_top" xlink:title="Gets a string setting value.">
<polygon fill="white" stroke="#666666" points="827.5,-24.5 672.5,-24.5 672.5,-5.5 827.5,-5.5 827.5,-24.5"/>
<text text-anchor="middle" x="750" y="-12.5" font-family="Helvetica,sans-Serif" font-size="10.00">SettingsManager::getSetting</text>
</a>
</g>
</g>
<!-- Node10&#45;&gt;Node11 -->
<g id="edge12_Node000010_Node000011" class="edge">
<title>Node10&#45;&gt;Node11</title>
<g id="a_edge12_Node000010_Node000011"><a xlink:title=" ">
<path fill="none" stroke="#63b8ff" d="M586.19,-15C610.14,-15 637.17,-15 662.22,-15"/>
<polygon fill="#63b8ff" stroke="#63b8ff" points="662.45,-18.5 672.45,-15 662.45,-11.5 662.45,-18.5"/>
</a>
</g>
</g>
<!-- Node12&#45;&gt;Node2 -->
<g id="edge15_Node000012_Node000002" class="edge">
<title>Node12&#45;&gt;Node2</title>
<g id="a_edge15_Node000012_Node000002"><a xlink:title=" ">
<path fill="none" stroke="#63b8ff" d="M312.74,-320.21C336.57,-336.34 377.03,-360.99 416,-372 495.64,-394.5 590.14,-397.8 658.09,-396.32"/>
<polygon fill="#63b8ff" stroke="#63b8ff" points="658.43,-399.82 668.34,-396.06 658.25,-392.82 658.43,-399.82"/>
</a>
</g>
</g>
<!-- Node12&#45;&gt;Node5 -->
<g id="edge14_Node000012_Node000005" class="edge">
<title>Node12&#45;&gt;Node5</title>
<g id="a_edge14_Node000012_Node000005"><a xlink:title=" ">
<path fill="none" stroke="#63b8ff" d="M313.13,-320.06C331.39,-333.02 357.99,-352.5 380,-371 396.85,-385.16 398.64,-391.48 416,-405 438.95,-422.87 467.19,-440.4 487.36,-452.23"/>
<polygon fill="#63b8ff" stroke="#63b8ff" points="485.88,-455.41 496.28,-457.4 489.39,-449.35 485.88,-455.41"/>
</a>
</g>
</g>
<!-- Node12&#45;&gt;Node8 -->
<g id="edge16_Node000012_Node000008" class="edge">
<title>Node12&#45;&gt;Node8</title>
<g id="a_edge16_Node000012_Node000008"><a xlink:title=" ">
<path fill="none" stroke="#63b8ff" d="M369.14,-320.04C388.1,-323.71 408.48,-327.66 427.79,-331.4"/>
<polygon fill="#63b8ff" stroke="#63b8ff" points="427.29,-334.87 437.77,-333.33 428.62,-327.99 427.29,-334.87"/>
</a>
</g>
</g>
<!-- Node13 -->
<g id="Node000013" class="node">
<title>Node13</title>
<g id="a_Node000013"><a xlink:href="classPlatformUtils.html#ab1da035f72ad2772a6ec8fbc4b34560a" target="_top" xlink:title="Checks if a key has been pressed.">
<polygon fill="white" stroke="#666666" points="806,-276.5 694,-276.5 694,-257.5 806,-257.5 806,-276.5"/>
<text text-anchor="middle" x="750" y="-264.5" font-family="Helvetica,sans-Serif" font-size="10.00">PlatformUtils::kbhit</text>
</a>
</g>
</g>
<!-- Node12&#45;&gt;Node13 -->
<g id="edge17_Node000012_Node000013" class="edge">
<title>Node12&#45;&gt;Node13</title>
<g id="a_edge17_Node000012_Node000013"><a xlink:title=" ">
<path fill="none" stroke="#63b8ff" d="M378.3,-301.75C443.08,-298.86 533.71,-293.87 613,-286 636.14,-283.7 661.4,-280.4 683.8,-277.19"/>
<polygon fill="#63b8ff" stroke="#63b8ff" points="684.48,-280.62 693.87,-275.72 683.47,-273.7 684.48,-280.62"/>
</a>
</g>
</g>
<!-- Node14 -->
<g id="Node000014" class="node">
<title>Node14</title>
<g id="a_Node000014"><a xlink:href="classPlatformUtils.html#a4f63e74483ea78a709c332539f45ac27" target="_top" xlink:title="Reads a single UTF&#45;8 character from input.">
<polygon fill="white" stroke="#666666" points="593,-276.5 436,-276.5 436,-257.5 593,-257.5 593,-276.5"/>
<text text-anchor="middle" x="514.5" y="-264.5" font-family="Helvetica,sans-Serif" font-size="10.00">PlatformUtils::readUTF8Char</text>
</a>
</g>
</g>
<!-- Node12&#45;&gt;Node14 -->
<g id="edge18_Node000012_Node000014" class="edge">
<title>Node12&#45;&gt;Node14</title>
<g id="a_edge18_Node000012_Node000014"><a xlink:title=" ">
<path fill="none" stroke="#63b8ff" d="M378.28,-290.14C401.38,-286.19 425.95,-281.99 447.72,-278.26"/>
<polygon fill="#63b8ff" stroke="#63b8ff" points="448.57,-281.67 457.83,-276.53 447.38,-274.77 448.57,-281.67"/>
</a>
</g>
</g>
<!-- Node15 -->
<g id="Node000015" class="node">
<title>Node15</title>
<g id="a_Node000015"><a xlink:href="classPlatformUtils.html#abf6e891ecb5147fa3d8583b651642d91" target="_top" xlink:title="Pauses execution for specified milliseconds.">
<polygon fill="white" stroke="#666666" points="571,-239.5 458,-239.5 458,-220.5 571,-220.5 571,-239.5"/>
<text text-anchor="middle" x="514.5" y="-227.5" font-family="Helvetica,sans-Serif" font-size="10.00">PlatformUtils::sleep</text>
</a>
</g>
</g>
<!-- Node12&#45;&gt;Node15 -->
<g id="edge20_Node000012_Node000015" class="edge">
<title>Node12&#45;&gt;Node15</title>
<g id="a_edge20_Node000012_Node000015"><a xlink:title=" ">
<path fill="none" stroke="#63b8ff" d="M319.94,-289.93C344.71,-277.37 381.89,-259.83 416,-249 426.19,-245.76 437.17,-242.98 447.95,-240.62"/>
<polygon fill="#63b8ff" stroke="#63b8ff" points="448.7,-244.04 457.77,-238.57 447.27,-237.19 448.7,-244.04"/>
</a>
</g>
</g>
<!-- Node14&#45;&gt;Node13 -->
<g id="edge19_Node000014_Node000013" class="edge">
<title>Node14&#45;&gt;Node13</title>
<g id="a_edge19_Node000014_Node000013"><a xlink:title=" ">
<path fill="none" stroke="#63b8ff" d="M593.25,-267C622.55,-267 655.56,-267 683.62,-267"/>
<polygon fill="#63b8ff" stroke="#63b8ff" points="683.72,-270.5 693.72,-267 683.72,-263.5 683.72,-270.5"/>
</a>
</g>
</g>
<!-- Node18&#45;&gt;Node2 -->
<g id="edge24_Node000018_Node000002" class="edge">
<title>Node18&#45;&gt;Node2</title>
<g id="a_edge24_Node000018_Node000002"><a xlink:title=" ">
<path fill="none" stroke="#63b8ff" d="M348.91,-176.98C419.69,-162.19 539.58,-149.86 613,-212 666.98,-257.69 599.18,-316.81 649,-367 652.76,-370.78 657,-374.01 661.56,-376.76"/>
<polygon fill="#63b8ff" stroke="#63b8ff" points="660.19,-379.99 670.68,-381.48 663.4,-373.78 660.19,-379.99"/>
</a>
</g>
</g>
<!-- Node18&#45;&gt;Node10 -->
<g id="edge25_Node000018_Node000010" class="edge">
<title>Node18&#45;&gt;Node10</title>
<g id="a_edge25_Node000018_Node000010"><a xlink:title=" ">
<path fill="none" stroke="#63b8ff" d="M360.71,-176.95C367.85,-173.28 374.49,-168.7 380,-163 419.88,-121.74 374.59,-78.73 416,-39 421.07,-34.13 426.96,-30.21 433.29,-27.04"/>
<polygon fill="#63b8ff" stroke="#63b8ff" points="435.03,-30.1 442.83,-22.93 432.26,-23.67 435.03,-30.1"/>
</a>
</g>
</g>
<!-- Node18&#45;&gt;Node15 -->
<g id="edge28_Node000018_Node000015" class="edge">
<title>Node18&#45;&gt;Node15</title>
<g id="a_edge28_Node000018_Node000015"><a xlink:title=" ">
<path fill="none" stroke="#63b8ff" d="M379.24,-207.02C402.15,-210.94 426.45,-215.1 447.99,-218.79"/>
<polygon fill="#63b8ff" stroke="#63b8ff" points="447.55,-222.26 457.99,-220.5 448.73,-215.36 447.55,-222.26"/>
</a>
</g>
</g>
<!-- Node19 -->
<g id="Node000019" class="node">
<title>Node19</title>
<g id="a_Node000019"><a xlink:href="classConsoleRenderer.html#ac1299b325bb43da2b01ce929fc6f91f6" target="_top" xlink:title="Enables or disables advanced graphics.">
<polygon fill="white" stroke="#666666" points="599,-126 430,-126 430,-96 599,-96 599,-126"/>
<text text-anchor="start" x="438" y="-114" font-family="Helvetica,sans-Serif" font-size="10.00">ConsoleRenderer::setAdvanced</text>
<text text-anchor="middle" x="514.5" y="-103" font-family="Helvetica,sans-Serif" font-size="10.00">Graphics</text>
</a>
</g>
</g>
<!-- Node18&#45;&gt;Node19 -->
<g id="edge26_Node000018_Node000019" class="edge">
<title>Node18&#45;&gt;Node19</title>
<g id="a_edge26_Node000018_Node000019"><a xlink:title=" ">
<path fill="none" stroke="#63b8ff" d="M344.76,-176.96C356.59,-172.96 368.9,-168.26 380,-163 397.16,-154.87 398.73,-147.89 416,-140 424.7,-136.02 434.09,-132.43 443.48,-129.24"/>
<polygon fill="#63b8ff" stroke="#63b8ff" points="444.81,-132.48 453.24,-126.05 442.64,-125.83 444.81,-132.48"/>
</a>
</g>
</g>
<!-- Node20 -->
<g id="Node000020" class="node">
<title>Node20</title>
<g id="a_Node000020"><a xlink:href="classSettingsManager.html#a9b68292aa3b017c65c44c44bec834259" target="_top" xlink:title="Sets a boolean setting value.">
<polygon fill="white" stroke="#666666" points="585.5,-78 443.5,-78 443.5,-48 585.5,-48 585.5,-78"/>
<text text-anchor="start" x="451.5" y="-66" font-family="Helvetica,sans-Serif" font-size="10.00">SettingsManager::setBool</text>
<text text-anchor="middle" x="514.5" y="-55" font-family="Helvetica,sans-Serif" font-size="10.00">Setting</text>
</a>
</g>
</g>
<!-- Node18&#45;&gt;Node20 -->
<g id="edge27_Node000018_Node000020" class="edge">
<title>Node18&#45;&gt;Node20</title>
<g id="a_edge27_Node000018_Node000020"><a xlink:title=" ">
<path fill="none" stroke="#63b8ff" d="M358.06,-176.9C366.01,-173.23 373.57,-168.67 380,-163 408.04,-138.28 387.05,-110.64 416,-87 421.35,-82.63 427.38,-79.04 433.76,-76.08"/>
<polygon fill="#63b8ff" stroke="#63b8ff" points="435.36,-79.21 443.3,-72.2 432.72,-72.73 435.36,-79.21"/>
</a>
</g>
</g>
<!-- Node21&#45;&gt;Node13 -->
<g id="edge30_Node000021_Node000013" class="edge">
<title>Node21&#45;&gt;Node13</title>
<g id="a_edge30_Node000021_Node000013"><a xlink:title=" ">
<path fill="none" stroke="#63b8ff" d="M331.5,-225.47C392.71,-212.38 513.03,-192.55 613,-212 652.86,-219.75 695.81,-239.18 722.55,-252.73"/>
<polygon fill="#63b8ff" stroke="#63b8ff" points="721.15,-255.95 731.64,-257.43 724.36,-249.73 721.15,-255.95"/>
</a>
</g>
</g>
<!-- Node21&#45;&gt;Node14 -->
<g id="edge31_Node000021_Node000014" class="edge">
<title>Node21&#45;&gt;Node14</title>
<g id="a_edge31_Node000021_Node000014"><a xlink:title=" ">
<path fill="none" stroke="#63b8ff" d="M357.51,-244.51C382.56,-248.13 411.28,-252.27 437.21,-256"/>
<polygon fill="#63b8ff" stroke="#63b8ff" points="436.97,-259.5 447.36,-257.47 437.97,-252.58 436.97,-259.5"/>
</a>
</g>
</g>
</g>
</svg>

<g id="navigator" transform="translate(0 0)" fill="#404254">
  <rect fill="#f2f5e9" fill-opacity="0.5" stroke="#606060" stroke-width=".5" x="0" y="0" width="60" height="60"/>
  <use id="zoomplus" xlink:href="#zoomPlus" x="17" y="9" onmousedown="handleZoom(evt,'in')"/>
  <use id="zoomminus" xlink:href="#zoomMin" x="42" y="9" onmousedown="handleZoom(evt,'out')"/>
  <use id="reset" xlink:href="#resetDef" x="30" y="36" onmousedown="handleReset()"/>
   <use id="arrowup" xlink:href="#arrowUp" x="0" y="0" onmousedown="handlePan(0,-1)"/>
  <use id="arrowright" xlink:href="#arrowRight" x="0" y="0" onmousedown="handlePan(1,0)"/>
  <use id="arrowdown" xlink:href="#arrowDown" x="0" y="0" onmousedown="handlePan(0,1)"/>
  <use id="arrowleft" xlink:href="#arrowLeft" x="0" y="0" onmousedown="handlePan(-1,0)"/>
</g>
<svg viewBox="0 0 15 15" width="100%" height="30px" preserveAspectRatio="xMaxYMin meet">
 <g id="arrow_out" transform="scale(0.3 0.3)">
  <a xlink:href="classGameController_a24f5cae258418d4a5934e6f412c28945_cgraph_org.svg" target="_base">
   <rect id="button" ry="5" rx="5" y="6" x="6" height="38" width="38"
        fill="#f2f5e9" fill-opacity="0.5" stroke="#606060" stroke-width="1.0"/>
   <path id="arrow"
     d="M 11.500037,31.436501 C 11.940474,20.09759 22.043105,11.32322 32.158766,21.979434 L 37.068811,17.246167 C 37.068811,17.246167 37.088388,32 37.088388,32 L 22.160133,31.978069 C 22.160133,31.978069 26.997745,27.140456 26.997745,27.140456 C 18.528582,18.264221 13.291696,25.230495 11.500037,31.436501 z"
     style="fill:#404040;"/>
  </a>
 </g>
</svg>

<style type='text/css'>
<![CDATA[
[data-mouse-over-selected='false'] { opacity: 0.7; }
[data-mouse-over-selected='true']  { opacity: 1.0; }
]]>
</style>
<script type="application/ecmascript"><![CDATA[
document.addEventListener('DOMContentLoaded', (event) => {
  highlightEdges();
  highlightAdjacentNodes();
});
]]></script>
</svg>
