<?xml version="1.0" encoding="UTF-8" standalone="no"?>
<!DOCTYPE svg PUBLIC "-//W3C//DTD SVG 1.1//EN"
 "http://www.w3.org/Graphics/SVG/1.1/DTD/svg11.dtd">
<!-- Generated by graphviz version 2.43.0 (0)
 -->
<!-- Title: PlatformUtils::kbhit Pages: 1 -->
<svg width="1838pt" height="352pt"
 viewBox="0.00 0.00 1838.00 352.20" xmlns="http://www.w3.org/2000/svg" xmlns:xlink="http://www.w3.org/1999/xlink">
<g id="graph0" class="graph" transform="scale(1 1) rotate(0) translate(4 348.2)">
<title>PlatformUtils::kbhit</title>
<!-- Node1 -->
<g id="Node000001" class="node">
<title>Node1</title>
<g id="a_Node000001"><a xlink:title="Checks if a key has been pressed.">
<polygon fill="#999999" stroke="#666666" points="1830,-196.04 1718,-196.04 1718,-177.04 1830,-177.04 1830,-196.04"/>
<text text-anchor="middle" x="1774" y="-184.04" font-family="Helvetica,sans-Serif" font-size="10.00">PlatformUtils::kbhit</text>
</a>
</g>
</g>
<!-- Node2 -->
<g id="Node000002" class="node">
<title>Node2</title>
<g id="a_Node000002"><a xlink:href="classGameController.html#a19dc0995b5ee51a87bf49dff90f4e991" target="_top" xlink:title="Handles terminal resize events.">
<polygon fill="white" stroke="#666666" points="1489,-244.54 1314,-244.54 1314,-214.54 1489,-214.54 1489,-244.54"/>
<text text-anchor="start" x="1322" y="-232.54" font-family="Helvetica,sans-Serif" font-size="10.00">GameController::handleTerminal</text>
<text text-anchor="middle" x="1401.5" y="-221.54" font-family="Helvetica,sans-Serif" font-size="10.00">Resize</text>
</a>
</g>
</g>
<!-- Node1&#45;&gt;Node2 -->
<g id="edge1_Node000001_Node000002" class="edge">
<title>Node1&#45;&gt;Node2</title>
<g id="a_edge1_Node000001_Node000002"><a xlink:title=" ">
<path fill="none" stroke="#63b8ff" d="M1719.54,-198.09C1707.25,-200.48 1694.21,-202.79 1682,-204.54 1617.62,-213.76 1544.38,-220.16 1489.02,-224.18"/>
<polygon fill="#63b8ff" stroke="#63b8ff" points="1720.52,-201.47 1729.65,-196.09 1719.16,-194.6 1720.52,-201.47"/>
</a>
</g>
</g>
<!-- Node12 -->
<g id="Node000012" class="node">
<title>Node12</title>
<g id="a_Node000012"><a xlink:href="classPlatformUtils.html#a4f63e74483ea78a709c332539f45ac27" target="_top" xlink:title="Reads a single UTF&#45;8 character from input.">
<polygon fill="white" stroke="#666666" points="1682,-196.04 1525,-196.04 1525,-177.04 1682,-177.04 1682,-196.04"/>
<text text-anchor="middle" x="1603.5" y="-184.04" font-family="Helvetica,sans-Serif" font-size="10.00">PlatformUtils::readUTF8Char</text>
</a>
</g>
</g>
<!-- Node1&#45;&gt;Node12 -->
<g id="edge21_Node000001_Node000012" class="edge">
<title>Node1&#45;&gt;Node12</title>
<g id="a_edge21_Node000001_Node000012"><a xlink:title=" ">
<path fill="none" stroke="#63b8ff" d="M1707.74,-186.54C1699.35,-186.54 1690.69,-186.54 1682.12,-186.54"/>
<polygon fill="#63b8ff" stroke="#63b8ff" points="1707.83,-190.04 1717.83,-186.54 1707.83,-183.04 1707.83,-190.04"/>
</a>
</g>
</g>
<!-- Node13 -->
<g id="Node000013" class="node">
<title>Node13</title>
<g id="a_Node000013"><a xlink:href="classInputHandler.html#a913dc5151c57d77fa9c56cb4ad2c2621" target="_top" xlink:title="Waits for and returns a user command.">
<polygon fill="white" stroke="#666666" points="1487.5,-125.04 1315.5,-125.04 1315.5,-106.04 1487.5,-106.04 1487.5,-125.04"/>
<text text-anchor="middle" x="1401.5" y="-113.04" font-family="Helvetica,sans-Serif" font-size="10.00">InputHandler::waitForCommand</text>
</a>
</g>
</g>
<!-- Node1&#45;&gt;Node13 -->
<g id="edge30_Node000001_Node000013" class="edge">
<title>Node1&#45;&gt;Node13</title>
<g id="a_edge30_Node000001_Node000013"><a xlink:title=" ">
<path fill="none" stroke="#63b8ff" d="M1718.29,-174.91C1706.34,-172.43 1693.75,-169.86 1682,-167.54 1603.31,-152.01 1511.9,-135.24 1455.63,-125.06"/>
<polygon fill="#63b8ff" stroke="#63b8ff" points="1717.64,-178.35 1728.14,-176.97 1719.07,-171.5 1717.64,-178.35"/>
</a>
</g>
</g>
<!-- Node3 -->
<g id="Node000003" class="node">
<title>Node3</title>
<g id="a_Node000003"><a xlink:href="classGameController.html#a637ea4e72ed2be4a2884b30160b3e8ab" target="_top" xlink:title="Pauses the game and displays pause screen.">
<polygon fill="white" stroke="#666666" points="863,-239.04 705,-239.04 705,-220.04 863,-220.04 863,-239.04"/>
<text text-anchor="middle" x="784" y="-227.04" font-family="Helvetica,sans-Serif" font-size="10.00">GameController::pauseGame</text>
</a>
</g>
</g>
<!-- Node2&#45;&gt;Node3 -->
<g id="edge2_Node000002_Node000003" class="edge">
<title>Node2&#45;&gt;Node3</title>
<g id="a_edge2_Node000002_Node000003"><a xlink:title=" ">
<path fill="none" stroke="#63b8ff" d="M1366.82,-249.72C1342.95,-262.8 1309.67,-278.64 1278,-285.54 1103.77,-323.47 888.97,-263.45 813.12,-239.08"/>
<polygon fill="#63b8ff" stroke="#63b8ff" points="1368.79,-252.62 1375.8,-244.68 1365.37,-246.52 1368.79,-252.62"/>
</a>
</g>
</g>
<!-- Node5 -->
<g id="Node000005" class="node">
<title>Node5</title>
<g id="a_Node000005"><a xlink:href="classGameController.html#af2367e58f03d8a1441c9a574967fd360" target="_top" xlink:title="Processes a single game turn/update cycle.">
<polygon fill="white" stroke="#666666" points="445,-201.04 258,-201.04 258,-182.04 445,-182.04 445,-201.04"/>
<text text-anchor="middle" x="351.5" y="-189.04" font-family="Helvetica,sans-Serif" font-size="10.00">GameController::processGameTurn</text>
</a>
</g>
</g>
<!-- Node2&#45;&gt;Node5 -->
<g id="edge7_Node000002_Node000005" class="edge">
<title>Node2&#45;&gt;Node5</title>
<g id="a_edge7_Node000002_Node000005"><a xlink:title=" ">
<path fill="none" stroke="#63b8ff" d="M1374.23,-250.9C1350.56,-268.9 1314.05,-293.72 1278,-306.54 1150.58,-351.83 1111.23,-343.54 976,-343.54 976,-343.54 976,-343.54 783,-343.54 611,-343.54 421.27,-234.32 367.45,-201.05"/>
<polygon fill="#63b8ff" stroke="#63b8ff" points="1376.58,-253.5 1382.34,-244.61 1372.29,-247.97 1376.58,-253.5"/>
</a>
</g>
</g>
<!-- Node8 -->
<g id="Node000008" class="node">
<title>Node8</title>
<g id="a_Node000008"><a xlink:href="classGameController.html#a85bcf4ecfd197aad278e116215a3717b" target="_top" xlink:title="Displays level completion screen.">
<polygon fill="white" stroke="#666666" points="860,-125.54 708,-125.54 708,-95.54 860,-95.54 860,-125.54"/>
<text text-anchor="start" x="716" y="-113.54" font-family="Helvetica,sans-Serif" font-size="10.00">GameController::showLevel</text>
<text text-anchor="middle" x="784" y="-102.54" font-family="Helvetica,sans-Serif" font-size="10.00">CompleteScreen</text>
</a>
</g>
</g>
<!-- Node2&#45;&gt;Node8 -->
<g id="edge8_Node000002_Node000008" class="edge">
<title>Node2&#45;&gt;Node8</title>
<g id="a_edge8_Node000002_Node000008"><a xlink:title=" ">
<path fill="none" stroke="#63b8ff" d="M1365.17,-209.51C1341.29,-196.89 1308.65,-181.36 1278,-172.54 1133.97,-131.07 958.35,-117.33 860.37,-112.78"/>
<polygon fill="#63b8ff" stroke="#63b8ff" points="1363.72,-212.71 1374.19,-214.36 1367.04,-206.54 1363.72,-212.71"/>
</a>
</g>
</g>
<!-- Node9 -->
<g id="Node000009" class="node">
<title>Node9</title>
<g id="a_Node000009"><a xlink:href="classGameController.html#a4a9c94fe33cf6c73bb5dfc415d04d309" target="_top" xlink:title="Displays map selection screen.">
<polygon fill="white" stroke="#666666" points="1278,-277.04 1087,-277.04 1087,-258.04 1278,-258.04 1278,-277.04"/>
<text text-anchor="middle" x="1182.5" y="-265.04" font-family="Helvetica,sans-Serif" font-size="10.00">GameController::showMapSelection</text>
</a>
</g>
</g>
<!-- Node2&#45;&gt;Node9 -->
<g id="edge10_Node000002_Node000009" class="edge">
<title>Node2&#45;&gt;Node9</title>
<g id="a_edge10_Node000002_Node000009"><a xlink:title=" ">
<path fill="none" stroke="#63b8ff" d="M1304.63,-246.33C1281.71,-250.34 1258.03,-254.49 1237.76,-258.04"/>
<polygon fill="#63b8ff" stroke="#63b8ff" points="1305.49,-249.73 1314.74,-244.56 1304.28,-242.83 1305.49,-249.73"/>
</a>
</g>
</g>
<!-- Node10 -->
<g id="Node000010" class="node">
<title>Node10</title>
<g id="a_Node000010"><a xlink:href="classGameController.html#a9d11b5a6255b7249bddba49df0837cf3" target="_top" xlink:title="Displays and manages the main menu.">
<polygon fill="white" stroke="#666666" points="1051,-201.04 899,-201.04 899,-182.04 1051,-182.04 1051,-201.04"/>
<text text-anchor="middle" x="975" y="-189.04" font-family="Helvetica,sans-Serif" font-size="10.00">GameController::showMenu</text>
</a>
</g>
</g>
<!-- Node2&#45;&gt;Node10 -->
<g id="edge18_Node000002_Node000010" class="edge">
<title>Node2&#45;&gt;Node10</title>
<g id="a_edge18_Node000002_Node000010"><a xlink:title=" ">
<path fill="none" stroke="#63b8ff" d="M1303.64,-225.79C1241.58,-222.79 1159.38,-217.7 1087,-209.54 1067.7,-207.36 1046.63,-204.16 1028.09,-201.05"/>
<polygon fill="#63b8ff" stroke="#63b8ff" points="1303.65,-229.29 1313.81,-226.27 1303.99,-222.3 1303.65,-229.29"/>
</a>
</g>
</g>
<!-- Node11 -->
<g id="Node000011" class="node">
<title>Node11</title>
<g id="a_Node000011"><a xlink:href="classGameController.html#a24f5cae258418d4a5934e6f412c28945" target="_top" xlink:title="Displays and manages the settings menu.">
<polygon fill="white" stroke="#666666" points="1265,-201.04 1100,-201.04 1100,-182.04 1265,-182.04 1265,-201.04"/>
<text text-anchor="middle" x="1182.5" y="-189.04" font-family="Helvetica,sans-Serif" font-size="10.00">GameController::showSettings</text>
</a>
</g>
</g>
<!-- Node2&#45;&gt;Node11 -->
<g id="edge19_Node000002_Node000011" class="edge">
<title>Node2&#45;&gt;Node11</title>
<g id="a_edge19_Node000002_Node000011"><a xlink:title=" ">
<path fill="none" stroke="#63b8ff" d="M1304.63,-212.75C1281.71,-208.74 1258.03,-204.59 1237.76,-201.04"/>
<polygon fill="#63b8ff" stroke="#63b8ff" points="1304.28,-216.24 1314.74,-214.52 1305.49,-209.35 1304.28,-216.24"/>
</a>
</g>
</g>
<!-- Node4 -->
<g id="Node000004" class="node">
<title>Node4</title>
<g id="a_Node000004"><a xlink:href="classGameController.html#a971b3d8f6296a74f0bebc83b5e79c186" target="_top" xlink:title="Processes a user command.">
<polygon fill="white" stroke="#666666" points="669,-220.04 481,-220.04 481,-201.04 669,-201.04 669,-220.04"/>
<text text-anchor="middle" x="575" y="-208.04" font-family="Helvetica,sans-Serif" font-size="10.00">GameController::processCommand</text>
</a>
</g>
</g>
<!-- Node3&#45;&gt;Node4 -->
<g id="edge3_Node000003_Node000004" class="edge">
<title>Node3&#45;&gt;Node4</title>
<g id="a_edge3_Node000003_Node000004"><a xlink:title=" ">
<path fill="none" stroke="#63b8ff" d="M694.62,-221.43C686.25,-220.66 677.75,-219.88 669.34,-219.1"/>
<polygon fill="#63b8ff" stroke="#63b8ff" points="694.46,-224.93 704.74,-222.35 695.1,-217.96 694.46,-224.93"/>
</a>
</g>
</g>
<!-- Node4&#45;&gt;Node5 -->
<g id="edge4_Node000004_Node000005" class="edge">
<title>Node4&#45;&gt;Node5</title>
<g id="a_edge4_Node000004_Node000005"><a xlink:title=" ">
<path fill="none" stroke="#63b8ff" d="M470.5,-201.66C462.1,-200.94 453.65,-200.21 445.33,-199.5"/>
<polygon fill="#63b8ff" stroke="#63b8ff" points="470.44,-205.17 480.71,-202.54 471.04,-198.19 470.44,-205.17"/>
</a>
</g>
</g>
<!-- Node6 -->
<g id="Node000006" class="node">
<title>Node6</title>
<g id="a_Node000006"><a xlink:href="classGameController.html#ac958989c8f7f08488546930e5fcb0d82" target="_top" xlink:title="Starts and runs the main game loop.">
<polygon fill="white" stroke="#666666" points="222,-182.04 77,-182.04 77,-163.04 222,-163.04 222,-182.04"/>
<text text-anchor="middle" x="149.5" y="-170.04" font-family="Helvetica,sans-Serif" font-size="10.00">GameController::runGame</text>
</a>
</g>
</g>
<!-- Node5&#45;&gt;Node6 -->
<g id="edge5_Node000005_Node000006" class="edge">
<title>Node5&#45;&gt;Node6</title>
<g id="a_edge5_Node000005_Node000006"><a xlink:title=" ">
<path fill="none" stroke="#63b8ff" d="M247.71,-181.77C239.1,-180.95 230.52,-180.14 222.22,-179.35"/>
<polygon fill="#63b8ff" stroke="#63b8ff" points="247.53,-185.27 257.82,-182.73 248.19,-178.3 247.53,-185.27"/>
</a>
</g>
</g>
<!-- Node7 -->
<g id="Node000007" class="node">
<title>Node7</title>
<g id="a_Node000007"><a xlink:href="main_8cpp.html#ae66f6b31b5ad750f1fe042a706a4e3d4" target="_top" xlink:title="Main function that serves as the application entry point.">
<polygon fill="white" stroke="#666666" points="41,-182.04 0,-182.04 0,-163.04 41,-163.04 41,-182.04"/>
<text text-anchor="middle" x="20.5" y="-170.04" font-family="Helvetica,sans-Serif" font-size="10.00">main</text>
</a>
</g>
</g>
<!-- Node6&#45;&gt;Node7 -->
<g id="edge6_Node000006_Node000007" class="edge">
<title>Node6&#45;&gt;Node7</title>
<g id="a_edge6_Node000006_Node000007"><a xlink:title=" ">
<path fill="none" stroke="#63b8ff" d="M66.79,-172.54C57.31,-172.54 48.43,-172.54 41.08,-172.54"/>
<polygon fill="#63b8ff" stroke="#63b8ff" points="66.83,-176.04 76.83,-172.54 66.83,-169.04 66.83,-176.04"/>
</a>
</g>
</g>
<!-- Node8&#45;&gt;Node5 -->
<g id="edge9_Node000008_Node000005" class="edge">
<title>Node8&#45;&gt;Node5</title>
<g id="a_edge9_Node000008_Node000005"><a xlink:title=" ">
<path fill="none" stroke="#63b8ff" d="M697.57,-126.61C609.69,-143.15 475.72,-168.35 403.27,-181.98"/>
<polygon fill="#63b8ff" stroke="#63b8ff" points="698.34,-130.03 707.52,-124.74 697.05,-123.15 698.34,-130.03"/>
</a>
</g>
</g>
<!-- Node9&#45;&gt;Node4 -->
<g id="edge11_Node000009_Node000004" class="edge">
<title>Node9&#45;&gt;Node4</title>
<g id="a_edge11_Node000009_Node000004"><a xlink:title=" ">
<path fill="none" stroke="#63b8ff" d="M1076.7,-270.24C979.67,-271.07 831.7,-268.07 705,-247.54 668.66,-241.65 628.04,-228.94 602.26,-220.06"/>
<polygon fill="#63b8ff" stroke="#63b8ff" points="1076.84,-273.74 1086.81,-270.14 1076.77,-266.74 1076.84,-273.74"/>
</a>
</g>
</g>
<!-- Node9&#45;&gt;Node10 -->
<g id="edge12_Node000009_Node000010" class="edge">
<title>Node9&#45;&gt;Node10</title>
<g id="a_edge12_Node000009_Node000010"><a xlink:title=" ">
<path fill="none" stroke="#63b8ff" d="M1155.94,-255C1136.7,-249.24 1109.83,-242.7 1087,-234.54 1059.95,-224.86 1030.56,-210.93 1008.82,-201.24"/>
<polygon fill="#63b8ff" stroke="#63b8ff" points="1154.92,-258.35 1165.51,-258.03 1157.03,-251.67 1154.92,-258.35"/>
</a>
</g>
</g>
<!-- Node10&#45;&gt;Node3 -->
<g id="edge13_Node000010_Node000003" class="edge">
<title>Node10&#45;&gt;Node3</title>
<g id="a_edge13_Node000010_Node000003"><a xlink:title=" ">
<path fill="none" stroke="#63b8ff" d="M916.26,-203.15C889.38,-208.55 857.8,-214.9 832.35,-220.02"/>
<polygon fill="#63b8ff" stroke="#63b8ff" points="917.19,-206.53 926.31,-201.13 915.81,-199.67 917.19,-206.53"/>
</a>
</g>
</g>
<!-- Node10&#45;&gt;Node4 -->
<g id="edge14_Node000010_Node000004" class="edge">
<title>Node10&#45;&gt;Node4</title>
<g id="a_edge14_Node000010_Node000004"><a xlink:title=" ">
<path fill="none" stroke="#63b8ff" d="M888.53,-195.62C824.02,-198.7 735.58,-202.92 669.25,-206.09"/>
<polygon fill="#63b8ff" stroke="#63b8ff" points="888.85,-199.11 898.67,-195.13 888.52,-192.11 888.85,-199.11"/>
</a>
</g>
</g>
<!-- Node10&#45;&gt;Node6 -->
<g id="edge15_Node000010_Node000006" class="edge">
<title>Node10&#45;&gt;Node6</title>
<g id="a_edge15_Node000010_Node000006"><a xlink:title=" ">
<path fill="none" stroke="#63b8ff" d="M888.5,-187.52C783.93,-182.83 601.51,-175.35 445,-172.54 368.96,-171.17 281.86,-171.39 222.22,-171.82"/>
<polygon fill="#63b8ff" stroke="#63b8ff" points="888.54,-191.03 898.69,-187.98 888.85,-184.03 888.54,-191.03"/>
</a>
</g>
</g>
<!-- Node10&#45;&gt;Node8 -->
<g id="edge16_Node000010_Node000008" class="edge">
<title>Node10&#45;&gt;Node8</title>
<g id="a_edge16_Node000010_Node000008"><a xlink:title=" ">
<path fill="none" stroke="#63b8ff" d="M925.49,-178.78C916.45,-175.63 907.26,-171.89 899,-167.54 881.07,-158.08 880.71,-149.41 863,-139.54 853.54,-134.26 842.92,-129.59 832.64,-125.62"/>
<polygon fill="#63b8ff" stroke="#63b8ff" points="924.59,-182.17 935.18,-181.95 926.77,-175.51 924.59,-182.17"/>
</a>
</g>
</g>
<!-- Node10&#45;&gt;Node9 -->
<g id="edge17_Node000010_Node000009" class="edge">
<title>Node10&#45;&gt;Node9</title>
<g id="a_edge17_Node000010_Node000009"><a xlink:title=" ">
<path fill="none" stroke="#63b8ff" d="M993.03,-207.05C1014.45,-221.06 1052.61,-240.24 1087,-252.54 1092.34,-254.45 1097.9,-256.27 1103.53,-257.97"/>
<polygon fill="#63b8ff" stroke="#63b8ff" points="994.88,-204.07 984.68,-201.2 990.86,-209.8 994.88,-204.07"/>
</a>
</g>
</g>
<!-- Node11&#45;&gt;Node10 -->
<g id="edge20_Node000011_Node000010" class="edge">
<title>Node11&#45;&gt;Node10</title>
<g id="a_edge20_Node000011_Node000010"><a xlink:title=" ">
<path fill="none" stroke="#63b8ff" d="M1089.69,-191.54C1076.78,-191.54 1063.63,-191.54 1051.07,-191.54"/>
<polygon fill="#63b8ff" stroke="#63b8ff" points="1089.99,-195.04 1099.99,-191.54 1089.99,-188.04 1089.99,-195.04"/>
</a>
</g>
</g>
<!-- Node12&#45;&gt;Node2 -->
<g id="edge22_Node000012_Node000002" class="edge">
<title>Node12&#45;&gt;Node2</title>
<g id="a_edge22_Node000012_Node000002"><a xlink:title=" ">
<path fill="none" stroke="#63b8ff" d="M1548.05,-198.25C1524.69,-203.27 1497.12,-209.19 1472.3,-214.53"/>
<polygon fill="#63b8ff" stroke="#63b8ff" points="1549.07,-201.6 1558.11,-196.08 1547.6,-194.76 1549.07,-201.6"/>
</a>
</g>
</g>
<!-- Node12&#45;&gt;Node9 -->
<g id="edge23_Node000012_Node000009" class="edge">
<title>Node12&#45;&gt;Node9</title>
<g id="a_edge23_Node000012_Node000009"><a xlink:title=" ">
<path fill="none" stroke="#63b8ff" d="M1514.5,-183.82C1456.64,-184.09 1379.76,-188.42 1314,-205.54 1269.82,-217.04 1222.5,-243.52 1198.83,-257.87"/>
<polygon fill="#63b8ff" stroke="#63b8ff" points="1514.71,-187.32 1524.71,-183.81 1514.71,-180.32 1514.71,-187.32"/>
</a>
</g>
</g>
<!-- Node12&#45;&gt;Node13 -->
<g id="edge24_Node000012_Node000013" class="edge">
<title>Node12&#45;&gt;Node13</title>
<g id="a_edge24_Node000012_Node000013"><a xlink:title=" ">
<path fill="none" stroke="#63b8ff" d="M1566.01,-173.58C1526.56,-159.58 1464.6,-137.58 1429.36,-125.07"/>
<polygon fill="#63b8ff" stroke="#63b8ff" points="1564.93,-176.92 1575.53,-176.96 1567.27,-170.32 1564.93,-176.92"/>
</a>
</g>
</g>
<!-- Node13&#45;&gt;Node3 -->
<g id="edge25_Node000013_Node000003" class="edge">
<title>Node13&#45;&gt;Node3</title>
<g id="a_edge25_Node000013_Node000003"><a xlink:title=" ">
<path fill="none" stroke="#63b8ff" d="M1305.01,-114.21C1202.06,-115.55 1034.71,-125.82 899,-172.54 862.18,-185.21 822.1,-207.4 800.65,-220.03"/>
<polygon fill="#63b8ff" stroke="#63b8ff" points="1305.11,-117.71 1315.07,-114.11 1305.04,-110.71 1305.11,-117.71"/>
</a>
</g>
</g>
<!-- Node13&#45;&gt;Node5 -->
<g id="edge26_Node000013_Node000005" class="edge">
<title>Node13&#45;&gt;Node5</title>
<g id="a_edge26_Node000013_Node000005"><a xlink:title=" ">
<path fill="none" stroke="#63b8ff" d="M1381.81,-99.26C1359.01,-80.41 1318.48,-50.1 1278,-35.54 1150.9,10.18 1111.07,-1.54 976,-1.54 976,-1.54 976,-1.54 783,-1.54 602.45,-1.54 412.8,-143.14 364.32,-181.85"/>
<polygon fill="#63b8ff" stroke="#63b8ff" points="1379.75,-102.09 1389.65,-105.86 1384.26,-96.74 1379.75,-102.09"/>
</a>
</g>
</g>
<!-- Node13&#45;&gt;Node8 -->
<g id="edge27_Node000013_Node000008" class="edge">
<title>Node13&#45;&gt;Node8</title>
<g id="a_edge27_Node000013_Node000008"><a xlink:title=" ">
<path fill="none" stroke="#63b8ff" d="M1374.9,-101.07C1350.78,-88.32 1313.18,-70.69 1278,-63.54 1112.94,-29.95 1064.23,-30.81 899,-63.54 868.34,-69.61 835.57,-84.04 813.07,-95.33"/>
<polygon fill="#63b8ff" stroke="#63b8ff" points="1373.3,-104.18 1383.76,-105.85 1376.63,-98.02 1373.3,-104.18"/>
</a>
</g>
</g>
<!-- Node13&#45;&gt;Node10 -->
<g id="edge28_Node000013_Node000010" class="edge">
<title>Node13&#45;&gt;Node10</title>
<g id="a_edge28_Node000013_Node000010"><a xlink:title=" ">
<path fill="none" stroke="#63b8ff" d="M1337.28,-126.86C1253.56,-141.84 1107.41,-168.01 1029.12,-182.03"/>
<polygon fill="#63b8ff" stroke="#63b8ff" points="1337.94,-130.29 1347.17,-125.09 1336.71,-123.4 1337.94,-130.29"/>
</a>
</g>
</g>
<!-- Node13&#45;&gt;Node11 -->
<g id="edge29_Node000013_Node000011" class="edge">
<title>Node13&#45;&gt;Node11</title>
<g id="a_edge29_Node000013_Node000011"><a xlink:title=" ">
<path fill="none" stroke="#63b8ff" d="M1363.41,-128.53C1320.07,-143.71 1249.36,-168.47 1210.76,-181.99"/>
<polygon fill="#63b8ff" stroke="#63b8ff" points="1364.74,-131.77 1373.02,-125.16 1362.42,-125.17 1364.74,-131.77"/>
</a>
</g>
</g>
</g>
</svg>
