<?xml version="1.0" encoding="UTF-8" standalone="no"?>
<!DOCTYPE svg PUBLIC "-//W3C//DTD SVG 1.1//EN"
 "http://www.w3.org/Graphics/SVG/1.1/DTD/svg11.dtd">
<!-- Generated by graphviz version 2.43.0 (0)
 -->
<!-- Title: EnemyTank::getPerpendicularDirection Pages: 1 -->
<svg width="882pt" height="38pt"
 viewBox="0.00 0.00 882.00 38.00" xmlns="http://www.w3.org/2000/svg" xmlns:xlink="http://www.w3.org/1999/xlink">
<g id="graph0" class="graph" transform="scale(1 1) rotate(0) translate(4 34)">
<title>EnemyTank::getPerpendicularDirection</title>
<!-- Node1 -->
<g id="Node000001" class="node">
<title>Node1</title>
<g id="a_Node000001"><a xlink:title="Gets perpendicular direction.">
<polygon fill="#999999" stroke="#666666" points="874,-30 713,-30 713,0 874,0 874,-30"/>
<text text-anchor="start" x="721" y="-18" font-family="Helvetica,sans-Serif" font-size="10.00">EnemyTank::getPerpendicular</text>
<text text-anchor="middle" x="793.5" y="-7" font-family="Helvetica,sans-Serif" font-size="10.00">Direction</text>
</a>
</g>
</g>
<!-- Node2 -->
<g id="Node000002" class="node">
<title>Node2</title>
<g id="a_Node000002"><a xlink:href="classEnemyTank.html#a3038987b5595e2ec68508dfde4a35d51" target="_top" xlink:title="Searches for cover.">
<polygon fill="white" stroke="#666666" points="677,-24.5 552,-24.5 552,-5.5 677,-5.5 677,-24.5"/>
<text text-anchor="middle" x="614.5" y="-12.5" font-family="Helvetica,sans-Serif" font-size="10.00">EnemyTank::findCover</text>
</a>
</g>
</g>
<!-- Node1&#45;&gt;Node2 -->
<g id="edge1_Node000001_Node000002" class="edge">
<title>Node1&#45;&gt;Node2</title>
<g id="a_edge1_Node000001_Node000002"><a xlink:title=" ">
<path fill="none" stroke="#63b8ff" d="M702.71,-15C694.1,-15 685.5,-15 677.25,-15"/>
<polygon fill="#63b8ff" stroke="#63b8ff" points="702.8,-18.5 712.8,-15 702.8,-11.5 702.8,-18.5"/>
</a>
</g>
</g>
<!-- Node3 -->
<g id="Node000003" class="node">
<title>Node3</title>
<g id="a_Node000003"><a xlink:href="classEnemyTank.html#a39add8a8beb8bb7b69124753ec2dae74" target="_top" xlink:title="Executes defensive behavior.">
<polygon fill="white" stroke="#666666" points="516,-24.5 346,-24.5 346,-5.5 516,-5.5 516,-24.5"/>
<text text-anchor="middle" x="431" y="-12.5" font-family="Helvetica,sans-Serif" font-size="10.00">EnemyTank::defensiveBehavior</text>
</a>
</g>
</g>
<!-- Node2&#45;&gt;Node3 -->
<g id="edge2_Node000002_Node000003" class="edge">
<title>Node2&#45;&gt;Node3</title>
<g id="a_edge2_Node000002_Node000003"><a xlink:title=" ">
<path fill="none" stroke="#63b8ff" d="M541.66,-15C533.25,-15 524.6,-15 516.03,-15"/>
<polygon fill="#63b8ff" stroke="#63b8ff" points="541.8,-18.5 551.8,-15 541.8,-11.5 541.8,-18.5"/>
</a>
</g>
</g>
<!-- Node4 -->
<g id="Node000004" class="node">
<title>Node4</title>
<g id="a_Node000004"><a xlink:href="classEnemyTank.html#a338556623afc739ebf5585caaa73fcdb" target="_top" xlink:title="Decides next action based on behavior.">
<polygon fill="white" stroke="#666666" points="310,-24.5 149,-24.5 149,-5.5 310,-5.5 310,-24.5"/>
<text text-anchor="middle" x="229.5" y="-12.5" font-family="Helvetica,sans-Serif" font-size="10.00">EnemyTank::decideNextMove</text>
</a>
</g>
</g>
<!-- Node3&#45;&gt;Node4 -->
<g id="edge3_Node000003_Node000004" class="edge">
<title>Node3&#45;&gt;Node4</title>
<g id="a_edge3_Node000003_Node000004"><a xlink:title=" ">
<path fill="none" stroke="#63b8ff" d="M335.94,-15C327.36,-15 318.73,-15 310.29,-15"/>
<polygon fill="#63b8ff" stroke="#63b8ff" points="335.97,-18.5 345.97,-15 335.97,-11.5 335.97,-18.5"/>
</a>
</g>
</g>
<!-- Node5 -->
<g id="Node000005" class="node">
<title>Node5</title>
<g id="a_Node000005"><a xlink:href="classEnemyTank.html#a7ae5efc6eff4e7a19abb7f37b44835fc" target="_top" xlink:title="Updates enemy tank state and AI decisions.">
<polygon fill="white" stroke="#666666" points="113,-24.5 0,-24.5 0,-5.5 113,-5.5 113,-24.5"/>
<text text-anchor="middle" x="56.5" y="-12.5" font-family="Helvetica,sans-Serif" font-size="10.00">EnemyTank::update</text>
</a>
</g>
</g>
<!-- Node4&#45;&gt;Node5 -->
<g id="edge4_Node000004_Node000005" class="edge">
<title>Node4&#45;&gt;Node5</title>
<g id="a_edge4_Node000004_Node000005"><a xlink:title=" ">
<path fill="none" stroke="#63b8ff" d="M138.6,-15C129.96,-15 121.38,-15 113.21,-15"/>
<polygon fill="#63b8ff" stroke="#63b8ff" points="138.76,-18.5 148.76,-15 138.76,-11.5 138.76,-18.5"/>
</a>
</g>
</g>
</g>
</svg>
