<?xml version="1.0" encoding="UTF-8" standalone="no"?>
<!DOCTYPE svg PUBLIC "-//W3C//DTD SVG 1.1//EN"
 "http://www.w3.org/Graphics/SVG/1.1/DTD/svg11.dtd">
<!-- Generated by graphviz version 2.43.0 (0)
 -->
<!-- Title: GameWorld::setState Pages: 1 -->
<!--zoomable 240 -->

<svg id="main" version="1.1" xmlns="http://www.w3.org/2000/svg" xmlns:xlink="http://www.w3.org/1999/xlink" xml:space="preserve" onload="init(evt)">
<style type="text/css"><![CDATA[
.node, .edge {opacity: 0.7;}
.node.selected, .edge.selected {opacity: 1;}
.edge:hover path { stroke: red; }
.edge:hover polygon { stroke: red; fill: red; }
]]></style>

<defs>
  <circle id="rim" cx="0" cy="0" r="7"/>
  <circle id="rim2" cx="0" cy="0" r="3.5"/>
  <g id="zoomPlus">
    <use xlink:href="#rim" fill="#404040"><set attributeName="fill" to="#808080" begin="zoomplus.mouseover" end="zoomplus.mouseout"/></use>
    <path d="M-4,0h8M0,-4v8" fill="none" stroke="white" stroke-width="1.5" pointer-events="none"/>
  </g>
  <g id="zoomMin">
    <use xlink:href="#rim" fill="#404040"><set attributeName="fill" to="#808080" begin="zoomminus.mouseover" end="zoomminus.mouseout"/></use>
    <path d="M-4,0h8" fill="none" stroke="white" stroke-width="1.5" pointer-events="none"/>
  </g>
  <g id="arrowUp" transform="translate(30 24)">
    <use xlink:href="#rim"/>
    <path pointer-events="none" fill="none" stroke="white" stroke-width="1.5" d="M0,-3.0v7 M-2.5,-0.5L0,-3.0L2.5,-0.5"/>
  </g>
  <g id="arrowRight" transform="rotate(90) translate(36 -43)">
    <use xlink:href="#rim"/>
    <path pointer-events="none" fill="none" stroke="white" stroke-width="1.5" d="M0,-3.0v7 M-2.5,-0.5L0,-3.0L2.5,-0.5"/>
  </g>
  <g id="arrowDown" transform="rotate(180) translate(-30 -48)">
    <use xlink:href="#rim"/>
    <path pointer-events="none" fill="none" stroke="white" stroke-width="1.5" d="M0,-3.0v7 M-2.5,-0.5L0,-3.0L2.5,-0.5"/>
  </g>
  <g id="arrowLeft" transform="rotate(270) translate(-36 17)">
    <use xlink:href="#rim"/>
    <path pointer-events="none" fill="none" stroke="white" stroke-width="1.5" d="M0,-3.0v7 M-2.5,-0.5L0,-3.0L2.5,-0.5"/>
  </g>
  <g id="resetDef">
    <use xlink:href="#rim2" fill="#404040"><set attributeName="fill" to="#808080" begin="reset.mouseover" end="reset.mouseout"/></use>
  </g>
</defs>
<script type="application/ecmascript">
var viewWidth = 1662;
var viewHeight = 240;
var sectionId = 'dynsection-54';
</script>
<script type="application/ecmascript" xlink:href="svg.min.js"/>
<svg id="graph" class="graph">
<g id="viewport">
<title>GameWorld::setState</title>
<!-- Node1 -->
<g id="Node000001" class="node">
<title>Node1</title>
<g id="a_Node000001"><a xlink:title="Sets current game state.">
<polygon fill="#999999" stroke="#666666" points="1654,-125.31 1534,-125.31 1534,-106.31 1654,-106.31 1654,-125.31"/>
<text text-anchor="middle" x="1594" y="-113.31" font-family="Helvetica,sans-Serif" font-size="10.00">GameWorld::setState</text>
</a>
</g>
</g>
<!-- Node2 -->
<g id="Node000002" class="node">
<title>Node2</title>
<g id="a_Node000002"><a xlink:href="classGameController.html#a4086fc466d91f45c41b2bc5df06af77a" target="_top" xlink:title="Loads the next game level.">
<polygon fill="white" stroke="#666666" points="1254.5,-49.81 1110.5,-49.81 1110.5,-19.81 1254.5,-19.81 1254.5,-49.81"/>
<text text-anchor="start" x="1118.5" y="-37.81" font-family="Helvetica,sans-Serif" font-size="10.00">GameController::loadNext</text>
<text text-anchor="middle" x="1182.5" y="-26.81" font-family="Helvetica,sans-Serif" font-size="10.00">Level</text>
</a>
</g>
</g>
<!-- Node1&#45;&gt;Node2 -->
<g id="edge1_Node000001_Node000002" class="edge">
<title>Node1&#45;&gt;Node2</title>
<g id="a_edge1_Node000001_Node000002"><a xlink:title=" ">
<path fill="none" stroke="#63b8ff" d="M1581.55,-97.6C1565.92,-74.66 1535.5,-36.34 1498,-20.81 1410.9,15.27 1298.38,-3.63 1234.25,-19.8"/>
<polygon fill="#63b8ff" stroke="#63b8ff" points="1578.73,-99.68 1587.15,-106.11 1584.58,-95.83 1578.73,-99.68"/>
</a>
</g>
</g>
<!-- Node7 -->
<g id="Node000007" class="node">
<title>Node7</title>
<g id="a_Node000007"><a xlink:href="classGameController.html#a09c76a5ae9b8f514163dafe31273f44f" target="_top" xlink:title="Loads the currently selected map.">
<polygon fill="white" stroke="#666666" points="1498,-49.31 1314,-49.31 1314,-30.31 1498,-30.31 1498,-49.31"/>
<text text-anchor="middle" x="1406" y="-37.31" font-family="Helvetica,sans-Serif" font-size="10.00">GameController::loadSelectedMap</text>
</a>
</g>
</g>
<!-- Node1&#45;&gt;Node7 -->
<g id="edge6_Node000001_Node000007" class="edge">
<title>Node1&#45;&gt;Node7</title>
<g id="a_edge6_Node000001_Node000007"><a xlink:title=" ">
<path fill="none" stroke="#63b8ff" d="M1569.36,-100.75C1550.6,-89.34 1523.4,-73.93 1498,-63.81 1483.43,-58 1466.99,-53.17 1452.13,-49.41"/>
<polygon fill="#63b8ff" stroke="#63b8ff" points="1567.75,-103.87 1578.09,-106.15 1571.43,-97.92 1567.75,-103.87"/>
</a>
</g>
</g>
<!-- Node8 -->
<g id="Node000008" class="node">
<title>Node8</title>
<g id="a_Node000008"><a xlink:href="classGameController.html#a4a9c94fe33cf6c73bb5dfc415d04d309" target="_top" xlink:title="Displays map selection screen.">
<polygon fill="white" stroke="#666666" points="1278,-87.31 1087,-87.31 1087,-68.31 1278,-68.31 1278,-87.31"/>
<text text-anchor="middle" x="1182.5" y="-75.31" font-family="Helvetica,sans-Serif" font-size="10.00">GameController::showMapSelection</text>
</a>
</g>
</g>
<!-- Node1&#45;&gt;Node8 -->
<g id="edge20_Node000001_Node000008" class="edge">
<title>Node1&#45;&gt;Node8</title>
<g id="a_edge20_Node000001_Node000008"><a xlink:title=" ">
<path fill="none" stroke="#63b8ff" d="M1541.59,-104.19C1527.52,-101.38 1512.23,-98.65 1498,-96.81 1424.5,-87.28 1340.69,-82.52 1278.09,-80.14"/>
<polygon fill="#63b8ff" stroke="#63b8ff" points="1541.09,-107.66 1551.59,-106.24 1542.49,-100.8 1541.09,-107.66"/>
</a>
</g>
</g>
<!-- Node9 -->
<g id="Node000009" class="node">
<title>Node9</title>
<g id="a_Node000009"><a xlink:href="classGameController.html#a971b3d8f6296a74f0bebc83b5e79c186" target="_top" xlink:title="Processes a user command.">
<polygon fill="white" stroke="#666666" points="669,-163.31 481,-163.31 481,-144.31 669,-144.31 669,-163.31"/>
<text text-anchor="middle" x="575" y="-151.31" font-family="Helvetica,sans-Serif" font-size="10.00">GameController::processCommand</text>
</a>
</g>
</g>
<!-- Node1&#45;&gt;Node9 -->
<g id="edge19_Node000001_Node000009" class="edge">
<title>Node1&#45;&gt;Node9</title>
<g id="a_edge19_Node000001_Node000009"><a xlink:title=" ">
<path fill="none" stroke="#63b8ff" d="M1574.54,-132.19C1556.39,-147.35 1527.22,-169.23 1498,-180.81 1366.49,-232.93 1324.96,-229.81 1183.5,-229.81 1183.5,-229.81 1183.5,-229.81 974,-229.81 854.15,-229.81 821.32,-239.68 705,-210.81 662.46,-200.25 616.34,-176.59 592.45,-163.31"/>
<polygon fill="#63b8ff" stroke="#63b8ff" points="1577.2,-134.52 1582.52,-125.36 1572.65,-129.2 1577.2,-134.52"/>
</a>
</g>
</g>
<!-- Node10 -->
<g id="Node000010" class="node">
<title>Node10</title>
<g id="a_Node000010"><a xlink:href="classGameController.html#a9d11b5a6255b7249bddba49df0837cf3" target="_top" xlink:title="Displays and manages the main menu.">
<polygon fill="white" stroke="#666666" points="1051,-125.31 899,-125.31 899,-106.31 1051,-106.31 1051,-125.31"/>
<text text-anchor="middle" x="975" y="-113.31" font-family="Helvetica,sans-Serif" font-size="10.00">GameController::showMenu</text>
</a>
</g>
</g>
<!-- Node1&#45;&gt;Node10 -->
<g id="edge21_Node000001_Node000010" class="edge">
<title>Node1&#45;&gt;Node10</title>
<g id="a_edge21_Node000001_Node000010"><a xlink:title=" ">
<path fill="none" stroke="#63b8ff" d="M1544.46,-127.43C1529.64,-130.46 1513.23,-133.3 1498,-134.81 1316.21,-152.81 1269.18,-143.27 1087,-129.81 1072.57,-128.74 1057.14,-127.11 1042.51,-125.33"/>
<polygon fill="#63b8ff" stroke="#63b8ff" points="1545.38,-130.82 1554.43,-125.32 1543.93,-123.97 1545.38,-130.82"/>
</a>
</g>
</g>
<!-- Node11 -->
<g id="Node000011" class="node">
<title>Node11</title>
<g id="a_Node000011"><a xlink:href="classGameController.html#a637ea4e72ed2be4a2884b30160b3e8ab" target="_top" xlink:title="Pauses the game and displays pause screen.">
<polygon fill="white" stroke="#666666" points="863,-201.31 705,-201.31 705,-182.31 863,-182.31 863,-201.31"/>
<text text-anchor="middle" x="784" y="-189.31" font-family="Helvetica,sans-Serif" font-size="10.00">GameController::pauseGame</text>
</a>
</g>
</g>
<!-- Node1&#45;&gt;Node11 -->
<g id="edge18_Node000001_Node000011" class="edge">
<title>Node1&#45;&gt;Node11</title>
<g id="a_edge18_Node000001_Node000011"><a xlink:title=" ">
<path fill="none" stroke="#63b8ff" d="M1564.6,-129.61C1546.1,-137.9 1521.17,-147.8 1498,-152.81 1271.42,-201.82 995.41,-200.04 863.09,-195.52"/>
<polygon fill="#63b8ff" stroke="#63b8ff" points="1566.29,-132.68 1573.91,-125.32 1563.36,-126.32 1566.29,-132.68"/>
</a>
</g>
</g>
<!-- Node12 -->
<g id="Node000012" class="node">
<title>Node12</title>
<g id="a_Node000012"><a xlink:href="classGameController.html#a24f5cae258418d4a5934e6f412c28945" target="_top" xlink:title="Displays and manages the settings menu.">
<polygon fill="white" stroke="#666666" points="1488.5,-125.31 1323.5,-125.31 1323.5,-106.31 1488.5,-106.31 1488.5,-125.31"/>
<text text-anchor="middle" x="1406" y="-113.31" font-family="Helvetica,sans-Serif" font-size="10.00">GameController::showSettings</text>
</a>
</g>
</g>
<!-- Node1&#45;&gt;Node12 -->
<g id="edge22_Node000001_Node000012" class="edge">
<title>Node1&#45;&gt;Node12</title>
<g id="a_edge22_Node000001_Node000012"><a xlink:title=" ">
<path fill="none" stroke="#63b8ff" d="M1523.61,-115.81C1512.24,-115.81 1500.36,-115.81 1488.72,-115.81"/>
<polygon fill="#63b8ff" stroke="#63b8ff" points="1523.89,-119.31 1533.89,-115.81 1523.89,-112.31 1523.89,-119.31"/>
</a>
</g>
</g>
<!-- Node3 -->
<g id="Node000003" class="node">
<title>Node3</title>
<g id="a_Node000003"><a xlink:href="classGameController.html#a85bcf4ecfd197aad278e116215a3717b" target="_top" xlink:title="Displays level completion screen.">
<polygon fill="white" stroke="#666666" points="860,-49.81 708,-49.81 708,-19.81 860,-19.81 860,-49.81"/>
<text text-anchor="start" x="716" y="-37.81" font-family="Helvetica,sans-Serif" font-size="10.00">GameController::showLevel</text>
<text text-anchor="middle" x="784" y="-26.81" font-family="Helvetica,sans-Serif" font-size="10.00">CompleteScreen</text>
</a>
</g>
</g>
<!-- Node2&#45;&gt;Node3 -->
<g id="edge2_Node000002_Node000003" class="edge">
<title>Node2&#45;&gt;Node3</title>
<g id="a_edge2_Node000002_Node000003"><a xlink:title=" ">
<path fill="none" stroke="#63b8ff" d="M1100,-34.81C1029.58,-34.81 928.65,-34.81 860.15,-34.81"/>
<polygon fill="#63b8ff" stroke="#63b8ff" points="1100.16,-38.31 1110.16,-34.81 1100.16,-31.31 1100.16,-38.31"/>
</a>
</g>
</g>
<!-- Node4 -->
<g id="Node000004" class="node">
<title>Node4</title>
<g id="a_Node000004"><a xlink:href="classGameController.html#af2367e58f03d8a1441c9a574967fd360" target="_top" xlink:title="Processes a single game turn/update cycle.">
<polygon fill="white" stroke="#666666" points="445,-87.31 258,-87.31 258,-68.31 445,-68.31 445,-87.31"/>
<text text-anchor="middle" x="351.5" y="-75.31" font-family="Helvetica,sans-Serif" font-size="10.00">GameController::processGameTurn</text>
</a>
</g>
</g>
<!-- Node3&#45;&gt;Node4 -->
<g id="edge3_Node000003_Node000004" class="edge">
<title>Node3&#45;&gt;Node4</title>
<g id="a_edge3_Node000003_Node000004"><a xlink:title=" ">
<path fill="none" stroke="#63b8ff" d="M697.45,-43.35C624.55,-50.63 520.01,-61.08 445.15,-68.55"/>
<polygon fill="#63b8ff" stroke="#63b8ff" points="697.92,-46.82 707.52,-42.35 697.22,-39.86 697.92,-46.82"/>
</a>
</g>
</g>
<!-- Node5 -->
<g id="Node000005" class="node">
<title>Node5</title>
<g id="a_Node000005"><a xlink:href="classGameController.html#ac958989c8f7f08488546930e5fcb0d82" target="_top" xlink:title="Starts and runs the main game loop.">
<polygon fill="white" stroke="#666666" points="222,-106.31 77,-106.31 77,-87.31 222,-87.31 222,-106.31"/>
<text text-anchor="middle" x="149.5" y="-94.31" font-family="Helvetica,sans-Serif" font-size="10.00">GameController::runGame</text>
</a>
</g>
</g>
<!-- Node4&#45;&gt;Node5 -->
<g id="edge4_Node000004_Node000005" class="edge">
<title>Node4&#45;&gt;Node5</title>
<g id="a_edge4_Node000004_Node000005"><a xlink:title=" ">
<path fill="none" stroke="#63b8ff" d="M247.71,-87.57C239.1,-88.39 230.52,-89.21 222.22,-89.99"/>
<polygon fill="#63b8ff" stroke="#63b8ff" points="248.19,-91.04 257.82,-86.61 247.53,-84.07 248.19,-91.04"/>
</a>
</g>
</g>
<!-- Node6 -->
<g id="Node000006" class="node">
<title>Node6</title>
<g id="a_Node000006"><a xlink:href="main_8cpp.html#ae66f6b31b5ad750f1fe042a706a4e3d4" target="_top" xlink:title="Main function that serves as the application entry point.">
<polygon fill="white" stroke="#666666" points="41,-106.31 0,-106.31 0,-87.31 41,-87.31 41,-106.31"/>
<text text-anchor="middle" x="20.5" y="-94.31" font-family="Helvetica,sans-Serif" font-size="10.00">main</text>
</a>
</g>
</g>
<!-- Node5&#45;&gt;Node6 -->
<g id="edge5_Node000005_Node000006" class="edge">
<title>Node5&#45;&gt;Node6</title>
<g id="a_edge5_Node000005_Node000006"><a xlink:title=" ">
<path fill="none" stroke="#63b8ff" d="M66.79,-96.81C57.31,-96.81 48.43,-96.81 41.08,-96.81"/>
<polygon fill="#63b8ff" stroke="#63b8ff" points="66.83,-100.31 76.83,-96.81 66.83,-93.31 66.83,-100.31"/>
</a>
</g>
</g>
<!-- Node7&#45;&gt;Node2 -->
<g id="edge7_Node000007_Node000002" class="edge">
<title>Node7&#45;&gt;Node2</title>
<g id="a_edge7_Node000007_Node000002"><a xlink:title=" ">
<path fill="none" stroke="#63b8ff" d="M1303.67,-37.52C1287.09,-37.15 1270.22,-36.77 1254.57,-36.41"/>
<polygon fill="#63b8ff" stroke="#63b8ff" points="1303.87,-41.03 1313.95,-37.75 1304.03,-34.03 1303.87,-41.03"/>
</a>
</g>
</g>
<!-- Node7&#45;&gt;Node8 -->
<g id="edge8_Node000007_Node000008" class="edge">
<title>Node7&#45;&gt;Node8</title>
<g id="a_edge8_Node000007_Node000008"><a xlink:title=" ">
<path fill="none" stroke="#63b8ff" d="M1339.27,-51.08C1307.41,-56.55 1269.55,-63.05 1239.13,-68.26"/>
<polygon fill="#63b8ff" stroke="#63b8ff" points="1340.13,-54.49 1349.39,-49.35 1338.94,-47.59 1340.13,-54.49"/>
</a>
</g>
</g>
<!-- Node8&#45;&gt;Node9 -->
<g id="edge9_Node000008_Node000009" class="edge">
<title>Node8&#45;&gt;Node9</title>
<g id="a_edge9_Node000008_Node000009"><a xlink:title=" ">
<path fill="none" stroke="#63b8ff" d="M1076.7,-82.82C1023.4,-85.89 957.65,-90.46 899,-96.81 812.33,-106.19 790.76,-110.11 705,-125.81 675.24,-131.26 641.88,-138.53 616.53,-144.3"/>
<polygon fill="#63b8ff" stroke="#63b8ff" points="1077.06,-86.31 1086.84,-82.25 1076.66,-79.32 1077.06,-86.31"/>
</a>
</g>
</g>
<!-- Node8&#45;&gt;Node10 -->
<g id="edge11_Node000008_Node000010" class="edge">
<title>Node8&#45;&gt;Node10</title>
<g id="a_edge11_Node000008_Node000010"><a xlink:title=" ">
<path fill="none" stroke="#63b8ff" d="M1083.6,-89.17C1053.55,-94.64 1022.94,-100.99 1002.09,-106.31"/>
<polygon fill="#63b8ff" stroke="#63b8ff" points="1084.53,-92.56 1093.75,-87.35 1083.29,-85.67 1084.53,-92.56"/>
</a>
</g>
</g>
<!-- Node9&#45;&gt;Node4 -->
<g id="edge10_Node000009_Node000004" class="edge">
<title>Node9&#45;&gt;Node4</title>
<g id="a_edge10_Node000009_Node000004"><a xlink:title=" ">
<path fill="none" stroke="#63b8ff" d="M536.42,-140.92C492.2,-125.74 419.81,-100.9 380.33,-87.36"/>
<polygon fill="#63b8ff" stroke="#63b8ff" points="535.35,-144.25 545.95,-144.18 537.62,-137.63 535.35,-144.25"/>
</a>
</g>
</g>
<!-- Node10&#45;&gt;Node3 -->
<g id="edge16_Node000010_Node000003" class="edge">
<title>Node10&#45;&gt;Node3</title>
<g id="a_edge16_Node000010_Node000003"><a xlink:title=" ">
<path fill="none" stroke="#63b8ff" d="M942.19,-102.17C908.44,-87.71 855.26,-64.92 820.25,-49.92"/>
<polygon fill="#63b8ff" stroke="#63b8ff" points="941.01,-105.48 951.58,-106.2 943.76,-99.04 941.01,-105.48"/>
</a>
</g>
</g>
<!-- Node10&#45;&gt;Node5 -->
<g id="edge15_Node000010_Node000005" class="edge">
<title>Node10&#45;&gt;Node5</title>
<g id="a_edge15_Node000010_Node000005"><a xlink:title=" ">
<path fill="none" stroke="#63b8ff" d="M888.28,-113.83C725.26,-110.07 373.37,-101.95 222.05,-98.46"/>
<polygon fill="#63b8ff" stroke="#63b8ff" points="888.66,-117.34 898.74,-114.07 888.82,-110.34 888.66,-117.34"/>
</a>
</g>
</g>
<!-- Node10&#45;&gt;Node8 -->
<g id="edge17_Node000010_Node000008" class="edge">
<title>Node10&#45;&gt;Node8</title>
<g id="a_edge17_Node000010_Node000008"><a xlink:title=" ">
<path fill="none" stroke="#63b8ff" d="M1061.32,-106.69C1095.01,-100.8 1131.28,-93.44 1155.06,-87.4"/>
<polygon fill="#63b8ff" stroke="#63b8ff" points="1060.69,-103.25 1051.43,-108.39 1061.88,-110.15 1060.69,-103.25"/>
</a>
</g>
</g>
<!-- Node10&#45;&gt;Node9 -->
<g id="edge14_Node000010_Node000009" class="edge">
<title>Node10&#45;&gt;Node9</title>
<g id="a_edge14_Node000010_Node000009"><a xlink:title=" ">
<path fill="none" stroke="#63b8ff" d="M891.98,-126.55C882.22,-127.71 872.39,-128.82 863,-129.81 798.35,-136.59 725.35,-142.67 669.16,-147.01"/>
<polygon fill="#63b8ff" stroke="#63b8ff" points="892.59,-130 902.1,-125.32 891.75,-123.05 892.59,-130"/>
</a>
</g>
</g>
<!-- Node10&#45;&gt;Node11 -->
<g id="edge12_Node000010_Node000011" class="edge">
<title>Node10&#45;&gt;Node11</title>
<g id="a_edge12_Node000010_Node000011"><a xlink:title=" ">
<path fill="none" stroke="#63b8ff" d="M946.34,-130.09C924.16,-141.21 892.05,-156.6 863,-167.81 849.12,-173.16 833.51,-178.16 819.91,-182.2"/>
<polygon fill="#63b8ff" stroke="#63b8ff" points="948.15,-133.09 955.49,-125.45 944.99,-126.85 948.15,-133.09"/>
</a>
</g>
</g>
<!-- Node11&#45;&gt;Node9 -->
<g id="edge13_Node000011_Node000009" class="edge">
<title>Node11&#45;&gt;Node9</title>
<g id="a_edge13_Node000011_Node000009"><a xlink:title=" ">
<path fill="none" stroke="#63b8ff" d="M721.19,-180.46C691.49,-175.01 656.29,-168.55 627.99,-163.35"/>
<polygon fill="#63b8ff" stroke="#63b8ff" points="720.56,-183.91 731.03,-182.27 721.83,-177.02 720.56,-183.91"/>
</a>
</g>
</g>
<!-- Node12&#45;&gt;Node10 -->
<g id="edge23_Node000012_Node000010" class="edge">
<title>Node12&#45;&gt;Node10</title>
<g id="a_edge23_Node000012_Node000010"><a xlink:title=" ">
<path fill="none" stroke="#63b8ff" d="M1312.98,-115.81C1234.88,-115.81 1124.2,-115.81 1051.29,-115.81"/>
<polygon fill="#63b8ff" stroke="#63b8ff" points="1313.3,-119.31 1323.3,-115.81 1313.3,-112.31 1313.3,-119.31"/>
</a>
</g>
</g>
</g>
</svg>

<g id="navigator" transform="translate(0 0)" fill="#404254">
  <rect fill="#f2f5e9" fill-opacity="0.5" stroke="#606060" stroke-width=".5" x="0" y="0" width="60" height="60"/>
  <use id="zoomplus" xlink:href="#zoomPlus" x="17" y="9" onmousedown="handleZoom(evt,'in')"/>
  <use id="zoomminus" xlink:href="#zoomMin" x="42" y="9" onmousedown="handleZoom(evt,'out')"/>
  <use id="reset" xlink:href="#resetDef" x="30" y="36" onmousedown="handleReset()"/>
   <use id="arrowup" xlink:href="#arrowUp" x="0" y="0" onmousedown="handlePan(0,-1)"/>
  <use id="arrowright" xlink:href="#arrowRight" x="0" y="0" onmousedown="handlePan(1,0)"/>
  <use id="arrowdown" xlink:href="#arrowDown" x="0" y="0" onmousedown="handlePan(0,1)"/>
  <use id="arrowleft" xlink:href="#arrowLeft" x="0" y="0" onmousedown="handlePan(-1,0)"/>
</g>
<svg viewBox="0 0 15 15" width="100%" height="30px" preserveAspectRatio="xMaxYMin meet">
 <g id="arrow_out" transform="scale(0.3 0.3)">
  <a xlink:href="classGameWorld_a0cfc65f0eb89ee76d777f6e2f76cb901_icgraph_org.svg" target="_base">
   <rect id="button" ry="5" rx="5" y="6" x="6" height="38" width="38"
        fill="#f2f5e9" fill-opacity="0.5" stroke="#606060" stroke-width="1.0"/>
   <path id="arrow"
     d="M 11.500037,31.436501 C 11.940474,20.09759 22.043105,11.32322 32.158766,21.979434 L 37.068811,17.246167 C 37.068811,17.246167 37.088388,32 37.088388,32 L 22.160133,31.978069 C 22.160133,31.978069 26.997745,27.140456 26.997745,27.140456 C 18.528582,18.264221 13.291696,25.230495 11.500037,31.436501 z"
     style="fill:#404040;"/>
  </a>
 </g>
</svg>

<style type='text/css'>
<![CDATA[
[data-mouse-over-selected='false'] { opacity: 0.7; }
[data-mouse-over-selected='true']  { opacity: 1.0; }
]]>
</style>
<script type="application/ecmascript"><![CDATA[
document.addEventListener('DOMContentLoaded', (event) => {
  highlightEdges();
  highlightAdjacentNodes();
});
]]></script>
</svg>
