<?xml version="1.0" encoding="UTF-8" standalone="no"?>
<!DOCTYPE svg PUBLIC "-//W3C//DTD SVG 1.1//EN"
 "http://www.w3.org/Graphics/SVG/1.1/DTD/svg11.dtd">
<!-- Generated by graphviz version 2.43.0 (0)
 -->
<!-- Title: Obstacle Pages: 1 -->
<svg width="90pt" height="149pt"
 viewBox="0.00 0.00 89.50 149.00" xmlns="http://www.w3.org/2000/svg" xmlns:xlink="http://www.w3.org/1999/xlink">
<g id="graph0" class="graph" transform="scale(1 1) rotate(0) translate(4 145)">
<title>Obstacle</title>
<!-- Node1 -->
<g id="Node000001" class="node">
<title>Node1</title>
<g id="a_Node000001"><a xlink:title="Base class for all environmental obstacles.">
<polygon fill="#999999" stroke="#666666" points="68,-19 9,-19 9,0 68,0 68,-19"/>
<text text-anchor="middle" x="38.5" y="-7" font-family="Helvetica,sans-Serif" font-size="10.00">Obstacle</text>
</a>
</g>
</g>
<!-- Node2 -->
<g id="Node000002" class="node">
<title>Node2</title>
<g id="a_Node000002"><a xlink:href="classGameObject.html" target="_top" xlink:title="Abstract base class for all game objects.">
<polygon fill="white" stroke="#666666" points="77,-75 0,-75 0,-56 77,-56 77,-75"/>
<text text-anchor="middle" x="38.5" y="-63" font-family="Helvetica,sans-Serif" font-size="10.00">GameObject</text>
</a>
</g>
</g>
<!-- Node2&#45;&gt;Node1 -->
<g id="edge1_Node000001_Node000002" class="edge">
<title>Node2&#45;&gt;Node1</title>
<g id="a_edge1_Node000001_Node000002"><a xlink:title=" ">
<path fill="none" stroke="#63b8ff" d="M38.5,-45.3C38.5,-36.41 38.5,-26.28 38.5,-19.25"/>
<polygon fill="#63b8ff" stroke="#63b8ff" points="35,-45.58 38.5,-55.58 42,-45.58 35,-45.58"/>
</a>
</g>
</g>
<!-- Node3 -->
<g id="Node000003" class="node">
<title>Node3</title>
<g id="a_Node000003"><a xlink:href="structPoint.html" target="_top" xlink:title="Structure representing a 2D point with integer coordinates.">
<polygon fill="white" stroke="#666666" points="59,-141 18,-141 18,-122 59,-122 59,-141"/>
<text text-anchor="middle" x="38.5" y="-129" font-family="Helvetica,sans-Serif" font-size="10.00">Point</text>
</a>
</g>
</g>
<!-- Node3&#45;&gt;Node2 -->
<g id="edge2_Node000002_Node000003" class="edge">
<title>Node3&#45;&gt;Node2</title>
<g id="a_edge2_Node000002_Node000003"><a xlink:title=" ">
<path fill="none" stroke="#9a32cd" stroke-dasharray="5,2" d="M38.5,-111.58C38.5,-99.63 38.5,-84.72 38.5,-75.41"/>
<polygon fill="#9a32cd" stroke="#9a32cd" points="35,-111.87 38.5,-121.87 42,-111.87 35,-111.87"/>
</a>
</g>
<text text-anchor="middle" x="60" y="-96" font-family="Helvetica,sans-Serif" font-size="10.00" fill="grey"> position</text>
</g>
</g>
</svg>
