<?xml version="1.0" encoding="UTF-8" standalone="no"?>
<!DOCTYPE svg PUBLIC "-//W3C//DTD SVG 1.1//EN"
 "http://www.w3.org/Graphics/SVG/1.1/DTD/svg11.dtd">
<!-- Generated by graphviz version 2.43.0 (0)
 -->
<!-- Title: PlayerTank::getLives Pages: 1 -->
<!--zoomable 229 -->

<svg id="main" version="1.1" xmlns="http://www.w3.org/2000/svg" xmlns:xlink="http://www.w3.org/1999/xlink" xml:space="preserve" onload="init(evt)">
<style type="text/css"><![CDATA[
.node, .edge {opacity: 0.7;}
.node.selected, .edge.selected {opacity: 1;}
.edge:hover path { stroke: red; }
.edge:hover polygon { stroke: red; fill: red; }
]]></style>

<defs>
  <circle id="rim" cx="0" cy="0" r="7"/>
  <circle id="rim2" cx="0" cy="0" r="3.5"/>
  <g id="zoomPlus">
    <use xlink:href="#rim" fill="#404040"><set attributeName="fill" to="#808080" begin="zoomplus.mouseover" end="zoomplus.mouseout"/></use>
    <path d="M-4,0h8M0,-4v8" fill="none" stroke="white" stroke-width="1.5" pointer-events="none"/>
  </g>
  <g id="zoomMin">
    <use xlink:href="#rim" fill="#404040"><set attributeName="fill" to="#808080" begin="zoomminus.mouseover" end="zoomminus.mouseout"/></use>
    <path d="M-4,0h8" fill="none" stroke="white" stroke-width="1.5" pointer-events="none"/>
  </g>
  <g id="arrowUp" transform="translate(30 24)">
    <use xlink:href="#rim"/>
    <path pointer-events="none" fill="none" stroke="white" stroke-width="1.5" d="M0,-3.0v7 M-2.5,-0.5L0,-3.0L2.5,-0.5"/>
  </g>
  <g id="arrowRight" transform="rotate(90) translate(36 -43)">
    <use xlink:href="#rim"/>
    <path pointer-events="none" fill="none" stroke="white" stroke-width="1.5" d="M0,-3.0v7 M-2.5,-0.5L0,-3.0L2.5,-0.5"/>
  </g>
  <g id="arrowDown" transform="rotate(180) translate(-30 -48)">
    <use xlink:href="#rim"/>
    <path pointer-events="none" fill="none" stroke="white" stroke-width="1.5" d="M0,-3.0v7 M-2.5,-0.5L0,-3.0L2.5,-0.5"/>
  </g>
  <g id="arrowLeft" transform="rotate(270) translate(-36 17)">
    <use xlink:href="#rim"/>
    <path pointer-events="none" fill="none" stroke="white" stroke-width="1.5" d="M0,-3.0v7 M-2.5,-0.5L0,-3.0L2.5,-0.5"/>
  </g>
  <g id="resetDef">
    <use xlink:href="#rim2" fill="#404040"><set attributeName="fill" to="#808080" begin="reset.mouseover" end="reset.mouseout"/></use>
  </g>
</defs>
<script type="application/ecmascript">
var viewWidth = 1886;
var viewHeight = 229;
var sectionId = 'dynsection-7';
</script>
<script type="application/ecmascript" xlink:href="svg.min.js"/>
<svg id="graph" class="graph">
<g id="viewport">
<title>PlayerTank::getLives</title>
<!-- Node1 -->
<g id="Node000001" class="node">
<title>Node1</title>
<g id="a_Node000001"><a xlink:title="Gets number of remaining lives.">
<polygon fill="#999999" stroke="#666666" points="1878,-164.09 1761,-164.09 1761,-145.09 1878,-145.09 1878,-164.09"/>
<text text-anchor="middle" x="1819.5" y="-152.09" font-family="Helvetica,sans-Serif" font-size="10.00">PlayerTank::getLives</text>
</a>
</g>
</g>
<!-- Node2 -->
<g id="Node000002" class="node">
<title>Node2</title>
<g id="a_Node000002"><a xlink:href="classMapManager.html#ac1472dad9f9391e45fafadef9c30c1ab" target="_top" xlink:title="Creates game world from map layout.">
<polygon fill="white" stroke="#666666" points="1725,-107.09 1534,-107.09 1534,-88.09 1725,-88.09 1725,-107.09"/>
<text text-anchor="middle" x="1629.5" y="-95.09" font-family="Helvetica,sans-Serif" font-size="10.00">MapManager::createWorldFromMap</text>
</a>
</g>
</g>
<!-- Node1&#45;&gt;Node2 -->
<g id="edge1_Node000001_Node000002" class="edge">
<title>Node1&#45;&gt;Node2</title>
<g id="a_edge1_Node000001_Node000002"><a xlink:title=" ">
<path fill="none" stroke="#63b8ff" d="M1783.54,-141.4C1766.08,-135.04 1744.56,-127.51 1725,-121.59 1707.67,-116.34 1688.31,-111.29 1671.66,-107.18"/>
<polygon fill="#63b8ff" stroke="#63b8ff" points="1782.71,-144.83 1793.31,-145 1785.13,-138.26 1782.71,-144.83"/>
</a>
</g>
</g>
<!-- Node3 -->
<g id="Node000003" class="node">
<title>Node3</title>
<g id="a_Node000003"><a xlink:href="classGameController.html#a09c76a5ae9b8f514163dafe31273f44f" target="_top" xlink:title="Loads the currently selected map.">
<polygon fill="white" stroke="#666666" points="1498,-123.09 1314,-123.09 1314,-104.09 1498,-104.09 1498,-123.09"/>
<text text-anchor="middle" x="1406" y="-111.09" font-family="Helvetica,sans-Serif" font-size="10.00">GameController::loadSelectedMap</text>
</a>
</g>
</g>
<!-- Node1&#45;&gt;Node3 -->
<g id="edge18_Node000001_Node000003" class="edge">
<title>Node1&#45;&gt;Node3</title>
<g id="a_edge18_Node000001_Node000003"><a xlink:title=" ">
<path fill="none" stroke="#63b8ff" d="M1750.55,-147.82C1681.65,-140.95 1574.59,-130.29 1498.31,-122.69"/>
<polygon fill="#63b8ff" stroke="#63b8ff" points="1750.55,-151.34 1760.85,-148.85 1751.25,-144.37 1750.55,-151.34"/>
</a>
</g>
</g>
<!-- Node5 -->
<g id="Node000005" class="node">
<title>Node5</title>
<g id="a_Node000005"><a xlink:href="classGameController.html#a85bcf4ecfd197aad278e116215a3717b" target="_top" xlink:title="Displays level completion screen.">
<polygon fill="white" stroke="#666666" points="860,-145.59 708,-145.59 708,-115.59 860,-115.59 860,-145.59"/>
<text text-anchor="start" x="716" y="-133.59" font-family="Helvetica,sans-Serif" font-size="10.00">GameController::showLevel</text>
<text text-anchor="middle" x="784" y="-122.59" font-family="Helvetica,sans-Serif" font-size="10.00">CompleteScreen</text>
</a>
</g>
</g>
<!-- Node1&#45;&gt;Node5 -->
<g id="edge21_Node000001_Node000005" class="edge">
<title>Node1&#45;&gt;Node5</title>
<g id="a_edge21_Node000001_Node000005"><a xlink:title=" ">
<path fill="none" stroke="#63b8ff" d="M1750.83,-159.63C1669.32,-165.26 1528.22,-173.59 1407,-173.59 1407,-173.59 1407,-173.59 1181.5,-173.59 1055.66,-173.59 1023.65,-171.82 899,-154.59 882.57,-152.32 864.97,-149.04 848.63,-145.63"/>
<polygon fill="#63b8ff" stroke="#63b8ff" points="1751.22,-163.11 1760.95,-158.92 1750.73,-156.13 1751.22,-163.11"/>
</a>
</g>
</g>
<!-- Node13 -->
<g id="Node000013" class="node">
<title>Node13</title>
<g id="a_Node000013"><a xlink:href="classConsoleRenderer.html#ab34fa7af4ede79de3951f1d5271d7a27" target="_top" xlink:title="Renders the game world to console.">
<polygon fill="white" stroke="#666666" points="1474.5,-221.09 1337.5,-221.09 1337.5,-202.09 1474.5,-202.09 1474.5,-221.09"/>
<text text-anchor="middle" x="1406" y="-209.09" font-family="Helvetica,sans-Serif" font-size="10.00">ConsoleRenderer::render</text>
</a>
</g>
</g>
<!-- Node1&#45;&gt;Node13 -->
<g id="edge19_Node000001_Node000013" class="edge">
<title>Node1&#45;&gt;Node13</title>
<g id="a_edge19_Node000001_Node000013"><a xlink:title=" ">
<path fill="none" stroke="#63b8ff" d="M1787.31,-167.93C1769.41,-174.99 1746.32,-183.1 1725,-187.59 1639.94,-205.48 1539.61,-210.45 1474.73,-211.62"/>
<polygon fill="#63b8ff" stroke="#63b8ff" points="1788.72,-171.13 1796.68,-164.14 1786.1,-164.64 1788.72,-171.13"/>
</a>
</g>
</g>
<!-- Node2&#45;&gt;Node3 -->
<g id="edge2_Node000002_Node000003" class="edge">
<title>Node2&#45;&gt;Node3</title>
<g id="a_edge2_Node000002_Node000003"><a xlink:title=" ">
<path fill="none" stroke="#63b8ff" d="M1523.85,-105.15C1515.25,-105.77 1506.59,-106.4 1498.1,-107.01"/>
<polygon fill="#63b8ff" stroke="#63b8ff" points="1524.2,-108.63 1533.92,-104.42 1523.7,-101.65 1524.2,-108.63"/>
</a>
</g>
</g>
<!-- Node4 -->
<g id="Node000004" class="node">
<title>Node4</title>
<g id="a_Node000004"><a xlink:href="classGameController.html#a4086fc466d91f45c41b2bc5df06af77a" target="_top" xlink:title="Loads the next game level.">
<polygon fill="white" stroke="#666666" points="1047,-145.59 903,-145.59 903,-115.59 1047,-115.59 1047,-145.59"/>
<text text-anchor="start" x="911" y="-133.59" font-family="Helvetica,sans-Serif" font-size="10.00">GameController::loadNext</text>
<text text-anchor="middle" x="975" y="-122.59" font-family="Helvetica,sans-Serif" font-size="10.00">Level</text>
</a>
</g>
</g>
<!-- Node3&#45;&gt;Node4 -->
<g id="edge3_Node000003_Node000004" class="edge">
<title>Node3&#45;&gt;Node4</title>
<g id="a_edge3_Node000003_Node000004"><a xlink:title=" ">
<path fill="none" stroke="#63b8ff" d="M1303.31,-117.62C1224.46,-120.74 1117.18,-124.99 1047.27,-127.77"/>
<polygon fill="#63b8ff" stroke="#63b8ff" points="1303.9,-121.1 1313.76,-117.2 1303.63,-114.1 1303.9,-121.1"/>
</a>
</g>
</g>
<!-- Node9 -->
<g id="Node000009" class="node">
<title>Node9</title>
<g id="a_Node000009"><a xlink:href="classGameController.html#a4a9c94fe33cf6c73bb5dfc415d04d309" target="_top" xlink:title="Displays map selection screen.">
<polygon fill="white" stroke="#666666" points="1278,-76.09 1087,-76.09 1087,-57.09 1278,-57.09 1278,-76.09"/>
<text text-anchor="middle" x="1182.5" y="-64.09" font-family="Helvetica,sans-Serif" font-size="10.00">GameController::showMapSelection</text>
</a>
</g>
</g>
<!-- Node3&#45;&gt;Node9 -->
<g id="edge8_Node000003_Node000009" class="edge">
<title>Node3&#45;&gt;Node9</title>
<g id="a_edge8_Node000003_Node000009"><a xlink:title=" ">
<path fill="none" stroke="#63b8ff" d="M1349.96,-101.91C1312.57,-93.98 1263.73,-83.61 1228.64,-76.17"/>
<polygon fill="#63b8ff" stroke="#63b8ff" points="1349.67,-105.43 1360.18,-104.08 1351.12,-98.58 1349.67,-105.43"/>
</a>
</g>
</g>
<!-- Node4&#45;&gt;Node5 -->
<g id="edge4_Node000004_Node000005" class="edge">
<title>Node4&#45;&gt;Node5</title>
<g id="a_edge4_Node000004_Node000005"><a xlink:title=" ">
<path fill="none" stroke="#63b8ff" d="M892.6,-130.59C881.84,-130.59 870.86,-130.59 860.22,-130.59"/>
<polygon fill="#63b8ff" stroke="#63b8ff" points="892.82,-134.09 902.82,-130.59 892.82,-127.09 892.82,-134.09"/>
</a>
</g>
</g>
<!-- Node6 -->
<g id="Node000006" class="node">
<title>Node6</title>
<g id="a_Node000006"><a xlink:href="classGameController.html#af2367e58f03d8a1441c9a574967fd360" target="_top" xlink:title="Processes a single game turn/update cycle.">
<polygon fill="white" stroke="#666666" points="445,-109.09 258,-109.09 258,-90.09 445,-90.09 445,-109.09"/>
<text text-anchor="middle" x="351.5" y="-97.09" font-family="Helvetica,sans-Serif" font-size="10.00">GameController::processGameTurn</text>
</a>
</g>
</g>
<!-- Node5&#45;&gt;Node6 -->
<g id="edge5_Node000005_Node000006" class="edge">
<title>Node5&#45;&gt;Node6</title>
<g id="a_edge5_Node000005_Node000006"><a xlink:title=" ">
<path fill="none" stroke="#63b8ff" d="M697.45,-124.43C624.55,-119.18 520.01,-111.65 445.15,-106.26"/>
<polygon fill="#63b8ff" stroke="#63b8ff" points="697.29,-127.93 707.52,-125.15 697.8,-120.94 697.29,-127.93"/>
</a>
</g>
</g>
<!-- Node7 -->
<g id="Node000007" class="node">
<title>Node7</title>
<g id="a_Node000007"><a xlink:href="classGameController.html#ac958989c8f7f08488546930e5fcb0d82" target="_top" xlink:title="Starts and runs the main game loop.">
<polygon fill="white" stroke="#666666" points="222,-21.09 77,-21.09 77,-2.09 222,-2.09 222,-21.09"/>
<text text-anchor="middle" x="149.5" y="-9.09" font-family="Helvetica,sans-Serif" font-size="10.00">GameController::runGame</text>
</a>
</g>
</g>
<!-- Node6&#45;&gt;Node7 -->
<g id="edge6_Node000006_Node000007" class="edge">
<title>Node6&#45;&gt;Node7</title>
<g id="a_edge6_Node000006_Node000007"><a xlink:title=" ">
<path fill="none" stroke="#63b8ff" d="M319.5,-85.95C278.66,-67.98 207.86,-36.83 172.26,-21.16"/>
<polygon fill="#63b8ff" stroke="#63b8ff" points="318.15,-89.18 328.72,-90 320.97,-82.77 318.15,-89.18"/>
</a>
</g>
</g>
<!-- Node8 -->
<g id="Node000008" class="node">
<title>Node8</title>
<g id="a_Node000008"><a xlink:href="main_8cpp.html#ae66f6b31b5ad750f1fe042a706a4e3d4" target="_top" xlink:title="Main function that serves as the application entry point.">
<polygon fill="white" stroke="#666666" points="41,-21.09 0,-21.09 0,-2.09 41,-2.09 41,-21.09"/>
<text text-anchor="middle" x="20.5" y="-9.09" font-family="Helvetica,sans-Serif" font-size="10.00">main</text>
</a>
</g>
</g>
<!-- Node7&#45;&gt;Node8 -->
<g id="edge7_Node000007_Node000008" class="edge">
<title>Node7&#45;&gt;Node8</title>
<g id="a_edge7_Node000007_Node000008"><a xlink:title=" ">
<path fill="none" stroke="#63b8ff" d="M66.79,-11.59C57.31,-11.59 48.43,-11.59 41.08,-11.59"/>
<polygon fill="#63b8ff" stroke="#63b8ff" points="66.83,-15.09 76.83,-11.59 66.83,-8.09 66.83,-15.09"/>
</a>
</g>
</g>
<!-- Node10 -->
<g id="Node000010" class="node">
<title>Node10</title>
<g id="a_Node000010"><a xlink:href="classGameController.html#a971b3d8f6296a74f0bebc83b5e79c186" target="_top" xlink:title="Processes a user command.">
<polygon fill="white" stroke="#666666" points="669,-69.09 481,-69.09 481,-50.09 669,-50.09 669,-69.09"/>
<text text-anchor="middle" x="575" y="-57.09" font-family="Helvetica,sans-Serif" font-size="10.00">GameController::processCommand</text>
</a>
</g>
</g>
<!-- Node9&#45;&gt;Node10 -->
<g id="edge9_Node000009_Node000010" class="edge">
<title>Node9&#45;&gt;Node10</title>
<g id="a_edge9_Node000009_Node000010"><a xlink:title=" ">
<path fill="none" stroke="#63b8ff" d="M1076.94,-68.79C980.38,-70.36 832.98,-71.55 705,-67.59 693.45,-67.23 681.33,-66.69 669.33,-66.06"/>
<polygon fill="#63b8ff" stroke="#63b8ff" points="1077.06,-72.29 1087,-68.63 1076.94,-65.29 1077.06,-72.29"/>
</a>
</g>
</g>
<!-- Node11 -->
<g id="Node000011" class="node">
<title>Node11</title>
<g id="a_Node000011"><a xlink:href="classGameController.html#a9d11b5a6255b7249bddba49df0837cf3" target="_top" xlink:title="Displays and manages the main menu.">
<polygon fill="white" stroke="#666666" points="1051,-59.09 899,-59.09 899,-40.09 1051,-40.09 1051,-59.09"/>
<text text-anchor="middle" x="975" y="-47.09" font-family="Helvetica,sans-Serif" font-size="10.00">GameController::showMenu</text>
</a>
</g>
</g>
<!-- Node9&#45;&gt;Node11 -->
<g id="edge11_Node000009_Node000011" class="edge">
<title>Node9&#45;&gt;Node11</title>
<g id="a_edge11_Node000009_Node000011"><a xlink:title=" ">
<path fill="none" stroke="#63b8ff" d="M1125.42,-55.86C1102.53,-53.27 1075.72,-50.91 1051.17,-49.28"/>
<polygon fill="#63b8ff" stroke="#63b8ff" points="1125.3,-59.37 1135.64,-57.07 1126.12,-52.42 1125.3,-59.37"/>
</a>
</g>
</g>
<!-- Node10&#45;&gt;Node6 -->
<g id="edge10_Node000010_Node000006" class="edge">
<title>Node10&#45;&gt;Node6</title>
<g id="a_edge10_Node000010_Node000006"><a xlink:title=" ">
<path fill="none" stroke="#63b8ff" d="M511.1,-70.95C477.66,-76.99 437.02,-84.33 405.25,-90.06"/>
<polygon fill="#63b8ff" stroke="#63b8ff" points="512.01,-74.34 521.23,-69.12 510.76,-67.45 512.01,-74.34"/>
</a>
</g>
</g>
<!-- Node11&#45;&gt;Node5 -->
<g id="edge16_Node000011_Node000005" class="edge">
<title>Node11&#45;&gt;Node5</title>
<g id="a_edge16_Node000011_Node000005"><a xlink:title=" ">
<path fill="none" stroke="#63b8ff" d="M942.19,-63.22C908.44,-77.69 855.26,-100.48 820.25,-115.48"/>
<polygon fill="#63b8ff" stroke="#63b8ff" points="943.76,-66.36 951.58,-59.2 941.01,-59.92 943.76,-66.36"/>
</a>
</g>
</g>
<!-- Node11&#45;&gt;Node7 -->
<g id="edge15_Node000011_Node000007" class="edge">
<title>Node11&#45;&gt;Node7</title>
<g id="a_edge15_Node000011_Node000007"><a xlink:title=" ">
<path fill="none" stroke="#63b8ff" d="M934.38,-37.2C913.39,-31.26 887.05,-24.75 863,-21.59 630.26,8.97 351.09,-0.28 222.19,-7.11"/>
<polygon fill="#63b8ff" stroke="#63b8ff" points="933.64,-40.63 944.22,-40.06 935.59,-33.91 933.64,-40.63"/>
</a>
</g>
</g>
<!-- Node11&#45;&gt;Node9 -->
<g id="edge17_Node000011_Node000009" class="edge">
<title>Node11&#45;&gt;Node9</title>
<g id="a_edge17_Node000011_Node000009"><a xlink:title=" ">
<path fill="none" stroke="#63b8ff" d="M1032.04,-60.31C1049,-62.23 1068.11,-64.03 1086.87,-65.49"/>
<polygon fill="#63b8ff" stroke="#63b8ff" points="1032.12,-56.8 1021.78,-59.1 1031.3,-63.75 1032.12,-56.8"/>
</a>
</g>
</g>
<!-- Node11&#45;&gt;Node10 -->
<g id="edge14_Node000011_Node000010" class="edge">
<title>Node11&#45;&gt;Node10</title>
<g id="a_edge14_Node000011_Node000010"><a xlink:title=" ">
<path fill="none" stroke="#63b8ff" d="M918.69,-38.22C900.98,-35.1 881.24,-32.14 863,-30.59 793.03,-24.64 774.79,-22.84 705,-30.59 671.92,-34.26 634.93,-43.08 609.07,-50.03"/>
<polygon fill="#63b8ff" stroke="#63b8ff" points="918.39,-41.73 928.86,-40.08 919.65,-34.84 918.39,-41.73"/>
</a>
</g>
</g>
<!-- Node12 -->
<g id="Node000012" class="node">
<title>Node12</title>
<g id="a_Node000012"><a xlink:href="classGameController.html#a637ea4e72ed2be4a2884b30160b3e8ab" target="_top" xlink:title="Pauses the game and displays pause screen.">
<polygon fill="white" stroke="#666666" points="863,-59.09 705,-59.09 705,-40.09 863,-40.09 863,-59.09"/>
<text text-anchor="middle" x="784" y="-47.09" font-family="Helvetica,sans-Serif" font-size="10.00">GameController::pauseGame</text>
</a>
</g>
</g>
<!-- Node11&#45;&gt;Node12 -->
<g id="edge12_Node000011_Node000012" class="edge">
<title>Node11&#45;&gt;Node12</title>
<g id="a_edge12_Node000011_Node000012"><a xlink:title=" ">
<path fill="none" stroke="#63b8ff" d="M888.5,-49.59C880.03,-49.59 871.46,-49.59 863.08,-49.59"/>
<polygon fill="#63b8ff" stroke="#63b8ff" points="888.76,-53.09 898.76,-49.59 888.76,-46.09 888.76,-53.09"/>
</a>
</g>
</g>
<!-- Node12&#45;&gt;Node10 -->
<g id="edge13_Node000012_Node000010" class="edge">
<title>Node12&#45;&gt;Node10</title>
<g id="a_edge13_Node000012_Node000010"><a xlink:title=" ">
<path fill="none" stroke="#63b8ff" d="M694.62,-53.86C686.25,-54.26 677.75,-54.67 669.34,-55.08"/>
<polygon fill="#63b8ff" stroke="#63b8ff" points="694.92,-57.35 704.74,-53.37 694.58,-50.36 694.92,-57.35"/>
</a>
</g>
</g>
<!-- Node13&#45;&gt;Node6 -->
<g id="edge20_Node000013_Node000006" class="edge">
<title>Node13&#45;&gt;Node6</title>
<g id="a_edge20_Node000013_Node000006"><a xlink:title=" ">
<path fill="none" stroke="#63b8ff" d="M1327.19,-211.59C1241.24,-211.59 1098.74,-211.59 976,-211.59 976,-211.59 976,-211.59 783,-211.59 620.82,-211.59 435.03,-136.22 373.5,-109.14"/>
<polygon fill="#63b8ff" stroke="#63b8ff" points="1327.38,-215.09 1337.38,-211.59 1327.38,-208.09 1327.38,-215.09"/>
</a>
</g>
</g>
</g>
</svg>

<g id="navigator" transform="translate(0 0)" fill="#404254">
  <rect fill="#f2f5e9" fill-opacity="0.5" stroke="#606060" stroke-width=".5" x="0" y="0" width="60" height="60"/>
  <use id="zoomplus" xlink:href="#zoomPlus" x="17" y="9" onmousedown="handleZoom(evt,'in')"/>
  <use id="zoomminus" xlink:href="#zoomMin" x="42" y="9" onmousedown="handleZoom(evt,'out')"/>
  <use id="reset" xlink:href="#resetDef" x="30" y="36" onmousedown="handleReset()"/>
   <use id="arrowup" xlink:href="#arrowUp" x="0" y="0" onmousedown="handlePan(0,-1)"/>
  <use id="arrowright" xlink:href="#arrowRight" x="0" y="0" onmousedown="handlePan(1,0)"/>
  <use id="arrowdown" xlink:href="#arrowDown" x="0" y="0" onmousedown="handlePan(0,1)"/>
  <use id="arrowleft" xlink:href="#arrowLeft" x="0" y="0" onmousedown="handlePan(-1,0)"/>
</g>
<svg viewBox="0 0 15 15" width="100%" height="30px" preserveAspectRatio="xMaxYMin meet">
 <g id="arrow_out" transform="scale(0.3 0.3)">
  <a xlink:href="classPlayerTank_a8e48786bd674e0a64713a2fd8786fc41_icgraph_org.svg" target="_base">
   <rect id="button" ry="5" rx="5" y="6" x="6" height="38" width="38"
        fill="#f2f5e9" fill-opacity="0.5" stroke="#606060" stroke-width="1.0"/>
   <path id="arrow"
     d="M 11.500037,31.436501 C 11.940474,20.09759 22.043105,11.32322 32.158766,21.979434 L 37.068811,17.246167 C 37.068811,17.246167 37.088388,32 37.088388,32 L 22.160133,31.978069 C 22.160133,31.978069 26.997745,27.140456 26.997745,27.140456 C 18.528582,18.264221 13.291696,25.230495 11.500037,31.436501 z"
     style="fill:#404040;"/>
  </a>
 </g>
</svg>

<style type='text/css'>
<![CDATA[
[data-mouse-over-selected='false'] { opacity: 0.7; }
[data-mouse-over-selected='true']  { opacity: 1.0; }
]]>
</style>
<script type="application/ecmascript"><![CDATA[
document.addEventListener('DOMContentLoaded', (event) => {
  highlightEdges();
  highlightAdjacentNodes();
});
]]></script>
</svg>
