<?xml version="1.0" encoding="UTF-8" standalone="no"?>
<!DOCTYPE svg PUBLIC "-//W3C//DTD SVG 1.1//EN"
 "http://www.w3.org/Graphics/SVG/1.1/DTD/svg11.dtd">
<!-- Generated by graphviz version 2.43.0 (0)
 -->
<!-- Title: GameObject::setDestroyed Pages: 1 -->
<svg width="2079pt" height="226pt"
 viewBox="0.00 0.00 2079.00 226.48" xmlns="http://www.w3.org/2000/svg" xmlns:xlink="http://www.w3.org/1999/xlink">
<g id="graph0" class="graph" transform="scale(1 1) rotate(0) translate(4 222.48)">
<title>GameObject::setDestroyed</title>
<!-- Node1 -->
<g id="Node000001" class="node">
<title>Node1</title>
<g id="a_Node000001"><a xlink:title="Sets destroyed state of the object.">
<polygon fill="#999999" stroke="#666666" points="2071,-162.48 1922,-162.48 1922,-143.48 2071,-143.48 2071,-162.48"/>
<text text-anchor="middle" x="1996.5" y="-150.48" font-family="Helvetica,sans-Serif" font-size="10.00">GameObject::setDestroyed</text>
</a>
</g>
</g>
<!-- Node2 -->
<g id="Node000002" class="node">
<title>Node2</title>
<g id="a_Node000002"><a xlink:href="classGameWorld.html#a1ada9d3ebdf482a0fd3abcc1fe41c6de" target="_top" xlink:title="Checks win/lose conditions.">
<polygon fill="white" stroke="#666666" points="1886,-204.48 1697,-204.48 1697,-185.48 1886,-185.48 1886,-204.48"/>
<text text-anchor="middle" x="1791.5" y="-192.48" font-family="Helvetica,sans-Serif" font-size="10.00">GameWorld::checkGameConditions</text>
</a>
</g>
</g>
<!-- Node1&#45;&gt;Node2 -->
<g id="edge1_Node000001_Node000002" class="edge">
<title>Node1&#45;&gt;Node2</title>
<g id="a_edge1_Node000001_Node000002"><a xlink:title=" ">
<path fill="none" stroke="#63b8ff" d="M1939.43,-164.58C1907.76,-171.13 1868.64,-179.23 1838.73,-185.41"/>
<polygon fill="#63b8ff" stroke="#63b8ff" points="1940.35,-167.96 1949.44,-162.51 1938.93,-161.11 1940.35,-167.96"/>
</a>
</g>
</g>
<!-- Node7 -->
<g id="Node000007" class="node">
<title>Node7</title>
<g id="a_Node000007"><a xlink:href="classPlayerTank.html#a59e06eac615955573cfa6842e37f41ad" target="_top" xlink:title="Resets player tank to initial state.">
<polygon fill="white" stroke="#666666" points="1842,-162.48 1741,-162.48 1741,-143.48 1842,-143.48 1842,-162.48"/>
<text text-anchor="middle" x="1791.5" y="-150.48" font-family="Helvetica,sans-Serif" font-size="10.00">PlayerTank::reset</text>
</a>
</g>
</g>
<!-- Node1&#45;&gt;Node7 -->
<g id="edge6_Node000001_Node000007" class="edge">
<title>Node1&#45;&gt;Node7</title>
<g id="a_edge6_Node000001_Node000007"><a xlink:title=" ">
<path fill="none" stroke="#63b8ff" d="M1911.85,-152.98C1888.13,-152.98 1863.06,-152.98 1842.05,-152.98"/>
<polygon fill="#63b8ff" stroke="#63b8ff" points="1911.93,-156.48 1921.93,-152.98 1911.93,-149.48 1911.93,-156.48"/>
</a>
</g>
</g>
<!-- Node16 -->
<g id="Node000016" class="node">
<title>Node16</title>
<g id="a_Node000016"><a xlink:href="classExplosion.html#ade65a9fd4778e2fdedffbfd95a3e15a9" target="_top" xlink:title="Updates explosion state (decrements lifetime).">
<polygon fill="white" stroke="#666666" points="1843.5,-125.48 1739.5,-125.48 1739.5,-106.48 1843.5,-106.48 1843.5,-125.48"/>
<text text-anchor="middle" x="1791.5" y="-113.48" font-family="Helvetica,sans-Serif" font-size="10.00">Explosion::update</text>
</a>
</g>
</g>
<!-- Node1&#45;&gt;Node16 -->
<g id="edge24_Node000001_Node000016" class="edge">
<title>Node1&#45;&gt;Node16</title>
<g id="a_edge24_Node000001_Node000016"><a xlink:title=" ">
<path fill="none" stroke="#63b8ff" d="M1933.28,-141.64C1904.52,-136.4 1870.78,-130.25 1843.55,-125.28"/>
<polygon fill="#63b8ff" stroke="#63b8ff" points="1932.76,-145.1 1943.22,-143.45 1934.01,-138.21 1932.76,-145.1"/>
</a>
</g>
</g>
<!-- Node3 -->
<g id="Node000003" class="node">
<title>Node3</title>
<g id="a_Node000003"><a xlink:href="classGameWorld.html#ab645acf30cb0a4640a8fb5b88c5c7c94" target="_top" xlink:title="Updates all game objects and logic.">
<polygon fill="white" stroke="#666666" points="1462.5,-218.48 1349.5,-218.48 1349.5,-199.48 1462.5,-199.48 1462.5,-218.48"/>
<text text-anchor="middle" x="1406" y="-206.48" font-family="Helvetica,sans-Serif" font-size="10.00">GameWorld::update</text>
</a>
</g>
</g>
<!-- Node2&#45;&gt;Node3 -->
<g id="edge2_Node000002_Node000003" class="edge">
<title>Node2&#45;&gt;Node3</title>
<g id="a_edge2_Node000002_Node000003"><a xlink:title=" ">
<path fill="none" stroke="#63b8ff" d="M1686.66,-198.77C1614.55,-201.4 1521.27,-204.81 1462.77,-206.94"/>
<polygon fill="#63b8ff" stroke="#63b8ff" points="1686.82,-202.27 1696.69,-198.4 1686.56,-195.27 1686.82,-202.27"/>
</a>
</g>
</g>
<!-- Node4 -->
<g id="Node000004" class="node">
<title>Node4</title>
<g id="a_Node000004"><a xlink:href="classGameController.html#af2367e58f03d8a1441c9a574967fd360" target="_top" xlink:title="Processes a single game turn/update cycle.">
<polygon fill="white" stroke="#666666" points="445,-145.48 258,-145.48 258,-126.48 445,-126.48 445,-145.48"/>
<text text-anchor="middle" x="351.5" y="-133.48" font-family="Helvetica,sans-Serif" font-size="10.00">GameController::processGameTurn</text>
</a>
</g>
</g>
<!-- Node3&#45;&gt;Node4 -->
<g id="edge3_Node000003_Node000004" class="edge">
<title>Node3&#45;&gt;Node4</title>
<g id="a_edge3_Node000003_Node000004"><a xlink:title=" ">
<path fill="none" stroke="#63b8ff" d="M1339.29,-209.23C1255.11,-209.52 1104.7,-209.98 976,-209.98 976,-209.98 976,-209.98 783,-209.98 632.47,-209.98 456.55,-165.49 385.12,-145.5"/>
<polygon fill="#63b8ff" stroke="#63b8ff" points="1339.48,-212.73 1349.47,-209.19 1339.45,-205.73 1339.48,-212.73"/>
</a>
</g>
</g>
<!-- Node5 -->
<g id="Node000005" class="node">
<title>Node5</title>
<g id="a_Node000005"><a xlink:href="classGameController.html#ac958989c8f7f08488546930e5fcb0d82" target="_top" xlink:title="Starts and runs the main game loop.">
<polygon fill="white" stroke="#666666" points="222,-57.48 77,-57.48 77,-38.48 222,-38.48 222,-57.48"/>
<text text-anchor="middle" x="149.5" y="-45.48" font-family="Helvetica,sans-Serif" font-size="10.00">GameController::runGame</text>
</a>
</g>
</g>
<!-- Node4&#45;&gt;Node5 -->
<g id="edge4_Node000004_Node000005" class="edge">
<title>Node4&#45;&gt;Node5</title>
<g id="a_edge4_Node000004_Node000005"><a xlink:title=" ">
<path fill="none" stroke="#63b8ff" d="M319.5,-122.34C278.66,-104.37 207.86,-73.22 172.26,-57.55"/>
<polygon fill="#63b8ff" stroke="#63b8ff" points="318.15,-125.57 328.72,-126.39 320.97,-119.16 318.15,-125.57"/>
</a>
</g>
</g>
<!-- Node6 -->
<g id="Node000006" class="node">
<title>Node6</title>
<g id="a_Node000006"><a xlink:href="main_8cpp.html#ae66f6b31b5ad750f1fe042a706a4e3d4" target="_top" xlink:title="Main function that serves as the application entry point.">
<polygon fill="white" stroke="#666666" points="41,-57.48 0,-57.48 0,-38.48 41,-38.48 41,-57.48"/>
<text text-anchor="middle" x="20.5" y="-45.48" font-family="Helvetica,sans-Serif" font-size="10.00">main</text>
</a>
</g>
</g>
<!-- Node5&#45;&gt;Node6 -->
<g id="edge5_Node000005_Node000006" class="edge">
<title>Node5&#45;&gt;Node6</title>
<g id="a_edge5_Node000005_Node000006"><a xlink:title=" ">
<path fill="none" stroke="#63b8ff" d="M66.79,-47.98C57.31,-47.98 48.43,-47.98 41.08,-47.98"/>
<polygon fill="#63b8ff" stroke="#63b8ff" points="66.83,-51.48 76.83,-47.98 66.83,-44.48 66.83,-51.48"/>
</a>
</g>
</g>
<!-- Node8 -->
<g id="Node000008" class="node">
<title>Node8</title>
<g id="a_Node000008"><a xlink:href="classGameWorld.html#a13fd8123f71f48726bfeb233961f88da" target="_top" xlink:title="Loads specified level.">
<polygon fill="white" stroke="#666666" points="1661,-159.48 1534,-159.48 1534,-140.48 1661,-140.48 1661,-159.48"/>
<text text-anchor="middle" x="1597.5" y="-147.48" font-family="Helvetica,sans-Serif" font-size="10.00">GameWorld::loadLevel</text>
</a>
</g>
</g>
<!-- Node7&#45;&gt;Node8 -->
<g id="edge7_Node000007_Node000008" class="edge">
<title>Node7&#45;&gt;Node8</title>
<g id="a_edge7_Node000007_Node000008"><a xlink:title=" ">
<path fill="none" stroke="#63b8ff" d="M1730.36,-152.04C1708.38,-151.7 1683.47,-151.31 1661.27,-150.96"/>
<polygon fill="#63b8ff" stroke="#63b8ff" points="1730.5,-155.54 1740.56,-152.2 1730.61,-148.54 1730.5,-155.54"/>
</a>
</g>
</g>
<!-- Node9 -->
<g id="Node000009" class="node">
<title>Node9</title>
<g id="a_Node000009"><a xlink:href="classGameController.html#a4086fc466d91f45c41b2bc5df06af77a" target="_top" xlink:title="Loads the next game level.">
<polygon fill="white" stroke="#666666" points="1254.5,-181.98 1110.5,-181.98 1110.5,-151.98 1254.5,-151.98 1254.5,-181.98"/>
<text text-anchor="start" x="1118.5" y="-169.98" font-family="Helvetica,sans-Serif" font-size="10.00">GameController::loadNext</text>
<text text-anchor="middle" x="1182.5" y="-158.98" font-family="Helvetica,sans-Serif" font-size="10.00">Level</text>
</a>
</g>
</g>
<!-- Node8&#45;&gt;Node9 -->
<g id="edge8_Node000008_Node000009" class="edge">
<title>Node8&#45;&gt;Node9</title>
<g id="a_edge8_Node000008_Node000009"><a xlink:title=" ">
<path fill="none" stroke="#63b8ff" d="M1523.37,-152.99C1447.58,-156.11 1329.91,-160.95 1254.8,-164.04"/>
<polygon fill="#63b8ff" stroke="#63b8ff" points="1523.93,-156.47 1533.77,-152.56 1523.64,-149.48 1523.93,-156.47"/>
</a>
</g>
</g>
<!-- Node11 -->
<g id="Node000011" class="node">
<title>Node11</title>
<g id="a_Node000011"><a xlink:href="classGameController.html#a09c76a5ae9b8f514163dafe31273f44f" target="_top" xlink:title="Loads the currently selected map.">
<polygon fill="white" stroke="#666666" points="1498,-140.48 1314,-140.48 1314,-121.48 1498,-121.48 1498,-140.48"/>
<text text-anchor="middle" x="1406" y="-128.48" font-family="Helvetica,sans-Serif" font-size="10.00">GameController::loadSelectedMap</text>
</a>
</g>
</g>
<!-- Node8&#45;&gt;Node11 -->
<g id="edge11_Node000008_Node000011" class="edge">
<title>Node8&#45;&gt;Node11</title>
<g id="a_edge11_Node000008_Node000011"><a xlink:title=" ">
<path fill="none" stroke="#63b8ff" d="M1523.86,-142.7C1515.49,-141.86 1506.88,-140.99 1498.3,-140.13"/>
<polygon fill="#63b8ff" stroke="#63b8ff" points="1523.63,-146.19 1533.93,-143.7 1524.32,-139.22 1523.63,-146.19"/>
</a>
</g>
</g>
<!-- Node12 -->
<g id="Node000012" class="node">
<title>Node12</title>
<g id="a_Node000012"><a xlink:href="classGameController.html#a4a9c94fe33cf6c73bb5dfc415d04d309" target="_top" xlink:title="Displays map selection screen.">
<polygon fill="white" stroke="#666666" points="1278,-102.48 1087,-102.48 1087,-83.48 1278,-83.48 1278,-102.48"/>
<text text-anchor="middle" x="1182.5" y="-90.48" font-family="Helvetica,sans-Serif" font-size="10.00">GameController::showMapSelection</text>
</a>
</g>
</g>
<!-- Node8&#45;&gt;Node12 -->
<g id="edge23_Node000008_Node000012" class="edge">
<title>Node8&#45;&gt;Node12</title>
<g id="a_edge23_Node000008_Node000012"><a xlink:title=" ">
<path fill="none" stroke="#63b8ff" d="M1567.93,-136.26C1548.64,-127.68 1522.36,-117.28 1498,-111.98 1425.31,-96.16 1341.09,-91.79 1278.11,-91.16"/>
<polygon fill="#63b8ff" stroke="#63b8ff" points="1566.51,-139.45 1577.06,-140.42 1569.41,-133.08 1566.51,-139.45"/>
</a>
</g>
</g>
<!-- Node10 -->
<g id="Node000010" class="node">
<title>Node10</title>
<g id="a_Node000010"><a xlink:href="classGameController.html#a85bcf4ecfd197aad278e116215a3717b" target="_top" xlink:title="Displays level completion screen.">
<polygon fill="white" stroke="#666666" points="860,-181.98 708,-181.98 708,-151.98 860,-151.98 860,-181.98"/>
<text text-anchor="start" x="716" y="-169.98" font-family="Helvetica,sans-Serif" font-size="10.00">GameController::showLevel</text>
<text text-anchor="middle" x="784" y="-158.98" font-family="Helvetica,sans-Serif" font-size="10.00">CompleteScreen</text>
</a>
</g>
</g>
<!-- Node9&#45;&gt;Node10 -->
<g id="edge9_Node000009_Node000010" class="edge">
<title>Node9&#45;&gt;Node10</title>
<g id="a_edge9_Node000009_Node000010"><a xlink:title=" ">
<path fill="none" stroke="#63b8ff" d="M1100,-166.98C1029.58,-166.98 928.65,-166.98 860.15,-166.98"/>
<polygon fill="#63b8ff" stroke="#63b8ff" points="1100.16,-170.48 1110.16,-166.98 1100.16,-163.48 1100.16,-170.48"/>
</a>
</g>
</g>
<!-- Node10&#45;&gt;Node4 -->
<g id="edge10_Node000010_Node000004" class="edge">
<title>Node10&#45;&gt;Node4</title>
<g id="a_edge10_Node000010_Node000004"><a xlink:title=" ">
<path fill="none" stroke="#63b8ff" d="M697.45,-160.82C624.55,-155.57 520.01,-148.04 445.15,-142.65"/>
<polygon fill="#63b8ff" stroke="#63b8ff" points="697.29,-164.32 707.52,-161.54 697.8,-157.33 697.29,-164.32"/>
</a>
</g>
</g>
<!-- Node11&#45;&gt;Node9 -->
<g id="edge12_Node000011_Node000009" class="edge">
<title>Node11&#45;&gt;Node9</title>
<g id="a_edge12_Node000011_Node000009"><a xlink:title=" ">
<path fill="none" stroke="#63b8ff" d="M1336.38,-142.13C1310.39,-146.36 1280.77,-151.17 1254.57,-155.43"/>
<polygon fill="#63b8ff" stroke="#63b8ff" points="1337.2,-145.54 1346.51,-140.48 1336.08,-138.63 1337.2,-145.54"/>
</a>
</g>
</g>
<!-- Node11&#45;&gt;Node12 -->
<g id="edge13_Node000011_Node000012" class="edge">
<title>Node11&#45;&gt;Node12</title>
<g id="a_edge13_Node000011_Node000012"><a xlink:title=" ">
<path fill="none" stroke="#63b8ff" d="M1339.27,-119.7C1307.41,-114.24 1269.55,-107.74 1239.13,-102.52"/>
<polygon fill="#63b8ff" stroke="#63b8ff" points="1338.94,-123.2 1349.39,-121.44 1340.13,-116.3 1338.94,-123.2"/>
</a>
</g>
</g>
<!-- Node13 -->
<g id="Node000013" class="node">
<title>Node13</title>
<g id="a_Node000013"><a xlink:href="classGameController.html#a971b3d8f6296a74f0bebc83b5e79c186" target="_top" xlink:title="Processes a user command.">
<polygon fill="white" stroke="#666666" points="669,-105.48 481,-105.48 481,-86.48 669,-86.48 669,-105.48"/>
<text text-anchor="middle" x="575" y="-93.48" font-family="Helvetica,sans-Serif" font-size="10.00">GameController::processCommand</text>
</a>
</g>
</g>
<!-- Node12&#45;&gt;Node13 -->
<g id="edge14_Node000012_Node000013" class="edge">
<title>Node12&#45;&gt;Node13</title>
<g id="a_edge14_Node000012_Node000013"><a xlink:title=" ">
<path fill="none" stroke="#63b8ff" d="M1076.6,-102.55C1067.94,-103.12 1059.33,-103.61 1051,-103.98 897.38,-110.85 858.69,-110.33 705,-104.98 693.45,-104.58 681.32,-103.97 669.32,-103.26"/>
<polygon fill="#63b8ff" stroke="#63b8ff" points="1077.02,-106.03 1086.76,-101.85 1076.54,-99.04 1077.02,-106.03"/>
</a>
</g>
</g>
<!-- Node14 -->
<g id="Node000014" class="node">
<title>Node14</title>
<g id="a_Node000014"><a xlink:href="classGameController.html#a9d11b5a6255b7249bddba49df0837cf3" target="_top" xlink:title="Displays and manages the main menu.">
<polygon fill="white" stroke="#666666" points="1051,-95.48 899,-95.48 899,-76.48 1051,-76.48 1051,-95.48"/>
<text text-anchor="middle" x="975" y="-83.48" font-family="Helvetica,sans-Serif" font-size="10.00">GameController::showMenu</text>
</a>
</g>
</g>
<!-- Node12&#45;&gt;Node14 -->
<g id="edge16_Node000012_Node000014" class="edge">
<title>Node12&#45;&gt;Node14</title>
<g id="a_edge16_Node000012_Node000014"><a xlink:title=" ">
<path fill="none" stroke="#63b8ff" d="M1087.43,-83.05C1075.23,-82.57 1062.87,-82.22 1051.03,-82.01"/>
<polygon fill="#63b8ff" stroke="#63b8ff" points="1087.48,-86.55 1097.62,-83.47 1087.77,-79.56 1087.48,-86.55"/>
</a>
</g>
</g>
<!-- Node13&#45;&gt;Node4 -->
<g id="edge15_Node000013_Node000004" class="edge">
<title>Node13&#45;&gt;Node4</title>
<g id="a_edge15_Node000013_Node000004"><a xlink:title=" ">
<path fill="none" stroke="#63b8ff" d="M511.1,-107.34C477.66,-113.38 437.02,-120.72 405.25,-126.45"/>
<polygon fill="#63b8ff" stroke="#63b8ff" points="512.01,-110.73 521.23,-105.51 510.76,-103.84 512.01,-110.73"/>
</a>
</g>
</g>
<!-- Node14&#45;&gt;Node5 -->
<g id="edge20_Node000014_Node000005" class="edge">
<title>Node14&#45;&gt;Node5</title>
<g id="a_edge20_Node000014_Node000005"><a xlink:title=" ">
<path fill="none" stroke="#63b8ff" d="M952.08,-70.72C930.54,-56.72 896.16,-37 863,-28.98 618.24,30.19 312.38,-16.72 197.22,-38.44"/>
<polygon fill="#63b8ff" stroke="#63b8ff" points="950.22,-73.69 960.48,-76.31 954.1,-67.86 950.22,-73.69"/>
</a>
</g>
</g>
<!-- Node14&#45;&gt;Node10 -->
<g id="edge21_Node000014_Node000010" class="edge">
<title>Node14&#45;&gt;Node10</title>
<g id="a_edge21_Node000014_Node000010"><a xlink:title=" ">
<path fill="none" stroke="#63b8ff" d="M942.19,-99.61C908.44,-114.08 855.26,-136.87 820.25,-151.87"/>
<polygon fill="#63b8ff" stroke="#63b8ff" points="943.76,-102.75 951.58,-95.59 941.01,-96.31 943.76,-102.75"/>
</a>
</g>
</g>
<!-- Node14&#45;&gt;Node12 -->
<g id="edge22_Node000014_Node000012" class="edge">
<title>Node14&#45;&gt;Node12</title>
<g id="a_edge22_Node000014_Node000012"><a xlink:title=" ">
<path fill="none" stroke="#63b8ff" d="M1061.27,-95.55C1069.72,-95.92 1078.33,-96.24 1086.87,-96.49"/>
<polygon fill="#63b8ff" stroke="#63b8ff" points="1061.21,-92.04 1051.06,-95.06 1060.88,-99.03 1061.21,-92.04"/>
</a>
</g>
</g>
<!-- Node14&#45;&gt;Node13 -->
<g id="edge19_Node000014_Node000013" class="edge">
<title>Node14&#45;&gt;Node13</title>
<g id="a_edge19_Node000014_Node000013"><a xlink:title=" ">
<path fill="none" stroke="#63b8ff" d="M888.53,-88.13C824.02,-89.75 735.58,-91.97 669.25,-93.64"/>
<polygon fill="#63b8ff" stroke="#63b8ff" points="888.76,-91.62 898.67,-87.87 888.59,-84.62 888.76,-91.62"/>
</a>
</g>
</g>
<!-- Node15 -->
<g id="Node000015" class="node">
<title>Node15</title>
<g id="a_Node000015"><a xlink:href="classGameController.html#a637ea4e72ed2be4a2884b30160b3e8ab" target="_top" xlink:title="Pauses the game and displays pause screen.">
<polygon fill="white" stroke="#666666" points="863,-57.48 705,-57.48 705,-38.48 863,-38.48 863,-57.48"/>
<text text-anchor="middle" x="784" y="-45.48" font-family="Helvetica,sans-Serif" font-size="10.00">GameController::pauseGame</text>
</a>
</g>
</g>
<!-- Node14&#45;&gt;Node15 -->
<g id="edge17_Node000014_Node000015" class="edge">
<title>Node14&#45;&gt;Node15</title>
<g id="a_edge17_Node000014_Node000015"><a xlink:title=" ">
<path fill="none" stroke="#63b8ff" d="M916.26,-74.37C889.38,-68.96 857.8,-62.62 832.35,-57.5"/>
<polygon fill="#63b8ff" stroke="#63b8ff" points="915.81,-77.85 926.31,-76.39 917.19,-70.99 915.81,-77.85"/>
</a>
</g>
</g>
<!-- Node15&#45;&gt;Node13 -->
<g id="edge18_Node000015_Node000013" class="edge">
<title>Node15&#45;&gt;Node13</title>
<g id="a_edge18_Node000015_Node000013"><a xlink:title=" ">
<path fill="none" stroke="#63b8ff" d="M731.51,-59.92C696.27,-68.09 650.16,-78.78 617.32,-86.4"/>
<polygon fill="#63b8ff" stroke="#63b8ff" points="732.66,-63.25 741.61,-57.58 731.08,-56.43 732.66,-63.25"/>
</a>
</g>
</g>
</g>
</svg>
