<?xml version="1.0" encoding="UTF-8" standalone="no"?>
<!DOCTYPE svg PUBLIC "-//W3C//DTD SVG 1.1//EN"
 "http://www.w3.org/Graphics/SVG/1.1/DTD/svg11.dtd">
<!-- Generated by graphviz version 2.43.0 (0)
 -->
<!-- Title: GameWorld::isValidBonusPosition Pages: 1 -->
<svg width="556pt" height="103pt"
 viewBox="0.00 0.00 556.00 103.00" xmlns="http://www.w3.org/2000/svg" xmlns:xlink="http://www.w3.org/1999/xlink">
<g id="graph0" class="graph" transform="scale(1 1) rotate(0) translate(4 99)">
<title>GameWorld::isValidBonusPosition</title>
<!-- Node1 -->
<g id="Node000001" class="node">
<title>Node1</title>
<g id="a_Node000001"><a xlink:title="Checks if position is valid for bonus placement.">
<polygon fill="#999999" stroke="#666666" points="181,-57 0,-57 0,-38 181,-38 181,-57"/>
<text text-anchor="middle" x="90.5" y="-45" font-family="Helvetica,sans-Serif" font-size="10.00">GameWorld::isValidBonusPosition</text>
</a>
</g>
</g>
<!-- Node2 -->
<g id="Node000002" class="node">
<title>Node2</title>
<g id="a_Node000002"><a xlink:href="classBonus.html#a532f21a230da61103eac3be853721245" target="_top" xlink:title=" ">
<polygon fill="white" stroke="#666666" points="352.5,-95 260.5,-95 260.5,-76 352.5,-76 352.5,-95"/>
<text text-anchor="middle" x="306.5" y="-83" font-family="Helvetica,sans-Serif" font-size="10.00">Bonus::isActive</text>
</a>
</g>
</g>
<!-- Node1&#45;&gt;Node2 -->
<g id="edge1_Node000001_Node000002" class="edge">
<title>Node1&#45;&gt;Node2</title>
<g id="a_edge1_Node000001_Node000002"><a xlink:title=" ">
<path fill="none" stroke="#63b8ff" d="M145.23,-57.04C177.29,-62.73 217.92,-69.95 250.25,-75.69"/>
<polygon fill="#63b8ff" stroke="#63b8ff" points="249.98,-79.2 260.43,-77.5 251.2,-72.3 249.98,-79.2"/>
</a>
</g>
</g>
<!-- Node3 -->
<g id="Node000003" class="node">
<title>Node3</title>
<g id="a_Node000003"><a xlink:href="classObstacle.html#aa1936373d282c8dba39f529526b6143d" target="_top" xlink:title="Checks if obstacle is passable for tanks.">
<polygon fill="white" stroke="#666666" points="548,-38 432,-38 432,-19 548,-19 548,-38"/>
<text text-anchor="middle" x="490" y="-26" font-family="Helvetica,sans-Serif" font-size="10.00">Obstacle::isPassable</text>
</a>
</g>
</g>
<!-- Node1&#45;&gt;Node3 -->
<g id="edge2_Node000001_Node000003" class="edge">
<title>Node1&#45;&gt;Node3</title>
<g id="a_edge2_Node000001_Node000003"><a xlink:title=" ">
<path fill="none" stroke="#63b8ff" d="M181.2,-43.21C254.12,-39.73 355.41,-34.89 421.57,-31.72"/>
<polygon fill="#63b8ff" stroke="#63b8ff" points="422.05,-35.2 431.87,-31.23 421.72,-28.21 422.05,-35.2"/>
</a>
</g>
</g>
<!-- Node4 -->
<g id="Node000004" class="node">
<title>Node4</title>
<g id="a_Node000004"><a xlink:href="classGameWorld.html#aa179c4b1c5c4659bdcdd05a5c85867ab" target="_top" xlink:title="Checks if position is accessible for tanks.">
<polygon fill="white" stroke="#666666" points="396,-19 217,-19 217,0 396,0 396,-19"/>
<text text-anchor="middle" x="306.5" y="-7" font-family="Helvetica,sans-Serif" font-size="10.00">GameWorld::isPositionAccessible</text>
</a>
</g>
</g>
<!-- Node1&#45;&gt;Node4 -->
<g id="edge3_Node000001_Node000004" class="edge">
<title>Node1&#45;&gt;Node4</title>
<g id="a_edge3_Node000001_Node000004"><a xlink:title=" ">
<path fill="none" stroke="#63b8ff" d="M145.23,-37.96C174.48,-32.77 210.87,-26.3 241.58,-20.85"/>
<polygon fill="#63b8ff" stroke="#63b8ff" points="242.52,-24.24 251.75,-19.04 241.29,-17.35 242.52,-24.24"/>
</a>
</g>
</g>
<!-- Node4&#45;&gt;Node3 -->
<g id="edge4_Node000004_Node000003" class="edge">
<title>Node4&#45;&gt;Node3</title>
<g id="a_edge4_Node000004_Node000003"><a xlink:title=" ">
<path fill="none" stroke="#63b8ff" d="M396.12,-18.78C404.76,-19.68 413.42,-20.59 421.8,-21.46"/>
<polygon fill="#63b8ff" stroke="#63b8ff" points="421.54,-24.96 431.85,-22.52 422.27,-18 421.54,-24.96"/>
</a>
</g>
</g>
</g>
</svg>
