<?xml version="1.0" encoding="UTF-8" standalone="no"?>
<!DOCTYPE svg PUBLIC "-//W3C//DTD SVG 1.1//EN"
 "http://www.w3.org/Graphics/SVG/1.1/DTD/svg11.dtd">
<!-- Generated by graphviz version 2.43.0 (0)
 -->
<!-- Title: EnemyTank::move Pages: 1 -->
<svg width="1092pt" height="139pt"
 viewBox="0.00 0.00 1092.00 139.00" xmlns="http://www.w3.org/2000/svg" xmlns:xlink="http://www.w3.org/1999/xlink">
<g id="graph0" class="graph" transform="scale(1 1) rotate(0) translate(4 135)">
<title>EnemyTank::move</title>
<!-- Node1 -->
<g id="Node000001" class="node">
<title>Node1</title>
<g id="a_Node000001"><a xlink:title="Moves enemy tank in specified direction.">
<polygon fill="#999999" stroke="#666666" points="1084,-75 977,-75 977,-56 1084,-56 1084,-75"/>
<text text-anchor="middle" x="1030.5" y="-63" font-family="Helvetica,sans-Serif" font-size="10.00">EnemyTank::move</text>
</a>
</g>
</g>
<!-- Node2 -->
<g id="Node000002" class="node">
<title>Node2</title>
<g id="a_Node000002"><a xlink:href="classEnemyTank.html#aa70aff895200207527e2465c9439fc05" target="_top" xlink:title="Carefully approaches player.">
<polygon fill="white" stroke="#666666" points="723,-56 557,-56 557,-37 723,-37 723,-56"/>
<text text-anchor="middle" x="640" y="-44" font-family="Helvetica,sans-Serif" font-size="10.00">EnemyTank::cautiousApproach</text>
</a>
</g>
</g>
<!-- Node1&#45;&gt;Node2 -->
<g id="edge1_Node000001_Node000002" class="edge">
<title>Node1&#45;&gt;Node2</title>
<g id="a_edge1_Node000001_Node000002"><a xlink:title=" ">
<path fill="none" stroke="#63b8ff" d="M966.41,-62.41C900.19,-59.18 795.81,-54.07 723.19,-50.52"/>
<polygon fill="#63b8ff" stroke="#63b8ff" points="966.54,-65.93 976.7,-62.92 966.88,-58.93 966.54,-65.93"/>
</a>
</g>
</g>
<!-- Node6 -->
<g id="Node000006" class="node">
<title>Node6</title>
<g id="a_Node000006"><a xlink:href="classEnemyTank.html#a85bd09ffb86b2c36c6b76fe6f6752324" target="_top" xlink:title="Moves away from player.">
<polygon fill="white" stroke="#666666" points="929.5,-131 775.5,-131 775.5,-112 929.5,-112 929.5,-131"/>
<text text-anchor="middle" x="852.5" y="-119" font-family="Helvetica,sans-Serif" font-size="10.00">EnemyTank::defensiveMove</text>
</a>
</g>
</g>
<!-- Node1&#45;&gt;Node6 -->
<g id="edge5_Node000001_Node000006" class="edge">
<title>Node1&#45;&gt;Node6</title>
<g id="a_edge5_Node000001_Node000006"><a xlink:title=" ">
<path fill="none" stroke="#63b8ff" d="M1000.86,-79.56C983.8,-87.48 961.54,-97.05 941,-103.5 930.64,-106.75 919.41,-109.57 908.55,-111.95"/>
<polygon fill="#63b8ff" stroke="#63b8ff" points="1002.7,-82.55 1010.25,-75.12 999.71,-76.23 1002.7,-82.55"/>
</a>
</g>
</g>
<!-- Node8 -->
<g id="Node000008" class="node">
<title>Node8</title>
<g id="a_Node000008"><a xlink:href="classEnemyTank.html#a3038987b5595e2ec68508dfde4a35d51" target="_top" xlink:title="Searches for cover.">
<polygon fill="white" stroke="#666666" points="702.5,-19 577.5,-19 577.5,0 702.5,0 702.5,-19"/>
<text text-anchor="middle" x="640" y="-7" font-family="Helvetica,sans-Serif" font-size="10.00">EnemyTank::findCover</text>
</a>
</g>
</g>
<!-- Node1&#45;&gt;Node8 -->
<g id="edge9_Node000001_Node000008" class="edge">
<title>Node1&#45;&gt;Node8</title>
<g id="a_edge9_Node000001_Node000008"><a xlink:title=" ">
<path fill="none" stroke="#63b8ff" d="M968.98,-54.17C959.63,-52.53 950.06,-50.92 941,-49.5 858.72,-36.58 763.33,-24.33 702.6,-16.87"/>
<polygon fill="#63b8ff" stroke="#63b8ff" points="968.57,-57.66 979.02,-55.96 969.79,-50.76 968.57,-57.66"/>
</a>
</g>
</g>
<!-- Node9 -->
<g id="Node000009" class="node">
<title>Node9</title>
<g id="a_Node000009"><a xlink:href="classEnemyTank.html#aa7421a7881c97b14301ef95e11fac1a8" target="_top" xlink:title="Moves towards player position.">
<polygon fill="white" stroke="#666666" points="941,-94 764,-94 764,-75 941,-75 941,-94"/>
<text text-anchor="middle" x="852.5" y="-82" font-family="Helvetica,sans-Serif" font-size="10.00">EnemyTank::moveTowardsPlayer</text>
</a>
</g>
</g>
<!-- Node1&#45;&gt;Node9 -->
<g id="edge11_Node000001_Node000009" class="edge">
<title>Node1&#45;&gt;Node9</title>
<g id="a_edge11_Node000001_Node000009"><a xlink:title=" ">
<path fill="none" stroke="#63b8ff" d="M966.74,-72.28C958.43,-73.17 949.79,-74.11 941.15,-75.04"/>
<polygon fill="#63b8ff" stroke="#63b8ff" points="967.13,-75.75 976.69,-71.2 966.38,-68.79 967.13,-75.75"/>
</a>
</g>
</g>
<!-- Node3 -->
<g id="Node000003" class="node">
<title>Node3</title>
<g id="a_Node000003"><a xlink:href="classEnemyTank.html#a39add8a8beb8bb7b69124753ec2dae74" target="_top" xlink:title="Executes defensive behavior.">
<polygon fill="white" stroke="#666666" points="516,-56 346,-56 346,-37 516,-37 516,-56"/>
<text text-anchor="middle" x="431" y="-44" font-family="Helvetica,sans-Serif" font-size="10.00">EnemyTank::defensiveBehavior</text>
</a>
</g>
</g>
<!-- Node2&#45;&gt;Node3 -->
<g id="edge2_Node000002_Node000003" class="edge">
<title>Node2&#45;&gt;Node3</title>
<g id="a_edge2_Node000002_Node000003"><a xlink:title=" ">
<path fill="none" stroke="#63b8ff" d="M546.74,-46.5C536.52,-46.5 526.15,-46.5 516.05,-46.5"/>
<polygon fill="#63b8ff" stroke="#63b8ff" points="546.89,-50 556.89,-46.5 546.89,-43 546.89,-50"/>
</a>
</g>
</g>
<!-- Node4 -->
<g id="Node000004" class="node">
<title>Node4</title>
<g id="a_Node000004"><a xlink:href="classEnemyTank.html#a338556623afc739ebf5585caaa73fcdb" target="_top" xlink:title="Decides next action based on behavior.">
<polygon fill="white" stroke="#666666" points="310,-75 149,-75 149,-56 310,-56 310,-75"/>
<text text-anchor="middle" x="229.5" y="-63" font-family="Helvetica,sans-Serif" font-size="10.00">EnemyTank::decideNextMove</text>
</a>
</g>
</g>
<!-- Node3&#45;&gt;Node4 -->
<g id="edge3_Node000003_Node000004" class="edge">
<title>Node3&#45;&gt;Node4</title>
<g id="a_edge3_Node000003_Node000004"><a xlink:title=" ">
<path fill="none" stroke="#63b8ff" d="M335.94,-55.46C327.36,-56.27 318.73,-57.1 310.29,-57.9"/>
<polygon fill="#63b8ff" stroke="#63b8ff" points="336.35,-58.94 345.97,-54.5 335.69,-51.97 336.35,-58.94"/>
</a>
</g>
</g>
<!-- Node5 -->
<g id="Node000005" class="node">
<title>Node5</title>
<g id="a_Node000005"><a xlink:href="classEnemyTank.html#a7ae5efc6eff4e7a19abb7f37b44835fc" target="_top" xlink:title="Updates enemy tank state and AI decisions.">
<polygon fill="white" stroke="#666666" points="113,-75 0,-75 0,-56 113,-56 113,-75"/>
<text text-anchor="middle" x="56.5" y="-63" font-family="Helvetica,sans-Serif" font-size="10.00">EnemyTank::update</text>
</a>
</g>
</g>
<!-- Node4&#45;&gt;Node5 -->
<g id="edge4_Node000004_Node000005" class="edge">
<title>Node4&#45;&gt;Node5</title>
<g id="a_edge4_Node000004_Node000005"><a xlink:title=" ">
<path fill="none" stroke="#63b8ff" d="M138.6,-65.5C129.96,-65.5 121.38,-65.5 113.21,-65.5"/>
<polygon fill="#63b8ff" stroke="#63b8ff" points="138.76,-69 148.76,-65.5 138.76,-62 138.76,-69"/>
</a>
</g>
</g>
<!-- Node6&#45;&gt;Node3 -->
<g id="edge8_Node000006_Node000003" class="edge">
<title>Node6&#45;&gt;Node3</title>
<g id="a_edge8_Node000006_Node000003"><a xlink:title=" ">
<path fill="none" stroke="#63b8ff" d="M765.21,-124.96C704.63,-125.3 622.22,-121.56 552,-103.5 512.02,-93.22 469.28,-69.45 447.19,-56.08"/>
<polygon fill="#63b8ff" stroke="#63b8ff" points="765.53,-128.45 775.49,-124.86 765.46,-121.45 765.53,-128.45"/>
</a>
</g>
</g>
<!-- Node7 -->
<g id="Node000007" class="node">
<title>Node7</title>
<g id="a_Node000007"><a xlink:href="classEnemyTank.html#a5b53b4d6721012b14e41a0882bd1c2a3" target="_top" xlink:title="Executes aggressive behavior.">
<polygon fill="white" stroke="#666666" points="728,-94 552,-94 552,-75 728,-75 728,-94"/>
<text text-anchor="middle" x="640" y="-82" font-family="Helvetica,sans-Serif" font-size="10.00">EnemyTank::aggressiveBehavior</text>
</a>
</g>
</g>
<!-- Node6&#45;&gt;Node7 -->
<g id="edge6_Node000006_Node000007" class="edge">
<title>Node6&#45;&gt;Node7</title>
<g id="a_edge6_Node000006_Node000007"><a xlink:title=" ">
<path fill="none" stroke="#63b8ff" d="M787.14,-110.19C757.79,-105.03 723.42,-98.99 695.39,-94.06"/>
<polygon fill="#63b8ff" stroke="#63b8ff" points="786.84,-113.69 797.29,-111.97 788.05,-106.79 786.84,-113.69"/>
</a>
</g>
</g>
<!-- Node7&#45;&gt;Node4 -->
<g id="edge7_Node000007_Node000004" class="edge">
<title>Node7&#45;&gt;Node4</title>
<g id="a_edge7_Node000007_Node000004"><a xlink:title=" ">
<path fill="none" stroke="#63b8ff" d="M541.62,-79.97C470.92,-76.68 376.45,-72.29 310.23,-69.21"/>
<polygon fill="#63b8ff" stroke="#63b8ff" points="541.72,-83.48 551.87,-80.45 542.04,-76.49 541.72,-83.48"/>
</a>
</g>
</g>
<!-- Node8&#45;&gt;Node3 -->
<g id="edge10_Node000008_Node000003" class="edge">
<title>Node8&#45;&gt;Node3</title>
<g id="a_edge10_Node000008_Node000003"><a xlink:title=" ">
<path fill="none" stroke="#63b8ff" d="M575.71,-20.81C546.85,-25.97 513.05,-32.01 485.49,-36.94"/>
<polygon fill="#63b8ff" stroke="#63b8ff" points="576.46,-24.23 585.69,-19.03 575.23,-17.34 576.46,-24.23"/>
</a>
</g>
</g>
<!-- Node9&#45;&gt;Node2 -->
<g id="edge13_Node000009_Node000002" class="edge">
<title>Node9&#45;&gt;Node2</title>
<g id="a_edge13_Node000009_Node000002"><a xlink:title=" ">
<path fill="none" stroke="#63b8ff" d="M788.64,-73.15C758.44,-67.7 722.65,-61.24 693.87,-56.04"/>
<polygon fill="#63b8ff" stroke="#63b8ff" points="788.19,-76.63 798.65,-74.96 789.43,-69.74 788.19,-76.63"/>
</a>
</g>
</g>
<!-- Node9&#45;&gt;Node7 -->
<g id="edge12_Node000009_Node000007" class="edge">
<title>Node9&#45;&gt;Node7</title>
<g id="a_edge12_Node000009_Node000007"><a xlink:title=" ">
<path fill="none" stroke="#63b8ff" d="M753.52,-84.5C745.09,-84.5 736.6,-84.5 728.27,-84.5"/>
<polygon fill="#63b8ff" stroke="#63b8ff" points="753.75,-88 763.75,-84.5 753.75,-81 753.75,-88"/>
</a>
</g>
</g>
</g>
</svg>
