<?xml version="1.0" encoding="UTF-8" standalone="no"?>
<!DOCTYPE svg PUBLIC "-//W3C//DTD SVG 1.1//EN"
 "http://www.w3.org/Graphics/SVG/1.1/DTD/svg11.dtd">
<!-- Generated by graphviz version 2.43.0 (0)
 -->
<!-- Title: EnemyTank::fire Pages: 1 -->
<svg width="404pt" height="174pt"
 viewBox="0.00 0.00 404.00 173.72" xmlns="http://www.w3.org/2000/svg" xmlns:xlink="http://www.w3.org/1999/xlink">
<g id="graph0" class="graph" transform="scale(1 1) rotate(0) translate(4 169.72)">
<title>EnemyTank::fire</title>
<!-- Node1 -->
<g id="Node000001" class="node">
<title>Node1</title>
<g id="a_Node000001"><a xlink:title="Fires projectile from enemy tank.">
<polygon fill="#999999" stroke="#666666" points="95,-99 0,-99 0,-80 95,-80 95,-99"/>
<text text-anchor="middle" x="47.5" y="-87" font-family="Helvetica,sans-Serif" font-size="10.00">EnemyTank::fire</text>
</a>
</g>
</g>
<!-- Node2 -->
<g id="Node000002" class="node">
<title>Node2</title>
<g id="a_Node000002"><a xlink:href="classTank.html#a6a39f37aa7ebbf66d0661815c43b37ef" target="_top" xlink:title="Checks if tank can fire.">
<polygon fill="white" stroke="#666666" points="396,-161 316,-161 316,-142 396,-142 396,-161"/>
<text text-anchor="middle" x="356" y="-149" font-family="Helvetica,sans-Serif" font-size="10.00">Tank::canFire</text>
</a>
</g>
</g>
<!-- Node1&#45;&gt;Node2 -->
<g id="edge1_Node000001_Node000002" class="edge">
<title>Node1&#45;&gt;Node2</title>
<g id="a_edge1_Node000001_Node000002"><a xlink:title=" ">
<path fill="none" stroke="#63b8ff" d="M57.44,-99.46C71.42,-114.19 100.07,-141.17 131,-151.5 188.61,-170.74 259.31,-166.5 305.67,-160.27"/>
<polygon fill="#63b8ff" stroke="#63b8ff" points="306.35,-163.71 315.76,-158.83 305.37,-156.78 306.35,-163.71"/>
</a>
</g>
</g>
<!-- Node3 -->
<g id="Node000003" class="node">
<title>Node3</title>
<g id="a_Node000003"><a xlink:href="classTank.html#a99218709d4502fafb8e0787121a68e54" target="_top" xlink:title="Fires a projectile from the tank.">
<polygon fill="white" stroke="#666666" points="236,-142 175,-142 175,-123 236,-123 236,-142"/>
<text text-anchor="middle" x="205.5" y="-130" font-family="Helvetica,sans-Serif" font-size="10.00">Tank::fire</text>
</a>
</g>
</g>
<!-- Node1&#45;&gt;Node3 -->
<g id="edge2_Node000001_Node000003" class="edge">
<title>Node1&#45;&gt;Node3</title>
<g id="a_edge2_Node000001_Node000003"><a xlink:title=" ">
<path fill="none" stroke="#63b8ff" d="M80.56,-99.07C95.81,-103.56 114.31,-108.92 131,-113.5 142,-116.52 153.95,-119.67 164.97,-122.51"/>
<polygon fill="#63b8ff" stroke="#63b8ff" points="164.21,-125.93 174.76,-125.03 165.95,-119.15 164.21,-125.93"/>
</a>
</g>
</g>
<!-- Node4 -->
<g id="Node000004" class="node">
<title>Node4</title>
<g id="a_Node000004"><a xlink:href="classEnemyTank.html#a9eb0cacdd5e196535f1d60da1ca622ac" target="_top" xlink:title="Gets direction towards last known player position.">
<polygon fill="white" stroke="#666666" points="280,-104.5 131,-104.5 131,-74.5 280,-74.5 280,-104.5"/>
<text text-anchor="start" x="139" y="-92.5" font-family="Helvetica,sans-Serif" font-size="10.00">EnemyTank::getDirectionTo</text>
<text text-anchor="middle" x="205.5" y="-81.5" font-family="Helvetica,sans-Serif" font-size="10.00">Player</text>
</a>
</g>
</g>
<!-- Node1&#45;&gt;Node4 -->
<g id="edge4_Node000001_Node000004" class="edge">
<title>Node1&#45;&gt;Node4</title>
<g id="a_edge4_Node000001_Node000004"><a xlink:title=" ">
<path fill="none" stroke="#63b8ff" d="M95.31,-89.5C103.37,-89.5 111.96,-89.5 120.66,-89.5"/>
<polygon fill="#63b8ff" stroke="#63b8ff" points="120.88,-93 130.88,-89.5 120.88,-86 120.88,-93"/>
</a>
</g>
</g>
<!-- Node5 -->
<g id="Node000005" class="node">
<title>Node5</title>
<g id="a_Node000005"><a xlink:href="classGameObject.html#a4bc41ca14c07e61dafa74a03c4f3e2df" target="_top" xlink:title="Rotates the object to face new direction.">
<polygon fill="white" stroke="#666666" points="262,-56 149,-56 149,-37 262,-37 262,-56"/>
<text text-anchor="middle" x="205.5" y="-44" font-family="Helvetica,sans-Serif" font-size="10.00">GameObject::rotate</text>
</a>
</g>
</g>
<!-- Node1&#45;&gt;Node5 -->
<g id="edge5_Node000001_Node000005" class="edge">
<title>Node1&#45;&gt;Node5</title>
<g id="a_edge5_Node000001_Node000005"><a xlink:title=" ">
<path fill="none" stroke="#63b8ff" d="M80.56,-79.93C95.81,-75.44 114.31,-70.08 131,-65.5 139.31,-63.22 148.18,-60.86 156.76,-58.62"/>
<polygon fill="#63b8ff" stroke="#63b8ff" points="157.87,-61.95 166.67,-56.05 156.11,-55.17 157.87,-61.95"/>
</a>
</g>
</g>
<!-- Node6 -->
<g id="Node000006" class="node">
<title>Node6</title>
<g id="a_Node000006"><a xlink:href="classProjectile.html#a667a26abf9fb92759a4935fbd439c701" target="_top" xlink:title="Sets new damage value for projectile.">
<polygon fill="white" stroke="#666666" points="268,-19 143,-19 143,0 268,0 268,-19"/>
<text text-anchor="middle" x="205.5" y="-7" font-family="Helvetica,sans-Serif" font-size="10.00">Projectile::setDamage</text>
</a>
</g>
</g>
<!-- Node1&#45;&gt;Node6 -->
<g id="edge6_Node000001_Node000006" class="edge">
<title>Node1&#45;&gt;Node6</title>
<g id="a_edge6_Node000001_Node000006"><a xlink:title=" ">
<path fill="none" stroke="#63b8ff" d="M58.84,-79.76C73.67,-66.3 102.38,-42.14 131,-28.5 135.98,-26.13 141.3,-24.02 146.71,-22.16"/>
<polygon fill="#63b8ff" stroke="#63b8ff" points="148.02,-25.41 156.5,-19.06 145.91,-18.74 148.02,-25.41"/>
</a>
</g>
</g>
<!-- Node3&#45;&gt;Node2 -->
<g id="edge3_Node000003_Node000002" class="edge">
<title>Node3&#45;&gt;Node2</title>
<g id="a_edge3_Node000003_Node000002"><a xlink:title=" ">
<path fill="none" stroke="#63b8ff" d="M236.19,-136.3C256.1,-138.85 282.79,-142.26 305.83,-145.21"/>
<polygon fill="#63b8ff" stroke="#63b8ff" points="305.42,-148.68 315.78,-146.48 306.31,-141.74 305.42,-148.68"/>
</a>
</g>
</g>
</g>
</svg>
