<?xml version="1.0" encoding="UTF-8" standalone="no"?>
<!DOCTYPE svg PUBLIC "-//W3C//DTD SVG 1.1//EN"
 "http://www.w3.org/Graphics/SVG/1.1/DTD/svg11.dtd">
<!-- Generated by graphviz version 2.43.0 (0)
 -->
<!-- Title: Tank::setReloadTime Pages: 1 -->
<svg width="298pt" height="64pt"
 viewBox="0.00 0.00 298.00 64.00" xmlns="http://www.w3.org/2000/svg" xmlns:xlink="http://www.w3.org/1999/xlink">
<g id="graph0" class="graph" transform="scale(1 1) rotate(0) translate(4 60)">
<title>Tank::setReloadTime</title>
<!-- Node1 -->
<g id="Node000001" class="node">
<title>Node1</title>
<g id="a_Node000001"><a xlink:title="Sets reload time for the tank.">
<polygon fill="#999999" stroke="#666666" points="290,-37 171,-37 171,-18 290,-18 290,-37"/>
<text text-anchor="middle" x="230.5" y="-25" font-family="Helvetica,sans-Serif" font-size="10.00">Tank::setReloadTime</text>
</a>
</g>
</g>
<!-- Node2 -->
<g id="Node000002" class="node">
<title>Node2</title>
<g id="a_Node000002"><a xlink:href="classEnemyTank.html#af07a4df76315bfd6ce3745c9597b1447" target="_top" xlink:title="Constructs an EnemyTank object.">
<polygon fill="white" stroke="#666666" points="135,-56 0,-56 0,-37 135,-37 135,-56"/>
<text text-anchor="middle" x="67.5" y="-44" font-family="Helvetica,sans-Serif" font-size="10.00">EnemyTank::EnemyTank</text>
</a>
</g>
</g>
<!-- Node1&#45;&gt;Node2 -->
<g id="edge1_Node000001_Node000002" class="edge">
<title>Node1&#45;&gt;Node2</title>
<g id="a_edge1_Node000001_Node000002"><a xlink:title=" ">
<path fill="none" stroke="#63b8ff" d="M160.72,-35.62C152.27,-36.61 143.64,-37.63 135.22,-38.63"/>
<polygon fill="#63b8ff" stroke="#63b8ff" points="161.4,-39.06 170.92,-34.41 160.58,-32.11 161.4,-39.06"/>
</a>
</g>
</g>
<!-- Node3 -->
<g id="Node000003" class="node">
<title>Node3</title>
<g id="a_Node000003"><a xlink:href="classPlayerTank.html#a79a2bbc44cf5cc8f2c46aaca320b8b47" target="_top" xlink:title="Constructs a PlayerTank object.">
<polygon fill="white" stroke="#666666" points="132,-19 3,-19 3,0 132,0 132,-19"/>
<text text-anchor="middle" x="67.5" y="-7" font-family="Helvetica,sans-Serif" font-size="10.00">PlayerTank::PlayerTank</text>
</a>
</g>
</g>
<!-- Node1&#45;&gt;Node3 -->
<g id="edge2_Node000001_Node000003" class="edge">
<title>Node1&#45;&gt;Node3</title>
<g id="a_edge2_Node000001_Node000003"><a xlink:title=" ">
<path fill="none" stroke="#63b8ff" d="M160.75,-19.81C151.28,-18.75 141.58,-17.67 132.2,-16.62"/>
<polygon fill="#63b8ff" stroke="#63b8ff" points="160.59,-23.32 170.92,-20.95 161.37,-16.36 160.59,-23.32"/>
</a>
</g>
</g>
</g>
</svg>
