<?xml version="1.0" encoding="UTF-8" standalone="no"?>
<!DOCTYPE svg PUBLIC "-//W3C//DTD SVG 1.1//EN"
 "http://www.w3.org/Graphics/SVG/1.1/DTD/svg11.dtd">
<!-- Generated by graphviz version 2.43.0 (0)
 -->
<!-- Title: GameController::toggleAdvancedGraphics Pages: 1 -->
<svg width="583pt" height="209pt"
 viewBox="0.00 0.00 583.00 209.00" xmlns="http://www.w3.org/2000/svg" xmlns:xlink="http://www.w3.org/1999/xlink">
<g id="graph0" class="graph" transform="scale(1 1) rotate(0) translate(4 205)">
<title>GameController::toggleAdvancedGraphics</title>
<!-- Node1 -->
<g id="Node000001" class="node">
<title>Node1</title>
<g id="a_Node000001"><a xlink:title="Toggles between advanced and symbolic graphics modes.">
<polygon fill="#999999" stroke="#666666" points="179,-115.5 0,-115.5 0,-85.5 179,-85.5 179,-115.5"/>
<text text-anchor="start" x="8" y="-103.5" font-family="Helvetica,sans-Serif" font-size="10.00">GameController::toggleAdvanced</text>
<text text-anchor="middle" x="89.5" y="-92.5" font-family="Helvetica,sans-Serif" font-size="10.00">Graphics</text>
</a>
</g>
</g>
<!-- Node2 -->
<g id="Node000002" class="node">
<title>Node2</title>
<g id="a_Node000002"><a xlink:href="classConsoleRenderer.html#a041e99f6c0427c254b0349b57fbe2a84" target="_top" xlink:title="Clears the terminal screen.">
<polygon fill="white" stroke="#666666" points="381,-201 218,-201 218,-182 381,-182 381,-201"/>
<text text-anchor="middle" x="299.5" y="-189" font-family="Helvetica,sans-Serif" font-size="10.00">ConsoleRenderer::clearScreen</text>
</a>
</g>
</g>
<!-- Node1&#45;&gt;Node2 -->
<g id="edge1_Node000001_Node000002" class="edge">
<title>Node1&#45;&gt;Node2</title>
<g id="a_edge1_Node000001_Node000002"><a xlink:title=" ">
<path fill="none" stroke="#63b8ff" d="M111.97,-115.62C136.02,-131.89 176.65,-157.45 215,-172.5 221.42,-175.02 228.25,-177.25 235.13,-179.21"/>
<polygon fill="#63b8ff" stroke="#63b8ff" points="234.65,-182.7 245.21,-181.9 236.45,-175.94 234.65,-182.7"/>
</a>
</g>
</g>
<!-- Node4 -->
<g id="Node000004" class="node">
<title>Node4</title>
<g id="a_Node000004"><a xlink:href="classSettingsManager.html#a1686a183b6d975ae02e1a97cde31b226" target="_top" xlink:title="Gets a boolean setting value.">
<polygon fill="white" stroke="#666666" points="371,-163.5 228,-163.5 228,-133.5 371,-133.5 371,-163.5"/>
<text text-anchor="start" x="236" y="-151.5" font-family="Helvetica,sans-Serif" font-size="10.00">SettingsManager::getBool</text>
<text text-anchor="middle" x="299.5" y="-140.5" font-family="Helvetica,sans-Serif" font-size="10.00">Setting</text>
</a>
</g>
</g>
<!-- Node1&#45;&gt;Node4 -->
<g id="edge3_Node000001_Node000004" class="edge">
<title>Node1&#45;&gt;Node4</title>
<g id="a_edge3_Node000001_Node000004"><a xlink:title=" ">
<path fill="none" stroke="#63b8ff" d="M155.74,-115.56C177.23,-120.51 201.3,-126.07 223.46,-131.18"/>
<polygon fill="#63b8ff" stroke="#63b8ff" points="222.96,-134.66 233.49,-133.5 224.53,-127.84 222.96,-134.66"/>
</a>
</g>
</g>
<!-- Node6 -->
<g id="Node000006" class="node">
<title>Node6</title>
<g id="a_Node000006"><a xlink:href="classConsoleRenderer.html#ac1299b325bb43da2b01ce929fc6f91f6" target="_top" xlink:title="Enables or disables advanced graphics.">
<polygon fill="white" stroke="#666666" points="384,-115.5 215,-115.5 215,-85.5 384,-85.5 384,-115.5"/>
<text text-anchor="start" x="223" y="-103.5" font-family="Helvetica,sans-Serif" font-size="10.00">ConsoleRenderer::setAdvanced</text>
<text text-anchor="middle" x="299.5" y="-92.5" font-family="Helvetica,sans-Serif" font-size="10.00">Graphics</text>
</a>
</g>
</g>
<!-- Node1&#45;&gt;Node6 -->
<g id="edge5_Node000001_Node000006" class="edge">
<title>Node1&#45;&gt;Node6</title>
<g id="a_edge5_Node000001_Node000006"><a xlink:title=" ">
<path fill="none" stroke="#63b8ff" d="M179.01,-100.5C187.42,-100.5 195.97,-100.5 204.43,-100.5"/>
<polygon fill="#63b8ff" stroke="#63b8ff" points="204.7,-104 214.7,-100.5 204.7,-97 204.7,-104"/>
</a>
</g>
</g>
<!-- Node7 -->
<g id="Node000007" class="node">
<title>Node7</title>
<g id="a_Node000007"><a xlink:href="classSettingsManager.html#a9b68292aa3b017c65c44c44bec834259" target="_top" xlink:title="Sets a boolean setting value.">
<polygon fill="white" stroke="#666666" points="370.5,-67.5 228.5,-67.5 228.5,-37.5 370.5,-37.5 370.5,-67.5"/>
<text text-anchor="start" x="236.5" y="-55.5" font-family="Helvetica,sans-Serif" font-size="10.00">SettingsManager::setBool</text>
<text text-anchor="middle" x="299.5" y="-44.5" font-family="Helvetica,sans-Serif" font-size="10.00">Setting</text>
</a>
</g>
</g>
<!-- Node1&#45;&gt;Node7 -->
<g id="edge6_Node000001_Node000007" class="edge">
<title>Node1&#45;&gt;Node7</title>
<g id="a_edge6_Node000001_Node000007"><a xlink:title=" ">
<path fill="none" stroke="#63b8ff" d="M155.74,-85.44C177.23,-80.49 201.3,-74.93 223.46,-69.82"/>
<polygon fill="#63b8ff" stroke="#63b8ff" points="224.53,-73.16 233.49,-67.5 222.96,-66.34 224.53,-73.16"/>
</a>
</g>
</g>
<!-- Node8 -->
<g id="Node000008" class="node">
<title>Node8</title>
<g id="a_Node000008"><a xlink:href="classPlatformUtils.html#abf6e891ecb5147fa3d8583b651642d91" target="_top" xlink:title="Pauses execution for specified milliseconds.">
<polygon fill="white" stroke="#666666" points="356,-19 243,-19 243,0 356,0 356,-19"/>
<text text-anchor="middle" x="299.5" y="-7" font-family="Helvetica,sans-Serif" font-size="10.00">PlatformUtils::sleep</text>
</a>
</g>
</g>
<!-- Node1&#45;&gt;Node8 -->
<g id="edge7_Node000001_Node000008" class="edge">
<title>Node1&#45;&gt;Node8</title>
<g id="a_edge7_Node000001_Node000008"><a xlink:title=" ">
<path fill="none" stroke="#63b8ff" d="M111.97,-85.38C136.02,-69.11 176.65,-43.55 215,-28.5 221.42,-25.98 228.25,-23.75 235.13,-21.79"/>
<polygon fill="#63b8ff" stroke="#63b8ff" points="236.45,-25.06 245.21,-19.1 234.65,-18.3 236.45,-25.06"/>
</a>
</g>
</g>
<!-- Node3 -->
<g id="Node000003" class="node">
<title>Node3</title>
<g id="a_Node000003"><a xlink:href="classPlatformUtils.html#acddd420e3f04cd70a8932b5472fce01d" target="_top" xlink:title="Clears the terminal screen.">
<polygon fill="white" stroke="#666666" points="569.5,-201 425.5,-201 425.5,-182 569.5,-182 569.5,-201"/>
<text text-anchor="middle" x="497.5" y="-189" font-family="Helvetica,sans-Serif" font-size="10.00">PlatformUtils::clearScreen</text>
</a>
</g>
</g>
<!-- Node2&#45;&gt;Node3 -->
<g id="edge2_Node000002_Node000003" class="edge">
<title>Node2&#45;&gt;Node3</title>
<g id="a_edge2_Node000002_Node000003"><a xlink:title=" ">
<path fill="none" stroke="#63b8ff" d="M381.07,-191.5C392.31,-191.5 403.86,-191.5 415.11,-191.5"/>
<polygon fill="#63b8ff" stroke="#63b8ff" points="415.34,-195 425.34,-191.5 415.34,-188 415.34,-195"/>
</a>
</g>
</g>
<!-- Node5 -->
<g id="Node000005" class="node">
<title>Node5</title>
<g id="a_Node000005"><a xlink:href="classSettingsManager.html#a824eef45a26393d9038ac52ce0413596" target="_top" xlink:title="Gets a string setting value.">
<polygon fill="white" stroke="#666666" points="575,-158 420,-158 420,-139 575,-139 575,-158"/>
<text text-anchor="middle" x="497.5" y="-146" font-family="Helvetica,sans-Serif" font-size="10.00">SettingsManager::getSetting</text>
</a>
</g>
</g>
<!-- Node4&#45;&gt;Node5 -->
<g id="edge4_Node000004_Node000005" class="edge">
<title>Node4&#45;&gt;Node5</title>
<g id="a_edge4_Node000004_Node000005"><a xlink:title=" ">
<path fill="none" stroke="#63b8ff" d="M371.26,-148.5C383.72,-148.5 396.82,-148.5 409.66,-148.5"/>
<polygon fill="#63b8ff" stroke="#63b8ff" points="409.88,-152 419.88,-148.5 409.88,-145 409.88,-152"/>
</a>
</g>
</g>
</g>
</svg>
