<?xml version="1.0" encoding="UTF-8" standalone="no"?>
<!DOCTYPE svg PUBLIC "-//W3C//DTD SVG 1.1//EN"
 "http://www.w3.org/Graphics/SVG/1.1/DTD/svg11.dtd">
<!-- Generated by graphviz version 2.43.0 (0)
 -->
<!-- Title: GameWorld::checkGameConditions Pages: 1 -->
<svg width="382pt" height="249pt"
 viewBox="0.00 0.00 382.00 249.00" xmlns="http://www.w3.org/2000/svg" xmlns:xlink="http://www.w3.org/1999/xlink">
<g id="graph0" class="graph" transform="scale(1 1) rotate(0) translate(4 245)">
<title>GameWorld::checkGameConditions</title>
<!-- Node1 -->
<g id="Node000001" class="node">
<title>Node1</title>
<g id="a_Node000001"><a xlink:title="Checks win/lose conditions.">
<polygon fill="#999999" stroke="#666666" points="189,-130 0,-130 0,-111 189,-111 189,-130"/>
<text text-anchor="middle" x="94.5" y="-118" font-family="Helvetica,sans-Serif" font-size="10.00">GameWorld::checkGameConditions</text>
</a>
</g>
</g>
<!-- Node2 -->
<g id="Node000002" class="node">
<title>Node2</title>
<g id="a_Node000002"><a xlink:href="classPlayerTank.html#a34ecaf7829cc7b3e4965afa9ef6c25f0" target="_top" xlink:title="Adds points to player&#39;s score.">
<polygon fill="white" stroke="#666666" points="360,-241 239,-241 239,-222 360,-222 360,-241"/>
<text text-anchor="middle" x="299.5" y="-229" font-family="Helvetica,sans-Serif" font-size="10.00">PlayerTank::addScore</text>
</a>
</g>
</g>
<!-- Node1&#45;&gt;Node2 -->
<g id="edge1_Node000001_Node000002" class="edge">
<title>Node1&#45;&gt;Node2</title>
<g id="a_edge1_Node000001_Node000002"><a xlink:title=" ">
<path fill="none" stroke="#63b8ff" d="M106.03,-130.27C127,-149.21 176.22,-191.04 225,-213.5 229.32,-215.49 233.89,-217.28 238.55,-218.88"/>
<polygon fill="#63b8ff" stroke="#63b8ff" points="237.61,-222.25 248.2,-221.91 239.71,-215.57 237.61,-222.25"/>
</a>
</g>
</g>
<!-- Node3 -->
<g id="Node000003" class="node">
<title>Node3</title>
<g id="a_Node000003"><a xlink:href="classPlayerTank.html#a8bc0a30180b823d6446fb005fe7331c5" target="_top" xlink:title="Checks if player has remaining lives.">
<polygon fill="white" stroke="#666666" points="359,-204 240,-204 240,-185 359,-185 359,-204"/>
<text text-anchor="middle" x="299.5" y="-192" font-family="Helvetica,sans-Serif" font-size="10.00">PlayerTank::hasLives</text>
</a>
</g>
</g>
<!-- Node1&#45;&gt;Node3 -->
<g id="edge2_Node000001_Node000003" class="edge">
<title>Node1&#45;&gt;Node3</title>
<g id="a_edge2_Node000001_Node000003"><a xlink:title=" ">
<path fill="none" stroke="#63b8ff" d="M114.84,-130.09C139.81,-142.17 184.83,-163 225,-176.5 231.13,-178.56 237.62,-180.49 244.1,-182.27"/>
<polygon fill="#63b8ff" stroke="#63b8ff" points="243.67,-185.78 254.24,-184.94 245.46,-179.01 243.67,-185.78"/>
</a>
</g>
</g>
<!-- Node4 -->
<g id="Node000004" class="node">
<title>Node4</title>
<g id="a_Node000004"><a xlink:href="classGameObject.html#a51ac0947e5c628f04657cafecc9fe36b" target="_top" xlink:title="Checks if object is destroyed.">
<polygon fill="white" stroke="#666666" points="370.5,-167 228.5,-167 228.5,-148 370.5,-148 370.5,-167"/>
<text text-anchor="middle" x="299.5" y="-155" font-family="Helvetica,sans-Serif" font-size="10.00">GameObject::isDestroyed</text>
</a>
</g>
</g>
<!-- Node1&#45;&gt;Node4 -->
<g id="edge3_Node000001_Node000004" class="edge">
<title>Node1&#45;&gt;Node4</title>
<g id="a_edge3_Node000001_Node000004"><a xlink:title=" ">
<path fill="none" stroke="#63b8ff" d="M147.78,-130.03C174.67,-134.93 207.64,-140.94 235.88,-146.09"/>
<polygon fill="#63b8ff" stroke="#63b8ff" points="235.58,-149.59 246.05,-147.94 236.84,-142.7 235.58,-149.59"/>
</a>
</g>
</g>
<!-- Node5 -->
<g id="Node000005" class="node">
<title>Node5</title>
<g id="a_Node000005"><a xlink:href="classPlayerTank.html#ad491a43f547fc464ac3bc4c36feeff90" target="_top" xlink:title="Reduces player&#39;s lives by one.">
<polygon fill="white" stroke="#666666" points="356.5,-130 242.5,-130 242.5,-111 356.5,-111 356.5,-130"/>
<text text-anchor="middle" x="299.5" y="-118" font-family="Helvetica,sans-Serif" font-size="10.00">PlayerTank::loseLife</text>
</a>
</g>
</g>
<!-- Node1&#45;&gt;Node5 -->
<g id="edge4_Node000001_Node000005" class="edge">
<title>Node1&#45;&gt;Node5</title>
<g id="a_edge4_Node000001_Node000005"><a xlink:title=" ">
<path fill="none" stroke="#63b8ff" d="M189.28,-120.5C203.76,-120.5 218.46,-120.5 232.18,-120.5"/>
<polygon fill="#63b8ff" stroke="#63b8ff" points="232.46,-124 242.46,-120.5 232.46,-117 232.46,-124"/>
</a>
</g>
</g>
<!-- Node6 -->
<g id="Node000006" class="node">
<title>Node6</title>
<g id="a_Node000006"><a xlink:href="classGameObject.html#ae1bd24d3b8b67f3c5006ceb1b2159d11" target="_top" xlink:title="Sets destroyed state of the object.">
<polygon fill="white" stroke="#666666" points="374,-93 225,-93 225,-74 374,-74 374,-93"/>
<text text-anchor="middle" x="299.5" y="-81" font-family="Helvetica,sans-Serif" font-size="10.00">GameObject::setDestroyed</text>
</a>
</g>
</g>
<!-- Node1&#45;&gt;Node6 -->
<g id="edge5_Node000001_Node000006" class="edge">
<title>Node1&#45;&gt;Node6</title>
<g id="a_edge5_Node000001_Node000006"><a xlink:title=" ">
<path fill="none" stroke="#63b8ff" d="M147.78,-110.97C174.67,-106.07 207.64,-100.06 235.88,-94.91"/>
<polygon fill="#63b8ff" stroke="#63b8ff" points="236.84,-98.3 246.05,-93.06 235.58,-91.41 236.84,-98.3"/>
</a>
</g>
</g>
<!-- Node7 -->
<g id="Node000007" class="node">
<title>Node7</title>
<g id="a_Node000007"><a xlink:href="classGameObject.html#a3cf581673b5b0099d250a434fed52f4d" target="_top" xlink:title="Sets new health value for the object.">
<polygon fill="white" stroke="#666666" points="365,-56 234,-56 234,-37 365,-37 365,-56"/>
<text text-anchor="middle" x="299.5" y="-44" font-family="Helvetica,sans-Serif" font-size="10.00">GameObject::setHealth</text>
</a>
</g>
</g>
<!-- Node1&#45;&gt;Node7 -->
<g id="edge6_Node000001_Node000007" class="edge">
<title>Node1&#45;&gt;Node7</title>
<g id="a_edge6_Node000001_Node000007"><a xlink:title=" ">
<path fill="none" stroke="#63b8ff" d="M115.33,-110.98C140.43,-99.19 185.22,-79.01 225,-65.5 232.12,-63.08 239.71,-60.8 247.21,-58.71"/>
<polygon fill="#63b8ff" stroke="#63b8ff" points="248.23,-62.06 256.98,-56.09 246.41,-55.3 248.23,-62.06"/>
</a>
</g>
</g>
<!-- Node8 -->
<g id="Node000008" class="node">
<title>Node8</title>
<g id="a_Node000008"><a xlink:href="classGameObject.html#a8e1f77d21a8ed8a894ae29f0e4126618" target="_top" xlink:title="Sets new position for the object.">
<polygon fill="white" stroke="#666666" points="368,-19 231,-19 231,0 368,0 368,-19"/>
<text text-anchor="middle" x="299.5" y="-7" font-family="Helvetica,sans-Serif" font-size="10.00">GameObject::setPosition</text>
</a>
</g>
</g>
<!-- Node1&#45;&gt;Node8 -->
<g id="edge7_Node000001_Node000008" class="edge">
<title>Node1&#45;&gt;Node8</title>
<g id="a_edge7_Node000001_Node000008"><a xlink:title=" ">
<path fill="none" stroke="#63b8ff" d="M106.07,-110.9C127.13,-92.26 176.49,-51.06 225,-28.5 230.08,-26.14 235.5,-24.04 241,-22.17"/>
<polygon fill="#63b8ff" stroke="#63b8ff" points="242.44,-25.39 250.95,-19.08 240.36,-18.71 242.44,-25.39"/>
</a>
</g>
</g>
</g>
</svg>
