<?xml version="1.0" encoding="UTF-8" standalone="no"?>
<!DOCTYPE svg PUBLIC "-//W3C//DTD SVG 1.1//EN"
 "http://www.w3.org/Graphics/SVG/1.1/DTD/svg11.dtd">
<!-- Generated by graphviz version 2.43.0 (0)
 -->
<!-- Title: PlayerTank Pages: 1 -->
<svg width="90pt" height="205pt"
 viewBox="0.00 0.00 89.50 205.00" xmlns="http://www.w3.org/2000/svg" xmlns:xlink="http://www.w3.org/1999/xlink">
<g id="graph0" class="graph" transform="scale(1 1) rotate(0) translate(4 201)">
<title>PlayerTank</title>
<!-- Node1 -->
<g id="Node000001" class="node">
<title>Node1</title>
<g id="a_Node000001"><a xlink:title="Class representing the player&#45;controlled tank.">
<polygon fill="#999999" stroke="#666666" points="73.5,-19 3.5,-19 3.5,0 73.5,0 73.5,-19"/>
<text text-anchor="middle" x="38.5" y="-7" font-family="Helvetica,sans-Serif" font-size="10.00">PlayerTank</text>
</a>
</g>
</g>
<!-- Node2 -->
<g id="Node000002" class="node">
<title>Node2</title>
<g id="a_Node000002"><a xlink:href="classTank.html" target="_top" xlink:title="Abstract base class for all tank entities.">
<polygon fill="white" stroke="#666666" points="58,-75 19,-75 19,-56 58,-56 58,-75"/>
<text text-anchor="middle" x="38.5" y="-63" font-family="Helvetica,sans-Serif" font-size="10.00">Tank</text>
</a>
</g>
</g>
<!-- Node2&#45;&gt;Node1 -->
<g id="edge1_Node000001_Node000002" class="edge">
<title>Node2&#45;&gt;Node1</title>
<g id="a_edge1_Node000001_Node000002"><a xlink:title=" ">
<path fill="none" stroke="#63b8ff" d="M38.5,-45.3C38.5,-36.41 38.5,-26.28 38.5,-19.25"/>
<polygon fill="#63b8ff" stroke="#63b8ff" points="35,-45.58 38.5,-55.58 42,-45.58 35,-45.58"/>
</a>
</g>
</g>
<!-- Node3 -->
<g id="Node000003" class="node">
<title>Node3</title>
<g id="a_Node000003"><a xlink:href="classGameObject.html" target="_top" xlink:title="Abstract base class for all game objects.">
<polygon fill="white" stroke="#666666" points="77,-131 0,-131 0,-112 77,-112 77,-131"/>
<text text-anchor="middle" x="38.5" y="-119" font-family="Helvetica,sans-Serif" font-size="10.00">GameObject</text>
</a>
</g>
</g>
<!-- Node3&#45;&gt;Node2 -->
<g id="edge2_Node000002_Node000003" class="edge">
<title>Node3&#45;&gt;Node2</title>
<g id="a_edge2_Node000002_Node000003"><a xlink:title=" ">
<path fill="none" stroke="#63b8ff" d="M38.5,-101.3C38.5,-92.41 38.5,-82.28 38.5,-75.25"/>
<polygon fill="#63b8ff" stroke="#63b8ff" points="35,-101.58 38.5,-111.58 42,-101.58 35,-101.58"/>
</a>
</g>
</g>
<!-- Node4 -->
<g id="Node000004" class="node">
<title>Node4</title>
<g id="a_Node000004"><a xlink:href="structPoint.html" target="_top" xlink:title="Structure representing a 2D point with integer coordinates.">
<polygon fill="white" stroke="#666666" points="59,-197 18,-197 18,-178 59,-178 59,-197"/>
<text text-anchor="middle" x="38.5" y="-185" font-family="Helvetica,sans-Serif" font-size="10.00">Point</text>
</a>
</g>
</g>
<!-- Node4&#45;&gt;Node3 -->
<g id="edge3_Node000003_Node000004" class="edge">
<title>Node4&#45;&gt;Node3</title>
<g id="a_edge3_Node000003_Node000004"><a xlink:title=" ">
<path fill="none" stroke="#9a32cd" stroke-dasharray="5,2" d="M38.5,-167.58C38.5,-155.63 38.5,-140.72 38.5,-131.41"/>
<polygon fill="#9a32cd" stroke="#9a32cd" points="35,-167.87 38.5,-177.87 42,-167.87 35,-167.87"/>
</a>
</g>
<text text-anchor="middle" x="60" y="-152" font-family="Helvetica,sans-Serif" font-size="10.00" fill="grey"> position</text>
</g>
</g>
</svg>
