<?xml version="1.0" encoding="UTF-8" standalone="no"?>
<!DOCTYPE svg PUBLIC "-//W3C//DTD SVG 1.1//EN"
 "http://www.w3.org/Graphics/SVG/1.1/DTD/svg11.dtd">
<!-- Generated by graphviz version 2.43.0 (0)
 -->
<!-- Title: GameWorld::loadLevel Pages: 1 -->
<!--zoomable 286 -->

<svg id="main" version="1.1" xmlns="http://www.w3.org/2000/svg" xmlns:xlink="http://www.w3.org/1999/xlink" xml:space="preserve" onload="init(evt)">
<style type="text/css"><![CDATA[
.node, .edge {opacity: 0.7;}
.node.selected, .edge.selected {opacity: 1;}
.edge:hover path { stroke: red; }
.edge:hover polygon { stroke: red; fill: red; }
]]></style>

<defs>
  <circle id="rim" cx="0" cy="0" r="7"/>
  <circle id="rim2" cx="0" cy="0" r="3.5"/>
  <g id="zoomPlus">
    <use xlink:href="#rim" fill="#404040"><set attributeName="fill" to="#808080" begin="zoomplus.mouseover" end="zoomplus.mouseout"/></use>
    <path d="M-4,0h8M0,-4v8" fill="none" stroke="white" stroke-width="1.5" pointer-events="none"/>
  </g>
  <g id="zoomMin">
    <use xlink:href="#rim" fill="#404040"><set attributeName="fill" to="#808080" begin="zoomminus.mouseover" end="zoomminus.mouseout"/></use>
    <path d="M-4,0h8" fill="none" stroke="white" stroke-width="1.5" pointer-events="none"/>
  </g>
  <g id="arrowUp" transform="translate(30 24)">
    <use xlink:href="#rim"/>
    <path pointer-events="none" fill="none" stroke="white" stroke-width="1.5" d="M0,-3.0v7 M-2.5,-0.5L0,-3.0L2.5,-0.5"/>
  </g>
  <g id="arrowRight" transform="rotate(90) translate(36 -43)">
    <use xlink:href="#rim"/>
    <path pointer-events="none" fill="none" stroke="white" stroke-width="1.5" d="M0,-3.0v7 M-2.5,-0.5L0,-3.0L2.5,-0.5"/>
  </g>
  <g id="arrowDown" transform="rotate(180) translate(-30 -48)">
    <use xlink:href="#rim"/>
    <path pointer-events="none" fill="none" stroke="white" stroke-width="1.5" d="M0,-3.0v7 M-2.5,-0.5L0,-3.0L2.5,-0.5"/>
  </g>
  <g id="arrowLeft" transform="rotate(270) translate(-36 17)">
    <use xlink:href="#rim"/>
    <path pointer-events="none" fill="none" stroke="white" stroke-width="1.5" d="M0,-3.0v7 M-2.5,-0.5L0,-3.0L2.5,-0.5"/>
  </g>
  <g id="resetDef">
    <use xlink:href="#rim2" fill="#404040"><set attributeName="fill" to="#808080" begin="reset.mouseover" end="reset.mouseout"/></use>
  </g>
</defs>
<script type="application/ecmascript">
var viewWidth = 698;
var viewHeight = 286;
var sectionId = 'dynsection-47';
</script>
<script type="application/ecmascript" xlink:href="svg.min.js"/>
<svg id="graph" class="graph">
<g id="viewport">
<title>GameWorld::loadLevel</title>
<!-- Node1 -->
<g id="Node000001" class="node">
<title>Node1</title>
<g id="a_Node000001"><a xlink:title="Loads specified level.">
<polygon fill="#999999" stroke="#666666" points="127,-166 0,-166 0,-147 127,-147 127,-166"/>
<text text-anchor="middle" x="63.5" y="-154" font-family="Helvetica,sans-Serif" font-size="10.00">GameWorld::loadLevel</text>
</a>
</g>
</g>
<!-- Node2 -->
<g id="Node000002" class="node">
<title>Node2</title>
<g id="a_Node000002"><a xlink:href="classGameWorld.html#a82921d6b419e2aa8244c5cf69feac3ff" target="_top" xlink:title="Creates enemies for level.">
<polygon fill="white" stroke="#666666" points="331.5,-241 179.5,-241 179.5,-222 331.5,-222 331.5,-241"/>
<text text-anchor="middle" x="255.5" y="-229" font-family="Helvetica,sans-Serif" font-size="10.00">GameWorld::createEnemies</text>
</a>
</g>
</g>
<!-- Node1&#45;&gt;Node2 -->
<g id="edge1_Node000001_Node000002" class="edge">
<title>Node1&#45;&gt;Node2</title>
<g id="a_edge1_Node000001_Node000002"><a xlink:title=" ">
<path fill="none" stroke="#63b8ff" d="M77.81,-166.14C96.1,-178.91 130.45,-201.27 163,-213.5 168.87,-215.7 175.05,-217.65 181.33,-219.38"/>
<polygon fill="#63b8ff" stroke="#63b8ff" points="180.67,-222.82 191.23,-221.9 182.4,-216.04 180.67,-222.82"/>
</a>
</g>
</g>
<!-- Node3 -->
<g id="Node000003" class="node">
<title>Node3</title>
<g id="a_Node000003"><a xlink:href="classGameWorld.html#a704a245a7945b1d7453b22bd698ff5b3" target="_top" xlink:title="Creates obstacles for level.">
<polygon fill="white" stroke="#666666" points="348,-204 163,-204 163,-185 348,-185 348,-204"/>
<text text-anchor="middle" x="255.5" y="-192" font-family="Helvetica,sans-Serif" font-size="10.00">GameWorld::createLevelObstacles</text>
</a>
</g>
</g>
<!-- Node1&#45;&gt;Node3 -->
<g id="edge2_Node000001_Node000003" class="edge">
<title>Node1&#45;&gt;Node3</title>
<g id="a_edge2_Node000001_Node000003"><a xlink:title=" ">
<path fill="none" stroke="#63b8ff" d="M112.45,-166.09C138.08,-171.22 169.84,-177.57 196.82,-182.96"/>
<polygon fill="#63b8ff" stroke="#63b8ff" points="196.41,-186.45 206.9,-184.98 197.78,-179.59 196.41,-186.45"/>
</a>
</g>
</g>
<!-- Node8 -->
<g id="Node000008" class="node">
<title>Node8</title>
<g id="a_Node000008"><a xlink:href="classPlayerTank.html#a59e06eac615955573cfa6842e37f41ad" target="_top" xlink:title="Resets player tank to initial state.">
<polygon fill="white" stroke="#666666" points="306,-111 205,-111 205,-92 306,-92 306,-111"/>
<text text-anchor="middle" x="255.5" y="-99" font-family="Helvetica,sans-Serif" font-size="10.00">PlayerTank::reset</text>
</a>
</g>
</g>
<!-- Node1&#45;&gt;Node8 -->
<g id="edge7_Node000001_Node000008" class="edge">
<title>Node1&#45;&gt;Node8</title>
<g id="a_edge7_Node000001_Node000008"><a xlink:title=" ">
<path fill="none" stroke="#63b8ff" d="M97.6,-146.92C129.24,-137.76 177.11,-123.9 211.65,-113.9"/>
<polygon fill="#63b8ff" stroke="#63b8ff" points="212.83,-117.21 221.47,-111.06 210.89,-110.48 212.83,-117.21"/>
</a>
</g>
</g>
<!-- Node12 -->
<g id="Node000012" class="node">
<title>Node12</title>
<g id="a_Node000012"><a xlink:href="classGameObject.html#a8e1f77d21a8ed8a894ae29f0e4126618" target="_top" xlink:title="Sets new position for the object.">
<polygon fill="white" stroke="#666666" points="529.5,-19 392.5,-19 392.5,0 529.5,0 529.5,-19"/>
<text text-anchor="middle" x="461" y="-7" font-family="Helvetica,sans-Serif" font-size="10.00">GameObject::setPosition</text>
</a>
</g>
</g>
<!-- Node1&#45;&gt;Node12 -->
<g id="edge13_Node000001_Node000012" class="edge">
<title>Node1&#45;&gt;Node12</title>
<g id="a_edge13_Node000001_Node000012"><a xlink:title=" ">
<path fill="none" stroke="#63b8ff" d="M74.54,-146.92C91.44,-131.32 127.23,-100.47 163,-83.5 233.38,-50.11 320.54,-30.7 382.19,-20.2"/>
<polygon fill="#63b8ff" stroke="#63b8ff" points="382.95,-23.62 392.24,-18.53 381.8,-16.72 382.95,-23.62"/>
</a>
</g>
</g>
<!-- Node4 -->
<g id="Node000004" class="node">
<title>Node4</title>
<g id="a_Node000004"><a xlink:href="classGameWorld.html#af148052443ed7c0e22a0ed325429fd1e" target="_top" xlink:title="Adjusts difficulty based on level.">
<polygon fill="white" stroke="#666666" points="538,-278 384,-278 384,-259 538,-259 538,-278"/>
<text text-anchor="middle" x="461" y="-266" font-family="Helvetica,sans-Serif" font-size="10.00">GameWorld::adjustDifficulty</text>
</a>
</g>
</g>
<!-- Node3&#45;&gt;Node4 -->
<g id="edge3_Node000003_Node000004" class="edge">
<title>Node3&#45;&gt;Node4</title>
<g id="a_edge3_Node000003_Node000004"><a xlink:title=" ">
<path fill="none" stroke="#63b8ff" d="M325.08,-204.03C333.06,-206.49 340.89,-209.6 348,-213.5 368.11,-224.54 364.04,-239.18 384,-250.5 387.2,-252.31 390.57,-253.94 394.04,-255.41"/>
<polygon fill="#63b8ff" stroke="#63b8ff" points="392.83,-258.69 403.42,-258.92 395.28,-252.14 392.83,-258.69"/>
</a>
</g>
</g>
<!-- Node5 -->
<g id="Node000005" class="node">
<title>Node5</title>
<g id="a_Node000005"><a xlink:href="classGameObject.html#aa4dd19d6b0ea5701d860b64b08435ae6" target="_top" xlink:title="Gets current position of the object.">
<polygon fill="white" stroke="#666666" points="530,-241 392,-241 392,-222 530,-222 530,-241"/>
<text text-anchor="middle" x="461" y="-229" font-family="Helvetica,sans-Serif" font-size="10.00">GameObject::getPosition</text>
</a>
</g>
</g>
<!-- Node3&#45;&gt;Node5 -->
<g id="edge4_Node000003_Node000005" class="edge">
<title>Node3&#45;&gt;Node5</title>
<g id="a_edge4_Node000003_Node000005"><a xlink:title=" ">
<path fill="none" stroke="#63b8ff" d="M308.91,-204.03C335.86,-208.93 368.91,-214.94 397.22,-220.09"/>
<polygon fill="#63b8ff" stroke="#63b8ff" points="396.95,-223.59 407.42,-221.94 398.21,-216.71 396.95,-223.59"/>
</a>
</g>
</g>
<!-- Node6 -->
<g id="Node000006" class="node">
<title>Node6</title>
<g id="a_Node000006"><a xlink:href="classGameWorld.html#a44dd38e9393e523caefeac7448cfc18c" target="_top" xlink:title="Checks if position is valid.">
<polygon fill="white" stroke="#666666" points="536.5,-204 385.5,-204 385.5,-185 536.5,-185 536.5,-204"/>
<text text-anchor="middle" x="461" y="-192" font-family="Helvetica,sans-Serif" font-size="10.00">GameWorld::isValidPosition</text>
</a>
</g>
</g>
<!-- Node3&#45;&gt;Node6 -->
<g id="edge5_Node000003_Node000006" class="edge">
<title>Node3&#45;&gt;Node6</title>
<g id="a_edge5_Node000003_Node000006"><a xlink:title=" ">
<path fill="none" stroke="#63b8ff" d="M348.13,-194.5C357.17,-194.5 366.33,-194.5 375.3,-194.5"/>
<polygon fill="#63b8ff" stroke="#63b8ff" points="375.33,-198 385.33,-194.5 375.33,-191 375.33,-198"/>
</a>
</g>
</g>
<!-- Node7 -->
<g id="Node000007" class="node">
<title>Node7</title>
<g id="a_Node000007"><a xlink:href="classObstacle.html#aa1936373d282c8dba39f529526b6143d" target="_top" xlink:title="Checks if obstacle is passable for tanks.">
<polygon fill="white" stroke="#666666" points="690,-204 574,-204 574,-185 690,-185 690,-204"/>
<text text-anchor="middle" x="632" y="-192" font-family="Helvetica,sans-Serif" font-size="10.00">Obstacle::isPassable</text>
</a>
</g>
</g>
<!-- Node6&#45;&gt;Node7 -->
<g id="edge6_Node000006_Node000007" class="edge">
<title>Node6&#45;&gt;Node7</title>
<g id="a_edge6_Node000006_Node000007"><a xlink:title=" ">
<path fill="none" stroke="#63b8ff" d="M536.62,-194.5C545.58,-194.5 554.69,-194.5 563.54,-194.5"/>
<polygon fill="#63b8ff" stroke="#63b8ff" points="563.79,-198 573.79,-194.5 563.79,-191 563.79,-198"/>
</a>
</g>
</g>
<!-- Node9 -->
<g id="Node000009" class="node">
<title>Node9</title>
<g id="a_Node000009"><a xlink:href="classGameObject.html#a4bc41ca14c07e61dafa74a03c4f3e2df" target="_top" xlink:title="Rotates the object to face new direction.">
<polygon fill="white" stroke="#666666" points="517.5,-167 404.5,-167 404.5,-148 517.5,-148 517.5,-167"/>
<text text-anchor="middle" x="461" y="-155" font-family="Helvetica,sans-Serif" font-size="10.00">GameObject::rotate</text>
</a>
</g>
</g>
<!-- Node8&#45;&gt;Node9 -->
<g id="edge8_Node000008_Node000009" class="edge">
<title>Node8&#45;&gt;Node9</title>
<g id="a_edge8_Node000008_Node000009"><a xlink:title=" ">
<path fill="none" stroke="#63b8ff" d="M286.76,-111.05C312.51,-119.05 350.53,-130.56 384,-139.5 391.64,-141.54 399.75,-143.59 407.72,-145.53"/>
<polygon fill="#63b8ff" stroke="#63b8ff" points="407.14,-148.99 417.68,-147.93 408.78,-142.19 407.14,-148.99"/>
</a>
</g>
</g>
<!-- Node10 -->
<g id="Node000010" class="node">
<title>Node10</title>
<g id="a_Node000010"><a xlink:href="classGameObject.html#ae1bd24d3b8b67f3c5006ceb1b2159d11" target="_top" xlink:title="Sets destroyed state of the object.">
<polygon fill="white" stroke="#666666" points="535.5,-130 386.5,-130 386.5,-111 535.5,-111 535.5,-130"/>
<text text-anchor="middle" x="461" y="-118" font-family="Helvetica,sans-Serif" font-size="10.00">GameObject::setDestroyed</text>
</a>
</g>
</g>
<!-- Node8&#45;&gt;Node10 -->
<g id="edge9_Node000008_Node000010" class="edge">
<title>Node8&#45;&gt;Node10</title>
<g id="a_edge9_Node000008_Node000010"><a xlink:title=" ">
<path fill="none" stroke="#63b8ff" d="M306.02,-106.12C327.12,-108.09 352.34,-110.45 376.2,-112.68"/>
<polygon fill="#63b8ff" stroke="#63b8ff" points="376.04,-116.18 386.32,-113.62 376.69,-109.21 376.04,-116.18"/>
</a>
</g>
</g>
<!-- Node11 -->
<g id="Node000011" class="node">
<title>Node11</title>
<g id="a_Node000011"><a xlink:href="classGameObject.html#a3cf581673b5b0099d250a434fed52f4d" target="_top" xlink:title="Sets new health value for the object.">
<polygon fill="white" stroke="#666666" points="526.5,-93 395.5,-93 395.5,-74 526.5,-74 526.5,-93"/>
<text text-anchor="middle" x="461" y="-81" font-family="Helvetica,sans-Serif" font-size="10.00">GameObject::setHealth</text>
</a>
</g>
</g>
<!-- Node8&#45;&gt;Node11 -->
<g id="edge10_Node000008_Node000011" class="edge">
<title>Node8&#45;&gt;Node11</title>
<g id="a_edge10_Node000008_Node000011"><a xlink:title=" ">
<path fill="none" stroke="#63b8ff" d="M306.02,-97.12C329.81,-95.02 358.82,-92.45 385.22,-90.11"/>
<polygon fill="#63b8ff" stroke="#63b8ff" points="385.54,-93.6 395.19,-89.23 384.92,-86.63 385.54,-93.6"/>
</a>
</g>
</g>
<!-- Node8&#45;&gt;Node12 -->
<g id="edge11_Node000008_Node000012" class="edge">
<title>Node8&#45;&gt;Node12</title>
<g id="a_edge11_Node000008_Node000012"><a xlink:title=" ">
<path fill="none" stroke="#63b8ff" d="M282.81,-91.85C301.7,-84.35 327.36,-72.97 348,-59.5 365.92,-47.8 365.01,-37.38 384,-27.5 387.72,-25.56 391.65,-23.83 395.69,-22.29"/>
<polygon fill="#63b8ff" stroke="#63b8ff" points="396.93,-25.56 405.25,-19 394.66,-18.94 396.93,-25.56"/>
</a>
</g>
</g>
<!-- Node13 -->
<g id="Node000013" class="node">
<title>Node13</title>
<g id="a_Node000013"><a xlink:href="classTank.html#a1c5feece02579ec3508781a825f97c83" target="_top" xlink:title="Sets base speed for the tank.">
<polygon fill="white" stroke="#666666" points="506,-56 416,-56 416,-37 506,-37 506,-56"/>
<text text-anchor="middle" x="461" y="-44" font-family="Helvetica,sans-Serif" font-size="10.00">Tank::setSpeed</text>
</a>
</g>
</g>
<!-- Node8&#45;&gt;Node13 -->
<g id="edge12_Node000008_Node000013" class="edge">
<title>Node8&#45;&gt;Node13</title>
<g id="a_edge12_Node000008_Node000013"><a xlink:title=" ">
<path fill="none" stroke="#63b8ff" d="M289.18,-91.98C314.89,-84.56 351.66,-74.11 384,-65.5 392.69,-63.19 401.96,-60.8 410.93,-58.54"/>
<polygon fill="#63b8ff" stroke="#63b8ff" points="412.04,-61.87 420.89,-56.04 410.34,-55.08 412.04,-61.87"/>
</a>
</g>
</g>
</g>
</svg>

<g id="navigator" transform="translate(0 0)" fill="#404254">
  <rect fill="#f2f5e9" fill-opacity="0.5" stroke="#606060" stroke-width=".5" x="0" y="0" width="60" height="60"/>
  <use id="zoomplus" xlink:href="#zoomPlus" x="17" y="9" onmousedown="handleZoom(evt,'in')"/>
  <use id="zoomminus" xlink:href="#zoomMin" x="42" y="9" onmousedown="handleZoom(evt,'out')"/>
  <use id="reset" xlink:href="#resetDef" x="30" y="36" onmousedown="handleReset()"/>
   <use id="arrowup" xlink:href="#arrowUp" x="0" y="0" onmousedown="handlePan(0,-1)"/>
  <use id="arrowright" xlink:href="#arrowRight" x="0" y="0" onmousedown="handlePan(1,0)"/>
  <use id="arrowdown" xlink:href="#arrowDown" x="0" y="0" onmousedown="handlePan(0,1)"/>
  <use id="arrowleft" xlink:href="#arrowLeft" x="0" y="0" onmousedown="handlePan(-1,0)"/>
</g>
<svg viewBox="0 0 15 15" width="100%" height="30px" preserveAspectRatio="xMaxYMin meet">
 <g id="arrow_out" transform="scale(0.3 0.3)">
  <a xlink:href="classGameWorld_a13fd8123f71f48726bfeb233961f88da_cgraph_org.svg" target="_base">
   <rect id="button" ry="5" rx="5" y="6" x="6" height="38" width="38"
        fill="#f2f5e9" fill-opacity="0.5" stroke="#606060" stroke-width="1.0"/>
   <path id="arrow"
     d="M 11.500037,31.436501 C 11.940474,20.09759 22.043105,11.32322 32.158766,21.979434 L 37.068811,17.246167 C 37.068811,17.246167 37.088388,32 37.088388,32 L 22.160133,31.978069 C 22.160133,31.978069 26.997745,27.140456 26.997745,27.140456 C 18.528582,18.264221 13.291696,25.230495 11.500037,31.436501 z"
     style="fill:#404040;"/>
  </a>
 </g>
</svg>

<style type='text/css'>
<![CDATA[
[data-mouse-over-selected='false'] { opacity: 0.7; }
[data-mouse-over-selected='true']  { opacity: 1.0; }
]]>
</style>
<script type="application/ecmascript"><![CDATA[
document.addEventListener('DOMContentLoaded', (event) => {
  highlightEdges();
  highlightAdjacentNodes();
});
]]></script>
</svg>
