<?xml version="1.0" encoding="UTF-8" standalone="no"?>
<!DOCTYPE svg PUBLIC "-//W3C//DTD SVG 1.1//EN"
 "http://www.w3.org/Graphics/SVG/1.1/DTD/svg11.dtd">
<!-- Generated by graphviz version 2.43.0 (0)
 -->
<!-- Title: GameObject::getPosition Pages: 1 -->
<svg width="2140pt" height="619pt"
 viewBox="0.00 0.00 2140.00 619.15" xmlns="http://www.w3.org/2000/svg" xmlns:xlink="http://www.w3.org/1999/xlink">
<g id="graph0" class="graph" transform="scale(1 1) rotate(0) translate(4 615.15)">
<title>GameObject::getPosition</title>
<!-- Node1 -->
<g id="Node000001" class="node">
<title>Node1</title>
<g id="a_Node000001"><a xlink:title="Gets current position of the object.">
<polygon fill="#999999" stroke="#666666" points="2132,-309.65 1994,-309.65 1994,-290.65 2132,-290.65 2132,-309.65"/>
<text text-anchor="middle" x="2063" y="-297.65" font-family="Helvetica,sans-Serif" font-size="10.00">GameObject::getPosition</text>
</a>
</g>
</g>
<!-- Node2 -->
<g id="Node000002" class="node">
<title>Node2</title>
<g id="a_Node000002"><a xlink:href="classGameWorld.html#a7ddabf5c5dc78379e8b75d531068fa5a" target="_top" xlink:title="Checks bonus collection.">
<polygon fill="white" stroke="#666666" points="1726.5,-562.65 1541.5,-562.65 1541.5,-543.65 1726.5,-543.65 1726.5,-562.65"/>
<text text-anchor="middle" x="1634" y="-550.65" font-family="Helvetica,sans-Serif" font-size="10.00">GameWorld::checkBonusCollisions</text>
</a>
</g>
</g>
<!-- Node1&#45;&gt;Node2 -->
<g id="edge1_Node000001_Node000002" class="edge">
<title>Node1&#45;&gt;Node2</title>
<g id="a_edge1_Node000001_Node000002"><a xlink:title=" ">
<path fill="none" stroke="#63b8ff" d="M2060.23,-319.79C2054.8,-367.05 2033.81,-487.08 1958,-539.15 1921.74,-564.06 1808.78,-563.71 1726.65,-559.7"/>
<polygon fill="#63b8ff" stroke="#63b8ff" points="2063.73,-319.97 2061.28,-309.66 2056.77,-319.25 2063.73,-319.97"/>
</a>
</g>
</g>
<!-- Node8 -->
<g id="Node000008" class="node">
<title>Node8</title>
<g id="a_Node000008"><a xlink:href="classGameWorld.html#a6b4f2f8d12f4dcde90d48853dd37f6cc" target="_top" xlink:title="Checks boundary collisions.">
<polygon fill="white" stroke="#666666" points="1941.5,-530.15 1786.5,-530.15 1786.5,-500.15 1941.5,-500.15 1941.5,-530.15"/>
<text text-anchor="start" x="1794.5" y="-518.15" font-family="Helvetica,sans-Serif" font-size="10.00">GameWorld::checkBoundary</text>
<text text-anchor="middle" x="1864" y="-507.15" font-family="Helvetica,sans-Serif" font-size="10.00">Collisions</text>
</a>
</g>
</g>
<!-- Node1&#45;&gt;Node8 -->
<g id="edge7_Node000001_Node000008" class="edge">
<title>Node1&#45;&gt;Node8</title>
<g id="a_edge7_Node000001_Node000008"><a xlink:title=" ">
<path fill="none" stroke="#63b8ff" d="M2056.44,-319.72C2044.68,-357.55 2013.7,-440.96 1958,-486.15 1951.04,-491.8 1942.97,-496.35 1934.56,-500.02"/>
<polygon fill="#63b8ff" stroke="#63b8ff" points="2059.85,-320.52 2059.36,-309.93 2053.15,-318.51 2059.85,-320.52"/>
</a>
</g>
</g>
<!-- Node9 -->
<g id="Node000009" class="node">
<title>Node9</title>
<g id="a_Node000009"><a xlink:href="classGameWorld.html#ab28f8bec4f78b7be44d509449508babb" target="_top" xlink:title="Checks tank&#45;obstacle collisions.">
<polygon fill="white" stroke="#666666" points="1720.5,-487.15 1547.5,-487.15 1547.5,-457.15 1720.5,-457.15 1720.5,-487.15"/>
<text text-anchor="start" x="1555.5" y="-475.15" font-family="Helvetica,sans-Serif" font-size="10.00">GameWorld::checkTankObstacle</text>
<text text-anchor="middle" x="1634" y="-464.15" font-family="Helvetica,sans-Serif" font-size="10.00">Collisions</text>
</a>
</g>
</g>
<!-- Node1&#45;&gt;Node9 -->
<g id="edge9_Node000001_Node000009" class="edge">
<title>Node1&#45;&gt;Node9</title>
<g id="a_edge9_Node000001_Node000009"><a xlink:title=" ">
<path fill="none" stroke="#63b8ff" d="M2055.31,-319.68C2042.48,-353.71 2010.93,-423.11 1958,-453.15 1885.82,-494.12 1789.37,-494.13 1720.7,-486.81"/>
<polygon fill="#63b8ff" stroke="#63b8ff" points="2058.71,-320.57 2058.81,-309.97 2052.12,-318.19 2058.71,-320.57"/>
</a>
</g>
</g>
<!-- Node10 -->
<g id="Node000010" class="node">
<title>Node10</title>
<g id="a_Node000010"><a xlink:href="classGameWorld.html#aba83e6f4f714c9f590f4cb8078cd9a2b" target="_top" xlink:title="Checks tank&#45;tank collisions.">
<polygon fill="white" stroke="#666666" points="1710.5,-401.15 1557.5,-401.15 1557.5,-371.15 1710.5,-371.15 1710.5,-401.15"/>
<text text-anchor="start" x="1565.5" y="-389.15" font-family="Helvetica,sans-Serif" font-size="10.00">GameWorld::checkTankTank</text>
<text text-anchor="middle" x="1634" y="-378.15" font-family="Helvetica,sans-Serif" font-size="10.00">Collisions</text>
</a>
</g>
</g>
<!-- Node1&#45;&gt;Node10 -->
<g id="edge11_Node000001_Node000010" class="edge">
<title>Node1&#45;&gt;Node10</title>
<g id="a_edge11_Node000001_Node000010"><a xlink:title=" ">
<path fill="none" stroke="#63b8ff" d="M2043.62,-316.25C2023.95,-332.39 1991.08,-356.35 1958,-367.15 1876.56,-393.74 1777.53,-395.39 1710.76,-392.38"/>
<polygon fill="#63b8ff" stroke="#63b8ff" points="2046.05,-318.78 2051.44,-309.66 2041.54,-313.42 2046.05,-318.78"/>
</a>
</g>
</g>
<!-- Node11 -->
<g id="Node000011" class="node">
<title>Node11</title>
<g id="a_Node000011"><a xlink:href="classGameWorld.html#a704a245a7945b1d7453b22bd698ff5b3" target="_top" xlink:title="Creates obstacles for level.">
<polygon fill="white" stroke="#666666" points="1956.5,-71.65 1771.5,-71.65 1771.5,-52.65 1956.5,-52.65 1956.5,-71.65"/>
<text text-anchor="middle" x="1864" y="-59.65" font-family="Helvetica,sans-Serif" font-size="10.00">GameWorld::createLevelObstacles</text>
</a>
</g>
</g>
<!-- Node1&#45;&gt;Node11 -->
<g id="edge13_Node000001_Node000011" class="edge">
<title>Node1&#45;&gt;Node11</title>
<g id="a_edge13_Node000001_Node000011"><a xlink:title=" ">
<path fill="none" stroke="#63b8ff" d="M2058.19,-280.33C2048.98,-237.91 2021.4,-138 1958,-86.15 1950.26,-79.82 1941.03,-75.14 1931.45,-71.68"/>
<polygon fill="#63b8ff" stroke="#63b8ff" points="2054.79,-281.16 2060.24,-290.25 2061.65,-279.75 2054.79,-281.16"/>
</a>
</g>
</g>
<!-- Node20 -->
<g id="Node000020" class="node">
<title>Node20</title>
<g id="a_Node000020"><a xlink:href="classMapManager.html#ac1472dad9f9391e45fafadef9c30c1ab" target="_top" xlink:title="Creates game world from map layout.">
<polygon fill="white" stroke="#666666" points="1729.5,-152.65 1538.5,-152.65 1538.5,-133.65 1729.5,-133.65 1729.5,-152.65"/>
<text text-anchor="middle" x="1634" y="-140.65" font-family="Helvetica,sans-Serif" font-size="10.00">MapManager::createWorldFromMap</text>
</a>
</g>
</g>
<!-- Node1&#45;&gt;Node20 -->
<g id="edge31_Node000001_Node000020" class="edge">
<title>Node1&#45;&gt;Node20</title>
<g id="a_edge31_Node000001_Node000020"><a xlink:title=" ">
<path fill="none" stroke="#63b8ff" d="M2057.55,-280.37C2047.55,-241.21 2019.23,-154.59 1958,-119.15 1858.47,-61.55 1711.84,-111.29 1656.87,-133.64"/>
<polygon fill="#63b8ff" stroke="#63b8ff" points="2054.19,-281.38 2059.94,-290.27 2060.99,-279.73 2054.19,-281.38"/>
</a>
</g>
</g>
<!-- Node21 -->
<g id="Node000021" class="node">
<title>Node21</title>
<g id="a_Node000021"><a xlink:href="classPlayerTank.html#aa455f3425151e01a83f8e626df107e5e" target="_top" xlink:title="Fires projectile(s) from player tank.">
<polygon fill="white" stroke="#666666" points="1910,-195.65 1818,-195.65 1818,-176.65 1910,-176.65 1910,-195.65"/>
<text text-anchor="middle" x="1864" y="-183.65" font-family="Helvetica,sans-Serif" font-size="10.00">PlayerTank::fire</text>
</a>
</g>
</g>
<!-- Node1&#45;&gt;Node21 -->
<g id="edge33_Node000001_Node000021" class="edge">
<title>Node1&#45;&gt;Node21</title>
<g id="a_edge33_Node000001_Node000021"><a xlink:title=" ">
<path fill="none" stroke="#63b8ff" d="M2046.72,-282.76C2027.87,-262.36 1993.87,-228.96 1958,-210.15 1943.23,-202.41 1925.81,-197.05 1910.06,-193.4"/>
<polygon fill="#63b8ff" stroke="#63b8ff" points="2044.31,-285.31 2053.62,-290.37 2049.5,-280.61 2044.31,-285.31"/>
</a>
</g>
</g>
<!-- Node23 -->
<g id="Node000023" class="node">
<title>Node23</title>
<g id="a_Node000023"><a xlink:href="classGameWorld.html#a982893516231aaf0aec251561189b5c9" target="_top" xlink:title="Handles enemy collision.">
<polygon fill="white" stroke="#666666" points="1958,-271.65 1770,-271.65 1770,-252.65 1958,-252.65 1958,-271.65"/>
<text text-anchor="middle" x="1864" y="-259.65" font-family="Helvetica,sans-Serif" font-size="10.00">GameWorld::handleEnemyCollision</text>
</a>
</g>
</g>
<!-- Node1&#45;&gt;Node23 -->
<g id="edge36_Node000001_Node000023" class="edge">
<title>Node1&#45;&gt;Node23</title>
<g id="a_edge36_Node000001_Node000023"><a xlink:title=" ">
<path fill="none" stroke="#63b8ff" d="M2002.44,-288.66C1974.33,-283.24 1941.18,-276.85 1914.48,-271.7"/>
<polygon fill="#63b8ff" stroke="#63b8ff" points="2002.06,-292.16 2012.54,-290.61 2003.39,-285.28 2002.06,-292.16"/>
</a>
</g>
</g>
<!-- Node24 -->
<g id="Node000024" class="node">
<title>Node24</title>
<g id="a_Node000024"><a xlink:href="classGameWorld.html#a49a5714c352312fbc4502adc5dfa8854" target="_top" xlink:title="Updates movement for specific enemy.">
<polygon fill="white" stroke="#666666" points="1734,-271.65 1534,-271.65 1534,-252.65 1734,-252.65 1734,-271.65"/>
<text text-anchor="middle" x="1634" y="-259.65" font-family="Helvetica,sans-Serif" font-size="10.00">GameWorld::updateEnemyMovement</text>
</a>
</g>
</g>
<!-- Node1&#45;&gt;Node24 -->
<g id="edge52_Node000001_Node000024" class="edge">
<title>Node1&#45;&gt;Node24</title>
<g id="a_edge52_Node000001_Node000024"><a xlink:title=" ">
<path fill="none" stroke="#63b8ff" d="M2041.07,-284.53C2020.97,-270.57 1989.13,-251.13 1958,-243.15 1857.33,-217.37 1733.48,-238.78 1672.52,-252.63"/>
<polygon fill="#63b8ff" stroke="#63b8ff" points="2039.26,-287.54 2049.44,-290.5 2043.33,-281.84 2039.26,-287.54"/>
</a>
</g>
</g>
<!-- Node25 -->
<g id="Node000025" class="node">
<title>Node25</title>
<g id="a_Node000025"><a xlink:href="classGameWorld.html#a48cb994868f422ae759b15f3b9c861b6" target="_top" xlink:title="Updates AI for all enemies.">
<polygon fill="white" stroke="#666666" points="1484.5,-271.65 1327.5,-271.65 1327.5,-252.65 1484.5,-252.65 1484.5,-271.65"/>
<text text-anchor="middle" x="1406" y="-259.65" font-family="Helvetica,sans-Serif" font-size="10.00">GameWorld::updateEnemyAI</text>
</a>
</g>
</g>
<!-- Node1&#45;&gt;Node25 -->
<g id="edge51_Node000001_Node000025" class="edge">
<title>Node1&#45;&gt;Node25</title>
<g id="a_edge51_Node000001_Node000025"><a xlink:title=" ">
<path fill="none" stroke="#63b8ff" d="M1983.9,-299.7C1880.72,-298.54 1693.38,-294.43 1534,-280.15 1511.38,-278.13 1486.62,-274.86 1465.02,-271.66"/>
<polygon fill="#63b8ff" stroke="#63b8ff" points="1983.89,-303.2 1993.93,-299.81 1983.97,-296.2 1983.89,-303.2"/>
</a>
</g>
</g>
<!-- Node26 -->
<g id="Node000026" class="node">
<title>Node26</title>
<g id="a_Node000026"><a xlink:href="classGameWorld.html#a752ef6a0f4c6cdffead1dacd117d8451" target="_top" xlink:title="Handles projectile hit.">
<polygon fill="white" stroke="#666666" points="1950.5,-605.65 1777.5,-605.65 1777.5,-586.65 1950.5,-586.65 1950.5,-605.65"/>
<text text-anchor="middle" x="1864" y="-593.65" font-family="Helvetica,sans-Serif" font-size="10.00">GameWorld::handleProjectileHit</text>
</a>
</g>
</g>
<!-- Node1&#45;&gt;Node26 -->
<g id="edge40_Node000001_Node000026" class="edge">
<title>Node1&#45;&gt;Node26</title>
<g id="a_edge40_Node000001_Node000026"><a xlink:title=" ">
<path fill="none" stroke="#63b8ff" d="M2060.47,-320C2055.49,-370.19 2035.31,-503.1 1958,-572.15 1951.04,-578.37 1942.67,-583.02 1933.84,-586.49"/>
<polygon fill="#63b8ff" stroke="#63b8ff" points="2063.97,-320.11 2061.37,-309.84 2057,-319.49 2063.97,-320.11"/>
</a>
</g>
</g>
<!-- Node28 -->
<g id="Node000028" class="node">
<title>Node28</title>
<g id="a_Node000028"><a xlink:href="classGameWorld.html#a60724b9a69573c00245f87dfdfeefa14" target="_top" xlink:title="Handles tank&#45;obstacle collision.">
<polygon fill="white" stroke="#666666" points="1953,-444.15 1775,-444.15 1775,-414.15 1953,-414.15 1953,-444.15"/>
<text text-anchor="start" x="1783" y="-432.15" font-family="Helvetica,sans-Serif" font-size="10.00">GameWorld::handleTankObstacle</text>
<text text-anchor="middle" x="1864" y="-421.15" font-family="Helvetica,sans-Serif" font-size="10.00">Collision</text>
</a>
</g>
</g>
<!-- Node1&#45;&gt;Node28 -->
<g id="edge43_Node000001_Node000028" class="edge">
<title>Node1&#45;&gt;Node28</title>
<g id="a_edge43_Node000001_Node000028"><a xlink:title=" ">
<path fill="none" stroke="#63b8ff" d="M2048.06,-317.91C2029.69,-340.17 1995.31,-378.09 1958,-400.15 1948.68,-405.66 1938.21,-410.23 1927.75,-413.98"/>
<polygon fill="#63b8ff" stroke="#63b8ff" points="2050.94,-319.92 2054.5,-309.94 2045.49,-315.52 2050.94,-319.92"/>
</a>
</g>
</g>
<!-- Node29 -->
<g id="Node000029" class="node">
<title>Node29</title>
<g id="a_Node000029"><a xlink:href="classGameWorld.html#adc81260573ef130580a3c2a05bd460aa" target="_top" xlink:title="Handles tank&#45;tank collision.">
<polygon fill="white" stroke="#666666" points="1943,-358.15 1785,-358.15 1785,-328.15 1943,-328.15 1943,-358.15"/>
<text text-anchor="start" x="1793" y="-346.15" font-family="Helvetica,sans-Serif" font-size="10.00">GameWorld::handleTankTank</text>
<text text-anchor="middle" x="1864" y="-335.15" font-family="Helvetica,sans-Serif" font-size="10.00">Collision</text>
</a>
</g>
</g>
<!-- Node1&#45;&gt;Node29 -->
<g id="edge45_Node000001_Node000029" class="edge">
<title>Node1&#45;&gt;Node29</title>
<g id="a_edge45_Node000001_Node000029"><a xlink:title=" ">
<path fill="none" stroke="#63b8ff" d="M2008.36,-311.86C1985.36,-316.88 1958.2,-322.81 1933.75,-328.15"/>
<polygon fill="#63b8ff" stroke="#63b8ff" points="2009.26,-315.25 2018.28,-309.7 2007.76,-308.41 2009.26,-315.25"/>
</a>
</g>
</g>
<!-- Node30 -->
<g id="Node000030" class="node">
<title>Node30</title>
<g id="a_Node000030"><a xlink:href="classMapManager.html#abbb0023118bf20fed584293550ace259" target="_top" xlink:title="Checks if position is valid for enemy placement.">
<polygon fill="white" stroke="#666666" points="1940,-158.15 1788,-158.15 1788,-128.15 1940,-128.15 1940,-158.15"/>
<text text-anchor="start" x="1796" y="-146.15" font-family="Helvetica,sans-Serif" font-size="10.00">MapManager::isValidEnemy</text>
<text text-anchor="middle" x="1864" y="-135.15" font-family="Helvetica,sans-Serif" font-size="10.00">Position</text>
</a>
</g>
</g>
<!-- Node1&#45;&gt;Node30 -->
<g id="edge47_Node000001_Node000030" class="edge">
<title>Node1&#45;&gt;Node30</title>
<g id="a_edge47_Node000001_Node000030"><a xlink:title=" ">
<path fill="none" stroke="#63b8ff" d="M2052.5,-281.23C2036.88,-252.11 2002.97,-196.6 1958,-167.15 1952.56,-163.59 1946.62,-160.56 1940.46,-157.97"/>
<polygon fill="#63b8ff" stroke="#63b8ff" points="2049.52,-283.09 2057.25,-290.34 2055.73,-279.86 2049.52,-283.09"/>
</a>
</g>
</g>
<!-- Node31 -->
<g id="Node000031" class="node">
<title>Node31</title>
<g id="a_Node000031"><a xlink:href="classGameWorld.html#a2b1db90f0ef907c7e93b1114357b8a90" target="_top" xlink:title="Moves player tank in specified direction.">
<polygon fill="white" stroke="#666666" points="1043.5,-33.65 906.5,-33.65 906.5,-14.65 1043.5,-14.65 1043.5,-33.65"/>
<text text-anchor="middle" x="975" y="-21.65" font-family="Helvetica,sans-Serif" font-size="10.00">GameWorld::playerMove</text>
</a>
</g>
</g>
<!-- Node1&#45;&gt;Node31 -->
<g id="edge49_Node000001_Node000031" class="edge">
<title>Node1&#45;&gt;Node31</title>
<g id="a_edge49_Node000001_Node000031"><a xlink:title=" ">
<path fill="none" stroke="#63b8ff" d="M2060.81,-280.49C2056.64,-230.92 2038.17,-100.7 1958,-43.15 1841.17,40.7 1778.8,-24.15 1635,-24.15 1635,-24.15 1635,-24.15 1405,-24.15 1277.27,-24.15 1128.14,-24.15 1043.62,-24.15"/>
<polygon fill="#63b8ff" stroke="#63b8ff" points="2057.32,-280.82 2061.55,-290.53 2064.3,-280.3 2057.32,-280.82"/>
</a>
</g>
</g>
<!-- Node3 -->
<g id="Node000003" class="node">
<title>Node3</title>
<g id="a_Node000003"><a xlink:href="classGameWorld.html#a2a5aaafc1c18521a4657d6a4a66c4d91" target="_top" xlink:title="Checks all types of collisions.">
<polygon fill="white" stroke="#666666" points="1483.5,-502.65 1328.5,-502.65 1328.5,-483.65 1483.5,-483.65 1483.5,-502.65"/>
<text text-anchor="middle" x="1406" y="-490.65" font-family="Helvetica,sans-Serif" font-size="10.00">GameWorld::checkCollisions</text>
</a>
</g>
</g>
<!-- Node2&#45;&gt;Node3 -->
<g id="edge2_Node000002_Node000003" class="edge">
<title>Node2&#45;&gt;Node3</title>
<g id="a_edge2_Node000002_Node000003"><a xlink:title=" ">
<path fill="none" stroke="#63b8ff" d="M1582.06,-541.2C1566.59,-537.47 1549.57,-533.25 1534,-529.15 1501.64,-520.65 1464.88,-510.14 1439.27,-502.67"/>
<polygon fill="#63b8ff" stroke="#63b8ff" points="1581.43,-544.65 1591.97,-543.58 1583.06,-537.84 1581.43,-544.65"/>
</a>
</g>
</g>
<!-- Node4 -->
<g id="Node000004" class="node">
<title>Node4</title>
<g id="a_Node000004"><a xlink:href="classGameWorld.html#ab645acf30cb0a4640a8fb5b88c5c7c94" target="_top" xlink:title="Updates all game objects and logic.">
<polygon fill="white" stroke="#666666" points="1239,-271.65 1126,-271.65 1126,-252.65 1239,-252.65 1239,-271.65"/>
<text text-anchor="middle" x="1182.5" y="-259.65" font-family="Helvetica,sans-Serif" font-size="10.00">GameWorld::update</text>
</a>
</g>
</g>
<!-- Node3&#45;&gt;Node4 -->
<g id="edge3_Node000003_Node000004" class="edge">
<title>Node3&#45;&gt;Node4</title>
<g id="a_edge3_Node000003_Node000004"><a xlink:title=" ">
<path fill="none" stroke="#63b8ff" d="M1388.76,-476.22C1345.22,-430.81 1226.83,-307.34 1192.78,-271.83"/>
<polygon fill="#63b8ff" stroke="#63b8ff" points="1386.32,-478.73 1395.76,-483.52 1391.37,-473.88 1386.32,-478.73"/>
</a>
</g>
</g>
<!-- Node5 -->
<g id="Node000005" class="node">
<title>Node5</title>
<g id="a_Node000005"><a xlink:href="classGameController.html#af2367e58f03d8a1441c9a574967fd360" target="_top" xlink:title="Processes a single game turn/update cycle.">
<polygon fill="white" stroke="#666666" points="445,-159.65 258,-159.65 258,-140.65 445,-140.65 445,-159.65"/>
<text text-anchor="middle" x="351.5" y="-147.65" font-family="Helvetica,sans-Serif" font-size="10.00">GameController::processGameTurn</text>
</a>
</g>
</g>
<!-- Node4&#45;&gt;Node5 -->
<g id="edge4_Node000004_Node000005" class="edge">
<title>Node4&#45;&gt;Node5</title>
<g id="a_edge4_Node000004_Node000005"><a xlink:title=" ">
<path fill="none" stroke="#63b8ff" d="M1115.79,-261.35C1023.56,-259.47 850.7,-253.19 705,-232.15 603.94,-217.57 580.41,-204.46 481,-181.15 450.95,-174.11 417,-165.91 391.55,-159.71"/>
<polygon fill="#63b8ff" stroke="#63b8ff" points="1115.75,-264.85 1125.81,-261.55 1115.88,-257.86 1115.75,-264.85"/>
</a>
</g>
</g>
<!-- Node6 -->
<g id="Node000006" class="node">
<title>Node6</title>
<g id="a_Node000006"><a xlink:href="classGameController.html#ac958989c8f7f08488546930e5fcb0d82" target="_top" xlink:title="Starts and runs the main game loop.">
<polygon fill="white" stroke="#666666" points="222,-52.65 77,-52.65 77,-33.65 222,-33.65 222,-52.65"/>
<text text-anchor="middle" x="149.5" y="-40.65" font-family="Helvetica,sans-Serif" font-size="10.00">GameController::runGame</text>
</a>
</g>
</g>
<!-- Node5&#45;&gt;Node6 -->
<g id="edge5_Node000005_Node000006" class="edge">
<title>Node5&#45;&gt;Node6</title>
<g id="a_edge5_Node000005_Node000006"><a xlink:title=" ">
<path fill="none" stroke="#63b8ff" d="M323.4,-135.65C281.87,-113.43 203.59,-71.56 168.42,-52.74"/>
<polygon fill="#63b8ff" stroke="#63b8ff" points="321.93,-138.84 332.4,-140.47 325.23,-132.67 321.93,-138.84"/>
</a>
</g>
</g>
<!-- Node7 -->
<g id="Node000007" class="node">
<title>Node7</title>
<g id="a_Node000007"><a xlink:href="main_8cpp.html#ae66f6b31b5ad750f1fe042a706a4e3d4" target="_top" xlink:title="Main function that serves as the application entry point.">
<polygon fill="white" stroke="#666666" points="41,-52.65 0,-52.65 0,-33.65 41,-33.65 41,-52.65"/>
<text text-anchor="middle" x="20.5" y="-40.65" font-family="Helvetica,sans-Serif" font-size="10.00">main</text>
</a>
</g>
</g>
<!-- Node6&#45;&gt;Node7 -->
<g id="edge6_Node000006_Node000007" class="edge">
<title>Node6&#45;&gt;Node7</title>
<g id="a_edge6_Node000006_Node000007"><a xlink:title=" ">
<path fill="none" stroke="#63b8ff" d="M66.79,-43.15C57.31,-43.15 48.43,-43.15 41.08,-43.15"/>
<polygon fill="#63b8ff" stroke="#63b8ff" points="66.83,-46.65 76.83,-43.15 66.83,-39.65 66.83,-46.65"/>
</a>
</g>
</g>
<!-- Node8&#45;&gt;Node3 -->
<g id="edge8_Node000008_Node000003" class="edge">
<title>Node8&#45;&gt;Node3</title>
<g id="a_edge8_Node000008_Node000003"><a xlink:title=" ">
<path fill="none" stroke="#63b8ff" d="M1776.34,-510.97C1691.91,-506.9 1564.78,-500.77 1483.86,-496.86"/>
<polygon fill="#63b8ff" stroke="#63b8ff" points="1776.26,-514.47 1786.42,-511.46 1776.6,-507.48 1776.26,-514.47"/>
</a>
</g>
</g>
<!-- Node9&#45;&gt;Node3 -->
<g id="edge10_Node000009_Node000003" class="edge">
<title>Node9&#45;&gt;Node3</title>
<g id="a_edge10_Node000009_Node000003"><a xlink:title=" ">
<path fill="none" stroke="#63b8ff" d="M1536.88,-481.09C1519.16,-482.73 1500.87,-484.43 1483.81,-486.02"/>
<polygon fill="#63b8ff" stroke="#63b8ff" points="1537.6,-484.53 1547.24,-480.12 1536.96,-477.56 1537.6,-484.53"/>
</a>
</g>
</g>
<!-- Node10&#45;&gt;Node3 -->
<g id="edge12_Node000010_Node000003" class="edge">
<title>Node10&#45;&gt;Node3</title>
<g id="a_edge12_Node000010_Node000003"><a xlink:title=" ">
<path fill="none" stroke="#63b8ff" d="M1591.8,-405.66C1543.19,-428.68 1464.3,-466.02 1427.33,-483.53"/>
<polygon fill="#63b8ff" stroke="#63b8ff" points="1593.56,-408.7 1601.1,-401.26 1590.56,-402.37 1593.56,-408.7"/>
</a>
</g>
</g>
<!-- Node12 -->
<g id="Node000012" class="node">
<title>Node12</title>
<g id="a_Node000012"><a xlink:href="classGameWorld.html#a13fd8123f71f48726bfeb233961f88da" target="_top" xlink:title="Loads specified level.">
<polygon fill="white" stroke="#666666" points="1697.5,-95.65 1570.5,-95.65 1570.5,-76.65 1697.5,-76.65 1697.5,-95.65"/>
<text text-anchor="middle" x="1634" y="-83.65" font-family="Helvetica,sans-Serif" font-size="10.00">GameWorld::loadLevel</text>
</a>
</g>
</g>
<!-- Node11&#45;&gt;Node12 -->
<g id="edge14_Node000011_Node000012" class="edge">
<title>Node11&#45;&gt;Node12</title>
<g id="a_edge14_Node000011_Node000012"><a xlink:title=" ">
<path fill="none" stroke="#63b8ff" d="M1762.48,-72.73C1740.41,-75.06 1717.66,-77.45 1697.6,-79.56"/>
<polygon fill="#63b8ff" stroke="#63b8ff" points="1762.98,-76.2 1772.56,-71.67 1762.25,-69.24 1762.98,-76.2"/>
</a>
</g>
</g>
<!-- Node13 -->
<g id="Node000013" class="node">
<title>Node13</title>
<g id="a_Node000013"><a xlink:href="classGameController.html#a4086fc466d91f45c41b2bc5df06af77a" target="_top" xlink:title="Loads the next game level.">
<polygon fill="white" stroke="#666666" points="1254.5,-158.15 1110.5,-158.15 1110.5,-128.15 1254.5,-128.15 1254.5,-158.15"/>
<text text-anchor="start" x="1118.5" y="-146.15" font-family="Helvetica,sans-Serif" font-size="10.00">GameController::loadNext</text>
<text text-anchor="middle" x="1182.5" y="-135.15" font-family="Helvetica,sans-Serif" font-size="10.00">Level</text>
</a>
</g>
</g>
<!-- Node12&#45;&gt;Node13 -->
<g id="edge15_Node000012_Node000013" class="edge">
<title>Node12&#45;&gt;Node13</title>
<g id="a_edge15_Node000012_Node000013"><a xlink:title=" ">
<path fill="none" stroke="#63b8ff" d="M1560.19,-94.28C1495.49,-101.63 1398.37,-112.99 1314,-124.15 1294.71,-126.71 1273.84,-129.66 1254.57,-132.46"/>
<polygon fill="#63b8ff" stroke="#63b8ff" points="1560.75,-97.74 1570.29,-93.14 1559.96,-90.79 1560.75,-97.74"/>
</a>
</g>
</g>
<!-- Node15 -->
<g id="Node000015" class="node">
<title>Node15</title>
<g id="a_Node000015"><a xlink:href="classGameController.html#a09c76a5ae9b8f514163dafe31273f44f" target="_top" xlink:title="Loads the currently selected map.">
<polygon fill="white" stroke="#666666" points="1498,-152.65 1314,-152.65 1314,-133.65 1498,-133.65 1498,-152.65"/>
<text text-anchor="middle" x="1406" y="-140.65" font-family="Helvetica,sans-Serif" font-size="10.00">GameController::loadSelectedMap</text>
</a>
</g>
</g>
<!-- Node12&#45;&gt;Node15 -->
<g id="edge18_Node000012_Node000015" class="edge">
<title>Node12&#45;&gt;Node15</title>
<g id="a_edge18_Node000012_Node000015"><a xlink:title=" ">
<path fill="none" stroke="#63b8ff" d="M1585.23,-98.2C1543.43,-108.74 1483.54,-123.85 1444.95,-133.58"/>
<polygon fill="#63b8ff" stroke="#63b8ff" points="1586.33,-101.53 1595.17,-95.69 1584.62,-94.75 1586.33,-101.53"/>
</a>
</g>
</g>
<!-- Node16 -->
<g id="Node000016" class="node">
<title>Node16</title>
<g id="a_Node000016"><a xlink:href="classGameController.html#a4a9c94fe33cf6c73bb5dfc415d04d309" target="_top" xlink:title="Displays map selection screen.">
<polygon fill="white" stroke="#666666" points="1278,-109.65 1087,-109.65 1087,-90.65 1278,-90.65 1278,-109.65"/>
<text text-anchor="middle" x="1182.5" y="-97.65" font-family="Helvetica,sans-Serif" font-size="10.00">GameController::showMapSelection</text>
</a>
</g>
</g>
<!-- Node12&#45;&gt;Node16 -->
<g id="edge30_Node000012_Node000016" class="edge">
<title>Node12&#45;&gt;Node16</title>
<g id="a_edge30_Node000012_Node000016"><a xlink:title=" ">
<path fill="none" stroke="#63b8ff" d="M1560.23,-86.19C1495.55,-86.49 1398.44,-87.58 1314,-91.15 1302.43,-91.64 1290.29,-92.29 1278.26,-93.02"/>
<polygon fill="#63b8ff" stroke="#63b8ff" points="1560.34,-89.69 1570.32,-86.15 1560.31,-82.69 1560.34,-89.69"/>
</a>
</g>
</g>
<!-- Node14 -->
<g id="Node000014" class="node">
<title>Node14</title>
<g id="a_Node000014"><a xlink:href="classGameController.html#a85bcf4ecfd197aad278e116215a3717b" target="_top" xlink:title="Displays level completion screen.">
<polygon fill="white" stroke="#666666" points="860,-196.15 708,-196.15 708,-166.15 860,-166.15 860,-196.15"/>
<text text-anchor="start" x="716" y="-184.15" font-family="Helvetica,sans-Serif" font-size="10.00">GameController::showLevel</text>
<text text-anchor="middle" x="784" y="-173.15" font-family="Helvetica,sans-Serif" font-size="10.00">CompleteScreen</text>
</a>
</g>
</g>
<!-- Node13&#45;&gt;Node14 -->
<g id="edge16_Node000013_Node000014" class="edge">
<title>Node13&#45;&gt;Node14</title>
<g id="a_edge16_Node000013_Node000014"><a xlink:title=" ">
<path fill="none" stroke="#63b8ff" d="M1100,-150.97C1029.58,-157.71 928.65,-167.39 860.15,-173.95"/>
<polygon fill="#63b8ff" stroke="#63b8ff" points="1100.54,-154.43 1110.16,-149.99 1099.87,-147.46 1100.54,-154.43"/>
</a>
</g>
</g>
<!-- Node14&#45;&gt;Node5 -->
<g id="edge17_Node000014_Node000005" class="edge">
<title>Node14&#45;&gt;Node5</title>
<g id="a_edge17_Node000014_Node000005"><a xlink:title=" ">
<path fill="none" stroke="#63b8ff" d="M697.45,-174.99C624.55,-169.74 520.01,-162.22 445.15,-156.83"/>
<polygon fill="#63b8ff" stroke="#63b8ff" points="697.29,-178.49 707.52,-175.72 697.8,-171.51 697.29,-178.49"/>
</a>
</g>
</g>
<!-- Node15&#45;&gt;Node13 -->
<g id="edge19_Node000015_Node000013" class="edge">
<title>Node15&#45;&gt;Node13</title>
<g id="a_edge19_Node000015_Node000013"><a xlink:title=" ">
<path fill="none" stroke="#63b8ff" d="M1303.67,-143.15C1287.09,-143.15 1270.22,-143.15 1254.57,-143.15"/>
<polygon fill="#63b8ff" stroke="#63b8ff" points="1303.95,-146.65 1313.95,-143.15 1303.95,-139.65 1303.95,-146.65"/>
</a>
</g>
</g>
<!-- Node15&#45;&gt;Node16 -->
<g id="edge20_Node000015_Node000016" class="edge">
<title>Node15&#45;&gt;Node16</title>
<g id="a_edge20_Node000015_Node000016"><a xlink:title=" ">
<path fill="none" stroke="#63b8ff" d="M1345.65,-131.63C1310.27,-124.76 1265.9,-116.15 1232.52,-109.67"/>
<polygon fill="#63b8ff" stroke="#63b8ff" points="1345.36,-135.14 1355.84,-133.61 1346.69,-128.27 1345.36,-135.14"/>
</a>
</g>
</g>
<!-- Node17 -->
<g id="Node000017" class="node">
<title>Node17</title>
<g id="a_Node000017"><a xlink:href="classGameController.html#a971b3d8f6296a74f0bebc83b5e79c186" target="_top" xlink:title="Processes a user command.">
<polygon fill="white" stroke="#666666" points="669,-119.65 481,-119.65 481,-100.65 669,-100.65 669,-119.65"/>
<text text-anchor="middle" x="575" y="-107.65" font-family="Helvetica,sans-Serif" font-size="10.00">GameController::processCommand</text>
</a>
</g>
</g>
<!-- Node16&#45;&gt;Node17 -->
<g id="edge21_Node000016_Node000017" class="edge">
<title>Node16&#45;&gt;Node17</title>
<g id="a_edge21_Node000016_Node000017"><a xlink:title=" ">
<path fill="none" stroke="#63b8ff" d="M1114.4,-111.13C1094.09,-113.99 1071.69,-116.68 1051,-118.15 897.61,-129.09 858.69,-124.51 705,-119.15 693.45,-118.75 681.32,-118.15 669.32,-117.44"/>
<polygon fill="#63b8ff" stroke="#63b8ff" points="1115.1,-114.57 1124.5,-109.68 1114.1,-107.64 1115.1,-114.57"/>
</a>
</g>
</g>
<!-- Node18 -->
<g id="Node000018" class="node">
<title>Node18</title>
<g id="a_Node000018"><a xlink:href="classGameController.html#a9d11b5a6255b7249bddba49df0837cf3" target="_top" xlink:title="Displays and manages the main menu.">
<polygon fill="white" stroke="#666666" points="1051,-109.65 899,-109.65 899,-90.65 1051,-90.65 1051,-109.65"/>
<text text-anchor="middle" x="975" y="-97.65" font-family="Helvetica,sans-Serif" font-size="10.00">GameController::showMenu</text>
</a>
</g>
</g>
<!-- Node16&#45;&gt;Node18 -->
<g id="edge23_Node000016_Node000018" class="edge">
<title>Node16&#45;&gt;Node18</title>
<g id="a_edge23_Node000016_Node000018"><a xlink:title=" ">
<path fill="none" stroke="#63b8ff" d="M1076.72,-93.41C1068.06,-93.42 1059.43,-93.49 1051.06,-93.63"/>
<polygon fill="#63b8ff" stroke="#63b8ff" points="1076.86,-96.91 1086.87,-93.42 1076.88,-89.91 1076.86,-96.91"/>
</a>
</g>
</g>
<!-- Node17&#45;&gt;Node5 -->
<g id="edge22_Node000017_Node000005" class="edge">
<title>Node17&#45;&gt;Node5</title>
<g id="a_edge22_Node000017_Node000005"><a xlink:title=" ">
<path fill="none" stroke="#63b8ff" d="M511.1,-121.51C477.66,-127.55 437.02,-134.89 405.25,-140.63"/>
<polygon fill="#63b8ff" stroke="#63b8ff" points="512.01,-124.91 521.23,-119.68 510.76,-118.02 512.01,-124.91"/>
</a>
</g>
</g>
<!-- Node18&#45;&gt;Node6 -->
<g id="edge27_Node000018_Node000006" class="edge">
<title>Node18&#45;&gt;Node6</title>
<g id="a_edge27_Node000018_Node000006"><a xlink:title=" ">
<path fill="none" stroke="#63b8ff" d="M952.08,-84.89C930.54,-70.9 896.16,-51.17 863,-43.15 627.94,13.67 336.37,-16.29 211.69,-33.63"/>
<polygon fill="#63b8ff" stroke="#63b8ff" points="950.22,-87.86 960.48,-90.49 954.1,-82.03 950.22,-87.86"/>
</a>
</g>
</g>
<!-- Node18&#45;&gt;Node14 -->
<g id="edge28_Node000018_Node000014" class="edge">
<title>Node18&#45;&gt;Node14</title>
<g id="a_edge28_Node000018_Node000014"><a xlink:title=" ">
<path fill="none" stroke="#63b8ff" d="M942.19,-113.79C908.44,-128.25 855.26,-151.04 820.25,-166.05"/>
<polygon fill="#63b8ff" stroke="#63b8ff" points="943.76,-116.92 951.58,-109.76 941.01,-110.49 943.76,-116.92"/>
</a>
</g>
</g>
<!-- Node18&#45;&gt;Node16 -->
<g id="edge29_Node000018_Node000016" class="edge">
<title>Node18&#45;&gt;Node16</title>
<g id="a_edge29_Node000018_Node000016"><a xlink:title=" ">
<path fill="none" stroke="#63b8ff" d="M1061.27,-106.82C1069.72,-106.9 1078.33,-106.92 1086.87,-106.89"/>
<polygon fill="#63b8ff" stroke="#63b8ff" points="1061.1,-103.31 1051.06,-106.68 1061.01,-110.31 1061.1,-103.31"/>
</a>
</g>
</g>
<!-- Node18&#45;&gt;Node17 -->
<g id="edge26_Node000018_Node000017" class="edge">
<title>Node18&#45;&gt;Node17</title>
<g id="a_edge26_Node000018_Node000017"><a xlink:title=" ">
<path fill="none" stroke="#63b8ff" d="M888.53,-102.3C824.02,-103.92 735.58,-106.14 669.25,-107.81"/>
<polygon fill="#63b8ff" stroke="#63b8ff" points="888.76,-105.8 898.67,-102.05 888.59,-98.8 888.76,-105.8"/>
</a>
</g>
</g>
<!-- Node19 -->
<g id="Node000019" class="node">
<title>Node19</title>
<g id="a_Node000019"><a xlink:href="classGameController.html#a637ea4e72ed2be4a2884b30160b3e8ab" target="_top" xlink:title="Pauses the game and displays pause screen.">
<polygon fill="white" stroke="#666666" points="863,-71.65 705,-71.65 705,-52.65 863,-52.65 863,-71.65"/>
<text text-anchor="middle" x="784" y="-59.65" font-family="Helvetica,sans-Serif" font-size="10.00">GameController::pauseGame</text>
</a>
</g>
</g>
<!-- Node18&#45;&gt;Node19 -->
<g id="edge24_Node000018_Node000019" class="edge">
<title>Node18&#45;&gt;Node19</title>
<g id="a_edge24_Node000018_Node000019"><a xlink:title=" ">
<path fill="none" stroke="#63b8ff" d="M916.26,-88.54C889.38,-83.14 857.8,-76.79 832.35,-71.67"/>
<polygon fill="#63b8ff" stroke="#63b8ff" points="915.81,-92.02 926.31,-90.56 917.19,-85.16 915.81,-92.02"/>
</a>
</g>
</g>
<!-- Node19&#45;&gt;Node17 -->
<g id="edge25_Node000019_Node000017" class="edge">
<title>Node19&#45;&gt;Node17</title>
<g id="a_edge25_Node000019_Node000017"><a xlink:title=" ">
<path fill="none" stroke="#63b8ff" d="M731.51,-74.09C696.27,-82.26 650.16,-92.96 617.32,-100.57"/>
<polygon fill="#63b8ff" stroke="#63b8ff" points="732.66,-77.42 741.61,-71.75 731.08,-70.6 732.66,-77.42"/>
</a>
</g>
</g>
<!-- Node20&#45;&gt;Node15 -->
<g id="edge32_Node000020_Node000015" class="edge">
<title>Node20&#45;&gt;Node15</title>
<g id="a_edge32_Node000020_Node000015"><a xlink:title=" ">
<path fill="none" stroke="#63b8ff" d="M1528.43,-143.15C1518.36,-143.15 1508.19,-143.15 1498.26,-143.15"/>
<polygon fill="#63b8ff" stroke="#63b8ff" points="1528.47,-146.65 1538.47,-143.15 1528.47,-139.65 1528.47,-146.65"/>
</a>
</g>
</g>
<!-- Node22 -->
<g id="Node000022" class="node">
<title>Node22</title>
<g id="a_Node000022"><a xlink:href="classGameWorld.html#a58c1d2ad8f1cca5576339fbb7efba344" target="_top" xlink:title="Triggers player tank to fire.">
<polygon fill="white" stroke="#666666" points="1039,-233.65 911,-233.65 911,-214.65 1039,-214.65 1039,-233.65"/>
<text text-anchor="middle" x="975" y="-221.65" font-family="Helvetica,sans-Serif" font-size="10.00">GameWorld::playerFire</text>
</a>
</g>
</g>
<!-- Node21&#45;&gt;Node22 -->
<g id="edge34_Node000021_Node000022" class="edge">
<title>Node21&#45;&gt;Node22</title>
<g id="a_edge34_Node000021_Node000022"><a xlink:title=" ">
<path fill="none" stroke="#63b8ff" d="M1807.44,-188.53C1650.57,-195.25 1204.87,-214.35 1039.11,-221.45"/>
<polygon fill="#63b8ff" stroke="#63b8ff" points="1807.95,-192.02 1817.79,-188.09 1807.65,-185.02 1807.95,-192.02"/>
</a>
</g>
</g>
<!-- Node22&#45;&gt;Node17 -->
<g id="edge35_Node000022_Node000017" class="edge">
<title>Node22&#45;&gt;Node17</title>
<g id="a_edge35_Node000022_Node000017"><a xlink:title=" ">
<path fill="none" stroke="#63b8ff" d="M900.69,-229.8C845.26,-231.53 768.18,-228.41 705,-205.15 653.58,-186.23 604.91,-140.17 585.2,-119.95"/>
<polygon fill="#63b8ff" stroke="#63b8ff" points="900.91,-233.3 910.78,-229.43 900.65,-226.3 900.91,-233.3"/>
</a>
</g>
</g>
<!-- Node23&#45;&gt;Node24 -->
<g id="edge37_Node000023_Node000024" class="edge">
<title>Node23&#45;&gt;Node24</title>
<g id="a_edge37_Node000023_Node000024"><a xlink:title=" ">
<path fill="none" stroke="#63b8ff" d="M1759.9,-262.15C1751.31,-262.15 1742.63,-262.15 1734.07,-262.15"/>
<polygon fill="#63b8ff" stroke="#63b8ff" points="1759.93,-265.65 1769.93,-262.15 1759.93,-258.65 1759.93,-265.65"/>
</a>
</g>
</g>
<!-- Node24&#45;&gt;Node25 -->
<g id="edge38_Node000024_Node000025" class="edge">
<title>Node24&#45;&gt;Node25</title>
<g id="a_edge38_Node000024_Node000025"><a xlink:title=" ">
<path fill="none" stroke="#63b8ff" d="M1523.79,-262.15C1510.57,-262.15 1497.28,-262.15 1484.65,-262.15"/>
<polygon fill="#63b8ff" stroke="#63b8ff" points="1523.87,-265.65 1533.87,-262.15 1523.87,-258.65 1523.87,-265.65"/>
</a>
</g>
</g>
<!-- Node25&#45;&gt;Node4 -->
<g id="edge39_Node000025_Node000004" class="edge">
<title>Node25&#45;&gt;Node4</title>
<g id="a_edge39_Node000025_Node000004"><a xlink:title=" ">
<path fill="none" stroke="#63b8ff" d="M1316.89,-262.15C1290.67,-262.15 1262.68,-262.15 1239.14,-262.15"/>
<polygon fill="#63b8ff" stroke="#63b8ff" points="1317.22,-265.65 1327.22,-262.15 1317.22,-258.65 1317.22,-265.65"/>
</a>
</g>
</g>
<!-- Node27 -->
<g id="Node000027" class="node">
<title>Node27</title>
<g id="a_Node000027"><a xlink:href="classGameWorld.html#a81b514a6e2b376bd9b5f8276e3861b5f" target="_top" xlink:title="Checks projectile collisions.">
<polygon fill="white" stroke="#666666" points="1711,-611.15 1557,-611.15 1557,-581.15 1711,-581.15 1711,-611.15"/>
<text text-anchor="start" x="1565" y="-599.15" font-family="Helvetica,sans-Serif" font-size="10.00">GameWorld::checkProjectile</text>
<text text-anchor="middle" x="1634" y="-588.15" font-family="Helvetica,sans-Serif" font-size="10.00">Collisions</text>
</a>
</g>
</g>
<!-- Node26&#45;&gt;Node27 -->
<g id="edge41_Node000026_Node000027" class="edge">
<title>Node26&#45;&gt;Node27</title>
<g id="a_edge41_Node000026_Node000027"><a xlink:title=" ">
<path fill="none" stroke="#63b8ff" d="M1767.43,-596.15C1748.69,-596.15 1729.28,-596.15 1711.27,-596.15"/>
<polygon fill="#63b8ff" stroke="#63b8ff" points="1767.45,-599.65 1777.45,-596.15 1767.45,-592.65 1767.45,-599.65"/>
</a>
</g>
</g>
<!-- Node27&#45;&gt;Node3 -->
<g id="edge42_Node000027_Node000003" class="edge">
<title>Node27&#45;&gt;Node3</title>
<g id="a_edge42_Node000027_Node000003"><a xlink:title=" ">
<path fill="none" stroke="#63b8ff" d="M1549.69,-578.03C1544.32,-576.23 1539.05,-574.27 1534,-572.15 1488.74,-553.17 1441.09,-519.16 1419.24,-502.65"/>
<polygon fill="#63b8ff" stroke="#63b8ff" points="1548.84,-581.43 1559.43,-581.11 1550.95,-574.76 1548.84,-581.43"/>
</a>
</g>
</g>
<!-- Node28&#45;&gt;Node9 -->
<g id="edge44_Node000028_Node000009" class="edge">
<title>Node28&#45;&gt;Node9</title>
<g id="a_edge44_Node000028_Node000009"><a xlink:title=" ">
<path fill="none" stroke="#63b8ff" d="M1773.25,-446.08C1753.92,-449.73 1733.61,-453.56 1714.7,-457.12"/>
<polygon fill="#63b8ff" stroke="#63b8ff" points="1774.08,-449.49 1783.26,-444.19 1772.78,-442.61 1774.08,-449.49"/>
</a>
</g>
</g>
<!-- Node29&#45;&gt;Node10 -->
<g id="edge46_Node000029_Node000010" class="edge">
<title>Node29&#45;&gt;Node10</title>
<g id="a_edge46_Node000029_Node000010"><a xlink:title=" ">
<path fill="none" stroke="#63b8ff" d="M1774.9,-359.77C1753.72,-363.76 1731.29,-367.99 1710.73,-371.87"/>
<polygon fill="#63b8ff" stroke="#63b8ff" points="1775.68,-363.18 1784.85,-357.89 1774.38,-356.31 1775.68,-363.18"/>
</a>
</g>
</g>
<!-- Node30&#45;&gt;Node20 -->
<g id="edge48_Node000030_Node000020" class="edge">
<title>Node30&#45;&gt;Node20</title>
<g id="a_edge48_Node000030_Node000020"><a xlink:title=" ">
<path fill="none" stroke="#63b8ff" d="M1777.58,-143.15C1761.97,-143.15 1745.59,-143.15 1729.73,-143.15"/>
<polygon fill="#63b8ff" stroke="#63b8ff" points="1777.71,-146.65 1787.71,-143.15 1777.71,-139.65 1777.71,-146.65"/>
</a>
</g>
</g>
<!-- Node31&#45;&gt;Node17 -->
<g id="edge50_Node000031_Node000017" class="edge">
<title>Node31&#45;&gt;Node17</title>
<g id="a_edge50_Node000031_Node000017"><a xlink:title=" ">
<path fill="none" stroke="#63b8ff" d="M896.09,-21.37C841.6,-21.41 767.65,-25.49 705,-43.15 660.06,-55.82 612.71,-85.17 589.89,-100.47"/>
<polygon fill="#63b8ff" stroke="#63b8ff" points="896.36,-24.87 906.38,-21.41 896.39,-17.87 896.36,-24.87"/>
</a>
</g>
</g>
</g>
</svg>
