<?xml version="1.0" encoding="UTF-8" standalone="no"?>
<!DOCTYPE svg PUBLIC "-//W3C//DTD SVG 1.1//EN"
 "http://www.w3.org/Graphics/SVG/1.1/DTD/svg11.dtd">
<!-- Generated by graphviz version 2.43.0 (0)
 -->
<!-- Title: Tank::canFire Pages: 1 -->
<svg width="1312pt" height="141pt"
 viewBox="0.00 0.00 1312.00 141.00" xmlns="http://www.w3.org/2000/svg" xmlns:xlink="http://www.w3.org/1999/xlink">
<g id="graph0" class="graph" transform="scale(1 1) rotate(0) translate(4 137)">
<title>Tank::canFire</title>
<!-- Node1 -->
<g id="Node000001" class="node">
<title>Node1</title>
<g id="a_Node000001"><a xlink:title="Checks if tank can fire.">
<polygon fill="#999999" stroke="#666666" points="1304,-76 1224,-76 1224,-57 1304,-57 1304,-76"/>
<text text-anchor="middle" x="1264" y="-64" font-family="Helvetica,sans-Serif" font-size="10.00">Tank::canFire</text>
</a>
</g>
</g>
<!-- Node2 -->
<g id="Node000002" class="node">
<title>Node2</title>
<g id="a_Node000002"><a xlink:href="classEnemyTank.html#a5b53b4d6721012b14e41a0882bd1c2a3" target="_top" xlink:title="Executes aggressive behavior.">
<polygon fill="white" stroke="#666666" points="1188,-133 1012,-133 1012,-114 1188,-114 1188,-133"/>
<text text-anchor="middle" x="1100" y="-121" font-family="Helvetica,sans-Serif" font-size="10.00">EnemyTank::aggressiveBehavior</text>
</a>
</g>
</g>
<!-- Node1&#45;&gt;Node2 -->
<g id="edge1_Node000001_Node000002" class="edge">
<title>Node1&#45;&gt;Node2</title>
<g id="a_edge1_Node000001_Node000002"><a xlink:title=" ">
<path fill="none" stroke="#63b8ff" d="M1233.86,-80.5C1220.13,-86.79 1203.42,-94.01 1188,-99.5 1172.65,-104.96 1155.41,-109.95 1140.35,-113.94"/>
<polygon fill="#63b8ff" stroke="#63b8ff" points="1235.67,-83.52 1243.26,-76.13 1232.72,-77.17 1235.67,-83.52"/>
</a>
</g>
</g>
<!-- Node5 -->
<g id="Node000005" class="node">
<title>Node5</title>
<g id="a_Node000005"><a xlink:href="classEnemyTank.html#a5759e09a78eab14d4b85dc1bd93ead19" target="_top" xlink:title="Attempts to shoot at player.">
<polygon fill="white" stroke="#666666" points="845,-95 705,-95 705,-76 845,-76 845,-95"/>
<text text-anchor="middle" x="775" y="-83" font-family="Helvetica,sans-Serif" font-size="10.00">EnemyTank::attemptShot</text>
</a>
</g>
</g>
<!-- Node1&#45;&gt;Node5 -->
<g id="edge4_Node000001_Node000005" class="edge">
<title>Node1&#45;&gt;Node5</title>
<g id="a_edge4_Node000001_Node000005"><a xlink:title=" ">
<path fill="none" stroke="#63b8ff" d="M1213.49,-69.26C1204.99,-69.7 1196.24,-70.13 1188,-70.5 1067.52,-75.91 927.15,-80.69 845.27,-83.34"/>
<polygon fill="#63b8ff" stroke="#63b8ff" points="1213.89,-72.74 1223.69,-68.72 1213.52,-65.75 1213.89,-72.74"/>
</a>
</g>
</g>
<!-- Node6 -->
<g id="Node000006" class="node">
<title>Node6</title>
<g id="a_Node000006"><a xlink:href="classTank.html#a99218709d4502fafb8e0787121a68e54" target="_top" xlink:title="Fires a projectile from the tank.">
<polygon fill="white" stroke="#666666" points="1130.5,-19 1069.5,-19 1069.5,0 1130.5,0 1130.5,-19"/>
<text text-anchor="middle" x="1100" y="-7" font-family="Helvetica,sans-Serif" font-size="10.00">Tank::fire</text>
</a>
</g>
</g>
<!-- Node1&#45;&gt;Node6 -->
<g id="edge6_Node000001_Node000006" class="edge">
<title>Node1&#45;&gt;Node6</title>
<g id="a_edge6_Node000001_Node000006"><a xlink:title=" ">
<path fill="none" stroke="#63b8ff" d="M1233.86,-52.5C1220.13,-46.21 1203.42,-38.99 1188,-33.5 1169.25,-26.83 1147.69,-20.87 1130.73,-16.56"/>
<polygon fill="#63b8ff" stroke="#63b8ff" points="1232.72,-55.83 1243.26,-56.87 1235.67,-49.48 1232.72,-55.83"/>
</a>
</g>
</g>
<!-- Node7 -->
<g id="Node000007" class="node">
<title>Node7</title>
<g id="a_Node000007"><a xlink:href="classEnemyTank.html#a502b571b6aadbbcd72392d182b7fd85c" target="_top" xlink:title="Fires projectile from enemy tank.">
<polygon fill="white" stroke="#666666" points="976,-57 881,-57 881,-38 976,-38 976,-57"/>
<text text-anchor="middle" x="928.5" y="-45" font-family="Helvetica,sans-Serif" font-size="10.00">EnemyTank::fire</text>
</a>
</g>
</g>
<!-- Node1&#45;&gt;Node7 -->
<g id="edge17_Node000001_Node000007" class="edge">
<title>Node1&#45;&gt;Node7</title>
<g id="a_edge17_Node000001_Node000007"><a xlink:title=" ">
<path fill="none" stroke="#63b8ff" d="M1213.52,-63.68C1149.46,-60.03 1038.66,-53.72 976.07,-50.15"/>
<polygon fill="#63b8ff" stroke="#63b8ff" points="1213.58,-67.19 1223.76,-64.26 1213.98,-60.2 1213.58,-67.19"/>
</a>
</g>
</g>
<!-- Node3 -->
<g id="Node000003" class="node">
<title>Node3</title>
<g id="a_Node000003"><a xlink:href="classEnemyTank.html#a338556623afc739ebf5585caaa73fcdb" target="_top" xlink:title="Decides next action based on behavior.">
<polygon fill="white" stroke="#666666" points="655.5,-114 494.5,-114 494.5,-95 655.5,-95 655.5,-114"/>
<text text-anchor="middle" x="575" y="-102" font-family="Helvetica,sans-Serif" font-size="10.00">EnemyTank::decideNextMove</text>
</a>
</g>
</g>
<!-- Node2&#45;&gt;Node3 -->
<g id="edge2_Node000002_Node000003" class="edge">
<title>Node2&#45;&gt;Node3</title>
<g id="a_edge2_Node000002_Node000003"><a xlink:title=" ">
<path fill="none" stroke="#63b8ff" d="M1001.67,-119.96C901.91,-116.34 748.61,-110.77 655.77,-107.4"/>
<polygon fill="#63b8ff" stroke="#63b8ff" points="1001.64,-123.47 1011.76,-120.33 1001.89,-116.47 1001.64,-123.47"/>
</a>
</g>
</g>
<!-- Node4 -->
<g id="Node000004" class="node">
<title>Node4</title>
<g id="a_Node000004"><a xlink:href="classEnemyTank.html#a7ae5efc6eff4e7a19abb7f37b44835fc" target="_top" xlink:title="Updates enemy tank state and AI decisions.">
<polygon fill="white" stroke="#666666" points="408,-114 295,-114 295,-95 408,-95 408,-114"/>
<text text-anchor="middle" x="351.5" y="-102" font-family="Helvetica,sans-Serif" font-size="10.00">EnemyTank::update</text>
</a>
</g>
</g>
<!-- Node3&#45;&gt;Node4 -->
<g id="edge3_Node000003_Node000004" class="edge">
<title>Node3&#45;&gt;Node4</title>
<g id="a_edge3_Node000003_Node000004"><a xlink:title=" ">
<path fill="none" stroke="#63b8ff" d="M484.21,-104.5C458.51,-104.5 431.24,-104.5 408.23,-104.5"/>
<polygon fill="#63b8ff" stroke="#63b8ff" points="484.35,-108 494.35,-104.5 484.35,-101 484.35,-108"/>
</a>
</g>
</g>
<!-- Node5&#45;&gt;Node3 -->
<g id="edge5_Node000005_Node000003" class="edge">
<title>Node5&#45;&gt;Node3</title>
<g id="a_edge5_Node000005_Node000003"><a xlink:title=" ">
<path fill="none" stroke="#63b8ff" d="M694.6,-93.12C681.79,-94.35 668.53,-95.62 655.72,-96.85"/>
<polygon fill="#63b8ff" stroke="#63b8ff" points="695.13,-96.58 704.75,-92.15 694.46,-89.62 695.13,-96.58"/>
</a>
</g>
</g>
<!-- Node6&#45;&gt;Node7 -->
<g id="edge7_Node000006_Node000007" class="edge">
<title>Node6&#45;&gt;Node7</title>
<g id="a_edge7_Node000006_Node000007"><a xlink:title=" ">
<path fill="none" stroke="#63b8ff" d="M1059.5,-18.36C1033.27,-24.24 998.86,-31.95 972.03,-37.97"/>
<polygon fill="#63b8ff" stroke="#63b8ff" points="1060.48,-21.72 1069.48,-16.12 1058.95,-14.89 1060.48,-21.72"/>
</a>
</g>
</g>
<!-- Node12 -->
<g id="Node000012" class="node">
<title>Node12</title>
<g id="a_Node000012"><a xlink:href="classPlayerTank.html#aa455f3425151e01a83f8e626df107e5e" target="_top" xlink:title="Fires projectile(s) from player tank.">
<polygon fill="white" stroke="#666666" points="974.5,-19 882.5,-19 882.5,0 974.5,0 974.5,-19"/>
<text text-anchor="middle" x="928.5" y="-7" font-family="Helvetica,sans-Serif" font-size="10.00">PlayerTank::fire</text>
</a>
</g>
</g>
<!-- Node6&#45;&gt;Node12 -->
<g id="edge13_Node000006_Node000012" class="edge">
<title>Node6&#45;&gt;Node12</title>
<g id="a_edge13_Node000006_Node000012"><a xlink:title=" ">
<path fill="none" stroke="#63b8ff" d="M1059.45,-9.5C1034.07,-9.5 1001.03,-9.5 974.62,-9.5"/>
<polygon fill="#63b8ff" stroke="#63b8ff" points="1059.48,-13 1069.48,-9.5 1059.48,-6 1059.48,-13"/>
</a>
</g>
</g>
<!-- Node7&#45;&gt;Node5 -->
<g id="edge8_Node000007_Node000005" class="edge">
<title>Node7&#45;&gt;Node5</title>
<g id="a_edge8_Node000007_Node000005"><a xlink:title=" ">
<path fill="none" stroke="#63b8ff" d="M879.5,-59.54C858.33,-64.85 833.81,-71 813.95,-75.98"/>
<polygon fill="#63b8ff" stroke="#63b8ff" points="880.42,-62.92 889.27,-57.09 878.72,-56.13 880.42,-62.92"/>
</a>
</g>
</g>
<!-- Node8 -->
<g id="Node000008" class="node">
<title>Node8</title>
<g id="a_Node000008"><a xlink:href="classGameWorld.html#ab645acf30cb0a4640a8fb5b88c5c7c94" target="_top" xlink:title="Updates all game objects and logic.">
<polygon fill="white" stroke="#666666" points="631.5,-57 518.5,-57 518.5,-38 631.5,-38 631.5,-57"/>
<text text-anchor="middle" x="575" y="-45" font-family="Helvetica,sans-Serif" font-size="10.00">GameWorld::update</text>
</a>
</g>
</g>
<!-- Node7&#45;&gt;Node8 -->
<g id="edge9_Node000007_Node000008" class="edge">
<title>Node7&#45;&gt;Node8</title>
<g id="a_edge9_Node000007_Node000008"><a xlink:title=" ">
<path fill="none" stroke="#63b8ff" d="M870.62,-47.5C804.74,-47.5 696.9,-47.5 631.57,-47.5"/>
<polygon fill="#63b8ff" stroke="#63b8ff" points="870.82,-51 880.82,-47.5 870.82,-44 870.82,-51"/>
</a>
</g>
</g>
<!-- Node9 -->
<g id="Node000009" class="node">
<title>Node9</title>
<g id="a_Node000009"><a xlink:href="classGameController.html#af2367e58f03d8a1441c9a574967fd360" target="_top" xlink:title="Processes a single game turn/update cycle.">
<polygon fill="white" stroke="#666666" points="445,-39 258,-39 258,-20 445,-20 445,-39"/>
<text text-anchor="middle" x="351.5" y="-27" font-family="Helvetica,sans-Serif" font-size="10.00">GameController::processGameTurn</text>
</a>
</g>
</g>
<!-- Node8&#45;&gt;Node9 -->
<g id="edge10_Node000008_Node000009" class="edge">
<title>Node8&#45;&gt;Node9</title>
<g id="a_edge10_Node000008_Node000009"><a xlink:title=" ">
<path fill="none" stroke="#63b8ff" d="M508.27,-42.16C488.49,-40.55 466.4,-38.76 445.21,-37.03"/>
<polygon fill="#63b8ff" stroke="#63b8ff" points="508.14,-45.66 518.39,-42.98 508.71,-38.68 508.14,-45.66"/>
</a>
</g>
</g>
<!-- Node10 -->
<g id="Node000010" class="node">
<title>Node10</title>
<g id="a_Node000010"><a xlink:href="classGameController.html#ac958989c8f7f08488546930e5fcb0d82" target="_top" xlink:title="Starts and runs the main game loop.">
<polygon fill="white" stroke="#666666" points="222,-39 77,-39 77,-20 222,-20 222,-39"/>
<text text-anchor="middle" x="149.5" y="-27" font-family="Helvetica,sans-Serif" font-size="10.00">GameController::runGame</text>
</a>
</g>
</g>
<!-- Node9&#45;&gt;Node10 -->
<g id="edge11_Node000009_Node000010" class="edge">
<title>Node9&#45;&gt;Node10</title>
<g id="a_edge11_Node000009_Node000010"><a xlink:title=" ">
<path fill="none" stroke="#63b8ff" d="M247.71,-29.5C239.1,-29.5 230.52,-29.5 222.22,-29.5"/>
<polygon fill="#63b8ff" stroke="#63b8ff" points="247.82,-33 257.82,-29.5 247.82,-26 247.82,-33"/>
</a>
</g>
</g>
<!-- Node11 -->
<g id="Node000011" class="node">
<title>Node11</title>
<g id="a_Node000011"><a xlink:href="main_8cpp.html#ae66f6b31b5ad750f1fe042a706a4e3d4" target="_top" xlink:title="Main function that serves as the application entry point.">
<polygon fill="white" stroke="#666666" points="41,-39 0,-39 0,-20 41,-20 41,-39"/>
<text text-anchor="middle" x="20.5" y="-27" font-family="Helvetica,sans-Serif" font-size="10.00">main</text>
</a>
</g>
</g>
<!-- Node10&#45;&gt;Node11 -->
<g id="edge12_Node000010_Node000011" class="edge">
<title>Node10&#45;&gt;Node11</title>
<g id="a_edge12_Node000010_Node000011"><a xlink:title=" ">
<path fill="none" stroke="#63b8ff" d="M66.79,-29.5C57.31,-29.5 48.43,-29.5 41.08,-29.5"/>
<polygon fill="#63b8ff" stroke="#63b8ff" points="66.83,-33 76.83,-29.5 66.83,-26 66.83,-33"/>
</a>
</g>
</g>
<!-- Node13 -->
<g id="Node000013" class="node">
<title>Node13</title>
<g id="a_Node000013"><a xlink:href="classGameWorld.html#a58c1d2ad8f1cca5576339fbb7efba344" target="_top" xlink:title="Triggers player tank to fire.">
<polygon fill="white" stroke="#666666" points="839,-19 711,-19 711,0 839,0 839,-19"/>
<text text-anchor="middle" x="775" y="-7" font-family="Helvetica,sans-Serif" font-size="10.00">GameWorld::playerFire</text>
</a>
</g>
</g>
<!-- Node12&#45;&gt;Node13 -->
<g id="edge14_Node000012_Node000013" class="edge">
<title>Node12&#45;&gt;Node13</title>
<g id="a_edge14_Node000012_Node000013"><a xlink:title=" ">
<path fill="none" stroke="#63b8ff" d="M872.32,-9.5C861.52,-9.5 850.13,-9.5 839.09,-9.5"/>
<polygon fill="#63b8ff" stroke="#63b8ff" points="872.46,-13 882.46,-9.5 872.46,-6 872.46,-13"/>
</a>
</g>
</g>
<!-- Node14 -->
<g id="Node000014" class="node">
<title>Node14</title>
<g id="a_Node000014"><a xlink:href="classGameController.html#a971b3d8f6296a74f0bebc83b5e79c186" target="_top" xlink:title="Processes a user command.">
<polygon fill="white" stroke="#666666" points="669,-20 481,-20 481,-1 669,-1 669,-20"/>
<text text-anchor="middle" x="575" y="-8" font-family="Helvetica,sans-Serif" font-size="10.00">GameController::processCommand</text>
</a>
</g>
</g>
<!-- Node13&#45;&gt;Node14 -->
<g id="edge15_Node000013_Node000014" class="edge">
<title>Node13&#45;&gt;Node14</title>
<g id="a_edge15_Node000013_Node000014"><a xlink:title=" ">
<path fill="none" stroke="#63b8ff" d="M700.71,-9.87C690.46,-9.92 679.82,-9.98 669.26,-10.03"/>
<polygon fill="#63b8ff" stroke="#63b8ff" points="700.83,-13.37 710.81,-9.82 700.79,-6.37 700.83,-13.37"/>
</a>
</g>
</g>
<!-- Node14&#45;&gt;Node9 -->
<g id="edge16_Node000014_Node000009" class="edge">
<title>Node14&#45;&gt;Node9</title>
<g id="a_edge16_Node000014_Node000009"><a xlink:title=" ">
<path fill="none" stroke="#63b8ff" d="M470.5,-19.38C462.1,-20.1 453.65,-20.82 445.33,-21.54"/>
<polygon fill="#63b8ff" stroke="#63b8ff" points="471.04,-22.84 480.71,-18.5 470.44,-15.87 471.04,-22.84"/>
</a>
</g>
</g>
</g>
</svg>
