<?xml version="1.0" encoding="UTF-8" standalone="no"?>
<!DOCTYPE svg PUBLIC "-//W3C//DTD SVG 1.1//EN"
 "http://www.w3.org/Graphics/SVG/1.1/DTD/svg11.dtd">
<!-- Generated by graphviz version 2.43.0 (0)
 -->
<!-- Title: EnemyTank::defensiveMove Pages: 1 -->
<svg width="529pt" height="132pt"
 viewBox="0.00 0.00 529.00 131.50" xmlns="http://www.w3.org/2000/svg" xmlns:xlink="http://www.w3.org/1999/xlink">
<g id="graph0" class="graph" transform="scale(1 1) rotate(0) translate(4 127.5)">
<title>EnemyTank::defensiveMove</title>
<!-- Node1 -->
<g id="Node000001" class="node">
<title>Node1</title>
<g id="a_Node000001"><a xlink:title="Moves away from player.">
<polygon fill="#999999" stroke="#666666" points="154,-56 0,-56 0,-37 154,-37 154,-56"/>
<text text-anchor="middle" x="77" y="-44" font-family="Helvetica,sans-Serif" font-size="10.00">EnemyTank::defensiveMove</text>
</a>
</g>
</g>
<!-- Node2 -->
<g id="Node000002" class="node">
<title>Node2</title>
<g id="a_Node000002"><a xlink:href="classEnemyTank.html#a9eb0cacdd5e196535f1d60da1ca622ac" target="_top" xlink:title="Gets direction towards last known player position.">
<polygon fill="white" stroke="#666666" points="355.5,-123.5 206.5,-123.5 206.5,-93.5 355.5,-93.5 355.5,-123.5"/>
<text text-anchor="start" x="214.5" y="-111.5" font-family="Helvetica,sans-Serif" font-size="10.00">EnemyTank::getDirectionTo</text>
<text text-anchor="middle" x="281" y="-100.5" font-family="Helvetica,sans-Serif" font-size="10.00">Player</text>
</a>
</g>
</g>
<!-- Node1&#45;&gt;Node2 -->
<g id="edge1_Node000001_Node000002" class="edge">
<title>Node1&#45;&gt;Node2</title>
<g id="a_edge1_Node000001_Node000002"><a xlink:title=" ">
<path fill="none" stroke="#63b8ff" d="M104.54,-56.06C127.14,-64.07 160.52,-75.58 190,-84.5 196.92,-86.59 204.16,-88.69 211.41,-90.72"/>
<polygon fill="#63b8ff" stroke="#63b8ff" points="210.69,-94.15 221.26,-93.44 212.55,-87.4 210.69,-94.15"/>
</a>
</g>
</g>
<!-- Node3 -->
<g id="Node000003" class="node">
<title>Node3</title>
<g id="a_Node000003"><a xlink:href="classEnemyTank.html#a8e77035e33942a8ac511fbb3970917bc" target="_top" xlink:title="Gets opposite direction.">
<polygon fill="white" stroke="#666666" points="372,-75 190,-75 190,-56 372,-56 372,-75"/>
<text text-anchor="middle" x="281" y="-63" font-family="Helvetica,sans-Serif" font-size="10.00">EnemyTank::getOppositeDirection</text>
</a>
</g>
</g>
<!-- Node1&#45;&gt;Node3 -->
<g id="edge2_Node000001_Node000003" class="edge">
<title>Node1&#45;&gt;Node3</title>
<g id="a_edge2_Node000001_Node000003"><a xlink:title=" ">
<path fill="none" stroke="#63b8ff" d="M154.08,-53.66C162.44,-54.44 171.04,-55.25 179.64,-56.06"/>
<polygon fill="#63b8ff" stroke="#63b8ff" points="179.43,-59.56 189.71,-57.01 180.08,-52.59 179.43,-59.56"/>
</a>
</g>
</g>
<!-- Node4 -->
<g id="Node000004" class="node">
<title>Node4</title>
<g id="a_Node000004"><a xlink:href="classEnemyTank.html#ad9f295f9b2df24bb291db3783b292289" target="_top" xlink:title="Moves enemy tank in specified direction.">
<polygon fill="white" stroke="#666666" points="334.5,-38 227.5,-38 227.5,-19 334.5,-19 334.5,-38"/>
<text text-anchor="middle" x="281" y="-26" font-family="Helvetica,sans-Serif" font-size="10.00">EnemyTank::move</text>
</a>
</g>
</g>
<!-- Node1&#45;&gt;Node4 -->
<g id="edge3_Node000001_Node000004" class="edge">
<title>Node1&#45;&gt;Node4</title>
<g id="a_edge3_Node000001_Node000004"><a xlink:title=" ">
<path fill="none" stroke="#63b8ff" d="M154.08,-39.72C174.84,-37.87 197.1,-35.89 217.04,-34.11"/>
<polygon fill="#63b8ff" stroke="#63b8ff" points="217.59,-37.58 227.24,-33.2 216.97,-30.6 217.59,-37.58"/>
</a>
</g>
</g>
<!-- Node5 -->
<g id="Node000005" class="node">
<title>Node5</title>
<g id="a_Node000005"><a xlink:href="classGameObject.html#a4bc41ca14c07e61dafa74a03c4f3e2df" target="_top" xlink:title="Rotates the object to face new direction.">
<polygon fill="white" stroke="#666666" points="521,-19 408,-19 408,0 521,0 521,-19"/>
<text text-anchor="middle" x="464.5" y="-7" font-family="Helvetica,sans-Serif" font-size="10.00">GameObject::rotate</text>
</a>
</g>
</g>
<!-- Node1&#45;&gt;Node5 -->
<g id="edge5_Node000001_Node000005" class="edge">
<title>Node1&#45;&gt;Node5</title>
<g id="a_edge5_Node000001_Node000005"><a xlink:title=" ">
<path fill="none" stroke="#63b8ff" d="M100.66,-36.94C122.94,-28.08 158.13,-15.56 190,-10.5 260.31,0.65 342.06,-0.91 397.75,-4.13"/>
<polygon fill="#63b8ff" stroke="#63b8ff" points="397.64,-7.63 407.84,-4.74 398.07,-0.64 397.64,-7.63"/>
</a>
</g>
</g>
<!-- Node4&#45;&gt;Node5 -->
<g id="edge4_Node000004_Node000005" class="edge">
<title>Node4&#45;&gt;Node5</title>
<g id="a_edge4_Node000004_Node000005"><a xlink:title=" ">
<path fill="none" stroke="#63b8ff" d="M334.99,-22.95C354.68,-20.89 377.26,-18.53 397.94,-16.36"/>
<polygon fill="#63b8ff" stroke="#63b8ff" points="398.34,-19.84 407.92,-15.32 397.61,-12.88 398.34,-19.84"/>
</a>
</g>
</g>
</g>
</svg>
