<?xml version="1.0" encoding="UTF-8" standalone="no"?>
<!DOCTYPE svg PUBLIC "-//W3C//DTD SVG 1.1//EN"
 "http://www.w3.org/Graphics/SVG/1.1/DTD/svg11.dtd">
<!-- Generated by graphviz version 2.43.0 (0)
 -->
<!-- Title: GameObject::isDestroyed Pages: 1 -->
<svg width="1712pt" height="365pt"
 viewBox="0.00 0.00 1712.00 364.95" xmlns="http://www.w3.org/2000/svg" xmlns:xlink="http://www.w3.org/1999/xlink">
<g id="graph0" class="graph" transform="scale(1 1) rotate(0) translate(4 360.95)">
<title>GameObject::isDestroyed</title>
<!-- Node1 -->
<g id="Node000001" class="node">
<title>Node1</title>
<g id="a_Node000001"><a xlink:title="Checks if object is destroyed.">
<polygon fill="#999999" stroke="#666666" points="1704,-185.95 1562,-185.95 1562,-166.95 1704,-166.95 1704,-185.95"/>
<text text-anchor="middle" x="1633" y="-173.95" font-family="Helvetica,sans-Serif" font-size="10.00">GameObject::isDestroyed</text>
</a>
</g>
</g>
<!-- Node2 -->
<g id="Node000002" class="node">
<title>Node2</title>
<g id="a_Node000002"><a xlink:href="classGameWorld.html#aa547d7890c6acf2e8ee3014a52d741b9" target="_top" xlink:title="Applies slow effect to all enemies.">
<polygon fill="white" stroke="#666666" points="1526,-356.95 1344,-356.95 1344,-337.95 1526,-337.95 1526,-356.95"/>
<text text-anchor="middle" x="1435" y="-344.95" font-family="Helvetica,sans-Serif" font-size="10.00">GameWorld::applySlowToEnemies</text>
</a>
</g>
</g>
<!-- Node1&#45;&gt;Node2 -->
<g id="edge1_Node000001_Node000002" class="edge">
<title>Node1&#45;&gt;Node2</title>
<g id="a_edge1_Node000001_Node000002"><a xlink:title=" ">
<path fill="none" stroke="#63b8ff" d="M1623.58,-195.52C1608.63,-227.1 1574.42,-290.09 1526,-323.45 1516.81,-329.78 1506.04,-334.44 1495.2,-337.87"/>
<polygon fill="#63b8ff" stroke="#63b8ff" points="1626.91,-196.65 1627.9,-186.1 1620.55,-193.73 1626.91,-196.65"/>
</a>
</g>
</g>
<!-- Node3 -->
<g id="Node000003" class="node">
<title>Node3</title>
<g id="a_Node000003"><a xlink:href="classGameWorld.html#a7ddabf5c5dc78379e8b75d531068fa5a" target="_top" xlink:title="Checks bonus collection.">
<polygon fill="white" stroke="#666666" points="1308,-280.95 1123,-280.95 1123,-261.95 1308,-261.95 1308,-280.95"/>
<text text-anchor="middle" x="1215.5" y="-268.95" font-family="Helvetica,sans-Serif" font-size="10.00">GameWorld::checkBonusCollisions</text>
</a>
</g>
</g>
<!-- Node1&#45;&gt;Node3 -->
<g id="edge11_Node000001_Node000003" class="edge">
<title>Node1&#45;&gt;Node3</title>
<g id="a_edge11_Node000001_Node000003"><a xlink:title=" ">
<path fill="none" stroke="#63b8ff" d="M1613.93,-192.87C1594.02,-209.87 1560.24,-235.57 1526,-247.45 1455.6,-271.86 1370.98,-276.9 1308.02,-276.38"/>
<polygon fill="#63b8ff" stroke="#63b8ff" points="1616.35,-195.4 1621.58,-186.18 1611.75,-190.13 1616.35,-195.4"/>
</a>
</g>
</g>
<!-- Node5 -->
<g id="Node000005" class="node">
<title>Node5</title>
<g id="a_Node000005"><a xlink:href="classGameWorld.html#ab645acf30cb0a4640a8fb5b88c5c7c94" target="_top" xlink:title="Updates all game objects and logic.">
<polygon fill="white" stroke="#666666" points="631.5,-215.95 518.5,-215.95 518.5,-196.95 631.5,-196.95 631.5,-215.95"/>
<text text-anchor="middle" x="575" y="-203.95" font-family="Helvetica,sans-Serif" font-size="10.00">GameWorld::update</text>
</a>
</g>
</g>
<!-- Node1&#45;&gt;Node5 -->
<g id="edge24_Node000001_Node000005" class="edge">
<title>Node1&#45;&gt;Node5</title>
<g id="a_edge24_Node000001_Node000005"><a xlink:title=" ">
<path fill="none" stroke="#63b8ff" d="M1622.79,-157.53C1607.32,-128.02 1573.11,-71.67 1526,-45.45 1404.86,21.98 1355.14,-6.45 1216.5,-6.45 1216.5,-6.45 1216.5,-6.45 1007.5,-6.45 866.18,-6.45 829.62,-37.79 705,-104.45 655.4,-130.98 605.75,-177.08 585.49,-196.92"/>
<polygon fill="#63b8ff" stroke="#63b8ff" points="1619.83,-159.43 1627.48,-166.76 1626.07,-156.26 1619.83,-159.43"/>
</a>
</g>
</g>
<!-- Node11 -->
<g id="Node000011" class="node">
<title>Node11</title>
<g id="a_Node000011"><a xlink:href="classGameWorld.html#a6b4f2f8d12f4dcde90d48853dd37f6cc" target="_top" xlink:title="Checks boundary collisions.">
<polygon fill="white" stroke="#666666" points="1293,-202.45 1138,-202.45 1138,-172.45 1293,-172.45 1293,-202.45"/>
<text text-anchor="start" x="1146" y="-190.45" font-family="Helvetica,sans-Serif" font-size="10.00">GameWorld::checkBoundary</text>
<text text-anchor="middle" x="1215.5" y="-179.45" font-family="Helvetica,sans-Serif" font-size="10.00">Collisions</text>
</a>
</g>
</g>
<!-- Node1&#45;&gt;Node11 -->
<g id="edge12_Node000001_Node000011" class="edge">
<title>Node1&#45;&gt;Node11</title>
<g id="a_edge12_Node000001_Node000011"><a xlink:title=" ">
<path fill="none" stroke="#63b8ff" d="M1551.7,-178.57C1477.04,-180.55 1366.61,-183.47 1293.15,-185.42"/>
<polygon fill="#63b8ff" stroke="#63b8ff" points="1552.08,-182.06 1561.99,-178.3 1551.9,-175.07 1552.08,-182.06"/>
</a>
</g>
</g>
<!-- Node12 -->
<g id="Node000012" class="node">
<title>Node12</title>
<g id="a_Node000012"><a xlink:href="classGameWorld.html#a1ada9d3ebdf482a0fd3abcc1fe41c6de" target="_top" xlink:title="Checks win/lose conditions.">
<polygon fill="white" stroke="#666666" points="894,-275.95 705,-275.95 705,-256.95 894,-256.95 894,-275.95"/>
<text text-anchor="middle" x="799.5" y="-263.95" font-family="Helvetica,sans-Serif" font-size="10.00">GameWorld::checkGameConditions</text>
</a>
</g>
</g>
<!-- Node1&#45;&gt;Node12 -->
<g id="edge14_Node000001_Node000012" class="edge">
<title>Node1&#45;&gt;Node12</title>
<g id="a_edge14_Node000001_Node000012"><a xlink:title=" ">
<path fill="none" stroke="#63b8ff" d="M1619.23,-194.36C1601.38,-217.76 1566.57,-257.81 1526,-275.45 1413.15,-324.49 1049.98,-293.44 884.3,-275.97"/>
<polygon fill="#63b8ff" stroke="#63b8ff" points="1622.27,-196.13 1625.41,-186.01 1616.64,-191.97 1622.27,-196.13"/>
</a>
</g>
</g>
<!-- Node13 -->
<g id="Node000013" class="node">
<title>Node13</title>
<g id="a_Node000013"><a xlink:href="classGameWorld.html#aba83e6f4f714c9f590f4cb8078cd9a2b" target="_top" xlink:title="Checks tank&#45;tank collisions.">
<polygon fill="white" stroke="#666666" points="1085,-243.45 932,-243.45 932,-213.45 1085,-213.45 1085,-243.45"/>
<text text-anchor="start" x="940" y="-231.45" font-family="Helvetica,sans-Serif" font-size="10.00">GameWorld::checkTankTank</text>
<text text-anchor="middle" x="1008.5" y="-220.45" font-family="Helvetica,sans-Serif" font-size="10.00">Collisions</text>
</a>
</g>
</g>
<!-- Node1&#45;&gt;Node13 -->
<g id="edge16_Node000001_Node000013" class="edge">
<title>Node1&#45;&gt;Node13</title>
<g id="a_edge16_Node000001_Node000013"><a xlink:title=" ">
<path fill="none" stroke="#63b8ff" d="M1574.8,-187.82C1559.04,-190.65 1541.9,-193.44 1526,-195.45 1369.99,-215.1 1185.91,-223.3 1085.05,-226.53"/>
<polygon fill="#63b8ff" stroke="#63b8ff" points="1575.73,-191.21 1584.93,-185.97 1574.47,-184.33 1575.73,-191.21"/>
</a>
</g>
</g>
<!-- Node14 -->
<g id="Node000014" class="node">
<title>Node14</title>
<g id="a_Node000014"><a xlink:href="classSteelWall.html#a8c888e3dabac836a46e41af64b13c66b" target="_top" xlink:title="Gets the character symbol for steel wall.">
<polygon fill="white" stroke="#666666" points="1495.5,-129.95 1374.5,-129.95 1374.5,-110.95 1495.5,-110.95 1495.5,-129.95"/>
<text text-anchor="middle" x="1435" y="-117.95" font-family="Helvetica,sans-Serif" font-size="10.00">SteelWall::getSymbol</text>
</a>
</g>
</g>
<!-- Node1&#45;&gt;Node14 -->
<g id="edge18_Node000001_Node000014" class="edge">
<title>Node1&#45;&gt;Node14</title>
<g id="a_edge18_Node000001_Node000014"><a xlink:title=" ">
<path fill="none" stroke="#63b8ff" d="M1598.74,-163.1C1578.06,-155.16 1550.77,-145.32 1526,-138.45 1514.64,-135.29 1502.32,-132.46 1490.56,-130.02"/>
<polygon fill="#63b8ff" stroke="#63b8ff" points="1597.74,-166.47 1608.33,-166.83 1600.27,-159.94 1597.74,-166.47"/>
</a>
</g>
</g>
<!-- Node15 -->
<g id="Node000015" class="node">
<title>Node15</title>
<g id="a_Node000015"><a xlink:href="classGameWorld.html#a752ef6a0f4c6cdffead1dacd117d8451" target="_top" xlink:title="Handles projectile hit.">
<polygon fill="white" stroke="#666666" points="1302,-151.95 1129,-151.95 1129,-132.95 1302,-132.95 1302,-151.95"/>
<text text-anchor="middle" x="1215.5" y="-139.95" font-family="Helvetica,sans-Serif" font-size="10.00">GameWorld::handleProjectileHit</text>
</a>
</g>
</g>
<!-- Node1&#45;&gt;Node15 -->
<g id="edge19_Node000001_Node000015" class="edge">
<title>Node1&#45;&gt;Node15</title>
<g id="a_edge19_Node000001_Node000015"><a xlink:title=" ">
<path fill="none" stroke="#63b8ff" d="M1615.53,-159.73C1596.11,-141.34 1561.9,-112.86 1526,-101.45 1422.44,-68.51 1291.25,-112.32 1239.23,-132.86"/>
<polygon fill="#63b8ff" stroke="#63b8ff" points="1613.3,-162.45 1622.91,-166.92 1618.18,-157.44 1613.3,-162.45"/>
</a>
</g>
</g>
<!-- Node17 -->
<g id="Node000017" class="node">
<title>Node17</title>
<g id="a_Node000017"><a xlink:href="classObstacle.html#a0167f367446272ac93f006af1403fa2c" target="_top" xlink:title="Applies damage to the obstacle.">
<polygon fill="white" stroke="#666666" points="1499,-166.95 1371,-166.95 1371,-147.95 1499,-147.95 1499,-166.95"/>
<text text-anchor="middle" x="1435" y="-154.95" font-family="Helvetica,sans-Serif" font-size="10.00">Obstacle::takeDamage</text>
</a>
</g>
</g>
<!-- Node1&#45;&gt;Node17 -->
<g id="edge22_Node000001_Node000017" class="edge">
<title>Node1&#45;&gt;Node17</title>
<g id="a_edge22_Node000001_Node000017"><a xlink:title=" ">
<path fill="none" stroke="#63b8ff" d="M1551.61,-168.65C1534.14,-166.96 1515.9,-165.19 1499.2,-163.57"/>
<polygon fill="#63b8ff" stroke="#63b8ff" points="1551.5,-172.16 1561.79,-169.64 1552.18,-165.19 1551.5,-172.16"/>
</a>
</g>
</g>
<!-- Node18 -->
<g id="Node000018" class="node">
<title>Node18</title>
<g id="a_Node000018"><a xlink:href="classGameWorld.html#a48cb994868f422ae759b15f3b9c861b6" target="_top" xlink:title="Updates AI for all enemies.">
<polygon fill="white" stroke="#666666" points="1087,-81.95 930,-81.95 930,-62.95 1087,-62.95 1087,-81.95"/>
<text text-anchor="middle" x="1008.5" y="-69.95" font-family="Helvetica,sans-Serif" font-size="10.00">GameWorld::updateEnemyAI</text>
</a>
</g>
</g>
<!-- Node1&#45;&gt;Node18 -->
<g id="edge25_Node000001_Node000018" class="edge">
<title>Node1&#45;&gt;Node18</title>
<g id="a_edge25_Node000001_Node000018"><a xlink:title=" ">
<path fill="none" stroke="#63b8ff" d="M1618.11,-158.92C1599.71,-137.24 1565.01,-101.38 1526,-86.45 1365.78,-25.13 1156.68,-47.61 1061.16,-62.91"/>
<polygon fill="#63b8ff" stroke="#63b8ff" points="1615.48,-161.23 1624.54,-166.72 1620.88,-156.78 1615.48,-161.23"/>
</a>
</g>
</g>
<!-- Node2&#45;&gt;Node3 -->
<g id="edge2_Node000002_Node000003" class="edge">
<title>Node2&#45;&gt;Node3</title>
<g id="a_edge2_Node000002_Node000003"><a xlink:title=" ">
<path fill="none" stroke="#63b8ff" d="M1396.83,-334.46C1353.38,-319.28 1282.51,-294.51 1243.82,-280.99"/>
<polygon fill="#63b8ff" stroke="#63b8ff" points="1395.86,-337.83 1406.45,-337.82 1398.17,-331.22 1395.86,-337.83"/>
</a>
</g>
</g>
<!-- Node9 -->
<g id="Node000009" class="node">
<title>Node9</title>
<g id="a_Node000009"><a xlink:href="classGameWorld.html#a2b1db90f0ef907c7e93b1114357b8a90" target="_top" xlink:title="Moves player tank in specified direction.">
<polygon fill="white" stroke="#666666" points="1284,-356.95 1147,-356.95 1147,-337.95 1284,-337.95 1284,-356.95"/>
<text text-anchor="middle" x="1215.5" y="-344.95" font-family="Helvetica,sans-Serif" font-size="10.00">GameWorld::playerMove</text>
</a>
</g>
</g>
<!-- Node2&#45;&gt;Node9 -->
<g id="edge8_Node000002_Node000009" class="edge">
<title>Node2&#45;&gt;Node9</title>
<g id="a_edge8_Node000002_Node000009"><a xlink:title=" ">
<path fill="none" stroke="#63b8ff" d="M1333.6,-347.45C1316.87,-347.45 1299.88,-347.45 1284.21,-347.45"/>
<polygon fill="#63b8ff" stroke="#63b8ff" points="1333.96,-350.95 1343.96,-347.45 1333.96,-343.95 1333.96,-350.95"/>
</a>
</g>
</g>
<!-- Node4 -->
<g id="Node000004" class="node">
<title>Node4</title>
<g id="a_Node000004"><a xlink:href="classGameWorld.html#a2a5aaafc1c18521a4657d6a4a66c4d91" target="_top" xlink:title="Checks all types of collisions.">
<polygon fill="white" stroke="#666666" points="877,-215.95 722,-215.95 722,-196.95 877,-196.95 877,-215.95"/>
<text text-anchor="middle" x="799.5" y="-203.95" font-family="Helvetica,sans-Serif" font-size="10.00">GameWorld::checkCollisions</text>
</a>
</g>
</g>
<!-- Node3&#45;&gt;Node4 -->
<g id="edge3_Node000003_Node000004" class="edge">
<title>Node3&#45;&gt;Node4</title>
<g id="a_edge3_Node000003_Node000004"><a xlink:title=" ">
<path fill="none" stroke="#63b8ff" d="M1112.94,-271.4C1058.25,-269.69 989.9,-264.84 930,-252.45 890.75,-244.33 847.24,-227.05 821.97,-216.14"/>
<polygon fill="#63b8ff" stroke="#63b8ff" points="1112.9,-274.9 1122.99,-271.69 1113.1,-267.91 1112.9,-274.9"/>
</a>
</g>
</g>
<!-- Node4&#45;&gt;Node5 -->
<g id="edge4_Node000004_Node000005" class="edge">
<title>Node4&#45;&gt;Node5</title>
<g id="a_edge4_Node000004_Node000005"><a xlink:title=" ">
<path fill="none" stroke="#63b8ff" d="M711.72,-206.45C684.79,-206.45 655.85,-206.45 631.63,-206.45"/>
<polygon fill="#63b8ff" stroke="#63b8ff" points="711.93,-209.95 721.93,-206.45 711.93,-202.95 711.93,-209.95"/>
</a>
</g>
</g>
<!-- Node6 -->
<g id="Node000006" class="node">
<title>Node6</title>
<g id="a_Node000006"><a xlink:href="classGameController.html#af2367e58f03d8a1441c9a574967fd360" target="_top" xlink:title="Processes a single game turn/update cycle.">
<polygon fill="white" stroke="#666666" points="445,-233.95 258,-233.95 258,-214.95 445,-214.95 445,-233.95"/>
<text text-anchor="middle" x="351.5" y="-221.95" font-family="Helvetica,sans-Serif" font-size="10.00">GameController::processGameTurn</text>
</a>
</g>
</g>
<!-- Node5&#45;&gt;Node6 -->
<g id="edge5_Node000005_Node000006" class="edge">
<title>Node5&#45;&gt;Node6</title>
<g id="a_edge5_Node000005_Node000006"><a xlink:title=" ">
<path fill="none" stroke="#63b8ff" d="M508.27,-211.79C488.49,-213.4 466.4,-215.19 445.21,-216.91"/>
<polygon fill="#63b8ff" stroke="#63b8ff" points="508.71,-215.26 518.39,-210.97 508.14,-208.29 508.71,-215.26"/>
</a>
</g>
</g>
<!-- Node7 -->
<g id="Node000007" class="node">
<title>Node7</title>
<g id="a_Node000007"><a xlink:href="classGameController.html#ac958989c8f7f08488546930e5fcb0d82" target="_top" xlink:title="Starts and runs the main game loop.">
<polygon fill="white" stroke="#666666" points="222,-233.95 77,-233.95 77,-214.95 222,-214.95 222,-233.95"/>
<text text-anchor="middle" x="149.5" y="-221.95" font-family="Helvetica,sans-Serif" font-size="10.00">GameController::runGame</text>
</a>
</g>
</g>
<!-- Node6&#45;&gt;Node7 -->
<g id="edge6_Node000006_Node000007" class="edge">
<title>Node6&#45;&gt;Node7</title>
<g id="a_edge6_Node000006_Node000007"><a xlink:title=" ">
<path fill="none" stroke="#63b8ff" d="M247.71,-224.45C239.1,-224.45 230.52,-224.45 222.22,-224.45"/>
<polygon fill="#63b8ff" stroke="#63b8ff" points="247.82,-227.95 257.82,-224.45 247.82,-220.95 247.82,-227.95"/>
</a>
</g>
</g>
<!-- Node8 -->
<g id="Node000008" class="node">
<title>Node8</title>
<g id="a_Node000008"><a xlink:href="main_8cpp.html#ae66f6b31b5ad750f1fe042a706a4e3d4" target="_top" xlink:title="Main function that serves as the application entry point.">
<polygon fill="white" stroke="#666666" points="41,-233.95 0,-233.95 0,-214.95 41,-214.95 41,-233.95"/>
<text text-anchor="middle" x="20.5" y="-221.95" font-family="Helvetica,sans-Serif" font-size="10.00">main</text>
</a>
</g>
</g>
<!-- Node7&#45;&gt;Node8 -->
<g id="edge7_Node000007_Node000008" class="edge">
<title>Node7&#45;&gt;Node8</title>
<g id="a_edge7_Node000007_Node000008"><a xlink:title=" ">
<path fill="none" stroke="#63b8ff" d="M66.79,-224.45C57.31,-224.45 48.43,-224.45 41.08,-224.45"/>
<polygon fill="#63b8ff" stroke="#63b8ff" points="66.83,-227.95 76.83,-224.45 66.83,-220.95 66.83,-227.95"/>
</a>
</g>
</g>
<!-- Node10 -->
<g id="Node000010" class="node">
<title>Node10</title>
<g id="a_Node000010"><a xlink:href="classGameController.html#a971b3d8f6296a74f0bebc83b5e79c186" target="_top" xlink:title="Processes a user command.">
<polygon fill="white" stroke="#666666" points="669,-314.95 481,-314.95 481,-295.95 669,-295.95 669,-314.95"/>
<text text-anchor="middle" x="575" y="-302.95" font-family="Helvetica,sans-Serif" font-size="10.00">GameController::processCommand</text>
</a>
</g>
</g>
<!-- Node9&#45;&gt;Node10 -->
<g id="edge9_Node000009_Node000010" class="edge">
<title>Node9&#45;&gt;Node10</title>
<g id="a_edge9_Node000009_Node000010"><a xlink:title=" ">
<path fill="none" stroke="#63b8ff" d="M1136.75,-342.33C1018.93,-334.58 795.57,-319.89 669.21,-311.58"/>
<polygon fill="#63b8ff" stroke="#63b8ff" points="1136.57,-345.83 1146.77,-342.99 1137.03,-338.84 1136.57,-345.83"/>
</a>
</g>
</g>
<!-- Node10&#45;&gt;Node6 -->
<g id="edge10_Node000010_Node000006" class="edge">
<title>Node10&#45;&gt;Node6</title>
<g id="a_edge10_Node000010_Node000006"><a xlink:title=" ">
<path fill="none" stroke="#63b8ff" d="M538.15,-292.34C493.52,-276.02 418.36,-248.53 378.74,-234.04"/>
<polygon fill="#63b8ff" stroke="#63b8ff" points="537.13,-295.69 547.72,-295.84 539.53,-289.12 537.13,-295.69"/>
</a>
</g>
</g>
<!-- Node11&#45;&gt;Node4 -->
<g id="edge13_Node000011_Node000004" class="edge">
<title>Node11&#45;&gt;Node4</title>
<g id="a_edge13_Node000011_Node000004"><a xlink:title=" ">
<path fill="none" stroke="#63b8ff" d="M1127.37,-191.45C1053.39,-194.84 948.23,-199.67 877.34,-202.92"/>
<polygon fill="#63b8ff" stroke="#63b8ff" points="1127.77,-194.93 1137.6,-190.98 1127.45,-187.94 1127.77,-194.93"/>
</a>
</g>
</g>
<!-- Node12&#45;&gt;Node5 -->
<g id="edge15_Node000012_Node000005" class="edge">
<title>Node12&#45;&gt;Node5</title>
<g id="a_edge15_Node000012_Node000005"><a xlink:title=" ">
<path fill="none" stroke="#63b8ff" d="M753.57,-254.33C711.67,-243.03 650,-226.4 611.46,-216.01"/>
<polygon fill="#63b8ff" stroke="#63b8ff" points="752.68,-257.72 763.24,-256.94 754.5,-250.96 752.68,-257.72"/>
</a>
</g>
</g>
<!-- Node13&#45;&gt;Node4 -->
<g id="edge17_Node000013_Node000004" class="edge">
<title>Node13&#45;&gt;Node4</title>
<g id="a_edge17_Node000013_Node000004"><a xlink:title=" ">
<path fill="none" stroke="#63b8ff" d="M921.78,-219.34C907.03,-217.77 891.79,-216.15 877.29,-214.61"/>
<polygon fill="#63b8ff" stroke="#63b8ff" points="921.58,-222.83 931.89,-220.41 922.32,-215.87 921.58,-222.83"/>
</a>
</g>
</g>
<!-- Node16 -->
<g id="Node000016" class="node">
<title>Node16</title>
<g id="a_Node000016"><a xlink:href="classGameWorld.html#a81b514a6e2b376bd9b5f8276e3861b5f" target="_top" xlink:title="Checks projectile collisions.">
<polygon fill="white" stroke="#666666" points="1085.5,-157.45 931.5,-157.45 931.5,-127.45 1085.5,-127.45 1085.5,-157.45"/>
<text text-anchor="start" x="939.5" y="-145.45" font-family="Helvetica,sans-Serif" font-size="10.00">GameWorld::checkProjectile</text>
<text text-anchor="middle" x="1008.5" y="-134.45" font-family="Helvetica,sans-Serif" font-size="10.00">Collisions</text>
</a>
</g>
</g>
<!-- Node15&#45;&gt;Node16 -->
<g id="edge20_Node000015_Node000016" class="edge">
<title>Node15&#45;&gt;Node16</title>
<g id="a_edge20_Node000015_Node000016"><a xlink:title=" ">
<path fill="none" stroke="#63b8ff" d="M1118.66,-142.45C1107.63,-142.45 1096.5,-142.45 1085.77,-142.45"/>
<polygon fill="#63b8ff" stroke="#63b8ff" points="1118.75,-145.95 1128.75,-142.45 1118.75,-138.95 1118.75,-145.95"/>
</a>
</g>
</g>
<!-- Node16&#45;&gt;Node4 -->
<g id="edge21_Node000016_Node000004" class="edge">
<title>Node16&#45;&gt;Node4</title>
<g id="a_edge21_Node000016_Node000004"><a xlink:title=" ">
<path fill="none" stroke="#63b8ff" d="M948.98,-160.54C910.74,-172.36 862.34,-187.33 831.39,-196.9"/>
<polygon fill="#63b8ff" stroke="#63b8ff" points="950.45,-163.75 958.97,-157.45 948.38,-157.06 950.45,-163.75"/>
</a>
</g>
</g>
<!-- Node17&#45;&gt;Node15 -->
<g id="edge23_Node000017_Node000015" class="edge">
<title>Node17&#45;&gt;Node15</title>
<g id="a_edge23_Node000017_Node000015"><a xlink:title=" ">
<path fill="none" stroke="#63b8ff" d="M1360.81,-152.4C1341.97,-151.1 1321.53,-149.69 1302.12,-148.35"/>
<polygon fill="#63b8ff" stroke="#63b8ff" points="1360.58,-155.89 1370.8,-153.09 1361.06,-148.91 1360.58,-155.89"/>
</a>
</g>
</g>
<!-- Node18&#45;&gt;Node5 -->
<g id="edge26_Node000018_Node000005" class="edge">
<title>Node18&#45;&gt;Node5</title>
<g id="a_edge26_Node000018_Node000005"><a xlink:title=" ">
<path fill="none" stroke="#63b8ff" d="M967.19,-84.97C881.59,-111.55 683.26,-173.14 606.82,-196.88"/>
<polygon fill="#63b8ff" stroke="#63b8ff" points="968.3,-88.29 976.81,-81.98 966.23,-81.6 968.3,-88.29"/>
</a>
</g>
</g>
</g>
</svg>
