<?xml version="1.0" encoding="UTF-8" standalone="no"?>
<!DOCTYPE svg PUBLIC "-//W3C//DTD SVG 1.1//EN"
 "http://www.w3.org/Graphics/SVG/1.1/DTD/svg11.dtd">
<!-- Generated by graphviz version 2.43.0 (0)
 -->
<!-- Title: EnemyTank::attemptShot Pages: 1 -->
<svg width="628pt" height="221pt"
 viewBox="0.00 0.00 628.00 221.21" xmlns="http://www.w3.org/2000/svg" xmlns:xlink="http://www.w3.org/1999/xlink">
<g id="graph0" class="graph" transform="scale(1 1) rotate(0) translate(4 217.21)">
<title>EnemyTank::attemptShot</title>
<!-- Node1 -->
<g id="Node000001" class="node">
<title>Node1</title>
<g id="a_Node000001"><a xlink:title="Attempts to shoot at player.">
<polygon fill="#999999" stroke="#666666" points="140,-95 0,-95 0,-76 140,-76 140,-95"/>
<text text-anchor="middle" x="70" y="-83" font-family="Helvetica,sans-Serif" font-size="10.00">EnemyTank::attemptShot</text>
</a>
</g>
</g>
<!-- Node2 -->
<g id="Node000002" class="node">
<title>Node2</title>
<g id="a_Node000002"><a xlink:href="classTank.html#a6a39f37aa7ebbf66d0661815c43b37ef" target="_top" xlink:title="Checks if tank can fire.">
<polygon fill="white" stroke="#666666" points="620,-212 540,-212 540,-193 620,-193 620,-212"/>
<text text-anchor="middle" x="580" y="-200" font-family="Helvetica,sans-Serif" font-size="10.00">Tank::canFire</text>
</a>
</g>
</g>
<!-- Node1&#45;&gt;Node2 -->
<g id="edge1_Node000001_Node000002" class="edge">
<title>Node1&#45;&gt;Node2</title>
<g id="a_edge1_Node000001_Node000002"><a xlink:title=" ">
<path fill="none" stroke="#63b8ff" d="M86.22,-95.16C106.26,-107.63 142.86,-129.49 176,-144.5 252.83,-179.29 271.87,-193.3 355,-207.5 420.28,-218.65 437.81,-209.7 504,-207.5 512.25,-207.23 521.01,-206.78 529.51,-206.27"/>
<polygon fill="#63b8ff" stroke="#63b8ff" points="529.96,-209.75 539.71,-205.61 529.51,-202.76 529.96,-209.75"/>
</a>
</g>
</g>
<!-- Node3 -->
<g id="Node000003" class="node">
<title>Node3</title>
<g id="a_Node000003"><a xlink:href="classEnemyTank.html#a502b571b6aadbbcd72392d182b7fd85c" target="_top" xlink:title="Fires projectile from enemy tank.">
<polygon fill="white" stroke="#666666" points="295,-135 200,-135 200,-116 295,-116 295,-135"/>
<text text-anchor="middle" x="247.5" y="-123" font-family="Helvetica,sans-Serif" font-size="10.00">EnemyTank::fire</text>
</a>
</g>
</g>
<!-- Node1&#45;&gt;Node3 -->
<g id="edge2_Node000001_Node000003" class="edge">
<title>Node1&#45;&gt;Node3</title>
<g id="a_edge2_Node000001_Node000003"><a xlink:title=" ">
<path fill="none" stroke="#63b8ff" d="M113.04,-95.08C137.57,-100.67 168.71,-107.77 194.74,-113.7"/>
<polygon fill="#63b8ff" stroke="#63b8ff" points="194.28,-117.19 204.81,-116 195.83,-110.36 194.28,-117.19"/>
</a>
</g>
</g>
<!-- Node5 -->
<g id="Node000005" class="node">
<title>Node5</title>
<g id="a_Node000005"><a xlink:href="classEnemyTank.html#a9eb0cacdd5e196535f1d60da1ca622ac" target="_top" xlink:title="Gets direction towards last known player position.">
<polygon fill="white" stroke="#666666" points="504,-99.5 355,-99.5 355,-69.5 504,-69.5 504,-99.5"/>
<text text-anchor="start" x="363" y="-87.5" font-family="Helvetica,sans-Serif" font-size="10.00">EnemyTank::getDirectionTo</text>
<text text-anchor="middle" x="429.5" y="-76.5" font-family="Helvetica,sans-Serif" font-size="10.00">Player</text>
</a>
</g>
</g>
<!-- Node1&#45;&gt;Node5 -->
<g id="edge9_Node000001_Node000005" class="edge">
<title>Node1&#45;&gt;Node5</title>
<g id="a_edge9_Node000001_Node000005"><a xlink:title=" ">
<path fill="none" stroke="#63b8ff" d="M140.35,-85.31C198.73,-85.14 282.4,-84.91 344.55,-84.73"/>
<polygon fill="#63b8ff" stroke="#63b8ff" points="344.73,-88.23 354.72,-84.71 344.71,-81.23 344.73,-88.23"/>
</a>
</g>
</g>
<!-- Node6 -->
<g id="Node000006" class="node">
<title>Node6</title>
<g id="a_Node000006"><a xlink:href="classGameObject.html#a4bc41ca14c07e61dafa74a03c4f3e2df" target="_top" xlink:title="Rotates the object to face new direction.">
<polygon fill="white" stroke="#666666" points="486,-51 373,-51 373,-32 486,-32 486,-51"/>
<text text-anchor="middle" x="429.5" y="-39" font-family="Helvetica,sans-Serif" font-size="10.00">GameObject::rotate</text>
</a>
</g>
</g>
<!-- Node1&#45;&gt;Node6 -->
<g id="edge11_Node000001_Node000006" class="edge">
<title>Node1&#45;&gt;Node6</title>
<g id="a_edge11_Node000001_Node000006"><a xlink:title=" ">
<path fill="none" stroke="#63b8ff" d="M140.35,-76.96C204.6,-69.06 299.47,-57.38 362.59,-49.61"/>
<polygon fill="#63b8ff" stroke="#63b8ff" points="363.33,-53.05 372.83,-48.35 362.47,-46.1 363.33,-53.05"/>
</a>
</g>
</g>
<!-- Node8 -->
<g id="Node000008" class="node">
<title>Node8</title>
<g id="a_Node000008"><a xlink:href="classEnemyTank.html#abf1f9838c12039c2a0872181aeee713e" target="_top" xlink:title="Checks if tank has clear line of sight to player.">
<polygon fill="white" stroke="#666666" points="319,-19 176,-19 176,0 319,0 319,-19"/>
<text text-anchor="middle" x="247.5" y="-7" font-family="Helvetica,sans-Serif" font-size="10.00">EnemyTank::hasClearShot</text>
</a>
</g>
</g>
<!-- Node1&#45;&gt;Node8 -->
<g id="edge10_Node000001_Node000008" class="edge">
<title>Node1&#45;&gt;Node8</title>
<g id="a_edge10_Node000001_Node000008"><a xlink:title=" ">
<path fill="none" stroke="#63b8ff" d="M88.51,-75.94C109.09,-64.91 144.44,-46.62 176,-33.5 185.58,-29.52 196.08,-25.67 205.99,-22.27"/>
<polygon fill="#63b8ff" stroke="#63b8ff" points="207.27,-25.53 215.64,-19.03 205.04,-18.9 207.27,-25.53"/>
</a>
</g>
</g>
<!-- Node3&#45;&gt;Node2 -->
<g id="edge3_Node000003_Node000002" class="edge">
<title>Node3&#45;&gt;Node2</title>
<g id="a_edge3_Node000003_Node000002"><a xlink:title=" ">
<path fill="none" stroke="#63b8ff" d="M261.81,-135.14C281.22,-148.62 318.91,-172.66 355,-183.5 413.21,-200.98 483.49,-204.22 529.61,-204.08"/>
<polygon fill="#63b8ff" stroke="#63b8ff" points="529.68,-207.58 539.65,-204 529.62,-200.58 529.68,-207.58"/>
</a>
</g>
</g>
<!-- Node4 -->
<g id="Node000004" class="node">
<title>Node4</title>
<g id="a_Node000004"><a xlink:href="classTank.html#a99218709d4502fafb8e0787121a68e54" target="_top" xlink:title="Fires a projectile from the tank.">
<polygon fill="white" stroke="#666666" points="460,-174 399,-174 399,-155 460,-155 460,-174"/>
<text text-anchor="middle" x="429.5" y="-162" font-family="Helvetica,sans-Serif" font-size="10.00">Tank::fire</text>
</a>
</g>
</g>
<!-- Node3&#45;&gt;Node4 -->
<g id="edge4_Node000003_Node000004" class="edge">
<title>Node3&#45;&gt;Node4</title>
<g id="a_edge4_Node000003_Node000004"><a xlink:title=" ">
<path fill="none" stroke="#63b8ff" d="M292.53,-135.04C322.01,-141.43 360.48,-149.76 388.97,-155.94"/>
<polygon fill="#63b8ff" stroke="#63b8ff" points="388.47,-159.41 398.99,-158.11 389.95,-152.57 388.47,-159.41"/>
</a>
</g>
</g>
<!-- Node3&#45;&gt;Node5 -->
<g id="edge6_Node000003_Node000005" class="edge">
<title>Node3&#45;&gt;Node5</title>
<g id="a_edge6_Node000003_Node000005"><a xlink:title=" ">
<path fill="none" stroke="#63b8ff" d="M290.25,-115.99C308.72,-111.78 331.04,-106.7 352.3,-101.86"/>
<polygon fill="#63b8ff" stroke="#63b8ff" points="353.33,-105.21 362.31,-99.58 351.78,-98.39 353.33,-105.21"/>
</a>
</g>
</g>
<!-- Node3&#45;&gt;Node6 -->
<g id="edge7_Node000003_Node000006" class="edge">
<title>Node3&#45;&gt;Node6</title>
<g id="a_edge7_Node000003_Node000006"><a xlink:title=" ">
<path fill="none" stroke="#63b8ff" d="M261.27,-115.97C280.61,-101.95 318.9,-75.78 355,-60.5 360.73,-58.07 366.86,-55.89 373.03,-53.95"/>
<polygon fill="#63b8ff" stroke="#63b8ff" points="374.11,-57.28 382.71,-51.1 372.13,-50.57 374.11,-57.28"/>
</a>
</g>
</g>
<!-- Node7 -->
<g id="Node000007" class="node">
<title>Node7</title>
<g id="a_Node000007"><a xlink:href="classProjectile.html#a667a26abf9fb92759a4935fbd439c701" target="_top" xlink:title="Sets new damage value for projectile.">
<polygon fill="white" stroke="#666666" points="492,-137 367,-137 367,-118 492,-118 492,-137"/>
<text text-anchor="middle" x="429.5" y="-125" font-family="Helvetica,sans-Serif" font-size="10.00">Projectile::setDamage</text>
</a>
</g>
</g>
<!-- Node3&#45;&gt;Node7 -->
<g id="edge8_Node000003_Node000007" class="edge">
<title>Node3&#45;&gt;Node7</title>
<g id="a_edge8_Node000003_Node000007"><a xlink:title=" ">
<path fill="none" stroke="#63b8ff" d="M295.32,-126.02C314.12,-126.23 336.21,-126.47 356.94,-126.7"/>
<polygon fill="#63b8ff" stroke="#63b8ff" points="356.95,-130.21 366.99,-126.82 357.03,-123.21 356.95,-130.21"/>
</a>
</g>
</g>
<!-- Node4&#45;&gt;Node2 -->
<g id="edge5_Node000004_Node000002" class="edge">
<title>Node4&#45;&gt;Node2</title>
<g id="a_edge5_Node000004_Node000002"><a xlink:title=" ">
<path fill="none" stroke="#63b8ff" d="M460.19,-172.1C480.71,-177.35 508.42,-184.44 531.93,-190.45"/>
<polygon fill="#63b8ff" stroke="#63b8ff" points="531.15,-193.87 541.71,-192.96 532.89,-187.09 531.15,-193.87"/>
</a>
</g>
</g>
</g>
</svg>
