<?xml version="1.0" encoding="UTF-8" standalone="no"?>
<!DOCTYPE svg PUBLIC "-//W3C//DTD SVG 1.1//EN"
 "http://www.w3.org/Graphics/SVG/1.1/DTD/svg11.dtd">
<!-- Generated by graphviz version 2.43.0 (0)
 -->
<!-- Title: EnemyTank::EnemyTank Pages: 1 -->
<svg width="422pt" height="101pt"
 viewBox="0.00 0.00 422.00 101.00" xmlns="http://www.w3.org/2000/svg" xmlns:xlink="http://www.w3.org/1999/xlink">
<g id="graph0" class="graph" transform="scale(1 1) rotate(0) translate(4 97)">
<title>EnemyTank::EnemyTank</title>
<!-- Node1 -->
<g id="Node000001" class="node">
<title>Node1</title>
<g id="a_Node000001"><a xlink:title="Constructs an EnemyTank object.">
<polygon fill="#999999" stroke="#666666" points="135,-56 0,-56 0,-37 135,-37 135,-56"/>
<text text-anchor="middle" x="67.5" y="-44" font-family="Helvetica,sans-Serif" font-size="10.00">EnemyTank::EnemyTank</text>
</a>
</g>
</g>
<!-- Node2 -->
<g id="Node000002" class="node">
<title>Node2</title>
<g id="a_Node000002"><a xlink:href="classGameObject.html#a3cf581673b5b0099d250a434fed52f4d" target="_top" xlink:title="Sets new health value for the object.">
<polygon fill="white" stroke="#666666" points="302,-93 171,-93 171,-74 302,-74 302,-93"/>
<text text-anchor="middle" x="236.5" y="-81" font-family="Helvetica,sans-Serif" font-size="10.00">GameObject::setHealth</text>
</a>
</g>
</g>
<!-- Node1&#45;&gt;Node2 -->
<g id="edge1_Node000001_Node000002" class="edge">
<title>Node1&#45;&gt;Node2</title>
<g id="a_edge1_Node000001_Node000002"><a xlink:title=" ">
<path fill="none" stroke="#63b8ff" d="M111.51,-56.03C133.14,-60.82 159.56,-66.68 182.45,-71.75"/>
<polygon fill="#63b8ff" stroke="#63b8ff" points="181.83,-75.19 192.35,-73.94 183.34,-68.36 181.83,-75.19"/>
</a>
</g>
</g>
<!-- Node3 -->
<g id="Node000003" class="node">
<title>Node3</title>
<g id="a_Node000003"><a xlink:href="classTank.html#aba6f34edd8774646bc3a112f7e2e42c3" target="_top" xlink:title="Sets reload time for the tank.">
<polygon fill="white" stroke="#666666" points="296,-56 177,-56 177,-37 296,-37 296,-56"/>
<text text-anchor="middle" x="236.5" y="-44" font-family="Helvetica,sans-Serif" font-size="10.00">Tank::setReloadTime</text>
</a>
</g>
</g>
<!-- Node1&#45;&gt;Node3 -->
<g id="edge2_Node000001_Node000003" class="edge">
<title>Node1&#45;&gt;Node3</title>
<g id="a_edge2_Node000001_Node000003"><a xlink:title=" ">
<path fill="none" stroke="#63b8ff" d="M135.46,-46.5C145.74,-46.5 156.36,-46.5 166.68,-46.5"/>
<polygon fill="#63b8ff" stroke="#63b8ff" points="166.87,-50 176.87,-46.5 166.87,-43 166.87,-50"/>
</a>
</g>
</g>
<!-- Node5 -->
<g id="Node000005" class="node">
<title>Node5</title>
<g id="a_Node000005"><a xlink:href="classTank.html#a1c5feece02579ec3508781a825f97c83" target="_top" xlink:title="Sets base speed for the tank.">
<polygon fill="white" stroke="#666666" points="281.5,-19 191.5,-19 191.5,0 281.5,0 281.5,-19"/>
<text text-anchor="middle" x="236.5" y="-7" font-family="Helvetica,sans-Serif" font-size="10.00">Tank::setSpeed</text>
</a>
</g>
</g>
<!-- Node1&#45;&gt;Node5 -->
<g id="edge4_Node000001_Node000005" class="edge">
<title>Node1&#45;&gt;Node5</title>
<g id="a_edge4_Node000001_Node000005"><a xlink:title=" ">
<path fill="none" stroke="#63b8ff" d="M111.51,-36.97C133.14,-32.18 159.56,-26.32 182.45,-21.25"/>
<polygon fill="#63b8ff" stroke="#63b8ff" points="183.34,-24.64 192.35,-19.06 181.83,-17.81 183.34,-24.64"/>
</a>
</g>
</g>
<!-- Node4 -->
<g id="Node000004" class="node">
<title>Node4</title>
<g id="a_Node000004"><a xlink:href="classTank.html#aeeed7bc06ef4c9f60bb74b4b80eb22dd" target="_top" xlink:title="Decrements reload timer.">
<polygon fill="white" stroke="#666666" points="414,-56 338,-56 338,-37 414,-37 414,-56"/>
<text text-anchor="middle" x="376" y="-44" font-family="Helvetica,sans-Serif" font-size="10.00">Tank::reload</text>
</a>
</g>
</g>
<!-- Node3&#45;&gt;Node4 -->
<g id="edge3_Node000003_Node000004" class="edge">
<title>Node3&#45;&gt;Node4</title>
<g id="a_edge3_Node000003_Node000004"><a xlink:title=" ">
<path fill="none" stroke="#63b8ff" d="M296.21,-46.5C306.72,-46.5 317.55,-46.5 327.69,-46.5"/>
<polygon fill="#63b8ff" stroke="#63b8ff" points="327.96,-50 337.96,-46.5 327.96,-43 327.96,-50"/>
</a>
</g>
</g>
</g>
</svg>
