<?xml version="1.0" encoding="UTF-8" standalone="no"?>
<!DOCTYPE svg PUBLIC "-//W3C//DTD SVG 1.1//EN"
 "http://www.w3.org/Graphics/SVG/1.1/DTD/svg11.dtd">
<!-- Generated by graphviz version 2.43.0 (0)
 -->
<!-- Title: GameWorld::updateEnemyAI Pages: 1 -->
<!--zoomable 262 -->

<svg id="main" version="1.1" xmlns="http://www.w3.org/2000/svg" xmlns:xlink="http://www.w3.org/1999/xlink" xml:space="preserve" onload="init(evt)">
<style type="text/css"><![CDATA[
.node, .edge {opacity: 0.7;}
.node.selected, .edge.selected {opacity: 1;}
.edge:hover path { stroke: red; }
.edge:hover polygon { stroke: red; fill: red; }
]]></style>

<defs>
  <circle id="rim" cx="0" cy="0" r="7"/>
  <circle id="rim2" cx="0" cy="0" r="3.5"/>
  <g id="zoomPlus">
    <use xlink:href="#rim" fill="#404040"><set attributeName="fill" to="#808080" begin="zoomplus.mouseover" end="zoomplus.mouseout"/></use>
    <path d="M-4,0h8M0,-4v8" fill="none" stroke="white" stroke-width="1.5" pointer-events="none"/>
  </g>
  <g id="zoomMin">
    <use xlink:href="#rim" fill="#404040"><set attributeName="fill" to="#808080" begin="zoomminus.mouseover" end="zoomminus.mouseout"/></use>
    <path d="M-4,0h8" fill="none" stroke="white" stroke-width="1.5" pointer-events="none"/>
  </g>
  <g id="arrowUp" transform="translate(30 24)">
    <use xlink:href="#rim"/>
    <path pointer-events="none" fill="none" stroke="white" stroke-width="1.5" d="M0,-3.0v7 M-2.5,-0.5L0,-3.0L2.5,-0.5"/>
  </g>
  <g id="arrowRight" transform="rotate(90) translate(36 -43)">
    <use xlink:href="#rim"/>
    <path pointer-events="none" fill="none" stroke="white" stroke-width="1.5" d="M0,-3.0v7 M-2.5,-0.5L0,-3.0L2.5,-0.5"/>
  </g>
  <g id="arrowDown" transform="rotate(180) translate(-30 -48)">
    <use xlink:href="#rim"/>
    <path pointer-events="none" fill="none" stroke="white" stroke-width="1.5" d="M0,-3.0v7 M-2.5,-0.5L0,-3.0L2.5,-0.5"/>
  </g>
  <g id="arrowLeft" transform="rotate(270) translate(-36 17)">
    <use xlink:href="#rim"/>
    <path pointer-events="none" fill="none" stroke="white" stroke-width="1.5" d="M0,-3.0v7 M-2.5,-0.5L0,-3.0L2.5,-0.5"/>
  </g>
  <g id="resetDef">
    <use xlink:href="#rim2" fill="#404040"><set attributeName="fill" to="#808080" begin="reset.mouseover" end="reset.mouseout"/></use>
  </g>
</defs>
<script type="application/ecmascript">
var viewWidth = 964;
var viewHeight = 262;
var sectionId = 'dynsection-60';
</script>
<script type="application/ecmascript" xlink:href="svg.min.js"/>
<svg id="graph" class="graph">
<g id="viewport">
<title>GameWorld::updateEnemyAI</title>
<!-- Node1 -->
<g id="Node000001" class="node">
<title>Node1</title>
<g id="a_Node000001"><a xlink:title="Updates AI for all enemies.">
<polygon fill="#999999" stroke="#666666" points="157,-137.19 0,-137.19 0,-118.19 157,-118.19 157,-137.19"/>
<text text-anchor="middle" x="78.5" y="-125.19" font-family="Helvetica,sans-Serif" font-size="10.00">GameWorld::updateEnemyAI</text>
</a>
</g>
</g>
<!-- Node2 -->
<g id="Node000002" class="node">
<title>Node2</title>
<g id="a_Node000002"><a xlink:href="classGameObject.html#aa4dd19d6b0ea5701d860b64b08435ae6" target="_top" xlink:title="Gets current position of the object.">
<polygon fill="white" stroke="#666666" points="797.5,-250.19 659.5,-250.19 659.5,-231.19 797.5,-231.19 797.5,-250.19"/>
<text text-anchor="middle" x="728.5" y="-238.19" font-family="Helvetica,sans-Serif" font-size="10.00">GameObject::getPosition</text>
</a>
</g>
</g>
<!-- Node1&#45;&gt;Node2 -->
<g id="edge1_Node000001_Node000002" class="edge">
<title>Node1&#45;&gt;Node2</title>
<g id="a_edge1_Node000001_Node000002"><a xlink:title=" ">
<path fill="none" stroke="#63b8ff" d="M99.76,-137.25C152.52,-161.52 299.05,-225.18 429,-246.69 511.43,-260.34 533.48,-248.96 617,-246.69 627.41,-246.41 638.36,-245.98 649.16,-245.48"/>
<polygon fill="#63b8ff" stroke="#63b8ff" points="649.63,-248.96 659.44,-244.97 649.28,-241.97 649.63,-248.96"/>
</a>
</g>
</g>
<!-- Node3 -->
<g id="Node000003" class="node">
<title>Node3</title>
<g id="a_Node000003"><a xlink:href="classGameObject.html#a51ac0947e5c628f04657cafecc9fe36b" target="_top" xlink:title="Checks if object is destroyed.">
<polygon fill="white" stroke="#666666" points="364,-119.19 222,-119.19 222,-100.19 364,-100.19 364,-119.19"/>
<text text-anchor="middle" x="293" y="-107.19" font-family="Helvetica,sans-Serif" font-size="10.00">GameObject::isDestroyed</text>
</a>
</g>
</g>
<!-- Node1&#45;&gt;Node3 -->
<g id="edge2_Node000001_Node000003" class="edge">
<title>Node1&#45;&gt;Node3</title>
<g id="a_edge2_Node000001_Node000003"><a xlink:title=" ">
<path fill="none" stroke="#63b8ff" d="M157.12,-121.12C174.94,-119.61 193.93,-118 211.86,-116.48"/>
<polygon fill="#63b8ff" stroke="#63b8ff" points="212.31,-119.96 221.98,-115.63 211.72,-112.98 212.31,-119.96"/>
</a>
</g>
</g>
<!-- Node4 -->
<g id="Node000004" class="node">
<title>Node4</title>
<g id="a_Node000004"><a xlink:href="classEnemyTank.html#a83e1a3da0d0c3a39630aa78a9d6cc84d" target="_top" xlink:title="Updates last known player position.">
<polygon fill="white" stroke="#666666" points="375,-82.19 211,-82.19 211,-63.19 375,-63.19 375,-82.19"/>
<text text-anchor="middle" x="293" y="-70.19" font-family="Helvetica,sans-Serif" font-size="10.00">EnemyTank::setPlayerPosition</text>
</a>
</g>
</g>
<!-- Node1&#45;&gt;Node4 -->
<g id="edge3_Node000001_Node000004" class="edge">
<title>Node1&#45;&gt;Node4</title>
<g id="a_edge3_Node000001_Node000004"><a xlink:title=" ">
<path fill="none" stroke="#63b8ff" d="M105.35,-118.16C128.17,-110.01 162.46,-98.41 193,-90.69 202.46,-88.3 212.51,-86.1 222.44,-84.11"/>
<polygon fill="#63b8ff" stroke="#63b8ff" points="223.15,-87.54 232.3,-82.2 221.82,-80.67 223.15,-87.54"/>
</a>
</g>
</g>
<!-- Node5 -->
<g id="Node000005" class="node">
<title>Node5</title>
<g id="a_Node000005"><a xlink:href="classGameWorld.html#a49a5714c352312fbc4502adc5dfa8854" target="_top" xlink:title="Updates movement for specific enemy.">
<polygon fill="white" stroke="#666666" points="393,-156.19 193,-156.19 193,-137.19 393,-137.19 393,-156.19"/>
<text text-anchor="middle" x="293" y="-144.19" font-family="Helvetica,sans-Serif" font-size="10.00">GameWorld::updateEnemyMovement</text>
</a>
</g>
</g>
<!-- Node1&#45;&gt;Node5 -->
<g id="edge4_Node000001_Node000005" class="edge">
<title>Node1&#45;&gt;Node5</title>
<g id="a_edge4_Node000001_Node000005"><a xlink:title=" ">
<path fill="none" stroke="#63b8ff" d="M157.12,-134.63C165.47,-135.38 174.08,-136.15 182.71,-136.92"/>
<polygon fill="#63b8ff" stroke="#63b8ff" points="182.57,-140.42 192.84,-137.83 183.19,-133.45 182.57,-140.42"/>
</a>
</g>
</g>
<!-- Node5&#45;&gt;Node2 -->
<g id="edge8_Node000005_Node000002" class="edge">
<title>Node5&#45;&gt;Node2</title>
<g id="a_edge8_Node000005_Node000002"><a xlink:title=" ">
<path fill="none" stroke="#63b8ff" d="M306.55,-156.22C329.43,-172.99 380.12,-207.36 429,-221.69 501.42,-242.94 587.83,-246.18 648.99,-245.02"/>
<polygon fill="#63b8ff" stroke="#63b8ff" points="649.43,-248.51 659.35,-244.78 649.27,-241.51 649.43,-248.51"/>
</a>
</g>
</g>
<!-- Node6 -->
<g id="Node000006" class="node">
<title>Node6</title>
<g id="a_Node000006"><a xlink:href="classTank.html#a769b56897626c20e2736c56796901b84" target="_top" xlink:title="Gets actual speed considering all modifiers.">
<polygon fill="white" stroke="#666666" points="584,-62.19 462,-62.19 462,-43.19 584,-43.19 584,-62.19"/>
<text text-anchor="middle" x="523" y="-50.19" font-family="Helvetica,sans-Serif" font-size="10.00">Tank::getActualSpeed</text>
</a>
</g>
</g>
<!-- Node5&#45;&gt;Node6 -->
<g id="edge5_Node000005_Node000006" class="edge">
<title>Node5&#45;&gt;Node6</title>
<g id="a_edge5_Node000005_Node000006"><a xlink:title=" ">
<path fill="none" stroke="#63b8ff" d="M377.15,-137.1C382.74,-134.81 388.09,-132.04 393,-128.69 418.08,-111.62 404.02,-87.91 429,-70.69 435.91,-65.93 443.76,-62.36 451.9,-59.68"/>
<polygon fill="#63b8ff" stroke="#63b8ff" points="452.9,-63.03 461.56,-56.93 450.98,-56.3 452.9,-63.03"/>
</a>
</g>
</g>
<!-- Node7 -->
<g id="Node000007" class="node">
<title>Node7</title>
<g id="a_Node000007"><a xlink:href="classEnemyTank.html#aaa9646e004d165e97db25fd34b3e5251" target="_top" xlink:title="Gets the bounding dimensions of the enemy tank.">
<polygon fill="white" stroke="#666666" points="794,-43.19 663,-43.19 663,-24.19 794,-24.19 794,-43.19"/>
<text text-anchor="middle" x="728.5" y="-31.19" font-family="Helvetica,sans-Serif" font-size="10.00">EnemyTank::getBounds</text>
</a>
</g>
</g>
<!-- Node5&#45;&gt;Node7 -->
<g id="edge6_Node000005_Node000007" class="edge">
<title>Node5&#45;&gt;Node7</title>
<g id="a_edge6_Node000005_Node000007"><a xlink:title=" ">
<path fill="none" stroke="#63b8ff" d="M380.29,-136.98C384.82,-134.67 389.11,-131.94 393,-128.69 427.7,-99.81 391.84,-59.35 429,-33.69 508.01,20.86 629.02,-3.55 689.84,-21.21"/>
<polygon fill="#63b8ff" stroke="#63b8ff" points="689.19,-24.66 699.77,-24.18 691.2,-17.96 689.19,-24.66"/>
</a>
</g>
</g>
<!-- Node8 -->
<g id="Node000008" class="node">
<title>Node8</title>
<g id="a_Node000008"><a xlink:href="classGameObject.html#a650b9622507919864b54aadcaab92110" target="_top" xlink:title="Gets current direction of the object.">
<polygon fill="white" stroke="#666666" points="594.5,-212.19 451.5,-212.19 451.5,-193.19 594.5,-193.19 594.5,-212.19"/>
<text text-anchor="middle" x="523" y="-200.19" font-family="Helvetica,sans-Serif" font-size="10.00">GameObject::getDirection</text>
</a>
</g>
</g>
<!-- Node5&#45;&gt;Node8 -->
<g id="edge7_Node000005_Node000008" class="edge">
<title>Node5&#45;&gt;Node8</title>
<g id="a_edge7_Node000005_Node000008"><a xlink:title=" ">
<path fill="none" stroke="#63b8ff" d="M325.18,-156.27C352.42,-164.44 393.11,-176.19 429,-184.69 438.6,-186.97 448.81,-189.17 458.82,-191.2"/>
<polygon fill="#63b8ff" stroke="#63b8ff" points="458.23,-194.65 468.72,-193.17 459.6,-187.79 458.23,-194.65"/>
</a>
</g>
</g>
<!-- Node9 -->
<g id="Node000009" class="node">
<title>Node9</title>
<g id="a_Node000009"><a xlink:href="classGameWorld.html#a982893516231aaf0aec251561189b5c9" target="_top" xlink:title="Handles enemy collision.">
<polygon fill="white" stroke="#666666" points="617,-99.19 429,-99.19 429,-80.19 617,-80.19 617,-99.19"/>
<text text-anchor="middle" x="523" y="-87.19" font-family="Helvetica,sans-Serif" font-size="10.00">GameWorld::handleEnemyCollision</text>
</a>
</g>
</g>
<!-- Node5&#45;&gt;Node9 -->
<g id="edge9_Node000005_Node000009" class="edge">
<title>Node5&#45;&gt;Node9</title>
<g id="a_edge9_Node000005_Node000009"><a xlink:title=" ">
<path fill="none" stroke="#63b8ff" d="M357.85,-137.17C369.64,-134.83 381.78,-132.01 393,-128.69 409.62,-123.78 412.57,-119.21 429,-113.69 442.1,-109.3 456.47,-105.23 469.9,-101.75"/>
<polygon fill="#63b8ff" stroke="#63b8ff" points="471.13,-105.05 479.96,-99.2 469.41,-98.26 471.13,-105.05"/>
</a>
</g>
</g>
<!-- Node10 -->
<g id="Node000010" class="node">
<title>Node10</title>
<g id="a_Node000010"><a xlink:href="classGameWorld.html#a44dd38e9393e523caefeac7448cfc18c" target="_top" xlink:title="Checks if position is valid.">
<polygon fill="white" stroke="#666666" points="804,-137.19 653,-137.19 653,-118.19 804,-118.19 804,-137.19"/>
<text text-anchor="middle" x="728.5" y="-125.19" font-family="Helvetica,sans-Serif" font-size="10.00">GameWorld::isValidPosition</text>
</a>
</g>
</g>
<!-- Node5&#45;&gt;Node10 -->
<g id="edge15_Node000005_Node000010" class="edge">
<title>Node5&#45;&gt;Node10</title>
<g id="a_edge15_Node000005_Node000010"><a xlink:title=" ">
<path fill="none" stroke="#63b8ff" d="M393.18,-142.35C468.46,-139.05 570.86,-134.56 642.43,-131.42"/>
<polygon fill="#63b8ff" stroke="#63b8ff" points="642.92,-134.91 652.75,-130.97 642.61,-127.91 642.92,-134.91"/>
</a>
</g>
</g>
<!-- Node13 -->
<g id="Node000013" class="node">
<title>Node13</title>
<g id="a_Node000013"><a xlink:href="classGameObject.html#a8e1f77d21a8ed8a894ae29f0e4126618" target="_top" xlink:title="Sets new position for the object.">
<polygon fill="white" stroke="#666666" points="591.5,-175.19 454.5,-175.19 454.5,-156.19 591.5,-156.19 591.5,-175.19"/>
<text text-anchor="middle" x="523" y="-163.19" font-family="Helvetica,sans-Serif" font-size="10.00">GameObject::setPosition</text>
</a>
</g>
</g>
<!-- Node5&#45;&gt;Node13 -->
<g id="edge16_Node000005_Node000013" class="edge">
<title>Node5&#45;&gt;Node13</title>
<g id="a_edge16_Node000005_Node000013"><a xlink:title=" ">
<path fill="none" stroke="#63b8ff" d="M393.01,-154.95C410.13,-156.37 427.7,-157.84 444.16,-159.21"/>
<polygon fill="#63b8ff" stroke="#63b8ff" points="443.99,-162.71 454.25,-160.05 444.57,-155.73 443.99,-162.71"/>
</a>
</g>
</g>
<!-- Node9&#45;&gt;Node2 -->
<g id="edge11_Node000009_Node000002" class="edge">
<title>Node9&#45;&gt;Node2</title>
<g id="a_edge11_Node000009_Node000002"><a xlink:title=" ">
<path fill="none" stroke="#63b8ff" d="M540.93,-99.27C559.93,-110.25 591.45,-129.12 617,-147.69 651.02,-172.43 687.9,-204.67 709.28,-223.97"/>
<polygon fill="#63b8ff" stroke="#63b8ff" points="707.18,-226.79 716.94,-230.92 711.89,-221.61 707.18,-226.79"/>
</a>
</g>
</g>
<!-- Node9&#45;&gt;Node7 -->
<g id="edge10_Node000009_Node000007" class="edge">
<title>Node9&#45;&gt;Node7</title>
<g id="a_edge10_Node000009_Node000007"><a xlink:title=" ">
<path fill="none" stroke="#63b8ff" d="M576.4,-80.15C589.72,-77.41 603.95,-74.2 617,-70.69 642.47,-63.86 670.65,-54.39 692.18,-46.74"/>
<polygon fill="#63b8ff" stroke="#63b8ff" points="693.64,-49.94 701.87,-43.26 691.28,-43.35 693.64,-49.94"/>
</a>
</g>
</g>
<!-- Node9&#45;&gt;Node10 -->
<g id="edge12_Node000009_Node000010" class="edge">
<title>Node9&#45;&gt;Node10</title>
<g id="a_edge12_Node000009_Node000010"><a xlink:title=" ">
<path fill="none" stroke="#63b8ff" d="M575.09,-99.23C602.79,-104.41 637.21,-110.83 666.33,-116.27"/>
<polygon fill="#63b8ff" stroke="#63b8ff" points="665.92,-119.76 676.39,-118.15 667.2,-112.87 665.92,-119.76"/>
</a>
</g>
</g>
<!-- Node12 -->
<g id="Node000012" class="node">
<title>Node12</title>
<g id="a_Node000012"><a xlink:href="classGameObject.html#a4bc41ca14c07e61dafa74a03c4f3e2df" target="_top" xlink:title="Rotates the object to face new direction.">
<polygon fill="white" stroke="#666666" points="785,-99.19 672,-99.19 672,-80.19 785,-80.19 785,-99.19"/>
<text text-anchor="middle" x="728.5" y="-87.19" font-family="Helvetica,sans-Serif" font-size="10.00">GameObject::rotate</text>
</a>
</g>
</g>
<!-- Node9&#45;&gt;Node12 -->
<g id="edge14_Node000009_Node000012" class="edge">
<title>Node9&#45;&gt;Node12</title>
<g id="a_edge14_Node000009_Node000012"><a xlink:title=" ">
<path fill="none" stroke="#63b8ff" d="M617.11,-89.69C632.19,-89.69 647.52,-89.69 661.77,-89.69"/>
<polygon fill="#63b8ff" stroke="#63b8ff" points="661.93,-93.19 671.93,-89.69 661.93,-86.19 661.93,-93.19"/>
</a>
</g>
</g>
<!-- Node11 -->
<g id="Node000011" class="node">
<title>Node11</title>
<g id="a_Node000011"><a xlink:href="classObstacle.html#aa1936373d282c8dba39f529526b6143d" target="_top" xlink:title="Checks if obstacle is passable for tanks.">
<polygon fill="white" stroke="#666666" points="956,-137.19 840,-137.19 840,-118.19 956,-118.19 956,-137.19"/>
<text text-anchor="middle" x="898" y="-125.19" font-family="Helvetica,sans-Serif" font-size="10.00">Obstacle::isPassable</text>
</a>
</g>
</g>
<!-- Node10&#45;&gt;Node11 -->
<g id="edge13_Node000010_Node000011" class="edge">
<title>Node10&#45;&gt;Node11</title>
<g id="a_edge13_Node000010_Node000011"><a xlink:title=" ">
<path fill="none" stroke="#63b8ff" d="M804.43,-127.69C812.85,-127.69 821.4,-127.69 829.71,-127.69"/>
<polygon fill="#63b8ff" stroke="#63b8ff" points="829.72,-131.19 839.72,-127.69 829.72,-124.19 829.72,-131.19"/>
</a>
</g>
</g>
</g>
</svg>

<g id="navigator" transform="translate(0 0)" fill="#404254">
  <rect fill="#f2f5e9" fill-opacity="0.5" stroke="#606060" stroke-width=".5" x="0" y="0" width="60" height="60"/>
  <use id="zoomplus" xlink:href="#zoomPlus" x="17" y="9" onmousedown="handleZoom(evt,'in')"/>
  <use id="zoomminus" xlink:href="#zoomMin" x="42" y="9" onmousedown="handleZoom(evt,'out')"/>
  <use id="reset" xlink:href="#resetDef" x="30" y="36" onmousedown="handleReset()"/>
   <use id="arrowup" xlink:href="#arrowUp" x="0" y="0" onmousedown="handlePan(0,-1)"/>
  <use id="arrowright" xlink:href="#arrowRight" x="0" y="0" onmousedown="handlePan(1,0)"/>
  <use id="arrowdown" xlink:href="#arrowDown" x="0" y="0" onmousedown="handlePan(0,1)"/>
  <use id="arrowleft" xlink:href="#arrowLeft" x="0" y="0" onmousedown="handlePan(-1,0)"/>
</g>
<svg viewBox="0 0 15 15" width="100%" height="30px" preserveAspectRatio="xMaxYMin meet">
 <g id="arrow_out" transform="scale(0.3 0.3)">
  <a xlink:href="classGameWorld_a48cb994868f422ae759b15f3b9c861b6_cgraph_org.svg" target="_base">
   <rect id="button" ry="5" rx="5" y="6" x="6" height="38" width="38"
        fill="#f2f5e9" fill-opacity="0.5" stroke="#606060" stroke-width="1.0"/>
   <path id="arrow"
     d="M 11.500037,31.436501 C 11.940474,20.09759 22.043105,11.32322 32.158766,21.979434 L 37.068811,17.246167 C 37.068811,17.246167 37.088388,32 37.088388,32 L 22.160133,31.978069 C 22.160133,31.978069 26.997745,27.140456 26.997745,27.140456 C 18.528582,18.264221 13.291696,25.230495 11.500037,31.436501 z"
     style="fill:#404040;"/>
  </a>
 </g>
</svg>

<style type='text/css'>
<![CDATA[
[data-mouse-over-selected='false'] { opacity: 0.7; }
[data-mouse-over-selected='true']  { opacity: 1.0; }
]]>
</style>
<script type="application/ecmascript"><![CDATA[
document.addEventListener('DOMContentLoaded', (event) => {
  highlightEdges();
  highlightAdjacentNodes();
});
]]></script>
</svg>
