<?xml version="1.0" encoding="UTF-8" standalone="no"?>
<!DOCTYPE svg PUBLIC "-//W3C//DTD SVG 1.1//EN"
 "http://www.w3.org/Graphics/SVG/1.1/DTD/svg11.dtd">
<!-- Generated by graphviz version 2.43.0 (0)
 -->
<!-- Title: Obstacle::isPassable Pages: 1 -->
<svg width="2333pt" height="376pt"
 viewBox="0.00 0.00 2333.00 376.00" xmlns="http://www.w3.org/2000/svg" xmlns:xlink="http://www.w3.org/1999/xlink">
<g id="graph0" class="graph" transform="scale(1 1) rotate(0) translate(4 372)">
<title>Obstacle::isPassable</title>
<!-- Node1 -->
<g id="Node000001" class="node">
<title>Node1</title>
<g id="a_Node000001"><a xlink:title="Checks if obstacle is passable for tanks.">
<polygon fill="#999999" stroke="#666666" points="2325,-293 2209,-293 2209,-274 2325,-274 2325,-293"/>
<text text-anchor="middle" x="2267" y="-281" font-family="Helvetica,sans-Serif" font-size="10.00">Obstacle::isPassable</text>
</a>
</g>
</g>
<!-- Node2 -->
<g id="Node000002" class="node">
<title>Node2</title>
<g id="a_Node000002"><a xlink:href="classGameWorld.html#a1255b4a9e3e339abdcab91d995612ee5" target="_top" xlink:title="Checks collision at point.">
<polygon fill="white" stroke="#666666" points="2171,-368 1996,-368 1996,-349 2171,-349 2171,-368"/>
<text text-anchor="middle" x="2083.5" y="-356" font-family="Helvetica,sans-Serif" font-size="10.00">GameWorld::checkPointCollision</text>
</a>
</g>
</g>
<!-- Node1&#45;&gt;Node2 -->
<g id="edge1_Node000001_Node000002" class="edge">
<title>Node1&#45;&gt;Node2</title>
<g id="a_edge1_Node000001_Node000002"><a xlink:title=" ">
<path fill="none" stroke="#63b8ff" d="M2245.42,-299.05C2227.27,-312.01 2199.65,-330 2173,-340.5 2164.39,-343.89 2155.05,-346.67 2145.77,-348.95"/>
<polygon fill="#63b8ff" stroke="#63b8ff" points="2247.5,-301.86 2253.52,-293.14 2243.37,-296.21 2247.5,-301.86"/>
</a>
</g>
</g>
<!-- Node3 -->
<g id="Node000003" class="node">
<title>Node3</title>
<g id="a_Node000003"><a xlink:href="classGameWorld.html#ab28f8bec4f78b7be44d509449508babb" target="_top" xlink:title="Checks tank&#45;obstacle collisions.">
<polygon fill="white" stroke="#666666" points="2170,-255.5 1997,-255.5 1997,-225.5 2170,-225.5 2170,-255.5"/>
<text text-anchor="start" x="2005" y="-243.5" font-family="Helvetica,sans-Serif" font-size="10.00">GameWorld::checkTankObstacle</text>
<text text-anchor="middle" x="2083.5" y="-232.5" font-family="Helvetica,sans-Serif" font-size="10.00">Collisions</text>
</a>
</g>
</g>
<!-- Node1&#45;&gt;Node3 -->
<g id="edge2_Node000001_Node000003" class="edge">
<title>Node1&#45;&gt;Node3</title>
<g id="a_edge2_Node000001_Node000003"><a xlink:title=" ">
<path fill="none" stroke="#63b8ff" d="M2215.72,-271.59C2194.72,-266.61 2170.07,-260.77 2147.84,-255.51"/>
<polygon fill="#63b8ff" stroke="#63b8ff" points="2215.18,-275.06 2225.72,-273.96 2216.8,-268.25 2215.18,-275.06"/>
</a>
</g>
</g>
<!-- Node9 -->
<g id="Node000009" class="node">
<title>Node9</title>
<g id="a_Node000009"><a xlink:href="classGameWorld.html#aa179c4b1c5c4659bdcdd05a5c85867ab" target="_top" xlink:title="Checks if position is accessible for tanks.">
<polygon fill="white" stroke="#666666" points="2173,-331 1994,-331 1994,-312 2173,-312 2173,-331"/>
<text text-anchor="middle" x="2083.5" y="-319" font-family="Helvetica,sans-Serif" font-size="10.00">GameWorld::isPositionAccessible</text>
</a>
</g>
</g>
<!-- Node1&#45;&gt;Node9 -->
<g id="edge8_Node000001_Node000009" class="edge">
<title>Node1&#45;&gt;Node9</title>
<g id="a_edge8_Node000001_Node000009"><a xlink:title=" ">
<path fill="none" stroke="#63b8ff" d="M2210.21,-295.18C2184.47,-300.57 2154.3,-306.89 2129.97,-311.98"/>
<polygon fill="#63b8ff" stroke="#63b8ff" points="2211.13,-298.56 2220.2,-293.09 2209.69,-291.71 2211.13,-298.56"/>
</a>
</g>
</g>
<!-- Node10 -->
<g id="Node000010" class="node">
<title>Node10</title>
<g id="a_Node000010"><a xlink:href="classGameWorld.html#ad38a12f17ba52aa4a1897459d47d64ec" target="_top" xlink:title="Checks if position is valid for bonus placement.">
<polygon fill="white" stroke="#666666" points="1954.5,-307 1773.5,-307 1773.5,-288 1954.5,-288 1954.5,-307"/>
<text text-anchor="middle" x="1864" y="-295" font-family="Helvetica,sans-Serif" font-size="10.00">GameWorld::isValidBonusPosition</text>
</a>
</g>
</g>
<!-- Node1&#45;&gt;Node10 -->
<g id="edge12_Node000001_Node000010" class="edge">
<title>Node1&#45;&gt;Node10</title>
<g id="a_edge12_Node000001_Node000010"><a xlink:title=" ">
<path fill="none" stroke="#63b8ff" d="M2198.96,-285.84C2132.01,-288.18 2028.71,-291.78 1954.73,-294.37"/>
<polygon fill="#63b8ff" stroke="#63b8ff" points="2199.1,-289.34 2208.97,-285.49 2198.86,-282.34 2199.1,-289.34"/>
</a>
</g>
</g>
<!-- Node12 -->
<g id="Node000012" class="node">
<title>Node12</title>
<g id="a_Node000012"><a xlink:href="classGameWorld.html#a44dd38e9393e523caefeac7448cfc18c" target="_top" xlink:title="Checks if position is valid.">
<polygon fill="white" stroke="#666666" points="2159,-193 2008,-193 2008,-174 2159,-174 2159,-193"/>
<text text-anchor="middle" x="2083.5" y="-181" font-family="Helvetica,sans-Serif" font-size="10.00">GameWorld::isValidPosition</text>
</a>
</g>
</g>
<!-- Node1&#45;&gt;Node12 -->
<g id="edge13_Node000001_Node000012" class="edge">
<title>Node1&#45;&gt;Node12</title>
<g id="a_edge13_Node000001_Node000012"><a xlink:title=" ">
<path fill="none" stroke="#63b8ff" d="M2246.89,-267.38C2228.76,-252.68 2200.3,-231.08 2173,-216.5 2155.06,-206.92 2133.74,-198.88 2116.52,-193.13"/>
<polygon fill="#63b8ff" stroke="#63b8ff" points="2244.97,-270.33 2254.91,-273.99 2249.42,-264.93 2244.97,-270.33"/>
</a>
</g>
</g>
<!-- Node4 -->
<g id="Node000004" class="node">
<title>Node4</title>
<g id="a_Node000004"><a xlink:href="classGameWorld.html#a2a5aaafc1c18521a4657d6a4a66c4d91" target="_top" xlink:title="Checks all types of collisions.">
<polygon fill="white" stroke="#666666" points="1483.5,-269 1328.5,-269 1328.5,-250 1483.5,-250 1483.5,-269"/>
<text text-anchor="middle" x="1406" y="-257" font-family="Helvetica,sans-Serif" font-size="10.00">GameWorld::checkCollisions</text>
</a>
</g>
</g>
<!-- Node3&#45;&gt;Node4 -->
<g id="edge3_Node000003_Node000004" class="edge">
<title>Node3&#45;&gt;Node4</title>
<g id="a_edge3_Node000003_Node000004"><a xlink:title=" ">
<path fill="none" stroke="#63b8ff" d="M1986.6,-243.2C1851.38,-247 1607.36,-253.86 1483.53,-257.35"/>
<polygon fill="#63b8ff" stroke="#63b8ff" points="1987.05,-246.69 1996.95,-242.91 1986.85,-239.69 1987.05,-246.69"/>
</a>
</g>
</g>
<!-- Node5 -->
<g id="Node000005" class="node">
<title>Node5</title>
<g id="a_Node000005"><a xlink:href="classGameWorld.html#ab645acf30cb0a4640a8fb5b88c5c7c94" target="_top" xlink:title="Updates all game objects and logic.">
<polygon fill="white" stroke="#666666" points="1239,-250 1126,-250 1126,-231 1239,-231 1239,-250"/>
<text text-anchor="middle" x="1182.5" y="-238" font-family="Helvetica,sans-Serif" font-size="10.00">GameWorld::update</text>
</a>
</g>
</g>
<!-- Node4&#45;&gt;Node5 -->
<g id="edge4_Node000004_Node000005" class="edge">
<title>Node4&#45;&gt;Node5</title>
<g id="a_edge4_Node000004_Node000005"><a xlink:title=" ">
<path fill="none" stroke="#63b8ff" d="M1318.35,-252.07C1291.69,-249.78 1263.06,-247.32 1239.08,-245.27"/>
<polygon fill="#63b8ff" stroke="#63b8ff" points="1318.2,-255.57 1328.46,-252.93 1318.8,-248.59 1318.2,-255.57"/>
</a>
</g>
</g>
<!-- Node6 -->
<g id="Node000006" class="node">
<title>Node6</title>
<g id="a_Node000006"><a xlink:href="classGameController.html#af2367e58f03d8a1441c9a574967fd360" target="_top" xlink:title="Processes a single game turn/update cycle.">
<polygon fill="white" stroke="#666666" points="445,-97 258,-97 258,-78 445,-78 445,-97"/>
<text text-anchor="middle" x="351.5" y="-85" font-family="Helvetica,sans-Serif" font-size="10.00">GameController::processGameTurn</text>
</a>
</g>
</g>
<!-- Node5&#45;&gt;Node6 -->
<g id="edge5_Node000005_Node000006" class="edge">
<title>Node5&#45;&gt;Node6</title>
<g id="a_edge5_Node000005_Node000006"><a xlink:title=" ">
<path fill="none" stroke="#63b8ff" d="M1115.67,-229.49C1023.67,-214.01 851.43,-184.63 705,-157.5 605.24,-139.02 580.5,-133.34 481,-113.5 453.88,-108.09 423.56,-101.96 399.18,-97.01"/>
<polygon fill="#63b8ff" stroke="#63b8ff" points="1115.24,-232.97 1125.68,-231.18 1116.4,-226.07 1115.24,-232.97"/>
</a>
</g>
</g>
<!-- Node7 -->
<g id="Node000007" class="node">
<title>Node7</title>
<g id="a_Node000007"><a xlink:href="classGameController.html#ac958989c8f7f08488546930e5fcb0d82" target="_top" xlink:title="Starts and runs the main game loop.">
<polygon fill="white" stroke="#666666" points="222,-19 77,-19 77,0 222,0 222,-19"/>
<text text-anchor="middle" x="149.5" y="-7" font-family="Helvetica,sans-Serif" font-size="10.00">GameController::runGame</text>
</a>
</g>
</g>
<!-- Node6&#45;&gt;Node7 -->
<g id="edge6_Node000006_Node000007" class="edge">
<title>Node6&#45;&gt;Node7</title>
<g id="a_edge6_Node000006_Node000007"><a xlink:title=" ">
<path fill="none" stroke="#63b8ff" d="M316.59,-74.28C276.4,-58.6 210.4,-32.86 174.91,-19.02"/>
<polygon fill="#63b8ff" stroke="#63b8ff" points="315.39,-77.56 325.98,-77.94 317.93,-71.04 315.39,-77.56"/>
</a>
</g>
</g>
<!-- Node8 -->
<g id="Node000008" class="node">
<title>Node8</title>
<g id="a_Node000008"><a xlink:href="main_8cpp.html#ae66f6b31b5ad750f1fe042a706a4e3d4" target="_top" xlink:title="Main function that serves as the application entry point.">
<polygon fill="white" stroke="#666666" points="41,-19 0,-19 0,0 41,0 41,-19"/>
<text text-anchor="middle" x="20.5" y="-7" font-family="Helvetica,sans-Serif" font-size="10.00">main</text>
</a>
</g>
</g>
<!-- Node7&#45;&gt;Node8 -->
<g id="edge7_Node000007_Node000008" class="edge">
<title>Node7&#45;&gt;Node8</title>
<g id="a_edge7_Node000007_Node000008"><a xlink:title=" ">
<path fill="none" stroke="#63b8ff" d="M66.79,-9.5C57.31,-9.5 48.43,-9.5 41.08,-9.5"/>
<polygon fill="#63b8ff" stroke="#63b8ff" points="66.83,-13 76.83,-9.5 66.83,-6 66.83,-13"/>
</a>
</g>
</g>
<!-- Node9&#45;&gt;Node10 -->
<g id="edge9_Node000009_Node000010" class="edge">
<title>Node9&#45;&gt;Node10</title>
<g id="a_edge9_Node000009_Node000010"><a xlink:title=" ">
<path fill="none" stroke="#63b8ff" d="M1986.07,-310.86C1974.45,-309.58 1962.63,-308.27 1951.17,-307.01"/>
<polygon fill="#63b8ff" stroke="#63b8ff" points="1985.9,-314.36 1996.23,-311.98 1986.67,-307.4 1985.9,-314.36"/>
</a>
</g>
</g>
<!-- Node11 -->
<g id="Node000011" class="node">
<title>Node11</title>
<g id="a_Node000011"><a xlink:href="classGameWorld.html#ab47766d787b806e118f8c1e5cf50aaa8" target="_top" xlink:title="Spawns a bonus at random location.">
<polygon fill="white" stroke="#666666" points="1704.5,-307 1563.5,-307 1563.5,-288 1704.5,-288 1704.5,-307"/>
<text text-anchor="middle" x="1634" y="-295" font-family="Helvetica,sans-Serif" font-size="10.00">GameWorld::spawnBonus</text>
</a>
</g>
</g>
<!-- Node10&#45;&gt;Node11 -->
<g id="edge10_Node000010_Node000011" class="edge">
<title>Node10&#45;&gt;Node11</title>
<g id="a_edge10_Node000010_Node000011"><a xlink:title=" ">
<path fill="none" stroke="#63b8ff" d="M1762.98,-297.5C1743.29,-297.5 1723.04,-297.5 1704.62,-297.5"/>
<polygon fill="#63b8ff" stroke="#63b8ff" points="1763.22,-301 1773.22,-297.5 1763.22,-294 1763.22,-301"/>
</a>
</g>
</g>
<!-- Node11&#45;&gt;Node5 -->
<g id="edge11_Node000011_Node000005" class="edge">
<title>Node11&#45;&gt;Node5</title>
<g id="a_edge11_Node000011_Node000005"><a xlink:title=" ">
<path fill="none" stroke="#63b8ff" d="M1553.26,-297.68C1488.38,-296.65 1394.69,-292.47 1314,-278.5 1277.26,-272.14 1236.16,-259.16 1210.08,-250.15"/>
<polygon fill="#63b8ff" stroke="#63b8ff" points="1553.37,-301.18 1563.41,-297.82 1553.46,-294.18 1553.37,-301.18"/>
</a>
</g>
</g>
<!-- Node13 -->
<g id="Node000013" class="node">
<title>Node13</title>
<g id="a_Node000013"><a xlink:href="classGameWorld.html#a704a245a7945b1d7453b22bd698ff5b3" target="_top" xlink:title="Creates obstacles for level.">
<polygon fill="white" stroke="#666666" points="1956.5,-117 1771.5,-117 1771.5,-98 1956.5,-98 1956.5,-117"/>
<text text-anchor="middle" x="1864" y="-105" font-family="Helvetica,sans-Serif" font-size="10.00">GameWorld::createLevelObstacles</text>
</a>
</g>
</g>
<!-- Node12&#45;&gt;Node13 -->
<g id="edge14_Node000012_Node000013" class="edge">
<title>Node12&#45;&gt;Node13</title>
<g id="a_edge14_Node000012_Node000013"><a xlink:title=" ">
<path fill="none" stroke="#63b8ff" d="M2052.87,-169.71C2027.93,-158.45 1991.13,-142.63 1958,-131.5 1941.72,-126.03 1923.48,-121.08 1907.5,-117.11"/>
<polygon fill="#63b8ff" stroke="#63b8ff" points="2051.59,-172.97 2062.14,-173.93 2054.49,-166.6 2051.59,-172.97"/>
</a>
</g>
</g>
<!-- Node22 -->
<g id="Node000022" class="node">
<title>Node22</title>
<g id="a_Node000022"><a xlink:href="classGameWorld.html#a982893516231aaf0aec251561189b5c9" target="_top" xlink:title="Handles enemy collision.">
<polygon fill="white" stroke="#666666" points="1958,-231 1770,-231 1770,-212 1958,-212 1958,-231"/>
<text text-anchor="middle" x="1864" y="-219" font-family="Helvetica,sans-Serif" font-size="10.00">GameWorld::handleEnemyCollision</text>
</a>
</g>
</g>
<!-- Node12&#45;&gt;Node22 -->
<g id="edge32_Node000012_Node000022" class="edge">
<title>Node12&#45;&gt;Node22</title>
<g id="a_edge32_Node000012_Node000022"><a xlink:title=" ">
<path fill="none" stroke="#63b8ff" d="M2017.96,-194.78C1986.67,-200.24 1949.49,-206.74 1919.63,-211.96"/>
<polygon fill="#63b8ff" stroke="#63b8ff" points="2018.65,-198.21 2027.9,-193.04 2017.44,-191.31 2018.65,-198.21"/>
</a>
</g>
</g>
<!-- Node23 -->
<g id="Node000023" class="node">
<title>Node23</title>
<g id="a_Node000023"><a xlink:href="classGameWorld.html#a49a5714c352312fbc4502adc5dfa8854" target="_top" xlink:title="Updates movement for specific enemy.">
<polygon fill="white" stroke="#666666" points="1734,-231 1534,-231 1534,-212 1734,-212 1734,-231"/>
<text text-anchor="middle" x="1634" y="-219" font-family="Helvetica,sans-Serif" font-size="10.00">GameWorld::updateEnemyMovement</text>
</a>
</g>
</g>
<!-- Node12&#45;&gt;Node23 -->
<g id="edge38_Node000012_Node000023" class="edge">
<title>Node12&#45;&gt;Node23</title>
<g id="a_edge38_Node000012_Node000023"><a xlink:title=" ">
<path fill="none" stroke="#63b8ff" d="M1997.59,-186.85C1934.66,-189.77 1846.84,-194.77 1770,-202.5 1745.51,-204.96 1718.64,-208.56 1695.36,-211.97"/>
<polygon fill="#63b8ff" stroke="#63b8ff" points="1998.03,-190.33 2007.86,-186.38 1997.71,-183.34 1998.03,-190.33"/>
</a>
</g>
</g>
<!-- Node25 -->
<g id="Node000025" class="node">
<title>Node25</title>
<g id="a_Node000025"><a xlink:href="classGameWorld.html#a2b1db90f0ef907c7e93b1114357b8a90" target="_top" xlink:title="Moves player tank in specified direction.">
<polygon fill="white" stroke="#666666" points="1043.5,-157 906.5,-157 906.5,-138 1043.5,-138 1043.5,-157"/>
<text text-anchor="middle" x="975" y="-145" font-family="Helvetica,sans-Serif" font-size="10.00">GameWorld::playerMove</text>
</a>
</g>
</g>
<!-- Node12&#45;&gt;Node25 -->
<g id="edge36_Node000012_Node000025" class="edge">
<title>Node12&#45;&gt;Node25</title>
<g id="a_edge36_Node000012_Node000025"><a xlink:title=" ">
<path fill="none" stroke="#63b8ff" d="M2003.22,-172.68C1913.91,-161.45 1764.32,-145.5 1635,-145.5 1635,-145.5 1635,-145.5 1405,-145.5 1277.27,-145.5 1128.14,-146.4 1043.61,-146.99"/>
<polygon fill="#63b8ff" stroke="#63b8ff" points="2002.92,-176.17 2013.28,-173.96 2003.8,-169.23 2002.92,-176.17"/>
</a>
</g>
</g>
<!-- Node14 -->
<g id="Node000014" class="node">
<title>Node14</title>
<g id="a_Node000014"><a xlink:href="classGameWorld.html#a13fd8123f71f48726bfeb233961f88da" target="_top" xlink:title="Loads specified level.">
<polygon fill="white" stroke="#666666" points="1697.5,-96 1570.5,-96 1570.5,-77 1697.5,-77 1697.5,-96"/>
<text text-anchor="middle" x="1634" y="-84" font-family="Helvetica,sans-Serif" font-size="10.00">GameWorld::loadLevel</text>
</a>
</g>
</g>
<!-- Node13&#45;&gt;Node14 -->
<g id="edge15_Node000013_Node000014" class="edge">
<title>Node13&#45;&gt;Node14</title>
<g id="a_edge15_Node000013_Node000014"><a xlink:title=" ">
<path fill="none" stroke="#63b8ff" d="M1761.03,-98.11C1739.4,-96.12 1717.19,-94.07 1697.55,-92.26"/>
<polygon fill="#63b8ff" stroke="#63b8ff" points="1760.97,-101.62 1771.25,-99.05 1761.61,-94.65 1760.97,-101.62"/>
</a>
</g>
</g>
<!-- Node15 -->
<g id="Node000015" class="node">
<title>Node15</title>
<g id="a_Node000015"><a xlink:href="classGameController.html#a4086fc466d91f45c41b2bc5df06af77a" target="_top" xlink:title="Loads the next game level.">
<polygon fill="white" stroke="#666666" points="1254.5,-117.5 1110.5,-117.5 1110.5,-87.5 1254.5,-87.5 1254.5,-117.5"/>
<text text-anchor="start" x="1118.5" y="-105.5" font-family="Helvetica,sans-Serif" font-size="10.00">GameController::loadNext</text>
<text text-anchor="middle" x="1182.5" y="-94.5" font-family="Helvetica,sans-Serif" font-size="10.00">Level</text>
</a>
</g>
</g>
<!-- Node14&#45;&gt;Node15 -->
<g id="edge16_Node000014_Node000015" class="edge">
<title>Node14&#45;&gt;Node15</title>
<g id="a_edge16_Node000014_Node000015"><a xlink:title=" ">
<path fill="none" stroke="#63b8ff" d="M1560.25,-89.09C1476.05,-92.09 1338.28,-96.99 1254.73,-99.96"/>
<polygon fill="#63b8ff" stroke="#63b8ff" points="1560.63,-92.58 1570.5,-88.72 1560.38,-85.58 1560.63,-92.58"/>
</a>
</g>
</g>
<!-- Node17 -->
<g id="Node000017" class="node">
<title>Node17</title>
<g id="a_Node000017"><a xlink:href="classGameController.html#a09c76a5ae9b8f514163dafe31273f44f" target="_top" xlink:title="Loads the currently selected map.">
<polygon fill="white" stroke="#666666" points="1498,-77 1314,-77 1314,-58 1498,-58 1498,-77"/>
<text text-anchor="middle" x="1406" y="-65" font-family="Helvetica,sans-Serif" font-size="10.00">GameController::loadSelectedMap</text>
</a>
</g>
</g>
<!-- Node14&#45;&gt;Node17 -->
<g id="edge19_Node000014_Node000017" class="edge">
<title>Node14&#45;&gt;Node17</title>
<g id="a_edge19_Node000014_Node000017"><a xlink:title=" ">
<path fill="none" stroke="#63b8ff" d="M1560.2,-80.38C1540.43,-78.72 1518.77,-76.9 1498.13,-75.16"/>
<polygon fill="#63b8ff" stroke="#63b8ff" points="1560.09,-83.88 1570.35,-81.23 1560.67,-76.91 1560.09,-83.88"/>
</a>
</g>
</g>
<!-- Node18 -->
<g id="Node000018" class="node">
<title>Node18</title>
<g id="a_Node000018"><a xlink:href="classGameController.html#a4a9c94fe33cf6c73bb5dfc415d04d309" target="_top" xlink:title="Displays map selection screen.">
<polygon fill="white" stroke="#666666" points="1278,-39 1087,-39 1087,-20 1278,-20 1278,-39"/>
<text text-anchor="middle" x="1182.5" y="-27" font-family="Helvetica,sans-Serif" font-size="10.00">GameController::showMapSelection</text>
</a>
</g>
</g>
<!-- Node14&#45;&gt;Node18 -->
<g id="edge31_Node000014_Node000018" class="edge">
<title>Node14&#45;&gt;Node18</title>
<g id="a_edge31_Node000014_Node000018"><a xlink:title=" ">
<path fill="none" stroke="#63b8ff" d="M1595.98,-73.76C1569.12,-65.1 1531.74,-54.2 1498,-48.5 1424.78,-36.13 1340.78,-31.54 1278.02,-29.95"/>
<polygon fill="#63b8ff" stroke="#63b8ff" points="1595.14,-77.17 1605.73,-76.96 1597.32,-70.52 1595.14,-77.17"/>
</a>
</g>
</g>
<!-- Node16 -->
<g id="Node000016" class="node">
<title>Node16</title>
<g id="a_Node000016"><a xlink:href="classGameController.html#a85bcf4ecfd197aad278e116215a3717b" target="_top" xlink:title="Displays level completion screen.">
<polygon fill="white" stroke="#666666" points="860,-124.5 708,-124.5 708,-94.5 860,-94.5 860,-124.5"/>
<text text-anchor="start" x="716" y="-112.5" font-family="Helvetica,sans-Serif" font-size="10.00">GameController::showLevel</text>
<text text-anchor="middle" x="784" y="-101.5" font-family="Helvetica,sans-Serif" font-size="10.00">CompleteScreen</text>
</a>
</g>
</g>
<!-- Node15&#45;&gt;Node16 -->
<g id="edge17_Node000015_Node000016" class="edge">
<title>Node15&#45;&gt;Node16</title>
<g id="a_edge17_Node000015_Node000016"><a xlink:title=" ">
<path fill="none" stroke="#63b8ff" d="M1100,-103.94C1029.58,-105.18 928.65,-106.96 860.15,-108.17"/>
<polygon fill="#63b8ff" stroke="#63b8ff" points="1100.22,-107.44 1110.16,-103.76 1100.1,-100.44 1100.22,-107.44"/>
</a>
</g>
</g>
<!-- Node16&#45;&gt;Node6 -->
<g id="edge18_Node000016_Node000006" class="edge">
<title>Node16&#45;&gt;Node6</title>
<g id="a_edge18_Node000016_Node000006"><a xlink:title=" ">
<path fill="none" stroke="#63b8ff" d="M697.45,-105.13C624.55,-101.4 520.01,-96.06 445.15,-92.23"/>
<polygon fill="#63b8ff" stroke="#63b8ff" points="697.35,-108.63 707.52,-105.64 697.71,-101.64 697.35,-108.63"/>
</a>
</g>
</g>
<!-- Node17&#45;&gt;Node15 -->
<g id="edge20_Node000017_Node000015" class="edge">
<title>Node17&#45;&gt;Node15</title>
<g id="a_edge20_Node000017_Node000015"><a xlink:title=" ">
<path fill="none" stroke="#63b8ff" d="M1334.79,-78.59C1309.24,-82.63 1280.36,-87.19 1254.73,-91.24"/>
<polygon fill="#63b8ff" stroke="#63b8ff" points="1335.44,-82.04 1344.77,-77.02 1334.34,-75.12 1335.44,-82.04"/>
</a>
</g>
</g>
<!-- Node17&#45;&gt;Node18 -->
<g id="edge21_Node000017_Node000018" class="edge">
<title>Node17&#45;&gt;Node18</title>
<g id="a_edge21_Node000017_Node000018"><a xlink:title=" ">
<path fill="none" stroke="#63b8ff" d="M1339.27,-56.22C1307.41,-50.76 1269.55,-44.26 1239.13,-39.04"/>
<polygon fill="#63b8ff" stroke="#63b8ff" points="1338.94,-59.72 1349.39,-57.96 1340.13,-52.82 1338.94,-59.72"/>
</a>
</g>
</g>
<!-- Node19 -->
<g id="Node000019" class="node">
<title>Node19</title>
<g id="a_Node000019"><a xlink:href="classGameController.html#a971b3d8f6296a74f0bebc83b5e79c186" target="_top" xlink:title="Processes a user command.">
<polygon fill="white" stroke="#666666" points="669,-76 481,-76 481,-57 669,-57 669,-76"/>
<text text-anchor="middle" x="575" y="-64" font-family="Helvetica,sans-Serif" font-size="10.00">GameController::processCommand</text>
</a>
</g>
</g>
<!-- Node18&#45;&gt;Node19 -->
<g id="edge22_Node000018_Node000019" class="edge">
<title>Node18&#45;&gt;Node19</title>
<g id="a_edge22_Node000018_Node000019"><a xlink:title=" ">
<path fill="none" stroke="#63b8ff" d="M1118.44,-18.44C1097.1,-15.2 1073.08,-12.1 1051,-10.5 897.34,0.63 856.39,-2.95 705,-31.5 670.57,-37.99 631.87,-49 605.92,-56.94"/>
<polygon fill="#63b8ff" stroke="#63b8ff" points="1117.94,-21.91 1128.36,-19.99 1119.01,-14.99 1117.94,-21.91"/>
</a>
</g>
</g>
<!-- Node20 -->
<g id="Node000020" class="node">
<title>Node20</title>
<g id="a_Node000020"><a xlink:href="classGameController.html#a9d11b5a6255b7249bddba49df0837cf3" target="_top" xlink:title="Displays and manages the main menu.">
<polygon fill="white" stroke="#666666" points="1051,-39 899,-39 899,-20 1051,-20 1051,-39"/>
<text text-anchor="middle" x="975" y="-27" font-family="Helvetica,sans-Serif" font-size="10.00">GameController::showMenu</text>
</a>
</g>
</g>
<!-- Node18&#45;&gt;Node20 -->
<g id="edge24_Node000018_Node000020" class="edge">
<title>Node18&#45;&gt;Node20</title>
<g id="a_edge24_Node000018_Node000020"><a xlink:title=" ">
<path fill="none" stroke="#63b8ff" d="M1076.72,-22.75C1068.06,-22.76 1059.43,-22.84 1051.06,-22.97"/>
<polygon fill="#63b8ff" stroke="#63b8ff" points="1076.86,-26.25 1086.87,-22.77 1076.88,-19.25 1076.86,-26.25"/>
</a>
</g>
</g>
<!-- Node19&#45;&gt;Node6 -->
<g id="edge23_Node000019_Node000006" class="edge">
<title>Node19&#45;&gt;Node6</title>
<g id="a_edge23_Node000019_Node000006"><a xlink:title=" ">
<path fill="none" stroke="#63b8ff" d="M470.5,-76.31C462.1,-77.11 453.65,-77.91 445.33,-78.7"/>
<polygon fill="#63b8ff" stroke="#63b8ff" points="471.08,-79.77 480.71,-75.35 470.42,-72.8 471.08,-79.77"/>
</a>
</g>
</g>
<!-- Node20&#45;&gt;Node7 -->
<g id="edge28_Node000020_Node000007" class="edge">
<title>Node20&#45;&gt;Node7</title>
<g id="a_edge28_Node000020_Node000007"><a xlink:title=" ">
<path fill="none" stroke="#63b8ff" d="M888.28,-27.42C725.26,-23.46 373.37,-14.91 222.05,-11.24"/>
<polygon fill="#63b8ff" stroke="#63b8ff" points="888.65,-30.93 898.74,-27.67 888.82,-23.93 888.65,-30.93"/>
</a>
</g>
</g>
<!-- Node20&#45;&gt;Node16 -->
<g id="edge29_Node000020_Node000016" class="edge">
<title>Node20&#45;&gt;Node16</title>
<g id="a_edge29_Node000020_Node000016"><a xlink:title=" ">
<path fill="none" stroke="#63b8ff" d="M947.88,-43.84C925.7,-55.67 892.82,-72.41 863,-84.5 854.3,-88.03 844.9,-91.4 835.75,-94.45"/>
<polygon fill="#63b8ff" stroke="#63b8ff" points="949.54,-46.92 956.69,-39.09 946.22,-40.75 949.54,-46.92"/>
</a>
</g>
</g>
<!-- Node20&#45;&gt;Node18 -->
<g id="edge30_Node000020_Node000018" class="edge">
<title>Node20&#45;&gt;Node18</title>
<g id="a_edge30_Node000020_Node000018"><a xlink:title=" ">
<path fill="none" stroke="#63b8ff" d="M1061.27,-36.16C1069.72,-36.25 1078.33,-36.27 1086.87,-36.23"/>
<polygon fill="#63b8ff" stroke="#63b8ff" points="1061.1,-32.66 1051.06,-36.03 1061.01,-39.66 1061.1,-32.66"/>
</a>
</g>
</g>
<!-- Node20&#45;&gt;Node19 -->
<g id="edge27_Node000020_Node000019" class="edge">
<title>Node20&#45;&gt;Node19</title>
<g id="a_edge27_Node000020_Node000019"><a xlink:title=" ">
<path fill="none" stroke="#63b8ff" d="M888.75,-33.47C835.78,-36.37 766.32,-40.94 705,-47.5 681.7,-49.99 656.16,-53.57 633.99,-56.96"/>
<polygon fill="#63b8ff" stroke="#63b8ff" points="888.98,-36.96 898.78,-32.93 888.61,-29.97 888.98,-36.96"/>
</a>
</g>
</g>
<!-- Node21 -->
<g id="Node000021" class="node">
<title>Node21</title>
<g id="a_Node000021"><a xlink:href="classGameController.html#a637ea4e72ed2be4a2884b30160b3e8ab" target="_top" xlink:title="Pauses the game and displays pause screen.">
<polygon fill="white" stroke="#666666" points="863,-76 705,-76 705,-57 863,-57 863,-76"/>
<text text-anchor="middle" x="784" y="-64" font-family="Helvetica,sans-Serif" font-size="10.00">GameController::pauseGame</text>
</a>
</g>
</g>
<!-- Node20&#45;&gt;Node21 -->
<g id="edge25_Node000020_Node000021" class="edge">
<title>Node20&#45;&gt;Node21</title>
<g id="a_edge25_Node000020_Node000021"><a xlink:title=" ">
<path fill="none" stroke="#63b8ff" d="M915.17,-41.02C889.06,-46.13 858.67,-52.08 833.84,-56.94"/>
<polygon fill="#63b8ff" stroke="#63b8ff" points="916.19,-44.38 925.33,-39.03 914.84,-37.51 916.19,-44.38"/>
</a>
</g>
</g>
<!-- Node21&#45;&gt;Node19 -->
<g id="edge26_Node000021_Node000019" class="edge">
<title>Node21&#45;&gt;Node19</title>
<g id="a_edge26_Node000021_Node000019"><a xlink:title=" ">
<path fill="none" stroke="#63b8ff" d="M694.62,-66.5C686.25,-66.5 677.75,-66.5 669.34,-66.5"/>
<polygon fill="#63b8ff" stroke="#63b8ff" points="694.74,-70 704.74,-66.5 694.74,-63 694.74,-70"/>
</a>
</g>
</g>
<!-- Node22&#45;&gt;Node23 -->
<g id="edge33_Node000022_Node000023" class="edge">
<title>Node22&#45;&gt;Node23</title>
<g id="a_edge33_Node000022_Node000023"><a xlink:title=" ">
<path fill="none" stroke="#63b8ff" d="M1759.9,-221.5C1751.31,-221.5 1742.63,-221.5 1734.07,-221.5"/>
<polygon fill="#63b8ff" stroke="#63b8ff" points="1759.93,-225 1769.93,-221.5 1759.93,-218 1759.93,-225"/>
</a>
</g>
</g>
<!-- Node24 -->
<g id="Node000024" class="node">
<title>Node24</title>
<g id="a_Node000024"><a xlink:href="classGameWorld.html#a48cb994868f422ae759b15f3b9c861b6" target="_top" xlink:title="Updates AI for all enemies.">
<polygon fill="white" stroke="#666666" points="1484.5,-231 1327.5,-231 1327.5,-212 1484.5,-212 1484.5,-231"/>
<text text-anchor="middle" x="1406" y="-219" font-family="Helvetica,sans-Serif" font-size="10.00">GameWorld::updateEnemyAI</text>
</a>
</g>
</g>
<!-- Node23&#45;&gt;Node24 -->
<g id="edge34_Node000023_Node000024" class="edge">
<title>Node23&#45;&gt;Node24</title>
<g id="a_edge34_Node000023_Node000024"><a xlink:title=" ">
<path fill="none" stroke="#63b8ff" d="M1523.79,-221.5C1510.57,-221.5 1497.28,-221.5 1484.65,-221.5"/>
<polygon fill="#63b8ff" stroke="#63b8ff" points="1523.87,-225 1533.87,-221.5 1523.87,-218 1523.87,-225"/>
</a>
</g>
</g>
<!-- Node24&#45;&gt;Node5 -->
<g id="edge35_Node000024_Node000005" class="edge">
<title>Node24&#45;&gt;Node5</title>
<g id="a_edge35_Node000024_Node000005"><a xlink:title=" ">
<path fill="none" stroke="#63b8ff" d="M1317.23,-229.03C1290.91,-231.29 1262.78,-233.7 1239.14,-235.73"/>
<polygon fill="#63b8ff" stroke="#63b8ff" points="1317.55,-232.51 1327.22,-228.17 1316.96,-225.54 1317.55,-232.51"/>
</a>
</g>
</g>
<!-- Node25&#45;&gt;Node19 -->
<g id="edge37_Node000025_Node000019" class="edge">
<title>Node25&#45;&gt;Node19</title>
<g id="a_edge37_Node000025_Node000019"><a xlink:title=" ">
<path fill="none" stroke="#63b8ff" d="M896.15,-152.09C841.68,-153.22 767.74,-150.56 705,-133.5 659.71,-121.18 612.13,-91.4 589.5,-76.03"/>
<polygon fill="#63b8ff" stroke="#63b8ff" points="896.52,-155.58 906.43,-151.82 896.34,-148.58 896.52,-155.58"/>
</a>
</g>
</g>
</g>
</svg>
