<?xml version="1.0" encoding="UTF-8" standalone="no"?>
<!DOCTYPE svg PUBLIC "-//W3C//DTD SVG 1.1//EN"
 "http://www.w3.org/Graphics/SVG/1.1/DTD/svg11.dtd">
<!-- Generated by graphviz version 2.43.0 (0)
 -->
<!-- Title: EnemyTank::moveTowardsPlayer Pages: 1 -->
<svg width="945pt" height="64pt"
 viewBox="0.00 0.00 945.00 64.00" xmlns="http://www.w3.org/2000/svg" xmlns:xlink="http://www.w3.org/1999/xlink">
<g id="graph0" class="graph" transform="scale(1 1) rotate(0) translate(4 60)">
<title>EnemyTank::moveTowardsPlayer</title>
<!-- Node1 -->
<g id="Node000001" class="node">
<title>Node1</title>
<g id="a_Node000001"><a xlink:title="Moves towards player position.">
<polygon fill="#999999" stroke="#666666" points="937,-38 760,-38 760,-19 937,-19 937,-38"/>
<text text-anchor="middle" x="848.5" y="-26" font-family="Helvetica,sans-Serif" font-size="10.00">EnemyTank::moveTowardsPlayer</text>
</a>
</g>
</g>
<!-- Node2 -->
<g id="Node000002" class="node">
<title>Node2</title>
<g id="a_Node000002"><a xlink:href="classEnemyTank.html#a5b53b4d6721012b14e41a0882bd1c2a3" target="_top" xlink:title="Executes aggressive behavior.">
<polygon fill="white" stroke="#666666" points="522,-56 346,-56 346,-37 522,-37 522,-56"/>
<text text-anchor="middle" x="434" y="-44" font-family="Helvetica,sans-Serif" font-size="10.00">EnemyTank::aggressiveBehavior</text>
</a>
</g>
</g>
<!-- Node1&#45;&gt;Node2 -->
<g id="edge1_Node000001_Node000002" class="edge">
<title>Node1&#45;&gt;Node2</title>
<g id="a_edge1_Node000001_Node000002"><a xlink:title=" ">
<path fill="none" stroke="#63b8ff" d="M749.74,-32.77C680.66,-35.78 588.86,-39.79 522.25,-42.69"/>
<polygon fill="#63b8ff" stroke="#63b8ff" points="749.93,-36.26 759.77,-32.33 749.62,-29.27 749.93,-36.26"/>
</a>
</g>
</g>
<!-- Node5 -->
<g id="Node000005" class="node">
<title>Node5</title>
<g id="a_Node000005"><a xlink:href="classEnemyTank.html#aa70aff895200207527e2465c9439fc05" target="_top" xlink:title="Carefully approaches player.">
<polygon fill="white" stroke="#666666" points="724,-19 558,-19 558,0 724,0 724,-19"/>
<text text-anchor="middle" x="641" y="-7" font-family="Helvetica,sans-Serif" font-size="10.00">EnemyTank::cautiousApproach</text>
</a>
</g>
</g>
<!-- Node1&#45;&gt;Node5 -->
<g id="edge4_Node000001_Node000005" class="edge">
<title>Node1&#45;&gt;Node5</title>
<g id="a_edge4_Node000001_Node000005"><a xlink:title=" ">
<path fill="none" stroke="#63b8ff" d="M749.76,-19.46C741.22,-18.67 732.64,-17.88 724.24,-17.1"/>
<polygon fill="#63b8ff" stroke="#63b8ff" points="749.47,-22.95 759.75,-20.39 750.12,-15.98 749.47,-22.95"/>
</a>
</g>
</g>
<!-- Node3 -->
<g id="Node000003" class="node">
<title>Node3</title>
<g id="a_Node000003"><a xlink:href="classEnemyTank.html#a338556623afc739ebf5585caaa73fcdb" target="_top" xlink:title="Decides next action based on behavior.">
<polygon fill="white" stroke="#666666" points="310,-37 149,-37 149,-18 310,-18 310,-37"/>
<text text-anchor="middle" x="229.5" y="-25" font-family="Helvetica,sans-Serif" font-size="10.00">EnemyTank::decideNextMove</text>
</a>
</g>
</g>
<!-- Node2&#45;&gt;Node3 -->
<g id="edge2_Node000002_Node000003" class="edge">
<title>Node2&#45;&gt;Node3</title>
<g id="a_edge2_Node000002_Node000003"><a xlink:title=" ">
<path fill="none" stroke="#63b8ff" d="M335.86,-37.39C327.24,-36.58 318.58,-35.76 310.12,-34.97"/>
<polygon fill="#63b8ff" stroke="#63b8ff" points="335.66,-40.88 345.95,-38.33 336.32,-33.91 335.66,-40.88"/>
</a>
</g>
</g>
<!-- Node4 -->
<g id="Node000004" class="node">
<title>Node4</title>
<g id="a_Node000004"><a xlink:href="classEnemyTank.html#a7ae5efc6eff4e7a19abb7f37b44835fc" target="_top" xlink:title="Updates enemy tank state and AI decisions.">
<polygon fill="white" stroke="#666666" points="113,-37 0,-37 0,-18 113,-18 113,-37"/>
<text text-anchor="middle" x="56.5" y="-25" font-family="Helvetica,sans-Serif" font-size="10.00">EnemyTank::update</text>
</a>
</g>
</g>
<!-- Node3&#45;&gt;Node4 -->
<g id="edge3_Node000003_Node000004" class="edge">
<title>Node3&#45;&gt;Node4</title>
<g id="a_edge3_Node000003_Node000004"><a xlink:title=" ">
<path fill="none" stroke="#63b8ff" d="M138.6,-27.5C129.96,-27.5 121.38,-27.5 113.21,-27.5"/>
<polygon fill="#63b8ff" stroke="#63b8ff" points="138.76,-31 148.76,-27.5 138.76,-24 138.76,-31"/>
</a>
</g>
</g>
<!-- Node6 -->
<g id="Node000006" class="node">
<title>Node6</title>
<g id="a_Node000006"><a xlink:href="classEnemyTank.html#a39add8a8beb8bb7b69124753ec2dae74" target="_top" xlink:title="Executes defensive behavior.">
<polygon fill="white" stroke="#666666" points="519,-19 349,-19 349,0 519,0 519,-19"/>
<text text-anchor="middle" x="434" y="-7" font-family="Helvetica,sans-Serif" font-size="10.00">EnemyTank::defensiveBehavior</text>
</a>
</g>
</g>
<!-- Node5&#45;&gt;Node6 -->
<g id="edge5_Node000005_Node000006" class="edge">
<title>Node5&#45;&gt;Node6</title>
<g id="a_edge5_Node000005_Node000006"><a xlink:title=" ">
<path fill="none" stroke="#63b8ff" d="M547.6,-9.5C538.15,-9.5 528.58,-9.5 519.23,-9.5"/>
<polygon fill="#63b8ff" stroke="#63b8ff" points="547.8,-13 557.8,-9.5 547.8,-6 547.8,-13"/>
</a>
</g>
</g>
<!-- Node6&#45;&gt;Node3 -->
<g id="edge6_Node000006_Node000003" class="edge">
<title>Node6&#45;&gt;Node3</title>
<g id="a_edge6_Node000006_Node000003"><a xlink:title=" ">
<path fill="none" stroke="#63b8ff" d="M338.9,-17.86C329.28,-18.72 319.58,-19.58 310.14,-20.42"/>
<polygon fill="#63b8ff" stroke="#63b8ff" points="339.23,-21.35 348.88,-16.98 338.61,-14.38 339.23,-21.35"/>
</a>
</g>
</g>
</g>
</svg>
