<?xml version="1.0" encoding="UTF-8" standalone="no"?>
<!DOCTYPE svg PUBLIC "-//W3C//DTD SVG 1.1//EN"
 "http://www.w3.org/Graphics/SVG/1.1/DTD/svg11.dtd">
<!-- Generated by graphviz version 2.43.0 (0)
 -->
<!-- Title: Tank::fire Pages: 1 -->
<svg width="1081pt" height="103pt"
 viewBox="0.00 0.00 1081.00 103.00" xmlns="http://www.w3.org/2000/svg" xmlns:xlink="http://www.w3.org/1999/xlink">
<g id="graph0" class="graph" transform="scale(1 1) rotate(0) translate(4 99)">
<title>Tank::fire</title>
<!-- Node1 -->
<g id="Node000001" class="node">
<title>Node1</title>
<g id="a_Node000001"><a xlink:title="Fires a projectile from the tank.">
<polygon fill="#999999" stroke="#666666" points="1073,-38 1012,-38 1012,-19 1073,-19 1073,-38"/>
<text text-anchor="middle" x="1042.5" y="-26" font-family="Helvetica,sans-Serif" font-size="10.00">Tank::fire</text>
</a>
</g>
</g>
<!-- Node2 -->
<g id="Node000002" class="node">
<title>Node2</title>
<g id="a_Node000002"><a xlink:href="classEnemyTank.html#a502b571b6aadbbcd72392d182b7fd85c" target="_top" xlink:title="Fires projectile from enemy tank.">
<polygon fill="white" stroke="#666666" points="976,-57 881,-57 881,-38 976,-38 976,-57"/>
<text text-anchor="middle" x="928.5" y="-45" font-family="Helvetica,sans-Serif" font-size="10.00">EnemyTank::fire</text>
</a>
</g>
</g>
<!-- Node1&#45;&gt;Node2 -->
<g id="edge1_Node000001_Node000002" class="edge">
<title>Node1&#45;&gt;Node2</title>
<g id="a_edge1_Node000001_Node000002"><a xlink:title=" ">
<path fill="none" stroke="#63b8ff" d="M1001.69,-35.25C993.46,-36.65 984.72,-38.13 976.27,-39.57"/>
<polygon fill="#63b8ff" stroke="#63b8ff" points="1002.51,-38.67 1011.78,-33.54 1001.34,-31.76 1002.51,-38.67"/>
</a>
</g>
</g>
<!-- Node10 -->
<g id="Node000010" class="node">
<title>Node10</title>
<g id="a_Node000010"><a xlink:href="classPlayerTank.html#aa455f3425151e01a83f8e626df107e5e" target="_top" xlink:title="Fires projectile(s) from player tank.">
<polygon fill="white" stroke="#666666" points="974.5,-20 882.5,-20 882.5,-1 974.5,-1 974.5,-20"/>
<text text-anchor="middle" x="928.5" y="-8" font-family="Helvetica,sans-Serif" font-size="10.00">PlayerTank::fire</text>
</a>
</g>
</g>
<!-- Node1&#45;&gt;Node10 -->
<g id="edge9_Node000001_Node000010" class="edge">
<title>Node1&#45;&gt;Node10</title>
<g id="a_edge9_Node000001_Node000010"><a xlink:title=" ">
<path fill="none" stroke="#63b8ff" d="M1001.77,-22.11C992.96,-20.7 983.56,-19.19 974.56,-17.74"/>
<polygon fill="#63b8ff" stroke="#63b8ff" points="1001.35,-25.59 1011.78,-23.72 1002.46,-18.68 1001.35,-25.59"/>
</a>
</g>
</g>
<!-- Node3 -->
<g id="Node000003" class="node">
<title>Node3</title>
<g id="a_Node000003"><a xlink:href="classEnemyTank.html#a5759e09a78eab14d4b85dc1bd93ead19" target="_top" xlink:title="Attempts to shoot at player.">
<polygon fill="white" stroke="#666666" points="845,-95 705,-95 705,-76 845,-76 845,-95"/>
<text text-anchor="middle" x="775" y="-83" font-family="Helvetica,sans-Serif" font-size="10.00">EnemyTank::attemptShot</text>
</a>
</g>
</g>
<!-- Node2&#45;&gt;Node3 -->
<g id="edge2_Node000002_Node000003" class="edge">
<title>Node2&#45;&gt;Node3</title>
<g id="a_edge2_Node000002_Node000003"><a xlink:title=" ">
<path fill="none" stroke="#63b8ff" d="M879.5,-59.54C858.33,-64.85 833.81,-71 813.95,-75.98"/>
<polygon fill="#63b8ff" stroke="#63b8ff" points="880.42,-62.92 889.27,-57.09 878.72,-56.13 880.42,-62.92"/>
</a>
</g>
</g>
<!-- Node6 -->
<g id="Node000006" class="node">
<title>Node6</title>
<g id="a_Node000006"><a xlink:href="classGameWorld.html#ab645acf30cb0a4640a8fb5b88c5c7c94" target="_top" xlink:title="Updates all game objects and logic.">
<polygon fill="white" stroke="#666666" points="631.5,-57 518.5,-57 518.5,-38 631.5,-38 631.5,-57"/>
<text text-anchor="middle" x="575" y="-45" font-family="Helvetica,sans-Serif" font-size="10.00">GameWorld::update</text>
</a>
</g>
</g>
<!-- Node2&#45;&gt;Node6 -->
<g id="edge5_Node000002_Node000006" class="edge">
<title>Node2&#45;&gt;Node6</title>
<g id="a_edge5_Node000002_Node000006"><a xlink:title=" ">
<path fill="none" stroke="#63b8ff" d="M870.62,-47.5C804.74,-47.5 696.9,-47.5 631.57,-47.5"/>
<polygon fill="#63b8ff" stroke="#63b8ff" points="870.82,-51 880.82,-47.5 870.82,-44 870.82,-51"/>
</a>
</g>
</g>
<!-- Node4 -->
<g id="Node000004" class="node">
<title>Node4</title>
<g id="a_Node000004"><a xlink:href="classEnemyTank.html#a338556623afc739ebf5585caaa73fcdb" target="_top" xlink:title="Decides next action based on behavior.">
<polygon fill="white" stroke="#666666" points="655.5,-95 494.5,-95 494.5,-76 655.5,-76 655.5,-95"/>
<text text-anchor="middle" x="575" y="-83" font-family="Helvetica,sans-Serif" font-size="10.00">EnemyTank::decideNextMove</text>
</a>
</g>
</g>
<!-- Node3&#45;&gt;Node4 -->
<g id="edge3_Node000003_Node000004" class="edge">
<title>Node3&#45;&gt;Node4</title>
<g id="a_edge3_Node000003_Node000004"><a xlink:title=" ">
<path fill="none" stroke="#63b8ff" d="M694.6,-85.5C681.79,-85.5 668.53,-85.5 655.72,-85.5"/>
<polygon fill="#63b8ff" stroke="#63b8ff" points="694.75,-89 704.75,-85.5 694.75,-82 694.75,-89"/>
</a>
</g>
</g>
<!-- Node5 -->
<g id="Node000005" class="node">
<title>Node5</title>
<g id="a_Node000005"><a xlink:href="classEnemyTank.html#a7ae5efc6eff4e7a19abb7f37b44835fc" target="_top" xlink:title="Updates enemy tank state and AI decisions.">
<polygon fill="white" stroke="#666666" points="408,-95 295,-95 295,-76 408,-76 408,-95"/>
<text text-anchor="middle" x="351.5" y="-83" font-family="Helvetica,sans-Serif" font-size="10.00">EnemyTank::update</text>
</a>
</g>
</g>
<!-- Node4&#45;&gt;Node5 -->
<g id="edge4_Node000004_Node000005" class="edge">
<title>Node4&#45;&gt;Node5</title>
<g id="a_edge4_Node000004_Node000005"><a xlink:title=" ">
<path fill="none" stroke="#63b8ff" d="M484.21,-85.5C458.51,-85.5 431.24,-85.5 408.23,-85.5"/>
<polygon fill="#63b8ff" stroke="#63b8ff" points="484.35,-89 494.35,-85.5 484.35,-82 484.35,-89"/>
</a>
</g>
</g>
<!-- Node7 -->
<g id="Node000007" class="node">
<title>Node7</title>
<g id="a_Node000007"><a xlink:href="classGameController.html#af2367e58f03d8a1441c9a574967fd360" target="_top" xlink:title="Processes a single game turn/update cycle.">
<polygon fill="white" stroke="#666666" points="445,-39 258,-39 258,-20 445,-20 445,-39"/>
<text text-anchor="middle" x="351.5" y="-27" font-family="Helvetica,sans-Serif" font-size="10.00">GameController::processGameTurn</text>
</a>
</g>
</g>
<!-- Node6&#45;&gt;Node7 -->
<g id="edge6_Node000006_Node000007" class="edge">
<title>Node6&#45;&gt;Node7</title>
<g id="a_edge6_Node000006_Node000007"><a xlink:title=" ">
<path fill="none" stroke="#63b8ff" d="M508.27,-42.16C488.49,-40.55 466.4,-38.76 445.21,-37.03"/>
<polygon fill="#63b8ff" stroke="#63b8ff" points="508.14,-45.66 518.39,-42.98 508.71,-38.68 508.14,-45.66"/>
</a>
</g>
</g>
<!-- Node8 -->
<g id="Node000008" class="node">
<title>Node8</title>
<g id="a_Node000008"><a xlink:href="classGameController.html#ac958989c8f7f08488546930e5fcb0d82" target="_top" xlink:title="Starts and runs the main game loop.">
<polygon fill="white" stroke="#666666" points="222,-39 77,-39 77,-20 222,-20 222,-39"/>
<text text-anchor="middle" x="149.5" y="-27" font-family="Helvetica,sans-Serif" font-size="10.00">GameController::runGame</text>
</a>
</g>
</g>
<!-- Node7&#45;&gt;Node8 -->
<g id="edge7_Node000007_Node000008" class="edge">
<title>Node7&#45;&gt;Node8</title>
<g id="a_edge7_Node000007_Node000008"><a xlink:title=" ">
<path fill="none" stroke="#63b8ff" d="M247.71,-29.5C239.1,-29.5 230.52,-29.5 222.22,-29.5"/>
<polygon fill="#63b8ff" stroke="#63b8ff" points="247.82,-33 257.82,-29.5 247.82,-26 247.82,-33"/>
</a>
</g>
</g>
<!-- Node9 -->
<g id="Node000009" class="node">
<title>Node9</title>
<g id="a_Node000009"><a xlink:href="main_8cpp.html#ae66f6b31b5ad750f1fe042a706a4e3d4" target="_top" xlink:title="Main function that serves as the application entry point.">
<polygon fill="white" stroke="#666666" points="41,-39 0,-39 0,-20 41,-20 41,-39"/>
<text text-anchor="middle" x="20.5" y="-27" font-family="Helvetica,sans-Serif" font-size="10.00">main</text>
</a>
</g>
</g>
<!-- Node8&#45;&gt;Node9 -->
<g id="edge8_Node000008_Node000009" class="edge">
<title>Node8&#45;&gt;Node9</title>
<g id="a_edge8_Node000008_Node000009"><a xlink:title=" ">
<path fill="none" stroke="#63b8ff" d="M66.79,-29.5C57.31,-29.5 48.43,-29.5 41.08,-29.5"/>
<polygon fill="#63b8ff" stroke="#63b8ff" points="66.83,-33 76.83,-29.5 66.83,-26 66.83,-33"/>
</a>
</g>
</g>
<!-- Node11 -->
<g id="Node000011" class="node">
<title>Node11</title>
<g id="a_Node000011"><a xlink:href="classGameWorld.html#a58c1d2ad8f1cca5576339fbb7efba344" target="_top" xlink:title="Triggers player tank to fire.">
<polygon fill="white" stroke="#666666" points="839,-19 711,-19 711,0 839,0 839,-19"/>
<text text-anchor="middle" x="775" y="-7" font-family="Helvetica,sans-Serif" font-size="10.00">GameWorld::playerFire</text>
</a>
</g>
</g>
<!-- Node10&#45;&gt;Node11 -->
<g id="edge10_Node000010_Node000011" class="edge">
<title>Node10&#45;&gt;Node11</title>
<g id="a_edge10_Node000010_Node000011"><a xlink:title=" ">
<path fill="none" stroke="#63b8ff" d="M872.32,-10.14C861.52,-10.06 850.13,-9.99 839.09,-9.92"/>
<polygon fill="#63b8ff" stroke="#63b8ff" points="872.43,-13.64 882.46,-10.2 872.48,-6.64 872.43,-13.64"/>
</a>
</g>
</g>
<!-- Node12 -->
<g id="Node000012" class="node">
<title>Node12</title>
<g id="a_Node000012"><a xlink:href="classGameController.html#a971b3d8f6296a74f0bebc83b5e79c186" target="_top" xlink:title="Processes a user command.">
<polygon fill="white" stroke="#666666" points="669,-20 481,-20 481,-1 669,-1 669,-20"/>
<text text-anchor="middle" x="575" y="-8" font-family="Helvetica,sans-Serif" font-size="10.00">GameController::processCommand</text>
</a>
</g>
</g>
<!-- Node11&#45;&gt;Node12 -->
<g id="edge11_Node000011_Node000012" class="edge">
<title>Node11&#45;&gt;Node12</title>
<g id="a_edge11_Node000011_Node000012"><a xlink:title=" ">
<path fill="none" stroke="#63b8ff" d="M700.71,-9.87C690.46,-9.92 679.82,-9.98 669.26,-10.03"/>
<polygon fill="#63b8ff" stroke="#63b8ff" points="700.83,-13.37 710.81,-9.82 700.79,-6.37 700.83,-13.37"/>
</a>
</g>
</g>
<!-- Node12&#45;&gt;Node7 -->
<g id="edge12_Node000012_Node000007" class="edge">
<title>Node12&#45;&gt;Node7</title>
<g id="a_edge12_Node000012_Node000007"><a xlink:title=" ">
<path fill="none" stroke="#63b8ff" d="M470.5,-19.38C462.1,-20.1 453.65,-20.82 445.33,-21.54"/>
<polygon fill="#63b8ff" stroke="#63b8ff" points="471.04,-22.84 480.71,-18.5 470.44,-15.87 471.04,-22.84"/>
</a>
</g>
</g>
</g>
</svg>
