<?xml version="1.0" encoding="UTF-8" standalone="no"?>
<!DOCTYPE svg PUBLIC "-//W3C//DTD SVG 1.1//EN"
 "http://www.w3.org/Graphics/SVG/1.1/DTD/svg11.dtd">
<!-- Generated by graphviz version 2.43.0 (0)
 -->
<!-- Title: GameObject::takeDamage Pages: 1 -->
<svg width="1517pt" height="75pt"
 viewBox="0.00 0.00 1517.00 74.50" xmlns="http://www.w3.org/2000/svg" xmlns:xlink="http://www.w3.org/1999/xlink">
<g id="graph0" class="graph" transform="scale(1 1) rotate(0) translate(4 70.5)">
<title>GameObject::takeDamage</title>
<!-- Node1 -->
<g id="Node000001" class="node">
<title>Node1</title>
<g id="a_Node000001"><a xlink:title="Applies damage to the object.">
<polygon fill="#999999" stroke="#666666" points="1509,-40 1363,-40 1363,-21 1509,-21 1509,-40"/>
<text text-anchor="middle" x="1436" y="-28" font-family="Helvetica,sans-Serif" font-size="10.00">GameObject::takeDamage</text>
</a>
</g>
</g>
<!-- Node2 -->
<g id="Node000002" class="node">
<title>Node2</title>
<g id="a_Node000002"><a xlink:href="classTank.html#a694c752906e013192e6420bc31b01dd6" target="_top" xlink:title="Applies damage to tank, considering shield.">
<polygon fill="white" stroke="#666666" points="1327,-60 1220,-60 1220,-41 1327,-41 1327,-60"/>
<text text-anchor="middle" x="1273.5" y="-48" font-family="Helvetica,sans-Serif" font-size="10.00">Tank::takeDamage</text>
</a>
</g>
</g>
<!-- Node1&#45;&gt;Node2 -->
<g id="edge1_Node000001_Node000002" class="edge">
<title>Node1&#45;&gt;Node2</title>
<g id="a_edge1_Node000001_Node000002"><a xlink:title=" ">
<path fill="none" stroke="#63b8ff" d="M1352.59,-40.77C1343.94,-41.85 1335.33,-42.92 1327.15,-43.94"/>
<polygon fill="#63b8ff" stroke="#63b8ff" points="1353.24,-44.22 1362.73,-39.51 1352.38,-37.27 1353.24,-44.22"/>
</a>
</g>
</g>
<!-- Node10 -->
<g id="Node000010" class="node">
<title>Node10</title>
<g id="a_Node000010"><a xlink:href="classProjectile.html#ac41ad56034b53e739619fabbd5e49652" target="_top" xlink:title="Updates projectile state (travels and self&#45;destructs).">
<polygon fill="white" stroke="#666666" points="1148.5,-19 1046.5,-19 1046.5,0 1148.5,0 1148.5,-19"/>
<text text-anchor="middle" x="1097.5" y="-7" font-family="Helvetica,sans-Serif" font-size="10.00">Projectile::update</text>
</a>
</g>
</g>
<!-- Node1&#45;&gt;Node10 -->
<g id="edge9_Node000001_Node000010" class="edge">
<title>Node1&#45;&gt;Node10</title>
<g id="a_edge9_Node000001_Node000010"><a xlink:title=" ">
<path fill="none" stroke="#63b8ff" d="M1352.78,-25.37C1288.98,-21.39 1202.6,-16 1148.74,-12.64"/>
<polygon fill="#63b8ff" stroke="#63b8ff" points="1352.61,-28.87 1362.81,-25.99 1353.05,-21.88 1352.61,-28.87"/>
</a>
</g>
</g>
<!-- Node3 -->
<g id="Node000003" class="node">
<title>Node3</title>
<g id="a_Node000003"><a xlink:href="classGameWorld.html#a752ef6a0f4c6cdffead1dacd117d8451" target="_top" xlink:title="Handles projectile hit.">
<polygon fill="white" stroke="#666666" points="1184,-60 1011,-60 1011,-41 1184,-41 1184,-60"/>
<text text-anchor="middle" x="1097.5" y="-48" font-family="Helvetica,sans-Serif" font-size="10.00">GameWorld::handleProjectileHit</text>
</a>
</g>
</g>
<!-- Node2&#45;&gt;Node3 -->
<g id="edge2_Node000002_Node000003" class="edge">
<title>Node2&#45;&gt;Node3</title>
<g id="a_edge2_Node000002_Node000003"><a xlink:title=" ">
<path fill="none" stroke="#63b8ff" d="M1209.81,-50.5C1201.46,-50.5 1192.77,-50.5 1184.11,-50.5"/>
<polygon fill="#63b8ff" stroke="#63b8ff" points="1209.82,-54 1219.82,-50.5 1209.82,-47 1209.82,-54"/>
</a>
</g>
</g>
<!-- Node4 -->
<g id="Node000004" class="node">
<title>Node4</title>
<g id="a_Node000004"><a xlink:href="classGameWorld.html#a81b514a6e2b376bd9b5f8276e3861b5f" target="_top" xlink:title="Checks projectile collisions.">
<polygon fill="white" stroke="#666666" points="975,-66.5 821,-66.5 821,-36.5 975,-36.5 975,-66.5"/>
<text text-anchor="start" x="829" y="-54.5" font-family="Helvetica,sans-Serif" font-size="10.00">GameWorld::checkProjectile</text>
<text text-anchor="middle" x="898" y="-43.5" font-family="Helvetica,sans-Serif" font-size="10.00">Collisions</text>
</a>
</g>
</g>
<!-- Node3&#45;&gt;Node4 -->
<g id="edge3_Node000003_Node000004" class="edge">
<title>Node3&#45;&gt;Node4</title>
<g id="a_edge3_Node000003_Node000004"><a xlink:title=" ">
<path fill="none" stroke="#63b8ff" d="M1000.68,-50.99C992.08,-51.03 983.46,-51.07 975.07,-51.11"/>
<polygon fill="#63b8ff" stroke="#63b8ff" points="1000.75,-54.48 1010.74,-50.93 1000.72,-47.49 1000.75,-54.48"/>
</a>
</g>
</g>
<!-- Node5 -->
<g id="Node000005" class="node">
<title>Node5</title>
<g id="a_Node000005"><a xlink:href="classGameWorld.html#a2a5aaafc1c18521a4657d6a4a66c4d91" target="_top" xlink:title="Checks all types of collisions.">
<polygon fill="white" stroke="#666666" points="785,-58 630,-58 630,-39 785,-39 785,-58"/>
<text text-anchor="middle" x="707.5" y="-46" font-family="Helvetica,sans-Serif" font-size="10.00">GameWorld::checkCollisions</text>
</a>
</g>
</g>
<!-- Node4&#45;&gt;Node5 -->
<g id="edge4_Node000004_Node000005" class="edge">
<title>Node4&#45;&gt;Node5</title>
<g id="a_edge4_Node000004_Node000005"><a xlink:title=" ">
<path fill="none" stroke="#63b8ff" d="M810.6,-50.12C802.14,-49.99 793.58,-49.85 785.22,-49.72"/>
<polygon fill="#63b8ff" stroke="#63b8ff" points="810.82,-53.63 820.87,-50.29 810.93,-46.63 810.82,-53.63"/>
</a>
</g>
</g>
<!-- Node6 -->
<g id="Node000006" class="node">
<title>Node6</title>
<g id="a_Node000006"><a xlink:href="classGameWorld.html#ab645acf30cb0a4640a8fb5b88c5c7c94" target="_top" xlink:title="Updates all game objects and logic.">
<polygon fill="white" stroke="#666666" points="594,-37 481,-37 481,-18 594,-18 594,-37"/>
<text text-anchor="middle" x="537.5" y="-25" font-family="Helvetica,sans-Serif" font-size="10.00">GameWorld::update</text>
</a>
</g>
</g>
<!-- Node5&#45;&gt;Node6 -->
<g id="edge5_Node000005_Node000006" class="edge">
<title>Node5&#45;&gt;Node6</title>
<g id="a_edge5_Node000005_Node000006"><a xlink:title=" ">
<path fill="none" stroke="#63b8ff" d="M620.37,-37.73C611.5,-36.63 602.67,-35.52 594.27,-34.47"/>
<polygon fill="#63b8ff" stroke="#63b8ff" points="620.01,-41.22 630.36,-38.98 620.88,-34.27 620.01,-41.22"/>
</a>
</g>
</g>
<!-- Node7 -->
<g id="Node000007" class="node">
<title>Node7</title>
<g id="a_Node000007"><a xlink:href="classGameController.html#af2367e58f03d8a1441c9a574967fd360" target="_top" xlink:title="Processes a single game turn/update cycle.">
<polygon fill="white" stroke="#666666" points="445,-37 258,-37 258,-18 445,-18 445,-37"/>
<text text-anchor="middle" x="351.5" y="-25" font-family="Helvetica,sans-Serif" font-size="10.00">GameController::processGameTurn</text>
</a>
</g>
</g>
<!-- Node6&#45;&gt;Node7 -->
<g id="edge6_Node000006_Node000007" class="edge">
<title>Node6&#45;&gt;Node7</title>
<g id="a_edge6_Node000006_Node000007"><a xlink:title=" ">
<path fill="none" stroke="#63b8ff" d="M470.78,-27.5C462.43,-27.5 453.76,-27.5 445.08,-27.5"/>
<polygon fill="#63b8ff" stroke="#63b8ff" points="470.79,-31 480.79,-27.5 470.79,-24 470.79,-31"/>
</a>
</g>
</g>
<!-- Node8 -->
<g id="Node000008" class="node">
<title>Node8</title>
<g id="a_Node000008"><a xlink:href="classGameController.html#ac958989c8f7f08488546930e5fcb0d82" target="_top" xlink:title="Starts and runs the main game loop.">
<polygon fill="white" stroke="#666666" points="222,-37 77,-37 77,-18 222,-18 222,-37"/>
<text text-anchor="middle" x="149.5" y="-25" font-family="Helvetica,sans-Serif" font-size="10.00">GameController::runGame</text>
</a>
</g>
</g>
<!-- Node7&#45;&gt;Node8 -->
<g id="edge7_Node000007_Node000008" class="edge">
<title>Node7&#45;&gt;Node8</title>
<g id="a_edge7_Node000007_Node000008"><a xlink:title=" ">
<path fill="none" stroke="#63b8ff" d="M247.71,-27.5C239.1,-27.5 230.52,-27.5 222.22,-27.5"/>
<polygon fill="#63b8ff" stroke="#63b8ff" points="247.82,-31 257.82,-27.5 247.82,-24 247.82,-31"/>
</a>
</g>
</g>
<!-- Node9 -->
<g id="Node000009" class="node">
<title>Node9</title>
<g id="a_Node000009"><a xlink:href="main_8cpp.html#ae66f6b31b5ad750f1fe042a706a4e3d4" target="_top" xlink:title="Main function that serves as the application entry point.">
<polygon fill="white" stroke="#666666" points="41,-37 0,-37 0,-18 41,-18 41,-37"/>
<text text-anchor="middle" x="20.5" y="-25" font-family="Helvetica,sans-Serif" font-size="10.00">main</text>
</a>
</g>
</g>
<!-- Node8&#45;&gt;Node9 -->
<g id="edge8_Node000008_Node000009" class="edge">
<title>Node8&#45;&gt;Node9</title>
<g id="a_edge8_Node000008_Node000009"><a xlink:title=" ">
<path fill="none" stroke="#63b8ff" d="M66.79,-27.5C57.31,-27.5 48.43,-27.5 41.08,-27.5"/>
<polygon fill="#63b8ff" stroke="#63b8ff" points="66.83,-31 76.83,-27.5 66.83,-24 66.83,-31"/>
</a>
</g>
</g>
<!-- Node10&#45;&gt;Node6 -->
<g id="edge10_Node000010_Node000006" class="edge">
<title>Node10&#45;&gt;Node6</title>
<g id="a_edge10_Node000010_Node000006"><a xlink:title=" ">
<path fill="none" stroke="#63b8ff" d="M1036.35,-11.44C927.61,-14.95 699.86,-22.29 594.35,-25.7"/>
<polygon fill="#63b8ff" stroke="#63b8ff" points="1036.61,-14.93 1046.49,-11.11 1036.38,-7.94 1036.61,-14.93"/>
</a>
</g>
</g>
</g>
</svg>
