<?xml version="1.0" encoding="UTF-8" standalone="no"?>
<!DOCTYPE svg PUBLIC "-//W3C//DTD SVG 1.1//EN"
 "http://www.w3.org/Graphics/SVG/1.1/DTD/svg11.dtd">
<!-- Generated by graphviz version 2.43.0 (0)
 -->
<!-- Title: GameWorld::checkTankTankCollisions Pages: 1 -->
<svg width="534pt" height="151pt"
 viewBox="0.00 0.00 534.00 151.00" xmlns="http://www.w3.org/2000/svg" xmlns:xlink="http://www.w3.org/1999/xlink">
<g id="graph0" class="graph" transform="scale(1 1) rotate(0) translate(4 147)">
<title>GameWorld::checkTankTankCollisions</title>
<!-- Node1 -->
<g id="Node000001" class="node">
<title>Node1</title>
<g id="a_Node000001"><a xlink:title="Checks tank&#45;tank collisions.">
<polygon fill="#999999" stroke="#666666" points="153,-88.5 0,-88.5 0,-58.5 153,-58.5 153,-88.5"/>
<text text-anchor="start" x="8" y="-76.5" font-family="Helvetica,sans-Serif" font-size="10.00">GameWorld::checkTankTank</text>
<text text-anchor="middle" x="76.5" y="-65.5" font-family="Helvetica,sans-Serif" font-size="10.00">Collisions</text>
</a>
</g>
</g>
<!-- Node2 -->
<g id="Node000002" class="node">
<title>Node2</title>
<g id="a_Node000002"><a xlink:href="classTank.html#a893b0a184e05009741b13e1e79cd629f" target="_top" xlink:title="Gets the bounding dimensions of the tank.">
<polygon fill="white" stroke="#666666" points="316.5,-143 219.5,-143 219.5,-124 316.5,-124 316.5,-143"/>
<text text-anchor="middle" x="268" y="-131" font-family="Helvetica,sans-Serif" font-size="10.00">Tank::getBounds</text>
</a>
</g>
</g>
<!-- Node1&#45;&gt;Node2 -->
<g id="edge1_Node000001_Node000002" class="edge">
<title>Node1&#45;&gt;Node2</title>
<g id="a_edge1_Node000001_Node000002"><a xlink:title=" ">
<path fill="none" stroke="#63b8ff" d="M123.57,-88.53C143.64,-95.04 167.47,-102.71 189,-109.5 200.93,-113.26 213.91,-117.28 225.79,-120.94"/>
<polygon fill="#63b8ff" stroke="#63b8ff" points="224.88,-124.32 235.47,-123.91 226.94,-117.63 224.88,-124.32"/>
</a>
</g>
</g>
<!-- Node3 -->
<g id="Node000003" class="node">
<title>Node3</title>
<g id="a_Node000003"><a xlink:href="classGameObject.html#aa4dd19d6b0ea5701d860b64b08435ae6" target="_top" xlink:title="Gets current position of the object.">
<polygon fill="white" stroke="#666666" points="523.5,-103 385.5,-103 385.5,-84 523.5,-84 523.5,-103"/>
<text text-anchor="middle" x="454.5" y="-91" font-family="Helvetica,sans-Serif" font-size="10.00">GameObject::getPosition</text>
</a>
</g>
</g>
<!-- Node1&#45;&gt;Node3 -->
<g id="edge2_Node000001_Node000003" class="edge">
<title>Node1&#45;&gt;Node3</title>
<g id="a_edge2_Node000001_Node000003"><a xlink:title=" ">
<path fill="none" stroke="#63b8ff" d="M153.14,-77.52C217.56,-80.95 309.8,-85.86 375.02,-89.33"/>
<polygon fill="#63b8ff" stroke="#63b8ff" points="375.08,-92.83 385.25,-89.87 375.45,-85.84 375.08,-92.83"/>
</a>
</g>
</g>
<!-- Node4 -->
<g id="Node000004" class="node">
<title>Node4</title>
<g id="a_Node000004"><a xlink:href="classGameWorld.html#adc81260573ef130580a3c2a05bd460aa" target="_top" xlink:title="Handles tank&#45;tank collision.">
<polygon fill="white" stroke="#666666" points="347,-67.5 189,-67.5 189,-37.5 347,-37.5 347,-67.5"/>
<text text-anchor="start" x="197" y="-55.5" font-family="Helvetica,sans-Serif" font-size="10.00">GameWorld::handleTankTank</text>
<text text-anchor="middle" x="268" y="-44.5" font-family="Helvetica,sans-Serif" font-size="10.00">Collision</text>
</a>
</g>
</g>
<!-- Node1&#45;&gt;Node4 -->
<g id="edge3_Node000001_Node000004" class="edge">
<title>Node1&#45;&gt;Node4</title>
<g id="a_edge3_Node000001_Node000004"><a xlink:title=" ">
<path fill="none" stroke="#63b8ff" d="M153.21,-65.11C161.66,-64.17 170.32,-63.21 178.9,-62.26"/>
<polygon fill="#63b8ff" stroke="#63b8ff" points="179.37,-65.73 188.93,-61.15 178.6,-58.77 179.37,-65.73"/>
</a>
</g>
</g>
<!-- Node7 -->
<g id="Node000007" class="node">
<title>Node7</title>
<g id="a_Node000007"><a xlink:href="classGameObject.html#a51ac0947e5c628f04657cafecc9fe36b" target="_top" xlink:title="Checks if object is destroyed.">
<polygon fill="white" stroke="#666666" points="339,-19 197,-19 197,0 339,0 339,-19"/>
<text text-anchor="middle" x="268" y="-7" font-family="Helvetica,sans-Serif" font-size="10.00">GameObject::isDestroyed</text>
</a>
</g>
</g>
<!-- Node1&#45;&gt;Node7 -->
<g id="edge7_Node000001_Node000007" class="edge">
<title>Node1&#45;&gt;Node7</title>
<g id="a_edge7_Node000001_Node000007"><a xlink:title=" ">
<path fill="none" stroke="#63b8ff" d="M111.19,-58.42C133.07,-48.99 162.37,-37.07 189,-28.5 196.73,-26.01 204.99,-23.67 213.13,-21.54"/>
<polygon fill="#63b8ff" stroke="#63b8ff" points="214.13,-24.9 222.96,-19.05 212.41,-18.11 214.13,-24.9"/>
</a>
</g>
</g>
<!-- Node4&#45;&gt;Node3 -->
<g id="edge5_Node000004_Node000003" class="edge">
<title>Node4&#45;&gt;Node3</title>
<g id="a_edge5_Node000004_Node000003"><a xlink:title=" ">
<path fill="none" stroke="#63b8ff" d="M336.65,-67.53C357.77,-72.23 380.74,-77.33 400.68,-81.76"/>
<polygon fill="#63b8ff" stroke="#63b8ff" points="399.98,-85.19 410.5,-83.95 401.5,-78.36 399.98,-85.19"/>
</a>
</g>
</g>
<!-- Node5 -->
<g id="Node000005" class="node">
<title>Node5</title>
<g id="a_Node000005"><a xlink:href="classGameObject.html#a650b9622507919864b54aadcaab92110" target="_top" xlink:title="Gets current direction of the object.">
<polygon fill="white" stroke="#666666" points="526,-63 383,-63 383,-44 526,-44 526,-63"/>
<text text-anchor="middle" x="454.5" y="-51" font-family="Helvetica,sans-Serif" font-size="10.00">GameObject::getDirection</text>
</a>
</g>
</g>
<!-- Node4&#45;&gt;Node5 -->
<g id="edge4_Node000004_Node000005" class="edge">
<title>Node4&#45;&gt;Node5</title>
<g id="a_edge4_Node000004_Node000005"><a xlink:title=" ">
<path fill="none" stroke="#63b8ff" d="M347.24,-52.92C355.62,-52.97 364.16,-53.02 372.57,-53.06"/>
<polygon fill="#63b8ff" stroke="#63b8ff" points="372.73,-56.56 382.74,-53.12 372.76,-49.56 372.73,-56.56"/>
</a>
</g>
</g>
<!-- Node6 -->
<g id="Node000006" class="node">
<title>Node6</title>
<g id="a_Node000006"><a xlink:href="classGameObject.html#a8e1f77d21a8ed8a894ae29f0e4126618" target="_top" xlink:title="Sets new position for the object.">
<polygon fill="white" stroke="#666666" points="523,-26 386,-26 386,-7 523,-7 523,-26"/>
<text text-anchor="middle" x="454.5" y="-14" font-family="Helvetica,sans-Serif" font-size="10.00">GameObject::setPosition</text>
</a>
</g>
</g>
<!-- Node4&#45;&gt;Node6 -->
<g id="edge6_Node000004_Node000006" class="edge">
<title>Node4&#45;&gt;Node6</title>
<g id="a_edge6_Node000004_Node000006"><a xlink:title=" ">
<path fill="none" stroke="#63b8ff" d="M345.91,-37.49C362.21,-34.31 379.17,-31 394.68,-27.98"/>
<polygon fill="#63b8ff" stroke="#63b8ff" points="395.49,-31.39 404.63,-26.04 394.15,-24.52 395.49,-31.39"/>
</a>
</g>
</g>
</g>
</svg>
