<?xml version="1.0" encoding="UTF-8" standalone="no"?>
<!DOCTYPE svg PUBLIC "-//W3C//DTD SVG 1.1//EN"
 "http://www.w3.org/Graphics/SVG/1.1/DTD/svg11.dtd">
<!-- Generated by graphviz version 2.43.0 (0)
 -->
<!-- Title: GameController::handleTerminalResize Pages: 1 -->
<svg width="1497pt" height="210pt"
 viewBox="0.00 0.00 1497.00 209.50" xmlns="http://www.w3.org/2000/svg" xmlns:xlink="http://www.w3.org/1999/xlink">
<g id="graph0" class="graph" transform="scale(1 1) rotate(0) translate(4 205.5)">
<title>GameController::handleTerminalResize</title>
<!-- Node1 -->
<g id="Node000001" class="node">
<title>Node1</title>
<g id="a_Node000001"><a xlink:title="Handles terminal resize events.">
<polygon fill="#999999" stroke="#666666" points="1489,-113 1314,-113 1314,-83 1489,-83 1489,-113"/>
<text text-anchor="start" x="1322" y="-101" font-family="Helvetica,sans-Serif" font-size="10.00">GameController::handleTerminal</text>
<text text-anchor="middle" x="1401.5" y="-90" font-family="Helvetica,sans-Serif" font-size="10.00">Resize</text>
</a>
</g>
</g>
<!-- Node2 -->
<g id="Node000002" class="node">
<title>Node2</title>
<g id="a_Node000002"><a xlink:href="classGameController.html#a637ea4e72ed2be4a2884b30160b3e8ab" target="_top" xlink:title="Pauses the game and displays pause screen.">
<polygon fill="white" stroke="#666666" points="863,-95.5 705,-95.5 705,-76.5 863,-76.5 863,-95.5"/>
<text text-anchor="middle" x="784" y="-83.5" font-family="Helvetica,sans-Serif" font-size="10.00">GameController::pauseGame</text>
</a>
</g>
</g>
<!-- Node1&#45;&gt;Node2 -->
<g id="edge1_Node000001_Node000002" class="edge">
<title>Node1&#45;&gt;Node2</title>
<g id="a_edge1_Node000001_Node000002"><a xlink:title=" ">
<path fill="none" stroke="#63b8ff" d="M1303.89,-96.12C1182.22,-93.74 975.55,-89.71 863.26,-87.53"/>
<polygon fill="#63b8ff" stroke="#63b8ff" points="1303.88,-99.62 1313.94,-96.31 1304.01,-92.62 1303.88,-99.62"/>
</a>
</g>
</g>
<!-- Node4 -->
<g id="Node000004" class="node">
<title>Node4</title>
<g id="a_Node000004"><a xlink:href="classGameController.html#af2367e58f03d8a1441c9a574967fd360" target="_top" xlink:title="Processes a single game turn/update cycle.">
<polygon fill="white" stroke="#666666" points="445,-94.5 258,-94.5 258,-75.5 445,-75.5 445,-94.5"/>
<text text-anchor="middle" x="351.5" y="-82.5" font-family="Helvetica,sans-Serif" font-size="10.00">GameController::processGameTurn</text>
</a>
</g>
</g>
<!-- Node1&#45;&gt;Node4 -->
<g id="edge6_Node000001_Node000004" class="edge">
<title>Node1&#45;&gt;Node4</title>
<g id="a_edge6_Node000001_Node000004"><a xlink:title=" ">
<path fill="none" stroke="#63b8ff" d="M1352.45,-79.38C1274.62,-50.96 1115.63,0 976,0 976,0 976,0 783,0 628.54,0 448.71,-53.32 380.58,-75.5"/>
<polygon fill="#63b8ff" stroke="#63b8ff" points="1351.38,-82.72 1361.98,-82.9 1353.81,-76.16 1351.38,-82.72"/>
</a>
</g>
</g>
<!-- Node7 -->
<g id="Node000007" class="node">
<title>Node7</title>
<g id="a_Node000007"><a xlink:href="classGameController.html#a85bcf4ecfd197aad278e116215a3717b" target="_top" xlink:title="Displays level completion screen.">
<polygon fill="white" stroke="#666666" points="860,-58 708,-58 708,-28 860,-28 860,-58"/>
<text text-anchor="start" x="716" y="-46" font-family="Helvetica,sans-Serif" font-size="10.00">GameController::showLevel</text>
<text text-anchor="middle" x="784" y="-35" font-family="Helvetica,sans-Serif" font-size="10.00">CompleteScreen</text>
</a>
</g>
</g>
<!-- Node1&#45;&gt;Node7 -->
<g id="edge7_Node000001_Node000007" class="edge">
<title>Node1&#45;&gt;Node7</title>
<g id="a_edge7_Node000001_Node000007"><a xlink:title=" ">
<path fill="none" stroke="#63b8ff" d="M1303.8,-89.36C1181.09,-78.39 972,-59.71 860.41,-49.74"/>
<polygon fill="#63b8ff" stroke="#63b8ff" points="1303.67,-92.86 1313.94,-90.27 1304.3,-85.89 1303.67,-92.86"/>
</a>
</g>
</g>
<!-- Node8 -->
<g id="Node000008" class="node">
<title>Node8</title>
<g id="a_Node000008"><a xlink:href="classGameController.html#a4a9c94fe33cf6c73bb5dfc415d04d309" target="_top" xlink:title="Displays map selection screen.">
<polygon fill="white" stroke="#666666" points="1278,-201.5 1087,-201.5 1087,-182.5 1278,-182.5 1278,-201.5"/>
<text text-anchor="middle" x="1182.5" y="-189.5" font-family="Helvetica,sans-Serif" font-size="10.00">GameController::showMapSelection</text>
</a>
</g>
</g>
<!-- Node1&#45;&gt;Node8 -->
<g id="edge9_Node000001_Node000008" class="edge">
<title>Node1&#45;&gt;Node8</title>
<g id="a_edge9_Node000001_Node000008"><a xlink:title=" ">
<path fill="none" stroke="#63b8ff" d="M1373.12,-119.11C1349.27,-136.45 1313.1,-160.32 1278,-174 1269.21,-177.43 1259.69,-180.22 1250.21,-182.49"/>
<polygon fill="#63b8ff" stroke="#63b8ff" points="1375.36,-121.8 1381.33,-113.04 1371.2,-116.17 1375.36,-121.8"/>
</a>
</g>
</g>
<!-- Node9 -->
<g id="Node000009" class="node">
<title>Node9</title>
<g id="a_Node000009"><a xlink:href="classGameController.html#a9d11b5a6255b7249bddba49df0837cf3" target="_top" xlink:title="Displays and manages the main menu.">
<polygon fill="white" stroke="#666666" points="1051,-148.5 899,-148.5 899,-129.5 1051,-129.5 1051,-148.5"/>
<text text-anchor="middle" x="975" y="-136.5" font-family="Helvetica,sans-Serif" font-size="10.00">GameController::showMenu</text>
</a>
</g>
</g>
<!-- Node1&#45;&gt;Node9 -->
<g id="edge17_Node000001_Node000009" class="edge">
<title>Node1&#45;&gt;Node9</title>
<g id="a_edge17_Node000001_Node000009"><a xlink:title=" ">
<path fill="none" stroke="#63b8ff" d="M1303.69,-107.35C1227.05,-114.75 1121.56,-124.94 1051.19,-131.74"/>
<polygon fill="#63b8ff" stroke="#63b8ff" points="1304.21,-110.82 1313.83,-106.37 1303.54,-103.85 1304.21,-110.82"/>
</a>
</g>
</g>
<!-- Node10 -->
<g id="Node000010" class="node">
<title>Node10</title>
<g id="a_Node000010"><a xlink:href="classGameController.html#a24f5cae258418d4a5934e6f412c28945" target="_top" xlink:title="Displays and manages the settings menu.">
<polygon fill="white" stroke="#666666" points="1265,-164.5 1100,-164.5 1100,-145.5 1265,-145.5 1265,-164.5"/>
<text text-anchor="middle" x="1182.5" y="-152.5" font-family="Helvetica,sans-Serif" font-size="10.00">GameController::showSettings</text>
</a>
</g>
</g>
<!-- Node1&#45;&gt;Node10 -->
<g id="edge18_Node000001_Node000010" class="edge">
<title>Node1&#45;&gt;Node10</title>
<g id="a_edge18_Node000001_Node000010"><a xlink:title=" ">
<path fill="none" stroke="#63b8ff" d="M1335.53,-115.69C1316.96,-120.69 1296.69,-126.11 1278,-131 1259.5,-135.84 1238.91,-141.09 1221.7,-145.43"/>
<polygon fill="#63b8ff" stroke="#63b8ff" points="1336.62,-119.02 1345.36,-113.04 1334.79,-112.26 1336.62,-119.02"/>
</a>
</g>
</g>
<!-- Node3 -->
<g id="Node000003" class="node">
<title>Node3</title>
<g id="a_Node000003"><a xlink:href="classGameController.html#a971b3d8f6296a74f0bebc83b5e79c186" target="_top" xlink:title="Processes a user command.">
<polygon fill="white" stroke="#666666" points="669,-114.5 481,-114.5 481,-95.5 669,-95.5 669,-114.5"/>
<text text-anchor="middle" x="575" y="-102.5" font-family="Helvetica,sans-Serif" font-size="10.00">GameController::processCommand</text>
</a>
</g>
</g>
<!-- Node2&#45;&gt;Node3 -->
<g id="edge2_Node000002_Node000003" class="edge">
<title>Node2&#45;&gt;Node3</title>
<g id="a_edge2_Node000002_Node000003"><a xlink:title=" ">
<path fill="none" stroke="#63b8ff" d="M694.62,-94.11C686.25,-94.88 677.75,-95.66 669.34,-96.43"/>
<polygon fill="#63b8ff" stroke="#63b8ff" points="695.1,-97.58 704.74,-93.18 694.46,-90.61 695.1,-97.58"/>
</a>
</g>
</g>
<!-- Node3&#45;&gt;Node4 -->
<g id="edge3_Node000003_Node000004" class="edge">
<title>Node3&#45;&gt;Node4</title>
<g id="a_edge3_Node000003_Node000004"><a xlink:title=" ">
<path fill="none" stroke="#63b8ff" d="M470.5,-95.65C462.1,-94.9 453.65,-94.13 445.33,-93.38"/>
<polygon fill="#63b8ff" stroke="#63b8ff" points="470.43,-99.16 480.71,-96.58 471.06,-92.19 470.43,-99.16"/>
</a>
</g>
</g>
<!-- Node5 -->
<g id="Node000005" class="node">
<title>Node5</title>
<g id="a_Node000005"><a xlink:href="classGameController.html#ac958989c8f7f08488546930e5fcb0d82" target="_top" xlink:title="Starts and runs the main game loop.">
<polygon fill="white" stroke="#666666" points="222,-132.5 77,-132.5 77,-113.5 222,-113.5 222,-132.5"/>
<text text-anchor="middle" x="149.5" y="-120.5" font-family="Helvetica,sans-Serif" font-size="10.00">GameController::runGame</text>
</a>
</g>
</g>
<!-- Node4&#45;&gt;Node5 -->
<g id="edge4_Node000004_Node000005" class="edge">
<title>Node4&#45;&gt;Node5</title>
<g id="a_edge4_Node000004_Node000005"><a xlink:title=" ">
<path fill="none" stroke="#63b8ff" d="M290.4,-96.42C261.79,-101.86 227.96,-108.28 200.73,-113.46"/>
<polygon fill="#63b8ff" stroke="#63b8ff" points="291.12,-99.85 300.29,-94.54 289.81,-92.97 291.12,-99.85"/>
</a>
</g>
</g>
<!-- Node6 -->
<g id="Node000006" class="node">
<title>Node6</title>
<g id="a_Node000006"><a xlink:href="main_8cpp.html#ae66f6b31b5ad750f1fe042a706a4e3d4" target="_top" xlink:title="Main function that serves as the application entry point.">
<polygon fill="white" stroke="#666666" points="41,-132.5 0,-132.5 0,-113.5 41,-113.5 41,-132.5"/>
<text text-anchor="middle" x="20.5" y="-120.5" font-family="Helvetica,sans-Serif" font-size="10.00">main</text>
</a>
</g>
</g>
<!-- Node5&#45;&gt;Node6 -->
<g id="edge5_Node000005_Node000006" class="edge">
<title>Node5&#45;&gt;Node6</title>
<g id="a_edge5_Node000005_Node000006"><a xlink:title=" ">
<path fill="none" stroke="#63b8ff" d="M66.79,-123C57.31,-123 48.43,-123 41.08,-123"/>
<polygon fill="#63b8ff" stroke="#63b8ff" points="66.83,-126.5 76.83,-123 66.83,-119.5 66.83,-126.5"/>
</a>
</g>
</g>
<!-- Node7&#45;&gt;Node4 -->
<g id="edge8_Node000007_Node000004" class="edge">
<title>Node7&#45;&gt;Node4</title>
<g id="a_edge8_Node000007_Node000004"><a xlink:title=" ">
<path fill="none" stroke="#63b8ff" d="M697.45,-51.35C624.55,-58.46 520.01,-68.66 445.15,-75.96"/>
<polygon fill="#63b8ff" stroke="#63b8ff" points="697.91,-54.82 707.52,-50.36 697.23,-47.85 697.91,-54.82"/>
</a>
</g>
</g>
<!-- Node8&#45;&gt;Node3 -->
<g id="edge10_Node000008_Node000003" class="edge">
<title>Node8&#45;&gt;Node3</title>
<g id="a_edge10_Node000008_Node000003"><a xlink:title=" ">
<path fill="none" stroke="#63b8ff" d="M1076.9,-183.31C980,-174.41 832.12,-158.66 705,-136 672.8,-130.26 636.63,-121.35 610.8,-114.55"/>
<polygon fill="#63b8ff" stroke="#63b8ff" points="1076.71,-186.81 1086.99,-184.23 1077.35,-179.84 1076.71,-186.81"/>
</a>
</g>
</g>
<!-- Node8&#45;&gt;Node9 -->
<g id="edge11_Node000008_Node000009" class="edge">
<title>Node8&#45;&gt;Node9</title>
<g id="a_edge11_Node000008_Node000009"><a xlink:title=" ">
<path fill="none" stroke="#63b8ff" d="M1153.48,-179.92C1134.57,-175.33 1109.14,-170.58 1087,-165 1067.8,-160.16 1047.03,-153.9 1028.71,-148.52"/>
<polygon fill="#63b8ff" stroke="#63b8ff" points="1152.69,-183.33 1163.25,-182.46 1154.45,-176.55 1152.69,-183.33"/>
</a>
</g>
</g>
<!-- Node9&#45;&gt;Node2 -->
<g id="edge12_Node000009_Node000002" class="edge">
<title>Node9&#45;&gt;Node2</title>
<g id="a_edge12_Node000009_Node000002"><a xlink:title=" ">
<path fill="none" stroke="#63b8ff" d="M930.13,-126.7C896.25,-117.2 850.07,-104.25 818.97,-95.53"/>
<polygon fill="#63b8ff" stroke="#63b8ff" points="929.2,-130.07 939.77,-129.4 931.09,-123.33 929.2,-130.07"/>
</a>
</g>
</g>
<!-- Node9&#45;&gt;Node3 -->
<g id="edge13_Node000009_Node000003" class="edge">
<title>Node9&#45;&gt;Node3</title>
<g id="a_edge13_Node000009_Node000003"><a xlink:title=" ">
<path fill="none" stroke="#63b8ff" d="M888.53,-131.7C824.02,-126.19 735.58,-118.63 669.25,-112.97"/>
<polygon fill="#63b8ff" stroke="#63b8ff" points="888.41,-135.2 898.67,-132.56 889.01,-128.23 888.41,-135.2"/>
</a>
</g>
</g>
<!-- Node9&#45;&gt;Node5 -->
<g id="edge14_Node000009_Node000005" class="edge">
<title>Node9&#45;&gt;Node5</title>
<g id="a_edge14_Node000009_Node000005"><a xlink:title=" ">
<path fill="none" stroke="#63b8ff" d="M888.9,-138.32C835.98,-137.83 766.53,-137.06 705,-136 531.7,-133 327.97,-127.79 222.27,-124.96"/>
<polygon fill="#63b8ff" stroke="#63b8ff" points="888.89,-141.82 898.92,-138.41 888.95,-134.82 888.89,-141.82"/>
</a>
</g>
</g>
<!-- Node9&#45;&gt;Node7 -->
<g id="edge15_Node000009_Node000007" class="edge">
<title>Node9&#45;&gt;Node7</title>
<g id="a_edge15_Node000009_Node000007"><a xlink:title=" ">
<path fill="none" stroke="#63b8ff" d="M953.62,-123.29C932.09,-107.31 896.66,-82.72 863,-67 855.94,-63.7 848.31,-60.71 840.69,-58.05"/>
<polygon fill="#63b8ff" stroke="#63b8ff" points="951.59,-126.15 961.69,-129.36 955.8,-120.55 951.59,-126.15"/>
</a>
</g>
</g>
<!-- Node9&#45;&gt;Node8 -->
<g id="edge16_Node000009_Node000008" class="edge">
<title>Node9&#45;&gt;Node8</title>
<g id="a_edge16_Node000009_Node000008"><a xlink:title=" ">
<path fill="none" stroke="#63b8ff" d="M996.57,-152.95C1018.63,-162.9 1054.8,-174.87 1086.71,-182.93"/>
<polygon fill="#63b8ff" stroke="#63b8ff" points="998.02,-149.76 987.5,-148.54 994.96,-156.06 998.02,-149.76"/>
</a>
</g>
</g>
<!-- Node10&#45;&gt;Node9 -->
<g id="edge19_Node000010_Node000009" class="edge">
<title>Node10&#45;&gt;Node9</title>
<g id="a_edge19_Node000010_Node000009"><a xlink:title=" ">
<path fill="none" stroke="#63b8ff" d="M1089.69,-147.85C1076.78,-146.85 1063.63,-145.82 1051.07,-144.84"/>
<polygon fill="#63b8ff" stroke="#63b8ff" points="1089.74,-151.37 1099.99,-148.65 1090.29,-144.39 1089.74,-151.37"/>
</a>
</g>
</g>
</g>
</svg>
