<?xml version="1.0" encoding="UTF-8" standalone="no"?>
<!DOCTYPE svg PUBLIC "-//W3C//DTD SVG 1.1//EN"
 "http://www.w3.org/Graphics/SVG/1.1/DTD/svg11.dtd">
<!-- Generated by graphviz version 2.43.0 (0)
 -->
<!-- Title: ConsoleRenderer::drawMapSelection Pages: 1 -->
<svg width="1473pt" height="117pt"
 viewBox="0.00 0.00 1473.00 117.28" xmlns="http://www.w3.org/2000/svg" xmlns:xlink="http://www.w3.org/1999/xlink">
<g id="graph0" class="graph" transform="scale(1 1) rotate(0) translate(4 113.28)">
<title>ConsoleRenderer::drawMapSelection</title>
<!-- Node1 -->
<g id="Node000001" class="node">
<title>Node1</title>
<g id="a_Node000001"><a xlink:title="Draws map selection screen.">
<polygon fill="#999999" stroke="#666666" points="1465,-85.24 1314,-85.24 1314,-55.24 1465,-55.24 1465,-85.24"/>
<text text-anchor="start" x="1322" y="-73.24" font-family="Helvetica,sans-Serif" font-size="10.00">ConsoleRenderer::drawMap</text>
<text text-anchor="middle" x="1389.5" y="-62.24" font-family="Helvetica,sans-Serif" font-size="10.00">Selection</text>
</a>
</g>
</g>
<!-- Node2 -->
<g id="Node000002" class="node">
<title>Node2</title>
<g id="a_Node000002"><a xlink:href="classGameController.html#a4a9c94fe33cf6c73bb5dfc415d04d309" target="_top" xlink:title="Displays map selection screen.">
<polygon fill="white" stroke="#666666" points="1278,-79.74 1087,-79.74 1087,-60.74 1278,-60.74 1278,-79.74"/>
<text text-anchor="middle" x="1182.5" y="-67.74" font-family="Helvetica,sans-Serif" font-size="10.00">GameController::showMapSelection</text>
</a>
</g>
</g>
<!-- Node1&#45;&gt;Node2 -->
<g id="edge1_Node000001_Node000002" class="edge">
<title>Node1&#45;&gt;Node2</title>
<g id="a_edge1_Node000001_Node000002"><a xlink:title=" ">
<path fill="none" stroke="#63b8ff" d="M1303.77,-70.24C1295.38,-70.24 1286.82,-70.24 1278.34,-70.24"/>
<polygon fill="#63b8ff" stroke="#63b8ff" points="1303.91,-73.74 1313.91,-70.24 1303.91,-66.74 1303.91,-73.74"/>
</a>
</g>
</g>
<!-- Node3 -->
<g id="Node000003" class="node">
<title>Node3</title>
<g id="a_Node000003"><a xlink:href="classGameController.html#a971b3d8f6296a74f0bebc83b5e79c186" target="_top" xlink:title="Processes a user command.">
<polygon fill="white" stroke="#666666" points="669,-103.74 481,-103.74 481,-84.74 669,-84.74 669,-103.74"/>
<text text-anchor="middle" x="575" y="-91.74" font-family="Helvetica,sans-Serif" font-size="10.00">GameController::processCommand</text>
</a>
</g>
</g>
<!-- Node2&#45;&gt;Node3 -->
<g id="edge2_Node000002_Node000003" class="edge">
<title>Node2&#45;&gt;Node3</title>
<g id="a_edge2_Node000002_Node000003"><a xlink:title=" ">
<path fill="none" stroke="#63b8ff" d="M1110.87,-81.24C1091.49,-84.06 1070.46,-86.94 1051,-89.24 898.1,-107.27 858.8,-113.38 705,-106.24 692.64,-105.67 679.64,-104.78 666.84,-103.75"/>
<polygon fill="#63b8ff" stroke="#63b8ff" points="1111.46,-84.69 1120.84,-79.77 1110.44,-77.76 1111.46,-84.69"/>
</a>
</g>
</g>
<!-- Node7 -->
<g id="Node000007" class="node">
<title>Node7</title>
<g id="a_Node000007"><a xlink:href="classGameController.html#a9d11b5a6255b7249bddba49df0837cf3" target="_top" xlink:title="Displays and manages the main menu.">
<polygon fill="white" stroke="#666666" points="1051,-79.74 899,-79.74 899,-60.74 1051,-60.74 1051,-79.74"/>
<text text-anchor="middle" x="975" y="-67.74" font-family="Helvetica,sans-Serif" font-size="10.00">GameController::showMenu</text>
</a>
</g>
</g>
<!-- Node2&#45;&gt;Node7 -->
<g id="edge6_Node000002_Node000007" class="edge">
<title>Node2&#45;&gt;Node7</title>
<g id="a_edge6_Node000002_Node000007"><a xlink:title=" ">
<path fill="none" stroke="#63b8ff" d="M1076.72,-63.49C1068.06,-63.5 1059.43,-63.57 1051.06,-63.71"/>
<polygon fill="#63b8ff" stroke="#63b8ff" points="1076.86,-66.99 1086.87,-63.51 1076.88,-59.99 1076.86,-66.99"/>
</a>
</g>
</g>
<!-- Node4 -->
<g id="Node000004" class="node">
<title>Node4</title>
<g id="a_Node000004"><a xlink:href="classGameController.html#af2367e58f03d8a1441c9a574967fd360" target="_top" xlink:title="Processes a single game turn/update cycle.">
<polygon fill="white" stroke="#666666" points="445,-46.74 258,-46.74 258,-27.74 445,-27.74 445,-46.74"/>
<text text-anchor="middle" x="351.5" y="-34.74" font-family="Helvetica,sans-Serif" font-size="10.00">GameController::processGameTurn</text>
</a>
</g>
</g>
<!-- Node3&#45;&gt;Node4 -->
<g id="edge3_Node000003_Node000004" class="edge">
<title>Node3&#45;&gt;Node4</title>
<g id="a_edge3_Node000003_Node000004"><a xlink:title=" ">
<path fill="none" stroke="#63b8ff" d="M527.18,-82.19C486.22,-71.65 427.51,-56.54 389.7,-46.81"/>
<polygon fill="#63b8ff" stroke="#63b8ff" points="526.37,-85.6 536.93,-84.7 528.11,-78.82 526.37,-85.6"/>
</a>
</g>
</g>
<!-- Node5 -->
<g id="Node000005" class="node">
<title>Node5</title>
<g id="a_Node000005"><a xlink:href="classGameController.html#ac958989c8f7f08488546930e5fcb0d82" target="_top" xlink:title="Starts and runs the main game loop.">
<polygon fill="white" stroke="#666666" points="222,-24.74 77,-24.74 77,-5.74 222,-5.74 222,-24.74"/>
<text text-anchor="middle" x="149.5" y="-12.74" font-family="Helvetica,sans-Serif" font-size="10.00">GameController::runGame</text>
</a>
</g>
</g>
<!-- Node4&#45;&gt;Node5 -->
<g id="edge4_Node000004_Node000005" class="edge">
<title>Node4&#45;&gt;Node5</title>
<g id="a_edge4_Node000004_Node000005"><a xlink:title=" ">
<path fill="none" stroke="#63b8ff" d="M253.77,-26.6C243.13,-25.43 232.44,-24.25 222.18,-23.12"/>
<polygon fill="#63b8ff" stroke="#63b8ff" points="253.62,-30.1 263.94,-27.72 254.38,-23.15 253.62,-30.1"/>
</a>
</g>
</g>
<!-- Node6 -->
<g id="Node000006" class="node">
<title>Node6</title>
<g id="a_Node000006"><a xlink:href="main_8cpp.html#ae66f6b31b5ad750f1fe042a706a4e3d4" target="_top" xlink:title="Main function that serves as the application entry point.">
<polygon fill="white" stroke="#666666" points="41,-24.74 0,-24.74 0,-5.74 41,-5.74 41,-24.74"/>
<text text-anchor="middle" x="20.5" y="-12.74" font-family="Helvetica,sans-Serif" font-size="10.00">main</text>
</a>
</g>
</g>
<!-- Node5&#45;&gt;Node6 -->
<g id="edge5_Node000005_Node000006" class="edge">
<title>Node5&#45;&gt;Node6</title>
<g id="a_edge5_Node000005_Node000006"><a xlink:title=" ">
<path fill="none" stroke="#63b8ff" d="M66.79,-15.24C57.31,-15.24 48.43,-15.24 41.08,-15.24"/>
<polygon fill="#63b8ff" stroke="#63b8ff" points="66.83,-18.74 76.83,-15.24 66.83,-11.74 66.83,-18.74"/>
</a>
</g>
</g>
<!-- Node7&#45;&gt;Node2 -->
<g id="edge13_Node000007_Node000002" class="edge">
<title>Node7&#45;&gt;Node2</title>
<g id="a_edge13_Node000007_Node000002"><a xlink:title=" ">
<path fill="none" stroke="#63b8ff" d="M1061.27,-76.9C1069.72,-76.99 1078.33,-77.01 1086.87,-76.97"/>
<polygon fill="#63b8ff" stroke="#63b8ff" points="1061.1,-73.4 1051.06,-76.77 1061.01,-80.4 1061.1,-73.4"/>
</a>
</g>
</g>
<!-- Node7&#45;&gt;Node3 -->
<g id="edge9_Node000007_Node000003" class="edge">
<title>Node7&#45;&gt;Node3</title>
<g id="a_edge9_Node000007_Node000003"><a xlink:title=" ">
<path fill="none" stroke="#63b8ff" d="M917.73,-81.58C900.26,-84.64 880.9,-87.56 863,-89.24 798.5,-95.29 725.5,-96.48 669.26,-96.19"/>
<polygon fill="#63b8ff" stroke="#63b8ff" points="918.54,-84.99 927.76,-79.77 917.3,-78.1 918.54,-84.99"/>
</a>
</g>
</g>
<!-- Node7&#45;&gt;Node5 -->
<g id="edge10_Node000007_Node000005" class="edge">
<title>Node7&#45;&gt;Node5</title>
<g id="a_edge10_Node000007_Node000005"><a xlink:title=" ">
<path fill="none" stroke="#63b8ff" d="M937.75,-57.33C916.27,-50.14 888.37,-41.58 863,-36.24 632.77,12.26 351.52,0.3 222.02,-9.06"/>
<polygon fill="#63b8ff" stroke="#63b8ff" points="936.84,-60.72 947.44,-60.63 939.1,-54.09 936.84,-60.72"/>
</a>
</g>
</g>
<!-- Node8 -->
<g id="Node000008" class="node">
<title>Node8</title>
<g id="a_Node000008"><a xlink:href="classGameController.html#a637ea4e72ed2be4a2884b30160b3e8ab" target="_top" xlink:title="Pauses the game and displays pause screen.">
<polygon fill="white" stroke="#666666" points="863,-79.74 705,-79.74 705,-60.74 863,-60.74 863,-79.74"/>
<text text-anchor="middle" x="784" y="-67.74" font-family="Helvetica,sans-Serif" font-size="10.00">GameController::pauseGame</text>
</a>
</g>
</g>
<!-- Node7&#45;&gt;Node8 -->
<g id="edge7_Node000007_Node000008" class="edge">
<title>Node7&#45;&gt;Node8</title>
<g id="a_edge7_Node000007_Node000008"><a xlink:title=" ">
<path fill="none" stroke="#63b8ff" d="M888.5,-70.24C880.03,-70.24 871.46,-70.24 863.08,-70.24"/>
<polygon fill="#63b8ff" stroke="#63b8ff" points="888.76,-73.74 898.76,-70.24 888.76,-66.74 888.76,-73.74"/>
</a>
</g>
</g>
<!-- Node9 -->
<g id="Node000009" class="node">
<title>Node9</title>
<g id="a_Node000009"><a xlink:href="classGameController.html#a85bcf4ecfd197aad278e116215a3717b" target="_top" xlink:title="Displays level completion screen.">
<polygon fill="white" stroke="#666666" points="651,-52.24 499,-52.24 499,-22.24 651,-22.24 651,-52.24"/>
<text text-anchor="start" x="507" y="-40.24" font-family="Helvetica,sans-Serif" font-size="10.00">GameController::showLevel</text>
<text text-anchor="middle" x="575" y="-29.24" font-family="Helvetica,sans-Serif" font-size="10.00">CompleteScreen</text>
</a>
</g>
</g>
<!-- Node7&#45;&gt;Node9 -->
<g id="edge11_Node000007_Node000009" class="edge">
<title>Node7&#45;&gt;Node9</title>
<g id="a_edge11_Node000007_Node000009"><a xlink:title=" ">
<path fill="none" stroke="#63b8ff" d="M912.88,-59.11C896.71,-56.5 879.24,-53.97 863,-52.24 791.31,-44.58 709.11,-40.78 651.11,-38.94"/>
<polygon fill="#63b8ff" stroke="#63b8ff" points="912.33,-62.56 922.76,-60.74 913.47,-55.66 912.33,-62.56"/>
</a>
</g>
</g>
<!-- Node8&#45;&gt;Node3 -->
<g id="edge8_Node000008_Node000003" class="edge">
<title>Node8&#45;&gt;Node3</title>
<g id="a_edge8_Node000008_Node000003"><a xlink:title=" ">
<path fill="none" stroke="#63b8ff" d="M694.65,-80.48C682.54,-81.89 670.15,-83.32 658.16,-84.71"/>
<polygon fill="#63b8ff" stroke="#63b8ff" points="695.21,-83.94 704.74,-79.31 694.41,-76.99 695.21,-83.94"/>
</a>
</g>
</g>
<!-- Node9&#45;&gt;Node4 -->
<g id="edge12_Node000009_Node000004" class="edge">
<title>Node9&#45;&gt;Node4</title>
<g id="a_edge12_Node000009_Node000004"><a xlink:title=" ">
<path fill="none" stroke="#63b8ff" d="M488.5,-37.24C474.33,-37.24 459.58,-37.24 445.25,-37.24"/>
<polygon fill="#63b8ff" stroke="#63b8ff" points="488.7,-40.74 498.7,-37.24 488.7,-33.74 488.7,-40.74"/>
</a>
</g>
</g>
</g>
</svg>
