<?xml version="1.0" encoding="UTF-8" standalone="no"?>
<!DOCTYPE svg PUBLIC "-//W3C//DTD SVG 1.1//EN"
 "http://www.w3.org/Graphics/SVG/1.1/DTD/svg11.dtd">
<!-- Generated by graphviz version 2.43.0 (0)
 -->
<!-- Title: PlayerTank::reset Pages: 1 -->
<svg width="1806pt" height="142pt"
 viewBox="0.00 0.00 1806.00 141.64" xmlns="http://www.w3.org/2000/svg" xmlns:xlink="http://www.w3.org/1999/xlink">
<g id="graph0" class="graph" transform="scale(1 1) rotate(0) translate(4 137.64)">
<title>PlayerTank::reset</title>
<!-- Node1 -->
<g id="Node000001" class="node">
<title>Node1</title>
<g id="a_Node000001"><a xlink:title="Resets player tank to initial state.">
<polygon fill="#999999" stroke="#666666" points="1798,-65.5 1697,-65.5 1697,-46.5 1798,-46.5 1798,-65.5"/>
<text text-anchor="middle" x="1747.5" y="-53.5" font-family="Helvetica,sans-Serif" font-size="10.00">PlayerTank::reset</text>
</a>
</g>
</g>
<!-- Node2 -->
<g id="Node000002" class="node">
<title>Node2</title>
<g id="a_Node000002"><a xlink:href="classGameWorld.html#a13fd8123f71f48726bfeb233961f88da" target="_top" xlink:title="Loads specified level.">
<polygon fill="white" stroke="#666666" points="1661,-65.5 1534,-65.5 1534,-46.5 1661,-46.5 1661,-65.5"/>
<text text-anchor="middle" x="1597.5" y="-53.5" font-family="Helvetica,sans-Serif" font-size="10.00">GameWorld::loadLevel</text>
</a>
</g>
</g>
<!-- Node1&#45;&gt;Node2 -->
<g id="edge1_Node000001_Node000002" class="edge">
<title>Node1&#45;&gt;Node2</title>
<g id="a_edge1_Node000001_Node000002"><a xlink:title=" ">
<path fill="none" stroke="#63b8ff" d="M1686.72,-56C1678.31,-56 1669.66,-56 1661.2,-56"/>
<polygon fill="#63b8ff" stroke="#63b8ff" points="1686.81,-59.5 1696.81,-56 1686.81,-52.5 1686.81,-59.5"/>
</a>
</g>
</g>
<!-- Node3 -->
<g id="Node000003" class="node">
<title>Node3</title>
<g id="a_Node000003"><a xlink:href="classGameController.html#a4086fc466d91f45c41b2bc5df06af77a" target="_top" xlink:title="Loads the next game level.">
<polygon fill="white" stroke="#666666" points="1254.5,-33 1110.5,-33 1110.5,-3 1254.5,-3 1254.5,-33"/>
<text text-anchor="start" x="1118.5" y="-21" font-family="Helvetica,sans-Serif" font-size="10.00">GameController::loadNext</text>
<text text-anchor="middle" x="1182.5" y="-10" font-family="Helvetica,sans-Serif" font-size="10.00">Level</text>
</a>
</g>
</g>
<!-- Node2&#45;&gt;Node3 -->
<g id="edge2_Node000002_Node000003" class="edge">
<title>Node2&#45;&gt;Node3</title>
<g id="a_edge2_Node000002_Node000003"><a xlink:title=" ">
<path fill="none" stroke="#63b8ff" d="M1543.6,-44.48C1528.9,-41.64 1512.88,-38.88 1498,-37 1414.83,-26.51 1318.53,-21.77 1254.63,-19.66"/>
<polygon fill="#63b8ff" stroke="#63b8ff" points="1543.05,-47.94 1553.54,-46.45 1544.41,-41.08 1543.05,-47.94"/>
</a>
</g>
</g>
<!-- Node8 -->
<g id="Node000008" class="node">
<title>Node8</title>
<g id="a_Node000008"><a xlink:href="classGameController.html#a09c76a5ae9b8f514163dafe31273f44f" target="_top" xlink:title="Loads the currently selected map.">
<polygon fill="white" stroke="#666666" points="1498,-65.5 1314,-65.5 1314,-46.5 1498,-46.5 1498,-65.5"/>
<text text-anchor="middle" x="1406" y="-53.5" font-family="Helvetica,sans-Serif" font-size="10.00">GameController::loadSelectedMap</text>
</a>
</g>
</g>
<!-- Node2&#45;&gt;Node8 -->
<g id="edge7_Node000002_Node000008" class="edge">
<title>Node2&#45;&gt;Node8</title>
<g id="a_edge7_Node000002_Node000008"><a xlink:title=" ">
<path fill="none" stroke="#63b8ff" d="M1523.86,-56C1515.49,-56 1506.88,-56 1498.3,-56"/>
<polygon fill="#63b8ff" stroke="#63b8ff" points="1523.93,-59.5 1533.93,-56 1523.93,-52.5 1523.93,-59.5"/>
</a>
</g>
</g>
<!-- Node9 -->
<g id="Node000009" class="node">
<title>Node9</title>
<g id="a_Node000009"><a xlink:href="classGameController.html#a4a9c94fe33cf6c73bb5dfc415d04d309" target="_top" xlink:title="Displays map selection screen.">
<polygon fill="white" stroke="#666666" points="1278,-103.5 1087,-103.5 1087,-84.5 1278,-84.5 1278,-103.5"/>
<text text-anchor="middle" x="1182.5" y="-91.5" font-family="Helvetica,sans-Serif" font-size="10.00">GameController::showMapSelection</text>
</a>
</g>
</g>
<!-- Node2&#45;&gt;Node9 -->
<g id="edge19_Node000002_Node000009" class="edge">
<title>Node2&#45;&gt;Node9</title>
<g id="a_edge19_Node000002_Node000009"><a xlink:title=" ">
<path fill="none" stroke="#63b8ff" d="M1543.6,-67.52C1528.9,-70.36 1512.88,-73.12 1498,-75 1424.46,-84.27 1340.66,-89.05 1278.07,-91.5"/>
<polygon fill="#63b8ff" stroke="#63b8ff" points="1544.41,-70.92 1553.54,-65.55 1543.05,-64.06 1544.41,-70.92"/>
</a>
</g>
</g>
<!-- Node4 -->
<g id="Node000004" class="node">
<title>Node4</title>
<g id="a_Node000004"><a xlink:href="classGameController.html#a85bcf4ecfd197aad278e116215a3717b" target="_top" xlink:title="Displays level completion screen.">
<polygon fill="white" stroke="#666666" points="860,-30 708,-30 708,0 860,0 860,-30"/>
<text text-anchor="start" x="716" y="-18" font-family="Helvetica,sans-Serif" font-size="10.00">GameController::showLevel</text>
<text text-anchor="middle" x="784" y="-7" font-family="Helvetica,sans-Serif" font-size="10.00">CompleteScreen</text>
</a>
</g>
</g>
<!-- Node3&#45;&gt;Node4 -->
<g id="edge3_Node000003_Node000004" class="edge">
<title>Node3&#45;&gt;Node4</title>
<g id="a_edge3_Node000003_Node000004"><a xlink:title=" ">
<path fill="none" stroke="#63b8ff" d="M1100,-17.38C1029.58,-16.85 928.65,-16.09 860.15,-15.57"/>
<polygon fill="#63b8ff" stroke="#63b8ff" points="1100.13,-20.88 1110.16,-17.46 1100.18,-13.88 1100.13,-20.88"/>
</a>
</g>
</g>
<!-- Node5 -->
<g id="Node000005" class="node">
<title>Node5</title>
<g id="a_Node000005"><a xlink:href="classGameController.html#af2367e58f03d8a1441c9a574967fd360" target="_top" xlink:title="Processes a single game turn/update cycle.">
<polygon fill="white" stroke="#666666" points="445,-105.5 258,-105.5 258,-86.5 445,-86.5 445,-105.5"/>
<text text-anchor="middle" x="351.5" y="-93.5" font-family="Helvetica,sans-Serif" font-size="10.00">GameController::processGameTurn</text>
</a>
</g>
</g>
<!-- Node4&#45;&gt;Node5 -->
<g id="edge4_Node000004_Node000005" class="edge">
<title>Node4&#45;&gt;Node5</title>
<g id="a_edge4_Node000004_Node000005"><a xlink:title=" ">
<path fill="none" stroke="#63b8ff" d="M697.57,-31.07C609.69,-47.61 475.72,-72.82 403.27,-86.45"/>
<polygon fill="#63b8ff" stroke="#63b8ff" points="698.34,-34.49 707.52,-29.2 697.05,-27.61 698.34,-34.49"/>
</a>
</g>
</g>
<!-- Node6 -->
<g id="Node000006" class="node">
<title>Node6</title>
<g id="a_Node000006"><a xlink:href="classGameController.html#ac958989c8f7f08488546930e5fcb0d82" target="_top" xlink:title="Starts and runs the main game loop.">
<polygon fill="white" stroke="#666666" points="222,-86.5 77,-86.5 77,-67.5 222,-67.5 222,-86.5"/>
<text text-anchor="middle" x="149.5" y="-74.5" font-family="Helvetica,sans-Serif" font-size="10.00">GameController::runGame</text>
</a>
</g>
</g>
<!-- Node5&#45;&gt;Node6 -->
<g id="edge5_Node000005_Node000006" class="edge">
<title>Node5&#45;&gt;Node6</title>
<g id="a_edge5_Node000005_Node000006"><a xlink:title=" ">
<path fill="none" stroke="#63b8ff" d="M247.71,-86.24C239.1,-85.42 230.52,-84.6 222.22,-83.81"/>
<polygon fill="#63b8ff" stroke="#63b8ff" points="247.53,-89.73 257.82,-87.2 248.19,-82.77 247.53,-89.73"/>
</a>
</g>
</g>
<!-- Node7 -->
<g id="Node000007" class="node">
<title>Node7</title>
<g id="a_Node000007"><a xlink:href="main_8cpp.html#ae66f6b31b5ad750f1fe042a706a4e3d4" target="_top" xlink:title="Main function that serves as the application entry point.">
<polygon fill="white" stroke="#666666" points="41,-86.5 0,-86.5 0,-67.5 41,-67.5 41,-86.5"/>
<text text-anchor="middle" x="20.5" y="-74.5" font-family="Helvetica,sans-Serif" font-size="10.00">main</text>
</a>
</g>
</g>
<!-- Node6&#45;&gt;Node7 -->
<g id="edge6_Node000006_Node000007" class="edge">
<title>Node6&#45;&gt;Node7</title>
<g id="a_edge6_Node000006_Node000007"><a xlink:title=" ">
<path fill="none" stroke="#63b8ff" d="M66.79,-77C57.31,-77 48.43,-77 41.08,-77"/>
<polygon fill="#63b8ff" stroke="#63b8ff" points="66.83,-80.5 76.83,-77 66.83,-73.5 66.83,-80.5"/>
</a>
</g>
</g>
<!-- Node8&#45;&gt;Node3 -->
<g id="edge8_Node000008_Node000003" class="edge">
<title>Node8&#45;&gt;Node3</title>
<g id="a_edge8_Node000008_Node000003"><a xlink:title=" ">
<path fill="none" stroke="#63b8ff" d="M1339.4,-44.75C1312.74,-40.17 1281.87,-34.88 1254.67,-30.21"/>
<polygon fill="#63b8ff" stroke="#63b8ff" points="1338.94,-48.22 1349.39,-46.46 1340.13,-41.32 1338.94,-48.22"/>
</a>
</g>
</g>
<!-- Node8&#45;&gt;Node9 -->
<g id="edge9_Node000008_Node000009" class="edge">
<title>Node8&#45;&gt;Node9</title>
<g id="a_edge9_Node000008_Node000009"><a xlink:title=" ">
<path fill="none" stroke="#63b8ff" d="M1339.27,-67.28C1307.41,-72.74 1269.55,-79.24 1239.13,-84.46"/>
<polygon fill="#63b8ff" stroke="#63b8ff" points="1340.13,-70.68 1349.39,-65.54 1338.94,-63.78 1340.13,-70.68"/>
</a>
</g>
</g>
<!-- Node10 -->
<g id="Node000010" class="node">
<title>Node10</title>
<g id="a_Node000010"><a xlink:href="classGameController.html#a971b3d8f6296a74f0bebc83b5e79c186" target="_top" xlink:title="Processes a user command.">
<polygon fill="white" stroke="#666666" points="669,-124.5 481,-124.5 481,-105.5 669,-105.5 669,-124.5"/>
<text text-anchor="middle" x="575" y="-112.5" font-family="Helvetica,sans-Serif" font-size="10.00">GameController::processCommand</text>
</a>
</g>
</g>
<!-- Node9&#45;&gt;Node10 -->
<g id="edge10_Node000009_Node000010" class="edge">
<title>Node9&#45;&gt;Node10</title>
<g id="a_edge10_Node000009_Node000010"><a xlink:title=" ">
<path fill="none" stroke="#63b8ff" d="M1114.67,-105.07C1022.54,-118.99 851.28,-140.04 705,-131 683.83,-129.69 660.81,-127.19 640.16,-124.54"/>
<polygon fill="#63b8ff" stroke="#63b8ff" points="1115.34,-108.51 1124.7,-103.54 1114.28,-101.59 1115.34,-108.51"/>
</a>
</g>
</g>
<!-- Node11 -->
<g id="Node000011" class="node">
<title>Node11</title>
<g id="a_Node000011"><a xlink:href="classGameController.html#a9d11b5a6255b7249bddba49df0837cf3" target="_top" xlink:title="Displays and manages the main menu.">
<polygon fill="white" stroke="#666666" points="1051,-103.5 899,-103.5 899,-84.5 1051,-84.5 1051,-103.5"/>
<text text-anchor="middle" x="975" y="-91.5" font-family="Helvetica,sans-Serif" font-size="10.00">GameController::showMenu</text>
</a>
</g>
</g>
<!-- Node9&#45;&gt;Node11 -->
<g id="edge12_Node000009_Node000011" class="edge">
<title>Node9&#45;&gt;Node11</title>
<g id="a_edge12_Node000009_Node000011"><a xlink:title=" ">
<path fill="none" stroke="#63b8ff" d="M1076.72,-87.25C1068.06,-87.26 1059.43,-87.34 1051.06,-87.47"/>
<polygon fill="#63b8ff" stroke="#63b8ff" points="1076.86,-90.75 1086.87,-87.27 1076.88,-83.75 1076.86,-90.75"/>
</a>
</g>
</g>
<!-- Node10&#45;&gt;Node5 -->
<g id="edge11_Node000010_Node000005" class="edge">
<title>Node10&#45;&gt;Node5</title>
<g id="a_edge11_Node000010_Node000005"><a xlink:title=" ">
<path fill="none" stroke="#63b8ff" d="M470.5,-106.12C462.1,-105.4 453.65,-104.68 445.33,-103.96"/>
<polygon fill="#63b8ff" stroke="#63b8ff" points="470.44,-109.63 480.71,-107 471.04,-102.66 470.44,-109.63"/>
</a>
</g>
</g>
<!-- Node11&#45;&gt;Node4 -->
<g id="edge17_Node000011_Node000004" class="edge">
<title>Node11&#45;&gt;Node4</title>
<g id="a_edge17_Node000011_Node000004"><a xlink:title=" ">
<path fill="none" stroke="#63b8ff" d="M944.49,-80.05C922.26,-69.71 890.93,-55.47 863,-44 851.51,-39.28 838.93,-34.46 827.3,-30.14"/>
<polygon fill="#63b8ff" stroke="#63b8ff" points="943.18,-83.31 953.72,-84.37 946.14,-76.96 943.18,-83.31"/>
</a>
</g>
</g>
<!-- Node11&#45;&gt;Node6 -->
<g id="edge16_Node000011_Node000006" class="edge">
<title>Node11&#45;&gt;Node6</title>
<g id="a_edge16_Node000011_Node000006"><a xlink:title=" ">
<path fill="none" stroke="#63b8ff" d="M908.65,-83.01C893.69,-80.93 877.83,-79.07 863,-78 629.05,-61.06 350.76,-68.67 222.17,-73.75"/>
<polygon fill="#63b8ff" stroke="#63b8ff" points="908.44,-86.51 918.84,-84.48 909.44,-79.59 908.44,-86.51"/>
</a>
</g>
</g>
<!-- Node11&#45;&gt;Node9 -->
<g id="edge18_Node000011_Node000009" class="edge">
<title>Node11&#45;&gt;Node9</title>
<g id="a_edge18_Node000011_Node000009"><a xlink:title=" ">
<path fill="none" stroke="#63b8ff" d="M1061.27,-100.66C1069.72,-100.75 1078.33,-100.77 1086.87,-100.73"/>
<polygon fill="#63b8ff" stroke="#63b8ff" points="1061.1,-97.16 1051.06,-100.53 1061.01,-104.16 1061.1,-97.16"/>
</a>
</g>
</g>
<!-- Node11&#45;&gt;Node10 -->
<g id="edge15_Node000011_Node000010" class="edge">
<title>Node11&#45;&gt;Node10</title>
<g id="a_edge15_Node000011_Node000010"><a xlink:title=" ">
<path fill="none" stroke="#63b8ff" d="M923.76,-105.56C904.83,-109.38 883.03,-113.12 863,-115 798.51,-121.05 725.51,-120.95 669.27,-119.39"/>
<polygon fill="#63b8ff" stroke="#63b8ff" points="924.58,-108.97 933.66,-103.51 923.16,-102.11 924.58,-108.97"/>
</a>
</g>
</g>
<!-- Node12 -->
<g id="Node000012" class="node">
<title>Node12</title>
<g id="a_Node000012"><a xlink:href="classGameController.html#a637ea4e72ed2be4a2884b30160b3e8ab" target="_top" xlink:title="Pauses the game and displays pause screen.">
<polygon fill="white" stroke="#666666" points="863,-105.5 705,-105.5 705,-86.5 863,-86.5 863,-105.5"/>
<text text-anchor="middle" x="784" y="-93.5" font-family="Helvetica,sans-Serif" font-size="10.00">GameController::pauseGame</text>
</a>
</g>
</g>
<!-- Node11&#45;&gt;Node12 -->
<g id="edge13_Node000011_Node000012" class="edge">
<title>Node11&#45;&gt;Node12</title>
<g id="a_edge13_Node000011_Node000012"><a xlink:title=" ">
<path fill="none" stroke="#63b8ff" d="M888.5,-94.9C880.03,-94.99 871.46,-95.09 863.08,-95.17"/>
<polygon fill="#63b8ff" stroke="#63b8ff" points="888.8,-98.4 898.76,-94.8 888.72,-91.4 888.8,-98.4"/>
</a>
</g>
</g>
<!-- Node12&#45;&gt;Node10 -->
<g id="edge14_Node000012_Node000010" class="edge">
<title>Node12&#45;&gt;Node10</title>
<g id="a_edge14_Node000012_Node000010"><a xlink:title=" ">
<path fill="none" stroke="#63b8ff" d="M694.62,-104.11C686.25,-104.88 677.75,-105.66 669.34,-106.43"/>
<polygon fill="#63b8ff" stroke="#63b8ff" points="695.1,-107.58 704.74,-103.18 694.46,-100.61 695.1,-107.58"/>
</a>
</g>
</g>
</g>
</svg>
