<?xml version="1.0" encoding="UTF-8" standalone="no"?>
<!DOCTYPE svg PUBLIC "-//W3C//DTD SVG 1.1//EN"
 "http://www.w3.org/Graphics/SVG/1.1/DTD/svg11.dtd">
<!-- Generated by graphviz version 2.43.0 (0)
 -->
<!-- Title: EnemyTank::getDirectionToPlayer Pages: 1 -->
<svg width="1151pt" height="291pt"
 viewBox="0.00 0.00 1151.00 290.79" xmlns="http://www.w3.org/2000/svg" xmlns:xlink="http://www.w3.org/1999/xlink">
<g id="graph0" class="graph" transform="scale(1 1) rotate(0) translate(4 286.79)">
<title>EnemyTank::getDirectionToPlayer</title>
<!-- Node1 -->
<g id="Node000001" class="node">
<title>Node1</title>
<g id="a_Node000001"><a xlink:title="Gets direction towards last known player position.">
<polygon fill="#999999" stroke="#666666" points="1143,-157.5 994,-157.5 994,-127.5 1143,-127.5 1143,-157.5"/>
<text text-anchor="start" x="1002" y="-145.5" font-family="Helvetica,sans-Serif" font-size="10.00">EnemyTank::getDirectionTo</text>
<text text-anchor="middle" x="1068.5" y="-134.5" font-family="Helvetica,sans-Serif" font-size="10.00">Player</text>
</a>
</g>
</g>
<!-- Node2 -->
<g id="Node000002" class="node">
<title>Node2</title>
<g id="a_Node000002"><a xlink:href="classEnemyTank.html#a5b53b4d6721012b14e41a0882bd1c2a3" target="_top" xlink:title="Executes aggressive behavior.">
<polygon fill="white" stroke="#666666" points="745,-133 569,-133 569,-114 745,-114 745,-133"/>
<text text-anchor="middle" x="657" y="-121" font-family="Helvetica,sans-Serif" font-size="10.00">EnemyTank::aggressiveBehavior</text>
</a>
</g>
</g>
<!-- Node1&#45;&gt;Node2 -->
<g id="edge1_Node000001_Node000002" class="edge">
<title>Node1&#45;&gt;Node2</title>
<g id="a_edge1_Node000001_Node000002"><a xlink:title=" ">
<path fill="none" stroke="#63b8ff" d="M983.78,-138.62C914.29,-135.39 815.78,-130.82 745.31,-127.55"/>
<polygon fill="#63b8ff" stroke="#63b8ff" points="983.67,-142.11 993.82,-139.08 983.99,-135.12 983.67,-142.11"/>
</a>
</g>
</g>
<!-- Node5 -->
<g id="Node000005" class="node">
<title>Node5</title>
<g id="a_Node000005"><a xlink:href="classEnemyTank.html#a5759e09a78eab14d4b85dc1bd93ead19" target="_top" xlink:title="Attempts to shoot at player.">
<polygon fill="white" stroke="#666666" points="727,-57 587,-57 587,-38 727,-38 727,-57"/>
<text text-anchor="middle" x="657" y="-45" font-family="Helvetica,sans-Serif" font-size="10.00">EnemyTank::attemptShot</text>
</a>
</g>
</g>
<!-- Node1&#45;&gt;Node5 -->
<g id="edge4_Node000001_Node000005" class="edge">
<title>Node1&#45;&gt;Node5</title>
<g id="a_edge4_Node000001_Node000005"><a xlink:title=" ">
<path fill="none" stroke="#63b8ff" d="M1043.99,-120.42C1023.15,-102.35 990.99,-77.98 958,-66.5 882.22,-40.12 789.26,-38.57 727.08,-41.55"/>
<polygon fill="#63b8ff" stroke="#63b8ff" points="1041.86,-123.21 1051.66,-127.23 1046.51,-117.97 1041.86,-123.21"/>
</a>
</g>
</g>
<!-- Node6 -->
<g id="Node000006" class="node">
<title>Node6</title>
<g id="a_Node000006"><a xlink:href="classEnemyTank.html#aa70aff895200207527e2465c9439fc05" target="_top" xlink:title="Carefully approaches player.">
<polygon fill="white" stroke="#666666" points="740,-180 574,-180 574,-161 740,-161 740,-180"/>
<text text-anchor="middle" x="657" y="-168" font-family="Helvetica,sans-Serif" font-size="10.00">EnemyTank::cautiousApproach</text>
</a>
</g>
</g>
<!-- Node1&#45;&gt;Node6 -->
<g id="edge6_Node000001_Node000006" class="edge">
<title>Node1&#45;&gt;Node6</title>
<g id="a_edge6_Node000001_Node000006"><a xlink:title=" ">
<path fill="none" stroke="#63b8ff" d="M1024.39,-161.2C1004.57,-168.81 980.51,-176.71 958,-180.5 877.58,-194.06 783.37,-187.3 722.28,-180"/>
<polygon fill="#63b8ff" stroke="#63b8ff" points="1025.74,-164.43 1033.75,-157.5 1023.16,-157.92 1025.74,-164.43"/>
</a>
</g>
</g>
<!-- Node7 -->
<g id="Node000007" class="node">
<title>Node7</title>
<g id="a_Node000007"><a xlink:href="classEnemyTank.html#a39add8a8beb8bb7b69124753ec2dae74" target="_top" xlink:title="Executes defensive behavior.">
<polygon fill="white" stroke="#666666" points="524.5,-180 354.5,-180 354.5,-161 524.5,-161 524.5,-180"/>
<text text-anchor="middle" x="439.5" y="-168" font-family="Helvetica,sans-Serif" font-size="10.00">EnemyTank::defensiveBehavior</text>
</a>
</g>
</g>
<!-- Node1&#45;&gt;Node7 -->
<g id="edge9_Node000001_Node000007" class="edge">
<title>Node1&#45;&gt;Node7</title>
<g id="a_edge9_Node000001_Node000007"><a xlink:title=" ">
<path fill="none" stroke="#63b8ff" d="M1053.2,-166.36C1035.05,-194.04 1000.87,-238.23 958,-256.5 774.09,-334.86 525.1,-215.62 457.84,-180.02"/>
<polygon fill="#63b8ff" stroke="#63b8ff" points="1056.32,-167.98 1058.73,-157.66 1050.41,-164.22 1056.32,-167.98"/>
</a>
</g>
</g>
<!-- Node8 -->
<g id="Node000008" class="node">
<title>Node8</title>
<g id="a_Node000008"><a xlink:href="classEnemyTank.html#a85bd09ffb86b2c36c6b76fe6f6752324" target="_top" xlink:title="Moves away from player.">
<polygon fill="white" stroke="#666666" points="946.5,-95 792.5,-95 792.5,-76 946.5,-76 946.5,-95"/>
<text text-anchor="middle" x="869.5" y="-83" font-family="Helvetica,sans-Serif" font-size="10.00">EnemyTank::defensiveMove</text>
</a>
</g>
</g>
<!-- Node1&#45;&gt;Node8 -->
<g id="edge10_Node000001_Node000008" class="edge">
<title>Node1&#45;&gt;Node8</title>
<g id="a_edge10_Node000001_Node000008"><a xlink:title=" ">
<path fill="none" stroke="#63b8ff" d="M1008.55,-124.44C992.2,-119.51 974.43,-114.23 958,-109.5 941.05,-104.62 922.18,-99.42 906.32,-95.11"/>
<polygon fill="#63b8ff" stroke="#63b8ff" points="1007.93,-127.91 1018.52,-127.45 1009.96,-121.21 1007.93,-127.91"/>
</a>
</g>
</g>
<!-- Node9 -->
<g id="Node000009" class="node">
<title>Node9</title>
<g id="a_Node000009"><a xlink:href="classEnemyTank.html#a3038987b5595e2ec68508dfde4a35d51" target="_top" xlink:title="Searches for cover.">
<polygon fill="white" stroke="#666666" points="932,-247 807,-247 807,-228 932,-228 932,-247"/>
<text text-anchor="middle" x="869.5" y="-235" font-family="Helvetica,sans-Serif" font-size="10.00">EnemyTank::findCover</text>
</a>
</g>
</g>
<!-- Node1&#45;&gt;Node9 -->
<g id="edge13_Node000001_Node000009" class="edge">
<title>Node1&#45;&gt;Node9</title>
<g id="a_edge13_Node000001_Node000009"><a xlink:title=" ">
<path fill="none" stroke="#63b8ff" d="M1040.12,-163.67C1018.76,-179.32 987.8,-200.14 958,-213.5 944.63,-219.49 929.43,-224.3 915.49,-227.99"/>
<polygon fill="#63b8ff" stroke="#63b8ff" points="1042.44,-166.3 1048.38,-157.53 1038.26,-160.69 1042.44,-166.3"/>
</a>
</g>
</g>
<!-- Node10 -->
<g id="Node000010" class="node">
<title>Node10</title>
<g id="a_Node000010"><a xlink:href="classEnemyTank.html#a502b571b6aadbbcd72392d182b7fd85c" target="_top" xlink:title="Fires projectile from enemy tank.">
<polygon fill="white" stroke="#666666" points="917,-19 822,-19 822,0 917,0 917,-19"/>
<text text-anchor="middle" x="869.5" y="-7" font-family="Helvetica,sans-Serif" font-size="10.00">EnemyTank::fire</text>
</a>
</g>
</g>
<!-- Node1&#45;&gt;Node10 -->
<g id="edge15_Node000001_Node000010" class="edge">
<title>Node1&#45;&gt;Node10</title>
<g id="a_edge15_Node000001_Node000010"><a xlink:title=" ">
<path fill="none" stroke="#63b8ff" d="M1050.2,-119.2C1030.54,-94.37 996.19,-55.64 958,-33.5 945.6,-26.31 930.96,-21.2 917.24,-17.6"/>
<polygon fill="#63b8ff" stroke="#63b8ff" points="1047.63,-121.6 1056.52,-127.36 1053.16,-117.31 1047.63,-121.6"/>
</a>
</g>
</g>
<!-- Node15 -->
<g id="Node000015" class="node">
<title>Node15</title>
<g id="a_Node000015"><a xlink:href="classEnemyTank.html#aa7421a7881c97b14301ef95e11fac1a8" target="_top" xlink:title="Moves towards player position.">
<polygon fill="white" stroke="#666666" points="958,-171 781,-171 781,-152 958,-152 958,-171"/>
<text text-anchor="middle" x="869.5" y="-159" font-family="Helvetica,sans-Serif" font-size="10.00">EnemyTank::moveTowardsPlayer</text>
</a>
</g>
</g>
<!-- Node1&#45;&gt;Node15 -->
<g id="edge21_Node000001_Node000015" class="edge">
<title>Node1&#45;&gt;Node15</title>
<g id="a_edge21_Node000001_Node000015"><a xlink:title=" ">
<path fill="none" stroke="#63b8ff" d="M983.9,-150.56C975.33,-151.39 966.61,-152.23 958,-153.06"/>
<polygon fill="#63b8ff" stroke="#63b8ff" points="984.25,-154.05 993.86,-149.6 983.57,-147.08 984.25,-154.05"/>
</a>
</g>
</g>
<!-- Node3 -->
<g id="Node000003" class="node">
<title>Node3</title>
<g id="a_Node000003"><a xlink:href="classEnemyTank.html#a338556623afc739ebf5585caaa73fcdb" target="_top" xlink:title="Decides next action based on behavior.">
<polygon fill="white" stroke="#666666" points="310,-133 149,-133 149,-114 310,-114 310,-133"/>
<text text-anchor="middle" x="229.5" y="-121" font-family="Helvetica,sans-Serif" font-size="10.00">EnemyTank::decideNextMove</text>
</a>
</g>
</g>
<!-- Node2&#45;&gt;Node3 -->
<g id="edge2_Node000002_Node000003" class="edge">
<title>Node2&#45;&gt;Node3</title>
<g id="a_edge2_Node000002_Node000003"><a xlink:title=" ">
<path fill="none" stroke="#63b8ff" d="M558.45,-123.5C483.28,-123.5 380.65,-123.5 310.33,-123.5"/>
<polygon fill="#63b8ff" stroke="#63b8ff" points="558.87,-127 568.87,-123.5 558.87,-120 558.87,-127"/>
</a>
</g>
</g>
<!-- Node4 -->
<g id="Node000004" class="node">
<title>Node4</title>
<g id="a_Node000004"><a xlink:href="classEnemyTank.html#a7ae5efc6eff4e7a19abb7f37b44835fc" target="_top" xlink:title="Updates enemy tank state and AI decisions.">
<polygon fill="white" stroke="#666666" points="113,-133 0,-133 0,-114 113,-114 113,-133"/>
<text text-anchor="middle" x="56.5" y="-121" font-family="Helvetica,sans-Serif" font-size="10.00">EnemyTank::update</text>
</a>
</g>
</g>
<!-- Node3&#45;&gt;Node4 -->
<g id="edge3_Node000003_Node000004" class="edge">
<title>Node3&#45;&gt;Node4</title>
<g id="a_edge3_Node000003_Node000004"><a xlink:title=" ">
<path fill="none" stroke="#63b8ff" d="M138.6,-123.5C129.96,-123.5 121.38,-123.5 113.21,-123.5"/>
<polygon fill="#63b8ff" stroke="#63b8ff" points="138.76,-127 148.76,-123.5 138.76,-120 138.76,-127"/>
</a>
</g>
</g>
<!-- Node5&#45;&gt;Node3 -->
<g id="edge5_Node000005_Node000003" class="edge">
<title>Node5&#45;&gt;Node3</title>
<g id="a_edge5_Node000005_Node000003"><a xlink:title=" ">
<path fill="none" stroke="#63b8ff" d="M592.63,-58.82C508.71,-73.81 362.22,-99.97 283.74,-113.99"/>
<polygon fill="#63b8ff" stroke="#63b8ff" points="593.31,-62.25 602.54,-57.05 592.08,-55.36 593.31,-62.25"/>
</a>
</g>
</g>
<!-- Node6&#45;&gt;Node7 -->
<g id="edge7_Node000006_Node000007" class="edge">
<title>Node6&#45;&gt;Node7</title>
<g id="a_edge7_Node000006_Node000007"><a xlink:title=" ">
<path fill="none" stroke="#63b8ff" d="M563.58,-170.5C550.6,-170.5 537.32,-170.5 524.5,-170.5"/>
<polygon fill="#63b8ff" stroke="#63b8ff" points="563.91,-174 573.91,-170.5 563.91,-167 563.91,-174"/>
</a>
</g>
</g>
<!-- Node7&#45;&gt;Node3 -->
<g id="edge8_Node000007_Node000003" class="edge">
<title>Node7&#45;&gt;Node3</title>
<g id="a_edge8_Node000007_Node000003"><a xlink:title=" ">
<path fill="none" stroke="#63b8ff" d="M386.36,-158.72C351.31,-150.8 305.7,-140.49 272.89,-133.08"/>
<polygon fill="#63b8ff" stroke="#63b8ff" points="385.88,-162.2 396.41,-160.99 387.43,-155.37 385.88,-162.2"/>
</a>
</g>
</g>
<!-- Node8&#45;&gt;Node2 -->
<g id="edge11_Node000008_Node000002" class="edge">
<title>Node8&#45;&gt;Node2</title>
<g id="a_edge11_Node000008_Node000002"><a xlink:title=" ">
<path fill="none" stroke="#63b8ff" d="M805.64,-96.85C775.44,-102.3 739.65,-108.76 710.87,-113.96"/>
<polygon fill="#63b8ff" stroke="#63b8ff" points="806.43,-100.26 815.65,-95.04 805.19,-93.37 806.43,-100.26"/>
</a>
</g>
</g>
<!-- Node8&#45;&gt;Node7 -->
<g id="edge12_Node000008_Node000007" class="edge">
<title>Node8&#45;&gt;Node7</title>
<g id="a_edge12_Node000008_Node000007"><a xlink:title=" ">
<path fill="none" stroke="#63b8ff" d="M782.01,-81.72C721.35,-81.3 638.92,-85.23 569,-104.5 524.27,-116.83 477.08,-145.81 454.35,-160.93"/>
<polygon fill="#63b8ff" stroke="#63b8ff" points="782.28,-85.23 792.32,-81.84 782.36,-78.23 782.28,-85.23"/>
</a>
</g>
</g>
<!-- Node9&#45;&gt;Node7 -->
<g id="edge14_Node000009_Node000007" class="edge">
<title>Node9&#45;&gt;Node7</title>
<g id="a_edge14_Node000009_Node000007"><a xlink:title=" ">
<path fill="none" stroke="#63b8ff" d="M797.57,-226.4C714.9,-213.46 579.67,-192.29 501.5,-180.05"/>
<polygon fill="#63b8ff" stroke="#63b8ff" points="797.21,-229.88 807.63,-227.97 798.29,-222.97 797.21,-229.88"/>
</a>
</g>
</g>
<!-- Node10&#45;&gt;Node5 -->
<g id="edge16_Node000010_Node000005" class="edge">
<title>Node10&#45;&gt;Node5</title>
<g id="a_edge16_Node000010_Node000005"><a xlink:title=" ">
<path fill="none" stroke="#63b8ff" d="M811.87,-19.72C780.47,-25.39 741.67,-32.4 710.88,-37.95"/>
<polygon fill="#63b8ff" stroke="#63b8ff" points="812.56,-23.15 821.78,-17.93 811.32,-16.27 812.56,-23.15"/>
</a>
</g>
</g>
<!-- Node11 -->
<g id="Node000011" class="node">
<title>Node11</title>
<g id="a_Node000011"><a xlink:href="classGameWorld.html#ab645acf30cb0a4640a8fb5b88c5c7c94" target="_top" xlink:title="Updates all game objects and logic.">
<polygon fill="white" stroke="#666666" points="713.5,-19 600.5,-19 600.5,0 713.5,0 713.5,-19"/>
<text text-anchor="middle" x="657" y="-7" font-family="Helvetica,sans-Serif" font-size="10.00">GameWorld::update</text>
</a>
</g>
</g>
<!-- Node10&#45;&gt;Node11 -->
<g id="edge17_Node000010_Node000011" class="edge">
<title>Node10&#45;&gt;Node11</title>
<g id="a_edge17_Node000010_Node000011"><a xlink:title=" ">
<path fill="none" stroke="#63b8ff" d="M811.73,-9.5C781.26,-9.5 743.84,-9.5 713.55,-9.5"/>
<polygon fill="#63b8ff" stroke="#63b8ff" points="811.78,-13 821.78,-9.5 811.78,-6 811.78,-13"/>
</a>
</g>
</g>
<!-- Node12 -->
<g id="Node000012" class="node">
<title>Node12</title>
<g id="a_Node000012"><a xlink:href="classGameController.html#af2367e58f03d8a1441c9a574967fd360" target="_top" xlink:title="Processes a single game turn/update cycle.">
<polygon fill="white" stroke="#666666" points="533,-19 346,-19 346,0 533,0 533,-19"/>
<text text-anchor="middle" x="439.5" y="-7" font-family="Helvetica,sans-Serif" font-size="10.00">GameController::processGameTurn</text>
</a>
</g>
</g>
<!-- Node11&#45;&gt;Node12 -->
<g id="edge18_Node000011_Node000012" class="edge">
<title>Node11&#45;&gt;Node12</title>
<g id="a_edge18_Node000011_Node000012"><a xlink:title=" ">
<path fill="none" stroke="#63b8ff" d="M590.16,-9.5C572.19,-9.5 552.38,-9.5 533.21,-9.5"/>
<polygon fill="#63b8ff" stroke="#63b8ff" points="590.22,-13 600.22,-9.5 590.22,-6 590.22,-13"/>
</a>
</g>
</g>
<!-- Node13 -->
<g id="Node000013" class="node">
<title>Node13</title>
<g id="a_Node000013"><a xlink:href="classGameController.html#ac958989c8f7f08488546930e5fcb0d82" target="_top" xlink:title="Starts and runs the main game loop.">
<polygon fill="white" stroke="#666666" points="302,-19 157,-19 157,0 302,0 302,-19"/>
<text text-anchor="middle" x="229.5" y="-7" font-family="Helvetica,sans-Serif" font-size="10.00">GameController::runGame</text>
</a>
</g>
</g>
<!-- Node12&#45;&gt;Node13 -->
<g id="edge19_Node000012_Node000013" class="edge">
<title>Node12&#45;&gt;Node13</title>
<g id="a_edge19_Node000012_Node000013"><a xlink:title=" ">
<path fill="none" stroke="#63b8ff" d="M335.44,-9.5C324.18,-9.5 312.91,-9.5 302.15,-9.5"/>
<polygon fill="#63b8ff" stroke="#63b8ff" points="335.75,-13 345.75,-9.5 335.75,-6 335.75,-13"/>
</a>
</g>
</g>
<!-- Node14 -->
<g id="Node000014" class="node">
<title>Node14</title>
<g id="a_Node000014"><a xlink:href="main_8cpp.html#ae66f6b31b5ad750f1fe042a706a4e3d4" target="_top" xlink:title="Main function that serves as the application entry point.">
<polygon fill="white" stroke="#666666" points="77,-19 36,-19 36,0 77,0 77,-19"/>
<text text-anchor="middle" x="56.5" y="-7" font-family="Helvetica,sans-Serif" font-size="10.00">main</text>
</a>
</g>
</g>
<!-- Node13&#45;&gt;Node14 -->
<g id="edge20_Node000013_Node000014" class="edge">
<title>Node13&#45;&gt;Node14</title>
<g id="a_edge20_Node000013_Node000014"><a xlink:title=" ">
<path fill="none" stroke="#63b8ff" d="M146.74,-9.5C120.92,-9.5 94.64,-9.5 77.36,-9.5"/>
<polygon fill="#63b8ff" stroke="#63b8ff" points="146.97,-13 156.97,-9.5 146.97,-6 146.97,-13"/>
</a>
</g>
</g>
<!-- Node15&#45;&gt;Node2 -->
<g id="edge22_Node000015_Node000002" class="edge">
<title>Node15&#45;&gt;Node2</title>
<g id="a_edge22_Node000015_Node000002"><a xlink:title=" ">
<path fill="none" stroke="#63b8ff" d="M805.64,-150.15C775.44,-144.7 739.65,-138.24 710.87,-133.04"/>
<polygon fill="#63b8ff" stroke="#63b8ff" points="805.19,-153.63 815.65,-151.96 806.43,-146.74 805.19,-153.63"/>
</a>
</g>
</g>
<!-- Node15&#45;&gt;Node6 -->
<g id="edge23_Node000015_Node000006" class="edge">
<title>Node15&#45;&gt;Node6</title>
<g id="a_edge23_Node000015_Node000006"><a xlink:title=" ">
<path fill="none" stroke="#63b8ff" d="M770.63,-165.68C760.45,-166.12 750.19,-166.56 740.21,-166.98"/>
<polygon fill="#63b8ff" stroke="#63b8ff" points="770.91,-169.18 780.75,-165.25 770.61,-162.18 770.91,-169.18"/>
</a>
</g>
</g>
</g>
</svg>
