<?xml version="1.0" encoding="UTF-8" standalone="no"?>
<!DOCTYPE svg PUBLIC "-//W3C//DTD SVG 1.1//EN"
 "http://www.w3.org/Graphics/SVG/1.1/DTD/svg11.dtd">
<!-- Generated by graphviz version 2.43.0 (0)
 -->
<!-- Title: InputHandler::waitForCommand Pages: 1 -->
<svg width="521pt" height="46pt"
 viewBox="0.00 0.00 521.00 46.00" xmlns="http://www.w3.org/2000/svg" xmlns:xlink="http://www.w3.org/1999/xlink">
<g id="graph0" class="graph" transform="scale(1 1) rotate(0) translate(4 42)">
<title>InputHandler::waitForCommand</title>
<!-- Node1 -->
<g id="Node000001" class="node">
<title>Node1</title>
<g id="a_Node000001"><a xlink:title="Waits for and returns a user command.">
<polygon fill="#999999" stroke="#666666" points="172,-38 0,-38 0,-19 172,-19 172,-38"/>
<text text-anchor="middle" x="86" y="-26" font-family="Helvetica,sans-Serif" font-size="10.00">InputHandler::waitForCommand</text>
</a>
</g>
</g>
<!-- Node2 -->
<g id="Node000002" class="node">
<title>Node2</title>
<g id="a_Node000002"><a xlink:href="classPlatformUtils.html#ab1da035f72ad2772a6ec8fbc4b34560a" target="_top" xlink:title="Checks if a key has been pressed.">
<polygon fill="white" stroke="#666666" points="513,-38 401,-38 401,-19 513,-19 513,-38"/>
<text text-anchor="middle" x="457" y="-26" font-family="Helvetica,sans-Serif" font-size="10.00">PlatformUtils::kbhit</text>
</a>
</g>
</g>
<!-- Node1&#45;&gt;Node2 -->
<g id="edge1_Node000001_Node000002" class="edge">
<title>Node1&#45;&gt;Node2</title>
<g id="a_edge1_Node000001_Node000002"><a xlink:title=" ">
<path fill="none" stroke="#63b8ff" d="M172.12,-28.5C238.62,-28.5 329.66,-28.5 390.54,-28.5"/>
<polygon fill="#63b8ff" stroke="#63b8ff" points="390.79,-32 400.79,-28.5 390.79,-25 390.79,-32"/>
</a>
</g>
</g>
<!-- Node3 -->
<g id="Node000003" class="node">
<title>Node3</title>
<g id="a_Node000003"><a xlink:href="classPlatformUtils.html#a4f63e74483ea78a709c332539f45ac27" target="_top" xlink:title="Reads a single UTF&#45;8 character from input.">
<polygon fill="white" stroke="#666666" points="365,-19 208,-19 208,0 365,0 365,-19"/>
<text text-anchor="middle" x="286.5" y="-7" font-family="Helvetica,sans-Serif" font-size="10.00">PlatformUtils::readUTF8Char</text>
</a>
</g>
</g>
<!-- Node1&#45;&gt;Node3 -->
<g id="edge2_Node000001_Node000003" class="edge">
<title>Node1&#45;&gt;Node3</title>
<g id="a_edge2_Node000001_Node000003"><a xlink:title=" ">
<path fill="none" stroke="#63b8ff" d="M172.05,-20.36C180.59,-19.54 189.28,-18.71 197.85,-17.89"/>
<polygon fill="#63b8ff" stroke="#63b8ff" points="198.23,-21.37 207.85,-16.93 197.56,-14.4 198.23,-21.37"/>
</a>
</g>
</g>
<!-- Node3&#45;&gt;Node2 -->
<g id="edge3_Node000003_Node000002" class="edge">
<title>Node3&#45;&gt;Node2</title>
<g id="a_edge3_Node000003_Node000002"><a xlink:title=" ">
<path fill="none" stroke="#63b8ff" d="M365.34,-18.28C373.8,-19.23 382.34,-20.19 390.63,-21.13"/>
<polygon fill="#63b8ff" stroke="#63b8ff" points="390.27,-24.61 400.6,-22.25 391.05,-17.65 390.27,-24.61"/>
</a>
</g>
</g>
</g>
</svg>
