<?xml version="1.0" encoding="UTF-8" standalone="no"?>
<!DOCTYPE svg PUBLIC "-//W3C//DTD SVG 1.1//EN"
 "http://www.w3.org/Graphics/SVG/1.1/DTD/svg11.dtd">
<!-- Generated by graphviz version 2.43.0 (0)
 -->
<!-- Title: EnemyTank::randomBehavior Pages: 1 -->
<svg width="1141pt" height="96pt"
 viewBox="0.00 0.00 1141.00 95.56" xmlns="http://www.w3.org/2000/svg" xmlns:xlink="http://www.w3.org/1999/xlink">
<g id="graph0" class="graph" transform="scale(1 1) rotate(0) translate(4 91.56)">
<title>EnemyTank::randomBehavior</title>
<!-- Node1 -->
<g id="Node000001" class="node">
<title>Node1</title>
<g id="a_Node000001"><a xlink:title="Executes random movement behavior.">
<polygon fill="#999999" stroke="#666666" points="1133,-75 973,-75 973,-56 1133,-56 1133,-75"/>
<text text-anchor="middle" x="1053" y="-63" font-family="Helvetica,sans-Serif" font-size="10.00">EnemyTank::randomBehavior</text>
</a>
</g>
</g>
<!-- Node2 -->
<g id="Node000002" class="node">
<title>Node2</title>
<g id="a_Node000002"><a xlink:href="classEnemyTank.html#a338556623afc739ebf5585caaa73fcdb" target="_top" xlink:title="Decides next action based on behavior.">
<polygon fill="white" stroke="#666666" points="310,-56 149,-56 149,-37 310,-37 310,-56"/>
<text text-anchor="middle" x="229.5" y="-44" font-family="Helvetica,sans-Serif" font-size="10.00">EnemyTank::decideNextMove</text>
</a>
</g>
</g>
<!-- Node1&#45;&gt;Node2 -->
<g id="edge1_Node000001_Node000002" class="edge">
<title>Node1&#45;&gt;Node2</title>
<g id="a_edge1_Node000001_Node000002"><a xlink:title=" ">
<path fill="none" stroke="#63b8ff" d="M995.2,-76.78C976.72,-79.94 956.06,-82.94 937,-84.5 786.23,-96.87 346.25,-65.53 346,-65.5 324.37,-63.23 300.65,-59.54 280.36,-56.01"/>
<polygon fill="#63b8ff" stroke="#63b8ff" points="995.97,-80.19 1005.22,-75.01 994.76,-73.3 995.97,-80.19"/>
</a>
</g>
</g>
<!-- Node4 -->
<g id="Node000004" class="node">
<title>Node4</title>
<g id="a_Node000004"><a xlink:href="classEnemyTank.html#a3038987b5595e2ec68508dfde4a35d51" target="_top" xlink:title="Searches for cover.">
<polygon fill="white" stroke="#666666" points="911,-75 786,-75 786,-56 911,-56 911,-75"/>
<text text-anchor="middle" x="848.5" y="-63" font-family="Helvetica,sans-Serif" font-size="10.00">EnemyTank::findCover</text>
</a>
</g>
</g>
<!-- Node1&#45;&gt;Node4 -->
<g id="edge3_Node000001_Node000004" class="edge">
<title>Node1&#45;&gt;Node4</title>
<g id="a_edge3_Node000001_Node000004"><a xlink:title=" ">
<path fill="none" stroke="#63b8ff" d="M962.65,-65.5C945.23,-65.5 927.33,-65.5 911.05,-65.5"/>
<polygon fill="#63b8ff" stroke="#63b8ff" points="962.84,-69 972.84,-65.5 962.84,-62 962.84,-69"/>
</a>
</g>
</g>
<!-- Node6 -->
<g id="Node000006" class="node">
<title>Node6</title>
<g id="a_Node000006"><a xlink:href="classEnemyTank.html#aa7421a7881c97b14301ef95e11fac1a8" target="_top" xlink:title="Moves towards player position.">
<polygon fill="white" stroke="#666666" points="937,-37 760,-37 760,-18 937,-18 937,-37"/>
<text text-anchor="middle" x="848.5" y="-25" font-family="Helvetica,sans-Serif" font-size="10.00">EnemyTank::moveTowardsPlayer</text>
</a>
</g>
</g>
<!-- Node1&#45;&gt;Node6 -->
<g id="edge6_Node000001_Node000006" class="edge">
<title>Node1&#45;&gt;Node6</title>
<g id="a_edge6_Node000001_Node000006"><a xlink:title=" ">
<path fill="none" stroke="#63b8ff" d="M991.15,-54.08C962.18,-48.64 927.92,-42.22 900.36,-37.04"/>
<polygon fill="#63b8ff" stroke="#63b8ff" points="990.69,-57.56 1001.16,-55.96 991.98,-50.68 990.69,-57.56"/>
</a>
</g>
</g>
<!-- Node3 -->
<g id="Node000003" class="node">
<title>Node3</title>
<g id="a_Node000003"><a xlink:href="classEnemyTank.html#a7ae5efc6eff4e7a19abb7f37b44835fc" target="_top" xlink:title="Updates enemy tank state and AI decisions.">
<polygon fill="white" stroke="#666666" points="113,-56 0,-56 0,-37 113,-37 113,-56"/>
<text text-anchor="middle" x="56.5" y="-44" font-family="Helvetica,sans-Serif" font-size="10.00">EnemyTank::update</text>
</a>
</g>
</g>
<!-- Node2&#45;&gt;Node3 -->
<g id="edge2_Node000002_Node000003" class="edge">
<title>Node2&#45;&gt;Node3</title>
<g id="a_edge2_Node000002_Node000003"><a xlink:title=" ">
<path fill="none" stroke="#63b8ff" d="M138.6,-46.5C129.96,-46.5 121.38,-46.5 113.21,-46.5"/>
<polygon fill="#63b8ff" stroke="#63b8ff" points="138.76,-50 148.76,-46.5 138.76,-43 138.76,-50"/>
</a>
</g>
</g>
<!-- Node5 -->
<g id="Node000005" class="node">
<title>Node5</title>
<g id="a_Node000005"><a xlink:href="classEnemyTank.html#a39add8a8beb8bb7b69124753ec2dae74" target="_top" xlink:title="Executes defensive behavior.">
<polygon fill="white" stroke="#666666" points="519,-56 349,-56 349,-37 519,-37 519,-56"/>
<text text-anchor="middle" x="434" y="-44" font-family="Helvetica,sans-Serif" font-size="10.00">EnemyTank::defensiveBehavior</text>
</a>
</g>
</g>
<!-- Node4&#45;&gt;Node5 -->
<g id="edge4_Node000004_Node000005" class="edge">
<title>Node4&#45;&gt;Node5</title>
<g id="a_edge4_Node000004_Node000005"><a xlink:title=" ">
<path fill="none" stroke="#63b8ff" d="M775.5,-62.18C704.11,-58.9 594.79,-53.86 519.38,-50.39"/>
<polygon fill="#63b8ff" stroke="#63b8ff" points="775.59,-65.69 785.74,-62.66 775.92,-58.7 775.59,-65.69"/>
</a>
</g>
</g>
<!-- Node5&#45;&gt;Node2 -->
<g id="edge5_Node000005_Node000002" class="edge">
<title>Node5&#45;&gt;Node2</title>
<g id="a_edge5_Node000005_Node000002"><a xlink:title=" ">
<path fill="none" stroke="#63b8ff" d="M338.6,-46.5C329.08,-46.5 319.48,-46.5 310.14,-46.5"/>
<polygon fill="#63b8ff" stroke="#63b8ff" points="338.88,-50 348.88,-46.5 338.88,-43 338.88,-50"/>
</a>
</g>
</g>
<!-- Node7 -->
<g id="Node000007" class="node">
<title>Node7</title>
<g id="a_Node000007"><a xlink:href="classEnemyTank.html#a5b53b4d6721012b14e41a0882bd1c2a3" target="_top" xlink:title="Executes aggressive behavior.">
<polygon fill="white" stroke="#666666" points="522,-19 346,-19 346,0 522,0 522,-19"/>
<text text-anchor="middle" x="434" y="-7" font-family="Helvetica,sans-Serif" font-size="10.00">EnemyTank::aggressiveBehavior</text>
</a>
</g>
</g>
<!-- Node6&#45;&gt;Node7 -->
<g id="edge7_Node000006_Node000007" class="edge">
<title>Node6&#45;&gt;Node7</title>
<g id="a_edge7_Node000006_Node000007"><a xlink:title=" ">
<path fill="none" stroke="#63b8ff" d="M787.29,-16.35C767.24,-13.14 744.72,-10.08 724,-8.5 656.34,-3.33 579.5,-3.9 522.08,-5.59"/>
<polygon fill="#63b8ff" stroke="#63b8ff" points="786.79,-19.82 797.23,-17.99 787.93,-12.91 786.79,-19.82"/>
</a>
</g>
</g>
<!-- Node8 -->
<g id="Node000008" class="node">
<title>Node8</title>
<g id="a_Node000008"><a xlink:href="classEnemyTank.html#aa70aff895200207527e2465c9439fc05" target="_top" xlink:title="Carefully approaches player.">
<polygon fill="white" stroke="#666666" points="724,-37 558,-37 558,-18 724,-18 724,-37"/>
<text text-anchor="middle" x="641" y="-25" font-family="Helvetica,sans-Serif" font-size="10.00">EnemyTank::cautiousApproach</text>
</a>
</g>
</g>
<!-- Node6&#45;&gt;Node8 -->
<g id="edge9_Node000006_Node000008" class="edge">
<title>Node6&#45;&gt;Node8</title>
<g id="a_edge9_Node000006_Node000008"><a xlink:title=" ">
<path fill="none" stroke="#63b8ff" d="M749.48,-27.5C741.04,-27.5 732.54,-27.5 724.24,-27.5"/>
<polygon fill="#63b8ff" stroke="#63b8ff" points="749.75,-31 759.75,-27.5 749.75,-24 749.75,-31"/>
</a>
</g>
</g>
<!-- Node7&#45;&gt;Node2 -->
<g id="edge8_Node000007_Node000002" class="edge">
<title>Node7&#45;&gt;Node2</title>
<g id="a_edge8_Node000007_Node000002"><a xlink:title=" ">
<path fill="none" stroke="#63b8ff" d="M370.71,-20.88C342.56,-26.02 309.67,-32.03 282.82,-36.94"/>
<polygon fill="#63b8ff" stroke="#63b8ff" points="371.64,-24.27 380.85,-19.03 370.38,-17.38 371.64,-24.27"/>
</a>
</g>
</g>
<!-- Node8&#45;&gt;Node5 -->
<g id="edge10_Node000008_Node000005" class="edge">
<title>Node8&#45;&gt;Node5</title>
<g id="a_edge10_Node000008_Node000005"><a xlink:title=" ">
<path fill="none" stroke="#63b8ff" d="M547.6,-36.06C538.15,-36.94 528.58,-37.83 519.23,-38.69"/>
<polygon fill="#63b8ff" stroke="#63b8ff" points="548.17,-39.53 557.8,-35.12 547.52,-32.56 548.17,-39.53"/>
</a>
</g>
</g>
</g>
</svg>
