<?xml version="1.0" encoding="UTF-8" standalone="no"?>
<!DOCTYPE svg PUBLIC "-//W3C//DTD SVG 1.1//EN"
 "http://www.w3.org/Graphics/SVG/1.1/DTD/svg11.dtd">
<!-- Generated by graphviz version 2.43.0 (0)
 -->
<!-- Title: GameWorld::checkProjectileCollisions Pages: 1 -->
<svg width="751pt" height="374pt"
 viewBox="0.00 0.00 751.00 373.50" xmlns="http://www.w3.org/2000/svg" xmlns:xlink="http://www.w3.org/1999/xlink">
<g id="graph0" class="graph" transform="scale(1 1) rotate(0) translate(4 369.5)">
<title>GameWorld::checkProjectileCollisions</title>
<!-- Node1 -->
<g id="Node000001" class="node">
<title>Node1</title>
<g id="a_Node000001"><a xlink:title="Checks projectile collisions.">
<polygon fill="#999999" stroke="#666666" points="154,-203 0,-203 0,-173 154,-173 154,-203"/>
<text text-anchor="start" x="8" y="-191" font-family="Helvetica,sans-Serif" font-size="10.00">GameWorld::checkProjectile</text>
<text text-anchor="middle" x="77" y="-180" font-family="Helvetica,sans-Serif" font-size="10.00">Collisions</text>
</a>
</g>
</g>
<!-- Node2 -->
<g id="Node000002" class="node">
<title>Node2</title>
<g id="a_Node000002"><a xlink:href="classGameWorld.html#a752ef6a0f4c6cdffead1dacd117d8451" target="_top" xlink:title="Handles projectile hit.">
<polygon fill="white" stroke="#666666" points="363,-197.5 190,-197.5 190,-178.5 363,-178.5 363,-197.5"/>
<text text-anchor="middle" x="276.5" y="-185.5" font-family="Helvetica,sans-Serif" font-size="10.00">GameWorld::handleProjectileHit</text>
</a>
</g>
</g>
<!-- Node1&#45;&gt;Node2 -->
<g id="edge1_Node000001_Node000002" class="edge">
<title>Node1&#45;&gt;Node2</title>
<g id="a_edge1_Node000001_Node000002"><a xlink:title=" ">
<path fill="none" stroke="#63b8ff" d="M154.08,-188C162.51,-188 171.18,-188 179.82,-188"/>
<polygon fill="#63b8ff" stroke="#63b8ff" points="179.93,-191.5 189.93,-188 179.93,-184.5 179.93,-191.5"/>
</a>
</g>
</g>
<!-- Node3 -->
<g id="Node000003" class="node">
<title>Node3</title>
<g id="a_Node000003"><a xlink:href="classPlayerTank.html#a34ecaf7829cc7b3e4965afa9ef6c25f0" target="_top" xlink:title="Adds points to player&#39;s score.">
<polygon fill="white" stroke="#666666" points="540.5,-365.5 419.5,-365.5 419.5,-346.5 540.5,-346.5 540.5,-365.5"/>
<text text-anchor="middle" x="480" y="-353.5" font-family="Helvetica,sans-Serif" font-size="10.00">PlayerTank::addScore</text>
</a>
</g>
</g>
<!-- Node2&#45;&gt;Node3 -->
<g id="edge2_Node000002_Node000003" class="edge">
<title>Node2&#45;&gt;Node3</title>
<g id="a_edge2_Node000002_Node000003"><a xlink:title=" ">
<path fill="none" stroke="#63b8ff" d="M282.27,-197.58C296.17,-224.46 339.5,-301.05 399,-338 402.37,-340.09 405.96,-341.95 409.68,-343.58"/>
<polygon fill="#63b8ff" stroke="#63b8ff" points="408.54,-346.89 419.13,-347.23 411.05,-340.36 408.54,-346.89"/>
</a>
</g>
</g>
<!-- Node4 -->
<g id="Node000004" class="node">
<title>Node4</title>
<g id="a_Node000004"><a xlink:href="classProjectile.html#aef8adfaa81fbbb3794bcf9eb2dfb2d44" target="_top" xlink:title="Gets the owner tank of this projectile.">
<polygon fill="white" stroke="#666666" points="538,-328.5 422,-328.5 422,-309.5 538,-309.5 538,-328.5"/>
<text text-anchor="middle" x="480" y="-316.5" font-family="Helvetica,sans-Serif" font-size="10.00">Projectile::getOwner</text>
</a>
</g>
</g>
<!-- Node2&#45;&gt;Node4 -->
<g id="edge3_Node000002_Node000004" class="edge">
<title>Node2&#45;&gt;Node4</title>
<g id="a_edge3_Node000002_Node000004"><a xlink:title=" ">
<path fill="none" stroke="#63b8ff" d="M284.82,-197.67C302.09,-219.73 347.78,-273.99 399,-301 403.19,-303.21 407.64,-305.15 412.21,-306.85"/>
<polygon fill="#63b8ff" stroke="#63b8ff" points="411.13,-310.18 421.72,-310.02 413.34,-303.53 411.13,-310.18"/>
</a>
</g>
</g>
<!-- Node5 -->
<g id="Node000005" class="node">
<title>Node5</title>
<g id="a_Node000005"><a xlink:href="classGameObject.html#aa4dd19d6b0ea5701d860b64b08435ae6" target="_top" xlink:title="Gets current position of the object.">
<polygon fill="white" stroke="#666666" points="549,-291.5 411,-291.5 411,-272.5 549,-272.5 549,-291.5"/>
<text text-anchor="middle" x="480" y="-279.5" font-family="Helvetica,sans-Serif" font-size="10.00">GameObject::getPosition</text>
</a>
</g>
</g>
<!-- Node2&#45;&gt;Node5 -->
<g id="edge4_Node000002_Node000005" class="edge">
<title>Node2&#45;&gt;Node5</title>
<g id="a_edge4_Node000002_Node000005"><a xlink:title=" ">
<path fill="none" stroke="#63b8ff" d="M289.84,-197.73C310.97,-213.91 355.97,-246.31 399,-264 404.1,-266.1 409.49,-267.97 414.97,-269.65"/>
<polygon fill="#63b8ff" stroke="#63b8ff" points="414.29,-273.09 424.87,-272.44 416.19,-266.35 414.29,-273.09"/>
</a>
</g>
</g>
<!-- Node6 -->
<g id="Node000006" class="node">
<title>Node6</title>
<g id="a_Node000006"><a xlink:href="classEnemyTank.html#a7449d102bbca6b351322b72f8b079f72" target="_top" xlink:title="Gets the type of enemy tank.">
<polygon fill="white" stroke="#666666" points="550,-254.5 410,-254.5 410,-235.5 550,-235.5 550,-254.5"/>
<text text-anchor="middle" x="480" y="-242.5" font-family="Helvetica,sans-Serif" font-size="10.00">EnemyTank::getTankType</text>
</a>
</g>
</g>
<!-- Node2&#45;&gt;Node6 -->
<g id="edge5_Node000002_Node000006" class="edge">
<title>Node2&#45;&gt;Node6</title>
<g id="a_edge5_Node000002_Node000006"><a xlink:title=" ">
<path fill="none" stroke="#63b8ff" d="M311.23,-197.54C345.23,-207.16 397.86,-222.05 435.1,-232.58"/>
<polygon fill="#63b8ff" stroke="#63b8ff" points="434.59,-236.07 445.16,-235.43 436.49,-229.34 434.59,-236.07"/>
</a>
</g>
</g>
<!-- Node7 -->
<g id="Node000007" class="node">
<title>Node7</title>
<g id="a_Node000007"><a xlink:href="classGameObject.html#a51ac0947e5c628f04657cafecc9fe36b" target="_top" xlink:title="Checks if object is destroyed.">
<polygon fill="white" stroke="#666666" points="741,-160.5 599,-160.5 599,-141.5 741,-141.5 741,-160.5"/>
<text text-anchor="middle" x="670" y="-148.5" font-family="Helvetica,sans-Serif" font-size="10.00">GameObject::isDestroyed</text>
</a>
</g>
</g>
<!-- Node2&#45;&gt;Node7 -->
<g id="edge6_Node000002_Node000007" class="edge">
<title>Node2&#45;&gt;Node7</title>
<g id="a_edge6_Node000002_Node000007"><a xlink:title=" ">
<path fill="none" stroke="#63b8ff" d="M363.08,-195.28C419.65,-198.31 495.21,-198.96 561,-188 588,-183.5 617.31,-173.09 638.57,-164.45"/>
<polygon fill="#63b8ff" stroke="#63b8ff" points="640.14,-167.59 648.02,-160.51 637.45,-161.12 640.14,-167.59"/>
</a>
</g>
</g>
<!-- Node8 -->
<g id="Node000008" class="node">
<title>Node8</title>
<g id="a_Node000008"><a xlink:href="classObstacle.html#ac5dc75c2d5f77f598a1fe8d42699e3f9" target="_top" xlink:title="Checks if obstacle is destructible.">
<polygon fill="white" stroke="#666666" points="546.5,-178.5 413.5,-178.5 413.5,-159.5 546.5,-159.5 546.5,-178.5"/>
<text text-anchor="middle" x="480" y="-166.5" font-family="Helvetica,sans-Serif" font-size="10.00">Obstacle::isDestructible</text>
</a>
</g>
</g>
<!-- Node2&#45;&gt;Node8 -->
<g id="edge7_Node000002_Node000008" class="edge">
<title>Node2&#45;&gt;Node8</title>
<g id="a_edge7_Node000002_Node000008"><a xlink:title=" ">
<path fill="none" stroke="#63b8ff" d="M363.25,-179.91C376.52,-178.66 390.14,-177.38 403.17,-176.15"/>
<polygon fill="#63b8ff" stroke="#63b8ff" points="403.85,-179.6 413.48,-175.18 403.19,-172.63 403.85,-179.6"/>
</a>
</g>
</g>
<!-- Node9 -->
<g id="Node000009" class="node">
<title>Node9</title>
<g id="a_Node000009"><a xlink:href="classObstacle.html#aaa4db983792ece6cd734c170d9a68e36" target="_top" xlink:title="Checks if obstacle is passable for projectiles.">
<polygon fill="white" stroke="#666666" points="561,-141.5 399,-141.5 399,-122.5 561,-122.5 561,-141.5"/>
<text text-anchor="middle" x="480" y="-129.5" font-family="Helvetica,sans-Serif" font-size="10.00">Obstacle::isProjectilePassable</text>
</a>
</g>
</g>
<!-- Node2&#45;&gt;Node9 -->
<g id="edge8_Node000002_Node000009" class="edge">
<title>Node2&#45;&gt;Node9</title>
<g id="a_edge8_Node000002_Node000009"><a xlink:title=" ">
<path fill="none" stroke="#63b8ff" d="M307.31,-178.35C331.81,-170.56 367.5,-159.53 399,-151 407.9,-148.59 417.41,-146.18 426.65,-143.94"/>
<polygon fill="#63b8ff" stroke="#63b8ff" points="427.62,-147.3 436.53,-141.57 425.99,-140.5 427.62,-147.3"/>
</a>
</g>
</g>
<!-- Node10 -->
<g id="Node000010" class="node">
<title>Node10</title>
<g id="a_Node000010"><a xlink:href="classObstacle.html#a0167f367446272ac93f006af1403fa2c" target="_top" xlink:title="Applies damage to the obstacle.">
<polygon fill="white" stroke="#666666" points="544,-104.5 416,-104.5 416,-85.5 544,-85.5 544,-104.5"/>
<text text-anchor="middle" x="480" y="-92.5" font-family="Helvetica,sans-Serif" font-size="10.00">Obstacle::takeDamage</text>
</a>
</g>
</g>
<!-- Node2&#45;&gt;Node10 -->
<g id="edge9_Node000002_Node000010" class="edge">
<title>Node2&#45;&gt;Node10</title>
<g id="a_edge9_Node000002_Node000010"><a xlink:title=" ">
<path fill="none" stroke="#63b8ff" d="M290.25,-178.35C311.63,-162.62 356.51,-131.47 399,-114 405.12,-111.48 411.65,-109.25 418.23,-107.29"/>
<polygon fill="#63b8ff" stroke="#63b8ff" points="419.19,-110.66 427.89,-104.61 417.31,-103.92 419.19,-110.66"/>
</a>
</g>
</g>
<!-- Node11 -->
<g id="Node000011" class="node">
<title>Node11</title>
<g id="a_Node000011"><a xlink:href="classTank.html#a694c752906e013192e6420bc31b01dd6" target="_top" xlink:title="Applies damage to tank, considering shield.">
<polygon fill="white" stroke="#666666" points="533.5,-67.5 426.5,-67.5 426.5,-48.5 533.5,-48.5 533.5,-67.5"/>
<text text-anchor="middle" x="480" y="-55.5" font-family="Helvetica,sans-Serif" font-size="10.00">Tank::takeDamage</text>
</a>
</g>
</g>
<!-- Node2&#45;&gt;Node11 -->
<g id="edge11_Node000002_Node000011" class="edge">
<title>Node2&#45;&gt;Node11</title>
<g id="a_edge11_Node000002_Node000011"><a xlink:title=" ">
<path fill="none" stroke="#63b8ff" d="M284.84,-178.42C302.16,-156.55 347.93,-102.78 399,-76 404.54,-73.09 410.54,-70.65 416.68,-68.61"/>
<polygon fill="#63b8ff" stroke="#63b8ff" points="417.81,-71.92 426.38,-65.7 415.8,-65.22 417.81,-71.92"/>
</a>
</g>
</g>
<!-- Node13 -->
<g id="Node000013" class="node">
<title>Node13</title>
<g id="a_Node000013"><a xlink:href="classGameWorld.html#aaab2806ac3f2f439dd4bf0fc2299d402" target="_top" xlink:title="Triggers damage flash effect.">
<polygon fill="white" stroke="#666666" points="556.5,-30 403.5,-30 403.5,0 556.5,0 556.5,-30"/>
<text text-anchor="start" x="411.5" y="-18" font-family="Helvetica,sans-Serif" font-size="10.00">GameWorld::triggerDamage</text>
<text text-anchor="middle" x="480" y="-7" font-family="Helvetica,sans-Serif" font-size="10.00">Flash</text>
</a>
</g>
</g>
<!-- Node2&#45;&gt;Node13 -->
<g id="edge13_Node000002_Node000013" class="edge">
<title>Node2&#45;&gt;Node13</title>
<g id="a_edge13_Node000002_Node000013"><a xlink:title=" ">
<path fill="none" stroke="#63b8ff" d="M282.62,-178.32C297.14,-151.83 341.28,-77.57 399,-39 401.43,-37.38 403.97,-35.86 406.6,-34.44"/>
<polygon fill="#63b8ff" stroke="#63b8ff" points="408.3,-37.51 415.78,-30 405.25,-31.2 408.3,-37.51"/>
</a>
</g>
</g>
<!-- Node10&#45;&gt;Node7 -->
<g id="edge10_Node000010_Node000007" class="edge">
<title>Node10&#45;&gt;Node7</title>
<g id="a_edge10_Node000010_Node000007"><a xlink:title=" ">
<path fill="none" stroke="#63b8ff" d="M524.8,-104.59C536.61,-107.4 549.34,-110.63 561,-114 585.65,-121.13 613,-130.52 634.01,-138.05"/>
<polygon fill="#63b8ff" stroke="#63b8ff" points="632.88,-141.36 643.47,-141.47 635.26,-134.78 632.88,-141.36"/>
</a>
</g>
</g>
<!-- Node12 -->
<g id="Node000012" class="node">
<title>Node12</title>
<g id="a_Node000012"><a xlink:href="classGameObject.html#a801c8cf8e8e188ec698364327f977ecf" target="_top" xlink:title="Applies damage to the object.">
<polygon fill="white" stroke="#666666" points="743,-67.5 597,-67.5 597,-48.5 743,-48.5 743,-67.5"/>
<text text-anchor="middle" x="670" y="-55.5" font-family="Helvetica,sans-Serif" font-size="10.00">GameObject::takeDamage</text>
</a>
</g>
</g>
<!-- Node11&#45;&gt;Node12 -->
<g id="edge12_Node000011_Node000012" class="edge">
<title>Node11&#45;&gt;Node12</title>
<g id="a_edge12_Node000011_Node000012"><a xlink:title=" ">
<path fill="none" stroke="#63b8ff" d="M533.62,-58C550.04,-58 568.57,-58 586.52,-58"/>
<polygon fill="#63b8ff" stroke="#63b8ff" points="586.72,-61.5 596.72,-58 586.72,-54.5 586.72,-61.5"/>
</a>
</g>
</g>
</g>
</svg>
