<?xml version="1.0" encoding="UTF-8" standalone="no"?>
<!DOCTYPE svg PUBLIC "-//W3C//DTD SVG 1.1//EN"
 "http://www.w3.org/Graphics/SVG/1.1/DTD/svg11.dtd">
<!-- Generated by graphviz version 2.43.0 (0)
 -->
<!-- Title: GameWorld::spawnBonus Pages: 1 -->
<svg width="733pt" height="103pt"
 viewBox="0.00 0.00 733.00 103.00" xmlns="http://www.w3.org/2000/svg" xmlns:xlink="http://www.w3.org/1999/xlink">
<g id="graph0" class="graph" transform="scale(1 1) rotate(0) translate(4 99)">
<title>GameWorld::spawnBonus</title>
<!-- Node1 -->
<g id="Node000001" class="node">
<title>Node1</title>
<g id="a_Node000001"><a xlink:title="Spawns a bonus at random location.">
<polygon fill="#999999" stroke="#666666" points="141,-57 0,-57 0,-38 141,-38 141,-57"/>
<text text-anchor="middle" x="70.5" y="-45" font-family="Helvetica,sans-Serif" font-size="10.00">GameWorld::spawnBonus</text>
</a>
</g>
</g>
<!-- Node2 -->
<g id="Node000002" class="node">
<title>Node2</title>
<g id="a_Node000002"><a xlink:href="classGameWorld.html#ad38a12f17ba52aa4a1897459d47d64ec" target="_top" xlink:title="Checks if position is valid for bonus placement.">
<polygon fill="white" stroke="#666666" points="358,-57 177,-57 177,-38 358,-38 358,-57"/>
<text text-anchor="middle" x="267.5" y="-45" font-family="Helvetica,sans-Serif" font-size="10.00">GameWorld::isValidBonusPosition</text>
</a>
</g>
</g>
<!-- Node1&#45;&gt;Node2 -->
<g id="edge1_Node000001_Node000002" class="edge">
<title>Node1&#45;&gt;Node2</title>
<g id="a_edge1_Node000001_Node000002"><a xlink:title=" ">
<path fill="none" stroke="#63b8ff" d="M141.07,-47.5C149.41,-47.5 158.04,-47.5 166.69,-47.5"/>
<polygon fill="#63b8ff" stroke="#63b8ff" points="166.85,-51 176.85,-47.5 166.85,-44 166.85,-51"/>
</a>
</g>
</g>
<!-- Node3 -->
<g id="Node000003" class="node">
<title>Node3</title>
<g id="a_Node000003"><a xlink:href="classBonus.html#a532f21a230da61103eac3be853721245" target="_top" xlink:title=" ">
<polygon fill="white" stroke="#666666" points="529.5,-95 437.5,-95 437.5,-76 529.5,-76 529.5,-95"/>
<text text-anchor="middle" x="483.5" y="-83" font-family="Helvetica,sans-Serif" font-size="10.00">Bonus::isActive</text>
</a>
</g>
</g>
<!-- Node2&#45;&gt;Node3 -->
<g id="edge2_Node000002_Node000003" class="edge">
<title>Node2&#45;&gt;Node3</title>
<g id="a_edge2_Node000002_Node000003"><a xlink:title=" ">
<path fill="none" stroke="#63b8ff" d="M322.23,-57.04C354.29,-62.73 394.92,-69.95 427.25,-75.69"/>
<polygon fill="#63b8ff" stroke="#63b8ff" points="426.98,-79.2 437.43,-77.5 428.2,-72.3 426.98,-79.2"/>
</a>
</g>
</g>
<!-- Node4 -->
<g id="Node000004" class="node">
<title>Node4</title>
<g id="a_Node000004"><a xlink:href="classObstacle.html#aa1936373d282c8dba39f529526b6143d" target="_top" xlink:title="Checks if obstacle is passable for tanks.">
<polygon fill="white" stroke="#666666" points="725,-38 609,-38 609,-19 725,-19 725,-38"/>
<text text-anchor="middle" x="667" y="-26" font-family="Helvetica,sans-Serif" font-size="10.00">Obstacle::isPassable</text>
</a>
</g>
</g>
<!-- Node2&#45;&gt;Node4 -->
<g id="edge3_Node000002_Node000004" class="edge">
<title>Node2&#45;&gt;Node4</title>
<g id="a_edge3_Node000002_Node000004"><a xlink:title=" ">
<path fill="none" stroke="#63b8ff" d="M358.2,-43.21C431.12,-39.73 532.41,-34.89 598.57,-31.72"/>
<polygon fill="#63b8ff" stroke="#63b8ff" points="599.05,-35.2 608.87,-31.23 598.72,-28.21 599.05,-35.2"/>
</a>
</g>
</g>
<!-- Node5 -->
<g id="Node000005" class="node">
<title>Node5</title>
<g id="a_Node000005"><a xlink:href="classGameWorld.html#aa179c4b1c5c4659bdcdd05a5c85867ab" target="_top" xlink:title="Checks if position is accessible for tanks.">
<polygon fill="white" stroke="#666666" points="573,-19 394,-19 394,0 573,0 573,-19"/>
<text text-anchor="middle" x="483.5" y="-7" font-family="Helvetica,sans-Serif" font-size="10.00">GameWorld::isPositionAccessible</text>
</a>
</g>
</g>
<!-- Node2&#45;&gt;Node5 -->
<g id="edge4_Node000002_Node000005" class="edge">
<title>Node2&#45;&gt;Node5</title>
<g id="a_edge4_Node000002_Node000005"><a xlink:title=" ">
<path fill="none" stroke="#63b8ff" d="M322.23,-37.96C351.48,-32.77 387.87,-26.3 418.58,-20.85"/>
<polygon fill="#63b8ff" stroke="#63b8ff" points="419.52,-24.24 428.75,-19.04 418.29,-17.35 419.52,-24.24"/>
</a>
</g>
</g>
<!-- Node5&#45;&gt;Node4 -->
<g id="edge5_Node000005_Node000004" class="edge">
<title>Node5&#45;&gt;Node4</title>
<g id="a_edge5_Node000005_Node000004"><a xlink:title=" ">
<path fill="none" stroke="#63b8ff" d="M573.12,-18.78C581.76,-19.68 590.42,-20.59 598.8,-21.46"/>
<polygon fill="#63b8ff" stroke="#63b8ff" points="598.54,-24.96 608.85,-22.52 599.27,-18 598.54,-24.96"/>
</a>
</g>
</g>
</g>
</svg>
