<?xml version="1.0" encoding="UTF-8" standalone="no"?>
<!DOCTYPE svg PUBLIC "-//W3C//DTD SVG 1.1//EN"
 "http://www.w3.org/Graphics/SVG/1.1/DTD/svg11.dtd">
<!-- Generated by graphviz version 2.43.0 (0)
 -->
<!-- Title: GameWorld::getObjects Pages: 1 -->
<svg width="1901pt" height="226pt"
 viewBox="0.00 0.00 1901.00 226.48" xmlns="http://www.w3.org/2000/svg" xmlns:xlink="http://www.w3.org/1999/xlink">
<g id="graph0" class="graph" transform="scale(1 1) rotate(0) translate(4 222.48)">
<title>GameWorld::getObjects</title>
<!-- Node1 -->
<g id="Node000001" class="node">
<title>Node1</title>
<g id="a_Node000001"><a xlink:title="Gets all game objects.">
<polygon fill="#999999" stroke="#666666" points="1893,-197.48 1761,-197.48 1761,-178.48 1893,-178.48 1893,-197.48"/>
<text text-anchor="middle" x="1827" y="-185.48" font-family="Helvetica,sans-Serif" font-size="10.00">GameWorld::getObjects</text>
</a>
</g>
</g>
<!-- Node2 -->
<g id="Node000002" class="node">
<title>Node2</title>
<g id="a_Node000002"><a xlink:href="classMapManager.html#ac1472dad9f9391e45fafadef9c30c1ab" target="_top" xlink:title="Creates game world from map layout.">
<polygon fill="white" stroke="#666666" points="1725,-178.48 1534,-178.48 1534,-159.48 1725,-159.48 1725,-178.48"/>
<text text-anchor="middle" x="1629.5" y="-166.48" font-family="Helvetica,sans-Serif" font-size="10.00">MapManager::createWorldFromMap</text>
</a>
</g>
</g>
<!-- Node1&#45;&gt;Node2 -->
<g id="edge1_Node000001_Node000002" class="edge">
<title>Node1&#45;&gt;Node2</title>
<g id="a_edge1_Node000001_Node000002"><a xlink:title=" ">
<path fill="none" stroke="#63b8ff" d="M1750.83,-180.67C1742.46,-179.86 1733.86,-179.02 1725.29,-178.19"/>
<polygon fill="#63b8ff" stroke="#63b8ff" points="1750.61,-184.17 1760.9,-181.65 1751.29,-177.2 1750.61,-184.17"/>
</a>
</g>
</g>
<!-- Node13 -->
<g id="Node000013" class="node">
<title>Node13</title>
<g id="a_Node000013"><a xlink:href="classConsoleRenderer.html#ab34fa7af4ede79de3951f1d5271d7a27" target="_top" xlink:title="Renders the game world to console.">
<polygon fill="white" stroke="#666666" points="1474.5,-218.48 1337.5,-218.48 1337.5,-199.48 1474.5,-199.48 1474.5,-218.48"/>
<text text-anchor="middle" x="1406" y="-206.48" font-family="Helvetica,sans-Serif" font-size="10.00">ConsoleRenderer::render</text>
</a>
</g>
</g>
<!-- Node1&#45;&gt;Node13 -->
<g id="edge18_Node000001_Node000013" class="edge">
<title>Node1&#45;&gt;Node13</title>
<g id="a_edge18_Node000001_Node000013"><a xlink:title=" ">
<path fill="none" stroke="#63b8ff" d="M1750.68,-191.75C1672.13,-195.69 1550.14,-201.8 1474.59,-205.59"/>
<polygon fill="#63b8ff" stroke="#63b8ff" points="1751.18,-195.23 1760.99,-191.24 1750.83,-188.24 1751.18,-195.23"/>
</a>
</g>
</g>
<!-- Node3 -->
<g id="Node000003" class="node">
<title>Node3</title>
<g id="a_Node000003"><a xlink:href="classGameController.html#a09c76a5ae9b8f514163dafe31273f44f" target="_top" xlink:title="Loads the currently selected map.">
<polygon fill="white" stroke="#666666" points="1498,-176.48 1314,-176.48 1314,-157.48 1498,-157.48 1498,-176.48"/>
<text text-anchor="middle" x="1406" y="-164.48" font-family="Helvetica,sans-Serif" font-size="10.00">GameController::loadSelectedMap</text>
</a>
</g>
</g>
<!-- Node2&#45;&gt;Node3 -->
<g id="edge2_Node000002_Node000003" class="edge">
<title>Node2&#45;&gt;Node3</title>
<g id="a_edge2_Node000002_Node000003"><a xlink:title=" ">
<path fill="none" stroke="#63b8ff" d="M1523.85,-168.03C1515.25,-167.96 1506.59,-167.88 1498.1,-167.8"/>
<polygon fill="#63b8ff" stroke="#63b8ff" points="1523.89,-171.53 1533.92,-168.12 1523.95,-164.53 1523.89,-171.53"/>
</a>
</g>
</g>
<!-- Node4 -->
<g id="Node000004" class="node">
<title>Node4</title>
<g id="a_Node000004"><a xlink:href="classGameController.html#a4086fc466d91f45c41b2bc5df06af77a" target="_top" xlink:title="Loads the next game level.">
<polygon fill="white" stroke="#666666" points="1047,-181.98 903,-181.98 903,-151.98 1047,-151.98 1047,-181.98"/>
<text text-anchor="start" x="911" y="-169.98" font-family="Helvetica,sans-Serif" font-size="10.00">GameController::loadNext</text>
<text text-anchor="middle" x="975" y="-158.98" font-family="Helvetica,sans-Serif" font-size="10.00">Level</text>
</a>
</g>
</g>
<!-- Node3&#45;&gt;Node4 -->
<g id="edge3_Node000003_Node000004" class="edge">
<title>Node3&#45;&gt;Node4</title>
<g id="a_edge3_Node000003_Node000004"><a xlink:title=" ">
<path fill="none" stroke="#63b8ff" d="M1303.31,-166.98C1224.46,-166.98 1117.18,-166.98 1047.27,-166.98"/>
<polygon fill="#63b8ff" stroke="#63b8ff" points="1303.76,-170.48 1313.76,-166.98 1303.76,-163.48 1303.76,-170.48"/>
</a>
</g>
</g>
<!-- Node9 -->
<g id="Node000009" class="node">
<title>Node9</title>
<g id="a_Node000009"><a xlink:href="classGameController.html#a4a9c94fe33cf6c73bb5dfc415d04d309" target="_top" xlink:title="Displays map selection screen.">
<polygon fill="white" stroke="#666666" points="1278,-114.48 1087,-114.48 1087,-95.48 1278,-95.48 1278,-114.48"/>
<text text-anchor="middle" x="1182.5" y="-102.48" font-family="Helvetica,sans-Serif" font-size="10.00">GameController::showMapSelection</text>
</a>
</g>
</g>
<!-- Node3&#45;&gt;Node9 -->
<g id="edge8_Node000003_Node000009" class="edge">
<title>Node3&#45;&gt;Node9</title>
<g id="a_edge8_Node000003_Node000009"><a xlink:title=" ">
<path fill="none" stroke="#63b8ff" d="M1361.16,-154.71C1319.03,-142.91 1256.21,-125.33 1217.66,-114.54"/>
<polygon fill="#63b8ff" stroke="#63b8ff" points="1360.3,-158.1 1370.88,-157.43 1362.19,-151.36 1360.3,-158.1"/>
</a>
</g>
</g>
<!-- Node5 -->
<g id="Node000005" class="node">
<title>Node5</title>
<g id="a_Node000005"><a xlink:href="classGameController.html#a85bcf4ecfd197aad278e116215a3717b" target="_top" xlink:title="Displays level completion screen.">
<polygon fill="white" stroke="#666666" points="860,-181.98 708,-181.98 708,-151.98 860,-151.98 860,-181.98"/>
<text text-anchor="start" x="716" y="-169.98" font-family="Helvetica,sans-Serif" font-size="10.00">GameController::showLevel</text>
<text text-anchor="middle" x="784" y="-158.98" font-family="Helvetica,sans-Serif" font-size="10.00">CompleteScreen</text>
</a>
</g>
</g>
<!-- Node4&#45;&gt;Node5 -->
<g id="edge4_Node000004_Node000005" class="edge">
<title>Node4&#45;&gt;Node5</title>
<g id="a_edge4_Node000004_Node000005"><a xlink:title=" ">
<path fill="none" stroke="#63b8ff" d="M892.6,-166.98C881.84,-166.98 870.86,-166.98 860.22,-166.98"/>
<polygon fill="#63b8ff" stroke="#63b8ff" points="892.82,-170.48 902.82,-166.98 892.82,-163.48 892.82,-170.48"/>
</a>
</g>
</g>
<!-- Node6 -->
<g id="Node000006" class="node">
<title>Node6</title>
<g id="a_Node000006"><a xlink:href="classGameController.html#af2367e58f03d8a1441c9a574967fd360" target="_top" xlink:title="Processes a single game turn/update cycle.">
<polygon fill="white" stroke="#666666" points="445,-145.48 258,-145.48 258,-126.48 445,-126.48 445,-145.48"/>
<text text-anchor="middle" x="351.5" y="-133.48" font-family="Helvetica,sans-Serif" font-size="10.00">GameController::processGameTurn</text>
</a>
</g>
</g>
<!-- Node5&#45;&gt;Node6 -->
<g id="edge5_Node000005_Node000006" class="edge">
<title>Node5&#45;&gt;Node6</title>
<g id="a_edge5_Node000005_Node000006"><a xlink:title=" ">
<path fill="none" stroke="#63b8ff" d="M697.45,-160.82C624.55,-155.57 520.01,-148.04 445.15,-142.65"/>
<polygon fill="#63b8ff" stroke="#63b8ff" points="697.29,-164.32 707.52,-161.54 697.8,-157.33 697.29,-164.32"/>
</a>
</g>
</g>
<!-- Node7 -->
<g id="Node000007" class="node">
<title>Node7</title>
<g id="a_Node000007"><a xlink:href="classGameController.html#ac958989c8f7f08488546930e5fcb0d82" target="_top" xlink:title="Starts and runs the main game loop.">
<polygon fill="white" stroke="#666666" points="222,-57.48 77,-57.48 77,-38.48 222,-38.48 222,-57.48"/>
<text text-anchor="middle" x="149.5" y="-45.48" font-family="Helvetica,sans-Serif" font-size="10.00">GameController::runGame</text>
</a>
</g>
</g>
<!-- Node6&#45;&gt;Node7 -->
<g id="edge6_Node000006_Node000007" class="edge">
<title>Node6&#45;&gt;Node7</title>
<g id="a_edge6_Node000006_Node000007"><a xlink:title=" ">
<path fill="none" stroke="#63b8ff" d="M319.5,-122.34C278.66,-104.37 207.86,-73.22 172.26,-57.55"/>
<polygon fill="#63b8ff" stroke="#63b8ff" points="318.15,-125.57 328.72,-126.39 320.97,-119.16 318.15,-125.57"/>
</a>
</g>
</g>
<!-- Node8 -->
<g id="Node000008" class="node">
<title>Node8</title>
<g id="a_Node000008"><a xlink:href="main_8cpp.html#ae66f6b31b5ad750f1fe042a706a4e3d4" target="_top" xlink:title="Main function that serves as the application entry point.">
<polygon fill="white" stroke="#666666" points="41,-57.48 0,-57.48 0,-38.48 41,-38.48 41,-57.48"/>
<text text-anchor="middle" x="20.5" y="-45.48" font-family="Helvetica,sans-Serif" font-size="10.00">main</text>
</a>
</g>
</g>
<!-- Node7&#45;&gt;Node8 -->
<g id="edge7_Node000007_Node000008" class="edge">
<title>Node7&#45;&gt;Node8</title>
<g id="a_edge7_Node000007_Node000008"><a xlink:title=" ">
<path fill="none" stroke="#63b8ff" d="M66.79,-47.98C57.31,-47.98 48.43,-47.98 41.08,-47.98"/>
<polygon fill="#63b8ff" stroke="#63b8ff" points="66.83,-51.48 76.83,-47.98 66.83,-44.48 66.83,-51.48"/>
</a>
</g>
</g>
<!-- Node10 -->
<g id="Node000010" class="node">
<title>Node10</title>
<g id="a_Node000010"><a xlink:href="classGameController.html#a971b3d8f6296a74f0bebc83b5e79c186" target="_top" xlink:title="Processes a user command.">
<polygon fill="white" stroke="#666666" points="669,-105.48 481,-105.48 481,-86.48 669,-86.48 669,-105.48"/>
<text text-anchor="middle" x="575" y="-93.48" font-family="Helvetica,sans-Serif" font-size="10.00">GameController::processCommand</text>
</a>
</g>
</g>
<!-- Node9&#45;&gt;Node10 -->
<g id="edge9_Node000009_Node000010" class="edge">
<title>Node9&#45;&gt;Node10</title>
<g id="a_edge9_Node000009_Node000010"><a xlink:title=" ">
<path fill="none" stroke="#63b8ff" d="M1076.93,-107.07C980.36,-108.5 832.96,-109.44 705,-104.98 693.45,-104.58 681.32,-103.97 669.32,-103.26"/>
<polygon fill="#63b8ff" stroke="#63b8ff" points="1077.04,-110.57 1086.99,-106.92 1076.94,-103.57 1077.04,-110.57"/>
</a>
</g>
</g>
<!-- Node11 -->
<g id="Node000011" class="node">
<title>Node11</title>
<g id="a_Node000011"><a xlink:href="classGameController.html#a9d11b5a6255b7249bddba49df0837cf3" target="_top" xlink:title="Displays and manages the main menu.">
<polygon fill="white" stroke="#666666" points="1051,-95.48 899,-95.48 899,-76.48 1051,-76.48 1051,-95.48"/>
<text text-anchor="middle" x="975" y="-83.48" font-family="Helvetica,sans-Serif" font-size="10.00">GameController::showMenu</text>
</a>
</g>
</g>
<!-- Node9&#45;&gt;Node11 -->
<g id="edge11_Node000009_Node000011" class="edge">
<title>Node9&#45;&gt;Node11</title>
<g id="a_edge11_Node000009_Node000011"><a xlink:title=" ">
<path fill="none" stroke="#63b8ff" d="M1128.79,-94.12C1105.25,-91.16 1077.06,-88.37 1051.35,-86.41"/>
<polygon fill="#63b8ff" stroke="#63b8ff" points="1128.55,-97.62 1138.92,-95.45 1129.46,-90.68 1128.55,-97.62"/>
</a>
</g>
</g>
<!-- Node10&#45;&gt;Node6 -->
<g id="edge10_Node000010_Node000006" class="edge">
<title>Node10&#45;&gt;Node6</title>
<g id="a_edge10_Node000010_Node000006"><a xlink:title=" ">
<path fill="none" stroke="#63b8ff" d="M511.1,-107.34C477.66,-113.38 437.02,-120.72 405.25,-126.45"/>
<polygon fill="#63b8ff" stroke="#63b8ff" points="512.01,-110.73 521.23,-105.51 510.76,-103.84 512.01,-110.73"/>
</a>
</g>
</g>
<!-- Node11&#45;&gt;Node5 -->
<g id="edge16_Node000011_Node000005" class="edge">
<title>Node11&#45;&gt;Node5</title>
<g id="a_edge16_Node000011_Node000005"><a xlink:title=" ">
<path fill="none" stroke="#63b8ff" d="M942.19,-99.61C908.44,-114.08 855.26,-136.87 820.25,-151.87"/>
<polygon fill="#63b8ff" stroke="#63b8ff" points="943.76,-102.75 951.58,-95.59 941.01,-96.31 943.76,-102.75"/>
</a>
</g>
</g>
<!-- Node11&#45;&gt;Node7 -->
<g id="edge15_Node000011_Node000007" class="edge">
<title>Node11&#45;&gt;Node7</title>
<g id="a_edge15_Node000011_Node000007"><a xlink:title=" ">
<path fill="none" stroke="#63b8ff" d="M952.08,-70.72C930.54,-56.72 896.16,-37 863,-28.98 618.24,30.19 312.38,-16.72 197.22,-38.44"/>
<polygon fill="#63b8ff" stroke="#63b8ff" points="950.22,-73.69 960.48,-76.31 954.1,-67.86 950.22,-73.69"/>
</a>
</g>
</g>
<!-- Node11&#45;&gt;Node9 -->
<g id="edge17_Node000011_Node000009" class="edge">
<title>Node11&#45;&gt;Node9</title>
<g id="a_edge17_Node000011_Node000009"><a xlink:title=" ">
<path fill="none" stroke="#63b8ff" d="M1028.72,-96.83C1046.48,-99.07 1066.88,-101.21 1086.87,-102.96"/>
<polygon fill="#63b8ff" stroke="#63b8ff" points="1028.96,-93.34 1018.59,-95.51 1028.05,-100.28 1028.96,-93.34"/>
</a>
</g>
</g>
<!-- Node11&#45;&gt;Node10 -->
<g id="edge14_Node000011_Node000010" class="edge">
<title>Node11&#45;&gt;Node10</title>
<g id="a_edge14_Node000011_Node000010"><a xlink:title=" ">
<path fill="none" stroke="#63b8ff" d="M888.53,-88.13C824.02,-89.75 735.58,-91.97 669.25,-93.64"/>
<polygon fill="#63b8ff" stroke="#63b8ff" points="888.76,-91.62 898.67,-87.87 888.59,-84.62 888.76,-91.62"/>
</a>
</g>
</g>
<!-- Node12 -->
<g id="Node000012" class="node">
<title>Node12</title>
<g id="a_Node000012"><a xlink:href="classGameController.html#a637ea4e72ed2be4a2884b30160b3e8ab" target="_top" xlink:title="Pauses the game and displays pause screen.">
<polygon fill="white" stroke="#666666" points="863,-57.48 705,-57.48 705,-38.48 863,-38.48 863,-57.48"/>
<text text-anchor="middle" x="784" y="-45.48" font-family="Helvetica,sans-Serif" font-size="10.00">GameController::pauseGame</text>
</a>
</g>
</g>
<!-- Node11&#45;&gt;Node12 -->
<g id="edge12_Node000011_Node000012" class="edge">
<title>Node11&#45;&gt;Node12</title>
<g id="a_edge12_Node000011_Node000012"><a xlink:title=" ">
<path fill="none" stroke="#63b8ff" d="M916.26,-74.37C889.38,-68.96 857.8,-62.62 832.35,-57.5"/>
<polygon fill="#63b8ff" stroke="#63b8ff" points="915.81,-77.85 926.31,-76.39 917.19,-70.99 915.81,-77.85"/>
</a>
</g>
</g>
<!-- Node12&#45;&gt;Node10 -->
<g id="edge13_Node000012_Node000010" class="edge">
<title>Node12&#45;&gt;Node10</title>
<g id="a_edge13_Node000012_Node000010"><a xlink:title=" ">
<path fill="none" stroke="#63b8ff" d="M731.51,-59.92C696.27,-68.09 650.16,-78.78 617.32,-86.4"/>
<polygon fill="#63b8ff" stroke="#63b8ff" points="732.66,-63.25 741.61,-57.58 731.08,-56.43 732.66,-63.25"/>
</a>
</g>
</g>
<!-- Node13&#45;&gt;Node6 -->
<g id="edge19_Node000013_Node000006" class="edge">
<title>Node13&#45;&gt;Node6</title>
<g id="a_edge19_Node000013_Node000006"><a xlink:title=" ">
<path fill="none" stroke="#63b8ff" d="M1327.19,-209.27C1241.24,-209.56 1098.74,-209.98 976,-209.98 976,-209.98 976,-209.98 783,-209.98 632.47,-209.98 456.55,-165.49 385.12,-145.5"/>
<polygon fill="#63b8ff" stroke="#63b8ff" points="1327.4,-212.77 1337.39,-209.23 1327.37,-205.77 1327.4,-212.77"/>
</a>
</g>
</g>
</g>
</svg>
