<?xml version="1.0" encoding="UTF-8" standalone="no"?>
<!DOCTYPE svg PUBLIC "-//W3C//DTD SVG 1.1//EN"
 "http://www.w3.org/Graphics/SVG/1.1/DTD/svg11.dtd">
<!-- Generated by graphviz version 2.43.0 (0)
 -->
<!-- Title: GameObject::rotate Pages: 1 -->
<svg width="2127pt" height="586pt"
 viewBox="0.00 0.00 2127.00 586.06" xmlns="http://www.w3.org/2000/svg" xmlns:xlink="http://www.w3.org/1999/xlink">
<g id="graph0" class="graph" transform="scale(1 1) rotate(0) translate(4 582.06)">
<title>GameObject::rotate</title>
<!-- Node1 -->
<g id="Node000001" class="node">
<title>Node1</title>
<g id="a_Node000001"><a xlink:title="Rotates the object to face new direction.">
<polygon fill="#999999" stroke="#666666" points="2119,-351.5 2006,-351.5 2006,-332.5 2119,-332.5 2119,-351.5"/>
<text text-anchor="middle" x="2062.5" y="-339.5" font-family="Helvetica,sans-Serif" font-size="10.00">GameObject::rotate</text>
</a>
</g>
</g>
<!-- Node2 -->
<g id="Node000002" class="node">
<title>Node2</title>
<g id="a_Node000002"><a xlink:href="classEnemyTank.html#a5b53b4d6721012b14e41a0882bd1c2a3" target="_top" xlink:title="Executes aggressive behavior.">
<polygon fill="white" stroke="#666666" points="1503,-521.5 1327,-521.5 1327,-502.5 1503,-502.5 1503,-521.5"/>
<text text-anchor="middle" x="1415" y="-509.5" font-family="Helvetica,sans-Serif" font-size="10.00">EnemyTank::aggressiveBehavior</text>
</a>
</g>
</g>
<!-- Node1&#45;&gt;Node2 -->
<g id="edge1_Node000001_Node000002" class="edge">
<title>Node1&#45;&gt;Node2</title>
<g id="a_edge1_Node000001_Node000002"><a xlink:title=" ">
<path fill="none" stroke="#63b8ff" d="M2058.12,-361.51C2050.32,-399.8 2027.19,-484.25 1970,-521 1796.62,-632.41 1525.41,-551.04 1441.56,-521.53"/>
<polygon fill="#63b8ff" stroke="#63b8ff" points="2061.57,-362.09 2059.99,-351.61 2054.69,-360.79 2061.57,-362.09"/>
</a>
</g>
</g>
<!-- Node5 -->
<g id="Node000005" class="node">
<title>Node5</title>
<g id="a_Node000005"><a xlink:href="classEnemyTank.html#a5759e09a78eab14d4b85dc1bd93ead19" target="_top" xlink:title="Attempts to shoot at player.">
<polygon fill="white" stroke="#666666" points="1713,-294.5 1573,-294.5 1573,-275.5 1713,-275.5 1713,-294.5"/>
<text text-anchor="middle" x="1643" y="-282.5" font-family="Helvetica,sans-Serif" font-size="10.00">EnemyTank::attemptShot</text>
</a>
</g>
</g>
<!-- Node1&#45;&gt;Node5 -->
<g id="edge4_Node000001_Node000005" class="edge">
<title>Node1&#45;&gt;Node5</title>
<g id="a_edge4_Node000001_Node000005"><a xlink:title=" ">
<path fill="none" stroke="#63b8ff" d="M2034.33,-327.88C2016.54,-319.36 1992.49,-309.17 1970,-304 1883.12,-284.03 1779.97,-281.42 1713.32,-282.39"/>
<polygon fill="#63b8ff" stroke="#63b8ff" points="2033.01,-331.13 2043.53,-332.41 2036.1,-324.85 2033.01,-331.13"/>
</a>
</g>
</g>
<!-- Node6 -->
<g id="Node000006" class="node">
<title>Node6</title>
<g id="a_Node000006"><a xlink:href="classEnemyTank.html#aa70aff895200207527e2465c9439fc05" target="_top" xlink:title="Carefully approaches player.">
<polygon fill="white" stroke="#666666" points="1498,-445.5 1332,-445.5 1332,-426.5 1498,-426.5 1498,-445.5"/>
<text text-anchor="middle" x="1415" y="-433.5" font-family="Helvetica,sans-Serif" font-size="10.00">EnemyTank::cautiousApproach</text>
</a>
</g>
</g>
<!-- Node1&#45;&gt;Node6 -->
<g id="edge6_Node000001_Node000006" class="edge">
<title>Node1&#45;&gt;Node6</title>
<g id="a_edge6_Node000001_Node000006"><a xlink:title=" ">
<path fill="none" stroke="#63b8ff" d="M2017.38,-354.22C2002.42,-358.06 1985.56,-362.06 1970,-365 1803.74,-396.44 1606.73,-418 1498.14,-428.55"/>
<polygon fill="#63b8ff" stroke="#63b8ff" points="2018.6,-357.52 2027.39,-351.6 2016.83,-350.74 2018.6,-357.52"/>
</a>
</g>
</g>
<!-- Node7 -->
<g id="Node000007" class="node">
<title>Node7</title>
<g id="a_Node000007"><a xlink:href="classEnemyTank.html#a39add8a8beb8bb7b69124753ec2dae74" target="_top" xlink:title="Executes defensive behavior.">
<polygon fill="white" stroke="#666666" points="1276.5,-445.5 1106.5,-445.5 1106.5,-426.5 1276.5,-426.5 1276.5,-445.5"/>
<text text-anchor="middle" x="1191.5" y="-433.5" font-family="Helvetica,sans-Serif" font-size="10.00">EnemyTank::defensiveBehavior</text>
</a>
</g>
</g>
<!-- Node1&#45;&gt;Node7 -->
<g id="edge26_Node000001_Node000007" class="edge">
<title>Node1&#45;&gt;Node7</title>
<g id="a_edge26_Node000001_Node000007"><a xlink:title=" ">
<path fill="none" stroke="#63b8ff" d="M2058.12,-361.51C2050.32,-399.8 2027.19,-484.25 1970,-521 1903.51,-563.72 1443.28,-570.14 1323,-531 1270.24,-513.83 1221.03,-466.39 1201.44,-445.78"/>
<polygon fill="#63b8ff" stroke="#63b8ff" points="2061.57,-362.09 2059.99,-351.61 2054.69,-360.79 2061.57,-362.09"/>
</a>
</g>
</g>
<!-- Node8 -->
<g id="Node000008" class="node">
<title>Node8</title>
<g id="a_Node000008"><a xlink:href="classMapManager.html#ac1472dad9f9391e45fafadef9c30c1ab" target="_top" xlink:title="Creates game world from map layout.">
<polygon fill="white" stroke="#666666" points="1970,-140.5 1779,-140.5 1779,-121.5 1970,-121.5 1970,-140.5"/>
<text text-anchor="middle" x="1874.5" y="-128.5" font-family="Helvetica,sans-Serif" font-size="10.00">MapManager::createWorldFromMap</text>
</a>
</g>
</g>
<!-- Node1&#45;&gt;Node8 -->
<g id="edge9_Node000001_Node000008" class="edge">
<title>Node1&#45;&gt;Node8</title>
<g id="a_edge9_Node000001_Node000008"><a xlink:title=" ">
<path fill="none" stroke="#63b8ff" d="M2057.41,-322.41C2048.48,-284.56 2023.57,-201.22 1970,-157 1961.08,-149.63 1950.23,-144.35 1939.1,-140.55"/>
<polygon fill="#63b8ff" stroke="#63b8ff" points="2054.01,-323.21 2059.6,-332.21 2060.84,-321.68 2054.01,-323.21"/>
</a>
</g>
</g>
<!-- Node19 -->
<g id="Node000019" class="node">
<title>Node19</title>
<g id="a_Node000019"><a xlink:href="classEnemyTank.html#a85bd09ffb86b2c36c6b76fe6f6752324" target="_top" xlink:title="Moves away from player.">
<polygon fill="white" stroke="#666666" points="1720,-521.5 1566,-521.5 1566,-502.5 1720,-502.5 1720,-521.5"/>
<text text-anchor="middle" x="1643" y="-509.5" font-family="Helvetica,sans-Serif" font-size="10.00">EnemyTank::defensiveMove</text>
</a>
</g>
</g>
<!-- Node1&#45;&gt;Node19 -->
<g id="edge27_Node000001_Node000019" class="edge">
<title>Node1&#45;&gt;Node19</title>
<g id="a_edge27_Node000001_Node000019"><a xlink:title=" ">
<path fill="none" stroke="#63b8ff" d="M2055.67,-361.26C2044.75,-393.62 2017.88,-458.16 1970,-487 1885.03,-538.19 1764.16,-531.14 1695.99,-521.51"/>
<polygon fill="#63b8ff" stroke="#63b8ff" points="2059.04,-362.21 2058.77,-351.62 2052.38,-360.07 2059.04,-362.21"/>
</a>
</g>
</g>
<!-- Node20 -->
<g id="Node000020" class="node">
<title>Node20</title>
<g id="a_Node000020"><a xlink:href="classEnemyTank.html#a3038987b5595e2ec68508dfde4a35d51" target="_top" xlink:title="Searches for cover.">
<polygon fill="white" stroke="#666666" points="1705.5,-370.5 1580.5,-370.5 1580.5,-351.5 1705.5,-351.5 1705.5,-370.5"/>
<text text-anchor="middle" x="1643" y="-358.5" font-family="Helvetica,sans-Serif" font-size="10.00">EnemyTank::findCover</text>
</a>
</g>
</g>
<!-- Node1&#45;&gt;Node20 -->
<g id="edge30_Node000001_Node000020" class="edge">
<title>Node1&#45;&gt;Node20</title>
<g id="a_edge30_Node000001_Node000020"><a xlink:title=" ">
<path fill="none" stroke="#63b8ff" d="M1995.23,-345.02C1915.63,-348.64 1783.14,-354.67 1705.65,-358.19"/>
<polygon fill="#63b8ff" stroke="#63b8ff" points="1995.8,-348.49 2005.63,-344.54 1995.48,-341.5 1995.8,-348.49"/>
</a>
</g>
</g>
<!-- Node21 -->
<g id="Node000021" class="node">
<title>Node21</title>
<g id="a_Node000021"><a xlink:href="classEnemyTank.html#a502b571b6aadbbcd72392d182b7fd85c" target="_top" xlink:title="Fires projectile from enemy tank.">
<polygon fill="white" stroke="#666666" points="1922,-256.5 1827,-256.5 1827,-237.5 1922,-237.5 1922,-256.5"/>
<text text-anchor="middle" x="1874.5" y="-244.5" font-family="Helvetica,sans-Serif" font-size="10.00">EnemyTank::fire</text>
</a>
</g>
</g>
<!-- Node1&#45;&gt;Node21 -->
<g id="edge32_Node000001_Node000021" class="edge">
<title>Node1&#45;&gt;Node21</title>
<g id="a_edge32_Node000001_Node000021"><a xlink:title=" ">
<path fill="none" stroke="#63b8ff" d="M2044.13,-324.92C2026.75,-308.76 1998.57,-284.95 1970,-271 1955.09,-263.72 1937.75,-258.5 1922.02,-254.82"/>
<polygon fill="#63b8ff" stroke="#63b8ff" points="2042.09,-327.81 2051.75,-332.16 2046.91,-322.74 2042.09,-327.81"/>
</a>
</g>
</g>
<!-- Node23 -->
<g id="Node000023" class="node">
<title>Node23</title>
<g id="a_Node000023"><a xlink:href="classGameWorld.html#a982893516231aaf0aec251561189b5c9" target="_top" xlink:title="Handles enemy collision.">
<polygon fill="white" stroke="#666666" points="1968.5,-219.5 1780.5,-219.5 1780.5,-200.5 1968.5,-200.5 1968.5,-219.5"/>
<text text-anchor="middle" x="1874.5" y="-207.5" font-family="Helvetica,sans-Serif" font-size="10.00">GameWorld::handleEnemyCollision</text>
</a>
</g>
</g>
<!-- Node1&#45;&gt;Node23 -->
<g id="edge36_Node000001_Node000023" class="edge">
<title>Node1&#45;&gt;Node23</title>
<g id="a_edge36_Node000001_Node000023"><a xlink:title=" ">
<path fill="none" stroke="#63b8ff" d="M2052.05,-323.33C2037.94,-297.47 2008.79,-251.32 1970,-228 1964.42,-224.64 1958.34,-221.89 1952.06,-219.64"/>
<polygon fill="#63b8ff" stroke="#63b8ff" points="2049.11,-325.24 2056.87,-332.45 2055.3,-321.97 2049.11,-325.24"/>
</a>
</g>
</g>
<!-- Node26 -->
<g id="Node000026" class="node">
<title>Node26</title>
<g id="a_Node000026"><a xlink:href="classEnemyTank.html#ad9f295f9b2df24bb291db3783b292289" target="_top" xlink:title="Moves enemy tank in specified direction.">
<polygon fill="white" stroke="#666666" points="1928,-446.5 1821,-446.5 1821,-427.5 1928,-427.5 1928,-446.5"/>
<text text-anchor="middle" x="1874.5" y="-434.5" font-family="Helvetica,sans-Serif" font-size="10.00">EnemyTank::move</text>
</a>
</g>
</g>
<!-- Node1&#45;&gt;Node26 -->
<g id="edge40_Node000001_Node000026" class="edge">
<title>Node1&#45;&gt;Node26</title>
<g id="a_edge40_Node000001_Node000026"><a xlink:title=" ">
<path fill="none" stroke="#63b8ff" d="M2044.13,-359.08C2026.75,-375.24 1998.57,-399.05 1970,-413 1957.07,-419.31 1942.31,-424.08 1928.36,-427.63"/>
<polygon fill="#63b8ff" stroke="#63b8ff" points="2046.91,-361.26 2051.75,-351.84 2042.09,-356.19 2046.91,-361.26"/>
</a>
</g>
</g>
<!-- Node27 -->
<g id="Node000027" class="node">
<title>Node27</title>
<g id="a_Node000027"><a xlink:href="classEnemyTank.html#aa7421a7881c97b14301ef95e11fac1a8" target="_top" xlink:title="Moves towards player position.">
<polygon fill="white" stroke="#666666" points="1731.5,-484.5 1554.5,-484.5 1554.5,-465.5 1731.5,-465.5 1731.5,-484.5"/>
<text text-anchor="middle" x="1643" y="-472.5" font-family="Helvetica,sans-Serif" font-size="10.00">EnemyTank::moveTowardsPlayer</text>
</a>
</g>
</g>
<!-- Node1&#45;&gt;Node27 -->
<g id="edge47_Node000001_Node000027" class="edge">
<title>Node1&#45;&gt;Node27</title>
<g id="a_edge47_Node000001_Node000027"><a xlink:title=" ">
<path fill="none" stroke="#63b8ff" d="M2052.83,-360.64C2039.34,-387.2 2010.6,-435.05 1970,-456 1882.96,-500.91 1764.95,-493.86 1697.39,-484.53"/>
<polygon fill="#63b8ff" stroke="#63b8ff" points="2056,-362.12 2057.25,-351.6 2049.71,-359.05 2056,-362.12"/>
</a>
</g>
</g>
<!-- Node28 -->
<g id="Node000028" class="node">
<title>Node28</title>
<g id="a_Node000028"><a xlink:href="classGameWorld.html#a2b1db90f0ef907c7e93b1114357b8a90" target="_top" xlink:title="Moves player tank in specified direction.">
<polygon fill="white" stroke="#666666" points="1048,-219.5 911,-219.5 911,-200.5 1048,-200.5 1048,-219.5"/>
<text text-anchor="middle" x="979.5" y="-207.5" font-family="Helvetica,sans-Serif" font-size="10.00">GameWorld::playerMove</text>
</a>
</g>
</g>
<!-- Node1&#45;&gt;Node28 -->
<g id="edge48_Node000001_Node000028" class="edge">
<title>Node1&#45;&gt;Node28</title>
<g id="a_edge48_Node000001_Node000028"><a xlink:title=" ">
<path fill="none" stroke="#63b8ff" d="M2056.11,-322.37C2045.73,-288.75 2019.5,-220.91 1970,-191 1845.77,-115.91 1789.16,-171 1644,-171 1644,-171 1644,-171 1414,-171 1282.9,-171 1130.38,-188.91 1045.7,-200.46"/>
<polygon fill="#63b8ff" stroke="#63b8ff" points="2052.87,-323.74 2059.03,-332.35 2059.58,-321.77 2052.87,-323.74"/>
</a>
</g>
</g>
<!-- Node29 -->
<g id="Node000029" class="node">
<title>Node29</title>
<g id="a_Node000029"><a xlink:href="classEnemyTank.html#a327ab507c7512b075c5a4c85d6933bba" target="_top" xlink:title="Executes random movement behavior.">
<polygon fill="white" stroke="#666666" points="1954.5,-332.5 1794.5,-332.5 1794.5,-313.5 1954.5,-313.5 1954.5,-332.5"/>
<text text-anchor="middle" x="1874.5" y="-320.5" font-family="Helvetica,sans-Serif" font-size="10.00">EnemyTank::randomBehavior</text>
</a>
</g>
</g>
<!-- Node1&#45;&gt;Node29 -->
<g id="edge50_Node000001_Node000029" class="edge">
<title>Node1&#45;&gt;Node29</title>
<g id="a_edge50_Node000001_Node000029"><a xlink:title=" ">
<path fill="none" stroke="#63b8ff" d="M1995.96,-335.31C1982.67,-333.95 1968.55,-332.5 1954.84,-331.1"/>
<polygon fill="#63b8ff" stroke="#63b8ff" points="1995.64,-338.79 2005.95,-336.33 1996.35,-331.83 1995.64,-338.79"/>
</a>
</g>
</g>
<!-- Node30 -->
<g id="Node000030" class="node">
<title>Node30</title>
<g id="a_Node000030"><a xlink:href="classPlayerTank.html#a59e06eac615955573cfa6842e37f41ad" target="_top" xlink:title="Resets player tank to initial state.">
<polygon fill="white" stroke="#666666" points="1925,-103.5 1824,-103.5 1824,-84.5 1925,-84.5 1925,-103.5"/>
<text text-anchor="middle" x="1874.5" y="-91.5" font-family="Helvetica,sans-Serif" font-size="10.00">PlayerTank::reset</text>
</a>
</g>
</g>
<!-- Node1&#45;&gt;Node30 -->
<g id="edge54_Node000001_Node000030" class="edge">
<title>Node1&#45;&gt;Node30</title>
<g id="a_edge54_Node000001_Node000030"><a xlink:title=" ">
<path fill="none" stroke="#63b8ff" d="M2059.83,-322.02C2054.94,-276.92 2036.46,-166.87 1970,-112 1957.51,-101.69 1940.91,-96.6 1925.12,-94.27"/>
<polygon fill="#63b8ff" stroke="#63b8ff" points="2056.38,-322.63 2060.83,-332.24 2063.34,-321.95 2056.38,-322.63"/>
</a>
</g>
</g>
<!-- Node3 -->
<g id="Node000003" class="node">
<title>Node3</title>
<g id="a_Node000003"><a xlink:href="classEnemyTank.html#a338556623afc739ebf5585caaa73fcdb" target="_top" xlink:title="Decides next action based on behavior.">
<polygon fill="white" stroke="#666666" points="1060,-388.5 899,-388.5 899,-369.5 1060,-369.5 1060,-388.5"/>
<text text-anchor="middle" x="979.5" y="-376.5" font-family="Helvetica,sans-Serif" font-size="10.00">EnemyTank::decideNextMove</text>
</a>
</g>
</g>
<!-- Node2&#45;&gt;Node3 -->
<g id="edge2_Node000002_Node000003" class="edge">
<title>Node2&#45;&gt;Node3</title>
<g id="a_edge2_Node000002_Node000003"><a xlink:title=" ">
<path fill="none" stroke="#63b8ff" d="M1316.55,-504.8C1252.14,-497.59 1166.84,-483.27 1096,-455 1054.09,-438.28 1011.44,-405.13 991.75,-388.7"/>
<polygon fill="#63b8ff" stroke="#63b8ff" points="1316.39,-508.3 1326.71,-505.9 1317.14,-501.34 1316.39,-508.3"/>
</a>
</g>
</g>
<!-- Node4 -->
<g id="Node000004" class="node">
<title>Node4</title>
<g id="a_Node000004"><a xlink:href="classEnemyTank.html#a7ae5efc6eff4e7a19abb7f37b44835fc" target="_top" xlink:title="Updates enemy tank state and AI decisions.">
<polygon fill="white" stroke="#666666" points="840.5,-388.5 727.5,-388.5 727.5,-369.5 840.5,-369.5 840.5,-388.5"/>
<text text-anchor="middle" x="784" y="-376.5" font-family="Helvetica,sans-Serif" font-size="10.00">EnemyTank::update</text>
</a>
</g>
</g>
<!-- Node3&#45;&gt;Node4 -->
<g id="edge3_Node000003_Node000004" class="edge">
<title>Node3&#45;&gt;Node4</title>
<g id="a_edge3_Node000003_Node000004"><a xlink:title=" ">
<path fill="none" stroke="#63b8ff" d="M888.78,-379C872.36,-379 855.67,-379 840.61,-379"/>
<polygon fill="#63b8ff" stroke="#63b8ff" points="888.96,-382.5 898.96,-379 888.96,-375.5 888.96,-382.5"/>
</a>
</g>
</g>
<!-- Node5&#45;&gt;Node3 -->
<g id="edge5_Node000005_Node000003" class="edge">
<title>Node5&#45;&gt;Node3</title>
<g id="a_edge5_Node000005_Node000003"><a xlink:title=" ">
<path fill="none" stroke="#63b8ff" d="M1562.76,-276.42C1454.66,-267.4 1256.09,-260.46 1096,-309 1054.04,-321.72 1011.75,-353.21 992,-369.26"/>
<polygon fill="#63b8ff" stroke="#63b8ff" points="1562.67,-279.92 1572.93,-277.3 1563.27,-272.95 1562.67,-279.92"/>
</a>
</g>
</g>
<!-- Node6&#45;&gt;Node7 -->
<g id="edge7_Node000006_Node000007" class="edge">
<title>Node6&#45;&gt;Node7</title>
<g id="a_edge7_Node000006_Node000007"><a xlink:title=" ">
<path fill="none" stroke="#63b8ff" d="M1321.63,-436C1306.75,-436 1291.42,-436 1276.75,-436"/>
<polygon fill="#63b8ff" stroke="#63b8ff" points="1321.84,-439.5 1331.84,-436 1321.84,-432.5 1321.84,-439.5"/>
</a>
</g>
</g>
<!-- Node7&#45;&gt;Node3 -->
<g id="edge8_Node000007_Node000003" class="edge">
<title>Node7&#45;&gt;Node3</title>
<g id="a_edge8_Node000007_Node000003"><a xlink:title=" ">
<path fill="none" stroke="#63b8ff" d="M1145.37,-423.75C1106.57,-413.22 1051.39,-398.24 1015.76,-388.57"/>
<polygon fill="#63b8ff" stroke="#63b8ff" points="1144.78,-427.22 1155.35,-426.46 1146.62,-420.46 1144.78,-427.22"/>
</a>
</g>
</g>
<!-- Node9 -->
<g id="Node000009" class="node">
<title>Node9</title>
<g id="a_Node000009"><a xlink:href="classGameController.html#a09c76a5ae9b8f514163dafe31273f44f" target="_top" xlink:title="Loads the currently selected map.">
<polygon fill="white" stroke="#666666" points="1507,-139.5 1323,-139.5 1323,-120.5 1507,-120.5 1507,-139.5"/>
<text text-anchor="middle" x="1415" y="-127.5" font-family="Helvetica,sans-Serif" font-size="10.00">GameController::loadSelectedMap</text>
</a>
</g>
</g>
<!-- Node8&#45;&gt;Node9 -->
<g id="edge10_Node000008_Node000009" class="edge">
<title>Node8&#45;&gt;Node9</title>
<g id="a_edge10_Node000008_Node000009"><a xlink:title=" ">
<path fill="none" stroke="#63b8ff" d="M1768.53,-130.77C1689.64,-130.6 1582.63,-130.36 1507.27,-130.2"/>
<polygon fill="#63b8ff" stroke="#63b8ff" points="1768.98,-134.27 1778.98,-130.79 1768.99,-127.27 1768.98,-134.27"/>
</a>
</g>
</g>
<!-- Node10 -->
<g id="Node000010" class="node">
<title>Node10</title>
<g id="a_Node000010"><a xlink:href="classGameController.html#a4086fc466d91f45c41b2bc5df06af77a" target="_top" xlink:title="Loads the next game level.">
<polygon fill="white" stroke="#666666" points="1263.5,-68 1119.5,-68 1119.5,-38 1263.5,-38 1263.5,-68"/>
<text text-anchor="start" x="1127.5" y="-56" font-family="Helvetica,sans-Serif" font-size="10.00">GameController::loadNext</text>
<text text-anchor="middle" x="1191.5" y="-45" font-family="Helvetica,sans-Serif" font-size="10.00">Level</text>
</a>
</g>
</g>
<!-- Node9&#45;&gt;Node10 -->
<g id="edge11_Node000009_Node000010" class="edge">
<title>Node9&#45;&gt;Node10</title>
<g id="a_edge11_Node000009_Node000010"><a xlink:title=" ">
<path fill="none" stroke="#63b8ff" d="M1384.57,-116.27C1359.13,-104.75 1321.16,-88.4 1287,-77 1277.37,-73.79 1267.06,-70.76 1256.92,-68.01"/>
<polygon fill="#63b8ff" stroke="#63b8ff" points="1383.13,-119.46 1393.68,-120.43 1386.03,-113.09 1383.13,-119.46"/>
</a>
</g>
</g>
<!-- Node15 -->
<g id="Node000015" class="node">
<title>Node15</title>
<g id="a_Node000015"><a xlink:href="classGameController.html#a4a9c94fe33cf6c73bb5dfc415d04d309" target="_top" xlink:title="Displays map selection screen.">
<polygon fill="white" stroke="#666666" points="1287,-105.5 1096,-105.5 1096,-86.5 1287,-86.5 1287,-105.5"/>
<text text-anchor="middle" x="1191.5" y="-93.5" font-family="Helvetica,sans-Serif" font-size="10.00">GameController::showMapSelection</text>
</a>
</g>
</g>
<!-- Node9&#45;&gt;Node15 -->
<g id="edge16_Node000009_Node000015" class="edge">
<title>Node9&#45;&gt;Node15</title>
<g id="a_edge16_Node000009_Node000015"><a xlink:title=" ">
<path fill="none" stroke="#63b8ff" d="M1341.81,-118.92C1313.61,-114.59 1281.61,-109.68 1254.48,-105.51"/>
<polygon fill="#63b8ff" stroke="#63b8ff" points="1341.59,-122.43 1352.01,-120.48 1342.65,-115.51 1341.59,-122.43"/>
</a>
</g>
</g>
<!-- Node11 -->
<g id="Node000011" class="node">
<title>Node11</title>
<g id="a_Node000011"><a xlink:href="classGameController.html#a85bcf4ecfd197aad278e116215a3717b" target="_top" xlink:title="Displays level completion screen.">
<polygon fill="white" stroke="#666666" points="860,-30 708,-30 708,0 860,0 860,-30"/>
<text text-anchor="start" x="716" y="-18" font-family="Helvetica,sans-Serif" font-size="10.00">GameController::showLevel</text>
<text text-anchor="middle" x="784" y="-7" font-family="Helvetica,sans-Serif" font-size="10.00">CompleteScreen</text>
</a>
</g>
</g>
<!-- Node10&#45;&gt;Node11 -->
<g id="edge12_Node000010_Node000011" class="edge">
<title>Node10&#45;&gt;Node11</title>
<g id="a_edge12_Node000010_Node000011"><a xlink:title=" ">
<path fill="none" stroke="#63b8ff" d="M1109.37,-45.4C1036.69,-38.59 930.93,-28.68 860.14,-22.04"/>
<polygon fill="#63b8ff" stroke="#63b8ff" points="1109.12,-48.89 1119.4,-46.34 1109.77,-41.92 1109.12,-48.89"/>
</a>
</g>
</g>
<!-- Node12 -->
<g id="Node000012" class="node">
<title>Node12</title>
<g id="a_Node000012"><a xlink:href="classGameController.html#af2367e58f03d8a1441c9a574967fd360" target="_top" xlink:title="Processes a single game turn/update cycle.">
<polygon fill="white" stroke="#666666" points="445,-124.5 258,-124.5 258,-105.5 445,-105.5 445,-124.5"/>
<text text-anchor="middle" x="351.5" y="-112.5" font-family="Helvetica,sans-Serif" font-size="10.00">GameController::processGameTurn</text>
</a>
</g>
</g>
<!-- Node11&#45;&gt;Node12 -->
<g id="edge13_Node000011_Node000012" class="edge">
<title>Node11&#45;&gt;Node12</title>
<g id="a_edge13_Node000011_Node000012"><a xlink:title=" ">
<path fill="none" stroke="#63b8ff" d="M708.08,-32.4C616.81,-53.6 465.89,-88.66 393.59,-105.46"/>
<polygon fill="#63b8ff" stroke="#63b8ff" points="709.13,-35.75 718.08,-30.08 707.55,-28.93 709.13,-35.75"/>
</a>
</g>
</g>
<!-- Node13 -->
<g id="Node000013" class="node">
<title>Node13</title>
<g id="a_Node000013"><a xlink:href="classGameController.html#ac958989c8f7f08488546930e5fcb0d82" target="_top" xlink:title="Starts and runs the main game loop.">
<polygon fill="white" stroke="#666666" points="222,-105.5 77,-105.5 77,-86.5 222,-86.5 222,-105.5"/>
<text text-anchor="middle" x="149.5" y="-93.5" font-family="Helvetica,sans-Serif" font-size="10.00">GameController::runGame</text>
</a>
</g>
</g>
<!-- Node12&#45;&gt;Node13 -->
<g id="edge14_Node000012_Node000013" class="edge">
<title>Node12&#45;&gt;Node13</title>
<g id="a_edge14_Node000012_Node000013"><a xlink:title=" ">
<path fill="none" stroke="#63b8ff" d="M247.71,-105.24C239.1,-104.42 230.52,-103.6 222.22,-102.81"/>
<polygon fill="#63b8ff" stroke="#63b8ff" points="247.53,-108.73 257.82,-106.2 248.19,-101.77 247.53,-108.73"/>
</a>
</g>
</g>
<!-- Node14 -->
<g id="Node000014" class="node">
<title>Node14</title>
<g id="a_Node000014"><a xlink:href="main_8cpp.html#ae66f6b31b5ad750f1fe042a706a4e3d4" target="_top" xlink:title="Main function that serves as the application entry point.">
<polygon fill="white" stroke="#666666" points="41,-105.5 0,-105.5 0,-86.5 41,-86.5 41,-105.5"/>
<text text-anchor="middle" x="20.5" y="-93.5" font-family="Helvetica,sans-Serif" font-size="10.00">main</text>
</a>
</g>
</g>
<!-- Node13&#45;&gt;Node14 -->
<g id="edge15_Node000013_Node000014" class="edge">
<title>Node13&#45;&gt;Node14</title>
<g id="a_edge15_Node000013_Node000014"><a xlink:title=" ">
<path fill="none" stroke="#63b8ff" d="M66.79,-96C57.31,-96 48.43,-96 41.08,-96"/>
<polygon fill="#63b8ff" stroke="#63b8ff" points="66.83,-99.5 76.83,-96 66.83,-92.5 66.83,-99.5"/>
</a>
</g>
</g>
<!-- Node16 -->
<g id="Node000016" class="node">
<title>Node16</title>
<g id="a_Node000016"><a xlink:href="classGameController.html#a971b3d8f6296a74f0bebc83b5e79c186" target="_top" xlink:title="Processes a user command.">
<polygon fill="white" stroke="#666666" points="669,-143.5 481,-143.5 481,-124.5 669,-124.5 669,-143.5"/>
<text text-anchor="middle" x="575" y="-131.5" font-family="Helvetica,sans-Serif" font-size="10.00">GameController::processCommand</text>
</a>
</g>
</g>
<!-- Node15&#45;&gt;Node16 -->
<g id="edge17_Node000015_Node000016" class="edge">
<title>Node15&#45;&gt;Node16</title>
<g id="a_edge17_Node000015_Node000016"><a xlink:title=" ">
<path fill="none" stroke="#63b8ff" d="M1114.18,-106.93C1096.41,-109.36 1077.55,-111.85 1060,-114 972.6,-124.68 950.93,-130.33 863,-135 792.88,-138.73 775.22,-135.27 705,-135 693.35,-134.95 681.12,-134.89 669.01,-134.81"/>
<polygon fill="#63b8ff" stroke="#63b8ff" points="1115.07,-110.34 1124.5,-105.51 1114.11,-103.41 1115.07,-110.34"/>
</a>
</g>
</g>
<!-- Node17 -->
<g id="Node000017" class="node">
<title>Node17</title>
<g id="a_Node000017"><a xlink:href="classGameController.html#a9d11b5a6255b7249bddba49df0837cf3" target="_top" xlink:title="Displays and manages the main menu.">
<polygon fill="white" stroke="#666666" points="1055.5,-105.5 903.5,-105.5 903.5,-86.5 1055.5,-86.5 1055.5,-105.5"/>
<text text-anchor="middle" x="979.5" y="-93.5" font-family="Helvetica,sans-Serif" font-size="10.00">GameController::showMenu</text>
</a>
</g>
</g>
<!-- Node15&#45;&gt;Node17 -->
<g id="edge19_Node000015_Node000017" class="edge">
<title>Node15&#45;&gt;Node17</title>
<g id="a_edge19_Node000015_Node000017"><a xlink:title=" ">
<path fill="none" stroke="#63b8ff" d="M1085.79,-89.25C1075.62,-89.25 1065.45,-89.33 1055.65,-89.5"/>
<polygon fill="#63b8ff" stroke="#63b8ff" points="1085.93,-92.75 1095.94,-89.28 1085.95,-85.75 1085.93,-92.75"/>
</a>
</g>
</g>
<!-- Node16&#45;&gt;Node12 -->
<g id="edge18_Node000016_Node000012" class="edge">
<title>Node16&#45;&gt;Node12</title>
<g id="a_edge18_Node000016_Node000012"><a xlink:title=" ">
<path fill="none" stroke="#63b8ff" d="M470.5,-125.12C462.1,-124.4 453.65,-123.68 445.33,-122.96"/>
<polygon fill="#63b8ff" stroke="#63b8ff" points="470.44,-128.63 480.71,-126 471.04,-121.66 470.44,-128.63"/>
</a>
</g>
</g>
<!-- Node17&#45;&gt;Node11 -->
<g id="edge24_Node000017_Node000011" class="edge">
<title>Node17&#45;&gt;Node11</title>
<g id="a_edge24_Node000017_Node000011"><a xlink:title=" ">
<path fill="none" stroke="#63b8ff" d="M948.94,-82.03C925.75,-71.23 892.55,-56.13 863,-44 851.51,-39.28 838.93,-34.46 827.3,-30.14"/>
<polygon fill="#63b8ff" stroke="#63b8ff" points="947.69,-85.31 958.23,-86.38 950.66,-78.97 947.69,-85.31"/>
</a>
</g>
</g>
<!-- Node17&#45;&gt;Node13 -->
<g id="edge23_Node000017_Node000013" class="edge">
<title>Node17&#45;&gt;Node13</title>
<g id="a_edge23_Node000017_Node000013"><a xlink:title=" ">
<path fill="none" stroke="#63b8ff" d="M921.45,-84.72C902.89,-81.56 882.14,-78.56 863,-77 629.13,-57.89 350.8,-77.52 222.19,-88.98"/>
<polygon fill="#63b8ff" stroke="#63b8ff" points="921.06,-88.21 931.51,-86.49 922.27,-81.31 921.06,-88.21"/>
</a>
</g>
</g>
<!-- Node17&#45;&gt;Node15 -->
<g id="edge25_Node000017_Node000015" class="edge">
<title>Node17&#45;&gt;Node15</title>
<g id="a_edge25_Node000017_Node000015"><a xlink:title=" ">
<path fill="none" stroke="#63b8ff" d="M1065.87,-102.64C1075.78,-102.75 1085.92,-102.78 1095.94,-102.72"/>
<polygon fill="#63b8ff" stroke="#63b8ff" points="1065.7,-99.14 1055.65,-102.5 1065.6,-106.14 1065.7,-99.14"/>
</a>
</g>
</g>
<!-- Node17&#45;&gt;Node16 -->
<g id="edge22_Node000017_Node000016" class="edge">
<title>Node17&#45;&gt;Node16</title>
<g id="a_edge22_Node000017_Node000016"><a xlink:title=" ">
<path fill="none" stroke="#63b8ff" d="M913.62,-107.1C897.14,-109.65 879.45,-112.15 863,-114 798.48,-121.26 725.47,-126.31 669.24,-129.51"/>
<polygon fill="#63b8ff" stroke="#63b8ff" points="914.36,-110.53 923.7,-105.52 913.27,-103.61 914.36,-110.53"/>
</a>
</g>
</g>
<!-- Node18 -->
<g id="Node000018" class="node">
<title>Node18</title>
<g id="a_Node000018"><a xlink:href="classGameController.html#a637ea4e72ed2be4a2884b30160b3e8ab" target="_top" xlink:title="Pauses the game and displays pause screen.">
<polygon fill="white" stroke="#666666" points="863,-105.5 705,-105.5 705,-86.5 863,-86.5 863,-105.5"/>
<text text-anchor="middle" x="784" y="-93.5" font-family="Helvetica,sans-Serif" font-size="10.00">GameController::pauseGame</text>
</a>
</g>
</g>
<!-- Node17&#45;&gt;Node18 -->
<g id="edge20_Node000017_Node000018" class="edge">
<title>Node17&#45;&gt;Node18</title>
<g id="a_edge20_Node000017_Node000018"><a xlink:title=" ">
<path fill="none" stroke="#63b8ff" d="M893.13,-96C883.19,-96 873.08,-96 863.24,-96"/>
<polygon fill="#63b8ff" stroke="#63b8ff" points="893.41,-99.5 903.41,-96 893.41,-92.5 893.41,-99.5"/>
</a>
</g>
</g>
<!-- Node18&#45;&gt;Node16 -->
<g id="edge21_Node000018_Node000016" class="edge">
<title>Node18&#45;&gt;Node16</title>
<g id="a_edge21_Node000018_Node000016"><a xlink:title=" ">
<path fill="none" stroke="#63b8ff" d="M721.19,-107.35C691.49,-112.8 656.29,-119.26 627.99,-124.46"/>
<polygon fill="#63b8ff" stroke="#63b8ff" points="721.83,-110.79 731.03,-105.54 720.56,-103.9 721.83,-110.79"/>
</a>
</g>
</g>
<!-- Node19&#45;&gt;Node2 -->
<g id="edge28_Node000019_Node000002" class="edge">
<title>Node19&#45;&gt;Node2</title>
<g id="a_edge28_Node000019_Node000002"><a xlink:title=" ">
<path fill="none" stroke="#63b8ff" d="M1555.77,-512C1538.54,-512 1520.43,-512 1503.17,-512"/>
<polygon fill="#63b8ff" stroke="#63b8ff" points="1555.8,-515.5 1565.8,-512 1555.8,-508.5 1555.8,-515.5"/>
</a>
</g>
</g>
<!-- Node19&#45;&gt;Node7 -->
<g id="edge29_Node000019_Node000007" class="edge">
<title>Node19&#45;&gt;Node7</title>
<g id="a_edge29_Node000019_Node000007"><a xlink:title=" ">
<path fill="none" stroke="#63b8ff" d="M1575.59,-500.77C1487.04,-485.8 1331.82,-459.56 1248.74,-445.51"/>
<polygon fill="#63b8ff" stroke="#63b8ff" points="1575.08,-504.24 1585.53,-502.45 1576.25,-497.33 1575.08,-504.24"/>
</a>
</g>
</g>
<!-- Node20&#45;&gt;Node7 -->
<g id="edge31_Node000020_Node000007" class="edge">
<title>Node20&#45;&gt;Node7</title>
<g id="a_edge31_Node000020_Node000007"><a xlink:title=" ">
<path fill="none" stroke="#63b8ff" d="M1574.69,-372.23C1486.27,-386.98 1332.53,-412.64 1249.54,-426.48"/>
<polygon fill="#63b8ff" stroke="#63b8ff" points="1575.33,-375.67 1584.61,-370.57 1574.17,-368.77 1575.33,-375.67"/>
</a>
</g>
</g>
<!-- Node21&#45;&gt;Node5 -->
<g id="edge33_Node000021_Node000005" class="edge">
<title>Node21&#45;&gt;Node5</title>
<g id="a_edge33_Node000021_Node000005"><a xlink:title=" ">
<path fill="none" stroke="#63b8ff" d="M1816.71,-256.4C1781.67,-262.21 1736.85,-269.63 1701.65,-275.46"/>
<polygon fill="#63b8ff" stroke="#63b8ff" points="1817.49,-259.82 1826.78,-254.74 1816.34,-252.92 1817.49,-259.82"/>
</a>
</g>
</g>
<!-- Node22 -->
<g id="Node000022" class="node">
<title>Node22</title>
<g id="a_Node000022"><a xlink:href="classGameWorld.html#ab645acf30cb0a4640a8fb5b88c5c7c94" target="_top" xlink:title="Updates all game objects and logic.">
<polygon fill="white" stroke="#666666" points="1248,-256.5 1135,-256.5 1135,-237.5 1248,-237.5 1248,-256.5"/>
<text text-anchor="middle" x="1191.5" y="-244.5" font-family="Helvetica,sans-Serif" font-size="10.00">GameWorld::update</text>
</a>
</g>
</g>
<!-- Node21&#45;&gt;Node22 -->
<g id="edge34_Node000021_Node000022" class="edge">
<title>Node21&#45;&gt;Node22</title>
<g id="a_edge34_Node000021_Node000022"><a xlink:title=" ">
<path fill="none" stroke="#63b8ff" d="M1816.93,-247C1688.42,-247 1375.75,-247 1248.13,-247"/>
<polygon fill="#63b8ff" stroke="#63b8ff" points="1816.96,-250.5 1826.96,-247 1816.96,-243.5 1816.96,-250.5"/>
</a>
</g>
</g>
<!-- Node22&#45;&gt;Node12 -->
<g id="edge35_Node000022_Node000012" class="edge">
<title>Node22&#45;&gt;Node12</title>
<g id="a_edge35_Node000022_Node000012"><a xlink:title=" ">
<path fill="none" stroke="#63b8ff" d="M1124.55,-243.12C1065.45,-239.55 976.4,-233.91 899,-228 812.7,-221.41 790.27,-225.85 705,-211 603.58,-193.33 580.25,-179.36 481,-152 448.21,-142.96 410.87,-132.15 384.92,-124.56"/>
<polygon fill="#63b8ff" stroke="#63b8ff" points="1124.67,-246.64 1134.86,-243.74 1125.09,-239.65 1124.67,-246.64"/>
</a>
</g>
</g>
<!-- Node24 -->
<g id="Node000024" class="node">
<title>Node24</title>
<g id="a_Node000024"><a xlink:href="classGameWorld.html#a49a5714c352312fbc4502adc5dfa8854" target="_top" xlink:title="Updates movement for specific enemy.">
<polygon fill="white" stroke="#666666" points="1743,-218.5 1543,-218.5 1543,-199.5 1743,-199.5 1743,-218.5"/>
<text text-anchor="middle" x="1643" y="-206.5" font-family="Helvetica,sans-Serif" font-size="10.00">GameWorld::updateEnemyMovement</text>
</a>
</g>
</g>
<!-- Node23&#45;&gt;Node24 -->
<g id="edge37_Node000023_Node000024" class="edge">
<title>Node23&#45;&gt;Node24</title>
<g id="a_edge37_Node000023_Node000024"><a xlink:title=" ">
<path fill="none" stroke="#63b8ff" d="M1770.33,-209.55C1761.29,-209.51 1752.15,-209.47 1743.14,-209.43"/>
<polygon fill="#63b8ff" stroke="#63b8ff" points="1770.47,-213.05 1780.48,-209.59 1770.5,-206.05 1770.47,-213.05"/>
</a>
</g>
</g>
<!-- Node25 -->
<g id="Node000025" class="node">
<title>Node25</title>
<g id="a_Node000025"><a xlink:href="classGameWorld.html#a48cb994868f422ae759b15f3b9c861b6" target="_top" xlink:title="Updates AI for all enemies.">
<polygon fill="white" stroke="#666666" points="1493.5,-218.5 1336.5,-218.5 1336.5,-199.5 1493.5,-199.5 1493.5,-218.5"/>
<text text-anchor="middle" x="1415" y="-206.5" font-family="Helvetica,sans-Serif" font-size="10.00">GameWorld::updateEnemyAI</text>
</a>
</g>
</g>
<!-- Node24&#45;&gt;Node25 -->
<g id="edge38_Node000024_Node000025" class="edge">
<title>Node24&#45;&gt;Node25</title>
<g id="a_edge38_Node000024_Node000025"><a xlink:title=" ">
<path fill="none" stroke="#63b8ff" d="M1532.79,-209C1519.57,-209 1506.28,-209 1493.65,-209"/>
<polygon fill="#63b8ff" stroke="#63b8ff" points="1532.87,-212.5 1542.87,-209 1532.87,-205.5 1532.87,-212.5"/>
</a>
</g>
</g>
<!-- Node25&#45;&gt;Node22 -->
<g id="edge39_Node000025_Node000022" class="edge">
<title>Node25&#45;&gt;Node22</title>
<g id="a_edge39_Node000025_Node000022"><a xlink:title=" ">
<path fill="none" stroke="#63b8ff" d="M1348.27,-220.28C1316.41,-225.74 1278.55,-232.24 1248.13,-237.46"/>
<polygon fill="#63b8ff" stroke="#63b8ff" points="1349.13,-223.68 1358.39,-218.54 1347.94,-216.78 1349.13,-223.68"/>
</a>
</g>
</g>
<!-- Node26&#45;&gt;Node6 -->
<g id="edge41_Node000026_Node000006" class="edge">
<title>Node26&#45;&gt;Node6</title>
<g id="a_edge41_Node000026_Node000006"><a xlink:title=" ">
<path fill="none" stroke="#63b8ff" d="M1810.48,-436.86C1729.22,-436.68 1587.73,-436.38 1498.12,-436.18"/>
<polygon fill="#63b8ff" stroke="#63b8ff" points="1810.56,-440.36 1820.57,-436.88 1810.58,-433.36 1810.56,-440.36"/>
</a>
</g>
</g>
<!-- Node26&#45;&gt;Node19 -->
<g id="edge42_Node000026_Node000019" class="edge">
<title>Node26&#45;&gt;Node19</title>
<g id="a_edge42_Node000026_Node000019"><a xlink:title=" ">
<path fill="none" stroke="#63b8ff" d="M1846.24,-451.14C1820.31,-464.03 1779.91,-482.75 1743,-494 1732.05,-497.34 1720.23,-500.14 1708.69,-502.47"/>
<polygon fill="#63b8ff" stroke="#63b8ff" points="1848.07,-454.13 1855.43,-446.5 1844.92,-447.88 1848.07,-454.13"/>
</a>
</g>
</g>
<!-- Node26&#45;&gt;Node20 -->
<g id="edge43_Node000026_Node000020" class="edge">
<title>Node26&#45;&gt;Node20</title>
<g id="a_edge43_Node000026_Node000020"><a xlink:title=" ">
<path fill="none" stroke="#63b8ff" d="M1834.85,-424.2C1789.06,-409.04 1713.83,-384.12 1672.83,-370.55"/>
<polygon fill="#63b8ff" stroke="#63b8ff" points="1833.84,-427.55 1844.43,-427.37 1836.04,-420.91 1833.84,-427.55"/>
</a>
</g>
</g>
<!-- Node26&#45;&gt;Node27 -->
<g id="edge44_Node000026_Node000027" class="edge">
<title>Node26&#45;&gt;Node27</title>
<g id="a_edge44_Node000026_Node000027"><a xlink:title=" ">
<path fill="none" stroke="#63b8ff" d="M1810.55,-447.42C1776.53,-453.06 1734.81,-459.96 1701.64,-465.46"/>
<polygon fill="#63b8ff" stroke="#63b8ff" points="1811.55,-450.8 1820.85,-445.72 1810.41,-443.9 1811.55,-450.8"/>
</a>
</g>
</g>
<!-- Node27&#45;&gt;Node2 -->
<g id="edge45_Node000027_Node000002" class="edge">
<title>Node27&#45;&gt;Node2</title>
<g id="a_edge45_Node000027_Node000002"><a xlink:title=" ">
<path fill="none" stroke="#63b8ff" d="M1573.72,-486.18C1542.04,-491.37 1504.75,-497.47 1474.4,-502.44"/>
<polygon fill="#63b8ff" stroke="#63b8ff" points="1574.5,-489.6 1583.8,-484.53 1573.37,-482.69 1574.5,-489.6"/>
</a>
</g>
</g>
<!-- Node27&#45;&gt;Node6 -->
<g id="edge46_Node000027_Node000006" class="edge">
<title>Node27&#45;&gt;Node6</title>
<g id="a_edge46_Node000027_Node000006"><a xlink:title=" ">
<path fill="none" stroke="#63b8ff" d="M1576.58,-463.71C1543.15,-457.94 1502.93,-451 1471.11,-445.51"/>
<polygon fill="#63b8ff" stroke="#63b8ff" points="1576.26,-467.21 1586.71,-465.46 1577.46,-460.31 1576.26,-467.21"/>
</a>
</g>
</g>
<!-- Node28&#45;&gt;Node16 -->
<g id="edge49_Node000028_Node000016" class="edge">
<title>Node28&#45;&gt;Node16</title>
<g id="a_edge49_Node000028_Node000016"><a xlink:title=" ">
<path fill="none" stroke="#63b8ff" d="M900.66,-209.26C845.39,-207.26 769.8,-201.54 705,-186 664.14,-176.2 619.23,-155.7 594.65,-143.57"/>
<polygon fill="#63b8ff" stroke="#63b8ff" points="900.62,-212.76 910.73,-209.59 900.85,-205.76 900.62,-212.76"/>
</a>
</g>
</g>
<!-- Node29&#45;&gt;Node3 -->
<g id="edge51_Node000029_Node000003" class="edge">
<title>Node29&#45;&gt;Node3</title>
<g id="a_edge51_Node000029_Node000003"><a xlink:title=" ">
<path fill="none" stroke="#63b8ff" d="M1784.33,-327.93C1717.81,-331.65 1624.71,-336.96 1543,-342 1370.84,-352.61 1169.11,-366.15 1060.13,-373.55"/>
<polygon fill="#63b8ff" stroke="#63b8ff" points="1784.57,-331.42 1794.36,-327.37 1784.18,-324.43 1784.57,-331.42"/>
</a>
</g>
</g>
<!-- Node29&#45;&gt;Node20 -->
<g id="edge52_Node000029_Node000020" class="edge">
<title>Node29&#45;&gt;Node20</title>
<g id="a_edge52_Node000029_Node000020"><a xlink:title=" ">
<path fill="none" stroke="#63b8ff" d="M1805.83,-334.2C1772.72,-339.69 1733.29,-346.22 1701.64,-351.46"/>
<polygon fill="#63b8ff" stroke="#63b8ff" points="1806.59,-337.63 1815.88,-332.54 1805.45,-330.72 1806.59,-337.63"/>
</a>
</g>
</g>
<!-- Node29&#45;&gt;Node27 -->
<g id="edge53_Node000029_Node000027" class="edge">
<title>Node29&#45;&gt;Node27</title>
<g id="a_edge53_Node000029_Node000027"><a xlink:title=" ">
<path fill="none" stroke="#63b8ff" d="M1850.55,-338.2C1803.43,-369.41 1696.98,-439.91 1658.35,-465.5"/>
<polygon fill="#63b8ff" stroke="#63b8ff" points="1852.74,-340.95 1859.14,-332.51 1848.87,-335.11 1852.74,-340.95"/>
</a>
</g>
</g>
<!-- Node31 -->
<g id="Node000031" class="node">
<title>Node31</title>
<g id="a_Node000031"><a xlink:href="classGameWorld.html#a13fd8123f71f48726bfeb233961f88da" target="_top" xlink:title="Loads specified level.">
<polygon fill="white" stroke="#666666" points="1706.5,-101.5 1579.5,-101.5 1579.5,-82.5 1706.5,-82.5 1706.5,-101.5"/>
<text text-anchor="middle" x="1643" y="-89.5" font-family="Helvetica,sans-Serif" font-size="10.00">GameWorld::loadLevel</text>
</a>
</g>
</g>
<!-- Node30&#45;&gt;Node31 -->
<g id="edge55_Node000030_Node000031" class="edge">
<title>Node30&#45;&gt;Node31</title>
<g id="a_edge55_Node000030_Node000031"><a xlink:title=" ">
<path fill="none" stroke="#63b8ff" d="M1813.59,-93.48C1780.68,-93.19 1739.89,-92.84 1706.56,-92.55"/>
<polygon fill="#63b8ff" stroke="#63b8ff" points="1813.95,-96.98 1823.98,-93.57 1814.02,-89.98 1813.95,-96.98"/>
</a>
</g>
</g>
<!-- Node31&#45;&gt;Node9 -->
<g id="edge57_Node000031_Node000009" class="edge">
<title>Node31&#45;&gt;Node9</title>
<g id="a_edge57_Node000031_Node000009"><a xlink:title=" ">
<path fill="none" stroke="#63b8ff" d="M1575.36,-103.2C1542.76,-108.69 1503.93,-115.22 1472.76,-120.46"/>
<polygon fill="#63b8ff" stroke="#63b8ff" points="1575.98,-106.65 1585.26,-101.54 1574.82,-99.75 1575.98,-106.65"/>
</a>
</g>
</g>
<!-- Node31&#45;&gt;Node10 -->
<g id="edge56_Node000031_Node000010" class="edge">
<title>Node31&#45;&gt;Node10</title>
<g id="a_edge56_Node000031_Node000010"><a xlink:title=" ">
<path fill="none" stroke="#63b8ff" d="M1569.51,-85.71C1485.33,-78.41 1347.37,-66.44 1263.73,-59.18"/>
<polygon fill="#63b8ff" stroke="#63b8ff" points="1569.23,-89.2 1579.5,-86.58 1569.84,-82.23 1569.23,-89.2"/>
</a>
</g>
</g>
<!-- Node31&#45;&gt;Node15 -->
<g id="edge58_Node000031_Node000015" class="edge">
<title>Node31&#45;&gt;Node15</title>
<g id="a_edge58_Node000031_Node000015"><a xlink:title=" ">
<path fill="none" stroke="#63b8ff" d="M1569.45,-92.65C1492.79,-93.33 1371.58,-94.41 1287.38,-95.16"/>
<polygon fill="#63b8ff" stroke="#63b8ff" points="1569.53,-96.15 1579.5,-92.56 1569.47,-89.15 1569.53,-96.15"/>
</a>
</g>
</g>
</g>
</svg>
