<?xml version="1.0" encoding="UTF-8" standalone="no"?>
<!DOCTYPE svg PUBLIC "-//W3C//DTD SVG 1.1//EN"
 "http://www.w3.org/Graphics/SVG/1.1/DTD/svg11.dtd">
<!-- Generated by graphviz version 2.43.0 (0)
 -->
<!-- Title: GameWorld::getCurrentLevel Pages: 1 -->
<!--zoomable 218 -->

<svg id="main" version="1.1" xmlns="http://www.w3.org/2000/svg" xmlns:xlink="http://www.w3.org/1999/xlink" xml:space="preserve" onload="init(evt)">
<style type="text/css"><![CDATA[
.node, .edge {opacity: 0.7;}
.node.selected, .edge.selected {opacity: 1;}
.edge:hover path { stroke: red; }
.edge:hover polygon { stroke: red; fill: red; }
]]></style>

<defs>
  <circle id="rim" cx="0" cy="0" r="7"/>
  <circle id="rim2" cx="0" cy="0" r="3.5"/>
  <g id="zoomPlus">
    <use xlink:href="#rim" fill="#404040"><set attributeName="fill" to="#808080" begin="zoomplus.mouseover" end="zoomplus.mouseout"/></use>
    <path d="M-4,0h8M0,-4v8" fill="none" stroke="white" stroke-width="1.5" pointer-events="none"/>
  </g>
  <g id="zoomMin">
    <use xlink:href="#rim" fill="#404040"><set attributeName="fill" to="#808080" begin="zoomminus.mouseover" end="zoomminus.mouseout"/></use>
    <path d="M-4,0h8" fill="none" stroke="white" stroke-width="1.5" pointer-events="none"/>
  </g>
  <g id="arrowUp" transform="translate(30 24)">
    <use xlink:href="#rim"/>
    <path pointer-events="none" fill="none" stroke="white" stroke-width="1.5" d="M0,-3.0v7 M-2.5,-0.5L0,-3.0L2.5,-0.5"/>
  </g>
  <g id="arrowRight" transform="rotate(90) translate(36 -43)">
    <use xlink:href="#rim"/>
    <path pointer-events="none" fill="none" stroke="white" stroke-width="1.5" d="M0,-3.0v7 M-2.5,-0.5L0,-3.0L2.5,-0.5"/>
  </g>
  <g id="arrowDown" transform="rotate(180) translate(-30 -48)">
    <use xlink:href="#rim"/>
    <path pointer-events="none" fill="none" stroke="white" stroke-width="1.5" d="M0,-3.0v7 M-2.5,-0.5L0,-3.0L2.5,-0.5"/>
  </g>
  <g id="arrowLeft" transform="rotate(270) translate(-36 17)">
    <use xlink:href="#rim"/>
    <path pointer-events="none" fill="none" stroke="white" stroke-width="1.5" d="M0,-3.0v7 M-2.5,-0.5L0,-3.0L2.5,-0.5"/>
  </g>
  <g id="resetDef">
    <use xlink:href="#rim2" fill="#404040"><set attributeName="fill" to="#808080" begin="reset.mouseover" end="reset.mouseout"/></use>
  </g>
</defs>
<script type="application/ecmascript">
var viewWidth = 1927;
var viewHeight = 218;
var sectionId = 'dynsection-24';
</script>
<script type="application/ecmascript" xlink:href="svg.min.js"/>
<svg id="graph" class="graph">
<g id="viewport">
<title>GameWorld::getCurrentLevel</title>
<!-- Node1 -->
<g id="Node000001" class="node">
<title>Node1</title>
<g id="a_Node000001"><a xlink:title="Gets current level number.">
<polygon fill="#999999" stroke="#666666" points="1919,-103.5 1761,-103.5 1761,-84.5 1919,-84.5 1919,-103.5"/>
<text text-anchor="middle" x="1840" y="-91.5" font-family="Helvetica,sans-Serif" font-size="10.00">GameWorld::getCurrentLevel</text>
</a>
</g>
</g>
<!-- Node2 -->
<g id="Node000002" class="node">
<title>Node2</title>
<g id="a_Node000002"><a xlink:href="classMapManager.html#ac1472dad9f9391e45fafadef9c30c1ab" target="_top" xlink:title="Creates game world from map layout.">
<polygon fill="white" stroke="#666666" points="1725,-141.5 1534,-141.5 1534,-122.5 1725,-122.5 1725,-141.5"/>
<text text-anchor="middle" x="1629.5" y="-129.5" font-family="Helvetica,sans-Serif" font-size="10.00">MapManager::createWorldFromMap</text>
</a>
</g>
</g>
<!-- Node1&#45;&gt;Node2 -->
<g id="edge1_Node000001_Node000002" class="edge">
<title>Node1&#45;&gt;Node2</title>
<g id="a_edge1_Node000001_Node000002"><a xlink:title=" ">
<path fill="none" stroke="#63b8ff" d="M1776.74,-105.35C1746.83,-110.8 1711.37,-117.26 1682.87,-122.46"/>
<polygon fill="#63b8ff" stroke="#63b8ff" points="1777.45,-108.78 1786.66,-103.54 1776.19,-101.89 1777.45,-108.78"/>
</a>
</g>
</g>
<!-- Node3 -->
<g id="Node000003" class="node">
<title>Node3</title>
<g id="a_Node000003"><a xlink:href="classGameController.html#a09c76a5ae9b8f514163dafe31273f44f" target="_top" xlink:title="Loads the currently selected map.">
<polygon fill="white" stroke="#666666" points="1498,-106.5 1314,-106.5 1314,-87.5 1498,-87.5 1498,-106.5"/>
<text text-anchor="middle" x="1406" y="-94.5" font-family="Helvetica,sans-Serif" font-size="10.00">GameController::loadSelectedMap</text>
</a>
</g>
</g>
<!-- Node1&#45;&gt;Node3 -->
<g id="edge19_Node000001_Node000003" class="edge">
<title>Node1&#45;&gt;Node3</title>
<g id="a_edge19_Node000001_Node000003"><a xlink:title=" ">
<path fill="none" stroke="#63b8ff" d="M1750.59,-94.61C1676.96,-95.13 1572.5,-95.85 1498.12,-96.37"/>
<polygon fill="#63b8ff" stroke="#63b8ff" points="1750.79,-98.11 1760.77,-94.54 1750.74,-91.11 1750.79,-98.11"/>
</a>
</g>
</g>
<!-- Node4 -->
<g id="Node000004" class="node">
<title>Node4</title>
<g id="a_Node000004"><a xlink:href="classGameController.html#a4086fc466d91f45c41b2bc5df06af77a" target="_top" xlink:title="Loads the next game level.">
<polygon fill="white" stroke="#666666" points="1254.5,-71 1110.5,-71 1110.5,-41 1254.5,-41 1254.5,-71"/>
<text text-anchor="start" x="1118.5" y="-59" font-family="Helvetica,sans-Serif" font-size="10.00">GameController::loadNext</text>
<text text-anchor="middle" x="1182.5" y="-48" font-family="Helvetica,sans-Serif" font-size="10.00">Level</text>
</a>
</g>
</g>
<!-- Node1&#45;&gt;Node4 -->
<g id="edge18_Node000001_Node000004" class="edge">
<title>Node1&#45;&gt;Node4</title>
<g id="a_edge18_Node000001_Node000004"><a xlink:title=" ">
<path fill="none" stroke="#63b8ff" d="M1750.88,-88.89C1619.6,-81.28 1375.2,-67.11 1254.59,-60.12"/>
<polygon fill="#63b8ff" stroke="#63b8ff" points="1750.72,-92.39 1760.91,-89.47 1751.13,-85.4 1750.72,-92.39"/>
</a>
</g>
</g>
<!-- Node5 -->
<g id="Node000005" class="node">
<title>Node5</title>
<g id="a_Node000005"><a xlink:href="classGameController.html#a85bcf4ecfd197aad278e116215a3717b" target="_top" xlink:title="Displays level completion screen.">
<polygon fill="white" stroke="#666666" points="860,-30 708,-30 708,0 860,0 860,-30"/>
<text text-anchor="start" x="716" y="-18" font-family="Helvetica,sans-Serif" font-size="10.00">GameController::showLevel</text>
<text text-anchor="middle" x="784" y="-7" font-family="Helvetica,sans-Serif" font-size="10.00">CompleteScreen</text>
</a>
</g>
</g>
<!-- Node1&#45;&gt;Node5 -->
<g id="edge22_Node000001_Node000005" class="edge">
<title>Node1&#45;&gt;Node5</title>
<g id="a_edge22_Node000001_Node000005"><a xlink:title=" ">
<path fill="none" stroke="#63b8ff" d="M1799.22,-81.42C1723.63,-58.66 1553.67,-13 1407,-13 1407,-13 1407,-13 1181.5,-13 1069.64,-13 940.03,-13.81 860.27,-14.39"/>
<polygon fill="#63b8ff" stroke="#63b8ff" points="1798.66,-84.91 1809.25,-84.47 1800.7,-78.21 1798.66,-84.91"/>
</a>
</g>
</g>
<!-- Node13 -->
<g id="Node000013" class="node">
<title>Node13</title>
<g id="a_Node000013"><a xlink:href="classConsoleRenderer.html#ab34fa7af4ede79de3951f1d5271d7a27" target="_top" xlink:title="Renders the game world to console.">
<polygon fill="white" stroke="#666666" points="1474.5,-208.5 1337.5,-208.5 1337.5,-189.5 1474.5,-189.5 1474.5,-208.5"/>
<text text-anchor="middle" x="1406" y="-196.5" font-family="Helvetica,sans-Serif" font-size="10.00">ConsoleRenderer::render</text>
</a>
</g>
</g>
<!-- Node1&#45;&gt;Node13 -->
<g id="edge20_Node000001_Node000013" class="edge">
<title>Node1&#45;&gt;Node13</title>
<g id="a_edge20_Node000001_Node000013"><a xlink:title=" ">
<path fill="none" stroke="#63b8ff" d="M1814.98,-108.81C1792.54,-121.96 1757.67,-140.65 1725,-151 1641.17,-177.55 1540.12,-189.6 1474.77,-194.94"/>
<polygon fill="#63b8ff" stroke="#63b8ff" points="1817,-111.68 1823.8,-103.56 1813.42,-105.67 1817,-111.68"/>
</a>
</g>
</g>
<!-- Node2&#45;&gt;Node3 -->
<g id="edge2_Node000002_Node000003" class="edge">
<title>Node2&#45;&gt;Node3</title>
<g id="a_edge2_Node000002_Node000003"><a xlink:title=" ">
<path fill="none" stroke="#63b8ff" d="M1558.12,-120.88C1528.88,-116.26 1495.3,-110.95 1467.22,-106.52"/>
<polygon fill="#63b8ff" stroke="#63b8ff" points="1557.84,-124.38 1568.27,-122.48 1558.94,-117.46 1557.84,-124.38"/>
</a>
</g>
</g>
<!-- Node3&#45;&gt;Node4 -->
<g id="edge3_Node000003_Node000004" class="edge">
<title>Node3&#45;&gt;Node4</title>
<g id="a_edge3_Node000003_Node000004"><a xlink:title=" ">
<path fill="none" stroke="#63b8ff" d="M1343.71,-85.66C1316.13,-80.55 1283.4,-74.49 1254.73,-69.18"/>
<polygon fill="#63b8ff" stroke="#63b8ff" points="1343.16,-89.11 1353.63,-87.49 1344.43,-82.23 1343.16,-89.11"/>
</a>
</g>
</g>
<!-- Node9 -->
<g id="Node000009" class="node">
<title>Node9</title>
<g id="a_Node000009"><a xlink:href="classGameController.html#a4a9c94fe33cf6c73bb5dfc415d04d309" target="_top" xlink:title="Displays map selection screen.">
<polygon fill="white" stroke="#666666" points="1278,-108.5 1087,-108.5 1087,-89.5 1278,-89.5 1278,-108.5"/>
<text text-anchor="middle" x="1182.5" y="-96.5" font-family="Helvetica,sans-Serif" font-size="10.00">GameController::showMapSelection</text>
</a>
</g>
</g>
<!-- Node3&#45;&gt;Node9 -->
<g id="edge8_Node000003_Node000009" class="edge">
<title>Node3&#45;&gt;Node9</title>
<g id="a_edge8_Node000003_Node000009"><a xlink:title=" ">
<path fill="none" stroke="#63b8ff" d="M1303.92,-97.91C1295.34,-97.99 1286.68,-98.07 1278.14,-98.15"/>
<polygon fill="#63b8ff" stroke="#63b8ff" points="1303.98,-101.41 1313.95,-97.82 1303.92,-94.41 1303.98,-101.41"/>
</a>
</g>
</g>
<!-- Node4&#45;&gt;Node5 -->
<g id="edge4_Node000004_Node000005" class="edge">
<title>Node4&#45;&gt;Node5</title>
<g id="a_edge4_Node000004_Node000005"><a xlink:title=" ">
<path fill="none" stroke="#63b8ff" d="M1100.09,-47.7C1043.65,-41.93 966.75,-34.04 899,-27 886.43,-25.69 873.08,-24.3 860.12,-22.93"/>
<polygon fill="#63b8ff" stroke="#63b8ff" points="1100.08,-51.22 1110.38,-48.75 1100.79,-44.25 1100.08,-51.22"/>
</a>
</g>
</g>
<!-- Node6 -->
<g id="Node000006" class="node">
<title>Node6</title>
<g id="a_Node000006"><a xlink:href="classGameController.html#af2367e58f03d8a1441c9a574967fd360" target="_top" xlink:title="Processes a single game turn/update cycle.">
<polygon fill="white" stroke="#666666" points="445,-124.5 258,-124.5 258,-105.5 445,-105.5 445,-124.5"/>
<text text-anchor="middle" x="351.5" y="-112.5" font-family="Helvetica,sans-Serif" font-size="10.00">GameController::processGameTurn</text>
</a>
</g>
</g>
<!-- Node5&#45;&gt;Node6 -->
<g id="edge5_Node000005_Node000006" class="edge">
<title>Node5&#45;&gt;Node6</title>
<g id="a_edge5_Node000005_Node000006"><a xlink:title=" ">
<path fill="none" stroke="#63b8ff" d="M708.08,-32.4C616.81,-53.6 465.89,-88.66 393.59,-105.46"/>
<polygon fill="#63b8ff" stroke="#63b8ff" points="709.13,-35.75 718.08,-30.08 707.55,-28.93 709.13,-35.75"/>
</a>
</g>
</g>
<!-- Node7 -->
<g id="Node000007" class="node">
<title>Node7</title>
<g id="a_Node000007"><a xlink:href="classGameController.html#ac958989c8f7f08488546930e5fcb0d82" target="_top" xlink:title="Starts and runs the main game loop.">
<polygon fill="white" stroke="#666666" points="222,-86.5 77,-86.5 77,-67.5 222,-67.5 222,-86.5"/>
<text text-anchor="middle" x="149.5" y="-74.5" font-family="Helvetica,sans-Serif" font-size="10.00">GameController::runGame</text>
</a>
</g>
</g>
<!-- Node6&#45;&gt;Node7 -->
<g id="edge6_Node000006_Node000007" class="edge">
<title>Node6&#45;&gt;Node7</title>
<g id="a_edge6_Node000006_Node000007"><a xlink:title=" ">
<path fill="none" stroke="#63b8ff" d="M290.4,-103.58C261.79,-98.14 227.96,-91.72 200.73,-86.54"/>
<polygon fill="#63b8ff" stroke="#63b8ff" points="289.81,-107.03 300.29,-105.46 291.12,-100.15 289.81,-107.03"/>
</a>
</g>
</g>
<!-- Node8 -->
<g id="Node000008" class="node">
<title>Node8</title>
<g id="a_Node000008"><a xlink:href="main_8cpp.html#ae66f6b31b5ad750f1fe042a706a4e3d4" target="_top" xlink:title="Main function that serves as the application entry point.">
<polygon fill="white" stroke="#666666" points="41,-86.5 0,-86.5 0,-67.5 41,-67.5 41,-86.5"/>
<text text-anchor="middle" x="20.5" y="-74.5" font-family="Helvetica,sans-Serif" font-size="10.00">main</text>
</a>
</g>
</g>
<!-- Node7&#45;&gt;Node8 -->
<g id="edge7_Node000007_Node000008" class="edge">
<title>Node7&#45;&gt;Node8</title>
<g id="a_edge7_Node000007_Node000008"><a xlink:title=" ">
<path fill="none" stroke="#63b8ff" d="M66.79,-77C57.31,-77 48.43,-77 41.08,-77"/>
<polygon fill="#63b8ff" stroke="#63b8ff" points="66.83,-80.5 76.83,-77 66.83,-73.5 66.83,-80.5"/>
</a>
</g>
</g>
<!-- Node10 -->
<g id="Node000010" class="node">
<title>Node10</title>
<g id="a_Node000010"><a xlink:href="classGameController.html#a971b3d8f6296a74f0bebc83b5e79c186" target="_top" xlink:title="Processes a user command.">
<polygon fill="white" stroke="#666666" points="669,-143.5 481,-143.5 481,-124.5 669,-124.5 669,-143.5"/>
<text text-anchor="middle" x="575" y="-131.5" font-family="Helvetica,sans-Serif" font-size="10.00">GameController::processCommand</text>
</a>
</g>
</g>
<!-- Node9&#45;&gt;Node10 -->
<g id="edge9_Node000009_Node000010" class="edge">
<title>Node9&#45;&gt;Node10</title>
<g id="a_edge9_Node000009_Node000010"><a xlink:title=" ">
<path fill="none" stroke="#63b8ff" d="M1106.56,-109.88C1088.4,-112.37 1069.02,-114.9 1051,-117 967.63,-126.74 946.84,-131 863,-135 792.86,-138.35 775.22,-135.27 705,-135 693.35,-134.95 681.12,-134.89 669.01,-134.81"/>
<polygon fill="#63b8ff" stroke="#63b8ff" points="1107.09,-113.34 1116.52,-108.51 1106.13,-106.41 1107.09,-113.34"/>
</a>
</g>
</g>
<!-- Node11 -->
<g id="Node000011" class="node">
<title>Node11</title>
<g id="a_Node000011"><a xlink:href="classGameController.html#a9d11b5a6255b7249bddba49df0837cf3" target="_top" xlink:title="Displays and manages the main menu.">
<polygon fill="white" stroke="#666666" points="1051,-107.5 899,-107.5 899,-88.5 1051,-88.5 1051,-107.5"/>
<text text-anchor="middle" x="975" y="-95.5" font-family="Helvetica,sans-Serif" font-size="10.00">GameController::showMenu</text>
</a>
</g>
</g>
<!-- Node9&#45;&gt;Node11 -->
<g id="edge11_Node000009_Node000011" class="edge">
<title>Node9&#45;&gt;Node11</title>
<g id="a_edge11_Node000009_Node000011"><a xlink:title=" ">
<path fill="none" stroke="#63b8ff" d="M1076.72,-91.74C1068.06,-91.71 1059.43,-91.74 1051.06,-91.84"/>
<polygon fill="#63b8ff" stroke="#63b8ff" points="1076.85,-95.24 1086.87,-91.81 1076.89,-88.24 1076.85,-95.24"/>
</a>
</g>
</g>
<!-- Node10&#45;&gt;Node6 -->
<g id="edge10_Node000010_Node000006" class="edge">
<title>Node10&#45;&gt;Node6</title>
<g id="a_edge10_Node000010_Node000006"><a xlink:title=" ">
<path fill="none" stroke="#63b8ff" d="M470.5,-125.12C462.1,-124.4 453.65,-123.68 445.33,-122.96"/>
<polygon fill="#63b8ff" stroke="#63b8ff" points="470.44,-128.63 480.71,-126 471.04,-121.66 470.44,-128.63"/>
</a>
</g>
</g>
<!-- Node11&#45;&gt;Node5 -->
<g id="edge16_Node000011_Node000005" class="edge">
<title>Node11&#45;&gt;Node5</title>
<g id="a_edge16_Node000011_Node000005"><a xlink:title=" ">
<path fill="none" stroke="#63b8ff" d="M936.8,-84.88C924.52,-80.09 910.95,-74.28 899,-68 881.98,-59.05 880.13,-52.74 863,-44 852.96,-38.88 841.8,-34.18 831.13,-30.13"/>
<polygon fill="#63b8ff" stroke="#63b8ff" points="935.72,-88.21 946.31,-88.49 938.21,-81.67 935.72,-88.21"/>
</a>
</g>
</g>
<!-- Node11&#45;&gt;Node7 -->
<g id="edge15_Node000011_Node000007" class="edge">
<title>Node11&#45;&gt;Node7</title>
<g id="a_edge15_Node000011_Node000007"><a xlink:title=" ">
<path fill="none" stroke="#63b8ff" d="M921.35,-86.55C902.98,-83.08 882.17,-79.73 863,-78 629.38,-56.96 350.93,-66.54 222.24,-72.92"/>
<polygon fill="#63b8ff" stroke="#63b8ff" points="920.8,-90 931.28,-88.48 922.13,-83.13 920.8,-90"/>
</a>
</g>
</g>
<!-- Node11&#45;&gt;Node9 -->
<g id="edge17_Node000011_Node000009" class="edge">
<title>Node11&#45;&gt;Node9</title>
<g id="a_edge17_Node000011_Node000009"><a xlink:title=" ">
<path fill="none" stroke="#63b8ff" d="M1061.27,-105.08C1069.72,-105.2 1078.33,-105.27 1086.87,-105.27"/>
<polygon fill="#63b8ff" stroke="#63b8ff" points="1061.12,-101.57 1051.06,-104.89 1060.99,-108.57 1061.12,-101.57"/>
</a>
</g>
</g>
<!-- Node11&#45;&gt;Node10 -->
<g id="edge14_Node000011_Node000010" class="edge">
<title>Node11&#45;&gt;Node10</title>
<g id="a_edge14_Node000011_Node000010"><a xlink:title=" ">
<path fill="none" stroke="#63b8ff" d="M907.89,-109.08C893.15,-111.28 877.57,-113.41 863,-115 798.47,-122.06 725.47,-126.85 669.24,-129.86"/>
<polygon fill="#63b8ff" stroke="#63b8ff" points="908.58,-112.51 917.94,-107.54 907.53,-105.59 908.58,-112.51"/>
</a>
</g>
</g>
<!-- Node12 -->
<g id="Node000012" class="node">
<title>Node12</title>
<g id="a_Node000012"><a xlink:href="classGameController.html#a637ea4e72ed2be4a2884b30160b3e8ab" target="_top" xlink:title="Pauses the game and displays pause screen.">
<polygon fill="white" stroke="#666666" points="863,-105.5 705,-105.5 705,-86.5 863,-86.5 863,-105.5"/>
<text text-anchor="middle" x="784" y="-93.5" font-family="Helvetica,sans-Serif" font-size="10.00">GameController::pauseGame</text>
</a>
</g>
</g>
<!-- Node11&#45;&gt;Node12 -->
<g id="edge12_Node000011_Node000012" class="edge">
<title>Node11&#45;&gt;Node12</title>
<g id="a_edge12_Node000011_Node000012"><a xlink:title=" ">
<path fill="none" stroke="#63b8ff" d="M888.5,-97.1C880.03,-97.01 871.46,-96.91 863.08,-96.83"/>
<polygon fill="#63b8ff" stroke="#63b8ff" points="888.72,-100.6 898.76,-97.2 888.8,-93.6 888.72,-100.6"/>
</a>
</g>
</g>
<!-- Node12&#45;&gt;Node10 -->
<g id="edge13_Node000012_Node000010" class="edge">
<title>Node12&#45;&gt;Node10</title>
<g id="a_edge13_Node000012_Node000010"><a xlink:title=" ">
<path fill="none" stroke="#63b8ff" d="M721.19,-107.35C691.49,-112.8 656.29,-119.26 627.99,-124.46"/>
<polygon fill="#63b8ff" stroke="#63b8ff" points="721.83,-110.79 731.03,-105.54 720.56,-103.9 721.83,-110.79"/>
</a>
</g>
</g>
<!-- Node13&#45;&gt;Node6 -->
<g id="edge21_Node000013_Node000006" class="edge">
<title>Node13&#45;&gt;Node6</title>
<g id="a_edge21_Node000013_Node000006"><a xlink:title=" ">
<path fill="none" stroke="#63b8ff" d="M1327.2,-202.19C1241.27,-205.44 1098.78,-210 976,-210 976,-210 976,-210 783,-210 625.71,-210 443.54,-148.78 377.79,-124.63"/>
<polygon fill="#63b8ff" stroke="#63b8ff" points="1327.54,-205.68 1337.4,-201.8 1327.27,-198.69 1327.54,-205.68"/>
</a>
</g>
</g>
</g>
</svg>

<g id="navigator" transform="translate(0 0)" fill="#404254">
  <rect fill="#f2f5e9" fill-opacity="0.5" stroke="#606060" stroke-width=".5" x="0" y="0" width="60" height="60"/>
  <use id="zoomplus" xlink:href="#zoomPlus" x="17" y="9" onmousedown="handleZoom(evt,'in')"/>
  <use id="zoomminus" xlink:href="#zoomMin" x="42" y="9" onmousedown="handleZoom(evt,'out')"/>
  <use id="reset" xlink:href="#resetDef" x="30" y="36" onmousedown="handleReset()"/>
   <use id="arrowup" xlink:href="#arrowUp" x="0" y="0" onmousedown="handlePan(0,-1)"/>
  <use id="arrowright" xlink:href="#arrowRight" x="0" y="0" onmousedown="handlePan(1,0)"/>
  <use id="arrowdown" xlink:href="#arrowDown" x="0" y="0" onmousedown="handlePan(0,1)"/>
  <use id="arrowleft" xlink:href="#arrowLeft" x="0" y="0" onmousedown="handlePan(-1,0)"/>
</g>
<svg viewBox="0 0 15 15" width="100%" height="30px" preserveAspectRatio="xMaxYMin meet">
 <g id="arrow_out" transform="scale(0.3 0.3)">
  <a xlink:href="classGameWorld_ad9ff37f139acbfdc8db505d1d89d7979_icgraph_org.svg" target="_base">
   <rect id="button" ry="5" rx="5" y="6" x="6" height="38" width="38"
        fill="#f2f5e9" fill-opacity="0.5" stroke="#606060" stroke-width="1.0"/>
   <path id="arrow"
     d="M 11.500037,31.436501 C 11.940474,20.09759 22.043105,11.32322 32.158766,21.979434 L 37.068811,17.246167 C 37.068811,17.246167 37.088388,32 37.088388,32 L 22.160133,31.978069 C 22.160133,31.978069 26.997745,27.140456 26.997745,27.140456 C 18.528582,18.264221 13.291696,25.230495 11.500037,31.436501 z"
     style="fill:#404040;"/>
  </a>
 </g>
</svg>

<style type='text/css'>
<![CDATA[
[data-mouse-over-selected='false'] { opacity: 0.7; }
[data-mouse-over-selected='true']  { opacity: 1.0; }
]]>
</style>
<script type="application/ecmascript"><![CDATA[
document.addEventListener('DOMContentLoaded', (event) => {
  highlightEdges();
  highlightAdjacentNodes();
});
]]></script>
</svg>
