<?xml version="1.0" encoding="UTF-8" standalone="no"?>
<!DOCTYPE svg PUBLIC "-//W3C//DTD SVG 1.1//EN"
 "http://www.w3.org/Graphics/SVG/1.1/DTD/svg11.dtd">
<!-- Generated by graphviz version 2.43.0 (0)
 -->
<!-- Title: PlayerTank::reset Pages: 1 -->
<svg width="294pt" height="175pt"
 viewBox="0.00 0.00 294.00 175.00" xmlns="http://www.w3.org/2000/svg" xmlns:xlink="http://www.w3.org/1999/xlink">

<svg id="main" version="1.1" xmlns="http://www.w3.org/2000/svg" xmlns:xlink="http://www.w3.org/1999/xlink" xml:space="preserve" onload="init(evt)">
<style type="text/css"><![CDATA[
.node, .edge {opacity: 0.7;}
.node.selected, .edge.selected {opacity: 1;}
.edge:hover path { stroke: red; }
.edge:hover polygon { stroke: red; fill: red; }
]]></style>
<script type="application/ecmascript" xlink:href="svg.min.js"/>
<svg id="graph" class="graph">
<g id="graph0" class="graph" transform="scale(1 1) rotate(0) translate(4 171)">
<title>PlayerTank::reset</title>
<!-- Node1 -->
<g id="Node000001" class="node">
<title>Node1</title>
<g id="a_Node000001"><a xlink:title="Resets player tank to initial state.">
<polygon fill="#999999" stroke="#666666" points="101,-93 0,-93 0,-74 101,-74 101,-93"/>
<text text-anchor="middle" x="50.5" y="-81" font-family="Helvetica,sans-Serif" font-size="10.00">PlayerTank::reset</text>
</a>
</g>
</g>
<!-- Node2 -->
<g id="Node000002" class="node">
<title>Node2</title>
<g id="a_Node000002"><a xlink:href="classGameObject.html#a4bc41ca14c07e61dafa74a03c4f3e2df" target="_top" xlink:title="Rotates the object to face new direction.">
<polygon fill="white" stroke="#666666" points="268,-167 155,-167 155,-148 268,-148 268,-167"/>
<text text-anchor="middle" x="211.5" y="-155" font-family="Helvetica,sans-Serif" font-size="10.00">GameObject::rotate</text>
</a>
</g>
</g>
<!-- Node1&#45;&gt;Node2 -->
<g id="edge1_Node000001_Node000002" class="edge">
<title>Node1&#45;&gt;Node2</title>
<g id="a_edge1_Node000001_Node000002"><a xlink:title=" ">
<path fill="none" stroke="#63b8ff" d="M63.21,-93.05C79.02,-105.5 108.52,-127.12 137,-139.5 141.7,-141.54 146.67,-143.38 151.73,-145.03"/>
<polygon fill="#63b8ff" stroke="#63b8ff" points="150.91,-148.44 161.5,-147.97 152.93,-141.74 150.91,-148.44"/>
</a>
</g>
</g>
<!-- Node3 -->
<g id="Node000003" class="node">
<title>Node3</title>
<g id="a_Node000003"><a xlink:href="classGameObject.html#ae1bd24d3b8b67f3c5006ceb1b2159d11" target="_top" xlink:title="Sets destroyed state of the object.">
<polygon fill="white" stroke="#666666" points="286,-130 137,-130 137,-111 286,-111 286,-130"/>
<text text-anchor="middle" x="211.5" y="-118" font-family="Helvetica,sans-Serif" font-size="10.00">GameObject::setDestroyed</text>
</a>
</g>
</g>
<!-- Node1&#45;&gt;Node3 -->
<g id="edge2_Node000001_Node000003" class="edge">
<title>Node1&#45;&gt;Node3</title>
<g id="a_edge2_Node000001_Node000003"><a xlink:title=" ">
<path fill="none" stroke="#63b8ff" d="M92.45,-93.03C112.86,-97.78 137.75,-103.57 159.4,-108.61"/>
<polygon fill="#63b8ff" stroke="#63b8ff" points="158.88,-112.08 169.42,-110.94 160.47,-105.26 158.88,-112.08"/>
</a>
</g>
</g>
<!-- Node4 -->
<g id="Node000004" class="node">
<title>Node4</title>
<g id="a_Node000004"><a xlink:href="classGameObject.html#a3cf581673b5b0099d250a434fed52f4d" target="_top" xlink:title="Sets new health value for the object.">
<polygon fill="white" stroke="#666666" points="277,-93 146,-93 146,-74 277,-74 277,-93"/>
<text text-anchor="middle" x="211.5" y="-81" font-family="Helvetica,sans-Serif" font-size="10.00">GameObject::setHealth</text>
</a>
</g>
</g>
<!-- Node1&#45;&gt;Node4 -->
<g id="edge3_Node000001_Node000004" class="edge">
<title>Node1&#45;&gt;Node4</title>
<g id="a_edge3_Node000001_Node000004"><a xlink:title=" ">
<path fill="none" stroke="#63b8ff" d="M101.37,-83.5C112.29,-83.5 124.08,-83.5 135.73,-83.5"/>
<polygon fill="#63b8ff" stroke="#63b8ff" points="135.91,-87 145.91,-83.5 135.91,-80 135.91,-87"/>
</a>
</g>
</g>
<!-- Node5 -->
<g id="Node000005" class="node">
<title>Node5</title>
<g id="a_Node000005"><a xlink:href="classGameObject.html#a8e1f77d21a8ed8a894ae29f0e4126618" target="_top" xlink:title="Sets new position for the object.">
<polygon fill="white" stroke="#666666" points="280,-56 143,-56 143,-37 280,-37 280,-56"/>
<text text-anchor="middle" x="211.5" y="-44" font-family="Helvetica,sans-Serif" font-size="10.00">GameObject::setPosition</text>
</a>
</g>
</g>
<!-- Node1&#45;&gt;Node5 -->
<g id="edge4_Node000001_Node000005" class="edge">
<title>Node1&#45;&gt;Node5</title>
<g id="a_edge4_Node000001_Node000005"><a xlink:title=" ">
<path fill="none" stroke="#63b8ff" d="M92.45,-73.97C112.86,-69.22 137.75,-63.43 159.4,-58.39"/>
<polygon fill="#63b8ff" stroke="#63b8ff" points="160.47,-61.74 169.42,-56.06 158.88,-54.92 160.47,-61.74"/>
</a>
</g>
</g>
<!-- Node6 -->
<g id="Node000006" class="node">
<title>Node6</title>
<g id="a_Node000006"><a xlink:href="classTank.html#a1c5feece02579ec3508781a825f97c83" target="_top" xlink:title="Sets base speed for the tank.">
<polygon fill="white" stroke="#666666" points="256.5,-19 166.5,-19 166.5,0 256.5,0 256.5,-19"/>
<text text-anchor="middle" x="211.5" y="-7" font-family="Helvetica,sans-Serif" font-size="10.00">Tank::setSpeed</text>
</a>
</g>
</g>
<!-- Node1&#45;&gt;Node6 -->
<g id="edge5_Node000001_Node000006" class="edge">
<title>Node1&#45;&gt;Node6</title>
<g id="a_edge5_Node000001_Node000006"><a xlink:title=" ">
<path fill="none" stroke="#63b8ff" d="M63.54,-73.97C79.48,-61.79 108.86,-40.81 137,-28.5 143.17,-25.8 149.8,-23.43 156.46,-21.35"/>
<polygon fill="#63b8ff" stroke="#63b8ff" points="157.57,-24.67 166.2,-18.52 155.62,-17.95 157.57,-24.67"/>
</a>
</g>
</g>
</g>
</svg>
</svg>

<style type='text/css'>
<![CDATA[
[data-mouse-over-selected='false'] { opacity: 0.7; }
[data-mouse-over-selected='true']  { opacity: 1.0; }
]]>
</style>
<script type="application/ecmascript"><![CDATA[
document.addEventListener('DOMContentLoaded', (event) => {
  highlightEdges();
  highlightAdjacentNodes();
});
]]></script>
</svg>
