<?xml version="1.0" encoding="UTF-8" standalone="no"?>
<!DOCTYPE svg PUBLIC "-//W3C//DTD SVG 1.1//EN"
 "http://www.w3.org/Graphics/SVG/1.1/DTD/svg11.dtd">
<!-- Generated by graphviz version 2.43.0 (0)
 -->
<!-- Title: EnemyTank::moveTowardsPlayer Pages: 1 -->
<svg width="530pt" height="152pt"
 viewBox="0.00 0.00 530.00 151.50" xmlns="http://www.w3.org/2000/svg" xmlns:xlink="http://www.w3.org/1999/xlink">
<g id="graph0" class="graph" transform="scale(1 1) rotate(0) translate(4 147.5)">
<title>EnemyTank::moveTowardsPlayer</title>
<!-- Node1 -->
<g id="Node000001" class="node">
<title>Node1</title>
<g id="a_Node000001"><a xlink:title="Moves towards player position.">
<polygon fill="#999999" stroke="#666666" points="177,-76 0,-76 0,-57 177,-57 177,-76"/>
<text text-anchor="middle" x="88.5" y="-64" font-family="Helvetica,sans-Serif" font-size="10.00">EnemyTank::moveTowardsPlayer</text>
</a>
</g>
</g>
<!-- Node2 -->
<g id="Node000002" class="node">
<title>Node2</title>
<g id="a_Node000002"><a xlink:href="classEnemyTank.html#a9eb0cacdd5e196535f1d60da1ca622ac" target="_top" xlink:title="Gets direction towards last known player position.">
<polygon fill="white" stroke="#666666" points="367.5,-143.5 218.5,-143.5 218.5,-113.5 367.5,-113.5 367.5,-143.5"/>
<text text-anchor="start" x="226.5" y="-131.5" font-family="Helvetica,sans-Serif" font-size="10.00">EnemyTank::getDirectionTo</text>
<text text-anchor="middle" x="293" y="-120.5" font-family="Helvetica,sans-Serif" font-size="10.00">Player</text>
</a>
</g>
</g>
<!-- Node1&#45;&gt;Node2 -->
<g id="edge1_Node000001_Node000002" class="edge">
<title>Node1&#45;&gt;Node2</title>
<g id="a_edge1_Node000001_Node000002"><a xlink:title=" ">
<path fill="none" stroke="#63b8ff" d="M120.45,-76.06C145.42,-83.76 181.46,-94.86 213,-104.5 219.35,-106.44 226,-108.47 232.62,-110.49"/>
<polygon fill="#63b8ff" stroke="#63b8ff" points="231.68,-113.86 242.26,-113.42 233.72,-107.16 231.68,-113.86"/>
</a>
</g>
</g>
<!-- Node3 -->
<g id="Node000003" class="node">
<title>Node3</title>
<g id="a_Node000003"><a xlink:href="classEnemyTank.html#ad9f295f9b2df24bb291db3783b292289" target="_top" xlink:title="Moves enemy tank in specified direction.">
<polygon fill="white" stroke="#666666" points="346.5,-95 239.5,-95 239.5,-76 346.5,-76 346.5,-95"/>
<text text-anchor="middle" x="293" y="-83" font-family="Helvetica,sans-Serif" font-size="10.00">EnemyTank::move</text>
</a>
</g>
</g>
<!-- Node1&#45;&gt;Node3 -->
<g id="edge2_Node000001_Node000003" class="edge">
<title>Node1&#45;&gt;Node3</title>
<g id="a_edge2_Node000001_Node000003"><a xlink:title=" ">
<path fill="none" stroke="#63b8ff" d="M177.14,-74.72C194.67,-76.37 212.75,-78.06 229.23,-79.61"/>
<polygon fill="#63b8ff" stroke="#63b8ff" points="228.99,-83.1 239.27,-80.55 229.64,-76.13 228.99,-83.1"/>
</a>
</g>
</g>
<!-- Node4 -->
<g id="Node000004" class="node">
<title>Node4</title>
<g id="a_Node000004"><a xlink:href="classGameObject.html#a4bc41ca14c07e61dafa74a03c4f3e2df" target="_top" xlink:title="Rotates the object to face new direction.">
<polygon fill="white" stroke="#666666" points="522,-57 409,-57 409,-38 522,-38 522,-57"/>
<text text-anchor="middle" x="465.5" y="-45" font-family="Helvetica,sans-Serif" font-size="10.00">GameObject::rotate</text>
</a>
</g>
</g>
<!-- Node1&#45;&gt;Node4 -->
<g id="edge6_Node000001_Node000004" class="edge">
<title>Node1&#45;&gt;Node4</title>
<g id="a_edge6_Node000001_Node000004"><a xlink:title=" ">
<path fill="none" stroke="#63b8ff" d="M177.42,-62.05C245.06,-58.62 337.04,-53.96 398.48,-50.85"/>
<polygon fill="#63b8ff" stroke="#63b8ff" points="399.01,-54.32 408.82,-50.32 398.66,-47.33 399.01,-54.32"/>
</a>
</g>
</g>
<!-- Node5 -->
<g id="Node000005" class="node">
<title>Node5</title>
<g id="a_Node000005"><a xlink:href="classEnemyTank.html#a327ab507c7512b075c5a4c85d6933bba" target="_top" xlink:title="Executes random movement behavior.">
<polygon fill="white" stroke="#666666" points="373,-19 213,-19 213,0 373,0 373,-19"/>
<text text-anchor="middle" x="293" y="-7" font-family="Helvetica,sans-Serif" font-size="10.00">EnemyTank::randomBehavior</text>
</a>
</g>
</g>
<!-- Node1&#45;&gt;Node5 -->
<g id="edge4_Node000001_Node000005" class="edge">
<title>Node1&#45;&gt;Node5</title>
<g id="a_edge4_Node000001_Node000005"><a xlink:title=" ">
<path fill="none" stroke="#63b8ff" d="M123.39,-56.96C157.71,-47.3 210.91,-32.32 248.36,-21.78"/>
<polygon fill="#63b8ff" stroke="#63b8ff" points="249.32,-25.15 258,-19.07 247.42,-18.41 249.32,-25.15"/>
</a>
</g>
</g>
<!-- Node3&#45;&gt;Node4 -->
<g id="edge3_Node000003_Node000004" class="edge">
<title>Node3&#45;&gt;Node4</title>
<g id="a_edge3_Node000003_Node000004"><a xlink:title=" ">
<path fill="none" stroke="#63b8ff" d="M337.02,-75.91C359.73,-70.85 387.77,-64.6 411.77,-59.25"/>
<polygon fill="#63b8ff" stroke="#63b8ff" points="412.79,-62.61 421.79,-57.02 411.26,-55.78 412.79,-62.61"/>
</a>
</g>
</g>
<!-- Node5&#45;&gt;Node4 -->
<g id="edge5_Node000005_Node000004" class="edge">
<title>Node5&#45;&gt;Node4</title>
<g id="a_edge5_Node000005_Node000004"><a xlink:title=" ">
<path fill="none" stroke="#63b8ff" d="M337.02,-19.09C359.73,-24.15 387.77,-30.4 411.77,-35.75"/>
<polygon fill="#63b8ff" stroke="#63b8ff" points="411.26,-39.22 421.79,-37.98 412.79,-32.39 411.26,-39.22"/>
</a>
</g>
</g>
</g>
</svg>
