<?xml version="1.0" encoding="UTF-8" standalone="no"?>
<!DOCTYPE svg PUBLIC "-//W3C//DTD SVG 1.1//EN"
 "http://www.w3.org/Graphics/SVG/1.1/DTD/svg11.dtd">
<!-- Generated by graphviz version 2.43.0 (0)
 -->
<!-- Title: EnemyTank::hasClearShot Pages: 1 -->
<svg width="709pt" height="101pt"
 viewBox="0.00 0.00 709.00 101.00" xmlns="http://www.w3.org/2000/svg" xmlns:xlink="http://www.w3.org/1999/xlink">
<g id="graph0" class="graph" transform="scale(1 1) rotate(0) translate(4 97)">
<title>EnemyTank::hasClearShot</title>
<!-- Node1 -->
<g id="Node000001" class="node">
<title>Node1</title>
<g id="a_Node000001"><a xlink:title="Checks if tank has clear line of sight to player.">
<polygon fill="#999999" stroke="#666666" points="701,-56 558,-56 558,-37 701,-37 701,-56"/>
<text text-anchor="middle" x="629.5" y="-44" font-family="Helvetica,sans-Serif" font-size="10.00">EnemyTank::hasClearShot</text>
</a>
</g>
</g>
<!-- Node2 -->
<g id="Node000002" class="node">
<title>Node2</title>
<g id="a_Node000002"><a xlink:href="classEnemyTank.html#a5b53b4d6721012b14e41a0882bd1c2a3" target="_top" xlink:title="Executes aggressive behavior.">
<polygon fill="white" stroke="#666666" points="522,-93 346,-93 346,-74 522,-74 522,-93"/>
<text text-anchor="middle" x="434" y="-81" font-family="Helvetica,sans-Serif" font-size="10.00">EnemyTank::aggressiveBehavior</text>
</a>
</g>
</g>
<!-- Node1&#45;&gt;Node2 -->
<g id="edge1_Node000001_Node000002" class="edge">
<title>Node1&#45;&gt;Node2</title>
<g id="a_edge1_Node000001_Node000002"><a xlink:title=" ">
<path fill="none" stroke="#63b8ff" d="M568.63,-57.95C541.81,-63.08 510.54,-69.06 485,-73.94"/>
<polygon fill="#63b8ff" stroke="#63b8ff" points="569.5,-61.34 578.67,-56.03 568.19,-54.47 569.5,-61.34"/>
</a>
</g>
</g>
<!-- Node5 -->
<g id="Node000005" class="node">
<title>Node5</title>
<g id="a_Node000005"><a xlink:href="classEnemyTank.html#a5759e09a78eab14d4b85dc1bd93ead19" target="_top" xlink:title="Attempts to shoot at player.">
<polygon fill="white" stroke="#666666" points="504,-56 364,-56 364,-37 504,-37 504,-56"/>
<text text-anchor="middle" x="434" y="-44" font-family="Helvetica,sans-Serif" font-size="10.00">EnemyTank::attemptShot</text>
</a>
</g>
</g>
<!-- Node1&#45;&gt;Node5 -->
<g id="edge4_Node000001_Node000005" class="edge">
<title>Node1&#45;&gt;Node5</title>
<g id="a_edge4_Node000001_Node000005"><a xlink:title=" ">
<path fill="none" stroke="#63b8ff" d="M547.45,-46.5C533.07,-46.5 518.21,-46.5 504.2,-46.5"/>
<polygon fill="#63b8ff" stroke="#63b8ff" points="547.82,-50 557.82,-46.5 547.82,-43 547.82,-50"/>
</a>
</g>
</g>
<!-- Node6 -->
<g id="Node000006" class="node">
<title>Node6</title>
<g id="a_Node000006"><a xlink:href="classEnemyTank.html#a39add8a8beb8bb7b69124753ec2dae74" target="_top" xlink:title="Executes defensive behavior.">
<polygon fill="white" stroke="#666666" points="519,-19 349,-19 349,0 519,0 519,-19"/>
<text text-anchor="middle" x="434" y="-7" font-family="Helvetica,sans-Serif" font-size="10.00">EnemyTank::defensiveBehavior</text>
</a>
</g>
</g>
<!-- Node1&#45;&gt;Node6 -->
<g id="edge6_Node000001_Node000006" class="edge">
<title>Node1&#45;&gt;Node6</title>
<g id="a_edge6_Node000001_Node000006"><a xlink:title=" ">
<path fill="none" stroke="#63b8ff" d="M568.63,-35.05C541.81,-29.92 510.54,-23.94 485,-19.06"/>
<polygon fill="#63b8ff" stroke="#63b8ff" points="568.19,-38.53 578.67,-36.97 569.5,-31.66 568.19,-38.53"/>
</a>
</g>
</g>
<!-- Node3 -->
<g id="Node000003" class="node">
<title>Node3</title>
<g id="a_Node000003"><a xlink:href="classEnemyTank.html#a338556623afc739ebf5585caaa73fcdb" target="_top" xlink:title="Decides next action based on behavior.">
<polygon fill="white" stroke="#666666" points="310,-56 149,-56 149,-37 310,-37 310,-56"/>
<text text-anchor="middle" x="229.5" y="-44" font-family="Helvetica,sans-Serif" font-size="10.00">EnemyTank::decideNextMove</text>
</a>
</g>
</g>
<!-- Node2&#45;&gt;Node3 -->
<g id="edge2_Node000002_Node000003" class="edge">
<title>Node2&#45;&gt;Node3</title>
<g id="a_edge2_Node000002_Node000003"><a xlink:title=" ">
<path fill="none" stroke="#63b8ff" d="M370.71,-72.12C342.56,-66.98 309.67,-60.97 282.82,-56.06"/>
<polygon fill="#63b8ff" stroke="#63b8ff" points="370.38,-75.62 380.85,-73.97 371.64,-68.73 370.38,-75.62"/>
</a>
</g>
</g>
<!-- Node4 -->
<g id="Node000004" class="node">
<title>Node4</title>
<g id="a_Node000004"><a xlink:href="classEnemyTank.html#a7ae5efc6eff4e7a19abb7f37b44835fc" target="_top" xlink:title="Updates enemy tank state and AI decisions.">
<polygon fill="white" stroke="#666666" points="113,-56 0,-56 0,-37 113,-37 113,-56"/>
<text text-anchor="middle" x="56.5" y="-44" font-family="Helvetica,sans-Serif" font-size="10.00">EnemyTank::update</text>
</a>
</g>
</g>
<!-- Node3&#45;&gt;Node4 -->
<g id="edge3_Node000003_Node000004" class="edge">
<title>Node3&#45;&gt;Node4</title>
<g id="a_edge3_Node000003_Node000004"><a xlink:title=" ">
<path fill="none" stroke="#63b8ff" d="M138.6,-46.5C129.96,-46.5 121.38,-46.5 113.21,-46.5"/>
<polygon fill="#63b8ff" stroke="#63b8ff" points="138.76,-50 148.76,-46.5 138.76,-43 138.76,-50"/>
</a>
</g>
</g>
<!-- Node5&#45;&gt;Node3 -->
<g id="edge5_Node000005_Node000003" class="edge">
<title>Node5&#45;&gt;Node3</title>
<g id="a_edge5_Node000005_Node000003"><a xlink:title=" ">
<path fill="none" stroke="#63b8ff" d="M353.6,-46.5C339.31,-46.5 324.41,-46.5 310.11,-46.5"/>
<polygon fill="#63b8ff" stroke="#63b8ff" points="353.88,-50 363.88,-46.5 353.88,-43 353.88,-50"/>
</a>
</g>
</g>
<!-- Node6&#45;&gt;Node3 -->
<g id="edge7_Node000006_Node000003" class="edge">
<title>Node6&#45;&gt;Node3</title>
<g id="a_edge7_Node000006_Node000003"><a xlink:title=" ">
<path fill="none" stroke="#63b8ff" d="M370.71,-20.88C342.56,-26.02 309.67,-32.03 282.82,-36.94"/>
<polygon fill="#63b8ff" stroke="#63b8ff" points="371.64,-24.27 380.85,-19.03 370.38,-17.38 371.64,-24.27"/>
</a>
</g>
</g>
</g>
</svg>
