<?xml version="1.0" encoding="UTF-8" standalone="no"?>
<!DOCTYPE svg PUBLIC "-//W3C//DTD SVG 1.1//EN"
 "http://www.w3.org/Graphics/SVG/1.1/DTD/svg11.dtd">
<!-- Generated by graphviz version 2.43.0 (0)
 -->
<!-- Title: GameController::loadSelectedMap Pages: 1 -->
<!--zoomable 1036 -->

<svg id="main" version="1.1" xmlns="http://www.w3.org/2000/svg" xmlns:xlink="http://www.w3.org/1999/xlink" xml:space="preserve" onload="init(evt)">
<style type="text/css"><![CDATA[
.node, .edge {opacity: 0.7;}
.node.selected, .edge.selected {opacity: 1;}
.edge:hover path { stroke: red; }
.edge:hover polygon { stroke: red; fill: red; }
]]></style>

<defs>
  <circle id="rim" cx="0" cy="0" r="7"/>
  <circle id="rim2" cx="0" cy="0" r="3.5"/>
  <g id="zoomPlus">
    <use xlink:href="#rim" fill="#404040"><set attributeName="fill" to="#808080" begin="zoomplus.mouseover" end="zoomplus.mouseout"/></use>
    <path d="M-4,0h8M0,-4v8" fill="none" stroke="white" stroke-width="1.5" pointer-events="none"/>
  </g>
  <g id="zoomMin">
    <use xlink:href="#rim" fill="#404040"><set attributeName="fill" to="#808080" begin="zoomminus.mouseover" end="zoomminus.mouseout"/></use>
    <path d="M-4,0h8" fill="none" stroke="white" stroke-width="1.5" pointer-events="none"/>
  </g>
  <g id="arrowUp" transform="translate(30 24)">
    <use xlink:href="#rim"/>
    <path pointer-events="none" fill="none" stroke="white" stroke-width="1.5" d="M0,-3.0v7 M-2.5,-0.5L0,-3.0L2.5,-0.5"/>
  </g>
  <g id="arrowRight" transform="rotate(90) translate(36 -43)">
    <use xlink:href="#rim"/>
    <path pointer-events="none" fill="none" stroke="white" stroke-width="1.5" d="M0,-3.0v7 M-2.5,-0.5L0,-3.0L2.5,-0.5"/>
  </g>
  <g id="arrowDown" transform="rotate(180) translate(-30 -48)">
    <use xlink:href="#rim"/>
    <path pointer-events="none" fill="none" stroke="white" stroke-width="1.5" d="M0,-3.0v7 M-2.5,-0.5L0,-3.0L2.5,-0.5"/>
  </g>
  <g id="arrowLeft" transform="rotate(270) translate(-36 17)">
    <use xlink:href="#rim"/>
    <path pointer-events="none" fill="none" stroke="white" stroke-width="1.5" d="M0,-3.0v7 M-2.5,-0.5L0,-3.0L2.5,-0.5"/>
  </g>
  <g id="resetDef">
    <use xlink:href="#rim2" fill="#404040"><set attributeName="fill" to="#808080" begin="reset.mouseover" end="reset.mouseout"/></use>
  </g>
</defs>
<script type="application/ecmascript">
var viewWidth = 985;
var viewHeight = 1036;
var sectionId = 'dynsection-6';
</script>
<script type="application/ecmascript" xlink:href="svg.min.js"/>
<svg id="graph" class="graph">
<g id="viewport">
<title>GameController::loadSelectedMap</title>
<!-- Node1 -->
<g id="Node000001" class="node">
<title>Node1</title>
<g id="a_Node000001"><a xlink:title="Loads the currently selected map.">
<polygon fill="#999999" stroke="#666666" points="184,-260 0,-260 0,-241 184,-241 184,-260"/>
<text text-anchor="middle" x="92" y="-248" font-family="Helvetica,sans-Serif" font-size="10.00">GameController::loadSelectedMap</text>
</a>
</g>
</g>
<!-- Node2 -->
<g id="Node000002" class="node">
<title>Node2</title>
<g id="a_Node000002"><a xlink:href="classMapManager.html#ac1472dad9f9391e45fafadef9c30c1ab" target="_top" xlink:title="Creates game world from map layout.">
<polygon fill="white" stroke="#666666" points="411,-616 220,-616 220,-597 411,-597 411,-616"/>
<text text-anchor="middle" x="315.5" y="-604" font-family="Helvetica,sans-Serif" font-size="10.00">MapManager::createWorldFromMap</text>
</a>
</g>
</g>
<!-- Node1&#45;&gt;Node2 -->
<g id="edge1_Node000001_Node000002" class="edge">
<title>Node1&#45;&gt;Node2</title>
<g id="a_edge1_Node000001_Node000002"><a xlink:title=" ">
<path fill="none" stroke="#63b8ff" d="M98.92,-260.02C128.76,-307.98 262.75,-523.33 303.02,-588.05"/>
<polygon fill="#63b8ff" stroke="#63b8ff" points="300.2,-590.14 308.45,-596.78 306.14,-586.44 300.2,-590.14"/>
</a>
</g>
</g>
<!-- Node8 -->
<g id="Node000008" class="node">
<title>Node8</title>
<g id="a_Node000008"><a xlink:href="classGameWorld.html#ad9ff37f139acbfdc8db505d1d89d7979" target="_top" xlink:title="Gets current level number.">
<polygon fill="white" stroke="#666666" points="620,-1028 462,-1028 462,-1009 620,-1009 620,-1028"/>
<text text-anchor="middle" x="541" y="-1016" font-family="Helvetica,sans-Serif" font-size="10.00">GameWorld::getCurrentLevel</text>
</a>
</g>
</g>
<!-- Node1&#45;&gt;Node8 -->
<g id="edge23_Node000001_Node000008" class="edge">
<title>Node1&#45;&gt;Node8</title>
<g id="a_edge23_Node000001_Node000008"><a xlink:title=" ">
<path fill="none" stroke="#63b8ff" d="M93.32,-260.34C95.52,-315.79 111.72,-593.38 220,-782.5 289.5,-903.89 322.81,-936.13 447,-1000.5 450.59,-1002.36 454.35,-1004.03 458.22,-1005.53"/>
<polygon fill="#63b8ff" stroke="#63b8ff" points="457.41,-1008.95 468,-1008.91 459.69,-1002.34 457.41,-1008.95"/>
</a>
</g>
</g>
<!-- Node10 -->
<g id="Node000010" class="node">
<title>Node10</title>
<g id="a_Node000010"><a xlink:href="classPlayerTank.html#a8e48786bd674e0a64713a2fd8786fc41" target="_top" xlink:title="Gets number of remaining lives.">
<polygon fill="white" stroke="#666666" points="599.5,-991 482.5,-991 482.5,-972 599.5,-972 599.5,-991"/>
<text text-anchor="middle" x="541" y="-979" font-family="Helvetica,sans-Serif" font-size="10.00">PlayerTank::getLives</text>
</a>
</g>
</g>
<!-- Node1&#45;&gt;Node10 -->
<g id="edge24_Node000001_Node000010" class="edge">
<title>Node1&#45;&gt;Node10</title>
<g id="a_edge24_Node000001_Node000010"><a xlink:title=" ">
<path fill="none" stroke="#63b8ff" d="M95.26,-260.14C105.71,-303.88 151.79,-487.47 220,-625.5 230.02,-645.78 428.15,-951 447,-963.5 454.65,-968.57 463.39,-972.29 472.37,-975"/>
<polygon fill="#63b8ff" stroke="#63b8ff" points="471.61,-978.42 482.17,-977.56 473.38,-971.64 471.61,-978.42"/>
</a>
</g>
</g>
<!-- Node12 -->
<g id="Node000012" class="node">
<title>Node12</title>
<g id="a_Node000012"><a xlink:href="classGameWorld.html#af726f3547318b0ebae1bb8713611b0ab" target="_top" xlink:title="Gets pointer to player tank.">
<polygon fill="white" stroke="#666666" points="604,-374 478,-374 478,-355 604,-355 604,-374"/>
<text text-anchor="middle" x="541" y="-362" font-family="Helvetica,sans-Serif" font-size="10.00">GameWorld::getPlayer</text>
</a>
</g>
</g>
<!-- Node1&#45;&gt;Node12 -->
<g id="edge26_Node000001_Node000012" class="edge">
<title>Node1&#45;&gt;Node12</title>
<g id="a_edge26_Node000001_Node000012"><a xlink:title=" ">
<path fill="none" stroke="#63b8ff" d="M107.54,-260.11C130.44,-274.76 176.75,-302.45 220,-316.5 302.41,-343.27 401.69,-355.21 467.58,-360.47"/>
<polygon fill="#63b8ff" stroke="#63b8ff" points="467.63,-363.98 477.87,-361.25 468.16,-357 467.63,-363.98"/>
</a>
</g>
</g>
<!-- Node16 -->
<g id="Node000016" class="node">
<title>Node16</title>
<g id="a_Node000016"><a xlink:href="classPlayerTank.html#ac650158a9f0f60fb07a410fca2cee03f" target="_top" xlink:title="Gets current player score.">
<polygon fill="white" stroke="#666666" points="600.5,-337 481.5,-337 481.5,-318 600.5,-318 600.5,-337"/>
<text text-anchor="middle" x="541" y="-325" font-family="Helvetica,sans-Serif" font-size="10.00">PlayerTank::getScore</text>
</a>
</g>
</g>
<!-- Node1&#45;&gt;Node16 -->
<g id="edge27_Node000001_Node000016" class="edge">
<title>Node1&#45;&gt;Node16</title>
<g id="a_edge27_Node000001_Node000016"><a xlink:title=" ">
<path fill="none" stroke="#63b8ff" d="M119.91,-260C145.38,-268.65 184.86,-281.16 220,-288.5 305.67,-306.4 406.09,-316.99 471.26,-322.51"/>
<polygon fill="#63b8ff" stroke="#63b8ff" points="471.16,-326.02 481.41,-323.36 471.74,-319.04 471.16,-326.02"/>
</a>
</g>
</g>
<!-- Node19 -->
<g id="Node000019" class="node">
<title>Node19</title>
<g id="a_Node000019"><a xlink:href="classGameObject.html#a3cf581673b5b0099d250a434fed52f4d" target="_top" xlink:title="Sets new health value for the object.">
<polygon fill="white" stroke="#666666" points="813.5,-132 682.5,-132 682.5,-113 813.5,-113 813.5,-132"/>
<text text-anchor="middle" x="748" y="-120" font-family="Helvetica,sans-Serif" font-size="10.00">GameObject::setHealth</text>
</a>
</g>
</g>
<!-- Node1&#45;&gt;Node19 -->
<g id="edge44_Node000001_Node000019" class="edge">
<title>Node1&#45;&gt;Node19</title>
<g id="a_edge44_Node000001_Node000019"><a xlink:title=" ">
<path fill="none" stroke="#63b8ff" d="M106.37,-240.86C128.76,-225.19 175.76,-194.23 220,-177.5 301.04,-146.85 339.11,-186.85 411,-138.5 434.93,-122.4 421.57,-98.11 447,-84.5 520.67,-45.07 553.9,-64.41 635,-84.5 652.56,-88.85 654.1,-97.04 671,-103.5 677.4,-105.95 684.23,-108.17 691.06,-110.16"/>
<polygon fill="#63b8ff" stroke="#63b8ff" points="690.46,-113.62 701.04,-112.9 692.32,-106.87 690.46,-113.62"/>
</a>
</g>
</g>
<!-- Node20 -->
<g id="Node000020" class="node">
<title>Node20</title>
<g id="a_Node000020"><a xlink:href="classPlayerTank.html#a5799e229863bc48d1de94625ab91bd0b" target="_top" xlink:title="Sets number of player lives.">
<polygon fill="white" stroke="#666666" points="599,-300 483,-300 483,-281 599,-281 599,-300"/>
<text text-anchor="middle" x="541" y="-288" font-family="Helvetica,sans-Serif" font-size="10.00">PlayerTank::setLives</text>
</a>
</g>
</g>
<!-- Node1&#45;&gt;Node20 -->
<g id="edge45_Node000001_Node000020" class="edge">
<title>Node1&#45;&gt;Node20</title>
<g id="a_edge45_Node000001_Node000020"><a xlink:title=" ">
<path fill="none" stroke="#63b8ff" d="M163.46,-260.02C181.85,-262.33 201.65,-264.66 220,-266.5 307.21,-275.26 408.1,-282.32 472.9,-286.46"/>
<polygon fill="#63b8ff" stroke="#63b8ff" points="472.79,-289.96 482.99,-287.1 473.23,-282.97 472.79,-289.96"/>
</a>
</g>
</g>
<!-- Node22 -->
<g id="Node000022" class="node">
<title>Node22</title>
<g id="a_Node000022"><a xlink:href="classPlayerTank.html#abde1432113bfd6939d0f69e0492b74c7" target="_top" xlink:title="Sets player score.">
<polygon fill="white" stroke="#666666" points="600,-263 482,-263 482,-244 600,-244 600,-263"/>
<text text-anchor="middle" x="541" y="-251" font-family="Helvetica,sans-Serif" font-size="10.00">PlayerTank::setScore</text>
</a>
</g>
</g>
<!-- Node1&#45;&gt;Node22 -->
<g id="edge46_Node000001_Node000022" class="edge">
<title>Node1&#45;&gt;Node22</title>
<g id="a_edge46_Node000001_Node000022"><a xlink:title=" ">
<path fill="none" stroke="#63b8ff" d="M184.27,-251.11C269.55,-251.68 394.95,-252.53 471.83,-253.04"/>
<polygon fill="#63b8ff" stroke="#63b8ff" points="471.87,-256.54 481.89,-253.11 471.91,-249.54 471.87,-256.54"/>
</a>
</g>
</g>
<!-- Node23 -->
<g id="Node000023" class="node">
<title>Node23</title>
<g id="a_Node000023"><a xlink:href="classMapManager.html#a48c20c340d2663c0f6222019346ac689" target="_top" xlink:title="Gets specific map by index.">
<polygon fill="white" stroke="#666666" points="377,-130 254,-130 254,-111 377,-111 377,-130"/>
<text text-anchor="middle" x="315.5" y="-118" font-family="Helvetica,sans-Serif" font-size="10.00">MapManager::getMap</text>
</a>
</g>
</g>
<!-- Node1&#45;&gt;Node23 -->
<g id="edge25_Node000001_Node000023" class="edge">
<title>Node1&#45;&gt;Node23</title>
<g id="a_edge25_Node000001_Node000023"><a xlink:title=" ">
<path fill="none" stroke="#63b8ff" d="M101.51,-240.94C120.59,-220.13 169.1,-170.49 220,-144.5 229.25,-139.77 239.5,-135.94 249.74,-132.83"/>
<polygon fill="#63b8ff" stroke="#63b8ff" points="250.84,-136.16 259.51,-130.07 248.94,-129.42 250.84,-136.16"/>
</a>
</g>
</g>
<!-- Node24 -->
<g id="Node000024" class="node">
<title>Node24</title>
<g id="a_Node000024"><a xlink:href="classMapManager.html#af64dff6fc51c7bbc255a4745d8eb0bb4" target="_top" xlink:title="Checks if map index is valid.">
<polygon fill="white" stroke="#666666" points="399,-93 232,-93 232,-74 399,-74 399,-93"/>
<text text-anchor="middle" x="315.5" y="-81" font-family="Helvetica,sans-Serif" font-size="10.00">MapManager::isValidMapIndex</text>
</a>
</g>
</g>
<!-- Node1&#45;&gt;Node24 -->
<g id="edge28_Node000001_Node000024" class="edge">
<title>Node1&#45;&gt;Node24</title>
<g id="a_edge28_Node000001_Node000024"><a xlink:title=" ">
<path fill="none" stroke="#63b8ff" d="M98.06,-240.89C112.8,-213.92 158.59,-137.2 220,-101.5 222.89,-99.82 225.9,-98.29 229,-96.91"/>
<polygon fill="#63b8ff" stroke="#63b8ff" points="230.52,-100.07 238.54,-93.15 227.95,-93.56 230.52,-100.07"/>
</a>
</g>
</g>
<!-- Node25 -->
<g id="Node000025" class="node">
<title>Node25</title>
<g id="a_Node000025"><a xlink:href="classGameWorld.html#a13fd8123f71f48726bfeb233961f88da" target="_top" xlink:title="Loads specified level.">
<polygon fill="white" stroke="#666666" points="379,-206 252,-206 252,-187 379,-187 379,-206"/>
<text text-anchor="middle" x="315.5" y="-194" font-family="Helvetica,sans-Serif" font-size="10.00">GameWorld::loadLevel</text>
</a>
</g>
</g>
<!-- Node1&#45;&gt;Node25 -->
<g id="edge29_Node000001_Node000025" class="edge">
<title>Node1&#45;&gt;Node25</title>
<g id="a_edge29_Node000001_Node000025"><a xlink:title=" ">
<path fill="none" stroke="#63b8ff" d="M132.09,-240.97C169.3,-231.9 225.42,-218.22 265.58,-208.43"/>
<polygon fill="#63b8ff" stroke="#63b8ff" points="266.54,-211.79 275.43,-206.03 264.88,-204.99 266.54,-211.79"/>
</a>
</g>
</g>
<!-- Node34 -->
<g id="Node000034" class="node">
<title>Node34</title>
<g id="a_Node000034"><a xlink:href="classGameWorld.html#a70c30d59e1b5010c328b5ddb1fa482cd" target="_top" xlink:title="Sets current level number.">
<polygon fill="white" stroke="#666666" points="394,-56 237,-56 237,-37 394,-37 394,-56"/>
<text text-anchor="middle" x="315.5" y="-44" font-family="Helvetica,sans-Serif" font-size="10.00">GameWorld::setCurrentLevel</text>
</a>
</g>
</g>
<!-- Node1&#45;&gt;Node34 -->
<g id="edge43_Node000001_Node000034" class="edge">
<title>Node1&#45;&gt;Node34</title>
<g id="a_edge43_Node000001_Node000034"><a xlink:title=" ">
<path fill="none" stroke="#63b8ff" d="M96.48,-240.83C108.29,-209.52 150.01,-110.35 220,-64.5 222.42,-62.91 224.95,-61.46 227.56,-60.12"/>
<polygon fill="#63b8ff" stroke="#63b8ff" points="228.99,-63.32 236.7,-56.05 226.14,-56.92 228.99,-63.32"/>
</a>
</g>
</g>
<!-- Node35 -->
<g id="Node000035" class="node">
<title>Node35</title>
<g id="a_Node000035"><a xlink:href="classGameWorld.html#a0cfc65f0eb89ee76d777f6e2f76cb901" target="_top" xlink:title="Sets current game state.">
<polygon fill="white" stroke="#666666" points="375.5,-19 255.5,-19 255.5,0 375.5,0 375.5,-19"/>
<text text-anchor="middle" x="315.5" y="-7" font-family="Helvetica,sans-Serif" font-size="10.00">GameWorld::setState</text>
</a>
</g>
</g>
<!-- Node1&#45;&gt;Node35 -->
<g id="edge47_Node000001_Node000035" class="edge">
<title>Node1&#45;&gt;Node35</title>
<g id="a_edge47_Node000001_Node000035"><a xlink:title=" ">
<path fill="none" stroke="#63b8ff" d="M95.34,-240.95C104.45,-205.98 140.99,-83.99 220,-27.5 227.58,-22.08 236.35,-18.17 245.43,-15.36"/>
<polygon fill="#63b8ff" stroke="#63b8ff" points="246.58,-18.68 255.36,-12.73 244.79,-11.91 246.58,-18.68"/>
</a>
</g>
</g>
<!-- Node3 -->
<g id="Node000003" class="node">
<title>Node3</title>
<g id="a_Node000003"><a xlink:href="classMapManager.html#ac5bc6102445e84f0d6f8c9adfdb92a4e" target="_top" xlink:title="Calculates adjusted enemy count based on level.">
<polygon fill="white" stroke="#666666" points="627.5,-717.5 454.5,-717.5 454.5,-687.5 627.5,-687.5 627.5,-717.5"/>
<text text-anchor="start" x="462.5" y="-705.5" font-family="Helvetica,sans-Serif" font-size="10.00">MapManager::calculateAdjusted</text>
<text text-anchor="middle" x="541" y="-694.5" font-family="Helvetica,sans-Serif" font-size="10.00">EnemyCount</text>
</a>
</g>
</g>
<!-- Node2&#45;&gt;Node3 -->
<g id="edge2_Node000002_Node000003" class="edge">
<title>Node2&#45;&gt;Node3</title>
<g id="a_edge2_Node000002_Node000003"><a xlink:title=" ">
<path fill="none" stroke="#63b8ff" d="M331.16,-616.21C354.7,-631.41 402.76,-660.91 447,-678.5 452.36,-680.63 457.97,-682.62 463.66,-684.48"/>
<polygon fill="#63b8ff" stroke="#63b8ff" points="462.71,-687.85 473.3,-687.47 464.78,-681.16 462.71,-687.85"/>
</a>
</g>
</g>
<!-- Node4 -->
<g id="Node000004" class="node">
<title>Node4</title>
<g id="a_Node000004"><a xlink:href="classMapManager.html#ae3ea6b46f24eb1bf03fd7837a04d559d" target="_top" xlink:title="Calculates enemy difficulty based on level.">
<polygon fill="white" stroke="#666666" points="623,-669.5 459,-669.5 459,-639.5 623,-639.5 623,-669.5"/>
<text text-anchor="start" x="467" y="-657.5" font-family="Helvetica,sans-Serif" font-size="10.00">MapManager::calculateEnemy</text>
<text text-anchor="middle" x="541" y="-646.5" font-family="Helvetica,sans-Serif" font-size="10.00">Difficulty</text>
</a>
</g>
</g>
<!-- Node2&#45;&gt;Node4 -->
<g id="edge3_Node000002_Node000004" class="edge">
<title>Node2&#45;&gt;Node4</title>
<g id="a_edge3_Node000002_Node000004"><a xlink:title=" ">
<path fill="none" stroke="#63b8ff" d="M360.92,-616.04C389.19,-622.11 426.62,-630.15 459.94,-637.31"/>
<polygon fill="#63b8ff" stroke="#63b8ff" points="459.63,-640.82 470.14,-639.5 461.1,-633.97 459.63,-640.82"/>
</a>
</g>
</g>
<!-- Node5 -->
<g id="Node000005" class="node">
<title>Node5</title>
<g id="a_Node000005"><a xlink:href="classMapManager.html#ace9dd32160efac15a2b84873861b6f4b" target="_top" xlink:title="Counts enemies in map layout.">
<polygon fill="white" stroke="#666666" points="618.5,-621.5 463.5,-621.5 463.5,-591.5 618.5,-591.5 618.5,-621.5"/>
<text text-anchor="start" x="471.5" y="-609.5" font-family="Helvetica,sans-Serif" font-size="10.00">MapManager::countEnemies</text>
<text text-anchor="middle" x="541" y="-598.5" font-family="Helvetica,sans-Serif" font-size="10.00">InLayout</text>
</a>
</g>
</g>
<!-- Node2&#45;&gt;Node5 -->
<g id="edge4_Node000002_Node000005" class="edge">
<title>Node2&#45;&gt;Node5</title>
<g id="a_edge4_Node000002_Node000005"><a xlink:title=" ">
<path fill="none" stroke="#63b8ff" d="M411.28,-606.5C425.13,-606.5 439.32,-606.5 453,-606.5"/>
<polygon fill="#63b8ff" stroke="#63b8ff" points="453.34,-610 463.34,-606.5 453.34,-603 453.34,-610"/>
</a>
</g>
</g>
<!-- Node6 -->
<g id="Node000006" class="node">
<title>Node6</title>
<g id="a_Node000006"><a xlink:href="classMapManager.html#a3482ed19e5051b3c1f1f64e7d8c05a79" target="_top" xlink:title="Gets AI behavior based on difficulty level.">
<polygon fill="white" stroke="#666666" points="618.5,-535.5 463.5,-535.5 463.5,-505.5 618.5,-505.5 618.5,-535.5"/>
<text text-anchor="start" x="471.5" y="-523.5" font-family="Helvetica,sans-Serif" font-size="10.00">MapManager::getAIBehavior</text>
<text text-anchor="middle" x="541" y="-512.5" font-family="Helvetica,sans-Serif" font-size="10.00">ForDifficulty</text>
</a>
</g>
</g>
<!-- Node2&#45;&gt;Node6 -->
<g id="edge5_Node000002_Node000006" class="edge">
<title>Node2&#45;&gt;Node6</title>
<g id="a_edge5_Node000002_Node000006"><a xlink:title=" ">
<path fill="none" stroke="#63b8ff" d="M336.56,-596.92C361.94,-584.98 407.16,-564.36 447,-549.5 457.07,-545.74 467.87,-542.07 478.42,-538.66"/>
<polygon fill="#63b8ff" stroke="#63b8ff" points="479.54,-541.97 488.01,-535.61 477.42,-535.3 479.54,-541.97"/>
</a>
</g>
</g>
<!-- Node7 -->
<g id="Node000007" class="node">
<title>Node7</title>
<g id="a_Node000007"><a xlink:href="classGameWorld.html#a8ccfe5d146791d20012d963e01262163" target="_top" xlink:title="Gets all active bonuses.">
<polygon fill="white" stroke="#666666" points="609.5,-487 472.5,-487 472.5,-468 609.5,-468 609.5,-487"/>
<text text-anchor="middle" x="541" y="-475" font-family="Helvetica,sans-Serif" font-size="10.00">GameWorld::getBonuses</text>
</a>
</g>
</g>
<!-- Node2&#45;&gt;Node7 -->
<g id="edge6_Node000002_Node000007" class="edge">
<title>Node2&#45;&gt;Node7</title>
<g id="a_edge6_Node000002_Node000007"><a xlink:title=" ">
<path fill="none" stroke="#63b8ff" d="M324.84,-596.72C344.01,-574.94 393.66,-522.33 447,-496.5 452.01,-494.08 457.31,-491.96 462.74,-490.12"/>
<polygon fill="#63b8ff" stroke="#63b8ff" points="464.1,-493.36 472.63,-487.08 462.04,-486.67 464.1,-493.36"/>
</a>
</g>
</g>
<!-- Node2&#45;&gt;Node8 -->
<g id="edge7_Node000002_Node000008" class="edge">
<title>Node2&#45;&gt;Node8</title>
<g id="a_edge7_Node000002_Node000008"><a xlink:title=" ">
<path fill="none" stroke="#63b8ff" d="M319.43,-616.26C337.29,-675.67 431.34,-986.73 447,-1000.5 448.81,-1002.09 450.71,-1003.55 452.69,-1004.9"/>
<polygon fill="#63b8ff" stroke="#63b8ff" points="451.43,-1008.21 461.85,-1010.13 454.9,-1002.13 451.43,-1008.21"/>
</a>
</g>
</g>
<!-- Node9 -->
<g id="Node000009" class="node">
<title>Node9</title>
<g id="a_Node000009"><a xlink:href="classGameObject.html#aef9f45389e1ce2fe2260bcfd2c84c16a" target="_top" xlink:title="Gets current health points.">
<polygon fill="white" stroke="#666666" points="606.5,-450 475.5,-450 475.5,-431 606.5,-431 606.5,-450"/>
<text text-anchor="middle" x="541" y="-438" font-family="Helvetica,sans-Serif" font-size="10.00">GameObject::getHealth</text>
</a>
</g>
</g>
<!-- Node2&#45;&gt;Node9 -->
<g id="edge8_Node000002_Node000009" class="edge">
<title>Node2&#45;&gt;Node9</title>
<g id="a_edge8_Node000002_Node000009"><a xlink:title=" ">
<path fill="none" stroke="#63b8ff" d="M322.06,-596.67C337.79,-569.84 385.51,-494.96 447,-459.5 452.85,-456.13 459.21,-453.34 465.77,-451.05"/>
<polygon fill="#63b8ff" stroke="#63b8ff" points="466.97,-454.35 475.48,-448.04 464.89,-447.66 466.97,-454.35"/>
</a>
</g>
</g>
<!-- Node2&#45;&gt;Node10 -->
<g id="edge9_Node000002_Node000010" class="edge">
<title>Node2&#45;&gt;Node10</title>
<g id="a_edge9_Node000002_Node000010"><a xlink:title=" ">
<path fill="none" stroke="#63b8ff" d="M322.3,-616.13C338.61,-643.61 385.39,-725.2 411,-798.5 435.75,-869.36 393.3,-911.06 447,-963.5 454.15,-970.48 463.14,-975.16 472.7,-978.24"/>
<polygon fill="#63b8ff" stroke="#63b8ff" points="471.84,-981.63 482.4,-980.81 473.63,-974.87 471.84,-981.63"/>
</a>
</g>
</g>
<!-- Node11 -->
<g id="Node000011" class="node">
<title>Node11</title>
<g id="a_Node000011"><a xlink:href="classGameWorld.html#aeb0de8b4054d1ab65b71436966d1a01d" target="_top" xlink:title="Gets all game objects.">
<polygon fill="white" stroke="#666666" points="607,-954 475,-954 475,-935 607,-935 607,-954"/>
<text text-anchor="middle" x="541" y="-942" font-family="Helvetica,sans-Serif" font-size="10.00">GameWorld::getObjects</text>
</a>
</g>
</g>
<!-- Node2&#45;&gt;Node11 -->
<g id="edge10_Node000002_Node000011" class="edge">
<title>Node2&#45;&gt;Node11</title>
<g id="a_edge10_Node000002_Node000011"><a xlink:title=" ">
<path fill="none" stroke="#63b8ff" d="M322.03,-616.22C337.65,-643.97 382.77,-726.17 411,-798.5 431.56,-851.16 406.34,-881.22 447,-920.5 452.36,-925.68 458.68,-929.78 465.47,-933.02"/>
<polygon fill="#63b8ff" stroke="#63b8ff" points="464.38,-936.36 474.96,-936.93 467.05,-929.89 464.38,-936.36"/>
</a>
</g>
</g>
<!-- Node2&#45;&gt;Node12 -->
<g id="edge11_Node000002_Node000012" class="edge">
<title>Node2&#45;&gt;Node12</title>
<g id="a_edge11_Node000002_Node000012"><a xlink:title=" ">
<path fill="none" stroke="#63b8ff" d="M319.33,-596.85C329.87,-562.6 370.34,-445.81 447,-388.5 453.46,-383.67 460.79,-379.81 468.44,-376.73"/>
<polygon fill="#63b8ff" stroke="#63b8ff" points="469.66,-380.01 477.89,-373.33 467.3,-373.42 469.66,-380.01"/>
</a>
</g>
</g>
<!-- Node13 -->
<g id="Node000013" class="node">
<title>Node13</title>
<g id="a_Node000013"><a xlink:href="classGameObject.html#aa4dd19d6b0ea5701d860b64b08435ae6" target="_top" xlink:title="Gets current position of the object.">
<polygon fill="white" stroke="#666666" points="817,-873 679,-873 679,-854 817,-854 817,-873"/>
<text text-anchor="middle" x="748" y="-861" font-family="Helvetica,sans-Serif" font-size="10.00">GameObject::getPosition</text>
</a>
</g>
</g>
<!-- Node2&#45;&gt;Node13 -->
<g id="edge12_Node000002_Node000013" class="edge">
<title>Node2&#45;&gt;Node13</title>
<g id="a_edge12_Node000002_Node000013"><a xlink:title=" ">
<path fill="none" stroke="#63b8ff" d="M321.68,-616.37C336.37,-644.51 379.28,-727.63 411,-798.5 428.43,-837.45 411.62,-863.65 447,-887.5 530.95,-944.1 659.71,-901.26 717.34,-877.09"/>
<polygon fill="#63b8ff" stroke="#63b8ff" points="718.8,-880.27 726.6,-873.11 716.03,-873.84 718.8,-880.27"/>
</a>
</g>
</g>
<!-- Node14 -->
<g id="Node000014" class="node">
<title>Node14</title>
<g id="a_Node000014"><a xlink:href="classGameWorld.html#a7b7eb39217a9ca7e8686781766fa982b" target="_top" xlink:title="Gets all active projectiles.">
<polygon fill="white" stroke="#666666" points="614,-792 468,-792 468,-773 614,-773 614,-792"/>
<text text-anchor="middle" x="541" y="-780" font-family="Helvetica,sans-Serif" font-size="10.00">GameWorld::getProjectiles</text>
</a>
</g>
</g>
<!-- Node2&#45;&gt;Node14 -->
<g id="edge13_Node000002_Node000014" class="edge">
<title>Node2&#45;&gt;Node14</title>
<g id="a_edge13_Node000002_Node000014"><a xlink:title=" ">
<path fill="none" stroke="#63b8ff" d="M321.4,-616.28C336.1,-644.47 382.76,-726.36 447,-764.5 450.48,-766.57 454.15,-768.4 457.94,-770.03"/>
<polygon fill="#63b8ff" stroke="#63b8ff" points="456.99,-773.41 467.58,-773.67 459.46,-766.86 456.99,-773.41"/>
</a>
</g>
</g>
<!-- Node15 -->
<g id="Node000015" class="node">
<title>Node15</title>
<g id="a_Node000015"><a xlink:href="classMapManager.html#a1ad44804432af2a23ae74a8a44007859" target="_top" xlink:title="Gets random enemy tank type based on level.">
<polygon fill="white" stroke="#666666" points="635,-755 447,-755 447,-736 635,-736 635,-755"/>
<text text-anchor="middle" x="541" y="-743" font-family="Helvetica,sans-Serif" font-size="10.00">MapManager::getRandomTankType</text>
</a>
</g>
</g>
<!-- Node2&#45;&gt;Node15 -->
<g id="edge14_Node000002_Node000015" class="edge">
<title>Node2&#45;&gt;Node15</title>
<g id="a_edge14_Node000002_Node000015"><a xlink:title=" ">
<path fill="none" stroke="#63b8ff" d="M323.81,-616.14C341.91,-639.27 391.37,-698.06 447,-726.5 451.65,-728.88 456.57,-730.96 461.63,-732.78"/>
<polygon fill="#63b8ff" stroke="#63b8ff" points="460.9,-736.22 471.49,-735.96 463.05,-729.56 460.9,-736.22"/>
</a>
</g>
</g>
<!-- Node2&#45;&gt;Node16 -->
<g id="edge15_Node000002_Node000016" class="edge">
<title>Node2&#45;&gt;Node16</title>
<g id="a_edge15_Node000002_Node000016"><a xlink:title=" ">
<path fill="none" stroke="#63b8ff" d="M318.23,-596.79C325.66,-558.17 358.59,-414.21 447,-346.5 454.3,-340.91 462.84,-336.85 471.73,-333.93"/>
<polygon fill="#63b8ff" stroke="#63b8ff" points="472.8,-337.26 481.47,-331.18 470.9,-330.52 472.8,-337.26"/>
</a>
</g>
</g>
<!-- Node17 -->
<g id="Node000017" class="node">
<title>Node17</title>
<g id="a_Node000017"><a xlink:href="classMapManager.html#abbb0023118bf20fed584293550ace259" target="_top" xlink:title="Checks if position is valid for enemy placement.">
<polygon fill="white" stroke="#666666" points="617,-878.5 465,-878.5 465,-848.5 617,-848.5 617,-878.5"/>
<text text-anchor="start" x="473" y="-866.5" font-family="Helvetica,sans-Serif" font-size="10.00">MapManager::isValidEnemy</text>
<text text-anchor="middle" x="541" y="-855.5" font-family="Helvetica,sans-Serif" font-size="10.00">Position</text>
</a>
</g>
</g>
<!-- Node2&#45;&gt;Node17 -->
<g id="edge16_Node000002_Node000017" class="edge">
<title>Node2&#45;&gt;Node17</title>
<g id="a_edge16_Node000002_Node000017"><a xlink:title=" ">
<path fill="none" stroke="#63b8ff" d="M320.83,-616.08C338.69,-655.29 407.62,-802.87 447,-834.5 451.37,-838.01 456.16,-841.09 461.2,-843.81"/>
<polygon fill="#63b8ff" stroke="#63b8ff" points="459.97,-847.1 470.49,-848.3 463.01,-840.8 459.97,-847.1"/>
</a>
</g>
</g>
<!-- Node18 -->
<g id="Node000018" class="node">
<title>Node18</title>
<g id="a_Node000018"><a xlink:href="classGameObject.html#a4bc41ca14c07e61dafa74a03c4f3e2df" target="_top" xlink:title="Rotates the object to face new direction.">
<polygon fill="white" stroke="#666666" points="804.5,-262 691.5,-262 691.5,-243 804.5,-243 804.5,-262"/>
<text text-anchor="middle" x="748" y="-250" font-family="Helvetica,sans-Serif" font-size="10.00">GameObject::rotate</text>
</a>
</g>
</g>
<!-- Node2&#45;&gt;Node18 -->
<g id="edge18_Node000002_Node000018" class="edge">
<title>Node2&#45;&gt;Node18</title>
<g id="a_edge18_Node000002_Node000018"><a xlink:title=" ">
<path fill="none" stroke="#63b8ff" d="M319.38,-616.26C329.84,-649.72 369.39,-760.05 447,-801.5 520.7,-840.86 573.95,-858.55 635,-801.5 721.41,-720.75 594.54,-360.73 671,-270.5 674.17,-266.75 677.97,-263.71 682.15,-261.24"/>
<polygon fill="#63b8ff" stroke="#63b8ff" points="683.67,-264.39 691.2,-256.94 680.66,-258.07 683.67,-264.39"/>
</a>
</g>
</g>
<!-- Node2&#45;&gt;Node19 -->
<g id="edge19_Node000002_Node000019" class="edge">
<title>Node2&#45;&gt;Node19</title>
<g id="a_edge19_Node000002_Node000019"><a xlink:title=" ">
<path fill="none" stroke="#63b8ff" d="M320.22,-596.97C332.79,-566.13 376.86,-468.37 447,-422.5 518.42,-375.79 576.42,-445.55 635,-383.5 709.95,-304.11 597.17,-220.93 671,-140.5 671.93,-139.49 672.9,-138.53 673.92,-137.62"/>
<polygon fill="#63b8ff" stroke="#63b8ff" points="676.29,-140.22 682.4,-131.57 672.23,-134.52 676.29,-140.22"/>
</a>
</g>
</g>
<!-- Node2&#45;&gt;Node20 -->
<g id="edge20_Node000002_Node000020" class="edge">
<title>Node2&#45;&gt;Node20</title>
<g id="a_edge20_Node000002_Node000020"><a xlink:title=" ">
<path fill="none" stroke="#63b8ff" d="M317.57,-596.9C322.78,-555.2 349.27,-388.39 447,-309.5 454.52,-303.43 463.47,-299.14 472.81,-296.14"/>
<polygon fill="#63b8ff" stroke="#63b8ff" points="473.91,-299.47 482.63,-293.46 472.06,-292.72 473.91,-299.47"/>
</a>
</g>
</g>
<!-- Node21 -->
<g id="Node000021" class="node">
<title>Node21</title>
<g id="a_Node000021"><a xlink:href="classGameObject.html#a8e1f77d21a8ed8a894ae29f0e4126618" target="_top" xlink:title="Sets new position for the object.">
<polygon fill="white" stroke="#666666" points="816.5,-169 679.5,-169 679.5,-150 816.5,-150 816.5,-169"/>
<text text-anchor="middle" x="748" y="-157" font-family="Helvetica,sans-Serif" font-size="10.00">GameObject::setPosition</text>
</a>
</g>
</g>
<!-- Node2&#45;&gt;Node21 -->
<g id="edge21_Node000002_Node000021" class="edge">
<title>Node2&#45;&gt;Node21</title>
<g id="a_edge21_Node000002_Node000021"><a xlink:title=" ">
<path fill="none" stroke="#63b8ff" d="M367.58,-596.95C457.01,-580.19 632.73,-546.98 635,-544.5 687.47,-487.13 626.44,-260.21 671,-196.5 678.16,-186.26 688.97,-178.74 700.2,-173.26"/>
<polygon fill="#63b8ff" stroke="#63b8ff" points="701.91,-176.33 709.67,-169.12 699.11,-169.92 701.91,-176.33"/>
</a>
</g>
</g>
<!-- Node2&#45;&gt;Node22 -->
<g id="edge22_Node000002_Node000022" class="edge">
<title>Node2&#45;&gt;Node22</title>
<g id="a_edge22_Node000002_Node000022"><a xlink:title=" ">
<path fill="none" stroke="#63b8ff" d="M317.03,-596.91C320.07,-552.07 339.16,-361.46 447,-271.5 454.31,-265.4 463.07,-261.14 472.25,-258.2"/>
<polygon fill="#63b8ff" stroke="#63b8ff" points="473.18,-261.57 481.93,-255.59 471.36,-254.81 473.18,-261.57"/>
</a>
</g>
</g>
<!-- Node17&#45;&gt;Node13 -->
<g id="edge17_Node000017_Node000013" class="edge">
<title>Node17&#45;&gt;Node13</title>
<g id="a_edge17_Node000017_Node000013"><a xlink:title=" ">
<path fill="none" stroke="#63b8ff" d="M617.17,-863.5C633.92,-863.5 651.72,-863.5 668.6,-863.5"/>
<polygon fill="#63b8ff" stroke="#63b8ff" points="668.97,-867 678.97,-863.5 668.97,-860 668.97,-867"/>
</a>
</g>
</g>
<!-- Node25&#45;&gt;Node21 -->
<g id="edge42_Node000025_Node000021" class="edge">
<title>Node25&#45;&gt;Node21</title>
<g id="a_edge42_Node000025_Node000021"><a xlink:title=" ">
<path fill="none" stroke="#63b8ff" d="M356.68,-186.98C373.53,-182.81 393.29,-177.69 411,-172.5 427.18,-167.75 430.36,-163.23 447,-160.5 521.7,-148.25 608.28,-149.59 669.17,-153.03"/>
<polygon fill="#63b8ff" stroke="#63b8ff" points="669.28,-156.55 679.47,-153.65 669.7,-149.56 669.28,-156.55"/>
</a>
</g>
</g>
<!-- Node26 -->
<g id="Node000026" class="node">
<title>Node26</title>
<g id="a_Node000026"><a xlink:href="classGameWorld.html#a82921d6b419e2aa8244c5cf69feac3ff" target="_top" xlink:title="Creates enemies for level.">
<polygon fill="white" stroke="#666666" points="617,-189 465,-189 465,-170 617,-170 617,-189"/>
<text text-anchor="middle" x="541" y="-177" font-family="Helvetica,sans-Serif" font-size="10.00">GameWorld::createEnemies</text>
</a>
</g>
</g>
<!-- Node25&#45;&gt;Node26 -->
<g id="edge30_Node000025_Node000026" class="edge">
<title>Node25&#45;&gt;Node26</title>
<g id="a_edge30_Node000025_Node000026"><a xlink:title=" ">
<path fill="none" stroke="#63b8ff" d="M379.05,-191.74C402.44,-189.96 429.41,-187.91 454.5,-186"/>
<polygon fill="#63b8ff" stroke="#63b8ff" points="455.05,-189.47 464.76,-185.22 454.52,-182.49 455.05,-189.47"/>
</a>
</g>
</g>
<!-- Node27 -->
<g id="Node000027" class="node">
<title>Node27</title>
<g id="a_Node000027"><a xlink:href="classGameWorld.html#a704a245a7945b1d7453b22bd698ff5b3" target="_top" xlink:title="Creates obstacles for level.">
<polygon fill="white" stroke="#666666" points="633.5,-226 448.5,-226 448.5,-207 633.5,-207 633.5,-226"/>
<text text-anchor="middle" x="541" y="-214" font-family="Helvetica,sans-Serif" font-size="10.00">GameWorld::createLevelObstacles</text>
</a>
</g>
</g>
<!-- Node25&#45;&gt;Node27 -->
<g id="edge31_Node000025_Node000027" class="edge">
<title>Node25&#45;&gt;Node27</title>
<g id="a_edge31_Node000025_Node000027"><a xlink:title=" ">
<path fill="none" stroke="#63b8ff" d="M379.05,-202.1C397.39,-203.74 417.94,-205.58 438.06,-207.38"/>
<polygon fill="#63b8ff" stroke="#63b8ff" points="437.94,-210.88 448.21,-208.29 438.56,-203.91 437.94,-210.88"/>
</a>
</g>
</g>
<!-- Node31 -->
<g id="Node000031" class="node">
<title>Node31</title>
<g id="a_Node000031"><a xlink:href="classPlayerTank.html#a59e06eac615955573cfa6842e37f41ad" target="_top" xlink:title="Resets player tank to initial state.">
<polygon fill="white" stroke="#666666" points="591.5,-113 490.5,-113 490.5,-94 591.5,-94 591.5,-113"/>
<text text-anchor="middle" x="541" y="-101" font-family="Helvetica,sans-Serif" font-size="10.00">PlayerTank::reset</text>
</a>
</g>
</g>
<!-- Node25&#45;&gt;Node31 -->
<g id="edge36_Node000025_Node000031" class="edge">
<title>Node25&#45;&gt;Node31</title>
<g id="a_edge36_Node000025_Node000031"><a xlink:title=" ">
<path fill="none" stroke="#63b8ff" d="M378.39,-186.92C389.79,-183.49 401.18,-178.83 411,-172.5 432.53,-158.63 425.5,-141.41 447,-127.5 457.06,-120.99 468.81,-116.24 480.49,-112.78"/>
<polygon fill="#63b8ff" stroke="#63b8ff" points="481.5,-116.14 490.26,-110.17 479.69,-109.37 481.5,-116.14"/>
</a>
</g>
</g>
<!-- Node27&#45;&gt;Node13 -->
<g id="edge33_Node000027_Node000013" class="edge">
<title>Node27&#45;&gt;Node13</title>
<g id="a_edge33_Node000027_Node000013"><a xlink:title=" ">
<path fill="none" stroke="#63b8ff" d="M624.22,-226.1C628.13,-228.44 631.77,-231.22 635,-234.5 679.32,-279.48 733.41,-742.16 744.82,-843.82"/>
<polygon fill="#63b8ff" stroke="#63b8ff" points="741.36,-844.37 745.95,-853.92 748.32,-843.59 741.36,-844.37"/>
</a>
</g>
</g>
<!-- Node28 -->
<g id="Node000028" class="node">
<title>Node28</title>
<g id="a_Node000028"><a xlink:href="classGameWorld.html#af148052443ed7c0e22a0ed325429fd1e" target="_top" xlink:title="Adjusts difficulty based on level.">
<polygon fill="white" stroke="#666666" points="825,-225 671,-225 671,-206 825,-206 825,-225"/>
<text text-anchor="middle" x="748" y="-213" font-family="Helvetica,sans-Serif" font-size="10.00">GameWorld::adjustDifficulty</text>
</a>
</g>
</g>
<!-- Node27&#45;&gt;Node28 -->
<g id="edge32_Node000027_Node000028" class="edge">
<title>Node27&#45;&gt;Node28</title>
<g id="a_edge32_Node000027_Node000028"><a xlink:title=" ">
<path fill="none" stroke="#63b8ff" d="M633.71,-216.05C642.6,-216.01 651.59,-215.97 660.43,-215.92"/>
<polygon fill="#63b8ff" stroke="#63b8ff" points="660.73,-219.42 670.71,-215.87 660.69,-212.42 660.73,-219.42"/>
</a>
</g>
</g>
<!-- Node29 -->
<g id="Node000029" class="node">
<title>Node29</title>
<g id="a_Node000029"><a xlink:href="classGameWorld.html#a44dd38e9393e523caefeac7448cfc18c" target="_top" xlink:title="Checks if position is valid.">
<polygon fill="white" stroke="#666666" points="823.5,-299 672.5,-299 672.5,-280 823.5,-280 823.5,-299"/>
<text text-anchor="middle" x="748" y="-287" font-family="Helvetica,sans-Serif" font-size="10.00">GameWorld::isValidPosition</text>
</a>
</g>
</g>
<!-- Node27&#45;&gt;Node29 -->
<g id="edge34_Node000027_Node000029" class="edge">
<title>Node27&#45;&gt;Node29</title>
<g id="a_edge34_Node000027_Node000029"><a xlink:title=" ">
<path fill="none" stroke="#63b8ff" d="M614.56,-226.1C621.67,-228.35 628.61,-231.11 635,-234.5 654.98,-245.11 651.31,-259.35 671,-270.5 674.97,-272.75 679.2,-274.73 683.56,-276.48"/>
<polygon fill="#63b8ff" stroke="#63b8ff" points="682.66,-279.88 693.25,-279.96 685.02,-273.29 682.66,-279.88"/>
</a>
</g>
</g>
<!-- Node30 -->
<g id="Node000030" class="node">
<title>Node30</title>
<g id="a_Node000030"><a xlink:href="classObstacle.html#aa1936373d282c8dba39f529526b6143d" target="_top" xlink:title="Checks if obstacle is passable for tanks.">
<polygon fill="white" stroke="#666666" points="977,-299 861,-299 861,-280 977,-280 977,-299"/>
<text text-anchor="middle" x="919" y="-287" font-family="Helvetica,sans-Serif" font-size="10.00">Obstacle::isPassable</text>
</a>
</g>
</g>
<!-- Node29&#45;&gt;Node30 -->
<g id="edge35_Node000029_Node000030" class="edge">
<title>Node29&#45;&gt;Node30</title>
<g id="a_edge35_Node000029_Node000030"><a xlink:title=" ">
<path fill="none" stroke="#63b8ff" d="M823.62,-289.5C832.58,-289.5 841.69,-289.5 850.54,-289.5"/>
<polygon fill="#63b8ff" stroke="#63b8ff" points="850.79,-293 860.79,-289.5 850.79,-286 850.79,-293"/>
</a>
</g>
</g>
<!-- Node31&#45;&gt;Node18 -->
<g id="edge37_Node000031_Node000018" class="edge">
<title>Node31&#45;&gt;Node18</title>
<g id="a_edge37_Node000031_Node000018"><a xlink:title=" ">
<path fill="none" stroke="#63b8ff" d="M565.17,-113.17C585.68,-122.7 615.35,-138.96 635,-160.5 659.38,-187.23 642.84,-210.79 671,-233.5 674.33,-236.19 678,-238.51 681.86,-240.5"/>
<polygon fill="#63b8ff" stroke="#63b8ff" points="680.61,-243.77 691.17,-244.59 683.42,-237.36 680.61,-243.77"/>
</a>
</g>
</g>
<!-- Node31&#45;&gt;Node19 -->
<g id="edge39_Node000031_Node000019" class="edge">
<title>Node31&#45;&gt;Node19</title>
<g id="a_edge39_Node000031_Node000019"><a xlink:title=" ">
<path fill="none" stroke="#63b8ff" d="M591.62,-108.1C615.79,-110.34 645.36,-113.08 672.19,-115.57"/>
<polygon fill="#63b8ff" stroke="#63b8ff" points="672.04,-119.07 682.32,-116.51 672.69,-112.1 672.04,-119.07"/>
</a>
</g>
</g>
<!-- Node31&#45;&gt;Node21 -->
<g id="edge40_Node000031_Node000021" class="edge">
<title>Node31&#45;&gt;Node21</title>
<g id="a_edge40_Node000031_Node000021"><a xlink:title=" ">
<path fill="none" stroke="#63b8ff" d="M582.52,-113.08C598.91,-117.18 617.95,-122.24 635,-127.5 651.25,-132.52 654.73,-135.54 671,-140.5 678.86,-142.9 687.25,-145.22 695.47,-147.37"/>
<polygon fill="#63b8ff" stroke="#63b8ff" points="694.82,-150.82 705.37,-149.9 696.55,-144.03 694.82,-150.82"/>
</a>
</g>
</g>
<!-- Node32 -->
<g id="Node000032" class="node">
<title>Node32</title>
<g id="a_Node000032"><a xlink:href="classGameObject.html#ae1bd24d3b8b67f3c5006ceb1b2159d11" target="_top" xlink:title="Sets destroyed state of the object.">
<polygon fill="white" stroke="#666666" points="822.5,-95 673.5,-95 673.5,-76 822.5,-76 822.5,-95"/>
<text text-anchor="middle" x="748" y="-83" font-family="Helvetica,sans-Serif" font-size="10.00">GameObject::setDestroyed</text>
</a>
</g>
</g>
<!-- Node31&#45;&gt;Node32 -->
<g id="edge38_Node000031_Node000032" class="edge">
<title>Node31&#45;&gt;Node32</title>
<g id="a_edge38_Node000031_Node000032"><a xlink:title=" ">
<path fill="none" stroke="#63b8ff" d="M591.62,-99.14C613.18,-97.25 639.04,-94.98 663.42,-92.84"/>
<polygon fill="#63b8ff" stroke="#63b8ff" points="663.74,-96.32 673.39,-91.96 663.13,-89.35 663.74,-96.32"/>
</a>
</g>
</g>
<!-- Node33 -->
<g id="Node000033" class="node">
<title>Node33</title>
<g id="a_Node000033"><a xlink:href="classTank.html#a1c5feece02579ec3508781a825f97c83" target="_top" xlink:title="Sets base speed for the tank.">
<polygon fill="white" stroke="#666666" points="793,-58 703,-58 703,-39 793,-39 793,-58"/>
<text text-anchor="middle" x="748" y="-46" font-family="Helvetica,sans-Serif" font-size="10.00">Tank::setSpeed</text>
</a>
</g>
</g>
<!-- Node31&#45;&gt;Node33 -->
<g id="edge41_Node000031_Node000033" class="edge">
<title>Node31&#45;&gt;Node33</title>
<g id="a_edge41_Node000031_Node000033"><a xlink:title=" ">
<path fill="none" stroke="#63b8ff" d="M573.69,-93.96C599.74,-86.23 637.64,-75.23 671,-66.5 678.83,-64.45 687.15,-62.38 695.29,-60.4"/>
<polygon fill="#63b8ff" stroke="#63b8ff" points="696.19,-63.79 705.1,-58.05 694.56,-56.98 696.19,-63.79"/>
</a>
</g>
</g>
</g>
</svg>

<g id="navigator" transform="translate(0 0)" fill="#404254">
  <rect fill="#f2f5e9" fill-opacity="0.5" stroke="#606060" stroke-width=".5" x="0" y="0" width="60" height="60"/>
  <use id="zoomplus" xlink:href="#zoomPlus" x="17" y="9" onmousedown="handleZoom(evt,'in')"/>
  <use id="zoomminus" xlink:href="#zoomMin" x="42" y="9" onmousedown="handleZoom(evt,'out')"/>
  <use id="reset" xlink:href="#resetDef" x="30" y="36" onmousedown="handleReset()"/>
   <use id="arrowup" xlink:href="#arrowUp" x="0" y="0" onmousedown="handlePan(0,-1)"/>
  <use id="arrowright" xlink:href="#arrowRight" x="0" y="0" onmousedown="handlePan(1,0)"/>
  <use id="arrowdown" xlink:href="#arrowDown" x="0" y="0" onmousedown="handlePan(0,1)"/>
  <use id="arrowleft" xlink:href="#arrowLeft" x="0" y="0" onmousedown="handlePan(-1,0)"/>
</g>
<svg viewBox="0 0 15 15" width="100%" height="30px" preserveAspectRatio="xMaxYMin meet">
 <g id="arrow_out" transform="scale(0.3 0.3)">
  <a xlink:href="classGameController_a09c76a5ae9b8f514163dafe31273f44f_cgraph_org.svg" target="_base">
   <rect id="button" ry="5" rx="5" y="6" x="6" height="38" width="38"
        fill="#f2f5e9" fill-opacity="0.5" stroke="#606060" stroke-width="1.0"/>
   <path id="arrow"
     d="M 11.500037,31.436501 C 11.940474,20.09759 22.043105,11.32322 32.158766,21.979434 L 37.068811,17.246167 C 37.068811,17.246167 37.088388,32 37.088388,32 L 22.160133,31.978069 C 22.160133,31.978069 26.997745,27.140456 26.997745,27.140456 C 18.528582,18.264221 13.291696,25.230495 11.500037,31.436501 z"
     style="fill:#404040;"/>
  </a>
 </g>
</svg>

<style type='text/css'>
<![CDATA[
[data-mouse-over-selected='false'] { opacity: 0.7; }
[data-mouse-over-selected='true']  { opacity: 1.0; }
]]>
</style>
<script type="application/ecmascript"><![CDATA[
document.addEventListener('DOMContentLoaded', (event) => {
  highlightEdges();
  highlightAdjacentNodes();
});
]]></script>
</svg>
