<?xml version="1.0" encoding="UTF-8" standalone="no"?>
<!DOCTYPE svg PUBLIC "-//W3C//DTD SVG 1.1//EN"
 "http://www.w3.org/Graphics/SVG/1.1/DTD/svg11.dtd">
<!-- Generated by graphviz version 2.43.0 (0)
 -->
<!-- Title: PlayerTank::getScore Pages: 1 -->
<!--zoomable 302 -->

<svg id="main" version="1.1" xmlns="http://www.w3.org/2000/svg" xmlns:xlink="http://www.w3.org/1999/xlink" xml:space="preserve" onload="init(evt)">
<style type="text/css"><![CDATA[
.node, .edge {opacity: 0.7;}
.node.selected, .edge.selected {opacity: 1;}
.edge:hover path { stroke: red; }
.edge:hover polygon { stroke: red; fill: red; }
]]></style>

<defs>
  <circle id="rim" cx="0" cy="0" r="7"/>
  <circle id="rim2" cx="0" cy="0" r="3.5"/>
  <g id="zoomPlus">
    <use xlink:href="#rim" fill="#404040"><set attributeName="fill" to="#808080" begin="zoomplus.mouseover" end="zoomplus.mouseout"/></use>
    <path d="M-4,0h8M0,-4v8" fill="none" stroke="white" stroke-width="1.5" pointer-events="none"/>
  </g>
  <g id="zoomMin">
    <use xlink:href="#rim" fill="#404040"><set attributeName="fill" to="#808080" begin="zoomminus.mouseover" end="zoomminus.mouseout"/></use>
    <path d="M-4,0h8" fill="none" stroke="white" stroke-width="1.5" pointer-events="none"/>
  </g>
  <g id="arrowUp" transform="translate(30 24)">
    <use xlink:href="#rim"/>
    <path pointer-events="none" fill="none" stroke="white" stroke-width="1.5" d="M0,-3.0v7 M-2.5,-0.5L0,-3.0L2.5,-0.5"/>
  </g>
  <g id="arrowRight" transform="rotate(90) translate(36 -43)">
    <use xlink:href="#rim"/>
    <path pointer-events="none" fill="none" stroke="white" stroke-width="1.5" d="M0,-3.0v7 M-2.5,-0.5L0,-3.0L2.5,-0.5"/>
  </g>
  <g id="arrowDown" transform="rotate(180) translate(-30 -48)">
    <use xlink:href="#rim"/>
    <path pointer-events="none" fill="none" stroke="white" stroke-width="1.5" d="M0,-3.0v7 M-2.5,-0.5L0,-3.0L2.5,-0.5"/>
  </g>
  <g id="arrowLeft" transform="rotate(270) translate(-36 17)">
    <use xlink:href="#rim"/>
    <path pointer-events="none" fill="none" stroke="white" stroke-width="1.5" d="M0,-3.0v7 M-2.5,-0.5L0,-3.0L2.5,-0.5"/>
  </g>
  <g id="resetDef">
    <use xlink:href="#rim2" fill="#404040"><set attributeName="fill" to="#808080" begin="reset.mouseover" end="reset.mouseout"/></use>
  </g>
</defs>
<script type="application/ecmascript">
var viewWidth = 1888;
var viewHeight = 302;
var sectionId = 'dynsection-8';
</script>
<script type="application/ecmascript" xlink:href="svg.min.js"/>
<svg id="graph" class="graph">
<g id="viewport">
<title>PlayerTank::getScore</title>
<!-- Node1 -->
<g id="Node000001" class="node">
<title>Node1</title>
<g id="a_Node000001"><a xlink:title="Gets current player score.">
<polygon fill="#999999" stroke="#666666" points="1880,-126.49 1761,-126.49 1761,-107.49 1880,-107.49 1880,-126.49"/>
<text text-anchor="middle" x="1820.5" y="-114.49" font-family="Helvetica,sans-Serif" font-size="10.00">PlayerTank::getScore</text>
</a>
</g>
</g>
<!-- Node2 -->
<g id="Node000002" class="node">
<title>Node2</title>
<g id="a_Node000002"><a xlink:href="classMapManager.html#ac1472dad9f9391e45fafadef9c30c1ab" target="_top" xlink:title="Creates game world from map layout.">
<polygon fill="white" stroke="#666666" points="1725,-164.49 1534,-164.49 1534,-145.49 1725,-145.49 1725,-164.49"/>
<text text-anchor="middle" x="1629.5" y="-152.49" font-family="Helvetica,sans-Serif" font-size="10.00">MapManager::createWorldFromMap</text>
</a>
</g>
</g>
<!-- Node1&#45;&gt;Node2 -->
<g id="edge1_Node000001_Node000002" class="edge">
<title>Node1&#45;&gt;Node2</title>
<g id="a_edge1_Node000001_Node000002"><a xlink:title=" ">
<path fill="none" stroke="#63b8ff" d="M1761.76,-128.6C1734.88,-134.01 1703.3,-140.36 1677.85,-145.47"/>
<polygon fill="#63b8ff" stroke="#63b8ff" points="1762.69,-131.99 1771.81,-126.58 1761.31,-125.12 1762.69,-131.99"/>
</a>
</g>
</g>
<!-- Node3 -->
<g id="Node000003" class="node">
<title>Node3</title>
<g id="a_Node000003"><a xlink:href="classGameController.html#a09c76a5ae9b8f514163dafe31273f44f" target="_top" xlink:title="Loads the currently selected map.">
<polygon fill="white" stroke="#666666" points="1498,-164.49 1314,-164.49 1314,-145.49 1498,-145.49 1498,-164.49"/>
<text text-anchor="middle" x="1406" y="-152.49" font-family="Helvetica,sans-Serif" font-size="10.00">GameController::loadSelectedMap</text>
</a>
</g>
</g>
<!-- Node1&#45;&gt;Node3 -->
<g id="edge18_Node000001_Node000003" class="edge">
<title>Node1&#45;&gt;Node3</title>
<g id="a_edge18_Node000001_Node000003"><a xlink:title=" ">
<path fill="none" stroke="#63b8ff" d="M1750.74,-119.99C1692.83,-122.89 1607.85,-128.03 1534,-135.99 1510.95,-138.48 1485.67,-142.08 1463.77,-145.48"/>
<polygon fill="#63b8ff" stroke="#63b8ff" points="1751.06,-123.48 1760.87,-119.49 1750.71,-116.48 1751.06,-123.48"/>
</a>
</g>
</g>
<!-- Node5 -->
<g id="Node000005" class="node">
<title>Node5</title>
<g id="a_Node000005"><a xlink:href="classGameController.html#a85bcf4ecfd197aad278e116215a3717b" target="_top" xlink:title="Displays level completion screen.">
<polygon fill="white" stroke="#666666" points="860,-250.99 708,-250.99 708,-220.99 860,-220.99 860,-250.99"/>
<text text-anchor="start" x="716" y="-238.99" font-family="Helvetica,sans-Serif" font-size="10.00">GameController::showLevel</text>
<text text-anchor="middle" x="784" y="-227.99" font-family="Helvetica,sans-Serif" font-size="10.00">CompleteScreen</text>
</a>
</g>
</g>
<!-- Node1&#45;&gt;Node5 -->
<g id="edge24_Node000001_Node000005" class="edge">
<title>Node1&#45;&gt;Node5</title>
<g id="a_edge24_Node000001_Node000005"><a xlink:title=" ">
<path fill="none" stroke="#63b8ff" d="M1798.53,-132.48C1780.05,-145.41 1751.96,-163.38 1725,-173.99 1590.61,-226.93 1551.44,-240.99 1407,-240.99 1407,-240.99 1407,-240.99 1181.5,-240.99 1069.63,-240.99 940.02,-238.98 860.27,-237.51"/>
<polygon fill="#63b8ff" stroke="#63b8ff" points="1800.67,-135.25 1806.77,-126.59 1796.6,-129.55 1800.67,-135.25"/>
</a>
</g>
</g>
<!-- Node6 -->
<g id="Node000006" class="node">
<title>Node6</title>
<g id="a_Node000006"><a xlink:href="classGameController.html#af2367e58f03d8a1441c9a574967fd360" target="_top" xlink:title="Processes a single game turn/update cycle.">
<polygon fill="white" stroke="#666666" points="445,-164.49 258,-164.49 258,-145.49 445,-145.49 445,-164.49"/>
<text text-anchor="middle" x="351.5" y="-152.49" font-family="Helvetica,sans-Serif" font-size="10.00">GameController::processGameTurn</text>
</a>
</g>
</g>
<!-- Node1&#45;&gt;Node6 -->
<g id="edge21_Node000001_Node000006" class="edge">
<title>Node1&#45;&gt;Node6</title>
<g id="a_edge21_Node000001_Node000006"><a xlink:title=" ">
<path fill="none" stroke="#63b8ff" d="M1803.96,-99.76C1786.62,-81.77 1756.81,-54.37 1725,-40.99 1593.79,14.19 1549.34,-2.99 1407,-2.99 1407,-2.99 1407,-2.99 783,-2.99 611,-2.99 421.27,-112.21 367.45,-145.49"/>
<polygon fill="#63b8ff" stroke="#63b8ff" points="1801.61,-102.37 1811.01,-107.27 1806.72,-97.58 1801.61,-102.37"/>
</a>
</g>
</g>
<!-- Node10 -->
<g id="Node000010" class="node">
<title>Node10</title>
<g id="a_Node000010"><a xlink:href="classGameController.html#a971b3d8f6296a74f0bebc83b5e79c186" target="_top" xlink:title="Processes a user command.">
<polygon fill="white" stroke="#666666" points="669,-126.49 481,-126.49 481,-107.49 669,-107.49 669,-126.49"/>
<text text-anchor="middle" x="575" y="-114.49" font-family="Helvetica,sans-Serif" font-size="10.00">GameController::processCommand</text>
</a>
</g>
</g>
<!-- Node1&#45;&gt;Node10 -->
<g id="edge20_Node000001_Node000010" class="edge">
<title>Node1&#45;&gt;Node10</title>
<g id="a_edge20_Node000001_Node000010"><a xlink:title=" ">
<path fill="none" stroke="#63b8ff" d="M1789.32,-103.38C1771.05,-95.67 1747.09,-86.51 1725,-80.99 1586.79,-46.51 1549.45,-40.99 1407,-40.99 1407,-40.99 1407,-40.99 974,-40.99 854.15,-40.99 821.32,-31.12 705,-59.99 662.46,-70.55 616.34,-94.21 592.45,-107.49"/>
<polygon fill="#63b8ff" stroke="#63b8ff" points="1788,-106.62 1798.57,-107.36 1790.77,-100.19 1788,-106.62"/>
</a>
</g>
</g>
<!-- Node12 -->
<g id="Node000012" class="node">
<title>Node12</title>
<g id="a_Node000012"><a xlink:href="classGameController.html#a637ea4e72ed2be4a2884b30160b3e8ab" target="_top" xlink:title="Pauses the game and displays pause screen.">
<polygon fill="white" stroke="#666666" points="863,-88.49 705,-88.49 705,-69.49 863,-69.49 863,-88.49"/>
<text text-anchor="middle" x="784" y="-76.49" font-family="Helvetica,sans-Serif" font-size="10.00">GameController::pauseGame</text>
</a>
</g>
</g>
<!-- Node1&#45;&gt;Node12 -->
<g id="edge19_Node000001_Node000012" class="edge">
<title>Node1&#45;&gt;Node12</title>
<g id="a_edge19_Node000001_Node000012"><a xlink:title=" ">
<path fill="none" stroke="#63b8ff" d="M1751,-106.8C1669.3,-95.55 1528.51,-78.99 1407,-78.99 1407,-78.99 1407,-78.99 1181.5,-78.99 1071.02,-78.99 943.22,-78.99 863.24,-78.99"/>
<polygon fill="#63b8ff" stroke="#63b8ff" points="1750.52,-110.27 1760.91,-108.18 1751.49,-103.34 1750.52,-110.27"/>
</a>
</g>
</g>
<!-- Node13 -->
<g id="Node000013" class="node">
<title>Node13</title>
<g id="a_Node000013"><a xlink:href="classConsoleRenderer.html#ab34fa7af4ede79de3951f1d5271d7a27" target="_top" xlink:title="Renders the game world to console.">
<polygon fill="white" stroke="#666666" points="1474.5,-288.49 1337.5,-288.49 1337.5,-269.49 1474.5,-269.49 1474.5,-288.49"/>
<text text-anchor="middle" x="1406" y="-276.49" font-family="Helvetica,sans-Serif" font-size="10.00">ConsoleRenderer::render</text>
</a>
</g>
</g>
<!-- Node1&#45;&gt;Node13 -->
<g id="edge22_Node000001_Node000013" class="edge">
<title>Node1&#45;&gt;Node13</title>
<g id="a_edge22_Node000001_Node000013"><a xlink:title=" ">
<path fill="none" stroke="#63b8ff" d="M1812.68,-136.23C1800.5,-167.36 1771.81,-228.02 1725,-254.99 1643.21,-302.13 1529.31,-297.13 1462.35,-288.53"/>
<polygon fill="#63b8ff" stroke="#63b8ff" points="1816.07,-137.14 1816.3,-126.55 1809.51,-134.69 1816.07,-137.14"/>
</a>
</g>
</g>
<!-- Node2&#45;&gt;Node3 -->
<g id="edge2_Node000002_Node000003" class="edge">
<title>Node2&#45;&gt;Node3</title>
<g id="a_edge2_Node000002_Node000003"><a xlink:title=" ">
<path fill="none" stroke="#63b8ff" d="M1523.85,-154.99C1515.25,-154.99 1506.59,-154.99 1498.1,-154.99"/>
<polygon fill="#63b8ff" stroke="#63b8ff" points="1523.92,-158.49 1533.92,-154.99 1523.92,-151.49 1523.92,-158.49"/>
</a>
</g>
</g>
<!-- Node4 -->
<g id="Node000004" class="node">
<title>Node4</title>
<g id="a_Node000004"><a xlink:href="classGameController.html#a4086fc466d91f45c41b2bc5df06af77a" target="_top" xlink:title="Loads the next game level.">
<polygon fill="white" stroke="#666666" points="1047,-212.99 903,-212.99 903,-182.99 1047,-182.99 1047,-212.99"/>
<text text-anchor="start" x="911" y="-200.99" font-family="Helvetica,sans-Serif" font-size="10.00">GameController::loadNext</text>
<text text-anchor="middle" x="975" y="-189.99" font-family="Helvetica,sans-Serif" font-size="10.00">Level</text>
</a>
</g>
</g>
<!-- Node3&#45;&gt;Node4 -->
<g id="edge3_Node000003_Node000004" class="edge">
<title>Node3&#45;&gt;Node4</title>
<g id="a_edge3_Node000003_Node000004"><a xlink:title=" ">
<path fill="none" stroke="#63b8ff" d="M1336.87,-166.07C1317.85,-168.93 1297.15,-171.8 1278,-173.99 1199.23,-183.01 1108.5,-189.73 1047.22,-193.73"/>
<polygon fill="#63b8ff" stroke="#63b8ff" points="1337.58,-169.51 1346.95,-164.54 1336.53,-162.59 1337.58,-169.51"/>
</a>
</g>
</g>
<!-- Node9 -->
<g id="Node000009" class="node">
<title>Node9</title>
<g id="a_Node000009"><a xlink:href="classGameController.html#a4a9c94fe33cf6c73bb5dfc415d04d309" target="_top" xlink:title="Displays map selection screen.">
<polygon fill="white" stroke="#666666" points="1278,-164.49 1087,-164.49 1087,-145.49 1278,-145.49 1278,-164.49"/>
<text text-anchor="middle" x="1182.5" y="-152.49" font-family="Helvetica,sans-Serif" font-size="10.00">GameController::showMapSelection</text>
</a>
</g>
</g>
<!-- Node3&#45;&gt;Node9 -->
<g id="edge8_Node000003_Node000009" class="edge">
<title>Node3&#45;&gt;Node9</title>
<g id="a_edge8_Node000003_Node000009"><a xlink:title=" ">
<path fill="none" stroke="#63b8ff" d="M1303.92,-154.99C1295.34,-154.99 1286.68,-154.99 1278.14,-154.99"/>
<polygon fill="#63b8ff" stroke="#63b8ff" points="1303.95,-158.49 1313.95,-154.99 1303.95,-151.49 1303.95,-158.49"/>
</a>
</g>
</g>
<!-- Node4&#45;&gt;Node5 -->
<g id="edge4_Node000004_Node000005" class="edge">
<title>Node4&#45;&gt;Node5</title>
<g id="a_edge4_Node000004_Node000005"><a xlink:title=" ">
<path fill="none" stroke="#63b8ff" d="M892.85,-214.31C881.91,-216.51 870.73,-218.76 859.9,-220.94"/>
<polygon fill="#63b8ff" stroke="#63b8ff" points="893.7,-217.71 902.82,-212.31 892.32,-210.85 893.7,-217.71"/>
</a>
</g>
</g>
<!-- Node5&#45;&gt;Node6 -->
<g id="edge5_Node000005_Node000006" class="edge">
<title>Node5&#45;&gt;Node6</title>
<g id="a_edge5_Node000005_Node000006"><a xlink:title=" ">
<path fill="none" stroke="#63b8ff" d="M697.57,-219.92C609.69,-203.39 475.72,-178.18 403.27,-164.55"/>
<polygon fill="#63b8ff" stroke="#63b8ff" points="697.05,-223.38 707.52,-221.79 698.34,-216.5 697.05,-223.38"/>
</a>
</g>
</g>
<!-- Node7 -->
<g id="Node000007" class="node">
<title>Node7</title>
<g id="a_Node000007"><a xlink:href="classGameController.html#ac958989c8f7f08488546930e5fcb0d82" target="_top" xlink:title="Starts and runs the main game loop.">
<polygon fill="white" stroke="#666666" points="222,-183.49 77,-183.49 77,-164.49 222,-164.49 222,-183.49"/>
<text text-anchor="middle" x="149.5" y="-171.49" font-family="Helvetica,sans-Serif" font-size="10.00">GameController::runGame</text>
</a>
</g>
</g>
<!-- Node6&#45;&gt;Node7 -->
<g id="edge6_Node000006_Node000007" class="edge">
<title>Node6&#45;&gt;Node7</title>
<g id="a_edge6_Node000006_Node000007"><a xlink:title=" ">
<path fill="none" stroke="#63b8ff" d="M247.71,-164.76C239.1,-165.58 230.52,-166.39 222.22,-167.18"/>
<polygon fill="#63b8ff" stroke="#63b8ff" points="248.19,-168.23 257.82,-163.8 247.53,-161.26 248.19,-168.23"/>
</a>
</g>
</g>
<!-- Node8 -->
<g id="Node000008" class="node">
<title>Node8</title>
<g id="a_Node000008"><a xlink:href="main_8cpp.html#ae66f6b31b5ad750f1fe042a706a4e3d4" target="_top" xlink:title="Main function that serves as the application entry point.">
<polygon fill="white" stroke="#666666" points="41,-183.49 0,-183.49 0,-164.49 41,-164.49 41,-183.49"/>
<text text-anchor="middle" x="20.5" y="-171.49" font-family="Helvetica,sans-Serif" font-size="10.00">main</text>
</a>
</g>
</g>
<!-- Node7&#45;&gt;Node8 -->
<g id="edge7_Node000007_Node000008" class="edge">
<title>Node7&#45;&gt;Node8</title>
<g id="a_edge7_Node000007_Node000008"><a xlink:title=" ">
<path fill="none" stroke="#63b8ff" d="M66.79,-173.99C57.31,-173.99 48.43,-173.99 41.08,-173.99"/>
<polygon fill="#63b8ff" stroke="#63b8ff" points="66.83,-177.49 76.83,-173.99 66.83,-170.49 66.83,-177.49"/>
</a>
</g>
</g>
<!-- Node9&#45;&gt;Node10 -->
<g id="edge9_Node000009_Node000010" class="edge">
<title>Node9&#45;&gt;Node10</title>
<g id="a_edge9_Node000009_Node000010"><a xlink:title=" ">
<path fill="none" stroke="#63b8ff" d="M1114.96,-143.94C1094.5,-140.91 1071.87,-137.93 1051,-135.99 918.69,-123.75 764.93,-119.39 669.03,-117.84"/>
<polygon fill="#63b8ff" stroke="#63b8ff" points="1114.72,-147.44 1125.13,-145.47 1115.76,-140.52 1114.72,-147.44"/>
</a>
</g>
</g>
<!-- Node11 -->
<g id="Node000011" class="node">
<title>Node11</title>
<g id="a_Node000011"><a xlink:href="classGameController.html#a9d11b5a6255b7249bddba49df0837cf3" target="_top" xlink:title="Displays and manages the main menu.">
<polygon fill="white" stroke="#666666" points="1051,-164.49 899,-164.49 899,-145.49 1051,-145.49 1051,-164.49"/>
<text text-anchor="middle" x="975" y="-152.49" font-family="Helvetica,sans-Serif" font-size="10.00">GameController::showMenu</text>
</a>
</g>
</g>
<!-- Node9&#45;&gt;Node11 -->
<g id="edge11_Node000009_Node000011" class="edge">
<title>Node9&#45;&gt;Node11</title>
<g id="a_edge11_Node000009_Node000011"><a xlink:title=" ">
<path fill="none" stroke="#63b8ff" d="M1076.72,-148.25C1068.06,-148.26 1059.43,-148.33 1051.06,-148.47"/>
<polygon fill="#63b8ff" stroke="#63b8ff" points="1076.86,-151.75 1086.87,-148.26 1076.88,-144.75 1076.86,-151.75"/>
</a>
</g>
</g>
<!-- Node10&#45;&gt;Node6 -->
<g id="edge10_Node000010_Node000006" class="edge">
<title>Node10&#45;&gt;Node6</title>
<g id="a_edge10_Node000010_Node000006"><a xlink:title=" ">
<path fill="none" stroke="#63b8ff" d="M508.27,-128.27C476.41,-133.74 438.55,-140.23 408.13,-145.45"/>
<polygon fill="#63b8ff" stroke="#63b8ff" points="509.13,-131.68 518.39,-126.53 507.94,-124.78 509.13,-131.68"/>
</a>
</g>
</g>
<!-- Node11&#45;&gt;Node5 -->
<g id="edge16_Node000011_Node000005" class="edge">
<title>Node11&#45;&gt;Node5</title>
<g id="a_edge16_Node000011_Node000005"><a xlink:title=" ">
<path fill="none" stroke="#63b8ff" d="M912.54,-167.85C907.85,-169.65 903.28,-171.68 899,-173.99 879.9,-184.31 881.52,-195.67 863,-206.99 854.25,-212.35 844.35,-216.96 834.62,-220.84"/>
<polygon fill="#63b8ff" stroke="#63b8ff" points="913.98,-171.06 922.3,-164.5 911.7,-164.44 913.98,-171.06"/>
</a>
</g>
</g>
<!-- Node11&#45;&gt;Node7 -->
<g id="edge15_Node000011_Node000007" class="edge">
<title>Node11&#45;&gt;Node7</title>
<g id="a_edge15_Node000011_Node000007"><a xlink:title=" ">
<path fill="none" stroke="#63b8ff" d="M888.5,-159.01C783.93,-163.7 601.51,-171.19 445,-173.99 368.96,-175.36 281.86,-175.14 222.22,-174.71"/>
<polygon fill="#63b8ff" stroke="#63b8ff" points="888.85,-162.5 898.69,-158.55 888.54,-155.51 888.85,-162.5"/>
</a>
</g>
</g>
<!-- Node11&#45;&gt;Node9 -->
<g id="edge17_Node000011_Node000009" class="edge">
<title>Node11&#45;&gt;Node9</title>
<g id="a_edge17_Node000011_Node000009"><a xlink:title=" ">
<path fill="none" stroke="#63b8ff" d="M1061.27,-161.66C1069.72,-161.74 1078.33,-161.77 1086.87,-161.73"/>
<polygon fill="#63b8ff" stroke="#63b8ff" points="1061.1,-158.15 1051.06,-161.52 1061.01,-165.15 1061.1,-158.15"/>
</a>
</g>
</g>
<!-- Node11&#45;&gt;Node10 -->
<g id="edge14_Node000011_Node000010" class="edge">
<title>Node11&#45;&gt;Node10</title>
<g id="a_edge14_Node000011_Node000010"><a xlink:title=" ">
<path fill="none" stroke="#63b8ff" d="M888.86,-147.82C835.93,-143.25 766.48,-137.07 705,-130.99 690.99,-129.61 676.13,-128.07 661.67,-126.52"/>
<polygon fill="#63b8ff" stroke="#63b8ff" points="888.62,-151.31 898.88,-148.68 889.22,-144.34 888.62,-151.31"/>
</a>
</g>
</g>
<!-- Node11&#45;&gt;Node12 -->
<g id="edge12_Node000011_Node000012" class="edge">
<title>Node11&#45;&gt;Node12</title>
<g id="a_edge12_Node000011_Node000012"><a xlink:title=" ">
<path fill="none" stroke="#63b8ff" d="M940.5,-141.52C902.65,-126.3 842.01,-101.92 808.74,-88.54"/>
<polygon fill="#63b8ff" stroke="#63b8ff" points="939.48,-144.89 950.06,-145.37 942.09,-138.39 939.48,-144.89"/>
</a>
</g>
</g>
<!-- Node12&#45;&gt;Node10 -->
<g id="edge13_Node000012_Node000010" class="edge">
<title>Node12&#45;&gt;Node10</title>
<g id="a_edge13_Node000012_Node000010"><a xlink:title=" ">
<path fill="none" stroke="#63b8ff" d="M721.19,-90.34C691.49,-95.79 656.29,-102.26 627.99,-107.45"/>
<polygon fill="#63b8ff" stroke="#63b8ff" points="721.83,-93.78 731.03,-88.53 720.56,-86.9 721.83,-93.78"/>
</a>
</g>
</g>
<!-- Node13&#45;&gt;Node6 -->
<g id="edge23_Node000013_Node000006" class="edge">
<title>Node13&#45;&gt;Node6</title>
<g id="a_edge23_Node000013_Node000006"><a xlink:title=" ">
<path fill="none" stroke="#63b8ff" d="M1327.19,-278.99C1241.24,-278.99 1098.74,-278.99 976,-278.99 976,-278.99 976,-278.99 783,-278.99 617.72,-278.99 430.2,-193.56 371.25,-164.52"/>
<polygon fill="#63b8ff" stroke="#63b8ff" points="1327.38,-282.49 1337.38,-278.99 1327.38,-275.49 1327.38,-282.49"/>
</a>
</g>
</g>
</g>
</svg>

<g id="navigator" transform="translate(0 0)" fill="#404254">
  <rect fill="#f2f5e9" fill-opacity="0.5" stroke="#606060" stroke-width=".5" x="0" y="0" width="60" height="60"/>
  <use id="zoomplus" xlink:href="#zoomPlus" x="17" y="9" onmousedown="handleZoom(evt,'in')"/>
  <use id="zoomminus" xlink:href="#zoomMin" x="42" y="9" onmousedown="handleZoom(evt,'out')"/>
  <use id="reset" xlink:href="#resetDef" x="30" y="36" onmousedown="handleReset()"/>
   <use id="arrowup" xlink:href="#arrowUp" x="0" y="0" onmousedown="handlePan(0,-1)"/>
  <use id="arrowright" xlink:href="#arrowRight" x="0" y="0" onmousedown="handlePan(1,0)"/>
  <use id="arrowdown" xlink:href="#arrowDown" x="0" y="0" onmousedown="handlePan(0,1)"/>
  <use id="arrowleft" xlink:href="#arrowLeft" x="0" y="0" onmousedown="handlePan(-1,0)"/>
</g>
<svg viewBox="0 0 15 15" width="100%" height="30px" preserveAspectRatio="xMaxYMin meet">
 <g id="arrow_out" transform="scale(0.3 0.3)">
  <a xlink:href="classPlayerTank_ac650158a9f0f60fb07a410fca2cee03f_icgraph_org.svg" target="_base">
   <rect id="button" ry="5" rx="5" y="6" x="6" height="38" width="38"
        fill="#f2f5e9" fill-opacity="0.5" stroke="#606060" stroke-width="1.0"/>
   <path id="arrow"
     d="M 11.500037,31.436501 C 11.940474,20.09759 22.043105,11.32322 32.158766,21.979434 L 37.068811,17.246167 C 37.068811,17.246167 37.088388,32 37.088388,32 L 22.160133,31.978069 C 22.160133,31.978069 26.997745,27.140456 26.997745,27.140456 C 18.528582,18.264221 13.291696,25.230495 11.500037,31.436501 z"
     style="fill:#404040;"/>
  </a>
 </g>
</svg>

<style type='text/css'>
<![CDATA[
[data-mouse-over-selected='false'] { opacity: 0.7; }
[data-mouse-over-selected='true']  { opacity: 1.0; }
]]>
</style>
<script type="application/ecmascript"><![CDATA[
document.addEventListener('DOMContentLoaded', (event) => {
  highlightEdges();
  highlightAdjacentNodes();
});
]]></script>
</svg>
