<?xml version="1.0" encoding="UTF-8" standalone="no"?>
<!DOCTYPE svg PUBLIC "-//W3C//DTD SVG 1.1//EN"
 "http://www.w3.org/Graphics/SVG/1.1/DTD/svg11.dtd">
<!-- Generated by graphviz version 2.43.0 (0)
 -->
<!-- Title: GameWorld::handleProjectileHit Pages: 1 -->
<!--zoomable 374 -->

<svg id="main" version="1.1" xmlns="http://www.w3.org/2000/svg" xmlns:xlink="http://www.w3.org/1999/xlink" xml:space="preserve" onload="init(evt)">
<style type="text/css"><![CDATA[
.node, .edge {opacity: 0.7;}
.node.selected, .edge.selected {opacity: 1;}
.edge:hover path { stroke: red; }
.edge:hover polygon { stroke: red; fill: red; }
]]></style>

<defs>
  <circle id="rim" cx="0" cy="0" r="7"/>
  <circle id="rim2" cx="0" cy="0" r="3.5"/>
  <g id="zoomPlus">
    <use xlink:href="#rim" fill="#404040"><set attributeName="fill" to="#808080" begin="zoomplus.mouseover" end="zoomplus.mouseout"/></use>
    <path d="M-4,0h8M0,-4v8" fill="none" stroke="white" stroke-width="1.5" pointer-events="none"/>
  </g>
  <g id="zoomMin">
    <use xlink:href="#rim" fill="#404040"><set attributeName="fill" to="#808080" begin="zoomminus.mouseover" end="zoomminus.mouseout"/></use>
    <path d="M-4,0h8" fill="none" stroke="white" stroke-width="1.5" pointer-events="none"/>
  </g>
  <g id="arrowUp" transform="translate(30 24)">
    <use xlink:href="#rim"/>
    <path pointer-events="none" fill="none" stroke="white" stroke-width="1.5" d="M0,-3.0v7 M-2.5,-0.5L0,-3.0L2.5,-0.5"/>
  </g>
  <g id="arrowRight" transform="rotate(90) translate(36 -43)">
    <use xlink:href="#rim"/>
    <path pointer-events="none" fill="none" stroke="white" stroke-width="1.5" d="M0,-3.0v7 M-2.5,-0.5L0,-3.0L2.5,-0.5"/>
  </g>
  <g id="arrowDown" transform="rotate(180) translate(-30 -48)">
    <use xlink:href="#rim"/>
    <path pointer-events="none" fill="none" stroke="white" stroke-width="1.5" d="M0,-3.0v7 M-2.5,-0.5L0,-3.0L2.5,-0.5"/>
  </g>
  <g id="arrowLeft" transform="rotate(270) translate(-36 17)">
    <use xlink:href="#rim"/>
    <path pointer-events="none" fill="none" stroke="white" stroke-width="1.5" d="M0,-3.0v7 M-2.5,-0.5L0,-3.0L2.5,-0.5"/>
  </g>
  <g id="resetDef">
    <use xlink:href="#rim2" fill="#404040"><set attributeName="fill" to="#808080" begin="reset.mouseover" end="reset.mouseout"/></use>
  </g>
</defs>
<script type="application/ecmascript">
var viewWidth = 561;
var viewHeight = 374;
var sectionId = 'dynsection-34';
</script>
<script type="application/ecmascript" xlink:href="svg.min.js"/>
<svg id="graph" class="graph">
<g id="viewport">
<title>GameWorld::handleProjectileHit</title>
<!-- Node1 -->
<g id="Node000001" class="node">
<title>Node1</title>
<g id="a_Node000001"><a xlink:title="Handles projectile hit.">
<polygon fill="#999999" stroke="#666666" points="173,-197.5 0,-197.5 0,-178.5 173,-178.5 173,-197.5"/>
<text text-anchor="middle" x="86.5" y="-185.5" font-family="Helvetica,sans-Serif" font-size="10.00">GameWorld::handleProjectileHit</text>
</a>
</g>
</g>
<!-- Node2 -->
<g id="Node000002" class="node">
<title>Node2</title>
<g id="a_Node000002"><a xlink:href="classPlayerTank.html#a34ecaf7829cc7b3e4965afa9ef6c25f0" target="_top" xlink:title="Adds points to player&#39;s score.">
<polygon fill="white" stroke="#666666" points="350.5,-365.5 229.5,-365.5 229.5,-346.5 350.5,-346.5 350.5,-365.5"/>
<text text-anchor="middle" x="290" y="-353.5" font-family="Helvetica,sans-Serif" font-size="10.00">PlayerTank::addScore</text>
</a>
</g>
</g>
<!-- Node1&#45;&gt;Node2 -->
<g id="edge1_Node000001_Node000002" class="edge">
<title>Node1&#45;&gt;Node2</title>
<g id="a_edge1_Node000001_Node000002"><a xlink:title=" ">
<path fill="none" stroke="#63b8ff" d="M92.27,-197.58C106.17,-224.46 149.5,-301.05 209,-338 212.37,-340.09 215.96,-341.95 219.68,-343.58"/>
<polygon fill="#63b8ff" stroke="#63b8ff" points="218.54,-346.89 229.13,-347.23 221.05,-340.36 218.54,-346.89"/>
</a>
</g>
</g>
<!-- Node3 -->
<g id="Node000003" class="node">
<title>Node3</title>
<g id="a_Node000003"><a xlink:href="classProjectile.html#aef8adfaa81fbbb3794bcf9eb2dfb2d44" target="_top" xlink:title="Gets the owner tank of this projectile.">
<polygon fill="white" stroke="#666666" points="348,-328.5 232,-328.5 232,-309.5 348,-309.5 348,-328.5"/>
<text text-anchor="middle" x="290" y="-316.5" font-family="Helvetica,sans-Serif" font-size="10.00">Projectile::getOwner</text>
</a>
</g>
</g>
<!-- Node1&#45;&gt;Node3 -->
<g id="edge2_Node000001_Node000003" class="edge">
<title>Node1&#45;&gt;Node3</title>
<g id="a_edge2_Node000001_Node000003"><a xlink:title=" ">
<path fill="none" stroke="#63b8ff" d="M94.82,-197.67C112.09,-219.73 157.78,-273.99 209,-301 213.19,-303.21 217.64,-305.15 222.21,-306.85"/>
<polygon fill="#63b8ff" stroke="#63b8ff" points="221.13,-310.18 231.72,-310.02 223.34,-303.53 221.13,-310.18"/>
</a>
</g>
</g>
<!-- Node4 -->
<g id="Node000004" class="node">
<title>Node4</title>
<g id="a_Node000004"><a xlink:href="classGameObject.html#aa4dd19d6b0ea5701d860b64b08435ae6" target="_top" xlink:title="Gets current position of the object.">
<polygon fill="white" stroke="#666666" points="359,-291.5 221,-291.5 221,-272.5 359,-272.5 359,-291.5"/>
<text text-anchor="middle" x="290" y="-279.5" font-family="Helvetica,sans-Serif" font-size="10.00">GameObject::getPosition</text>
</a>
</g>
</g>
<!-- Node1&#45;&gt;Node4 -->
<g id="edge3_Node000001_Node000004" class="edge">
<title>Node1&#45;&gt;Node4</title>
<g id="a_edge3_Node000001_Node000004"><a xlink:title=" ">
<path fill="none" stroke="#63b8ff" d="M99.84,-197.73C120.97,-213.91 165.97,-246.31 209,-264 214.1,-266.1 219.49,-267.97 224.97,-269.65"/>
<polygon fill="#63b8ff" stroke="#63b8ff" points="224.29,-273.09 234.87,-272.44 226.19,-266.35 224.29,-273.09"/>
</a>
</g>
</g>
<!-- Node5 -->
<g id="Node000005" class="node">
<title>Node5</title>
<g id="a_Node000005"><a xlink:href="classEnemyTank.html#a7449d102bbca6b351322b72f8b079f72" target="_top" xlink:title="Gets the type of enemy tank.">
<polygon fill="white" stroke="#666666" points="360,-254.5 220,-254.5 220,-235.5 360,-235.5 360,-254.5"/>
<text text-anchor="middle" x="290" y="-242.5" font-family="Helvetica,sans-Serif" font-size="10.00">EnemyTank::getTankType</text>
</a>
</g>
</g>
<!-- Node1&#45;&gt;Node5 -->
<g id="edge4_Node000001_Node000005" class="edge">
<title>Node1&#45;&gt;Node5</title>
<g id="a_edge4_Node000001_Node000005"><a xlink:title=" ">
<path fill="none" stroke="#63b8ff" d="M121.23,-197.54C155.23,-207.16 207.86,-222.05 245.1,-232.58"/>
<polygon fill="#63b8ff" stroke="#63b8ff" points="244.59,-236.07 255.16,-235.43 246.49,-229.34 244.59,-236.07"/>
</a>
</g>
</g>
<!-- Node6 -->
<g id="Node000006" class="node">
<title>Node6</title>
<g id="a_Node000006"><a xlink:href="classGameObject.html#a51ac0947e5c628f04657cafecc9fe36b" target="_top" xlink:title="Checks if object is destroyed.">
<polygon fill="white" stroke="#666666" points="551,-160.5 409,-160.5 409,-141.5 551,-141.5 551,-160.5"/>
<text text-anchor="middle" x="480" y="-148.5" font-family="Helvetica,sans-Serif" font-size="10.00">GameObject::isDestroyed</text>
</a>
</g>
</g>
<!-- Node1&#45;&gt;Node6 -->
<g id="edge5_Node000001_Node000006" class="edge">
<title>Node1&#45;&gt;Node6</title>
<g id="a_edge5_Node000001_Node000006"><a xlink:title=" ">
<path fill="none" stroke="#63b8ff" d="M173.08,-195.28C229.65,-198.31 305.21,-198.96 371,-188 398,-183.5 427.31,-173.09 448.57,-164.45"/>
<polygon fill="#63b8ff" stroke="#63b8ff" points="450.14,-167.59 458.02,-160.51 447.45,-161.12 450.14,-167.59"/>
</a>
</g>
</g>
<!-- Node7 -->
<g id="Node000007" class="node">
<title>Node7</title>
<g id="a_Node000007"><a xlink:href="classObstacle.html#ac5dc75c2d5f77f598a1fe8d42699e3f9" target="_top" xlink:title="Checks if obstacle is destructible.">
<polygon fill="white" stroke="#666666" points="356.5,-178.5 223.5,-178.5 223.5,-159.5 356.5,-159.5 356.5,-178.5"/>
<text text-anchor="middle" x="290" y="-166.5" font-family="Helvetica,sans-Serif" font-size="10.00">Obstacle::isDestructible</text>
</a>
</g>
</g>
<!-- Node1&#45;&gt;Node7 -->
<g id="edge6_Node000001_Node000007" class="edge">
<title>Node1&#45;&gt;Node7</title>
<g id="a_edge6_Node000001_Node000007"><a xlink:title=" ">
<path fill="none" stroke="#63b8ff" d="M173.25,-179.91C186.52,-178.66 200.14,-177.38 213.17,-176.15"/>
<polygon fill="#63b8ff" stroke="#63b8ff" points="213.85,-179.6 223.48,-175.18 213.19,-172.63 213.85,-179.6"/>
</a>
</g>
</g>
<!-- Node8 -->
<g id="Node000008" class="node">
<title>Node8</title>
<g id="a_Node000008"><a xlink:href="classObstacle.html#aaa4db983792ece6cd734c170d9a68e36" target="_top" xlink:title="Checks if obstacle is passable for projectiles.">
<polygon fill="white" stroke="#666666" points="371,-141.5 209,-141.5 209,-122.5 371,-122.5 371,-141.5"/>
<text text-anchor="middle" x="290" y="-129.5" font-family="Helvetica,sans-Serif" font-size="10.00">Obstacle::isProjectilePassable</text>
</a>
</g>
</g>
<!-- Node1&#45;&gt;Node8 -->
<g id="edge7_Node000001_Node000008" class="edge">
<title>Node1&#45;&gt;Node8</title>
<g id="a_edge7_Node000001_Node000008"><a xlink:title=" ">
<path fill="none" stroke="#63b8ff" d="M117.31,-178.35C141.81,-170.56 177.5,-159.53 209,-151 217.9,-148.59 227.41,-146.18 236.65,-143.94"/>
<polygon fill="#63b8ff" stroke="#63b8ff" points="237.62,-147.3 246.53,-141.57 235.99,-140.5 237.62,-147.3"/>
</a>
</g>
</g>
<!-- Node9 -->
<g id="Node000009" class="node">
<title>Node9</title>
<g id="a_Node000009"><a xlink:href="classObstacle.html#a0167f367446272ac93f006af1403fa2c" target="_top" xlink:title="Applies damage to the obstacle.">
<polygon fill="white" stroke="#666666" points="354,-104.5 226,-104.5 226,-85.5 354,-85.5 354,-104.5"/>
<text text-anchor="middle" x="290" y="-92.5" font-family="Helvetica,sans-Serif" font-size="10.00">Obstacle::takeDamage</text>
</a>
</g>
</g>
<!-- Node1&#45;&gt;Node9 -->
<g id="edge8_Node000001_Node000009" class="edge">
<title>Node1&#45;&gt;Node9</title>
<g id="a_edge8_Node000001_Node000009"><a xlink:title=" ">
<path fill="none" stroke="#63b8ff" d="M100.25,-178.35C121.63,-162.62 166.51,-131.47 209,-114 215.12,-111.48 221.65,-109.25 228.23,-107.29"/>
<polygon fill="#63b8ff" stroke="#63b8ff" points="229.19,-110.66 237.89,-104.61 227.31,-103.92 229.19,-110.66"/>
</a>
</g>
</g>
<!-- Node10 -->
<g id="Node000010" class="node">
<title>Node10</title>
<g id="a_Node000010"><a xlink:href="classTank.html#a694c752906e013192e6420bc31b01dd6" target="_top" xlink:title="Applies damage to tank, considering shield.">
<polygon fill="white" stroke="#666666" points="343.5,-67.5 236.5,-67.5 236.5,-48.5 343.5,-48.5 343.5,-67.5"/>
<text text-anchor="middle" x="290" y="-55.5" font-family="Helvetica,sans-Serif" font-size="10.00">Tank::takeDamage</text>
</a>
</g>
</g>
<!-- Node1&#45;&gt;Node10 -->
<g id="edge10_Node000001_Node000010" class="edge">
<title>Node1&#45;&gt;Node10</title>
<g id="a_edge10_Node000001_Node000010"><a xlink:title=" ">
<path fill="none" stroke="#63b8ff" d="M94.84,-178.42C112.16,-156.55 157.93,-102.78 209,-76 214.54,-73.09 220.54,-70.65 226.68,-68.61"/>
<polygon fill="#63b8ff" stroke="#63b8ff" points="227.81,-71.92 236.38,-65.7 225.8,-65.22 227.81,-71.92"/>
</a>
</g>
</g>
<!-- Node12 -->
<g id="Node000012" class="node">
<title>Node12</title>
<g id="a_Node000012"><a xlink:href="classGameWorld.html#aaab2806ac3f2f439dd4bf0fc2299d402" target="_top" xlink:title="Triggers damage flash effect.">
<polygon fill="white" stroke="#666666" points="366.5,-30 213.5,-30 213.5,0 366.5,0 366.5,-30"/>
<text text-anchor="start" x="221.5" y="-18" font-family="Helvetica,sans-Serif" font-size="10.00">GameWorld::triggerDamage</text>
<text text-anchor="middle" x="290" y="-7" font-family="Helvetica,sans-Serif" font-size="10.00">Flash</text>
</a>
</g>
</g>
<!-- Node1&#45;&gt;Node12 -->
<g id="edge12_Node000001_Node000012" class="edge">
<title>Node1&#45;&gt;Node12</title>
<g id="a_edge12_Node000001_Node000012"><a xlink:title=" ">
<path fill="none" stroke="#63b8ff" d="M92.62,-178.32C107.14,-151.83 151.28,-77.57 209,-39 211.43,-37.38 213.97,-35.86 216.6,-34.44"/>
<polygon fill="#63b8ff" stroke="#63b8ff" points="218.3,-37.51 225.78,-30 215.25,-31.2 218.3,-37.51"/>
</a>
</g>
</g>
<!-- Node9&#45;&gt;Node6 -->
<g id="edge9_Node000009_Node000006" class="edge">
<title>Node9&#45;&gt;Node6</title>
<g id="a_edge9_Node000009_Node000006"><a xlink:title=" ">
<path fill="none" stroke="#63b8ff" d="M334.8,-104.59C346.61,-107.4 359.34,-110.63 371,-114 395.65,-121.13 423,-130.52 444.01,-138.05"/>
<polygon fill="#63b8ff" stroke="#63b8ff" points="442.88,-141.36 453.47,-141.47 445.26,-134.78 442.88,-141.36"/>
</a>
</g>
</g>
<!-- Node11 -->
<g id="Node000011" class="node">
<title>Node11</title>
<g id="a_Node000011"><a xlink:href="classGameObject.html#a801c8cf8e8e188ec698364327f977ecf" target="_top" xlink:title="Applies damage to the object.">
<polygon fill="white" stroke="#666666" points="553,-67.5 407,-67.5 407,-48.5 553,-48.5 553,-67.5"/>
<text text-anchor="middle" x="480" y="-55.5" font-family="Helvetica,sans-Serif" font-size="10.00">GameObject::takeDamage</text>
</a>
</g>
</g>
<!-- Node10&#45;&gt;Node11 -->
<g id="edge11_Node000010_Node000011" class="edge">
<title>Node10&#45;&gt;Node11</title>
<g id="a_edge11_Node000010_Node000011"><a xlink:title=" ">
<path fill="none" stroke="#63b8ff" d="M343.62,-58C360.04,-58 378.57,-58 396.52,-58"/>
<polygon fill="#63b8ff" stroke="#63b8ff" points="396.72,-61.5 406.72,-58 396.72,-54.5 396.72,-61.5"/>
</a>
</g>
</g>
</g>
</svg>

<g id="navigator" transform="translate(0 0)" fill="#404254">
  <rect fill="#f2f5e9" fill-opacity="0.5" stroke="#606060" stroke-width=".5" x="0" y="0" width="60" height="60"/>
  <use id="zoomplus" xlink:href="#zoomPlus" x="17" y="9" onmousedown="handleZoom(evt,'in')"/>
  <use id="zoomminus" xlink:href="#zoomMin" x="42" y="9" onmousedown="handleZoom(evt,'out')"/>
  <use id="reset" xlink:href="#resetDef" x="30" y="36" onmousedown="handleReset()"/>
   <use id="arrowup" xlink:href="#arrowUp" x="0" y="0" onmousedown="handlePan(0,-1)"/>
  <use id="arrowright" xlink:href="#arrowRight" x="0" y="0" onmousedown="handlePan(1,0)"/>
  <use id="arrowdown" xlink:href="#arrowDown" x="0" y="0" onmousedown="handlePan(0,1)"/>
  <use id="arrowleft" xlink:href="#arrowLeft" x="0" y="0" onmousedown="handlePan(-1,0)"/>
</g>
<svg viewBox="0 0 15 15" width="100%" height="30px" preserveAspectRatio="xMaxYMin meet">
 <g id="arrow_out" transform="scale(0.3 0.3)">
  <a xlink:href="classGameWorld_a752ef6a0f4c6cdffead1dacd117d8451_cgraph_org.svg" target="_base">
   <rect id="button" ry="5" rx="5" y="6" x="6" height="38" width="38"
        fill="#f2f5e9" fill-opacity="0.5" stroke="#606060" stroke-width="1.0"/>
   <path id="arrow"
     d="M 11.500037,31.436501 C 11.940474,20.09759 22.043105,11.32322 32.158766,21.979434 L 37.068811,17.246167 C 37.068811,17.246167 37.088388,32 37.088388,32 L 22.160133,31.978069 C 22.160133,31.978069 26.997745,27.140456 26.997745,27.140456 C 18.528582,18.264221 13.291696,25.230495 11.500037,31.436501 z"
     style="fill:#404040;"/>
  </a>
 </g>
</svg>

<style type='text/css'>
<![CDATA[
[data-mouse-over-selected='false'] { opacity: 0.7; }
[data-mouse-over-selected='true']  { opacity: 1.0; }
]]>
</style>
<script type="application/ecmascript"><![CDATA[
document.addEventListener('DOMContentLoaded', (event) => {
  highlightEdges();
  highlightAdjacentNodes();
});
]]></script>
</svg>
