<?xml version="1.0" encoding="UTF-8" standalone="no"?>
<!DOCTYPE svg PUBLIC "-//W3C//DTD SVG 1.1//EN"
 "http://www.w3.org/Graphics/SVG/1.1/DTD/svg11.dtd">
<!-- Generated by graphviz version 2.43.0 (0)
 -->
<!-- Title: MapManager::createWorldFromMap Pages: 1 -->
<svg width="597pt" height="789pt"
 viewBox="0.00 0.00 597.00 788.50" xmlns="http://www.w3.org/2000/svg" xmlns:xlink="http://www.w3.org/1999/xlink">
<g id="graph0" class="graph" transform="scale(1 1) rotate(0) translate(4 784.5)">
<title>MapManager::createWorldFromMap</title>
<!-- Node1 -->
<g id="Node000001" class="node">
<title>Node1</title>
<g id="a_Node000001"><a xlink:title="Creates game world from map layout.">
<polygon fill="#999999" stroke="#666666" points="191,-384 0,-384 0,-365 191,-365 191,-384"/>
<text text-anchor="middle" x="95.5" y="-372" font-family="Helvetica,sans-Serif" font-size="10.00">MapManager::createWorldFromMap</text>
</a>
</g>
</g>
<!-- Node2 -->
<g id="Node000002" class="node">
<title>Node2</title>
<g id="a_Node000002"><a xlink:href="classMapManager.html#ac5bc6102445e84f0d6f8c9adfdb92a4e" target="_top" xlink:title="Calculates adjusted enemy count based on level.">
<polygon fill="white" stroke="#666666" points="407.5,-780.5 234.5,-780.5 234.5,-750.5 407.5,-750.5 407.5,-780.5"/>
<text text-anchor="start" x="242.5" y="-768.5" font-family="Helvetica,sans-Serif" font-size="10.00">MapManager::calculateAdjusted</text>
<text text-anchor="middle" x="321" y="-757.5" font-family="Helvetica,sans-Serif" font-size="10.00">EnemyCount</text>
</a>
</g>
</g>
<!-- Node1&#45;&gt;Node2 -->
<g id="edge1_Node000001_Node000002" class="edge">
<title>Node1&#45;&gt;Node2</title>
<g id="a_edge1_Node000001_Node000002"><a xlink:title=" ">
<path fill="none" stroke="#63b8ff" d="M96.81,-384.19C98.86,-431.3 114.23,-638.35 227,-741.5 228.15,-742.56 229.35,-743.57 230.58,-744.53"/>
<polygon fill="#63b8ff" stroke="#63b8ff" points="228.91,-747.63 239.16,-750.31 232.82,-741.82 228.91,-747.63"/>
</a>
</g>
</g>
<!-- Node3 -->
<g id="Node000003" class="node">
<title>Node3</title>
<g id="a_Node000003"><a xlink:href="classMapManager.html#ae3ea6b46f24eb1bf03fd7837a04d559d" target="_top" xlink:title="Calculates enemy difficulty based on level.">
<polygon fill="white" stroke="#666666" points="403,-732.5 239,-732.5 239,-702.5 403,-702.5 403,-732.5"/>
<text text-anchor="start" x="247" y="-720.5" font-family="Helvetica,sans-Serif" font-size="10.00">MapManager::calculateEnemy</text>
<text text-anchor="middle" x="321" y="-709.5" font-family="Helvetica,sans-Serif" font-size="10.00">Difficulty</text>
</a>
</g>
</g>
<!-- Node1&#45;&gt;Node3 -->
<g id="edge2_Node000001_Node000003" class="edge">
<title>Node1&#45;&gt;Node3</title>
<g id="a_edge2_Node000001_Node000003"><a xlink:title=" ">
<path fill="none" stroke="#63b8ff" d="M97.37,-384.08C101.84,-427.23 126.01,-605.37 227,-693.5 228.34,-694.67 229.73,-695.78 231.16,-696.84"/>
<polygon fill="#63b8ff" stroke="#63b8ff" points="229.47,-699.92 239.79,-702.35 233.24,-694.02 229.47,-699.92"/>
</a>
</g>
</g>
<!-- Node4 -->
<g id="Node000004" class="node">
<title>Node4</title>
<g id="a_Node000004"><a xlink:href="classMapManager.html#ace9dd32160efac15a2b84873861b6f4b" target="_top" xlink:title="Counts enemies in map layout.">
<polygon fill="white" stroke="#666666" points="398.5,-684.5 243.5,-684.5 243.5,-654.5 398.5,-654.5 398.5,-684.5"/>
<text text-anchor="start" x="251.5" y="-672.5" font-family="Helvetica,sans-Serif" font-size="10.00">MapManager::countEnemies</text>
<text text-anchor="middle" x="321" y="-661.5" font-family="Helvetica,sans-Serif" font-size="10.00">InLayout</text>
</a>
</g>
</g>
<!-- Node1&#45;&gt;Node4 -->
<g id="edge3_Node000001_Node000004" class="edge">
<title>Node1&#45;&gt;Node4</title>
<g id="a_edge3_Node000001_Node000004"><a xlink:title=" ">
<path fill="none" stroke="#63b8ff" d="M98.15,-384.21C105.35,-423.52 137.8,-572.28 227,-645.5 229.3,-647.38 231.72,-649.12 234.25,-650.73"/>
<polygon fill="#63b8ff" stroke="#63b8ff" points="232.75,-653.9 243.19,-655.68 236.14,-647.77 232.75,-653.9"/>
</a>
</g>
</g>
<!-- Node5 -->
<g id="Node000005" class="node">
<title>Node5</title>
<g id="a_Node000005"><a xlink:href="classMapManager.html#a3482ed19e5051b3c1f1f64e7d8c05a79" target="_top" xlink:title="Gets AI behavior based on difficulty level.">
<polygon fill="white" stroke="#666666" points="398.5,-636.5 243.5,-636.5 243.5,-606.5 398.5,-606.5 398.5,-636.5"/>
<text text-anchor="start" x="251.5" y="-624.5" font-family="Helvetica,sans-Serif" font-size="10.00">MapManager::getAIBehavior</text>
<text text-anchor="middle" x="321" y="-613.5" font-family="Helvetica,sans-Serif" font-size="10.00">ForDifficulty</text>
</a>
</g>
</g>
<!-- Node1&#45;&gt;Node5 -->
<g id="edge4_Node000001_Node000005" class="edge">
<title>Node1&#45;&gt;Node5</title>
<g id="a_edge4_Node000001_Node000005"><a xlink:title=" ">
<path fill="none" stroke="#63b8ff" d="M99.26,-384.36C109.57,-419.39 149.33,-538.83 227,-597.5 229.23,-599.19 231.57,-600.75 233.99,-602.21"/>
<polygon fill="#63b8ff" stroke="#63b8ff" points="232.6,-605.44 243.07,-607.02 235.88,-599.25 232.6,-605.44"/>
</a>
</g>
</g>
<!-- Node6 -->
<g id="Node000006" class="node">
<title>Node6</title>
<g id="a_Node000006"><a xlink:href="classGameWorld.html#a8ccfe5d146791d20012d963e01262163" target="_top" xlink:title="Gets all active bonuses.">
<polygon fill="white" stroke="#666666" points="389.5,-588 252.5,-588 252.5,-569 389.5,-569 389.5,-588"/>
<text text-anchor="middle" x="321" y="-576" font-family="Helvetica,sans-Serif" font-size="10.00">GameWorld::getBonuses</text>
</a>
</g>
</g>
<!-- Node1&#45;&gt;Node6 -->
<g id="edge5_Node000001_Node000006" class="edge">
<title>Node1&#45;&gt;Node6</title>
<g id="a_edge5_Node000001_Node000006"><a xlink:title=" ">
<path fill="none" stroke="#63b8ff" d="M100.17,-384.17C112.56,-415.46 156.16,-514.59 227,-560.5 231.74,-563.57 236.89,-566.15 242.25,-568.3"/>
<polygon fill="#63b8ff" stroke="#63b8ff" points="241.48,-571.74 252.07,-571.73 243.79,-565.13 241.48,-571.74"/>
</a>
</g>
</g>
<!-- Node7 -->
<g id="Node000007" class="node">
<title>Node7</title>
<g id="a_Node000007"><a xlink:href="classGameWorld.html#ad9ff37f139acbfdc8db505d1d89d7979" target="_top" xlink:title="Gets current level number.">
<polygon fill="white" stroke="#666666" points="400,-551 242,-551 242,-532 400,-532 400,-551"/>
<text text-anchor="middle" x="321" y="-539" font-family="Helvetica,sans-Serif" font-size="10.00">GameWorld::getCurrentLevel</text>
</a>
</g>
</g>
<!-- Node1&#45;&gt;Node7 -->
<g id="edge6_Node000001_Node000007" class="edge">
<title>Node1&#45;&gt;Node7</title>
<g id="a_edge6_Node000001_Node000007"><a xlink:title=" ">
<path fill="none" stroke="#63b8ff" d="M101.78,-384.1C117.14,-411.05 164.68,-487.71 227,-523.5 230.01,-525.23 233.17,-526.8 236.41,-528.22"/>
<polygon fill="#63b8ff" stroke="#63b8ff" points="235.18,-531.5 245.76,-531.84 237.7,-524.97 235.18,-531.5"/>
</a>
</g>
</g>
<!-- Node8 -->
<g id="Node000008" class="node">
<title>Node8</title>
<g id="a_Node000008"><a xlink:href="classGameObject.html#aef9f45389e1ce2fe2260bcfd2c84c16a" target="_top" xlink:title="Gets current health points.">
<polygon fill="white" stroke="#666666" points="386.5,-514 255.5,-514 255.5,-495 386.5,-495 386.5,-514"/>
<text text-anchor="middle" x="321" y="-502" font-family="Helvetica,sans-Serif" font-size="10.00">GameObject::getHealth</text>
</a>
</g>
</g>
<!-- Node1&#45;&gt;Node8 -->
<g id="edge7_Node000001_Node000008" class="edge">
<title>Node1&#45;&gt;Node8</title>
<g id="a_edge7_Node000001_Node000008"><a xlink:title=" ">
<path fill="none" stroke="#63b8ff" d="M104.5,-384.17C123.33,-406.23 172.97,-460.39 227,-486.5 232.73,-489.27 238.86,-491.62 245.13,-493.6"/>
<polygon fill="#63b8ff" stroke="#63b8ff" points="244.49,-497.06 255.06,-496.43 246.4,-490.32 244.49,-497.06"/>
</a>
</g>
</g>
<!-- Node9 -->
<g id="Node000009" class="node">
<title>Node9</title>
<g id="a_Node000009"><a xlink:href="classPlayerTank.html#a8e48786bd674e0a64713a2fd8786fc41" target="_top" xlink:title="Gets number of remaining lives.">
<polygon fill="white" stroke="#666666" points="379.5,-477 262.5,-477 262.5,-458 379.5,-458 379.5,-477"/>
<text text-anchor="middle" x="321" y="-465" font-family="Helvetica,sans-Serif" font-size="10.00">PlayerTank::getLives</text>
</a>
</g>
</g>
<!-- Node1&#45;&gt;Node9 -->
<g id="edge8_Node000001_Node000009" class="edge">
<title>Node1&#45;&gt;Node9</title>
<g id="a_edge8_Node000001_Node000009"><a xlink:title=" ">
<path fill="none" stroke="#63b8ff" d="M109.85,-384.19C132.68,-400.29 181.21,-432.45 227,-449.5 235.06,-452.5 243.71,-455.03 252.38,-457.15"/>
<polygon fill="#63b8ff" stroke="#63b8ff" points="251.6,-460.56 262.13,-459.37 253.16,-453.74 251.6,-460.56"/>
</a>
</g>
</g>
<!-- Node10 -->
<g id="Node000010" class="node">
<title>Node10</title>
<g id="a_Node000010"><a xlink:href="classGameWorld.html#aeb0de8b4054d1ab65b71436966d1a01d" target="_top" xlink:title="Gets all game objects.">
<polygon fill="white" stroke="#666666" points="387,-440 255,-440 255,-421 387,-421 387,-440"/>
<text text-anchor="middle" x="321" y="-428" font-family="Helvetica,sans-Serif" font-size="10.00">GameWorld::getObjects</text>
</a>
</g>
</g>
<!-- Node1&#45;&gt;Node10 -->
<g id="edge9_Node000001_Node000010" class="edge">
<title>Node1&#45;&gt;Node10</title>
<g id="a_edge9_Node000001_Node000010"><a xlink:title=" ">
<path fill="none" stroke="#63b8ff" d="M126.35,-384.04C152.67,-392.25 192.14,-404.07 227,-412.5 236.37,-414.77 246.33,-416.94 256.11,-418.94"/>
<polygon fill="#63b8ff" stroke="#63b8ff" points="255.72,-422.43 266.21,-420.96 257.1,-415.57 255.72,-422.43"/>
</a>
</g>
</g>
<!-- Node11 -->
<g id="Node000011" class="node">
<title>Node11</title>
<g id="a_Node000011"><a xlink:href="classGameWorld.html#af726f3547318b0ebae1bb8713611b0ab" target="_top" xlink:title="Gets pointer to player tank.">
<polygon fill="white" stroke="#666666" points="384,-403 258,-403 258,-384 384,-384 384,-403"/>
<text text-anchor="middle" x="321" y="-391" font-family="Helvetica,sans-Serif" font-size="10.00">GameWorld::getPlayer</text>
</a>
</g>
</g>
<!-- Node1&#45;&gt;Node11 -->
<g id="edge10_Node000001_Node000011" class="edge">
<title>Node1&#45;&gt;Node11</title>
<g id="a_edge10_Node000001_Node000011"><a xlink:title=" ">
<path fill="none" stroke="#63b8ff" d="M191.28,-382.56C210.17,-384.16 229.72,-385.82 247.7,-387.35"/>
<polygon fill="#63b8ff" stroke="#63b8ff" points="247.54,-390.85 257.8,-388.21 248.13,-383.88 247.54,-390.85"/>
</a>
</g>
</g>
<!-- Node12 -->
<g id="Node000012" class="node">
<title>Node12</title>
<g id="a_Node000012"><a xlink:href="classGameObject.html#aa4dd19d6b0ea5701d860b64b08435ae6" target="_top" xlink:title="Gets current position of the object.">
<polygon fill="white" stroke="#666666" points="589,-287 451,-287 451,-268 589,-268 589,-287"/>
<text text-anchor="middle" x="520" y="-275" font-family="Helvetica,sans-Serif" font-size="10.00">GameObject::getPosition</text>
</a>
</g>
</g>
<!-- Node1&#45;&gt;Node12 -->
<g id="edge11_Node000001_Node000012" class="edge">
<title>Node1&#45;&gt;Node12</title>
<g id="a_edge11_Node000001_Node000012"><a xlink:title=" ">
<path fill="none" stroke="#63b8ff" d="M191.29,-372.97C255.77,-369.59 342.25,-360.4 415,-336.5 445.61,-326.44 477.34,-306.89 497.57,-293.05"/>
<polygon fill="#63b8ff" stroke="#63b8ff" points="499.82,-295.75 506.01,-287.15 495.81,-290.01 499.82,-295.75"/>
</a>
</g>
</g>
<!-- Node13 -->
<g id="Node000013" class="node">
<title>Node13</title>
<g id="a_Node000013"><a xlink:href="classGameWorld.html#a7b7eb39217a9ca7e8686781766fa982b" target="_top" xlink:title="Gets all active projectiles.">
<polygon fill="white" stroke="#666666" points="394,-327 248,-327 248,-308 394,-308 394,-327"/>
<text text-anchor="middle" x="321" y="-315" font-family="Helvetica,sans-Serif" font-size="10.00">GameWorld::getProjectiles</text>
</a>
</g>
</g>
<!-- Node1&#45;&gt;Node13 -->
<g id="edge12_Node000001_Node000013" class="edge">
<title>Node1&#45;&gt;Node13</title>
<g id="a_edge12_Node000001_Node000013"><a xlink:title=" ">
<path fill="none" stroke="#63b8ff" d="M133.91,-364.96C172.02,-355.24 231.25,-340.13 272.62,-329.58"/>
<polygon fill="#63b8ff" stroke="#63b8ff" points="273.64,-332.93 282.47,-327.07 271.91,-326.15 273.64,-332.93"/>
</a>
</g>
</g>
<!-- Node14 -->
<g id="Node000014" class="node">
<title>Node14</title>
<g id="a_Node000014"><a xlink:href="classMapManager.html#a1ad44804432af2a23ae74a8a44007859" target="_top" xlink:title="Gets random enemy tank type based on level.">
<polygon fill="white" stroke="#666666" points="415,-290 227,-290 227,-271 415,-271 415,-290"/>
<text text-anchor="middle" x="321" y="-278" font-family="Helvetica,sans-Serif" font-size="10.00">MapManager::getRandomTankType</text>
</a>
</g>
</g>
<!-- Node1&#45;&gt;Node14 -->
<g id="edge13_Node000001_Node000014" class="edge">
<title>Node1&#45;&gt;Node14</title>
<g id="a_edge13_Node000001_Node000014"><a xlink:title=" ">
<path fill="none" stroke="#63b8ff" d="M109.87,-364.86C132.73,-348.84 181.29,-316.79 227,-299.5 234.15,-296.79 241.77,-294.45 249.44,-292.41"/>
<polygon fill="#63b8ff" stroke="#63b8ff" points="250.3,-295.81 259.17,-290 248.62,-289.01 250.3,-295.81"/>
</a>
</g>
</g>
<!-- Node15 -->
<g id="Node000015" class="node">
<title>Node15</title>
<g id="a_Node000015"><a xlink:href="classPlayerTank.html#ac650158a9f0f60fb07a410fca2cee03f" target="_top" xlink:title="Gets current player score.">
<polygon fill="white" stroke="#666666" points="380.5,-253 261.5,-253 261.5,-234 380.5,-234 380.5,-253"/>
<text text-anchor="middle" x="321" y="-241" font-family="Helvetica,sans-Serif" font-size="10.00">PlayerTank::getScore</text>
</a>
</g>
</g>
<!-- Node1&#45;&gt;Node15 -->
<g id="edge14_Node000001_Node000015" class="edge">
<title>Node1&#45;&gt;Node15</title>
<g id="a_edge14_Node000001_Node000015"><a xlink:title=" ">
<path fill="none" stroke="#63b8ff" d="M104.52,-364.87C123.39,-342.89 173.1,-288.89 227,-262.5 234.66,-258.75 243.02,-255.74 251.49,-253.32"/>
<polygon fill="#63b8ff" stroke="#63b8ff" points="252.64,-256.64 261.45,-250.75 250.89,-249.86 252.64,-256.64"/>
</a>
</g>
</g>
<!-- Node16 -->
<g id="Node000016" class="node">
<title>Node16</title>
<g id="a_Node000016"><a xlink:href="classMapManager.html#abbb0023118bf20fed584293550ace259" target="_top" xlink:title="Checks if position is valid for enemy placement.">
<polygon fill="white" stroke="#666666" points="397,-215.5 245,-215.5 245,-185.5 397,-185.5 397,-215.5"/>
<text text-anchor="start" x="253" y="-203.5" font-family="Helvetica,sans-Serif" font-size="10.00">MapManager::isValidEnemy</text>
<text text-anchor="middle" x="321" y="-192.5" font-family="Helvetica,sans-Serif" font-size="10.00">Position</text>
</a>
</g>
</g>
<!-- Node1&#45;&gt;Node16 -->
<g id="edge15_Node000001_Node000016" class="edge">
<title>Node1&#45;&gt;Node16</title>
<g id="a_edge15_Node000001_Node000016"><a xlink:title=" ">
<path fill="none" stroke="#63b8ff" d="M102.14,-364.74C118.08,-338.04 166.29,-263.31 227,-225.5 230.41,-223.37 234.01,-221.43 237.72,-219.64"/>
<polygon fill="#63b8ff" stroke="#63b8ff" points="239.37,-222.74 247.14,-215.54 236.58,-216.32 239.37,-222.74"/>
</a>
</g>
</g>
<!-- Node17 -->
<g id="Node000017" class="node">
<title>Node17</title>
<g id="a_Node000017"><a xlink:href="classGameObject.html#a4bc41ca14c07e61dafa74a03c4f3e2df" target="_top" xlink:title="Rotates the object to face new direction.">
<polygon fill="white" stroke="#666666" points="377.5,-167 264.5,-167 264.5,-148 377.5,-148 377.5,-167"/>
<text text-anchor="middle" x="321" y="-155" font-family="Helvetica,sans-Serif" font-size="10.00">GameObject::rotate</text>
</a>
</g>
</g>
<!-- Node1&#45;&gt;Node17 -->
<g id="edge17_Node000001_Node000017" class="edge">
<title>Node1&#45;&gt;Node17</title>
<g id="a_edge17_Node000001_Node000017"><a xlink:title=" ">
<path fill="none" stroke="#63b8ff" d="M99.83,-364.71C111.47,-332.04 153.69,-226.1 227,-176.5 235.19,-170.96 244.65,-166.97 254.33,-164.12"/>
<polygon fill="#63b8ff" stroke="#63b8ff" points="255.24,-167.5 264.05,-161.62 253.5,-160.72 255.24,-167.5"/>
</a>
</g>
</g>
<!-- Node18 -->
<g id="Node000018" class="node">
<title>Node18</title>
<g id="a_Node000018"><a xlink:href="classGameObject.html#a3cf581673b5b0099d250a434fed52f4d" target="_top" xlink:title="Sets new health value for the object.">
<polygon fill="white" stroke="#666666" points="386.5,-130 255.5,-130 255.5,-111 386.5,-111 386.5,-130"/>
<text text-anchor="middle" x="321" y="-118" font-family="Helvetica,sans-Serif" font-size="10.00">GameObject::setHealth</text>
</a>
</g>
</g>
<!-- Node1&#45;&gt;Node18 -->
<g id="edge18_Node000001_Node000018" class="edge">
<title>Node1&#45;&gt;Node18</title>
<g id="a_edge18_Node000001_Node000018"><a xlink:title=" ">
<path fill="none" stroke="#63b8ff" d="M98.73,-364.98C107.67,-328.95 144.58,-199.93 227,-139.5 232.63,-135.38 238.93,-132.1 245.54,-129.49"/>
<polygon fill="#63b8ff" stroke="#63b8ff" points="247.06,-132.68 255.4,-126.15 244.81,-126.05 247.06,-132.68"/>
</a>
</g>
</g>
<!-- Node19 -->
<g id="Node000019" class="node">
<title>Node19</title>
<g id="a_Node000019"><a xlink:href="classPlayerTank.html#a5799e229863bc48d1de94625ab91bd0b" target="_top" xlink:title="Sets number of player lives.">
<polygon fill="white" stroke="#666666" points="379,-93 263,-93 263,-74 379,-74 379,-93"/>
<text text-anchor="middle" x="321" y="-81" font-family="Helvetica,sans-Serif" font-size="10.00">PlayerTank::setLives</text>
</a>
</g>
</g>
<!-- Node1&#45;&gt;Node19 -->
<g id="edge19_Node000001_Node000019" class="edge">
<title>Node1&#45;&gt;Node19</title>
<g id="a_edge19_Node000001_Node000019"><a xlink:title=" ">
<path fill="none" stroke="#63b8ff" d="M97.99,-364.9C104.65,-325.36 135.53,-173.86 227,-102.5 234.62,-96.56 243.63,-92.34 252.99,-89.37"/>
<polygon fill="#63b8ff" stroke="#63b8ff" points="254.09,-92.7 262.82,-86.7 252.26,-85.94 254.09,-92.7"/>
</a>
</g>
</g>
<!-- Node20 -->
<g id="Node000020" class="node">
<title>Node20</title>
<g id="a_Node000020"><a xlink:href="classGameObject.html#a8e1f77d21a8ed8a894ae29f0e4126618" target="_top" xlink:title="Sets new position for the object.">
<polygon fill="white" stroke="#666666" points="389.5,-56 252.5,-56 252.5,-37 389.5,-37 389.5,-56"/>
<text text-anchor="middle" x="321" y="-44" font-family="Helvetica,sans-Serif" font-size="10.00">GameObject::setPosition</text>
</a>
</g>
</g>
<!-- Node1&#45;&gt;Node20 -->
<g id="edge20_Node000001_Node000020" class="edge">
<title>Node1&#45;&gt;Node20</title>
<g id="a_edge20_Node000001_Node000020"><a xlink:title=" ">
<path fill="none" stroke="#63b8ff" d="M97.41,-364.81C101.97,-321.97 126.32,-147.98 227,-65.5 231.74,-61.62 237.06,-58.47 242.69,-55.91"/>
<polygon fill="#63b8ff" stroke="#63b8ff" points="244.36,-59.02 252.43,-52.15 241.84,-52.49 244.36,-59.02"/>
</a>
</g>
</g>
<!-- Node21 -->
<g id="Node000021" class="node">
<title>Node21</title>
<g id="a_Node000021"><a xlink:href="classPlayerTank.html#abde1432113bfd6939d0f69e0492b74c7" target="_top" xlink:title="Sets player score.">
<polygon fill="white" stroke="#666666" points="380,-19 262,-19 262,0 380,0 380,-19"/>
<text text-anchor="middle" x="321" y="-7" font-family="Helvetica,sans-Serif" font-size="10.00">PlayerTank::setScore</text>
</a>
</g>
</g>
<!-- Node1&#45;&gt;Node21 -->
<g id="edge21_Node000001_Node000021" class="edge">
<title>Node1&#45;&gt;Node21</title>
<g id="a_edge21_Node000001_Node000021"><a xlink:title=" ">
<path fill="none" stroke="#63b8ff" d="M96.92,-364.94C99.49,-319.34 116.82,-122.41 227,-28.5 234.26,-22.31 242.99,-17.95 252.16,-14.91"/>
<polygon fill="#63b8ff" stroke="#63b8ff" points="253.15,-18.27 261.83,-12.19 251.25,-11.53 253.15,-18.27"/>
</a>
</g>
</g>
<!-- Node16&#45;&gt;Node12 -->
<g id="edge16_Node000016_Node000012" class="edge">
<title>Node16&#45;&gt;Node12</title>
<g id="a_edge16_Node000016_Node000012"><a xlink:title=" ">
<path fill="none" stroke="#63b8ff" d="M385.08,-215.61C395.2,-218.56 405.47,-221.88 415,-225.5 442.82,-236.07 473.09,-251.71 493.76,-263.08"/>
<polygon fill="#63b8ff" stroke="#63b8ff" points="492.1,-266.16 502.54,-267.96 495.5,-260.04 492.1,-266.16"/>
</a>
</g>
</g>
</g>
</svg>
