<?xml version="1.0" encoding="UTF-8" standalone="no"?>
<!DOCTYPE svg PUBLIC "-//W3C//DTD SVG 1.1//EN"
 "http://www.w3.org/Graphics/SVG/1.1/DTD/svg11.dtd">
<!-- Generated by graphviz version 2.43.0 (0)
 -->
<!-- Title: GameWorld::handleEnemyCollision Pages: 1 -->
<svg width="535pt" height="138pt"
 viewBox="0.00 0.00 535.00 138.00" xmlns="http://www.w3.org/2000/svg" xmlns:xlink="http://www.w3.org/1999/xlink">
<g id="graph0" class="graph" transform="scale(1 1) rotate(0) translate(4 134)">
<title>GameWorld::handleEnemyCollision</title>
<!-- Node1 -->
<g id="Node000001" class="node">
<title>Node1</title>
<g id="a_Node000001"><a xlink:title="Handles enemy collision.">
<polygon fill="#999999" stroke="#666666" points="188,-74 0,-74 0,-55 188,-55 188,-74"/>
<text text-anchor="middle" x="94" y="-62" font-family="Helvetica,sans-Serif" font-size="10.00">GameWorld::handleEnemyCollision</text>
</a>
</g>
</g>
<!-- Node2 -->
<g id="Node000002" class="node">
<title>Node2</title>
<g id="a_Node000002"><a xlink:href="classEnemyTank.html#aaa9646e004d165e97db25fd34b3e5251" target="_top" xlink:title="Gets the bounding dimensions of the enemy tank.">
<polygon fill="white" stroke="#666666" points="365,-130 234,-130 234,-111 365,-111 365,-130"/>
<text text-anchor="middle" x="299.5" y="-118" font-family="Helvetica,sans-Serif" font-size="10.00">EnemyTank::getBounds</text>
</a>
</g>
</g>
<!-- Node1&#45;&gt;Node2 -->
<g id="edge1_Node000001_Node000002" class="edge">
<title>Node1&#45;&gt;Node2</title>
<g id="a_edge1_Node000001_Node000002"><a xlink:title=" ">
<path fill="none" stroke="#63b8ff" d="M125.9,-74.07C151.95,-82.02 190.28,-93.47 224,-102.5 231.59,-104.53 239.65,-106.59 247.54,-108.54"/>
<polygon fill="#63b8ff" stroke="#63b8ff" points="246.88,-111.98 257.42,-110.96 248.54,-105.18 246.88,-111.98"/>
</a>
</g>
</g>
<!-- Node3 -->
<g id="Node000003" class="node">
<title>Node3</title>
<g id="a_Node000003"><a xlink:href="classGameObject.html#aa4dd19d6b0ea5701d860b64b08435ae6" target="_top" xlink:title="Gets current position of the object.">
<polygon fill="white" stroke="#666666" points="368.5,-93 230.5,-93 230.5,-74 368.5,-74 368.5,-93"/>
<text text-anchor="middle" x="299.5" y="-81" font-family="Helvetica,sans-Serif" font-size="10.00">GameObject::getPosition</text>
</a>
</g>
</g>
<!-- Node1&#45;&gt;Node3 -->
<g id="edge2_Node000001_Node000003" class="edge">
<title>Node1&#45;&gt;Node3</title>
<g id="a_edge2_Node000001_Node000003"><a xlink:title=" ">
<path fill="none" stroke="#63b8ff" d="M188.11,-73.19C198.9,-74.2 209.82,-75.22 220.37,-76.21"/>
<polygon fill="#63b8ff" stroke="#63b8ff" points="220.09,-79.69 230.37,-77.14 220.74,-72.72 220.09,-79.69"/>
</a>
</g>
</g>
<!-- Node4 -->
<g id="Node000004" class="node">
<title>Node4</title>
<g id="a_Node000004"><a xlink:href="classGameWorld.html#a44dd38e9393e523caefeac7448cfc18c" target="_top" xlink:title="Checks if position is valid.">
<polygon fill="white" stroke="#666666" points="375,-56 224,-56 224,-37 375,-37 375,-56"/>
<text text-anchor="middle" x="299.5" y="-44" font-family="Helvetica,sans-Serif" font-size="10.00">GameWorld::isValidPosition</text>
</a>
</g>
</g>
<!-- Node1&#45;&gt;Node4 -->
<g id="edge3_Node000001_Node000004" class="edge">
<title>Node1&#45;&gt;Node4</title>
<g id="a_edge3_Node000001_Node000004"><a xlink:title=" ">
<path fill="none" stroke="#63b8ff" d="M188.11,-56.26C196.6,-55.51 205.16,-54.76 213.56,-54.01"/>
<polygon fill="#63b8ff" stroke="#63b8ff" points="214.07,-57.48 223.72,-53.11 213.45,-50.51 214.07,-57.48"/>
</a>
</g>
</g>
<!-- Node6 -->
<g id="Node000006" class="node">
<title>Node6</title>
<g id="a_Node000006"><a xlink:href="classGameObject.html#a4bc41ca14c07e61dafa74a03c4f3e2df" target="_top" xlink:title="Rotates the object to face new direction.">
<polygon fill="white" stroke="#666666" points="356,-19 243,-19 243,0 356,0 356,-19"/>
<text text-anchor="middle" x="299.5" y="-7" font-family="Helvetica,sans-Serif" font-size="10.00">GameObject::rotate</text>
</a>
</g>
</g>
<!-- Node1&#45;&gt;Node6 -->
<g id="edge5_Node000001_Node000006" class="edge">
<title>Node1&#45;&gt;Node6</title>
<g id="a_edge5_Node000001_Node000006"><a xlink:title=" ">
<path fill="none" stroke="#63b8ff" d="M128.35,-54.97C154.37,-47.59 191.43,-37.2 224,-28.5 232.62,-26.2 241.82,-23.8 250.7,-21.52"/>
<polygon fill="#63b8ff" stroke="#63b8ff" points="251.74,-24.87 260.56,-19 250,-18.09 251.74,-24.87"/>
</a>
</g>
</g>
<!-- Node5 -->
<g id="Node000005" class="node">
<title>Node5</title>
<g id="a_Node000005"><a xlink:href="classObstacle.html#aa1936373d282c8dba39f529526b6143d" target="_top" xlink:title="Checks if obstacle is passable for tanks.">
<polygon fill="white" stroke="#666666" points="527,-56 411,-56 411,-37 527,-37 527,-56"/>
<text text-anchor="middle" x="469" y="-44" font-family="Helvetica,sans-Serif" font-size="10.00">Obstacle::isPassable</text>
</a>
</g>
</g>
<!-- Node4&#45;&gt;Node5 -->
<g id="edge4_Node000004_Node000005" class="edge">
<title>Node4&#45;&gt;Node5</title>
<g id="a_edge4_Node000004_Node000005"><a xlink:title=" ">
<path fill="none" stroke="#63b8ff" d="M375.43,-46.5C383.85,-46.5 392.4,-46.5 400.71,-46.5"/>
<polygon fill="#63b8ff" stroke="#63b8ff" points="400.72,-50 410.72,-46.5 400.72,-43 400.72,-50"/>
</a>
</g>
</g>
</g>
</svg>
