<?xml version="1.0" encoding="UTF-8" standalone="no"?>
<!DOCTYPE svg PUBLIC "-//W3C//DTD SVG 1.1//EN"
 "http://www.w3.org/Graphics/SVG/1.1/DTD/svg11.dtd">
<!-- Generated by graphviz version 2.43.0 (0)
 -->
<!-- Title: EnemyTank::findCover Pages: 1 -->
<svg width="479pt" height="200pt"
 viewBox="0.00 0.00 479.00 199.50" xmlns="http://www.w3.org/2000/svg" xmlns:xlink="http://www.w3.org/1999/xlink">

<svg id="main" version="1.1" xmlns="http://www.w3.org/2000/svg" xmlns:xlink="http://www.w3.org/1999/xlink" xml:space="preserve" onload="init(evt)">
<style type="text/css"><![CDATA[
.node, .edge {opacity: 0.7;}
.node.selected, .edge.selected {opacity: 1;}
.edge:hover path { stroke: red; }
.edge:hover polygon { stroke: red; fill: red; }
]]></style>
<script type="application/ecmascript" xlink:href="svg.min.js"/>
<svg id="graph" class="graph">
<g id="graph0" class="graph" transform="scale(1 1) rotate(0) translate(4 195.5)">
<title>EnemyTank::findCover</title>
<!-- Node1 -->
<g id="Node000001" class="node">
<title>Node1</title>
<g id="a_Node000001"><a xlink:title="Searches for cover.">
<polygon fill="#999999" stroke="#666666" points="125,-95 0,-95 0,-76 125,-76 125,-95"/>
<text text-anchor="middle" x="62.5" y="-83" font-family="Helvetica,sans-Serif" font-size="10.00">EnemyTank::findCover</text>
</a>
</g>
</g>
<!-- Node2 -->
<g id="Node000002" class="node">
<title>Node2</title>
<g id="a_Node000002"><a xlink:href="classEnemyTank.html#a9eb0cacdd5e196535f1d60da1ca622ac" target="_top" xlink:title="Gets direction towards last known player position.">
<polygon fill="white" stroke="#666666" points="316,-191.5 167,-191.5 167,-161.5 316,-161.5 316,-191.5"/>
<text text-anchor="start" x="175" y="-179.5" font-family="Helvetica,sans-Serif" font-size="10.00">EnemyTank::getDirectionTo</text>
<text text-anchor="middle" x="241.5" y="-168.5" font-family="Helvetica,sans-Serif" font-size="10.00">Player</text>
</a>
</g>
</g>
<!-- Node1&#45;&gt;Node2 -->
<g id="edge1_Node000001_Node000002" class="edge">
<title>Node1&#45;&gt;Node2</title>
<g id="a_edge1_Node000001_Node000002"><a xlink:title=" ">
<path fill="none" stroke="#63b8ff" d="M74.78,-95C92.24,-109.28 127.3,-136.32 161,-152.5 164.98,-154.41 169.15,-156.21 173.4,-157.89"/>
<polygon fill="#63b8ff" stroke="#63b8ff" points="172.21,-161.19 182.81,-161.4 174.66,-154.63 172.21,-161.19"/>
</a>
</g>
</g>
<!-- Node3 -->
<g id="Node000003" class="node">
<title>Node3</title>
<g id="a_Node000003"><a xlink:href="classEnemyTank.html#a8e7ed1aeded64d0b118d54a5f78099b2" target="_top" xlink:title="Gets perpendicular direction.">
<polygon fill="white" stroke="#666666" points="322,-143.5 161,-143.5 161,-113.5 322,-113.5 322,-143.5"/>
<text text-anchor="start" x="169" y="-131.5" font-family="Helvetica,sans-Serif" font-size="10.00">EnemyTank::getPerpendicular</text>
<text text-anchor="middle" x="241.5" y="-120.5" font-family="Helvetica,sans-Serif" font-size="10.00">Direction</text>
</a>
</g>
</g>
<!-- Node1&#45;&gt;Node3 -->
<g id="edge2_Node000001_Node000003" class="edge">
<title>Node1&#45;&gt;Node3</title>
<g id="a_edge2_Node000001_Node000003"><a xlink:title=" ">
<path fill="none" stroke="#63b8ff" d="M102.78,-95.04C122.21,-99.76 146.28,-105.61 168.84,-111.09"/>
<polygon fill="#63b8ff" stroke="#63b8ff" points="168.19,-114.53 178.73,-113.49 169.84,-107.73 168.19,-114.53"/>
</a>
</g>
</g>
<!-- Node4 -->
<g id="Node000004" class="node">
<title>Node4</title>
<g id="a_Node000004"><a xlink:href="classEnemyTank.html#ad9f295f9b2df24bb291db3783b292289" target="_top" xlink:title="Moves enemy tank in specified direction.">
<polygon fill="white" stroke="#666666" points="295,-95 188,-95 188,-76 295,-76 295,-95"/>
<text text-anchor="middle" x="241.5" y="-83" font-family="Helvetica,sans-Serif" font-size="10.00">EnemyTank::move</text>
</a>
</g>
</g>
<!-- Node1&#45;&gt;Node4 -->
<g id="edge3_Node000001_Node000004" class="edge">
<title>Node1&#45;&gt;Node4</title>
<g id="a_edge3_Node000001_Node000004"><a xlink:title=" ">
<path fill="none" stroke="#63b8ff" d="M125.41,-85.5C142.25,-85.5 160.51,-85.5 177.41,-85.5"/>
<polygon fill="#63b8ff" stroke="#63b8ff" points="177.74,-89 187.74,-85.5 177.74,-82 177.74,-89"/>
</a>
</g>
</g>
<!-- Node5 -->
<g id="Node000005" class="node">
<title>Node5</title>
<g id="a_Node000005"><a xlink:href="classGameObject.html#a4bc41ca14c07e61dafa74a03c4f3e2df" target="_top" xlink:title="Rotates the object to face new direction.">
<polygon fill="white" stroke="#666666" points="471,-57 358,-57 358,-38 471,-38 471,-57"/>
<text text-anchor="middle" x="414.5" y="-45" font-family="Helvetica,sans-Serif" font-size="10.00">GameObject::rotate</text>
</a>
</g>
</g>
<!-- Node1&#45;&gt;Node5 -->
<g id="edge7_Node000001_Node000005" class="edge">
<title>Node1&#45;&gt;Node5</title>
<g id="a_edge7_Node000001_Node000005"><a xlink:title=" ">
<path fill="none" stroke="#63b8ff" d="M109.96,-75.91C126.07,-72.85 144.28,-69.7 161,-67.5 224.02,-59.21 296.37,-53.91 347.42,-50.86"/>
<polygon fill="#63b8ff" stroke="#63b8ff" points="347.88,-54.34 357.66,-50.26 347.48,-47.35 347.88,-54.34"/>
</a>
</g>
</g>
<!-- Node6 -->
<g id="Node000006" class="node">
<title>Node6</title>
<g id="a_Node000006"><a xlink:href="classEnemyTank.html#a327ab507c7512b075c5a4c85d6933bba" target="_top" xlink:title="Executes random movement behavior.">
<polygon fill="white" stroke="#666666" points="321.5,-19 161.5,-19 161.5,0 321.5,0 321.5,-19"/>
<text text-anchor="middle" x="241.5" y="-7" font-family="Helvetica,sans-Serif" font-size="10.00">EnemyTank::randomBehavior</text>
</a>
</g>
</g>
<!-- Node1&#45;&gt;Node6 -->
<g id="edge5_Node000001_Node000006" class="edge">
<title>Node1&#45;&gt;Node6</title>
<g id="a_edge5_Node000001_Node000006"><a xlink:title=" ">
<path fill="none" stroke="#63b8ff" d="M79.25,-75.85C98.14,-64.57 131.03,-45.87 161,-33.5 171.41,-29.2 182.86,-25.29 193.76,-21.94"/>
<polygon fill="#63b8ff" stroke="#63b8ff" points="194.98,-25.23 203.56,-19.01 192.98,-18.52 194.98,-25.23"/>
</a>
</g>
</g>
<!-- Node4&#45;&gt;Node5 -->
<g id="edge4_Node000004_Node000005" class="edge">
<title>Node4&#45;&gt;Node5</title>
<g id="a_edge4_Node000004_Node000005"><a xlink:title=" ">
<path fill="none" stroke="#63b8ff" d="M285.65,-75.91C308.42,-70.85 336.55,-64.6 360.62,-59.25"/>
<polygon fill="#63b8ff" stroke="#63b8ff" points="361.66,-62.61 370.66,-57.02 360.14,-55.77 361.66,-62.61"/>
</a>
</g>
</g>
<!-- Node6&#45;&gt;Node5 -->
<g id="edge6_Node000006_Node000005" class="edge">
<title>Node6&#45;&gt;Node5</title>
<g id="a_edge6_Node000006_Node000005"><a xlink:title=" ">
<path fill="none" stroke="#63b8ff" d="M285.65,-19.09C308.42,-24.15 336.55,-30.4 360.62,-35.75"/>
<polygon fill="#63b8ff" stroke="#63b8ff" points="360.14,-39.23 370.66,-37.98 361.66,-32.39 360.14,-39.23"/>
</a>
</g>
</g>
</g>
</svg>
</svg>

<style type='text/css'>
<![CDATA[
[data-mouse-over-selected='false'] { opacity: 0.7; }
[data-mouse-over-selected='true']  { opacity: 1.0; }
]]>
</style>
<script type="application/ecmascript"><![CDATA[
document.addEventListener('DOMContentLoaded', (event) => {
  highlightEdges();
  highlightAdjacentNodes();
});
]]></script>
</svg>
