<?xml version="1.0" encoding="UTF-8" standalone="no"?>
<!DOCTYPE svg PUBLIC "-//W3C//DTD SVG 1.1//EN"
 "http://www.w3.org/Graphics/SVG/1.1/DTD/svg11.dtd">
<!-- Generated by graphviz version 2.43.0 (0)
 -->
<!-- Title: InputHandler::waitForCommand Pages: 1 -->
<svg width="1501pt" height="186pt"
 viewBox="0.00 0.00 1501.00 186.10" xmlns="http://www.w3.org/2000/svg" xmlns:xlink="http://www.w3.org/1999/xlink">
<g id="graph0" class="graph" transform="scale(1 1) rotate(0) translate(4 182.1)">
<title>InputHandler::waitForCommand</title>
<!-- Node1 -->
<g id="Node000001" class="node">
<title>Node1</title>
<g id="a_Node000001"><a xlink:title="Waits for and returns a user command.">
<polygon fill="#999999" stroke="#666666" points="1493,-90.5 1321,-90.5 1321,-71.5 1493,-71.5 1493,-90.5"/>
<text text-anchor="middle" x="1407" y="-78.5" font-family="Helvetica,sans-Serif" font-size="10.00">InputHandler::waitForCommand</text>
</a>
</g>
</g>
<!-- Node2 -->
<g id="Node000002" class="node">
<title>Node2</title>
<g id="a_Node000002"><a xlink:href="classGameController.html#a637ea4e72ed2be4a2884b30160b3e8ab" target="_top" xlink:title="Pauses the game and displays pause screen.">
<polygon fill="white" stroke="#666666" points="879.5,-95.5 721.5,-95.5 721.5,-76.5 879.5,-76.5 879.5,-95.5"/>
<text text-anchor="middle" x="800.5" y="-83.5" font-family="Helvetica,sans-Serif" font-size="10.00">GameController::pauseGame</text>
</a>
</g>
</g>
<!-- Node1&#45;&gt;Node2 -->
<g id="edge1_Node000001_Node000002" class="edge">
<title>Node1&#45;&gt;Node2</title>
<g id="a_edge1_Node000001_Node000002"><a xlink:title=" ">
<path fill="none" stroke="#63b8ff" d="M1310.8,-81.79C1191.77,-82.77 990.27,-84.44 879.77,-85.35"/>
<polygon fill="#63b8ff" stroke="#63b8ff" points="1311.02,-85.29 1320.99,-81.7 1310.96,-78.29 1311.02,-85.29"/>
</a>
</g>
</g>
<!-- Node4 -->
<g id="Node000004" class="node">
<title>Node4</title>
<g id="a_Node000004"><a xlink:href="classGameController.html#af2367e58f03d8a1441c9a574967fd360" target="_top" xlink:title="Processes a single game turn/update cycle.">
<polygon fill="white" stroke="#666666" points="445,-93.5 258,-93.5 258,-74.5 445,-74.5 445,-93.5"/>
<text text-anchor="middle" x="351.5" y="-81.5" font-family="Helvetica,sans-Serif" font-size="10.00">GameController::processGameTurn</text>
</a>
</g>
</g>
<!-- Node1&#45;&gt;Node4 -->
<g id="edge6_Node000001_Node000004" class="edge">
<title>Node1&#45;&gt;Node4</title>
<g id="a_edge6_Node000001_Node000004"><a xlink:title=" ">
<path fill="none" stroke="#63b8ff" d="M1368.83,-68.19C1299.16,-45.36 1143.76,0 1009,0 1009,0 1009,0 799.5,0 639.8,0 453.44,-52.43 382.22,-74.45"/>
<polygon fill="#63b8ff" stroke="#63b8ff" points="1367.89,-71.57 1378.48,-71.39 1370.09,-64.92 1367.89,-71.57"/>
</a>
</g>
</g>
<!-- Node7 -->
<g id="Node000007" class="node">
<title>Node7</title>
<g id="a_Node000007"><a xlink:href="classGameController.html#a85bcf4ecfd197aad278e116215a3717b" target="_top" xlink:title="Displays level completion screen.">
<polygon fill="white" stroke="#666666" points="876.5,-58 724.5,-58 724.5,-28 876.5,-28 876.5,-58"/>
<text text-anchor="start" x="732.5" y="-46" font-family="Helvetica,sans-Serif" font-size="10.00">GameController::showLevel</text>
<text text-anchor="middle" x="800.5" y="-35" font-family="Helvetica,sans-Serif" font-size="10.00">CompleteScreen</text>
</a>
</g>
</g>
<!-- Node1&#45;&gt;Node7 -->
<g id="edge7_Node000001_Node000007" class="edge">
<title>Node1&#45;&gt;Node7</title>
<g id="a_edge7_Node000001_Node000007"><a xlink:title=" ">
<path fill="none" stroke="#63b8ff" d="M1310.71,-75.01C1190.66,-67.46 986.79,-54.65 876.95,-47.74"/>
<polygon fill="#63b8ff" stroke="#63b8ff" points="1310.79,-78.52 1320.99,-75.66 1311.23,-71.54 1310.79,-78.52"/>
</a>
</g>
</g>
<!-- Node8 -->
<g id="Node000008" class="node">
<title>Node8</title>
<g id="a_Node000008"><a xlink:href="classGameController.html#a9d11b5a6255b7249bddba49df0837cf3" target="_top" xlink:title="Displays and manages the main menu.">
<polygon fill="white" stroke="#666666" points="1084,-132.5 932,-132.5 932,-113.5 1084,-113.5 1084,-132.5"/>
<text text-anchor="middle" x="1008" y="-120.5" font-family="Helvetica,sans-Serif" font-size="10.00">GameController::showMenu</text>
</a>
</g>
</g>
<!-- Node1&#45;&gt;Node8 -->
<g id="edge9_Node000001_Node000008" class="edge">
<title>Node1&#45;&gt;Node8</title>
<g id="a_edge9_Node000001_Node000008"><a xlink:title=" ">
<path fill="none" stroke="#63b8ff" d="M1314.92,-91.68C1304.83,-92.82 1294.7,-93.95 1285,-95 1217.01,-102.38 1139.53,-110.19 1084,-115.68"/>
<polygon fill="#63b8ff" stroke="#63b8ff" points="1315.44,-95.14 1324.98,-90.53 1314.65,-88.19 1315.44,-95.14"/>
</a>
</g>
</g>
<!-- Node10 -->
<g id="Node000010" class="node">
<title>Node10</title>
<g id="a_Node000010"><a xlink:href="classGameController.html#a24f5cae258418d4a5934e6f412c28945" target="_top" xlink:title="Displays and manages the settings menu.">
<polygon fill="white" stroke="#666666" points="1285,-166.5 1120,-166.5 1120,-147.5 1285,-147.5 1285,-166.5"/>
<text text-anchor="middle" x="1202.5" y="-154.5" font-family="Helvetica,sans-Serif" font-size="10.00">GameController::showSettings</text>
</a>
</g>
</g>
<!-- Node1&#45;&gt;Node10 -->
<g id="edge17_Node000001_Node000010" class="edge">
<title>Node1&#45;&gt;Node10</title>
<g id="a_edge17_Node000001_Node000010"><a xlink:title=" ">
<path fill="none" stroke="#63b8ff" d="M1376.39,-94.9C1352.14,-106.01 1316.76,-121.55 1285,-133 1270.29,-138.3 1253.79,-143.33 1239.5,-147.4"/>
<polygon fill="#63b8ff" stroke="#63b8ff" points="1378.13,-97.96 1385.75,-90.59 1375.2,-91.6 1378.13,-97.96"/>
</a>
</g>
</g>
<!-- Node3 -->
<g id="Node000003" class="node">
<title>Node3</title>
<g id="a_Node000003"><a xlink:href="classGameController.html#a971b3d8f6296a74f0bebc83b5e79c186" target="_top" xlink:title="Processes a user command.">
<polygon fill="white" stroke="#666666" points="669,-113.5 481,-113.5 481,-94.5 669,-94.5 669,-113.5"/>
<text text-anchor="middle" x="575" y="-101.5" font-family="Helvetica,sans-Serif" font-size="10.00">GameController::processCommand</text>
</a>
</g>
</g>
<!-- Node2&#45;&gt;Node3 -->
<g id="edge2_Node000002_Node000003" class="edge">
<title>Node2&#45;&gt;Node3</title>
<g id="a_edge2_Node000002_Node000003"><a xlink:title=" ">
<path fill="none" stroke="#63b8ff" d="M711.33,-93.1C697.46,-94.22 683.08,-95.38 669.09,-96.5"/>
<polygon fill="#63b8ff" stroke="#63b8ff" points="711.64,-96.59 721.33,-92.3 711.08,-89.61 711.64,-96.59"/>
</a>
</g>
</g>
<!-- Node3&#45;&gt;Node4 -->
<g id="edge3_Node000003_Node000004" class="edge">
<title>Node3&#45;&gt;Node4</title>
<g id="a_edge3_Node000003_Node000004"><a xlink:title=" ">
<path fill="none" stroke="#63b8ff" d="M470.5,-94.65C462.1,-93.9 453.65,-93.13 445.33,-92.38"/>
<polygon fill="#63b8ff" stroke="#63b8ff" points="470.43,-98.16 480.71,-95.58 471.06,-91.19 470.43,-98.16"/>
</a>
</g>
</g>
<!-- Node5 -->
<g id="Node000005" class="node">
<title>Node5</title>
<g id="a_Node000005"><a xlink:href="classGameController.html#ac958989c8f7f08488546930e5fcb0d82" target="_top" xlink:title="Starts and runs the main game loop.">
<polygon fill="white" stroke="#666666" points="222,-149.5 77,-149.5 77,-130.5 222,-130.5 222,-149.5"/>
<text text-anchor="middle" x="149.5" y="-137.5" font-family="Helvetica,sans-Serif" font-size="10.00">GameController::runGame</text>
</a>
</g>
</g>
<!-- Node4&#45;&gt;Node5 -->
<g id="edge4_Node000004_Node000005" class="edge">
<title>Node4&#45;&gt;Node5</title>
<g id="a_edge4_Node000004_Node000005"><a xlink:title=" ">
<path fill="none" stroke="#63b8ff" d="M306.17,-96.41C269.43,-106.7 217.96,-121.11 184.43,-130.5"/>
<polygon fill="#63b8ff" stroke="#63b8ff" points="307.43,-99.69 316.12,-93.63 305.55,-92.95 307.43,-99.69"/>
</a>
</g>
</g>
<!-- Node6 -->
<g id="Node000006" class="node">
<title>Node6</title>
<g id="a_Node000006"><a xlink:href="main_8cpp.html#ae66f6b31b5ad750f1fe042a706a4e3d4" target="_top" xlink:title="Main function that serves as the application entry point.">
<polygon fill="white" stroke="#666666" points="41,-149.5 0,-149.5 0,-130.5 41,-130.5 41,-149.5"/>
<text text-anchor="middle" x="20.5" y="-137.5" font-family="Helvetica,sans-Serif" font-size="10.00">main</text>
</a>
</g>
</g>
<!-- Node5&#45;&gt;Node6 -->
<g id="edge5_Node000005_Node000006" class="edge">
<title>Node5&#45;&gt;Node6</title>
<g id="a_edge5_Node000005_Node000006"><a xlink:title=" ">
<path fill="none" stroke="#63b8ff" d="M66.79,-140C57.31,-140 48.43,-140 41.08,-140"/>
<polygon fill="#63b8ff" stroke="#63b8ff" points="66.83,-143.5 76.83,-140 66.83,-136.5 66.83,-143.5"/>
</a>
</g>
</g>
<!-- Node7&#45;&gt;Node4 -->
<g id="edge8_Node000007_Node000004" class="edge">
<title>Node7&#45;&gt;Node4</title>
<g id="a_edge8_Node000007_Node000004"><a xlink:title=" ">
<path fill="none" stroke="#63b8ff" d="M714.29,-50.82C637.38,-57.87 524.48,-68.23 445.3,-75.49"/>
<polygon fill="#63b8ff" stroke="#63b8ff" points="714.79,-54.28 724.43,-49.89 714.15,-47.31 714.79,-54.28"/>
</a>
</g>
</g>
<!-- Node8&#45;&gt;Node2 -->
<g id="edge10_Node000008_Node000002" class="edge">
<title>Node8&#45;&gt;Node2</title>
<g id="a_edge10_Node000008_Node000002"><a xlink:title=" ">
<path fill="none" stroke="#63b8ff" d="M944.17,-111.69C915.52,-106.53 881.97,-100.49 854.6,-95.56"/>
<polygon fill="#63b8ff" stroke="#63b8ff" points="943.62,-115.14 954.08,-113.47 944.86,-108.25 943.62,-115.14"/>
</a>
</g>
</g>
<!-- Node8&#45;&gt;Node3 -->
<g id="edge11_Node000008_Node000003" class="edge">
<title>Node8&#45;&gt;Node3</title>
<g id="a_edge11_Node000008_Node000003"><a xlink:title=" ">
<path fill="none" stroke="#63b8ff" d="M951.69,-134.36C933.98,-137.49 914.24,-140.45 896,-142 811.42,-149.19 789.02,-154.12 705,-142 667.8,-136.63 626.37,-122.99 600.74,-113.6"/>
<polygon fill="#63b8ff" stroke="#63b8ff" points="952.65,-137.75 961.86,-132.51 951.39,-130.86 952.65,-137.75"/>
</a>
</g>
</g>
<!-- Node8&#45;&gt;Node5 -->
<g id="edge12_Node000008_Node000005" class="edge">
<title>Node8&#45;&gt;Node5</title>
<g id="a_edge12_Node000008_Node000005"><a xlink:title=" ">
<path fill="none" stroke="#63b8ff" d="M975.12,-136.29C953.28,-144.66 923.42,-154.67 896,-159 646.95,-198.38 345.38,-166.85 215.34,-149.5"/>
<polygon fill="#63b8ff" stroke="#63b8ff" points="976.52,-139.5 984.55,-132.59 973.97,-132.99 976.52,-139.5"/>
</a>
</g>
</g>
<!-- Node8&#45;&gt;Node7 -->
<g id="edge13_Node000008_Node000007" class="edge">
<title>Node8&#45;&gt;Node7</title>
<g id="a_edge13_Node000008_Node000007"><a xlink:title=" ">
<path fill="none" stroke="#63b8ff" d="M982.25,-108.54C960.21,-96.14 926.78,-78.51 896,-67 887.2,-63.71 877.78,-60.72 868.41,-58.05"/>
<polygon fill="#63b8ff" stroke="#63b8ff" points="980.54,-111.59 990.96,-113.49 984,-105.5 980.54,-111.59"/>
</a>
</g>
</g>
<!-- Node9 -->
<g id="Node000009" class="node">
<title>Node9</title>
<g id="a_Node000009"><a xlink:href="classGameController.html#a4a9c94fe33cf6c73bb5dfc415d04d309" target="_top" xlink:title="Displays map selection screen.">
<polygon fill="white" stroke="#666666" points="896,-132.5 705,-132.5 705,-113.5 896,-113.5 896,-132.5"/>
<text text-anchor="middle" x="800.5" y="-120.5" font-family="Helvetica,sans-Serif" font-size="10.00">GameController::showMapSelection</text>
</a>
</g>
</g>
<!-- Node8&#45;&gt;Node9 -->
<g id="edge14_Node000008_Node000009" class="edge">
<title>Node8&#45;&gt;Node9</title>
<g id="a_edge14_Node000008_Node000009"><a xlink:title=" ">
<path fill="none" stroke="#63b8ff" d="M921.78,-116.34C913.38,-116.25 904.82,-116.23 896.33,-116.27"/>
<polygon fill="#63b8ff" stroke="#63b8ff" points="921.89,-119.84 931.94,-116.47 921.98,-112.84 921.89,-119.84"/>
</a>
</g>
</g>
<!-- Node9&#45;&gt;Node3 -->
<g id="edge15_Node000009_Node000003" class="edge">
<title>Node9&#45;&gt;Node3</title>
<g id="a_edge15_Node000009_Node000003"><a xlink:title=" ">
<path fill="none" stroke="#63b8ff" d="M694.73,-114.09C686.19,-113.37 677.6,-112.64 669.15,-111.92"/>
<polygon fill="#63b8ff" stroke="#63b8ff" points="694.46,-117.58 704.72,-114.94 695.05,-110.61 694.46,-117.58"/>
</a>
</g>
</g>
<!-- Node9&#45;&gt;Node8 -->
<g id="edge16_Node000009_Node000008" class="edge">
<title>Node9&#45;&gt;Node8</title>
<g id="a_edge16_Node000009_Node000008"><a xlink:title=" ">
<path fill="none" stroke="#63b8ff" d="M906.42,-129.75C915.03,-129.74 923.61,-129.66 931.94,-129.53"/>
<polygon fill="#63b8ff" stroke="#63b8ff" points="906.33,-126.25 896.33,-129.73 906.32,-133.25 906.33,-126.25"/>
</a>
</g>
</g>
<!-- Node10&#45;&gt;Node8 -->
<g id="edge18_Node000010_Node000008" class="edge">
<title>Node10&#45;&gt;Node8</title>
<g id="a_edge18_Node000010_Node000008"><a xlink:title=" ">
<path fill="none" stroke="#63b8ff" d="M1137.47,-145.69C1113.28,-141.42 1086.03,-136.6 1062.86,-132.51"/>
<polygon fill="#63b8ff" stroke="#63b8ff" points="1137.17,-149.19 1147.62,-147.48 1138.38,-142.3 1137.17,-149.19"/>
</a>
</g>
</g>
</g>
</svg>
