<?xml version="1.0" encoding="UTF-8" standalone="no"?>
<!DOCTYPE svg PUBLIC "-//W3C//DTD SVG 1.1//EN"
 "http://www.w3.org/Graphics/SVG/1.1/DTD/svg11.dtd">
<!-- Generated by graphviz version 2.43.0 (0)
 -->
<!-- Title: SettingsManager::getSetting Pages: 1 -->
<!--zoomable 162 -->

<svg id="main" version="1.1" xmlns="http://www.w3.org/2000/svg" xmlns:xlink="http://www.w3.org/1999/xlink" xml:space="preserve" onload="init(evt)">
<style type="text/css"><![CDATA[
.node, .edge {opacity: 0.7;}
.node.selected, .edge.selected {opacity: 1;}
.edge:hover path { stroke: red; }
.edge:hover polygon { stroke: red; fill: red; }
]]></style>

<defs>
  <circle id="rim" cx="0" cy="0" r="7"/>
  <circle id="rim2" cx="0" cy="0" r="3.5"/>
  <g id="zoomPlus">
    <use xlink:href="#rim" fill="#404040"><set attributeName="fill" to="#808080" begin="zoomplus.mouseover" end="zoomplus.mouseout"/></use>
    <path d="M-4,0h8M0,-4v8" fill="none" stroke="white" stroke-width="1.5" pointer-events="none"/>
  </g>
  <g id="zoomMin">
    <use xlink:href="#rim" fill="#404040"><set attributeName="fill" to="#808080" begin="zoomminus.mouseover" end="zoomminus.mouseout"/></use>
    <path d="M-4,0h8" fill="none" stroke="white" stroke-width="1.5" pointer-events="none"/>
  </g>
  <g id="arrowUp" transform="translate(30 24)">
    <use xlink:href="#rim"/>
    <path pointer-events="none" fill="none" stroke="white" stroke-width="1.5" d="M0,-3.0v7 M-2.5,-0.5L0,-3.0L2.5,-0.5"/>
  </g>
  <g id="arrowRight" transform="rotate(90) translate(36 -43)">
    <use xlink:href="#rim"/>
    <path pointer-events="none" fill="none" stroke="white" stroke-width="1.5" d="M0,-3.0v7 M-2.5,-0.5L0,-3.0L2.5,-0.5"/>
  </g>
  <g id="arrowDown" transform="rotate(180) translate(-30 -48)">
    <use xlink:href="#rim"/>
    <path pointer-events="none" fill="none" stroke="white" stroke-width="1.5" d="M0,-3.0v7 M-2.5,-0.5L0,-3.0L2.5,-0.5"/>
  </g>
  <g id="arrowLeft" transform="rotate(270) translate(-36 17)">
    <use xlink:href="#rim"/>
    <path pointer-events="none" fill="none" stroke="white" stroke-width="1.5" d="M0,-3.0v7 M-2.5,-0.5L0,-3.0L2.5,-0.5"/>
  </g>
  <g id="resetDef">
    <use xlink:href="#rim2" fill="#404040"><set attributeName="fill" to="#808080" begin="reset.mouseover" end="reset.mouseout"/></use>
  </g>
</defs>
<script type="application/ecmascript">
var viewWidth = 1903;
var viewHeight = 162;
var sectionId = 'dynsection-5';
</script>
<script type="application/ecmascript" xlink:href="svg.min.js"/>
<svg id="graph" class="graph">
<g id="viewport">
<title>SettingsManager::getSetting</title>
<!-- Node1 -->
<g id="Node000001" class="node">
<title>Node1</title>
<g id="a_Node000001"><a xlink:title="Gets a string setting value.">
<polygon fill="#999999" stroke="#666666" points="1895,-89.27 1740,-89.27 1740,-70.27 1895,-70.27 1895,-89.27"/>
<text text-anchor="middle" x="1817.5" y="-77.27" font-family="Helvetica,sans-Serif" font-size="10.00">SettingsManager::getSetting</text>
</a>
</g>
</g>
<!-- Node2 -->
<g id="Node000002" class="node">
<title>Node2</title>
<g id="a_Node000002"><a xlink:href="classSettingsManager.html#a1686a183b6d975ae02e1a97cde31b226" target="_top" xlink:title="Gets a boolean setting value.">
<polygon fill="white" stroke="#666666" points="1691.5,-116.77 1548.5,-116.77 1548.5,-86.77 1691.5,-86.77 1691.5,-116.77"/>
<text text-anchor="start" x="1556.5" y="-104.77" font-family="Helvetica,sans-Serif" font-size="10.00">SettingsManager::getBool</text>
<text text-anchor="middle" x="1620" y="-93.77" font-family="Helvetica,sans-Serif" font-size="10.00">Setting</text>
</a>
</g>
</g>
<!-- Node1&#45;&gt;Node2 -->
<g id="edge1_Node000001_Node000002" class="edge">
<title>Node1&#45;&gt;Node2</title>
<g id="a_edge1_Node000001_Node000002"><a xlink:title=" ">
<path fill="none" stroke="#63b8ff" d="M1729.69,-89.54C1717,-90.97 1704.06,-92.42 1691.75,-93.81"/>
<polygon fill="#63b8ff" stroke="#63b8ff" points="1730.25,-93 1739.79,-88.4 1729.47,-86.04 1730.25,-93"/>
</a>
</g>
</g>
<!-- Node14 -->
<g id="Node000014" class="node">
<title>Node14</title>
<g id="a_Node000014"><a xlink:href="classSettingsManager.html#aaf3dcb455ffb63bf86f70e4adbaf6873" target="_top" xlink:title="Gets an integer setting value.">
<polygon fill="white" stroke="#666666" points="1704,-68.27 1536,-68.27 1536,-49.27 1704,-49.27 1704,-68.27"/>
<text text-anchor="middle" x="1620" y="-56.27" font-family="Helvetica,sans-Serif" font-size="10.00">SettingsManager::getIntSetting</text>
</a>
</g>
</g>
<!-- Node1&#45;&gt;Node14 -->
<g id="edge19_Node000001_Node000014" class="edge">
<title>Node1&#45;&gt;Node14</title>
<g id="a_edge19_Node000001_Node000014"><a xlink:title=" ">
<path fill="none" stroke="#63b8ff" d="M1729.59,-70.44C1721.17,-69.53 1712.65,-68.62 1704.26,-67.72"/>
<polygon fill="#63b8ff" stroke="#63b8ff" points="1729.48,-73.94 1739.79,-71.53 1730.23,-66.98 1729.48,-73.94"/>
</a>
</g>
</g>
<!-- Node3 -->
<g id="Node000003" class="node">
<title>Node3</title>
<g id="a_Node000003"><a xlink:href="classGameController.html#a54d4ccea0379465b0806dae60d1baeb2" target="_top" xlink:title="Constructs a GameController object.">
<polygon fill="white" stroke="#666666" points="1499,-154.27 1322,-154.27 1322,-135.27 1499,-135.27 1499,-154.27"/>
<text text-anchor="middle" x="1410.5" y="-142.27" font-family="Helvetica,sans-Serif" font-size="10.00">GameController::GameController</text>
</a>
</g>
</g>
<!-- Node2&#45;&gt;Node3 -->
<g id="edge2_Node000002_Node000003" class="edge">
<title>Node2&#45;&gt;Node3</title>
<g id="a_edge2_Node000002_Node000003"><a xlink:title=" ">
<path fill="none" stroke="#63b8ff" d="M1538.46,-118.46C1510.98,-124.16 1481.22,-130.32 1457.42,-135.26"/>
<polygon fill="#63b8ff" stroke="#63b8ff" points="1539.38,-121.85 1548.46,-116.39 1537.96,-114.99 1539.38,-121.85"/>
</a>
</g>
</g>
<!-- Node4 -->
<g id="Node000004" class="node">
<title>Node4</title>
<g id="a_Node000004"><a xlink:href="classGameController.html#a24f5cae258418d4a5934e6f412c28945" target="_top" xlink:title="Displays and manages the settings menu.">
<polygon fill="white" stroke="#666666" points="1285,-89.27 1120,-89.27 1120,-70.27 1285,-70.27 1285,-89.27"/>
<text text-anchor="middle" x="1202.5" y="-77.27" font-family="Helvetica,sans-Serif" font-size="10.00">GameController::showSettings</text>
</a>
</g>
</g>
<!-- Node2&#45;&gt;Node4 -->
<g id="edge3_Node000002_Node000004" class="edge">
<title>Node2&#45;&gt;Node4</title>
<g id="a_edge3_Node000002_Node000004"><a xlink:title=" ">
<path fill="none" stroke="#63b8ff" d="M1546.46,-84.76C1531.2,-81.85 1515.14,-79.28 1500,-77.77 1427.65,-70.55 1344.87,-71.91 1285.2,-74.57"/>
<polygon fill="#63b8ff" stroke="#63b8ff" points="1545.87,-88.21 1556.36,-86.71 1547.23,-81.34 1545.87,-88.21"/>
</a>
</g>
</g>
<!-- Node13 -->
<g id="Node000013" class="node">
<title>Node13</title>
<g id="a_Node000013"><a xlink:href="classGameController.html#a47c26eedd973ec104d31a7c96b60d658" target="_top" xlink:title="Toggles between advanced and symbolic graphics modes.">
<polygon fill="white" stroke="#666666" points="1500,-116.77 1321,-116.77 1321,-86.77 1500,-86.77 1500,-116.77"/>
<text text-anchor="start" x="1329" y="-104.77" font-family="Helvetica,sans-Serif" font-size="10.00">GameController::toggleAdvanced</text>
<text text-anchor="middle" x="1410.5" y="-93.77" font-family="Helvetica,sans-Serif" font-size="10.00">Graphics</text>
</a>
</g>
</g>
<!-- Node2&#45;&gt;Node13 -->
<g id="edge17_Node000002_Node000013" class="edge">
<title>Node2&#45;&gt;Node13</title>
<g id="a_edge17_Node000002_Node000013"><a xlink:title=" ">
<path fill="none" stroke="#63b8ff" d="M1538.14,-101.77C1525.71,-101.77 1512.81,-101.77 1500.22,-101.77"/>
<polygon fill="#63b8ff" stroke="#63b8ff" points="1538.46,-105.27 1548.46,-101.77 1538.46,-98.27 1538.46,-105.27"/>
</a>
</g>
</g>
<!-- Node5 -->
<g id="Node000005" class="node">
<title>Node5</title>
<g id="a_Node000005"><a xlink:href="classGameController.html#a9d11b5a6255b7249bddba49df0837cf3" target="_top" xlink:title="Displays and manages the main menu.">
<polygon fill="white" stroke="#666666" points="1084,-89.27 932,-89.27 932,-70.27 1084,-70.27 1084,-89.27"/>
<text text-anchor="middle" x="1008" y="-77.27" font-family="Helvetica,sans-Serif" font-size="10.00">GameController::showMenu</text>
</a>
</g>
</g>
<!-- Node4&#45;&gt;Node5 -->
<g id="edge4_Node000004_Node000005" class="edge">
<title>Node4&#45;&gt;Node5</title>
<g id="a_edge4_Node000004_Node000005"><a xlink:title=" ">
<path fill="none" stroke="#63b8ff" d="M1109.78,-79.77C1101.15,-79.77 1092.48,-79.77 1084.04,-79.77"/>
<polygon fill="#63b8ff" stroke="#63b8ff" points="1109.86,-83.27 1119.86,-79.77 1109.86,-76.27 1109.86,-83.27"/>
</a>
</g>
</g>
<!-- Node6 -->
<g id="Node000006" class="node">
<title>Node6</title>
<g id="a_Node000006"><a xlink:href="classGameController.html#a637ea4e72ed2be4a2884b30160b3e8ab" target="_top" xlink:title="Pauses the game and displays pause screen.">
<polygon fill="white" stroke="#666666" points="879.5,-71.27 721.5,-71.27 721.5,-52.27 879.5,-52.27 879.5,-71.27"/>
<text text-anchor="middle" x="800.5" y="-59.27" font-family="Helvetica,sans-Serif" font-size="10.00">GameController::pauseGame</text>
</a>
</g>
</g>
<!-- Node5&#45;&gt;Node6 -->
<g id="edge5_Node000005_Node000006" class="edge">
<title>Node5&#45;&gt;Node6</title>
<g id="a_edge5_Node000005_Node000006"><a xlink:title=" ">
<path fill="none" stroke="#63b8ff" d="M921.89,-72.32C907.95,-71.1 893.57,-69.84 879.81,-68.63"/>
<polygon fill="#63b8ff" stroke="#63b8ff" points="921.67,-75.81 931.94,-73.2 922.28,-68.84 921.67,-75.81"/>
</a>
</g>
</g>
<!-- Node7 -->
<g id="Node000007" class="node">
<title>Node7</title>
<g id="a_Node000007"><a xlink:href="classGameController.html#a971b3d8f6296a74f0bebc83b5e79c186" target="_top" xlink:title="Processes a user command.">
<polygon fill="white" stroke="#666666" points="669,-71.27 481,-71.27 481,-52.27 669,-52.27 669,-71.27"/>
<text text-anchor="middle" x="575" y="-59.27" font-family="Helvetica,sans-Serif" font-size="10.00">GameController::processCommand</text>
</a>
</g>
</g>
<!-- Node5&#45;&gt;Node7 -->
<g id="edge10_Node000005_Node000007" class="edge">
<title>Node5&#45;&gt;Node7</title>
<g id="a_edge10_Node000005_Node000007"><a xlink:title=" ">
<path fill="none" stroke="#63b8ff" d="M975.98,-66.44C954.09,-57.78 923.82,-47.29 896,-42.77 800.83,-27.33 687.91,-41.49 624.86,-52.26"/>
<polygon fill="#63b8ff" stroke="#63b8ff" points="974.83,-69.75 985.41,-70.26 977.46,-63.26 974.83,-69.75"/>
</a>
</g>
</g>
<!-- Node9 -->
<g id="Node000009" class="node">
<title>Node9</title>
<g id="a_Node000009"><a xlink:href="classGameController.html#ac958989c8f7f08488546930e5fcb0d82" target="_top" xlink:title="Starts and runs the main game loop.">
<polygon fill="white" stroke="#666666" points="222,-33.27 77,-33.27 77,-14.27 222,-14.27 222,-33.27"/>
<text text-anchor="middle" x="149.5" y="-21.27" font-family="Helvetica,sans-Serif" font-size="10.00">GameController::runGame</text>
</a>
</g>
</g>
<!-- Node5&#45;&gt;Node9 -->
<g id="edge11_Node000005_Node000009" class="edge">
<title>Node5&#45;&gt;Node9</title>
<g id="a_edge11_Node000005_Node000009"><a xlink:title=" ">
<path fill="none" stroke="#63b8ff" d="M981.01,-65.34C959.1,-54.02 926.51,-39.16 896,-32.77 653.23,18.04 356.19,-2.18 222.16,-15.55"/>
<polygon fill="#63b8ff" stroke="#63b8ff" points="979.52,-68.51 990,-70.09 982.79,-62.32 979.52,-68.51"/>
</a>
</g>
</g>
<!-- Node11 -->
<g id="Node000011" class="node">
<title>Node11</title>
<g id="a_Node000011"><a xlink:href="classGameController.html#a85bcf4ecfd197aad278e116215a3717b" target="_top" xlink:title="Displays level completion screen.">
<polygon fill="white" stroke="#666666" points="651,-135.77 499,-135.77 499,-105.77 651,-105.77 651,-135.77"/>
<text text-anchor="start" x="507" y="-123.77" font-family="Helvetica,sans-Serif" font-size="10.00">GameController::showLevel</text>
<text text-anchor="middle" x="575" y="-112.77" font-family="Helvetica,sans-Serif" font-size="10.00">CompleteScreen</text>
</a>
</g>
</g>
<!-- Node5&#45;&gt;Node11 -->
<g id="edge12_Node000005_Node000011" class="edge">
<title>Node5&#45;&gt;Node11</title>
<g id="a_edge12_Node000005_Node000011"><a xlink:title=" ">
<path fill="none" stroke="#63b8ff" d="M976.41,-93.22C954.5,-102.1 924.03,-112.97 896,-117.77 813.17,-131.96 716.52,-130.43 651.28,-126.8"/>
<polygon fill="#63b8ff" stroke="#63b8ff" points="977.95,-96.37 985.84,-89.3 975.26,-89.9 977.95,-96.37"/>
</a>
</g>
</g>
<!-- Node12 -->
<g id="Node000012" class="node">
<title>Node12</title>
<g id="a_Node000012"><a xlink:href="classGameController.html#a4a9c94fe33cf6c73bb5dfc415d04d309" target="_top" xlink:title="Displays map selection screen.">
<polygon fill="white" stroke="#666666" points="896,-108.27 705,-108.27 705,-89.27 896,-89.27 896,-108.27"/>
<text text-anchor="middle" x="800.5" y="-96.27" font-family="Helvetica,sans-Serif" font-size="10.00">GameController::showMapSelection</text>
</a>
</g>
</g>
<!-- Node5&#45;&gt;Node12 -->
<g id="edge14_Node000005_Node000012" class="edge">
<title>Node5&#45;&gt;Node12</title>
<g id="a_edge14_Node000005_Node000012"><a xlink:title=" ">
<path fill="none" stroke="#63b8ff" d="M921.77,-80.99C895,-83.19 866.59,-86.18 844.11,-89.24"/>
<polygon fill="#63b8ff" stroke="#63b8ff" points="922.25,-84.46 931.94,-80.18 921.69,-77.49 922.25,-84.46"/>
</a>
</g>
</g>
<!-- Node6&#45;&gt;Node7 -->
<g id="edge6_Node000006_Node000007" class="edge">
<title>Node6&#45;&gt;Node7</title>
<g id="a_edge6_Node000006_Node000007"><a xlink:title=" ">
<path fill="none" stroke="#63b8ff" d="M710.93,-61.77C697.18,-61.77 682.94,-61.77 669.09,-61.77"/>
<polygon fill="#63b8ff" stroke="#63b8ff" points="711.33,-65.27 721.33,-61.77 711.33,-58.27 711.33,-65.27"/>
</a>
</g>
</g>
<!-- Node8 -->
<g id="Node000008" class="node">
<title>Node8</title>
<g id="a_Node000008"><a xlink:href="classGameController.html#af2367e58f03d8a1441c9a574967fd360" target="_top" xlink:title="Processes a single game turn/update cycle.">
<polygon fill="white" stroke="#666666" points="445,-71.27 258,-71.27 258,-52.27 445,-52.27 445,-71.27"/>
<text text-anchor="middle" x="351.5" y="-59.27" font-family="Helvetica,sans-Serif" font-size="10.00">GameController::processGameTurn</text>
</a>
</g>
</g>
<!-- Node7&#45;&gt;Node8 -->
<g id="edge7_Node000007_Node000008" class="edge">
<title>Node7&#45;&gt;Node8</title>
<g id="a_edge7_Node000007_Node000008"><a xlink:title=" ">
<path fill="none" stroke="#63b8ff" d="M470.5,-61.77C462.1,-61.77 453.65,-61.77 445.33,-61.77"/>
<polygon fill="#63b8ff" stroke="#63b8ff" points="470.71,-65.27 480.71,-61.77 470.71,-58.27 470.71,-65.27"/>
</a>
</g>
</g>
<!-- Node8&#45;&gt;Node9 -->
<g id="edge8_Node000008_Node000009" class="edge">
<title>Node8&#45;&gt;Node9</title>
<g id="a_edge8_Node000008_Node000009"><a xlink:title=" ">
<path fill="none" stroke="#63b8ff" d="M290.4,-50.35C261.79,-44.92 227.96,-38.49 200.73,-33.32"/>
<polygon fill="#63b8ff" stroke="#63b8ff" points="289.81,-53.8 300.29,-52.23 291.12,-46.93 289.81,-53.8"/>
</a>
</g>
</g>
<!-- Node10 -->
<g id="Node000010" class="node">
<title>Node10</title>
<g id="a_Node000010"><a xlink:href="main_8cpp.html#ae66f6b31b5ad750f1fe042a706a4e3d4" target="_top" xlink:title="Main function that serves as the application entry point.">
<polygon fill="white" stroke="#666666" points="41,-33.27 0,-33.27 0,-14.27 41,-14.27 41,-33.27"/>
<text text-anchor="middle" x="20.5" y="-21.27" font-family="Helvetica,sans-Serif" font-size="10.00">main</text>
</a>
</g>
</g>
<!-- Node9&#45;&gt;Node10 -->
<g id="edge9_Node000009_Node000010" class="edge">
<title>Node9&#45;&gt;Node10</title>
<g id="a_edge9_Node000009_Node000010"><a xlink:title=" ">
<path fill="none" stroke="#63b8ff" d="M66.79,-23.77C57.31,-23.77 48.43,-23.77 41.08,-23.77"/>
<polygon fill="#63b8ff" stroke="#63b8ff" points="66.83,-27.27 76.83,-23.77 66.83,-20.27 66.83,-27.27"/>
</a>
</g>
</g>
<!-- Node11&#45;&gt;Node8 -->
<g id="edge13_Node000011_Node000008" class="edge">
<title>Node11&#45;&gt;Node8</title>
<g id="a_edge13_Node000011_Node000008"><a xlink:title=" ">
<path fill="none" stroke="#63b8ff" d="M507.79,-103.14C468.64,-92.71 420.59,-79.91 388.4,-71.33"/>
<polygon fill="#63b8ff" stroke="#63b8ff" points="506.97,-106.54 517.53,-105.73 508.77,-99.78 506.97,-106.54"/>
</a>
</g>
</g>
<!-- Node12&#45;&gt;Node5 -->
<g id="edge16_Node000012_Node000005" class="edge">
<title>Node12&#45;&gt;Node5</title>
<g id="a_edge16_Node000012_Node000005"><a xlink:title=" ">
<path fill="none" stroke="#63b8ff" d="M906.25,-95.84C926.85,-93.91 947.35,-91.63 964.42,-89.3"/>
<polygon fill="#63b8ff" stroke="#63b8ff" points="905.78,-92.36 896.14,-96.75 906.41,-99.34 905.78,-92.36"/>
</a>
</g>
</g>
<!-- Node12&#45;&gt;Node7 -->
<g id="edge15_Node000012_Node000007" class="edge">
<title>Node12&#45;&gt;Node7</title>
<g id="a_edge15_Node000012_Node000007"><a xlink:title=" ">
<path fill="none" stroke="#63b8ff" d="M731.98,-87.59C700.64,-82.41 663.77,-76.3 633.75,-71.33"/>
<polygon fill="#63b8ff" stroke="#63b8ff" points="731.51,-91.06 741.94,-89.24 732.65,-84.16 731.51,-91.06"/>
</a>
</g>
</g>
<!-- Node13&#45;&gt;Node4 -->
<g id="edge18_Node000013_Node000004" class="edge">
<title>Node13&#45;&gt;Node4</title>
<g id="a_edge18_Node000013_Node000004"><a xlink:title=" ">
<path fill="none" stroke="#63b8ff" d="M1310.87,-91.24C1302.25,-90.32 1293.6,-89.39 1285.15,-88.49"/>
<polygon fill="#63b8ff" stroke="#63b8ff" points="1310.63,-94.73 1320.94,-92.31 1311.37,-87.77 1310.63,-94.73"/>
</a>
</g>
</g>
</g>
</svg>

<g id="navigator" transform="translate(0 0)" fill="#404254">
  <rect fill="#f2f5e9" fill-opacity="0.5" stroke="#606060" stroke-width=".5" x="0" y="0" width="60" height="60"/>
  <use id="zoomplus" xlink:href="#zoomPlus" x="17" y="9" onmousedown="handleZoom(evt,'in')"/>
  <use id="zoomminus" xlink:href="#zoomMin" x="42" y="9" onmousedown="handleZoom(evt,'out')"/>
  <use id="reset" xlink:href="#resetDef" x="30" y="36" onmousedown="handleReset()"/>
   <use id="arrowup" xlink:href="#arrowUp" x="0" y="0" onmousedown="handlePan(0,-1)"/>
  <use id="arrowright" xlink:href="#arrowRight" x="0" y="0" onmousedown="handlePan(1,0)"/>
  <use id="arrowdown" xlink:href="#arrowDown" x="0" y="0" onmousedown="handlePan(0,1)"/>
  <use id="arrowleft" xlink:href="#arrowLeft" x="0" y="0" onmousedown="handlePan(-1,0)"/>
</g>
<svg viewBox="0 0 15 15" width="100%" height="30px" preserveAspectRatio="xMaxYMin meet">
 <g id="arrow_out" transform="scale(0.3 0.3)">
  <a xlink:href="classSettingsManager_a824eef45a26393d9038ac52ce0413596_icgraph_org.svg" target="_base">
   <rect id="button" ry="5" rx="5" y="6" x="6" height="38" width="38"
        fill="#f2f5e9" fill-opacity="0.5" stroke="#606060" stroke-width="1.0"/>
   <path id="arrow"
     d="M 11.500037,31.436501 C 11.940474,20.09759 22.043105,11.32322 32.158766,21.979434 L 37.068811,17.246167 C 37.068811,17.246167 37.088388,32 37.088388,32 L 22.160133,31.978069 C 22.160133,31.978069 26.997745,27.140456 26.997745,27.140456 C 18.528582,18.264221 13.291696,25.230495 11.500037,31.436501 z"
     style="fill:#404040;"/>
  </a>
 </g>
</svg>

<style type='text/css'>
<![CDATA[
[data-mouse-over-selected='false'] { opacity: 0.7; }
[data-mouse-over-selected='true']  { opacity: 1.0; }
]]>
</style>
<script type="application/ecmascript"><![CDATA[
document.addEventListener('DOMContentLoaded', (event) => {
  highlightEdges();
  highlightAdjacentNodes();
});
]]></script>
</svg>
