<?xml version="1.0" encoding="UTF-8" standalone="no"?>
<!DOCTYPE svg PUBLIC "-//W3C//DTD SVG 1.1//EN"
 "http://www.w3.org/Graphics/SVG/1.1/DTD/svg11.dtd">
<!-- Generated by graphviz version 2.43.0 (0)
 -->
<!-- Title: PlatformUtils::setColor Pages: 1 -->
<svg width="2238pt" height="186pt"
 viewBox="0.00 0.00 2238.00 185.99" xmlns="http://www.w3.org/2000/svg" xmlns:xlink="http://www.w3.org/1999/xlink">
<g id="graph0" class="graph" transform="scale(1 1) rotate(0) translate(4 181.99)">
<title>PlatformUtils::setColor</title>
<!-- Node1 -->
<g id="Node000001" class="node">
<title>Node1</title>
<g id="a_Node000001"><a xlink:title="Sets terminal text color.">
<polygon fill="#999999" stroke="#666666" points="2230,-110.58 2102,-110.58 2102,-91.58 2230,-91.58 2230,-110.58"/>
<text text-anchor="middle" x="2166" y="-98.58" font-family="Helvetica,sans-Serif" font-size="10.00">PlatformUtils::setColor</text>
</a>
</g>
</g>
<!-- Node2 -->
<g id="Node000002" class="node">
<title>Node2</title>
<g id="a_Node000002"><a xlink:href="classPlatformUtils.html#a4beb970cf8341aff6e4de13d02936580" target="_top" xlink:title="Resets terminal background color to default.">
<polygon fill="white" stroke="#666666" points="2066,-159.08 1896,-159.08 1896,-129.08 2066,-129.08 2066,-159.08"/>
<text text-anchor="start" x="1904" y="-147.08" font-family="Helvetica,sans-Serif" font-size="10.00">PlatformUtils::resetBackground</text>
<text text-anchor="middle" x="1981" y="-136.08" font-family="Helvetica,sans-Serif" font-size="10.00">Color</text>
</a>
</g>
</g>
<!-- Node1&#45;&gt;Node2 -->
<g id="edge1_Node000001_Node000002" class="edge">
<title>Node1&#45;&gt;Node2</title>
<g id="a_edge1_Node000001_Node000002"><a xlink:title=" ">
<path fill="none" stroke="#63b8ff" d="M2114.6,-112.92C2093.35,-117.92 2068.38,-123.78 2045.86,-129.07"/>
<polygon fill="#63b8ff" stroke="#63b8ff" points="2115.45,-116.32 2124.39,-110.62 2113.85,-109.5 2115.45,-116.32"/>
</a>
</g>
</g>
<!-- Node3 -->
<g id="Node000003" class="node">
<title>Node3</title>
<g id="a_Node000003"><a xlink:href="classPlatformUtils.html#ae3607ef4c4fbee33349ec982eda7bf07" target="_top" xlink:title="Resets terminal color to default.">
<polygon fill="white" stroke="#666666" points="2049.5,-110.58 1912.5,-110.58 1912.5,-91.58 2049.5,-91.58 2049.5,-110.58"/>
<text text-anchor="middle" x="1981" y="-98.58" font-family="Helvetica,sans-Serif" font-size="10.00">PlatformUtils::resetColor</text>
</a>
</g>
</g>
<!-- Node1&#45;&gt;Node3 -->
<g id="edge2_Node000001_Node000003" class="edge">
<title>Node1&#45;&gt;Node3</title>
<g id="a_edge2_Node000001_Node000003"><a xlink:title=" ">
<path fill="none" stroke="#63b8ff" d="M2091.76,-101.08C2077.84,-101.08 2063.34,-101.08 2049.61,-101.08"/>
<polygon fill="#63b8ff" stroke="#63b8ff" points="2091.77,-104.58 2101.77,-101.08 2091.77,-97.58 2091.77,-104.58"/>
</a>
</g>
</g>
<!-- Node18 -->
<g id="Node000018" class="node">
<title>Node18</title>
<g id="a_Node000018"><a xlink:href="classConsoleRenderer.html#af06444dbf726424a13127fd4f3a70a8d" target="_top" xlink:title="Sets terminal text color.">
<polygon fill="white" stroke="#666666" points="1855,-72.58 1709,-72.58 1709,-53.58 1855,-53.58 1855,-72.58"/>
<text text-anchor="middle" x="1782" y="-60.58" font-family="Helvetica,sans-Serif" font-size="10.00">ConsoleRenderer::setColor</text>
</a>
</g>
</g>
<!-- Node1&#45;&gt;Node18 -->
<g id="edge24_Node000001_Node000018" class="edge">
<title>Node1&#45;&gt;Node18</title>
<g id="a_edge24_Node000001_Node000018"><a xlink:title=" ">
<path fill="none" stroke="#63b8ff" d="M2111.4,-89.55C2096.74,-86.74 2080.81,-83.99 2066,-82.08 1994.57,-72.86 1912.4,-67.98 1855.06,-65.48"/>
<polygon fill="#63b8ff" stroke="#63b8ff" points="2110.84,-93.01 2121.32,-91.5 2112.19,-86.14 2110.84,-93.01"/>
</a>
</g>
</g>
<!-- Node4 -->
<g id="Node000004" class="node">
<title>Node4</title>
<g id="a_Node000004"><a xlink:href="classConsoleRenderer.html#a39097953ecd72be19860424c9d00b0ea" target="_top" xlink:title="Resets terminal color to default.">
<polygon fill="white" stroke="#666666" points="1860,-110.58 1704,-110.58 1704,-91.58 1860,-91.58 1860,-110.58"/>
<text text-anchor="middle" x="1782" y="-98.58" font-family="Helvetica,sans-Serif" font-size="10.00">ConsoleRenderer::resetColor</text>
</a>
</g>
</g>
<!-- Node3&#45;&gt;Node4 -->
<g id="edge3_Node000003_Node000004" class="edge">
<title>Node3&#45;&gt;Node4</title>
<g id="a_edge3_Node000003_Node000004"><a xlink:title=" ">
<path fill="none" stroke="#63b8ff" d="M1902.08,-101.08C1888.32,-101.08 1874,-101.08 1860.25,-101.08"/>
<polygon fill="#63b8ff" stroke="#63b8ff" points="1902.48,-104.58 1912.48,-101.08 1902.48,-97.58 1902.48,-104.58"/>
</a>
</g>
</g>
<!-- Node5 -->
<g id="Node000005" class="node">
<title>Node5</title>
<g id="a_Node000005"><a xlink:href="classConsoleRenderer.html#ab6e419a1d0f420decceba8e545890318" target="_top" xlink:title="Draws map preview for selection screen.">
<polygon fill="white" stroke="#666666" points="1660,-97.08 1509,-97.08 1509,-67.08 1660,-67.08 1660,-97.08"/>
<text text-anchor="start" x="1517" y="-85.08" font-family="Helvetica,sans-Serif" font-size="10.00">ConsoleRenderer::drawMap</text>
<text text-anchor="middle" x="1584.5" y="-74.08" font-family="Helvetica,sans-Serif" font-size="10.00">Preview</text>
</a>
</g>
</g>
<!-- Node4&#45;&gt;Node5 -->
<g id="edge4_Node000004_Node000005" class="edge">
<title>Node4&#45;&gt;Node5</title>
<g id="a_edge4_Node000004_Node000005"><a xlink:title=" ">
<path fill="none" stroke="#63b8ff" d="M1693.59,-92.59C1682.48,-91.51 1671.18,-90.41 1660.29,-89.35"/>
<polygon fill="#63b8ff" stroke="#63b8ff" points="1693.44,-96.09 1703.73,-93.57 1694.12,-89.12 1693.44,-96.09"/>
</a>
</g>
</g>
<!-- Node15 -->
<g id="Node000015" class="node">
<title>Node15</title>
<g id="a_Node000015"><a xlink:href="classConsoleRenderer.html#a216eb9680760729497094ddbebb118e2" target="_top" xlink:title="Draws a single colored pixel/character.">
<polygon fill="white" stroke="#666666" points="1661,-134.58 1508,-134.58 1508,-115.58 1661,-115.58 1661,-134.58"/>
<text text-anchor="middle" x="1584.5" y="-122.58" font-family="Helvetica,sans-Serif" font-size="10.00">ConsoleRenderer::drawPixel</text>
</a>
</g>
</g>
<!-- Node4&#45;&gt;Node15 -->
<g id="edge19_Node000004_Node000015" class="edge">
<title>Node4&#45;&gt;Node15</title>
<g id="a_edge19_Node000004_Node000015"><a xlink:title=" ">
<path fill="none" stroke="#63b8ff" d="M1693.49,-111.82C1682.73,-113.14 1671.81,-114.49 1661.25,-115.78"/>
<polygon fill="#63b8ff" stroke="#63b8ff" points="1694.23,-115.26 1703.73,-110.57 1693.38,-108.31 1694.23,-115.26"/>
</a>
</g>
</g>
<!-- Node16 -->
<g id="Node000016" class="node">
<title>Node16</title>
<g id="a_Node000016"><a xlink:href="classConsoleRenderer.html#ae0a5ec8d9b0ab1252c3a8a9eae7bceaa" target="_top" xlink:title="Draws symbol legend explaining game symbols.">
<polygon fill="white" stroke="#666666" points="1668,-49.08 1501,-49.08 1501,-19.08 1668,-19.08 1668,-49.08"/>
<text text-anchor="start" x="1509" y="-37.08" font-family="Helvetica,sans-Serif" font-size="10.00">ConsoleRenderer::drawSymbol</text>
<text text-anchor="middle" x="1584.5" y="-26.08" font-family="Helvetica,sans-Serif" font-size="10.00">Legend</text>
</a>
</g>
</g>
<!-- Node4&#45;&gt;Node16 -->
<g id="edge20_Node000004_Node000016" class="edge">
<title>Node4&#45;&gt;Node16</title>
<g id="a_edge20_Node000004_Node000016"><a xlink:title=" ">
<path fill="none" stroke="#63b8ff" d="M1724.88,-88.72C1717.74,-86.51 1710.61,-83.97 1704,-81.08 1686.6,-73.49 1685.29,-65.92 1668,-58.08 1660.66,-54.75 1652.75,-51.76 1644.83,-49.11"/>
<polygon fill="#63b8ff" stroke="#63b8ff" points="1724.02,-92.12 1734.6,-91.55 1725.97,-85.4 1724.02,-92.12"/>
</a>
</g>
</g>
<!-- Node17 -->
<g id="Node000017" class="node">
<title>Node17</title>
<g id="a_Node000017"><a xlink:href="classConsoleRenderer.html#ab34fa7af4ede79de3951f1d5271d7a27" target="_top" xlink:title="Renders the game world to console.">
<polygon fill="white" stroke="#666666" points="1458,-29.58 1321,-29.58 1321,-10.58 1458,-10.58 1458,-29.58"/>
<text text-anchor="middle" x="1389.5" y="-17.58" font-family="Helvetica,sans-Serif" font-size="10.00">ConsoleRenderer::render</text>
</a>
</g>
</g>
<!-- Node4&#45;&gt;Node17 -->
<g id="edge23_Node000004_Node000017" class="edge">
<title>Node4&#45;&gt;Node17</title>
<g id="a_edge23_Node000004_Node000017"><a xlink:title=" ">
<path fill="none" stroke="#63b8ff" d="M1755.93,-115.48C1703.79,-143.34 1581.78,-197.35 1501,-144.08 1467.09,-121.72 1492.43,-90.04 1465,-60.08 1452.31,-46.22 1433.68,-36.22 1418.23,-29.69"/>
<polygon fill="#63b8ff" stroke="#63b8ff" points="1757.73,-118.49 1764.83,-110.62 1754.38,-112.35 1757.73,-118.49"/>
</a>
</g>
</g>
<!-- Node6 -->
<g id="Node000006" class="node">
<title>Node6</title>
<g id="a_Node000006"><a xlink:href="classConsoleRenderer.html#afd03640670c991dfa8240af639c2f0da" target="_top" xlink:title="Draws map selection screen.">
<polygon fill="white" stroke="#666666" points="1465,-99.08 1314,-99.08 1314,-69.08 1465,-69.08 1465,-99.08"/>
<text text-anchor="start" x="1322" y="-87.08" font-family="Helvetica,sans-Serif" font-size="10.00">ConsoleRenderer::drawMap</text>
<text text-anchor="middle" x="1389.5" y="-76.08" font-family="Helvetica,sans-Serif" font-size="10.00">Selection</text>
</a>
</g>
</g>
<!-- Node5&#45;&gt;Node6 -->
<g id="edge5_Node000005_Node000006" class="edge">
<title>Node5&#45;&gt;Node6</title>
<g id="a_edge5_Node000005_Node000006"><a xlink:title=" ">
<path fill="none" stroke="#63b8ff" d="M1498.72,-82.96C1487.57,-83.08 1476.21,-83.19 1465.24,-83.31"/>
<polygon fill="#63b8ff" stroke="#63b8ff" points="1498.92,-86.46 1508.88,-82.85 1498.85,-79.46 1498.92,-86.46"/>
</a>
</g>
</g>
<!-- Node7 -->
<g id="Node000007" class="node">
<title>Node7</title>
<g id="a_Node000007"><a xlink:href="classGameController.html#a4a9c94fe33cf6c73bb5dfc415d04d309" target="_top" xlink:title="Displays map selection screen.">
<polygon fill="white" stroke="#666666" points="1278,-96.58 1087,-96.58 1087,-77.58 1278,-77.58 1278,-96.58"/>
<text text-anchor="middle" x="1182.5" y="-84.58" font-family="Helvetica,sans-Serif" font-size="10.00">GameController::showMapSelection</text>
</a>
</g>
</g>
<!-- Node6&#45;&gt;Node7 -->
<g id="edge6_Node000006_Node000007" class="edge">
<title>Node6&#45;&gt;Node7</title>
<g id="a_edge6_Node000006_Node000007"><a xlink:title=" ">
<path fill="none" stroke="#63b8ff" d="M1303.77,-85.32C1295.38,-85.44 1286.82,-85.57 1278.34,-85.69"/>
<polygon fill="#63b8ff" stroke="#63b8ff" points="1303.96,-88.82 1313.91,-85.17 1303.86,-81.82 1303.96,-88.82"/>
</a>
</g>
</g>
<!-- Node8 -->
<g id="Node000008" class="node">
<title>Node8</title>
<g id="a_Node000008"><a xlink:href="classGameController.html#a971b3d8f6296a74f0bebc83b5e79c186" target="_top" xlink:title="Processes a user command.">
<polygon fill="white" stroke="#666666" points="669,-105.58 481,-105.58 481,-86.58 669,-86.58 669,-105.58"/>
<text text-anchor="middle" x="575" y="-93.58" font-family="Helvetica,sans-Serif" font-size="10.00">GameController::processCommand</text>
</a>
</g>
</g>
<!-- Node7&#45;&gt;Node8 -->
<g id="edge7_Node000007_Node000008" class="edge">
<title>Node7&#45;&gt;Node8</title>
<g id="a_edge7_Node000007_Node000008"><a xlink:title=" ">
<path fill="none" stroke="#63b8ff" d="M1090.38,-76.55C994.3,-67.14 838.65,-56.75 705,-70.08 673.74,-73.2 638.85,-80.47 613.24,-86.53"/>
<polygon fill="#63b8ff" stroke="#63b8ff" points="1090.05,-80.03 1100.35,-77.54 1090.75,-73.07 1090.05,-80.03"/>
</a>
</g>
</g>
<!-- Node12 -->
<g id="Node000012" class="node">
<title>Node12</title>
<g id="a_Node000012"><a xlink:href="classGameController.html#a9d11b5a6255b7249bddba49df0837cf3" target="_top" xlink:title="Displays and manages the main menu.">
<polygon fill="white" stroke="#666666" points="1051,-117.58 899,-117.58 899,-98.58 1051,-98.58 1051,-117.58"/>
<text text-anchor="middle" x="975" y="-105.58" font-family="Helvetica,sans-Serif" font-size="10.00">GameController::showMenu</text>
</a>
</g>
</g>
<!-- Node7&#45;&gt;Node12 -->
<g id="edge11_Node000007_Node000012" class="edge">
<title>Node7&#45;&gt;Node12</title>
<g id="a_edge11_Node000007_Node000012"><a xlink:title=" ">
<path fill="none" stroke="#63b8ff" d="M1076.86,-91.03C1055.06,-93.28 1033.38,-95.92 1015.73,-98.56"/>
<polygon fill="#63b8ff" stroke="#63b8ff" points="1077.27,-94.5 1086.87,-90.02 1076.57,-87.54 1077.27,-94.5"/>
</a>
</g>
</g>
<!-- Node9 -->
<g id="Node000009" class="node">
<title>Node9</title>
<g id="a_Node000009"><a xlink:href="classGameController.html#af2367e58f03d8a1441c9a574967fd360" target="_top" xlink:title="Processes a single game turn/update cycle.">
<polygon fill="white" stroke="#666666" points="445,-120.58 258,-120.58 258,-101.58 445,-101.58 445,-120.58"/>
<text text-anchor="middle" x="351.5" y="-108.58" font-family="Helvetica,sans-Serif" font-size="10.00">GameController::processGameTurn</text>
</a>
</g>
</g>
<!-- Node8&#45;&gt;Node9 -->
<g id="edge8_Node000008_Node000009" class="edge">
<title>Node8&#45;&gt;Node9</title>
<g id="a_edge8_Node000008_Node000009"><a xlink:title=" ">
<path fill="none" stroke="#63b8ff" d="M470.5,-103.09C462.1,-103.66 453.65,-104.23 445.33,-104.79"/>
<polygon fill="#63b8ff" stroke="#63b8ff" points="470.97,-106.57 480.71,-102.4 470.49,-99.58 470.97,-106.57"/>
</a>
</g>
</g>
<!-- Node10 -->
<g id="Node000010" class="node">
<title>Node10</title>
<g id="a_Node000010"><a xlink:href="classGameController.html#ac958989c8f7f08488546930e5fcb0d82" target="_top" xlink:title="Starts and runs the main game loop.">
<polygon fill="white" stroke="#666666" points="222,-159.58 77,-159.58 77,-140.58 222,-140.58 222,-159.58"/>
<text text-anchor="middle" x="149.5" y="-147.58" font-family="Helvetica,sans-Serif" font-size="10.00">GameController::runGame</text>
</a>
</g>
</g>
<!-- Node9&#45;&gt;Node10 -->
<g id="edge9_Node000009_Node000010" class="edge">
<title>Node9&#45;&gt;Node10</title>
<g id="a_edge9_Node000009_Node000010"><a xlink:title=" ">
<path fill="none" stroke="#63b8ff" d="M291.45,-122.6C262.1,-128.32 227.07,-135.15 199.27,-140.57"/>
<polygon fill="#63b8ff" stroke="#63b8ff" points="292.43,-125.97 301.57,-120.62 291.09,-119.1 292.43,-125.97"/>
</a>
</g>
</g>
<!-- Node11 -->
<g id="Node000011" class="node">
<title>Node11</title>
<g id="a_Node000011"><a xlink:href="main_8cpp.html#ae66f6b31b5ad750f1fe042a706a4e3d4" target="_top" xlink:title="Main function that serves as the application entry point.">
<polygon fill="white" stroke="#666666" points="41,-159.58 0,-159.58 0,-140.58 41,-140.58 41,-159.58"/>
<text text-anchor="middle" x="20.5" y="-147.58" font-family="Helvetica,sans-Serif" font-size="10.00">main</text>
</a>
</g>
</g>
<!-- Node10&#45;&gt;Node11 -->
<g id="edge10_Node000010_Node000011" class="edge">
<title>Node10&#45;&gt;Node11</title>
<g id="a_edge10_Node000010_Node000011"><a xlink:title=" ">
<path fill="none" stroke="#63b8ff" d="M66.79,-150.08C57.31,-150.08 48.43,-150.08 41.08,-150.08"/>
<polygon fill="#63b8ff" stroke="#63b8ff" points="66.83,-153.58 76.83,-150.08 66.83,-146.58 66.83,-153.58"/>
</a>
</g>
</g>
<!-- Node12&#45;&gt;Node7 -->
<g id="edge18_Node000012_Node000007" class="edge">
<title>Node12&#45;&gt;Node7</title>
<g id="a_edge18_Node000012_Node000007"><a xlink:title=" ">
<path fill="none" stroke="#63b8ff" d="M1061.47,-106.01C1089.37,-103.44 1119.02,-100.01 1141.88,-96.59"/>
<polygon fill="#63b8ff" stroke="#63b8ff" points="1060.93,-102.55 1051.28,-106.92 1061.55,-109.52 1060.93,-102.55"/>
</a>
</g>
</g>
<!-- Node12&#45;&gt;Node8 -->
<g id="edge14_Node000012_Node000008" class="edge">
<title>Node12&#45;&gt;Node8</title>
<g id="a_edge14_Node000012_Node000008"><a xlink:title=" ">
<path fill="none" stroke="#63b8ff" d="M888.86,-109.53C835.92,-110 766.47,-109.81 705,-107.08 693.44,-106.57 681.3,-105.82 669.3,-104.94"/>
<polygon fill="#63b8ff" stroke="#63b8ff" points="888.92,-113.03 898.88,-109.44 888.85,-106.03 888.92,-113.03"/>
</a>
</g>
</g>
<!-- Node12&#45;&gt;Node10 -->
<g id="edge15_Node000012_Node000010" class="edge">
<title>Node12&#45;&gt;Node10</title>
<g id="a_edge15_Node000012_Node000010"><a xlink:title=" ">
<path fill="none" stroke="#63b8ff" d="M940.26,-121.23C918.51,-129.22 889.44,-139.03 863,-145.08 633.29,-197.65 350.91,-174.75 221.45,-159.59"/>
<polygon fill="#63b8ff" stroke="#63b8ff" points="941.56,-124.48 949.7,-117.7 939.11,-117.92 941.56,-124.48"/>
</a>
</g>
</g>
<!-- Node13 -->
<g id="Node000013" class="node">
<title>Node13</title>
<g id="a_Node000013"><a xlink:href="classGameController.html#a637ea4e72ed2be4a2884b30160b3e8ab" target="_top" xlink:title="Pauses the game and displays pause screen.">
<polygon fill="white" stroke="#666666" points="863,-98.58 705,-98.58 705,-79.58 863,-79.58 863,-98.58"/>
<text text-anchor="middle" x="784" y="-86.58" font-family="Helvetica,sans-Serif" font-size="10.00">GameController::pauseGame</text>
</a>
</g>
</g>
<!-- Node12&#45;&gt;Node13 -->
<g id="edge12_Node000012_Node000013" class="edge">
<title>Node12&#45;&gt;Node13</title>
<g id="a_edge12_Node000012_Node000013"><a xlink:title=" ">
<path fill="none" stroke="#63b8ff" d="M888.78,-99.51C880.22,-98.65 871.56,-97.78 863.08,-96.93"/>
<polygon fill="#63b8ff" stroke="#63b8ff" points="888.46,-103 898.76,-100.52 889.16,-96.03 888.46,-103"/>
</a>
</g>
</g>
<!-- Node14 -->
<g id="Node000014" class="node">
<title>Node14</title>
<g id="a_Node000014"><a xlink:href="classGameController.html#a85bcf4ecfd197aad278e116215a3717b" target="_top" xlink:title="Displays level completion screen.">
<polygon fill="white" stroke="#666666" points="651,-161.08 499,-161.08 499,-131.08 651,-131.08 651,-161.08"/>
<text text-anchor="start" x="507" y="-149.08" font-family="Helvetica,sans-Serif" font-size="10.00">GameController::showLevel</text>
<text text-anchor="middle" x="575" y="-138.08" font-family="Helvetica,sans-Serif" font-size="10.00">CompleteScreen</text>
</a>
</g>
</g>
<!-- Node12&#45;&gt;Node14 -->
<g id="edge16_Node000012_Node000014" class="edge">
<title>Node12&#45;&gt;Node14</title>
<g id="a_edge16_Node000012_Node000014"><a xlink:title=" ">
<path fill="none" stroke="#63b8ff" d="M897.87,-118.93C886.21,-120.43 874.29,-121.87 863,-123.08 791.18,-130.81 709,-137.14 651.04,-141.19"/>
<polygon fill="#63b8ff" stroke="#63b8ff" points="898.58,-122.36 908.04,-117.59 897.67,-115.42 898.58,-122.36"/>
</a>
</g>
</g>
<!-- Node13&#45;&gt;Node8 -->
<g id="edge13_Node000013_Node000008" class="edge">
<title>Node13&#45;&gt;Node8</title>
<g id="a_edge13_Node000013_Node000008"><a xlink:title=" ">
<path fill="none" stroke="#63b8ff" d="M694.62,-92.07C686.25,-92.35 677.75,-92.64 669.34,-92.92"/>
<polygon fill="#63b8ff" stroke="#63b8ff" points="694.87,-95.56 704.74,-91.73 694.63,-88.57 694.87,-95.56"/>
</a>
</g>
</g>
<!-- Node14&#45;&gt;Node9 -->
<g id="edge17_Node000014_Node000009" class="edge">
<title>Node14&#45;&gt;Node9</title>
<g id="a_edge17_Node000014_Node000009"><a xlink:title=" ">
<path fill="none" stroke="#63b8ff" d="M488.74,-132.61C463.45,-128.61 436.29,-124.32 412.92,-120.63"/>
<polygon fill="#63b8ff" stroke="#63b8ff" points="488.28,-136.08 498.7,-134.18 489.37,-129.16 488.28,-136.08"/>
</a>
</g>
</g>
<!-- Node16&#45;&gt;Node17 -->
<g id="edge21_Node000016_Node000017" class="edge">
<title>Node16&#45;&gt;Node17</title>
<g id="a_edge21_Node000016_Node000017"><a xlink:title=" ">
<path fill="none" stroke="#63b8ff" d="M1490.76,-27.35C1479.78,-26.56 1468.73,-25.76 1458.19,-24.99"/>
<polygon fill="#63b8ff" stroke="#63b8ff" points="1490.58,-30.85 1500.81,-28.08 1491.09,-23.87 1490.58,-30.85"/>
</a>
</g>
</g>
<!-- Node17&#45;&gt;Node9 -->
<g id="edge22_Node000017_Node000009" class="edge">
<title>Node17&#45;&gt;Node9</title>
<g id="a_edge22_Node000017_Node000009"><a xlink:title=" ">
<path fill="none" stroke="#63b8ff" d="M1310.89,-17.98C1227.98,-15.92 1092.72,-13.08 976,-13.08 976,-13.08 976,-13.08 783,-13.08 624.71,-13.08 441.67,-76.85 376.81,-101.51"/>
<polygon fill="#63b8ff" stroke="#63b8ff" points="1310.9,-21.48 1320.98,-18.23 1311.08,-14.48 1310.9,-21.48"/>
</a>
</g>
</g>
<!-- Node18&#45;&gt;Node5 -->
<g id="edge25_Node000018_Node000005" class="edge">
<title>Node18&#45;&gt;Node5</title>
<g id="a_edge25_Node000018_Node000005"><a xlink:title=" ">
<path fill="none" stroke="#63b8ff" d="M1698.6,-71.09C1685.81,-72.33 1672.66,-73.61 1660.06,-74.83"/>
<polygon fill="#63b8ff" stroke="#63b8ff" points="1699.14,-74.55 1708.76,-70.1 1698.47,-67.59 1699.14,-74.55"/>
</a>
</g>
</g>
<!-- Node18&#45;&gt;Node15 -->
<g id="edge26_Node000018_Node000015" class="edge">
<title>Node18&#45;&gt;Node15</title>
<g id="a_edge26_Node000018_Node000015"><a xlink:title=" ">
<path fill="none" stroke="#63b8ff" d="M1721.27,-75.62C1715.34,-77.52 1709.49,-79.66 1704,-82.08 1686.4,-89.83 1685.66,-98.47 1668,-106.08 1659.09,-109.92 1649.29,-113.05 1639.66,-115.57"/>
<polygon fill="#63b8ff" stroke="#63b8ff" points="1722.68,-78.86 1731.28,-72.66 1720.69,-72.14 1722.68,-78.86"/>
</a>
</g>
</g>
<!-- Node18&#45;&gt;Node16 -->
<g id="edge27_Node000018_Node000016" class="edge">
<title>Node18&#45;&gt;Node16</title>
<g id="a_edge27_Node000018_Node000016"><a xlink:title=" ">
<path fill="none" stroke="#63b8ff" d="M1706.77,-52.07C1694.21,-50.21 1681.09,-48.26 1668.32,-46.37"/>
<polygon fill="#63b8ff" stroke="#63b8ff" points="1706.31,-55.54 1716.72,-53.55 1707.34,-48.62 1706.31,-55.54"/>
</a>
</g>
</g>
<!-- Node18&#45;&gt;Node17 -->
<g id="edge28_Node000018_Node000017" class="edge">
<title>Node18&#45;&gt;Node17</title>
<g id="a_edge28_Node000018_Node000017"><a xlink:title=" ">
<path fill="none" stroke="#63b8ff" d="M1757.37,-48.22C1735.24,-35.25 1700.76,-17.38 1668,-10.08 1590.6,7.17 1498.09,-1.88 1441.85,-10.55"/>
<polygon fill="#63b8ff" stroke="#63b8ff" points="1755.68,-51.29 1766.05,-53.44 1759.28,-45.29 1755.68,-51.29"/>
</a>
</g>
</g>
</g>
</svg>
