<?xml version="1.0" encoding="UTF-8" standalone="no"?>
<!DOCTYPE svg PUBLIC "-//W3C//DTD SVG 1.1//EN"
 "http://www.w3.org/Graphics/SVG/1.1/DTD/svg11.dtd">
<!-- Generated by graphviz version 2.43.0 (0)
 -->
<!-- Title: MapManager::saveMapToFile Pages: 1 -->
<!--zoomable 131 -->

<svg id="main" version="1.1" xmlns="http://www.w3.org/2000/svg" xmlns:xlink="http://www.w3.org/1999/xlink" xml:space="preserve" onload="init(evt)">
<style type="text/css"><![CDATA[
.node, .edge {opacity: 0.7;}
.node.selected, .edge.selected {opacity: 1;}
.edge:hover path { stroke: red; }
.edge:hover polygon { stroke: red; fill: red; }
]]></style>

<defs>
  <circle id="rim" cx="0" cy="0" r="7"/>
  <circle id="rim2" cx="0" cy="0" r="3.5"/>
  <g id="zoomPlus">
    <use xlink:href="#rim" fill="#404040"><set attributeName="fill" to="#808080" begin="zoomplus.mouseover" end="zoomplus.mouseout"/></use>
    <path d="M-4,0h8M0,-4v8" fill="none" stroke="white" stroke-width="1.5" pointer-events="none"/>
  </g>
  <g id="zoomMin">
    <use xlink:href="#rim" fill="#404040"><set attributeName="fill" to="#808080" begin="zoomminus.mouseover" end="zoomminus.mouseout"/></use>
    <path d="M-4,0h8" fill="none" stroke="white" stroke-width="1.5" pointer-events="none"/>
  </g>
  <g id="arrowUp" transform="translate(30 24)">
    <use xlink:href="#rim"/>
    <path pointer-events="none" fill="none" stroke="white" stroke-width="1.5" d="M0,-3.0v7 M-2.5,-0.5L0,-3.0L2.5,-0.5"/>
  </g>
  <g id="arrowRight" transform="rotate(90) translate(36 -43)">
    <use xlink:href="#rim"/>
    <path pointer-events="none" fill="none" stroke="white" stroke-width="1.5" d="M0,-3.0v7 M-2.5,-0.5L0,-3.0L2.5,-0.5"/>
  </g>
  <g id="arrowDown" transform="rotate(180) translate(-30 -48)">
    <use xlink:href="#rim"/>
    <path pointer-events="none" fill="none" stroke="white" stroke-width="1.5" d="M0,-3.0v7 M-2.5,-0.5L0,-3.0L2.5,-0.5"/>
  </g>
  <g id="arrowLeft" transform="rotate(270) translate(-36 17)">
    <use xlink:href="#rim"/>
    <path pointer-events="none" fill="none" stroke="white" stroke-width="1.5" d="M0,-3.0v7 M-2.5,-0.5L0,-3.0L2.5,-0.5"/>
  </g>
  <g id="resetDef">
    <use xlink:href="#rim2" fill="#404040"><set attributeName="fill" to="#808080" begin="reset.mouseover" end="reset.mouseout"/></use>
  </g>
</defs>
<script type="application/ecmascript">
var viewWidth = 1865;
var viewHeight = 131;
var sectionId = 'dynsection-17';
</script>
<script type="application/ecmascript" xlink:href="svg.min.js"/>
<svg id="graph" class="graph">
<g id="viewport">
<title>MapManager::saveMapToFile</title>
<!-- Node1 -->
<g id="Node000001" class="node">
<title>Node1</title>
<g id="a_Node000001"><a xlink:title="Saves map to file.">
<polygon fill="#999999" stroke="#666666" points="1857,-38 1699,-38 1699,-19 1857,-19 1857,-38"/>
<text text-anchor="middle" x="1778" y="-26" font-family="Helvetica,sans-Serif" font-size="10.00">MapManager::saveMapToFile</text>
</a>
</g>
</g>
<!-- Node2 -->
<g id="Node000002" class="node">
<title>Node2</title>
<g id="a_Node000002"><a xlink:href="classMapManager.html#ad0adbcfa1331904665af1868edb052ab" target="_top" xlink:title="Creates default maps if none exist.">
<polygon fill="white" stroke="#666666" points="1663,-38 1484,-38 1484,-19 1663,-19 1663,-38"/>
<text text-anchor="middle" x="1573.5" y="-26" font-family="Helvetica,sans-Serif" font-size="10.00">MapManager::createDefaultMaps</text>
</a>
</g>
</g>
<!-- Node1&#45;&gt;Node2 -->
<g id="edge1_Node000001_Node000002" class="edge">
<title>Node1&#45;&gt;Node2</title>
<g id="a_edge1_Node000001_Node000002"><a xlink:title=" ">
<path fill="none" stroke="#63b8ff" d="M1688.76,-28.5C1680.3,-28.5 1671.72,-28.5 1663.26,-28.5"/>
<polygon fill="#63b8ff" stroke="#63b8ff" points="1689,-32 1699,-28.5 1689,-25 1689,-32"/>
</a>
</g>
</g>
<!-- Node3 -->
<g id="Node000003" class="node">
<title>Node3</title>
<g id="a_Node000003"><a xlink:href="classMapManager.html#a5242ad70cbfc71d06233f84723dd1b7b" target="_top" xlink:title="Loads all maps from directory.">
<polygon fill="white" stroke="#666666" points="1448,-57 1314,-57 1314,-38 1448,-38 1448,-57"/>
<text text-anchor="middle" x="1381" y="-45" font-family="Helvetica,sans-Serif" font-size="10.00">MapManager::loadMaps</text>
</a>
</g>
</g>
<!-- Node2&#45;&gt;Node3 -->
<g id="edge2_Node000002_Node000003" class="edge">
<title>Node2&#45;&gt;Node3</title>
<g id="a_edge2_Node000002_Node000003"><a xlink:title=" ">
<path fill="none" stroke="#63b8ff" d="M1473.76,-38.35C1465.09,-39.21 1456.45,-40.07 1448.14,-40.9"/>
<polygon fill="#63b8ff" stroke="#63b8ff" points="1474.34,-41.81 1483.94,-37.33 1473.64,-34.84 1474.34,-41.81"/>
</a>
</g>
</g>
<!-- Node5 -->
<g id="Node000005" class="node">
<title>Node5</title>
<g id="a_Node000005"><a xlink:href="classMapManager.html#af8ca8a92db6b8ee300368921fccac460" target="_top" xlink:title="Constructs a MapManager object.">
<polygon fill="white" stroke="#666666" points="1257.5,-19 1107.5,-19 1107.5,0 1257.5,0 1257.5,-19"/>
<text text-anchor="middle" x="1182.5" y="-7" font-family="Helvetica,sans-Serif" font-size="10.00">MapManager::MapManager</text>
</a>
</g>
</g>
<!-- Node2&#45;&gt;Node5 -->
<g id="edge18_Node000002_Node000005" class="edge">
<title>Node2&#45;&gt;Node5</title>
<g id="a_edge18_Node000002_Node000005"><a xlink:title=" ">
<path fill="none" stroke="#63b8ff" d="M1473.55,-23.67C1406.29,-20.38 1318.75,-16.11 1257.51,-13.11"/>
<polygon fill="#63b8ff" stroke="#63b8ff" points="1473.58,-27.17 1483.74,-24.16 1473.93,-20.18 1473.58,-27.17"/>
</a>
</g>
</g>
<!-- Node4 -->
<g id="Node000004" class="node">
<title>Node4</title>
<g id="a_Node000004"><a xlink:href="classGameController.html#a54d4ccea0379465b0806dae60d1baeb2" target="_top" xlink:title="Constructs a GameController object.">
<polygon fill="white" stroke="#666666" points="1271,-56 1094,-56 1094,-37 1271,-37 1271,-56"/>
<text text-anchor="middle" x="1182.5" y="-44" font-family="Helvetica,sans-Serif" font-size="10.00">GameController::GameController</text>
</a>
</g>
</g>
<!-- Node3&#45;&gt;Node4 -->
<g id="edge3_Node000003_Node000004" class="edge">
<title>Node3&#45;&gt;Node4</title>
<g id="a_edge3_Node000003_Node000004"><a xlink:title=" ">
<path fill="none" stroke="#63b8ff" d="M1303.64,-47.11C1292.97,-47.06 1281.94,-47 1271.08,-46.95"/>
<polygon fill="#63b8ff" stroke="#63b8ff" points="1303.73,-50.61 1313.75,-47.16 1303.77,-43.61 1303.73,-50.61"/>
</a>
</g>
</g>
<!-- Node3&#45;&gt;Node5 -->
<g id="edge4_Node000003_Node000005" class="edge">
<title>Node3&#45;&gt;Node5</title>
<g id="a_edge4_Node000003_Node000005"><a xlink:title=" ">
<path fill="none" stroke="#63b8ff" d="M1321.58,-35.99C1307.32,-33.19 1292.11,-30.23 1278,-27.5 1263.73,-24.74 1248.25,-21.78 1234.02,-19.07"/>
<polygon fill="#63b8ff" stroke="#63b8ff" points="1321.27,-39.49 1331.76,-37.98 1322.62,-32.63 1321.27,-39.49"/>
</a>
</g>
</g>
<!-- Node6 -->
<g id="Node000006" class="node">
<title>Node6</title>
<g id="a_Node000006"><a xlink:href="classGameController.html#a4a9c94fe33cf6c73bb5dfc415d04d309" target="_top" xlink:title="Displays map selection screen.">
<polygon fill="white" stroke="#666666" points="1278,-93 1087,-93 1087,-74 1278,-74 1278,-93"/>
<text text-anchor="middle" x="1182.5" y="-81" font-family="Helvetica,sans-Serif" font-size="10.00">GameController::showMapSelection</text>
</a>
</g>
</g>
<!-- Node3&#45;&gt;Node6 -->
<g id="edge5_Node000003_Node000006" class="edge">
<title>Node3&#45;&gt;Node6</title>
<g id="a_edge5_Node000003_Node000006"><a xlink:title=" ">
<path fill="none" stroke="#63b8ff" d="M1318.17,-58.83C1291.66,-63.68 1261.02,-69.3 1235.68,-73.94"/>
<polygon fill="#63b8ff" stroke="#63b8ff" points="1318.91,-62.25 1328.11,-57.01 1317.65,-55.37 1318.91,-62.25"/>
</a>
</g>
</g>
<!-- Node7 -->
<g id="Node000007" class="node">
<title>Node7</title>
<g id="a_Node000007"><a xlink:href="classGameController.html#a971b3d8f6296a74f0bebc83b5e79c186" target="_top" xlink:title="Processes a user command.">
<polygon fill="white" stroke="#666666" points="669,-117 481,-117 481,-98 669,-98 669,-117"/>
<text text-anchor="middle" x="575" y="-105" font-family="Helvetica,sans-Serif" font-size="10.00">GameController::processCommand</text>
</a>
</g>
</g>
<!-- Node6&#45;&gt;Node7 -->
<g id="edge6_Node000006_Node000007" class="edge">
<title>Node6&#45;&gt;Node7</title>
<g id="a_edge6_Node000006_Node000007"><a xlink:title=" ">
<path fill="none" stroke="#63b8ff" d="M1110.87,-94.5C1091.49,-97.32 1070.46,-100.21 1051,-102.5 898.1,-120.53 858.8,-126.64 705,-119.5 692.64,-118.93 679.64,-118.05 666.84,-117.02"/>
<polygon fill="#63b8ff" stroke="#63b8ff" points="1111.46,-97.95 1120.84,-93.03 1110.44,-91.03 1111.46,-97.95"/>
</a>
</g>
</g>
<!-- Node11 -->
<g id="Node000011" class="node">
<title>Node11</title>
<g id="a_Node000011"><a xlink:href="classGameController.html#a9d11b5a6255b7249bddba49df0837cf3" target="_top" xlink:title="Displays and manages the main menu.">
<polygon fill="white" stroke="#666666" points="1051,-93 899,-93 899,-74 1051,-74 1051,-93"/>
<text text-anchor="middle" x="975" y="-81" font-family="Helvetica,sans-Serif" font-size="10.00">GameController::showMenu</text>
</a>
</g>
</g>
<!-- Node6&#45;&gt;Node11 -->
<g id="edge10_Node000006_Node000011" class="edge">
<title>Node6&#45;&gt;Node11</title>
<g id="a_edge10_Node000006_Node000011"><a xlink:title=" ">
<path fill="none" stroke="#63b8ff" d="M1076.72,-76.75C1068.06,-76.76 1059.43,-76.84 1051.06,-76.97"/>
<polygon fill="#63b8ff" stroke="#63b8ff" points="1076.86,-80.25 1086.87,-76.77 1076.88,-73.25 1076.86,-80.25"/>
</a>
</g>
</g>
<!-- Node8 -->
<g id="Node000008" class="node">
<title>Node8</title>
<g id="a_Node000008"><a xlink:href="classGameController.html#af2367e58f03d8a1441c9a574967fd360" target="_top" xlink:title="Processes a single game turn/update cycle.">
<polygon fill="white" stroke="#666666" points="445,-60 258,-60 258,-41 445,-41 445,-60"/>
<text text-anchor="middle" x="351.5" y="-48" font-family="Helvetica,sans-Serif" font-size="10.00">GameController::processGameTurn</text>
</a>
</g>
</g>
<!-- Node7&#45;&gt;Node8 -->
<g id="edge7_Node000007_Node000008" class="edge">
<title>Node7&#45;&gt;Node8</title>
<g id="a_edge7_Node000007_Node000008"><a xlink:title=" ">
<path fill="none" stroke="#63b8ff" d="M527.18,-95.45C486.22,-84.91 427.51,-69.8 389.7,-60.07"/>
<polygon fill="#63b8ff" stroke="#63b8ff" points="526.37,-98.86 536.93,-97.96 528.11,-92.08 526.37,-98.86"/>
</a>
</g>
</g>
<!-- Node9 -->
<g id="Node000009" class="node">
<title>Node9</title>
<g id="a_Node000009"><a xlink:href="classGameController.html#ac958989c8f7f08488546930e5fcb0d82" target="_top" xlink:title="Starts and runs the main game loop.">
<polygon fill="white" stroke="#666666" points="222,-38 77,-38 77,-19 222,-19 222,-38"/>
<text text-anchor="middle" x="149.5" y="-26" font-family="Helvetica,sans-Serif" font-size="10.00">GameController::runGame</text>
</a>
</g>
</g>
<!-- Node8&#45;&gt;Node9 -->
<g id="edge8_Node000008_Node000009" class="edge">
<title>Node8&#45;&gt;Node9</title>
<g id="a_edge8_Node000008_Node000009"><a xlink:title=" ">
<path fill="none" stroke="#63b8ff" d="M253.77,-39.86C243.13,-38.69 232.44,-37.51 222.18,-36.38"/>
<polygon fill="#63b8ff" stroke="#63b8ff" points="253.62,-43.36 263.94,-40.98 254.38,-36.41 253.62,-43.36"/>
</a>
</g>
</g>
<!-- Node10 -->
<g id="Node000010" class="node">
<title>Node10</title>
<g id="a_Node000010"><a xlink:href="main_8cpp.html#ae66f6b31b5ad750f1fe042a706a4e3d4" target="_top" xlink:title="Main function that serves as the application entry point.">
<polygon fill="white" stroke="#666666" points="41,-38 0,-38 0,-19 41,-19 41,-38"/>
<text text-anchor="middle" x="20.5" y="-26" font-family="Helvetica,sans-Serif" font-size="10.00">main</text>
</a>
</g>
</g>
<!-- Node9&#45;&gt;Node10 -->
<g id="edge9_Node000009_Node000010" class="edge">
<title>Node9&#45;&gt;Node10</title>
<g id="a_edge9_Node000009_Node000010"><a xlink:title=" ">
<path fill="none" stroke="#63b8ff" d="M66.79,-28.5C57.31,-28.5 48.43,-28.5 41.08,-28.5"/>
<polygon fill="#63b8ff" stroke="#63b8ff" points="66.83,-32 76.83,-28.5 66.83,-25 66.83,-32"/>
</a>
</g>
</g>
<!-- Node11&#45;&gt;Node6 -->
<g id="edge17_Node000011_Node000006" class="edge">
<title>Node11&#45;&gt;Node6</title>
<g id="a_edge17_Node000011_Node000006"><a xlink:title=" ">
<path fill="none" stroke="#63b8ff" d="M1061.27,-90.16C1069.72,-90.25 1078.33,-90.27 1086.87,-90.23"/>
<polygon fill="#63b8ff" stroke="#63b8ff" points="1061.1,-86.66 1051.06,-90.03 1061.01,-93.66 1061.1,-86.66"/>
</a>
</g>
</g>
<!-- Node11&#45;&gt;Node7 -->
<g id="edge13_Node000011_Node000007" class="edge">
<title>Node11&#45;&gt;Node7</title>
<g id="a_edge13_Node000011_Node000007"><a xlink:title=" ">
<path fill="none" stroke="#63b8ff" d="M917.73,-94.84C900.26,-97.9 880.9,-100.82 863,-102.5 798.5,-108.55 725.5,-109.74 669.26,-109.45"/>
<polygon fill="#63b8ff" stroke="#63b8ff" points="918.54,-98.25 927.76,-93.03 917.3,-91.36 918.54,-98.25"/>
</a>
</g>
</g>
<!-- Node11&#45;&gt;Node9 -->
<g id="edge14_Node000011_Node000009" class="edge">
<title>Node11&#45;&gt;Node9</title>
<g id="a_edge14_Node000011_Node000009"><a xlink:title=" ">
<path fill="none" stroke="#63b8ff" d="M937.75,-70.59C916.27,-63.4 888.37,-54.84 863,-49.5 632.77,-1 351.52,-12.96 222.02,-22.32"/>
<polygon fill="#63b8ff" stroke="#63b8ff" points="936.84,-73.98 947.44,-73.89 939.1,-67.36 936.84,-73.98"/>
</a>
</g>
</g>
<!-- Node12 -->
<g id="Node000012" class="node">
<title>Node12</title>
<g id="a_Node000012"><a xlink:href="classGameController.html#a637ea4e72ed2be4a2884b30160b3e8ab" target="_top" xlink:title="Pauses the game and displays pause screen.">
<polygon fill="white" stroke="#666666" points="863,-93 705,-93 705,-74 863,-74 863,-93"/>
<text text-anchor="middle" x="784" y="-81" font-family="Helvetica,sans-Serif" font-size="10.00">GameController::pauseGame</text>
</a>
</g>
</g>
<!-- Node11&#45;&gt;Node12 -->
<g id="edge11_Node000011_Node000012" class="edge">
<title>Node11&#45;&gt;Node12</title>
<g id="a_edge11_Node000011_Node000012"><a xlink:title=" ">
<path fill="none" stroke="#63b8ff" d="M888.5,-83.5C880.03,-83.5 871.46,-83.5 863.08,-83.5"/>
<polygon fill="#63b8ff" stroke="#63b8ff" points="888.76,-87 898.76,-83.5 888.76,-80 888.76,-87"/>
</a>
</g>
</g>
<!-- Node13 -->
<g id="Node000013" class="node">
<title>Node13</title>
<g id="a_Node000013"><a xlink:href="classGameController.html#a85bcf4ecfd197aad278e116215a3717b" target="_top" xlink:title="Displays level completion screen.">
<polygon fill="white" stroke="#666666" points="651,-65.5 499,-65.5 499,-35.5 651,-35.5 651,-65.5"/>
<text text-anchor="start" x="507" y="-53.5" font-family="Helvetica,sans-Serif" font-size="10.00">GameController::showLevel</text>
<text text-anchor="middle" x="575" y="-42.5" font-family="Helvetica,sans-Serif" font-size="10.00">CompleteScreen</text>
</a>
</g>
</g>
<!-- Node11&#45;&gt;Node13 -->
<g id="edge15_Node000011_Node000013" class="edge">
<title>Node11&#45;&gt;Node13</title>
<g id="a_edge15_Node000011_Node000013"><a xlink:title=" ">
<path fill="none" stroke="#63b8ff" d="M912.88,-72.37C896.71,-69.76 879.24,-67.24 863,-65.5 791.31,-57.84 709.11,-54.05 651.11,-52.2"/>
<polygon fill="#63b8ff" stroke="#63b8ff" points="912.33,-75.82 922.76,-74 913.47,-68.92 912.33,-75.82"/>
</a>
</g>
</g>
<!-- Node12&#45;&gt;Node7 -->
<g id="edge12_Node000012_Node000007" class="edge">
<title>Node12&#45;&gt;Node7</title>
<g id="a_edge12_Node000012_Node000007"><a xlink:title=" ">
<path fill="none" stroke="#63b8ff" d="M694.65,-93.74C682.54,-95.15 670.15,-96.58 658.16,-97.97"/>
<polygon fill="#63b8ff" stroke="#63b8ff" points="695.21,-97.2 704.74,-92.57 694.41,-90.25 695.21,-97.2"/>
</a>
</g>
</g>
<!-- Node13&#45;&gt;Node8 -->
<g id="edge16_Node000013_Node000008" class="edge">
<title>Node13&#45;&gt;Node8</title>
<g id="a_edge16_Node000013_Node000008"><a xlink:title=" ">
<path fill="none" stroke="#63b8ff" d="M488.5,-50.5C474.33,-50.5 459.58,-50.5 445.25,-50.5"/>
<polygon fill="#63b8ff" stroke="#63b8ff" points="488.7,-54 498.7,-50.5 488.7,-47 488.7,-54"/>
</a>
</g>
</g>
</g>
</svg>

<g id="navigator" transform="translate(0 0)" fill="#404254">
  <rect fill="#f2f5e9" fill-opacity="0.5" stroke="#606060" stroke-width=".5" x="0" y="0" width="60" height="60"/>
  <use id="zoomplus" xlink:href="#zoomPlus" x="17" y="9" onmousedown="handleZoom(evt,'in')"/>
  <use id="zoomminus" xlink:href="#zoomMin" x="42" y="9" onmousedown="handleZoom(evt,'out')"/>
  <use id="reset" xlink:href="#resetDef" x="30" y="36" onmousedown="handleReset()"/>
   <use id="arrowup" xlink:href="#arrowUp" x="0" y="0" onmousedown="handlePan(0,-1)"/>
  <use id="arrowright" xlink:href="#arrowRight" x="0" y="0" onmousedown="handlePan(1,0)"/>
  <use id="arrowdown" xlink:href="#arrowDown" x="0" y="0" onmousedown="handlePan(0,1)"/>
  <use id="arrowleft" xlink:href="#arrowLeft" x="0" y="0" onmousedown="handlePan(-1,0)"/>
</g>
<svg viewBox="0 0 15 15" width="100%" height="30px" preserveAspectRatio="xMaxYMin meet">
 <g id="arrow_out" transform="scale(0.3 0.3)">
  <a xlink:href="classMapManager_a567c17018afe3a29cd1fb783d54ef098_icgraph_org.svg" target="_base">
   <rect id="button" ry="5" rx="5" y="6" x="6" height="38" width="38"
        fill="#f2f5e9" fill-opacity="0.5" stroke="#606060" stroke-width="1.0"/>
   <path id="arrow"
     d="M 11.500037,31.436501 C 11.940474,20.09759 22.043105,11.32322 32.158766,21.979434 L 37.068811,17.246167 C 37.068811,17.246167 37.088388,32 37.088388,32 L 22.160133,31.978069 C 22.160133,31.978069 26.997745,27.140456 26.997745,27.140456 C 18.528582,18.264221 13.291696,25.230495 11.500037,31.436501 z"
     style="fill:#404040;"/>
  </a>
 </g>
</svg>

<style type='text/css'>
<![CDATA[
[data-mouse-over-selected='false'] { opacity: 0.7; }
[data-mouse-over-selected='true']  { opacity: 1.0; }
]]>
</style>
<script type="application/ecmascript"><![CDATA[
document.addEventListener('DOMContentLoaded', (event) => {
  highlightEdges();
  highlightAdjacentNodes();
});
]]></script>
</svg>
