<?xml version="1.0" encoding="UTF-8" standalone="no"?>
<!DOCTYPE svg PUBLIC "-//W3C//DTD SVG 1.1//EN"
 "http://www.w3.org/Graphics/SVG/1.1/DTD/svg11.dtd">
<!-- Generated by graphviz version 2.43.0 (0)
 -->
<!-- Title: ScoreManager::isHighScore Pages: 1 -->
<svg width="1230pt" height="152pt"
 viewBox="0.00 0.00 1230.00 151.50" xmlns="http://www.w3.org/2000/svg" xmlns:xlink="http://www.w3.org/1999/xlink">
<g id="graph0" class="graph" transform="scale(1 1) rotate(0) translate(4 147.5)">
<title>ScoreManager::isHighScore</title>
<!-- Node1 -->
<g id="Node000001" class="node">
<title>Node1</title>
<g id="a_Node000001"><a xlink:title="Checks if score qualifies as a high score.">
<polygon fill="#999999" stroke="#666666" points="1222,-86.5 1072,-86.5 1072,-67.5 1222,-67.5 1222,-86.5"/>
<text text-anchor="middle" x="1147" y="-74.5" font-family="Helvetica,sans-Serif" font-size="10.00">ScoreManager::isHighScore</text>
</a>
</g>
</g>
<!-- Node2 -->
<g id="Node000002" class="node">
<title>Node2</title>
<g id="a_Node000002"><a xlink:href="classScoreManager.html#a842a2834c5bb44d292e3f054d2612240" target="_top" xlink:title="Adds a new score to high scores table.">
<polygon fill="white" stroke="#666666" points="1036,-86.5 899,-86.5 899,-67.5 1036,-67.5 1036,-86.5"/>
<text text-anchor="middle" x="967.5" y="-74.5" font-family="Helvetica,sans-Serif" font-size="10.00">ScoreManager::addScore</text>
</a>
</g>
</g>
<!-- Node1&#45;&gt;Node2 -->
<g id="edge1_Node000001_Node000002" class="edge">
<title>Node1&#45;&gt;Node2</title>
<g id="a_edge1_Node000001_Node000002"><a xlink:title=" ">
<path fill="none" stroke="#63b8ff" d="M1061.75,-77C1053.19,-77 1044.57,-77 1036.22,-77"/>
<polygon fill="#63b8ff" stroke="#63b8ff" points="1061.75,-80.5 1071.75,-77 1061.75,-73.5 1061.75,-80.5"/>
</a>
</g>
</g>
<!-- Node3 -->
<g id="Node000003" class="node">
<title>Node3</title>
<g id="a_Node000003"><a xlink:href="classGameController.html#a637ea4e72ed2be4a2884b30160b3e8ab" target="_top" xlink:title="Pauses the game and displays pause screen.">
<polygon fill="white" stroke="#666666" points="863,-143.5 705,-143.5 705,-124.5 863,-124.5 863,-143.5"/>
<text text-anchor="middle" x="784" y="-131.5" font-family="Helvetica,sans-Serif" font-size="10.00">GameController::pauseGame</text>
</a>
</g>
</g>
<!-- Node2&#45;&gt;Node3 -->
<g id="edge2_Node000002_Node000003" class="edge">
<title>Node2&#45;&gt;Node3</title>
<g id="a_edge2_Node000002_Node000003"><a xlink:title=" ">
<path fill="none" stroke="#63b8ff" d="M926.97,-89.71C907.69,-95.88 884.15,-103.37 863,-110 847.59,-114.83 830.43,-120.12 816.15,-124.5"/>
<polygon fill="#63b8ff" stroke="#63b8ff" points="928.18,-93 936.63,-86.61 926.04,-86.33 928.18,-93"/>
</a>
</g>
</g>
<!-- Node4 -->
<g id="Node000004" class="node">
<title>Node4</title>
<g id="a_Node000004"><a xlink:href="classGameController.html#a971b3d8f6296a74f0bebc83b5e79c186" target="_top" xlink:title="Processes a user command.">
<polygon fill="white" stroke="#666666" points="669,-105.5 481,-105.5 481,-86.5 669,-86.5 669,-105.5"/>
<text text-anchor="middle" x="575" y="-93.5" font-family="Helvetica,sans-Serif" font-size="10.00">GameController::processCommand</text>
</a>
</g>
</g>
<!-- Node2&#45;&gt;Node4 -->
<g id="edge7_Node000002_Node000004" class="edge">
<title>Node2&#45;&gt;Node4</title>
<g id="a_edge7_Node000002_Node000004"><a xlink:title=" ">
<path fill="none" stroke="#63b8ff" d="M888.62,-80.79C825.39,-83.87 736.04,-88.21 669.05,-91.47"/>
<polygon fill="#63b8ff" stroke="#63b8ff" points="889.11,-84.27 898.93,-80.29 888.77,-77.28 889.11,-84.27"/>
</a>
</g>
</g>
<!-- Node5 -->
<g id="Node000005" class="node">
<title>Node5</title>
<g id="a_Node000005"><a xlink:href="classGameController.html#af2367e58f03d8a1441c9a574967fd360" target="_top" xlink:title="Processes a single game turn/update cycle.">
<polygon fill="white" stroke="#666666" points="445,-67.5 258,-67.5 258,-48.5 445,-48.5 445,-67.5"/>
<text text-anchor="middle" x="351.5" y="-55.5" font-family="Helvetica,sans-Serif" font-size="10.00">GameController::processGameTurn</text>
</a>
</g>
</g>
<!-- Node2&#45;&gt;Node5 -->
<g id="edge8_Node000002_Node000005" class="edge">
<title>Node2&#45;&gt;Node5</title>
<g id="a_edge8_Node000002_Node000005"><a xlink:title=" ">
<path fill="none" stroke="#63b8ff" d="M888.43,-74.58C775.26,-71.08 566.01,-64.61 445.17,-60.87"/>
<polygon fill="#63b8ff" stroke="#63b8ff" points="888.64,-78.09 898.74,-74.9 888.85,-71.1 888.64,-78.09"/>
</a>
</g>
</g>
<!-- Node8 -->
<g id="Node000008" class="node">
<title>Node8</title>
<g id="a_Node000008"><a xlink:href="classGameController.html#a85bcf4ecfd197aad278e116215a3717b" target="_top" xlink:title="Displays level completion screen.">
<polygon fill="white" stroke="#666666" points="651,-30 499,-30 499,0 651,0 651,-30"/>
<text text-anchor="start" x="507" y="-18" font-family="Helvetica,sans-Serif" font-size="10.00">GameController::showLevel</text>
<text text-anchor="middle" x="575" y="-7" font-family="Helvetica,sans-Serif" font-size="10.00">CompleteScreen</text>
</a>
</g>
</g>
<!-- Node2&#45;&gt;Node8 -->
<g id="edge9_Node000002_Node000008" class="edge">
<title>Node2&#45;&gt;Node8</title>
<g id="a_edge9_Node000002_Node000008"><a xlink:title=" ">
<path fill="none" stroke="#63b8ff" d="M931.82,-63.95C911.95,-56.98 886.38,-48.85 863,-44 792.02,-29.27 709.55,-21.92 651.28,-18.32"/>
<polygon fill="#63b8ff" stroke="#63b8ff" points="930.78,-67.29 941.37,-67.36 933.14,-60.7 930.78,-67.29"/>
</a>
</g>
</g>
<!-- Node3&#45;&gt;Node4 -->
<g id="edge3_Node000003_Node000004" class="edge">
<title>Node3&#45;&gt;Node4</title>
<g id="a_edge3_Node000003_Node000004"><a xlink:title=" ">
<path fill="none" stroke="#63b8ff" d="M721.19,-122.65C691.49,-117.2 656.29,-110.74 627.99,-105.54"/>
<polygon fill="#63b8ff" stroke="#63b8ff" points="720.56,-126.1 731.03,-124.46 721.83,-119.21 720.56,-126.1"/>
</a>
</g>
</g>
<!-- Node4&#45;&gt;Node5 -->
<g id="edge4_Node000004_Node000005" class="edge">
<title>Node4&#45;&gt;Node5</title>
<g id="a_edge4_Node000004_Node000005"><a xlink:title=" ">
<path fill="none" stroke="#63b8ff" d="M508.27,-84.72C476.41,-79.26 438.55,-72.76 408.13,-67.54"/>
<polygon fill="#63b8ff" stroke="#63b8ff" points="507.94,-88.22 518.39,-86.46 509.13,-81.32 507.94,-88.22"/>
</a>
</g>
</g>
<!-- Node6 -->
<g id="Node000006" class="node">
<title>Node6</title>
<g id="a_Node000006"><a xlink:href="classGameController.html#ac958989c8f7f08488546930e5fcb0d82" target="_top" xlink:title="Starts and runs the main game loop.">
<polygon fill="white" stroke="#666666" points="222,-67.5 77,-67.5 77,-48.5 222,-48.5 222,-67.5"/>
<text text-anchor="middle" x="149.5" y="-55.5" font-family="Helvetica,sans-Serif" font-size="10.00">GameController::runGame</text>
</a>
</g>
</g>
<!-- Node5&#45;&gt;Node6 -->
<g id="edge5_Node000005_Node000006" class="edge">
<title>Node5&#45;&gt;Node6</title>
<g id="a_edge5_Node000005_Node000006"><a xlink:title=" ">
<path fill="none" stroke="#63b8ff" d="M247.71,-58C239.1,-58 230.52,-58 222.22,-58"/>
<polygon fill="#63b8ff" stroke="#63b8ff" points="247.82,-61.5 257.82,-58 247.82,-54.5 247.82,-61.5"/>
</a>
</g>
</g>
<!-- Node7 -->
<g id="Node000007" class="node">
<title>Node7</title>
<g id="a_Node000007"><a xlink:href="main_8cpp.html#ae66f6b31b5ad750f1fe042a706a4e3d4" target="_top" xlink:title="Main function that serves as the application entry point.">
<polygon fill="white" stroke="#666666" points="41,-67.5 0,-67.5 0,-48.5 41,-48.5 41,-67.5"/>
<text text-anchor="middle" x="20.5" y="-55.5" font-family="Helvetica,sans-Serif" font-size="10.00">main</text>
</a>
</g>
</g>
<!-- Node6&#45;&gt;Node7 -->
<g id="edge6_Node000006_Node000007" class="edge">
<title>Node6&#45;&gt;Node7</title>
<g id="a_edge6_Node000006_Node000007"><a xlink:title=" ">
<path fill="none" stroke="#63b8ff" d="M66.79,-58C57.31,-58 48.43,-58 41.08,-58"/>
<polygon fill="#63b8ff" stroke="#63b8ff" points="66.83,-61.5 76.83,-58 66.83,-54.5 66.83,-61.5"/>
</a>
</g>
</g>
<!-- Node8&#45;&gt;Node5 -->
<g id="edge10_Node000008_Node000005" class="edge">
<title>Node8&#45;&gt;Node5</title>
<g id="a_edge10_Node000008_Node000005"><a xlink:title=" ">
<path fill="none" stroke="#63b8ff" d="M488.79,-31.54C459.25,-37.28 427.15,-43.51 401.52,-48.48"/>
<polygon fill="#63b8ff" stroke="#63b8ff" points="489.55,-34.96 498.7,-29.62 488.22,-28.09 489.55,-34.96"/>
</a>
</g>
</g>
</g>
</svg>
