<?xml version="1.0" encoding="UTF-8" standalone="no"?>
<!DOCTYPE svg PUBLIC "-//W3C//DTD SVG 1.1//EN"
 "http://www.w3.org/Graphics/SVG/1.1/DTD/svg11.dtd">
<!-- Generated by graphviz version 2.43.0 (0)
 -->
<!-- Title: GameWorld::checkTankObstacleCollisions Pages: 1 -->
<!--zoomable 151 -->

<svg id="main" version="1.1" xmlns="http://www.w3.org/2000/svg" xmlns:xlink="http://www.w3.org/1999/xlink" xml:space="preserve" onload="init(evt)">
<style type="text/css"><![CDATA[
.node, .edge {opacity: 0.7;}
.node.selected, .edge.selected {opacity: 1;}
.edge:hover path { stroke: red; }
.edge:hover polygon { stroke: red; fill: red; }
]]></style>

<defs>
  <circle id="rim" cx="0" cy="0" r="7"/>
  <circle id="rim2" cx="0" cy="0" r="3.5"/>
  <g id="zoomPlus">
    <use xlink:href="#rim" fill="#404040"><set attributeName="fill" to="#808080" begin="zoomplus.mouseover" end="zoomplus.mouseout"/></use>
    <path d="M-4,0h8M0,-4v8" fill="none" stroke="white" stroke-width="1.5" pointer-events="none"/>
  </g>
  <g id="zoomMin">
    <use xlink:href="#rim" fill="#404040"><set attributeName="fill" to="#808080" begin="zoomminus.mouseover" end="zoomminus.mouseout"/></use>
    <path d="M-4,0h8" fill="none" stroke="white" stroke-width="1.5" pointer-events="none"/>
  </g>
  <g id="arrowUp" transform="translate(30 24)">
    <use xlink:href="#rim"/>
    <path pointer-events="none" fill="none" stroke="white" stroke-width="1.5" d="M0,-3.0v7 M-2.5,-0.5L0,-3.0L2.5,-0.5"/>
  </g>
  <g id="arrowRight" transform="rotate(90) translate(36 -43)">
    <use xlink:href="#rim"/>
    <path pointer-events="none" fill="none" stroke="white" stroke-width="1.5" d="M0,-3.0v7 M-2.5,-0.5L0,-3.0L2.5,-0.5"/>
  </g>
  <g id="arrowDown" transform="rotate(180) translate(-30 -48)">
    <use xlink:href="#rim"/>
    <path pointer-events="none" fill="none" stroke="white" stroke-width="1.5" d="M0,-3.0v7 M-2.5,-0.5L0,-3.0L2.5,-0.5"/>
  </g>
  <g id="arrowLeft" transform="rotate(270) translate(-36 17)">
    <use xlink:href="#rim"/>
    <path pointer-events="none" fill="none" stroke="white" stroke-width="1.5" d="M0,-3.0v7 M-2.5,-0.5L0,-3.0L2.5,-0.5"/>
  </g>
  <g id="resetDef">
    <use xlink:href="#rim2" fill="#404040"><set attributeName="fill" to="#808080" begin="reset.mouseover" end="reset.mouseout"/></use>
  </g>
</defs>
<script type="application/ecmascript">
var viewWidth = 574;
var viewHeight = 151;
var sectionId = 'dynsection-15';
</script>
<script type="application/ecmascript" xlink:href="svg.min.js"/>
<svg id="graph" class="graph">
<g id="viewport">
<title>GameWorld::checkTankObstacleCollisions</title>
<!-- Node1 -->
<g id="Node000001" class="node">
<title>Node1</title>
<g id="a_Node000001"><a xlink:title="Checks tank&#45;obstacle collisions.">
<polygon fill="#999999" stroke="#666666" points="173,-88.5 0,-88.5 0,-58.5 173,-58.5 173,-88.5"/>
<text text-anchor="start" x="8" y="-76.5" font-family="Helvetica,sans-Serif" font-size="10.00">GameWorld::checkTankObstacle</text>
<text text-anchor="middle" x="86.5" y="-65.5" font-family="Helvetica,sans-Serif" font-size="10.00">Collisions</text>
</a>
</g>
</g>
<!-- Node2 -->
<g id="Node000002" class="node">
<title>Node2</title>
<g id="a_Node000002"><a xlink:href="classTank.html#a893b0a184e05009741b13e1e79cd629f" target="_top" xlink:title="Gets the bounding dimensions of the tank.">
<polygon fill="white" stroke="#666666" points="346.5,-143 249.5,-143 249.5,-124 346.5,-124 346.5,-143"/>
<text text-anchor="middle" x="298" y="-131" font-family="Helvetica,sans-Serif" font-size="10.00">Tank::getBounds</text>
</a>
</g>
</g>
<!-- Node1&#45;&gt;Node2 -->
<g id="edge1_Node000001_Node000002" class="edge">
<title>Node1&#45;&gt;Node2</title>
<g id="a_edge1_Node000001_Node000002"><a xlink:title=" ">
<path fill="none" stroke="#63b8ff" d="M137.38,-88.55C159.32,-95.09 185.41,-102.79 209,-109.5 222.85,-113.44 237.96,-117.61 251.7,-121.35"/>
<polygon fill="#63b8ff" stroke="#63b8ff" points="250.84,-124.74 261.41,-123.98 252.68,-117.99 250.84,-124.74"/>
</a>
</g>
</g>
<!-- Node3 -->
<g id="Node000003" class="node">
<title>Node3</title>
<g id="a_Node000003"><a xlink:href="classGameObject.html#aa4dd19d6b0ea5701d860b64b08435ae6" target="_top" xlink:title="Gets current position of the object.">
<polygon fill="white" stroke="#666666" points="563.5,-103 425.5,-103 425.5,-84 563.5,-84 563.5,-103"/>
<text text-anchor="middle" x="494.5" y="-91" font-family="Helvetica,sans-Serif" font-size="10.00">GameObject::getPosition</text>
</a>
</g>
</g>
<!-- Node1&#45;&gt;Node3 -->
<g id="edge2_Node000001_Node000003" class="edge">
<title>Node1&#45;&gt;Node3</title>
<g id="a_edge2_Node000001_Node000003"><a xlink:title=" ">
<path fill="none" stroke="#63b8ff" d="M173.11,-77.72C244.73,-81.25 346.06,-86.24 415.47,-89.66"/>
<polygon fill="#63b8ff" stroke="#63b8ff" points="415.32,-93.15 425.48,-90.15 415.66,-86.16 415.32,-93.15"/>
</a>
</g>
</g>
<!-- Node4 -->
<g id="Node000004" class="node">
<title>Node4</title>
<g id="a_Node000004"><a xlink:href="classGameWorld.html#a60724b9a69573c00245f87dfdfeefa14" target="_top" xlink:title="Handles tank&#45;obstacle collision.">
<polygon fill="white" stroke="#666666" points="387,-67.5 209,-67.5 209,-37.5 387,-37.5 387,-67.5"/>
<text text-anchor="start" x="217" y="-55.5" font-family="Helvetica,sans-Serif" font-size="10.00">GameWorld::handleTankObstacle</text>
<text text-anchor="middle" x="298" y="-44.5" font-family="Helvetica,sans-Serif" font-size="10.00">Collision</text>
</a>
</g>
</g>
<!-- Node1&#45;&gt;Node4 -->
<g id="edge3_Node000001_Node000004" class="edge">
<title>Node1&#45;&gt;Node4</title>
<g id="a_edge3_Node000001_Node000004"><a xlink:title=" ">
<path fill="none" stroke="#63b8ff" d="M173.01,-64.93C181.47,-64.08 190.1,-63.22 198.67,-62.36"/>
<polygon fill="#63b8ff" stroke="#63b8ff" points="199.1,-65.83 208.7,-61.35 198.4,-58.87 199.1,-65.83"/>
</a>
</g>
</g>
<!-- Node7 -->
<g id="Node000007" class="node">
<title>Node7</title>
<g id="a_Node000007"><a xlink:href="classObstacle.html#aa1936373d282c8dba39f529526b6143d" target="_top" xlink:title="Checks if obstacle is passable for tanks.">
<polygon fill="white" stroke="#666666" points="356,-19 240,-19 240,0 356,0 356,-19"/>
<text text-anchor="middle" x="298" y="-7" font-family="Helvetica,sans-Serif" font-size="10.00">Obstacle::isPassable</text>
</a>
</g>
</g>
<!-- Node1&#45;&gt;Node7 -->
<g id="edge7_Node000001_Node000007" class="edge">
<title>Node1&#45;&gt;Node7</title>
<g id="a_edge7_Node000001_Node000007"><a xlink:title=" ">
<path fill="none" stroke="#63b8ff" d="M124,-58.43C147.89,-48.96 179.95,-36.97 209,-28.5 218.02,-25.87 227.66,-23.43 237.12,-21.23"/>
<polygon fill="#63b8ff" stroke="#63b8ff" points="237.91,-24.64 246.89,-19.03 236.37,-17.81 237.91,-24.64"/>
</a>
</g>
</g>
<!-- Node4&#45;&gt;Node3 -->
<g id="edge5_Node000004_Node000003" class="edge">
<title>Node4&#45;&gt;Node3</title>
<g id="a_edge5_Node000004_Node000003"><a xlink:title=" ">
<path fill="none" stroke="#63b8ff" d="M370.32,-67.53C392.68,-72.25 417.02,-77.38 438.11,-81.82"/>
<polygon fill="#63b8ff" stroke="#63b8ff" points="437.67,-85.31 448.17,-83.95 439.11,-78.46 437.67,-85.31"/>
</a>
</g>
</g>
<!-- Node5 -->
<g id="Node000005" class="node">
<title>Node5</title>
<g id="a_Node000005"><a xlink:href="classGameObject.html#a650b9622507919864b54aadcaab92110" target="_top" xlink:title="Gets current direction of the object.">
<polygon fill="white" stroke="#666666" points="566,-63 423,-63 423,-44 566,-44 566,-63"/>
<text text-anchor="middle" x="494.5" y="-51" font-family="Helvetica,sans-Serif" font-size="10.00">GameObject::getDirection</text>
</a>
</g>
</g>
<!-- Node4&#45;&gt;Node5 -->
<g id="edge4_Node000004_Node000005" class="edge">
<title>Node4&#45;&gt;Node5</title>
<g id="a_edge4_Node000004_Node000005"><a xlink:title=" ">
<path fill="none" stroke="#63b8ff" d="M387.14,-52.95C395.65,-53 404.25,-53.04 412.67,-53.08"/>
<polygon fill="#63b8ff" stroke="#63b8ff" points="412.83,-56.59 422.85,-53.14 412.87,-49.59 412.83,-56.59"/>
</a>
</g>
</g>
<!-- Node6 -->
<g id="Node000006" class="node">
<title>Node6</title>
<g id="a_Node000006"><a xlink:href="classGameObject.html#a8e1f77d21a8ed8a894ae29f0e4126618" target="_top" xlink:title="Sets new position for the object.">
<polygon fill="white" stroke="#666666" points="563,-26 426,-26 426,-7 563,-7 563,-26"/>
<text text-anchor="middle" x="494.5" y="-14" font-family="Helvetica,sans-Serif" font-size="10.00">GameObject::setPosition</text>
</a>
</g>
</g>
<!-- Node4&#45;&gt;Node6 -->
<g id="edge6_Node000004_Node000006" class="edge">
<title>Node4&#45;&gt;Node6</title>
<g id="a_edge6_Node000004_Node000006"><a xlink:title=" ">
<path fill="none" stroke="#63b8ff" d="M380.08,-37.49C397.43,-34.28 415.48,-30.94 431.95,-27.89"/>
<polygon fill="#63b8ff" stroke="#63b8ff" points="432.79,-31.3 441.98,-26.04 431.51,-24.41 432.79,-31.3"/>
</a>
</g>
</g>
</g>
</svg>

<g id="navigator" transform="translate(0 0)" fill="#404254">
  <rect fill="#f2f5e9" fill-opacity="0.5" stroke="#606060" stroke-width=".5" x="0" y="0" width="60" height="60"/>
  <use id="zoomplus" xlink:href="#zoomPlus" x="17" y="9" onmousedown="handleZoom(evt,'in')"/>
  <use id="zoomminus" xlink:href="#zoomMin" x="42" y="9" onmousedown="handleZoom(evt,'out')"/>
  <use id="reset" xlink:href="#resetDef" x="30" y="36" onmousedown="handleReset()"/>
   <use id="arrowup" xlink:href="#arrowUp" x="0" y="0" onmousedown="handlePan(0,-1)"/>
  <use id="arrowright" xlink:href="#arrowRight" x="0" y="0" onmousedown="handlePan(1,0)"/>
  <use id="arrowdown" xlink:href="#arrowDown" x="0" y="0" onmousedown="handlePan(0,1)"/>
  <use id="arrowleft" xlink:href="#arrowLeft" x="0" y="0" onmousedown="handlePan(-1,0)"/>
</g>
<svg viewBox="0 0 15 15" width="100%" height="30px" preserveAspectRatio="xMaxYMin meet">
 <g id="arrow_out" transform="scale(0.3 0.3)">
  <a xlink:href="classGameWorld_ab28f8bec4f78b7be44d509449508babb_cgraph_org.svg" target="_base">
   <rect id="button" ry="5" rx="5" y="6" x="6" height="38" width="38"
        fill="#f2f5e9" fill-opacity="0.5" stroke="#606060" stroke-width="1.0"/>
   <path id="arrow"
     d="M 11.500037,31.436501 C 11.940474,20.09759 22.043105,11.32322 32.158766,21.979434 L 37.068811,17.246167 C 37.068811,17.246167 37.088388,32 37.088388,32 L 22.160133,31.978069 C 22.160133,31.978069 26.997745,27.140456 26.997745,27.140456 C 18.528582,18.264221 13.291696,25.230495 11.500037,31.436501 z"
     style="fill:#404040;"/>
  </a>
 </g>
</svg>

<style type='text/css'>
<![CDATA[
[data-mouse-over-selected='false'] { opacity: 0.7; }
[data-mouse-over-selected='true']  { opacity: 1.0; }
]]>
</style>
<script type="application/ecmascript"><![CDATA[
document.addEventListener('DOMContentLoaded', (event) => {
  highlightEdges();
  highlightAdjacentNodes();
});
]]></script>
</svg>
