<?xml version="1.0" encoding="UTF-8" standalone="no"?>
<!DOCTYPE svg PUBLIC "-//W3C//DTD SVG 1.1//EN"
 "http://www.w3.org/Graphics/SVG/1.1/DTD/svg11.dtd">
<!-- Generated by graphviz version 2.43.0 (0)
 -->
<!-- Title: GameWorld::getPlayer Pages: 1 -->
<svg width="1895pt" height="319pt"
 viewBox="0.00 0.00 1895.00 318.60" xmlns="http://www.w3.org/2000/svg" xmlns:xlink="http://www.w3.org/1999/xlink">
<g id="graph0" class="graph" transform="scale(1 1) rotate(0) translate(4 314.6)">
<title>GameWorld::getPlayer</title>
<!-- Node1 -->
<g id="Node000001" class="node">
<title>Node1</title>
<g id="a_Node000001"><a xlink:title="Gets pointer to player tank.">
<polygon fill="#999999" stroke="#666666" points="1887,-163.97 1761,-163.97 1761,-144.97 1887,-144.97 1887,-163.97"/>
<text text-anchor="middle" x="1824" y="-151.97" font-family="Helvetica,sans-Serif" font-size="10.00">GameWorld::getPlayer</text>
</a>
</g>
</g>
<!-- Node2 -->
<g id="Node000002" class="node">
<title>Node2</title>
<g id="a_Node000002"><a xlink:href="classMapManager.html#ac1472dad9f9391e45fafadef9c30c1ab" target="_top" xlink:title="Creates game world from map layout.">
<polygon fill="white" stroke="#666666" points="1725,-182.97 1534,-182.97 1534,-163.97 1725,-163.97 1725,-182.97"/>
<text text-anchor="middle" x="1629.5" y="-170.97" font-family="Helvetica,sans-Serif" font-size="10.00">MapManager::createWorldFromMap</text>
</a>
</g>
</g>
<!-- Node1&#45;&gt;Node2 -->
<g id="edge1_Node000001_Node000002" class="edge">
<title>Node1&#45;&gt;Node2</title>
<g id="a_edge1_Node000001_Node000002"><a xlink:title=" ">
<path fill="none" stroke="#63b8ff" d="M1750.69,-161.6C1742.32,-162.43 1733.68,-163.28 1725.06,-164.13"/>
<polygon fill="#63b8ff" stroke="#63b8ff" points="1751.16,-165.08 1760.77,-160.61 1750.47,-158.11 1751.16,-165.08"/>
</a>
</g>
</g>
<!-- Node3 -->
<g id="Node000003" class="node">
<title>Node3</title>
<g id="a_Node000003"><a xlink:href="classGameController.html#a09c76a5ae9b8f514163dafe31273f44f" target="_top" xlink:title="Loads the currently selected map.">
<polygon fill="white" stroke="#666666" points="1498,-163.97 1314,-163.97 1314,-144.97 1498,-144.97 1498,-163.97"/>
<text text-anchor="middle" x="1406" y="-151.97" font-family="Helvetica,sans-Serif" font-size="10.00">GameController::loadSelectedMap</text>
</a>
</g>
</g>
<!-- Node1&#45;&gt;Node3 -->
<g id="edge18_Node000001_Node000003" class="edge">
<title>Node1&#45;&gt;Node3</title>
<g id="a_edge18_Node000001_Node000003"><a xlink:title=" ">
<path fill="none" stroke="#63b8ff" d="M1750.65,-154.47C1680.59,-154.47 1574.09,-154.47 1498.24,-154.47"/>
<polygon fill="#63b8ff" stroke="#63b8ff" points="1750.72,-157.97 1760.72,-154.47 1750.72,-150.97 1750.72,-157.97"/>
</a>
</g>
</g>
<!-- Node5 -->
<g id="Node000005" class="node">
<title>Node5</title>
<g id="a_Node000005"><a xlink:href="classGameController.html#a85bcf4ecfd197aad278e116215a3717b" target="_top" xlink:title="Displays level completion screen.">
<polygon fill="white" stroke="#666666" points="860,-212.47 708,-212.47 708,-182.47 860,-182.47 860,-212.47"/>
<text text-anchor="start" x="716" y="-200.47" font-family="Helvetica,sans-Serif" font-size="10.00">GameController::showLevel</text>
<text text-anchor="middle" x="784" y="-189.47" font-family="Helvetica,sans-Serif" font-size="10.00">CompleteScreen</text>
</a>
</g>
</g>
<!-- Node1&#45;&gt;Node5 -->
<g id="edge24_Node000001_Node000005" class="edge">
<title>Node1&#45;&gt;Node5</title>
<g id="a_edge24_Node000001_Node000005"><a xlink:title=" ">
<path fill="none" stroke="#63b8ff" d="M1793.9,-168.23C1774.75,-176.65 1748.9,-186.86 1725,-192.47 1586.83,-224.88 1548.92,-221.47 1407,-221.47 1407,-221.47 1407,-221.47 1181.5,-221.47 1069.44,-221.47 939.88,-211.8 860.19,-204.73"/>
<polygon fill="#63b8ff" stroke="#63b8ff" points="1795.57,-171.31 1803.25,-164.02 1792.7,-164.93 1795.57,-171.31"/>
</a>
</g>
</g>
<!-- Node6 -->
<g id="Node000006" class="node">
<title>Node6</title>
<g id="a_Node000006"><a xlink:href="classGameController.html#af2367e58f03d8a1441c9a574967fd360" target="_top" xlink:title="Processes a single game turn/update cycle.">
<polygon fill="white" stroke="#666666" points="445,-206.97 258,-206.97 258,-187.97 445,-187.97 445,-206.97"/>
<text text-anchor="middle" x="351.5" y="-194.97" font-family="Helvetica,sans-Serif" font-size="10.00">GameController::processGameTurn</text>
</a>
</g>
</g>
<!-- Node1&#45;&gt;Node6 -->
<g id="edge21_Node000001_Node000006" class="edge">
<title>Node1&#45;&gt;Node6</title>
<g id="a_edge21_Node000001_Node000006"><a xlink:title=" ">
<path fill="none" stroke="#63b8ff" d="M1804.81,-170.64C1786.17,-186.2 1755.66,-209.02 1725,-220.47 1591.6,-270.28 1549.39,-259.47 1407,-259.47 1407,-259.47 1407,-259.47 783,-259.47 637.64,-259.47 467.47,-224.41 391.99,-207.02"/>
<polygon fill="#63b8ff" stroke="#63b8ff" points="1807.17,-173.22 1812.5,-164.06 1802.62,-167.9 1807.17,-173.22"/>
</a>
</g>
</g>
<!-- Node10 -->
<g id="Node000010" class="node">
<title>Node10</title>
<g id="a_Node000010"><a xlink:href="classGameController.html#a971b3d8f6296a74f0bebc83b5e79c186" target="_top" xlink:title="Processes a user command.">
<polygon fill="white" stroke="#666666" points="669,-87.97 481,-87.97 481,-68.97 669,-68.97 669,-87.97"/>
<text text-anchor="middle" x="575" y="-75.97" font-family="Helvetica,sans-Serif" font-size="10.00">GameController::processCommand</text>
</a>
</g>
</g>
<!-- Node1&#45;&gt;Node10 -->
<g id="edge20_Node000001_Node000010" class="edge">
<title>Node1&#45;&gt;Node10</title>
<g id="a_edge20_Node000001_Node000010"><a xlink:title=" ">
<path fill="none" stroke="#63b8ff" d="M1808.61,-137.07C1791.03,-117.03 1759.36,-84.66 1725,-67.47 1595.98,-2.93 1551.26,-2.47 1407,-2.47 1407,-2.47 1407,-2.47 974,-2.47 854.15,-2.47 821.32,7.4 705,-21.47 662.46,-32.03 616.34,-55.69 592.45,-68.97"/>
<polygon fill="#63b8ff" stroke="#63b8ff" points="1806.09,-139.5 1815.25,-144.82 1811.41,-134.95 1806.09,-139.5"/>
</a>
</g>
</g>
<!-- Node11 -->
<g id="Node000011" class="node">
<title>Node11</title>
<g id="a_Node000011"><a xlink:href="classGameController.html#a9d11b5a6255b7249bddba49df0837cf3" target="_top" xlink:title="Displays and manages the main menu.">
<polygon fill="white" stroke="#666666" points="1051,-106.97 899,-106.97 899,-87.97 1051,-87.97 1051,-106.97"/>
<text text-anchor="middle" x="975" y="-94.97" font-family="Helvetica,sans-Serif" font-size="10.00">GameController::showMenu</text>
</a>
</g>
</g>
<!-- Node1&#45;&gt;Node11 -->
<g id="edge25_Node000001_Node000011" class="edge">
<title>Node1&#45;&gt;Node11</title>
<g id="a_edge25_Node000001_Node000011"><a xlink:title=" ">
<path fill="none" stroke="#63b8ff" d="M1750.79,-149.28C1646.45,-141.81 1447.44,-127.71 1278,-116.47 1200.68,-111.34 1112.2,-105.81 1051.1,-102.05"/>
<polygon fill="#63b8ff" stroke="#63b8ff" points="1750.67,-152.78 1760.89,-150 1751.17,-145.79 1750.67,-152.78"/>
</a>
</g>
</g>
<!-- Node12 -->
<g id="Node000012" class="node">
<title>Node12</title>
<g id="a_Node000012"><a xlink:href="classGameController.html#a637ea4e72ed2be4a2884b30160b3e8ab" target="_top" xlink:title="Pauses the game and displays pause screen.">
<polygon fill="white" stroke="#666666" points="863,-49.97 705,-49.97 705,-30.97 863,-30.97 863,-49.97"/>
<text text-anchor="middle" x="784" y="-37.97" font-family="Helvetica,sans-Serif" font-size="10.00">GameController::pauseGame</text>
</a>
</g>
</g>
<!-- Node1&#45;&gt;Node12 -->
<g id="edge19_Node000001_Node000012" class="edge">
<title>Node1&#45;&gt;Node12</title>
<g id="a_edge19_Node000001_Node000012"><a xlink:title=" ">
<path fill="none" stroke="#63b8ff" d="M1788.94,-141.21C1718.69,-115.08 1552.1,-59.47 1407,-59.47 1407,-59.47 1407,-59.47 1181.5,-59.47 1070.89,-59.47 943.12,-52 863.19,-46.43"/>
<polygon fill="#63b8ff" stroke="#63b8ff" points="1788,-144.59 1798.59,-144.84 1790.47,-138.04 1788,-144.59"/>
</a>
</g>
</g>
<!-- Node13 -->
<g id="Node000013" class="node">
<title>Node13</title>
<g id="a_Node000013"><a xlink:href="classConsoleRenderer.html#ab34fa7af4ede79de3951f1d5271d7a27" target="_top" xlink:title="Renders the game world to console.">
<polygon fill="white" stroke="#666666" points="1474.5,-306.97 1337.5,-306.97 1337.5,-287.97 1474.5,-287.97 1474.5,-306.97"/>
<text text-anchor="middle" x="1406" y="-294.97" font-family="Helvetica,sans-Serif" font-size="10.00">ConsoleRenderer::render</text>
</a>
</g>
</g>
<!-- Node1&#45;&gt;Node13 -->
<g id="edge22_Node000001_Node000013" class="edge">
<title>Node1&#45;&gt;Node13</title>
<g id="a_edge22_Node000001_Node000013"><a xlink:title=" ">
<path fill="none" stroke="#63b8ff" d="M1813.93,-173.07C1799.42,-200.53 1768.16,-251.07 1725,-273.47 1646,-314.46 1540.83,-313.43 1473.5,-307"/>
<polygon fill="#63b8ff" stroke="#63b8ff" points="1817.08,-174.59 1818.51,-164.09 1810.85,-171.41 1817.08,-174.59"/>
</a>
</g>
</g>
<!-- Node2&#45;&gt;Node3 -->
<g id="edge2_Node000002_Node000003" class="edge">
<title>Node2&#45;&gt;Node3</title>
<g id="a_edge2_Node000002_Node000003"><a xlink:title=" ">
<path fill="none" stroke="#63b8ff" d="M1523.85,-164.49C1515.25,-163.75 1506.59,-163.01 1498.1,-162.28"/>
<polygon fill="#63b8ff" stroke="#63b8ff" points="1523.66,-167.99 1533.92,-165.36 1524.26,-161.01 1523.66,-167.99"/>
</a>
</g>
</g>
<!-- Node4 -->
<g id="Node000004" class="node">
<title>Node4</title>
<g id="a_Node000004"><a xlink:href="classGameController.html#a4086fc466d91f45c41b2bc5df06af77a" target="_top" xlink:title="Loads the next game level.">
<polygon fill="white" stroke="#666666" points="1047,-193.47 903,-193.47 903,-163.47 1047,-163.47 1047,-193.47"/>
<text text-anchor="start" x="911" y="-181.47" font-family="Helvetica,sans-Serif" font-size="10.00">GameController::loadNext</text>
<text text-anchor="middle" x="975" y="-170.47" font-family="Helvetica,sans-Serif" font-size="10.00">Level</text>
</a>
</g>
</g>
<!-- Node3&#45;&gt;Node4 -->
<g id="edge3_Node000003_Node000004" class="edge">
<title>Node3&#45;&gt;Node4</title>
<g id="a_edge3_Node000003_Node000004"><a xlink:title=" ">
<path fill="none" stroke="#63b8ff" d="M1303.31,-160.16C1224.46,-164.57 1117.18,-170.57 1047.27,-174.48"/>
<polygon fill="#63b8ff" stroke="#63b8ff" points="1303.97,-163.63 1313.76,-159.57 1303.58,-156.64 1303.97,-163.63"/>
</a>
</g>
</g>
<!-- Node9 -->
<g id="Node000009" class="node">
<title>Node9</title>
<g id="a_Node000009"><a xlink:href="classGameController.html#a4a9c94fe33cf6c73bb5dfc415d04d309" target="_top" xlink:title="Displays map selection screen.">
<polygon fill="white" stroke="#666666" points="1278,-144.97 1087,-144.97 1087,-125.97 1278,-125.97 1278,-144.97"/>
<text text-anchor="middle" x="1182.5" y="-132.97" font-family="Helvetica,sans-Serif" font-size="10.00">GameController::showMapSelection</text>
</a>
</g>
</g>
<!-- Node3&#45;&gt;Node9 -->
<g id="edge8_Node000003_Node000009" class="edge">
<title>Node3&#45;&gt;Node9</title>
<g id="a_edge8_Node000003_Node000009"><a xlink:title=" ">
<path fill="none" stroke="#63b8ff" d="M1303.92,-145.8C1295.34,-145.06 1286.68,-144.32 1278.14,-143.59"/>
<polygon fill="#63b8ff" stroke="#63b8ff" points="1303.69,-149.29 1313.95,-146.66 1304.28,-142.32 1303.69,-149.29"/>
</a>
</g>
</g>
<!-- Node4&#45;&gt;Node5 -->
<g id="edge4_Node000004_Node000005" class="edge">
<title>Node4&#45;&gt;Node5</title>
<g id="a_edge4_Node000004_Node000005"><a xlink:title=" ">
<path fill="none" stroke="#63b8ff" d="M892.6,-186.65C881.84,-187.73 870.86,-188.84 860.22,-189.91"/>
<polygon fill="#63b8ff" stroke="#63b8ff" points="893.22,-190.11 902.82,-185.62 892.52,-183.14 893.22,-190.11"/>
</a>
</g>
</g>
<!-- Node5&#45;&gt;Node6 -->
<g id="edge5_Node000005_Node000006" class="edge">
<title>Node5&#45;&gt;Node6</title>
<g id="a_edge5_Node000005_Node000006"><a xlink:title=" ">
<path fill="none" stroke="#63b8ff" d="M697.45,-197.47C624.55,-197.47 520.01,-197.47 445.15,-197.47"/>
<polygon fill="#63b8ff" stroke="#63b8ff" points="697.52,-200.97 707.52,-197.47 697.52,-193.97 697.52,-200.97"/>
</a>
</g>
</g>
<!-- Node7 -->
<g id="Node000007" class="node">
<title>Node7</title>
<g id="a_Node000007"><a xlink:href="classGameController.html#ac958989c8f7f08488546930e5fcb0d82" target="_top" xlink:title="Starts and runs the main game loop.">
<polygon fill="white" stroke="#666666" points="222,-165.97 77,-165.97 77,-146.97 222,-146.97 222,-165.97"/>
<text text-anchor="middle" x="149.5" y="-153.97" font-family="Helvetica,sans-Serif" font-size="10.00">GameController::runGame</text>
</a>
</g>
</g>
<!-- Node6&#45;&gt;Node7 -->
<g id="edge6_Node000006_Node000007" class="edge">
<title>Node6&#45;&gt;Node7</title>
<g id="a_edge6_Node000006_Node000007"><a xlink:title=" ">
<path fill="none" stroke="#63b8ff" d="M294,-185.89C263.35,-179.6 225.92,-171.93 196.98,-166"/>
<polygon fill="#63b8ff" stroke="#63b8ff" points="293.61,-189.38 304.11,-187.96 295.02,-182.52 293.61,-189.38"/>
</a>
</g>
</g>
<!-- Node8 -->
<g id="Node000008" class="node">
<title>Node8</title>
<g id="a_Node000008"><a xlink:href="main_8cpp.html#ae66f6b31b5ad750f1fe042a706a4e3d4" target="_top" xlink:title="Main function that serves as the application entry point.">
<polygon fill="white" stroke="#666666" points="41,-165.97 0,-165.97 0,-146.97 41,-146.97 41,-165.97"/>
<text text-anchor="middle" x="20.5" y="-153.97" font-family="Helvetica,sans-Serif" font-size="10.00">main</text>
</a>
</g>
</g>
<!-- Node7&#45;&gt;Node8 -->
<g id="edge7_Node000007_Node000008" class="edge">
<title>Node7&#45;&gt;Node8</title>
<g id="a_edge7_Node000007_Node000008"><a xlink:title=" ">
<path fill="none" stroke="#63b8ff" d="M66.79,-156.47C57.31,-156.47 48.43,-156.47 41.08,-156.47"/>
<polygon fill="#63b8ff" stroke="#63b8ff" points="66.83,-159.97 76.83,-156.47 66.83,-152.97 66.83,-159.97"/>
</a>
</g>
</g>
<!-- Node9&#45;&gt;Node10 -->
<g id="edge9_Node000009_Node000010" class="edge">
<title>Node9&#45;&gt;Node10</title>
<g id="a_edge9_Node000009_Node000010"><a xlink:title=" ">
<path fill="none" stroke="#63b8ff" d="M1076.6,-132.17C979.81,-128.24 832.25,-120.01 705,-103.47 675.82,-99.68 643.29,-93.36 618.2,-88.02"/>
<polygon fill="#63b8ff" stroke="#63b8ff" points="1076.55,-135.67 1086.68,-132.57 1076.83,-128.68 1076.55,-135.67"/>
</a>
</g>
</g>
<!-- Node9&#45;&gt;Node11 -->
<g id="edge11_Node000009_Node000011" class="edge">
<title>Node9&#45;&gt;Node11</title>
<g id="a_edge11_Node000009_Node000011"><a xlink:title=" ">
<path fill="none" stroke="#63b8ff" d="M1145.28,-123.48C1119.34,-117.34 1083.47,-110.29 1051.43,-104.88"/>
<polygon fill="#63b8ff" stroke="#63b8ff" points="1144.51,-126.9 1155.06,-125.88 1146.17,-120.1 1144.51,-126.9"/>
</a>
</g>
</g>
<!-- Node10&#45;&gt;Node6 -->
<g id="edge10_Node000010_Node000006" class="edge">
<title>Node10&#45;&gt;Node6</title>
<g id="a_edge10_Node000010_Node000006"><a xlink:title=" ">
<path fill="none" stroke="#63b8ff" d="M547.21,-92.86C501.38,-117.48 409.13,-167.04 370.34,-187.89"/>
<polygon fill="#63b8ff" stroke="#63b8ff" points="549.1,-95.82 556.25,-88.01 545.78,-89.65 549.1,-95.82"/>
</a>
</g>
</g>
<!-- Node11&#45;&gt;Node5 -->
<g id="edge16_Node000011_Node000005" class="edge">
<title>Node11&#45;&gt;Node5</title>
<g id="a_edge16_Node000011_Node000005"><a xlink:title=" ">
<path fill="none" stroke="#63b8ff" d="M946.6,-111.97C911.08,-130.76 849.44,-163.37 813.43,-182.43"/>
<polygon fill="#63b8ff" stroke="#63b8ff" points="948.68,-114.83 955.88,-107.06 945.4,-108.64 948.68,-114.83"/>
</a>
</g>
</g>
<!-- Node11&#45;&gt;Node7 -->
<g id="edge15_Node000011_Node000007" class="edge">
<title>Node11&#45;&gt;Node7</title>
<g id="a_edge15_Node000011_Node000007"><a xlink:title=" ">
<path fill="none" stroke="#63b8ff" d="M888.28,-103.61C725.26,-115.29 373.37,-140.5 222.05,-151.34"/>
<polygon fill="#63b8ff" stroke="#63b8ff" points="889.01,-107.07 898.74,-102.86 888.51,-100.08 889.01,-107.07"/>
</a>
</g>
</g>
<!-- Node11&#45;&gt;Node9 -->
<g id="edge17_Node000011_Node000009" class="edge">
<title>Node11&#45;&gt;Node9</title>
<g id="a_edge17_Node000011_Node000009"><a xlink:title=" ">
<path fill="none" stroke="#63b8ff" d="M1011.94,-109.39C1034.63,-114.77 1064.99,-120.86 1093.75,-125.93"/>
<polygon fill="#63b8ff" stroke="#63b8ff" points="1012.64,-105.96 1002.09,-106.97 1010.97,-112.75 1012.64,-105.96"/>
</a>
</g>
</g>
<!-- Node11&#45;&gt;Node10 -->
<g id="edge14_Node000011_Node000010" class="edge">
<title>Node11&#45;&gt;Node10</title>
<g id="a_edge14_Node000011_Node000010"><a xlink:title=" ">
<path fill="none" stroke="#63b8ff" d="M888.53,-93.39C824.02,-90.31 735.58,-86.09 669.25,-82.92"/>
<polygon fill="#63b8ff" stroke="#63b8ff" points="888.52,-96.89 898.67,-93.87 888.85,-89.9 888.52,-96.89"/>
</a>
</g>
</g>
<!-- Node11&#45;&gt;Node12 -->
<g id="edge12_Node000011_Node000012" class="edge">
<title>Node11&#45;&gt;Node12</title>
<g id="a_edge12_Node000011_Node000012"><a xlink:title=" ">
<path fill="none" stroke="#63b8ff" d="M932.49,-84.95C897.62,-74.43 848.53,-59.63 816.74,-50.04"/>
<polygon fill="#63b8ff" stroke="#63b8ff" points="931.78,-88.39 942.37,-87.93 933.8,-81.69 931.78,-88.39"/>
</a>
</g>
</g>
<!-- Node12&#45;&gt;Node10 -->
<g id="edge13_Node000012_Node000010" class="edge">
<title>Node12&#45;&gt;Node10</title>
<g id="a_edge13_Node000012_Node000010"><a xlink:title=" ">
<path fill="none" stroke="#63b8ff" d="M721.19,-51.82C691.49,-57.27 656.29,-63.73 627.99,-68.92"/>
<polygon fill="#63b8ff" stroke="#63b8ff" points="721.83,-55.26 731.03,-50.01 720.56,-48.37 721.83,-55.26"/>
</a>
</g>
</g>
<!-- Node13&#45;&gt;Node6 -->
<g id="edge23_Node000013_Node000006" class="edge">
<title>Node13&#45;&gt;Node6</title>
<g id="a_edge23_Node000013_Node000006"><a xlink:title=" ">
<path fill="none" stroke="#63b8ff" d="M1327.19,-297.47C1241.24,-297.47 1098.74,-297.47 976,-297.47 976,-297.47 976,-297.47 783,-297.47 648.35,-297.47 609.36,-314.12 481,-273.47 434.05,-258.6 386.01,-223.94 364.36,-207.05"/>
<polygon fill="#63b8ff" stroke="#63b8ff" points="1327.38,-300.97 1337.38,-297.47 1327.38,-293.97 1327.38,-300.97"/>
</a>
</g>
</g>
</g>
</svg>
