<?xml version="1.0" encoding="UTF-8" standalone="no"?>
<!DOCTYPE svg PUBLIC "-//W3C//DTD SVG 1.1//EN"
 "http://www.w3.org/Graphics/SVG/1.1/DTD/svg11.dtd">
<!-- Generated by graphviz version 2.43.0 (0)
 -->
<!-- Title: ConsoleRenderer::drawErrorMessage Pages: 1 -->
<!--zoomable 430 -->

<svg id="main" version="1.1" xmlns="http://www.w3.org/2000/svg" xmlns:xlink="http://www.w3.org/1999/xlink" xml:space="preserve" onload="init(evt)">
<style type="text/css"><![CDATA[
.node, .edge {opacity: 0.7;}
.node.selected, .edge.selected {opacity: 1;}
.edge:hover path { stroke: red; }
.edge:hover polygon { stroke: red; fill: red; }
]]></style>

<defs>
  <circle id="rim" cx="0" cy="0" r="7"/>
  <circle id="rim2" cx="0" cy="0" r="3.5"/>
  <g id="zoomPlus">
    <use xlink:href="#rim" fill="#404040"><set attributeName="fill" to="#808080" begin="zoomplus.mouseover" end="zoomplus.mouseout"/></use>
    <path d="M-4,0h8M0,-4v8" fill="none" stroke="white" stroke-width="1.5" pointer-events="none"/>
  </g>
  <g id="zoomMin">
    <use xlink:href="#rim" fill="#404040"><set attributeName="fill" to="#808080" begin="zoomminus.mouseover" end="zoomminus.mouseout"/></use>
    <path d="M-4,0h8" fill="none" stroke="white" stroke-width="1.5" pointer-events="none"/>
  </g>
  <g id="arrowUp" transform="translate(30 24)">
    <use xlink:href="#rim"/>
    <path pointer-events="none" fill="none" stroke="white" stroke-width="1.5" d="M0,-3.0v7 M-2.5,-0.5L0,-3.0L2.5,-0.5"/>
  </g>
  <g id="arrowRight" transform="rotate(90) translate(36 -43)">
    <use xlink:href="#rim"/>
    <path pointer-events="none" fill="none" stroke="white" stroke-width="1.5" d="M0,-3.0v7 M-2.5,-0.5L0,-3.0L2.5,-0.5"/>
  </g>
  <g id="arrowDown" transform="rotate(180) translate(-30 -48)">
    <use xlink:href="#rim"/>
    <path pointer-events="none" fill="none" stroke="white" stroke-width="1.5" d="M0,-3.0v7 M-2.5,-0.5L0,-3.0L2.5,-0.5"/>
  </g>
  <g id="arrowLeft" transform="rotate(270) translate(-36 17)">
    <use xlink:href="#rim"/>
    <path pointer-events="none" fill="none" stroke="white" stroke-width="1.5" d="M0,-3.0v7 M-2.5,-0.5L0,-3.0L2.5,-0.5"/>
  </g>
  <g id="resetDef">
    <use xlink:href="#rim2" fill="#404040"><set attributeName="fill" to="#808080" begin="reset.mouseover" end="reset.mouseout"/></use>
  </g>
</defs>
<script type="application/ecmascript">
var viewWidth = 1692;
var viewHeight = 430;
var sectionId = 'dynsection-8';
</script>
<script type="application/ecmascript" xlink:href="svg.min.js"/>
<svg id="graph" class="graph">
<g id="viewport">
<title>ConsoleRenderer::drawErrorMessage</title>
<!-- Node1 -->
<g id="Node000001" class="node">
<title>Node1</title>
<g id="a_Node000001"><a xlink:title="Draws an error message about terminal size.">
<polygon fill="#999999" stroke="#666666" points="1684,-276.92 1531,-276.92 1531,-246.92 1684,-246.92 1684,-276.92"/>
<text text-anchor="start" x="1539" y="-264.92" font-family="Helvetica,sans-Serif" font-size="10.00">ConsoleRenderer::drawError</text>
<text text-anchor="middle" x="1607.5" y="-253.92" font-family="Helvetica,sans-Serif" font-size="10.00">Message</text>
</a>
</g>
</g>
<!-- Node2 -->
<g id="Node000002" class="node">
<title>Node2</title>
<g id="a_Node000002"><a xlink:href="classConsoleRenderer.html#a38306106200aabcfd90f6fe0552e18ea" target="_top" xlink:title="Draws game over screen.">
<polygon fill="white" stroke="#666666" points="666,-267.42 484,-267.42 484,-248.42 666,-248.42 666,-267.42"/>
<text text-anchor="middle" x="575" y="-255.42" font-family="Helvetica,sans-Serif" font-size="10.00">ConsoleRenderer::drawGameOver</text>
</a>
</g>
</g>
<!-- Node1&#45;&gt;Node2 -->
<g id="edge1_Node000001_Node000002" class="edge">
<title>Node1&#45;&gt;Node2</title>
<g id="a_edge1_Node000001_Node000002"><a xlink:title=" ">
<path fill="none" stroke="#63b8ff" d="M1593.39,-286.13C1575.57,-316.27 1540.63,-366.52 1495,-388.92 1372.87,-448.85 1325.54,-407.92 1189.5,-407.92 1189.5,-407.92 1189.5,-407.92 977,-407.92 816.08,-407.92 640.54,-300.63 590.2,-267.53"/>
<polygon fill="#63b8ff" stroke="#63b8ff" points="1596.62,-287.52 1598.56,-277.11 1590.55,-284.04 1596.62,-287.52"/>
</a>
</g>
</g>
<!-- Node6 -->
<g id="Node000006" class="node">
<title>Node6</title>
<g id="a_Node000006"><a xlink:href="classConsoleRenderer.html#a8c9ea938ec7728f1f3436a0a9d944cf2" target="_top" xlink:title="Draws level completion screen.">
<polygon fill="white" stroke="#666666" points="1266.5,-115.92 1110.5,-115.92 1110.5,-85.92 1266.5,-85.92 1266.5,-115.92"/>
<text text-anchor="start" x="1118.5" y="-103.92" font-family="Helvetica,sans-Serif" font-size="10.00">ConsoleRenderer::drawLevel</text>
<text text-anchor="middle" x="1188.5" y="-92.92" font-family="Helvetica,sans-Serif" font-size="10.00">Complete</text>
</a>
</g>
</g>
<!-- Node1&#45;&gt;Node6 -->
<g id="edge5_Node000001_Node000006" class="edge">
<title>Node1&#45;&gt;Node6</title>
<g id="a_edge5_Node000001_Node000006"><a xlink:title=" ">
<path fill="none" stroke="#63b8ff" d="M1563.15,-242.7C1501.68,-215.8 1385.4,-166.14 1284,-129.92 1270.42,-125.07 1255.58,-120.28 1241.77,-116.03"/>
<polygon fill="#63b8ff" stroke="#63b8ff" points="1561.97,-246.01 1572.53,-246.82 1564.78,-239.6 1561.97,-246.01"/>
</a>
</g>
</g>
<!-- Node8 -->
<g id="Node000008" class="node">
<title>Node8</title>
<g id="a_Node000008"><a xlink:href="classConsoleRenderer.html#afd03640670c991dfa8240af639c2f0da" target="_top" xlink:title="Draws map selection screen.">
<polygon fill="white" stroke="#666666" points="1483,-379.92 1332,-379.92 1332,-349.92 1483,-349.92 1483,-379.92"/>
<text text-anchor="start" x="1340" y="-367.92" font-family="Helvetica,sans-Serif" font-size="10.00">ConsoleRenderer::drawMap</text>
<text text-anchor="middle" x="1407.5" y="-356.92" font-family="Helvetica,sans-Serif" font-size="10.00">Selection</text>
</a>
</g>
</g>
<!-- Node1&#45;&gt;Node8 -->
<g id="edge8_Node000001_Node000008" class="edge">
<title>Node1&#45;&gt;Node8</title>
<g id="a_edge8_Node000001_Node000008"><a xlink:title=" ">
<path fill="none" stroke="#63b8ff" d="M1579.16,-283.02C1557.31,-299.15 1525.4,-321.05 1495,-335.92 1484.19,-341.2 1472.17,-345.91 1460.62,-349.91"/>
<polygon fill="#63b8ff" stroke="#63b8ff" points="1581.39,-285.73 1587.3,-276.94 1577.2,-280.12 1581.39,-285.73"/>
</a>
</g>
</g>
<!-- Node13 -->
<g id="Node000013" class="node">
<title>Node13</title>
<g id="a_Node000013"><a xlink:href="classConsoleRenderer.html#aa9273ce964dc1492d66a30b772213e81" target="_top" xlink:title="Draws main menu screen.">
<polygon fill="white" stroke="#666666" points="1267,-342.42 1110,-342.42 1110,-323.42 1267,-323.42 1267,-342.42"/>
<text text-anchor="middle" x="1188.5" y="-330.42" font-family="Helvetica,sans-Serif" font-size="10.00">ConsoleRenderer::drawMenu</text>
</a>
</g>
</g>
<!-- Node1&#45;&gt;Node13 -->
<g id="edge19_Node000001_Node000013" class="edge">
<title>Node1&#45;&gt;Node13</title>
<g id="a_edge19_Node000001_Node000013"><a xlink:title=" ">
<path fill="none" stroke="#63b8ff" d="M1563.23,-280.75C1542.89,-288.84 1518.08,-297.63 1495,-302.92 1418.77,-320.37 1329.54,-327.68 1267.27,-330.73"/>
<polygon fill="#63b8ff" stroke="#63b8ff" points="1564.58,-283.98 1572.53,-276.97 1561.95,-277.49 1564.58,-283.98"/>
</a>
</g>
</g>
<!-- Node14 -->
<g id="Node000014" class="node">
<title>Node14</title>
<g id="a_Node000014"><a xlink:href="classConsoleRenderer.html#a678f6e7177b2d466b8953d4f01bb7436" target="_top" xlink:title="Draws pause screen.">
<polygon fill="white" stroke="#666666" points="1057,-77.92 899,-77.92 899,-47.92 1057,-47.92 1057,-77.92"/>
<text text-anchor="start" x="907" y="-65.92" font-family="Helvetica,sans-Serif" font-size="10.00">ConsoleRenderer::drawPause</text>
<text text-anchor="middle" x="978" y="-54.92" font-family="Helvetica,sans-Serif" font-size="10.00">Screen</text>
</a>
</g>
</g>
<!-- Node1&#45;&gt;Node14 -->
<g id="edge21_Node000001_Node000014" class="edge">
<title>Node1&#45;&gt;Node14</title>
<g id="a_edge21_Node000001_Node000014"><a xlink:title=" ">
<path fill="none" stroke="#63b8ff" d="M1590.32,-238.37C1570.72,-211.55 1535.29,-168.2 1495,-142.92 1359.1,-57.61 1164.45,-52.02 1057.26,-56.7"/>
<polygon fill="#63b8ff" stroke="#63b8ff" points="1587.67,-240.68 1596.34,-246.78 1593.36,-236.61 1587.67,-240.68"/>
</a>
</g>
</g>
<!-- Node15 -->
<g id="Node000015" class="node">
<title>Node15</title>
<g id="a_Node000015"><a xlink:href="classConsoleRenderer.html#a0e17aa687bd8d7381b2bf8425b2a9709" target="_top" xlink:title="Draws settings screen.">
<polygon fill="white" stroke="#666666" points="1492.5,-293.42 1322.5,-293.42 1322.5,-274.42 1492.5,-274.42 1492.5,-293.42"/>
<text text-anchor="middle" x="1407.5" y="-281.42" font-family="Helvetica,sans-Serif" font-size="10.00">ConsoleRenderer::drawSettings</text>
</a>
</g>
</g>
<!-- Node1&#45;&gt;Node15 -->
<g id="edge24_Node000001_Node000015" class="edge">
<title>Node1&#45;&gt;Node15</title>
<g id="a_edge24_Node000001_Node000015"><a xlink:title=" ">
<path fill="none" stroke="#63b8ff" d="M1520.79,-271.44C1511.49,-272.47 1502.03,-273.52 1492.75,-274.56"/>
<polygon fill="#63b8ff" stroke="#63b8ff" points="1521.24,-274.91 1530.8,-270.33 1520.47,-267.95 1521.24,-274.91"/>
</a>
</g>
</g>
<!-- Node17 -->
<g id="Node000017" class="node">
<title>Node17</title>
<g id="a_Node000017"><a xlink:href="classGameController.html#a19dc0995b5ee51a87bf49dff90f4e991" target="_top" xlink:title="Handles terminal resize events.">
<polygon fill="white" stroke="#666666" points="1495,-255.92 1320,-255.92 1320,-225.92 1495,-225.92 1495,-255.92"/>
<text text-anchor="start" x="1328" y="-243.92" font-family="Helvetica,sans-Serif" font-size="10.00">GameController::handleTerminal</text>
<text text-anchor="middle" x="1407.5" y="-232.92" font-family="Helvetica,sans-Serif" font-size="10.00">Resize</text>
</a>
</g>
</g>
<!-- Node1&#45;&gt;Node17 -->
<g id="edge27_Node000001_Node000017" class="edge">
<title>Node1&#45;&gt;Node17</title>
<g id="a_edge27_Node000001_Node000017"><a xlink:title=" ">
<path fill="none" stroke="#63b8ff" d="M1520.85,-252.83C1512.31,-251.93 1503.63,-251.01 1495.08,-250.1"/>
<polygon fill="#63b8ff" stroke="#63b8ff" points="1520.48,-256.31 1530.8,-253.89 1521.22,-249.35 1520.48,-256.31"/>
</a>
</g>
</g>
<!-- Node18 -->
<g id="Node000018" class="node">
<title>Node18</title>
<g id="a_Node000018"><a xlink:href="classConsoleRenderer.html#ab34fa7af4ede79de3951f1d5271d7a27" target="_top" xlink:title="Renders the game world to console.">
<polygon fill="white" stroke="#666666" points="1046.5,-29.42 909.5,-29.42 909.5,-10.42 1046.5,-10.42 1046.5,-29.42"/>
<text text-anchor="middle" x="978" y="-17.42" font-family="Helvetica,sans-Serif" font-size="10.00">ConsoleRenderer::render</text>
</a>
</g>
</g>
<!-- Node1&#45;&gt;Node18 -->
<g id="edge34_Node000001_Node000018" class="edge">
<title>Node1&#45;&gt;Node18</title>
<g id="a_edge34_Node000001_Node000018"><a xlink:title=" ">
<path fill="none" stroke="#63b8ff" d="M1599.71,-237.05C1586.91,-195.4 1554.94,-112.33 1495,-73.92 1351.1,18.3 1137.03,3.48 1035.87,-10.37"/>
<polygon fill="#63b8ff" stroke="#63b8ff" points="1596.37,-238.1 1602.56,-246.7 1603.08,-236.11 1596.37,-238.1"/>
</a>
</g>
</g>
<!-- Node3 -->
<g id="Node000003" class="node">
<title>Node3</title>
<g id="a_Node000003"><a xlink:href="classGameController.html#af2367e58f03d8a1441c9a574967fd360" target="_top" xlink:title="Processes a single game turn/update cycle.">
<polygon fill="white" stroke="#666666" points="445,-186.42 258,-186.42 258,-167.42 445,-167.42 445,-186.42"/>
<text text-anchor="middle" x="351.5" y="-174.42" font-family="Helvetica,sans-Serif" font-size="10.00">GameController::processGameTurn</text>
</a>
</g>
</g>
<!-- Node2&#45;&gt;Node3 -->
<g id="edge2_Node000002_Node000003" class="edge">
<title>Node2&#45;&gt;Node3</title>
<g id="a_edge2_Node000002_Node000003"><a xlink:title=" ">
<path fill="none" stroke="#63b8ff" d="M505.94,-246.05C497.45,-243.98 488.97,-241.61 481,-238.92 438.99,-224.74 392.9,-200.07 368.98,-186.52"/>
<polygon fill="#63b8ff" stroke="#63b8ff" points="505.33,-249.5 515.86,-248.35 506.91,-242.69 505.33,-249.5"/>
</a>
</g>
</g>
<!-- Node4 -->
<g id="Node000004" class="node">
<title>Node4</title>
<g id="a_Node000004"><a xlink:href="classGameController.html#ac958989c8f7f08488546930e5fcb0d82" target="_top" xlink:title="Starts and runs the main game loop.">
<polygon fill="white" stroke="#666666" points="222,-245.42 77,-245.42 77,-226.42 222,-226.42 222,-245.42"/>
<text text-anchor="middle" x="149.5" y="-233.42" font-family="Helvetica,sans-Serif" font-size="10.00">GameController::runGame</text>
</a>
</g>
</g>
<!-- Node3&#45;&gt;Node4 -->
<g id="edge3_Node000003_Node000004" class="edge">
<title>Node3&#45;&gt;Node4</title>
<g id="a_edge3_Node000003_Node000004"><a xlink:title=" ">
<path fill="none" stroke="#63b8ff" d="M308.29,-189.37C270.81,-200.42 216.84,-216.35 182.73,-226.41"/>
<polygon fill="#63b8ff" stroke="#63b8ff" points="309.32,-192.71 317.92,-186.53 307.34,-186 309.32,-192.71"/>
</a>
</g>
</g>
<!-- Node5 -->
<g id="Node000005" class="node">
<title>Node5</title>
<g id="a_Node000005"><a xlink:href="main_8cpp.html#ae66f6b31b5ad750f1fe042a706a4e3d4" target="_top" xlink:title="Main function that serves as the application entry point.">
<polygon fill="white" stroke="#666666" points="41,-245.42 0,-245.42 0,-226.42 41,-226.42 41,-245.42"/>
<text text-anchor="middle" x="20.5" y="-233.42" font-family="Helvetica,sans-Serif" font-size="10.00">main</text>
</a>
</g>
</g>
<!-- Node4&#45;&gt;Node5 -->
<g id="edge4_Node000004_Node000005" class="edge">
<title>Node4&#45;&gt;Node5</title>
<g id="a_edge4_Node000004_Node000005"><a xlink:title=" ">
<path fill="none" stroke="#63b8ff" d="M66.79,-235.92C57.31,-235.92 48.43,-235.92 41.08,-235.92"/>
<polygon fill="#63b8ff" stroke="#63b8ff" points="66.83,-239.42 76.83,-235.92 66.83,-232.42 66.83,-239.42"/>
</a>
</g>
</g>
<!-- Node7 -->
<g id="Node000007" class="node">
<title>Node7</title>
<g id="a_Node000007"><a xlink:href="classGameController.html#a85bcf4ecfd197aad278e116215a3717b" target="_top" xlink:title="Displays level completion screen.">
<polygon fill="white" stroke="#666666" points="860,-191.92 708,-191.92 708,-161.92 860,-161.92 860,-191.92"/>
<text text-anchor="start" x="716" y="-179.92" font-family="Helvetica,sans-Serif" font-size="10.00">GameController::showLevel</text>
<text text-anchor="middle" x="784" y="-168.92" font-family="Helvetica,sans-Serif" font-size="10.00">CompleteScreen</text>
</a>
</g>
</g>
<!-- Node6&#45;&gt;Node7 -->
<g id="edge6_Node000006_Node000007" class="edge">
<title>Node6&#45;&gt;Node7</title>
<g id="a_edge6_Node000006_Node000007"><a xlink:title=" ">
<path fill="none" stroke="#63b8ff" d="M1100.46,-117.35C1028.83,-130.88 928.34,-149.85 860.17,-162.72"/>
<polygon fill="#63b8ff" stroke="#63b8ff" points="1101.19,-120.77 1110.37,-115.48 1099.89,-113.9 1101.19,-120.77"/>
</a>
</g>
</g>
<!-- Node7&#45;&gt;Node3 -->
<g id="edge7_Node000007_Node000003" class="edge">
<title>Node7&#45;&gt;Node3</title>
<g id="a_edge7_Node000007_Node000003"><a xlink:title=" ">
<path fill="none" stroke="#63b8ff" d="M697.45,-176.92C624.55,-176.92 520.01,-176.92 445.15,-176.92"/>
<polygon fill="#63b8ff" stroke="#63b8ff" points="697.52,-180.42 707.52,-176.92 697.52,-173.42 697.52,-180.42"/>
</a>
</g>
</g>
<!-- Node9 -->
<g id="Node000009" class="node">
<title>Node9</title>
<g id="a_Node000009"><a xlink:href="classGameController.html#a4a9c94fe33cf6c73bb5dfc415d04d309" target="_top" xlink:title="Displays map selection screen.">
<polygon fill="white" stroke="#666666" points="1284,-379.42 1093,-379.42 1093,-360.42 1284,-360.42 1284,-379.42"/>
<text text-anchor="middle" x="1188.5" y="-367.42" font-family="Helvetica,sans-Serif" font-size="10.00">GameController::showMapSelection</text>
</a>
</g>
</g>
<!-- Node8&#45;&gt;Node9 -->
<g id="edge9_Node000008_Node000009" class="edge">
<title>Node8&#45;&gt;Node9</title>
<g id="a_edge9_Node000008_Node000009"><a xlink:title=" ">
<path fill="none" stroke="#63b8ff" d="M1321.64,-366.87C1309.37,-367.15 1296.69,-367.45 1284.25,-367.73"/>
<polygon fill="#63b8ff" stroke="#63b8ff" points="1321.9,-370.37 1331.82,-366.64 1321.74,-363.37 1321.9,-370.37"/>
</a>
</g>
</g>
<!-- Node10 -->
<g id="Node000010" class="node">
<title>Node10</title>
<g id="a_Node000010"><a xlink:href="classGameController.html#a971b3d8f6296a74f0bebc83b5e79c186" target="_top" xlink:title="Processes a user command.">
<polygon fill="white" stroke="#666666" points="669,-229.42 481,-229.42 481,-210.42 669,-210.42 669,-229.42"/>
<text text-anchor="middle" x="575" y="-217.42" font-family="Helvetica,sans-Serif" font-size="10.00">GameController::processCommand</text>
</a>
</g>
</g>
<!-- Node9&#45;&gt;Node10 -->
<g id="edge10_Node000009_Node000010" class="edge">
<title>Node9&#45;&gt;Node10</title>
<g id="a_edge10_Node000009_Node000010"><a xlink:title=" ">
<path fill="none" stroke="#63b8ff" d="M1082.36,-365.45C980.73,-357.39 824.95,-334.99 705,-272.92 685.72,-262.94 688.28,-249.88 669,-239.92 660.64,-235.6 651.39,-232.21 642.06,-229.55"/>
<polygon fill="#63b8ff" stroke="#63b8ff" points="1082.4,-368.96 1092.64,-366.23 1082.93,-361.98 1082.4,-368.96"/>
</a>
</g>
</g>
<!-- Node11 -->
<g id="Node000011" class="node">
<title>Node11</title>
<g id="a_Node000011"><a xlink:href="classGameController.html#a9d11b5a6255b7249bddba49df0837cf3" target="_top" xlink:title="Displays and manages the main menu.">
<polygon fill="white" stroke="#666666" points="1054,-305.42 902,-305.42 902,-286.42 1054,-286.42 1054,-305.42"/>
<text text-anchor="middle" x="978" y="-293.42" font-family="Helvetica,sans-Serif" font-size="10.00">GameController::showMenu</text>
</a>
</g>
</g>
<!-- Node9&#45;&gt;Node11 -->
<g id="edge12_Node000009_Node000011" class="edge">
<title>Node9&#45;&gt;Node11</title>
<g id="a_edge12_Node000009_Node000011"><a xlink:title=" ">
<path fill="none" stroke="#63b8ff" d="M1155.67,-358.17C1137.08,-354.22 1113.35,-349.72 1093,-342.92 1062.88,-332.86 1030.58,-316.39 1008.07,-305.52"/>
<polygon fill="#63b8ff" stroke="#63b8ff" points="1155.17,-361.64 1165.69,-360.37 1156.67,-354.8 1155.17,-361.64"/>
</a>
</g>
</g>
<!-- Node10&#45;&gt;Node3 -->
<g id="edge11_Node000010_Node000003" class="edge">
<title>Node10&#45;&gt;Node3</title>
<g id="a_edge11_Node000010_Node000003"><a xlink:title=" ">
<path fill="none" stroke="#63b8ff" d="M514.65,-208.39C479.27,-201.53 434.9,-192.91 401.52,-186.43"/>
<polygon fill="#63b8ff" stroke="#63b8ff" points="514.36,-211.9 524.84,-210.37 515.69,-205.03 514.36,-211.9"/>
</a>
</g>
</g>
<!-- Node11&#45;&gt;Node4 -->
<g id="edge16_Node000011_Node000004" class="edge">
<title>Node11&#45;&gt;Node4</title>
<g id="a_edge16_Node000011_Node000004"><a xlink:title=" ">
<path fill="none" stroke="#63b8ff" d="M891.43,-294.85C792.47,-293.1 624.72,-288.56 481,-276.92 387.78,-269.36 280.42,-254.99 214,-245.42"/>
<polygon fill="#63b8ff" stroke="#63b8ff" points="891.62,-298.35 901.67,-295.02 891.74,-291.35 891.62,-298.35"/>
</a>
</g>
</g>
<!-- Node11&#45;&gt;Node7 -->
<g id="edge17_Node000011_Node000007" class="edge">
<title>Node11&#45;&gt;Node7</title>
<g id="a_edge17_Node000011_Node000007"><a xlink:title=" ">
<path fill="none" stroke="#63b8ff" d="M961.15,-279.1C940.43,-258.03 902.17,-222.14 863,-200.92 856.77,-197.54 850,-194.57 843.14,-191.97"/>
<polygon fill="#63b8ff" stroke="#63b8ff" points="958.72,-281.63 968.19,-286.38 963.75,-276.76 958.72,-281.63"/>
</a>
</g>
</g>
<!-- Node11&#45;&gt;Node9 -->
<g id="edge18_Node000011_Node000009" class="edge">
<title>Node11&#45;&gt;Node9</title>
<g id="a_edge18_Node000011_Node000009"><a xlink:title=" ">
<path fill="none" stroke="#63b8ff" d="M994.97,-311.6C1016.43,-326.93 1056.14,-348.55 1092.69,-360.81"/>
<polygon fill="#63b8ff" stroke="#63b8ff" points="997.01,-308.76 986.94,-305.46 992.76,-314.32 997.01,-308.76"/>
</a>
</g>
</g>
<!-- Node11&#45;&gt;Node10 -->
<g id="edge15_Node000011_Node000010" class="edge">
<title>Node11&#45;&gt;Node10</title>
<g id="a_edge15_Node000011_Node000010"><a xlink:title=" ">
<path fill="none" stroke="#63b8ff" d="M916.79,-284.51C837.63,-269.5 699.99,-243.42 626.17,-229.43"/>
<polygon fill="#63b8ff" stroke="#63b8ff" points="916.14,-287.94 926.62,-286.37 917.45,-281.07 916.14,-287.94"/>
</a>
</g>
</g>
<!-- Node12 -->
<g id="Node000012" class="node">
<title>Node12</title>
<g id="a_Node000012"><a xlink:href="classGameController.html#a637ea4e72ed2be4a2884b30160b3e8ab" target="_top" xlink:title="Pauses the game and displays pause screen.">
<polygon fill="white" stroke="#666666" points="863,-229.42 705,-229.42 705,-210.42 863,-210.42 863,-229.42"/>
<text text-anchor="middle" x="784" y="-217.42" font-family="Helvetica,sans-Serif" font-size="10.00">GameController::pauseGame</text>
</a>
</g>
</g>
<!-- Node11&#45;&gt;Node12 -->
<g id="edge13_Node000011_Node000012" class="edge">
<title>Node11&#45;&gt;Node12</title>
<g id="a_edge13_Node000011_Node000012"><a xlink:title=" ">
<path fill="none" stroke="#63b8ff" d="M948.86,-281.84C926.04,-270.74 892.89,-255.28 863,-243.92 848.96,-238.58 833.18,-233.55 819.5,-229.48"/>
<polygon fill="#63b8ff" stroke="#63b8ff" points="947.44,-285.05 957.96,-286.31 950.52,-278.76 947.44,-285.05"/>
</a>
</g>
</g>
<!-- Node12&#45;&gt;Node10 -->
<g id="edge14_Node000012_Node000010" class="edge">
<title>Node12&#45;&gt;Node10</title>
<g id="a_edge14_Node000012_Node000010"><a xlink:title=" ">
<path fill="none" stroke="#63b8ff" d="M694.62,-219.92C686.25,-219.92 677.75,-219.92 669.34,-219.92"/>
<polygon fill="#63b8ff" stroke="#63b8ff" points="694.74,-223.42 704.74,-219.92 694.74,-216.42 694.74,-223.42"/>
</a>
</g>
</g>
<!-- Node13&#45;&gt;Node11 -->
<g id="edge20_Node000013_Node000011" class="edge">
<title>Node13&#45;&gt;Node11</title>
<g id="a_edge20_Node000013_Node000011"><a xlink:title=" ">
<path fill="none" stroke="#63b8ff" d="M1123.75,-321.6C1094.68,-316.45 1060.64,-310.4 1032.87,-305.48"/>
<polygon fill="#63b8ff" stroke="#63b8ff" points="1123.35,-325.09 1133.81,-323.39 1124.57,-318.19 1123.35,-325.09"/>
</a>
</g>
</g>
<!-- Node14&#45;&gt;Node3 -->
<g id="edge23_Node000014_Node000003" class="edge">
<title>Node14&#45;&gt;Node3</title>
<g id="a_edge23_Node000014_Node000003"><a xlink:title=" ">
<path fill="none" stroke="#63b8ff" d="M888.42,-54.5C787.13,-47.94 617.69,-46.41 481,-91.92 431.77,-108.31 383.36,-148.67 362.8,-167.26"/>
<polygon fill="#63b8ff" stroke="#63b8ff" points="888.4,-58 898.61,-55.19 888.87,-51.02 888.4,-58"/>
</a>
</g>
</g>
<!-- Node14&#45;&gt;Node12 -->
<g id="edge22_Node000014_Node000012" class="edge">
<title>Node14&#45;&gt;Node12</title>
<g id="a_edge22_Node000014_Node000012"><a xlink:title=" ">
<path fill="none" stroke="#63b8ff" d="M963.8,-87C945.4,-118.22 909.06,-172.06 863,-200.92 856.86,-204.76 849.99,-207.83 842.95,-210.28"/>
<polygon fill="#63b8ff" stroke="#63b8ff" points="966.97,-88.5 968.92,-78.09 960.9,-85.01 966.97,-88.5"/>
</a>
</g>
</g>
<!-- Node16 -->
<g id="Node000016" class="node">
<title>Node16</title>
<g id="a_Node000016"><a xlink:href="classGameController.html#a24f5cae258418d4a5934e6f412c28945" target="_top" xlink:title="Displays and manages the settings menu.">
<polygon fill="white" stroke="#666666" points="1271,-305.42 1106,-305.42 1106,-286.42 1271,-286.42 1271,-305.42"/>
<text text-anchor="middle" x="1188.5" y="-293.42" font-family="Helvetica,sans-Serif" font-size="10.00">GameController::showSettings</text>
</a>
</g>
</g>
<!-- Node15&#45;&gt;Node16 -->
<g id="edge25_Node000015_Node000016" class="edge">
<title>Node15&#45;&gt;Node16</title>
<g id="a_edge25_Node000015_Node000016"><a xlink:title=" ">
<path fill="none" stroke="#63b8ff" d="M1311.97,-289.14C1298.37,-289.9 1284.48,-290.66 1271.17,-291.4"/>
<polygon fill="#63b8ff" stroke="#63b8ff" points="1312.5,-292.62 1322.29,-288.57 1312.11,-285.63 1312.5,-292.62"/>
</a>
</g>
</g>
<!-- Node16&#45;&gt;Node11 -->
<g id="edge26_Node000016_Node000011" class="edge">
<title>Node16&#45;&gt;Node11</title>
<g id="a_edge26_Node000016_Node000011"><a xlink:title=" ">
<path fill="none" stroke="#63b8ff" d="M1095.94,-295.92C1082.04,-295.92 1067.83,-295.92 1054.32,-295.92"/>
<polygon fill="#63b8ff" stroke="#63b8ff" points="1095.99,-299.42 1105.99,-295.92 1095.99,-292.42 1095.99,-299.42"/>
</a>
</g>
</g>
<!-- Node17&#45;&gt;Node3 -->
<g id="edge29_Node000017_Node000003" class="edge">
<title>Node17&#45;&gt;Node3</title>
<g id="a_edge29_Node000017_Node000003"><a xlink:title=" ">
<path fill="none" stroke="#63b8ff" d="M1355.1,-222.68C1333.39,-215.58 1307.7,-207.96 1284,-202.92 1031.36,-149.2 963.14,-144.14 705,-152.92 616.72,-155.92 516.22,-163.14 445.18,-168.88"/>
<polygon fill="#63b8ff" stroke="#63b8ff" points="1354.17,-226.06 1364.77,-225.89 1356.38,-219.42 1354.17,-226.06"/>
</a>
</g>
</g>
<!-- Node17&#45;&gt;Node7 -->
<g id="edge30_Node000017_Node000007" class="edge">
<title>Node17&#45;&gt;Node7</title>
<g id="a_edge30_Node000017_Node000007"><a xlink:title=" ">
<path fill="none" stroke="#63b8ff" d="M1309.68,-228.84C1301,-227.83 1292.34,-226.84 1284,-225.92 1133.88,-209.36 958.04,-192.74 860.3,-183.74"/>
<polygon fill="#63b8ff" stroke="#63b8ff" points="1309.52,-232.35 1319.86,-230.05 1310.34,-225.4 1309.52,-232.35"/>
</a>
</g>
</g>
<!-- Node17&#45;&gt;Node9 -->
<g id="edge31_Node000017_Node000009" class="edge">
<title>Node17&#45;&gt;Node9</title>
<g id="a_edge31_Node000017_Node000009"><a xlink:title=" ">
<path fill="none" stroke="#63b8ff" d="M1325.52,-261.51C1323.6,-262.89 1321.75,-264.35 1320,-265.92 1289.06,-293.48 1316.19,-325.82 1284,-351.92 1279.98,-355.18 1275.55,-357.91 1270.86,-360.2"/>
<polygon fill="#63b8ff" stroke="#63b8ff" points="1327.7,-264.28 1334.38,-256.05 1324.03,-258.32 1327.7,-264.28"/>
</a>
</g>
</g>
<!-- Node17&#45;&gt;Node11 -->
<g id="edge32_Node000017_Node000011" class="edge">
<title>Node17&#45;&gt;Node11</title>
<g id="a_edge32_Node000017_Node000011"><a xlink:title=" ">
<path fill="none" stroke="#63b8ff" d="M1309.72,-251.35C1247.7,-258.28 1165.51,-267.92 1093,-277.92 1074.54,-280.46 1054.45,-283.53 1036.35,-286.41"/>
<polygon fill="#63b8ff" stroke="#63b8ff" points="1310.34,-254.8 1319.89,-250.22 1309.56,-247.84 1310.34,-254.8"/>
</a>
</g>
</g>
<!-- Node17&#45;&gt;Node12 -->
<g id="edge28_Node000017_Node000012" class="edge">
<title>Node17&#45;&gt;Node12</title>
<g id="a_edge28_Node000017_Node000012"><a xlink:title=" ">
<path fill="none" stroke="#63b8ff" d="M1309.59,-237.64C1186.54,-233.48 976.64,-226.39 863.24,-222.56"/>
<polygon fill="#63b8ff" stroke="#63b8ff" points="1309.64,-241.15 1319.76,-237.99 1309.88,-234.15 1309.64,-241.15"/>
</a>
</g>
</g>
<!-- Node17&#45;&gt;Node16 -->
<g id="edge33_Node000017_Node000016" class="edge">
<title>Node17&#45;&gt;Node16</title>
<g id="a_edge33_Node000017_Node000016"><a xlink:title=" ">
<path fill="none" stroke="#63b8ff" d="M1337.12,-258.5C1300.69,-267.74 1257.45,-278.69 1227.22,-286.36"/>
<polygon fill="#63b8ff" stroke="#63b8ff" points="1338.37,-261.8 1347.2,-255.95 1336.65,-255.01 1338.37,-261.8"/>
</a>
</g>
</g>
<!-- Node18&#45;&gt;Node3 -->
<g id="edge35_Node000018_Node000003" class="edge">
<title>Node18&#45;&gt;Node3</title>
<g id="a_edge35_Node000018_Node000003"><a xlink:title=" ">
<path fill="none" stroke="#63b8ff" d="M900.07,-9.28C799.14,1.25 618.7,8.08 481,-52.92 422.89,-78.66 375.45,-142.69 358.85,-167.18"/>
<polygon fill="#63b8ff" stroke="#63b8ff" points="899.87,-12.77 910.19,-10.37 900.62,-5.81 899.87,-12.77"/>
</a>
</g>
</g>
</g>
</svg>

<g id="navigator" transform="translate(0 0)" fill="#404254">
  <rect fill="#f2f5e9" fill-opacity="0.5" stroke="#606060" stroke-width=".5" x="0" y="0" width="60" height="60"/>
  <use id="zoomplus" xlink:href="#zoomPlus" x="17" y="9" onmousedown="handleZoom(evt,'in')"/>
  <use id="zoomminus" xlink:href="#zoomMin" x="42" y="9" onmousedown="handleZoom(evt,'out')"/>
  <use id="reset" xlink:href="#resetDef" x="30" y="36" onmousedown="handleReset()"/>
   <use id="arrowup" xlink:href="#arrowUp" x="0" y="0" onmousedown="handlePan(0,-1)"/>
  <use id="arrowright" xlink:href="#arrowRight" x="0" y="0" onmousedown="handlePan(1,0)"/>
  <use id="arrowdown" xlink:href="#arrowDown" x="0" y="0" onmousedown="handlePan(0,1)"/>
  <use id="arrowleft" xlink:href="#arrowLeft" x="0" y="0" onmousedown="handlePan(-1,0)"/>
</g>
<svg viewBox="0 0 15 15" width="100%" height="30px" preserveAspectRatio="xMaxYMin meet">
 <g id="arrow_out" transform="scale(0.3 0.3)">
  <a xlink:href="classConsoleRenderer_af59760cefd8647cf4b6fe34774cac2c1_icgraph_org.svg" target="_base">
   <rect id="button" ry="5" rx="5" y="6" x="6" height="38" width="38"
        fill="#f2f5e9" fill-opacity="0.5" stroke="#606060" stroke-width="1.0"/>
   <path id="arrow"
     d="M 11.500037,31.436501 C 11.940474,20.09759 22.043105,11.32322 32.158766,21.979434 L 37.068811,17.246167 C 37.068811,17.246167 37.088388,32 37.088388,32 L 22.160133,31.978069 C 22.160133,31.978069 26.997745,27.140456 26.997745,27.140456 C 18.528582,18.264221 13.291696,25.230495 11.500037,31.436501 z"
     style="fill:#404040;"/>
  </a>
 </g>
</svg>

<style type='text/css'>
<![CDATA[
[data-mouse-over-selected='false'] { opacity: 0.7; }
[data-mouse-over-selected='true']  { opacity: 1.0; }
]]>
</style>
<script type="application/ecmascript"><![CDATA[
document.addEventListener('DOMContentLoaded', (event) => {
  highlightEdges();
  highlightAdjacentNodes();
});
]]></script>
</svg>
