<?xml version="1.0" encoding="UTF-8" standalone="no"?>
<!DOCTYPE svg PUBLIC "-//W3C//DTD SVG 1.1//EN"
 "http://www.w3.org/Graphics/SVG/1.1/DTD/svg11.dtd">
<!-- Generated by graphviz version 2.43.0 (0)
 -->
<!-- Title: getGraphicsMap Pages: 1 -->
<svg width="1808pt" height="174pt"
 viewBox="0.00 0.00 1808.00 174.25" xmlns="http://www.w3.org/2000/svg" xmlns:xlink="http://www.w3.org/1999/xlink">
<g id="graph0" class="graph" transform="scale(1 1) rotate(0) translate(4 170.25)">
<title>getGraphicsMap</title>
<!-- Node1 -->
<g id="Node000001" class="node">
<title>Node1</title>
<g id="a_Node000001"><a xlink:title=" ">
<polygon fill="#999999" stroke="#666666" points="1800,-63.5 1704,-63.5 1704,-44.5 1800,-44.5 1800,-63.5"/>
<text text-anchor="middle" x="1752" y="-51.5" font-family="Helvetica,sans-Serif" font-size="10.00">getGraphicsMap</text>
</a>
</g>
</g>
<!-- Node2 -->
<g id="Node000002" class="node">
<title>Node2</title>
<g id="a_Node000002"><a xlink:href="classConsoleRenderer.html#ab6e419a1d0f420decceba8e545890318" target="_top" xlink:title="Draws map preview for selection screen.">
<polygon fill="white" stroke="#666666" points="1660,-123 1509,-123 1509,-93 1660,-93 1660,-123"/>
<text text-anchor="start" x="1517" y="-111" font-family="Helvetica,sans-Serif" font-size="10.00">ConsoleRenderer::drawMap</text>
<text text-anchor="middle" x="1584.5" y="-100" font-family="Helvetica,sans-Serif" font-size="10.00">Preview</text>
</a>
</g>
</g>
<!-- Node1&#45;&gt;Node2 -->
<g id="edge1_Node000001_Node000002" class="edge">
<title>Node1&#45;&gt;Node2</title>
<g id="a_edge1_Node000001_Node000002"><a xlink:title=" ">
<path fill="none" stroke="#63b8ff" d="M1712.26,-66.64C1688.14,-74.51 1656.98,-84.68 1631.59,-92.96"/>
<polygon fill="#63b8ff" stroke="#63b8ff" points="1713.37,-69.96 1721.79,-63.53 1711.2,-63.3 1713.37,-69.96"/>
</a>
</g>
</g>
<!-- Node12 -->
<g id="Node000012" class="node">
<title>Node12</title>
<g id="a_Node000012"><a xlink:href="classConsoleRenderer.html#ae0a5ec8d9b0ab1252c3a8a9eae7bceaa" target="_top" xlink:title="Draws symbol legend explaining game symbols.">
<polygon fill="white" stroke="#666666" points="1668,-69 1501,-69 1501,-39 1668,-39 1668,-69"/>
<text text-anchor="start" x="1509" y="-57" font-family="Helvetica,sans-Serif" font-size="10.00">ConsoleRenderer::drawSymbol</text>
<text text-anchor="middle" x="1584.5" y="-46" font-family="Helvetica,sans-Serif" font-size="10.00">Legend</text>
</a>
</g>
</g>
<!-- Node1&#45;&gt;Node12 -->
<g id="edge16_Node000001_Node000012" class="edge">
<title>Node1&#45;&gt;Node12</title>
<g id="a_edge16_Node000001_Node000012"><a xlink:title=" ">
<path fill="none" stroke="#63b8ff" d="M1693.46,-54C1685.3,-54 1676.78,-54 1668.25,-54"/>
<polygon fill="#63b8ff" stroke="#63b8ff" points="1693.57,-57.5 1703.57,-54 1693.57,-50.5 1693.57,-57.5"/>
</a>
</g>
</g>
<!-- Node13 -->
<g id="Node000013" class="node">
<title>Node13</title>
<g id="a_Node000013"><a xlink:href="classConsoleRenderer.html#ab34fa7af4ede79de3951f1d5271d7a27" target="_top" xlink:title="Renders the game world to console.">
<polygon fill="white" stroke="#666666" points="1458,-20.5 1321,-20.5 1321,-1.5 1458,-1.5 1458,-20.5"/>
<text text-anchor="middle" x="1389.5" y="-8.5" font-family="Helvetica,sans-Serif" font-size="10.00">ConsoleRenderer::render</text>
</a>
</g>
</g>
<!-- Node1&#45;&gt;Node13 -->
<g id="edge19_Node000001_Node000013" class="edge">
<title>Node1&#45;&gt;Node13</title>
<g id="a_edge19_Node000001_Node000013"><a xlink:title=" ">
<path fill="none" stroke="#63b8ff" d="M1713.47,-41.31C1699.37,-37.03 1683.1,-32.67 1668,-30 1597.15,-17.48 1514.76,-13.1 1458.28,-11.62"/>
<polygon fill="#63b8ff" stroke="#63b8ff" points="1712.72,-44.74 1723.3,-44.38 1714.8,-38.06 1712.72,-44.74"/>
</a>
</g>
</g>
<!-- Node3 -->
<g id="Node000003" class="node">
<title>Node3</title>
<g id="a_Node000003"><a xlink:href="classConsoleRenderer.html#afd03640670c991dfa8240af639c2f0da" target="_top" xlink:title="Draws map selection screen.">
<polygon fill="white" stroke="#666666" points="1465,-124 1314,-124 1314,-94 1465,-94 1465,-124"/>
<text text-anchor="start" x="1322" y="-112" font-family="Helvetica,sans-Serif" font-size="10.00">ConsoleRenderer::drawMap</text>
<text text-anchor="middle" x="1389.5" y="-101" font-family="Helvetica,sans-Serif" font-size="10.00">Selection</text>
</a>
</g>
</g>
<!-- Node2&#45;&gt;Node3 -->
<g id="edge2_Node000002_Node000003" class="edge">
<title>Node2&#45;&gt;Node3</title>
<g id="a_edge2_Node000002_Node000003"><a xlink:title=" ">
<path fill="none" stroke="#63b8ff" d="M1498.72,-108.44C1487.57,-108.5 1476.21,-108.56 1465.24,-108.61"/>
<polygon fill="#63b8ff" stroke="#63b8ff" points="1498.9,-111.94 1508.88,-108.39 1498.86,-104.94 1498.9,-111.94"/>
</a>
</g>
</g>
<!-- Node4 -->
<g id="Node000004" class="node">
<title>Node4</title>
<g id="a_Node000004"><a xlink:href="classGameController.html#a4a9c94fe33cf6c73bb5dfc415d04d309" target="_top" xlink:title="Displays map selection screen.">
<polygon fill="white" stroke="#666666" points="1278,-119.5 1087,-119.5 1087,-100.5 1278,-100.5 1278,-119.5"/>
<text text-anchor="middle" x="1182.5" y="-107.5" font-family="Helvetica,sans-Serif" font-size="10.00">GameController::showMapSelection</text>
</a>
</g>
</g>
<!-- Node3&#45;&gt;Node4 -->
<g id="edge3_Node000003_Node000004" class="edge">
<title>Node3&#45;&gt;Node4</title>
<g id="a_edge3_Node000003_Node000004"><a xlink:title=" ">
<path fill="none" stroke="#63b8ff" d="M1303.77,-109.41C1295.38,-109.45 1286.82,-109.5 1278.34,-109.54"/>
<polygon fill="#63b8ff" stroke="#63b8ff" points="1303.93,-112.91 1313.91,-109.36 1303.89,-105.91 1303.93,-112.91"/>
</a>
</g>
</g>
<!-- Node5 -->
<g id="Node000005" class="node">
<title>Node5</title>
<g id="a_Node000005"><a xlink:href="classGameController.html#a971b3d8f6296a74f0bebc83b5e79c186" target="_top" xlink:title="Processes a user command.">
<polygon fill="white" stroke="#666666" points="669,-92.5 481,-92.5 481,-73.5 669,-73.5 669,-92.5"/>
<text text-anchor="middle" x="575" y="-80.5" font-family="Helvetica,sans-Serif" font-size="10.00">GameController::processCommand</text>
</a>
</g>
</g>
<!-- Node4&#45;&gt;Node5 -->
<g id="edge4_Node000004_Node000005" class="edge">
<title>Node4&#45;&gt;Node5</title>
<g id="a_edge4_Node000004_Node000005"><a xlink:title=" ">
<path fill="none" stroke="#63b8ff" d="M1134.23,-98.13C1048.67,-78.11 862.39,-41.3 705,-57 673.74,-60.12 638.85,-67.39 613.24,-73.45"/>
<polygon fill="#63b8ff" stroke="#63b8ff" points="1133.62,-101.58 1144.16,-100.48 1135.23,-94.77 1133.62,-101.58"/>
</a>
</g>
</g>
<!-- Node9 -->
<g id="Node000009" class="node">
<title>Node9</title>
<g id="a_Node000009"><a xlink:href="classGameController.html#a9d11b5a6255b7249bddba49df0837cf3" target="_top" xlink:title="Displays and manages the main menu.">
<polygon fill="white" stroke="#666666" points="1051,-122.5 899,-122.5 899,-103.5 1051,-103.5 1051,-122.5"/>
<text text-anchor="middle" x="975" y="-110.5" font-family="Helvetica,sans-Serif" font-size="10.00">GameController::showMenu</text>
</a>
</g>
</g>
<!-- Node4&#45;&gt;Node9 -->
<g id="edge8_Node000004_Node000009" class="edge">
<title>Node4&#45;&gt;Node9</title>
<g id="a_edge8_Node000004_Node000009"><a xlink:title=" ">
<path fill="none" stroke="#63b8ff" d="M1076.72,-104.78C1068.06,-104.92 1059.43,-105.12 1051.06,-105.38"/>
<polygon fill="#63b8ff" stroke="#63b8ff" points="1076.92,-108.28 1086.87,-104.65 1076.83,-101.28 1076.92,-108.28"/>
</a>
</g>
</g>
<!-- Node6 -->
<g id="Node000006" class="node">
<title>Node6</title>
<g id="a_Node000006"><a xlink:href="classGameController.html#af2367e58f03d8a1441c9a574967fd360" target="_top" xlink:title="Processes a single game turn/update cycle.">
<polygon fill="white" stroke="#666666" points="445,-107.5 258,-107.5 258,-88.5 445,-88.5 445,-107.5"/>
<text text-anchor="middle" x="351.5" y="-95.5" font-family="Helvetica,sans-Serif" font-size="10.00">GameController::processGameTurn</text>
</a>
</g>
</g>
<!-- Node5&#45;&gt;Node6 -->
<g id="edge5_Node000005_Node000006" class="edge">
<title>Node5&#45;&gt;Node6</title>
<g id="a_edge5_Node000005_Node000006"><a xlink:title=" ">
<path fill="none" stroke="#63b8ff" d="M470.5,-90.01C462.1,-90.58 453.65,-91.15 445.33,-91.71"/>
<polygon fill="#63b8ff" stroke="#63b8ff" points="470.97,-93.49 480.71,-89.32 470.49,-86.5 470.97,-93.49"/>
</a>
</g>
</g>
<!-- Node7 -->
<g id="Node000007" class="node">
<title>Node7</title>
<g id="a_Node000007"><a xlink:href="classGameController.html#ac958989c8f7f08488546930e5fcb0d82" target="_top" xlink:title="Starts and runs the main game loop.">
<polygon fill="white" stroke="#666666" points="222,-146.5 77,-146.5 77,-127.5 222,-127.5 222,-146.5"/>
<text text-anchor="middle" x="149.5" y="-134.5" font-family="Helvetica,sans-Serif" font-size="10.00">GameController::runGame</text>
</a>
</g>
</g>
<!-- Node6&#45;&gt;Node7 -->
<g id="edge6_Node000006_Node000007" class="edge">
<title>Node6&#45;&gt;Node7</title>
<g id="a_edge6_Node000006_Node000007"><a xlink:title=" ">
<path fill="none" stroke="#63b8ff" d="M291.45,-109.51C262.1,-115.24 227.07,-122.07 199.27,-127.49"/>
<polygon fill="#63b8ff" stroke="#63b8ff" points="292.43,-112.89 301.57,-107.54 291.09,-106.02 292.43,-112.89"/>
</a>
</g>
</g>
<!-- Node8 -->
<g id="Node000008" class="node">
<title>Node8</title>
<g id="a_Node000008"><a xlink:href="main_8cpp.html#ae66f6b31b5ad750f1fe042a706a4e3d4" target="_top" xlink:title="Main function that serves as the application entry point.">
<polygon fill="white" stroke="#666666" points="41,-146.5 0,-146.5 0,-127.5 41,-127.5 41,-146.5"/>
<text text-anchor="middle" x="20.5" y="-134.5" font-family="Helvetica,sans-Serif" font-size="10.00">main</text>
</a>
</g>
</g>
<!-- Node7&#45;&gt;Node8 -->
<g id="edge7_Node000007_Node000008" class="edge">
<title>Node7&#45;&gt;Node8</title>
<g id="a_edge7_Node000007_Node000008"><a xlink:title=" ">
<path fill="none" stroke="#63b8ff" d="M66.79,-137C57.31,-137 48.43,-137 41.08,-137"/>
<polygon fill="#63b8ff" stroke="#63b8ff" points="66.83,-140.5 76.83,-137 66.83,-133.5 66.83,-140.5"/>
</a>
</g>
</g>
<!-- Node9&#45;&gt;Node4 -->
<g id="edge15_Node000009_Node000004" class="edge">
<title>Node9&#45;&gt;Node4</title>
<g id="a_edge15_Node000009_Node000004"><a xlink:title=" ">
<path fill="none" stroke="#63b8ff" d="M1061.27,-118.42C1069.72,-118.38 1078.33,-118.28 1086.87,-118.11"/>
<polygon fill="#63b8ff" stroke="#63b8ff" points="1061.05,-114.92 1051.06,-118.43 1061.06,-121.92 1061.05,-114.92"/>
</a>
</g>
</g>
<!-- Node9&#45;&gt;Node5 -->
<g id="edge11_Node000009_Node000005" class="edge">
<title>Node9&#45;&gt;Node5</title>
<g id="a_edge11_Node000009_Node000005"><a xlink:title=" ">
<path fill="none" stroke="#63b8ff" d="M888.86,-107.87C835.93,-104.54 766.47,-99.92 705,-95 693.45,-94.08 681.33,-93.04 669.33,-91.97"/>
<polygon fill="#63b8ff" stroke="#63b8ff" points="888.68,-111.37 898.88,-108.5 889.12,-104.38 888.68,-111.37"/>
</a>
</g>
</g>
<!-- Node9&#45;&gt;Node7 -->
<g id="edge12_Node000009_Node000007" class="edge">
<title>Node9&#45;&gt;Node7</title>
<g id="a_edge12_Node000009_Node000007"><a xlink:title=" ">
<path fill="none" stroke="#63b8ff" d="M936.44,-125.56C915.14,-132.16 887.86,-139.74 863,-144 631.49,-183.65 351.44,-160.63 222.22,-146.1"/>
<polygon fill="#63b8ff" stroke="#63b8ff" points="937.6,-128.87 946.08,-122.52 935.49,-122.2 937.6,-128.87"/>
</a>
</g>
</g>
<!-- Node10 -->
<g id="Node000010" class="node">
<title>Node10</title>
<g id="a_Node000010"><a xlink:href="classGameController.html#a637ea4e72ed2be4a2884b30160b3e8ab" target="_top" xlink:title="Pauses the game and displays pause screen.">
<polygon fill="white" stroke="#666666" points="863,-85.5 705,-85.5 705,-66.5 863,-66.5 863,-85.5"/>
<text text-anchor="middle" x="784" y="-73.5" font-family="Helvetica,sans-Serif" font-size="10.00">GameController::pauseGame</text>
</a>
</g>
</g>
<!-- Node9&#45;&gt;Node10 -->
<g id="edge9_Node000009_Node000010" class="edge">
<title>Node9&#45;&gt;Node10</title>
<g id="a_edge9_Node000009_Node000010"><a xlink:title=" ">
<path fill="none" stroke="#63b8ff" d="M915.17,-101.48C889.06,-96.37 858.67,-90.42 833.84,-85.56"/>
<polygon fill="#63b8ff" stroke="#63b8ff" points="914.84,-104.99 925.33,-103.47 916.19,-98.12 914.84,-104.99"/>
</a>
</g>
</g>
<!-- Node11 -->
<g id="Node000011" class="node">
<title>Node11</title>
<g id="a_Node000011"><a xlink:href="classGameController.html#a85bcf4ecfd197aad278e116215a3717b" target="_top" xlink:title="Displays level completion screen.">
<polygon fill="white" stroke="#666666" points="651,-148 499,-148 499,-118 651,-118 651,-148"/>
<text text-anchor="start" x="507" y="-136" font-family="Helvetica,sans-Serif" font-size="10.00">GameController::showLevel</text>
<text text-anchor="middle" x="575" y="-125" font-family="Helvetica,sans-Serif" font-size="10.00">CompleteScreen</text>
</a>
</g>
</g>
<!-- Node9&#45;&gt;Node11 -->
<g id="edge13_Node000009_Node000011" class="edge">
<title>Node9&#45;&gt;Node11</title>
<g id="a_edge13_Node000009_Node000011"><a xlink:title=" ">
<path fill="none" stroke="#63b8ff" d="M903.04,-123.85C889.76,-125.52 875.98,-127.01 863,-128 791.2,-133.46 709.01,-134.35 651.04,-134.09"/>
<polygon fill="#63b8ff" stroke="#63b8ff" points="903.6,-127.3 913.07,-122.54 902.7,-120.36 903.6,-127.3"/>
</a>
</g>
</g>
<!-- Node10&#45;&gt;Node5 -->
<g id="edge10_Node000010_Node000005" class="edge">
<title>Node10&#45;&gt;Node5</title>
<g id="a_edge10_Node000010_Node000005"><a xlink:title=" ">
<path fill="none" stroke="#63b8ff" d="M694.62,-78.99C686.25,-79.27 677.75,-79.56 669.34,-79.84"/>
<polygon fill="#63b8ff" stroke="#63b8ff" points="694.87,-82.48 704.74,-78.65 694.63,-75.49 694.87,-82.48"/>
</a>
</g>
</g>
<!-- Node11&#45;&gt;Node6 -->
<g id="edge14_Node000011_Node000006" class="edge">
<title>Node11&#45;&gt;Node6</title>
<g id="a_edge14_Node000011_Node000006"><a xlink:title=" ">
<path fill="none" stroke="#63b8ff" d="M488.74,-119.53C463.45,-115.53 436.29,-111.24 412.92,-107.55"/>
<polygon fill="#63b8ff" stroke="#63b8ff" points="488.28,-123 498.7,-121.1 489.37,-116.08 488.28,-123"/>
</a>
</g>
</g>
<!-- Node12&#45;&gt;Node13 -->
<g id="edge17_Node000012_Node000013" class="edge">
<title>Node12&#45;&gt;Node13</title>
<g id="a_edge17_Node000012_Node000013"><a xlink:title=" ">
<path fill="none" stroke="#63b8ff" d="M1506.2,-36.78C1481.33,-31.24 1454.68,-25.3 1433.24,-20.52"/>
<polygon fill="#63b8ff" stroke="#63b8ff" points="1505.48,-40.2 1516,-38.96 1507,-33.37 1505.48,-40.2"/>
</a>
</g>
</g>
<!-- Node13&#45;&gt;Node6 -->
<g id="edge18_Node000013_Node000006" class="edge">
<title>Node13&#45;&gt;Node6</title>
<g id="a_edge18_Node000013_Node000006"><a xlink:title=" ">
<path fill="none" stroke="#63b8ff" d="M1310.9,-7.7C1228,-4.46 1092.74,0 976,0 976,0 976,0 783,0 624.71,0 441.67,-63.77 376.81,-88.42"/>
<polygon fill="#63b8ff" stroke="#63b8ff" points="1310.86,-11.2 1320.99,-8.1 1311.14,-4.2 1310.86,-11.2"/>
</a>
</g>
</g>
</g>
</svg>
