<?xml version="1.0" encoding="UTF-8" standalone="no"?>
<!DOCTYPE svg PUBLIC "-//W3C//DTD SVG 1.1//EN"
 "http://www.w3.org/Graphics/SVG/1.1/DTD/svg11.dtd">
<!-- Generated by graphviz version 2.43.0 (0)
 -->
<!-- Title: src/view/ConsoleRenderer.h Pages: 1 -->
<svg width="438pt" height="137pt"
 viewBox="0.00 0.00 437.50 137.00" xmlns="http://www.w3.org/2000/svg" xmlns:xlink="http://www.w3.org/1999/xlink">
<g id="graph0" class="graph" transform="scale(1 1) rotate(0) translate(4 133)">
<title>src/view/ConsoleRenderer.h</title>
<!-- Node1 -->
<g id="Node000001" class="node">
<title>Node1</title>
<g id="a_Node000001"><a xlink:title="Renders game state, menus, and UI elements to the console.">
<polygon fill="#999999" stroke="#666666" points="332,-129 180,-129 180,-110 332,-110 332,-129"/>
<text text-anchor="middle" x="256" y="-117" font-family="Helvetica,sans-Serif" font-size="10.00">src/view/ConsoleRenderer.h</text>
</a>
</g>
</g>
<!-- Node2 -->
<g id="Node000002" class="node">
<title>Node2</title>
<g id="a_Node000002"><a xlink:href="GameController_8h.html" target="_top" xlink:title="Central game controller coordinating model, view, and input systems.">
<polygon fill="white" stroke="#666666" points="248.5,-74 79.5,-74 79.5,-55 248.5,-55 248.5,-74"/>
<text text-anchor="middle" x="164" y="-62" font-family="Helvetica,sans-Serif" font-size="10.00">src/controller/GameController.h</text>
</a>
</g>
</g>
<!-- Node1&#45;&gt;Node2 -->
<g id="edge1_Node000001_Node000002" class="edge">
<title>Node1&#45;&gt;Node2</title>
<g id="a_edge1_Node000001_Node000002"><a xlink:title=" ">
<path fill="none" stroke="#63b8ff" d="M232.51,-104.97C215.69,-95.28 193.55,-82.52 179.05,-74.17"/>
<polygon fill="#63b8ff" stroke="#63b8ff" points="230.81,-108.03 241.22,-109.98 234.3,-101.96 230.81,-108.03"/>
</a>
</g>
</g>
<!-- Node5 -->
<g id="Node000005" class="node">
<title>Node5</title>
<g id="a_Node000005"><a xlink:href="ConsoleRenderer_8cpp.html" target="_top" xlink:title="Implementation of console&#45;based game rendering with ASCII/Unicode support.">
<polygon fill="white" stroke="#666666" points="429.5,-74 266.5,-74 266.5,-55 429.5,-55 429.5,-74"/>
<text text-anchor="middle" x="348" y="-62" font-family="Helvetica,sans-Serif" font-size="10.00">src/view/ConsoleRenderer.cpp</text>
</a>
</g>
</g>
<!-- Node1&#45;&gt;Node5 -->
<g id="edge4_Node000001_Node000005" class="edge">
<title>Node1&#45;&gt;Node5</title>
<g id="a_edge4_Node000001_Node000005"><a xlink:title=" ">
<path fill="none" stroke="#63b8ff" d="M279.49,-104.97C296.31,-95.28 318.45,-82.52 332.95,-74.17"/>
<polygon fill="#63b8ff" stroke="#63b8ff" points="277.7,-101.96 270.78,-109.98 281.19,-108.03 277.7,-101.96"/>
</a>
</g>
</g>
<!-- Node3 -->
<g id="Node000003" class="node">
<title>Node3</title>
<g id="a_Node000003"><a xlink:href="GameController_8cpp.html" target="_top" xlink:title="Implementation of main game controller and game loop logic.">
<polygon fill="white" stroke="#666666" points="180,-19 0,-19 0,0 180,0 180,-19"/>
<text text-anchor="middle" x="90" y="-7" font-family="Helvetica,sans-Serif" font-size="10.00">src/controller/GameController.cpp</text>
</a>
</g>
</g>
<!-- Node2&#45;&gt;Node3 -->
<g id="edge2_Node000002_Node000003" class="edge">
<title>Node2&#45;&gt;Node3</title>
<g id="a_edge2_Node000002_Node000003"><a xlink:title=" ">
<path fill="none" stroke="#63b8ff" d="M143.97,-49.15C130.59,-39.57 113.44,-27.29 102.11,-19.17"/>
<polygon fill="#63b8ff" stroke="#63b8ff" points="141.94,-52.01 152.11,-54.98 146.02,-46.32 141.94,-52.01"/>
</a>
</g>
</g>
<!-- Node4 -->
<g id="Node000004" class="node">
<title>Node4</title>
<g id="a_Node000004"><a xlink:href="main_8cpp.html" target="_top" xlink:title="Main entry point for the Tank Simulator game.">
<polygon fill="white" stroke="#666666" points="277.5,-19 198.5,-19 198.5,0 277.5,0 277.5,-19"/>
<text text-anchor="middle" x="238" y="-7" font-family="Helvetica,sans-Serif" font-size="10.00">src/main.cpp</text>
</a>
</g>
</g>
<!-- Node2&#45;&gt;Node4 -->
<g id="edge3_Node000002_Node000004" class="edge">
<title>Node2&#45;&gt;Node4</title>
<g id="a_edge3_Node000002_Node000004"><a xlink:title=" ">
<path fill="none" stroke="#63b8ff" d="M184.03,-49.15C197.41,-39.57 214.56,-27.29 225.89,-19.17"/>
<polygon fill="#63b8ff" stroke="#63b8ff" points="181.98,-46.32 175.89,-54.98 186.06,-52.01 181.98,-46.32"/>
</a>
</g>
</g>
</g>
</svg>
