<?xml version="1.0" encoding="UTF-8" standalone="no"?>
<!DOCTYPE svg PUBLIC "-//W3C//DTD SVG 1.1//EN"
 "http://www.w3.org/Graphics/SVG/1.1/DTD/svg11.dtd">
<!-- Generated by graphviz version 2.43.0 (0)
 -->
<!-- Title: src/model/EnemyTank.h Pages: 1 -->
<svg width="422pt" height="302pt"
 viewBox="0.00 0.00 421.58 302.00" xmlns="http://www.w3.org/2000/svg" xmlns:xlink="http://www.w3.org/1999/xlink">
<g id="graph0" class="graph" transform="scale(1 1) rotate(0) translate(4 298)">
<title>src/model/EnemyTank.h</title>
<!-- Node1 -->
<g id="Node000001" class="node">
<title>Node1</title>
<g id="a_Node000001"><a xlink:title="AI&#45;controlled enemy tanks with various behaviors, types, and difficulty levels.">
<polygon fill="#999999" stroke="#666666" points="295.5,-294 162.5,-294 162.5,-275 295.5,-275 295.5,-294"/>
<text text-anchor="middle" x="229" y="-282" font-family="Helvetica,sans-Serif" font-size="10.00">src/model/EnemyTank.h</text>
</a>
</g>
</g>
<!-- Node2 -->
<g id="Node000002" class="node">
<title>Node2</title>
<g id="a_Node000002"><a xlink:href="EnemyTank_8cpp.html" target="_top" xlink:title="Implementation of enemy tank AI behaviors, movement patterns, and combat logic.">
<polygon fill="white" stroke="#666666" points="144,-239 0,-239 0,-220 144,-220 144,-239"/>
<text text-anchor="middle" x="72" y="-227" font-family="Helvetica,sans-Serif" font-size="10.00">src/model/EnemyTank.cpp</text>
</a>
</g>
</g>
<!-- Node1&#45;&gt;Node2 -->
<g id="edge1_Node000001_Node000002" class="edge">
<title>Node1&#45;&gt;Node2</title>
<g id="a_edge1_Node000001_Node000002"><a xlink:title=" ">
<path fill="none" stroke="#63b8ff" d="M193.95,-271.67C164.68,-261.79 123.63,-247.93 97.42,-239.08"/>
<polygon fill="#63b8ff" stroke="#63b8ff" points="193.18,-275.1 203.78,-274.98 195.42,-268.47 193.18,-275.1"/>
</a>
</g>
</g>
<!-- Node3 -->
<g id="Node000003" class="node">
<title>Node3</title>
<g id="a_Node000003"><a xlink:href="GameWorld_8h.html" target="_top" xlink:title="Main game world manager handling objects, collisions, states, and game logic.">
<polygon fill="white" stroke="#666666" points="296,-239 162,-239 162,-220 296,-220 296,-239"/>
<text text-anchor="middle" x="229" y="-227" font-family="Helvetica,sans-Serif" font-size="10.00">src/model/GameWorld.h</text>
</a>
</g>
</g>
<!-- Node1&#45;&gt;Node3 -->
<g id="edge2_Node000001_Node000003" class="edge">
<title>Node1&#45;&gt;Node3</title>
<g id="a_edge2_Node000001_Node000003"><a xlink:title=" ">
<path fill="none" stroke="#63b8ff" d="M229,-264.66C229,-255.93 229,-245.99 229,-239.09"/>
<polygon fill="#63b8ff" stroke="#63b8ff" points="225.5,-264.75 229,-274.75 232.5,-264.75 225.5,-264.75"/>
</a>
</g>
</g>
<!-- Node8 -->
<g id="Node000008" class="node">
<title>Node8</title>
<g id="a_Node000008"><a xlink:href="MapManager_8h.html" target="_top" xlink:title="Manages game maps, level generation, and procedural content.">
<polygon fill="white" stroke="#666666" points="389,-184 259,-184 259,-165 389,-165 389,-184"/>
<text text-anchor="middle" x="324" y="-172" font-family="Helvetica,sans-Serif" font-size="10.00">src/utils/MapManager.h</text>
</a>
</g>
</g>
<!-- Node1&#45;&gt;Node8 -->
<g id="edge14_Node000001_Node000008" class="edge">
<title>Node1&#45;&gt;Node8</title>
<g id="a_edge14_Node000001_Node000008"><a xlink:title=" ">
<path fill="none" stroke="#63b8ff" d="M262.63,-270.58C277.51,-263.33 294.07,-252.91 305,-239 317.94,-222.53 322.08,-197.38 323.4,-184.22"/>
<polygon fill="#63b8ff" stroke="#63b8ff" points="260.82,-267.56 253.17,-274.89 263.72,-273.93 260.82,-267.56"/>
</a>
</g>
</g>
<!-- Node4 -->
<g id="Node000004" class="node">
<title>Node4</title>
<g id="a_Node000004"><a xlink:href="GameController_8h.html" target="_top" xlink:title="Central game controller coordinating model, view, and input systems.">
<polygon fill="white" stroke="#666666" points="354.5,-74 185.5,-74 185.5,-55 354.5,-55 354.5,-74"/>
<text text-anchor="middle" x="270" y="-62" font-family="Helvetica,sans-Serif" font-size="10.00">src/controller/GameController.h</text>
</a>
</g>
</g>
<!-- Node3&#45;&gt;Node4 -->
<g id="edge3_Node000003_Node000004" class="edge">
<title>Node3&#45;&gt;Node4</title>
<g id="a_edge3_Node000003_Node000004"><a xlink:title=" ">
<path fill="none" stroke="#63b8ff" d="M230.85,-209.99C233.53,-186.39 239.37,-144.49 250,-110 253.99,-97.05 260.81,-82.9 265.36,-74.12"/>
<polygon fill="#63b8ff" stroke="#63b8ff" points="227.36,-209.68 229.78,-220 234.32,-210.43 227.36,-209.68"/>
</a>
</g>
</g>
<!-- Node7 -->
<g id="Node000007" class="node">
<title>Node7</title>
<g id="a_Node000007"><a xlink:href="GameWorld_8cpp.html" target="_top" xlink:title="Core game simulation with object management, collisions, and level generation.">
<polygon fill="white" stroke="#666666" points="163.5,-184 18.5,-184 18.5,-165 163.5,-165 163.5,-184"/>
<text text-anchor="middle" x="91" y="-172" font-family="Helvetica,sans-Serif" font-size="10.00">src/model/GameWorld.cpp</text>
</a>
</g>
</g>
<!-- Node3&#45;&gt;Node7 -->
<g id="edge6_Node000003_Node000007" class="edge">
<title>Node3&#45;&gt;Node7</title>
<g id="a_edge6_Node000003_Node000007"><a xlink:title=" ">
<path fill="none" stroke="#63b8ff" d="M197.21,-216.29C171.63,-206.47 136.33,-192.91 113.58,-184.17"/>
<polygon fill="#63b8ff" stroke="#63b8ff" points="196.24,-219.67 206.83,-219.98 198.75,-213.13 196.24,-219.67"/>
</a>
</g>
</g>
<!-- Node3&#45;&gt;Node8 -->
<g id="edge7_Node000003_Node000008" class="edge">
<title>Node3&#45;&gt;Node8</title>
<g id="a_edge7_Node000003_Node000008"><a xlink:title=" ">
<path fill="none" stroke="#63b8ff" d="M253.26,-214.97C270.63,-205.28 293.49,-192.52 308.46,-184.17"/>
<polygon fill="#63b8ff" stroke="#63b8ff" points="251.29,-212.06 244.26,-219.98 254.7,-218.17 251.29,-212.06"/>
</a>
</g>
</g>
<!-- Node10 -->
<g id="Node000010" class="node">
<title>Node10</title>
<g id="a_Node000010"><a xlink:href="ConsoleRenderer_8h.html" target="_top" xlink:title="Renders game state, menus, and UI elements to the console.">
<polygon fill="white" stroke="#666666" points="202,-129 50,-129 50,-110 202,-110 202,-129"/>
<text text-anchor="middle" x="126" y="-117" font-family="Helvetica,sans-Serif" font-size="10.00">src/view/ConsoleRenderer.h</text>
</a>
</g>
</g>
<!-- Node3&#45;&gt;Node10 -->
<g id="edge13_Node000003_Node000010" class="edge">
<title>Node3&#45;&gt;Node10</title>
<g id="a_edge13_Node000003_Node000010"><a xlink:title=" ">
<path fill="none" stroke="#63b8ff" d="M215.13,-211.96C204.03,-198.93 187.91,-180.44 173,-165 160.51,-152.06 145.28,-137.92 135.6,-129.12"/>
<polygon fill="#63b8ff" stroke="#63b8ff" points="212.5,-214.28 221.63,-219.65 217.85,-209.76 212.5,-214.28"/>
</a>
</g>
</g>
<!-- Node5 -->
<g id="Node000005" class="node">
<title>Node5</title>
<g id="a_Node000005"><a xlink:href="GameController_8cpp.html" target="_top" xlink:title="Implementation of main game controller and game loop logic.">
<polygon fill="white" stroke="#666666" points="286,-19 106,-19 106,0 286,0 286,-19"/>
<text text-anchor="middle" x="196" y="-7" font-family="Helvetica,sans-Serif" font-size="10.00">src/controller/GameController.cpp</text>
</a>
</g>
</g>
<!-- Node4&#45;&gt;Node5 -->
<g id="edge4_Node000004_Node000005" class="edge">
<title>Node4&#45;&gt;Node5</title>
<g id="a_edge4_Node000004_Node000005"><a xlink:title=" ">
<path fill="none" stroke="#63b8ff" d="M249.97,-49.15C236.59,-39.57 219.44,-27.29 208.11,-19.17"/>
<polygon fill="#63b8ff" stroke="#63b8ff" points="247.94,-52.01 258.11,-54.98 252.02,-46.32 247.94,-52.01"/>
</a>
</g>
</g>
<!-- Node6 -->
<g id="Node000006" class="node">
<title>Node6</title>
<g id="a_Node000006"><a xlink:href="main_8cpp.html" target="_top" xlink:title="Main entry point for the Tank Simulator game.">
<polygon fill="white" stroke="#666666" points="383.5,-19 304.5,-19 304.5,0 383.5,0 383.5,-19"/>
<text text-anchor="middle" x="344" y="-7" font-family="Helvetica,sans-Serif" font-size="10.00">src/main.cpp</text>
</a>
</g>
</g>
<!-- Node4&#45;&gt;Node6 -->
<g id="edge5_Node000004_Node000006" class="edge">
<title>Node4&#45;&gt;Node6</title>
<g id="a_edge5_Node000004_Node000006"><a xlink:title=" ">
<path fill="none" stroke="#63b8ff" d="M290.03,-49.15C303.41,-39.57 320.56,-27.29 331.89,-19.17"/>
<polygon fill="#63b8ff" stroke="#63b8ff" points="287.98,-46.32 281.89,-54.98 292.06,-52.01 287.98,-46.32"/>
</a>
</g>
</g>
<!-- Node8&#45;&gt;Node4 -->
<g id="edge8_Node000008_Node000004" class="edge">
<title>Node8&#45;&gt;Node4</title>
<g id="a_edge8_Node000008_Node000004"><a xlink:title=" ">
<path fill="none" stroke="#63b8ff" d="M363.74,-161.44C393.1,-150.4 425.34,-132.39 409,-110 395.48,-91.48 374.15,-80.49 352.22,-74.02"/>
<polygon fill="#63b8ff" stroke="#63b8ff" points="362.22,-158.27 353.97,-164.92 364.57,-164.86 362.22,-158.27"/>
</a>
</g>
</g>
<!-- Node9 -->
<g id="Node000009" class="node">
<title>Node9</title>
<g id="a_Node000009"><a xlink:href="MapManager_8cpp.html" target="_top" xlink:title="Implementation for loading, creating, and managing game maps.">
<polygon fill="white" stroke="#666666" points="399.5,-129 258.5,-129 258.5,-110 399.5,-110 399.5,-129"/>
<text text-anchor="middle" x="329" y="-117" font-family="Helvetica,sans-Serif" font-size="10.00">src/utils/MapManager.cpp</text>
</a>
</g>
</g>
<!-- Node8&#45;&gt;Node9 -->
<g id="edge9_Node000008_Node000009" class="edge">
<title>Node8&#45;&gt;Node9</title>
<g id="a_edge9_Node000008_Node000009"><a xlink:title=" ">
<path fill="none" stroke="#63b8ff" d="M325.78,-154.66C326.6,-145.93 327.54,-135.99 328.19,-129.09"/>
<polygon fill="#63b8ff" stroke="#63b8ff" points="322.28,-154.46 324.83,-164.75 329.25,-155.12 322.28,-154.46"/>
</a>
</g>
</g>
<!-- Node8&#45;&gt;Node10 -->
<g id="edge10_Node000008_Node000010" class="edge">
<title>Node8&#45;&gt;Node10</title>
<g id="a_edge10_Node000008_Node000010"><a xlink:title=" ">
<path fill="none" stroke="#63b8ff" d="M282.2,-162.31C245.15,-152.39 191.83,-138.12 158.06,-129.08"/>
<polygon fill="#63b8ff" stroke="#63b8ff" points="281.62,-165.78 292.19,-164.98 283.43,-159.02 281.62,-165.78"/>
</a>
</g>
</g>
<!-- Node10&#45;&gt;Node4 -->
<g id="edge11_Node000010_Node000004" class="edge">
<title>Node10&#45;&gt;Node4</title>
<g id="a_edge11_Node000010_Node000004"><a xlink:title=" ">
<path fill="none" stroke="#63b8ff" d="M158.82,-106.42C185.53,-96.59 222.6,-82.95 246.44,-74.17"/>
<polygon fill="#63b8ff" stroke="#63b8ff" points="157.31,-103.25 149.14,-109.98 159.73,-109.82 157.31,-103.25"/>
</a>
</g>
</g>
<!-- Node11 -->
<g id="Node000011" class="node">
<title>Node11</title>
<g id="a_Node000011"><a xlink:href="ConsoleRenderer_8cpp.html" target="_top" xlink:title="Implementation of console&#45;based game rendering with ASCII/Unicode support.">
<polygon fill="white" stroke="#666666" points="167.5,-74 4.5,-74 4.5,-55 167.5,-55 167.5,-74"/>
<text text-anchor="middle" x="86" y="-62" font-family="Helvetica,sans-Serif" font-size="10.00">src/view/ConsoleRenderer.cpp</text>
</a>
</g>
</g>
<!-- Node10&#45;&gt;Node11 -->
<g id="edge12_Node000010_Node000011" class="edge">
<title>Node10&#45;&gt;Node11</title>
<g id="a_edge12_Node000010_Node000011"><a xlink:title=" ">
<path fill="none" stroke="#63b8ff" d="M113.3,-101.67C106.37,-92.5 98.09,-81.52 92.48,-74.09"/>
<polygon fill="#63b8ff" stroke="#63b8ff" points="110.58,-103.87 119.39,-109.75 116.16,-99.66 110.58,-103.87"/>
</a>
</g>
</g>
</g>
</svg>
