<?xml version="1.0" encoding="UTF-8" standalone="no"?>
<!DOCTYPE svg PUBLIC "-//W3C//DTD SVG 1.1//EN"
 "http://www.w3.org/Graphics/SVG/1.1/DTD/svg11.dtd">
<!-- Generated by graphviz version 2.43.0 (0)
 -->
<!-- Title: src/model/GameObject.h Pages: 1 -->
<!--zoomable 467 -->

<svg id="main" version="1.1" xmlns="http://www.w3.org/2000/svg" xmlns:xlink="http://www.w3.org/1999/xlink" xml:space="preserve" onload="init(evt)">
<style type="text/css"><![CDATA[
.node, .edge {opacity: 0.7;}
.node.selected, .edge.selected {opacity: 1;}
.edge:hover path { stroke: red; }
.edge:hover polygon { stroke: red; fill: red; }
]]></style>

<defs>
  <circle id="rim" cx="0" cy="0" r="7"/>
  <circle id="rim2" cx="0" cy="0" r="3.5"/>
  <g id="zoomPlus">
    <use xlink:href="#rim" fill="#404040"><set attributeName="fill" to="#808080" begin="zoomplus.mouseover" end="zoomplus.mouseout"/></use>
    <path d="M-4,0h8M0,-4v8" fill="none" stroke="white" stroke-width="1.5" pointer-events="none"/>
  </g>
  <g id="zoomMin">
    <use xlink:href="#rim" fill="#404040"><set attributeName="fill" to="#808080" begin="zoomminus.mouseover" end="zoomminus.mouseout"/></use>
    <path d="M-4,0h8" fill="none" stroke="white" stroke-width="1.5" pointer-events="none"/>
  </g>
  <g id="arrowUp" transform="translate(30 24)">
    <use xlink:href="#rim"/>
    <path pointer-events="none" fill="none" stroke="white" stroke-width="1.5" d="M0,-3.0v7 M-2.5,-0.5L0,-3.0L2.5,-0.5"/>
  </g>
  <g id="arrowRight" transform="rotate(90) translate(36 -43)">
    <use xlink:href="#rim"/>
    <path pointer-events="none" fill="none" stroke="white" stroke-width="1.5" d="M0,-3.0v7 M-2.5,-0.5L0,-3.0L2.5,-0.5"/>
  </g>
  <g id="arrowDown" transform="rotate(180) translate(-30 -48)">
    <use xlink:href="#rim"/>
    <path pointer-events="none" fill="none" stroke="white" stroke-width="1.5" d="M0,-3.0v7 M-2.5,-0.5L0,-3.0L2.5,-0.5"/>
  </g>
  <g id="arrowLeft" transform="rotate(270) translate(-36 17)">
    <use xlink:href="#rim"/>
    <path pointer-events="none" fill="none" stroke="white" stroke-width="1.5" d="M0,-3.0v7 M-2.5,-0.5L0,-3.0L2.5,-0.5"/>
  </g>
  <g id="resetDef">
    <use xlink:href="#rim2" fill="#404040"><set attributeName="fill" to="#808080" begin="reset.mouseover" end="reset.mouseout"/></use>
  </g>
</defs>
<script type="application/ecmascript">
var viewWidth = 1232;
var viewHeight = 467;
var sectionId = 'dynsection-0';
</script>
<script type="application/ecmascript" xlink:href="svg.min.js"/>
<svg id="graph" class="graph">
<g id="viewport">
<title>src/model/GameObject.h</title>
<!-- Node1 -->
<g id="Node000001" class="node">
<title>Node1</title>
<g id="a_Node000001"><a xlink:title="Base class and structures for all game objects with position, direction, and health.">
<polygon fill="#999999" stroke="#666666" points="823.46,-459 686.46,-459 686.46,-440 823.46,-440 823.46,-459"/>
<text text-anchor="middle" x="754.96" y="-447" font-family="Helvetica,sans-Serif" font-size="10.00">src/model/GameObject.h</text>
</a>
</g>
</g>
<!-- Node2 -->
<g id="Node000002" class="node">
<title>Node2</title>
<g id="a_Node000002"><a xlink:href="Bonus_8h.html" target="_top" xlink:title="Power&#45;up bonuses with various effects for enhancing player abilities.">
<polygon fill="white" stroke="#666666" points="515.46,-404 408.46,-404 408.46,-385 515.46,-385 515.46,-404"/>
<text text-anchor="middle" x="461.96" y="-392" font-family="Helvetica,sans-Serif" font-size="10.00">src/model/Bonus.h</text>
</a>
</g>
</g>
<!-- Node1&#45;&gt;Node2 -->
<g id="edge1_Node000001_Node000002" class="edge">
<title>Node1&#45;&gt;Node2</title>
<g id="a_edge1_Node000001_Node000002"><a xlink:title=" ">
<path fill="none" stroke="#63b8ff" d="M697.96,-438.19C643.02,-428.25 560.87,-413.39 509.4,-404.08"/>
<polygon fill="#63b8ff" stroke="#63b8ff" points="697.42,-441.65 707.88,-439.98 698.67,-434.76 697.42,-441.65"/>
</a>
</g>
</g>
<!-- Node4 -->
<g id="Node000004" class="node">
<title>Node4</title>
<g id="a_Node000004"><a xlink:href="GameWorld_8h.html" target="_top" xlink:title="Main game world manager handling objects, collisions, states, and game logic.">
<polygon fill="white" stroke="#666666" points="846.96,-239 712.96,-239 712.96,-220 846.96,-220 846.96,-239"/>
<text text-anchor="middle" x="779.96" y="-227" font-family="Helvetica,sans-Serif" font-size="10.00">src/model/GameWorld.h</text>
</a>
</g>
</g>
<!-- Node1&#45;&gt;Node4 -->
<g id="edge31_Node000001_Node000004" class="edge">
<title>Node1&#45;&gt;Node4</title>
<g id="a_edge31_Node000001_Node000004"><a xlink:title=" ">
<path fill="none" stroke="#63b8ff" d="M833.37,-439.79C889.01,-428.87 959.24,-404.31 990.96,-349 1027.9,-284.58 913.25,-252.63 838.72,-239.02"/>
<polygon fill="#63b8ff" stroke="#63b8ff" points="832.71,-436.35 823.51,-441.61 833.98,-443.23 832.71,-436.35"/>
</a>
</g>
</g>
<!-- Node9 -->
<g id="Node000009" class="node">
<title>Node9</title>
<g id="a_Node000009"><a xlink:href="MapManager_8h.html" target="_top" xlink:title="Manages game maps, level generation, and procedural content.">
<polygon fill="white" stroke="#666666" points="593.96,-184 463.96,-184 463.96,-165 593.96,-165 593.96,-184"/>
<text text-anchor="middle" x="528.96" y="-172" font-family="Helvetica,sans-Serif" font-size="10.00">src/utils/MapManager.h</text>
</a>
</g>
</g>
<!-- Node1&#45;&gt;Node9 -->
<g id="edge41_Node000001_Node000009" class="edge">
<title>Node1&#45;&gt;Node9</title>
<g id="a_edge41_Node000001_Node000009"><a xlink:title=" ">
<path fill="none" stroke="#63b8ff" d="M676.3,-445.38C483.11,-436.68 0.96,-408.18 0.96,-340.5 0.96,-340.5 0.96,-340.5 0.96,-283.5 0.96,-254.04 -2.88,-238.61 19.96,-220 53.66,-192.55 334.12,-181.05 463.74,-177.16"/>
<polygon fill="#63b8ff" stroke="#63b8ff" points="676.24,-448.88 686.38,-445.83 676.55,-441.89 676.24,-448.88"/>
</a>
</g>
</g>
<!-- Node13 -->
<g id="Node000013" class="node">
<title>Node13</title>
<g id="a_Node000013"><a xlink:href="Tank_8h.html" target="_top" xlink:title="Abstract tank base class with shooting, bonuses, and combat mechanics.">
<polygon fill="white" stroke="#666666" points="594.46,-349 495.46,-349 495.46,-330 594.46,-330 594.46,-349"/>
<text text-anchor="middle" x="544.96" y="-337" font-family="Helvetica,sans-Serif" font-size="10.00">src/model/Tank.h</text>
</a>
</g>
</g>
<!-- Node1&#45;&gt;Node13 -->
<g id="edge40_Node000001_Node000013" class="edge">
<title>Node1&#45;&gt;Node13</title>
<g id="a_edge40_Node000001_Node000013"><a xlink:title=" ">
<path fill="none" stroke="#63b8ff" d="M702.52,-437.52C675.24,-430.44 642.03,-419.58 614.96,-404 588.79,-388.94 564.08,-362.72 552.25,-349.17"/>
<polygon fill="#63b8ff" stroke="#63b8ff" points="701.72,-440.93 712.28,-439.97 703.42,-434.14 701.72,-440.93"/>
</a>
</g>
</g>
<!-- Node20 -->
<g id="Node000020" class="node">
<title>Node20</title>
<g id="a_Node000020"><a xlink:href="Explosion_8h.html" target="_top" xlink:title="Visual explosion effects for game events like tank destruction.">
<polygon fill="white" stroke="#666666" points="887.96,-404 763.96,-404 763.96,-385 887.96,-385 887.96,-404"/>
<text text-anchor="middle" x="825.96" y="-392" font-family="Helvetica,sans-Serif" font-size="10.00">src/model/Explosion.h</text>
</a>
</g>
</g>
<!-- Node1&#45;&gt;Node20 -->
<g id="edge27_Node000001_Node000020" class="edge">
<title>Node1&#45;&gt;Node20</title>
<g id="a_edge27_Node000001_Node000020"><a xlink:title=" ">
<path fill="none" stroke="#63b8ff" d="M774.55,-433.88C787.33,-424.34 803.57,-412.21 814.34,-404.17"/>
<polygon fill="#63b8ff" stroke="#63b8ff" points="772.29,-431.2 766.37,-439.98 776.47,-436.81 772.29,-431.2"/>
</a>
</g>
</g>
<!-- Node22 -->
<g id="Node000022" class="node">
<title>Node22</title>
<g id="a_Node000022"><a xlink:href="GameObject_8cpp.html" target="_top" xlink:title="Implementation of base game object methods for movement, rotation, and damage.">
<polygon fill="white" stroke="#666666" points="1224.46,-404 1075.46,-404 1075.46,-385 1224.46,-385 1224.46,-404"/>
<text text-anchor="middle" x="1149.96" y="-392" font-family="Helvetica,sans-Serif" font-size="10.00">src/model/GameObject.cpp</text>
</a>
</g>
</g>
<!-- Node1&#45;&gt;Node22 -->
<g id="edge30_Node000001_Node000022" class="edge">
<title>Node1&#45;&gt;Node22</title>
<g id="a_edge30_Node000001_Node000022"><a xlink:title=" ">
<path fill="none" stroke="#63b8ff" d="M828.62,-438.62C902.77,-428.67 1015.96,-413.48 1086.33,-404.04"/>
<polygon fill="#63b8ff" stroke="#63b8ff" points="827.87,-435.19 818.42,-439.98 828.8,-442.12 827.87,-435.19"/>
</a>
</g>
</g>
<!-- Node23 -->
<g id="Node000023" class="node">
<title>Node23</title>
<g id="a_Node000023"><a xlink:href="Obstacle_8h.html" target="_top" xlink:title="Environmental obstacles including walls, water, forests, and their properties.">
<polygon fill="white" stroke="#666666" points="1132.46,-294 1013.46,-294 1013.46,-275 1132.46,-275 1132.46,-294"/>
<text text-anchor="middle" x="1072.96" y="-282" font-family="Helvetica,sans-Serif" font-size="10.00">src/model/Obstacle.h</text>
</a>
</g>
</g>
<!-- Node1&#45;&gt;Node23 -->
<g id="edge32_Node000001_Node000023" class="edge">
<title>Node1&#45;&gt;Node23</title>
<g id="a_edge32_Node000001_Node000023"><a xlink:title=" ">
<path fill="none" stroke="#63b8ff" d="M834.07,-443.85C902.63,-438.33 995.23,-426.83 1023.96,-404 1059.87,-375.47 1069.72,-316.13 1072.19,-294.03"/>
<polygon fill="#63b8ff" stroke="#63b8ff" points="833.41,-440.39 823.71,-444.65 833.95,-447.37 833.41,-440.39"/>
</a>
</g>
</g>
<!-- Node25 -->
<g id="Node000025" class="node">
<title>Node25</title>
<g id="a_Node000025"><a xlink:href="Projectile_8h.html" target="_top" xlink:title="Projectile class for bullets fired by tanks with collision detection.">
<polygon fill="white" stroke="#666666" points="745.96,-404 623.96,-404 623.96,-385 745.96,-385 745.96,-404"/>
<text text-anchor="middle" x="684.96" y="-392" font-family="Helvetica,sans-Serif" font-size="10.00">src/model/Projectile.h</text>
</a>
</g>
</g>
<!-- Node1&#45;&gt;Node25 -->
<g id="edge36_Node000001_Node000025" class="edge">
<title>Node1&#45;&gt;Node25</title>
<g id="a_edge36_Node000001_Node000025"><a xlink:title=" ">
<path fill="none" stroke="#63b8ff" d="M735.65,-433.88C723.05,-424.34 707.03,-412.21 696.41,-404.17"/>
<polygon fill="#63b8ff" stroke="#63b8ff" points="733.63,-436.74 743.71,-439.98 737.85,-431.16 733.63,-436.74"/>
</a>
</g>
</g>
<!-- Node3 -->
<g id="Node000003" class="node">
<title>Node3</title>
<g id="a_Node000003"><a xlink:href="Bonus_8cpp.html" target="_top" xlink:title="Implementation of power&#45;up bonuses with various effects for player tank.">
<polygon fill="white" stroke="#666666" points="146.96,-239 28.96,-239 28.96,-220 146.96,-220 146.96,-239"/>
<text text-anchor="middle" x="87.96" y="-227" font-family="Helvetica,sans-Serif" font-size="10.00">src/model/Bonus.cpp</text>
</a>
</g>
</g>
<!-- Node2&#45;&gt;Node3 -->
<g id="edge2_Node000002_Node000003" class="edge">
<title>Node2&#45;&gt;Node3</title>
<g id="a_edge2_Node000002_Node000003"><a xlink:title=" ">
<path fill="none" stroke="#63b8ff" d="M398.32,-384.29C330.56,-372.16 222.37,-345.99 142.96,-294 120.51,-279.3 101.92,-252.93 93.24,-239.26"/>
<polygon fill="#63b8ff" stroke="#63b8ff" points="397.98,-387.78 408.43,-386.05 399.17,-380.88 397.98,-387.78"/>
</a>
</g>
</g>
<!-- Node2&#45;&gt;Node4 -->
<g id="edge3_Node000002_Node000004" class="edge">
<title>Node2&#45;&gt;Node4</title>
<g id="a_edge3_Node000002_Node000004"><a xlink:title=" ">
<path fill="none" stroke="#63b8ff" d="M458.86,-374.72C455.71,-348.48 454.5,-301.16 480.96,-275 512.77,-243.54 634.84,-234.25 712.83,-231.55"/>
<polygon fill="#63b8ff" stroke="#63b8ff" points="455.43,-375.43 460.31,-384.84 462.36,-374.45 455.43,-375.43"/>
</a>
</g>
</g>
<!-- Node2&#45;&gt;Node13 -->
<g id="edge15_Node000002_Node000013" class="edge">
<title>Node2&#45;&gt;Node13</title>
<g id="a_edge15_Node000002_Node000013"><a xlink:title=" ">
<path fill="none" stroke="#63b8ff" d="M484,-379.42C499.07,-369.81 518.55,-357.37 531.38,-349.17"/>
<polygon fill="#63b8ff" stroke="#63b8ff" points="481.84,-376.65 475.3,-384.98 485.61,-382.55 481.84,-376.65"/>
</a>
</g>
</g>
<!-- Node5 -->
<g id="Node000005" class="node">
<title>Node5</title>
<g id="a_Node000005"><a xlink:href="GameController_8h.html" target="_top" xlink:title="Central game controller coordinating model, view, and input systems.">
<polygon fill="white" stroke="#666666" points="869.46,-74 700.46,-74 700.46,-55 869.46,-55 869.46,-74"/>
<text text-anchor="middle" x="784.96" y="-62" font-family="Helvetica,sans-Serif" font-size="10.00">src/controller/GameController.h</text>
</a>
</g>
</g>
<!-- Node4&#45;&gt;Node5 -->
<g id="edge4_Node000004_Node000005" class="edge">
<title>Node4&#45;&gt;Node5</title>
<g id="a_edge4_Node000004_Node000005"><a xlink:title=" ">
<path fill="none" stroke="#63b8ff" d="M782.51,-209.94C783.49,-201.97 784.48,-192.55 784.96,-184 787.26,-142.92 785.97,-93.7 785.29,-74.13"/>
<polygon fill="#63b8ff" stroke="#63b8ff" points="779.03,-209.62 781.2,-219.99 785.97,-210.53 779.03,-209.62"/>
</a>
</g>
</g>
<!-- Node8 -->
<g id="Node000008" class="node">
<title>Node8</title>
<g id="a_Node000008"><a xlink:href="GameWorld_8cpp.html" target="_top" xlink:title="Core game simulation with object management, collisions, and level generation.">
<polygon fill="white" stroke="#666666" points="757.46,-184 612.46,-184 612.46,-165 757.46,-165 757.46,-184"/>
<text text-anchor="middle" x="684.96" y="-172" font-family="Helvetica,sans-Serif" font-size="10.00">src/model/GameWorld.cpp</text>
</a>
</g>
</g>
<!-- Node4&#45;&gt;Node8 -->
<g id="edge7_Node000004_Node000008" class="edge">
<title>Node4&#45;&gt;Node8</title>
<g id="a_edge7_Node000004_Node000008"><a xlink:title=" ">
<path fill="none" stroke="#63b8ff" d="M755.7,-214.97C738.33,-205.28 715.47,-192.52 700.5,-184.17"/>
<polygon fill="#63b8ff" stroke="#63b8ff" points="754.26,-218.17 764.7,-219.98 757.67,-212.06 754.26,-218.17"/>
</a>
</g>
</g>
<!-- Node4&#45;&gt;Node9 -->
<g id="edge8_Node000004_Node000009" class="edge">
<title>Node4&#45;&gt;Node9</title>
<g id="a_edge8_Node000004_Node000009"><a xlink:title=" ">
<path fill="none" stroke="#63b8ff" d="M729.66,-217.88C682.61,-207.94 613.24,-193.3 569.6,-184.08"/>
<polygon fill="#63b8ff" stroke="#63b8ff" points="729.12,-221.34 739.63,-219.98 730.57,-214.49 729.12,-221.34"/>
</a>
</g>
</g>
<!-- Node11 -->
<g id="Node000011" class="node">
<title>Node11</title>
<g id="a_Node000011"><a xlink:href="ConsoleRenderer_8h.html" target="_top" xlink:title="Renders game state, menus, and UI elements to the console.">
<polygon fill="white" stroke="#666666" points="696.96,-129 544.96,-129 544.96,-110 696.96,-110 696.96,-129"/>
<text text-anchor="middle" x="620.96" y="-117" font-family="Helvetica,sans-Serif" font-size="10.00">src/view/ConsoleRenderer.h</text>
</a>
</g>
</g>
<!-- Node4&#45;&gt;Node11 -->
<g id="edge14_Node000004_Node000011" class="edge">
<title>Node4&#45;&gt;Node11</title>
<g id="a_edge14_Node000004_Node000011"><a xlink:title=" ">
<path fill="none" stroke="#63b8ff" d="M780.93,-209.48C780.61,-195.51 777.85,-176.96 766.96,-165 749.03,-145.31 722.68,-134.22 697.28,-128.01"/>
<polygon fill="#63b8ff" stroke="#63b8ff" points="777.43,-209.83 780.76,-219.89 784.43,-209.95 777.43,-209.83"/>
</a>
</g>
</g>
<!-- Node6 -->
<g id="Node000006" class="node">
<title>Node6</title>
<g id="a_Node000006"><a xlink:href="GameController_8cpp.html" target="_top" xlink:title="Implementation of main game controller and game loop logic.">
<polygon fill="white" stroke="#666666" points="800.96,-19 620.96,-19 620.96,0 800.96,0 800.96,-19"/>
<text text-anchor="middle" x="710.96" y="-7" font-family="Helvetica,sans-Serif" font-size="10.00">src/controller/GameController.cpp</text>
</a>
</g>
</g>
<!-- Node5&#45;&gt;Node6 -->
<g id="edge5_Node000005_Node000006" class="edge">
<title>Node5&#45;&gt;Node6</title>
<g id="a_edge5_Node000005_Node000006"><a xlink:title=" ">
<path fill="none" stroke="#63b8ff" d="M764.93,-49.15C751.55,-39.57 734.4,-27.29 723.07,-19.17"/>
<polygon fill="#63b8ff" stroke="#63b8ff" points="762.9,-52.01 773.07,-54.98 766.98,-46.32 762.9,-52.01"/>
</a>
</g>
</g>
<!-- Node7 -->
<g id="Node000007" class="node">
<title>Node7</title>
<g id="a_Node000007"><a xlink:href="main_8cpp.html" target="_top" xlink:title="Main entry point for the Tank Simulator game.">
<polygon fill="white" stroke="#666666" points="898.46,-19 819.46,-19 819.46,0 898.46,0 898.46,-19"/>
<text text-anchor="middle" x="858.96" y="-7" font-family="Helvetica,sans-Serif" font-size="10.00">src/main.cpp</text>
</a>
</g>
</g>
<!-- Node5&#45;&gt;Node7 -->
<g id="edge6_Node000005_Node000007" class="edge">
<title>Node5&#45;&gt;Node7</title>
<g id="a_edge6_Node000005_Node000007"><a xlink:title=" ">
<path fill="none" stroke="#63b8ff" d="M804.99,-49.15C818.37,-39.57 835.52,-27.29 846.85,-19.17"/>
<polygon fill="#63b8ff" stroke="#63b8ff" points="802.94,-46.32 796.85,-54.98 807.02,-52.01 802.94,-46.32"/>
</a>
</g>
</g>
<!-- Node9&#45;&gt;Node5 -->
<g id="edge9_Node000009_Node000005" class="edge">
<title>Node9&#45;&gt;Node5</title>
<g id="a_edge9_Node000009_Node000005"><a xlink:title=" ">
<path fill="none" stroke="#63b8ff" d="M599.56,-162.98C633.01,-156.21 672.8,-145.5 705.96,-129 734.95,-114.58 763.08,-88.08 776.61,-74.32"/>
<polygon fill="#63b8ff" stroke="#63b8ff" points="598.55,-159.61 589.4,-164.95 599.89,-166.48 598.55,-159.61"/>
</a>
</g>
</g>
<!-- Node10 -->
<g id="Node000010" class="node">
<title>Node10</title>
<g id="a_Node000010"><a xlink:href="MapManager_8cpp.html" target="_top" xlink:title="Implementation for loading, creating, and managing game maps.">
<polygon fill="white" stroke="#666666" points="444.46,-129 303.46,-129 303.46,-110 444.46,-110 444.46,-129"/>
<text text-anchor="middle" x="373.96" y="-117" font-family="Helvetica,sans-Serif" font-size="10.00">src/utils/MapManager.cpp</text>
</a>
</g>
</g>
<!-- Node9&#45;&gt;Node10 -->
<g id="edge10_Node000009_Node000010" class="edge">
<title>Node9&#45;&gt;Node10</title>
<g id="a_edge10_Node000009_Node000010"><a xlink:title=" ">
<path fill="none" stroke="#63b8ff" d="M494.36,-161.67C465.46,-151.79 424.93,-137.93 399.06,-129.08"/>
<polygon fill="#63b8ff" stroke="#63b8ff" points="493.46,-165.06 504.06,-164.98 495.73,-158.44 493.46,-165.06"/>
</a>
</g>
</g>
<!-- Node9&#45;&gt;Node11 -->
<g id="edge11_Node000009_Node000011" class="edge">
<title>Node9&#45;&gt;Node11</title>
<g id="a_edge11_Node000009_Node000011"><a xlink:title=" ">
<path fill="none" stroke="#63b8ff" d="M552.45,-159.97C569.27,-150.28 591.41,-137.52 605.91,-129.17"/>
<polygon fill="#63b8ff" stroke="#63b8ff" points="550.66,-156.96 543.74,-164.98 554.15,-163.03 550.66,-156.96"/>
</a>
</g>
</g>
<!-- Node11&#45;&gt;Node5 -->
<g id="edge12_Node000011_Node000005" class="edge">
<title>Node11&#45;&gt;Node5</title>
<g id="a_edge12_Node000011_Node000005"><a xlink:title=" ">
<path fill="none" stroke="#63b8ff" d="M657.17,-106.8C687.78,-96.91 730.91,-82.97 758.4,-74.08"/>
<polygon fill="#63b8ff" stroke="#63b8ff" points="655.75,-103.58 647.31,-109.98 657.9,-110.24 655.75,-103.58"/>
</a>
</g>
</g>
<!-- Node12 -->
<g id="Node000012" class="node">
<title>Node12</title>
<g id="a_Node000012"><a xlink:href="ConsoleRenderer_8cpp.html" target="_top" xlink:title="Implementation of console&#45;based game rendering with ASCII/Unicode support.">
<polygon fill="white" stroke="#666666" points="682.46,-74 519.46,-74 519.46,-55 682.46,-55 682.46,-74"/>
<text text-anchor="middle" x="600.96" y="-62" font-family="Helvetica,sans-Serif" font-size="10.00">src/view/ConsoleRenderer.cpp</text>
</a>
</g>
</g>
<!-- Node11&#45;&gt;Node12 -->
<g id="edge13_Node000011_Node000012" class="edge">
<title>Node11&#45;&gt;Node12</title>
<g id="a_edge13_Node000011_Node000012"><a xlink:title=" ">
<path fill="none" stroke="#63b8ff" d="M614.07,-100.24C610.72,-91.37 606.86,-81.14 604.2,-74.09"/>
<polygon fill="#63b8ff" stroke="#63b8ff" points="610.85,-101.63 617.66,-109.75 617.4,-99.16 610.85,-101.63"/>
</a>
</g>
</g>
<!-- Node14 -->
<g id="Node000014" class="node">
<title>Node14</title>
<g id="a_Node000014"><a xlink:href="EnemyTank_8h.html" target="_top" xlink:title="AI&#45;controlled enemy tanks with various behaviors, types, and difficulty levels.">
<polygon fill="white" stroke="#666666" points="433.46,-294 300.46,-294 300.46,-275 433.46,-275 433.46,-294"/>
<text text-anchor="middle" x="366.96" y="-282" font-family="Helvetica,sans-Serif" font-size="10.00">src/model/EnemyTank.h</text>
</a>
</g>
</g>
<!-- Node13&#45;&gt;Node14 -->
<g id="edge16_Node000013_Node000014" class="edge">
<title>Node13&#45;&gt;Node14</title>
<g id="a_edge16_Node000013_Node000014"><a xlink:title=" ">
<path fill="none" stroke="#63b8ff" d="M506.52,-327.06C473.26,-317.15 425.88,-303.04 395.78,-294.08"/>
<polygon fill="#63b8ff" stroke="#63b8ff" points="505.78,-330.49 516.36,-329.98 507.78,-323.78 505.78,-330.49"/>
</a>
</g>
</g>
<!-- Node16 -->
<g id="Node000016" class="node">
<title>Node16</title>
<g id="a_Node000016"><a xlink:href="PlayerTank_8h.html" target="_top" xlink:title="Player&#45;controlled tank with lives, score system, and special abilities.">
<polygon fill="white" stroke="#666666" points="281.96,-294 151.96,-294 151.96,-275 281.96,-275 281.96,-294"/>
<text text-anchor="middle" x="216.96" y="-282" font-family="Helvetica,sans-Serif" font-size="10.00">src/model/PlayerTank.h</text>
</a>
</g>
</g>
<!-- Node13&#45;&gt;Node16 -->
<g id="edge20_Node000013_Node000016" class="edge">
<title>Node13&#45;&gt;Node16</title>
<g id="a_edge20_Node000013_Node000016"><a xlink:title=" ">
<path fill="none" stroke="#63b8ff" d="M485.18,-328.84C423.61,-318.89 328.56,-303.53 269.69,-294.02"/>
<polygon fill="#63b8ff" stroke="#63b8ff" points="484.71,-332.31 495.14,-330.45 485.83,-325.4 484.71,-332.31"/>
</a>
</g>
</g>
<!-- Node18 -->
<g id="Node000018" class="node">
<title>Node18</title>
<g id="a_Node000018"><a xlink:href="Projectile_8cpp.html" target="_top" xlink:title="Implementation of projectile movement, collision detection, and damage calculation.">
<polygon fill="white" stroke="#666666" points="751.96,-294 617.96,-294 617.96,-275 751.96,-275 751.96,-294"/>
<text text-anchor="middle" x="684.96" y="-282" font-family="Helvetica,sans-Serif" font-size="10.00">src/model/Projectile.cpp</text>
</a>
</g>
</g>
<!-- Node13&#45;&gt;Node18 -->
<g id="edge25_Node000013_Node000018" class="edge">
<title>Node13&#45;&gt;Node18</title>
<g id="a_edge25_Node000013_Node000018"><a xlink:title=" ">
<path fill="none" stroke="#63b8ff" d="M576.87,-326.42C602.84,-316.59 638.88,-302.95 662.06,-294.17"/>
<polygon fill="#63b8ff" stroke="#63b8ff" points="575.57,-323.17 567.45,-329.98 578.04,-329.72 575.57,-323.17"/>
</a>
</g>
</g>
<!-- Node19 -->
<g id="Node000019" class="node">
<title>Node19</title>
<g id="a_Node000019"><a xlink:href="Tank_8cpp.html" target="_top" xlink:title="Implementation of tank mechanics including movement, firing, and bonus effects.">
<polygon fill="white" stroke="#666666" points="599.96,-294 489.96,-294 489.96,-275 599.96,-275 599.96,-294"/>
<text text-anchor="middle" x="544.96" y="-282" font-family="Helvetica,sans-Serif" font-size="10.00">src/model/Tank.cpp</text>
</a>
</g>
</g>
<!-- Node13&#45;&gt;Node19 -->
<g id="edge26_Node000013_Node000019" class="edge">
<title>Node13&#45;&gt;Node19</title>
<g id="a_edge26_Node000013_Node000019"><a xlink:title=" ">
<path fill="none" stroke="#63b8ff" d="M544.96,-319.66C544.96,-310.93 544.96,-300.99 544.96,-294.09"/>
<polygon fill="#63b8ff" stroke="#63b8ff" points="541.46,-319.75 544.96,-329.75 548.46,-319.75 541.46,-319.75"/>
</a>
</g>
</g>
<!-- Node14&#45;&gt;Node4 -->
<g id="edge18_Node000014_Node000004" class="edge">
<title>Node14&#45;&gt;Node4</title>
<g id="a_edge18_Node000014_Node000004"><a xlink:title=" ">
<path fill="none" stroke="#63b8ff" d="M443.5,-273.68C521.02,-263.73 639.7,-248.5 713.43,-239.04"/>
<polygon fill="#63b8ff" stroke="#63b8ff" points="442.79,-270.24 433.32,-274.98 443.68,-277.18 442.79,-270.24"/>
</a>
</g>
</g>
<!-- Node14&#45;&gt;Node9 -->
<g id="edge19_Node000014_Node000009" class="edge">
<title>Node14&#45;&gt;Node9</title>
<g id="a_edge19_Node000014_Node000009"><a xlink:title=" ">
<path fill="none" stroke="#63b8ff" d="M423.99,-272.77C460.49,-264.76 503.3,-252.83 515.96,-239 529.94,-223.73 530.54,-197.6 529.77,-184.12"/>
<polygon fill="#63b8ff" stroke="#63b8ff" points="422.94,-269.42 413.89,-274.93 424.4,-276.26 422.94,-269.42"/>
</a>
</g>
</g>
<!-- Node15 -->
<g id="Node000015" class="node">
<title>Node15</title>
<g id="a_Node000015"><a xlink:href="EnemyTank_8cpp.html" target="_top" xlink:title="Implementation of enemy tank AI behaviors, movement patterns, and combat logic.">
<polygon fill="white" stroke="#666666" points="506.96,-239 362.96,-239 362.96,-220 506.96,-220 506.96,-239"/>
<text text-anchor="middle" x="434.96" y="-227" font-family="Helvetica,sans-Serif" font-size="10.00">src/model/EnemyTank.cpp</text>
</a>
</g>
</g>
<!-- Node14&#45;&gt;Node15 -->
<g id="edge17_Node000014_Node000015" class="edge">
<title>Node14&#45;&gt;Node15</title>
<g id="a_edge17_Node000014_Node000015"><a xlink:title=" ">
<path fill="none" stroke="#63b8ff" d="M386.08,-268.6C398.26,-259.11 413.62,-247.13 423.84,-239.17"/>
<polygon fill="#63b8ff" stroke="#63b8ff" points="383.62,-266.08 377.89,-274.98 387.92,-271.6 383.62,-266.08"/>
</a>
</g>
</g>
<!-- Node16&#45;&gt;Node3 -->
<g id="edge21_Node000016_Node000003" class="edge">
<title>Node16&#45;&gt;Node3</title>
<g id="a_edge21_Node000016_Node000003"><a xlink:title=" ">
<path fill="none" stroke="#63b8ff" d="M186.92,-271.16C163.04,-261.35 130.23,-247.87 109.06,-239.17"/>
<polygon fill="#63b8ff" stroke="#63b8ff" points="185.65,-274.42 196.23,-274.98 188.31,-267.95 185.65,-274.42"/>
</a>
</g>
</g>
<!-- Node16&#45;&gt;Node4 -->
<g id="edge22_Node000016_Node000004" class="edge">
<title>Node16&#45;&gt;Node4</title>
<g id="a_edge22_Node000016_Node000004"><a xlink:title=" ">
<path fill="none" stroke="#63b8ff" d="M292.6,-274.85C449.04,-258.85 620.38,-243.93 712.68,-236.12"/>
<polygon fill="#63b8ff" stroke="#63b8ff" points="291.91,-271.4 282.32,-275.91 292.63,-278.37 291.91,-271.4"/>
</a>
</g>
</g>
<!-- Node16&#45;&gt;Node10 -->
<g id="edge24_Node000016_Node000010" class="edge">
<title>Node16&#45;&gt;Node10</title>
<g id="a_edge24_Node000016_Node000010"><a xlink:title=" ">
<path fill="none" stroke="#63b8ff" d="M258.93,-271.6C277.85,-264.56 299.39,-254.03 314.96,-239 348.7,-206.45 366.13,-150.53 371.82,-129.15"/>
<polygon fill="#63b8ff" stroke="#63b8ff" points="257.6,-268.36 249.32,-274.96 259.91,-274.96 257.6,-268.36"/>
</a>
</g>
</g>
<!-- Node17 -->
<g id="Node000017" class="node">
<title>Node17</title>
<g id="a_Node000017"><a xlink:href="PlayerTank_8cpp.html" target="_top" xlink:title="Implementation of player&#45;controlled tank with lives, score, and bonus management.">
<polygon fill="white" stroke="#666666" points="306.46,-239 165.46,-239 165.46,-220 306.46,-220 306.46,-239"/>
<text text-anchor="middle" x="235.96" y="-227" font-family="Helvetica,sans-Serif" font-size="10.00">src/model/PlayerTank.cpp</text>
</a>
</g>
</g>
<!-- Node16&#45;&gt;Node17 -->
<g id="edge23_Node000016_Node000017" class="edge">
<title>Node16&#45;&gt;Node17</title>
<g id="a_edge23_Node000016_Node000017"><a xlink:title=" ">
<path fill="none" stroke="#63b8ff" d="M223.51,-265.24C226.68,-256.37 230.35,-246.14 232.88,-239.09"/>
<polygon fill="#63b8ff" stroke="#63b8ff" points="220.18,-264.15 220.1,-274.75 226.77,-266.52 220.18,-264.15"/>
</a>
</g>
</g>
<!-- Node20&#45;&gt;Node4 -->
<g id="edge29_Node000020_Node000004" class="edge">
<title>Node20&#45;&gt;Node4</title>
<g id="a_edge29_Node000020_Node000004"><a xlink:title=" ">
<path fill="none" stroke="#63b8ff" d="M821.19,-374.91C815.14,-351.52 804.23,-310.16 793.96,-275 790.33,-262.56 785.77,-248.29 782.86,-239.33"/>
<polygon fill="#63b8ff" stroke="#63b8ff" points="817.87,-376.03 823.75,-384.84 824.65,-374.29 817.87,-376.03"/>
</a>
</g>
</g>
<!-- Node21 -->
<g id="Node000021" class="node">
<title>Node21</title>
<g id="a_Node000021"><a xlink:href="Explosion_8cpp.html" target="_top" xlink:title="Implementation of timed explosion visual effects.">
<polygon fill="white" stroke="#666666" points="981.46,-349 846.46,-349 846.46,-330 981.46,-330 981.46,-349"/>
<text text-anchor="middle" x="913.96" y="-337" font-family="Helvetica,sans-Serif" font-size="10.00">src/model/Explosion.cpp</text>
</a>
</g>
</g>
<!-- Node20&#45;&gt;Node21 -->
<g id="edge28_Node000020_Node000021" class="edge">
<title>Node20&#45;&gt;Node21</title>
<g id="a_edge28_Node000020_Node000021"><a xlink:title=" ">
<path fill="none" stroke="#63b8ff" d="M848.88,-379.7C864.91,-370.04 885.83,-357.44 899.56,-349.17"/>
<polygon fill="#63b8ff" stroke="#63b8ff" points="846.86,-376.83 840.1,-384.98 850.47,-382.82 846.86,-376.83"/>
</a>
</g>
</g>
<!-- Node23&#45;&gt;Node4 -->
<g id="edge33_Node000023_Node000004" class="edge">
<title>Node23&#45;&gt;Node4</title>
<g id="a_edge33_Node000023_Node000004"><a xlink:title=" ">
<path fill="none" stroke="#63b8ff" d="M1015.96,-273.19C961.02,-263.25 878.87,-248.39 827.4,-239.08"/>
<polygon fill="#63b8ff" stroke="#63b8ff" points="1015.42,-276.65 1025.88,-274.98 1016.67,-269.76 1015.42,-276.65"/>
</a>
</g>
</g>
<!-- Node23&#45;&gt;Node9 -->
<g id="edge35_Node000023_Node000009" class="edge">
<title>Node23&#45;&gt;Node9</title>
<g id="a_edge35_Node000023_Node000009"><a xlink:title=" ">
<path fill="none" stroke="#63b8ff" d="M1038.65,-271.73C996.21,-257.57 921.53,-233.97 855.96,-220 807.42,-209.66 674.81,-192.93 594.16,-183.2"/>
<polygon fill="#63b8ff" stroke="#63b8ff" points="1037.61,-275.07 1048.21,-274.94 1039.84,-268.44 1037.61,-275.07"/>
</a>
</g>
</g>
<!-- Node24 -->
<g id="Node000024" class="node">
<title>Node24</title>
<g id="a_Node000024"><a xlink:href="Obstacle_8cpp.html" target="_top" xlink:title="Implementation of environmental obstacles with different passability and durability.">
<polygon fill="white" stroke="#666666" points="1138.46,-239 1007.46,-239 1007.46,-220 1138.46,-220 1138.46,-239"/>
<text text-anchor="middle" x="1072.96" y="-227" font-family="Helvetica,sans-Serif" font-size="10.00">src/model/Obstacle.cpp</text>
</a>
</g>
</g>
<!-- Node23&#45;&gt;Node24 -->
<g id="edge34_Node000023_Node000024" class="edge">
<title>Node23&#45;&gt;Node24</title>
<g id="a_edge34_Node000023_Node000024"><a xlink:title=" ">
<path fill="none" stroke="#63b8ff" d="M1072.96,-264.66C1072.96,-255.93 1072.96,-245.99 1072.96,-239.09"/>
<polygon fill="#63b8ff" stroke="#63b8ff" points="1069.46,-264.75 1072.96,-274.75 1076.46,-264.75 1069.46,-264.75"/>
</a>
</g>
</g>
<!-- Node25&#45;&gt;Node4 -->
<g id="edge37_Node000025_Node000004" class="edge">
<title>Node25&#45;&gt;Node4</title>
<g id="a_edge37_Node000025_Node000004"><a xlink:title=" ">
<path fill="none" stroke="#63b8ff" d="M700.3,-377.34C717.32,-358.63 744.52,-326.24 760.96,-294 770.37,-275.55 775.94,-251.65 778.42,-239.09"/>
<polygon fill="#63b8ff" stroke="#63b8ff" points="697.51,-375.21 693.28,-384.92 702.64,-379.97 697.51,-375.21"/>
</a>
</g>
</g>
<!-- Node25&#45;&gt;Node13 -->
<g id="edge39_Node000025_Node000013" class="edge">
<title>Node25&#45;&gt;Node13</title>
<g id="a_edge39_Node000025_Node000013"><a xlink:title=" ">
<path fill="none" stroke="#63b8ff" d="M653.05,-381.42C627.08,-371.59 591.04,-357.95 567.86,-349.17"/>
<polygon fill="#63b8ff" stroke="#63b8ff" points="651.87,-384.72 662.47,-384.98 654.35,-378.17 651.87,-384.72"/>
</a>
</g>
</g>
<!-- Node25&#45;&gt;Node18 -->
<g id="edge38_Node000025_Node000018" class="edge">
<title>Node25&#45;&gt;Node18</title>
<g id="a_edge38_Node000025_Node000018"><a xlink:title=" ">
<path fill="none" stroke="#63b8ff" d="M684.96,-374.48C684.96,-350.84 684.96,-311.5 684.96,-294.16"/>
<polygon fill="#63b8ff" stroke="#63b8ff" points="681.46,-374.66 684.96,-384.66 688.46,-374.66 681.46,-374.66"/>
</a>
</g>
</g>
</g>
</svg>

<g id="navigator" transform="translate(0 0)" fill="#404254">
  <rect fill="#f2f5e9" fill-opacity="0.5" stroke="#606060" stroke-width=".5" x="0" y="0" width="60" height="60"/>
  <use id="zoomplus" xlink:href="#zoomPlus" x="17" y="9" onmousedown="handleZoom(evt,'in')"/>
  <use id="zoomminus" xlink:href="#zoomMin" x="42" y="9" onmousedown="handleZoom(evt,'out')"/>
  <use id="reset" xlink:href="#resetDef" x="30" y="36" onmousedown="handleReset()"/>
   <use id="arrowup" xlink:href="#arrowUp" x="0" y="0" onmousedown="handlePan(0,-1)"/>
  <use id="arrowright" xlink:href="#arrowRight" x="0" y="0" onmousedown="handlePan(1,0)"/>
  <use id="arrowdown" xlink:href="#arrowDown" x="0" y="0" onmousedown="handlePan(0,1)"/>
  <use id="arrowleft" xlink:href="#arrowLeft" x="0" y="0" onmousedown="handlePan(-1,0)"/>
</g>
<svg viewBox="0 0 15 15" width="100%" height="30px" preserveAspectRatio="xMaxYMin meet">
 <g id="arrow_out" transform="scale(0.3 0.3)">
  <a xlink:href="GameObject_8h__dep__incl_org.svg" target="_base">
   <rect id="button" ry="5" rx="5" y="6" x="6" height="38" width="38"
        fill="#f2f5e9" fill-opacity="0.5" stroke="#606060" stroke-width="1.0"/>
   <path id="arrow"
     d="M 11.500037,31.436501 C 11.940474,20.09759 22.043105,11.32322 32.158766,21.979434 L 37.068811,17.246167 C 37.068811,17.246167 37.088388,32 37.088388,32 L 22.160133,31.978069 C 22.160133,31.978069 26.997745,27.140456 26.997745,27.140456 C 18.528582,18.264221 13.291696,25.230495 11.500037,31.436501 z"
     style="fill:#404040;"/>
  </a>
 </g>
</svg>

<style type='text/css'>
<![CDATA[
[data-mouse-over-selected='false'] { opacity: 0.7; }
[data-mouse-over-selected='true']  { opacity: 1.0; }
]]>
</style>
<script type="application/ecmascript"><![CDATA[
document.addEventListener('DOMContentLoaded', (event) => {
  highlightEdges();
  highlightAdjacentNodes();
});
]]></script>
</svg>
