<?xml version="1.0" encoding="UTF-8" standalone="no"?>
<!DOCTYPE svg PUBLIC "-//W3C//DTD SVG 1.1//EN"
 "http://www.w3.org/Graphics/SVG/1.1/DTD/svg11.dtd">
<!-- Generated by graphviz version 2.43.0 (0)
 -->
<!-- Title: src/controller/InputHandler.h Pages: 1 -->
<svg width="441pt" height="137pt"
 viewBox="0.00 0.00 441.00 137.00" xmlns="http://www.w3.org/2000/svg" xmlns:xlink="http://www.w3.org/1999/xlink">
<g id="graph0" class="graph" transform="scale(1 1) rotate(0) translate(4 133)">
<title>src/controller/InputHandler.h</title>
<!-- Node1 -->
<g id="Node000001" class="node">
<title>Node1</title>
<g id="a_Node000001"><a xlink:title="Handles user input and maps keystrokes to game commands.">
<polygon fill="#999999" stroke="#666666" points="334.5,-129 179.5,-129 179.5,-110 334.5,-110 334.5,-129"/>
<text text-anchor="middle" x="257" y="-117" font-family="Helvetica,sans-Serif" font-size="10.00">src/controller/InputHandler.h</text>
</a>
</g>
</g>
<!-- Node2 -->
<g id="Node000002" class="node">
<title>Node2</title>
<g id="a_Node000002"><a xlink:href="GameController_8h.html" target="_top" xlink:title="Central game controller coordinating model, view, and input systems.">
<polygon fill="white" stroke="#666666" points="248.5,-74 79.5,-74 79.5,-55 248.5,-55 248.5,-74"/>
<text text-anchor="middle" x="164" y="-62" font-family="Helvetica,sans-Serif" font-size="10.00">src/controller/GameController.h</text>
</a>
</g>
</g>
<!-- Node1&#45;&gt;Node2 -->
<g id="edge1_Node000001_Node000002" class="edge">
<title>Node1&#45;&gt;Node2</title>
<g id="a_edge1_Node000001_Node000002"><a xlink:title=" ">
<path fill="none" stroke="#63b8ff" d="M233.25,-104.97C216.25,-95.28 193.87,-82.52 179.21,-74.17"/>
<polygon fill="#63b8ff" stroke="#63b8ff" points="231.64,-108.07 242.06,-109.98 235.1,-101.99 231.64,-108.07"/>
</a>
</g>
</g>
<!-- Node5 -->
<g id="Node000005" class="node">
<title>Node5</title>
<g id="a_Node000005"><a xlink:href="InputHandler_8cpp.html" target="_top" xlink:title="Implementation of input handling with keyboard and Unicode support.">
<polygon fill="white" stroke="#666666" points="433,-74 267,-74 267,-55 433,-55 433,-74"/>
<text text-anchor="middle" x="350" y="-62" font-family="Helvetica,sans-Serif" font-size="10.00">src/controller/InputHandler.cpp</text>
</a>
</g>
</g>
<!-- Node1&#45;&gt;Node5 -->
<g id="edge4_Node000001_Node000005" class="edge">
<title>Node1&#45;&gt;Node5</title>
<g id="a_edge4_Node000001_Node000005"><a xlink:title=" ">
<path fill="none" stroke="#63b8ff" d="M280.75,-104.97C297.75,-95.28 320.13,-82.52 334.79,-74.17"/>
<polygon fill="#63b8ff" stroke="#63b8ff" points="278.9,-101.99 271.94,-109.98 282.36,-108.07 278.9,-101.99"/>
</a>
</g>
</g>
<!-- Node3 -->
<g id="Node000003" class="node">
<title>Node3</title>
<g id="a_Node000003"><a xlink:href="GameController_8cpp.html" target="_top" xlink:title="Implementation of main game controller and game loop logic.">
<polygon fill="white" stroke="#666666" points="180,-19 0,-19 0,0 180,0 180,-19"/>
<text text-anchor="middle" x="90" y="-7" font-family="Helvetica,sans-Serif" font-size="10.00">src/controller/GameController.cpp</text>
</a>
</g>
</g>
<!-- Node2&#45;&gt;Node3 -->
<g id="edge2_Node000002_Node000003" class="edge">
<title>Node2&#45;&gt;Node3</title>
<g id="a_edge2_Node000002_Node000003"><a xlink:title=" ">
<path fill="none" stroke="#63b8ff" d="M143.97,-49.15C130.59,-39.57 113.44,-27.29 102.11,-19.17"/>
<polygon fill="#63b8ff" stroke="#63b8ff" points="141.94,-52.01 152.11,-54.98 146.02,-46.32 141.94,-52.01"/>
</a>
</g>
</g>
<!-- Node4 -->
<g id="Node000004" class="node">
<title>Node4</title>
<g id="a_Node000004"><a xlink:href="main_8cpp.html" target="_top" xlink:title="Main entry point for the Tank Simulator game.">
<polygon fill="white" stroke="#666666" points="277.5,-19 198.5,-19 198.5,0 277.5,0 277.5,-19"/>
<text text-anchor="middle" x="238" y="-7" font-family="Helvetica,sans-Serif" font-size="10.00">src/main.cpp</text>
</a>
</g>
</g>
<!-- Node2&#45;&gt;Node4 -->
<g id="edge3_Node000002_Node000004" class="edge">
<title>Node2&#45;&gt;Node4</title>
<g id="a_edge3_Node000002_Node000004"><a xlink:title=" ">
<path fill="none" stroke="#63b8ff" d="M184.03,-49.15C197.41,-39.57 214.56,-27.29 225.89,-19.17"/>
<polygon fill="#63b8ff" stroke="#63b8ff" points="181.98,-46.32 175.89,-54.98 186.06,-52.01 181.98,-46.32"/>
</a>
</g>
</g>
</g>
</svg>
