<?xml version="1.0" encoding="UTF-8" standalone="no"?>
<!DOCTYPE svg PUBLIC "-//W3C//DTD SVG 1.1//EN"
 "http://www.w3.org/Graphics/SVG/1.1/DTD/svg11.dtd">
<!-- Generated by graphviz version 2.43.0 (0)
 -->
<!-- Title: src/model/Obstacle.h Pages: 1 -->
<svg width="487pt" height="302pt"
 viewBox="0.00 0.00 487.00 302.00" xmlns="http://www.w3.org/2000/svg" xmlns:xlink="http://www.w3.org/1999/xlink">

<svg id="main" version="1.1" xmlns="http://www.w3.org/2000/svg" xmlns:xlink="http://www.w3.org/1999/xlink" xml:space="preserve" onload="init(evt)">
<style type="text/css"><![CDATA[
.node, .edge {opacity: 0.7;}
.node.selected, .edge.selected {opacity: 1;}
.edge:hover path { stroke: red; }
.edge:hover polygon { stroke: red; fill: red; }
]]></style>
<script type="application/ecmascript" xlink:href="svg.min.js"/>
<svg id="graph" class="graph">
<g id="graph0" class="graph" transform="scale(1 1) rotate(0) translate(4 298)">
<title>src/model/Obstacle.h</title>
<!-- Node1 -->
<g id="Node000001" class="node">
<title>Node1</title>
<g id="a_Node000001"><a xlink:title="Environmental obstacles including walls, water, forests, and their properties.">
<polygon fill="#999999" stroke="#666666" points="379,-294 260,-294 260,-275 379,-275 379,-294"/>
<text text-anchor="middle" x="319.5" y="-282" font-family="Helvetica,sans-Serif" font-size="10.00">src/model/Obstacle.h</text>
</a>
</g>
</g>
<!-- Node2 -->
<g id="Node000002" class="node">
<title>Node2</title>
<g id="a_Node000002"><a xlink:href="GameWorld_8h.html" target="_top" xlink:title="Main game world manager handling objects, collisions, states, and game logic.">
<polygon fill="white" stroke="#666666" points="291.5,-239 157.5,-239 157.5,-220 291.5,-220 291.5,-239"/>
<text text-anchor="middle" x="224.5" y="-227" font-family="Helvetica,sans-Serif" font-size="10.00">src/model/GameWorld.h</text>
</a>
</g>
</g>
<!-- Node1&#45;&gt;Node2 -->
<g id="edge1_Node000001_Node000002" class="edge">
<title>Node1&#45;&gt;Node2</title>
<g id="a_edge1_Node000001_Node000002"><a xlink:title=" ">
<path fill="none" stroke="#63b8ff" d="M295.24,-269.97C277.87,-260.28 255.01,-247.52 240.04,-239.17"/>
<polygon fill="#63b8ff" stroke="#63b8ff" points="293.8,-273.17 304.24,-274.98 297.21,-267.06 293.8,-273.17"/>
</a>
</g>
</g>
<!-- Node7 -->
<g id="Node000007" class="node">
<title>Node7</title>
<g id="a_Node000007"><a xlink:href="MapManager_8h.html" target="_top" xlink:title="Manages game maps, level generation, and procedural content.">
<polygon fill="white" stroke="#666666" points="384.5,-184 254.5,-184 254.5,-165 384.5,-165 384.5,-184"/>
<text text-anchor="middle" x="319.5" y="-172" font-family="Helvetica,sans-Serif" font-size="10.00">src/utils/MapManager.h</text>
</a>
</g>
</g>
<!-- Node1&#45;&gt;Node7 -->
<g id="edge14_Node000001_Node000007" class="edge">
<title>Node1&#45;&gt;Node7</title>
<g id="a_edge14_Node000001_Node000007"><a xlink:title=" ">
<path fill="none" stroke="#63b8ff" d="M319.5,-264.48C319.5,-240.84 319.5,-201.5 319.5,-184.16"/>
<polygon fill="#63b8ff" stroke="#63b8ff" points="316,-264.66 319.5,-274.66 323,-264.66 316,-264.66"/>
</a>
</g>
</g>
<!-- Node11 -->
<g id="Node000011" class="node">
<title>Node11</title>
<g id="a_Node000011"><a xlink:href="Obstacle_8cpp.html" target="_top" xlink:title="Implementation of environmental obstacles with different passability and durability.">
<polygon fill="white" stroke="#666666" points="479,-239 348,-239 348,-220 479,-220 479,-239"/>
<text text-anchor="middle" x="413.5" y="-227" font-family="Helvetica,sans-Serif" font-size="10.00">src/model/Obstacle.cpp</text>
</a>
</g>
</g>
<!-- Node1&#45;&gt;Node11 -->
<g id="edge13_Node000001_Node000011" class="edge">
<title>Node1&#45;&gt;Node11</title>
<g id="a_edge13_Node000001_Node000011"><a xlink:title=" ">
<path fill="none" stroke="#63b8ff" d="M343.5,-269.97C360.69,-260.28 383.31,-247.52 398.12,-239.17"/>
<polygon fill="#63b8ff" stroke="#63b8ff" points="341.59,-267.02 334.6,-274.98 345.03,-273.12 341.59,-267.02"/>
</a>
</g>
</g>
<!-- Node3 -->
<g id="Node000003" class="node">
<title>Node3</title>
<g id="a_Node000003"><a xlink:href="GameController_8h.html" target="_top" xlink:title="Central game controller coordinating model, view, and input systems.">
<polygon fill="white" stroke="#666666" points="350,-74 181,-74 181,-55 350,-55 350,-74"/>
<text text-anchor="middle" x="265.5" y="-62" font-family="Helvetica,sans-Serif" font-size="10.00">src/controller/GameController.h</text>
</a>
</g>
</g>
<!-- Node2&#45;&gt;Node3 -->
<g id="edge2_Node000002_Node000003" class="edge">
<title>Node2&#45;&gt;Node3</title>
<g id="a_edge2_Node000002_Node000003"><a xlink:title=" ">
<path fill="none" stroke="#63b8ff" d="M226.05,-209.96C228.38,-186.32 233.71,-144.39 244.5,-110 248.59,-96.96 255.77,-82.84 260.58,-74.08"/>
<polygon fill="#63b8ff" stroke="#63b8ff" points="222.56,-209.71 225.13,-219.98 229.53,-210.34 222.56,-209.71"/>
</a>
</g>
</g>
<!-- Node6 -->
<g id="Node000006" class="node">
<title>Node6</title>
<g id="a_Node000006"><a xlink:href="GameWorld_8cpp.html" target="_top" xlink:title="Core game simulation with object management, collisions, and level generation.">
<polygon fill="white" stroke="#666666" points="159,-184 14,-184 14,-165 159,-165 159,-184"/>
<text text-anchor="middle" x="86.5" y="-172" font-family="Helvetica,sans-Serif" font-size="10.00">src/model/GameWorld.cpp</text>
</a>
</g>
</g>
<!-- Node2&#45;&gt;Node6 -->
<g id="edge5_Node000002_Node000006" class="edge">
<title>Node2&#45;&gt;Node6</title>
<g id="a_edge5_Node000002_Node000006"><a xlink:title=" ">
<path fill="none" stroke="#63b8ff" d="M192.71,-216.29C167.13,-206.47 131.83,-192.91 109.08,-184.17"/>
<polygon fill="#63b8ff" stroke="#63b8ff" points="191.74,-219.67 202.33,-219.98 194.25,-213.13 191.74,-219.67"/>
</a>
</g>
</g>
<!-- Node2&#45;&gt;Node7 -->
<g id="edge6_Node000002_Node000007" class="edge">
<title>Node2&#45;&gt;Node7</title>
<g id="a_edge6_Node000002_Node000007"><a xlink:title=" ">
<path fill="none" stroke="#63b8ff" d="M248.76,-214.97C266.13,-205.28 288.99,-192.52 303.96,-184.17"/>
<polygon fill="#63b8ff" stroke="#63b8ff" points="246.79,-212.06 239.76,-219.98 250.2,-218.17 246.79,-212.06"/>
</a>
</g>
</g>
<!-- Node9 -->
<g id="Node000009" class="node">
<title>Node9</title>
<g id="a_Node000009"><a xlink:href="ConsoleRenderer_8h.html" target="_top" xlink:title="Renders game state, menus, and UI elements to the console.">
<polygon fill="white" stroke="#666666" points="197.5,-129 45.5,-129 45.5,-110 197.5,-110 197.5,-129"/>
<text text-anchor="middle" x="121.5" y="-117" font-family="Helvetica,sans-Serif" font-size="10.00">src/view/ConsoleRenderer.h</text>
</a>
</g>
</g>
<!-- Node2&#45;&gt;Node9 -->
<g id="edge12_Node000002_Node000009" class="edge">
<title>Node2&#45;&gt;Node9</title>
<g id="a_edge12_Node000002_Node000009"><a xlink:title=" ">
<path fill="none" stroke="#63b8ff" d="M210.29,-212.04C198.94,-199.04 182.51,-180.58 167.5,-165 155.17,-152.2 140.28,-138.01 130.85,-129.18"/>
<polygon fill="#63b8ff" stroke="#63b8ff" points="207.74,-214.44 216.95,-219.7 213.03,-209.85 207.74,-214.44"/>
</a>
</g>
</g>
<!-- Node4 -->
<g id="Node000004" class="node">
<title>Node4</title>
<g id="a_Node000004"><a xlink:href="GameController_8cpp.html" target="_top" xlink:title="Implementation of main game controller and game loop logic.">
<polygon fill="white" stroke="#666666" points="281.5,-19 101.5,-19 101.5,0 281.5,0 281.5,-19"/>
<text text-anchor="middle" x="191.5" y="-7" font-family="Helvetica,sans-Serif" font-size="10.00">src/controller/GameController.cpp</text>
</a>
</g>
</g>
<!-- Node3&#45;&gt;Node4 -->
<g id="edge3_Node000003_Node000004" class="edge">
<title>Node3&#45;&gt;Node4</title>
<g id="a_edge3_Node000003_Node000004"><a xlink:title=" ">
<path fill="none" stroke="#63b8ff" d="M245.47,-49.15C232.09,-39.57 214.94,-27.29 203.61,-19.17"/>
<polygon fill="#63b8ff" stroke="#63b8ff" points="243.44,-52.01 253.61,-54.98 247.52,-46.32 243.44,-52.01"/>
</a>
</g>
</g>
<!-- Node5 -->
<g id="Node000005" class="node">
<title>Node5</title>
<g id="a_Node000005"><a xlink:href="main_8cpp.html" target="_top" xlink:title="Main entry point for the Tank Simulator game.">
<polygon fill="white" stroke="#666666" points="379,-19 300,-19 300,0 379,0 379,-19"/>
<text text-anchor="middle" x="339.5" y="-7" font-family="Helvetica,sans-Serif" font-size="10.00">src/main.cpp</text>
</a>
</g>
</g>
<!-- Node3&#45;&gt;Node5 -->
<g id="edge4_Node000003_Node000005" class="edge">
<title>Node3&#45;&gt;Node5</title>
<g id="a_edge4_Node000003_Node000005"><a xlink:title=" ">
<path fill="none" stroke="#63b8ff" d="M285.53,-49.15C298.91,-39.57 316.06,-27.29 327.39,-19.17"/>
<polygon fill="#63b8ff" stroke="#63b8ff" points="283.48,-46.32 277.39,-54.98 287.56,-52.01 283.48,-46.32"/>
</a>
</g>
</g>
<!-- Node7&#45;&gt;Node3 -->
<g id="edge7_Node000007_Node000003" class="edge">
<title>Node7&#45;&gt;Node3</title>
<g id="a_edge7_Node000007_Node000003"><a xlink:title=" ">
<path fill="none" stroke="#63b8ff" d="M359.24,-161.44C388.6,-150.4 420.84,-132.39 404.5,-110 390.98,-91.48 369.65,-80.49 347.72,-74.02"/>
<polygon fill="#63b8ff" stroke="#63b8ff" points="357.72,-158.27 349.47,-164.92 360.07,-164.86 357.72,-158.27"/>
</a>
</g>
</g>
<!-- Node8 -->
<g id="Node000008" class="node">
<title>Node8</title>
<g id="a_Node000008"><a xlink:href="MapManager_8cpp.html" target="_top" xlink:title="Implementation for loading, creating, and managing game maps.">
<polygon fill="white" stroke="#666666" points="395,-129 254,-129 254,-110 395,-110 395,-129"/>
<text text-anchor="middle" x="324.5" y="-117" font-family="Helvetica,sans-Serif" font-size="10.00">src/utils/MapManager.cpp</text>
</a>
</g>
</g>
<!-- Node7&#45;&gt;Node8 -->
<g id="edge8_Node000007_Node000008" class="edge">
<title>Node7&#45;&gt;Node8</title>
<g id="a_edge8_Node000007_Node000008"><a xlink:title=" ">
<path fill="none" stroke="#63b8ff" d="M321.28,-154.66C322.1,-145.93 323.04,-135.99 323.69,-129.09"/>
<polygon fill="#63b8ff" stroke="#63b8ff" points="317.78,-154.46 320.33,-164.75 324.75,-155.12 317.78,-154.46"/>
</a>
</g>
</g>
<!-- Node7&#45;&gt;Node9 -->
<g id="edge9_Node000007_Node000009" class="edge">
<title>Node7&#45;&gt;Node9</title>
<g id="a_edge9_Node000007_Node000009"><a xlink:title=" ">
<path fill="none" stroke="#63b8ff" d="M277.7,-162.31C240.65,-152.39 187.33,-138.12 153.56,-129.08"/>
<polygon fill="#63b8ff" stroke="#63b8ff" points="277.12,-165.78 287.69,-164.98 278.93,-159.02 277.12,-165.78"/>
</a>
</g>
</g>
<!-- Node9&#45;&gt;Node3 -->
<g id="edge10_Node000009_Node000003" class="edge">
<title>Node9&#45;&gt;Node3</title>
<g id="a_edge10_Node000009_Node000003"><a xlink:title=" ">
<path fill="none" stroke="#63b8ff" d="M154.32,-106.42C181.03,-96.59 218.1,-82.95 241.94,-74.17"/>
<polygon fill="#63b8ff" stroke="#63b8ff" points="152.81,-103.25 144.64,-109.98 155.23,-109.82 152.81,-103.25"/>
</a>
</g>
</g>
<!-- Node10 -->
<g id="Node000010" class="node">
<title>Node10</title>
<g id="a_Node000010"><a xlink:href="ConsoleRenderer_8cpp.html" target="_top" xlink:title="Implementation of console&#45;based game rendering with ASCII/Unicode support.">
<polygon fill="white" stroke="#666666" points="163,-74 0,-74 0,-55 163,-55 163,-74"/>
<text text-anchor="middle" x="81.5" y="-62" font-family="Helvetica,sans-Serif" font-size="10.00">src/view/ConsoleRenderer.cpp</text>
</a>
</g>
</g>
<!-- Node9&#45;&gt;Node10 -->
<g id="edge11_Node000009_Node000010" class="edge">
<title>Node9&#45;&gt;Node10</title>
<g id="a_edge11_Node000009_Node000010"><a xlink:title=" ">
<path fill="none" stroke="#63b8ff" d="M108.8,-101.67C101.87,-92.5 93.59,-81.52 87.98,-74.09"/>
<polygon fill="#63b8ff" stroke="#63b8ff" points="106.08,-103.87 114.89,-109.75 111.66,-99.66 106.08,-103.87"/>
</a>
</g>
</g>
</g>
</svg>
</svg>

<style type='text/css'>
<![CDATA[
[data-mouse-over-selected='false'] { opacity: 0.7; }
[data-mouse-over-selected='true']  { opacity: 1.0; }
]]>
</style>
<script type="application/ecmascript"><![CDATA[
document.addEventListener('DOMContentLoaded', (event) => {
  highlightEdges();
  highlightAdjacentNodes();
});
]]></script>
</svg>
