<?xml version="1.0" encoding="UTF-8" standalone="no"?>
<!DOCTYPE svg PUBLIC "-//W3C//DTD SVG 1.1//EN"
 "http://www.w3.org/Graphics/SVG/1.1/DTD/svg11.dtd">
<!-- Generated by graphviz version 2.43.0 (0)
 -->
<!-- Title: src/model/PlayerTank.h Pages: 1 -->
<!--zoomable 302 -->

<svg id="main" version="1.1" xmlns="http://www.w3.org/2000/svg" xmlns:xlink="http://www.w3.org/1999/xlink" xml:space="preserve" onload="init(evt)">
<style type="text/css"><![CDATA[
.node, .edge {opacity: 0.7;}
.node.selected, .edge.selected {opacity: 1;}
.edge:hover path { stroke: red; }
.edge:hover polygon { stroke: red; fill: red; }
]]></style>

<defs>
  <circle id="rim" cx="0" cy="0" r="7"/>
  <circle id="rim2" cx="0" cy="0" r="3.5"/>
  <g id="zoomPlus">
    <use xlink:href="#rim" fill="#404040"><set attributeName="fill" to="#808080" begin="zoomplus.mouseover" end="zoomplus.mouseout"/></use>
    <path d="M-4,0h8M0,-4v8" fill="none" stroke="white" stroke-width="1.5" pointer-events="none"/>
  </g>
  <g id="zoomMin">
    <use xlink:href="#rim" fill="#404040"><set attributeName="fill" to="#808080" begin="zoomminus.mouseover" end="zoomminus.mouseout"/></use>
    <path d="M-4,0h8" fill="none" stroke="white" stroke-width="1.5" pointer-events="none"/>
  </g>
  <g id="arrowUp" transform="translate(30 24)">
    <use xlink:href="#rim"/>
    <path pointer-events="none" fill="none" stroke="white" stroke-width="1.5" d="M0,-3.0v7 M-2.5,-0.5L0,-3.0L2.5,-0.5"/>
  </g>
  <g id="arrowRight" transform="rotate(90) translate(36 -43)">
    <use xlink:href="#rim"/>
    <path pointer-events="none" fill="none" stroke="white" stroke-width="1.5" d="M0,-3.0v7 M-2.5,-0.5L0,-3.0L2.5,-0.5"/>
  </g>
  <g id="arrowDown" transform="rotate(180) translate(-30 -48)">
    <use xlink:href="#rim"/>
    <path pointer-events="none" fill="none" stroke="white" stroke-width="1.5" d="M0,-3.0v7 M-2.5,-0.5L0,-3.0L2.5,-0.5"/>
  </g>
  <g id="arrowLeft" transform="rotate(270) translate(-36 17)">
    <use xlink:href="#rim"/>
    <path pointer-events="none" fill="none" stroke="white" stroke-width="1.5" d="M0,-3.0v7 M-2.5,-0.5L0,-3.0L2.5,-0.5"/>
  </g>
  <g id="resetDef">
    <use xlink:href="#rim2" fill="#404040"><set attributeName="fill" to="#808080" begin="reset.mouseover" end="reset.mouseout"/></use>
  </g>
</defs>
<script type="application/ecmascript">
var viewWidth = 575;
var viewHeight = 302;
var sectionId = 'dynsection-1';
</script>
<script type="application/ecmascript" xlink:href="svg.min.js"/>
<svg id="graph" class="graph">
<g id="viewport">
<title>src/model/PlayerTank.h</title>
<!-- Node1 -->
<g id="Node000001" class="node">
<title>Node1</title>
<g id="a_Node000001"><a xlink:title="Player&#45;controlled tank with lives, score system, and special abilities.">
<polygon fill="#999999" stroke="#666666" points="414.5,-294 284.5,-294 284.5,-275 414.5,-275 414.5,-294"/>
<text text-anchor="middle" x="349.5" y="-282" font-family="Helvetica,sans-Serif" font-size="10.00">src/model/PlayerTank.h</text>
</a>
</g>
</g>
<!-- Node2 -->
<g id="Node000002" class="node">
<title>Node2</title>
<g id="a_Node000002"><a xlink:href="Bonus_8cpp.html" target="_top" xlink:title="Implementation of power&#45;up bonuses with various effects for player tank.">
<polygon fill="white" stroke="#666666" points="199.5,-239 81.5,-239 81.5,-220 199.5,-220 199.5,-239"/>
<text text-anchor="middle" x="140.5" y="-227" font-family="Helvetica,sans-Serif" font-size="10.00">src/model/Bonus.cpp</text>
</a>
</g>
</g>
<!-- Node1&#45;&gt;Node2 -->
<g id="edge1_Node000001_Node000002" class="edge">
<title>Node1&#45;&gt;Node2</title>
<g id="a_edge1_Node000001_Node000002"><a xlink:title=" ">
<path fill="none" stroke="#63b8ff" d="M306.13,-272.5C266.99,-262.58 210.22,-248.18 174.34,-239.08"/>
<polygon fill="#63b8ff" stroke="#63b8ff" points="305.37,-275.92 315.92,-274.98 307.09,-269.13 305.37,-275.92"/>
</a>
</g>
</g>
<!-- Node3 -->
<g id="Node000003" class="node">
<title>Node3</title>
<g id="a_Node000003"><a xlink:href="GameWorld_8h.html" target="_top" xlink:title="Main game world manager handling objects, collisions, states, and game logic.">
<polygon fill="white" stroke="#666666" points="351.5,-239 217.5,-239 217.5,-220 351.5,-220 351.5,-239"/>
<text text-anchor="middle" x="284.5" y="-227" font-family="Helvetica,sans-Serif" font-size="10.00">src/model/GameWorld.h</text>
</a>
</g>
</g>
<!-- Node1&#45;&gt;Node3 -->
<g id="edge2_Node000001_Node000003" class="edge">
<title>Node1&#45;&gt;Node3</title>
<g id="a_edge2_Node000001_Node000003"><a xlink:title=" ">
<path fill="none" stroke="#63b8ff" d="M331.23,-268.6C319.58,-259.11 304.9,-247.13 295.13,-239.17"/>
<polygon fill="#63b8ff" stroke="#63b8ff" points="329.09,-271.38 339.06,-274.98 333.52,-265.95 329.09,-271.38"/>
</a>
</g>
</g>
<!-- Node9 -->
<g id="Node000009" class="node">
<title>Node9</title>
<g id="a_Node000009"><a xlink:href="MapManager_8cpp.html" target="_top" xlink:title="Implementation for loading, creating, and managing game maps.">
<polygon fill="white" stroke="#666666" points="551,-129 410,-129 410,-110 551,-110 551,-129"/>
<text text-anchor="middle" x="480.5" y="-117" font-family="Helvetica,sans-Serif" font-size="10.00">src/utils/MapManager.cpp</text>
</a>
</g>
</g>
<!-- Node1&#45;&gt;Node9 -->
<g id="edge15_Node000001_Node000009" class="edge">
<title>Node1&#45;&gt;Node9</title>
<g id="a_edge15_Node000001_Node000009"><a xlink:title=" ">
<path fill="none" stroke="#63b8ff" d="M363.07,-266.62C390.67,-232.28 452.5,-155.34 473.42,-129.31"/>
<polygon fill="#63b8ff" stroke="#63b8ff" points="360.08,-264.75 356.54,-274.74 365.54,-269.13 360.08,-264.75"/>
</a>
</g>
</g>
<!-- Node12 -->
<g id="Node000012" class="node">
<title>Node12</title>
<g id="a_Node000012"><a xlink:href="PlayerTank_8cpp.html" target="_top" xlink:title="Implementation of player&#45;controlled tank with lives, score, and bonus management.">
<polygon fill="white" stroke="#666666" points="567,-239 426,-239 426,-220 567,-220 567,-239"/>
<text text-anchor="middle" x="496.5" y="-227" font-family="Helvetica,sans-Serif" font-size="10.00">src/model/PlayerTank.cpp</text>
</a>
</g>
</g>
<!-- Node1&#45;&gt;Node12 -->
<g id="edge14_Node000001_Node000012" class="edge">
<title>Node1&#45;&gt;Node12</title>
<g id="a_edge14_Node000001_Node000012"><a xlink:title=" ">
<path fill="none" stroke="#63b8ff" d="M382.64,-271.55C409.94,-261.71 448,-247.98 472.45,-239.17"/>
<polygon fill="#63b8ff" stroke="#63b8ff" points="381.34,-268.3 373.12,-274.98 383.71,-274.89 381.34,-268.3"/>
</a>
</g>
</g>
<!-- Node4 -->
<g id="Node000004" class="node">
<title>Node4</title>
<g id="a_Node000004"><a xlink:href="GameController_8h.html" target="_top" xlink:title="Central game controller coordinating model, view, and input systems.">
<polygon fill="white" stroke="#666666" points="277,-74 108,-74 108,-55 277,-55 277,-74"/>
<text text-anchor="middle" x="192.5" y="-62" font-family="Helvetica,sans-Serif" font-size="10.00">src/controller/GameController.h</text>
</a>
</g>
</g>
<!-- Node3&#45;&gt;Node4 -->
<g id="edge3_Node000003_Node000004" class="edge">
<title>Node3&#45;&gt;Node4</title>
<g id="a_edge3_Node000003_Node000004"><a xlink:title=" ">
<path fill="none" stroke="#63b8ff" d="M235.51,-216.37C218.94,-209.67 202.19,-199.46 192.5,-184 170.31,-148.62 183.31,-94.84 189.65,-74.08"/>
<polygon fill="#63b8ff" stroke="#63b8ff" points="234.6,-219.76 245.19,-219.92 237.01,-213.19 234.6,-219.76"/>
</a>
</g>
</g>
<!-- Node7 -->
<g id="Node000007" class="node">
<title>Node7</title>
<g id="a_Node000007"><a xlink:href="GameWorld_8cpp.html" target="_top" xlink:title="Core game simulation with object management, collisions, and level generation.">
<polygon fill="white" stroke="#666666" points="145,-184 0,-184 0,-165 145,-165 145,-184"/>
<text text-anchor="middle" x="72.5" y="-172" font-family="Helvetica,sans-Serif" font-size="10.00">src/model/GameWorld.cpp</text>
</a>
</g>
</g>
<!-- Node3&#45;&gt;Node7 -->
<g id="edge6_Node000003_Node000007" class="edge">
<title>Node3&#45;&gt;Node7</title>
<g id="a_edge6_Node000003_Node000007"><a xlink:title=" ">
<path fill="none" stroke="#63b8ff" d="M240.5,-217.5C200.81,-207.58 143.22,-193.18 106.83,-184.08"/>
<polygon fill="#63b8ff" stroke="#63b8ff" points="239.89,-220.95 250.44,-219.98 241.59,-214.16 239.89,-220.95"/>
</a>
</g>
</g>
<!-- Node8 -->
<g id="Node000008" class="node">
<title>Node8</title>
<g id="a_Node000008"><a xlink:href="MapManager_8h.html" target="_top" xlink:title="Manages game maps, level generation, and procedural content.">
<polygon fill="white" stroke="#666666" points="331.5,-184 201.5,-184 201.5,-165 331.5,-165 331.5,-184"/>
<text text-anchor="middle" x="266.5" y="-172" font-family="Helvetica,sans-Serif" font-size="10.00">src/utils/MapManager.h</text>
</a>
</g>
</g>
<!-- Node3&#45;&gt;Node8 -->
<g id="edge7_Node000003_Node000008" class="edge">
<title>Node3&#45;&gt;Node8</title>
<g id="a_edge7_Node000003_Node000008"><a xlink:title=" ">
<path fill="none" stroke="#63b8ff" d="M278.3,-210.24C275.29,-201.37 271.81,-191.14 269.42,-184.09"/>
<polygon fill="#63b8ff" stroke="#63b8ff" points="275,-211.4 281.53,-219.75 281.63,-209.15 275,-211.4"/>
</a>
</g>
</g>
<!-- Node10 -->
<g id="Node000010" class="node">
<title>Node10</title>
<g id="a_Node000010"><a xlink:href="ConsoleRenderer_8h.html" target="_top" xlink:title="Renders game state, menus, and UI elements to the console.">
<polygon fill="white" stroke="#666666" points="391.5,-129 239.5,-129 239.5,-110 391.5,-110 391.5,-129"/>
<text text-anchor="middle" x="315.5" y="-117" font-family="Helvetica,sans-Serif" font-size="10.00">src/view/ConsoleRenderer.h</text>
</a>
</g>
</g>
<!-- Node3&#45;&gt;Node10 -->
<g id="edge13_Node000003_Node000010" class="edge">
<title>Node3&#45;&gt;Node10</title>
<g id="a_edge13_Node000003_Node000010"><a xlink:title=" ">
<path fill="none" stroke="#63b8ff" d="M311.04,-214.62C322.32,-207.18 334.28,-196.88 340.5,-184 349.67,-165.01 334,-141.73 323.6,-129.3"/>
<polygon fill="#63b8ff" stroke="#63b8ff" points="308.99,-211.77 302.27,-219.96 312.63,-217.75 308.99,-211.77"/>
</a>
</g>
</g>
<!-- Node5 -->
<g id="Node000005" class="node">
<title>Node5</title>
<g id="a_Node000005"><a xlink:href="GameController_8cpp.html" target="_top" xlink:title="Implementation of main game controller and game loop logic.">
<polygon fill="white" stroke="#666666" points="208.5,-19 28.5,-19 28.5,0 208.5,0 208.5,-19"/>
<text text-anchor="middle" x="118.5" y="-7" font-family="Helvetica,sans-Serif" font-size="10.00">src/controller/GameController.cpp</text>
</a>
</g>
</g>
<!-- Node4&#45;&gt;Node5 -->
<g id="edge4_Node000004_Node000005" class="edge">
<title>Node4&#45;&gt;Node5</title>
<g id="a_edge4_Node000004_Node000005"><a xlink:title=" ">
<path fill="none" stroke="#63b8ff" d="M172.47,-49.15C159.09,-39.57 141.94,-27.29 130.61,-19.17"/>
<polygon fill="#63b8ff" stroke="#63b8ff" points="170.44,-52.01 180.61,-54.98 174.52,-46.32 170.44,-52.01"/>
</a>
</g>
</g>
<!-- Node6 -->
<g id="Node000006" class="node">
<title>Node6</title>
<g id="a_Node000006"><a xlink:href="main_8cpp.html" target="_top" xlink:title="Main entry point for the Tank Simulator game.">
<polygon fill="white" stroke="#666666" points="306,-19 227,-19 227,0 306,0 306,-19"/>
<text text-anchor="middle" x="266.5" y="-7" font-family="Helvetica,sans-Serif" font-size="10.00">src/main.cpp</text>
</a>
</g>
</g>
<!-- Node4&#45;&gt;Node6 -->
<g id="edge5_Node000004_Node000006" class="edge">
<title>Node4&#45;&gt;Node6</title>
<g id="a_edge5_Node000004_Node000006"><a xlink:title=" ">
<path fill="none" stroke="#63b8ff" d="M212.53,-49.15C225.91,-39.57 243.06,-27.29 254.39,-19.17"/>
<polygon fill="#63b8ff" stroke="#63b8ff" points="210.48,-46.32 204.39,-54.98 214.56,-52.01 210.48,-46.32"/>
</a>
</g>
</g>
<!-- Node8&#45;&gt;Node4 -->
<g id="edge8_Node000008_Node000004" class="edge">
<title>Node8&#45;&gt;Node4</title>
<g id="a_edge8_Node000008_Node000004"><a xlink:title=" ">
<path fill="none" stroke="#63b8ff" d="M252.38,-157.18C245.49,-148.95 237.26,-138.67 230.5,-129 217.4,-110.25 204.15,-86.88 197.29,-74.37"/>
<polygon fill="#63b8ff" stroke="#63b8ff" points="249.81,-159.56 258.95,-164.92 255.14,-155.03 249.81,-159.56"/>
</a>
</g>
</g>
<!-- Node8&#45;&gt;Node9 -->
<g id="edge9_Node000008_Node000009" class="edge">
<title>Node8&#45;&gt;Node9</title>
<g id="a_edge9_Node000008_Node000009"><a xlink:title=" ">
<path fill="none" stroke="#63b8ff" d="M310.66,-162.56C350.74,-152.64 409.04,-138.2 445.85,-129.08"/>
<polygon fill="#63b8ff" stroke="#63b8ff" points="309.75,-159.18 300.88,-164.98 311.43,-165.98 309.75,-159.18"/>
</a>
</g>
</g>
<!-- Node8&#45;&gt;Node10 -->
<g id="edge10_Node000008_Node000010" class="edge">
<title>Node8&#45;&gt;Node10</title>
<g id="a_edge10_Node000008_Node000010"><a xlink:title=" ">
<path fill="none" stroke="#63b8ff" d="M281.53,-157.24C290.12,-147.95 300.54,-136.68 307.56,-129.09"/>
<polygon fill="#63b8ff" stroke="#63b8ff" points="278.81,-155.03 274.59,-164.75 283.95,-159.78 278.81,-155.03"/>
</a>
</g>
</g>
<!-- Node10&#45;&gt;Node4 -->
<g id="edge11_Node000010_Node000004" class="edge">
<title>Node10&#45;&gt;Node4</title>
<g id="a_edge11_Node000010_Node000004"><a xlink:title=" ">
<path fill="none" stroke="#63b8ff" d="M286.25,-105.9C263.53,-96.11 232.63,-82.79 212.62,-74.17"/>
<polygon fill="#63b8ff" stroke="#63b8ff" points="285.17,-109.24 295.74,-109.98 287.94,-102.81 285.17,-109.24"/>
</a>
</g>
</g>
<!-- Node11 -->
<g id="Node000011" class="node">
<title>Node11</title>
<g id="a_Node000011"><a xlink:href="ConsoleRenderer_8cpp.html" target="_top" xlink:title="Implementation of console&#45;based game rendering with ASCII/Unicode support.">
<polygon fill="white" stroke="#666666" points="458,-74 295,-74 295,-55 458,-55 458,-74"/>
<text text-anchor="middle" x="376.5" y="-62" font-family="Helvetica,sans-Serif" font-size="10.00">src/view/ConsoleRenderer.cpp</text>
</a>
</g>
</g>
<!-- Node10&#45;&gt;Node11 -->
<g id="edge12_Node000010_Node000011" class="edge">
<title>Node10&#45;&gt;Node11</title>
<g id="a_edge12_Node000010_Node000011"><a xlink:title=" ">
<path fill="none" stroke="#63b8ff" d="M332.97,-103.32C343.84,-93.87 357.44,-82.06 366.52,-74.17"/>
<polygon fill="#63b8ff" stroke="#63b8ff" points="330.55,-100.78 325.3,-109.98 335.15,-106.07 330.55,-100.78"/>
</a>
</g>
</g>
</g>
</svg>

<g id="navigator" transform="translate(0 0)" fill="#404254">
  <rect fill="#f2f5e9" fill-opacity="0.5" stroke="#606060" stroke-width=".5" x="0" y="0" width="60" height="60"/>
  <use id="zoomplus" xlink:href="#zoomPlus" x="17" y="9" onmousedown="handleZoom(evt,'in')"/>
  <use id="zoomminus" xlink:href="#zoomMin" x="42" y="9" onmousedown="handleZoom(evt,'out')"/>
  <use id="reset" xlink:href="#resetDef" x="30" y="36" onmousedown="handleReset()"/>
   <use id="arrowup" xlink:href="#arrowUp" x="0" y="0" onmousedown="handlePan(0,-1)"/>
  <use id="arrowright" xlink:href="#arrowRight" x="0" y="0" onmousedown="handlePan(1,0)"/>
  <use id="arrowdown" xlink:href="#arrowDown" x="0" y="0" onmousedown="handlePan(0,1)"/>
  <use id="arrowleft" xlink:href="#arrowLeft" x="0" y="0" onmousedown="handlePan(-1,0)"/>
</g>
<svg viewBox="0 0 15 15" width="100%" height="30px" preserveAspectRatio="xMaxYMin meet">
 <g id="arrow_out" transform="scale(0.3 0.3)">
  <a xlink:href="PlayerTank_8h__dep__incl_org.svg" target="_base">
   <rect id="button" ry="5" rx="5" y="6" x="6" height="38" width="38"
        fill="#f2f5e9" fill-opacity="0.5" stroke="#606060" stroke-width="1.0"/>
   <path id="arrow"
     d="M 11.500037,31.436501 C 11.940474,20.09759 22.043105,11.32322 32.158766,21.979434 L 37.068811,17.246167 C 37.068811,17.246167 37.088388,32 37.088388,32 L 22.160133,31.978069 C 22.160133,31.978069 26.997745,27.140456 26.997745,27.140456 C 18.528582,18.264221 13.291696,25.230495 11.500037,31.436501 z"
     style="fill:#404040;"/>
  </a>
 </g>
</svg>

<style type='text/css'>
<![CDATA[
[data-mouse-over-selected='false'] { opacity: 0.7; }
[data-mouse-over-selected='true']  { opacity: 1.0; }
]]>
</style>
<script type="application/ecmascript"><![CDATA[
document.addEventListener('DOMContentLoaded', (event) => {
  highlightEdges();
  highlightAdjacentNodes();
});
]]></script>
</svg>
