<?xml version="1.0" encoding="UTF-8" standalone="no"?>
<!DOCTYPE svg PUBLIC "-//W3C//DTD SVG 1.1//EN"
 "http://www.w3.org/Graphics/SVG/1.1/DTD/svg11.dtd">
<!-- Generated by graphviz version 2.43.0 (0)
 -->
<!-- Title: model/Bonus.h Pages: 1 -->
<svg width="714pt" height="412pt"
 viewBox="0.00 0.00 714.00 412.00" xmlns="http://www.w3.org/2000/svg" xmlns:xlink="http://www.w3.org/1999/xlink">
<g id="graph0" class="graph" transform="scale(1 1) rotate(0) translate(4 408)">
<title>model/Bonus.h</title>
<!-- Node1 -->
<g id="Node000001" class="node">
<title>Node1</title>
<g id="a_Node000001"><a xlink:title="Power&#45;up bonuses with various effects for enhancing player abilities.">
<polygon fill="#999999" stroke="#666666" points="374,-404 285,-404 285,-385 374,-385 374,-404"/>
<text text-anchor="middle" x="329.5" y="-392" font-family="Helvetica,sans-Serif" font-size="10.00">model/Bonus.h</text>
</a>
</g>
</g>
<!-- Node2 -->
<g id="Node000002" class="node">
<title>Node2</title>
<g id="a_Node000002"><a xlink:href="Bonus_8cpp.html" target="_top" xlink:title="Implementation of power&#45;up bonuses with various effects for player tank.">
<polygon fill="white" stroke="#666666" points="101,-239 0,-239 0,-220 101,-220 101,-239"/>
<text text-anchor="middle" x="50.5" y="-227" font-family="Helvetica,sans-Serif" font-size="10.00">model/Bonus.cpp</text>
</a>
</g>
</g>
<!-- Node1&#45;&gt;Node2 -->
<g id="edge1_Node000001_Node000002" class="edge">
<title>Node1&#45;&gt;Node2</title>
<g id="a_edge1_Node000001_Node000002"><a xlink:title=" ">
<path fill="none" stroke="#63b8ff" d="M274.45,-386.81C215.64,-376.78 123.62,-352.32 69.5,-294 55.1,-278.48 51.58,-252.47 50.75,-239.06"/>
<polygon fill="#63b8ff" stroke="#63b8ff" points="274.24,-390.32 284.67,-388.47 275.35,-383.41 274.24,-390.32"/>
</a>
</g>
</g>
<!-- Node3 -->
<g id="Node000003" class="node">
<title>Node3</title>
<g id="a_Node000003"><a xlink:href="GameWorld_8h.html" target="_top" xlink:title="Main game world manager handling objects, collisions, states, and game logic.">
<polygon fill="white" stroke="#666666" points="522.5,-239 406.5,-239 406.5,-220 522.5,-220 522.5,-239"/>
<text text-anchor="middle" x="464.5" y="-227" font-family="Helvetica,sans-Serif" font-size="10.00">model/GameWorld.h</text>
</a>
</g>
</g>
<!-- Node1&#45;&gt;Node3 -->
<g id="edge2_Node000001_Node000003" class="edge">
<title>Node1&#45;&gt;Node3</title>
<g id="a_edge2_Node000001_Node000003"><a xlink:title=" ">
<path fill="none" stroke="#63b8ff" d="M353.23,-379.45C379.83,-362.49 422.39,-331.52 446.5,-294 457.65,-276.65 462.02,-252.3 463.63,-239.38"/>
<polygon fill="#63b8ff" stroke="#63b8ff" points="351.19,-376.6 344.54,-384.85 354.88,-382.55 351.19,-376.6"/>
</a>
</g>
</g>
<!-- Node12 -->
<g id="Node000012" class="node">
<title>Node12</title>
<g id="a_Node000012"><a xlink:href="Tank_8h.html" target="_top" xlink:title="Abstract tank base class with shooting, bonuses, and combat mechanics.">
<polygon fill="white" stroke="#666666" points="370.5,-349 288.5,-349 288.5,-330 370.5,-330 370.5,-349"/>
<text text-anchor="middle" x="329.5" y="-337" font-family="Helvetica,sans-Serif" font-size="10.00">model/Tank.h</text>
</a>
</g>
</g>
<!-- Node1&#45;&gt;Node12 -->
<g id="edge14_Node000001_Node000012" class="edge">
<title>Node1&#45;&gt;Node12</title>
<g id="a_edge14_Node000001_Node000012"><a xlink:title=" ">
<path fill="none" stroke="#63b8ff" d="M329.5,-374.66C329.5,-365.93 329.5,-355.99 329.5,-349.09"/>
<polygon fill="#63b8ff" stroke="#63b8ff" points="326,-374.75 329.5,-384.75 333,-374.75 326,-374.75"/>
</a>
</g>
</g>
<!-- Node4 -->
<g id="Node000004" class="node">
<title>Node4</title>
<g id="a_Node000004"><a xlink:href="GameController_8h.html" target="_top" xlink:title="Central game controller coordinating model, view, and input systems.">
<polygon fill="white" stroke="#666666" points="679.5,-74 527.5,-74 527.5,-55 679.5,-55 679.5,-74"/>
<text text-anchor="middle" x="603.5" y="-62" font-family="Helvetica,sans-Serif" font-size="10.00">controller/GameController.h</text>
</a>
</g>
</g>
<!-- Node3&#45;&gt;Node4 -->
<g id="edge3_Node000003_Node000004" class="edge">
<title>Node3&#45;&gt;Node4</title>
<g id="a_edge3_Node000003_Node000004"><a xlink:title=" ">
<path fill="none" stroke="#63b8ff" d="M532.74,-225.65C562.5,-220.58 594.81,-209.09 613.5,-184 638.66,-150.22 617.37,-95.03 607.68,-74"/>
<polygon fill="#63b8ff" stroke="#63b8ff" points="532.14,-222.2 522.77,-227.13 533.17,-229.12 532.14,-222.2"/>
</a>
</g>
</g>
<!-- Node7 -->
<g id="Node000007" class="node">
<title>Node7</title>
<g id="a_Node000007"><a xlink:href="GameWorld_8cpp.html" target="_top" xlink:title="Core game simulation with object management, collisions, and level generation.">
<polygon fill="white" stroke="#666666" points="435.5,-184 307.5,-184 307.5,-165 435.5,-165 435.5,-184"/>
<text text-anchor="middle" x="371.5" y="-172" font-family="Helvetica,sans-Serif" font-size="10.00">model/GameWorld.cpp</text>
</a>
</g>
</g>
<!-- Node3&#45;&gt;Node7 -->
<g id="edge6_Node000003_Node000007" class="edge">
<title>Node3&#45;&gt;Node7</title>
<g id="a_edge6_Node000003_Node000007"><a xlink:title=" ">
<path fill="none" stroke="#63b8ff" d="M440.75,-214.97C423.75,-205.28 401.37,-192.52 386.71,-184.17"/>
<polygon fill="#63b8ff" stroke="#63b8ff" points="439.14,-218.07 449.56,-219.98 442.6,-211.99 439.14,-218.07"/>
</a>
</g>
</g>
<!-- Node8 -->
<g id="Node000008" class="node">
<title>Node8</title>
<g id="a_Node000008"><a xlink:href="MapManager_8h.html" target="_top" xlink:title="Manages game maps, level generation, and procedural content.">
<polygon fill="white" stroke="#666666" points="605,-184 492,-184 492,-165 605,-165 605,-184"/>
<text text-anchor="middle" x="548.5" y="-172" font-family="Helvetica,sans-Serif" font-size="10.00">utils/MapManager.h</text>
</a>
</g>
</g>
<!-- Node3&#45;&gt;Node8 -->
<g id="edge7_Node000003_Node000008" class="edge">
<title>Node3&#45;&gt;Node8</title>
<g id="a_edge7_Node000003_Node000008"><a xlink:title=" ">
<path fill="none" stroke="#63b8ff" d="M486.81,-214.42C502.05,-204.81 521.77,-192.37 534.76,-184.17"/>
<polygon fill="#63b8ff" stroke="#63b8ff" points="484.59,-211.69 478,-219.98 488.32,-217.61 484.59,-211.69"/>
</a>
</g>
</g>
<!-- Node10 -->
<g id="Node000010" class="node">
<title>Node10</title>
<g id="a_Node000010"><a xlink:href="ConsoleRenderer_8h.html" target="_top" xlink:title="Renders game state, menus, and UI elements to the console.">
<polygon fill="white" stroke="#666666" points="539.5,-129 405.5,-129 405.5,-110 539.5,-110 539.5,-129"/>
<text text-anchor="middle" x="472.5" y="-117" font-family="Helvetica,sans-Serif" font-size="10.00">view/ConsoleRenderer.h</text>
</a>
</g>
</g>
<!-- Node3&#45;&gt;Node10 -->
<g id="edge13_Node000003_Node000010" class="edge">
<title>Node3&#45;&gt;Node10</title>
<g id="a_edge13_Node000003_Node000010"><a xlink:title=" ">
<path fill="none" stroke="#63b8ff" d="M465.91,-209.48C467.66,-185.84 470.57,-146.5 471.86,-129.16"/>
<polygon fill="#63b8ff" stroke="#63b8ff" points="462.4,-209.43 465.15,-219.66 469.38,-209.95 462.4,-209.43"/>
</a>
</g>
</g>
<!-- Node5 -->
<g id="Node000005" class="node">
<title>Node5</title>
<g id="a_Node000005"><a xlink:href="GameController_8cpp.html" target="_top" xlink:title="Implementation of main game controller and game loop logic.">
<polygon fill="white" stroke="#666666" points="619,-19 456,-19 456,0 619,0 619,-19"/>
<text text-anchor="middle" x="537.5" y="-7" font-family="Helvetica,sans-Serif" font-size="10.00">controller/GameController.cpp</text>
</a>
</g>
</g>
<!-- Node4&#45;&gt;Node5 -->
<g id="edge4_Node000004_Node000005" class="edge">
<title>Node4&#45;&gt;Node5</title>
<g id="a_edge4_Node000004_Node000005"><a xlink:title=" ">
<path fill="none" stroke="#63b8ff" d="M584.95,-48.6C573.12,-39.11 558.21,-27.13 548.3,-19.17"/>
<polygon fill="#63b8ff" stroke="#63b8ff" points="582.91,-51.45 592.9,-54.98 587.29,-45.99 582.91,-51.45"/>
</a>
</g>
</g>
<!-- Node6 -->
<g id="Node000006" class="node">
<title>Node6</title>
<g id="a_Node000006"><a xlink:href="main_8cpp.html" target="_top" xlink:title="Main entry point for the Tank Simulator game.">
<polygon fill="white" stroke="#666666" points="699.5,-19 637.5,-19 637.5,0 699.5,0 699.5,-19"/>
<text text-anchor="middle" x="668.5" y="-7" font-family="Helvetica,sans-Serif" font-size="10.00">main.cpp</text>
</a>
</g>
</g>
<!-- Node4&#45;&gt;Node6 -->
<g id="edge5_Node000004_Node000006" class="edge">
<title>Node4&#45;&gt;Node6</title>
<g id="a_edge5_Node000004_Node000006"><a xlink:title=" ">
<path fill="none" stroke="#63b8ff" d="M621.77,-48.6C633.42,-39.11 648.1,-27.13 657.87,-19.17"/>
<polygon fill="#63b8ff" stroke="#63b8ff" points="619.48,-45.95 613.94,-54.98 623.91,-51.38 619.48,-45.95"/>
</a>
</g>
</g>
<!-- Node8&#45;&gt;Node4 -->
<g id="edge8_Node000008_Node000004" class="edge">
<title>Node8&#45;&gt;Node4</title>
<g id="a_edge8_Node000008_Node000004"><a xlink:title=" ">
<path fill="none" stroke="#63b8ff" d="M557.7,-155.44C569.67,-131.92 590.14,-91.73 599.09,-74.16"/>
<polygon fill="#63b8ff" stroke="#63b8ff" points="554.42,-154.16 553,-164.66 560.66,-157.34 554.42,-154.16"/>
</a>
</g>
</g>
<!-- Node9 -->
<g id="Node000009" class="node">
<title>Node9</title>
<g id="a_Node000009"><a xlink:href="MapManager_8cpp.html" target="_top" xlink:title="Implementation for loading, creating, and managing game maps.">
<polygon fill="white" stroke="#666666" points="369.5,-129 245.5,-129 245.5,-110 369.5,-110 369.5,-129"/>
<text text-anchor="middle" x="307.5" y="-117" font-family="Helvetica,sans-Serif" font-size="10.00">utils/MapManager.cpp</text>
</a>
</g>
</g>
<!-- Node8&#45;&gt;Node9 -->
<g id="edge9_Node000008_Node000009" class="edge">
<title>Node8&#45;&gt;Node9</title>
<g id="a_edge9_Node000008_Node000009"><a xlink:title=" ">
<path fill="none" stroke="#63b8ff" d="M499.92,-162.82C454.75,-152.88 388.33,-138.28 346.52,-129.08"/>
<polygon fill="#63b8ff" stroke="#63b8ff" points="499.26,-166.26 509.78,-164.98 500.76,-159.42 499.26,-166.26"/>
</a>
</g>
</g>
<!-- Node8&#45;&gt;Node10 -->
<g id="edge10_Node000008_Node000010" class="edge">
<title>Node8&#45;&gt;Node10</title>
<g id="a_edge10_Node000008_Node000010"><a xlink:title=" ">
<path fill="none" stroke="#63b8ff" d="M527.92,-159.15C514.19,-149.57 496.57,-137.29 484.93,-129.17"/>
<polygon fill="#63b8ff" stroke="#63b8ff" points="526.08,-162.14 536.29,-164.98 530.09,-156.39 526.08,-162.14"/>
</a>
</g>
</g>
<!-- Node10&#45;&gt;Node4 -->
<g id="edge11_Node000010_Node000004" class="edge">
<title>Node10&#45;&gt;Node4</title>
<g id="a_edge11_Node000010_Node000004"><a xlink:title=" ">
<path fill="none" stroke="#63b8ff" d="M503,-106.16C527.25,-96.35 560.57,-82.87 582.07,-74.17"/>
<polygon fill="#63b8ff" stroke="#63b8ff" points="501.5,-102.99 493.55,-109.98 504.13,-109.48 501.5,-102.99"/>
</a>
</g>
</g>
<!-- Node11 -->
<g id="Node000011" class="node">
<title>Node11</title>
<g id="a_Node000011"><a xlink:href="ConsoleRenderer_8cpp.html" target="_top" xlink:title="Implementation of console&#45;based game rendering with ASCII/Unicode support.">
<polygon fill="white" stroke="#666666" points="509.5,-74 363.5,-74 363.5,-55 509.5,-55 509.5,-74"/>
<text text-anchor="middle" x="436.5" y="-62" font-family="Helvetica,sans-Serif" font-size="10.00">view/ConsoleRenderer.cpp</text>
</a>
</g>
</g>
<!-- Node10&#45;&gt;Node11 -->
<g id="edge12_Node000010_Node000011" class="edge">
<title>Node10&#45;&gt;Node11</title>
<g id="a_edge12_Node000010_Node000011"><a xlink:title=" ">
<path fill="none" stroke="#63b8ff" d="M460.88,-101.39C454.68,-92.27 447.33,-81.45 442.33,-74.09"/>
<polygon fill="#63b8ff" stroke="#63b8ff" points="458.04,-103.44 466.56,-109.75 463.83,-99.51 458.04,-103.44"/>
</a>
</g>
</g>
<!-- Node13 -->
<g id="Node000013" class="node">
<title>Node13</title>
<g id="a_Node000013"><a xlink:href="EnemyTank_8h.html" target="_top" xlink:title="AI&#45;controlled enemy tanks with various behaviors, types, and difficulty levels.">
<polygon fill="white" stroke="#666666" points="610.5,-294 494.5,-294 494.5,-275 610.5,-275 610.5,-294"/>
<text text-anchor="middle" x="552.5" y="-282" font-family="Helvetica,sans-Serif" font-size="10.00">model/EnemyTank.h</text>
</a>
</g>
</g>
<!-- Node12&#45;&gt;Node13 -->
<g id="edge15_Node000012_Node000013" class="edge">
<title>Node12&#45;&gt;Node13</title>
<g id="a_edge15_Node000012_Node000013"><a xlink:title=" ">
<path fill="none" stroke="#63b8ff" d="M375.25,-327.63C417.02,-317.7 477.95,-303.22 516.39,-294.08"/>
<polygon fill="#63b8ff" stroke="#63b8ff" points="374.25,-324.27 365.33,-329.98 375.87,-331.08 374.25,-324.27"/>
</a>
</g>
</g>
<!-- Node15 -->
<g id="Node000015" class="node">
<title>Node15</title>
<g id="a_Node000015"><a xlink:href="PlayerTank_8h.html" target="_top" xlink:title="Player&#45;controlled tank with lives, score system, and special abilities.">
<polygon fill="white" stroke="#666666" points="192,-294 79,-294 79,-275 192,-275 192,-294"/>
<text text-anchor="middle" x="135.5" y="-282" font-family="Helvetica,sans-Serif" font-size="10.00">model/PlayerTank.h</text>
</a>
</g>
</g>
<!-- Node12&#45;&gt;Node15 -->
<g id="edge19_Node000012_Node000015" class="edge">
<title>Node12&#45;&gt;Node15</title>
<g id="a_edge19_Node000012_Node000015"><a xlink:title=" ">
<path fill="none" stroke="#63b8ff" d="M288.54,-327.31C252.24,-317.39 200,-303.12 166.91,-294.08"/>
<polygon fill="#63b8ff" stroke="#63b8ff" points="287.76,-330.73 298.33,-329.98 289.61,-323.97 287.76,-330.73"/>
</a>
</g>
</g>
<!-- Node17 -->
<g id="Node000017" class="node">
<title>Node17</title>
<g id="a_Node000017"><a xlink:href="Projectile_8cpp.html" target="_top" xlink:title="Implementation of projectile movement, collision detection, and damage calculation.">
<polygon fill="white" stroke="#666666" points="326.5,-294 210.5,-294 210.5,-275 326.5,-275 326.5,-294"/>
<text text-anchor="middle" x="268.5" y="-282" font-family="Helvetica,sans-Serif" font-size="10.00">model/Projectile.cpp</text>
</a>
</g>
</g>
<!-- Node12&#45;&gt;Node17 -->
<g id="edge24_Node000012_Node000017" class="edge">
<title>Node12&#45;&gt;Node17</title>
<g id="a_edge24_Node000012_Node000017"><a xlink:title=" ">
<path fill="none" stroke="#63b8ff" d="M312.03,-323.32C301.16,-313.87 287.56,-302.06 278.48,-294.17"/>
<polygon fill="#63b8ff" stroke="#63b8ff" points="309.85,-326.07 319.7,-329.98 314.45,-320.78 309.85,-326.07"/>
</a>
</g>
</g>
<!-- Node18 -->
<g id="Node000018" class="node">
<title>Node18</title>
<g id="a_Node000018"><a xlink:href="Tank_8cpp.html" target="_top" xlink:title="Implementation of tank mechanics including movement, firing, and bonus effects.">
<polygon fill="white" stroke="#666666" points="438,-294 345,-294 345,-275 438,-275 438,-294"/>
<text text-anchor="middle" x="391.5" y="-282" font-family="Helvetica,sans-Serif" font-size="10.00">model/Tank.cpp</text>
</a>
</g>
</g>
<!-- Node12&#45;&gt;Node18 -->
<g id="edge25_Node000012_Node000018" class="edge">
<title>Node12&#45;&gt;Node18</title>
<g id="a_edge25_Node000012_Node000018"><a xlink:title=" ">
<path fill="none" stroke="#63b8ff" d="M347.25,-323.32C358.31,-313.87 372.13,-302.06 381.36,-294.17"/>
<polygon fill="#63b8ff" stroke="#63b8ff" points="344.79,-320.83 339.46,-329.98 349.34,-326.15 344.79,-320.83"/>
</a>
</g>
</g>
<!-- Node13&#45;&gt;Node3 -->
<g id="edge17_Node000013_Node000003" class="edge">
<title>Node13&#45;&gt;Node3</title>
<g id="a_edge17_Node000013_Node000003"><a xlink:title=" ">
<path fill="none" stroke="#63b8ff" d="M529.58,-269.7C513.55,-260.04 492.63,-247.44 478.9,-239.17"/>
<polygon fill="#63b8ff" stroke="#63b8ff" points="527.99,-272.82 538.36,-274.98 531.6,-266.83 527.99,-272.82"/>
</a>
</g>
</g>
<!-- Node13&#45;&gt;Node8 -->
<g id="edge18_Node000013_Node000008" class="edge">
<title>Node13&#45;&gt;Node8</title>
<g id="a_edge18_Node000013_Node000008"><a xlink:title=" ">
<path fill="none" stroke="#63b8ff" d="M551.8,-264.48C550.92,-240.84 549.46,-201.5 548.82,-184.16"/>
<polygon fill="#63b8ff" stroke="#63b8ff" points="548.3,-264.8 552.17,-274.66 555.3,-264.54 548.3,-264.8"/>
</a>
</g>
</g>
<!-- Node14 -->
<g id="Node000014" class="node">
<title>Node14</title>
<g id="a_Node000014"><a xlink:href="EnemyTank_8cpp.html" target="_top" xlink:title="Implementation of enemy tank AI behaviors, movement patterns, and combat logic.">
<polygon fill="white" stroke="#666666" points="706,-239 579,-239 579,-220 706,-220 706,-239"/>
<text text-anchor="middle" x="642.5" y="-227" font-family="Helvetica,sans-Serif" font-size="10.00">model/EnemyTank.cpp</text>
</a>
</g>
</g>
<!-- Node13&#45;&gt;Node14 -->
<g id="edge16_Node000013_Node000014" class="edge">
<title>Node13&#45;&gt;Node14</title>
<g id="a_edge16_Node000013_Node000014"><a xlink:title=" ">
<path fill="none" stroke="#63b8ff" d="M575.94,-269.7C592.34,-260.04 613.73,-247.44 627.78,-239.17"/>
<polygon fill="#63b8ff" stroke="#63b8ff" points="573.8,-266.89 566.96,-274.98 577.35,-272.93 573.8,-266.89"/>
</a>
</g>
</g>
<!-- Node15&#45;&gt;Node2 -->
<g id="edge20_Node000015_Node000002" class="edge">
<title>Node15&#45;&gt;Node2</title>
<g id="a_edge20_Node000015_Node000002"><a xlink:title=" ">
<path fill="none" stroke="#63b8ff" d="M112.93,-269.42C97.5,-259.81 77.55,-247.37 64.41,-239.17"/>
<polygon fill="#63b8ff" stroke="#63b8ff" points="111.51,-272.66 121.84,-274.98 115.21,-266.72 111.51,-272.66"/>
</a>
</g>
</g>
<!-- Node15&#45;&gt;Node3 -->
<g id="edge21_Node000015_Node000003" class="edge">
<title>Node15&#45;&gt;Node3</title>
<g id="a_edge21_Node000015_Node000003"><a xlink:title=" ">
<path fill="none" stroke="#63b8ff" d="M198.37,-273.37C260.15,-263.42 353.37,-248.4 411.5,-239.04"/>
<polygon fill="#63b8ff" stroke="#63b8ff" points="197.68,-269.94 188.36,-274.98 198.79,-276.85 197.68,-269.94"/>
</a>
</g>
</g>
<!-- Node15&#45;&gt;Node9 -->
<g id="edge23_Node000015_Node000009" class="edge">
<title>Node15&#45;&gt;Node9</title>
<g id="a_edge23_Node000015_Node000009"><a xlink:title=" ">
<path fill="none" stroke="#63b8ff" d="M190.4,-272.11C211.83,-265.41 235.33,-254.99 252.5,-239 286.36,-207.47 301.18,-150.94 305.81,-129.28"/>
<polygon fill="#63b8ff" stroke="#63b8ff" points="189.34,-268.77 180.73,-274.93 191.31,-275.49 189.34,-268.77"/>
</a>
</g>
</g>
<!-- Node16 -->
<g id="Node000016" class="node">
<title>Node16</title>
<g id="a_Node000016"><a xlink:href="PlayerTank_8cpp.html" target="_top" xlink:title="Implementation of player&#45;controlled tank with lives, score, and bonus management.">
<polygon fill="white" stroke="#666666" points="243.5,-239 119.5,-239 119.5,-220 243.5,-220 243.5,-239"/>
<text text-anchor="middle" x="181.5" y="-227" font-family="Helvetica,sans-Serif" font-size="10.00">model/PlayerTank.cpp</text>
</a>
</g>
</g>
<!-- Node15&#45;&gt;Node16 -->
<g id="edge22_Node000015_Node000016" class="edge">
<title>Node15&#45;&gt;Node16</title>
<g id="a_edge22_Node000015_Node000016"><a xlink:title=" ">
<path fill="none" stroke="#63b8ff" d="M149.86,-266.96C157.87,-257.72 167.53,-246.6 174.05,-239.09"/>
<polygon fill="#63b8ff" stroke="#63b8ff" points="147.01,-264.9 143.1,-274.75 152.29,-269.49 147.01,-264.9"/>
</a>
</g>
</g>
</g>
</svg>
