<?xml version="1.0" encoding="UTF-8" standalone="no"?>
<!DOCTYPE svg PUBLIC "-//W3C//DTD SVG 1.1//EN"
 "http://www.w3.org/Graphics/SVG/1.1/DTD/svg11.dtd">
<!-- Generated by graphviz version 2.43.0 (0)
 -->
<!-- Title: GameController::handleTerminalResize Pages: 1 -->
<svg width="855pt" height="226pt"
 viewBox="0.00 0.00 855.00 226.00" xmlns="http://www.w3.org/2000/svg" xmlns:xlink="http://www.w3.org/1999/xlink">
<g id="graph0" class="graph" transform="scale(1 1) rotate(0) translate(4 222)">
<title>GameController::handleTerminalResize</title>
<!-- Node1 -->
<g id="Node000001" class="node">
<title>Node1</title>
<g id="a_Node000001"><a xlink:title="Handles terminal resize events.">
<polygon fill="#999999" stroke="#666666" points="175,-120.5 0,-120.5 0,-90.5 175,-90.5 175,-120.5"/>
<text text-anchor="start" x="8" y="-108.5" font-family="Helvetica,sans-Serif" font-size="10.00">GameController::handleTerminal</text>
<text text-anchor="middle" x="87.5" y="-97.5" font-family="Helvetica,sans-Serif" font-size="10.00">Resize</text>
</a>
</g>
</g>
<!-- Node2 -->
<g id="Node000002" class="node">
<title>Node2</title>
<g id="a_Node000002"><a xlink:href="classConsoleRenderer.html#a9576db66ee7dc8d9fdec36f0181b9a12" target="_top" xlink:title="Checks if terminal size meets requirements.">
<polygon fill="white" stroke="#666666" points="408,-218 211,-218 211,-199 408,-199 408,-218"/>
<text text-anchor="middle" x="309.5" y="-206" font-family="Helvetica,sans-Serif" font-size="10.00">ConsoleRenderer::checkTerminalSize</text>
</a>
</g>
</g>
<!-- Node1&#45;&gt;Node2 -->
<g id="edge1_Node000001_Node000002" class="edge">
<title>Node1&#45;&gt;Node2</title>
<g id="a_edge1_Node000001_Node000002"><a xlink:title=" ">
<path fill="none" stroke="#63b8ff" d="M107.72,-120.8C130.92,-138.56 171.73,-167.57 211,-184.5 222.07,-189.27 234.27,-193.22 246.18,-196.43"/>
<polygon fill="#63b8ff" stroke="#63b8ff" points="245.54,-199.88 256.1,-198.97 247.27,-193.1 245.54,-199.88"/>
</a>
</g>
</g>
<!-- Node5 -->
<g id="Node000005" class="node">
<title>Node5</title>
<g id="a_Node000005"><a xlink:href="classConsoleRenderer.html#a041e99f6c0427c254b0349b57fbe2a84" target="_top" xlink:title="Clears the terminal screen.">
<polygon fill="white" stroke="#666666" points="626.5,-180 463.5,-180 463.5,-161 626.5,-161 626.5,-180"/>
<text text-anchor="middle" x="545" y="-168" font-family="Helvetica,sans-Serif" font-size="10.00">ConsoleRenderer::clearScreen</text>
</a>
</g>
</g>
<!-- Node1&#45;&gt;Node5 -->
<g id="edge4_Node000001_Node000005" class="edge">
<title>Node1&#45;&gt;Node5</title>
<g id="a_edge4_Node000001_Node000005"><a xlink:title=" ">
<path fill="none" stroke="#63b8ff" d="M120.45,-120.55C144.72,-131.22 179.22,-144.79 211,-151.5 291.7,-168.54 385.69,-172.5 453.19,-172.66"/>
<polygon fill="#63b8ff" stroke="#63b8ff" points="453.38,-176.16 463.37,-172.66 453.37,-169.16 453.38,-176.16"/>
</a>
</g>
</g>
<!-- Node7 -->
<g id="Node000007" class="node">
<title>Node7</title>
<g id="a_Node000007"><a xlink:href="classConsoleRenderer.html#af59760cefd8647cf4b6fe34774cac2c1" target="_top" xlink:title="Draws an error message about terminal size.">
<polygon fill="white" stroke="#666666" points="386,-142.5 233,-142.5 233,-112.5 386,-112.5 386,-142.5"/>
<text text-anchor="start" x="241" y="-130.5" font-family="Helvetica,sans-Serif" font-size="10.00">ConsoleRenderer::drawError</text>
<text text-anchor="middle" x="309.5" y="-119.5" font-family="Helvetica,sans-Serif" font-size="10.00">Message</text>
</a>
</g>
</g>
<!-- Node1&#45;&gt;Node7 -->
<g id="edge6_Node000001_Node000007" class="edge">
<title>Node1&#45;&gt;Node7</title>
<g id="a_edge6_Node000001_Node000007"><a xlink:title=" ">
<path fill="none" stroke="#63b8ff" d="M175.13,-114.16C190.82,-115.73 207.16,-117.37 222.82,-118.93"/>
<polygon fill="#63b8ff" stroke="#63b8ff" points="222.7,-122.44 232.99,-119.95 223.39,-115.47 222.7,-122.44"/>
</a>
</g>
</g>
<!-- Node9 -->
<g id="Node000009" class="node">
<title>Node9</title>
<g id="a_Node000009"><a xlink:href="classPlatformUtils.html#ab1da035f72ad2772a6ec8fbc4b34560a" target="_top" xlink:title="Checks if a key has been pressed.">
<polygon fill="white" stroke="#666666" points="601,-75 489,-75 489,-56 601,-56 601,-75"/>
<text text-anchor="middle" x="545" y="-63" font-family="Helvetica,sans-Serif" font-size="10.00">PlatformUtils::kbhit</text>
</a>
</g>
</g>
<!-- Node1&#45;&gt;Node9 -->
<g id="edge9_Node000001_Node000009" class="edge">
<title>Node1&#45;&gt;Node9</title>
<g id="a_edge9_Node000001_Node000009"><a xlink:title=" ">
<path fill="none" stroke="#63b8ff" d="M175.25,-97.88C263.56,-90.13 398.51,-78.28 478.33,-71.27"/>
<polygon fill="#63b8ff" stroke="#63b8ff" points="479.08,-74.71 488.74,-70.35 478.47,-67.74 479.08,-74.71"/>
</a>
</g>
</g>
<!-- Node10 -->
<g id="Node000010" class="node">
<title>Node10</title>
<g id="a_Node000010"><a xlink:href="classPlatformUtils.html#a4f63e74483ea78a709c332539f45ac27" target="_top" xlink:title="Reads a single UTF&#45;8 character from input.">
<polygon fill="white" stroke="#666666" points="388,-56 231,-56 231,-37 388,-37 388,-56"/>
<text text-anchor="middle" x="309.5" y="-44" font-family="Helvetica,sans-Serif" font-size="10.00">PlatformUtils::readUTF8Char</text>
</a>
</g>
</g>
<!-- Node1&#45;&gt;Node10 -->
<g id="edge10_Node000001_Node000010" class="edge">
<title>Node1&#45;&gt;Node10</title>
<g id="a_edge10_Node000001_Node000010"><a xlink:title=" ">
<path fill="none" stroke="#63b8ff" d="M139.64,-90.43C161.56,-84.09 187.49,-76.75 211,-70.5 226.34,-66.42 243.1,-62.21 258.33,-58.47"/>
<polygon fill="#63b8ff" stroke="#63b8ff" points="259.21,-61.86 268.09,-56.09 257.55,-55.06 259.21,-61.86"/>
</a>
</g>
</g>
<!-- Node11 -->
<g id="Node000011" class="node">
<title>Node11</title>
<g id="a_Node000011"><a xlink:href="classPlatformUtils.html#abf6e891ecb5147fa3d8583b651642d91" target="_top" xlink:title="Pauses execution for specified milliseconds.">
<polygon fill="white" stroke="#666666" points="366,-19 253,-19 253,0 366,0 366,-19"/>
<text text-anchor="middle" x="309.5" y="-7" font-family="Helvetica,sans-Serif" font-size="10.00">PlatformUtils::sleep</text>
</a>
</g>
</g>
<!-- Node1&#45;&gt;Node11 -->
<g id="edge12_Node000001_Node000011" class="edge">
<title>Node1&#45;&gt;Node11</title>
<g id="a_edge12_Node000001_Node000011"><a xlink:title=" ">
<path fill="none" stroke="#63b8ff" d="M107.18,-90.32C130.18,-72.44 171.11,-43.19 211,-27.5 221.06,-23.54 232.04,-20.45 242.9,-18.02"/>
<polygon fill="#63b8ff" stroke="#63b8ff" points="243.72,-21.43 252.81,-15.98 242.31,-14.57 243.72,-21.43"/>
</a>
</g>
</g>
<!-- Node3 -->
<g id="Node000003" class="node">
<title>Node3</title>
<g id="a_Node000003"><a xlink:href="classConsoleRenderer.html#aae418386985b5ad1286af9cb8a7726c9" target="_top" xlink:title="Updates terminal size information.">
<polygon fill="white" stroke="#666666" points="646,-218 444,-218 444,-199 646,-199 646,-218"/>
<text text-anchor="middle" x="545" y="-206" font-family="Helvetica,sans-Serif" font-size="10.00">ConsoleRenderer::updateTerminalSize</text>
</a>
</g>
</g>
<!-- Node2&#45;&gt;Node3 -->
<g id="edge2_Node000002_Node000003" class="edge">
<title>Node2&#45;&gt;Node3</title>
<g id="a_edge2_Node000002_Node000003"><a xlink:title=" ">
<path fill="none" stroke="#63b8ff" d="M408.17,-208.5C416.52,-208.5 425.01,-208.5 433.45,-208.5"/>
<polygon fill="#63b8ff" stroke="#63b8ff" points="433.72,-212 443.72,-208.5 433.72,-205 433.72,-212"/>
</a>
</g>
</g>
<!-- Node4 -->
<g id="Node000004" class="node">
<title>Node4</title>
<g id="a_Node000004"><a xlink:href="classPlatformUtils.html#a9fb2159f36325087d8c93e7937d6da0b" target="_top" xlink:title="Gets current terminal dimensions.">
<polygon fill="white" stroke="#666666" points="847,-218 682,-218 682,-199 847,-199 847,-218"/>
<text text-anchor="middle" x="764.5" y="-206" font-family="Helvetica,sans-Serif" font-size="10.00">PlatformUtils::getTerminalSize</text>
</a>
</g>
</g>
<!-- Node3&#45;&gt;Node4 -->
<g id="edge3_Node000003_Node000004" class="edge">
<title>Node3&#45;&gt;Node4</title>
<g id="a_edge3_Node000003_Node000004"><a xlink:title=" ">
<path fill="none" stroke="#63b8ff" d="M646.16,-208.5C654.64,-208.5 663.19,-208.5 671.6,-208.5"/>
<polygon fill="#63b8ff" stroke="#63b8ff" points="671.78,-212 681.78,-208.5 671.78,-205 671.78,-212"/>
</a>
</g>
</g>
<!-- Node6 -->
<g id="Node000006" class="node">
<title>Node6</title>
<g id="a_Node000006"><a xlink:href="classPlatformUtils.html#acddd420e3f04cd70a8932b5472fce01d" target="_top" xlink:title="Clears the terminal screen.">
<polygon fill="white" stroke="#666666" points="836.5,-180 692.5,-180 692.5,-161 836.5,-161 836.5,-180"/>
<text text-anchor="middle" x="764.5" y="-168" font-family="Helvetica,sans-Serif" font-size="10.00">PlatformUtils::clearScreen</text>
</a>
</g>
</g>
<!-- Node5&#45;&gt;Node6 -->
<g id="edge5_Node000005_Node000006" class="edge">
<title>Node5&#45;&gt;Node6</title>
<g id="a_edge5_Node000005_Node000006"><a xlink:title=" ">
<path fill="none" stroke="#63b8ff" d="M626.68,-170.5C644.75,-170.5 663.94,-170.5 682.04,-170.5"/>
<polygon fill="#63b8ff" stroke="#63b8ff" points="682.26,-174 692.26,-170.5 682.26,-167 682.26,-174"/>
</a>
</g>
</g>
<!-- Node7&#45;&gt;Node5 -->
<g id="edge8_Node000007_Node000005" class="edge">
<title>Node7&#45;&gt;Node5</title>
<g id="a_edge8_Node000007_Node000005"><a xlink:title=" ">
<path fill="none" stroke="#63b8ff" d="M386.31,-141.46C417.28,-147.16 452.65,-153.68 482.04,-159.09"/>
<polygon fill="#63b8ff" stroke="#63b8ff" points="481.7,-162.59 492.17,-160.95 482.96,-155.7 481.7,-162.59"/>
</a>
</g>
</g>
<!-- Node8 -->
<g id="Node000008" class="node">
<title>Node8</title>
<g id="a_Node000008"><a xlink:href="classConsoleRenderer.html#a209136c99544bd8fa46cc9860cedab1c" target="_top" xlink:title="Calculates horizontal offset to center content based on terminal width.">
<polygon fill="white" stroke="#666666" points="620,-142.5 470,-142.5 470,-112.5 620,-112.5 620,-142.5"/>
<text text-anchor="start" x="478" y="-130.5" font-family="Helvetica,sans-Serif" font-size="10.00">ConsoleRenderer::calculate</text>
<text text-anchor="middle" x="545" y="-119.5" font-family="Helvetica,sans-Serif" font-size="10.00">HorizontalOffset</text>
</a>
</g>
</g>
<!-- Node7&#45;&gt;Node8 -->
<g id="edge7_Node000007_Node000008" class="edge">
<title>Node7&#45;&gt;Node8</title>
<g id="a_edge7_Node000007_Node000008"><a xlink:title=" ">
<path fill="none" stroke="#63b8ff" d="M386.31,-127.5C409.73,-127.5 435.67,-127.5 459.63,-127.5"/>
<polygon fill="#63b8ff" stroke="#63b8ff" points="459.76,-131 469.76,-127.5 459.76,-124 459.76,-131"/>
</a>
</g>
</g>
<!-- Node10&#45;&gt;Node9 -->
<g id="edge11_Node000010_Node000009" class="edge">
<title>Node10&#45;&gt;Node9</title>
<g id="a_edge11_Node000010_Node000009"><a xlink:title=" ">
<path fill="none" stroke="#63b8ff" d="M388.25,-52.83C417.55,-55.21 450.56,-57.9 478.62,-60.18"/>
<polygon fill="#63b8ff" stroke="#63b8ff" points="478.47,-63.68 488.72,-61 479.04,-56.7 478.47,-63.68"/>
</a>
</g>
</g>
</g>
</svg>
