<?xml version="1.0" encoding="UTF-8" standalone="no"?>
<!DOCTYPE svg PUBLIC "-//W3C//DTD SVG 1.1//EN"
 "http://www.w3.org/Graphics/SVG/1.1/DTD/svg11.dtd">
<!-- Generated by graphviz version 2.43.0 (0)
 -->
<!-- Title: PlatformUtils::checkUnicodeSupport Pages: 1 -->
<svg width="738pt" height="38pt"
 viewBox="0.00 0.00 738.00 38.00" xmlns="http://www.w3.org/2000/svg" xmlns:xlink="http://www.w3.org/1999/xlink">
<g id="graph0" class="graph" transform="scale(1 1) rotate(0) translate(4 34)">
<title>PlatformUtils::checkUnicodeSupport</title>
<!-- Node1 -->
<g id="Node000001" class="node">
<title>Node1</title>
<g id="a_Node000001"><a xlink:title="Checks and reports Unicode support status.">
<polygon fill="#999999" stroke="#666666" points="730,-30 575,-30 575,0 730,0 730,-30"/>
<text text-anchor="start" x="583" y="-18" font-family="Helvetica,sans-Serif" font-size="10.00">PlatformUtils::checkUnicode</text>
<text text-anchor="middle" x="652.5" y="-7" font-family="Helvetica,sans-Serif" font-size="10.00">Support</text>
</a>
</g>
</g>
<!-- Node2 -->
<g id="Node000002" class="node">
<title>Node2</title>
<g id="a_Node000002"><a xlink:href="classSettingsManager.html#a9eb3e4c128197920e5d078728dba654c" target="_top" xlink:title="Sets default settings if configuration file doesn&#39;t exist.">
<polygon fill="white" stroke="#666666" points="539,-30 383,-30 383,0 539,0 539,-30"/>
<text text-anchor="start" x="391" y="-18" font-family="Helvetica,sans-Serif" font-size="10.00">SettingsManager::setDefault</text>
<text text-anchor="middle" x="461" y="-7" font-family="Helvetica,sans-Serif" font-size="10.00">Settings</text>
</a>
</g>
</g>
<!-- Node1&#45;&gt;Node2 -->
<g id="edge1_Node000001_Node000002" class="edge">
<title>Node1&#45;&gt;Node2</title>
<g id="a_edge1_Node000001_Node000002"><a xlink:title=" ">
<path fill="none" stroke="#63b8ff" d="M564.93,-15C556.32,-15 547.62,-15 539.12,-15"/>
<polygon fill="#63b8ff" stroke="#63b8ff" points="564.97,-18.5 574.97,-15 564.97,-11.5 564.97,-18.5"/>
</a>
</g>
</g>
<!-- Node3 -->
<g id="Node000003" class="node">
<title>Node3</title>
<g id="a_Node000003"><a xlink:href="classSettingsManager.html#ac666cd35e1136facad31de99a6c44bd3" target="_top" xlink:title="Loads settings from configuration file.">
<polygon fill="white" stroke="#666666" points="347,-24.5 181,-24.5 181,-5.5 347,-5.5 347,-24.5"/>
<text text-anchor="middle" x="264" y="-12.5" font-family="Helvetica,sans-Serif" font-size="10.00">SettingsManager::loadSettings</text>
</a>
</g>
</g>
<!-- Node2&#45;&gt;Node3 -->
<g id="edge2_Node000002_Node000003" class="edge">
<title>Node2&#45;&gt;Node3</title>
<g id="a_edge2_Node000002_Node000003"><a xlink:title=" ">
<path fill="none" stroke="#63b8ff" d="M372.69,-15C364.24,-15 355.68,-15 347.28,-15"/>
<polygon fill="#63b8ff" stroke="#63b8ff" points="372.93,-18.5 382.93,-15 372.93,-11.5 372.93,-18.5"/>
</a>
</g>
</g>
<!-- Node4 -->
<g id="Node000004" class="node">
<title>Node4</title>
<g id="a_Node000004"><a xlink:href="classSettingsManager.html#a07295ed235508bb4dcd0e7a040ef01db" target="_top" xlink:title="Constructs a SettingsManager object.">
<polygon fill="white" stroke="#666666" points="145,-30 0,-30 0,0 145,0 145,-30"/>
<text text-anchor="start" x="8" y="-18" font-family="Helvetica,sans-Serif" font-size="10.00">SettingsManager::Settings</text>
<text text-anchor="middle" x="72.5" y="-7" font-family="Helvetica,sans-Serif" font-size="10.00">Manager</text>
</a>
</g>
</g>
<!-- Node3&#45;&gt;Node4 -->
<g id="edge3_Node000003_Node000004" class="edge">
<title>Node3&#45;&gt;Node4</title>
<g id="a_edge3_Node000003_Node000004"><a xlink:title=" ">
<path fill="none" stroke="#63b8ff" d="M170.89,-15C162.27,-15 153.62,-15 145.23,-15"/>
<polygon fill="#63b8ff" stroke="#63b8ff" points="170.98,-18.5 180.98,-15 170.98,-11.5 170.98,-18.5"/>
</a>
</g>
</g>
</g>
</svg>
