<?xml version="1.0" encoding="UTF-8" standalone="no"?>
<!DOCTYPE svg PUBLIC "-//W3C//DTD SVG 1.1//EN"
 "http://www.w3.org/Graphics/SVG/1.1/DTD/svg11.dtd">
<!-- Generated by graphviz version 2.43.0 (0)
 -->
<!-- Title: ConsoleRenderer::ConsoleRenderer Pages: 1 -->
<svg width="592pt" height="38pt"
 viewBox="0.00 0.00 592.00 38.00" xmlns="http://www.w3.org/2000/svg" xmlns:xlink="http://www.w3.org/1999/xlink">
<g id="graph0" class="graph" transform="scale(1 1) rotate(0) translate(4 34)">
<title>ConsoleRenderer::ConsoleRenderer</title>
<!-- Node1 -->
<g id="Node000001" class="node">
<title>Node1</title>
<g id="a_Node000001"><a xlink:title="Constructs a ConsoleRenderer object.">
<polygon fill="#999999" stroke="#666666" points="145,-30 0,-30 0,0 145,0 145,-30"/>
<text text-anchor="start" x="8" y="-18" font-family="Helvetica,sans-Serif" font-size="10.00">ConsoleRenderer::Console</text>
<text text-anchor="middle" x="72.5" y="-7" font-family="Helvetica,sans-Serif" font-size="10.00">Renderer</text>
</a>
</g>
</g>
<!-- Node2 -->
<g id="Node000002" class="node">
<title>Node2</title>
<g id="a_Node000002"><a xlink:href="classConsoleRenderer.html#aae418386985b5ad1286af9cb8a7726c9" target="_top" xlink:title="Updates terminal size information.">
<polygon fill="white" stroke="#666666" points="383,-24.5 181,-24.5 181,-5.5 383,-5.5 383,-24.5"/>
<text text-anchor="middle" x="282" y="-12.5" font-family="Helvetica,sans-Serif" font-size="10.00">ConsoleRenderer::updateTerminalSize</text>
</a>
</g>
</g>
<!-- Node1&#45;&gt;Node2 -->
<g id="edge1_Node000001_Node000002" class="edge">
<title>Node1&#45;&gt;Node2</title>
<g id="a_edge1_Node000001_Node000002"><a xlink:title=" ">
<path fill="none" stroke="#63b8ff" d="M145.2,-15C153.45,-15 162,-15 170.61,-15"/>
<polygon fill="#63b8ff" stroke="#63b8ff" points="170.74,-18.5 180.74,-15 170.74,-11.5 170.74,-18.5"/>
</a>
</g>
</g>
<!-- Node3 -->
<g id="Node000003" class="node">
<title>Node3</title>
<g id="a_Node000003"><a xlink:href="classPlatformUtils.html#a9fb2159f36325087d8c93e7937d6da0b" target="_top" xlink:title="Gets current terminal dimensions.">
<polygon fill="white" stroke="#666666" points="584,-24.5 419,-24.5 419,-5.5 584,-5.5 584,-24.5"/>
<text text-anchor="middle" x="501.5" y="-12.5" font-family="Helvetica,sans-Serif" font-size="10.00">PlatformUtils::getTerminalSize</text>
</a>
</g>
</g>
<!-- Node2&#45;&gt;Node3 -->
<g id="edge2_Node000002_Node000003" class="edge">
<title>Node2&#45;&gt;Node3</title>
<g id="a_edge2_Node000002_Node000003"><a xlink:title=" ">
<path fill="none" stroke="#63b8ff" d="M383.16,-15C391.64,-15 400.19,-15 408.6,-15"/>
<polygon fill="#63b8ff" stroke="#63b8ff" points="408.78,-18.5 418.78,-15 408.78,-11.5 408.78,-18.5"/>
</a>
</g>
</g>
</g>
</svg>
