<?xml version="1.0" encoding="UTF-8" standalone="no"?>
<!DOCTYPE svg PUBLIC "-//W3C//DTD SVG 1.1//EN"
 "http://www.w3.org/Graphics/SVG/1.1/DTD/svg11.dtd">
<!-- Generated by graphviz version 2.43.0 (0)
 -->
<!-- Title: PlatformUtils::supportsUnicode Pages: 1 -->
<svg width="1881pt" height="160pt"
 viewBox="0.00 0.00 1881.00 160.14" xmlns="http://www.w3.org/2000/svg" xmlns:xlink="http://www.w3.org/1999/xlink">
<g id="graph0" class="graph" transform="scale(1 1) rotate(0) translate(4 156.14)">
<title>PlatformUtils::supportsUnicode</title>
<!-- Node1 -->
<g id="Node000001" class="node">
<title>Node1</title>
<g id="a_Node000001"><a xlink:title="Checks if terminal supports Unicode.">
<polygon fill="#999999" stroke="#666666" points="1873,-93.14 1704,-93.14 1704,-74.14 1873,-74.14 1873,-93.14"/>
<text text-anchor="middle" x="1788.5" y="-81.14" font-family="Helvetica,sans-Serif" font-size="10.00">PlatformUtils::supportsUnicode</text>
</a>
</g>
</g>
<!-- Node2 -->
<g id="Node000002" class="node">
<title>Node2</title>
<g id="a_Node000002"><a xlink:href="classConsoleRenderer.html#ab6e419a1d0f420decceba8e545890318" target="_top" xlink:title="Draws map preview for selection screen.">
<polygon fill="white" stroke="#666666" points="1660,-34.64 1509,-34.64 1509,-4.64 1660,-4.64 1660,-34.64"/>
<text text-anchor="start" x="1517" y="-22.64" font-family="Helvetica,sans-Serif" font-size="10.00">ConsoleRenderer::drawMap</text>
<text text-anchor="middle" x="1584.5" y="-11.64" font-family="Helvetica,sans-Serif" font-size="10.00">Preview</text>
</a>
</g>
</g>
<!-- Node1&#45;&gt;Node2 -->
<g id="edge1_Node000001_Node000002" class="edge">
<title>Node1&#45;&gt;Node2</title>
<g id="a_edge1_Node000001_Node000002"><a xlink:title=" ">
<path fill="none" stroke="#63b8ff" d="M1747.5,-70.97C1714.53,-60.53 1667.7,-45.69 1632.86,-34.65"/>
<polygon fill="#63b8ff" stroke="#63b8ff" points="1746.67,-74.38 1757.26,-74.06 1748.78,-67.71 1746.67,-74.38"/>
</a>
</g>
</g>
<!-- Node12 -->
<g id="Node000012" class="node">
<title>Node12</title>
<g id="a_Node000012"><a xlink:href="classConsoleRenderer.html#ae0a5ec8d9b0ab1252c3a8a9eae7bceaa" target="_top" xlink:title="Draws symbol legend explaining game symbols.">
<polygon fill="white" stroke="#666666" points="1668,-120.64 1501,-120.64 1501,-90.64 1668,-90.64 1668,-120.64"/>
<text text-anchor="start" x="1509" y="-108.64" font-family="Helvetica,sans-Serif" font-size="10.00">ConsoleRenderer::drawSymbol</text>
<text text-anchor="middle" x="1584.5" y="-97.64" font-family="Helvetica,sans-Serif" font-size="10.00">Legend</text>
</a>
</g>
</g>
<!-- Node1&#45;&gt;Node12 -->
<g id="edge16_Node000001_Node000012" class="edge">
<title>Node1&#45;&gt;Node12</title>
<g id="a_edge16_Node000001_Node000012"><a xlink:title=" ">
<path fill="none" stroke="#63b8ff" d="M1693.84,-93.85C1685.24,-94.78 1676.57,-95.73 1668.08,-96.65"/>
<polygon fill="#63b8ff" stroke="#63b8ff" points="1694.32,-97.31 1703.88,-92.75 1693.56,-90.35 1694.32,-97.31"/>
</a>
</g>
</g>
<!-- Node13 -->
<g id="Node000013" class="node">
<title>Node13</title>
<g id="a_Node000013"><a xlink:href="classConsoleRenderer.html#ab34fa7af4ede79de3951f1d5271d7a27" target="_top" xlink:title="Renders the game world to console.">
<polygon fill="white" stroke="#666666" points="1458,-152.14 1321,-152.14 1321,-133.14 1458,-133.14 1458,-152.14"/>
<text text-anchor="middle" x="1389.5" y="-140.14" font-family="Helvetica,sans-Serif" font-size="10.00">ConsoleRenderer::render</text>
</a>
</g>
</g>
<!-- Node1&#45;&gt;Node13 -->
<g id="edge19_Node000001_Node000013" class="edge">
<title>Node1&#45;&gt;Node13</title>
<g id="a_edge19_Node000001_Node000013"><a xlink:title=" ">
<path fill="none" stroke="#63b8ff" d="M1759.09,-97.57C1735.36,-108.46 1700.31,-122.85 1668,-129.64 1597.56,-144.45 1514.93,-146.41 1458.27,-145.47"/>
<polygon fill="#63b8ff" stroke="#63b8ff" points="1760.64,-100.7 1768.22,-93.29 1757.67,-94.36 1760.64,-100.7"/>
</a>
</g>
</g>
<!-- Node14 -->
<g id="Node000014" class="node">
<title>Node14</title>
<g id="a_Node000014"><a xlink:href="classGameController.html#a24f5cae258418d4a5934e6f412c28945" target="_top" xlink:title="Displays and manages the settings menu.">
<polygon fill="white" stroke="#666666" points="1265,-70.14 1100,-70.14 1100,-51.14 1265,-51.14 1265,-70.14"/>
<text text-anchor="middle" x="1182.5" y="-58.14" font-family="Helvetica,sans-Serif" font-size="10.00">GameController::showSettings</text>
</a>
</g>
</g>
<!-- Node1&#45;&gt;Node14 -->
<g id="edge20_Node000001_Node000014" class="edge">
<title>Node1&#45;&gt;Node14</title>
<g id="a_edge20_Node000001_Node000014"><a xlink:title=" ">
<path fill="none" stroke="#63b8ff" d="M1693.78,-80.08C1576.35,-75.6 1377.02,-68.01 1265.42,-63.76"/>
<polygon fill="#63b8ff" stroke="#63b8ff" points="1693.71,-83.57 1703.83,-80.46 1693.97,-76.58 1693.71,-83.57"/>
</a>
</g>
</g>
<!-- Node3 -->
<g id="Node000003" class="node">
<title>Node3</title>
<g id="a_Node000003"><a xlink:href="classConsoleRenderer.html#afd03640670c991dfa8240af639c2f0da" target="_top" xlink:title="Draws map selection screen.">
<polygon fill="white" stroke="#666666" points="1465,-34.64 1314,-34.64 1314,-4.64 1465,-4.64 1465,-34.64"/>
<text text-anchor="start" x="1322" y="-22.64" font-family="Helvetica,sans-Serif" font-size="10.00">ConsoleRenderer::drawMap</text>
<text text-anchor="middle" x="1389.5" y="-11.64" font-family="Helvetica,sans-Serif" font-size="10.00">Selection</text>
</a>
</g>
</g>
<!-- Node2&#45;&gt;Node3 -->
<g id="edge2_Node000002_Node000003" class="edge">
<title>Node2&#45;&gt;Node3</title>
<g id="a_edge2_Node000002_Node000003"><a xlink:title=" ">
<path fill="none" stroke="#63b8ff" d="M1498.72,-19.64C1487.57,-19.64 1476.21,-19.64 1465.24,-19.64"/>
<polygon fill="#63b8ff" stroke="#63b8ff" points="1498.88,-23.14 1508.88,-19.64 1498.88,-16.14 1498.88,-23.14"/>
</a>
</g>
</g>
<!-- Node4 -->
<g id="Node000004" class="node">
<title>Node4</title>
<g id="a_Node000004"><a xlink:href="classGameController.html#a4a9c94fe33cf6c73bb5dfc415d04d309" target="_top" xlink:title="Displays map selection screen.">
<polygon fill="white" stroke="#666666" points="1278,-32.14 1087,-32.14 1087,-13.14 1278,-13.14 1278,-32.14"/>
<text text-anchor="middle" x="1182.5" y="-20.14" font-family="Helvetica,sans-Serif" font-size="10.00">GameController::showMapSelection</text>
</a>
</g>
</g>
<!-- Node3&#45;&gt;Node4 -->
<g id="edge3_Node000003_Node000004" class="edge">
<title>Node3&#45;&gt;Node4</title>
<g id="a_edge3_Node000003_Node000004"><a xlink:title=" ">
<path fill="none" stroke="#63b8ff" d="M1303.77,-20.88C1295.38,-21.01 1286.82,-21.13 1278.34,-21.26"/>
<polygon fill="#63b8ff" stroke="#63b8ff" points="1303.96,-24.38 1313.91,-20.74 1303.86,-17.38 1303.96,-24.38"/>
</a>
</g>
</g>
<!-- Node5 -->
<g id="Node000005" class="node">
<title>Node5</title>
<g id="a_Node000005"><a xlink:href="classGameController.html#a971b3d8f6296a74f0bebc83b5e79c186" target="_top" xlink:title="Processes a user command.">
<polygon fill="white" stroke="#666666" points="669,-45.14 481,-45.14 481,-26.14 669,-26.14 669,-45.14"/>
<text text-anchor="middle" x="575" y="-33.14" font-family="Helvetica,sans-Serif" font-size="10.00">GameController::processCommand</text>
</a>
</g>
</g>
<!-- Node4&#45;&gt;Node5 -->
<g id="edge4_Node000004_Node000005" class="edge">
<title>Node4&#45;&gt;Node5</title>
<g id="a_edge4_Node000004_Node000005"><a xlink:title=" ">
<path fill="none" stroke="#63b8ff" d="M1088.39,-12.23C1075.83,-11.16 1063.11,-10.25 1051,-9.64 897.41,-2.01 858.02,5.62 705,-9.64 673.74,-12.76 638.85,-20.03 613.24,-26.09"/>
<polygon fill="#63b8ff" stroke="#63b8ff" points="1088.13,-15.72 1098.4,-13.12 1088.75,-8.75 1088.13,-15.72"/>
</a>
</g>
</g>
<!-- Node9 -->
<g id="Node000009" class="node">
<title>Node9</title>
<g id="a_Node000009"><a xlink:href="classGameController.html#a9d11b5a6255b7249bddba49df0837cf3" target="_top" xlink:title="Displays and manages the main menu.">
<polygon fill="white" stroke="#666666" points="1051,-38.14 899,-38.14 899,-19.14 1051,-19.14 1051,-38.14"/>
<text text-anchor="middle" x="975" y="-26.14" font-family="Helvetica,sans-Serif" font-size="10.00">GameController::showMenu</text>
</a>
</g>
</g>
<!-- Node4&#45;&gt;Node9 -->
<g id="edge8_Node000004_Node000009" class="edge">
<title>Node4&#45;&gt;Node9</title>
<g id="a_edge8_Node000004_Node000009"><a xlink:title=" ">
<path fill="none" stroke="#63b8ff" d="M1076.72,-18.95C1068.06,-19.22 1059.43,-19.54 1051.06,-19.93"/>
<polygon fill="#63b8ff" stroke="#63b8ff" points="1076.97,-22.45 1086.87,-18.68 1076.78,-15.45 1076.97,-22.45"/>
</a>
</g>
</g>
<!-- Node6 -->
<g id="Node000006" class="node">
<title>Node6</title>
<g id="a_Node000006"><a xlink:href="classGameController.html#af2367e58f03d8a1441c9a574967fd360" target="_top" xlink:title="Processes a single game turn/update cycle.">
<polygon fill="white" stroke="#666666" points="445,-66.14 258,-66.14 258,-47.14 445,-47.14 445,-66.14"/>
<text text-anchor="middle" x="351.5" y="-54.14" font-family="Helvetica,sans-Serif" font-size="10.00">GameController::processGameTurn</text>
</a>
</g>
</g>
<!-- Node5&#45;&gt;Node6 -->
<g id="edge5_Node000005_Node000006" class="edge">
<title>Node5&#45;&gt;Node6</title>
<g id="a_edge5_Node000005_Node000006"><a xlink:title=" ">
<path fill="none" stroke="#63b8ff" d="M470.5,-45.46C462.1,-46.25 453.65,-47.05 445.33,-47.84"/>
<polygon fill="#63b8ff" stroke="#63b8ff" points="471.08,-48.92 480.71,-44.49 470.42,-41.95 471.08,-48.92"/>
</a>
</g>
</g>
<!-- Node7 -->
<g id="Node000007" class="node">
<title>Node7</title>
<g id="a_Node000007"><a xlink:href="classGameController.html#ac958989c8f7f08488546930e5fcb0d82" target="_top" xlink:title="Starts and runs the main game loop.">
<polygon fill="white" stroke="#666666" points="222,-33.14 77,-33.14 77,-14.14 222,-14.14 222,-33.14"/>
<text text-anchor="middle" x="149.5" y="-21.14" font-family="Helvetica,sans-Serif" font-size="10.00">GameController::runGame</text>
</a>
</g>
</g>
<!-- Node6&#45;&gt;Node7 -->
<g id="edge6_Node000006_Node000007" class="edge">
<title>Node6&#45;&gt;Node7</title>
<g id="a_edge6_Node000006_Node000007"><a xlink:title=" ">
<path fill="none" stroke="#63b8ff" d="M282.76,-45.47C258.6,-41.48 231.62,-37.03 208.37,-33.19"/>
<polygon fill="#63b8ff" stroke="#63b8ff" points="282.48,-48.97 292.92,-47.14 283.62,-42.06 282.48,-48.97"/>
</a>
</g>
</g>
<!-- Node8 -->
<g id="Node000008" class="node">
<title>Node8</title>
<g id="a_Node000008"><a xlink:href="main_8cpp.html#ae66f6b31b5ad750f1fe042a706a4e3d4" target="_top" xlink:title="Main function that serves as the application entry point.">
<polygon fill="white" stroke="#666666" points="41,-33.14 0,-33.14 0,-14.14 41,-14.14 41,-33.14"/>
<text text-anchor="middle" x="20.5" y="-21.14" font-family="Helvetica,sans-Serif" font-size="10.00">main</text>
</a>
</g>
</g>
<!-- Node7&#45;&gt;Node8 -->
<g id="edge7_Node000007_Node000008" class="edge">
<title>Node7&#45;&gt;Node8</title>
<g id="a_edge7_Node000007_Node000008"><a xlink:title=" ">
<path fill="none" stroke="#63b8ff" d="M66.79,-23.64C57.31,-23.64 48.43,-23.64 41.08,-23.64"/>
<polygon fill="#63b8ff" stroke="#63b8ff" points="66.83,-27.14 76.83,-23.64 66.83,-20.14 66.83,-27.14"/>
</a>
</g>
</g>
<!-- Node9&#45;&gt;Node4 -->
<g id="edge15_Node000009_Node000004" class="edge">
<title>Node9&#45;&gt;Node4</title>
<g id="a_edge15_Node000009_Node000004"><a xlink:title=" ">
<path fill="none" stroke="#63b8ff" d="M1061.27,-32.82C1069.72,-32.66 1078.33,-32.43 1086.87,-32.14"/>
<polygon fill="#63b8ff" stroke="#63b8ff" points="1061,-29.32 1051.06,-32.98 1061.11,-36.32 1061,-29.32"/>
</a>
</g>
</g>
<!-- Node9&#45;&gt;Node5 -->
<g id="edge11_Node000009_Node000005" class="edge">
<title>Node9&#45;&gt;Node5</title>
<g id="a_edge11_Node000009_Node000005"><a xlink:title=" ">
<path fill="none" stroke="#63b8ff" d="M915.57,-39.92C898.67,-42.7 880.16,-45.26 863,-46.64 798.39,-51.85 725.39,-48.93 669.18,-44.8"/>
<polygon fill="#63b8ff" stroke="#63b8ff" points="916.58,-43.3 925.85,-38.18 915.41,-36.4 916.58,-43.3"/>
</a>
</g>
</g>
<!-- Node9&#45;&gt;Node7 -->
<g id="edge12_Node000009_Node000007" class="edge">
<title>Node9&#45;&gt;Node7</title>
<g id="a_edge12_Node000009_Node000007"><a xlink:title=" ">
<path fill="none" stroke="#63b8ff" d="M918.69,-17.28C900.98,-14.15 881.24,-11.19 863,-9.64 629.23,10.22 350.85,-7.03 222.21,-17.3"/>
<polygon fill="#63b8ff" stroke="#63b8ff" points="918.39,-20.78 928.86,-19.13 919.65,-13.9 918.39,-20.78"/>
</a>
</g>
</g>
<!-- Node10 -->
<g id="Node000010" class="node">
<title>Node10</title>
<g id="a_Node000010"><a xlink:href="classGameController.html#a637ea4e72ed2be4a2884b30160b3e8ab" target="_top" xlink:title="Pauses the game and displays pause screen.">
<polygon fill="white" stroke="#666666" points="863,-38.14 705,-38.14 705,-19.14 863,-19.14 863,-38.14"/>
<text text-anchor="middle" x="784" y="-26.14" font-family="Helvetica,sans-Serif" font-size="10.00">GameController::pauseGame</text>
</a>
</g>
</g>
<!-- Node9&#45;&gt;Node10 -->
<g id="edge9_Node000009_Node000010" class="edge">
<title>Node9&#45;&gt;Node10</title>
<g id="a_edge9_Node000009_Node000010"><a xlink:title=" ">
<path fill="none" stroke="#63b8ff" d="M888.5,-28.64C880.03,-28.64 871.46,-28.64 863.08,-28.64"/>
<polygon fill="#63b8ff" stroke="#63b8ff" points="888.76,-32.14 898.76,-28.64 888.76,-25.14 888.76,-32.14"/>
</a>
</g>
</g>
<!-- Node11 -->
<g id="Node000011" class="node">
<title>Node11</title>
<g id="a_Node000011"><a xlink:href="classGameController.html#a85bcf4ecfd197aad278e116215a3717b" target="_top" xlink:title="Displays level completion screen.">
<polygon fill="white" stroke="#666666" points="651,-107.64 499,-107.64 499,-77.64 651,-77.64 651,-107.64"/>
<text text-anchor="start" x="507" y="-95.64" font-family="Helvetica,sans-Serif" font-size="10.00">GameController::showLevel</text>
<text text-anchor="middle" x="575" y="-84.64" font-family="Helvetica,sans-Serif" font-size="10.00">CompleteScreen</text>
</a>
</g>
</g>
<!-- Node9&#45;&gt;Node11 -->
<g id="edge13_Node000009_Node000011" class="edge">
<title>Node9&#45;&gt;Node11</title>
<g id="a_edge13_Node000009_Node000011"><a xlink:title=" ">
<path fill="none" stroke="#63b8ff" d="M938.21,-41.54C916.68,-48.8 888.57,-57.44 863,-62.64 791.94,-77.1 709.48,-84.8 651.23,-88.76"/>
<polygon fill="#63b8ff" stroke="#63b8ff" points="939.58,-44.76 947.91,-38.2 937.31,-38.14 939.58,-44.76"/>
</a>
</g>
</g>
<!-- Node10&#45;&gt;Node5 -->
<g id="edge10_Node000010_Node000005" class="edge">
<title>Node10&#45;&gt;Node5</title>
<g id="a_edge10_Node000010_Node000005"><a xlink:title=" ">
<path fill="none" stroke="#63b8ff" d="M694.62,-31.63C686.25,-31.92 677.75,-32.2 669.34,-32.49"/>
<polygon fill="#63b8ff" stroke="#63b8ff" points="694.87,-35.13 704.74,-31.29 694.63,-28.13 694.87,-35.13"/>
</a>
</g>
</g>
<!-- Node11&#45;&gt;Node6 -->
<g id="edge14_Node000011_Node000006" class="edge">
<title>Node11&#45;&gt;Node6</title>
<g id="a_edge14_Node000011_Node000006"><a xlink:title=" ">
<path fill="none" stroke="#63b8ff" d="M488.52,-78.75C462.65,-74.55 434.84,-70.03 411.15,-66.18"/>
<polygon fill="#63b8ff" stroke="#63b8ff" points="488.27,-82.26 498.7,-80.41 489.39,-75.35 488.27,-82.26"/>
</a>
</g>
</g>
<!-- Node12&#45;&gt;Node13 -->
<g id="edge17_Node000012_Node000013" class="edge">
<title>Node12&#45;&gt;Node13</title>
<g id="a_edge17_Node000012_Node000013"><a xlink:title=" ">
<path fill="none" stroke="#63b8ff" d="M1495.17,-122.58C1476.27,-126.2 1456.95,-129.9 1440.14,-133.13"/>
<polygon fill="#63b8ff" stroke="#63b8ff" points="1495.84,-126.01 1505,-120.69 1494.52,-119.14 1495.84,-126.01"/>
</a>
</g>
</g>
<!-- Node13&#45;&gt;Node6 -->
<g id="edge18_Node000013_Node000006" class="edge">
<title>Node13&#45;&gt;Node6</title>
<g id="a_edge18_Node000013_Node000006"><a xlink:title=" ">
<path fill="none" stroke="#63b8ff" d="M1310.88,-142.64C1227.97,-142.64 1092.7,-142.64 976,-142.64 976,-142.64 976,-142.64 783,-142.64 648.28,-142.64 611.14,-151.45 481,-116.64 438.19,-105.19 392.05,-80.18 368.43,-66.34"/>
<polygon fill="#63b8ff" stroke="#63b8ff" points="1310.98,-146.14 1320.98,-142.64 1310.98,-139.14 1310.98,-146.14"/>
</a>
</g>
</g>
<!-- Node14&#45;&gt;Node9 -->
<g id="edge21_Node000014_Node000009" class="edge">
<title>Node14&#45;&gt;Node9</title>
<g id="a_edge21_Node000014_Node000009"><a xlink:title=" ">
<path fill="none" stroke="#63b8ff" d="M1110.36,-49.57C1086.54,-45.86 1060.21,-41.76 1037.22,-38.18"/>
<polygon fill="#63b8ff" stroke="#63b8ff" points="1109.98,-53.05 1120.4,-51.13 1111.06,-46.13 1109.98,-53.05"/>
</a>
</g>
</g>
</g>
</svg>
