<?xml version="1.0" encoding="UTF-8" standalone="no"?>
<!DOCTYPE svg PUBLIC "-//W3C//DTD SVG 1.1//EN"
 "http://www.w3.org/Graphics/SVG/1.1/DTD/svg11.dtd">
<!-- Generated by graphviz version 2.43.0 (0)
 -->
<!-- Title: ScoreManager::saveScores Pages: 1 -->
<svg width="1240pt" height="152pt"
 viewBox="0.00 0.00 1240.00 151.50" xmlns="http://www.w3.org/2000/svg" xmlns:xlink="http://www.w3.org/1999/xlink">
<g id="graph0" class="graph" transform="scale(1 1) rotate(0) translate(4 147.5)">
<title>ScoreManager::saveScores</title>
<!-- Node1 -->
<g id="Node000001" class="node">
<title>Node1</title>
<g id="a_Node000001"><a xlink:title="Saves high scores to file.">
<polygon fill="#999999" stroke="#666666" points="1232,-67.5 1084,-67.5 1084,-48.5 1232,-48.5 1232,-67.5"/>
<text text-anchor="middle" x="1158" y="-55.5" font-family="Helvetica,sans-Serif" font-size="10.00">ScoreManager::saveScores</text>
</a>
</g>
</g>
<!-- Node2 -->
<g id="Node000002" class="node">
<title>Node2</title>
<g id="a_Node000002"><a xlink:href="classScoreManager.html#a842a2834c5bb44d292e3f054d2612240" target="_top" xlink:title="Adds a new score to high scores table.">
<polygon fill="white" stroke="#666666" points="1042,-86.5 905,-86.5 905,-67.5 1042,-67.5 1042,-86.5"/>
<text text-anchor="middle" x="973.5" y="-74.5" font-family="Helvetica,sans-Serif" font-size="10.00">ScoreManager::addScore</text>
</a>
</g>
</g>
<!-- Node1&#45;&gt;Node2 -->
<g id="edge1_Node000001_Node000002" class="edge">
<title>Node1&#45;&gt;Node2</title>
<g id="a_edge1_Node000001_Node000002"><a xlink:title=" ">
<path fill="none" stroke="#63b8ff" d="M1073.72,-66.67C1063.13,-67.77 1052.39,-68.89 1042.08,-69.96"/>
<polygon fill="#63b8ff" stroke="#63b8ff" points="1074.24,-70.14 1083.82,-65.62 1073.51,-63.17 1074.24,-70.14"/>
</a>
</g>
</g>
<!-- Node9 -->
<g id="Node000009" class="node">
<title>Node9</title>
<g id="a_Node000009"><a xlink:href="classScoreManager.html#aa18b91bf9a0cba1419f8450b0e059e66" target="_top" xlink:title="Clears all high scores.">
<polygon fill="white" stroke="#666666" points="1048,-49.5 899,-49.5 899,-30.5 1048,-30.5 1048,-49.5"/>
<text text-anchor="middle" x="973.5" y="-37.5" font-family="Helvetica,sans-Serif" font-size="10.00">ScoreManager::clearScores</text>
</a>
</g>
</g>
<!-- Node1&#45;&gt;Node9 -->
<g id="edge11_Node000001_Node000009" class="edge">
<title>Node1&#45;&gt;Node9</title>
<g id="a_edge11_Node000001_Node000009"><a xlink:title=" ">
<path fill="none" stroke="#63b8ff" d="M1073.87,-49.8C1065.34,-48.96 1056.71,-48.11 1048.29,-47.28"/>
<polygon fill="#63b8ff" stroke="#63b8ff" points="1073.53,-53.28 1083.82,-50.78 1074.21,-46.32 1073.53,-53.28"/>
</a>
</g>
</g>
<!-- Node3 -->
<g id="Node000003" class="node">
<title>Node3</title>
<g id="a_Node000003"><a xlink:href="classGameController.html#a637ea4e72ed2be4a2884b30160b3e8ab" target="_top" xlink:title="Pauses the game and displays pause screen.">
<polygon fill="white" stroke="#666666" points="863,-143.5 705,-143.5 705,-124.5 863,-124.5 863,-143.5"/>
<text text-anchor="middle" x="784" y="-131.5" font-family="Helvetica,sans-Serif" font-size="10.00">GameController::pauseGame</text>
</a>
</g>
</g>
<!-- Node2&#45;&gt;Node3 -->
<g id="edge2_Node000002_Node000003" class="edge">
<title>Node2&#45;&gt;Node3</title>
<g id="a_edge2_Node000002_Node000003"><a xlink:title=" ">
<path fill="none" stroke="#63b8ff" d="M931.32,-89.52C896.72,-100.04 848.02,-114.84 816.49,-124.43"/>
<polygon fill="#63b8ff" stroke="#63b8ff" points="932.57,-92.8 941.12,-86.54 930.53,-86.1 932.57,-92.8"/>
</a>
</g>
</g>
<!-- Node4 -->
<g id="Node000004" class="node">
<title>Node4</title>
<g id="a_Node000004"><a xlink:href="classGameController.html#a971b3d8f6296a74f0bebc83b5e79c186" target="_top" xlink:title="Processes a user command.">
<polygon fill="white" stroke="#666666" points="669,-105.5 481,-105.5 481,-86.5 669,-86.5 669,-105.5"/>
<text text-anchor="middle" x="575" y="-93.5" font-family="Helvetica,sans-Serif" font-size="10.00">GameController::processCommand</text>
</a>
</g>
</g>
<!-- Node2&#45;&gt;Node4 -->
<g id="edge7_Node000002_Node000004" class="edge">
<title>Node2&#45;&gt;Node4</title>
<g id="a_edge7_Node000002_Node000004"><a xlink:title=" ">
<path fill="none" stroke="#63b8ff" d="M894.65,-80.73C829.93,-83.83 737.67,-88.25 669.06,-91.54"/>
<polygon fill="#63b8ff" stroke="#63b8ff" points="894.97,-84.22 904.79,-80.24 894.63,-77.23 894.97,-84.22"/>
</a>
</g>
</g>
<!-- Node5 -->
<g id="Node000005" class="node">
<title>Node5</title>
<g id="a_Node000005"><a xlink:href="classGameController.html#af2367e58f03d8a1441c9a574967fd360" target="_top" xlink:title="Processes a single game turn/update cycle.">
<polygon fill="white" stroke="#666666" points="445,-67.5 258,-67.5 258,-48.5 445,-48.5 445,-67.5"/>
<text text-anchor="middle" x="351.5" y="-55.5" font-family="Helvetica,sans-Serif" font-size="10.00">GameController::processGameTurn</text>
</a>
</g>
</g>
<!-- Node2&#45;&gt;Node5 -->
<g id="edge8_Node000002_Node000005" class="edge">
<title>Node2&#45;&gt;Node5</title>
<g id="a_edge8_Node000002_Node000005"><a xlink:title=" ">
<path fill="none" stroke="#63b8ff" d="M894.9,-74.62C780.6,-71.12 567.35,-64.58 445.06,-60.84"/>
<polygon fill="#63b8ff" stroke="#63b8ff" points="894.87,-78.12 904.97,-74.93 895.08,-71.13 894.87,-78.12"/>
</a>
</g>
</g>
<!-- Node8 -->
<g id="Node000008" class="node">
<title>Node8</title>
<g id="a_Node000008"><a xlink:href="classGameController.html#a85bcf4ecfd197aad278e116215a3717b" target="_top" xlink:title="Displays level completion screen.">
<polygon fill="white" stroke="#666666" points="651,-30 499,-30 499,0 651,0 651,-30"/>
<text text-anchor="start" x="507" y="-18" font-family="Helvetica,sans-Serif" font-size="10.00">GameController::showLevel</text>
<text text-anchor="middle" x="575" y="-7" font-family="Helvetica,sans-Serif" font-size="10.00">CompleteScreen</text>
</a>
</g>
</g>
<!-- Node2&#45;&gt;Node8 -->
<g id="edge9_Node000002_Node000008" class="edge">
<title>Node2&#45;&gt;Node8</title>
<g id="a_edge9_Node000002_Node000008"><a xlink:title=" ">
<path fill="none" stroke="#63b8ff" d="M918.86,-64.89C912.13,-63.07 905.37,-61.09 899,-59 882.53,-53.59 879.8,-48.25 863,-44 792.48,-26.16 709.59,-19.23 651.07,-16.57"/>
<polygon fill="#63b8ff" stroke="#63b8ff" points="918.1,-68.31 928.66,-67.44 919.86,-61.53 918.1,-68.31"/>
</a>
</g>
</g>
<!-- Node3&#45;&gt;Node4 -->
<g id="edge3_Node000003_Node000004" class="edge">
<title>Node3&#45;&gt;Node4</title>
<g id="a_edge3_Node000003_Node000004"><a xlink:title=" ">
<path fill="none" stroke="#63b8ff" d="M721.19,-122.65C691.49,-117.2 656.29,-110.74 627.99,-105.54"/>
<polygon fill="#63b8ff" stroke="#63b8ff" points="720.56,-126.1 731.03,-124.46 721.83,-119.21 720.56,-126.1"/>
</a>
</g>
</g>
<!-- Node4&#45;&gt;Node5 -->
<g id="edge4_Node000004_Node000005" class="edge">
<title>Node4&#45;&gt;Node5</title>
<g id="a_edge4_Node000004_Node000005"><a xlink:title=" ">
<path fill="none" stroke="#63b8ff" d="M508.27,-84.72C476.41,-79.26 438.55,-72.76 408.13,-67.54"/>
<polygon fill="#63b8ff" stroke="#63b8ff" points="507.94,-88.22 518.39,-86.46 509.13,-81.32 507.94,-88.22"/>
</a>
</g>
</g>
<!-- Node6 -->
<g id="Node000006" class="node">
<title>Node6</title>
<g id="a_Node000006"><a xlink:href="classGameController.html#ac958989c8f7f08488546930e5fcb0d82" target="_top" xlink:title="Starts and runs the main game loop.">
<polygon fill="white" stroke="#666666" points="222,-67.5 77,-67.5 77,-48.5 222,-48.5 222,-67.5"/>
<text text-anchor="middle" x="149.5" y="-55.5" font-family="Helvetica,sans-Serif" font-size="10.00">GameController::runGame</text>
</a>
</g>
</g>
<!-- Node5&#45;&gt;Node6 -->
<g id="edge5_Node000005_Node000006" class="edge">
<title>Node5&#45;&gt;Node6</title>
<g id="a_edge5_Node000005_Node000006"><a xlink:title=" ">
<path fill="none" stroke="#63b8ff" d="M247.71,-58C239.1,-58 230.52,-58 222.22,-58"/>
<polygon fill="#63b8ff" stroke="#63b8ff" points="247.82,-61.5 257.82,-58 247.82,-54.5 247.82,-61.5"/>
</a>
</g>
</g>
<!-- Node7 -->
<g id="Node000007" class="node">
<title>Node7</title>
<g id="a_Node000007"><a xlink:href="main_8cpp.html#ae66f6b31b5ad750f1fe042a706a4e3d4" target="_top" xlink:title="Main function that serves as the application entry point.">
<polygon fill="white" stroke="#666666" points="41,-67.5 0,-67.5 0,-48.5 41,-48.5 41,-67.5"/>
<text text-anchor="middle" x="20.5" y="-55.5" font-family="Helvetica,sans-Serif" font-size="10.00">main</text>
</a>
</g>
</g>
<!-- Node6&#45;&gt;Node7 -->
<g id="edge6_Node000006_Node000007" class="edge">
<title>Node6&#45;&gt;Node7</title>
<g id="a_edge6_Node000006_Node000007"><a xlink:title=" ">
<path fill="none" stroke="#63b8ff" d="M66.79,-58C57.31,-58 48.43,-58 41.08,-58"/>
<polygon fill="#63b8ff" stroke="#63b8ff" points="66.83,-61.5 76.83,-58 66.83,-54.5 66.83,-61.5"/>
</a>
</g>
</g>
<!-- Node8&#45;&gt;Node5 -->
<g id="edge10_Node000008_Node000005" class="edge">
<title>Node8&#45;&gt;Node5</title>
<g id="a_edge10_Node000008_Node000005"><a xlink:title=" ">
<path fill="none" stroke="#63b8ff" d="M488.79,-31.54C459.25,-37.28 427.15,-43.51 401.52,-48.48"/>
<polygon fill="#63b8ff" stroke="#63b8ff" points="489.55,-34.96 498.7,-29.62 488.22,-28.09 489.55,-34.96"/>
</a>
</g>
</g>
</g>
</svg>
