<?xml version="1.0" encoding="UTF-8" standalone="no"?>
<!DOCTYPE svg PUBLIC "-//W3C//DTD SVG 1.1//EN"
 "http://www.w3.org/Graphics/SVG/1.1/DTD/svg11.dtd">
<!-- Generated by graphviz version 2.43.0 (0)
 -->
<!-- Title: GameController::showSettings Pages: 1 -->
<svg width="1060pt" height="599pt"
 viewBox="0.00 0.00 1060.00 598.50" xmlns="http://www.w3.org/2000/svg" xmlns:xlink="http://www.w3.org/1999/xlink">
<g id="graph0" class="graph" transform="scale(1 1) rotate(0) translate(4 594.5)">
<title>GameController::showSettings</title>
<!-- Node1 -->
<g id="Node000001" class="node">
<title>Node1</title>
<g id="a_Node000001"><a xlink:title="Displays and manages the settings menu.">
<polygon fill="#999999" stroke="#666666" points="165,-294.5 0,-294.5 0,-275.5 165,-275.5 165,-294.5"/>
<text text-anchor="middle" x="82.5" y="-282.5" font-family="Helvetica,sans-Serif" font-size="10.00">GameController::showSettings</text>
</a>
</g>
</g>
<!-- Node2 -->
<g id="Node000002" class="node">
<title>Node2</title>
<g id="a_Node000002"><a xlink:href="classConsoleRenderer.html#a041e99f6c0427c254b0349b57fbe2a84" target="_top" xlink:title="Clears the terminal screen.">
<polygon fill="white" stroke="#666666" points="831.5,-428.5 668.5,-428.5 668.5,-409.5 831.5,-409.5 831.5,-428.5"/>
<text text-anchor="middle" x="750" y="-416.5" font-family="Helvetica,sans-Serif" font-size="10.00">ConsoleRenderer::clearScreen</text>
</a>
</g>
</g>
<!-- Node1&#45;&gt;Node2 -->
<g id="edge1_Node000001_Node000002" class="edge">
<title>Node1&#45;&gt;Node2</title>
<g id="a_edge1_Node000001_Node000002"><a xlink:title=" ">
<path fill="none" stroke="#63b8ff" d="M106.26,-294.53C129.79,-304.24 167.67,-319.46 201,-331 295.33,-363.67 317.81,-378 416,-396 497.06,-410.86 590.81,-416.3 658.14,-418.21"/>
<polygon fill="#63b8ff" stroke="#63b8ff" points="658.21,-421.72 668.3,-418.48 658.4,-414.72 658.21,-421.72"/>
</a>
</g>
</g>
<!-- Node4 -->
<g id="Node000004" class="node">
<title>Node4</title>
<g id="a_Node000004"><a xlink:href="classConsoleRenderer.html#a0e17aa687bd8d7381b2bf8425b2a9709" target="_top" xlink:title="Draws settings screen.">
<polygon fill="white" stroke="#666666" points="375.5,-487.5 205.5,-487.5 205.5,-468.5 375.5,-468.5 375.5,-487.5"/>
<text text-anchor="middle" x="290.5" y="-475.5" font-family="Helvetica,sans-Serif" font-size="10.00">ConsoleRenderer::drawSettings</text>
</a>
</g>
</g>
<!-- Node1&#45;&gt;Node4 -->
<g id="edge3_Node000001_Node000004" class="edge">
<title>Node1&#45;&gt;Node4</title>
<g id="a_edge3_Node000001_Node000004"><a xlink:title=" ">
<path fill="none" stroke="#63b8ff" d="M89.21,-294.84C104.47,-320.46 148.67,-390.24 201,-433 216.84,-445.95 237.02,-456.56 254.11,-464.22"/>
<polygon fill="#63b8ff" stroke="#63b8ff" points="253.19,-467.64 263.76,-468.39 255.96,-461.21 253.19,-467.64"/>
</a>
</g>
</g>
<!-- Node11 -->
<g id="Node000011" class="node">
<title>Node11</title>
<g id="a_Node000011"><a xlink:href="classGameController.html#a19dc0995b5ee51a87bf49dff90f4e991" target="_top" xlink:title="Handles terminal resize events.">
<polygon fill="white" stroke="#666666" points="378,-322 203,-322 203,-292 378,-292 378,-322"/>
<text text-anchor="start" x="211" y="-310" font-family="Helvetica,sans-Serif" font-size="10.00">GameController::handleTerminal</text>
<text text-anchor="middle" x="290.5" y="-299" font-family="Helvetica,sans-Serif" font-size="10.00">Resize</text>
</a>
</g>
</g>
<!-- Node1&#45;&gt;Node11 -->
<g id="edge13_Node000001_Node000011" class="edge">
<title>Node1&#45;&gt;Node11</title>
<g id="a_edge13_Node000001_Node000011"><a xlink:title=" ">
<path fill="none" stroke="#63b8ff" d="M165.21,-293.73C174.29,-294.7 183.59,-295.69 192.83,-296.68"/>
<polygon fill="#63b8ff" stroke="#63b8ff" points="192.5,-300.16 202.81,-297.74 193.24,-293.2 192.5,-300.16"/>
</a>
</g>
</g>
<!-- Node15 -->
<g id="Node000015" class="node">
<title>Node15</title>
<g id="a_Node000015"><a xlink:href="classGameWorld.html#a0cfc65f0eb89ee76d777f6e2f76cb901" target="_top" xlink:title="Sets current game state.">
<polygon fill="white" stroke="#666666" points="350.5,-158.5 230.5,-158.5 230.5,-139.5 350.5,-139.5 350.5,-158.5"/>
<text text-anchor="middle" x="290.5" y="-146.5" font-family="Helvetica,sans-Serif" font-size="10.00">GameWorld::setState</text>
</a>
</g>
</g>
<!-- Node1&#45;&gt;Node15 -->
<g id="edge21_Node000001_Node000015" class="edge">
<title>Node1&#45;&gt;Node15</title>
<g id="a_edge21_Node000001_Node000015"><a xlink:title=" ">
<path fill="none" stroke="#63b8ff" d="M90.16,-275.28C106.28,-252.55 149.89,-195.74 201,-168 207.03,-164.73 213.58,-162.02 220.3,-159.77"/>
<polygon fill="#63b8ff" stroke="#63b8ff" points="221.63,-163.03 230.21,-156.81 219.63,-156.32 221.63,-163.03"/>
</a>
</g>
</g>
<!-- Node16 -->
<g id="Node000016" class="node">
<title>Node16</title>
<g id="a_Node000016"><a xlink:href="classGameController.html#a47c26eedd973ec104d31a7c96b60d658" target="_top" xlink:title="Toggles between advanced and symbolic graphics modes.">
<polygon fill="white" stroke="#666666" points="380,-207 201,-207 201,-177 380,-177 380,-207"/>
<text text-anchor="start" x="209" y="-195" font-family="Helvetica,sans-Serif" font-size="10.00">GameController::toggleAdvanced</text>
<text text-anchor="middle" x="290.5" y="-184" font-family="Helvetica,sans-Serif" font-size="10.00">Graphics</text>
</a>
</g>
</g>
<!-- Node1&#45;&gt;Node16 -->
<g id="edge22_Node000001_Node000016" class="edge">
<title>Node1&#45;&gt;Node16</title>
<g id="a_edge22_Node000001_Node000016"><a xlink:title=" ">
<path fill="none" stroke="#63b8ff" d="M104.77,-275.4C138.19,-260.31 203.66,-230.75 247,-211.19"/>
<polygon fill="#63b8ff" stroke="#63b8ff" points="248.49,-214.36 256.16,-207.05 245.61,-207.98 248.49,-214.36"/>
</a>
</g>
</g>
<!-- Node21 -->
<g id="Node000021" class="node">
<title>Node21</title>
<g id="a_Node000021"><a xlink:href="classInputHandler.html#a913dc5151c57d77fa9c56cb4ad2c2621" target="_top" xlink:title="Waits for and returns a user command.">
<polygon fill="white" stroke="#666666" points="376.5,-273.5 204.5,-273.5 204.5,-254.5 376.5,-254.5 376.5,-273.5"/>
<text text-anchor="middle" x="290.5" y="-261.5" font-family="Helvetica,sans-Serif" font-size="10.00">InputHandler::waitForCommand</text>
</a>
</g>
</g>
<!-- Node1&#45;&gt;Node21 -->
<g id="edge29_Node000001_Node000021" class="edge">
<title>Node1&#45;&gt;Node21</title>
<g id="a_edge29_Node000001_Node000021"><a xlink:title=" ">
<path fill="none" stroke="#63b8ff" d="M165.21,-276.67C174.72,-275.7 184.47,-274.71 194.14,-273.72"/>
<polygon fill="#63b8ff" stroke="#63b8ff" points="194.57,-277.2 204.17,-272.7 193.86,-270.23 194.57,-277.2"/>
</a>
</g>
</g>
<!-- Node3 -->
<g id="Node000003" class="node">
<title>Node3</title>
<g id="a_Node000003"><a xlink:href="classPlatformUtils.html#acddd420e3f04cd70a8932b5472fce01d" target="_top" xlink:title="Clears the terminal screen.">
<polygon fill="white" stroke="#666666" points="1041.5,-428.5 897.5,-428.5 897.5,-409.5 1041.5,-409.5 1041.5,-428.5"/>
<text text-anchor="middle" x="969.5" y="-416.5" font-family="Helvetica,sans-Serif" font-size="10.00">PlatformUtils::clearScreen</text>
</a>
</g>
</g>
<!-- Node2&#45;&gt;Node3 -->
<g id="edge2_Node000002_Node000003" class="edge">
<title>Node2&#45;&gt;Node3</title>
<g id="a_edge2_Node000002_Node000003"><a xlink:title=" ">
<path fill="none" stroke="#63b8ff" d="M831.68,-419C849.75,-419 868.94,-419 887.04,-419"/>
<polygon fill="#63b8ff" stroke="#63b8ff" points="887.26,-422.5 897.26,-419 887.26,-415.5 887.26,-422.5"/>
</a>
</g>
</g>
<!-- Node4&#45;&gt;Node2 -->
<g id="edge8_Node000004_Node000002" class="edge">
<title>Node4&#45;&gt;Node2</title>
<g id="a_edge8_Node000004_Node000002"><a xlink:title=" ">
<path fill="none" stroke="#63b8ff" d="M365.26,-468.49C447.19,-457.92 579.2,-440.9 665.03,-429.83"/>
<polygon fill="#63b8ff" stroke="#63b8ff" points="665.54,-433.29 675.01,-428.54 664.64,-426.35 665.54,-433.29"/>
</a>
</g>
</g>
<!-- Node5 -->
<g id="Node000005" class="node">
<title>Node5</title>
<g id="a_Node000005"><a xlink:href="classConsoleRenderer.html#a209136c99544bd8fa46cc9860cedab1c" target="_top" xlink:title="Calculates horizontal offset to center content based on terminal width.">
<polygon fill="white" stroke="#666666" points="825,-536 675,-536 675,-506 825,-506 825,-536"/>
<text text-anchor="start" x="683" y="-524" font-family="Helvetica,sans-Serif" font-size="10.00">ConsoleRenderer::calculate</text>
<text text-anchor="middle" x="750" y="-513" font-family="Helvetica,sans-Serif" font-size="10.00">HorizontalOffset</text>
</a>
</g>
</g>
<!-- Node4&#45;&gt;Node5 -->
<g id="edge4_Node000004_Node000005" class="edge">
<title>Node4&#45;&gt;Node5</title>
<g id="a_edge4_Node000004_Node000005"><a xlink:title=" ">
<path fill="none" stroke="#63b8ff" d="M310.73,-487.55C334.69,-498.87 377.21,-517.06 416,-524 499.64,-538.96 596.98,-535.75 664.74,-530.31"/>
<polygon fill="#63b8ff" stroke="#63b8ff" points="665.26,-533.78 674.93,-529.46 664.68,-526.8 665.26,-533.78"/>
</a>
</g>
</g>
<!-- Node6 -->
<g id="Node000006" class="node">
<title>Node6</title>
<g id="a_Node000006"><a xlink:href="classConsoleRenderer.html#a9576db66ee7dc8d9fdec36f0181b9a12" target="_top" xlink:title="Checks if terminal size meets requirements.">
<polygon fill="white" stroke="#666666" points="613,-352.5 416,-352.5 416,-333.5 613,-333.5 613,-352.5"/>
<text text-anchor="middle" x="514.5" y="-340.5" font-family="Helvetica,sans-Serif" font-size="10.00">ConsoleRenderer::checkTerminalSize</text>
</a>
</g>
</g>
<!-- Node4&#45;&gt;Node6 -->
<g id="edge5_Node000004_Node000006" class="edge">
<title>Node4&#45;&gt;Node6</title>
<g id="a_edge5_Node000004_Node000006"><a xlink:title=" ">
<path fill="none" stroke="#63b8ff" d="M307.47,-468.29C345.79,-444.99 443.18,-385.76 488.98,-357.91"/>
<polygon fill="#63b8ff" stroke="#63b8ff" points="490.95,-360.81 497.68,-352.62 487.32,-354.83 490.95,-360.81"/>
</a>
</g>
</g>
<!-- Node9 -->
<g id="Node000009" class="node">
<title>Node9</title>
<g id="a_Node000009"><a xlink:href="classConsoleRenderer.html#af59760cefd8647cf4b6fe34774cac2c1" target="_top" xlink:title="Draws an error message about terminal size.">
<polygon fill="white" stroke="#666666" points="591,-515 438,-515 438,-485 591,-485 591,-515"/>
<text text-anchor="start" x="446" y="-503" font-family="Helvetica,sans-Serif" font-size="10.00">ConsoleRenderer::drawError</text>
<text text-anchor="middle" x="514.5" y="-492" font-family="Helvetica,sans-Serif" font-size="10.00">Message</text>
</a>
</g>
</g>
<!-- Node4&#45;&gt;Node9 -->
<g id="edge9_Node000004_Node000009" class="edge">
<title>Node4&#45;&gt;Node9</title>
<g id="a_edge9_Node000004_Node000009"><a xlink:title=" ">
<path fill="none" stroke="#63b8ff" d="M375.75,-486.35C392.61,-488.02 410.35,-489.78 427.27,-491.45"/>
<polygon fill="#63b8ff" stroke="#63b8ff" points="427.4,-494.98 437.69,-492.49 428.09,-488.02 427.4,-494.98"/>
</a>
</g>
</g>
<!-- Node10 -->
<g id="Node000010" class="node">
<title>Node10</title>
<g id="a_Node000010"><a xlink:href="classPlatformUtils.html#a964fb97fe6351330adbcf813a9706eb6" target="_top" xlink:title="Checks if terminal supports Unicode.">
<polygon fill="white" stroke="#666666" points="599,-590.5 430,-590.5 430,-571.5 599,-571.5 599,-590.5"/>
<text text-anchor="middle" x="514.5" y="-578.5" font-family="Helvetica,sans-Serif" font-size="10.00">PlatformUtils::supportsUnicode</text>
</a>
</g>
</g>
<!-- Node4&#45;&gt;Node10 -->
<g id="edge12_Node000004_Node000010" class="edge">
<title>Node4&#45;&gt;Node10</title>
<g id="a_edge12_Node000004_Node000010"><a xlink:title=" ">
<path fill="none" stroke="#63b8ff" d="M303.82,-487.76C325.34,-504.36 371.74,-538.11 416,-557 427.15,-561.76 439.43,-565.7 451.41,-568.92"/>
<polygon fill="#63b8ff" stroke="#63b8ff" points="450.82,-572.38 461.38,-571.46 452.55,-565.6 450.82,-572.38"/>
</a>
</g>
</g>
<!-- Node7 -->
<g id="Node000007" class="node">
<title>Node7</title>
<g id="a_Node000007"><a xlink:href="classConsoleRenderer.html#aae418386985b5ad1286af9cb8a7726c9" target="_top" xlink:title="Updates terminal size information.">
<polygon fill="white" stroke="#666666" points="851,-352.5 649,-352.5 649,-333.5 851,-333.5 851,-352.5"/>
<text text-anchor="middle" x="750" y="-340.5" font-family="Helvetica,sans-Serif" font-size="10.00">ConsoleRenderer::updateTerminalSize</text>
</a>
</g>
</g>
<!-- Node6&#45;&gt;Node7 -->
<g id="edge6_Node000006_Node000007" class="edge">
<title>Node6&#45;&gt;Node7</title>
<g id="a_edge6_Node000006_Node000007"><a xlink:title=" ">
<path fill="none" stroke="#63b8ff" d="M613.17,-343C621.52,-343 630.01,-343 638.45,-343"/>
<polygon fill="#63b8ff" stroke="#63b8ff" points="638.72,-346.5 648.72,-343 638.72,-339.5 638.72,-346.5"/>
</a>
</g>
</g>
<!-- Node8 -->
<g id="Node000008" class="node">
<title>Node8</title>
<g id="a_Node000008"><a xlink:href="classPlatformUtils.html#a9fb2159f36325087d8c93e7937d6da0b" target="_top" xlink:title="Gets current terminal dimensions.">
<polygon fill="white" stroke="#666666" points="1052,-352.5 887,-352.5 887,-333.5 1052,-333.5 1052,-352.5"/>
<text text-anchor="middle" x="969.5" y="-340.5" font-family="Helvetica,sans-Serif" font-size="10.00">PlatformUtils::getTerminalSize</text>
</a>
</g>
</g>
<!-- Node7&#45;&gt;Node8 -->
<g id="edge7_Node000007_Node000008" class="edge">
<title>Node7&#45;&gt;Node8</title>
<g id="a_edge7_Node000007_Node000008"><a xlink:title=" ">
<path fill="none" stroke="#63b8ff" d="M851.16,-343C859.64,-343 868.19,-343 876.6,-343"/>
<polygon fill="#63b8ff" stroke="#63b8ff" points="876.78,-346.5 886.78,-343 876.78,-339.5 876.78,-346.5"/>
</a>
</g>
</g>
<!-- Node9&#45;&gt;Node2 -->
<g id="edge11_Node000009_Node000002" class="edge">
<title>Node9&#45;&gt;Node2</title>
<g id="a_edge11_Node000009_Node000002"><a xlink:title=" ">
<path fill="none" stroke="#63b8ff" d="M568.86,-484.93C583.26,-480.64 598.79,-475.82 613,-471 648.6,-458.92 688.74,-443.32 716.13,-432.37"/>
<polygon fill="#63b8ff" stroke="#63b8ff" points="717.64,-435.54 725.61,-428.57 715.03,-429.05 717.64,-435.54"/>
</a>
</g>
</g>
<!-- Node9&#45;&gt;Node5 -->
<g id="edge10_Node000009_Node000005" class="edge">
<title>Node9&#45;&gt;Node5</title>
<g id="a_edge10_Node000009_Node000005"><a xlink:title=" ">
<path fill="none" stroke="#63b8ff" d="M591.31,-506.82C614.73,-508.92 640.67,-511.26 664.63,-513.41"/>
<polygon fill="#63b8ff" stroke="#63b8ff" points="664.49,-516.91 674.76,-514.32 665.12,-509.94 664.49,-516.91"/>
</a>
</g>
</g>
<!-- Node11&#45;&gt;Node2 -->
<g id="edge15_Node000011_Node000002" class="edge">
<title>Node11&#45;&gt;Node2</title>
<g id="a_edge15_Node000011_Node000002"><a xlink:title=" ">
<path fill="none" stroke="#63b8ff" d="M320.4,-322.22C345.15,-334.65 382.06,-351.77 416,-362 496.12,-386.15 590.37,-401.09 658.11,-409.58"/>
<polygon fill="#63b8ff" stroke="#63b8ff" points="657.98,-413.09 668.33,-410.83 658.83,-406.14 657.98,-413.09"/>
</a>
</g>
</g>
<!-- Node11&#45;&gt;Node6 -->
<g id="edge14_Node000011_Node000006" class="edge">
<title>Node11&#45;&gt;Node6</title>
<g id="a_edge14_Node000011_Node000006"><a xlink:title=" ">
<path fill="none" stroke="#63b8ff" d="M378.28,-321.07C400.34,-324.65 423.73,-328.44 444.74,-331.85"/>
<polygon fill="#63b8ff" stroke="#63b8ff" points="444.42,-335.34 454.86,-333.49 445.54,-328.43 444.42,-335.34"/>
</a>
</g>
</g>
<!-- Node11&#45;&gt;Node9 -->
<g id="edge16_Node000011_Node000009" class="edge">
<title>Node11&#45;&gt;Node9</title>
<g id="a_edge16_Node000011_Node000009"><a xlink:title=" ">
<path fill="none" stroke="#63b8ff" d="M308.92,-322.14C348.07,-356.18 443.13,-438.82 488.54,-478.3"/>
<polygon fill="#63b8ff" stroke="#63b8ff" points="486.32,-481.01 496.16,-484.93 490.91,-475.72 486.32,-481.01"/>
</a>
</g>
</g>
<!-- Node12 -->
<g id="Node000012" class="node">
<title>Node12</title>
<g id="a_Node000012"><a xlink:href="classPlatformUtils.html#ab1da035f72ad2772a6ec8fbc4b34560a" target="_top" xlink:title="Checks if a key has been pressed.">
<polygon fill="white" stroke="#666666" points="806,-276.5 694,-276.5 694,-257.5 806,-257.5 806,-276.5"/>
<text text-anchor="middle" x="750" y="-264.5" font-family="Helvetica,sans-Serif" font-size="10.00">PlatformUtils::kbhit</text>
</a>
</g>
</g>
<!-- Node11&#45;&gt;Node12 -->
<g id="edge17_Node000011_Node000012" class="edge">
<title>Node11&#45;&gt;Node12</title>
<g id="a_edge17_Node000011_Node000012"><a xlink:title=" ">
<path fill="none" stroke="#63b8ff" d="M378.29,-303.06C443.07,-299.7 533.71,-294.12 613,-286 636.14,-283.63 661.39,-280.31 683.79,-277.1"/>
<polygon fill="#63b8ff" stroke="#63b8ff" points="684.47,-280.54 693.86,-275.64 683.46,-273.61 684.47,-280.54"/>
</a>
</g>
</g>
<!-- Node13 -->
<g id="Node000013" class="node">
<title>Node13</title>
<g id="a_Node000013"><a xlink:href="classPlatformUtils.html#a4f63e74483ea78a709c332539f45ac27" target="_top" xlink:title="Reads a single UTF&#45;8 character from input.">
<polygon fill="white" stroke="#666666" points="593,-276.5 436,-276.5 436,-257.5 593,-257.5 593,-276.5"/>
<text text-anchor="middle" x="514.5" y="-264.5" font-family="Helvetica,sans-Serif" font-size="10.00">PlatformUtils::readUTF8Char</text>
</a>
</g>
</g>
<!-- Node11&#45;&gt;Node13 -->
<g id="edge18_Node000011_Node000013" class="edge">
<title>Node11&#45;&gt;Node13</title>
<g id="a_edge18_Node000011_Node000013"><a xlink:title=" ">
<path fill="none" stroke="#63b8ff" d="M374.8,-291.99C399.99,-287.45 427.21,-282.55 450.82,-278.29"/>
<polygon fill="#63b8ff" stroke="#63b8ff" points="451.47,-281.73 460.69,-276.51 450.23,-274.84 451.47,-281.73"/>
</a>
</g>
</g>
<!-- Node14 -->
<g id="Node000014" class="node">
<title>Node14</title>
<g id="a_Node000014"><a xlink:href="classPlatformUtils.html#abf6e891ecb5147fa3d8583b651642d91" target="_top" xlink:title="Pauses execution for specified milliseconds.">
<polygon fill="white" stroke="#666666" points="571,-239.5 458,-239.5 458,-220.5 571,-220.5 571,-239.5"/>
<text text-anchor="middle" x="514.5" y="-227.5" font-family="Helvetica,sans-Serif" font-size="10.00">PlatformUtils::sleep</text>
</a>
</g>
</g>
<!-- Node11&#45;&gt;Node14 -->
<g id="edge20_Node000011_Node000014" class="edge">
<title>Node11&#45;&gt;Node14</title>
<g id="a_edge20_Node000011_Node000014"><a xlink:title=" ">
<path fill="none" stroke="#63b8ff" d="M360.48,-291.93C367.27,-289.38 373.89,-286.42 380,-283 399.2,-272.24 396.43,-259.06 416,-249 425.81,-243.96 436.8,-240.25 447.76,-237.53"/>
<polygon fill="#63b8ff" stroke="#63b8ff" points="448.8,-240.88 457.8,-235.29 447.28,-234.05 448.8,-240.88"/>
</a>
</g>
</g>
<!-- Node13&#45;&gt;Node12 -->
<g id="edge19_Node000013_Node000012" class="edge">
<title>Node13&#45;&gt;Node12</title>
<g id="a_edge19_Node000013_Node000012"><a xlink:title=" ">
<path fill="none" stroke="#63b8ff" d="M593.25,-267C622.55,-267 655.56,-267 683.62,-267"/>
<polygon fill="#63b8ff" stroke="#63b8ff" points="683.72,-270.5 693.72,-267 683.72,-263.5 683.72,-270.5"/>
</a>
</g>
</g>
<!-- Node16&#45;&gt;Node2 -->
<g id="edge23_Node000016_Node000002" class="edge">
<title>Node16&#45;&gt;Node2</title>
<g id="a_edge23_Node000016_Node000002"><a xlink:title=" ">
<path fill="none" stroke="#63b8ff" d="M349.15,-177C419.88,-162.33 539.46,-150.22 613,-212 665.5,-256.1 607.83,-307.18 649,-362 664.19,-382.23 688.82,-396.39 709.83,-405.54"/>
<polygon fill="#63b8ff" stroke="#63b8ff" points="708.6,-408.82 719.18,-409.39 711.27,-402.35 708.6,-408.82"/>
</a>
</g>
</g>
<!-- Node16&#45;&gt;Node14 -->
<g id="edge28_Node000016_Node000014" class="edge">
<title>Node16&#45;&gt;Node14</title>
<g id="a_edge28_Node000016_Node000014"><a xlink:title=" ">
<path fill="none" stroke="#63b8ff" d="M379.24,-207.02C402.15,-210.94 426.45,-215.1 447.99,-218.79"/>
<polygon fill="#63b8ff" stroke="#63b8ff" points="447.55,-222.26 457.99,-220.5 448.73,-215.36 447.55,-222.26"/>
</a>
</g>
</g>
<!-- Node17 -->
<g id="Node000017" class="node">
<title>Node17</title>
<g id="a_Node000017"><a xlink:href="classSettingsManager.html#a1686a183b6d975ae02e1a97cde31b226" target="_top" xlink:title="Gets a boolean setting value.">
<polygon fill="white" stroke="#666666" points="586,-30 443,-30 443,0 586,0 586,-30"/>
<text text-anchor="start" x="451" y="-18" font-family="Helvetica,sans-Serif" font-size="10.00">SettingsManager::getBool</text>
<text text-anchor="middle" x="514.5" y="-7" font-family="Helvetica,sans-Serif" font-size="10.00">Setting</text>
</a>
</g>
</g>
<!-- Node16&#45;&gt;Node17 -->
<g id="edge24_Node000016_Node000017" class="edge">
<title>Node16&#45;&gt;Node17</title>
<g id="a_edge24_Node000016_Node000017"><a xlink:title=" ">
<path fill="none" stroke="#63b8ff" d="M368.71,-176.78C372.8,-174.27 376.61,-171.36 380,-168 422.24,-126.06 373.27,-80.44 416,-39 421.05,-34.11 426.92,-30.16 433.24,-26.98"/>
<polygon fill="#63b8ff" stroke="#63b8ff" points="434.98,-30.04 442.76,-22.86 432.19,-23.62 434.98,-30.04"/>
</a>
</g>
</g>
<!-- Node19 -->
<g id="Node000019" class="node">
<title>Node19</title>
<g id="a_Node000019"><a xlink:href="classConsoleRenderer.html#ac1299b325bb43da2b01ce929fc6f91f6" target="_top" xlink:title="Enables or disables advanced graphics.">
<polygon fill="white" stroke="#666666" points="599,-78 430,-78 430,-48 599,-48 599,-78"/>
<text text-anchor="start" x="438" y="-66" font-family="Helvetica,sans-Serif" font-size="10.00">ConsoleRenderer::setAdvanced</text>
<text text-anchor="middle" x="514.5" y="-55" font-family="Helvetica,sans-Serif" font-size="10.00">Graphics</text>
</a>
</g>
</g>
<!-- Node16&#45;&gt;Node19 -->
<g id="edge26_Node000016_Node000019" class="edge">
<title>Node16&#45;&gt;Node19</title>
<g id="a_edge26_Node000016_Node000019"><a xlink:title=" ">
<path fill="none" stroke="#63b8ff" d="M366.89,-176.88C371.58,-174.36 376.01,-171.42 380,-168 409.91,-142.36 385.79,-112.29 416,-87 417.55,-85.7 419.17,-84.47 420.83,-83.3"/>
<polygon fill="#63b8ff" stroke="#63b8ff" points="422.83,-86.18 429.55,-77.99 419.19,-80.21 422.83,-86.18"/>
</a>
</g>
</g>
<!-- Node20 -->
<g id="Node000020" class="node">
<title>Node20</title>
<g id="a_Node000020"><a xlink:href="classSettingsManager.html#a9b68292aa3b017c65c44c44bec834259" target="_top" xlink:title="Sets a boolean setting value.">
<polygon fill="white" stroke="#666666" points="585.5,-126 443.5,-126 443.5,-96 585.5,-96 585.5,-126"/>
<text text-anchor="start" x="451.5" y="-114" font-family="Helvetica,sans-Serif" font-size="10.00">SettingsManager::setBool</text>
<text text-anchor="middle" x="514.5" y="-103" font-family="Helvetica,sans-Serif" font-size="10.00">Setting</text>
</a>
</g>
</g>
<!-- Node16&#45;&gt;Node20 -->
<g id="edge27_Node000016_Node000020" class="edge">
<title>Node16&#45;&gt;Node20</title>
<g id="a_edge27_Node000016_Node000020"><a xlink:title=" ">
<path fill="none" stroke="#63b8ff" d="M358.29,-176.97C365.78,-174.39 373.16,-171.41 380,-168 398.14,-158.95 397.97,-149.27 416,-140 423.76,-136.01 432.15,-132.48 440.65,-129.38"/>
<polygon fill="#63b8ff" stroke="#63b8ff" points="441.95,-132.63 450.26,-126.06 439.67,-126.02 441.95,-132.63"/>
</a>
</g>
</g>
<!-- Node18 -->
<g id="Node000018" class="node">
<title>Node18</title>
<g id="a_Node000018"><a xlink:href="classSettingsManager.html#a824eef45a26393d9038ac52ce0413596" target="_top" xlink:title="Gets a string setting value.">
<polygon fill="white" stroke="#666666" points="827.5,-24.5 672.5,-24.5 672.5,-5.5 827.5,-5.5 827.5,-24.5"/>
<text text-anchor="middle" x="750" y="-12.5" font-family="Helvetica,sans-Serif" font-size="10.00">SettingsManager::getSetting</text>
</a>
</g>
</g>
<!-- Node17&#45;&gt;Node18 -->
<g id="edge25_Node000017_Node000018" class="edge">
<title>Node17&#45;&gt;Node18</title>
<g id="a_edge25_Node000017_Node000018"><a xlink:title=" ">
<path fill="none" stroke="#63b8ff" d="M586.19,-15C610.14,-15 637.17,-15 662.22,-15"/>
<polygon fill="#63b8ff" stroke="#63b8ff" points="662.45,-18.5 672.45,-15 662.45,-11.5 662.45,-18.5"/>
</a>
</g>
</g>
<!-- Node21&#45;&gt;Node12 -->
<g id="edge30_Node000021_Node000012" class="edge">
<title>Node21&#45;&gt;Node12</title>
<g id="a_edge30_Node000021_Node000012"><a xlink:title=" ">
<path fill="none" stroke="#63b8ff" d="M308.53,-254.31C331.89,-241.64 375.58,-220.1 416,-212 501.85,-194.79 527.06,-195.28 613,-212 652.86,-219.75 695.81,-239.18 722.55,-252.73"/>
<polygon fill="#63b8ff" stroke="#63b8ff" points="721.15,-255.95 731.64,-257.43 724.36,-249.73 721.15,-255.95"/>
</a>
</g>
</g>
<!-- Node21&#45;&gt;Node13 -->
<g id="edge31_Node000021_Node000013" class="edge">
<title>Node21&#45;&gt;Node13</title>
<g id="a_edge31_Node000021_Node000013"><a xlink:title=" ">
<path fill="none" stroke="#63b8ff" d="M376.7,-265.15C392.64,-265.37 409.35,-265.59 425.38,-265.81"/>
<polygon fill="#63b8ff" stroke="#63b8ff" points="425.76,-269.31 435.81,-265.95 425.85,-262.32 425.76,-269.31"/>
</a>
</g>
</g>
</g>
</svg>
