<?xml version="1.0" encoding="UTF-8" standalone="no"?>
<!DOCTYPE svg PUBLIC "-//W3C//DTD SVG 1.1//EN"
 "http://www.w3.org/Graphics/SVG/1.1/DTD/svg11.dtd">
<!-- Generated by graphviz version 2.43.0 (0)
 -->
<!-- Title: ConsoleRenderer::render Pages: 1 -->
<!--zoomable 882 -->

<svg id="main" version="1.1" xmlns="http://www.w3.org/2000/svg" xmlns:xlink="http://www.w3.org/1999/xlink" xml:space="preserve" onload="init(evt)">
<style type="text/css"><![CDATA[
.node, .edge {opacity: 0.7;}
.node.selected, .edge.selected {opacity: 1;}
.edge:hover path { stroke: red; }
.edge:hover polygon { stroke: red; fill: red; }
]]></style>

<defs>
  <circle id="rim" cx="0" cy="0" r="7"/>
  <circle id="rim2" cx="0" cy="0" r="3.5"/>
  <g id="zoomPlus">
    <use xlink:href="#rim" fill="#404040"><set attributeName="fill" to="#808080" begin="zoomplus.mouseover" end="zoomplus.mouseout"/></use>
    <path d="M-4,0h8M0,-4v8" fill="none" stroke="white" stroke-width="1.5" pointer-events="none"/>
  </g>
  <g id="zoomMin">
    <use xlink:href="#rim" fill="#404040"><set attributeName="fill" to="#808080" begin="zoomminus.mouseover" end="zoomminus.mouseout"/></use>
    <path d="M-4,0h8" fill="none" stroke="white" stroke-width="1.5" pointer-events="none"/>
  </g>
  <g id="arrowUp" transform="translate(30 24)">
    <use xlink:href="#rim"/>
    <path pointer-events="none" fill="none" stroke="white" stroke-width="1.5" d="M0,-3.0v7 M-2.5,-0.5L0,-3.0L2.5,-0.5"/>
  </g>
  <g id="arrowRight" transform="rotate(90) translate(36 -43)">
    <use xlink:href="#rim"/>
    <path pointer-events="none" fill="none" stroke="white" stroke-width="1.5" d="M0,-3.0v7 M-2.5,-0.5L0,-3.0L2.5,-0.5"/>
  </g>
  <g id="arrowDown" transform="rotate(180) translate(-30 -48)">
    <use xlink:href="#rim"/>
    <path pointer-events="none" fill="none" stroke="white" stroke-width="1.5" d="M0,-3.0v7 M-2.5,-0.5L0,-3.0L2.5,-0.5"/>
  </g>
  <g id="arrowLeft" transform="rotate(270) translate(-36 17)">
    <use xlink:href="#rim"/>
    <path pointer-events="none" fill="none" stroke="white" stroke-width="1.5" d="M0,-3.0v7 M-2.5,-0.5L0,-3.0L2.5,-0.5"/>
  </g>
  <g id="resetDef">
    <use xlink:href="#rim2" fill="#404040"><set attributeName="fill" to="#808080" begin="reset.mouseover" end="reset.mouseout"/></use>
  </g>
</defs>
<script type="application/ecmascript">
var viewWidth = 817;
var viewHeight = 882;
var sectionId = 'dynsection-26';
</script>
<script type="application/ecmascript" xlink:href="svg.min.js"/>
<svg id="graph" class="graph">
<g id="viewport">
<title>ConsoleRenderer::render</title>
<!-- Node1 -->
<g id="Node000001" class="node">
<title>Node1</title>
<g id="a_Node000001"><a xlink:title="Renders the game world to console.">
<polygon fill="#999999" stroke="#666666" points="137,-439 0,-439 0,-420 137,-420 137,-439"/>
<text text-anchor="middle" x="68.5" y="-427" font-family="Helvetica,sans-Serif" font-size="10.00">ConsoleRenderer::render</text>
</a>
</g>
</g>
<!-- Node2 -->
<g id="Node000002" class="node">
<title>Node2</title>
<g id="a_Node000002"><a xlink:href="classConsoleRenderer.html#a209136c99544bd8fa46cc9860cedab1c" target="_top" xlink:title="Calculates horizontal offset to center content based on terminal width.">
<polygon fill="white" stroke="#666666" points="582,-717.5 432,-717.5 432,-687.5 582,-687.5 582,-717.5"/>
<text text-anchor="start" x="440" y="-705.5" font-family="Helvetica,sans-Serif" font-size="10.00">ConsoleRenderer::calculate</text>
<text text-anchor="middle" x="507" y="-694.5" font-family="Helvetica,sans-Serif" font-size="10.00">HorizontalOffset</text>
</a>
</g>
</g>
<!-- Node1&#45;&gt;Node2 -->
<g id="edge1_Node000001_Node000002" class="edge">
<title>Node1&#45;&gt;Node2</title>
<g id="a_edge1_Node000001_Node000002"><a xlink:title=" ">
<path fill="none" stroke="#63b8ff" d="M70.17,-439.18C73.34,-477.01 90.44,-615.72 173,-675.5 211.32,-703.24 336,-706.59 421.44,-705.37"/>
<polygon fill="#63b8ff" stroke="#63b8ff" points="421.71,-708.87 431.65,-705.2 421.59,-701.87 421.71,-708.87"/>
</a>
</g>
</g>
<!-- Node3 -->
<g id="Node000003" class="node">
<title>Node3</title>
<g id="a_Node000003"><a xlink:href="classConsoleRenderer.html#a9576db66ee7dc8d9fdec36f0181b9a12" target="_top" xlink:title="Checks if terminal size meets requirements.">
<polygon fill="white" stroke="#666666" points="370,-874 173,-874 173,-855 370,-855 370,-874"/>
<text text-anchor="middle" x="271.5" y="-862" font-family="Helvetica,sans-Serif" font-size="10.00">ConsoleRenderer::checkTerminalSize</text>
</a>
</g>
</g>
<!-- Node1&#45;&gt;Node3 -->
<g id="edge2_Node000001_Node000003" class="edge">
<title>Node1&#45;&gt;Node3</title>
<g id="a_edge2_Node000001_Node000003"><a xlink:title=" ">
<path fill="none" stroke="#63b8ff" d="M70.59,-439.14C77.11,-495.39 112.88,-780.7 173,-840.5 176.77,-844.25 181.02,-847.44 185.58,-850.16"/>
<polygon fill="#63b8ff" stroke="#63b8ff" points="184.21,-853.39 194.71,-854.83 187.4,-847.16 184.21,-853.39"/>
</a>
</g>
</g>
<!-- Node6 -->
<g id="Node000006" class="node">
<title>Node6</title>
<g id="a_Node000006"><a xlink:href="classConsoleRenderer.html#a041e99f6c0427c254b0349b57fbe2a84" target="_top" xlink:title="Clears the terminal screen.">
<polygon fill="white" stroke="#666666" points="588.5,-814 425.5,-814 425.5,-795 588.5,-795 588.5,-814"/>
<text text-anchor="middle" x="507" y="-802" font-family="Helvetica,sans-Serif" font-size="10.00">ConsoleRenderer::clearScreen</text>
</a>
</g>
</g>
<!-- Node1&#45;&gt;Node6 -->
<g id="edge5_Node000001_Node000006" class="edge">
<title>Node1&#45;&gt;Node6</title>
<g id="a_edge5_Node000001_Node000006"><a xlink:title=" ">
<path fill="none" stroke="#63b8ff" d="M70.6,-439.29C76.97,-493.9 110.93,-760.14 173,-807.5 212.18,-837.4 346.88,-826.14 432.49,-815.29"/>
<polygon fill="#63b8ff" stroke="#63b8ff" points="432.95,-818.75 442.42,-814 432.05,-811.81 432.95,-818.75"/>
</a>
</g>
</g>
<!-- Node8 -->
<g id="Node000008" class="node">
<title>Node8</title>
<g id="a_Node000008"><a xlink:href="classConsoleRenderer.html#ae53c0928ccdb899f11bc74868141c18b" target="_top" xlink:title="Draws screen border.">
<polygon fill="white" stroke="#666666" points="352.5,-750 190.5,-750 190.5,-731 352.5,-731 352.5,-750"/>
<text text-anchor="middle" x="271.5" y="-738" font-family="Helvetica,sans-Serif" font-size="10.00">ConsoleRenderer::drawBorder</text>
</a>
</g>
</g>
<!-- Node1&#45;&gt;Node8 -->
<g id="edge7_Node000001_Node000008" class="edge">
<title>Node1&#45;&gt;Node8</title>
<g id="a_edge7_Node000001_Node000008"><a xlink:title=" ">
<path fill="none" stroke="#63b8ff" d="M69.87,-439.18C71.95,-479.77 85.61,-637.82 173,-716.5 177.4,-720.46 182.35,-723.79 187.62,-726.59"/>
<polygon fill="#63b8ff" stroke="#63b8ff" points="186.21,-729.8 196.76,-730.82 189.15,-723.45 186.21,-729.8"/>
</a>
</g>
</g>
<!-- Node9 -->
<g id="Node000009" class="node">
<title>Node9</title>
<g id="a_Node000009"><a xlink:href="classConsoleRenderer.html#af59760cefd8647cf4b6fe34774cac2c1" target="_top" xlink:title="Draws an error message about terminal size.">
<polygon fill="white" stroke="#666666" points="348,-798.5 195,-798.5 195,-768.5 348,-768.5 348,-798.5"/>
<text text-anchor="start" x="203" y="-786.5" font-family="Helvetica,sans-Serif" font-size="10.00">ConsoleRenderer::drawError</text>
<text text-anchor="middle" x="271.5" y="-775.5" font-family="Helvetica,sans-Serif" font-size="10.00">Message</text>
</a>
</g>
</g>
<!-- Node1&#45;&gt;Node9 -->
<g id="edge8_Node000001_Node000009" class="edge">
<title>Node1&#45;&gt;Node9</title>
<g id="a_edge8_Node000001_Node000009"><a xlink:title=" ">
<path fill="none" stroke="#63b8ff" d="M69.35,-439.07C69.22,-483 74.75,-667.21 173,-759.5 176.79,-763.06 181.03,-766.12 185.55,-768.75"/>
<polygon fill="#63b8ff" stroke="#63b8ff" points="184.05,-771.91 194.56,-773.27 187.2,-765.66 184.05,-771.91"/>
</a>
</g>
</g>
<!-- Node10 -->
<g id="Node000010" class="node">
<title>Node10</title>
<g id="a_Node000010"><a xlink:href="classConsoleRenderer.html#ae0a5ec8d9b0ab1252c3a8a9eae7bceaa" target="_top" xlink:title="Draws symbol legend explaining game symbols.">
<polygon fill="white" stroke="#666666" points="355,-636.5 188,-636.5 188,-606.5 355,-606.5 355,-636.5"/>
<text text-anchor="start" x="196" y="-624.5" font-family="Helvetica,sans-Serif" font-size="10.00">ConsoleRenderer::drawSymbol</text>
<text text-anchor="middle" x="271.5" y="-613.5" font-family="Helvetica,sans-Serif" font-size="10.00">Legend</text>
</a>
</g>
</g>
<!-- Node1&#45;&gt;Node10 -->
<g id="edge11_Node000001_Node000010" class="edge">
<title>Node1&#45;&gt;Node10</title>
<g id="a_edge11_Node000001_Node000010"><a xlink:title=" ">
<path fill="none" stroke="#63b8ff" d="M72.88,-439.29C83.17,-467.56 116.84,-550.06 173,-592.5 177.83,-596.15 183.11,-599.34 188.64,-602.13"/>
<polygon fill="#63b8ff" stroke="#63b8ff" points="187.59,-605.5 198.14,-606.46 190.5,-599.13 187.59,-605.5"/>
</a>
</g>
</g>
<!-- Node11 -->
<g id="Node000011" class="node">
<title>Node11</title>
<g id="a_Node000011"><a xlink:href="ConsoleRenderer_8cpp.html#a279be60aa96dcc35cae7933c2617f6d6" target="_top" xlink:title=" ">
<polygon fill="white" stroke="#666666" points="555,-650 459,-650 459,-631 555,-631 555,-650"/>
<text text-anchor="middle" x="507" y="-638" font-family="Helvetica,sans-Serif" font-size="10.00">getGraphicsMap</text>
</a>
</g>
</g>
<!-- Node1&#45;&gt;Node11 -->
<g id="edge20_Node000001_Node000011" class="edge">
<title>Node1&#45;&gt;Node11</title>
<g id="a_edge20_Node000001_Node000011"><a xlink:title=" ">
<path fill="none" stroke="#63b8ff" d="M70.59,-439.17C75.17,-474.53 96.29,-597.2 173,-645.5 265.65,-703.84 403.44,-673.14 468.9,-653.2"/>
<polygon fill="#63b8ff" stroke="#63b8ff" points="470.27,-656.44 478.76,-650.1 468.17,-649.76 470.27,-656.44"/>
</a>
</g>
</g>
<!-- Node12 -->
<g id="Node000012" class="node">
<title>Node12</title>
<g id="a_Node000012"><a xlink:href="classPlatformUtils.html#a964fb97fe6351330adbcf813a9706eb6" target="_top" xlink:title="Checks if terminal supports Unicode.">
<polygon fill="white" stroke="#666666" points="591.5,-600 422.5,-600 422.5,-581 591.5,-581 591.5,-600"/>
<text text-anchor="middle" x="507" y="-588" font-family="Helvetica,sans-Serif" font-size="10.00">PlatformUtils::supportsUnicode</text>
</a>
</g>
</g>
<!-- Node1&#45;&gt;Node12 -->
<g id="edge34_Node000001_Node000012" class="edge">
<title>Node1&#45;&gt;Node12</title>
<g id="a_edge34_Node000001_Node000012"><a xlink:title=" ">
<path fill="none" stroke="#63b8ff" d="M73.82,-439.21C85.56,-464.28 120.72,-531.24 173,-559.5 212.94,-581.09 328.36,-587.87 412.13,-589.88"/>
<polygon fill="#63b8ff" stroke="#63b8ff" points="412.11,-593.38 422.18,-590.1 412.26,-586.38 412.11,-593.38"/>
</a>
</g>
</g>
<!-- Node13 -->
<g id="Node000013" class="node">
<title>Node13</title>
<g id="a_Node000013"><a xlink:href="classTank.html#adb4ee907d4e3e2fe770fbbc825815b89" target="_top" xlink:title="Gets maximum remaining bonus duration.">
<polygon fill="white" stroke="#666666" points="338,-550 205,-550 205,-531 338,-531 338,-550"/>
<text text-anchor="middle" x="271.5" y="-538" font-family="Helvetica,sans-Serif" font-size="10.00">Tank::getBonusDuration</text>
</a>
</g>
</g>
<!-- Node1&#45;&gt;Node13 -->
<g id="edge15_Node000001_Node000013" class="edge">
<title>Node1&#45;&gt;Node13</title>
<g id="a_edge15_Node000001_Node000013"><a xlink:title=" ">
<path fill="none" stroke="#63b8ff" d="M77.13,-439.28C92.81,-458.63 130.73,-501.7 173,-522.5 179.95,-525.92 187.47,-528.69 195.14,-530.94"/>
<polygon fill="#63b8ff" stroke="#63b8ff" points="194.35,-534.35 204.91,-533.52 196.14,-527.59 194.35,-534.35"/>
</a>
</g>
</g>
<!-- Node14 -->
<g id="Node000014" class="node">
<title>Node14</title>
<g id="a_Node000014"><a xlink:href="classGameWorld.html#a8ccfe5d146791d20012d963e01262163" target="_top" xlink:title="Gets all active bonuses.">
<polygon fill="white" stroke="#666666" points="340,-513 203,-513 203,-494 340,-494 340,-513"/>
<text text-anchor="middle" x="271.5" y="-501" font-family="Helvetica,sans-Serif" font-size="10.00">GameWorld::getBonuses</text>
</a>
</g>
</g>
<!-- Node1&#45;&gt;Node14 -->
<g id="edge16_Node000001_Node000014" class="edge">
<title>Node1&#45;&gt;Node14</title>
<g id="a_edge16_Node000001_Node000014"><a xlink:title=" ">
<path fill="none" stroke="#63b8ff" d="M83.9,-439.2C103.3,-451.8 139.28,-473.6 173,-485.5 179.49,-487.79 186.33,-489.8 193.25,-491.57"/>
<polygon fill="#63b8ff" stroke="#63b8ff" points="192.89,-495.08 203.42,-493.99 194.5,-488.27 192.89,-495.08"/>
</a>
</g>
</g>
<!-- Node15 -->
<g id="Node000015" class="node">
<title>Node15</title>
<g id="a_Node000015"><a xlink:href="classGameWorld.html#ad9ff37f139acbfdc8db505d1d89d7979" target="_top" xlink:title="Gets current level number.">
<polygon fill="white" stroke="#666666" points="350.5,-476 192.5,-476 192.5,-457 350.5,-457 350.5,-476"/>
<text text-anchor="middle" x="271.5" y="-464" font-family="Helvetica,sans-Serif" font-size="10.00">GameWorld::getCurrentLevel</text>
</a>
</g>
</g>
<!-- Node1&#45;&gt;Node15 -->
<g id="edge17_Node000001_Node000015" class="edge">
<title>Node1&#45;&gt;Node15</title>
<g id="a_edge17_Node000001_Node000015"><a xlink:title=" ">
<path fill="none" stroke="#63b8ff" d="M121.26,-439.03C147.89,-443.93 180.53,-449.94 208.49,-455.09"/>
<polygon fill="#63b8ff" stroke="#63b8ff" points="208.1,-458.57 218.56,-456.94 209.36,-451.69 208.1,-458.57"/>
</a>
</g>
</g>
<!-- Node16 -->
<g id="Node000016" class="node">
<title>Node16</title>
<g id="a_Node000016"><a xlink:href="classTank.html#a41a3b155f539a9bb0fa12798b26cb340" target="_top" xlink:title="Checks if double fire is active.">
<polygon fill="white" stroke="#666666" points="328,-439 215,-439 215,-420 328,-420 328,-439"/>
<text text-anchor="middle" x="271.5" y="-427" font-family="Helvetica,sans-Serif" font-size="10.00">Tank::getDoubleFire</text>
</a>
</g>
</g>
<!-- Node1&#45;&gt;Node16 -->
<g id="edge18_Node000001_Node000016" class="edge">
<title>Node1&#45;&gt;Node16</title>
<g id="a_edge18_Node000001_Node000016"><a xlink:title=" ">
<path fill="none" stroke="#63b8ff" d="M137.27,-429.5C159.01,-429.5 183.05,-429.5 204.66,-429.5"/>
<polygon fill="#63b8ff" stroke="#63b8ff" points="204.72,-433 214.72,-429.5 204.72,-426 204.72,-433"/>
</a>
</g>
</g>
<!-- Node17 -->
<g id="Node000017" class="node">
<title>Node17</title>
<g id="a_Node000017"><a xlink:href="classGameWorld.html#af85d8105e2c2048f51a8587db0938be8" target="_top" xlink:title="Gets all active explosions.">
<polygon fill="white" stroke="#666666" points="345.5,-402 197.5,-402 197.5,-383 345.5,-383 345.5,-402"/>
<text text-anchor="middle" x="271.5" y="-390" font-family="Helvetica,sans-Serif" font-size="10.00">GameWorld::getExplosions</text>
</a>
</g>
</g>
<!-- Node1&#45;&gt;Node17 -->
<g id="edge19_Node000001_Node000017" class="edge">
<title>Node1&#45;&gt;Node17</title>
<g id="a_edge19_Node000001_Node000017"><a xlink:title=" ">
<path fill="none" stroke="#63b8ff" d="M121.26,-419.97C147.89,-415.07 180.53,-409.06 208.49,-403.91"/>
<polygon fill="#63b8ff" stroke="#63b8ff" points="209.36,-407.31 218.56,-402.06 208.1,-400.43 209.36,-407.31"/>
</a>
</g>
</g>
<!-- Node18 -->
<g id="Node000018" class="node">
<title>Node18</title>
<g id="a_Node000018"><a xlink:href="classTank.html#a7ae1ea6c5725d624fbf210019e8d8dc1" target="_top" xlink:title="Checks if tank has active shield.">
<polygon fill="white" stroke="#666666" points="326.5,-365 216.5,-365 216.5,-346 326.5,-346 326.5,-365"/>
<text text-anchor="middle" x="271.5" y="-353" font-family="Helvetica,sans-Serif" font-size="10.00">Tank::getHasShield</text>
</a>
</g>
</g>
<!-- Node1&#45;&gt;Node18 -->
<g id="edge21_Node000001_Node000018" class="edge">
<title>Node1&#45;&gt;Node18</title>
<g id="a_edge21_Node000001_Node000018"><a xlink:title=" ">
<path fill="none" stroke="#63b8ff" d="M84.28,-419.83C103.81,-407.48 139.63,-386.32 173,-374.5 183.62,-370.74 195.18,-367.66 206.49,-365.16"/>
<polygon fill="#63b8ff" stroke="#63b8ff" points="207.27,-368.57 216.35,-363.1 205.85,-361.72 207.27,-368.57"/>
</a>
</g>
</g>
<!-- Node19 -->
<g id="Node000019" class="node">
<title>Node19</title>
<g id="a_Node000019"><a xlink:href="classGameObject.html#aef9f45389e1ce2fe2260bcfd2c84c16a" target="_top" xlink:title="Gets current health points.">
<polygon fill="white" stroke="#666666" points="337,-328 206,-328 206,-309 337,-309 337,-328"/>
<text text-anchor="middle" x="271.5" y="-316" font-family="Helvetica,sans-Serif" font-size="10.00">GameObject::getHealth</text>
</a>
</g>
</g>
<!-- Node1&#45;&gt;Node19 -->
<g id="edge22_Node000001_Node000019" class="edge">
<title>Node1&#45;&gt;Node19</title>
<g id="a_edge22_Node000001_Node000019"><a xlink:title=" ">
<path fill="none" stroke="#63b8ff" d="M77.17,-419.86C92.92,-400.79 130.98,-358.29 173,-337.5 180.25,-333.91 188.12,-331 196.14,-328.64"/>
<polygon fill="#63b8ff" stroke="#63b8ff" points="197.2,-331.98 205.96,-326.02 195.39,-325.21 197.2,-331.98"/>
</a>
</g>
</g>
<!-- Node20 -->
<g id="Node000020" class="node">
<title>Node20</title>
<g id="a_Node000020"><a xlink:href="classPlayerTank.html#a8e48786bd674e0a64713a2fd8786fc41" target="_top" xlink:title="Gets number of remaining lives.">
<polygon fill="white" stroke="#666666" points="330,-291 213,-291 213,-272 330,-272 330,-291"/>
<text text-anchor="middle" x="271.5" y="-279" font-family="Helvetica,sans-Serif" font-size="10.00">PlayerTank::getLives</text>
</a>
</g>
</g>
<!-- Node1&#45;&gt;Node20 -->
<g id="edge23_Node000001_Node000020" class="edge">
<title>Node1&#45;&gt;Node20</title>
<g id="a_edge23_Node000001_Node000020"><a xlink:title=" ">
<path fill="none" stroke="#63b8ff" d="M74.19,-419.81C86.56,-395.35 122.62,-330.94 173,-300.5 182.06,-295.03 192.38,-291.08 202.84,-288.25"/>
<polygon fill="#63b8ff" stroke="#63b8ff" points="203.95,-291.59 212.87,-285.87 202.33,-284.78 203.95,-291.59"/>
</a>
</g>
</g>
<!-- Node21 -->
<g id="Node000021" class="node">
<title>Node21</title>
<g id="a_Node000021"><a xlink:href="classGameWorld.html#aeb0de8b4054d1ab65b71436966d1a01d" target="_top" xlink:title="Gets all game objects.">
<polygon fill="white" stroke="#666666" points="337.5,-254 205.5,-254 205.5,-235 337.5,-235 337.5,-254"/>
<text text-anchor="middle" x="271.5" y="-242" font-family="Helvetica,sans-Serif" font-size="10.00">GameWorld::getObjects</text>
</a>
</g>
</g>
<!-- Node1&#45;&gt;Node21 -->
<g id="edge24_Node000001_Node000021" class="edge">
<title>Node1&#45;&gt;Node21</title>
<g id="a_edge24_Node000001_Node000021"><a xlink:title=" ">
<path fill="none" stroke="#63b8ff" d="M72.5,-419.68C81.94,-390.55 113.97,-304.13 173,-263.5 179.89,-258.76 187.67,-255.13 195.76,-252.36"/>
<polygon fill="#63b8ff" stroke="#63b8ff" points="196.78,-255.71 205.36,-249.5 194.77,-249 196.78,-255.71"/>
</a>
</g>
</g>
<!-- Node22 -->
<g id="Node000022" class="node">
<title>Node22</title>
<g id="a_Node000022"><a xlink:href="classGameWorld.html#af726f3547318b0ebae1bb8713611b0ab" target="_top" xlink:title="Gets pointer to player tank.">
<polygon fill="white" stroke="#666666" points="334.5,-217 208.5,-217 208.5,-198 334.5,-198 334.5,-217"/>
<text text-anchor="middle" x="271.5" y="-205" font-family="Helvetica,sans-Serif" font-size="10.00">GameWorld::getPlayer</text>
</a>
</g>
</g>
<!-- Node1&#45;&gt;Node22 -->
<g id="edge25_Node000001_Node000022" class="edge">
<title>Node1&#45;&gt;Node22</title>
<g id="a_edge25_Node000001_Node000022"><a xlink:title=" ">
<path fill="none" stroke="#63b8ff" d="M71.29,-419.95C77.99,-387.09 104.76,-277.93 173,-226.5 180.61,-220.76 189.49,-216.61 198.72,-213.64"/>
<polygon fill="#63b8ff" stroke="#63b8ff" points="199.74,-216.99 208.44,-210.95 197.87,-210.25 199.74,-216.99"/>
</a>
</g>
</g>
<!-- Node23 -->
<g id="Node000023" class="node">
<title>Node23</title>
<g id="a_Node000023"><a xlink:href="classGameWorld.html#a7b7eb39217a9ca7e8686781766fa982b" target="_top" xlink:title="Gets all active projectiles.">
<polygon fill="white" stroke="#666666" points="344.5,-180 198.5,-180 198.5,-161 344.5,-161 344.5,-180"/>
<text text-anchor="middle" x="271.5" y="-168" font-family="Helvetica,sans-Serif" font-size="10.00">GameWorld::getProjectiles</text>
</a>
</g>
</g>
<!-- Node1&#45;&gt;Node23 -->
<g id="edge26_Node000001_Node000023" class="edge">
<title>Node1&#45;&gt;Node23</title>
<g id="a_edge26_Node000001_Node000023"><a xlink:title=" ">
<path fill="none" stroke="#63b8ff" d="M70.51,-419.82C74.88,-383.16 95.61,-251.83 173,-189.5 177.73,-185.69 183.01,-182.57 188.59,-180.02"/>
<polygon fill="#63b8ff" stroke="#63b8ff" points="190.19,-183.15 198.23,-176.24 187.64,-176.63 190.19,-183.15"/>
</a>
</g>
</g>
<!-- Node24 -->
<g id="Node000024" class="node">
<title>Node24</title>
<g id="a_Node000024"><a xlink:href="classPlayerTank.html#ac650158a9f0f60fb07a410fca2cee03f" target="_top" xlink:title="Gets current player score.">
<polygon fill="white" stroke="#666666" points="331,-143 212,-143 212,-124 331,-124 331,-143"/>
<text text-anchor="middle" x="271.5" y="-131" font-family="Helvetica,sans-Serif" font-size="10.00">PlayerTank::getScore</text>
</a>
</g>
</g>
<!-- Node1&#45;&gt;Node24 -->
<g id="edge27_Node000001_Node000024" class="edge">
<title>Node1&#45;&gt;Node24</title>
<g id="a_edge27_Node000001_Node000024"><a xlink:title=" ">
<path fill="none" stroke="#63b8ff" d="M69.91,-419.77C72.13,-379.68 86.24,-226 173,-152.5 181.31,-145.46 191.46,-140.74 202.03,-137.62"/>
<polygon fill="#63b8ff" stroke="#63b8ff" points="202.95,-140.99 211.81,-135.18 201.26,-134.2 202.95,-140.99"/>
</a>
</g>
</g>
<!-- Node25 -->
<g id="Node000025" class="node">
<title>Node25</title>
<g id="a_Node000025"><a xlink:href="classGameWorld.html#a8c0869284a43dbe64a93aca4d71a3415" target="_top" xlink:title="Checks if damage flash effect is active.">
<polygon fill="white" stroke="#666666" points="349,-105.5 194,-105.5 194,-75.5 349,-75.5 349,-105.5"/>
<text text-anchor="start" x="202" y="-93.5" font-family="Helvetica,sans-Serif" font-size="10.00">GameWorld::isDamageFlash</text>
<text text-anchor="middle" x="271.5" y="-82.5" font-family="Helvetica,sans-Serif" font-size="10.00">Active</text>
</a>
</g>
</g>
<!-- Node1&#45;&gt;Node25 -->
<g id="edge28_Node000001_Node000025" class="edge">
<title>Node1&#45;&gt;Node25</title>
<g id="a_edge28_Node000001_Node000025"><a xlink:title=" ">
<path fill="none" stroke="#63b8ff" d="M69.55,-419.84C70.32,-377.08 79.28,-203.1 173,-115.5 176.56,-112.17 180.51,-109.27 184.71,-106.74"/>
<polygon fill="#63b8ff" stroke="#63b8ff" points="186.41,-109.8 193.65,-102.07 183.17,-103.6 186.41,-109.8"/>
</a>
</g>
</g>
<!-- Node26 -->
<g id="Node000026" class="node">
<title>Node26</title>
<g id="a_Node000026"><a xlink:href="classConsoleRenderer.html#a39097953ecd72be19860424c9d00b0ea" target="_top" xlink:title="Resets terminal color to default.">
<polygon fill="white" stroke="#666666" points="349.5,-19 193.5,-19 193.5,0 349.5,0 349.5,-19"/>
<text text-anchor="middle" x="271.5" y="-7" font-family="Helvetica,sans-Serif" font-size="10.00">ConsoleRenderer::resetColor</text>
</a>
</g>
</g>
<!-- Node1&#45;&gt;Node26 -->
<g id="edge29_Node000001_Node000026" class="edge">
<title>Node1&#45;&gt;Node26</title>
<g id="a_edge29_Node000001_Node000026"><a xlink:title=" ">
<path fill="none" stroke="#63b8ff" d="M70.69,-419.85C77.63,-364.8 114.81,-90.87 173,-33.5 176.96,-29.6 181.44,-26.3 186.26,-23.51"/>
<polygon fill="#63b8ff" stroke="#63b8ff" points="187.87,-26.62 195.25,-19.01 184.74,-20.35 187.87,-26.62"/>
</a>
</g>
</g>
<!-- Node29 -->
<g id="Node000029" class="node">
<title>Node29</title>
<g id="a_Node000029"><a xlink:href="classConsoleRenderer.html#af06444dbf726424a13127fd4f3a70a8d" target="_top" xlink:title="Sets terminal text color.">
<polygon fill="white" stroke="#666666" points="580,-57 434,-57 434,-38 580,-38 580,-57"/>
<text text-anchor="middle" x="507" y="-45" font-family="Helvetica,sans-Serif" font-size="10.00">ConsoleRenderer::setColor</text>
</a>
</g>
</g>
<!-- Node1&#45;&gt;Node29 -->
<g id="edge32_Node000001_Node000029" class="edge">
<title>Node1&#45;&gt;Node29</title>
<g id="a_edge32_Node000001_Node000029"><a xlink:title=" ">
<path fill="none" stroke="#63b8ff" d="M70.76,-419.8C77.82,-366.86 114.42,-113.39 173,-66.5 210.29,-36.65 337.8,-37.38 423.77,-41.68"/>
<polygon fill="#63b8ff" stroke="#63b8ff" points="423.61,-45.17 433.78,-42.2 423.98,-38.18 423.61,-45.17"/>
</a>
</g>
</g>
<!-- Node4 -->
<g id="Node000004" class="node">
<title>Node4</title>
<g id="a_Node000004"><a xlink:href="classConsoleRenderer.html#aae418386985b5ad1286af9cb8a7726c9" target="_top" xlink:title="Updates terminal size information.">
<polygon fill="white" stroke="#666666" points="608,-874 406,-874 406,-855 608,-855 608,-874"/>
<text text-anchor="middle" x="507" y="-862" font-family="Helvetica,sans-Serif" font-size="10.00">ConsoleRenderer::updateTerminalSize</text>
</a>
</g>
</g>
<!-- Node3&#45;&gt;Node4 -->
<g id="edge3_Node000003_Node000004" class="edge">
<title>Node3&#45;&gt;Node4</title>
<g id="a_edge3_Node000003_Node000004"><a xlink:title=" ">
<path fill="none" stroke="#63b8ff" d="M370.17,-864.5C378.52,-864.5 387.01,-864.5 395.45,-864.5"/>
<polygon fill="#63b8ff" stroke="#63b8ff" points="395.72,-868 405.72,-864.5 395.72,-861 395.72,-868"/>
</a>
</g>
</g>
<!-- Node5 -->
<g id="Node000005" class="node">
<title>Node5</title>
<g id="a_Node000005"><a xlink:href="classPlatformUtils.html#a9fb2159f36325087d8c93e7937d6da0b" target="_top" xlink:title="Gets current terminal dimensions.">
<polygon fill="white" stroke="#666666" points="809,-874 644,-874 644,-855 809,-855 809,-874"/>
<text text-anchor="middle" x="726.5" y="-862" font-family="Helvetica,sans-Serif" font-size="10.00">PlatformUtils::getTerminalSize</text>
</a>
</g>
</g>
<!-- Node4&#45;&gt;Node5 -->
<g id="edge4_Node000004_Node000005" class="edge">
<title>Node4&#45;&gt;Node5</title>
<g id="a_edge4_Node000004_Node000005"><a xlink:title=" ">
<path fill="none" stroke="#63b8ff" d="M608.16,-864.5C616.64,-864.5 625.19,-864.5 633.6,-864.5"/>
<polygon fill="#63b8ff" stroke="#63b8ff" points="633.78,-868 643.78,-864.5 633.78,-861 633.78,-868"/>
</a>
</g>
</g>
<!-- Node7 -->
<g id="Node000007" class="node">
<title>Node7</title>
<g id="a_Node000007"><a xlink:href="classPlatformUtils.html#acddd420e3f04cd70a8932b5472fce01d" target="_top" xlink:title="Clears the terminal screen.">
<polygon fill="white" stroke="#666666" points="798.5,-814 654.5,-814 654.5,-795 798.5,-795 798.5,-814"/>
<text text-anchor="middle" x="726.5" y="-802" font-family="Helvetica,sans-Serif" font-size="10.00">PlatformUtils::clearScreen</text>
</a>
</g>
</g>
<!-- Node6&#45;&gt;Node7 -->
<g id="edge6_Node000006_Node000007" class="edge">
<title>Node6&#45;&gt;Node7</title>
<g id="a_edge6_Node000006_Node000007"><a xlink:title=" ">
<path fill="none" stroke="#63b8ff" d="M588.68,-804.5C606.75,-804.5 625.94,-804.5 644.04,-804.5"/>
<polygon fill="#63b8ff" stroke="#63b8ff" points="644.26,-808 654.26,-804.5 644.26,-801 644.26,-808"/>
</a>
</g>
</g>
<!-- Node9&#45;&gt;Node2 -->
<g id="edge9_Node000009_Node000002" class="edge">
<title>Node9&#45;&gt;Node2</title>
<g id="a_edge9_Node000009_Node000002"><a xlink:title=" ">
<path fill="none" stroke="#63b8ff" d="M339.5,-768.47C349.79,-765.74 360.23,-762.73 370,-759.5 402.47,-748.77 438.09,-733.72 464.73,-721.77"/>
<polygon fill="#63b8ff" stroke="#63b8ff" points="466.44,-724.84 474.11,-717.53 463.56,-718.46 466.44,-724.84"/>
</a>
</g>
</g>
<!-- Node9&#45;&gt;Node6 -->
<g id="edge10_Node000009_Node000006" class="edge">
<title>Node9&#45;&gt;Node6</title>
<g id="a_edge10_Node000009_Node000006"><a xlink:title=" ">
<path fill="none" stroke="#63b8ff" d="M348.31,-790.32C369.67,-792.24 393.13,-794.35 415.27,-796.34"/>
<polygon fill="#63b8ff" stroke="#63b8ff" points="415.07,-799.84 425.34,-797.25 415.7,-792.86 415.07,-799.84"/>
</a>
</g>
</g>
<!-- Node10&#45;&gt;Node2 -->
<g id="edge12_Node000010_Node000002" class="edge">
<title>Node10&#45;&gt;Node2</title>
<g id="a_edge12_Node000010_Node000002"><a xlink:title=" ">
<path fill="none" stroke="#63b8ff" d="M315.87,-636.55C354.58,-649.97 411.38,-669.68 452.81,-684.05"/>
<polygon fill="#63b8ff" stroke="#63b8ff" points="451.87,-687.43 462.46,-687.4 454.16,-680.81 451.87,-687.43"/>
</a>
</g>
</g>
<!-- Node10&#45;&gt;Node11 -->
<g id="edge13_Node000010_Node000011" class="edge">
<title>Node10&#45;&gt;Node11</title>
<g id="a_edge13_Node000010_Node000011"><a xlink:title=" ">
<path fill="none" stroke="#63b8ff" d="M355.15,-628.23C386.12,-630.74 420.59,-633.55 448.75,-635.84"/>
<polygon fill="#63b8ff" stroke="#63b8ff" points="448.57,-639.34 458.83,-636.66 449.14,-632.36 448.57,-639.34"/>
</a>
</g>
</g>
<!-- Node10&#45;&gt;Node12 -->
<g id="edge14_Node000010_Node000012" class="edge">
<title>Node10&#45;&gt;Node12</title>
<g id="a_edge14_Node000010_Node000012"><a xlink:title=" ">
<path fill="none" stroke="#63b8ff" d="M355.15,-610.53C377.56,-607.55 401.81,-604.33 424.18,-601.36"/>
<polygon fill="#63b8ff" stroke="#63b8ff" points="424.86,-604.8 434.31,-600.02 423.94,-597.86 424.86,-604.8"/>
</a>
</g>
</g>
<!-- Node27 -->
<g id="Node000027" class="node">
<title>Node27</title>
<g id="a_Node000027"><a xlink:href="classPlatformUtils.html#ae3607ef4c4fbee33349ec982eda7bf07" target="_top" xlink:title="Resets terminal color to default.">
<polygon fill="white" stroke="#666666" points="575.5,-20 438.5,-20 438.5,-1 575.5,-1 575.5,-20"/>
<text text-anchor="middle" x="507" y="-8" font-family="Helvetica,sans-Serif" font-size="10.00">PlatformUtils::resetColor</text>
</a>
</g>
</g>
<!-- Node26&#45;&gt;Node27 -->
<g id="edge30_Node000026_Node000027" class="edge">
<title>Node26&#45;&gt;Node27</title>
<g id="a_edge30_Node000026_Node000027"><a xlink:title=" ">
<path fill="none" stroke="#63b8ff" d="M349.6,-9.83C374.82,-9.94 402.84,-10.06 428.12,-10.17"/>
<polygon fill="#63b8ff" stroke="#63b8ff" points="428.38,-13.67 438.39,-10.21 428.41,-6.67 428.38,-13.67"/>
</a>
</g>
</g>
<!-- Node28 -->
<g id="Node000028" class="node">
<title>Node28</title>
<g id="a_Node000028"><a xlink:href="classPlatformUtils.html#a48de38e18726881bbe61e398ebabb97e" target="_top" xlink:title="Sets terminal text color.">
<polygon fill="white" stroke="#666666" points="790.5,-39 662.5,-39 662.5,-20 790.5,-20 790.5,-39"/>
<text text-anchor="middle" x="726.5" y="-27" font-family="Helvetica,sans-Serif" font-size="10.00">PlatformUtils::setColor</text>
</a>
</g>
</g>
<!-- Node27&#45;&gt;Node28 -->
<g id="edge31_Node000027_Node000028" class="edge">
<title>Node27&#45;&gt;Node28</title>
<g id="a_edge31_Node000027_Node000028"><a xlink:title=" ">
<path fill="none" stroke="#63b8ff" d="M575.63,-16.41C599.96,-18.53 627.51,-20.94 652.3,-23.11"/>
<polygon fill="#63b8ff" stroke="#63b8ff" points="652.1,-26.6 662.37,-23.98 652.71,-19.63 652.1,-26.6"/>
</a>
</g>
</g>
<!-- Node29&#45;&gt;Node28 -->
<g id="edge33_Node000029_Node000028" class="edge">
<title>Node29&#45;&gt;Node28</title>
<g id="a_edge33_Node000029_Node000028"><a xlink:title=" ">
<path fill="none" stroke="#63b8ff" d="M580.12,-41.53C603.28,-39.61 628.95,-37.49 652.19,-35.57"/>
<polygon fill="#63b8ff" stroke="#63b8ff" points="652.66,-39.04 662.34,-34.73 652.08,-32.06 652.66,-39.04"/>
</a>
</g>
</g>
</g>
</svg>

<g id="navigator" transform="translate(0 0)" fill="#404254">
  <rect fill="#f2f5e9" fill-opacity="0.5" stroke="#606060" stroke-width=".5" x="0" y="0" width="60" height="60"/>
  <use id="zoomplus" xlink:href="#zoomPlus" x="17" y="9" onmousedown="handleZoom(evt,'in')"/>
  <use id="zoomminus" xlink:href="#zoomMin" x="42" y="9" onmousedown="handleZoom(evt,'out')"/>
  <use id="reset" xlink:href="#resetDef" x="30" y="36" onmousedown="handleReset()"/>
   <use id="arrowup" xlink:href="#arrowUp" x="0" y="0" onmousedown="handlePan(0,-1)"/>
  <use id="arrowright" xlink:href="#arrowRight" x="0" y="0" onmousedown="handlePan(1,0)"/>
  <use id="arrowdown" xlink:href="#arrowDown" x="0" y="0" onmousedown="handlePan(0,1)"/>
  <use id="arrowleft" xlink:href="#arrowLeft" x="0" y="0" onmousedown="handlePan(-1,0)"/>
</g>
<svg viewBox="0 0 15 15" width="100%" height="30px" preserveAspectRatio="xMaxYMin meet">
 <g id="arrow_out" transform="scale(0.3 0.3)">
  <a xlink:href="classConsoleRenderer_ab34fa7af4ede79de3951f1d5271d7a27_cgraph_org.svg" target="_base">
   <rect id="button" ry="5" rx="5" y="6" x="6" height="38" width="38"
        fill="#f2f5e9" fill-opacity="0.5" stroke="#606060" stroke-width="1.0"/>
   <path id="arrow"
     d="M 11.500037,31.436501 C 11.940474,20.09759 22.043105,11.32322 32.158766,21.979434 L 37.068811,17.246167 C 37.068811,17.246167 37.088388,32 37.088388,32 L 22.160133,31.978069 C 22.160133,31.978069 26.997745,27.140456 26.997745,27.140456 C 18.528582,18.264221 13.291696,25.230495 11.500037,31.436501 z"
     style="fill:#404040;"/>
  </a>
 </g>
</svg>

<style type='text/css'>
<![CDATA[
[data-mouse-over-selected='false'] { opacity: 0.7; }
[data-mouse-over-selected='true']  { opacity: 1.0; }
]]>
</style>
<script type="application/ecmascript"><![CDATA[
document.addEventListener('DOMContentLoaded', (event) => {
  highlightEdges();
  highlightAdjacentNodes();
});
]]></script>
</svg>
