<?xml version="1.0" encoding="UTF-8" standalone="no"?>
<!DOCTYPE svg PUBLIC "-//W3C//DTD SVG 1.1//EN"
 "http://www.w3.org/Graphics/SVG/1.1/DTD/svg11.dtd">
<!-- Generated by graphviz version 2.43.0 (0)
 -->
<!-- Title: GameWorld::checkCollisions Pages: 1 -->
<!--zoomable 729 -->

<svg id="main" version="1.1" xmlns="http://www.w3.org/2000/svg" xmlns:xlink="http://www.w3.org/1999/xlink" xml:space="preserve" onload="init(evt)">
<style type="text/css"><![CDATA[
.node, .edge {opacity: 0.7;}
.node.selected, .edge.selected {opacity: 1;}
.edge:hover path { stroke: red; }
.edge:hover polygon { stroke: red; fill: red; }
]]></style>

<defs>
  <circle id="rim" cx="0" cy="0" r="7"/>
  <circle id="rim2" cx="0" cy="0" r="3.5"/>
  <g id="zoomPlus">
    <use xlink:href="#rim" fill="#404040"><set attributeName="fill" to="#808080" begin="zoomplus.mouseover" end="zoomplus.mouseout"/></use>
    <path d="M-4,0h8M0,-4v8" fill="none" stroke="white" stroke-width="1.5" pointer-events="none"/>
  </g>
  <g id="zoomMin">
    <use xlink:href="#rim" fill="#404040"><set attributeName="fill" to="#808080" begin="zoomminus.mouseover" end="zoomminus.mouseout"/></use>
    <path d="M-4,0h8" fill="none" stroke="white" stroke-width="1.5" pointer-events="none"/>
  </g>
  <g id="arrowUp" transform="translate(30 24)">
    <use xlink:href="#rim"/>
    <path pointer-events="none" fill="none" stroke="white" stroke-width="1.5" d="M0,-3.0v7 M-2.5,-0.5L0,-3.0L2.5,-0.5"/>
  </g>
  <g id="arrowRight" transform="rotate(90) translate(36 -43)">
    <use xlink:href="#rim"/>
    <path pointer-events="none" fill="none" stroke="white" stroke-width="1.5" d="M0,-3.0v7 M-2.5,-0.5L0,-3.0L2.5,-0.5"/>
  </g>
  <g id="arrowDown" transform="rotate(180) translate(-30 -48)">
    <use xlink:href="#rim"/>
    <path pointer-events="none" fill="none" stroke="white" stroke-width="1.5" d="M0,-3.0v7 M-2.5,-0.5L0,-3.0L2.5,-0.5"/>
  </g>
  <g id="arrowLeft" transform="rotate(270) translate(-36 17)">
    <use xlink:href="#rim"/>
    <path pointer-events="none" fill="none" stroke="white" stroke-width="1.5" d="M0,-3.0v7 M-2.5,-0.5L0,-3.0L2.5,-0.5"/>
  </g>
  <g id="resetDef">
    <use xlink:href="#rim2" fill="#404040"><set attributeName="fill" to="#808080" begin="reset.mouseover" end="reset.mouseout"/></use>
  </g>
</defs>
<script type="application/ecmascript">
var viewWidth = 1163;
var viewHeight = 729;
var sectionId = 'dynsection-8';
</script>
<script type="application/ecmascript" xlink:href="svg.min.js"/>
<svg id="graph" class="graph">
<g id="viewport">
<title>GameWorld::checkCollisions</title>
<!-- Node1 -->
<g id="Node000001" class="node">
<title>Node1</title>
<g id="a_Node000001"><a xlink:title="Checks all types of collisions.">
<polygon fill="#999999" stroke="#666666" points="155,-338.71 0,-338.71 0,-319.71 155,-319.71 155,-338.71"/>
<text text-anchor="middle" x="77.5" y="-326.71" font-family="Helvetica,sans-Serif" font-size="10.00">GameWorld::checkCollisions</text>
</a>
</g>
</g>
<!-- Node2 -->
<g id="Node000002" class="node">
<title>Node2</title>
<g id="a_Node000002"><a xlink:href="classGameWorld.html#a7ddabf5c5dc78379e8b75d531068fa5a" target="_top" xlink:title="Checks bonus collection.">
<polygon fill="white" stroke="#666666" points="585,-644.71 400,-644.71 400,-625.71 585,-625.71 585,-644.71"/>
<text text-anchor="middle" x="492.5" y="-632.71" font-family="Helvetica,sans-Serif" font-size="10.00">GameWorld::checkBonusCollisions</text>
</a>
</g>
</g>
<!-- Node1&#45;&gt;Node2 -->
<g id="edge1_Node000001_Node000002" class="edge">
<title>Node1&#45;&gt;Node2</title>
<g id="a_edge1_Node000001_Node000002"><a xlink:title=" ">
<path fill="none" stroke="#63b8ff" d="M87.64,-338.85C106.2,-358.19 150.03,-402.66 191,-435.21 287.74,-512.08 413.71,-589.17 466.51,-620.55"/>
<polygon fill="#63b8ff" stroke="#63b8ff" points="464.81,-623.62 475.2,-625.7 468.38,-617.6 464.81,-623.62"/>
</a>
</g>
</g>
<!-- Node9 -->
<g id="Node000009" class="node">
<title>Node9</title>
<g id="a_Node000009"><a xlink:href="classGameWorld.html#a6b4f2f8d12f4dcde90d48853dd37f6cc" target="_top" xlink:title="Checks boundary collisions.">
<polygon fill="white" stroke="#666666" points="355,-344.21 200,-344.21 200,-314.21 355,-314.21 355,-344.21"/>
<text text-anchor="start" x="208" y="-332.21" font-family="Helvetica,sans-Serif" font-size="10.00">GameWorld::checkBoundary</text>
<text text-anchor="middle" x="277.5" y="-321.21" font-family="Helvetica,sans-Serif" font-size="10.00">Collisions</text>
</a>
</g>
</g>
<!-- Node1&#45;&gt;Node9 -->
<g id="edge9_Node000001_Node000009" class="edge">
<title>Node1&#45;&gt;Node9</title>
<g id="a_edge9_Node000001_Node000009"><a xlink:title=" ">
<path fill="none" stroke="#63b8ff" d="M155.05,-329.21C166.41,-329.21 178.19,-329.21 189.75,-329.21"/>
<polygon fill="#63b8ff" stroke="#63b8ff" points="189.83,-332.71 199.83,-329.21 189.83,-325.71 189.83,-332.71"/>
</a>
</g>
</g>
<!-- Node12 -->
<g id="Node000012" class="node">
<title>Node12</title>
<g id="a_Node000012"><a xlink:href="classGameWorld.html#a81b514a6e2b376bd9b5f8276e3861b5f" target="_top" xlink:title="Checks projectile collisions.">
<polygon fill="white" stroke="#666666" points="354.5,-426.21 200.5,-426.21 200.5,-396.21 354.5,-396.21 354.5,-426.21"/>
<text text-anchor="start" x="208.5" y="-414.21" font-family="Helvetica,sans-Serif" font-size="10.00">GameWorld::checkProjectile</text>
<text text-anchor="middle" x="277.5" y="-403.21" font-family="Helvetica,sans-Serif" font-size="10.00">Collisions</text>
</a>
</g>
</g>
<!-- Node1&#45;&gt;Node12 -->
<g id="edge14_Node000001_Node000012" class="edge">
<title>Node1&#45;&gt;Node12</title>
<g id="a_edge14_Node000001_Node000012"><a xlink:title=" ">
<path fill="none" stroke="#63b8ff" d="M101.6,-338.78C133.14,-351.84 190.38,-375.54 230.77,-392.27"/>
<polygon fill="#63b8ff" stroke="#63b8ff" points="229.56,-395.56 240.14,-396.15 232.24,-389.09 229.56,-395.56"/>
</a>
</g>
</g>
<!-- Node22 -->
<g id="Node000022" class="node">
<title>Node22</title>
<g id="a_Node000022"><a xlink:href="classGameWorld.html#ab28f8bec4f78b7be44d509449508babb" target="_top" xlink:title="Checks tank&#45;obstacle collisions.">
<polygon fill="white" stroke="#666666" points="364,-249.21 191,-249.21 191,-219.21 364,-219.21 364,-249.21"/>
<text text-anchor="start" x="199" y="-237.21" font-family="Helvetica,sans-Serif" font-size="10.00">GameWorld::checkTankObstacle</text>
<text text-anchor="middle" x="277.5" y="-226.21" font-family="Helvetica,sans-Serif" font-size="10.00">Collisions</text>
</a>
</g>
</g>
<!-- Node1&#45;&gt;Node22 -->
<g id="edge28_Node000001_Node000022" class="edge">
<title>Node1&#45;&gt;Node22</title>
<g id="a_edge28_Node000001_Node000022"><a xlink:title=" ">
<path fill="none" stroke="#63b8ff" d="M98.57,-319.58C130.66,-304.18 194.12,-273.74 235.93,-253.68"/>
<polygon fill="#63b8ff" stroke="#63b8ff" points="237.52,-256.79 245.02,-249.31 234.49,-250.48 237.52,-256.79"/>
</a>
</g>
</g>
<!-- Node26 -->
<g id="Node000026" class="node">
<title>Node26</title>
<g id="a_Node000026"><a xlink:href="classGameWorld.html#aba83e6f4f714c9f590f4cb8078cd9a2b" target="_top" xlink:title="Checks tank&#45;tank collisions.">
<polygon fill="white" stroke="#666666" points="354,-125.21 201,-125.21 201,-95.21 354,-95.21 354,-125.21"/>
<text text-anchor="start" x="209" y="-113.21" font-family="Helvetica,sans-Serif" font-size="10.00">GameWorld::checkTankTank</text>
<text text-anchor="middle" x="277.5" y="-102.21" font-family="Helvetica,sans-Serif" font-size="10.00">Collisions</text>
</a>
</g>
</g>
<!-- Node1&#45;&gt;Node26 -->
<g id="edge36_Node000001_Node000026" class="edge">
<title>Node1&#45;&gt;Node26</title>
<g id="a_edge36_Node000001_Node000026"><a xlink:title=" ">
<path fill="none" stroke="#63b8ff" d="M87.26,-319.52C116.84,-286.81 213.47,-179.92 256.05,-132.83"/>
<polygon fill="#63b8ff" stroke="#63b8ff" points="258.76,-135.05 262.87,-125.29 253.57,-130.36 258.76,-135.05"/>
</a>
</g>
</g>
<!-- Node3 -->
<g id="Node000003" class="node">
<title>Node3</title>
<g id="a_Node000003"><a xlink:href="classPlayerTank.html#a34ecaf7829cc7b3e4965afa9ef6c25f0" target="_top" xlink:title="Adds points to player&#39;s score.">
<polygon fill="white" stroke="#666666" points="772.5,-644.71 651.5,-644.71 651.5,-625.71 772.5,-625.71 772.5,-644.71"/>
<text text-anchor="middle" x="712" y="-632.71" font-family="Helvetica,sans-Serif" font-size="10.00">PlayerTank::addScore</text>
</a>
</g>
</g>
<!-- Node2&#45;&gt;Node3 -->
<g id="edge2_Node000002_Node000003" class="edge">
<title>Node2&#45;&gt;Node3</title>
<g id="a_edge2_Node000002_Node000003"><a xlink:title=" ">
<path fill="none" stroke="#63b8ff" d="M585.11,-635.21C603.93,-635.21 623.45,-635.21 641.34,-635.21"/>
<polygon fill="#63b8ff" stroke="#63b8ff" points="641.38,-638.71 651.38,-635.21 641.38,-631.71 641.38,-638.71"/>
</a>
</g>
</g>
<!-- Node4 -->
<g id="Node000004" class="node">
<title>Node4</title>
<g id="a_Node000004"><a xlink:href="classGameWorld.html#aa547d7890c6acf2e8ee3014a52d741b9" target="_top" xlink:title="Applies slow effect to all enemies.">
<polygon fill="white" stroke="#666666" points="803,-720.71 621,-720.71 621,-701.71 803,-701.71 803,-720.71"/>
<text text-anchor="middle" x="712" y="-708.71" font-family="Helvetica,sans-Serif" font-size="10.00">GameWorld::applySlowToEnemies</text>
</a>
</g>
</g>
<!-- Node2&#45;&gt;Node4 -->
<g id="edge3_Node000002_Node000004" class="edge">
<title>Node2&#45;&gt;Node4</title>
<g id="a_edge3_Node000002_Node000004"><a xlink:title=" ">
<path fill="none" stroke="#63b8ff" d="M514.84,-644.89C539.92,-656.03 582.93,-674.43 621,-687.21 633.83,-691.52 647.88,-695.57 661,-699.08"/>
<polygon fill="#63b8ff" stroke="#63b8ff" points="660.24,-702.5 670.8,-701.65 662.02,-695.73 660.24,-702.5"/>
</a>
</g>
</g>
<!-- Node7 -->
<g id="Node000007" class="node">
<title>Node7</title>
<g id="a_Node000007"><a xlink:href="classGameObject.html#a51ac0947e5c628f04657cafecc9fe36b" target="_top" xlink:title="Checks if object is destroyed.">
<polygon fill="white" stroke="#666666" points="988.5,-513.71 846.5,-513.71 846.5,-494.71 988.5,-494.71 988.5,-513.71"/>
<text text-anchor="middle" x="917.5" y="-501.71" font-family="Helvetica,sans-Serif" font-size="10.00">GameObject::isDestroyed</text>
</a>
</g>
</g>
<!-- Node2&#45;&gt;Node7 -->
<g id="edge8_Node000002_Node000007" class="edge">
<title>Node2&#45;&gt;Node7</title>
<g id="a_edge8_Node000002_Node000007"><a xlink:title=" ">
<path fill="none" stroke="#63b8ff" d="M518.43,-644.71C573.27,-663.97 707.08,-701.92 803,-654.21 858.65,-626.53 894.28,-557.11 908.91,-523.3"/>
<polygon fill="#63b8ff" stroke="#63b8ff" points="912.15,-524.62 912.77,-514.04 905.69,-521.92 912.15,-524.62"/>
</a>
</g>
</g>
<!-- Node8 -->
<g id="Node000008" class="node">
<title>Node8</title>
<g id="a_Node000008"><a xlink:href="classGameObject.html#aa4dd19d6b0ea5701d860b64b08435ae6" target="_top" xlink:title="Gets current position of the object.">
<polygon fill="white" stroke="#666666" points="781,-259.71 643,-259.71 643,-240.71 781,-240.71 781,-259.71"/>
<text text-anchor="middle" x="712" y="-247.71" font-family="Helvetica,sans-Serif" font-size="10.00">GameObject::getPosition</text>
</a>
</g>
</g>
<!-- Node2&#45;&gt;Node8 -->
<g id="edge7_Node000002_Node000008" class="edge">
<title>Node2&#45;&gt;Node8</title>
<g id="a_edge7_Node000002_Node000008"><a xlink:title=" ">
<path fill="none" stroke="#63b8ff" d="M500.09,-625.45C516.77,-600.33 561.01,-530.93 585,-467.21 610.68,-398.99 579.02,-366.8 621,-307.21 634.73,-287.72 657.45,-273.41 676.63,-264"/>
<polygon fill="#63b8ff" stroke="#63b8ff" points="678.12,-267.16 685.71,-259.77 675.16,-260.82 678.12,-267.16"/>
</a>
</g>
</g>
<!-- Node5 -->
<g id="Node000005" class="node">
<title>Node5</title>
<g id="a_Node000005"><a xlink:href="classEnemyTank.html#ac30fc0d640fb804d2e382603b424faa7" target="_top" xlink:title="Applies slow effect to enemy tank.">
<polygon fill="white" stroke="#666666" points="996,-720.71 839,-720.71 839,-701.71 996,-701.71 996,-720.71"/>
<text text-anchor="middle" x="917.5" y="-708.71" font-family="Helvetica,sans-Serif" font-size="10.00">EnemyTank::applySlowEffect</text>
</a>
</g>
</g>
<!-- Node4&#45;&gt;Node5 -->
<g id="edge4_Node000004_Node000005" class="edge">
<title>Node4&#45;&gt;Node5</title>
<g id="a_edge4_Node000004_Node000005"><a xlink:title=" ">
<path fill="none" stroke="#63b8ff" d="M803.15,-711.21C811.61,-711.21 820.19,-711.21 828.63,-711.21"/>
<polygon fill="#63b8ff" stroke="#63b8ff" points="828.85,-714.71 838.85,-711.21 828.85,-707.71 828.85,-714.71"/>
</a>
</g>
</g>
<!-- Node4&#45;&gt;Node7 -->
<g id="edge6_Node000004_Node000007" class="edge">
<title>Node4&#45;&gt;Node7</title>
<g id="a_edge6_Node000004_Node000007"><a xlink:title=" ">
<path fill="none" stroke="#63b8ff" d="M773.97,-701.68C784.29,-698.24 794.43,-693.57 803,-687.21 861.21,-644.04 896.35,-561.31 909.97,-523.69"/>
<polygon fill="#63b8ff" stroke="#63b8ff" points="913.38,-524.54 913.38,-513.95 906.78,-522.23 913.38,-524.54"/>
</a>
</g>
</g>
<!-- Node6 -->
<g id="Node000006" class="node">
<title>Node6</title>
<g id="a_Node000006"><a xlink:href="classTank.html#ad2c4d964485d2fa5b948f92ae0a76250" target="_top" xlink:title="Applies slow effect to the tank.">
<polygon fill="white" stroke="#666666" points="1155,-720.71 1032,-720.71 1032,-701.71 1155,-701.71 1155,-720.71"/>
<text text-anchor="middle" x="1093.5" y="-708.71" font-family="Helvetica,sans-Serif" font-size="10.00">Tank::applySlowEffect</text>
</a>
</g>
</g>
<!-- Node5&#45;&gt;Node6 -->
<g id="edge5_Node000005_Node000006" class="edge">
<title>Node5&#45;&gt;Node6</title>
<g id="a_edge5_Node000005_Node000006"><a xlink:title=" ">
<path fill="none" stroke="#63b8ff" d="M996.09,-711.21C1004.59,-711.21 1013.22,-711.21 1021.63,-711.21"/>
<polygon fill="#63b8ff" stroke="#63b8ff" points="1021.77,-714.71 1031.77,-711.21 1021.77,-707.71 1021.77,-714.71"/>
</a>
</g>
</g>
<!-- Node9&#45;&gt;Node7 -->
<g id="edge12_Node000009_Node000007" class="edge">
<title>Node9&#45;&gt;Node7</title>
<g id="a_edge12_Node000009_Node000007"><a xlink:title=" ">
<path fill="none" stroke="#63b8ff" d="M345.66,-344.24C363.25,-347.54 382.26,-350.55 400,-352.21 481.86,-359.89 510.89,-387.83 585,-352.21 608.08,-341.11 597.92,-318.3 621,-307.21 693.91,-272.17 735.66,-262.4 803,-307.21 837.5,-330.17 819.03,-356.91 839,-393.21 858.13,-427.99 885.75,-465.18 902.33,-486.47"/>
<polygon fill="#63b8ff" stroke="#63b8ff" points="899.77,-488.88 908.7,-494.57 905.27,-484.55 899.77,-488.88"/>
</a>
</g>
</g>
<!-- Node9&#45;&gt;Node8 -->
<g id="edge11_Node000009_Node000008" class="edge">
<title>Node9&#45;&gt;Node8</title>
<g id="a_edge11_Node000009_Node000008"><a xlink:title=" ">
<path fill="none" stroke="#63b8ff" d="M343.34,-344.21C408.36,-355.72 509.42,-363.71 585,-324.21 609.27,-311.53 598.46,-289.75 621,-274.21 627.46,-269.76 634.7,-266.13 642.2,-263.17"/>
<polygon fill="#63b8ff" stroke="#63b8ff" points="643.53,-266.41 651.79,-259.78 641.2,-259.82 643.53,-266.41"/>
</a>
</g>
</g>
<!-- Node10 -->
<g id="Node000010" class="node">
<title>Node10</title>
<g id="a_Node000010"><a xlink:href="classTank.html#a893b0a184e05009741b13e1e79cd629f" target="_top" xlink:title="Gets the bounding dimensions of the tank.">
<polygon fill="white" stroke="#666666" points="541,-157.71 444,-157.71 444,-138.71 541,-138.71 541,-157.71"/>
<text text-anchor="middle" x="492.5" y="-145.71" font-family="Helvetica,sans-Serif" font-size="10.00">Tank::getBounds</text>
</a>
</g>
</g>
<!-- Node9&#45;&gt;Node10 -->
<g id="edge10_Node000009_Node000010" class="edge">
<title>Node9&#45;&gt;Node10</title>
<g id="a_edge10_Node000009_Node000010"><a xlink:title=" ">
<path fill="none" stroke="#63b8ff" d="M302.75,-314.05C321.63,-301.18 347.35,-281.17 364,-258.21 389.53,-222.99 366.72,-195.21 400,-167.21 409.6,-159.13 421.75,-154.2 434.03,-151.25"/>
<polygon fill="#63b8ff" stroke="#63b8ff" points="434.74,-154.68 443.86,-149.29 433.37,-147.82 434.74,-154.68"/>
</a>
</g>
</g>
<!-- Node11 -->
<g id="Node000011" class="node">
<title>Node11</title>
<g id="a_Node000011"><a xlink:href="classGameObject.html#a8e1f77d21a8ed8a894ae29f0e4126618" target="_top" xlink:title="Sets new position for the object.">
<polygon fill="white" stroke="#666666" points="780.5,-200.71 643.5,-200.71 643.5,-181.71 780.5,-181.71 780.5,-200.71"/>
<text text-anchor="middle" x="712" y="-188.71" font-family="Helvetica,sans-Serif" font-size="10.00">GameObject::setPosition</text>
</a>
</g>
</g>
<!-- Node9&#45;&gt;Node11 -->
<g id="edge13_Node000009_Node000011" class="edge">
<title>Node9&#45;&gt;Node11</title>
<g id="a_edge13_Node000009_Node000011"><a xlink:title=" ">
<path fill="none" stroke="#63b8ff" d="M355.02,-316.52C418.2,-304.57 509.44,-283.88 585,-253.21 602.16,-246.24 604.55,-240.73 621,-232.21 639.74,-222.51 661.22,-212.67 678.5,-205.07"/>
<polygon fill="#63b8ff" stroke="#63b8ff" points="680.37,-208.07 688.14,-200.87 677.57,-201.66 680.37,-208.07"/>
</a>
</g>
</g>
<!-- Node13 -->
<g id="Node000013" class="node">
<title>Node13</title>
<g id="a_Node000013"><a xlink:href="classGameWorld.html#a752ef6a0f4c6cdffead1dacd117d8451" target="_top" xlink:title="Handles projectile hit.">
<polygon fill="white" stroke="#666666" points="579,-457.71 406,-457.71 406,-438.71 579,-438.71 579,-457.71"/>
<text text-anchor="middle" x="492.5" y="-445.71" font-family="Helvetica,sans-Serif" font-size="10.00">GameWorld::handleProjectileHit</text>
</a>
</g>
</g>
<!-- Node12&#45;&gt;Node13 -->
<g id="edge15_Node000012_Node000013" class="edge">
<title>Node12&#45;&gt;Node13</title>
<g id="a_edge15_Node000012_Node000013"><a xlink:title=" ">
<path fill="none" stroke="#63b8ff" d="M354.8,-424.46C378.4,-428.56 404.16,-433.04 426.9,-436.99"/>
<polygon fill="#63b8ff" stroke="#63b8ff" points="426.32,-440.44 436.77,-438.7 427.52,-433.54 426.32,-440.44"/>
</a>
</g>
</g>
<!-- Node13&#45;&gt;Node3 -->
<g id="edge16_Node000013_Node000003" class="edge">
<title>Node13&#45;&gt;Node3</title>
<g id="a_edge16_Node000013_Node000003"><a xlink:title=" ">
<path fill="none" stroke="#63b8ff" d="M498.27,-458.08C512.58,-486.58 558.05,-569.62 621,-611.21 627.81,-615.71 635.43,-619.37 643.29,-622.34"/>
<polygon fill="#63b8ff" stroke="#63b8ff" points="642.34,-625.72 652.94,-625.64 644.61,-619.09 642.34,-625.72"/>
</a>
</g>
</g>
<!-- Node13&#45;&gt;Node7 -->
<g id="edge20_Node000013_Node000007" class="edge">
<title>Node13&#45;&gt;Node7</title>
<g id="a_edge20_Node000013_Node000007"><a xlink:title=" ">
<path fill="none" stroke="#63b8ff" d="M499.09,-457.89C514.54,-483.51 560.67,-552.87 621,-578.21 695.58,-609.53 725.46,-601.25 803,-578.21 840.82,-566.97 877.81,-538.69 898.81,-520.53"/>
<polygon fill="#63b8ff" stroke="#63b8ff" points="901.14,-523.14 906.3,-513.89 896.5,-517.9 901.14,-523.14"/>
</a>
</g>
</g>
<!-- Node13&#45;&gt;Node8 -->
<g id="edge18_Node000013_Node000008" class="edge">
<title>Node13&#45;&gt;Node8</title>
<g id="a_edge18_Node000013_Node000008"><a xlink:title=" ">
<path fill="none" stroke="#63b8ff" d="M505.32,-438.68C523.62,-423.59 559.36,-392.78 585,-362.21 603.78,-339.83 600.19,-327.71 621,-307.21 638.81,-289.67 662.9,-274.76 681.68,-264.59"/>
<polygon fill="#63b8ff" stroke="#63b8ff" points="683.46,-267.61 690.68,-259.86 680.2,-261.41 683.46,-267.61"/>
</a>
</g>
</g>
<!-- Node14 -->
<g id="Node000014" class="node">
<title>Node14</title>
<g id="a_Node000014"><a xlink:href="classProjectile.html#aef8adfaa81fbbb3794bcf9eb2dfb2d44" target="_top" xlink:title="Gets the owner tank of this projectile.">
<polygon fill="white" stroke="#666666" points="770,-568.71 654,-568.71 654,-549.71 770,-549.71 770,-568.71"/>
<text text-anchor="middle" x="712" y="-556.71" font-family="Helvetica,sans-Serif" font-size="10.00">Projectile::getOwner</text>
</a>
</g>
</g>
<!-- Node13&#45;&gt;Node14 -->
<g id="edge17_Node000013_Node000014" class="edge">
<title>Node13&#45;&gt;Node14</title>
<g id="a_edge17_Node000013_Node000014"><a xlink:title=" ">
<path fill="none" stroke="#63b8ff" d="M503.44,-457.88C523.71,-477.01 572.08,-519.73 621,-541.21 628.18,-544.36 635.93,-546.97 643.76,-549.12"/>
<polygon fill="#63b8ff" stroke="#63b8ff" points="643.13,-552.57 653.68,-551.61 644.83,-545.78 643.13,-552.57"/>
</a>
</g>
</g>
<!-- Node15 -->
<g id="Node000015" class="node">
<title>Node15</title>
<g id="a_Node000015"><a xlink:href="classEnemyTank.html#a7449d102bbca6b351322b72f8b079f72" target="_top" xlink:title="Gets the type of enemy tank.">
<polygon fill="white" stroke="#666666" points="782,-531.71 642,-531.71 642,-512.71 782,-512.71 782,-531.71"/>
<text text-anchor="middle" x="712" y="-519.71" font-family="Helvetica,sans-Serif" font-size="10.00">EnemyTank::getTankType</text>
</a>
</g>
</g>
<!-- Node13&#45;&gt;Node15 -->
<g id="edge19_Node000013_Node000015" class="edge">
<title>Node13&#45;&gt;Node15</title>
<g id="a_edge19_Node000013_Node000015"><a xlink:title=" ">
<path fill="none" stroke="#63b8ff" d="M512.02,-457.87C536.4,-470.23 580.88,-491.55 621,-504.21 628.18,-506.48 635.79,-508.52 643.4,-510.35"/>
<polygon fill="#63b8ff" stroke="#63b8ff" points="642.87,-513.81 653.4,-512.62 644.42,-506.99 642.87,-513.81"/>
</a>
</g>
</g>
<!-- Node16 -->
<g id="Node000016" class="node">
<title>Node16</title>
<g id="a_Node000016"><a xlink:href="classObstacle.html#ac5dc75c2d5f77f598a1fe8d42699e3f9" target="_top" xlink:title="Checks if obstacle is destructible.">
<polygon fill="white" stroke="#666666" points="778.5,-494.71 645.5,-494.71 645.5,-475.71 778.5,-475.71 778.5,-494.71"/>
<text text-anchor="middle" x="712" y="-482.71" font-family="Helvetica,sans-Serif" font-size="10.00">Obstacle::isDestructible</text>
</a>
</g>
</g>
<!-- Node13&#45;&gt;Node16 -->
<g id="edge21_Node000013_Node000016" class="edge">
<title>Node13&#45;&gt;Node16</title>
<g id="a_edge21_Node000013_Node000016"><a xlink:title=" ">
<path fill="none" stroke="#63b8ff" d="M549.51,-457.74C578.57,-462.68 614.27,-468.75 644.7,-473.93"/>
<polygon fill="#63b8ff" stroke="#63b8ff" points="644.36,-477.42 654.8,-475.65 645.53,-470.52 644.36,-477.42"/>
</a>
</g>
</g>
<!-- Node17 -->
<g id="Node000017" class="node">
<title>Node17</title>
<g id="a_Node000017"><a xlink:href="classObstacle.html#aaa4db983792ece6cd734c170d9a68e36" target="_top" xlink:title="Checks if obstacle is passable for projectiles.">
<polygon fill="white" stroke="#666666" points="793,-457.71 631,-457.71 631,-438.71 793,-438.71 793,-457.71"/>
<text text-anchor="middle" x="712" y="-445.71" font-family="Helvetica,sans-Serif" font-size="10.00">Obstacle::isProjectilePassable</text>
</a>
</g>
</g>
<!-- Node13&#45;&gt;Node17 -->
<g id="edge22_Node000013_Node000017" class="edge">
<title>Node13&#45;&gt;Node17</title>
<g id="a_edge22_Node000013_Node000017"><a xlink:title=" ">
<path fill="none" stroke="#63b8ff" d="M579.15,-448.21C592.7,-448.21 606.74,-448.21 620.4,-448.21"/>
<polygon fill="#63b8ff" stroke="#63b8ff" points="620.75,-451.71 630.75,-448.21 620.75,-444.71 620.75,-451.71"/>
</a>
</g>
</g>
<!-- Node18 -->
<g id="Node000018" class="node">
<title>Node18</title>
<g id="a_Node000018"><a xlink:href="classObstacle.html#a0167f367446272ac93f006af1403fa2c" target="_top" xlink:title="Applies damage to the obstacle.">
<polygon fill="white" stroke="#666666" points="776,-420.71 648,-420.71 648,-401.71 776,-401.71 776,-420.71"/>
<text text-anchor="middle" x="712" y="-408.71" font-family="Helvetica,sans-Serif" font-size="10.00">Obstacle::takeDamage</text>
</a>
</g>
</g>
<!-- Node13&#45;&gt;Node18 -->
<g id="edge23_Node000013_Node000018" class="edge">
<title>Node13&#45;&gt;Node18</title>
<g id="a_edge23_Node000013_Node000018"><a xlink:title=" ">
<path fill="none" stroke="#63b8ff" d="M549.51,-438.68C578.57,-433.74 614.27,-427.67 644.7,-422.49"/>
<polygon fill="#63b8ff" stroke="#63b8ff" points="645.53,-425.9 654.8,-420.77 644.36,-419 645.53,-425.9"/>
</a>
</g>
</g>
<!-- Node19 -->
<g id="Node000019" class="node">
<title>Node19</title>
<g id="a_Node000019"><a xlink:href="classTank.html#a694c752906e013192e6420bc31b01dd6" target="_top" xlink:title="Applies damage to tank, considering shield.">
<polygon fill="white" stroke="#666666" points="765.5,-383.71 658.5,-383.71 658.5,-364.71 765.5,-364.71 765.5,-383.71"/>
<text text-anchor="middle" x="712" y="-371.71" font-family="Helvetica,sans-Serif" font-size="10.00">Tank::takeDamage</text>
</a>
</g>
</g>
<!-- Node13&#45;&gt;Node19 -->
<g id="edge25_Node000013_Node000019" class="edge">
<title>Node13&#45;&gt;Node19</title>
<g id="a_edge25_Node000013_Node000019"><a xlink:title=" ">
<path fill="none" stroke="#63b8ff" d="M512.48,-438.6C537,-426.52 581.25,-405.84 621,-393.21 629.72,-390.44 639.04,-387.96 648.26,-385.77"/>
<polygon fill="#63b8ff" stroke="#63b8ff" points="649.21,-389.15 658.19,-383.52 647.67,-382.32 649.21,-389.15"/>
</a>
</g>
</g>
<!-- Node21 -->
<g id="Node000021" class="node">
<title>Node21</title>
<g id="a_Node000021"><a xlink:href="classGameWorld.html#aaab2806ac3f2f439dd4bf0fc2299d402" target="_top" xlink:title="Triggers damage flash effect.">
<polygon fill="white" stroke="#666666" points="788.5,-346.21 635.5,-346.21 635.5,-316.21 788.5,-316.21 788.5,-346.21"/>
<text text-anchor="start" x="643.5" y="-334.21" font-family="Helvetica,sans-Serif" font-size="10.00">GameWorld::triggerDamage</text>
<text text-anchor="middle" x="712" y="-323.21" font-family="Helvetica,sans-Serif" font-size="10.00">Flash</text>
</a>
</g>
</g>
<!-- Node13&#45;&gt;Node21 -->
<g id="edge27_Node000013_Node000021" class="edge">
<title>Node13&#45;&gt;Node21</title>
<g id="a_edge27_Node000013_Node000021"><a xlink:title=" ">
<path fill="none" stroke="#63b8ff" d="M518.02,-438.58C537.43,-430.23 564.56,-416.87 585,-400.21 604.58,-384.24 599.84,-370.01 621,-356.21 624.17,-354.14 627.52,-352.24 630.98,-350.49"/>
<polygon fill="#63b8ff" stroke="#63b8ff" points="632.7,-353.55 640.36,-346.23 629.81,-347.18 632.7,-353.55"/>
</a>
</g>
</g>
<!-- Node18&#45;&gt;Node7 -->
<g id="edge24_Node000018_Node000007" class="edge">
<title>Node18&#45;&gt;Node7</title>
<g id="a_edge24_Node000018_Node000007"><a xlink:title=" ">
<path fill="none" stroke="#63b8ff" d="M773.48,-420.76C783.54,-423.25 793.71,-426.36 803,-430.21 838.72,-445.01 875.35,-471.31 897.01,-488.24"/>
<polygon fill="#63b8ff" stroke="#63b8ff" points="895.06,-491.16 905.06,-494.65 899.42,-485.69 895.06,-491.16"/>
</a>
</g>
</g>
<!-- Node20 -->
<g id="Node000020" class="node">
<title>Node20</title>
<g id="a_Node000020"><a xlink:href="classGameObject.html#a801c8cf8e8e188ec698364327f977ecf" target="_top" xlink:title="Applies damage to the object.">
<polygon fill="white" stroke="#666666" points="990.5,-383.71 844.5,-383.71 844.5,-364.71 990.5,-364.71 990.5,-383.71"/>
<text text-anchor="middle" x="917.5" y="-371.71" font-family="Helvetica,sans-Serif" font-size="10.00">GameObject::takeDamage</text>
</a>
</g>
</g>
<!-- Node19&#45;&gt;Node20 -->
<g id="edge26_Node000019_Node000020" class="edge">
<title>Node19&#45;&gt;Node20</title>
<g id="a_edge26_Node000019_Node000020"><a xlink:title=" ">
<path fill="none" stroke="#63b8ff" d="M765.67,-374.21C786.5,-374.21 810.93,-374.21 833.99,-374.21"/>
<polygon fill="#63b8ff" stroke="#63b8ff" points="834.12,-377.71 844.12,-374.21 834.12,-370.71 834.12,-377.71"/>
</a>
</g>
</g>
<!-- Node22&#45;&gt;Node8 -->
<g id="edge30_Node000022_Node000008" class="edge">
<title>Node22&#45;&gt;Node8</title>
<g id="a_edge30_Node000022_Node000008"><a xlink:title=" ">
<path fill="none" stroke="#63b8ff" d="M363.6,-249.23C375.78,-250.88 388.19,-252.29 400,-253.21 479.04,-259.35 569.72,-257.46 632.68,-254.73"/>
<polygon fill="#63b8ff" stroke="#63b8ff" points="633.1,-258.22 642.94,-254.27 632.79,-251.22 633.1,-258.22"/>
</a>
</g>
</g>
<!-- Node22&#45;&gt;Node10 -->
<g id="edge29_Node000022_Node000010" class="edge">
<title>Node22&#45;&gt;Node10</title>
<g id="a_edge29_Node000022_Node000010"><a xlink:title=" ">
<path fill="none" stroke="#63b8ff" d="M301.25,-218.94C324.95,-203.7 363.63,-180.67 400,-167.21 410.71,-163.25 422.45,-160.03 433.84,-157.44"/>
<polygon fill="#63b8ff" stroke="#63b8ff" points="434.67,-160.84 443.72,-155.33 433.21,-154 434.67,-160.84"/>
</a>
</g>
</g>
<!-- Node23 -->
<g id="Node000023" class="node">
<title>Node23</title>
<g id="a_Node000023"><a xlink:href="classGameWorld.html#a60724b9a69573c00245f87dfdfeefa14" target="_top" xlink:title="Handles tank&#45;obstacle collision.">
<polygon fill="white" stroke="#666666" points="581.5,-206.21 403.5,-206.21 403.5,-176.21 581.5,-176.21 581.5,-206.21"/>
<text text-anchor="start" x="411.5" y="-194.21" font-family="Helvetica,sans-Serif" font-size="10.00">GameWorld::handleTankObstacle</text>
<text text-anchor="middle" x="492.5" y="-183.21" font-family="Helvetica,sans-Serif" font-size="10.00">Collision</text>
</a>
</g>
</g>
<!-- Node22&#45;&gt;Node23 -->
<g id="edge31_Node000022_Node000023" class="edge">
<title>Node22&#45;&gt;Node23</title>
<g id="a_edge31_Node000022_Node000023"><a xlink:title=" ">
<path fill="none" stroke="#63b8ff" d="M353,-219.17C370.51,-215.64 389.29,-211.84 407.2,-208.23"/>
<polygon fill="#63b8ff" stroke="#63b8ff" points="407.94,-211.65 417.05,-206.24 406.55,-204.79 407.94,-211.65"/>
</a>
</g>
</g>
<!-- Node25 -->
<g id="Node000025" class="node">
<title>Node25</title>
<g id="a_Node000025"><a xlink:href="classObstacle.html#aa1936373d282c8dba39f529526b6143d" target="_top" xlink:title="Checks if obstacle is passable for tanks.">
<polygon fill="white" stroke="#666666" points="550.5,-243.71 434.5,-243.71 434.5,-224.71 550.5,-224.71 550.5,-243.71"/>
<text text-anchor="middle" x="492.5" y="-231.71" font-family="Helvetica,sans-Serif" font-size="10.00">Obstacle::isPassable</text>
</a>
</g>
</g>
<!-- Node22&#45;&gt;Node25 -->
<g id="edge35_Node000022_Node000025" class="edge">
<title>Node22&#45;&gt;Node25</title>
<g id="a_edge35_Node000022_Node000025"><a xlink:title=" ">
<path fill="none" stroke="#63b8ff" d="M364.21,-234.21C384.2,-234.21 405.21,-234.21 424.27,-234.21"/>
<polygon fill="#63b8ff" stroke="#63b8ff" points="424.33,-237.71 434.33,-234.21 424.33,-230.71 424.33,-237.71"/>
</a>
</g>
</g>
<!-- Node23&#45;&gt;Node8 -->
<g id="edge33_Node000023_Node000008" class="edge">
<title>Node23&#45;&gt;Node8</title>
<g id="a_edge33_Node000023_Node000008"><a xlink:title=" ">
<path fill="none" stroke="#63b8ff" d="M551.62,-206.32C562.71,-209.24 574.22,-212.3 585,-215.21 612.33,-222.59 642.93,-231.08 667.13,-237.86"/>
<polygon fill="#63b8ff" stroke="#63b8ff" points="666.5,-241.32 677.08,-240.64 668.39,-234.58 666.5,-241.32"/>
</a>
</g>
</g>
<!-- Node23&#45;&gt;Node11 -->
<g id="edge34_Node000023_Node000011" class="edge">
<title>Node23&#45;&gt;Node11</title>
<g id="a_edge34_Node000023_Node000011"><a xlink:title=" ">
<path fill="none" stroke="#63b8ff" d="M581.65,-191.21C598.72,-191.21 616.48,-191.21 633.19,-191.21"/>
<polygon fill="#63b8ff" stroke="#63b8ff" points="633.44,-194.71 643.44,-191.21 633.44,-187.71 633.44,-194.71"/>
</a>
</g>
</g>
<!-- Node24 -->
<g id="Node000024" class="node">
<title>Node24</title>
<g id="a_Node000024"><a xlink:href="classGameObject.html#a650b9622507919864b54aadcaab92110" target="_top" xlink:title="Gets current direction of the object.">
<polygon fill="white" stroke="#666666" points="783.5,-119.71 640.5,-119.71 640.5,-100.71 783.5,-100.71 783.5,-119.71"/>
<text text-anchor="middle" x="712" y="-107.71" font-family="Helvetica,sans-Serif" font-size="10.00">GameObject::getDirection</text>
</a>
</g>
</g>
<!-- Node23&#45;&gt;Node24 -->
<g id="edge32_Node000023_Node000024" class="edge">
<title>Node23&#45;&gt;Node24</title>
<g id="a_edge32_Node000023_Node000024"><a xlink:title=" ">
<path fill="none" stroke="#63b8ff" d="M553.95,-176.09C564.39,-173.08 575.07,-169.75 585,-166.21 619.39,-153.95 657.52,-136.42 682.74,-124.25"/>
<polygon fill="#63b8ff" stroke="#63b8ff" points="684.27,-127.4 691.73,-119.88 681.21,-121.1 684.27,-127.4"/>
</a>
</g>
</g>
<!-- Node26&#45;&gt;Node7 -->
<g id="edge43_Node000026_Node000007" class="edge">
<title>Node26&#45;&gt;Node7</title>
<g id="a_edge43_Node000026_Node000007"><a xlink:title=" ">
<path fill="none" stroke="#63b8ff" d="M298.22,-95.18C321.21,-78.7 361.04,-53.24 400,-43.21 574.68,1.76 681.86,42.44 803,-91.21 848.39,-141.29 814.93,-330.05 839,-393.21 853.05,-430.08 882,-466.32 900.27,-486.91"/>
<polygon fill="#63b8ff" stroke="#63b8ff" points="897.83,-489.43 907.14,-494.49 903.01,-484.73 897.83,-489.43"/>
</a>
</g>
</g>
<!-- Node26&#45;&gt;Node8 -->
<g id="edge38_Node000026_Node000008" class="edge">
<title>Node26&#45;&gt;Node8</title>
<g id="a_edge38_Node000026_Node000008"><a xlink:title=" ">
<path fill="none" stroke="#63b8ff" d="M354.15,-106.2C432.66,-103.54 548.93,-104.27 585,-129.21 617.07,-151.38 593.49,-181.58 621,-209.21 633.34,-221.61 650.11,-230.63 665.83,-237"/>
<polygon fill="#63b8ff" stroke="#63b8ff" points="664.84,-240.37 675.43,-240.63 667.31,-233.82 664.84,-240.37"/>
</a>
</g>
</g>
<!-- Node26&#45;&gt;Node10 -->
<g id="edge37_Node000026_Node000010" class="edge">
<title>Node26&#45;&gt;Node10</title>
<g id="a_edge37_Node000026_Node000010"><a xlink:title=" ">
<path fill="none" stroke="#63b8ff" d="M354.2,-123.71C380.47,-128.4 409.48,-133.58 434.04,-137.96"/>
<polygon fill="#63b8ff" stroke="#63b8ff" points="433.46,-141.41 443.92,-139.72 434.69,-134.52 433.46,-141.41"/>
</a>
</g>
</g>
<!-- Node27 -->
<g id="Node000027" class="node">
<title>Node27</title>
<g id="a_Node000027"><a xlink:href="classGameWorld.html#adc81260573ef130580a3c2a05bd460aa" target="_top" xlink:title="Handles tank&#45;tank collision.">
<polygon fill="white" stroke="#666666" points="571.5,-82.21 413.5,-82.21 413.5,-52.21 571.5,-52.21 571.5,-82.21"/>
<text text-anchor="start" x="421.5" y="-70.21" font-family="Helvetica,sans-Serif" font-size="10.00">GameWorld::handleTankTank</text>
<text text-anchor="middle" x="492.5" y="-59.21" font-family="Helvetica,sans-Serif" font-size="10.00">Collision</text>
</a>
</g>
</g>
<!-- Node26&#45;&gt;Node27 -->
<g id="edge39_Node000026_Node000027" class="edge">
<title>Node26&#45;&gt;Node27</title>
<g id="a_edge39_Node000026_Node000027"><a xlink:title=" ">
<path fill="none" stroke="#63b8ff" d="M353,-95.17C370.51,-91.64 389.29,-87.84 407.2,-84.23"/>
<polygon fill="#63b8ff" stroke="#63b8ff" points="407.94,-87.65 417.05,-82.24 406.55,-80.79 407.94,-87.65"/>
</a>
</g>
</g>
<!-- Node27&#45;&gt;Node8 -->
<g id="edge41_Node000027_Node000008" class="edge">
<title>Node27&#45;&gt;Node8</title>
<g id="a_edge41_Node000027_Node000008"><a xlink:title=" ">
<path fill="none" stroke="#63b8ff" d="M565.35,-82.34C572.59,-86.01 579.34,-90.56 585,-96.21 622.3,-133.45 586.01,-169.79 621,-209.21 632.23,-221.87 648.15,-230.85 663.49,-237.12"/>
<polygon fill="#63b8ff" stroke="#63b8ff" points="662.32,-240.42 672.91,-240.68 664.8,-233.87 662.32,-240.42"/>
</a>
</g>
</g>
<!-- Node27&#45;&gt;Node11 -->
<g id="edge42_Node000027_Node000011" class="edge">
<title>Node27&#45;&gt;Node11</title>
<g id="a_edge42_Node000027_Node000011"><a xlink:title=" ">
<path fill="none" stroke="#63b8ff" d="M553.61,-82.27C564.4,-86.08 575.29,-90.69 585,-96.21 603.61,-106.79 604.2,-114.94 621,-128.21 642.99,-145.59 669.39,-163.77 687.89,-176.11"/>
<polygon fill="#63b8ff" stroke="#63b8ff" points="686.02,-179.07 696.29,-181.67 689.88,-173.23 686.02,-179.07"/>
</a>
</g>
</g>
<!-- Node27&#45;&gt;Node24 -->
<g id="edge40_Node000027_Node000024" class="edge">
<title>Node27&#45;&gt;Node24</title>
<g id="a_edge40_Node000027_Node000024"><a xlink:title=" ">
<path fill="none" stroke="#63b8ff" d="M569.57,-82.25C596.93,-87.66 627.34,-93.67 652.92,-98.73"/>
<polygon fill="#63b8ff" stroke="#63b8ff" points="652.35,-102.18 662.84,-100.69 653.7,-95.31 652.35,-102.18"/>
</a>
</g>
</g>
</g>
</svg>

<g id="navigator" transform="translate(0 0)" fill="#404254">
  <rect fill="#f2f5e9" fill-opacity="0.5" stroke="#606060" stroke-width=".5" x="0" y="0" width="60" height="60"/>
  <use id="zoomplus" xlink:href="#zoomPlus" x="17" y="9" onmousedown="handleZoom(evt,'in')"/>
  <use id="zoomminus" xlink:href="#zoomMin" x="42" y="9" onmousedown="handleZoom(evt,'out')"/>
  <use id="reset" xlink:href="#resetDef" x="30" y="36" onmousedown="handleReset()"/>
   <use id="arrowup" xlink:href="#arrowUp" x="0" y="0" onmousedown="handlePan(0,-1)"/>
  <use id="arrowright" xlink:href="#arrowRight" x="0" y="0" onmousedown="handlePan(1,0)"/>
  <use id="arrowdown" xlink:href="#arrowDown" x="0" y="0" onmousedown="handlePan(0,1)"/>
  <use id="arrowleft" xlink:href="#arrowLeft" x="0" y="0" onmousedown="handlePan(-1,0)"/>
</g>
<svg viewBox="0 0 15 15" width="100%" height="30px" preserveAspectRatio="xMaxYMin meet">
 <g id="arrow_out" transform="scale(0.3 0.3)">
  <a xlink:href="classGameWorld_a2a5aaafc1c18521a4657d6a4a66c4d91_cgraph_org.svg" target="_base">
   <rect id="button" ry="5" rx="5" y="6" x="6" height="38" width="38"
        fill="#f2f5e9" fill-opacity="0.5" stroke="#606060" stroke-width="1.0"/>
   <path id="arrow"
     d="M 11.500037,31.436501 C 11.940474,20.09759 22.043105,11.32322 32.158766,21.979434 L 37.068811,17.246167 C 37.068811,17.246167 37.088388,32 37.088388,32 L 22.160133,31.978069 C 22.160133,31.978069 26.997745,27.140456 26.997745,27.140456 C 18.528582,18.264221 13.291696,25.230495 11.500037,31.436501 z"
     style="fill:#404040;"/>
  </a>
 </g>
</svg>

<style type='text/css'>
<![CDATA[
[data-mouse-over-selected='false'] { opacity: 0.7; }
[data-mouse-over-selected='true']  { opacity: 1.0; }
]]>
</style>
<script type="application/ecmascript"><![CDATA[
document.addEventListener('DOMContentLoaded', (event) => {
  highlightEdges();
  highlightAdjacentNodes();
});
]]></script>
</svg>
