<?xml version="1.0" encoding="UTF-8" standalone="no"?>
<!DOCTYPE svg PUBLIC "-//W3C//DTD SVG 1.1//EN"
 "http://www.w3.org/Graphics/SVG/1.1/DTD/svg11.dtd">
<!-- Generated by graphviz version 2.43.0 (0)
 -->
<!-- Title: GameObject::setPosition Pages: 1 -->
<svg width="2147pt" height="398pt"
 viewBox="0.00 0.00 2147.00 397.50" xmlns="http://www.w3.org/2000/svg" xmlns:xlink="http://www.w3.org/1999/xlink">
<g id="graph0" class="graph" transform="scale(1 1) rotate(0) translate(4 393.5)">
<title>GameObject::setPosition</title>
<!-- Node1 -->
<g id="Node000001" class="node">
<title>Node1</title>
<g id="a_Node000001"><a xlink:title="Sets new position for the object.">
<polygon fill="#999999" stroke="#666666" points="2139,-207 2002,-207 2002,-188 2139,-188 2139,-207"/>
<text text-anchor="middle" x="2070.5" y="-195" font-family="Helvetica,sans-Serif" font-size="10.00">GameObject::setPosition</text>
</a>
</g>
</g>
<!-- Node2 -->
<g id="Node000002" class="node">
<title>Node2</title>
<g id="a_Node000002"><a xlink:href="classGameWorld.html#a6b4f2f8d12f4dcde90d48853dd37f6cc" target="_top" xlink:title="Checks boundary collisions.">
<polygon fill="white" stroke="#666666" points="1712,-341.5 1557,-341.5 1557,-311.5 1712,-311.5 1712,-341.5"/>
<text text-anchor="start" x="1565" y="-329.5" font-family="Helvetica,sans-Serif" font-size="10.00">GameWorld::checkBoundary</text>
<text text-anchor="middle" x="1634.5" y="-318.5" font-family="Helvetica,sans-Serif" font-size="10.00">Collisions</text>
</a>
</g>
</g>
<!-- Node1&#45;&gt;Node2 -->
<g id="edge1_Node000001_Node000002" class="edge">
<title>Node1&#45;&gt;Node2</title>
<g id="a_edge1_Node000001_Node000002"><a xlink:title=" ">
<path fill="none" stroke="#63b8ff" d="M2057.86,-215.76C2041,-240.42 2007.21,-283.47 1966,-302.5 1885.3,-339.76 1781.63,-340.79 1712.11,-335.74"/>
<polygon fill="#63b8ff" stroke="#63b8ff" points="2060.87,-217.56 2063.48,-207.29 2055.03,-213.69 2060.87,-217.56"/>
</a>
</g>
</g>
<!-- Node8 -->
<g id="Node000008" class="node">
<title>Node8</title>
<g id="a_Node000008"><a xlink:href="classGameWorld.html#a1ada9d3ebdf482a0fd3abcc1fe41c6de" target="_top" xlink:title="Checks win/lose conditions.">
<polygon fill="white" stroke="#666666" points="1503,-245 1314,-245 1314,-226 1503,-226 1503,-245"/>
<text text-anchor="middle" x="1408.5" y="-233" font-family="Helvetica,sans-Serif" font-size="10.00">GameWorld::checkGameConditions</text>
</a>
</g>
</g>
<!-- Node1&#45;&gt;Node8 -->
<g id="edge7_Node000001_Node000008" class="edge">
<title>Node1&#45;&gt;Node8</title>
<g id="a_edge7_Node000001_Node000008"><a xlink:title=" ">
<path fill="none" stroke="#63b8ff" d="M2012.58,-208.83C1997.5,-211.44 1981.18,-213.91 1966,-215.5 1803.98,-232.42 1614.15,-235.73 1503.31,-236.02"/>
<polygon fill="#63b8ff" stroke="#63b8ff" points="2013.57,-212.21 2022.8,-207.01 2012.34,-205.32 2013.57,-212.21"/>
</a>
</g>
</g>
<!-- Node9 -->
<g id="Node000009" class="node">
<title>Node9</title>
<g id="a_Node000009"><a xlink:href="classMapManager.html#ac1472dad9f9391e45fafadef9c30c1ab" target="_top" xlink:title="Creates game world from map layout.">
<polygon fill="white" stroke="#666666" points="1730,-169 1539,-169 1539,-150 1730,-150 1730,-169"/>
<text text-anchor="middle" x="1634.5" y="-157" font-family="Helvetica,sans-Serif" font-size="10.00">MapManager::createWorldFromMap</text>
</a>
</g>
</g>
<!-- Node1&#45;&gt;Node9 -->
<g id="edge9_Node000001_Node000009" class="edge">
<title>Node1&#45;&gt;Node9</title>
<g id="a_edge9_Node000001_Node000009"><a xlink:title=" ">
<path fill="none" stroke="#63b8ff" d="M2014.34,-186.06C1998.77,-183.19 1981.77,-180.39 1966,-178.5 1886.82,-168.99 1796.39,-164.21 1730.16,-161.82"/>
<polygon fill="#63b8ff" stroke="#63b8ff" points="2013.87,-189.54 2024.34,-187.95 2015.17,-182.66 2013.87,-189.54"/>
</a>
</g>
</g>
<!-- Node17 -->
<g id="Node000017" class="node">
<title>Node17</title>
<g id="a_Node000017"><a xlink:href="classGameWorld.html#a60724b9a69573c00245f87dfdfeefa14" target="_top" xlink:title="Handles tank&#45;obstacle collision.">
<polygon fill="white" stroke="#666666" points="1955,-293.5 1777,-293.5 1777,-263.5 1955,-263.5 1955,-293.5"/>
<text text-anchor="start" x="1785" y="-281.5" font-family="Helvetica,sans-Serif" font-size="10.00">GameWorld::handleTankObstacle</text>
<text text-anchor="middle" x="1866" y="-270.5" font-family="Helvetica,sans-Serif" font-size="10.00">Collision</text>
</a>
</g>
</g>
<!-- Node1&#45;&gt;Node17 -->
<g id="edge24_Node000001_Node000017" class="edge">
<title>Node1&#45;&gt;Node17</title>
<g id="a_edge24_Node000001_Node000017"><a xlink:title=" ">
<path fill="none" stroke="#63b8ff" d="M2043.96,-211.96C2023.37,-223.22 1993.42,-238.7 1966,-249.5 1952.92,-254.65 1938.55,-259.37 1924.92,-263.44"/>
<polygon fill="#63b8ff" stroke="#63b8ff" points="2045.66,-215.02 2052.72,-207.12 2042.27,-208.9 2045.66,-215.02"/>
</a>
</g>
</g>
<!-- Node19 -->
<g id="Node000019" class="node">
<title>Node19</title>
<g id="a_Node000019"><a xlink:href="classGameWorld.html#adc81260573ef130580a3c2a05bd460aa" target="_top" xlink:title="Handles tank&#45;tank collision.">
<polygon fill="white" stroke="#666666" points="1945,-387.5 1787,-387.5 1787,-357.5 1945,-357.5 1945,-387.5"/>
<text text-anchor="start" x="1795" y="-375.5" font-family="Helvetica,sans-Serif" font-size="10.00">GameWorld::handleTankTank</text>
<text text-anchor="middle" x="1866" y="-364.5" font-family="Helvetica,sans-Serif" font-size="10.00">Collision</text>
</a>
</g>
</g>
<!-- Node1&#45;&gt;Node19 -->
<g id="edge27_Node000001_Node000019" class="edge">
<title>Node1&#45;&gt;Node19</title>
<g id="a_edge27_Node000001_Node000019"><a xlink:title=" ">
<path fill="none" stroke="#63b8ff" d="M2060.49,-216.3C2045.18,-246.35 2011.27,-305.2 1966,-338.5 1955.17,-346.47 1942.32,-352.67 1929.54,-357.46"/>
<polygon fill="#63b8ff" stroke="#63b8ff" points="2063.65,-217.81 2064.96,-207.29 2057.38,-214.7 2063.65,-217.81"/>
</a>
</g>
</g>
<!-- Node21 -->
<g id="Node000021" class="node">
<title>Node21</title>
<g id="a_Node000021"><a xlink:href="classGameWorld.html#a13fd8123f71f48726bfeb233961f88da" target="_top" xlink:title="Loads specified level.">
<polygon fill="white" stroke="#666666" points="1698,-131 1571,-131 1571,-112 1698,-112 1698,-131"/>
<text text-anchor="middle" x="1634.5" y="-119" font-family="Helvetica,sans-Serif" font-size="10.00">GameWorld::loadLevel</text>
</a>
</g>
</g>
<!-- Node1&#45;&gt;Node21 -->
<g id="edge30_Node000001_Node000021" class="edge">
<title>Node1&#45;&gt;Node21</title>
<g id="a_edge30_Node000001_Node000021"><a xlink:title=" ">
<path fill="none" stroke="#63b8ff" d="M2056.86,-179.56C2039.46,-156.6 2005.73,-117.97 1966,-102.5 1861.3,-61.73 1723.77,-94.31 1664.61,-111.99"/>
<polygon fill="#63b8ff" stroke="#63b8ff" points="2054.16,-181.79 2062.9,-187.78 2059.8,-177.65 2054.16,-181.79"/>
</a>
</g>
</g>
<!-- Node22 -->
<g id="Node000022" class="node">
<title>Node22</title>
<g id="a_Node000022"><a xlink:href="classGameWorld.html#a2b1db90f0ef907c7e93b1114357b8a90" target="_top" xlink:title="Moves player tank in specified direction.">
<polygon fill="white" stroke="#666666" points="1043.5,-19 906.5,-19 906.5,0 1043.5,0 1043.5,-19"/>
<text text-anchor="middle" x="975" y="-7" font-family="Helvetica,sans-Serif" font-size="10.00">GameWorld::playerMove</text>
</a>
</g>
</g>
<!-- Node1&#45;&gt;Node22 -->
<g id="edge34_Node000001_Node000022" class="edge">
<title>Node1&#45;&gt;Node22</title>
<g id="a_edge34_Node000001_Node000022"><a xlink:title=" ">
<path fill="none" stroke="#63b8ff" d="M2059.07,-179.19C2042.85,-152.54 2008.94,-103.65 1966,-79.5 1836.01,-6.4 1784.63,-21.5 1635.5,-21.5 1635.5,-21.5 1635.5,-21.5 1407.5,-21.5 1278.79,-21.5 1128.56,-16.1 1043.62,-12.54"/>
<polygon fill="#63b8ff" stroke="#63b8ff" points="2056.13,-181.08 2064.23,-187.91 2062.15,-177.52 2056.13,-181.08"/>
</a>
</g>
</g>
<!-- Node23 -->
<g id="Node000023" class="node">
<title>Node23</title>
<g id="a_Node000023"><a xlink:href="classPlayerTank.html#a59e06eac615955573cfa6842e37f41ad" target="_top" xlink:title="Resets player tank to initial state.">
<polygon fill="white" stroke="#666666" points="1916.5,-131 1815.5,-131 1815.5,-112 1916.5,-112 1916.5,-131"/>
<text text-anchor="middle" x="1866" y="-119" font-family="Helvetica,sans-Serif" font-size="10.00">PlayerTank::reset</text>
</a>
</g>
</g>
<!-- Node1&#45;&gt;Node23 -->
<g id="edge36_Node000001_Node000023" class="edge">
<title>Node1&#45;&gt;Node23</title>
<g id="a_edge36_Node000001_Node000023"><a xlink:title=" ">
<path fill="none" stroke="#63b8ff" d="M2044.46,-182.88C2023.93,-171.41 1993.83,-155.71 1966,-145.5 1950.06,-139.65 1932.15,-134.81 1916,-131.05"/>
<polygon fill="#63b8ff" stroke="#63b8ff" points="2042.75,-185.94 2053.17,-187.82 2046.2,-179.85 2042.75,-185.94"/>
</a>
</g>
</g>
<!-- Node24 -->
<g id="Node000024" class="node">
<title>Node24</title>
<g id="a_Node000024"><a xlink:href="classGameWorld.html#a49a5714c352312fbc4502adc5dfa8854" target="_top" xlink:title="Updates movement for specific enemy.">
<polygon fill="white" stroke="#666666" points="1966,-207 1766,-207 1766,-188 1966,-188 1966,-207"/>
<text text-anchor="middle" x="1866" y="-195" font-family="Helvetica,sans-Serif" font-size="10.00">GameWorld::updateEnemyMovement</text>
</a>
</g>
</g>
<!-- Node1&#45;&gt;Node24 -->
<g id="edge38_Node000001_Node000024" class="edge">
<title>Node1&#45;&gt;Node24</title>
<g id="a_edge38_Node000001_Node000024"><a xlink:title=" ">
<path fill="none" stroke="#63b8ff" d="M1991.67,-197.5C1983.27,-197.5 1974.64,-197.5 1966.04,-197.5"/>
<polygon fill="#63b8ff" stroke="#63b8ff" points="1991.79,-201 2001.79,-197.5 1991.79,-194 1991.79,-201"/>
</a>
</g>
</g>
<!-- Node3 -->
<g id="Node000003" class="node">
<title>Node3</title>
<g id="a_Node000003"><a xlink:href="classGameWorld.html#a2a5aaafc1c18521a4657d6a4a66c4d91" target="_top" xlink:title="Checks all types of collisions.">
<polygon fill="white" stroke="#666666" points="1486,-312 1331,-312 1331,-293 1486,-293 1486,-312"/>
<text text-anchor="middle" x="1408.5" y="-300" font-family="Helvetica,sans-Serif" font-size="10.00">GameWorld::checkCollisions</text>
</a>
</g>
</g>
<!-- Node2&#45;&gt;Node3 -->
<g id="edge2_Node000002_Node000003" class="edge">
<title>Node2&#45;&gt;Node3</title>
<g id="a_edge2_Node000002_Node000003"><a xlink:title=" ">
<path fill="none" stroke="#63b8ff" d="M1546.72,-317.2C1526.76,-315.06 1505.67,-312.8 1486.17,-310.72"/>
<polygon fill="#63b8ff" stroke="#63b8ff" points="1546.41,-320.69 1556.73,-318.27 1547.16,-313.73 1546.41,-320.69"/>
</a>
</g>
</g>
<!-- Node4 -->
<g id="Node000004" class="node">
<title>Node4</title>
<g id="a_Node000004"><a xlink:href="classGameWorld.html#ab645acf30cb0a4640a8fb5b88c5c7c94" target="_top" xlink:title="Updates all game objects and logic.">
<polygon fill="white" stroke="#666666" points="1239,-245 1126,-245 1126,-226 1239,-226 1239,-245"/>
<text text-anchor="middle" x="1182.5" y="-233" font-family="Helvetica,sans-Serif" font-size="10.00">GameWorld::update</text>
</a>
</g>
</g>
<!-- Node3&#45;&gt;Node4 -->
<g id="edge3_Node000003_Node000004" class="edge">
<title>Node3&#45;&gt;Node4</title>
<g id="a_edge3_Node000003_Node000004"><a xlink:title=" ">
<path fill="none" stroke="#63b8ff" d="M1365.7,-290C1322.19,-276.98 1255.01,-256.89 1215.53,-245.08"/>
<polygon fill="#63b8ff" stroke="#63b8ff" points="1364.82,-293.39 1375.41,-292.9 1366.83,-286.68 1364.82,-293.39"/>
</a>
</g>
</g>
<!-- Node5 -->
<g id="Node000005" class="node">
<title>Node5</title>
<g id="a_Node000005"><a xlink:href="classGameController.html#af2367e58f03d8a1441c9a574967fd360" target="_top" xlink:title="Processes a single game turn/update cycle.">
<polygon fill="white" stroke="#666666" points="445,-161 258,-161 258,-142 445,-142 445,-161"/>
<text text-anchor="middle" x="351.5" y="-149" font-family="Helvetica,sans-Serif" font-size="10.00">GameController::processGameTurn</text>
</a>
</g>
</g>
<!-- Node4&#45;&gt;Node5 -->
<g id="edge4_Node000004_Node000005" class="edge">
<title>Node4&#45;&gt;Node5</title>
<g id="a_edge4_Node000004_Node000005"><a xlink:title=" ">
<path fill="none" stroke="#63b8ff" d="M1115.72,-236.75C990.7,-237.87 710.75,-234.3 481,-187.5 446.49,-180.47 407.66,-169.1 381.81,-161.02"/>
<polygon fill="#63b8ff" stroke="#63b8ff" points="1115.93,-240.25 1125.89,-236.65 1115.85,-233.25 1115.93,-240.25"/>
</a>
</g>
</g>
<!-- Node6 -->
<g id="Node000006" class="node">
<title>Node6</title>
<g id="a_Node000006"><a xlink:href="classGameController.html#ac958989c8f7f08488546930e5fcb0d82" target="_top" xlink:title="Starts and runs the main game loop.">
<polygon fill="white" stroke="#666666" points="222,-83 77,-83 77,-64 222,-64 222,-83"/>
<text text-anchor="middle" x="149.5" y="-71" font-family="Helvetica,sans-Serif" font-size="10.00">GameController::runGame</text>
</a>
</g>
</g>
<!-- Node5&#45;&gt;Node6 -->
<g id="edge5_Node000005_Node000006" class="edge">
<title>Node5&#45;&gt;Node6</title>
<g id="a_edge5_Node000005_Node000006"><a xlink:title=" ">
<path fill="none" stroke="#63b8ff" d="M316.59,-138.28C276.4,-122.6 210.4,-96.86 174.91,-83.02"/>
<polygon fill="#63b8ff" stroke="#63b8ff" points="315.39,-141.56 325.98,-141.94 317.93,-135.04 315.39,-141.56"/>
</a>
</g>
</g>
<!-- Node7 -->
<g id="Node000007" class="node">
<title>Node7</title>
<g id="a_Node000007"><a xlink:href="main_8cpp.html#ae66f6b31b5ad750f1fe042a706a4e3d4" target="_top" xlink:title="Main function that serves as the application entry point.">
<polygon fill="white" stroke="#666666" points="41,-83 0,-83 0,-64 41,-64 41,-83"/>
<text text-anchor="middle" x="20.5" y="-71" font-family="Helvetica,sans-Serif" font-size="10.00">main</text>
</a>
</g>
</g>
<!-- Node6&#45;&gt;Node7 -->
<g id="edge6_Node000006_Node000007" class="edge">
<title>Node6&#45;&gt;Node7</title>
<g id="a_edge6_Node000006_Node000007"><a xlink:title=" ">
<path fill="none" stroke="#63b8ff" d="M66.79,-73.5C57.31,-73.5 48.43,-73.5 41.08,-73.5"/>
<polygon fill="#63b8ff" stroke="#63b8ff" points="66.83,-77 76.83,-73.5 66.83,-70 66.83,-77"/>
</a>
</g>
</g>
<!-- Node8&#45;&gt;Node4 -->
<g id="edge8_Node000008_Node000004" class="edge">
<title>Node8&#45;&gt;Node4</title>
<g id="a_edge8_Node000008_Node000004"><a xlink:title=" ">
<path fill="none" stroke="#63b8ff" d="M1303.62,-235.5C1281.36,-235.5 1258.68,-235.5 1239.1,-235.5"/>
<polygon fill="#63b8ff" stroke="#63b8ff" points="1303.8,-239 1313.8,-235.5 1303.8,-232 1303.8,-239"/>
</a>
</g>
</g>
<!-- Node10 -->
<g id="Node000010" class="node">
<title>Node10</title>
<g id="a_Node000010"><a xlink:href="classGameController.html#a09c76a5ae9b8f514163dafe31273f44f" target="_top" xlink:title="Loads the currently selected map.">
<polygon fill="white" stroke="#666666" points="1500.5,-169 1316.5,-169 1316.5,-150 1500.5,-150 1500.5,-169"/>
<text text-anchor="middle" x="1408.5" y="-157" font-family="Helvetica,sans-Serif" font-size="10.00">GameController::loadSelectedMap</text>
</a>
</g>
</g>
<!-- Node9&#45;&gt;Node10 -->
<g id="edge10_Node000009_Node000010" class="edge">
<title>Node9&#45;&gt;Node10</title>
<g id="a_edge10_Node000009_Node000010"><a xlink:title=" ">
<path fill="none" stroke="#63b8ff" d="M1528.69,-159.5C1519.31,-159.5 1509.87,-159.5 1500.62,-159.5"/>
<polygon fill="#63b8ff" stroke="#63b8ff" points="1528.83,-163 1538.83,-159.5 1528.83,-156 1528.83,-163"/>
</a>
</g>
</g>
<!-- Node11 -->
<g id="Node000011" class="node">
<title>Node11</title>
<g id="a_Node000011"><a xlink:href="classGameController.html#a4086fc466d91f45c41b2bc5df06af77a" target="_top" xlink:title="Loads the next game level.">
<polygon fill="white" stroke="#666666" points="1254.5,-174.5 1110.5,-174.5 1110.5,-144.5 1254.5,-144.5 1254.5,-174.5"/>
<text text-anchor="start" x="1118.5" y="-162.5" font-family="Helvetica,sans-Serif" font-size="10.00">GameController::loadNext</text>
<text text-anchor="middle" x="1182.5" y="-151.5" font-family="Helvetica,sans-Serif" font-size="10.00">Level</text>
</a>
</g>
</g>
<!-- Node10&#45;&gt;Node11 -->
<g id="edge11_Node000010_Node000011" class="edge">
<title>Node10&#45;&gt;Node11</title>
<g id="a_edge11_Node000010_Node000011"><a xlink:title=" ">
<path fill="none" stroke="#63b8ff" d="M1306.19,-159.5C1288.77,-159.5 1271.01,-159.5 1254.61,-159.5"/>
<polygon fill="#63b8ff" stroke="#63b8ff" points="1306.39,-163 1316.39,-159.5 1306.39,-156 1306.39,-163"/>
</a>
</g>
</g>
<!-- Node13 -->
<g id="Node000013" class="node">
<title>Node13</title>
<g id="a_Node000013"><a xlink:href="classGameController.html#a4a9c94fe33cf6c73bb5dfc415d04d309" target="_top" xlink:title="Displays map selection screen.">
<polygon fill="white" stroke="#666666" points="1278,-121 1087,-121 1087,-102 1278,-102 1278,-121"/>
<text text-anchor="middle" x="1182.5" y="-109" font-family="Helvetica,sans-Serif" font-size="10.00">GameController::showMapSelection</text>
</a>
</g>
</g>
<!-- Node10&#45;&gt;Node13 -->
<g id="edge14_Node000010_Node000013" class="edge">
<title>Node10&#45;&gt;Node13</title>
<g id="a_edge14_Node000010_Node000013"><a xlink:title=" ">
<path fill="none" stroke="#63b8ff" d="M1353,-147.82C1314.62,-139.6 1263.87,-128.72 1227.94,-121.02"/>
<polygon fill="#63b8ff" stroke="#63b8ff" points="1352.47,-151.29 1362.98,-149.96 1353.93,-144.44 1352.47,-151.29"/>
</a>
</g>
</g>
<!-- Node12 -->
<g id="Node000012" class="node">
<title>Node12</title>
<g id="a_Node000012"><a xlink:href="classGameController.html#a85bcf4ecfd197aad278e116215a3717b" target="_top" xlink:title="Displays level completion screen.">
<polygon fill="white" stroke="#666666" points="860,-207.5 708,-207.5 708,-177.5 860,-177.5 860,-207.5"/>
<text text-anchor="start" x="716" y="-195.5" font-family="Helvetica,sans-Serif" font-size="10.00">GameController::showLevel</text>
<text text-anchor="middle" x="784" y="-184.5" font-family="Helvetica,sans-Serif" font-size="10.00">CompleteScreen</text>
</a>
</g>
</g>
<!-- Node11&#45;&gt;Node12 -->
<g id="edge12_Node000011_Node000012" class="edge">
<title>Node11&#45;&gt;Node12</title>
<g id="a_edge12_Node000011_Node000012"><a xlink:title=" ">
<path fill="none" stroke="#63b8ff" d="M1100,-166.28C1029.58,-172.14 928.65,-180.54 860.15,-186.25"/>
<polygon fill="#63b8ff" stroke="#63b8ff" points="1100.48,-169.76 1110.16,-165.44 1099.9,-162.78 1100.48,-169.76"/>
</a>
</g>
</g>
<!-- Node12&#45;&gt;Node5 -->
<g id="edge13_Node000012_Node000005" class="edge">
<title>Node12&#45;&gt;Node5</title>
<g id="a_edge13_Node000012_Node000005"><a xlink:title=" ">
<path fill="none" stroke="#63b8ff" d="M697.45,-184.35C624.55,-177.41 520.01,-167.45 445.15,-160.32"/>
<polygon fill="#63b8ff" stroke="#63b8ff" points="697.23,-187.85 707.52,-185.31 697.9,-180.88 697.23,-187.85"/>
</a>
</g>
</g>
<!-- Node14 -->
<g id="Node000014" class="node">
<title>Node14</title>
<g id="a_Node000014"><a xlink:href="classGameController.html#a971b3d8f6296a74f0bebc83b5e79c186" target="_top" xlink:title="Processes a user command.">
<polygon fill="white" stroke="#666666" points="669,-121 481,-121 481,-102 669,-102 669,-121"/>
<text text-anchor="middle" x="575" y="-109" font-family="Helvetica,sans-Serif" font-size="10.00">GameController::processCommand</text>
</a>
</g>
</g>
<!-- Node13&#45;&gt;Node14 -->
<g id="edge15_Node000013_Node000014" class="edge">
<title>Node13&#45;&gt;Node14</title>
<g id="a_edge15_Node000013_Node000014"><a xlink:title=" ">
<path fill="none" stroke="#63b8ff" d="M1114.69,-122.51C1094.31,-125.38 1071.79,-128.07 1051,-129.5 897.57,-140.03 858.47,-135.39 705,-125.5 688.25,-124.42 670.33,-122.78 653.33,-121.01"/>
<polygon fill="#63b8ff" stroke="#63b8ff" points="1115.43,-125.94 1124.83,-121.04 1114.43,-119.01 1115.43,-125.94"/>
</a>
</g>
</g>
<!-- Node15 -->
<g id="Node000015" class="node">
<title>Node15</title>
<g id="a_Node000015"><a xlink:href="classGameController.html#a9d11b5a6255b7249bddba49df0837cf3" target="_top" xlink:title="Displays and manages the main menu.">
<polygon fill="white" stroke="#666666" points="1051,-121 899,-121 899,-102 1051,-102 1051,-121"/>
<text text-anchor="middle" x="975" y="-109" font-family="Helvetica,sans-Serif" font-size="10.00">GameController::showMenu</text>
</a>
</g>
</g>
<!-- Node13&#45;&gt;Node15 -->
<g id="edge17_Node000013_Node000015" class="edge">
<title>Node13&#45;&gt;Node15</title>
<g id="a_edge17_Node000013_Node000015"><a xlink:title=" ">
<path fill="none" stroke="#63b8ff" d="M1076.72,-104.75C1068.06,-104.76 1059.43,-104.84 1051.06,-104.97"/>
<polygon fill="#63b8ff" stroke="#63b8ff" points="1076.86,-108.25 1086.87,-104.77 1076.88,-101.25 1076.86,-108.25"/>
</a>
</g>
</g>
<!-- Node14&#45;&gt;Node5 -->
<g id="edge16_Node000014_Node000005" class="edge">
<title>Node14&#45;&gt;Node5</title>
<g id="a_edge16_Node000014_Node000005"><a xlink:title=" ">
<path fill="none" stroke="#63b8ff" d="M511.1,-122.86C477.66,-128.9 437.02,-136.24 405.25,-141.97"/>
<polygon fill="#63b8ff" stroke="#63b8ff" points="512.01,-126.25 521.23,-121.03 510.76,-119.36 512.01,-126.25"/>
</a>
</g>
</g>
<!-- Node15&#45;&gt;Node6 -->
<g id="edge21_Node000015_Node000006" class="edge">
<title>Node15&#45;&gt;Node6</title>
<g id="a_edge21_Node000015_Node000006"><a xlink:title=" ">
<path fill="none" stroke="#63b8ff" d="M952.08,-96.24C930.54,-82.24 896.16,-62.52 863,-54.5 618.24,4.67 312.38,-42.24 197.22,-63.96"/>
<polygon fill="#63b8ff" stroke="#63b8ff" points="950.22,-99.21 960.48,-101.83 954.1,-93.38 950.22,-99.21"/>
</a>
</g>
</g>
<!-- Node15&#45;&gt;Node12 -->
<g id="edge22_Node000015_Node000012" class="edge">
<title>Node15&#45;&gt;Node12</title>
<g id="a_edge22_Node000015_Node000012"><a xlink:title=" ">
<path fill="none" stroke="#63b8ff" d="M942.19,-125.13C908.44,-139.6 855.26,-162.39 820.25,-177.39"/>
<polygon fill="#63b8ff" stroke="#63b8ff" points="943.76,-128.27 951.58,-121.11 941.01,-121.83 943.76,-128.27"/>
</a>
</g>
</g>
<!-- Node15&#45;&gt;Node13 -->
<g id="edge23_Node000015_Node000013" class="edge">
<title>Node15&#45;&gt;Node13</title>
<g id="a_edge23_Node000015_Node000013"><a xlink:title=" ">
<path fill="none" stroke="#63b8ff" d="M1061.27,-118.16C1069.72,-118.25 1078.33,-118.27 1086.87,-118.23"/>
<polygon fill="#63b8ff" stroke="#63b8ff" points="1061.1,-114.66 1051.06,-118.03 1061.01,-121.66 1061.1,-114.66"/>
</a>
</g>
</g>
<!-- Node15&#45;&gt;Node14 -->
<g id="edge20_Node000015_Node000014" class="edge">
<title>Node15&#45;&gt;Node14</title>
<g id="a_edge20_Node000015_Node000014"><a xlink:title=" ">
<path fill="none" stroke="#63b8ff" d="M888.53,-111.5C824.02,-111.5 735.58,-111.5 669.25,-111.5"/>
<polygon fill="#63b8ff" stroke="#63b8ff" points="888.67,-115 898.67,-111.5 888.67,-108 888.67,-115"/>
</a>
</g>
</g>
<!-- Node16 -->
<g id="Node000016" class="node">
<title>Node16</title>
<g id="a_Node000016"><a xlink:href="classGameController.html#a637ea4e72ed2be4a2884b30160b3e8ab" target="_top" xlink:title="Pauses the game and displays pause screen.">
<polygon fill="white" stroke="#666666" points="863,-83 705,-83 705,-64 863,-64 863,-83"/>
<text text-anchor="middle" x="784" y="-71" font-family="Helvetica,sans-Serif" font-size="10.00">GameController::pauseGame</text>
</a>
</g>
</g>
<!-- Node15&#45;&gt;Node16 -->
<g id="edge18_Node000015_Node000016" class="edge">
<title>Node15&#45;&gt;Node16</title>
<g id="a_edge18_Node000015_Node000016"><a xlink:title=" ">
<path fill="none" stroke="#63b8ff" d="M916.26,-99.89C889.38,-94.49 857.8,-88.14 832.35,-83.02"/>
<polygon fill="#63b8ff" stroke="#63b8ff" points="915.81,-103.37 926.31,-101.91 917.19,-96.51 915.81,-103.37"/>
</a>
</g>
</g>
<!-- Node16&#45;&gt;Node14 -->
<g id="edge19_Node000016_Node000014" class="edge">
<title>Node16&#45;&gt;Node14</title>
<g id="a_edge19_Node000016_Node000014"><a xlink:title=" ">
<path fill="none" stroke="#63b8ff" d="M721.19,-84.85C691.49,-90.3 656.29,-96.76 627.99,-101.96"/>
<polygon fill="#63b8ff" stroke="#63b8ff" points="721.83,-88.29 731.03,-83.04 720.56,-81.4 721.83,-88.29"/>
</a>
</g>
</g>
<!-- Node18 -->
<g id="Node000018" class="node">
<title>Node18</title>
<g id="a_Node000018"><a xlink:href="classGameWorld.html#ab28f8bec4f78b7be44d509449508babb" target="_top" xlink:title="Checks tank&#45;obstacle collisions.">
<polygon fill="white" stroke="#666666" points="1721,-293.5 1548,-293.5 1548,-263.5 1721,-263.5 1721,-293.5"/>
<text text-anchor="start" x="1556" y="-281.5" font-family="Helvetica,sans-Serif" font-size="10.00">GameWorld::checkTankObstacle</text>
<text text-anchor="middle" x="1634.5" y="-270.5" font-family="Helvetica,sans-Serif" font-size="10.00">Collisions</text>
</a>
</g>
</g>
<!-- Node17&#45;&gt;Node18 -->
<g id="edge25_Node000017_Node000018" class="edge">
<title>Node17&#45;&gt;Node18</title>
<g id="a_edge25_Node000017_Node000018"><a xlink:title=" ">
<path fill="none" stroke="#63b8ff" d="M1766.53,-278.5C1751.4,-278.5 1735.89,-278.5 1721.07,-278.5"/>
<polygon fill="#63b8ff" stroke="#63b8ff" points="1766.93,-282 1776.93,-278.5 1766.93,-275 1766.93,-282"/>
</a>
</g>
</g>
<!-- Node18&#45;&gt;Node3 -->
<g id="edge26_Node000018_Node000003" class="edge">
<title>Node18&#45;&gt;Node3</title>
<g id="a_edge26_Node000018_Node000003"><a xlink:title=" ">
<path fill="none" stroke="#63b8ff" d="M1537.8,-288.75C1520.6,-290.6 1502.87,-292.5 1486.29,-294.27"/>
<polygon fill="#63b8ff" stroke="#63b8ff" points="1538.29,-292.22 1547.86,-287.68 1537.54,-285.26 1538.29,-292.22"/>
</a>
</g>
</g>
<!-- Node20 -->
<g id="Node000020" class="node">
<title>Node20</title>
<g id="a_Node000020"><a xlink:href="classGameWorld.html#aba83e6f4f714c9f590f4cb8078cd9a2b" target="_top" xlink:title="Checks tank&#45;tank collisions.">
<polygon fill="white" stroke="#666666" points="1711,-389.5 1558,-389.5 1558,-359.5 1711,-359.5 1711,-389.5"/>
<text text-anchor="start" x="1566" y="-377.5" font-family="Helvetica,sans-Serif" font-size="10.00">GameWorld::checkTankTank</text>
<text text-anchor="middle" x="1634.5" y="-366.5" font-family="Helvetica,sans-Serif" font-size="10.00">Collisions</text>
</a>
</g>
</g>
<!-- Node19&#45;&gt;Node20 -->
<g id="edge28_Node000019_Node000020" class="edge">
<title>Node19&#45;&gt;Node20</title>
<g id="a_edge28_Node000019_Node000020"><a xlink:title=" ">
<path fill="none" stroke="#63b8ff" d="M1776.84,-373.27C1755.24,-373.46 1732.32,-373.66 1711.36,-373.84"/>
<polygon fill="#63b8ff" stroke="#63b8ff" points="1777.01,-376.77 1786.98,-373.18 1776.95,-369.77 1777.01,-376.77"/>
</a>
</g>
</g>
<!-- Node20&#45;&gt;Node3 -->
<g id="edge29_Node000020_Node000003" class="edge">
<title>Node20&#45;&gt;Node3</title>
<g id="a_edge29_Node000020_Node000003"><a xlink:title=" ">
<path fill="none" stroke="#63b8ff" d="M1560.52,-356.79C1553.22,-354.77 1545.94,-352.66 1539,-350.5 1501.45,-338.81 1458.87,-322.4 1433.11,-312.11"/>
<polygon fill="#63b8ff" stroke="#63b8ff" points="1559.89,-360.25 1570.46,-359.48 1561.72,-353.49 1559.89,-360.25"/>
</a>
</g>
</g>
<!-- Node21&#45;&gt;Node10 -->
<g id="edge32_Node000021_Node000010" class="edge">
<title>Node21&#45;&gt;Node10</title>
<g id="a_edge32_Node000021_Node000010"><a xlink:title=" ">
<path fill="none" stroke="#63b8ff" d="M1567.03,-132.78C1534.81,-138.24 1496.52,-144.74 1465.76,-149.96"/>
<polygon fill="#63b8ff" stroke="#63b8ff" points="1567.99,-136.16 1577.26,-131.04 1566.82,-129.26 1567.99,-136.16"/>
</a>
</g>
</g>
<!-- Node21&#45;&gt;Node11 -->
<g id="edge31_Node000021_Node000011" class="edge">
<title>Node21&#45;&gt;Node11</title>
<g id="a_edge31_Node000021_Node000011"><a xlink:title=" ">
<path fill="none" stroke="#63b8ff" d="M1560.81,-124.06C1495.96,-126.76 1398.48,-131.85 1314,-140.5 1294.75,-142.47 1274,-145.21 1254.82,-148"/>
<polygon fill="#63b8ff" stroke="#63b8ff" points="1561.08,-127.55 1570.93,-123.64 1560.79,-120.56 1561.08,-127.55"/>
</a>
</g>
</g>
<!-- Node21&#45;&gt;Node13 -->
<g id="edge33_Node000021_Node000013" class="edge">
<title>Node21&#45;&gt;Node13</title>
<g id="a_edge33_Node000021_Node000013"><a xlink:title=" ">
<path fill="none" stroke="#63b8ff" d="M1560.89,-112.32C1542.07,-110.32 1521.81,-108.51 1503,-107.5 1427.53,-103.46 1341.89,-104.86 1278.28,-107.04"/>
<polygon fill="#63b8ff" stroke="#63b8ff" points="1560.56,-115.8 1570.88,-113.41 1561.32,-108.85 1560.56,-115.8"/>
</a>
</g>
</g>
<!-- Node22&#45;&gt;Node14 -->
<g id="edge35_Node000022_Node000014" class="edge">
<title>Node22&#45;&gt;Node14</title>
<g id="a_edge35_Node000022_Node000014"><a xlink:title=" ">
<path fill="none" stroke="#63b8ff" d="M896.08,-17.31C841.73,-24.01 767.96,-35.65 705,-54.5 663.72,-66.86 618.23,-89.17 593.82,-101.9"/>
<polygon fill="#63b8ff" stroke="#63b8ff" points="896.82,-20.74 906.33,-16.07 895.99,-13.79 896.82,-20.74"/>
</a>
</g>
</g>
<!-- Node23&#45;&gt;Node21 -->
<g id="edge37_Node000023_Node000021" class="edge">
<title>Node23&#45;&gt;Node21</title>
<g id="a_edge37_Node000023_Node000021"><a xlink:title=" ">
<path fill="none" stroke="#63b8ff" d="M1805.09,-121.5C1772.18,-121.5 1731.39,-121.5 1698.06,-121.5"/>
<polygon fill="#63b8ff" stroke="#63b8ff" points="1805.48,-125 1815.48,-121.5 1805.48,-118 1805.48,-125"/>
</a>
</g>
</g>
<!-- Node25 -->
<g id="Node000025" class="node">
<title>Node25</title>
<g id="a_Node000025"><a xlink:href="classGameWorld.html#a48cb994868f422ae759b15f3b9c861b6" target="_top" xlink:title="Updates AI for all enemies.">
<polygon fill="white" stroke="#666666" points="1487,-208 1330,-208 1330,-189 1487,-189 1487,-208"/>
<text text-anchor="middle" x="1408.5" y="-196" font-family="Helvetica,sans-Serif" font-size="10.00">GameWorld::updateEnemyAI</text>
</a>
</g>
</g>
<!-- Node24&#45;&gt;Node25 -->
<g id="edge39_Node000024_Node000025" class="edge">
<title>Node24&#45;&gt;Node25</title>
<g id="a_edge39_Node000024_Node000025"><a xlink:title=" ">
<path fill="none" stroke="#63b8ff" d="M1755.68,-197.74C1672.88,-197.92 1561.15,-198.17 1487.29,-198.33"/>
<polygon fill="#63b8ff" stroke="#63b8ff" points="1755.89,-201.24 1765.88,-197.72 1755.87,-194.24 1755.89,-201.24"/>
</a>
</g>
</g>
<!-- Node25&#45;&gt;Node4 -->
<g id="edge40_Node000025_Node000004" class="edge">
<title>Node25&#45;&gt;Node4</title>
<g id="a_edge40_Node000025_Node000004"><a xlink:title=" ">
<path fill="none" stroke="#63b8ff" d="M1339.59,-209.72C1307.42,-215.03 1269.48,-221.3 1239.06,-226.32"/>
<polygon fill="#63b8ff" stroke="#63b8ff" points="1340.52,-213.11 1349.81,-208.03 1339.38,-206.2 1340.52,-213.11"/>
</a>
</g>
</g>
</g>
</svg>
