<?xml version="1.0" encoding="UTF-8" standalone="no"?>
<!DOCTYPE svg PUBLIC "-//W3C//DTD SVG 1.1//EN"
 "http://www.w3.org/Graphics/SVG/1.1/DTD/svg11.dtd">
<!-- Generated by graphviz version 2.43.0 (0)
 -->
<!-- Title: GameWorld::handleTankTankCollision Pages: 1 -->
<svg width="1176pt" height="38pt"
 viewBox="0.00 0.00 1176.00 38.00" xmlns="http://www.w3.org/2000/svg" xmlns:xlink="http://www.w3.org/1999/xlink">
<g id="graph0" class="graph" transform="scale(1 1) rotate(0) translate(4 34)">
<title>GameWorld::handleTankTankCollision</title>
<!-- Node1 -->
<g id="Node000001" class="node">
<title>Node1</title>
<g id="a_Node000001"><a xlink:title="Handles tank&#45;tank collision.">
<polygon fill="#999999" stroke="#666666" points="1168,-30 1010,-30 1010,0 1168,0 1168,-30"/>
<text text-anchor="start" x="1018" y="-18" font-family="Helvetica,sans-Serif" font-size="10.00">GameWorld::handleTankTank</text>
<text text-anchor="middle" x="1089" y="-7" font-family="Helvetica,sans-Serif" font-size="10.00">Collision</text>
</a>
</g>
</g>
<!-- Node2 -->
<g id="Node000002" class="node">
<title>Node2</title>
<g id="a_Node000002"><a xlink:href="classGameWorld.html#aba83e6f4f714c9f590f4cb8078cd9a2b" target="_top" xlink:title="Checks tank&#45;tank collisions.">
<polygon fill="white" stroke="#666666" points="974,-30 821,-30 821,0 974,0 974,-30"/>
<text text-anchor="start" x="829" y="-18" font-family="Helvetica,sans-Serif" font-size="10.00">GameWorld::checkTankTank</text>
<text text-anchor="middle" x="897.5" y="-7" font-family="Helvetica,sans-Serif" font-size="10.00">Collisions</text>
</a>
</g>
</g>
<!-- Node1&#45;&gt;Node2 -->
<g id="edge1_Node000001_Node000002" class="edge">
<title>Node1&#45;&gt;Node2</title>
<g id="a_edge1_Node000001_Node000002"><a xlink:title=" ">
<path fill="none" stroke="#63b8ff" d="M999.78,-15C991.18,-15 982.51,-15 974.05,-15"/>
<polygon fill="#63b8ff" stroke="#63b8ff" points="999.83,-18.5 1009.83,-15 999.83,-11.5 999.83,-18.5"/>
</a>
</g>
</g>
<!-- Node3 -->
<g id="Node000003" class="node">
<title>Node3</title>
<g id="a_Node000003"><a xlink:href="classGameWorld.html#a2a5aaafc1c18521a4657d6a4a66c4d91" target="_top" xlink:title="Checks all types of collisions.">
<polygon fill="white" stroke="#666666" points="785,-24.5 630,-24.5 630,-5.5 785,-5.5 785,-24.5"/>
<text text-anchor="middle" x="707.5" y="-12.5" font-family="Helvetica,sans-Serif" font-size="10.00">GameWorld::checkCollisions</text>
</a>
</g>
</g>
<!-- Node2&#45;&gt;Node3 -->
<g id="edge2_Node000002_Node000003" class="edge">
<title>Node2&#45;&gt;Node3</title>
<g id="a_edge2_Node000002_Node000003"><a xlink:title=" ">
<path fill="none" stroke="#63b8ff" d="M810.59,-15C802.13,-15 793.58,-15 785.22,-15"/>
<polygon fill="#63b8ff" stroke="#63b8ff" points="810.85,-18.5 820.85,-15 810.85,-11.5 810.85,-18.5"/>
</a>
</g>
</g>
<!-- Node4 -->
<g id="Node000004" class="node">
<title>Node4</title>
<g id="a_Node000004"><a xlink:href="classGameWorld.html#ab645acf30cb0a4640a8fb5b88c5c7c94" target="_top" xlink:title="Updates all game objects and logic.">
<polygon fill="white" stroke="#666666" points="594,-24.5 481,-24.5 481,-5.5 594,-5.5 594,-24.5"/>
<text text-anchor="middle" x="537.5" y="-12.5" font-family="Helvetica,sans-Serif" font-size="10.00">GameWorld::update</text>
</a>
</g>
</g>
<!-- Node3&#45;&gt;Node4 -->
<g id="edge3_Node000003_Node000004" class="edge">
<title>Node3&#45;&gt;Node4</title>
<g id="a_edge3_Node000003_Node000004"><a xlink:title=" ">
<path fill="none" stroke="#63b8ff" d="M619.77,-15C611.16,-15 602.59,-15 594.42,-15"/>
<polygon fill="#63b8ff" stroke="#63b8ff" points="619.87,-18.5 629.87,-15 619.87,-11.5 619.87,-18.5"/>
</a>
</g>
</g>
<!-- Node5 -->
<g id="Node000005" class="node">
<title>Node5</title>
<g id="a_Node000005"><a xlink:href="classGameController.html#af2367e58f03d8a1441c9a574967fd360" target="_top" xlink:title="Processes a single game turn/update cycle.">
<polygon fill="white" stroke="#666666" points="445,-24.5 258,-24.5 258,-5.5 445,-5.5 445,-24.5"/>
<text text-anchor="middle" x="351.5" y="-12.5" font-family="Helvetica,sans-Serif" font-size="10.00">GameController::processGameTurn</text>
</a>
</g>
</g>
<!-- Node4&#45;&gt;Node5 -->
<g id="edge4_Node000004_Node000005" class="edge">
<title>Node4&#45;&gt;Node5</title>
<g id="a_edge4_Node000004_Node000005"><a xlink:title=" ">
<path fill="none" stroke="#63b8ff" d="M470.78,-15C462.43,-15 453.76,-15 445.08,-15"/>
<polygon fill="#63b8ff" stroke="#63b8ff" points="470.79,-18.5 480.79,-15 470.79,-11.5 470.79,-18.5"/>
</a>
</g>
</g>
<!-- Node6 -->
<g id="Node000006" class="node">
<title>Node6</title>
<g id="a_Node000006"><a xlink:href="classGameController.html#ac958989c8f7f08488546930e5fcb0d82" target="_top" xlink:title="Starts and runs the main game loop.">
<polygon fill="white" stroke="#666666" points="222,-24.5 77,-24.5 77,-5.5 222,-5.5 222,-24.5"/>
<text text-anchor="middle" x="149.5" y="-12.5" font-family="Helvetica,sans-Serif" font-size="10.00">GameController::runGame</text>
</a>
</g>
</g>
<!-- Node5&#45;&gt;Node6 -->
<g id="edge5_Node000005_Node000006" class="edge">
<title>Node5&#45;&gt;Node6</title>
<g id="a_edge5_Node000005_Node000006"><a xlink:title=" ">
<path fill="none" stroke="#63b8ff" d="M247.71,-15C239.1,-15 230.52,-15 222.22,-15"/>
<polygon fill="#63b8ff" stroke="#63b8ff" points="247.82,-18.5 257.82,-15 247.82,-11.5 247.82,-18.5"/>
</a>
</g>
</g>
<!-- Node7 -->
<g id="Node000007" class="node">
<title>Node7</title>
<g id="a_Node000007"><a xlink:href="main_8cpp.html#ae66f6b31b5ad750f1fe042a706a4e3d4" target="_top" xlink:title="Main function that serves as the application entry point.">
<polygon fill="white" stroke="#666666" points="41,-24.5 0,-24.5 0,-5.5 41,-5.5 41,-24.5"/>
<text text-anchor="middle" x="20.5" y="-12.5" font-family="Helvetica,sans-Serif" font-size="10.00">main</text>
</a>
</g>
</g>
<!-- Node6&#45;&gt;Node7 -->
<g id="edge6_Node000006_Node000007" class="edge">
<title>Node6&#45;&gt;Node7</title>
<g id="a_edge6_Node000006_Node000007"><a xlink:title=" ">
<path fill="none" stroke="#63b8ff" d="M66.79,-15C57.31,-15 48.43,-15 41.08,-15"/>
<polygon fill="#63b8ff" stroke="#63b8ff" points="66.83,-18.5 76.83,-15 66.83,-11.5 66.83,-18.5"/>
</a>
</g>
</g>
</g>
</svg>
