<?xml version="1.0" encoding="UTF-8" standalone="no"?>
<!DOCTYPE svg PUBLIC "-//W3C//DTD SVG 1.1//EN"
 "http://www.w3.org/Graphics/SVG/1.1/DTD/svg11.dtd">
<!-- Generated by graphviz version 2.43.0 (0)
 -->
<!-- Title: GameController::GameController Pages: 1 -->
<svg width="799pt" height="124pt"
 viewBox="0.00 0.00 799.00 124.00" xmlns="http://www.w3.org/2000/svg" xmlns:xlink="http://www.w3.org/1999/xlink">
<g id="graph0" class="graph" transform="scale(1 1) rotate(0) translate(4 120)">
<title>GameController::GameController</title>
<!-- Node1 -->
<g id="Node000001" class="node">
<title>Node1</title>
<g id="a_Node000001"><a xlink:title="Constructs a GameController object.">
<polygon fill="#999999" stroke="#666666" points="177,-67.5 0,-67.5 0,-48.5 177,-48.5 177,-67.5"/>
<text text-anchor="middle" x="88.5" y="-55.5" font-family="Helvetica,sans-Serif" font-size="10.00">GameController::GameController</text>
</a>
</g>
</g>
<!-- Node2 -->
<g id="Node000002" class="node">
<title>Node2</title>
<g id="a_Node000002"><a xlink:href="classSettingsManager.html#a1686a183b6d975ae02e1a97cde31b226" target="_top" xlink:title="Gets a boolean setting value.">
<polygon fill="white" stroke="#666666" points="369,-116 226,-116 226,-86 369,-86 369,-116"/>
<text text-anchor="start" x="234" y="-104" font-family="Helvetica,sans-Serif" font-size="10.00">SettingsManager::getBool</text>
<text text-anchor="middle" x="297.5" y="-93" font-family="Helvetica,sans-Serif" font-size="10.00">Setting</text>
</a>
</g>
</g>
<!-- Node1&#45;&gt;Node2 -->
<g id="edge1_Node000001_Node000002" class="edge">
<title>Node1&#45;&gt;Node2</title>
<g id="a_edge1_Node000001_Node000002"><a xlink:title=" ">
<path fill="none" stroke="#63b8ff" d="M135.44,-67.54C159.1,-72.46 188.63,-78.59 215.93,-84.26"/>
<polygon fill="#63b8ff" stroke="#63b8ff" points="215.37,-87.72 225.87,-86.33 216.79,-80.87 215.37,-87.72"/>
</a>
</g>
</g>
<!-- Node4 -->
<g id="Node000004" class="node">
<title>Node4</title>
<g id="a_Node000004"><a xlink:href="classMapManager.html#a5242ad70cbfc71d06233f84723dd1b7b" target="_top" xlink:title="Loads all maps from directory.">
<polygon fill="white" stroke="#666666" points="364.5,-67.5 230.5,-67.5 230.5,-48.5 364.5,-48.5 364.5,-67.5"/>
<text text-anchor="middle" x="297.5" y="-55.5" font-family="Helvetica,sans-Serif" font-size="10.00">MapManager::loadMaps</text>
</a>
</g>
</g>
<!-- Node1&#45;&gt;Node4 -->
<g id="edge3_Node000001_Node000004" class="edge">
<title>Node1&#45;&gt;Node4</title>
<g id="a_edge3_Node000001_Node000004"><a xlink:title=" ">
<path fill="none" stroke="#63b8ff" d="M177.29,-58C191.56,-58 206.25,-58 220.22,-58"/>
<polygon fill="#63b8ff" stroke="#63b8ff" points="220.25,-61.5 230.25,-58 220.25,-54.5 220.25,-61.5"/>
</a>
</g>
</g>
<!-- Node7 -->
<g id="Node000007" class="node">
<title>Node7</title>
<g id="a_Node000007"><a xlink:href="classConsoleRenderer.html#ac1299b325bb43da2b01ce929fc6f91f6" target="_top" xlink:title="Enables or disables advanced graphics.">
<polygon fill="white" stroke="#666666" points="382,-30 213,-30 213,0 382,0 382,-30"/>
<text text-anchor="start" x="221" y="-18" font-family="Helvetica,sans-Serif" font-size="10.00">ConsoleRenderer::setAdvanced</text>
<text text-anchor="middle" x="297.5" y="-7" font-family="Helvetica,sans-Serif" font-size="10.00">Graphics</text>
</a>
</g>
</g>
<!-- Node1&#45;&gt;Node7 -->
<g id="edge6_Node000001_Node000007" class="edge">
<title>Node1&#45;&gt;Node7</title>
<g id="a_edge6_Node000001_Node000007"><a xlink:title=" ">
<path fill="none" stroke="#63b8ff" d="M135.44,-48.46C158.67,-43.63 187.58,-37.63 214.46,-32.04"/>
<polygon fill="#63b8ff" stroke="#63b8ff" points="215.18,-35.47 224.26,-30.01 213.76,-28.61 215.18,-35.47"/>
</a>
</g>
</g>
<!-- Node3 -->
<g id="Node000003" class="node">
<title>Node3</title>
<g id="a_Node000003"><a xlink:href="classSettingsManager.html#a824eef45a26393d9038ac52ce0413596" target="_top" xlink:title="Gets a string setting value.">
<polygon fill="white" stroke="#666666" points="585,-110.5 430,-110.5 430,-91.5 585,-91.5 585,-110.5"/>
<text text-anchor="middle" x="507.5" y="-98.5" font-family="Helvetica,sans-Serif" font-size="10.00">SettingsManager::getSetting</text>
</a>
</g>
</g>
<!-- Node2&#45;&gt;Node3 -->
<g id="edge2_Node000002_Node000003" class="edge">
<title>Node2&#45;&gt;Node3</title>
<g id="a_edge2_Node000002_Node000003"><a xlink:title=" ">
<path fill="none" stroke="#63b8ff" d="M369.21,-101C385.4,-101 402.79,-101 419.58,-101"/>
<polygon fill="#63b8ff" stroke="#63b8ff" points="419.93,-104.5 429.93,-101 419.93,-97.5 419.93,-104.5"/>
</a>
</g>
</g>
<!-- Node5 -->
<g id="Node000005" class="node">
<title>Node5</title>
<g id="a_Node000005"><a xlink:href="classMapManager.html#ad0adbcfa1331904665af1868edb052ab" target="_top" xlink:title="Creates default maps if none exist.">
<polygon fill="white" stroke="#666666" points="597,-67.5 418,-67.5 418,-48.5 597,-48.5 597,-67.5"/>
<text text-anchor="middle" x="507.5" y="-55.5" font-family="Helvetica,sans-Serif" font-size="10.00">MapManager::createDefaultMaps</text>
</a>
</g>
</g>
<!-- Node4&#45;&gt;Node5 -->
<g id="edge4_Node000004_Node000005" class="edge">
<title>Node4&#45;&gt;Node5</title>
<g id="a_edge4_Node000004_Node000005"><a xlink:title=" ">
<path fill="none" stroke="#63b8ff" d="M364.6,-58C378.32,-58 393.07,-58 407.68,-58"/>
<polygon fill="#63b8ff" stroke="#63b8ff" points="407.75,-61.5 417.75,-58 407.75,-54.5 407.75,-61.5"/>
</a>
</g>
</g>
<!-- Node6 -->
<g id="Node000006" class="node">
<title>Node6</title>
<g id="a_Node000006"><a xlink:href="classMapManager.html#a567c17018afe3a29cd1fb783d54ef098" target="_top" xlink:title="Saves map to file.">
<polygon fill="white" stroke="#666666" points="791,-67.5 633,-67.5 633,-48.5 791,-48.5 791,-67.5"/>
<text text-anchor="middle" x="712" y="-55.5" font-family="Helvetica,sans-Serif" font-size="10.00">MapManager::saveMapToFile</text>
</a>
</g>
</g>
<!-- Node5&#45;&gt;Node6 -->
<g id="edge5_Node000005_Node000006" class="edge">
<title>Node5&#45;&gt;Node6</title>
<g id="a_edge5_Node000005_Node000006"><a xlink:title=" ">
<path fill="none" stroke="#63b8ff" d="M597.02,-58C605.5,-58 614.09,-58 622.57,-58"/>
<polygon fill="#63b8ff" stroke="#63b8ff" points="622.83,-61.5 632.83,-58 622.83,-54.5 622.83,-61.5"/>
</a>
</g>
</g>
</g>
</svg>
