<?xml version="1.0" encoding="UTF-8" standalone="no"?>
<!DOCTYPE svg PUBLIC "-//W3C//DTD SVG 1.1//EN"
 "http://www.w3.org/Graphics/SVG/1.1/DTD/svg11.dtd">
<!-- Generated by graphviz version 2.43.0 (0)
 -->
<!-- Title: MapManager::createDefaultMaps Pages: 1 -->
<svg width="1671pt" height="131pt"
 viewBox="0.00 0.00 1671.00 130.54" xmlns="http://www.w3.org/2000/svg" xmlns:xlink="http://www.w3.org/1999/xlink">
<g id="graph0" class="graph" transform="scale(1 1) rotate(0) translate(4 126.54)">
<title>MapManager::createDefaultMaps</title>
<!-- Node1 -->
<g id="Node000001" class="node">
<title>Node1</title>
<g id="a_Node000001"><a xlink:title="Creates default maps if none exist.">
<polygon fill="#999999" stroke="#666666" points="1663,-38 1484,-38 1484,-19 1663,-19 1663,-38"/>
<text text-anchor="middle" x="1573.5" y="-26" font-family="Helvetica,sans-Serif" font-size="10.00">MapManager::createDefaultMaps</text>
</a>
</g>
</g>
<!-- Node2 -->
<g id="Node000002" class="node">
<title>Node2</title>
<g id="a_Node000002"><a xlink:href="classMapManager.html#a5242ad70cbfc71d06233f84723dd1b7b" target="_top" xlink:title="Loads all maps from directory.">
<polygon fill="white" stroke="#666666" points="1448,-57 1314,-57 1314,-38 1448,-38 1448,-57"/>
<text text-anchor="middle" x="1381" y="-45" font-family="Helvetica,sans-Serif" font-size="10.00">MapManager::loadMaps</text>
</a>
</g>
</g>
<!-- Node1&#45;&gt;Node2 -->
<g id="edge1_Node000001_Node000002" class="edge">
<title>Node1&#45;&gt;Node2</title>
<g id="a_edge1_Node000001_Node000002"><a xlink:title=" ">
<path fill="none" stroke="#63b8ff" d="M1473.76,-38.35C1465.09,-39.21 1456.45,-40.07 1448.14,-40.9"/>
<polygon fill="#63b8ff" stroke="#63b8ff" points="1474.34,-41.81 1483.94,-37.33 1473.64,-34.84 1474.34,-41.81"/>
</a>
</g>
</g>
<!-- Node4 -->
<g id="Node000004" class="node">
<title>Node4</title>
<g id="a_Node000004"><a xlink:href="classMapManager.html#af8ca8a92db6b8ee300368921fccac460" target="_top" xlink:title="Constructs a MapManager object.">
<polygon fill="white" stroke="#666666" points="1257.5,-19 1107.5,-19 1107.5,0 1257.5,0 1257.5,-19"/>
<text text-anchor="middle" x="1182.5" y="-7" font-family="Helvetica,sans-Serif" font-size="10.00">MapManager::MapManager</text>
</a>
</g>
</g>
<!-- Node1&#45;&gt;Node4 -->
<g id="edge17_Node000001_Node000004" class="edge">
<title>Node1&#45;&gt;Node4</title>
<g id="a_edge17_Node000001_Node000004"><a xlink:title=" ">
<path fill="none" stroke="#63b8ff" d="M1473.55,-23.67C1406.29,-20.38 1318.75,-16.11 1257.51,-13.11"/>
<polygon fill="#63b8ff" stroke="#63b8ff" points="1473.58,-27.17 1483.74,-24.16 1473.93,-20.18 1473.58,-27.17"/>
</a>
</g>
</g>
<!-- Node3 -->
<g id="Node000003" class="node">
<title>Node3</title>
<g id="a_Node000003"><a xlink:href="classGameController.html#a54d4ccea0379465b0806dae60d1baeb2" target="_top" xlink:title="Constructs a GameController object.">
<polygon fill="white" stroke="#666666" points="1271,-56 1094,-56 1094,-37 1271,-37 1271,-56"/>
<text text-anchor="middle" x="1182.5" y="-44" font-family="Helvetica,sans-Serif" font-size="10.00">GameController::GameController</text>
</a>
</g>
</g>
<!-- Node2&#45;&gt;Node3 -->
<g id="edge2_Node000002_Node000003" class="edge">
<title>Node2&#45;&gt;Node3</title>
<g id="a_edge2_Node000002_Node000003"><a xlink:title=" ">
<path fill="none" stroke="#63b8ff" d="M1303.64,-47.11C1292.97,-47.06 1281.94,-47 1271.08,-46.95"/>
<polygon fill="#63b8ff" stroke="#63b8ff" points="1303.73,-50.61 1313.75,-47.16 1303.77,-43.61 1303.73,-50.61"/>
</a>
</g>
</g>
<!-- Node2&#45;&gt;Node4 -->
<g id="edge3_Node000002_Node000004" class="edge">
<title>Node2&#45;&gt;Node4</title>
<g id="a_edge3_Node000002_Node000004"><a xlink:title=" ">
<path fill="none" stroke="#63b8ff" d="M1321.58,-35.99C1307.32,-33.19 1292.11,-30.23 1278,-27.5 1263.73,-24.74 1248.25,-21.78 1234.02,-19.07"/>
<polygon fill="#63b8ff" stroke="#63b8ff" points="1321.27,-39.49 1331.76,-37.98 1322.62,-32.63 1321.27,-39.49"/>
</a>
</g>
</g>
<!-- Node5 -->
<g id="Node000005" class="node">
<title>Node5</title>
<g id="a_Node000005"><a xlink:href="classGameController.html#a4a9c94fe33cf6c73bb5dfc415d04d309" target="_top" xlink:title="Displays map selection screen.">
<polygon fill="white" stroke="#666666" points="1278,-93 1087,-93 1087,-74 1278,-74 1278,-93"/>
<text text-anchor="middle" x="1182.5" y="-81" font-family="Helvetica,sans-Serif" font-size="10.00">GameController::showMapSelection</text>
</a>
</g>
</g>
<!-- Node2&#45;&gt;Node5 -->
<g id="edge4_Node000002_Node000005" class="edge">
<title>Node2&#45;&gt;Node5</title>
<g id="a_edge4_Node000002_Node000005"><a xlink:title=" ">
<path fill="none" stroke="#63b8ff" d="M1318.17,-58.83C1291.66,-63.68 1261.02,-69.3 1235.68,-73.94"/>
<polygon fill="#63b8ff" stroke="#63b8ff" points="1318.91,-62.25 1328.11,-57.01 1317.65,-55.37 1318.91,-62.25"/>
</a>
</g>
</g>
<!-- Node6 -->
<g id="Node000006" class="node">
<title>Node6</title>
<g id="a_Node000006"><a xlink:href="classGameController.html#a971b3d8f6296a74f0bebc83b5e79c186" target="_top" xlink:title="Processes a user command.">
<polygon fill="white" stroke="#666666" points="669,-117 481,-117 481,-98 669,-98 669,-117"/>
<text text-anchor="middle" x="575" y="-105" font-family="Helvetica,sans-Serif" font-size="10.00">GameController::processCommand</text>
</a>
</g>
</g>
<!-- Node5&#45;&gt;Node6 -->
<g id="edge5_Node000005_Node000006" class="edge">
<title>Node5&#45;&gt;Node6</title>
<g id="a_edge5_Node000005_Node000006"><a xlink:title=" ">
<path fill="none" stroke="#63b8ff" d="M1110.87,-94.5C1091.49,-97.32 1070.46,-100.21 1051,-102.5 898.1,-120.53 858.8,-126.64 705,-119.5 692.64,-118.93 679.64,-118.05 666.84,-117.02"/>
<polygon fill="#63b8ff" stroke="#63b8ff" points="1111.46,-97.95 1120.84,-93.03 1110.44,-91.03 1111.46,-97.95"/>
</a>
</g>
</g>
<!-- Node10 -->
<g id="Node000010" class="node">
<title>Node10</title>
<g id="a_Node000010"><a xlink:href="classGameController.html#a9d11b5a6255b7249bddba49df0837cf3" target="_top" xlink:title="Displays and manages the main menu.">
<polygon fill="white" stroke="#666666" points="1051,-93 899,-93 899,-74 1051,-74 1051,-93"/>
<text text-anchor="middle" x="975" y="-81" font-family="Helvetica,sans-Serif" font-size="10.00">GameController::showMenu</text>
</a>
</g>
</g>
<!-- Node5&#45;&gt;Node10 -->
<g id="edge9_Node000005_Node000010" class="edge">
<title>Node5&#45;&gt;Node10</title>
<g id="a_edge9_Node000005_Node000010"><a xlink:title=" ">
<path fill="none" stroke="#63b8ff" d="M1076.72,-76.75C1068.06,-76.76 1059.43,-76.84 1051.06,-76.97"/>
<polygon fill="#63b8ff" stroke="#63b8ff" points="1076.86,-80.25 1086.87,-76.77 1076.88,-73.25 1076.86,-80.25"/>
</a>
</g>
</g>
<!-- Node7 -->
<g id="Node000007" class="node">
<title>Node7</title>
<g id="a_Node000007"><a xlink:href="classGameController.html#af2367e58f03d8a1441c9a574967fd360" target="_top" xlink:title="Processes a single game turn/update cycle.">
<polygon fill="white" stroke="#666666" points="445,-60 258,-60 258,-41 445,-41 445,-60"/>
<text text-anchor="middle" x="351.5" y="-48" font-family="Helvetica,sans-Serif" font-size="10.00">GameController::processGameTurn</text>
</a>
</g>
</g>
<!-- Node6&#45;&gt;Node7 -->
<g id="edge6_Node000006_Node000007" class="edge">
<title>Node6&#45;&gt;Node7</title>
<g id="a_edge6_Node000006_Node000007"><a xlink:title=" ">
<path fill="none" stroke="#63b8ff" d="M527.18,-95.45C486.22,-84.91 427.51,-69.8 389.7,-60.07"/>
<polygon fill="#63b8ff" stroke="#63b8ff" points="526.37,-98.86 536.93,-97.96 528.11,-92.08 526.37,-98.86"/>
</a>
</g>
</g>
<!-- Node8 -->
<g id="Node000008" class="node">
<title>Node8</title>
<g id="a_Node000008"><a xlink:href="classGameController.html#ac958989c8f7f08488546930e5fcb0d82" target="_top" xlink:title="Starts and runs the main game loop.">
<polygon fill="white" stroke="#666666" points="222,-38 77,-38 77,-19 222,-19 222,-38"/>
<text text-anchor="middle" x="149.5" y="-26" font-family="Helvetica,sans-Serif" font-size="10.00">GameController::runGame</text>
</a>
</g>
</g>
<!-- Node7&#45;&gt;Node8 -->
<g id="edge7_Node000007_Node000008" class="edge">
<title>Node7&#45;&gt;Node8</title>
<g id="a_edge7_Node000007_Node000008"><a xlink:title=" ">
<path fill="none" stroke="#63b8ff" d="M253.77,-39.86C243.13,-38.69 232.44,-37.51 222.18,-36.38"/>
<polygon fill="#63b8ff" stroke="#63b8ff" points="253.62,-43.36 263.94,-40.98 254.38,-36.41 253.62,-43.36"/>
</a>
</g>
</g>
<!-- Node9 -->
<g id="Node000009" class="node">
<title>Node9</title>
<g id="a_Node000009"><a xlink:href="main_8cpp.html#ae66f6b31b5ad750f1fe042a706a4e3d4" target="_top" xlink:title="Main function that serves as the application entry point.">
<polygon fill="white" stroke="#666666" points="41,-38 0,-38 0,-19 41,-19 41,-38"/>
<text text-anchor="middle" x="20.5" y="-26" font-family="Helvetica,sans-Serif" font-size="10.00">main</text>
</a>
</g>
</g>
<!-- Node8&#45;&gt;Node9 -->
<g id="edge8_Node000008_Node000009" class="edge">
<title>Node8&#45;&gt;Node9</title>
<g id="a_edge8_Node000008_Node000009"><a xlink:title=" ">
<path fill="none" stroke="#63b8ff" d="M66.79,-28.5C57.31,-28.5 48.43,-28.5 41.08,-28.5"/>
<polygon fill="#63b8ff" stroke="#63b8ff" points="66.83,-32 76.83,-28.5 66.83,-25 66.83,-32"/>
</a>
</g>
</g>
<!-- Node10&#45;&gt;Node5 -->
<g id="edge16_Node000010_Node000005" class="edge">
<title>Node10&#45;&gt;Node5</title>
<g id="a_edge16_Node000010_Node000005"><a xlink:title=" ">
<path fill="none" stroke="#63b8ff" d="M1061.27,-90.16C1069.72,-90.25 1078.33,-90.27 1086.87,-90.23"/>
<polygon fill="#63b8ff" stroke="#63b8ff" points="1061.1,-86.66 1051.06,-90.03 1061.01,-93.66 1061.1,-86.66"/>
</a>
</g>
</g>
<!-- Node10&#45;&gt;Node6 -->
<g id="edge12_Node000010_Node000006" class="edge">
<title>Node10&#45;&gt;Node6</title>
<g id="a_edge12_Node000010_Node000006"><a xlink:title=" ">
<path fill="none" stroke="#63b8ff" d="M917.73,-94.84C900.26,-97.9 880.9,-100.82 863,-102.5 798.5,-108.55 725.5,-109.74 669.26,-109.45"/>
<polygon fill="#63b8ff" stroke="#63b8ff" points="918.54,-98.25 927.76,-93.03 917.3,-91.36 918.54,-98.25"/>
</a>
</g>
</g>
<!-- Node10&#45;&gt;Node8 -->
<g id="edge13_Node000010_Node000008" class="edge">
<title>Node10&#45;&gt;Node8</title>
<g id="a_edge13_Node000010_Node000008"><a xlink:title=" ">
<path fill="none" stroke="#63b8ff" d="M937.75,-70.59C916.27,-63.4 888.37,-54.84 863,-49.5 632.77,-1 351.52,-12.96 222.02,-22.32"/>
<polygon fill="#63b8ff" stroke="#63b8ff" points="936.84,-73.98 947.44,-73.89 939.1,-67.36 936.84,-73.98"/>
</a>
</g>
</g>
<!-- Node11 -->
<g id="Node000011" class="node">
<title>Node11</title>
<g id="a_Node000011"><a xlink:href="classGameController.html#a637ea4e72ed2be4a2884b30160b3e8ab" target="_top" xlink:title="Pauses the game and displays pause screen.">
<polygon fill="white" stroke="#666666" points="863,-93 705,-93 705,-74 863,-74 863,-93"/>
<text text-anchor="middle" x="784" y="-81" font-family="Helvetica,sans-Serif" font-size="10.00">GameController::pauseGame</text>
</a>
</g>
</g>
<!-- Node10&#45;&gt;Node11 -->
<g id="edge10_Node000010_Node000011" class="edge">
<title>Node10&#45;&gt;Node11</title>
<g id="a_edge10_Node000010_Node000011"><a xlink:title=" ">
<path fill="none" stroke="#63b8ff" d="M888.5,-83.5C880.03,-83.5 871.46,-83.5 863.08,-83.5"/>
<polygon fill="#63b8ff" stroke="#63b8ff" points="888.76,-87 898.76,-83.5 888.76,-80 888.76,-87"/>
</a>
</g>
</g>
<!-- Node12 -->
<g id="Node000012" class="node">
<title>Node12</title>
<g id="a_Node000012"><a xlink:href="classGameController.html#a85bcf4ecfd197aad278e116215a3717b" target="_top" xlink:title="Displays level completion screen.">
<polygon fill="white" stroke="#666666" points="651,-65.5 499,-65.5 499,-35.5 651,-35.5 651,-65.5"/>
<text text-anchor="start" x="507" y="-53.5" font-family="Helvetica,sans-Serif" font-size="10.00">GameController::showLevel</text>
<text text-anchor="middle" x="575" y="-42.5" font-family="Helvetica,sans-Serif" font-size="10.00">CompleteScreen</text>
</a>
</g>
</g>
<!-- Node10&#45;&gt;Node12 -->
<g id="edge14_Node000010_Node000012" class="edge">
<title>Node10&#45;&gt;Node12</title>
<g id="a_edge14_Node000010_Node000012"><a xlink:title=" ">
<path fill="none" stroke="#63b8ff" d="M912.88,-72.37C896.71,-69.76 879.24,-67.24 863,-65.5 791.31,-57.84 709.11,-54.05 651.11,-52.2"/>
<polygon fill="#63b8ff" stroke="#63b8ff" points="912.33,-75.82 922.76,-74 913.47,-68.92 912.33,-75.82"/>
</a>
</g>
</g>
<!-- Node11&#45;&gt;Node6 -->
<g id="edge11_Node000011_Node000006" class="edge">
<title>Node11&#45;&gt;Node6</title>
<g id="a_edge11_Node000011_Node000006"><a xlink:title=" ">
<path fill="none" stroke="#63b8ff" d="M694.65,-93.74C682.54,-95.15 670.15,-96.58 658.16,-97.97"/>
<polygon fill="#63b8ff" stroke="#63b8ff" points="695.21,-97.2 704.74,-92.57 694.41,-90.25 695.21,-97.2"/>
</a>
</g>
</g>
<!-- Node12&#45;&gt;Node7 -->
<g id="edge15_Node000012_Node000007" class="edge">
<title>Node12&#45;&gt;Node7</title>
<g id="a_edge15_Node000012_Node000007"><a xlink:title=" ">
<path fill="none" stroke="#63b8ff" d="M488.5,-50.5C474.33,-50.5 459.58,-50.5 445.25,-50.5"/>
<polygon fill="#63b8ff" stroke="#63b8ff" points="488.7,-54 498.7,-50.5 488.7,-47 488.7,-54"/>
</a>
</g>
</g>
</g>
</svg>
