<?xml version="1.0" encoding="UTF-8" standalone="no"?>
<!DOCTYPE svg PUBLIC "-//W3C//DTD SVG 1.1//EN"
 "http://www.w3.org/Graphics/SVG/1.1/DTD/svg11.dtd">
<!-- Generated by graphviz version 2.43.0 (0)
 -->
<!-- Title: GameWorld Pages: 1 -->
<svg width="90pt" height="271pt"
 viewBox="0.00 0.00 89.50 271.00" xmlns="http://www.w3.org/2000/svg" xmlns:xlink="http://www.w3.org/1999/xlink">

<svg id="main" version="1.1" xmlns="http://www.w3.org/2000/svg" xmlns:xlink="http://www.w3.org/1999/xlink" xml:space="preserve" onload="init(evt)">
<style type="text/css"><![CDATA[
.node, .edge {opacity: 0.7;}
.node.selected, .edge.selected {opacity: 1;}
.edge:hover path { stroke: red; }
.edge:hover polygon { stroke: red; fill: red; }
]]></style>
<script type="application/ecmascript" xlink:href="svg.min.js"/>
<svg id="graph" class="graph">
<g id="graph0" class="graph" transform="scale(1 1) rotate(0) translate(4 267)">
<title>GameWorld</title>
<!-- Node1 -->
<g id="Node000001" class="node">
<title>Node1</title>
<g id="a_Node000001"><a xlink:title="Main game world class managing all game objects and logic.">
<polygon fill="#999999" stroke="#666666" points="75.5,-19 1.5,-19 1.5,0 75.5,0 75.5,-19"/>
<text text-anchor="middle" x="38.5" y="-7" font-family="Helvetica,sans-Serif" font-size="10.00">GameWorld</text>
</a>
</g>
</g>
<!-- Node2 -->
<g id="Node000002" class="node">
<title>Node2</title>
<g id="a_Node000002"><a xlink:href="classPlayerTank.html" target="_top" xlink:title="Class representing the player&#45;controlled tank.">
<polygon fill="white" stroke="#666666" points="73.5,-85 3.5,-85 3.5,-66 73.5,-66 73.5,-85"/>
<text text-anchor="middle" x="38.5" y="-73" font-family="Helvetica,sans-Serif" font-size="10.00">PlayerTank</text>
</a>
</g>
</g>
<!-- Node2&#45;&gt;Node1 -->
<g id="edge1_Node000001_Node000002" class="edge">
<title>Node2&#45;&gt;Node1</title>
<g id="a_edge1_Node000001_Node000002"><a xlink:title=" ">
<path fill="none" stroke="#9a32cd" stroke-dasharray="5,2" d="M38.5,-55.58C38.5,-43.63 38.5,-28.72 38.5,-19.41"/>
<polygon fill="#9a32cd" stroke="#9a32cd" points="35,-55.87 38.5,-65.87 42,-55.87 35,-55.87"/>
</a>
</g>
<text text-anchor="middle" x="55.5" y="-40" font-family="Helvetica,sans-Serif" font-size="10.00" fill="grey"> player</text>
</g>
<!-- Node3 -->
<g id="Node000003" class="node">
<title>Node3</title>
<g id="a_Node000003"><a xlink:href="classTank.html" target="_top" xlink:title="Abstract base class for all tank entities.">
<polygon fill="white" stroke="#666666" points="58,-141 19,-141 19,-122 58,-122 58,-141"/>
<text text-anchor="middle" x="38.5" y="-129" font-family="Helvetica,sans-Serif" font-size="10.00">Tank</text>
</a>
</g>
</g>
<!-- Node3&#45;&gt;Node2 -->
<g id="edge2_Node000002_Node000003" class="edge">
<title>Node3&#45;&gt;Node2</title>
<g id="a_edge2_Node000002_Node000003"><a xlink:title=" ">
<path fill="none" stroke="#63b8ff" d="M38.5,-111.3C38.5,-102.41 38.5,-92.28 38.5,-85.25"/>
<polygon fill="#63b8ff" stroke="#63b8ff" points="35,-111.58 38.5,-121.58 42,-111.58 35,-111.58"/>
</a>
</g>
</g>
<!-- Node4 -->
<g id="Node000004" class="node">
<title>Node4</title>
<g id="a_Node000004"><a xlink:href="classGameObject.html" target="_top" xlink:title="Abstract base class for all game objects.">
<polygon fill="white" stroke="#666666" points="77,-197 0,-197 0,-178 77,-178 77,-197"/>
<text text-anchor="middle" x="38.5" y="-185" font-family="Helvetica,sans-Serif" font-size="10.00">GameObject</text>
</a>
</g>
</g>
<!-- Node4&#45;&gt;Node3 -->
<g id="edge3_Node000003_Node000004" class="edge">
<title>Node4&#45;&gt;Node3</title>
<g id="a_edge3_Node000003_Node000004"><a xlink:title=" ">
<path fill="none" stroke="#63b8ff" d="M38.5,-167.3C38.5,-158.41 38.5,-148.28 38.5,-141.25"/>
<polygon fill="#63b8ff" stroke="#63b8ff" points="35,-167.58 38.5,-177.58 42,-167.58 35,-167.58"/>
</a>
</g>
</g>
<!-- Node5 -->
<g id="Node000005" class="node">
<title>Node5</title>
<g id="a_Node000005"><a xlink:href="structPoint.html" target="_top" xlink:title="Structure representing a 2D point with integer coordinates.">
<polygon fill="white" stroke="#666666" points="59,-263 18,-263 18,-244 59,-244 59,-263"/>
<text text-anchor="middle" x="38.5" y="-251" font-family="Helvetica,sans-Serif" font-size="10.00">Point</text>
</a>
</g>
</g>
<!-- Node5&#45;&gt;Node4 -->
<g id="edge4_Node000004_Node000005" class="edge">
<title>Node5&#45;&gt;Node4</title>
<g id="a_edge4_Node000004_Node000005"><a xlink:title=" ">
<path fill="none" stroke="#9a32cd" stroke-dasharray="5,2" d="M38.5,-233.58C38.5,-221.63 38.5,-206.72 38.5,-197.41"/>
<polygon fill="#9a32cd" stroke="#9a32cd" points="35,-233.87 38.5,-243.87 42,-233.87 35,-233.87"/>
</a>
</g>
<text text-anchor="middle" x="60" y="-218" font-family="Helvetica,sans-Serif" font-size="10.00" fill="grey"> position</text>
</g>
</g>
</svg>
</svg>

<style type='text/css'>
<![CDATA[
[data-mouse-over-selected='false'] { opacity: 0.7; }
[data-mouse-over-selected='true']  { opacity: 1.0; }
]]>
</style>
<script type="application/ecmascript"><![CDATA[
document.addEventListener('DOMContentLoaded', (event) => {
  highlightEdges();
  highlightAdjacentNodes();
});
]]></script>
</svg>
