<?xml version="1.0" encoding="UTF-8" standalone="no"?>
<!DOCTYPE svg PUBLIC "-//W3C//DTD SVG 1.1//EN"
 "http://www.w3.org/Graphics/SVG/1.1/DTD/svg11.dtd">
<!-- Generated by graphviz version 2.43.0 (0)
 -->
<!-- Title: PlayerTank::addScore Pages: 1 -->
<svg width="1489pt" height="200pt"
 viewBox="0.00 0.00 1489.00 200.00" xmlns="http://www.w3.org/2000/svg" xmlns:xlink="http://www.w3.org/1999/xlink">
<g id="graph0" class="graph" transform="scale(1 1) rotate(0) translate(4 196)">
<title>PlayerTank::addScore</title>
<!-- Node1 -->
<g id="Node000001" class="node">
<title>Node1</title>
<g id="a_Node000001"><a xlink:title="Adds points to player&#39;s score.">
<polygon fill="#999999" stroke="#666666" points="1481,-105.5 1360,-105.5 1360,-86.5 1481,-86.5 1481,-105.5"/>
<text text-anchor="middle" x="1420.5" y="-93.5" font-family="Helvetica,sans-Serif" font-size="10.00">PlayerTank::addScore</text>
</a>
</g>
</g>
<!-- Node2 -->
<g id="Node000002" class="node">
<title>Node2</title>
<g id="a_Node000002"><a xlink:href="classGameWorld.html#a7ddabf5c5dc78379e8b75d531068fa5a" target="_top" xlink:title="Checks bonus collection.">
<polygon fill="white" stroke="#666666" points="1115,-143.5 930,-143.5 930,-124.5 1115,-124.5 1115,-143.5"/>
<text text-anchor="middle" x="1022.5" y="-131.5" font-family="Helvetica,sans-Serif" font-size="10.00">GameWorld::checkBonusCollisions</text>
</a>
</g>
</g>
<!-- Node1&#45;&gt;Node2 -->
<g id="edge1_Node000001_Node000002" class="edge">
<title>Node1&#45;&gt;Node2</title>
<g id="a_edge1_Node000001_Node000002"><a xlink:title=" ">
<path fill="none" stroke="#63b8ff" d="M1349.84,-106.76C1341.15,-107.94 1332.38,-109.05 1324,-110 1254.05,-117.91 1174.66,-124.13 1115.05,-128.26"/>
<polygon fill="#63b8ff" stroke="#63b8ff" points="1350.55,-110.19 1359.97,-105.34 1349.59,-103.26 1350.55,-110.19"/>
</a>
</g>
</g>
<!-- Node8 -->
<g id="Node000008" class="node">
<title>Node8</title>
<g id="a_Node000008"><a xlink:href="classGameWorld.html#a1ada9d3ebdf482a0fd3abcc1fe41c6de" target="_top" xlink:title="Checks win/lose conditions.">
<polygon fill="white" stroke="#666666" points="894,-105.5 705,-105.5 705,-86.5 894,-86.5 894,-105.5"/>
<text text-anchor="middle" x="799.5" y="-93.5" font-family="Helvetica,sans-Serif" font-size="10.00">GameWorld::checkGameConditions</text>
</a>
</g>
</g>
<!-- Node1&#45;&gt;Node8 -->
<g id="edge7_Node000001_Node000008" class="edge">
<title>Node1&#45;&gt;Node8</title>
<g id="a_edge7_Node000001_Node000008"><a xlink:title=" ">
<path fill="none" stroke="#63b8ff" d="M1349.73,-96C1238.08,-96 1019.16,-96 894.06,-96"/>
<polygon fill="#63b8ff" stroke="#63b8ff" points="1349.87,-99.5 1359.87,-96 1349.87,-92.5 1349.87,-99.5"/>
</a>
</g>
</g>
<!-- Node9 -->
<g id="Node000009" class="node">
<title>Node9</title>
<g id="a_Node000009"><a xlink:href="classGameWorld.html#a752ef6a0f4c6cdffead1dacd117d8451" target="_top" xlink:title="Handles projectile hit.">
<polygon fill="white" stroke="#666666" points="1324,-183.5 1151,-183.5 1151,-164.5 1324,-164.5 1324,-183.5"/>
<text text-anchor="middle" x="1237.5" y="-171.5" font-family="Helvetica,sans-Serif" font-size="10.00">GameWorld::handleProjectileHit</text>
</a>
</g>
</g>
<!-- Node1&#45;&gt;Node9 -->
<g id="edge9_Node000001_Node000009" class="edge">
<title>Node1&#45;&gt;Node9</title>
<g id="a_edge9_Node000001_Node000009"><a xlink:title=" ">
<path fill="none" stroke="#63b8ff" d="M1395.54,-110.83C1376.62,-122.09 1349.29,-137.4 1324,-148 1308.55,-154.48 1290.91,-160.12 1275.69,-164.47"/>
<polygon fill="#63b8ff" stroke="#63b8ff" points="1397.35,-113.82 1404.1,-105.66 1393.73,-107.83 1397.35,-113.82"/>
</a>
</g>
</g>
<!-- Node11 -->
<g id="Node000011" class="node">
<title>Node11</title>
<g id="a_Node000011"><a xlink:href="classGameWorld.html#a2b1db90f0ef907c7e93b1114357b8a90" target="_top" xlink:title="Moves player tank in specified direction.">
<polygon fill="white" stroke="#666666" points="1306,-67.5 1169,-67.5 1169,-48.5 1306,-48.5 1306,-67.5"/>
<text text-anchor="middle" x="1237.5" y="-55.5" font-family="Helvetica,sans-Serif" font-size="10.00">GameWorld::playerMove</text>
</a>
</g>
</g>
<!-- Node1&#45;&gt;Node11 -->
<g id="edge12_Node000001_Node000011" class="edge">
<title>Node1&#45;&gt;Node11</title>
<g id="a_edge12_Node000001_Node000011"><a xlink:title=" ">
<path fill="none" stroke="#63b8ff" d="M1363.86,-84.32C1338.19,-78.93 1308.11,-72.61 1283.85,-67.52"/>
<polygon fill="#63b8ff" stroke="#63b8ff" points="1363.32,-87.78 1373.83,-86.41 1364.76,-80.93 1363.32,-87.78"/>
</a>
</g>
</g>
<!-- Node13 -->
<g id="Node000013" class="node">
<title>Node13</title>
<g id="a_Node000013"><a xlink:href="classGameController.html#a85bcf4ecfd197aad278e116215a3717b" target="_top" xlink:title="Displays level completion screen.">
<polygon fill="white" stroke="#666666" points="875.5,-30 723.5,-30 723.5,0 875.5,0 875.5,-30"/>
<text text-anchor="start" x="731.5" y="-18" font-family="Helvetica,sans-Serif" font-size="10.00">GameController::showLevel</text>
<text text-anchor="middle" x="799.5" y="-7" font-family="Helvetica,sans-Serif" font-size="10.00">CompleteScreen</text>
</a>
</g>
</g>
<!-- Node1&#45;&gt;Node13 -->
<g id="edge15_Node000001_Node000013" class="edge">
<title>Node1&#45;&gt;Node13</title>
<g id="a_edge15_Node000001_Node000013"><a xlink:title=" ">
<path fill="none" stroke="#63b8ff" d="M1399.6,-80.09C1381.19,-66.41 1352.45,-47.55 1324,-39 1170,7.29 979.1,1.1 875.67,-7.17"/>
<polygon fill="#63b8ff" stroke="#63b8ff" points="1397.69,-83.04 1407.76,-86.33 1401.94,-77.48 1397.69,-83.04"/>
</a>
</g>
</g>
<!-- Node3 -->
<g id="Node000003" class="node">
<title>Node3</title>
<g id="a_Node000003"><a xlink:href="classGameWorld.html#a2a5aaafc1c18521a4657d6a4a66c4d91" target="_top" xlink:title="Checks all types of collisions.">
<polygon fill="white" stroke="#666666" points="877,-143.5 722,-143.5 722,-124.5 877,-124.5 877,-143.5"/>
<text text-anchor="middle" x="799.5" y="-131.5" font-family="Helvetica,sans-Serif" font-size="10.00">GameWorld::checkCollisions</text>
</a>
</g>
</g>
<!-- Node2&#45;&gt;Node3 -->
<g id="edge2_Node000002_Node000003" class="edge">
<title>Node2&#45;&gt;Node3</title>
<g id="a_edge2_Node000002_Node000003"><a xlink:title=" ">
<path fill="none" stroke="#63b8ff" d="M919.42,-134C905.25,-134 890.89,-134 877.28,-134"/>
<polygon fill="#63b8ff" stroke="#63b8ff" points="919.7,-137.5 929.7,-134 919.7,-130.5 919.7,-137.5"/>
</a>
</g>
</g>
<!-- Node4 -->
<g id="Node000004" class="node">
<title>Node4</title>
<g id="a_Node000004"><a xlink:href="classGameWorld.html#ab645acf30cb0a4640a8fb5b88c5c7c94" target="_top" xlink:title="Updates all game objects and logic.">
<polygon fill="white" stroke="#666666" points="631.5,-105.5 518.5,-105.5 518.5,-86.5 631.5,-86.5 631.5,-105.5"/>
<text text-anchor="middle" x="575" y="-93.5" font-family="Helvetica,sans-Serif" font-size="10.00">GameWorld::update</text>
</a>
</g>
</g>
<!-- Node3&#45;&gt;Node4 -->
<g id="edge3_Node000003_Node000004" class="edge">
<title>Node3&#45;&gt;Node4</title>
<g id="a_edge3_Node000003_Node000004"><a xlink:title=" ">
<path fill="none" stroke="#63b8ff" d="M732.48,-122.72C700.47,-117.26 662.43,-110.76 631.88,-105.54"/>
<polygon fill="#63b8ff" stroke="#63b8ff" points="732.19,-126.23 742.64,-124.46 733.37,-119.33 732.19,-126.23"/>
</a>
</g>
</g>
<!-- Node5 -->
<g id="Node000005" class="node">
<title>Node5</title>
<g id="a_Node000005"><a xlink:href="classGameController.html#af2367e58f03d8a1441c9a574967fd360" target="_top" xlink:title="Processes a single game turn/update cycle.">
<polygon fill="white" stroke="#666666" points="445,-67.5 258,-67.5 258,-48.5 445,-48.5 445,-67.5"/>
<text text-anchor="middle" x="351.5" y="-55.5" font-family="Helvetica,sans-Serif" font-size="10.00">GameController::processGameTurn</text>
</a>
</g>
</g>
<!-- Node4&#45;&gt;Node5 -->
<g id="edge4_Node000004_Node000005" class="edge">
<title>Node4&#45;&gt;Node5</title>
<g id="a_edge4_Node000004_Node000005"><a xlink:title=" ">
<path fill="none" stroke="#63b8ff" d="M508.27,-84.72C476.41,-79.26 438.55,-72.76 408.13,-67.54"/>
<polygon fill="#63b8ff" stroke="#63b8ff" points="507.94,-88.22 518.39,-86.46 509.13,-81.32 507.94,-88.22"/>
</a>
</g>
</g>
<!-- Node6 -->
<g id="Node000006" class="node">
<title>Node6</title>
<g id="a_Node000006"><a xlink:href="classGameController.html#ac958989c8f7f08488546930e5fcb0d82" target="_top" xlink:title="Starts and runs the main game loop.">
<polygon fill="white" stroke="#666666" points="222,-67.5 77,-67.5 77,-48.5 222,-48.5 222,-67.5"/>
<text text-anchor="middle" x="149.5" y="-55.5" font-family="Helvetica,sans-Serif" font-size="10.00">GameController::runGame</text>
</a>
</g>
</g>
<!-- Node5&#45;&gt;Node6 -->
<g id="edge5_Node000005_Node000006" class="edge">
<title>Node5&#45;&gt;Node6</title>
<g id="a_edge5_Node000005_Node000006"><a xlink:title=" ">
<path fill="none" stroke="#63b8ff" d="M247.71,-58C239.1,-58 230.52,-58 222.22,-58"/>
<polygon fill="#63b8ff" stroke="#63b8ff" points="247.82,-61.5 257.82,-58 247.82,-54.5 247.82,-61.5"/>
</a>
</g>
</g>
<!-- Node7 -->
<g id="Node000007" class="node">
<title>Node7</title>
<g id="a_Node000007"><a xlink:href="main_8cpp.html#ae66f6b31b5ad750f1fe042a706a4e3d4" target="_top" xlink:title="Main function that serves as the application entry point.">
<polygon fill="white" stroke="#666666" points="41,-67.5 0,-67.5 0,-48.5 41,-48.5 41,-67.5"/>
<text text-anchor="middle" x="20.5" y="-55.5" font-family="Helvetica,sans-Serif" font-size="10.00">main</text>
</a>
</g>
</g>
<!-- Node6&#45;&gt;Node7 -->
<g id="edge6_Node000006_Node000007" class="edge">
<title>Node6&#45;&gt;Node7</title>
<g id="a_edge6_Node000006_Node000007"><a xlink:title=" ">
<path fill="none" stroke="#63b8ff" d="M66.79,-58C57.31,-58 48.43,-58 41.08,-58"/>
<polygon fill="#63b8ff" stroke="#63b8ff" points="66.83,-61.5 76.83,-58 66.83,-54.5 66.83,-61.5"/>
</a>
</g>
</g>
<!-- Node8&#45;&gt;Node4 -->
<g id="edge8_Node000008_Node000004" class="edge">
<title>Node8&#45;&gt;Node4</title>
<g id="a_edge8_Node000008_Node000004"><a xlink:title=" ">
<path fill="none" stroke="#63b8ff" d="M694.5,-96C672.77,-96 650.67,-96 631.53,-96"/>
<polygon fill="#63b8ff" stroke="#63b8ff" points="694.78,-99.5 704.78,-96 694.78,-92.5 694.78,-99.5"/>
</a>
</g>
</g>
<!-- Node10 -->
<g id="Node000010" class="node">
<title>Node10</title>
<g id="a_Node000010"><a xlink:href="classGameWorld.html#a81b514a6e2b376bd9b5f8276e3861b5f" target="_top" xlink:title="Checks projectile collisions.">
<polygon fill="white" stroke="#666666" points="1099.5,-192 945.5,-192 945.5,-162 1099.5,-162 1099.5,-192"/>
<text text-anchor="start" x="953.5" y="-180" font-family="Helvetica,sans-Serif" font-size="10.00">GameWorld::checkProjectile</text>
<text text-anchor="middle" x="1022.5" y="-169" font-family="Helvetica,sans-Serif" font-size="10.00">Collisions</text>
</a>
</g>
</g>
<!-- Node9&#45;&gt;Node10 -->
<g id="edge10_Node000009_Node000010" class="edge">
<title>Node9&#45;&gt;Node10</title>
<g id="a_edge10_Node000009_Node000010"><a xlink:title=" ">
<path fill="none" stroke="#63b8ff" d="M1140.43,-175.35C1126.8,-175.55 1112.95,-175.74 1099.76,-175.93"/>
<polygon fill="#63b8ff" stroke="#63b8ff" points="1140.84,-178.85 1150.79,-175.21 1140.74,-171.85 1140.84,-178.85"/>
</a>
</g>
</g>
<!-- Node10&#45;&gt;Node3 -->
<g id="edge11_Node000010_Node000003" class="edge">
<title>Node10&#45;&gt;Node3</title>
<g id="a_edge11_Node000010_Node000003"><a xlink:title=" ">
<path fill="none" stroke="#63b8ff" d="M935.62,-160.29C906.36,-154.6 874.66,-148.43 849.33,-143.5"/>
<polygon fill="#63b8ff" stroke="#63b8ff" points="934.96,-163.73 945.44,-162.2 936.3,-156.86 934.96,-163.73"/>
</a>
</g>
</g>
<!-- Node12 -->
<g id="Node000012" class="node">
<title>Node12</title>
<g id="a_Node000012"><a xlink:href="classGameController.html#a971b3d8f6296a74f0bebc83b5e79c186" target="_top" xlink:title="Processes a user command.">
<polygon fill="white" stroke="#666666" points="669,-67.5 481,-67.5 481,-48.5 669,-48.5 669,-67.5"/>
<text text-anchor="middle" x="575" y="-55.5" font-family="Helvetica,sans-Serif" font-size="10.00">GameController::processCommand</text>
</a>
</g>
</g>
<!-- Node11&#45;&gt;Node12 -->
<g id="edge13_Node000011_Node000012" class="edge">
<title>Node11&#45;&gt;Node12</title>
<g id="a_edge13_Node000011_Node000012"><a xlink:title=" ">
<path fill="none" stroke="#63b8ff" d="M1158.89,-58C1036.76,-58 800.12,-58 669.04,-58"/>
<polygon fill="#63b8ff" stroke="#63b8ff" points="1158.92,-61.5 1168.92,-58 1158.92,-54.5 1158.92,-61.5"/>
</a>
</g>
</g>
<!-- Node12&#45;&gt;Node5 -->
<g id="edge14_Node000012_Node000005" class="edge">
<title>Node12&#45;&gt;Node5</title>
<g id="a_edge14_Node000012_Node000005"><a xlink:title=" ">
<path fill="none" stroke="#63b8ff" d="M470.5,-58C462.1,-58 453.65,-58 445.33,-58"/>
<polygon fill="#63b8ff" stroke="#63b8ff" points="470.71,-61.5 480.71,-58 470.71,-54.5 470.71,-61.5"/>
</a>
</g>
</g>
<!-- Node13&#45;&gt;Node5 -->
<g id="edge16_Node000013_Node000005" class="edge">
<title>Node13&#45;&gt;Node5</title>
<g id="a_edge16_Node000013_Node000005"><a xlink:title=" ">
<path fill="none" stroke="#63b8ff" d="M713.26,-19.79C649.24,-23.79 559.48,-30.24 481,-39 458.03,-41.56 432.85,-45.12 410.92,-48.46"/>
<polygon fill="#63b8ff" stroke="#63b8ff" points="713.54,-23.28 723.3,-19.17 713.11,-16.29 713.54,-23.28"/>
</a>
</g>
</g>
</g>
</svg>
