<?xml version="1.0" encoding="UTF-8" standalone="no"?>
<!DOCTYPE svg PUBLIC "-//W3C//DTD SVG 1.1//EN"
 "http://www.w3.org/Graphics/SVG/1.1/DTD/svg11.dtd">
<!-- Generated by graphviz version 2.43.0 (0)
 -->
<!-- Title: Tank::getBounds Pages: 1 -->
<!--zoomable 134 -->

<svg id="main" version="1.1" xmlns="http://www.w3.org/2000/svg" xmlns:xlink="http://www.w3.org/1999/xlink" xml:space="preserve" onload="init(evt)">
<style type="text/css"><![CDATA[
.node, .edge {opacity: 0.7;}
.node.selected, .edge.selected {opacity: 1;}
.edge:hover path { stroke: red; }
.edge:hover polygon { stroke: red; fill: red; }
]]></style>

<defs>
  <circle id="rim" cx="0" cy="0" r="7"/>
  <circle id="rim2" cx="0" cy="0" r="3.5"/>
  <g id="zoomPlus">
    <use xlink:href="#rim" fill="#404040"><set attributeName="fill" to="#808080" begin="zoomplus.mouseover" end="zoomplus.mouseout"/></use>
    <path d="M-4,0h8M0,-4v8" fill="none" stroke="white" stroke-width="1.5" pointer-events="none"/>
  </g>
  <g id="zoomMin">
    <use xlink:href="#rim" fill="#404040"><set attributeName="fill" to="#808080" begin="zoomminus.mouseover" end="zoomminus.mouseout"/></use>
    <path d="M-4,0h8" fill="none" stroke="white" stroke-width="1.5" pointer-events="none"/>
  </g>
  <g id="arrowUp" transform="translate(30 24)">
    <use xlink:href="#rim"/>
    <path pointer-events="none" fill="none" stroke="white" stroke-width="1.5" d="M0,-3.0v7 M-2.5,-0.5L0,-3.0L2.5,-0.5"/>
  </g>
  <g id="arrowRight" transform="rotate(90) translate(36 -43)">
    <use xlink:href="#rim"/>
    <path pointer-events="none" fill="none" stroke="white" stroke-width="1.5" d="M0,-3.0v7 M-2.5,-0.5L0,-3.0L2.5,-0.5"/>
  </g>
  <g id="arrowDown" transform="rotate(180) translate(-30 -48)">
    <use xlink:href="#rim"/>
    <path pointer-events="none" fill="none" stroke="white" stroke-width="1.5" d="M0,-3.0v7 M-2.5,-0.5L0,-3.0L2.5,-0.5"/>
  </g>
  <g id="arrowLeft" transform="rotate(270) translate(-36 17)">
    <use xlink:href="#rim"/>
    <path pointer-events="none" fill="none" stroke="white" stroke-width="1.5" d="M0,-3.0v7 M-2.5,-0.5L0,-3.0L2.5,-0.5"/>
  </g>
  <g id="resetDef">
    <use xlink:href="#rim2" fill="#404040"><set attributeName="fill" to="#808080" begin="reset.mouseover" end="reset.mouseout"/></use>
  </g>
</defs>
<script type="application/ecmascript">
var viewWidth = 1135;
var viewHeight = 134;
var sectionId = 'dynsection-9';
</script>
<script type="application/ecmascript" xlink:href="svg.min.js"/>
<svg id="graph" class="graph">
<g id="viewport">
<title>Tank::getBounds</title>
<!-- Node1 -->
<g id="Node000001" class="node">
<title>Node1</title>
<g id="a_Node000001"><a xlink:title="Gets the bounding dimensions of the tank.">
<polygon fill="#999999" stroke="#666666" points="1127,-72.5 1030,-72.5 1030,-53.5 1127,-53.5 1127,-72.5"/>
<text text-anchor="middle" x="1078.5" y="-60.5" font-family="Helvetica,sans-Serif" font-size="10.00">Tank::getBounds</text>
</a>
</g>
</g>
<!-- Node2 -->
<g id="Node000002" class="node">
<title>Node2</title>
<g id="a_Node000002"><a xlink:href="classGameWorld.html#a6b4f2f8d12f4dcde90d48853dd37f6cc" target="_top" xlink:title="Checks boundary collisions.">
<polygon fill="white" stroke="#666666" points="985,-126 830,-126 830,-96 985,-96 985,-126"/>
<text text-anchor="start" x="838" y="-114" font-family="Helvetica,sans-Serif" font-size="10.00">GameWorld::checkBoundary</text>
<text text-anchor="middle" x="907.5" y="-103" font-family="Helvetica,sans-Serif" font-size="10.00">Collisions</text>
</a>
</g>
</g>
<!-- Node1&#45;&gt;Node2 -->
<g id="edge1_Node000001_Node000002" class="edge">
<title>Node1&#45;&gt;Node2</title>
<g id="a_edge1_Node000001_Node000002"><a xlink:title=" ">
<path fill="none" stroke="#63b8ff" d="M1034.88,-75.3C1021.77,-79.07 1007.3,-83.22 994,-87 983.77,-89.91 972.84,-92.99 962.33,-95.94"/>
<polygon fill="#63b8ff" stroke="#63b8ff" points="1035.96,-78.64 1044.6,-72.51 1034.02,-71.91 1035.96,-78.64"/>
</a>
</g>
</g>
<!-- Node8 -->
<g id="Node000008" class="node">
<title>Node8</title>
<g id="a_Node000008"><a xlink:href="classGameWorld.html#ab28f8bec4f78b7be44d509449508babb" target="_top" xlink:title="Checks tank&#45;obstacle collisions.">
<polygon fill="white" stroke="#666666" points="994,-78 821,-78 821,-48 994,-48 994,-78"/>
<text text-anchor="start" x="829" y="-66" font-family="Helvetica,sans-Serif" font-size="10.00">GameWorld::checkTankObstacle</text>
<text text-anchor="middle" x="907.5" y="-55" font-family="Helvetica,sans-Serif" font-size="10.00">Collisions</text>
</a>
</g>
</g>
<!-- Node1&#45;&gt;Node8 -->
<g id="edge7_Node000001_Node000008" class="edge">
<title>Node1&#45;&gt;Node8</title>
<g id="a_edge7_Node000001_Node000008"><a xlink:title=" ">
<path fill="none" stroke="#63b8ff" d="M1019.72,-63C1011.43,-63 1002.77,-63 994.09,-63"/>
<polygon fill="#63b8ff" stroke="#63b8ff" points="1019.97,-66.5 1029.97,-63 1019.97,-59.5 1019.97,-66.5"/>
</a>
</g>
</g>
<!-- Node9 -->
<g id="Node000009" class="node">
<title>Node9</title>
<g id="a_Node000009"><a xlink:href="classGameWorld.html#aba83e6f4f714c9f590f4cb8078cd9a2b" target="_top" xlink:title="Checks tank&#45;tank collisions.">
<polygon fill="white" stroke="#666666" points="984,-30 831,-30 831,0 984,0 984,-30"/>
<text text-anchor="start" x="839" y="-18" font-family="Helvetica,sans-Serif" font-size="10.00">GameWorld::checkTankTank</text>
<text text-anchor="middle" x="907.5" y="-7" font-family="Helvetica,sans-Serif" font-size="10.00">Collisions</text>
</a>
</g>
</g>
<!-- Node1&#45;&gt;Node9 -->
<g id="edge9_Node000001_Node000009" class="edge">
<title>Node1&#45;&gt;Node9</title>
<g id="a_edge9_Node000001_Node000009"><a xlink:title=" ">
<path fill="none" stroke="#63b8ff" d="M1034.88,-50.7C1021.77,-46.93 1007.3,-42.78 994,-39 983.77,-36.09 972.84,-33.01 962.33,-30.06"/>
<polygon fill="#63b8ff" stroke="#63b8ff" points="1034.02,-54.09 1044.6,-53.49 1035.96,-47.36 1034.02,-54.09"/>
</a>
</g>
</g>
<!-- Node3 -->
<g id="Node000003" class="node">
<title>Node3</title>
<g id="a_Node000003"><a xlink:href="classGameWorld.html#a2a5aaafc1c18521a4657d6a4a66c4d91" target="_top" xlink:title="Checks all types of collisions.">
<polygon fill="white" stroke="#666666" points="785,-72.5 630,-72.5 630,-53.5 785,-53.5 785,-72.5"/>
<text text-anchor="middle" x="707.5" y="-60.5" font-family="Helvetica,sans-Serif" font-size="10.00">GameWorld::checkCollisions</text>
</a>
</g>
</g>
<!-- Node2&#45;&gt;Node3 -->
<g id="edge2_Node000002_Node000003" class="edge">
<title>Node2&#45;&gt;Node3</title>
<g id="a_edge2_Node000002_Node000003"><a xlink:title=" ">
<path fill="none" stroke="#63b8ff" d="M834.62,-93.58C805.38,-86.49 772.71,-78.57 747.95,-72.56"/>
<polygon fill="#63b8ff" stroke="#63b8ff" points="833.85,-96.99 844.39,-95.94 835.5,-90.19 833.85,-96.99"/>
</a>
</g>
</g>
<!-- Node4 -->
<g id="Node000004" class="node">
<title>Node4</title>
<g id="a_Node000004"><a xlink:href="classGameWorld.html#ab645acf30cb0a4640a8fb5b88c5c7c94" target="_top" xlink:title="Updates all game objects and logic.">
<polygon fill="white" stroke="#666666" points="594,-72.5 481,-72.5 481,-53.5 594,-53.5 594,-72.5"/>
<text text-anchor="middle" x="537.5" y="-60.5" font-family="Helvetica,sans-Serif" font-size="10.00">GameWorld::update</text>
</a>
</g>
</g>
<!-- Node3&#45;&gt;Node4 -->
<g id="edge3_Node000003_Node000004" class="edge">
<title>Node3&#45;&gt;Node4</title>
<g id="a_edge3_Node000003_Node000004"><a xlink:title=" ">
<path fill="none" stroke="#63b8ff" d="M619.77,-63C611.16,-63 602.59,-63 594.42,-63"/>
<polygon fill="#63b8ff" stroke="#63b8ff" points="619.87,-66.5 629.87,-63 619.87,-59.5 619.87,-66.5"/>
</a>
</g>
</g>
<!-- Node5 -->
<g id="Node000005" class="node">
<title>Node5</title>
<g id="a_Node000005"><a xlink:href="classGameController.html#af2367e58f03d8a1441c9a574967fd360" target="_top" xlink:title="Processes a single game turn/update cycle.">
<polygon fill="white" stroke="#666666" points="445,-72.5 258,-72.5 258,-53.5 445,-53.5 445,-72.5"/>
<text text-anchor="middle" x="351.5" y="-60.5" font-family="Helvetica,sans-Serif" font-size="10.00">GameController::processGameTurn</text>
</a>
</g>
</g>
<!-- Node4&#45;&gt;Node5 -->
<g id="edge4_Node000004_Node000005" class="edge">
<title>Node4&#45;&gt;Node5</title>
<g id="a_edge4_Node000004_Node000005"><a xlink:title=" ">
<path fill="none" stroke="#63b8ff" d="M470.78,-63C462.43,-63 453.76,-63 445.08,-63"/>
<polygon fill="#63b8ff" stroke="#63b8ff" points="470.79,-66.5 480.79,-63 470.79,-59.5 470.79,-66.5"/>
</a>
</g>
</g>
<!-- Node6 -->
<g id="Node000006" class="node">
<title>Node6</title>
<g id="a_Node000006"><a xlink:href="classGameController.html#ac958989c8f7f08488546930e5fcb0d82" target="_top" xlink:title="Starts and runs the main game loop.">
<polygon fill="white" stroke="#666666" points="222,-72.5 77,-72.5 77,-53.5 222,-53.5 222,-72.5"/>
<text text-anchor="middle" x="149.5" y="-60.5" font-family="Helvetica,sans-Serif" font-size="10.00">GameController::runGame</text>
</a>
</g>
</g>
<!-- Node5&#45;&gt;Node6 -->
<g id="edge5_Node000005_Node000006" class="edge">
<title>Node5&#45;&gt;Node6</title>
<g id="a_edge5_Node000005_Node000006"><a xlink:title=" ">
<path fill="none" stroke="#63b8ff" d="M247.71,-63C239.1,-63 230.52,-63 222.22,-63"/>
<polygon fill="#63b8ff" stroke="#63b8ff" points="247.82,-66.5 257.82,-63 247.82,-59.5 247.82,-66.5"/>
</a>
</g>
</g>
<!-- Node7 -->
<g id="Node000007" class="node">
<title>Node7</title>
<g id="a_Node000007"><a xlink:href="main_8cpp.html#ae66f6b31b5ad750f1fe042a706a4e3d4" target="_top" xlink:title="Main function that serves as the application entry point.">
<polygon fill="white" stroke="#666666" points="41,-72.5 0,-72.5 0,-53.5 41,-53.5 41,-72.5"/>
<text text-anchor="middle" x="20.5" y="-60.5" font-family="Helvetica,sans-Serif" font-size="10.00">main</text>
</a>
</g>
</g>
<!-- Node6&#45;&gt;Node7 -->
<g id="edge6_Node000006_Node000007" class="edge">
<title>Node6&#45;&gt;Node7</title>
<g id="a_edge6_Node000006_Node000007"><a xlink:title=" ">
<path fill="none" stroke="#63b8ff" d="M66.79,-63C57.31,-63 48.43,-63 41.08,-63"/>
<polygon fill="#63b8ff" stroke="#63b8ff" points="66.83,-66.5 76.83,-63 66.83,-59.5 66.83,-66.5"/>
</a>
</g>
</g>
<!-- Node8&#45;&gt;Node3 -->
<g id="edge8_Node000008_Node000003" class="edge">
<title>Node8&#45;&gt;Node3</title>
<g id="a_edge8_Node000008_Node000003"><a xlink:title=" ">
<path fill="none" stroke="#63b8ff" d="M810.8,-63C802.24,-63 793.66,-63 785.29,-63"/>
<polygon fill="#63b8ff" stroke="#63b8ff" points="810.81,-66.5 820.81,-63 810.81,-59.5 810.81,-66.5"/>
</a>
</g>
</g>
<!-- Node9&#45;&gt;Node3 -->
<g id="edge10_Node000009_Node000003" class="edge">
<title>Node9&#45;&gt;Node3</title>
<g id="a_edge10_Node000009_Node000003"><a xlink:title=" ">
<path fill="none" stroke="#63b8ff" d="M834.62,-32.42C805.38,-39.51 772.71,-47.43 747.95,-53.44"/>
<polygon fill="#63b8ff" stroke="#63b8ff" points="835.5,-35.81 844.39,-30.06 833.85,-29.01 835.5,-35.81"/>
</a>
</g>
</g>
</g>
</svg>

<g id="navigator" transform="translate(0 0)" fill="#404254">
  <rect fill="#f2f5e9" fill-opacity="0.5" stroke="#606060" stroke-width=".5" x="0" y="0" width="60" height="60"/>
  <use id="zoomplus" xlink:href="#zoomPlus" x="17" y="9" onmousedown="handleZoom(evt,'in')"/>
  <use id="zoomminus" xlink:href="#zoomMin" x="42" y="9" onmousedown="handleZoom(evt,'out')"/>
  <use id="reset" xlink:href="#resetDef" x="30" y="36" onmousedown="handleReset()"/>
   <use id="arrowup" xlink:href="#arrowUp" x="0" y="0" onmousedown="handlePan(0,-1)"/>
  <use id="arrowright" xlink:href="#arrowRight" x="0" y="0" onmousedown="handlePan(1,0)"/>
  <use id="arrowdown" xlink:href="#arrowDown" x="0" y="0" onmousedown="handlePan(0,1)"/>
  <use id="arrowleft" xlink:href="#arrowLeft" x="0" y="0" onmousedown="handlePan(-1,0)"/>
</g>
<svg viewBox="0 0 15 15" width="100%" height="30px" preserveAspectRatio="xMaxYMin meet">
 <g id="arrow_out" transform="scale(0.3 0.3)">
  <a xlink:href="classTank_a893b0a184e05009741b13e1e79cd629f_icgraph_org.svg" target="_base">
   <rect id="button" ry="5" rx="5" y="6" x="6" height="38" width="38"
        fill="#f2f5e9" fill-opacity="0.5" stroke="#606060" stroke-width="1.0"/>
   <path id="arrow"
     d="M 11.500037,31.436501 C 11.940474,20.09759 22.043105,11.32322 32.158766,21.979434 L 37.068811,17.246167 C 37.068811,17.246167 37.088388,32 37.088388,32 L 22.160133,31.978069 C 22.160133,31.978069 26.997745,27.140456 26.997745,27.140456 C 18.528582,18.264221 13.291696,25.230495 11.500037,31.436501 z"
     style="fill:#404040;"/>
  </a>
 </g>
</svg>

<style type='text/css'>
<![CDATA[
[data-mouse-over-selected='false'] { opacity: 0.7; }
[data-mouse-over-selected='true']  { opacity: 1.0; }
]]>
</style>
<script type="application/ecmascript"><![CDATA[
document.addEventListener('DOMContentLoaded', (event) => {
  highlightEdges();
  highlightAdjacentNodes();
});
]]></script>
</svg>
