<?xml version="1.0" encoding="UTF-8" standalone="no"?>
<!DOCTYPE svg PUBLIC "-//W3C//DTD SVG 1.1//EN"
 "http://www.w3.org/Graphics/SVG/1.1/DTD/svg11.dtd">
<!-- Generated by graphviz version 2.43.0 (0)
 -->
<!-- Title: ConsoleRenderer::drawLevelComplete Pages: 1 -->
<svg width="836pt" height="141pt"
 viewBox="0.00 0.00 836.00 141.00" xmlns="http://www.w3.org/2000/svg" xmlns:xlink="http://www.w3.org/1999/xlink">
<g id="graph0" class="graph" transform="scale(1 1) rotate(0) translate(4 137)">
<title>ConsoleRenderer::drawLevelComplete</title>
<!-- Node1 -->
<g id="Node000001" class="node">
<title>Node1</title>
<g id="a_Node000001"><a xlink:title="Draws level completion screen.">
<polygon fill="#999999" stroke="#666666" points="156,-78.5 0,-78.5 0,-48.5 156,-48.5 156,-78.5"/>
<text text-anchor="start" x="8" y="-66.5" font-family="Helvetica,sans-Serif" font-size="10.00">ConsoleRenderer::drawLevel</text>
<text text-anchor="middle" x="78" y="-55.5" font-family="Helvetica,sans-Serif" font-size="10.00">Complete</text>
</a>
</g>
</g>
<!-- Node2 -->
<g id="Node000002" class="node">
<title>Node2</title>
<g id="a_Node000002"><a xlink:href="classConsoleRenderer.html#a209136c99544bd8fa46cc9860cedab1c" target="_top" xlink:title="Calculates horizontal offset to center content based on terminal width.">
<polygon fill="white" stroke="#666666" points="601,-86.5 451,-86.5 451,-56.5 601,-56.5 601,-86.5"/>
<text text-anchor="start" x="459" y="-74.5" font-family="Helvetica,sans-Serif" font-size="10.00">ConsoleRenderer::calculate</text>
<text text-anchor="middle" x="526" y="-63.5" font-family="Helvetica,sans-Serif" font-size="10.00">HorizontalOffset</text>
</a>
</g>
</g>
<!-- Node1&#45;&gt;Node2 -->
<g id="edge1_Node000001_Node000002" class="edge">
<title>Node1&#45;&gt;Node2</title>
<g id="a_edge1_Node000001_Node000002"><a xlink:title=" ">
<path fill="none" stroke="#63b8ff" d="M156.19,-65.67C168.18,-65.97 180.42,-66.26 192,-66.5 276.68,-68.26 373.47,-69.64 440.8,-70.5"/>
<polygon fill="#63b8ff" stroke="#63b8ff" points="440.89,-74.01 450.93,-70.63 440.98,-67.01 440.89,-74.01"/>
</a>
</g>
</g>
<!-- Node3 -->
<g id="Node000003" class="node">
<title>Node3</title>
<g id="a_Node000003"><a xlink:href="classConsoleRenderer.html#a9576db66ee7dc8d9fdec36f0181b9a12" target="_top" xlink:title="Checks if terminal size meets requirements.">
<polygon fill="white" stroke="#666666" points="389,-133 192,-133 192,-114 389,-114 389,-133"/>
<text text-anchor="middle" x="290.5" y="-121" font-family="Helvetica,sans-Serif" font-size="10.00">ConsoleRenderer::checkTerminalSize</text>
</a>
</g>
</g>
<!-- Node1&#45;&gt;Node3 -->
<g id="edge2_Node000001_Node000003" class="edge">
<title>Node1&#45;&gt;Node3</title>
<g id="a_edge2_Node000001_Node000003"><a xlink:title=" ">
<path fill="none" stroke="#63b8ff" d="M123.88,-78.56C144.53,-85.29 169.41,-93.13 192,-99.5 206.86,-103.69 223.11,-107.85 238,-111.51"/>
<polygon fill="#63b8ff" stroke="#63b8ff" points="237.52,-114.99 248.07,-113.95 239.17,-108.19 237.52,-114.99"/>
</a>
</g>
</g>
<!-- Node6 -->
<g id="Node000006" class="node">
<title>Node6</title>
<g id="a_Node000006"><a xlink:href="classConsoleRenderer.html#a041e99f6c0427c254b0349b57fbe2a84" target="_top" xlink:title="Clears the terminal screen.">
<polygon fill="white" stroke="#666666" points="607.5,-19 444.5,-19 444.5,0 607.5,0 607.5,-19"/>
<text text-anchor="middle" x="526" y="-7" font-family="Helvetica,sans-Serif" font-size="10.00">ConsoleRenderer::clearScreen</text>
</a>
</g>
</g>
<!-- Node1&#45;&gt;Node6 -->
<g id="edge5_Node000001_Node000006" class="edge">
<title>Node1&#45;&gt;Node6</title>
<g id="a_edge5_Node000001_Node000006"><a xlink:title=" ">
<path fill="none" stroke="#63b8ff" d="M108.33,-48.5C130.63,-37.92 162.42,-24.59 192,-18.5 272.69,-1.89 366.67,-0.98 434.18,-3.44"/>
<polygon fill="#63b8ff" stroke="#63b8ff" points="434.24,-6.94 444.37,-3.84 434.51,0.05 434.24,-6.94"/>
</a>
</g>
</g>
<!-- Node8 -->
<g id="Node000008" class="node">
<title>Node8</title>
<g id="a_Node000008"><a xlink:href="classConsoleRenderer.html#af59760cefd8647cf4b6fe34774cac2c1" target="_top" xlink:title="Draws an error message about terminal size.">
<polygon fill="white" stroke="#666666" points="367,-57.5 214,-57.5 214,-27.5 367,-27.5 367,-57.5"/>
<text text-anchor="start" x="222" y="-45.5" font-family="Helvetica,sans-Serif" font-size="10.00">ConsoleRenderer::drawError</text>
<text text-anchor="middle" x="290.5" y="-34.5" font-family="Helvetica,sans-Serif" font-size="10.00">Message</text>
</a>
</g>
</g>
<!-- Node1&#45;&gt;Node8 -->
<g id="edge7_Node000001_Node000008" class="edge">
<title>Node1&#45;&gt;Node8</title>
<g id="a_edge7_Node000001_Node000008"><a xlink:title=" ">
<path fill="none" stroke="#63b8ff" d="M156.19,-55.8C171.59,-54.26 187.85,-52.64 203.53,-51.08"/>
<polygon fill="#63b8ff" stroke="#63b8ff" points="204.12,-54.53 213.73,-50.06 203.43,-47.57 204.12,-54.53"/>
</a>
</g>
</g>
<!-- Node4 -->
<g id="Node000004" class="node">
<title>Node4</title>
<g id="a_Node000004"><a xlink:href="classConsoleRenderer.html#aae418386985b5ad1286af9cb8a7726c9" target="_top" xlink:title="Updates terminal size information.">
<polygon fill="white" stroke="#666666" points="627,-133 425,-133 425,-114 627,-114 627,-133"/>
<text text-anchor="middle" x="526" y="-121" font-family="Helvetica,sans-Serif" font-size="10.00">ConsoleRenderer::updateTerminalSize</text>
</a>
</g>
</g>
<!-- Node3&#45;&gt;Node4 -->
<g id="edge3_Node000003_Node000004" class="edge">
<title>Node3&#45;&gt;Node4</title>
<g id="a_edge3_Node000003_Node000004"><a xlink:title=" ">
<path fill="none" stroke="#63b8ff" d="M389.17,-123.5C397.52,-123.5 406.01,-123.5 414.45,-123.5"/>
<polygon fill="#63b8ff" stroke="#63b8ff" points="414.72,-127 424.72,-123.5 414.72,-120 414.72,-127"/>
</a>
</g>
</g>
<!-- Node5 -->
<g id="Node000005" class="node">
<title>Node5</title>
<g id="a_Node000005"><a xlink:href="classPlatformUtils.html#a9fb2159f36325087d8c93e7937d6da0b" target="_top" xlink:title="Gets current terminal dimensions.">
<polygon fill="white" stroke="#666666" points="828,-133 663,-133 663,-114 828,-114 828,-133"/>
<text text-anchor="middle" x="745.5" y="-121" font-family="Helvetica,sans-Serif" font-size="10.00">PlatformUtils::getTerminalSize</text>
</a>
</g>
</g>
<!-- Node4&#45;&gt;Node5 -->
<g id="edge4_Node000004_Node000005" class="edge">
<title>Node4&#45;&gt;Node5</title>
<g id="a_edge4_Node000004_Node000005"><a xlink:title=" ">
<path fill="none" stroke="#63b8ff" d="M627.16,-123.5C635.64,-123.5 644.19,-123.5 652.6,-123.5"/>
<polygon fill="#63b8ff" stroke="#63b8ff" points="652.78,-127 662.78,-123.5 652.78,-120 652.78,-127"/>
</a>
</g>
</g>
<!-- Node7 -->
<g id="Node000007" class="node">
<title>Node7</title>
<g id="a_Node000007"><a xlink:href="classPlatformUtils.html#acddd420e3f04cd70a8932b5472fce01d" target="_top" xlink:title="Clears the terminal screen.">
<polygon fill="white" stroke="#666666" points="817.5,-19 673.5,-19 673.5,0 817.5,0 817.5,-19"/>
<text text-anchor="middle" x="745.5" y="-7" font-family="Helvetica,sans-Serif" font-size="10.00">PlatformUtils::clearScreen</text>
</a>
</g>
</g>
<!-- Node6&#45;&gt;Node7 -->
<g id="edge6_Node000006_Node000007" class="edge">
<title>Node6&#45;&gt;Node7</title>
<g id="a_edge6_Node000006_Node000007"><a xlink:title=" ">
<path fill="none" stroke="#63b8ff" d="M607.68,-9.5C625.75,-9.5 644.94,-9.5 663.04,-9.5"/>
<polygon fill="#63b8ff" stroke="#63b8ff" points="663.26,-13 673.26,-9.5 663.26,-6 663.26,-13"/>
</a>
</g>
</g>
<!-- Node8&#45;&gt;Node2 -->
<g id="edge8_Node000008_Node000002" class="edge">
<title>Node8&#45;&gt;Node2</title>
<g id="a_edge8_Node000008_Node000002"><a xlink:title=" ">
<path fill="none" stroke="#63b8ff" d="M367.31,-51.92C390.73,-54.82 416.67,-58.05 440.63,-61.02"/>
<polygon fill="#63b8ff" stroke="#63b8ff" points="440.41,-64.52 450.76,-62.28 441.27,-57.57 440.41,-64.52"/>
</a>
</g>
</g>
<!-- Node8&#45;&gt;Node6 -->
<g id="edge9_Node000008_Node000006" class="edge">
<title>Node8&#45;&gt;Node6</title>
<g id="a_edge9_Node000008_Node000006"><a xlink:title=" ">
<path fill="none" stroke="#63b8ff" d="M367.31,-31.79C392.94,-28.16 421.58,-24.12 447.35,-20.47"/>
<polygon fill="#63b8ff" stroke="#63b8ff" points="448.03,-23.91 457.44,-19.05 447.05,-16.98 448.03,-23.91"/>
</a>
</g>
</g>
</g>
</svg>
