<?xml version="1.0" encoding="UTF-8" standalone="no"?>
<!DOCTYPE svg PUBLIC "-//W3C//DTD SVG 1.1//EN"
 "http://www.w3.org/Graphics/SVG/1.1/DTD/svg11.dtd">
<!-- Generated by graphviz version 2.43.0 (0)
 -->
<!-- Title: GameWorld::checkTankObstacleCollisions Pages: 1 -->
<svg width="574pt" height="151pt"
 viewBox="0.00 0.00 574.00 151.00" xmlns="http://www.w3.org/2000/svg" xmlns:xlink="http://www.w3.org/1999/xlink">
<g id="graph0" class="graph" transform="scale(1 1) rotate(0) translate(4 147)">
<title>GameWorld::checkTankObstacleCollisions</title>
<!-- Node1 -->
<g id="Node000001" class="node">
<title>Node1</title>
<g id="a_Node000001"><a xlink:title="Checks tank&#45;obstacle collisions.">
<polygon fill="#999999" stroke="#666666" points="173,-88.5 0,-88.5 0,-58.5 173,-58.5 173,-88.5"/>
<text text-anchor="start" x="8" y="-76.5" font-family="Helvetica,sans-Serif" font-size="10.00">GameWorld::checkTankObstacle</text>
<text text-anchor="middle" x="86.5" y="-65.5" font-family="Helvetica,sans-Serif" font-size="10.00">Collisions</text>
</a>
</g>
</g>
<!-- Node2 -->
<g id="Node000002" class="node">
<title>Node2</title>
<g id="a_Node000002"><a xlink:href="classTank.html#a893b0a184e05009741b13e1e79cd629f" target="_top" xlink:title="Gets the bounding dimensions of the tank.">
<polygon fill="white" stroke="#666666" points="346.5,-143 249.5,-143 249.5,-124 346.5,-124 346.5,-143"/>
<text text-anchor="middle" x="298" y="-131" font-family="Helvetica,sans-Serif" font-size="10.00">Tank::getBounds</text>
</a>
</g>
</g>
<!-- Node1&#45;&gt;Node2 -->
<g id="edge1_Node000001_Node000002" class="edge">
<title>Node1&#45;&gt;Node2</title>
<g id="a_edge1_Node000001_Node000002"><a xlink:title=" ">
<path fill="none" stroke="#63b8ff" d="M137.38,-88.55C159.32,-95.09 185.41,-102.79 209,-109.5 222.85,-113.44 237.96,-117.61 251.7,-121.35"/>
<polygon fill="#63b8ff" stroke="#63b8ff" points="250.84,-124.74 261.41,-123.98 252.68,-117.99 250.84,-124.74"/>
</a>
</g>
</g>
<!-- Node3 -->
<g id="Node000003" class="node">
<title>Node3</title>
<g id="a_Node000003"><a xlink:href="classGameObject.html#aa4dd19d6b0ea5701d860b64b08435ae6" target="_top" xlink:title="Gets current position of the object.">
<polygon fill="white" stroke="#666666" points="563.5,-103 425.5,-103 425.5,-84 563.5,-84 563.5,-103"/>
<text text-anchor="middle" x="494.5" y="-91" font-family="Helvetica,sans-Serif" font-size="10.00">GameObject::getPosition</text>
</a>
</g>
</g>
<!-- Node1&#45;&gt;Node3 -->
<g id="edge2_Node000001_Node000003" class="edge">
<title>Node1&#45;&gt;Node3</title>
<g id="a_edge2_Node000001_Node000003"><a xlink:title=" ">
<path fill="none" stroke="#63b8ff" d="M173.11,-77.72C244.73,-81.25 346.06,-86.24 415.47,-89.66"/>
<polygon fill="#63b8ff" stroke="#63b8ff" points="415.32,-93.15 425.48,-90.15 415.66,-86.16 415.32,-93.15"/>
</a>
</g>
</g>
<!-- Node4 -->
<g id="Node000004" class="node">
<title>Node4</title>
<g id="a_Node000004"><a xlink:href="classGameWorld.html#a60724b9a69573c00245f87dfdfeefa14" target="_top" xlink:title="Handles tank&#45;obstacle collision.">
<polygon fill="white" stroke="#666666" points="387,-67.5 209,-67.5 209,-37.5 387,-37.5 387,-67.5"/>
<text text-anchor="start" x="217" y="-55.5" font-family="Helvetica,sans-Serif" font-size="10.00">GameWorld::handleTankObstacle</text>
<text text-anchor="middle" x="298" y="-44.5" font-family="Helvetica,sans-Serif" font-size="10.00">Collision</text>
</a>
</g>
</g>
<!-- Node1&#45;&gt;Node4 -->
<g id="edge3_Node000001_Node000004" class="edge">
<title>Node1&#45;&gt;Node4</title>
<g id="a_edge3_Node000001_Node000004"><a xlink:title=" ">
<path fill="none" stroke="#63b8ff" d="M173.01,-64.93C181.47,-64.08 190.1,-63.22 198.67,-62.36"/>
<polygon fill="#63b8ff" stroke="#63b8ff" points="199.1,-65.83 208.7,-61.35 198.4,-58.87 199.1,-65.83"/>
</a>
</g>
</g>
<!-- Node7 -->
<g id="Node000007" class="node">
<title>Node7</title>
<g id="a_Node000007"><a xlink:href="classObstacle.html#aa1936373d282c8dba39f529526b6143d" target="_top" xlink:title="Checks if obstacle is passable for tanks.">
<polygon fill="white" stroke="#666666" points="356,-19 240,-19 240,0 356,0 356,-19"/>
<text text-anchor="middle" x="298" y="-7" font-family="Helvetica,sans-Serif" font-size="10.00">Obstacle::isPassable</text>
</a>
</g>
</g>
<!-- Node1&#45;&gt;Node7 -->
<g id="edge7_Node000001_Node000007" class="edge">
<title>Node1&#45;&gt;Node7</title>
<g id="a_edge7_Node000001_Node000007"><a xlink:title=" ">
<path fill="none" stroke="#63b8ff" d="M124,-58.43C147.89,-48.96 179.95,-36.97 209,-28.5 218.02,-25.87 227.66,-23.43 237.12,-21.23"/>
<polygon fill="#63b8ff" stroke="#63b8ff" points="237.91,-24.64 246.89,-19.03 236.37,-17.81 237.91,-24.64"/>
</a>
</g>
</g>
<!-- Node4&#45;&gt;Node3 -->
<g id="edge5_Node000004_Node000003" class="edge">
<title>Node4&#45;&gt;Node3</title>
<g id="a_edge5_Node000004_Node000003"><a xlink:title=" ">
<path fill="none" stroke="#63b8ff" d="M370.32,-67.53C392.68,-72.25 417.02,-77.38 438.11,-81.82"/>
<polygon fill="#63b8ff" stroke="#63b8ff" points="437.67,-85.31 448.17,-83.95 439.11,-78.46 437.67,-85.31"/>
</a>
</g>
</g>
<!-- Node5 -->
<g id="Node000005" class="node">
<title>Node5</title>
<g id="a_Node000005"><a xlink:href="classGameObject.html#a650b9622507919864b54aadcaab92110" target="_top" xlink:title="Gets current direction of the object.">
<polygon fill="white" stroke="#666666" points="566,-63 423,-63 423,-44 566,-44 566,-63"/>
<text text-anchor="middle" x="494.5" y="-51" font-family="Helvetica,sans-Serif" font-size="10.00">GameObject::getDirection</text>
</a>
</g>
</g>
<!-- Node4&#45;&gt;Node5 -->
<g id="edge4_Node000004_Node000005" class="edge">
<title>Node4&#45;&gt;Node5</title>
<g id="a_edge4_Node000004_Node000005"><a xlink:title=" ">
<path fill="none" stroke="#63b8ff" d="M387.14,-52.95C395.65,-53 404.25,-53.04 412.67,-53.08"/>
<polygon fill="#63b8ff" stroke="#63b8ff" points="412.83,-56.59 422.85,-53.14 412.87,-49.59 412.83,-56.59"/>
</a>
</g>
</g>
<!-- Node6 -->
<g id="Node000006" class="node">
<title>Node6</title>
<g id="a_Node000006"><a xlink:href="classGameObject.html#a8e1f77d21a8ed8a894ae29f0e4126618" target="_top" xlink:title="Sets new position for the object.">
<polygon fill="white" stroke="#666666" points="563,-26 426,-26 426,-7 563,-7 563,-26"/>
<text text-anchor="middle" x="494.5" y="-14" font-family="Helvetica,sans-Serif" font-size="10.00">GameObject::setPosition</text>
</a>
</g>
</g>
<!-- Node4&#45;&gt;Node6 -->
<g id="edge6_Node000004_Node000006" class="edge">
<title>Node4&#45;&gt;Node6</title>
<g id="a_edge6_Node000004_Node000006"><a xlink:title=" ">
<path fill="none" stroke="#63b8ff" d="M380.08,-37.49C397.43,-34.28 415.48,-30.94 431.95,-27.89"/>
<polygon fill="#63b8ff" stroke="#63b8ff" points="432.79,-31.3 441.98,-26.04 431.51,-24.41 432.79,-31.3"/>
</a>
</g>
</g>
</g>
</svg>
