<?xml version="1.0" encoding="UTF-8" standalone="no"?>
<!DOCTYPE svg PUBLIC "-//W3C//DTD SVG 1.1//EN"
 "http://www.w3.org/Graphics/SVG/1.1/DTD/svg11.dtd">
<!-- Generated by graphviz version 2.43.0 (0)
 -->
<!-- Title: ConsoleRenderer::clearScreen Pages: 1 -->
<svg width="1924pt" height="692pt"
 viewBox="0.00 0.00 1924.00 691.92" xmlns="http://www.w3.org/2000/svg" xmlns:xlink="http://www.w3.org/1999/xlink">
<g id="graph0" class="graph" transform="scale(1 1) rotate(0) translate(4 687.92)">
<title>ConsoleRenderer::clearScreen</title>
<!-- Node1 -->
<g id="Node000001" class="node">
<title>Node1</title>
<g id="a_Node000001"><a xlink:title="Clears the terminal screen.">
<polygon fill="#999999" stroke="#666666" points="1916,-350.39 1753,-350.39 1753,-331.39 1916,-331.39 1916,-350.39"/>
<text text-anchor="middle" x="1834.5" y="-338.39" font-family="Helvetica,sans-Serif" font-size="10.00">ConsoleRenderer::clearScreen</text>
</a>
</g>
</g>
<!-- Node2 -->
<g id="Node000002" class="node">
<title>Node2</title>
<g id="a_Node000002"><a xlink:href="classConsoleRenderer.html#af59760cefd8647cf4b6fe34774cac2c1" target="_top" xlink:title="Draws an error message about terminal size.">
<polygon fill="white" stroke="#666666" points="1704,-398.89 1551,-398.89 1551,-368.89 1704,-368.89 1704,-398.89"/>
<text text-anchor="start" x="1559" y="-386.89" font-family="Helvetica,sans-Serif" font-size="10.00">ConsoleRenderer::drawError</text>
<text text-anchor="middle" x="1627.5" y="-375.89" font-family="Helvetica,sans-Serif" font-size="10.00">Message</text>
</a>
</g>
</g>
<!-- Node1&#45;&gt;Node2 -->
<g id="edge1_Node000001_Node000002" class="edge">
<title>Node1&#45;&gt;Node2</title>
<g id="a_edge1_Node000001_Node000002"><a xlink:title=" ">
<path fill="none" stroke="#63b8ff" d="M1778.01,-352.53C1754,-357.57 1725.6,-363.53 1700.04,-368.89"/>
<polygon fill="#63b8ff" stroke="#63b8ff" points="1778.94,-355.91 1788,-350.44 1777.5,-349.06 1778.94,-355.91"/>
</a>
</g>
</g>
<!-- Node3 -->
<g id="Node000003" class="node">
<title>Node3</title>
<g id="a_Node000003"><a xlink:href="classConsoleRenderer.html#a38306106200aabcfd90f6fe0552e18ea" target="_top" xlink:title="Draws game over screen.">
<polygon fill="white" stroke="#666666" points="1502,-523.39 1320,-523.39 1320,-504.39 1502,-504.39 1502,-523.39"/>
<text text-anchor="middle" x="1411" y="-511.39" font-family="Helvetica,sans-Serif" font-size="10.00">ConsoleRenderer::drawGameOver</text>
</a>
</g>
</g>
<!-- Node1&#45;&gt;Node3 -->
<g id="edge37_Node000001_Node000003" class="edge">
<title>Node1&#45;&gt;Node3</title>
<g id="a_edge37_Node000001_Node000003"><a xlink:title=" ">
<path fill="none" stroke="#63b8ff" d="M1825.1,-359.88C1809.31,-392.96 1771.82,-460.45 1717,-489.89 1642.72,-529.79 1543.27,-529.43 1478.44,-523.41"/>
<polygon fill="#63b8ff" stroke="#63b8ff" points="1828.44,-360.98 1829.45,-350.44 1822.08,-358.05 1828.44,-360.98"/>
</a>
</g>
</g>
<!-- Node4 -->
<g id="Node000004" class="node">
<title>Node4</title>
<g id="a_Node000004"><a xlink:href="classGameController.html#af2367e58f03d8a1441c9a574967fd360" target="_top" xlink:title="Processes a single game turn/update cycle.">
<polygon fill="white" stroke="#666666" points="445,-487.39 258,-487.39 258,-468.39 445,-468.39 445,-487.39"/>
<text text-anchor="middle" x="351.5" y="-475.39" font-family="Helvetica,sans-Serif" font-size="10.00">GameController::processGameTurn</text>
</a>
</g>
</g>
<!-- Node1&#45;&gt;Node4 -->
<g id="edge45_Node000001_Node000004" class="edge">
<title>Node1&#45;&gt;Node4</title>
<g id="a_edge45_Node000001_Node000004"><a xlink:title=" ">
<path fill="none" stroke="#63b8ff" d="M1831.15,-360.38C1824.09,-409.54 1798.27,-538.87 1717,-597.89 1606.64,-678.04 1548.4,-631.89 1412,-631.89 1412,-631.89 1412,-631.89 783,-631.89 610.75,-631.89 421.19,-521.24 367.44,-487.53"/>
<polygon fill="#63b8ff" stroke="#63b8ff" points="1834.62,-360.8 1832.47,-350.42 1827.69,-359.87 1834.62,-360.8"/>
</a>
</g>
</g>
<!-- Node5 -->
<g id="Node000005" class="node">
<title>Node5</title>
<g id="a_Node000005"><a xlink:href="classGameController.html#ac958989c8f7f08488546930e5fcb0d82" target="_top" xlink:title="Starts and runs the main game loop.">
<polygon fill="white" stroke="#666666" points="222,-487.39 77,-487.39 77,-468.39 222,-468.39 222,-487.39"/>
<text text-anchor="middle" x="149.5" y="-475.39" font-family="Helvetica,sans-Serif" font-size="10.00">GameController::runGame</text>
</a>
</g>
</g>
<!-- Node1&#45;&gt;Node5 -->
<g id="edge47_Node000001_Node000005" class="edge">
<title>Node1&#45;&gt;Node5</title>
<g id="a_edge47_Node000001_Node000005"><a xlink:title=" ">
<path fill="none" stroke="#63b8ff" d="M1832.29,-360.89C1827.85,-415.11 1807.54,-565.51 1717,-634.89 1608.7,-717.89 1548.45,-669.89 1412,-669.89 1412,-669.89 1412,-669.89 574,-669.89 395.19,-669.89 208.76,-526.16 161.76,-487.41"/>
<polygon fill="#63b8ff" stroke="#63b8ff" points="1835.81,-360.8 1833.04,-350.58 1828.83,-360.3 1835.81,-360.8"/>
</a>
</g>
</g>
<!-- Node7 -->
<g id="Node000007" class="node">
<title>Node7</title>
<g id="a_Node000007"><a xlink:href="classConsoleRenderer.html#a8c9ea938ec7728f1f3436a0a9d944cf2" target="_top" xlink:title="Draws level completion screen.">
<polygon fill="white" stroke="#666666" points="1489,-447.89 1333,-447.89 1333,-417.89 1489,-417.89 1489,-447.89"/>
<text text-anchor="start" x="1341" y="-435.89" font-family="Helvetica,sans-Serif" font-size="10.00">ConsoleRenderer::drawLevel</text>
<text text-anchor="middle" x="1411" y="-424.89" font-family="Helvetica,sans-Serif" font-size="10.00">Complete</text>
</a>
</g>
</g>
<!-- Node1&#45;&gt;Node7 -->
<g id="edge38_Node000001_Node000007" class="edge">
<title>Node1&#45;&gt;Node7</title>
<g id="a_edge38_Node000001_Node000007"><a xlink:title=" ">
<path fill="none" stroke="#63b8ff" d="M1812.76,-356.64C1790.43,-372.63 1753.22,-396.62 1717,-407.89 1642.05,-431.23 1552.02,-435.96 1489.28,-435.78"/>
<polygon fill="#63b8ff" stroke="#63b8ff" points="1815.09,-359.26 1821.1,-350.53 1810.96,-353.62 1815.09,-359.26"/>
</a>
</g>
</g>
<!-- Node8 -->
<g id="Node000008" class="node">
<title>Node8</title>
<g id="a_Node000008"><a xlink:href="classGameController.html#a85bcf4ecfd197aad278e116215a3717b" target="_top" xlink:title="Displays level completion screen.">
<polygon fill="white" stroke="#666666" points="860,-411.89 708,-411.89 708,-381.89 860,-381.89 860,-411.89"/>
<text text-anchor="start" x="716" y="-399.89" font-family="Helvetica,sans-Serif" font-size="10.00">GameController::showLevel</text>
<text text-anchor="middle" x="784" y="-388.89" font-family="Helvetica,sans-Serif" font-size="10.00">CompleteScreen</text>
</a>
</g>
</g>
<!-- Node1&#45;&gt;Node8 -->
<g id="edge48_Node000001_Node000008" class="edge">
<title>Node1&#45;&gt;Node8</title>
<g id="a_edge48_Node000001_Node000008"><a xlink:title=" ">
<path fill="none" stroke="#63b8ff" d="M1818.46,-358.3C1798.02,-380.63 1759.15,-418.53 1717,-435.89 1628.23,-472.46 1597.9,-452.22 1502,-456.89 1233.84,-469.96 1164.61,-460.06 899,-420.89 882.89,-418.52 865.64,-415.26 849.56,-411.92"/>
<polygon fill="#63b8ff" stroke="#63b8ff" points="1821.31,-360.37 1825.36,-350.59 1816.09,-355.71 1821.31,-360.37"/>
</a>
</g>
</g>
<!-- Node9 -->
<g id="Node000009" class="node">
<title>Node9</title>
<g id="a_Node000009"><a xlink:href="classConsoleRenderer.html#afd03640670c991dfa8240af639c2f0da" target="_top" xlink:title="Draws map selection screen.">
<polygon fill="white" stroke="#666666" points="1486.5,-313.89 1335.5,-313.89 1335.5,-283.89 1486.5,-283.89 1486.5,-313.89"/>
<text text-anchor="start" x="1343.5" y="-301.89" font-family="Helvetica,sans-Serif" font-size="10.00">ConsoleRenderer::drawMap</text>
<text text-anchor="middle" x="1411" y="-290.89" font-family="Helvetica,sans-Serif" font-size="10.00">Selection</text>
</a>
</g>
</g>
<!-- Node1&#45;&gt;Node9 -->
<g id="edge39_Node000001_Node000009" class="edge">
<title>Node1&#45;&gt;Node9</title>
<g id="a_edge39_Node000001_Node000009"><a xlink:title=" ">
<path fill="none" stroke="#63b8ff" d="M1742.64,-331.84C1666.23,-324.23 1558.34,-313.48 1486.84,-306.35"/>
<polygon fill="#63b8ff" stroke="#63b8ff" points="1742.43,-335.34 1752.73,-332.85 1743.13,-328.37 1742.43,-335.34"/>
</a>
</g>
</g>
<!-- Node10 -->
<g id="Node000010" class="node">
<title>Node10</title>
<g id="a_Node000010"><a xlink:href="classGameController.html#a4a9c94fe33cf6c73bb5dfc415d04d309" target="_top" xlink:title="Displays map selection screen.">
<polygon fill="white" stroke="#666666" points="1284,-216.39 1093,-216.39 1093,-197.39 1284,-197.39 1284,-216.39"/>
<text text-anchor="middle" x="1188.5" y="-204.39" font-family="Helvetica,sans-Serif" font-size="10.00">GameController::showMapSelection</text>
</a>
</g>
</g>
<!-- Node1&#45;&gt;Node10 -->
<g id="edge49_Node000001_Node000010" class="edge">
<title>Node1&#45;&gt;Node10</title>
<g id="a_edge49_Node000001_Node000010"><a xlink:title=" ">
<path fill="none" stroke="#63b8ff" d="M1791.81,-328.5C1769.7,-322.17 1742,-314.61 1717,-308.89 1542.12,-268.87 1492,-286.9 1320,-235.89 1303.38,-230.96 1300.7,-225.53 1284,-220.89 1278.01,-219.23 1271.74,-217.75 1265.41,-216.44"/>
<polygon fill="#63b8ff" stroke="#63b8ff" points="1790.97,-331.9 1801.55,-331.32 1792.91,-325.18 1790.97,-331.9"/>
</a>
</g>
</g>
<!-- Node12 -->
<g id="Node000012" class="node">
<title>Node12</title>
<g id="a_Node000012"><a xlink:href="classGameController.html#a9d11b5a6255b7249bddba49df0837cf3" target="_top" xlink:title="Displays and manages the main menu.">
<polygon fill="white" stroke="#666666" points="1054,-197.39 902,-197.39 902,-178.39 1054,-178.39 1054,-197.39"/>
<text text-anchor="middle" x="978" y="-185.39" font-family="Helvetica,sans-Serif" font-size="10.00">GameController::showMenu</text>
</a>
</g>
</g>
<!-- Node1&#45;&gt;Node12 -->
<g id="edge50_Node000001_Node000012" class="edge">
<title>Node1&#45;&gt;Node12</title>
<g id="a_edge50_Node000001_Node000012"><a xlink:title=" ">
<path fill="none" stroke="#63b8ff" d="M1831.77,-321.08C1826.1,-270.01 1803.19,-133.98 1717,-77.89 1638.37,-26.72 1313.9,-35.7 1093,-111.89 1050.28,-126.63 1008.17,-161.36 989.31,-178.28"/>
<polygon fill="#63b8ff" stroke="#63b8ff" points="1828.29,-321.54 1832.77,-331.14 1835.26,-320.84 1828.29,-321.54"/>
</a>
</g>
</g>
<!-- Node13 -->
<g id="Node000013" class="node">
<title>Node13</title>
<g id="a_Node000013"><a xlink:href="classGameController.html#a637ea4e72ed2be4a2884b30160b3e8ab" target="_top" xlink:title="Pauses the game and displays pause screen.">
<polygon fill="white" stroke="#666666" points="863,-273.39 705,-273.39 705,-254.39 863,-254.39 863,-273.39"/>
<text text-anchor="middle" x="784" y="-261.39" font-family="Helvetica,sans-Serif" font-size="10.00">GameController::pauseGame</text>
</a>
</g>
</g>
<!-- Node1&#45;&gt;Node13 -->
<g id="edge44_Node000001_Node000013" class="edge">
<title>Node1&#45;&gt;Node13</title>
<g id="a_edge44_Node000001_Node000013"><a xlink:title=" ">
<path fill="none" stroke="#63b8ff" d="M1832.59,-321.14C1828.91,-266.3 1810.31,-111.65 1717,-42.89 1607.59,37.73 1547.91,-20.89 1412,-20.89 1412,-20.89 1412,-20.89 1187.5,-20.89 1003.43,-20.89 831.34,-209.44 792.94,-254.37"/>
<polygon fill="#63b8ff" stroke="#63b8ff" points="1829.11,-321.48 1833.18,-331.27 1836.1,-321.08 1829.11,-321.48"/>
</a>
</g>
</g>
<!-- Node14 -->
<g id="Node000014" class="node">
<title>Node14</title>
<g id="a_Node000014"><a xlink:href="classConsoleRenderer.html#aa9273ce964dc1492d66a30b772213e81" target="_top" xlink:title="Draws main menu screen.">
<polygon fill="white" stroke="#666666" points="1489.5,-190.39 1332.5,-190.39 1332.5,-171.39 1489.5,-171.39 1489.5,-190.39"/>
<text text-anchor="middle" x="1411" y="-178.39" font-family="Helvetica,sans-Serif" font-size="10.00">ConsoleRenderer::drawMenu</text>
</a>
</g>
</g>
<!-- Node1&#45;&gt;Node14 -->
<g id="edge40_Node000001_Node000014" class="edge">
<title>Node1&#45;&gt;Node14</title>
<g id="a_edge40_Node000001_Node000014"><a xlink:title=" ">
<path fill="none" stroke="#63b8ff" d="M1823.5,-322.44C1806.21,-292.63 1767.69,-234.62 1717,-208.89 1646.11,-172.92 1554,-169.41 1489.63,-172.72"/>
<polygon fill="#63b8ff" stroke="#63b8ff" points="1820.58,-324.39 1828.53,-331.38 1826.68,-320.95 1820.58,-324.39"/>
</a>
</g>
</g>
<!-- Node15 -->
<g id="Node000015" class="node">
<title>Node15</title>
<g id="a_Node000015"><a xlink:href="classConsoleRenderer.html#a678f6e7177b2d466b8953d4f01bb7436" target="_top" xlink:title="Draws pause screen.">
<polygon fill="white" stroke="#666666" points="1057,-492.89 899,-492.89 899,-462.89 1057,-462.89 1057,-492.89"/>
<text text-anchor="start" x="907" y="-480.89" font-family="Helvetica,sans-Serif" font-size="10.00">ConsoleRenderer::drawPause</text>
<text text-anchor="middle" x="978" y="-469.89" font-family="Helvetica,sans-Serif" font-size="10.00">Screen</text>
</a>
</g>
</g>
<!-- Node1&#45;&gt;Node15 -->
<g id="edge41_Node000001_Node000015" class="edge">
<title>Node1&#45;&gt;Node15</title>
<g id="a_edge41_Node000001_Node000015"><a xlink:title=" ">
<path fill="none" stroke="#63b8ff" d="M1829.64,-360.52C1819.79,-404.7 1789.23,-511.67 1717,-557.89 1568.3,-653.05 1494.98,-594.33 1320,-570.89 1209.15,-556.05 1083.31,-515.21 1020,-492.91"/>
<polygon fill="#63b8ff" stroke="#63b8ff" points="1833.11,-361 1831.75,-350.5 1826.26,-359.56 1833.11,-361"/>
</a>
</g>
</g>
<!-- Node16 -->
<g id="Node000016" class="node">
<title>Node16</title>
<g id="a_Node000016"><a xlink:href="classConsoleRenderer.html#a0e17aa687bd8d7381b2bf8425b2a9709" target="_top" xlink:title="Draws settings screen.">
<polygon fill="white" stroke="#666666" points="1496,-227.39 1326,-227.39 1326,-208.39 1496,-208.39 1496,-227.39"/>
<text text-anchor="middle" x="1411" y="-215.39" font-family="Helvetica,sans-Serif" font-size="10.00">ConsoleRenderer::drawSettings</text>
</a>
</g>
</g>
<!-- Node1&#45;&gt;Node16 -->
<g id="edge42_Node000001_Node000016" class="edge">
<title>Node1&#45;&gt;Node16</title>
<g id="a_edge42_Node000001_Node000016"><a xlink:title=" ">
<path fill="none" stroke="#63b8ff" d="M1818.84,-323.58C1798.55,-301.01 1759.58,-262.33 1717,-244.89 1646.41,-215.98 1559.12,-211 1496.04,-212.2"/>
<polygon fill="#63b8ff" stroke="#63b8ff" points="1816.44,-326.16 1825.66,-331.37 1821.7,-321.55 1816.44,-326.16"/>
</a>
</g>
</g>
<!-- Node17 -->
<g id="Node000017" class="node">
<title>Node17</title>
<g id="a_Node000017"><a xlink:href="classGameController.html#a24f5cae258418d4a5934e6f412c28945" target="_top" xlink:title="Displays and manages the settings menu.">
<polygon fill="white" stroke="#666666" points="1271,-140.39 1106,-140.39 1106,-121.39 1271,-121.39 1271,-140.39"/>
<text text-anchor="middle" x="1188.5" y="-128.39" font-family="Helvetica,sans-Serif" font-size="10.00">GameController::showSettings</text>
</a>
</g>
</g>
<!-- Node1&#45;&gt;Node17 -->
<g id="edge51_Node000001_Node000017" class="edge">
<title>Node1&#45;&gt;Node17</title>
<g id="a_edge51_Node000001_Node000017"><a xlink:title=" ">
<path fill="none" stroke="#63b8ff" d="M1826.94,-321.59C1813.2,-284.5 1777.55,-203.86 1717,-168.89 1679.43,-147.2 1409.82,-136.83 1271.26,-132.88"/>
<polygon fill="#63b8ff" stroke="#63b8ff" points="1823.72,-322.97 1830.37,-331.22 1830.31,-320.62 1823.72,-322.97"/>
</a>
</g>
</g>
<!-- Node18 -->
<g id="Node000018" class="node">
<title>Node18</title>
<g id="a_Node000018"><a xlink:href="classGameController.html#a19dc0995b5ee51a87bf49dff90f4e991" target="_top" xlink:title="Handles terminal resize events.">
<polygon fill="white" stroke="#666666" points="1498.5,-361.89 1323.5,-361.89 1323.5,-331.89 1498.5,-331.89 1498.5,-361.89"/>
<text text-anchor="start" x="1331.5" y="-349.89" font-family="Helvetica,sans-Serif" font-size="10.00">GameController::handleTerminal</text>
<text text-anchor="middle" x="1411" y="-338.89" font-family="Helvetica,sans-Serif" font-size="10.00">Resize</text>
</a>
</g>
</g>
<!-- Node1&#45;&gt;Node18 -->
<g id="edge43_Node000001_Node000018" class="edge">
<title>Node1&#45;&gt;Node18</title>
<g id="a_edge43_Node000001_Node000018"><a xlink:title=" ">
<path fill="none" stroke="#63b8ff" d="M1742.72,-342.19C1670.42,-343.21 1569.87,-344.65 1498.66,-345.66"/>
<polygon fill="#63b8ff" stroke="#63b8ff" points="1742.78,-345.69 1752.73,-342.04 1742.68,-338.69 1742.78,-345.69"/>
</a>
</g>
</g>
<!-- Node19 -->
<g id="Node000019" class="node">
<title>Node19</title>
<g id="a_Node000019"><a xlink:href="classConsoleRenderer.html#ab34fa7af4ede79de3951f1d5271d7a27" target="_top" xlink:title="Renders the game world to console.">
<polygon fill="white" stroke="#666666" points="1479.5,-561.39 1342.5,-561.39 1342.5,-542.39 1479.5,-542.39 1479.5,-561.39"/>
<text text-anchor="middle" x="1411" y="-549.39" font-family="Helvetica,sans-Serif" font-size="10.00">ConsoleRenderer::render</text>
</a>
</g>
</g>
<!-- Node1&#45;&gt;Node19 -->
<g id="edge46_Node000001_Node000019" class="edge">
<title>Node1&#45;&gt;Node19</title>
<g id="a_edge46_Node000001_Node000019"><a xlink:title=" ">
<path fill="none" stroke="#63b8ff" d="M1827.57,-360.12C1814.57,-398.59 1779.64,-484.65 1717,-522.89 1644.25,-567.31 1543.07,-567.48 1477.55,-561.4"/>
<polygon fill="#63b8ff" stroke="#63b8ff" points="1830.9,-361.2 1830.65,-350.6 1824.24,-359.03 1830.9,-361.2"/>
</a>
</g>
</g>
<!-- Node20 -->
<g id="Node000020" class="node">
<title>Node20</title>
<g id="a_Node000020"><a xlink:href="classGameController.html#a47c26eedd973ec104d31a7c96b60d658" target="_top" xlink:title="Toggles between advanced and symbolic graphics modes.">
<polygon fill="white" stroke="#666666" points="1717,-116.89 1538,-116.89 1538,-86.89 1717,-86.89 1717,-116.89"/>
<text text-anchor="start" x="1546" y="-104.89" font-family="Helvetica,sans-Serif" font-size="10.00">GameController::toggleAdvanced</text>
<text text-anchor="middle" x="1627.5" y="-93.89" font-family="Helvetica,sans-Serif" font-size="10.00">Graphics</text>
</a>
</g>
</g>
<!-- Node1&#45;&gt;Node20 -->
<g id="edge52_Node000001_Node000020" class="edge">
<title>Node1&#45;&gt;Node20</title>
<g id="a_edge52_Node000001_Node000020"><a xlink:title=" ">
<path fill="none" stroke="#63b8ff" d="M1828.12,-321.71C1815.63,-280.62 1780.73,-183.55 1717,-130.89 1710.14,-125.23 1702.15,-120.66 1693.82,-116.98"/>
<polygon fill="#63b8ff" stroke="#63b8ff" points="1824.77,-322.71 1830.94,-331.32 1831.48,-320.73 1824.77,-322.71"/>
</a>
</g>
</g>
<!-- Node2&#45;&gt;Node3 -->
<g id="edge2_Node000002_Node000003" class="edge">
<title>Node2&#45;&gt;Node3</title>
<g id="a_edge2_Node000002_Node000003"><a xlink:title=" ">
<path fill="none" stroke="#63b8ff" d="M1592.86,-404.28C1545.87,-432.76 1462.43,-483.33 1427.78,-504.33"/>
<polygon fill="#63b8ff" stroke="#63b8ff" points="1594.74,-407.24 1601.47,-399.06 1591.11,-401.25 1594.74,-407.24"/>
</a>
</g>
</g>
<!-- Node2&#45;&gt;Node7 -->
<g id="edge6_Node000002_Node000007" class="edge">
<title>Node2&#45;&gt;Node7</title>
<g id="a_edge6_Node000002_Node000007"><a xlink:title=" ">
<path fill="none" stroke="#63b8ff" d="M1550.63,-401.22C1526.82,-406.66 1500.74,-412.62 1477.69,-417.89"/>
<polygon fill="#63b8ff" stroke="#63b8ff" points="1551.72,-404.57 1560.69,-398.93 1550.16,-397.74 1551.72,-404.57"/>
</a>
</g>
</g>
<!-- Node2&#45;&gt;Node9 -->
<g id="edge9_Node000002_Node000009" class="edge">
<title>Node2&#45;&gt;Node9</title>
<g id="a_edge9_Node000002_Node000009"><a xlink:title=" ">
<path fill="none" stroke="#63b8ff" d="M1590.59,-363.97C1566.15,-351 1532.78,-334.41 1502,-322.89 1493.37,-319.66 1484.12,-316.68 1474.95,-314"/>
<polygon fill="#63b8ff" stroke="#63b8ff" points="1589.02,-367.1 1599.49,-368.75 1592.33,-360.93 1589.02,-367.1"/>
</a>
</g>
</g>
<!-- Node2&#45;&gt;Node14 -->
<g id="edge20_Node000002_Node000014" class="edge">
<title>Node2&#45;&gt;Node14</title>
<g id="a_edge20_Node000002_Node000014"><a xlink:title=" ">
<path fill="none" stroke="#63b8ff" d="M1617.29,-359.36C1600.77,-318.98 1562.14,-238.98 1502,-198.89 1496.96,-195.54 1491.44,-192.78 1485.68,-190.52"/>
<polygon fill="#63b8ff" stroke="#63b8ff" points="1614.06,-360.73 1621.01,-368.73 1620.57,-358.14 1614.06,-360.73"/>
</a>
</g>
</g>
<!-- Node2&#45;&gt;Node15 -->
<g id="edge22_Node000002_Node000015" class="edge">
<title>Node2&#45;&gt;Node15</title>
<g id="a_edge22_Node000002_Node000015"><a xlink:title=" ">
<path fill="none" stroke="#63b8ff" d="M1540.89,-388.16C1479.26,-391.89 1394.24,-398.39 1320,-408.89 1222.07,-422.75 1109.9,-447.11 1041.78,-462.87"/>
<polygon fill="#63b8ff" stroke="#63b8ff" points="1541.19,-391.65 1550.96,-387.56 1540.77,-384.66 1541.19,-391.65"/>
</a>
</g>
</g>
<!-- Node2&#45;&gt;Node16 -->
<g id="edge25_Node000002_Node000016" class="edge">
<title>Node2&#45;&gt;Node16</title>
<g id="a_edge25_Node000002_Node000016"><a xlink:title=" ">
<path fill="none" stroke="#63b8ff" d="M1603.33,-361.66C1579,-338.79 1539.17,-302.67 1502,-274.89 1477.56,-256.62 1447.23,-238.23 1428.77,-227.45"/>
<polygon fill="#63b8ff" stroke="#63b8ff" points="1600.99,-364.27 1610.66,-368.6 1605.8,-359.18 1600.99,-364.27"/>
</a>
</g>
</g>
<!-- Node2&#45;&gt;Node18 -->
<g id="edge28_Node000002_Node000018" class="edge">
<title>Node2&#45;&gt;Node18</title>
<g id="a_edge28_Node000002_Node000018"><a xlink:title=" ">
<path fill="none" stroke="#63b8ff" d="M1540.86,-369.12C1526.97,-366.73 1512.58,-364.24 1498.66,-361.84"/>
<polygon fill="#63b8ff" stroke="#63b8ff" points="1540.43,-372.6 1550.88,-370.85 1541.62,-365.7 1540.43,-372.6"/>
</a>
</g>
</g>
<!-- Node2&#45;&gt;Node19 -->
<g id="edge35_Node000002_Node000019" class="edge">
<title>Node2&#45;&gt;Node19</title>
<g id="a_edge35_Node000002_Node000019"><a xlink:title=" ">
<path fill="none" stroke="#63b8ff" d="M1613.18,-407.97C1593.44,-441.3 1553.18,-500.86 1502,-531.89 1494.88,-536.21 1486.94,-539.6 1478.81,-542.25"/>
<polygon fill="#63b8ff" stroke="#63b8ff" points="1616.21,-409.72 1618.2,-399.32 1610.16,-406.21 1616.21,-409.72"/>
</a>
</g>
</g>
<!-- Node3&#45;&gt;Node4 -->
<g id="edge3_Node000003_Node000004" class="edge">
<title>Node3&#45;&gt;Node4</title>
<g id="a_edge3_Node000003_Node000004"><a xlink:title=" ">
<path fill="none" stroke="#63b8ff" d="M1309.67,-514.31C1139.18,-514.4 782.11,-511.86 481,-491.89 464.43,-490.79 446.7,-489.16 429.87,-487.39"/>
<polygon fill="#63b8ff" stroke="#63b8ff" points="1309.88,-517.81 1319.88,-514.3 1309.88,-510.81 1309.88,-517.81"/>
</a>
</g>
</g>
<!-- Node4&#45;&gt;Node5 -->
<g id="edge4_Node000004_Node000005" class="edge">
<title>Node4&#45;&gt;Node5</title>
<g id="a_edge4_Node000004_Node000005"><a xlink:title=" ">
<path fill="none" stroke="#63b8ff" d="M247.71,-477.89C239.1,-477.89 230.52,-477.89 222.22,-477.89"/>
<polygon fill="#63b8ff" stroke="#63b8ff" points="247.82,-481.39 257.82,-477.89 247.82,-474.39 247.82,-481.39"/>
</a>
</g>
</g>
<!-- Node6 -->
<g id="Node000006" class="node">
<title>Node6</title>
<g id="a_Node000006"><a xlink:href="main_8cpp.html#ae66f6b31b5ad750f1fe042a706a4e3d4" target="_top" xlink:title="Main function that serves as the application entry point.">
<polygon fill="white" stroke="#666666" points="41,-487.39 0,-487.39 0,-468.39 41,-468.39 41,-487.39"/>
<text text-anchor="middle" x="20.5" y="-475.39" font-family="Helvetica,sans-Serif" font-size="10.00">main</text>
</a>
</g>
</g>
<!-- Node5&#45;&gt;Node6 -->
<g id="edge5_Node000005_Node000006" class="edge">
<title>Node5&#45;&gt;Node6</title>
<g id="a_edge5_Node000005_Node000006"><a xlink:title=" ">
<path fill="none" stroke="#63b8ff" d="M66.79,-477.89C57.31,-477.89 48.43,-477.89 41.08,-477.89"/>
<polygon fill="#63b8ff" stroke="#63b8ff" points="66.83,-481.39 76.83,-477.89 66.83,-474.39 66.83,-481.39"/>
</a>
</g>
</g>
<!-- Node7&#45;&gt;Node8 -->
<g id="edge7_Node000007_Node000008" class="edge">
<title>Node7&#45;&gt;Node8</title>
<g id="a_edge7_Node000007_Node000008"><a xlink:title=" ">
<path fill="none" stroke="#63b8ff" d="M1322.58,-427.86C1199.28,-420.76 976.39,-407.92 860.14,-401.22"/>
<polygon fill="#63b8ff" stroke="#63b8ff" points="1322.55,-431.36 1332.74,-428.44 1322.95,-424.37 1322.55,-431.36"/>
</a>
</g>
</g>
<!-- Node8&#45;&gt;Node4 -->
<g id="edge8_Node000008_Node000004" class="edge">
<title>Node8&#45;&gt;Node4</title>
<g id="a_edge8_Node000008_Node000004"><a xlink:title=" ">
<path fill="none" stroke="#63b8ff" d="M697.57,-412.97C609.69,-429.5 475.72,-454.71 403.27,-468.34"/>
<polygon fill="#63b8ff" stroke="#63b8ff" points="698.34,-416.38 707.52,-411.1 697.05,-409.5 698.34,-416.38"/>
</a>
</g>
</g>
<!-- Node9&#45;&gt;Node10 -->
<g id="edge10_Node000009_Node000010" class="edge">
<title>Node9&#45;&gt;Node10</title>
<g id="a_edge10_Node000009_Node000010"><a xlink:title=" ">
<path fill="none" stroke="#63b8ff" d="M1339.26,-280.03C1332.53,-277.08 1325.99,-273.72 1320,-269.89 1300.12,-257.19 1304.27,-242.96 1284,-230.89 1273.38,-224.57 1261.14,-219.9 1249.05,-216.46"/>
<polygon fill="#63b8ff" stroke="#63b8ff" points="1337.95,-283.27 1348.53,-283.79 1340.58,-276.79 1337.95,-283.27"/>
</a>
</g>
</g>
<!-- Node11 -->
<g id="Node000011" class="node">
<title>Node11</title>
<g id="a_Node000011"><a xlink:href="classGameController.html#a971b3d8f6296a74f0bebc83b5e79c186" target="_top" xlink:title="Processes a user command.">
<polygon fill="white" stroke="#666666" points="669,-254.39 481,-254.39 481,-235.39 669,-235.39 669,-254.39"/>
<text text-anchor="middle" x="575" y="-242.39" font-family="Helvetica,sans-Serif" font-size="10.00">GameController::processCommand</text>
</a>
</g>
</g>
<!-- Node10&#45;&gt;Node11 -->
<g id="edge11_Node000010_Node000011" class="edge">
<title>Node10&#45;&gt;Node11</title>
<g id="a_edge11_Node000010_Node000011"><a xlink:title=" ">
<path fill="none" stroke="#63b8ff" d="M1082.98,-213.39C966.73,-220.61 780.67,-232.18 669.2,-239.1"/>
<polygon fill="#63b8ff" stroke="#63b8ff" points="1083.2,-216.88 1092.96,-212.77 1082.76,-209.9 1083.2,-216.88"/>
</a>
</g>
</g>
<!-- Node10&#45;&gt;Node12 -->
<g id="edge13_Node000010_Node000012" class="edge">
<title>Node10&#45;&gt;Node12</title>
<g id="a_edge13_Node000010_Node000012"><a xlink:title=" ">
<path fill="none" stroke="#63b8ff" d="M1134.2,-196.06C1109.89,-193.04 1080.68,-190.2 1054.2,-188.23"/>
<polygon fill="#63b8ff" stroke="#63b8ff" points="1133.93,-199.56 1144.3,-197.36 1134.83,-192.61 1133.93,-199.56"/>
</a>
</g>
</g>
<!-- Node11&#45;&gt;Node4 -->
<g id="edge12_Node000011_Node000004" class="edge">
<title>Node11&#45;&gt;Node4</title>
<g id="a_edge12_Node000011_Node000004"><a xlink:title=" ">
<path fill="none" stroke="#63b8ff" d="M533.34,-258.11C515.95,-265.11 496.21,-274.96 481,-287.89 416.38,-342.84 370.33,-437.88 356.69,-468.26"/>
<polygon fill="#63b8ff" stroke="#63b8ff" points="534.62,-261.37 542.71,-254.52 532.12,-254.83 534.62,-261.37"/>
</a>
</g>
</g>
<!-- Node12&#45;&gt;Node5 -->
<g id="edge17_Node000012_Node000005" class="edge">
<title>Node12&#45;&gt;Node5</title>
<g id="a_edge17_Node000012_Node000005"><a xlink:title=" ">
<path fill="none" stroke="#63b8ff" d="M891.38,-178.29C789.29,-170.42 615.59,-168.48 481,-225.89 334.66,-288.32 195.22,-430.16 159.36,-468.3"/>
<polygon fill="#63b8ff" stroke="#63b8ff" points="891.39,-181.81 901.64,-179.12 891.95,-174.83 891.39,-181.81"/>
</a>
</g>
</g>
<!-- Node12&#45;&gt;Node8 -->
<g id="edge18_Node000012_Node000008" class="edge">
<title>Node12&#45;&gt;Node8</title>
<g id="a_edge18_Node000012_Node000008"><a xlink:title=" ">
<path fill="none" stroke="#63b8ff" d="M961.29,-205C924.61,-244.92 833.84,-343.73 798.96,-381.7"/>
<polygon fill="#63b8ff" stroke="#63b8ff" points="964.06,-207.15 968.25,-197.42 958.91,-202.41 964.06,-207.15"/>
</a>
</g>
</g>
<!-- Node12&#45;&gt;Node10 -->
<g id="edge19_Node000012_Node000010" class="edge">
<title>Node12&#45;&gt;Node10</title>
<g id="a_edge19_Node000012_Node000010"><a xlink:title=" ">
<path fill="none" stroke="#63b8ff" d="M1032.18,-198.71C1050.63,-201 1071.92,-203.2 1092.71,-204.98"/>
<polygon fill="#63b8ff" stroke="#63b8ff" points="1032.6,-195.24 1022.24,-197.43 1031.71,-202.18 1032.6,-195.24"/>
</a>
</g>
</g>
<!-- Node12&#45;&gt;Node11 -->
<g id="edge16_Node000012_Node000011" class="edge">
<title>Node12&#45;&gt;Node11</title>
<g id="a_edge16_Node000012_Node000011"><a xlink:title=" ">
<path fill="none" stroke="#63b8ff" d="M891.64,-191.86C837.81,-195.24 767.01,-201.3 705,-211.89 671.16,-217.67 633.17,-227.85 607.24,-235.38"/>
<polygon fill="#63b8ff" stroke="#63b8ff" points="892.06,-195.34 901.83,-191.24 891.63,-188.35 892.06,-195.34"/>
</a>
</g>
</g>
<!-- Node12&#45;&gt;Node13 -->
<g id="edge14_Node000012_Node000013" class="edge">
<title>Node12&#45;&gt;Node13</title>
<g id="a_edge14_Node000012_Node000013"><a xlink:title=" ">
<path fill="none" stroke="#63b8ff" d="M942.97,-201.36C904.52,-216.58 842.91,-240.97 809.12,-254.35"/>
<polygon fill="#63b8ff" stroke="#63b8ff" points="944.67,-204.45 952.68,-197.52 942.1,-197.95 944.67,-204.45"/>
</a>
</g>
</g>
<!-- Node13&#45;&gt;Node11 -->
<g id="edge15_Node000013_Node000011" class="edge">
<title>Node13&#45;&gt;Node11</title>
<g id="a_edge15_Node000013_Node000011"><a xlink:title=" ">
<path fill="none" stroke="#63b8ff" d="M694.62,-255.78C686.25,-255.01 677.75,-254.23 669.34,-253.46"/>
<polygon fill="#63b8ff" stroke="#63b8ff" points="694.46,-259.28 704.74,-256.71 695.1,-252.31 694.46,-259.28"/>
</a>
</g>
</g>
<!-- Node14&#45;&gt;Node12 -->
<g id="edge21_Node000014_Node000012" class="edge">
<title>Node14&#45;&gt;Node12</title>
<g id="a_edge21_Node000014_Node000012"><a xlink:title=" ">
<path fill="none" stroke="#63b8ff" d="M1322.05,-182.32C1243.2,-183.6 1128.77,-185.46 1054.12,-186.67"/>
<polygon fill="#63b8ff" stroke="#63b8ff" points="1322.51,-185.81 1332.45,-182.15 1322.39,-178.82 1322.51,-185.81"/>
</a>
</g>
</g>
<!-- Node15&#45;&gt;Node4 -->
<g id="edge24_Node000015_Node000004" class="edge">
<title>Node15&#45;&gt;Node4</title>
<g id="a_edge24_Node000015_Node000004"><a xlink:title=" ">
<path fill="none" stroke="#63b8ff" d="M888.82,-477.89C771.45,-477.89 564.82,-477.89 445.2,-477.89"/>
<polygon fill="#63b8ff" stroke="#63b8ff" points="888.85,-481.39 898.85,-477.89 888.85,-474.39 888.85,-481.39"/>
</a>
</g>
</g>
<!-- Node15&#45;&gt;Node13 -->
<g id="edge23_Node000015_Node000013" class="edge">
<title>Node15&#45;&gt;Node13</title>
<g id="a_edge23_Node000015_Node000013"><a xlink:title=" ">
<path fill="none" stroke="#63b8ff" d="M956.6,-455.15C915.07,-408.87 822.24,-305.4 793.59,-273.46"/>
<polygon fill="#63b8ff" stroke="#63b8ff" points="954.22,-457.74 963.5,-462.85 959.43,-453.06 954.22,-457.74"/>
</a>
</g>
</g>
<!-- Node16&#45;&gt;Node17 -->
<g id="edge26_Node000016_Node000017" class="edge">
<title>Node16&#45;&gt;Node17</title>
<g id="a_edge26_Node000016_Node000017"><a xlink:title=" ">
<path fill="none" stroke="#63b8ff" d="M1343.45,-205.99C1335.45,-203.93 1327.48,-201.58 1320,-198.89 1275.99,-183.12 1228.22,-155.15 1204.55,-140.48"/>
<polygon fill="#63b8ff" stroke="#63b8ff" points="1342.63,-209.39 1353.17,-208.35 1344.28,-202.59 1342.63,-209.39"/>
</a>
</g>
</g>
<!-- Node17&#45;&gt;Node12 -->
<g id="edge27_Node000017_Node000012" class="edge">
<title>Node17&#45;&gt;Node12</title>
<g id="a_edge27_Node000017_Node000012"><a xlink:title=" ">
<path fill="none" stroke="#63b8ff" d="M1138.86,-142.92C1124.1,-146.66 1107.86,-150.86 1093,-154.89 1065.16,-162.46 1033.68,-171.62 1010.86,-178.36"/>
<polygon fill="#63b8ff" stroke="#63b8ff" points="1139.96,-146.25 1148.8,-140.41 1138.25,-139.46 1139.96,-146.25"/>
</a>
</g>
</g>
<!-- Node18&#45;&gt;Node4 -->
<g id="edge30_Node000018_Node000004" class="edge">
<title>Node18&#45;&gt;Node4</title>
<g id="a_edge30_Node000018_Node000004"><a xlink:title=" ">
<path fill="none" stroke="#63b8ff" d="M1312.92,-348.36C1250.16,-349.48 1166.74,-351.27 1093,-353.89 819.82,-363.6 740.42,-328.75 481,-414.89 438.56,-428.99 392.27,-454.41 368.53,-468.26"/>
<polygon fill="#63b8ff" stroke="#63b8ff" points="1313.26,-351.86 1323.2,-348.18 1313.14,-344.86 1313.26,-351.86"/>
</a>
</g>
</g>
<!-- Node18&#45;&gt;Node8 -->
<g id="edge31_Node000018_Node000008" class="edge">
<title>Node18&#45;&gt;Node8</title>
<g id="a_edge31_Node000018_Node000008"><a xlink:title=" ">
<path fill="none" stroke="#63b8ff" d="M1313.1,-354.65C1188.1,-364.65 973.32,-381.83 860.02,-390.89"/>
<polygon fill="#63b8ff" stroke="#63b8ff" points="1313.74,-358.11 1323.42,-353.82 1313.18,-351.13 1313.74,-358.11"/>
</a>
</g>
</g>
<!-- Node18&#45;&gt;Node10 -->
<g id="edge32_Node000018_Node000010" class="edge">
<title>Node18&#45;&gt;Node10</title>
<g id="a_edge32_Node000018_Node000010"><a xlink:title=" ">
<path fill="none" stroke="#63b8ff" d="M1324.13,-326.28C1322.71,-325.21 1321.33,-324.08 1320,-322.89 1287.26,-293.64 1316.92,-259.95 1284,-230.89 1276.89,-224.62 1268.37,-219.94 1259.4,-216.46"/>
<polygon fill="#63b8ff" stroke="#63b8ff" points="1322.43,-329.35 1332.73,-331.84 1326.24,-323.47 1322.43,-329.35"/>
</a>
</g>
</g>
<!-- Node18&#45;&gt;Node12 -->
<g id="edge33_Node000018_Node000012" class="edge">
<title>Node18&#45;&gt;Node12</title>
<g id="a_edge33_Node000018_Node000012"><a xlink:title=" ">
<path fill="none" stroke="#63b8ff" d="M1326.45,-327.07C1324.23,-325.77 1322.07,-324.38 1320,-322.89 1296.55,-306.09 1307.73,-285.29 1284,-268.89 1212.33,-219.38 1176.95,-248.14 1093,-224.89 1063.12,-216.62 1029.4,-205.44 1006.44,-197.55"/>
<polygon fill="#63b8ff" stroke="#63b8ff" points="1324.84,-330.18 1335.32,-331.7 1328.07,-323.97 1324.84,-330.18"/>
</a>
</g>
</g>
<!-- Node18&#45;&gt;Node13 -->
<g id="edge29_Node000018_Node000013" class="edge">
<title>Node18&#45;&gt;Node13</title>
<g id="a_edge29_Node000018_Node000013"><a xlink:title=" ">
<path fill="none" stroke="#63b8ff" d="M1313.38,-334.06C1187.2,-317.31 969.19,-288.35 856.72,-273.42"/>
<polygon fill="#63b8ff" stroke="#63b8ff" points="1313.05,-337.55 1323.42,-335.4 1313.97,-330.61 1313.05,-337.55"/>
</a>
</g>
</g>
<!-- Node18&#45;&gt;Node17 -->
<g id="edge34_Node000018_Node000017" class="edge">
<title>Node18&#45;&gt;Node17</title>
<g id="a_edge34_Node000018_Node000017"><a xlink:title=" ">
<path fill="none" stroke="#63b8ff" d="M1322.99,-325.68C1321.96,-324.79 1320.96,-323.86 1320,-322.89 1276.09,-278.98 1321.3,-237.54 1284,-187.89 1266.85,-165.07 1237.65,-149.5 1216.24,-140.48"/>
<polygon fill="#63b8ff" stroke="#63b8ff" points="1321.29,-328.77 1331.44,-331.83 1325.41,-323.11 1321.29,-328.77"/>
</a>
</g>
</g>
<!-- Node19&#45;&gt;Node4 -->
<g id="edge36_Node000019_Node000004" class="edge">
<title>Node19&#45;&gt;Node4</title>
<g id="a_edge36_Node000019_Node000004"><a xlink:title=" ">
<path fill="none" stroke="#63b8ff" d="M1331.97,-553.89C1171.59,-556.8 793.69,-557.51 481,-510.89 446.6,-505.76 408.07,-495.21 382.26,-487.41"/>
<polygon fill="#63b8ff" stroke="#63b8ff" points="1332.29,-557.38 1342.22,-553.7 1332.16,-550.39 1332.29,-557.38"/>
</a>
</g>
</g>
<!-- Node20&#45;&gt;Node17 -->
<g id="edge53_Node000020_Node000017" class="edge">
<title>Node20&#45;&gt;Node17</title>
<g id="a_edge53_Node000020_Node000017"><a xlink:title=" ">
<path fill="none" stroke="#63b8ff" d="M1527.55,-108.46C1450.09,-113.6 1343.67,-120.66 1271.06,-125.48"/>
<polygon fill="#63b8ff" stroke="#63b8ff" points="1528.06,-111.93 1537.8,-107.78 1527.59,-104.95 1528.06,-111.93"/>
</a>
</g>
</g>
</g>
</svg>
