<?xml version="1.0" encoding="UTF-8" standalone="no"?>
<!DOCTYPE svg PUBLIC "-//W3C//DTD SVG 1.1//EN"
 "http://www.w3.org/Graphics/SVG/1.1/DTD/svg11.dtd">
<!-- Generated by graphviz version 2.43.0 (0)
 -->
<!-- Title: ConsoleRenderer::resetColor Pages: 1 -->
<svg width="1854pt" height="182pt"
 viewBox="0.00 0.00 1854.00 181.75" xmlns="http://www.w3.org/2000/svg" xmlns:xlink="http://www.w3.org/1999/xlink">
<g id="graph0" class="graph" transform="scale(1 1) rotate(0) translate(4 177.75)">
<title>ConsoleRenderer::resetColor</title>
<!-- Node1 -->
<g id="Node000001" class="node">
<title>Node1</title>
<g id="a_Node000001"><a xlink:title="Resets terminal color to default.">
<polygon fill="#999999" stroke="#666666" points="1846,-81 1690,-81 1690,-62 1846,-62 1846,-81"/>
<text text-anchor="middle" x="1768" y="-69" font-family="Helvetica,sans-Serif" font-size="10.00">ConsoleRenderer::resetColor</text>
</a>
</g>
</g>
<!-- Node2 -->
<g id="Node000002" class="node">
<title>Node2</title>
<g id="a_Node000002"><a xlink:href="classConsoleRenderer.html#ab6e419a1d0f420decceba8e545890318" target="_top" xlink:title="Draws map preview for selection screen.">
<polygon fill="white" stroke="#666666" points="1653,-133.5 1502,-133.5 1502,-103.5 1653,-103.5 1653,-133.5"/>
<text text-anchor="start" x="1510" y="-121.5" font-family="Helvetica,sans-Serif" font-size="10.00">ConsoleRenderer::drawMap</text>
<text text-anchor="middle" x="1577.5" y="-110.5" font-family="Helvetica,sans-Serif" font-size="10.00">Preview</text>
</a>
</g>
</g>
<!-- Node1&#45;&gt;Node2 -->
<g id="edge1_Node000001_Node000002" class="edge">
<title>Node1&#45;&gt;Node2</title>
<g id="a_edge1_Node000001_Node000002"><a xlink:title=" ">
<path fill="none" stroke="#63b8ff" d="M1719.11,-83.44C1694.72,-89.52 1664.81,-96.98 1638.86,-103.45"/>
<polygon fill="#63b8ff" stroke="#63b8ff" points="1720,-86.83 1728.85,-81.01 1718.3,-80.03 1720,-86.83"/>
</a>
</g>
</g>
<!-- Node12 -->
<g id="Node000012" class="node">
<title>Node12</title>
<g id="a_Node000012"><a xlink:href="classConsoleRenderer.html#a216eb9680760729497094ddbebb118e2" target="_top" xlink:title="Draws a single colored pixel/character.">
<polygon fill="white" stroke="#666666" points="1654,-81 1501,-81 1501,-62 1654,-62 1654,-81"/>
<text text-anchor="middle" x="1577.5" y="-69" font-family="Helvetica,sans-Serif" font-size="10.00">ConsoleRenderer::drawPixel</text>
</a>
</g>
</g>
<!-- Node1&#45;&gt;Node12 -->
<g id="edge16_Node000001_Node000012" class="edge">
<title>Node1&#45;&gt;Node12</title>
<g id="a_edge16_Node000001_Node000012"><a xlink:title=" ">
<path fill="none" stroke="#63b8ff" d="M1679.76,-71.5C1671.18,-71.5 1662.52,-71.5 1654.07,-71.5"/>
<polygon fill="#63b8ff" stroke="#63b8ff" points="1679.79,-75 1689.79,-71.5 1679.79,-68 1679.79,-75"/>
</a>
</g>
</g>
<!-- Node13 -->
<g id="Node000013" class="node">
<title>Node13</title>
<g id="a_Node000013"><a xlink:href="classConsoleRenderer.html#ab34fa7af4ede79de3951f1d5271d7a27" target="_top" xlink:title="Renders the game world to console.">
<polygon fill="white" stroke="#666666" points="1458,-19 1321,-19 1321,0 1458,0 1458,-19"/>
<text text-anchor="middle" x="1389.5" y="-7" font-family="Helvetica,sans-Serif" font-size="10.00">ConsoleRenderer::render</text>
</a>
</g>
</g>
<!-- Node1&#45;&gt;Node13 -->
<g id="edge17_Node000001_Node000013" class="edge">
<title>Node1&#45;&gt;Node13</title>
<g id="a_edge17_Node000001_Node000013"><a xlink:title=" ">
<path fill="none" stroke="#63b8ff" d="M1700.75,-60.31C1685.4,-57.73 1669.13,-55.01 1654,-52.5 1583.69,-40.85 1502.79,-27.69 1449.38,-19.03"/>
<polygon fill="#63b8ff" stroke="#63b8ff" points="1700.24,-63.77 1710.68,-61.98 1701.4,-56.87 1700.24,-63.77"/>
</a>
</g>
</g>
<!-- Node3 -->
<g id="Node000003" class="node">
<title>Node3</title>
<g id="a_Node000003"><a xlink:href="classConsoleRenderer.html#afd03640670c991dfa8240af639c2f0da" target="_top" xlink:title="Draws map selection screen.">
<polygon fill="white" stroke="#666666" points="1465,-133.5 1314,-133.5 1314,-103.5 1465,-103.5 1465,-133.5"/>
<text text-anchor="start" x="1322" y="-121.5" font-family="Helvetica,sans-Serif" font-size="10.00">ConsoleRenderer::drawMap</text>
<text text-anchor="middle" x="1389.5" y="-110.5" font-family="Helvetica,sans-Serif" font-size="10.00">Selection</text>
</a>
</g>
</g>
<!-- Node2&#45;&gt;Node3 -->
<g id="edge2_Node000002_Node000003" class="edge">
<title>Node2&#45;&gt;Node3</title>
<g id="a_edge2_Node000002_Node000003"><a xlink:title=" ">
<path fill="none" stroke="#63b8ff" d="M1491.89,-118.5C1482.95,-118.5 1473.91,-118.5 1465.1,-118.5"/>
<polygon fill="#63b8ff" stroke="#63b8ff" points="1491.92,-122 1501.92,-118.5 1491.92,-115 1491.92,-122"/>
</a>
</g>
</g>
<!-- Node4 -->
<g id="Node000004" class="node">
<title>Node4</title>
<g id="a_Node000004"><a xlink:href="classGameController.html#a4a9c94fe33cf6c73bb5dfc415d04d309" target="_top" xlink:title="Displays map selection screen.">
<polygon fill="white" stroke="#666666" points="1278,-129 1087,-129 1087,-110 1278,-110 1278,-129"/>
<text text-anchor="middle" x="1182.5" y="-117" font-family="Helvetica,sans-Serif" font-size="10.00">GameController::showMapSelection</text>
</a>
</g>
</g>
<!-- Node3&#45;&gt;Node4 -->
<g id="edge3_Node000003_Node000004" class="edge">
<title>Node3&#45;&gt;Node4</title>
<g id="a_edge3_Node000003_Node000004"><a xlink:title=" ">
<path fill="none" stroke="#63b8ff" d="M1303.77,-118.91C1295.38,-118.95 1286.82,-119 1278.34,-119.04"/>
<polygon fill="#63b8ff" stroke="#63b8ff" points="1303.93,-122.41 1313.91,-118.86 1303.89,-115.41 1303.93,-122.41"/>
</a>
</g>
</g>
<!-- Node5 -->
<g id="Node000005" class="node">
<title>Node5</title>
<g id="a_Node000005"><a xlink:href="classGameController.html#a971b3d8f6296a74f0bebc83b5e79c186" target="_top" xlink:title="Processes a user command.">
<polygon fill="white" stroke="#666666" points="669,-100 481,-100 481,-81 669,-81 669,-100"/>
<text text-anchor="middle" x="575" y="-88" font-family="Helvetica,sans-Serif" font-size="10.00">GameController::processCommand</text>
</a>
</g>
</g>
<!-- Node4&#45;&gt;Node5 -->
<g id="edge4_Node000004_Node000005" class="edge">
<title>Node4&#45;&gt;Node5</title>
<g id="a_edge4_Node000004_Node000005"><a xlink:title=" ">
<path fill="none" stroke="#63b8ff" d="M1135.21,-107.53C1050.12,-87 863.06,-48.73 705,-64.5 673.74,-67.62 638.85,-74.89 613.24,-80.95"/>
<polygon fill="#63b8ff" stroke="#63b8ff" points="1134.53,-110.96 1145.08,-109.94 1136.19,-104.16 1134.53,-110.96"/>
</a>
</g>
</g>
<!-- Node9 -->
<g id="Node000009" class="node">
<title>Node9</title>
<g id="a_Node000009"><a xlink:href="classGameController.html#a9d11b5a6255b7249bddba49df0837cf3" target="_top" xlink:title="Displays and manages the main menu.">
<polygon fill="white" stroke="#666666" points="1051,-130 899,-130 899,-111 1051,-111 1051,-130"/>
<text text-anchor="middle" x="975" y="-118" font-family="Helvetica,sans-Serif" font-size="10.00">GameController::showMenu</text>
</a>
</g>
</g>
<!-- Node4&#45;&gt;Node9 -->
<g id="edge8_Node000004_Node000009" class="edge">
<title>Node4&#45;&gt;Node9</title>
<g id="a_edge8_Node000004_Node000009"><a xlink:title=" ">
<path fill="none" stroke="#63b8ff" d="M1076.72,-113.26C1068.06,-113.31 1059.43,-113.43 1051.06,-113.61"/>
<polygon fill="#63b8ff" stroke="#63b8ff" points="1076.88,-116.76 1086.87,-113.23 1076.86,-109.76 1076.88,-116.76"/>
</a>
</g>
</g>
<!-- Node6 -->
<g id="Node000006" class="node">
<title>Node6</title>
<g id="a_Node000006"><a xlink:href="classGameController.html#af2367e58f03d8a1441c9a574967fd360" target="_top" xlink:title="Processes a single game turn/update cycle.">
<polygon fill="white" stroke="#666666" points="445,-115 258,-115 258,-96 445,-96 445,-115"/>
<text text-anchor="middle" x="351.5" y="-103" font-family="Helvetica,sans-Serif" font-size="10.00">GameController::processGameTurn</text>
</a>
</g>
</g>
<!-- Node5&#45;&gt;Node6 -->
<g id="edge5_Node000005_Node000006" class="edge">
<title>Node5&#45;&gt;Node6</title>
<g id="a_edge5_Node000005_Node000006"><a xlink:title=" ">
<path fill="none" stroke="#63b8ff" d="M470.5,-97.51C462.1,-98.08 453.65,-98.65 445.33,-99.21"/>
<polygon fill="#63b8ff" stroke="#63b8ff" points="470.97,-100.99 480.71,-96.82 470.49,-94 470.97,-100.99"/>
</a>
</g>
</g>
<!-- Node7 -->
<g id="Node000007" class="node">
<title>Node7</title>
<g id="a_Node000007"><a xlink:href="classGameController.html#ac958989c8f7f08488546930e5fcb0d82" target="_top" xlink:title="Starts and runs the main game loop.">
<polygon fill="white" stroke="#666666" points="222,-154 77,-154 77,-135 222,-135 222,-154"/>
<text text-anchor="middle" x="149.5" y="-142" font-family="Helvetica,sans-Serif" font-size="10.00">GameController::runGame</text>
</a>
</g>
</g>
<!-- Node6&#45;&gt;Node7 -->
<g id="edge6_Node000006_Node000007" class="edge">
<title>Node6&#45;&gt;Node7</title>
<g id="a_edge6_Node000006_Node000007"><a xlink:title=" ">
<path fill="none" stroke="#63b8ff" d="M291.45,-117.01C262.1,-122.74 227.07,-129.57 199.27,-134.99"/>
<polygon fill="#63b8ff" stroke="#63b8ff" points="292.43,-120.39 301.57,-115.04 291.09,-113.52 292.43,-120.39"/>
</a>
</g>
</g>
<!-- Node8 -->
<g id="Node000008" class="node">
<title>Node8</title>
<g id="a_Node000008"><a xlink:href="main_8cpp.html#ae66f6b31b5ad750f1fe042a706a4e3d4" target="_top" xlink:title="Main function that serves as the application entry point.">
<polygon fill="white" stroke="#666666" points="41,-154 0,-154 0,-135 41,-135 41,-154"/>
<text text-anchor="middle" x="20.5" y="-142" font-family="Helvetica,sans-Serif" font-size="10.00">main</text>
</a>
</g>
</g>
<!-- Node7&#45;&gt;Node8 -->
<g id="edge7_Node000007_Node000008" class="edge">
<title>Node7&#45;&gt;Node8</title>
<g id="a_edge7_Node000007_Node000008"><a xlink:title=" ">
<path fill="none" stroke="#63b8ff" d="M66.79,-144.5C57.31,-144.5 48.43,-144.5 41.08,-144.5"/>
<polygon fill="#63b8ff" stroke="#63b8ff" points="66.83,-148 76.83,-144.5 66.83,-141 66.83,-148"/>
</a>
</g>
</g>
<!-- Node9&#45;&gt;Node4 -->
<g id="edge15_Node000009_Node000004" class="edge">
<title>Node9&#45;&gt;Node4</title>
<g id="a_edge15_Node000009_Node000004"><a xlink:title=" ">
<path fill="none" stroke="#63b8ff" d="M1061.27,-126.75C1069.72,-126.79 1078.33,-126.77 1086.87,-126.69"/>
<polygon fill="#63b8ff" stroke="#63b8ff" points="1061.09,-123.25 1051.06,-126.66 1061.03,-130.25 1061.09,-123.25"/>
</a>
</g>
</g>
<!-- Node9&#45;&gt;Node5 -->
<g id="edge11_Node000009_Node000005" class="edge">
<title>Node9&#45;&gt;Node5</title>
<g id="a_edge11_Node000009_Node000005"><a xlink:title=" ">
<path fill="none" stroke="#63b8ff" d="M888.86,-115.37C835.93,-112.04 766.47,-107.42 705,-102.5 693.45,-101.58 681.33,-100.54 669.33,-99.47"/>
<polygon fill="#63b8ff" stroke="#63b8ff" points="888.68,-118.87 898.88,-116 889.12,-111.88 888.68,-118.87"/>
</a>
</g>
</g>
<!-- Node9&#45;&gt;Node7 -->
<g id="edge12_Node000009_Node000007" class="edge">
<title>Node9&#45;&gt;Node7</title>
<g id="a_edge12_Node000009_Node000007"><a xlink:title=" ">
<path fill="none" stroke="#63b8ff" d="M936.44,-133.06C915.14,-139.66 887.86,-147.24 863,-151.5 631.49,-191.15 351.44,-168.13 222.22,-153.6"/>
<polygon fill="#63b8ff" stroke="#63b8ff" points="937.6,-136.37 946.08,-130.02 935.49,-129.7 937.6,-136.37"/>
</a>
</g>
</g>
<!-- Node10 -->
<g id="Node000010" class="node">
<title>Node10</title>
<g id="a_Node000010"><a xlink:href="classGameController.html#a637ea4e72ed2be4a2884b30160b3e8ab" target="_top" xlink:title="Pauses the game and displays pause screen.">
<polygon fill="white" stroke="#666666" points="863,-93 705,-93 705,-74 863,-74 863,-93"/>
<text text-anchor="middle" x="784" y="-81" font-family="Helvetica,sans-Serif" font-size="10.00">GameController::pauseGame</text>
</a>
</g>
</g>
<!-- Node9&#45;&gt;Node10 -->
<g id="edge9_Node000009_Node000010" class="edge">
<title>Node9&#45;&gt;Node10</title>
<g id="a_edge9_Node000009_Node000010"><a xlink:title=" ">
<path fill="none" stroke="#63b8ff" d="M915.17,-108.98C889.06,-103.87 858.67,-97.92 833.84,-93.06"/>
<polygon fill="#63b8ff" stroke="#63b8ff" points="914.84,-112.49 925.33,-110.97 916.19,-105.62 914.84,-112.49"/>
</a>
</g>
</g>
<!-- Node11 -->
<g id="Node000011" class="node">
<title>Node11</title>
<g id="a_Node000011"><a xlink:href="classGameController.html#a85bcf4ecfd197aad278e116215a3717b" target="_top" xlink:title="Displays level completion screen.">
<polygon fill="white" stroke="#666666" points="651,-155.5 499,-155.5 499,-125.5 651,-125.5 651,-155.5"/>
<text text-anchor="start" x="507" y="-143.5" font-family="Helvetica,sans-Serif" font-size="10.00">GameController::showLevel</text>
<text text-anchor="middle" x="575" y="-132.5" font-family="Helvetica,sans-Serif" font-size="10.00">CompleteScreen</text>
</a>
</g>
</g>
<!-- Node9&#45;&gt;Node11 -->
<g id="edge13_Node000009_Node000011" class="edge">
<title>Node9&#45;&gt;Node11</title>
<g id="a_edge13_Node000009_Node000011"><a xlink:title=" ">
<path fill="none" stroke="#63b8ff" d="M903.04,-131.35C889.76,-133.02 875.98,-134.51 863,-135.5 791.2,-140.96 709.01,-141.85 651.04,-141.59"/>
<polygon fill="#63b8ff" stroke="#63b8ff" points="903.6,-134.8 913.07,-130.04 902.7,-127.86 903.6,-134.8"/>
</a>
</g>
</g>
<!-- Node10&#45;&gt;Node5 -->
<g id="edge10_Node000010_Node000005" class="edge">
<title>Node10&#45;&gt;Node5</title>
<g id="a_edge10_Node000010_Node000005"><a xlink:title=" ">
<path fill="none" stroke="#63b8ff" d="M694.62,-86.49C686.25,-86.77 677.75,-87.06 669.34,-87.34"/>
<polygon fill="#63b8ff" stroke="#63b8ff" points="694.87,-89.98 704.74,-86.15 694.63,-82.99 694.87,-89.98"/>
</a>
</g>
</g>
<!-- Node11&#45;&gt;Node6 -->
<g id="edge14_Node000011_Node000006" class="edge">
<title>Node11&#45;&gt;Node6</title>
<g id="a_edge14_Node000011_Node000006"><a xlink:title=" ">
<path fill="none" stroke="#63b8ff" d="M488.74,-127.03C463.45,-123.03 436.29,-118.74 412.92,-115.05"/>
<polygon fill="#63b8ff" stroke="#63b8ff" points="488.28,-130.5 498.7,-128.6 489.37,-123.58 488.28,-130.5"/>
</a>
</g>
</g>
<!-- Node13&#45;&gt;Node6 -->
<g id="edge18_Node000013_Node000006" class="edge">
<title>Node13&#45;&gt;Node6</title>
<g id="a_edge18_Node000013_Node000006"><a xlink:title=" ">
<path fill="none" stroke="#63b8ff" d="M1310.88,-8.9C1227.97,-8.31 1092.7,-7.5 976,-7.5 976,-7.5 976,-7.5 783,-7.5 624.71,-7.5 441.67,-71.27 376.81,-95.92"/>
<polygon fill="#63b8ff" stroke="#63b8ff" points="1310.95,-12.4 1320.98,-8.97 1311,-5.4 1310.95,-12.4"/>
</a>
</g>
</g>
</g>
</svg>
