<?xml version="1.0" encoding="UTF-8" standalone="no"?>
<!DOCTYPE svg PUBLIC "-//W3C//DTD SVG 1.1//EN"
 "http://www.w3.org/Graphics/SVG/1.1/DTD/svg11.dtd">
<!-- Generated by graphviz version 2.43.0 (0)
 -->
<!-- Title: GameObject::setHealth Pages: 1 -->
<svg width="2125pt" height="199pt"
 viewBox="0.00 0.00 2125.00 199.00" xmlns="http://www.w3.org/2000/svg" xmlns:xlink="http://www.w3.org/1999/xlink">
<g id="graph0" class="graph" transform="scale(1 1) rotate(0) translate(4 195)">
<title>GameObject::setHealth</title>
<!-- Node1 -->
<g id="Node000001" class="node">
<title>Node1</title>
<g id="a_Node000001"><a xlink:title="Sets new health value for the object.">
<polygon fill="#999999" stroke="#666666" points="2117,-95 1986,-95 1986,-76 2117,-76 2117,-95"/>
<text text-anchor="middle" x="2051.5" y="-83" font-family="Helvetica,sans-Serif" font-size="10.00">GameObject::setHealth</text>
</a>
</g>
</g>
<!-- Node2 -->
<g id="Node000002" class="node">
<title>Node2</title>
<g id="a_Node000002"><a xlink:href="classGameWorld.html#a1ada9d3ebdf482a0fd3abcc1fe41c6de" target="_top" xlink:title="Checks win/lose conditions.">
<polygon fill="white" stroke="#666666" points="1950,-176 1761,-176 1761,-157 1950,-157 1950,-176"/>
<text text-anchor="middle" x="1855.5" y="-164" font-family="Helvetica,sans-Serif" font-size="10.00">GameWorld::checkGameConditions</text>
</a>
</g>
</g>
<!-- Node1&#45;&gt;Node2 -->
<g id="edge1_Node000001_Node000002" class="edge">
<title>Node1&#45;&gt;Node2</title>
<g id="a_edge1_Node000001_Node000002"><a xlink:title=" ">
<path fill="none" stroke="#63b8ff" d="M2027.85,-100.66C2008.04,-113.35 1978.1,-131.16 1950,-142.5 1935.39,-148.4 1918.9,-153.2 1903.89,-156.91"/>
<polygon fill="#63b8ff" stroke="#63b8ff" points="2029.99,-103.45 2036.46,-95.06 2026.17,-97.58 2029.99,-103.45"/>
</a>
</g>
</g>
<!-- Node7 -->
<g id="Node000007" class="node">
<title>Node7</title>
<g id="a_Node000007"><a xlink:href="classMapManager.html#ac1472dad9f9391e45fafadef9c30c1ab" target="_top" xlink:title="Creates game world from map layout.">
<polygon fill="white" stroke="#666666" points="1725,-95 1534,-95 1534,-76 1725,-76 1725,-95"/>
<text text-anchor="middle" x="1629.5" y="-83" font-family="Helvetica,sans-Serif" font-size="10.00">MapManager::createWorldFromMap</text>
</a>
</g>
</g>
<!-- Node1&#45;&gt;Node7 -->
<g id="edge6_Node000001_Node000007" class="edge">
<title>Node1&#45;&gt;Node7</title>
<g id="a_edge6_Node000001_Node000007"><a xlink:title=" ">
<path fill="none" stroke="#63b8ff" d="M1975.74,-85.5C1905.82,-85.5 1801.08,-85.5 1725.32,-85.5"/>
<polygon fill="#63b8ff" stroke="#63b8ff" points="1975.8,-89 1985.8,-85.5 1975.8,-82 1975.8,-89"/>
</a>
</g>
</g>
<!-- Node8 -->
<g id="Node000008" class="node">
<title>Node8</title>
<g id="a_Node000008"><a xlink:href="classGameController.html#a09c76a5ae9b8f514163dafe31273f44f" target="_top" xlink:title="Loads the currently selected map.">
<polygon fill="white" stroke="#666666" points="1498,-75 1314,-75 1314,-56 1498,-56 1498,-75"/>
<text text-anchor="middle" x="1406" y="-63" font-family="Helvetica,sans-Serif" font-size="10.00">GameController::loadSelectedMap</text>
</a>
</g>
</g>
<!-- Node1&#45;&gt;Node8 -->
<g id="edge22_Node000001_Node000008" class="edge">
<title>Node1&#45;&gt;Node8</title>
<g id="a_edge22_Node000001_Node000008"><a xlink:title=" ">
<path fill="none" stroke="#63b8ff" d="M1975.4,-80.3C1909.45,-75.99 1810.92,-70.14 1725,-67.5 1648.57,-65.15 1561.76,-64.76 1498.18,-64.89"/>
<polygon fill="#63b8ff" stroke="#63b8ff" points="1975.49,-83.81 1985.69,-80.98 1975.95,-76.83 1975.49,-83.81"/>
</a>
</g>
</g>
<!-- Node15 -->
<g id="Node000015" class="node">
<title>Node15</title>
<g id="a_Node000015"><a xlink:href="classEnemyTank.html#af07a4df76315bfd6ce3745c9597b1447" target="_top" xlink:title="Constructs an EnemyTank object.">
<polygon fill="white" stroke="#666666" points="1923,-19 1788,-19 1788,0 1923,0 1923,-19"/>
<text text-anchor="middle" x="1855.5" y="-7" font-family="Helvetica,sans-Serif" font-size="10.00">EnemyTank::EnemyTank</text>
</a>
</g>
</g>
<!-- Node1&#45;&gt;Node15 -->
<g id="edge21_Node000001_Node000015" class="edge">
<title>Node1&#45;&gt;Node15</title>
<g id="a_edge21_Node000001_Node000015"><a xlink:title=" ">
<path fill="none" stroke="#63b8ff" d="M2025.93,-70.79C2006.02,-59.36 1976.94,-43.77 1950,-33.5 1934.81,-27.71 1917.71,-22.86 1902.32,-19.07"/>
<polygon fill="#63b8ff" stroke="#63b8ff" points="2024.26,-73.86 2034.66,-75.87 2027.78,-67.81 2024.26,-73.86"/>
</a>
</g>
</g>
<!-- Node16 -->
<g id="Node000016" class="node">
<title>Node16</title>
<g id="a_Node000016"><a xlink:href="classPlayerTank.html#a59e06eac615955573cfa6842e37f41ad" target="_top" xlink:title="Resets player tank to initial state.">
<polygon fill="white" stroke="#666666" points="1906,-133 1805,-133 1805,-114 1906,-114 1906,-133"/>
<text text-anchor="middle" x="1855.5" y="-121" font-family="Helvetica,sans-Serif" font-size="10.00">PlayerTank::reset</text>
</a>
</g>
</g>
<!-- Node1&#45;&gt;Node16 -->
<g id="edge23_Node000001_Node000016" class="edge">
<title>Node1&#45;&gt;Node16</title>
<g id="a_edge23_Node000001_Node000016"><a xlink:title=" ">
<path fill="none" stroke="#63b8ff" d="M1991.59,-97.04C1963.92,-102.46 1931.34,-108.84 1905.1,-113.98"/>
<polygon fill="#63b8ff" stroke="#63b8ff" points="1992.4,-100.45 2001.55,-95.09 1991.06,-93.58 1992.4,-100.45"/>
</a>
</g>
</g>
<!-- Node3 -->
<g id="Node000003" class="node">
<title>Node3</title>
<g id="a_Node000003"><a xlink:href="classGameWorld.html#ab645acf30cb0a4640a8fb5b88c5c7c94" target="_top" xlink:title="Updates all game objects and logic.">
<polygon fill="white" stroke="#666666" points="1462.5,-191 1349.5,-191 1349.5,-172 1462.5,-172 1462.5,-191"/>
<text text-anchor="middle" x="1406" y="-179" font-family="Helvetica,sans-Serif" font-size="10.00">GameWorld::update</text>
</a>
</g>
</g>
<!-- Node2&#45;&gt;Node3 -->
<g id="edge2_Node000002_Node000003" class="edge">
<title>Node2&#45;&gt;Node3</title>
<g id="a_edge2_Node000002_Node000003"><a xlink:title=" ">
<path fill="none" stroke="#63b8ff" d="M1750.75,-169.98C1660.95,-172.99 1534.52,-177.23 1462.67,-179.63"/>
<polygon fill="#63b8ff" stroke="#63b8ff" points="1751.08,-173.47 1760.96,-169.64 1750.85,-166.47 1751.08,-173.47"/>
</a>
</g>
</g>
<!-- Node4 -->
<g id="Node000004" class="node">
<title>Node4</title>
<g id="a_Node000004"><a xlink:href="classGameController.html#af2367e58f03d8a1441c9a574967fd360" target="_top" xlink:title="Processes a single game turn/update cycle.">
<polygon fill="white" stroke="#666666" points="445,-118 258,-118 258,-99 445,-99 445,-118"/>
<text text-anchor="middle" x="351.5" y="-106" font-family="Helvetica,sans-Serif" font-size="10.00">GameController::processGameTurn</text>
</a>
</g>
</g>
<!-- Node3&#45;&gt;Node4 -->
<g id="edge3_Node000003_Node000004" class="edge">
<title>Node3&#45;&gt;Node4</title>
<g id="a_edge3_Node000003_Node000004"><a xlink:title=" ">
<path fill="none" stroke="#63b8ff" d="M1339.29,-181.75C1255.11,-182.04 1104.7,-182.5 976,-182.5 976,-182.5 976,-182.5 783,-182.5 632.47,-182.5 456.55,-138.01 385.12,-118.02"/>
<polygon fill="#63b8ff" stroke="#63b8ff" points="1339.48,-185.25 1349.47,-181.71 1339.45,-178.25 1339.48,-185.25"/>
</a>
</g>
</g>
<!-- Node5 -->
<g id="Node000005" class="node">
<title>Node5</title>
<g id="a_Node000005"><a xlink:href="classGameController.html#ac958989c8f7f08488546930e5fcb0d82" target="_top" xlink:title="Starts and runs the main game loop.">
<polygon fill="white" stroke="#666666" points="222,-30 77,-30 77,-11 222,-11 222,-30"/>
<text text-anchor="middle" x="149.5" y="-18" font-family="Helvetica,sans-Serif" font-size="10.00">GameController::runGame</text>
</a>
</g>
</g>
<!-- Node4&#45;&gt;Node5 -->
<g id="edge4_Node000004_Node000005" class="edge">
<title>Node4&#45;&gt;Node5</title>
<g id="a_edge4_Node000004_Node000005"><a xlink:title=" ">
<path fill="none" stroke="#63b8ff" d="M319.5,-94.86C278.66,-76.89 207.86,-45.74 172.26,-30.07"/>
<polygon fill="#63b8ff" stroke="#63b8ff" points="318.15,-98.09 328.72,-98.91 320.97,-91.68 318.15,-98.09"/>
</a>
</g>
</g>
<!-- Node6 -->
<g id="Node000006" class="node">
<title>Node6</title>
<g id="a_Node000006"><a xlink:href="main_8cpp.html#ae66f6b31b5ad750f1fe042a706a4e3d4" target="_top" xlink:title="Main function that serves as the application entry point.">
<polygon fill="white" stroke="#666666" points="41,-30 0,-30 0,-11 41,-11 41,-30"/>
<text text-anchor="middle" x="20.5" y="-18" font-family="Helvetica,sans-Serif" font-size="10.00">main</text>
</a>
</g>
</g>
<!-- Node5&#45;&gt;Node6 -->
<g id="edge5_Node000005_Node000006" class="edge">
<title>Node5&#45;&gt;Node6</title>
<g id="a_edge5_Node000005_Node000006"><a xlink:title=" ">
<path fill="none" stroke="#63b8ff" d="M66.79,-20.5C57.31,-20.5 48.43,-20.5 41.08,-20.5"/>
<polygon fill="#63b8ff" stroke="#63b8ff" points="66.83,-24 76.83,-20.5 66.83,-17 66.83,-24"/>
</a>
</g>
</g>
<!-- Node7&#45;&gt;Node8 -->
<g id="edge7_Node000007_Node000008" class="edge">
<title>Node7&#45;&gt;Node8</title>
<g id="a_edge7_Node000007_Node000008"><a xlink:title=" ">
<path fill="none" stroke="#63b8ff" d="M1523.85,-76.05C1515.25,-75.27 1506.59,-74.49 1498.1,-73.73"/>
<polygon fill="#63b8ff" stroke="#63b8ff" points="1523.65,-79.55 1533.92,-76.96 1524.28,-72.58 1523.65,-79.55"/>
</a>
</g>
</g>
<!-- Node9 -->
<g id="Node000009" class="node">
<title>Node9</title>
<g id="a_Node000009"><a xlink:href="classGameController.html#a4086fc466d91f45c41b2bc5df06af77a" target="_top" xlink:title="Loads the next game level.">
<polygon fill="white" stroke="#666666" points="1254.5,-154.5 1110.5,-154.5 1110.5,-124.5 1254.5,-124.5 1254.5,-154.5"/>
<text text-anchor="start" x="1118.5" y="-142.5" font-family="Helvetica,sans-Serif" font-size="10.00">GameController::loadNext</text>
<text text-anchor="middle" x="1182.5" y="-131.5" font-family="Helvetica,sans-Serif" font-size="10.00">Level</text>
</a>
</g>
</g>
<!-- Node8&#45;&gt;Node9 -->
<g id="edge8_Node000008_Node000009" class="edge">
<title>Node8&#45;&gt;Node9</title>
<g id="a_edge8_Node000008_Node000009"><a xlink:title=" ">
<path fill="none" stroke="#63b8ff" d="M1366.74,-78.28C1328.42,-91.08 1269.43,-110.79 1228.79,-124.37"/>
<polygon fill="#63b8ff" stroke="#63b8ff" points="1368.12,-81.51 1376.5,-75.02 1365.9,-74.87 1368.12,-81.51"/>
</a>
</g>
</g>
<!-- Node11 -->
<g id="Node000011" class="node">
<title>Node11</title>
<g id="a_Node000011"><a xlink:href="classGameController.html#a4a9c94fe33cf6c73bb5dfc415d04d309" target="_top" xlink:title="Displays map selection screen.">
<polygon fill="white" stroke="#666666" points="1278,-75 1087,-75 1087,-56 1278,-56 1278,-75"/>
<text text-anchor="middle" x="1182.5" y="-63" font-family="Helvetica,sans-Serif" font-size="10.00">GameController::showMapSelection</text>
</a>
</g>
</g>
<!-- Node8&#45;&gt;Node11 -->
<g id="edge11_Node000008_Node000011" class="edge">
<title>Node8&#45;&gt;Node11</title>
<g id="a_edge11_Node000008_Node000011"><a xlink:title=" ">
<path fill="none" stroke="#63b8ff" d="M1303.92,-65.5C1295.34,-65.5 1286.68,-65.5 1278.14,-65.5"/>
<polygon fill="#63b8ff" stroke="#63b8ff" points="1303.95,-69 1313.95,-65.5 1303.95,-62 1303.95,-69"/>
</a>
</g>
</g>
<!-- Node10 -->
<g id="Node000010" class="node">
<title>Node10</title>
<g id="a_Node000010"><a xlink:href="classGameController.html#a85bcf4ecfd197aad278e116215a3717b" target="_top" xlink:title="Displays level completion screen.">
<polygon fill="white" stroke="#666666" points="860,-154.5 708,-154.5 708,-124.5 860,-124.5 860,-154.5"/>
<text text-anchor="start" x="716" y="-142.5" font-family="Helvetica,sans-Serif" font-size="10.00">GameController::showLevel</text>
<text text-anchor="middle" x="784" y="-131.5" font-family="Helvetica,sans-Serif" font-size="10.00">CompleteScreen</text>
</a>
</g>
</g>
<!-- Node9&#45;&gt;Node10 -->
<g id="edge9_Node000009_Node000010" class="edge">
<title>Node9&#45;&gt;Node10</title>
<g id="a_edge9_Node000009_Node000010"><a xlink:title=" ">
<path fill="none" stroke="#63b8ff" d="M1100,-139.5C1029.58,-139.5 928.65,-139.5 860.15,-139.5"/>
<polygon fill="#63b8ff" stroke="#63b8ff" points="1100.16,-143 1110.16,-139.5 1100.16,-136 1100.16,-143"/>
</a>
</g>
</g>
<!-- Node10&#45;&gt;Node4 -->
<g id="edge10_Node000010_Node000004" class="edge">
<title>Node10&#45;&gt;Node4</title>
<g id="a_edge10_Node000010_Node000004"><a xlink:title=" ">
<path fill="none" stroke="#63b8ff" d="M697.45,-133.34C624.55,-128.09 520.01,-120.56 445.15,-115.17"/>
<polygon fill="#63b8ff" stroke="#63b8ff" points="697.29,-136.84 707.52,-134.06 697.8,-129.86 697.29,-136.84"/>
</a>
</g>
</g>
<!-- Node12 -->
<g id="Node000012" class="node">
<title>Node12</title>
<g id="a_Node000012"><a xlink:href="classGameController.html#a971b3d8f6296a74f0bebc83b5e79c186" target="_top" xlink:title="Processes a user command.">
<polygon fill="white" stroke="#666666" points="669,-78 481,-78 481,-59 669,-59 669,-78"/>
<text text-anchor="middle" x="575" y="-66" font-family="Helvetica,sans-Serif" font-size="10.00">GameController::processCommand</text>
</a>
</g>
</g>
<!-- Node11&#45;&gt;Node12 -->
<g id="edge12_Node000011_Node000012" class="edge">
<title>Node11&#45;&gt;Node12</title>
<g id="a_edge12_Node000011_Node000012"><a xlink:title=" ">
<path fill="none" stroke="#63b8ff" d="M1111.76,-54.52C1018.74,-41.51 849.05,-23.51 705,-39.5 671.92,-43.17 634.93,-51.99 609.07,-58.94"/>
<polygon fill="#63b8ff" stroke="#63b8ff" points="1111.5,-58.02 1121.89,-55.96 1112.49,-51.09 1111.5,-58.02"/>
</a>
</g>
</g>
<!-- Node13 -->
<g id="Node000013" class="node">
<title>Node13</title>
<g id="a_Node000013"><a xlink:href="classGameController.html#a9d11b5a6255b7249bddba49df0837cf3" target="_top" xlink:title="Displays and manages the main menu.">
<polygon fill="white" stroke="#666666" points="1051,-75 899,-75 899,-56 1051,-56 1051,-75"/>
<text text-anchor="middle" x="975" y="-63" font-family="Helvetica,sans-Serif" font-size="10.00">GameController::showMenu</text>
</a>
</g>
</g>
<!-- Node11&#45;&gt;Node13 -->
<g id="edge14_Node000011_Node000013" class="edge">
<title>Node11&#45;&gt;Node13</title>
<g id="a_edge14_Node000011_Node000013"><a xlink:title=" ">
<path fill="none" stroke="#63b8ff" d="M1076.72,-58.75C1068.06,-58.76 1059.43,-58.84 1051.06,-58.97"/>
<polygon fill="#63b8ff" stroke="#63b8ff" points="1076.86,-62.25 1086.87,-58.77 1076.88,-55.25 1076.86,-62.25"/>
</a>
</g>
</g>
<!-- Node12&#45;&gt;Node4 -->
<g id="edge13_Node000012_Node000004" class="edge">
<title>Node12&#45;&gt;Node4</title>
<g id="a_edge13_Node000012_Node000004"><a xlink:title=" ">
<path fill="none" stroke="#63b8ff" d="M511.1,-79.86C477.66,-85.9 437.02,-93.24 405.25,-98.97"/>
<polygon fill="#63b8ff" stroke="#63b8ff" points="512.01,-83.25 521.23,-78.03 510.76,-76.36 512.01,-83.25"/>
</a>
</g>
</g>
<!-- Node13&#45;&gt;Node5 -->
<g id="edge18_Node000013_Node000005" class="edge">
<title>Node13&#45;&gt;Node5</title>
<g id="a_edge18_Node000013_Node000005"><a xlink:title=" ">
<path fill="none" stroke="#63b8ff" d="M931.61,-53.43C911.07,-48.14 885.94,-42.46 863,-39.5 630.13,-9.44 351.03,-13.5 222.17,-17.62"/>
<polygon fill="#63b8ff" stroke="#63b8ff" points="930.73,-56.82 941.29,-55.99 932.52,-50.05 930.73,-56.82"/>
</a>
</g>
</g>
<!-- Node13&#45;&gt;Node10 -->
<g id="edge19_Node000013_Node000010" class="edge">
<title>Node13&#45;&gt;Node10</title>
<g id="a_edge19_Node000013_Node000010"><a xlink:title=" ">
<path fill="none" stroke="#63b8ff" d="M941.86,-78.82C919.75,-87.91 889.68,-100.14 863,-110.5 851.15,-115.1 838.23,-119.97 826.38,-124.37"/>
<polygon fill="#63b8ff" stroke="#63b8ff" points="943.21,-82.05 951.12,-75 940.54,-75.58 943.21,-82.05"/>
</a>
</g>
</g>
<!-- Node13&#45;&gt;Node11 -->
<g id="edge20_Node000013_Node000011" class="edge">
<title>Node13&#45;&gt;Node11</title>
<g id="a_edge20_Node000013_Node000011"><a xlink:title=" ">
<path fill="none" stroke="#63b8ff" d="M1061.27,-72.16C1069.72,-72.25 1078.33,-72.27 1086.87,-72.23"/>
<polygon fill="#63b8ff" stroke="#63b8ff" points="1061.1,-68.66 1051.06,-72.03 1061.01,-75.66 1061.1,-68.66"/>
</a>
</g>
</g>
<!-- Node13&#45;&gt;Node12 -->
<g id="edge17_Node000013_Node000012" class="edge">
<title>Node13&#45;&gt;Node12</title>
<g id="a_edge17_Node000013_Node000012"><a xlink:title=" ">
<path fill="none" stroke="#63b8ff" d="M888.7,-75.66C880.03,-76.41 871.35,-77.05 863,-77.5 792.88,-81.28 775.18,-79.95 705,-77.5 693.45,-77.1 681.32,-76.49 669.32,-75.78"/>
<polygon fill="#63b8ff" stroke="#63b8ff" points="889.22,-79.13 898.86,-74.73 888.58,-72.16 889.22,-79.13"/>
</a>
</g>
</g>
<!-- Node14 -->
<g id="Node000014" class="node">
<title>Node14</title>
<g id="a_Node000014"><a xlink:href="classGameController.html#a637ea4e72ed2be4a2884b30160b3e8ab" target="_top" xlink:title="Pauses the game and displays pause screen.">
<polygon fill="white" stroke="#666666" points="863,-68 705,-68 705,-49 863,-49 863,-68"/>
<text text-anchor="middle" x="784" y="-56" font-family="Helvetica,sans-Serif" font-size="10.00">GameController::pauseGame</text>
</a>
</g>
</g>
<!-- Node13&#45;&gt;Node14 -->
<g id="edge15_Node000013_Node000014" class="edge">
<title>Node13&#45;&gt;Node14</title>
<g id="a_edge15_Node000013_Node000014"><a xlink:title=" ">
<path fill="none" stroke="#63b8ff" d="M888.5,-62.33C880.03,-62.02 871.46,-61.7 863.08,-61.39"/>
<polygon fill="#63b8ff" stroke="#63b8ff" points="888.64,-65.84 898.76,-62.71 888.9,-58.85 888.64,-65.84"/>
</a>
</g>
</g>
<!-- Node14&#45;&gt;Node12 -->
<g id="edge16_Node000014_Node000012" class="edge">
<title>Node14&#45;&gt;Node12</title>
<g id="a_edge16_Node000014_Node000012"><a xlink:title=" ">
<path fill="none" stroke="#63b8ff" d="M694.62,-62.77C686.25,-63.17 677.75,-63.58 669.34,-63.99"/>
<polygon fill="#63b8ff" stroke="#63b8ff" points="694.92,-66.26 704.74,-62.28 694.58,-59.27 694.92,-66.26"/>
</a>
</g>
</g>
<!-- Node17 -->
<g id="Node000017" class="node">
<title>Node17</title>
<g id="a_Node000017"><a xlink:href="classGameWorld.html#a13fd8123f71f48726bfeb233961f88da" target="_top" xlink:title="Loads specified level.">
<polygon fill="white" stroke="#666666" points="1693,-132 1566,-132 1566,-113 1693,-113 1693,-132"/>
<text text-anchor="middle" x="1629.5" y="-120" font-family="Helvetica,sans-Serif" font-size="10.00">GameWorld::loadLevel</text>
</a>
</g>
</g>
<!-- Node16&#45;&gt;Node17 -->
<g id="edge24_Node000016_Node000017" class="edge">
<title>Node16&#45;&gt;Node17</title>
<g id="a_edge24_Node000016_Node000017"><a xlink:title=" ">
<path fill="none" stroke="#63b8ff" d="M1794.47,-123.23C1763.2,-123.09 1724.98,-122.92 1693.31,-122.78"/>
<polygon fill="#63b8ff" stroke="#63b8ff" points="1794.77,-126.73 1804.79,-123.28 1794.8,-119.73 1794.77,-126.73"/>
</a>
</g>
</g>
<!-- Node17&#45;&gt;Node8 -->
<g id="edge26_Node000017_Node000008" class="edge">
<title>Node17&#45;&gt;Node8</title>
<g id="a_edge26_Node000017_Node000008"><a xlink:title=" ">
<path fill="none" stroke="#63b8ff" d="M1558.28,-110.8C1550.04,-108.94 1541.79,-106.84 1534,-104.5 1517.4,-99.52 1514.42,-95.06 1498,-89.5 1481.9,-84.05 1463.87,-79.07 1448.12,-75.07"/>
<polygon fill="#63b8ff" stroke="#63b8ff" points="1557.8,-114.28 1568.31,-112.97 1559.27,-107.44 1557.8,-114.28"/>
</a>
</g>
</g>
<!-- Node17&#45;&gt;Node9 -->
<g id="edge25_Node000017_Node000009" class="edge">
<title>Node17&#45;&gt;Node9</title>
<g id="a_edge25_Node000017_Node000009"><a xlink:title=" ">
<path fill="none" stroke="#63b8ff" d="M1555.56,-125.29C1472.39,-128.46 1337.31,-133.62 1254.82,-136.78"/>
<polygon fill="#63b8ff" stroke="#63b8ff" points="1555.83,-128.78 1565.69,-124.9 1555.56,-121.78 1555.83,-128.78"/>
</a>
</g>
</g>
<!-- Node17&#45;&gt;Node11 -->
<g id="edge27_Node000017_Node000011" class="edge">
<title>Node17&#45;&gt;Node11</title>
<g id="a_edge27_Node000017_Node000011"><a xlink:title=" ">
<path fill="none" stroke="#63b8ff" d="M1555.83,-114.23C1492.04,-106.85 1396.8,-95.53 1314,-84.5 1292.1,-81.58 1268.17,-78.17 1246.85,-75.04"/>
<polygon fill="#63b8ff" stroke="#63b8ff" points="1555.45,-117.71 1565.79,-115.38 1556.26,-110.75 1555.45,-117.71"/>
</a>
</g>
</g>
</g>
</svg>
