<?xml version="1.0" encoding="UTF-8" standalone="no"?>
<!DOCTYPE svg PUBLIC "-//W3C//DTD SVG 1.1//EN"
 "http://www.w3.org/Graphics/SVG/1.1/DTD/svg11.dtd">
<!-- Generated by graphviz version 2.43.0 (0)
 -->
<!-- Title: ConsoleRenderer::drawPauseScreen Pages: 1 -->
<svg width="838pt" height="114pt"
 viewBox="0.00 0.00 838.00 113.50" xmlns="http://www.w3.org/2000/svg" xmlns:xlink="http://www.w3.org/1999/xlink">
<g id="graph0" class="graph" transform="scale(1 1) rotate(0) translate(4 109.5)">
<title>ConsoleRenderer::drawPauseScreen</title>
<!-- Node1 -->
<g id="Node000001" class="node">
<title>Node1</title>
<g id="a_Node000001"><a xlink:title="Draws pause screen.">
<polygon fill="#999999" stroke="#666666" points="158,-73 0,-73 0,-43 158,-43 158,-73"/>
<text text-anchor="start" x="8" y="-61" font-family="Helvetica,sans-Serif" font-size="10.00">ConsoleRenderer::drawPause</text>
<text text-anchor="middle" x="79" y="-50" font-family="Helvetica,sans-Serif" font-size="10.00">Screen</text>
</a>
</g>
</g>
<!-- Node2 -->
<g id="Node000002" class="node">
<title>Node2</title>
<g id="a_Node000002"><a xlink:href="classConsoleRenderer.html#a9576db66ee7dc8d9fdec36f0181b9a12" target="_top" xlink:title="Checks if terminal size meets requirements.">
<polygon fill="white" stroke="#666666" points="391,-105.5 194,-105.5 194,-86.5 391,-86.5 391,-105.5"/>
<text text-anchor="middle" x="292.5" y="-93.5" font-family="Helvetica,sans-Serif" font-size="10.00">ConsoleRenderer::checkTerminalSize</text>
</a>
</g>
</g>
<!-- Node1&#45;&gt;Node2 -->
<g id="edge1_Node000001_Node000002" class="edge">
<title>Node1&#45;&gt;Node2</title>
<g id="a_edge1_Node000001_Node000002"><a xlink:title=" ">
<path fill="none" stroke="#63b8ff" d="M158.15,-72.04C181.32,-76.2 206.38,-80.71 228.46,-84.67"/>
<polygon fill="#63b8ff" stroke="#63b8ff" points="227.91,-88.13 238.38,-86.46 229.15,-81.24 227.91,-88.13"/>
</a>
</g>
</g>
<!-- Node5 -->
<g id="Node000005" class="node">
<title>Node5</title>
<g id="a_Node000005"><a xlink:href="classConsoleRenderer.html#a041e99f6c0427c254b0349b57fbe2a84" target="_top" xlink:title="Clears the terminal screen.">
<polygon fill="white" stroke="#666666" points="609.5,-64.5 446.5,-64.5 446.5,-45.5 609.5,-45.5 609.5,-64.5"/>
<text text-anchor="middle" x="528" y="-52.5" font-family="Helvetica,sans-Serif" font-size="10.00">ConsoleRenderer::clearScreen</text>
</a>
</g>
</g>
<!-- Node1&#45;&gt;Node5 -->
<g id="edge4_Node000001_Node000005" class="edge">
<title>Node1&#45;&gt;Node5</title>
<g id="a_edge4_Node000001_Node000005"><a xlink:title=" ">
<path fill="none" stroke="#63b8ff" d="M158.12,-57.48C235.64,-56.96 354.37,-56.16 436.08,-55.61"/>
<polygon fill="#63b8ff" stroke="#63b8ff" points="436.38,-59.11 446.36,-55.54 436.33,-52.11 436.38,-59.11"/>
</a>
</g>
</g>
<!-- Node7 -->
<g id="Node000007" class="node">
<title>Node7</title>
<g id="a_Node000007"><a xlink:href="classConsoleRenderer.html#af59760cefd8647cf4b6fe34774cac2c1" target="_top" xlink:title="Draws an error message about terminal size.">
<polygon fill="white" stroke="#666666" points="369,-30 216,-30 216,0 369,0 369,-30"/>
<text text-anchor="start" x="224" y="-18" font-family="Helvetica,sans-Serif" font-size="10.00">ConsoleRenderer::drawError</text>
<text text-anchor="middle" x="292.5" y="-7" font-family="Helvetica,sans-Serif" font-size="10.00">Message</text>
</a>
</g>
</g>
<!-- Node1&#45;&gt;Node7 -->
<g id="edge6_Node000001_Node000007" class="edge">
<title>Node1&#45;&gt;Node7</title>
<g id="a_edge6_Node000001_Node000007"><a xlink:title=" ">
<path fill="none" stroke="#63b8ff" d="M153.97,-42.96C171.2,-39.46 189.67,-35.7 207.3,-32.12"/>
<polygon fill="#63b8ff" stroke="#63b8ff" points="208.47,-35.45 217.57,-30.03 207.07,-28.59 208.47,-35.45"/>
</a>
</g>
</g>
<!-- Node3 -->
<g id="Node000003" class="node">
<title>Node3</title>
<g id="a_Node000003"><a xlink:href="classConsoleRenderer.html#aae418386985b5ad1286af9cb8a7726c9" target="_top" xlink:title="Updates terminal size information.">
<polygon fill="white" stroke="#666666" points="629,-105.5 427,-105.5 427,-86.5 629,-86.5 629,-105.5"/>
<text text-anchor="middle" x="528" y="-93.5" font-family="Helvetica,sans-Serif" font-size="10.00">ConsoleRenderer::updateTerminalSize</text>
</a>
</g>
</g>
<!-- Node2&#45;&gt;Node3 -->
<g id="edge2_Node000002_Node000003" class="edge">
<title>Node2&#45;&gt;Node3</title>
<g id="a_edge2_Node000002_Node000003"><a xlink:title=" ">
<path fill="none" stroke="#63b8ff" d="M391.17,-96C399.52,-96 408.01,-96 416.45,-96"/>
<polygon fill="#63b8ff" stroke="#63b8ff" points="416.72,-99.5 426.72,-96 416.72,-92.5 416.72,-99.5"/>
</a>
</g>
</g>
<!-- Node4 -->
<g id="Node000004" class="node">
<title>Node4</title>
<g id="a_Node000004"><a xlink:href="classPlatformUtils.html#a9fb2159f36325087d8c93e7937d6da0b" target="_top" xlink:title="Gets current terminal dimensions.">
<polygon fill="white" stroke="#666666" points="830,-105.5 665,-105.5 665,-86.5 830,-86.5 830,-105.5"/>
<text text-anchor="middle" x="747.5" y="-93.5" font-family="Helvetica,sans-Serif" font-size="10.00">PlatformUtils::getTerminalSize</text>
</a>
</g>
</g>
<!-- Node3&#45;&gt;Node4 -->
<g id="edge3_Node000003_Node000004" class="edge">
<title>Node3&#45;&gt;Node4</title>
<g id="a_edge3_Node000003_Node000004"><a xlink:title=" ">
<path fill="none" stroke="#63b8ff" d="M629.16,-96C637.64,-96 646.19,-96 654.6,-96"/>
<polygon fill="#63b8ff" stroke="#63b8ff" points="654.78,-99.5 664.78,-96 654.78,-92.5 654.78,-99.5"/>
</a>
</g>
</g>
<!-- Node6 -->
<g id="Node000006" class="node">
<title>Node6</title>
<g id="a_Node000006"><a xlink:href="classPlatformUtils.html#acddd420e3f04cd70a8932b5472fce01d" target="_top" xlink:title="Clears the terminal screen.">
<polygon fill="white" stroke="#666666" points="819.5,-64.5 675.5,-64.5 675.5,-45.5 819.5,-45.5 819.5,-64.5"/>
<text text-anchor="middle" x="747.5" y="-52.5" font-family="Helvetica,sans-Serif" font-size="10.00">PlatformUtils::clearScreen</text>
</a>
</g>
</g>
<!-- Node5&#45;&gt;Node6 -->
<g id="edge5_Node000005_Node000006" class="edge">
<title>Node5&#45;&gt;Node6</title>
<g id="a_edge5_Node000005_Node000006"><a xlink:title=" ">
<path fill="none" stroke="#63b8ff" d="M609.68,-55C627.75,-55 646.94,-55 665.04,-55"/>
<polygon fill="#63b8ff" stroke="#63b8ff" points="665.26,-58.5 675.26,-55 665.26,-51.5 665.26,-58.5"/>
</a>
</g>
</g>
<!-- Node7&#45;&gt;Node5 -->
<g id="edge7_Node000007_Node000005" class="edge">
<title>Node7&#45;&gt;Node5</title>
<g id="a_edge7_Node000007_Node000005"><a xlink:title=" ">
<path fill="none" stroke="#63b8ff" d="M369.31,-27.99C399.09,-33.09 432.94,-38.89 461.62,-43.8"/>
<polygon fill="#63b8ff" stroke="#63b8ff" points="461.09,-47.26 471.54,-45.5 462.27,-40.36 461.09,-47.26"/>
</a>
</g>
</g>
<!-- Node8 -->
<g id="Node000008" class="node">
<title>Node8</title>
<g id="a_Node000008"><a xlink:href="classConsoleRenderer.html#a71e694cb8e3ecdd88b44a78b339a3963" target="_top" xlink:title="Draws centered text within specified width.">
<polygon fill="white" stroke="#666666" points="625,-24.5 431,-24.5 431,-5.5 625,-5.5 625,-24.5"/>
<text text-anchor="middle" x="528" y="-12.5" font-family="Helvetica,sans-Serif" font-size="10.00">ConsoleRenderer::drawCenteredText</text>
</a>
</g>
</g>
<!-- Node7&#45;&gt;Node8 -->
<g id="edge8_Node000007_Node000008" class="edge">
<title>Node7&#45;&gt;Node8</title>
<g id="a_edge8_Node000007_Node000008"><a xlink:title=" ">
<path fill="none" stroke="#63b8ff" d="M369.31,-15C385.67,-15 403.27,-15 420.56,-15"/>
<polygon fill="#63b8ff" stroke="#63b8ff" points="420.69,-18.5 430.69,-15 420.69,-11.5 420.69,-18.5"/>
</a>
</g>
</g>
</g>
</svg>
