<?xml version="1.0" encoding="UTF-8" standalone="no"?>
<!DOCTYPE svg PUBLIC "-//W3C//DTD SVG 1.1//EN"
 "http://www.w3.org/Graphics/SVG/1.1/DTD/svg11.dtd">
<!-- Generated by graphviz version 2.43.0 (0)
 -->
<!-- Title: EnemyTank::defensiveBehavior Pages: 1 -->
<svg width="960pt" height="478pt"
 viewBox="0.00 0.00 960.00 477.85" xmlns="http://www.w3.org/2000/svg" xmlns:xlink="http://www.w3.org/1999/xlink">
<g id="graph0" class="graph" transform="scale(1 1) rotate(0) translate(4 473.85)">
<title>EnemyTank::defensiveBehavior</title>
<!-- Node1 -->
<g id="Node000001" class="node">
<title>Node1</title>
<g id="a_Node000001"><a xlink:title="Executes defensive behavior.">
<polygon fill="#999999" stroke="#666666" points="170,-295 0,-295 0,-276 170,-276 170,-295"/>
<text text-anchor="middle" x="85" y="-283" font-family="Helvetica,sans-Serif" font-size="10.00">EnemyTank::defensiveBehavior</text>
</a>
</g>
</g>
<!-- Node2 -->
<g id="Node000002" class="node">
<title>Node2</title>
<g id="a_Node000002"><a xlink:href="classEnemyTank.html#aa70aff895200207527e2465c9439fc05" target="_top" xlink:title="Carefully approaches player.">
<polygon fill="white" stroke="#666666" points="372,-295 206,-295 206,-276 372,-276 372,-295"/>
<text text-anchor="middle" x="289" y="-283" font-family="Helvetica,sans-Serif" font-size="10.00">EnemyTank::cautiousApproach</text>
</a>
</g>
</g>
<!-- Node1&#45;&gt;Node2 -->
<g id="edge1_Node000001_Node000002" class="edge">
<title>Node1&#45;&gt;Node2</title>
<g id="a_edge1_Node000001_Node000002"><a xlink:title=" ">
<path fill="none" stroke="#63b8ff" d="M170.2,-285.5C178.59,-285.5 187.14,-285.5 195.61,-285.5"/>
<polygon fill="#63b8ff" stroke="#63b8ff" points="195.88,-289 205.88,-285.5 195.88,-282 195.88,-289"/>
</a>
</g>
</g>
<!-- Node3 -->
<g id="Node000003" class="node">
<title>Node3</title>
<g id="a_Node000003"><a xlink:href="classEnemyTank.html#a9eb0cacdd5e196535f1d60da1ca622ac" target="_top" xlink:title="Gets direction towards last known player position.">
<polygon fill="white" stroke="#666666" points="786.5,-305.5 637.5,-305.5 637.5,-275.5 786.5,-275.5 786.5,-305.5"/>
<text text-anchor="start" x="645.5" y="-293.5" font-family="Helvetica,sans-Serif" font-size="10.00">EnemyTank::getDirectionTo</text>
<text text-anchor="middle" x="712" y="-282.5" font-family="Helvetica,sans-Serif" font-size="10.00">Player</text>
</a>
</g>
</g>
<!-- Node1&#45;&gt;Node3 -->
<g id="edge24_Node000001_Node000003" class="edge">
<title>Node1&#45;&gt;Node3</title>
<g id="a_edge24_Node000001_Node000003"><a xlink:title=" ">
<path fill="none" stroke="#63b8ff" d="M102.35,-295.2C165.83,-331.55 401.51,-454.47 585,-390.5 628.78,-375.24 668.77,-337.71 691.47,-313.22"/>
<polygon fill="#63b8ff" stroke="#63b8ff" points="694.1,-315.53 698.22,-305.77 688.91,-310.83 694.1,-315.53"/>
</a>
</g>
</g>
<!-- Node4 -->
<g id="Node000004" class="node">
<title>Node4</title>
<g id="a_Node000004"><a xlink:href="classEnemyTank.html#a99abccd6cdea62b595ec72f9e374d841" target="_top" xlink:title="Gets Manhattan distance to player.">
<polygon fill="white" stroke="#666666" points="570.5,-381.5 422.5,-381.5 422.5,-351.5 570.5,-351.5 570.5,-381.5"/>
<text text-anchor="start" x="430.5" y="-369.5" font-family="Helvetica,sans-Serif" font-size="10.00">EnemyTank::getDistanceTo</text>
<text text-anchor="middle" x="496.5" y="-358.5" font-family="Helvetica,sans-Serif" font-size="10.00">Player</text>
</a>
</g>
</g>
<!-- Node1&#45;&gt;Node4 -->
<g id="edge25_Node000001_Node000004" class="edge">
<title>Node1&#45;&gt;Node4</title>
<g id="a_edge25_Node000001_Node000004"><a xlink:title=" ">
<path fill="none" stroke="#63b8ff" d="M134.18,-295.03C202.54,-308.55 328.67,-333.5 412.34,-350.05"/>
<polygon fill="#63b8ff" stroke="#63b8ff" points="411.83,-353.52 422.32,-352.03 413.19,-346.65 411.83,-353.52"/>
</a>
</g>
</g>
<!-- Node6 -->
<g id="Node000006" class="node">
<title>Node6</title>
<g id="a_Node000006"><a xlink:href="classGameObject.html#a4bc41ca14c07e61dafa74a03c4f3e2df" target="_top" xlink:title="Rotates the object to face new direction.">
<polygon fill="white" stroke="#666666" points="952,-219 839,-219 839,-200 952,-200 952,-219"/>
<text text-anchor="middle" x="895.5" y="-207" font-family="Helvetica,sans-Serif" font-size="10.00">GameObject::rotate</text>
</a>
</g>
</g>
<!-- Node1&#45;&gt;Node6 -->
<g id="edge27_Node000001_Node000006" class="edge">
<title>Node1&#45;&gt;Node6</title>
<g id="a_edge27_Node000001_Node000006"><a xlink:title=" ">
<path fill="none" stroke="#63b8ff" d="M96.79,-275.81C116.92,-258.18 162.13,-220.66 206,-198.5 378.77,-111.25 429.74,-96.18 621,-66.5 700.93,-54.09 732.04,-27.66 803,-66.5 851.55,-93.07 878.1,-157.6 888.81,-190.1"/>
<polygon fill="#63b8ff" stroke="#63b8ff" points="885.52,-191.3 891.84,-199.8 892.2,-189.21 885.52,-191.3"/>
</a>
</g>
</g>
<!-- Node9 -->
<g id="Node000009" class="node">
<title>Node9</title>
<g id="a_Node000009"><a xlink:href="classEnemyTank.html#a85bd09ffb86b2c36c6b76fe6f6752324" target="_top" xlink:title="Moves away from player.">
<polygon fill="white" stroke="#666666" points="573.5,-457 419.5,-457 419.5,-438 573.5,-438 573.5,-457"/>
<text text-anchor="middle" x="496.5" y="-445" font-family="Helvetica,sans-Serif" font-size="10.00">EnemyTank::defensiveMove</text>
</a>
</g>
</g>
<!-- Node1&#45;&gt;Node9 -->
<g id="edge13_Node000001_Node000009" class="edge">
<title>Node1&#45;&gt;Node9</title>
<g id="a_edge13_Node000001_Node000009"><a xlink:title=" ">
<path fill="none" stroke="#63b8ff" d="M90.86,-295.09C104.69,-321.21 147.09,-393.66 206,-423.5 268.73,-455.28 349.01,-459.56 409.11,-456.87"/>
<polygon fill="#63b8ff" stroke="#63b8ff" points="409.53,-460.35 419.33,-456.34 409.16,-453.36 409.53,-460.35"/>
</a>
</g>
</g>
<!-- Node11 -->
<g id="Node000011" class="node">
<title>Node11</title>
<g id="a_Node000011"><a xlink:href="classEnemyTank.html#a3038987b5595e2ec68508dfde4a35d51" target="_top" xlink:title="Searches for cover.">
<polygon fill="white" stroke="#666666" points="559,-181 434,-181 434,-162 559,-162 559,-181"/>
<text text-anchor="middle" x="496.5" y="-169" font-family="Helvetica,sans-Serif" font-size="10.00">EnemyTank::findCover</text>
</a>
</g>
</g>
<!-- Node1&#45;&gt;Node11 -->
<g id="edge18_Node000001_Node000011" class="edge">
<title>Node1&#45;&gt;Node11</title>
<g id="a_edge18_Node000001_Node000011"><a xlink:title=" ">
<path fill="none" stroke="#63b8ff" d="M115.54,-276C172,-258.01 299.3,-218.3 408,-190.5 417.83,-187.99 428.33,-185.52 438.52,-183.24"/>
<polygon fill="#63b8ff" stroke="#63b8ff" points="439.56,-186.6 448.58,-181.03 438.06,-179.76 439.56,-186.6"/>
</a>
</g>
</g>
<!-- Node13 -->
<g id="Node000013" class="node">
<title>Node13</title>
<g id="a_Node000013"><a xlink:href="classEnemyTank.html#abf1f9838c12039c2a0872181aeee713e" target="_top" xlink:title="Checks if tank has clear line of sight to player.">
<polygon fill="white" stroke="#666666" points="360.5,-19 217.5,-19 217.5,0 360.5,0 360.5,-19"/>
<text text-anchor="middle" x="289" y="-7" font-family="Helvetica,sans-Serif" font-size="10.00">EnemyTank::hasClearShot</text>
</a>
</g>
</g>
<!-- Node1&#45;&gt;Node13 -->
<g id="edge26_Node000001_Node000013" class="edge">
<title>Node1&#45;&gt;Node13</title>
<g id="a_edge26_Node000001_Node000013"><a xlink:title=" ">
<path fill="none" stroke="#63b8ff" d="M87.68,-275.8C94.69,-238.43 125.03,-102.47 206,-33.5 210.89,-29.33 216.47,-25.89 222.38,-23.04"/>
<polygon fill="#63b8ff" stroke="#63b8ff" points="224,-26.16 231.86,-19.05 221.28,-19.71 224,-26.16"/>
</a>
</g>
</g>
<!-- Node2&#45;&gt;Node3 -->
<g id="edge2_Node000002_Node000003" class="edge">
<title>Node2&#45;&gt;Node3</title>
<g id="a_edge2_Node000002_Node000003"><a xlink:title=" ">
<path fill="none" stroke="#63b8ff" d="M372.17,-286.48C445.76,-287.35 553.19,-288.63 627.26,-289.51"/>
<polygon fill="#63b8ff" stroke="#63b8ff" points="627.44,-293.01 637.48,-289.63 627.53,-286.01 627.44,-293.01"/>
</a>
</g>
</g>
<!-- Node2&#45;&gt;Node4 -->
<g id="edge3_Node000002_Node000004" class="edge">
<title>Node2&#45;&gt;Node4</title>
<g id="a_edge3_Node000002_Node000004"><a xlink:title=" ">
<path fill="none" stroke="#63b8ff" d="M310.22,-295.11C333.53,-306.03 373.11,-324.07 408,-337.5 417.41,-341.12 427.49,-344.72 437.33,-348.08"/>
<polygon fill="#63b8ff" stroke="#63b8ff" points="436.48,-351.49 447.07,-351.36 438.71,-344.85 436.48,-351.49"/>
</a>
</g>
</g>
<!-- Node5 -->
<g id="Node000005" class="node">
<title>Node5</title>
<g id="a_Node000005"><a xlink:href="classEnemyTank.html#ad9f295f9b2df24bb291db3783b292289" target="_top" xlink:title="Moves enemy tank in specified direction.">
<polygon fill="white" stroke="#666666" points="765.5,-257 658.5,-257 658.5,-238 765.5,-238 765.5,-257"/>
<text text-anchor="middle" x="712" y="-245" font-family="Helvetica,sans-Serif" font-size="10.00">EnemyTank::move</text>
</a>
</g>
</g>
<!-- Node2&#45;&gt;Node5 -->
<g id="edge4_Node000002_Node000005" class="edge">
<title>Node2&#45;&gt;Node5</title>
<g id="a_edge4_Node000002_Node000005"><a xlink:title=" ">
<path fill="none" stroke="#63b8ff" d="M372.17,-278.08C453.08,-270.78 574.88,-259.79 648.29,-253.16"/>
<polygon fill="#63b8ff" stroke="#63b8ff" points="648.67,-256.64 658.32,-252.26 648.04,-249.67 648.67,-256.64"/>
</a>
</g>
</g>
<!-- Node2&#45;&gt;Node6 -->
<g id="edge12_Node000002_Node000006" class="edge">
<title>Node2&#45;&gt;Node6</title>
<g id="a_edge12_Node000002_Node000006"><a xlink:title=" ">
<path fill="none" stroke="#63b8ff" d="M345.56,-295.07C461.02,-313.91 722.82,-350.98 803,-314.5 842.05,-296.73 870.93,-253.15 884.97,-228.07"/>
<polygon fill="#63b8ff" stroke="#63b8ff" points="888.11,-229.63 889.77,-219.17 881.95,-226.31 888.11,-229.63"/>
</a>
</g>
</g>
<!-- Node7 -->
<g id="Node000007" class="node">
<title>Node7</title>
<g id="a_Node000007"><a xlink:href="classEnemyTank.html#aa7421a7881c97b14301ef95e11fac1a8" target="_top" xlink:title="Moves towards player position.">
<polygon fill="white" stroke="#666666" points="585,-219 408,-219 408,-200 585,-200 585,-219"/>
<text text-anchor="middle" x="496.5" y="-207" font-family="Helvetica,sans-Serif" font-size="10.00">EnemyTank::moveTowardsPlayer</text>
</a>
</g>
</g>
<!-- Node2&#45;&gt;Node7 -->
<g id="edge6_Node000002_Node000007" class="edge">
<title>Node2&#45;&gt;Node7</title>
<g id="a_edge6_Node000002_Node000007"><a xlink:title=" ">
<path fill="none" stroke="#63b8ff" d="M309.27,-275.95C332.34,-264.77 372.35,-246.17 408,-233.5 420.18,-229.17 433.54,-225.15 446.08,-221.69"/>
<polygon fill="#63b8ff" stroke="#63b8ff" points="447.17,-225.02 455.92,-219.03 445.35,-218.26 447.17,-225.02"/>
</a>
</g>
</g>
<!-- Node5&#45;&gt;Node6 -->
<g id="edge5_Node000005_Node000006" class="edge">
<title>Node5&#45;&gt;Node6</title>
<g id="a_edge5_Node000005_Node000006"><a xlink:title=" ">
<path fill="none" stroke="#63b8ff" d="M758.8,-237.91C783.18,-232.81 813.36,-226.49 839.06,-221.11"/>
<polygon fill="#63b8ff" stroke="#63b8ff" points="839.96,-224.5 849.03,-219.02 838.52,-217.64 839.96,-224.5"/>
</a>
</g>
</g>
<!-- Node7&#45;&gt;Node3 -->
<g id="edge7_Node000007_Node000003" class="edge">
<title>Node7&#45;&gt;Node3</title>
<g id="a_edge7_Node000007_Node000003"><a xlink:title=" ">
<path fill="none" stroke="#63b8ff" d="M516.37,-219.17C540.27,-231.15 582.94,-251.68 621,-265.5 627.71,-267.94 634.77,-270.27 641.86,-272.47"/>
<polygon fill="#63b8ff" stroke="#63b8ff" points="640.94,-275.85 651.52,-275.38 642.96,-269.15 640.94,-275.85"/>
</a>
</g>
</g>
<!-- Node7&#45;&gt;Node5 -->
<g id="edge8_Node000007_Node000005" class="edge">
<title>Node7&#45;&gt;Node5</title>
<g id="a_edge8_Node000007_Node000005"><a xlink:title=" ">
<path fill="none" stroke="#63b8ff" d="M551.1,-219.04C580.62,-224.29 617.42,-230.84 648.27,-236.34"/>
<polygon fill="#63b8ff" stroke="#63b8ff" points="648.03,-239.85 658.49,-238.15 649.25,-232.96 648.03,-239.85"/>
</a>
</g>
</g>
<!-- Node7&#45;&gt;Node6 -->
<g id="edge11_Node000007_Node000006" class="edge">
<title>Node7&#45;&gt;Node6</title>
<g id="a_edge11_Node000007_Node000006"><a xlink:title=" ">
<path fill="none" stroke="#63b8ff" d="M585.11,-209.5C658.59,-209.5 761.92,-209.5 828.55,-209.5"/>
<polygon fill="#63b8ff" stroke="#63b8ff" points="828.92,-213 838.92,-209.5 828.92,-206 828.92,-213"/>
</a>
</g>
</g>
<!-- Node8 -->
<g id="Node000008" class="node">
<title>Node8</title>
<g id="a_Node000008"><a xlink:href="classEnemyTank.html#a327ab507c7512b075c5a4c85d6933bba" target="_top" xlink:title="Executes random movement behavior.">
<polygon fill="white" stroke="#666666" points="792,-181 632,-181 632,-162 792,-162 792,-181"/>
<text text-anchor="middle" x="712" y="-169" font-family="Helvetica,sans-Serif" font-size="10.00">EnemyTank::randomBehavior</text>
</a>
</g>
</g>
<!-- Node7&#45;&gt;Node8 -->
<g id="edge9_Node000007_Node000008" class="edge">
<title>Node7&#45;&gt;Node8</title>
<g id="a_edge9_Node000007_Node000008"><a xlink:title=" ">
<path fill="none" stroke="#63b8ff" d="M551.1,-199.96C580.29,-194.77 616.59,-188.3 647.22,-182.85"/>
<polygon fill="#63b8ff" stroke="#63b8ff" points="648.15,-186.24 657.38,-181.04 646.92,-179.35 648.15,-186.24"/>
</a>
</g>
</g>
<!-- Node8&#45;&gt;Node6 -->
<g id="edge10_Node000008_Node000006" class="edge">
<title>Node8&#45;&gt;Node6</title>
<g id="a_edge10_Node000008_Node000006"><a xlink:title=" ">
<path fill="none" stroke="#63b8ff" d="M758.8,-181.09C783.18,-186.19 813.36,-192.51 839.06,-197.89"/>
<polygon fill="#63b8ff" stroke="#63b8ff" points="838.52,-201.36 849.03,-199.98 839.96,-194.5 838.52,-201.36"/>
</a>
</g>
</g>
<!-- Node9&#45;&gt;Node3 -->
<g id="edge14_Node000009_Node000003" class="edge">
<title>Node9&#45;&gt;Node3</title>
<g id="a_edge14_Node000009_Node000003"><a xlink:title=" ">
<path fill="none" stroke="#63b8ff" d="M550.3,-437.99C562.22,-434.51 574.46,-429.82 585,-423.5 597.68,-415.9 658.41,-349.18 690.7,-313.22"/>
<polygon fill="#63b8ff" stroke="#63b8ff" points="693.44,-315.42 697.51,-305.63 688.23,-310.74 693.44,-315.42"/>
</a>
</g>
</g>
<!-- Node9&#45;&gt;Node5 -->
<g id="edge16_Node000009_Node000005" class="edge">
<title>Node9&#45;&gt;Node5</title>
<g id="a_edge16_Node000009_Node000005"><a xlink:title=" ">
<path fill="none" stroke="#63b8ff" d="M520.96,-437.88C540.82,-428.58 568.59,-412.64 585,-390.5 619.18,-344.4 578.94,-305.54 621,-266.5 628.72,-259.34 638.43,-254.6 648.6,-251.52"/>
<polygon fill="#63b8ff" stroke="#63b8ff" points="649.59,-254.88 658.43,-249.05 647.88,-248.09 649.59,-254.88"/>
</a>
</g>
</g>
<!-- Node9&#45;&gt;Node6 -->
<g id="edge17_Node000009_Node000006" class="edge">
<title>Node9&#45;&gt;Node6</title>
<g id="a_edge17_Node000009_Node000006"><a xlink:title=" ">
<path fill="none" stroke="#63b8ff" d="M536.23,-457.03C598.7,-470 722.8,-485.58 803,-428.5 870.32,-380.58 888.32,-273.35 892.96,-229.13"/>
<polygon fill="#63b8ff" stroke="#63b8ff" points="896.45,-229.38 893.89,-219.1 889.48,-228.73 896.45,-229.38"/>
</a>
</g>
</g>
<!-- Node10 -->
<g id="Node000010" class="node">
<title>Node10</title>
<g id="a_Node000010"><a xlink:href="classEnemyTank.html#a8e77035e33942a8ac511fbb3970917bc" target="_top" xlink:title="Gets opposite direction.">
<polygon fill="white" stroke="#666666" points="803,-419 621,-419 621,-400 803,-400 803,-419"/>
<text text-anchor="middle" x="712" y="-407" font-family="Helvetica,sans-Serif" font-size="10.00">EnemyTank::getOppositeDirection</text>
</a>
</g>
</g>
<!-- Node9&#45;&gt;Node10 -->
<g id="edge15_Node000009_Node000010" class="edge">
<title>Node9&#45;&gt;Node10</title>
<g id="a_edge15_Node000009_Node000010"><a xlink:title=" ">
<path fill="none" stroke="#63b8ff" d="M551.1,-437.96C580.29,-432.77 616.59,-426.3 647.22,-420.85"/>
<polygon fill="#63b8ff" stroke="#63b8ff" points="648.15,-424.24 657.38,-419.04 646.92,-417.35 648.15,-424.24"/>
</a>
</g>
</g>
<!-- Node11&#45;&gt;Node3 -->
<g id="edge19_Node000011_Node000003" class="edge">
<title>Node11&#45;&gt;Node3</title>
<g id="a_edge19_Node000011_Node000003"><a xlink:title=" ">
<path fill="none" stroke="#63b8ff" d="M559.06,-177.4C568.4,-180.33 577.44,-184.53 585,-190.5 614.01,-213.42 592.65,-241.76 621,-265.5 623.27,-267.4 625.68,-269.16 628.19,-270.79"/>
<polygon fill="#63b8ff" stroke="#63b8ff" points="626.65,-273.94 637.08,-275.82 630.1,-267.85 626.65,-273.94"/>
</a>
</g>
</g>
<!-- Node11&#45;&gt;Node5 -->
<g id="edge21_Node000011_Node000005" class="edge">
<title>Node11&#45;&gt;Node5</title>
<g id="a_edge21_Node000011_Node000005"><a xlink:title=" ">
<path fill="none" stroke="#63b8ff" d="M550.27,-181.07C561.84,-183.69 573.93,-186.84 585,-190.5 620.37,-202.2 659.16,-220.66 684.22,-233.38"/>
<polygon fill="#63b8ff" stroke="#63b8ff" points="682.63,-236.5 693.12,-237.95 685.82,-230.27 682.63,-236.5"/>
</a>
</g>
</g>
<!-- Node11&#45;&gt;Node6 -->
<g id="edge23_Node000011_Node000006" class="edge">
<title>Node11&#45;&gt;Node6</title>
<g id="a_edge23_Node000011_Node000006"><a xlink:title=" ">
<path fill="none" stroke="#63b8ff" d="M532.22,-161.92C589.76,-147.67 707.97,-125.32 803,-152.5 830.58,-160.39 857.94,-179.27 875.45,-193.14"/>
<polygon fill="#63b8ff" stroke="#63b8ff" points="873.7,-196.24 883.66,-199.86 878.14,-190.82 873.7,-196.24"/>
</a>
</g>
</g>
<!-- Node11&#45;&gt;Node8 -->
<g id="edge22_Node000011_Node000008" class="edge">
<title>Node11&#45;&gt;Node8</title>
<g id="a_edge22_Node000011_Node000008"><a xlink:title=" ">
<path fill="none" stroke="#63b8ff" d="M559.25,-171.5C578.73,-171.5 600.65,-171.5 621.64,-171.5"/>
<polygon fill="#63b8ff" stroke="#63b8ff" points="621.86,-175 631.86,-171.5 621.86,-168 621.86,-175"/>
</a>
</g>
</g>
<!-- Node12 -->
<g id="Node000012" class="node">
<title>Node12</title>
<g id="a_Node000012"><a xlink:href="classEnemyTank.html#a8e7ed1aeded64d0b118d54a5f78099b2" target="_top" xlink:title="Gets perpendicular direction.">
<polygon fill="white" stroke="#666666" points="792.5,-105.5 631.5,-105.5 631.5,-75.5 792.5,-75.5 792.5,-105.5"/>
<text text-anchor="start" x="639.5" y="-93.5" font-family="Helvetica,sans-Serif" font-size="10.00">EnemyTank::getPerpendicular</text>
<text text-anchor="middle" x="712" y="-82.5" font-family="Helvetica,sans-Serif" font-size="10.00">Direction</text>
</a>
</g>
</g>
<!-- Node11&#45;&gt;Node12 -->
<g id="edge20_Node000011_Node000012" class="edge">
<title>Node11&#45;&gt;Node12</title>
<g id="a_edge20_Node000011_Node000012"><a xlink:title=" ">
<path fill="none" stroke="#63b8ff" d="M518.69,-161.91C543.12,-151.02 584.57,-133.01 621,-119.5 630.91,-115.82 641.54,-112.16 651.89,-108.74"/>
<polygon fill="#63b8ff" stroke="#63b8ff" points="653.27,-111.97 661.69,-105.54 651.1,-105.31 653.27,-111.97"/>
</a>
</g>
</g>
</g>
</svg>
