<?xml version="1.0" encoding="UTF-8" standalone="no"?>
<!DOCTYPE svg PUBLIC "-//W3C//DTD SVG 1.1//EN"
 "http://www.w3.org/Graphics/SVG/1.1/DTD/svg11.dtd">
<!-- Generated by graphviz version 2.43.0 (0)
 -->
<!-- Title: GameWorld::updateEnemyMovement Pages: 1 -->
<svg width="771pt" height="254pt"
 viewBox="0.00 0.00 771.00 254.00" xmlns="http://www.w3.org/2000/svg" xmlns:xlink="http://www.w3.org/1999/xlink">
<g id="graph0" class="graph" transform="scale(1 1) rotate(0) translate(4 250)">
<title>GameWorld::updateEnemyMovement</title>
<!-- Node1 -->
<g id="Node000001" class="node">
<title>Node1</title>
<g id="a_Node000001"><a xlink:title="Updates movement for specific enemy.">
<polygon fill="#999999" stroke="#666666" points="200,-132 0,-132 0,-113 200,-113 200,-132"/>
<text text-anchor="middle" x="100" y="-120" font-family="Helvetica,sans-Serif" font-size="10.00">GameWorld::updateEnemyMovement</text>
</a>
</g>
</g>
<!-- Node2 -->
<g id="Node000002" class="node">
<title>Node2</title>
<g id="a_Node000002"><a xlink:href="classTank.html#a769b56897626c20e2736c56796901b84" target="_top" xlink:title="Gets actual speed considering all modifiers.">
<polygon fill="white" stroke="#666666" points="391,-246 269,-246 269,-227 391,-227 391,-246"/>
<text text-anchor="middle" x="330" y="-234" font-family="Helvetica,sans-Serif" font-size="10.00">Tank::getActualSpeed</text>
</a>
</g>
</g>
<!-- Node1&#45;&gt;Node2 -->
<g id="edge1_Node000001_Node000002" class="edge">
<title>Node1&#45;&gt;Node2</title>
<g id="a_edge1_Node000001_Node000002"><a xlink:title=" ">
<path fill="none" stroke="#63b8ff" d="M112.49,-132.14C134.84,-150.43 186.37,-190.32 236,-212.5 246.48,-217.18 258.05,-221.08 269.36,-224.28"/>
<polygon fill="#63b8ff" stroke="#63b8ff" points="268.64,-227.71 279.2,-226.92 270.45,-220.95 268.64,-227.71"/>
</a>
</g>
</g>
<!-- Node3 -->
<g id="Node000003" class="node">
<title>Node3</title>
<g id="a_Node000003"><a xlink:href="classEnemyTank.html#aaa9646e004d165e97db25fd34b3e5251" target="_top" xlink:title="Gets the bounding dimensions of the enemy tank.">
<polygon fill="white" stroke="#666666" points="601,-207 470,-207 470,-188 601,-188 601,-207"/>
<text text-anchor="middle" x="535.5" y="-195" font-family="Helvetica,sans-Serif" font-size="10.00">EnemyTank::getBounds</text>
</a>
</g>
</g>
<!-- Node1&#45;&gt;Node3 -->
<g id="edge2_Node000001_Node000003" class="edge">
<title>Node1&#45;&gt;Node3</title>
<g id="a_edge2_Node000001_Node000003"><a xlink:title=" ">
<path fill="none" stroke="#63b8ff" d="M129.11,-132.06C156.19,-140.93 198.47,-153.87 236,-161.5 311.43,-176.84 399.01,-186.45 459.71,-191.85"/>
<polygon fill="#63b8ff" stroke="#63b8ff" points="459.7,-195.36 469.97,-192.74 460.31,-188.39 459.7,-195.36"/>
</a>
</g>
</g>
<!-- Node4 -->
<g id="Node000004" class="node">
<title>Node4</title>
<g id="a_Node000004"><a xlink:href="classGameObject.html#a650b9622507919864b54aadcaab92110" target="_top" xlink:title="Gets current direction of the object.">
<polygon fill="white" stroke="#666666" points="401.5,-56 258.5,-56 258.5,-37 401.5,-37 401.5,-56"/>
<text text-anchor="middle" x="330" y="-44" font-family="Helvetica,sans-Serif" font-size="10.00">GameObject::getDirection</text>
</a>
</g>
</g>
<!-- Node1&#45;&gt;Node4 -->
<g id="edge3_Node000001_Node000004" class="edge">
<title>Node1&#45;&gt;Node4</title>
<g id="a_edge3_Node000001_Node000004"><a xlink:title=" ">
<path fill="none" stroke="#63b8ff" d="M123.65,-112.86C150.24,-101.75 195.82,-83.38 236,-70.5 249.54,-66.16 264.39,-62.05 278.16,-58.49"/>
<polygon fill="#63b8ff" stroke="#63b8ff" points="279.13,-61.86 287.97,-56.01 277.41,-55.07 279.13,-61.86"/>
</a>
</g>
</g>
<!-- Node5 -->
<g id="Node000005" class="node">
<title>Node5</title>
<g id="a_Node000005"><a xlink:href="classGameObject.html#aa4dd19d6b0ea5701d860b64b08435ae6" target="_top" xlink:title="Gets current position of the object.">
<polygon fill="white" stroke="#666666" points="604.5,-169 466.5,-169 466.5,-150 604.5,-150 604.5,-169"/>
<text text-anchor="middle" x="535.5" y="-157" font-family="Helvetica,sans-Serif" font-size="10.00">GameObject::getPosition</text>
</a>
</g>
</g>
<!-- Node1&#45;&gt;Node5 -->
<g id="edge4_Node000001_Node000005" class="edge">
<title>Node1&#45;&gt;Node5</title>
<g id="a_edge4_Node000001_Node000005"><a xlink:title=" ">
<path fill="none" stroke="#63b8ff" d="M165.44,-132.01C187.75,-135.06 212.94,-138.23 236,-140.5 310.5,-147.83 395.75,-152.93 456.02,-155.99"/>
<polygon fill="#63b8ff" stroke="#63b8ff" points="456.06,-159.49 466.22,-156.5 456.41,-152.5 456.06,-159.49"/>
</a>
</g>
</g>
<!-- Node6 -->
<g id="Node000006" class="node">
<title>Node6</title>
<g id="a_Node000006"><a xlink:href="classGameWorld.html#a982893516231aaf0aec251561189b5c9" target="_top" xlink:title="Handles enemy collision.">
<polygon fill="white" stroke="#666666" points="424,-132 236,-132 236,-113 424,-113 424,-132"/>
<text text-anchor="middle" x="330" y="-120" font-family="Helvetica,sans-Serif" font-size="10.00">GameWorld::handleEnemyCollision</text>
</a>
</g>
</g>
<!-- Node1&#45;&gt;Node6 -->
<g id="edge5_Node000001_Node000006" class="edge">
<title>Node1&#45;&gt;Node6</title>
<g id="a_edge5_Node000001_Node000006"><a xlink:title=" ">
<path fill="none" stroke="#63b8ff" d="M200.01,-122.5C208.56,-122.5 217.23,-122.5 225.81,-122.5"/>
<polygon fill="#63b8ff" stroke="#63b8ff" points="225.84,-126 235.84,-122.5 225.84,-119 225.84,-126"/>
</a>
</g>
</g>
<!-- Node7 -->
<g id="Node000007" class="node">
<title>Node7</title>
<g id="a_Node000007"><a xlink:href="classGameWorld.html#a44dd38e9393e523caefeac7448cfc18c" target="_top" xlink:title="Checks if position is valid.">
<polygon fill="white" stroke="#666666" points="611,-95 460,-95 460,-76 611,-76 611,-95"/>
<text text-anchor="middle" x="535.5" y="-83" font-family="Helvetica,sans-Serif" font-size="10.00">GameWorld::isValidPosition</text>
</a>
</g>
</g>
<!-- Node1&#45;&gt;Node7 -->
<g id="edge11_Node000001_Node000007" class="edge">
<title>Node1&#45;&gt;Node7</title>
<g id="a_edge11_Node000001_Node000007"><a xlink:title=" ">
<path fill="none" stroke="#63b8ff" d="M161.36,-112.96C184.64,-109.55 211.51,-105.96 236,-103.5 307.91,-96.28 389.87,-91.59 449.69,-88.82"/>
<polygon fill="#63b8ff" stroke="#63b8ff" points="450.01,-92.3 459.85,-88.35 449.7,-85.31 450.01,-92.3"/>
</a>
</g>
</g>
<!-- Node10 -->
<g id="Node000010" class="node">
<title>Node10</title>
<g id="a_Node000010"><a xlink:href="classGameObject.html#a8e1f77d21a8ed8a894ae29f0e4126618" target="_top" xlink:title="Sets new position for the object.">
<polygon fill="white" stroke="#666666" points="398.5,-19 261.5,-19 261.5,0 398.5,0 398.5,-19"/>
<text text-anchor="middle" x="330" y="-7" font-family="Helvetica,sans-Serif" font-size="10.00">GameObject::setPosition</text>
</a>
</g>
</g>
<!-- Node1&#45;&gt;Node10 -->
<g id="edge12_Node000001_Node000010" class="edge">
<title>Node1&#45;&gt;Node10</title>
<g id="a_edge12_Node000001_Node000010"><a xlink:title=" ">
<path fill="none" stroke="#63b8ff" d="M111.25,-112.91C132.64,-93.49 184.31,-49.49 236,-27.5 241.01,-25.37 246.29,-23.49 251.67,-21.83"/>
<polygon fill="#63b8ff" stroke="#63b8ff" points="252.76,-25.15 261.44,-19.07 250.86,-18.42 252.76,-25.15"/>
</a>
</g>
</g>
<!-- Node6&#45;&gt;Node3 -->
<g id="edge6_Node000006_Node000003" class="edge">
<title>Node6&#45;&gt;Node3</title>
<g id="a_edge6_Node000006_Node000003"><a xlink:title=" ">
<path fill="none" stroke="#63b8ff" d="M350.28,-132.03C375.17,-144.06 420.04,-164.83 460,-178.5 467.11,-180.93 474.7,-183.22 482.21,-185.3"/>
<polygon fill="#63b8ff" stroke="#63b8ff" points="481.43,-188.71 492,-187.91 483.24,-181.95 481.43,-188.71"/>
</a>
</g>
</g>
<!-- Node6&#45;&gt;Node5 -->
<g id="edge7_Node000006_Node000005" class="edge">
<title>Node6&#45;&gt;Node5</title>
<g id="a_edge7_Node000006_Node000005"><a xlink:title=" ">
<path fill="none" stroke="#63b8ff" d="M383.41,-132.03C410.36,-136.93 443.41,-142.94 471.72,-148.09"/>
<polygon fill="#63b8ff" stroke="#63b8ff" points="471.45,-151.59 481.92,-149.94 472.71,-144.71 471.45,-151.59"/>
</a>
</g>
</g>
<!-- Node6&#45;&gt;Node7 -->
<g id="edge8_Node000006_Node000007" class="edge">
<title>Node6&#45;&gt;Node7</title>
<g id="a_edge8_Node000006_Node000007"><a xlink:title=" ">
<path fill="none" stroke="#63b8ff" d="M383.41,-112.97C410.36,-108.07 443.41,-102.06 471.72,-96.91"/>
<polygon fill="#63b8ff" stroke="#63b8ff" points="472.71,-100.29 481.92,-95.06 471.45,-93.41 472.71,-100.29"/>
</a>
</g>
</g>
<!-- Node9 -->
<g id="Node000009" class="node">
<title>Node9</title>
<g id="a_Node000009"><a xlink:href="classGameObject.html#a4bc41ca14c07e61dafa74a03c4f3e2df" target="_top" xlink:title="Rotates the object to face new direction.">
<polygon fill="white" stroke="#666666" points="592,-132 479,-132 479,-113 592,-113 592,-132"/>
<text text-anchor="middle" x="535.5" y="-120" font-family="Helvetica,sans-Serif" font-size="10.00">GameObject::rotate</text>
</a>
</g>
</g>
<!-- Node6&#45;&gt;Node9 -->
<g id="edge10_Node000006_Node000009" class="edge">
<title>Node6&#45;&gt;Node9</title>
<g id="a_edge10_Node000006_Node000009"><a xlink:title=" ">
<path fill="none" stroke="#63b8ff" d="M424.11,-122.5C439.19,-122.5 454.52,-122.5 468.77,-122.5"/>
<polygon fill="#63b8ff" stroke="#63b8ff" points="468.93,-126 478.93,-122.5 468.93,-119 468.93,-126"/>
</a>
</g>
</g>
<!-- Node8 -->
<g id="Node000008" class="node">
<title>Node8</title>
<g id="a_Node000008"><a xlink:href="classObstacle.html#aa1936373d282c8dba39f529526b6143d" target="_top" xlink:title="Checks if obstacle is passable for tanks.">
<polygon fill="white" stroke="#666666" points="763,-95 647,-95 647,-76 763,-76 763,-95"/>
<text text-anchor="middle" x="705" y="-83" font-family="Helvetica,sans-Serif" font-size="10.00">Obstacle::isPassable</text>
</a>
</g>
</g>
<!-- Node7&#45;&gt;Node8 -->
<g id="edge9_Node000007_Node000008" class="edge">
<title>Node7&#45;&gt;Node8</title>
<g id="a_edge9_Node000007_Node000008"><a xlink:title=" ">
<path fill="none" stroke="#63b8ff" d="M611.43,-85.5C619.85,-85.5 628.4,-85.5 636.71,-85.5"/>
<polygon fill="#63b8ff" stroke="#63b8ff" points="636.72,-89 646.72,-85.5 636.72,-82 636.72,-89"/>
</a>
</g>
</g>
</g>
</svg>
