<?xml version="1.0" encoding="UTF-8" standalone="no"?>
<!DOCTYPE svg PUBLIC "-//W3C//DTD SVG 1.1//EN"
 "http://www.w3.org/Graphics/SVG/1.1/DTD/svg11.dtd">
<!-- Generated by graphviz version 2.43.0 (0)
 -->
<!-- Title: MapManager::loadMaps Pages: 1 -->
<svg width="551pt" height="27pt"
 viewBox="0.00 0.00 551.00 27.00" xmlns="http://www.w3.org/2000/svg" xmlns:xlink="http://www.w3.org/1999/xlink">
<g id="graph0" class="graph" transform="scale(1 1) rotate(0) translate(4 23)">
<title>MapManager::loadMaps</title>
<!-- Node1 -->
<g id="Node000001" class="node">
<title>Node1</title>
<g id="a_Node000001"><a xlink:title="Loads all maps from directory.">
<polygon fill="#999999" stroke="#666666" points="134,-19 0,-19 0,0 134,0 134,-19"/>
<text text-anchor="middle" x="67" y="-7" font-family="Helvetica,sans-Serif" font-size="10.00">MapManager::loadMaps</text>
</a>
</g>
</g>
<!-- Node2 -->
<g id="Node000002" class="node">
<title>Node2</title>
<g id="a_Node000002"><a xlink:href="classMapManager.html#ad0adbcfa1331904665af1868edb052ab" target="_top" xlink:title="Creates default maps if none exist.">
<polygon fill="white" stroke="#666666" points="349,-19 170,-19 170,0 349,0 349,-19"/>
<text text-anchor="middle" x="259.5" y="-7" font-family="Helvetica,sans-Serif" font-size="10.00">MapManager::createDefaultMaps</text>
</a>
</g>
</g>
<!-- Node1&#45;&gt;Node2 -->
<g id="edge1_Node000001_Node000002" class="edge">
<title>Node1&#45;&gt;Node2</title>
<g id="a_edge1_Node000001_Node000002"><a xlink:title=" ">
<path fill="none" stroke="#63b8ff" d="M134.09,-9.5C142.36,-9.5 150.95,-9.5 159.58,-9.5"/>
<polygon fill="#63b8ff" stroke="#63b8ff" points="159.71,-13 169.71,-9.5 159.71,-6 159.71,-13"/>
</a>
</g>
</g>
<!-- Node3 -->
<g id="Node000003" class="node">
<title>Node3</title>
<g id="a_Node000003"><a xlink:href="classMapManager.html#a567c17018afe3a29cd1fb783d54ef098" target="_top" xlink:title="Saves map to file.">
<polygon fill="white" stroke="#666666" points="543,-19 385,-19 385,0 543,0 543,-19"/>
<text text-anchor="middle" x="464" y="-7" font-family="Helvetica,sans-Serif" font-size="10.00">MapManager::saveMapToFile</text>
</a>
</g>
</g>
<!-- Node2&#45;&gt;Node3 -->
<g id="edge2_Node000002_Node000003" class="edge">
<title>Node2&#45;&gt;Node3</title>
<g id="a_edge2_Node000002_Node000003"><a xlink:title=" ">
<path fill="none" stroke="#63b8ff" d="M349.02,-9.5C357.5,-9.5 366.09,-9.5 374.57,-9.5"/>
<polygon fill="#63b8ff" stroke="#63b8ff" points="374.83,-13 384.83,-9.5 374.83,-6 374.83,-13"/>
</a>
</g>
</g>
</g>
</svg>
