<?xml version="1.0" encoding="UTF-8" standalone="no"?>
<!DOCTYPE svg PUBLIC "-//W3C//DTD SVG 1.1//EN"
 "http://www.w3.org/Graphics/SVG/1.1/DTD/svg11.dtd">
<!-- Generated by graphviz version 2.43.0 (0)
 -->
<!-- Title: EnemyTank::update Pages: 1 -->
<svg width="1316pt" height="761pt"
 viewBox="0.00 0.00 1316.00 761.47" xmlns="http://www.w3.org/2000/svg" xmlns:xlink="http://www.w3.org/1999/xlink">
<g id="graph0" class="graph" transform="scale(1 1) rotate(0) translate(4 757.47)">
<title>EnemyTank::update</title>
<!-- Node1 -->
<g id="Node000001" class="node">
<title>Node1</title>
<g id="a_Node000001"><a xlink:title="Updates enemy tank state and AI decisions.">
<polygon fill="#999999" stroke="#666666" points="113,-296 0,-296 0,-277 113,-277 113,-296"/>
<text text-anchor="middle" x="56.5" y="-284" font-family="Helvetica,sans-Serif" font-size="10.00">EnemyTank::update</text>
</a>
</g>
</g>
<!-- Node2 -->
<g id="Node000002" class="node">
<title>Node2</title>
<g id="a_Node000002"><a xlink:href="classEnemyTank.html#a338556623afc739ebf5585caaa73fcdb" target="_top" xlink:title="Decides next action based on behavior.">
<polygon fill="white" stroke="#666666" points="310,-333 149,-333 149,-314 310,-314 310,-333"/>
<text text-anchor="middle" x="229.5" y="-321" font-family="Helvetica,sans-Serif" font-size="10.00">EnemyTank::decideNextMove</text>
</a>
</g>
</g>
<!-- Node1&#45;&gt;Node2 -->
<g id="edge1_Node000001_Node000002" class="edge">
<title>Node1&#45;&gt;Node2</title>
<g id="a_edge1_Node000001_Node000002"><a xlink:title=" ">
<path fill="none" stroke="#63b8ff" d="M101.54,-296.03C123.79,-300.84 150.99,-306.73 174.49,-311.81"/>
<polygon fill="#63b8ff" stroke="#63b8ff" points="173.8,-315.25 184.32,-313.94 175.28,-308.4 173.8,-315.25"/>
</a>
</g>
</g>
<!-- Node23 -->
<g id="Node000023" class="node">
<title>Node23</title>
<g id="a_Node000023"><a xlink:href="classTank.html#aeeed7bc06ef4c9f60bb74b4b80eb22dd" target="_top" xlink:title="Decrements reload timer.">
<polygon fill="white" stroke="#666666" points="267.5,-296 191.5,-296 191.5,-277 267.5,-277 267.5,-296"/>
<text text-anchor="middle" x="229.5" y="-284" font-family="Helvetica,sans-Serif" font-size="10.00">Tank::reload</text>
</a>
</g>
</g>
<!-- Node1&#45;&gt;Node23 -->
<g id="edge52_Node000001_Node000023" class="edge">
<title>Node1&#45;&gt;Node23</title>
<g id="a_edge52_Node000001_Node000023"><a xlink:title=" ">
<path fill="none" stroke="#63b8ff" d="M113.02,-286.5C135.06,-286.5 160.15,-286.5 181.29,-286.5"/>
<polygon fill="#63b8ff" stroke="#63b8ff" points="181.33,-290 191.33,-286.5 181.33,-283 181.33,-290"/>
</a>
</g>
</g>
<!-- Node24 -->
<g id="Node000024" class="node">
<title>Node24</title>
<g id="a_Node000024"><a xlink:href="classTank.html#a699d319d640cf416e673687d443e1917" target="_top" xlink:title="Updates bonus effect durations.">
<polygon fill="white" stroke="#666666" points="284,-259 175,-259 175,-240 284,-240 284,-259"/>
<text text-anchor="middle" x="229.5" y="-247" font-family="Helvetica,sans-Serif" font-size="10.00">Tank::updateBonus</text>
</a>
</g>
</g>
<!-- Node1&#45;&gt;Node24 -->
<g id="edge53_Node000001_Node000024" class="edge">
<title>Node1&#45;&gt;Node24</title>
<g id="a_edge53_Node000001_Node000024"><a xlink:title=" ">
<path fill="none" stroke="#63b8ff" d="M101.54,-276.97C123.79,-272.16 150.99,-266.27 174.49,-261.19"/>
<polygon fill="#63b8ff" stroke="#63b8ff" points="175.28,-264.6 184.32,-259.06 173.8,-257.75 175.28,-264.6"/>
</a>
</g>
</g>
<!-- Node3 -->
<g id="Node000003" class="node">
<title>Node3</title>
<g id="a_Node000003"><a xlink:href="classEnemyTank.html#a5b53b4d6721012b14e41a0882bd1c2a3" target="_top" xlink:title="Executes aggressive behavior.">
<polygon fill="white" stroke="#666666" points="728,-409 552,-409 552,-390 728,-390 728,-409"/>
<text text-anchor="middle" x="640" y="-397" font-family="Helvetica,sans-Serif" font-size="10.00">EnemyTank::aggressiveBehavior</text>
</a>
</g>
</g>
<!-- Node2&#45;&gt;Node3 -->
<g id="edge2_Node000002_Node000003" class="edge">
<title>Node2&#45;&gt;Node3</title>
<g id="a_edge2_Node000002_Node000003"><a xlink:title=" ">
<path fill="none" stroke="#63b8ff" d="M281.82,-333.05C357.14,-347.06 497.36,-373.15 577.89,-388.13"/>
<polygon fill="#63b8ff" stroke="#63b8ff" points="577.42,-391.6 587.89,-389.99 578.7,-384.72 577.42,-391.6"/>
</a>
</g>
</g>
<!-- Node13 -->
<g id="Node000013" class="node">
<title>Node13</title>
<g id="a_Node000013"><a xlink:href="classEnemyTank.html#a327ab507c7512b075c5a4c85d6933bba" target="_top" xlink:title="Executes random movement behavior.">
<polygon fill="white" stroke="#666666" points="1148,-76 988,-76 988,-57 1148,-57 1148,-76"/>
<text text-anchor="middle" x="1068" y="-64" font-family="Helvetica,sans-Serif" font-size="10.00">EnemyTank::randomBehavior</text>
</a>
</g>
</g>
<!-- Node2&#45;&gt;Node13 -->
<g id="edge51_Node000002_Node000013" class="edge">
<title>Node2&#45;&gt;Node13</title>
<g id="a_edge51_Node000002_Node000013"><a xlink:title=" ">
<path fill="none" stroke="#63b8ff" d="M284.61,-313.88C293.32,-311.4 302.07,-308.32 310,-304.5 432.95,-245.29 428.83,-174.26 552,-115.5 639.28,-73.86 667.92,-77.46 764,-66.5 835.52,-58.34 917.15,-58.91 977.65,-61.2"/>
<polygon fill="#63b8ff" stroke="#63b8ff" points="977.8,-64.71 987.93,-61.61 978.08,-57.71 977.8,-64.71"/>
</a>
</g>
</g>
<!-- Node14 -->
<g id="Node000014" class="node">
<title>Node14</title>
<g id="a_Node000014"><a xlink:href="classEnemyTank.html#a5759e09a78eab14d4b85dc1bd93ead19" target="_top" xlink:title="Attempts to shoot at player.">
<polygon fill="white" stroke="#666666" points="710,-599 570,-599 570,-580 710,-580 710,-599"/>
<text text-anchor="middle" x="640" y="-587" font-family="Helvetica,sans-Serif" font-size="10.00">EnemyTank::attemptShot</text>
</a>
</g>
</g>
<!-- Node2&#45;&gt;Node14 -->
<g id="edge20_Node000002_Node000014" class="edge">
<title>Node2&#45;&gt;Node14</title>
<g id="a_edge20_Node000002_Node000014"><a xlink:title=" ">
<path fill="none" stroke="#63b8ff" d="M240.78,-333.01C279.02,-367.97 417.81,-490.9 552,-560.5 564.62,-567.05 579.03,-572.56 592.44,-576.95"/>
<polygon fill="#63b8ff" stroke="#63b8ff" points="591.39,-580.3 601.98,-579.96 593.5,-573.62 591.39,-580.3"/>
</a>
</g>
</g>
<!-- Node18 -->
<g id="Node000018" class="node">
<title>Node18</title>
<g id="a_Node000018"><a xlink:href="classEnemyTank.html#aa4efd03207e3ae1a5d659cf5d445960d" target="_top" xlink:title="Checks if enemy can see the player.">
<polygon fill="white" stroke="#666666" points="503.5,-19 358.5,-19 358.5,0 503.5,0 503.5,-19"/>
<text text-anchor="middle" x="431" y="-7" font-family="Helvetica,sans-Serif" font-size="10.00">EnemyTank::canSeePlayer</text>
</a>
</g>
</g>
<!-- Node2&#45;&gt;Node18 -->
<g id="edge32_Node000002_Node000018" class="edge">
<title>Node2&#45;&gt;Node18</title>
<g id="a_edge32_Node000002_Node000018"><a xlink:title=" ">
<path fill="none" stroke="#63b8ff" d="M298.14,-313.92C302.55,-311.39 306.58,-308.29 310,-304.5 391.4,-214.3 266.59,-125.46 346,-33.5 349.09,-29.92 352.68,-26.85 356.6,-24.23"/>
<polygon fill="#63b8ff" stroke="#63b8ff" points="358.62,-27.11 365.63,-19.17 355.2,-21 358.62,-27.11"/>
</a>
</g>
</g>
<!-- Node19 -->
<g id="Node000019" class="node">
<title>Node19</title>
<g id="a_Node000019"><a xlink:href="classEnemyTank.html#a39add8a8beb8bb7b69124753ec2dae74" target="_top" xlink:title="Executes defensive behavior.">
<polygon fill="white" stroke="#666666" points="516,-333 346,-333 346,-314 516,-314 516,-333"/>
<text text-anchor="middle" x="431" y="-321" font-family="Helvetica,sans-Serif" font-size="10.00">EnemyTank::defensiveBehavior</text>
</a>
</g>
</g>
<!-- Node2&#45;&gt;Node19 -->
<g id="edge33_Node000002_Node000019" class="edge">
<title>Node2&#45;&gt;Node19</title>
<g id="a_edge33_Node000002_Node000019"><a xlink:title=" ">
<path fill="none" stroke="#63b8ff" d="M310.21,-323.5C318.63,-323.5 327.26,-323.5 335.83,-323.5"/>
<polygon fill="#63b8ff" stroke="#63b8ff" points="335.84,-327 345.84,-323.5 335.84,-320 335.84,-327"/>
</a>
</g>
</g>
<!-- Node4 -->
<g id="Node000004" class="node">
<title>Node4</title>
<g id="a_Node000004"><a xlink:href="classTank.html#a6a39f37aa7ebbf66d0661815c43b37ef" target="_top" xlink:title="Checks if tank can fire.">
<polygon fill="white" stroke="#666666" points="1291.5,-693 1211.5,-693 1211.5,-674 1291.5,-674 1291.5,-693"/>
<text text-anchor="middle" x="1251.5" y="-681" font-family="Helvetica,sans-Serif" font-size="10.00">Tank::canFire</text>
</a>
</g>
</g>
<!-- Node3&#45;&gt;Node4 -->
<g id="edge3_Node000003_Node000004" class="edge">
<title>Node3&#45;&gt;Node4</title>
<g id="a_edge3_Node000003_Node000004"><a xlink:title=" ">
<path fill="none" stroke="#63b8ff" d="M662.94,-409.02C712.64,-430.65 837.57,-485.35 941,-533.5 1045.43,-582.11 1168.23,-642.64 1222.41,-669.52"/>
<polygon fill="#63b8ff" stroke="#63b8ff" points="1220.89,-672.68 1231.4,-673.99 1224,-666.41 1220.89,-672.68"/>
</a>
</g>
</g>
<!-- Node5 -->
<g id="Node000005" class="node">
<title>Node5</title>
<g id="a_Node000005"><a xlink:href="classEnemyTank.html#a85bd09ffb86b2c36c6b76fe6f6752324" target="_top" xlink:title="Moves away from player.">
<polygon fill="white" stroke="#666666" points="929.5,-371 775.5,-371 775.5,-352 929.5,-352 929.5,-371"/>
<text text-anchor="middle" x="852.5" y="-359" font-family="Helvetica,sans-Serif" font-size="10.00">EnemyTank::defensiveMove</text>
</a>
</g>
</g>
<!-- Node3&#45;&gt;Node5 -->
<g id="edge4_Node000003_Node000005" class="edge">
<title>Node3&#45;&gt;Node5</title>
<g id="a_edge4_Node000003_Node000005"><a xlink:title=" ">
<path fill="none" stroke="#63b8ff" d="M693.85,-389.96C722.62,-384.77 758.42,-378.3 788.62,-372.85"/>
<polygon fill="#63b8ff" stroke="#63b8ff" points="789.41,-376.26 798.63,-371.04 788.17,-369.38 789.41,-376.26"/>
</a>
</g>
</g>
<!-- Node6 -->
<g id="Node000006" class="node">
<title>Node6</title>
<g id="a_Node000006"><a xlink:href="classEnemyTank.html#a9eb0cacdd5e196535f1d60da1ca622ac" target="_top" xlink:title="Gets direction towards last known player position.">
<polygon fill="white" stroke="#666666" points="1142.5,-333.5 993.5,-333.5 993.5,-303.5 1142.5,-303.5 1142.5,-333.5"/>
<text text-anchor="start" x="1001.5" y="-321.5" font-family="Helvetica,sans-Serif" font-size="10.00">EnemyTank::getDirectionTo</text>
<text text-anchor="middle" x="1068" y="-310.5" font-family="Helvetica,sans-Serif" font-size="10.00">Player</text>
</a>
</g>
</g>
<!-- Node3&#45;&gt;Node6 -->
<g id="edge10_Node000003_Node000006" class="edge">
<title>Node3&#45;&gt;Node6</title>
<g id="a_edge10_Node000003_Node000006"><a xlink:title=" ">
<path fill="none" stroke="#63b8ff" d="M717.1,-409.01C780.05,-413.55 870.28,-412.18 941,-379.5 961.83,-369.88 957.2,-354.1 977,-342.5 980.02,-340.73 983.18,-339.09 986.42,-337.56"/>
<polygon fill="#63b8ff" stroke="#63b8ff" points="987.94,-340.72 995.76,-333.58 985.19,-334.29 987.94,-340.72"/>
</a>
</g>
</g>
<!-- Node9 -->
<g id="Node000009" class="node">
<title>Node9</title>
<g id="a_Node000009"><a xlink:href="classGameObject.html#a4bc41ca14c07e61dafa74a03c4f3e2df" target="_top" xlink:title="Rotates the object to face new direction.">
<polygon fill="white" stroke="#666666" points="1308,-347 1195,-347 1195,-328 1308,-328 1308,-347"/>
<text text-anchor="middle" x="1251.5" y="-335" font-family="Helvetica,sans-Serif" font-size="10.00">GameObject::rotate</text>
</a>
</g>
</g>
<!-- Node3&#45;&gt;Node9 -->
<g id="edge19_Node000003_Node000009" class="edge">
<title>Node3&#45;&gt;Node9</title>
<g id="a_edge19_Node000003_Node000009"><a xlink:title=" ">
<path fill="none" stroke="#63b8ff" d="M688.64,-409.05C781.83,-425.66 993.56,-453.18 1159,-398.5 1187.35,-389.13 1215.21,-368.44 1232.6,-353.76"/>
<polygon fill="#63b8ff" stroke="#63b8ff" points="1235,-356.31 1240.25,-347.11 1230.41,-351.03 1235,-356.31"/>
</a>
</g>
</g>
<!-- Node10 -->
<g id="Node000010" class="node">
<title>Node10</title>
<g id="a_Node000010"><a xlink:href="classEnemyTank.html#a99abccd6cdea62b595ec72f9e374d841" target="_top" xlink:title="Gets Manhattan distance to player.">
<polygon fill="white" stroke="#666666" points="926.5,-295.5 778.5,-295.5 778.5,-265.5 926.5,-265.5 926.5,-295.5"/>
<text text-anchor="start" x="786.5" y="-283.5" font-family="Helvetica,sans-Serif" font-size="10.00">EnemyTank::getDistanceTo</text>
<text text-anchor="middle" x="852.5" y="-272.5" font-family="Helvetica,sans-Serif" font-size="10.00">Player</text>
</a>
</g>
</g>
<!-- Node3&#45;&gt;Node10 -->
<g id="edge11_Node000003_Node000010" class="edge">
<title>Node3&#45;&gt;Node10</title>
<g id="a_edge11_Node000003_Node000010"><a xlink:title=" ">
<path fill="none" stroke="#63b8ff" d="M657.87,-389.96C692.08,-370.62 770.24,-326.44 816.11,-300.5"/>
<polygon fill="#63b8ff" stroke="#63b8ff" points="817.85,-303.54 824.84,-295.57 814.41,-297.45 817.85,-303.54"/>
</a>
</g>
</g>
<!-- Node11 -->
<g id="Node000011" class="node">
<title>Node11</title>
<g id="a_Node000011"><a xlink:href="classEnemyTank.html#abf1f9838c12039c2a0872181aeee713e" target="_top" xlink:title="Checks if tank has clear line of sight to player.">
<polygon fill="white" stroke="#666666" points="924,-561 781,-561 781,-542 924,-542 924,-561"/>
<text text-anchor="middle" x="852.5" y="-549" font-family="Helvetica,sans-Serif" font-size="10.00">EnemyTank::hasClearShot</text>
</a>
</g>
</g>
<!-- Node3&#45;&gt;Node11 -->
<g id="edge12_Node000003_Node000011" class="edge">
<title>Node3&#45;&gt;Node11</title>
<g id="a_edge12_Node000003_Node000011"><a xlink:title=" ">
<path fill="none" stroke="#63b8ff" d="M653.88,-409.02C676.22,-425.52 723.63,-460.43 764,-489.5 786.13,-505.43 811.58,-523.43 829.31,-535.91"/>
<polygon fill="#63b8ff" stroke="#63b8ff" points="827.62,-539.01 837.81,-541.9 831.65,-533.28 827.62,-539.01"/>
</a>
</g>
</g>
<!-- Node12 -->
<g id="Node000012" class="node">
<title>Node12</title>
<g id="a_Node000012"><a xlink:href="classEnemyTank.html#aa7421a7881c97b14301ef95e11fac1a8" target="_top" xlink:title="Moves towards player position.">
<polygon fill="white" stroke="#666666" points="941,-209 764,-209 764,-190 941,-190 941,-209"/>
<text text-anchor="middle" x="852.5" y="-197" font-family="Helvetica,sans-Serif" font-size="10.00">EnemyTank::moveTowardsPlayer</text>
</a>
</g>
</g>
<!-- Node3&#45;&gt;Node12 -->
<g id="edge13_Node000003_Node000012" class="edge">
<title>Node3&#45;&gt;Node12</title>
<g id="a_edge13_Node000003_Node000012"><a xlink:title=" ">
<path fill="none" stroke="#63b8ff" d="M647.69,-390C665,-365.81 713.48,-300.71 764,-256.5 782.82,-240.03 806.77,-224.76 824.85,-214.18"/>
<polygon fill="#63b8ff" stroke="#63b8ff" points="826.78,-217.1 833.71,-209.09 823.3,-211.03 826.78,-217.1"/>
</a>
</g>
</g>
<!-- Node5&#45;&gt;Node6 -->
<g id="edge5_Node000005_Node000006" class="edge">
<title>Node5&#45;&gt;Node6</title>
<g id="a_edge5_Node000005_Node000006"><a xlink:title=" ">
<path fill="none" stroke="#63b8ff" d="M900.88,-351.96C925.17,-347.07 955.47,-340.96 983.51,-335.31"/>
<polygon fill="#63b8ff" stroke="#63b8ff" points="984.21,-338.74 993.32,-333.34 982.83,-331.88 984.21,-338.74"/>
</a>
</g>
</g>
<!-- Node7 -->
<g id="Node000007" class="node">
<title>Node7</title>
<g id="a_Node000007"><a xlink:href="classEnemyTank.html#a8e77035e33942a8ac511fbb3970917bc" target="_top" xlink:title="Gets opposite direction.">
<polygon fill="white" stroke="#666666" points="1159,-371 977,-371 977,-352 1159,-352 1159,-371"/>
<text text-anchor="middle" x="1068" y="-359" font-family="Helvetica,sans-Serif" font-size="10.00">EnemyTank::getOppositeDirection</text>
</a>
</g>
</g>
<!-- Node5&#45;&gt;Node7 -->
<g id="edge6_Node000005_Node000007" class="edge">
<title>Node5&#45;&gt;Node7</title>
<g id="a_edge6_Node000005_Node000007"><a xlink:title=" ">
<path fill="none" stroke="#63b8ff" d="M929.67,-361.5C941.77,-361.5 954.44,-361.5 966.98,-361.5"/>
<polygon fill="#63b8ff" stroke="#63b8ff" points="967,-365 977,-361.5 967,-358 967,-365"/>
</a>
</g>
</g>
<!-- Node8 -->
<g id="Node000008" class="node">
<title>Node8</title>
<g id="a_Node000008"><a xlink:href="classEnemyTank.html#ad9f295f9b2df24bb291db3783b292289" target="_top" xlink:title="Moves enemy tank in specified direction.">
<polygon fill="white" stroke="#666666" points="1121.5,-209 1014.5,-209 1014.5,-190 1121.5,-190 1121.5,-209"/>
<text text-anchor="middle" x="1068" y="-197" font-family="Helvetica,sans-Serif" font-size="10.00">EnemyTank::move</text>
</a>
</g>
</g>
<!-- Node5&#45;&gt;Node8 -->
<g id="edge7_Node000005_Node000008" class="edge">
<title>Node5&#45;&gt;Node8</title>
<g id="a_edge7_Node000005_Node000008"><a xlink:title=" ">
<path fill="none" stroke="#63b8ff" d="M869.36,-351.95C887.19,-341.04 916.79,-322.38 941,-304.5 980.75,-275.15 1024.51,-237.34 1048.58,-216.03"/>
<polygon fill="#63b8ff" stroke="#63b8ff" points="1051.08,-218.48 1056.23,-209.22 1046.43,-213.25 1051.08,-218.48"/>
</a>
</g>
</g>
<!-- Node5&#45;&gt;Node9 -->
<g id="edge9_Node000005_Node000009" class="edge">
<title>Node5&#45;&gt;Node9</title>
<g id="a_edge9_Node000005_Node000009"><a xlink:title=" ">
<path fill="none" stroke="#63b8ff" d="M895.07,-371.02C954.38,-383.01 1066.35,-399.75 1159,-379.5 1182.92,-374.27 1208.05,-362.19 1225.91,-352.32"/>
<polygon fill="#63b8ff" stroke="#63b8ff" points="1228.08,-355.12 1235.03,-347.13 1224.61,-349.04 1228.08,-355.12"/>
</a>
</g>
</g>
<!-- Node8&#45;&gt;Node9 -->
<g id="edge8_Node000008_Node000009" class="edge">
<title>Node8&#45;&gt;Node9</title>
<g id="a_edge8_Node000008_Node000009"><a xlink:title=" ">
<path fill="none" stroke="#63b8ff" d="M1095.18,-209.09C1113.91,-216.62 1139.2,-228.22 1159,-242.5 1190.36,-265.12 1220.16,-299.24 1236.82,-319.84"/>
<polygon fill="#63b8ff" stroke="#63b8ff" points="1234.15,-322.12 1243.12,-327.77 1239.64,-317.76 1234.15,-322.12"/>
</a>
</g>
</g>
<!-- Node12&#45;&gt;Node6 -->
<g id="edge14_Node000012_Node000006" class="edge">
<title>Node12&#45;&gt;Node6</title>
<g id="a_edge14_Node000012_Node000006"><a xlink:title=" ">
<path fill="none" stroke="#63b8ff" d="M909.55,-209.06C920.55,-212.5 931.59,-217.17 941,-223.5 962.83,-238.19 956.94,-253.48 977,-270.5 990.2,-281.69 1006.43,-291.34 1021.46,-298.98"/>
<polygon fill="#63b8ff" stroke="#63b8ff" points="1020.11,-302.22 1030.63,-303.48 1023.19,-295.93 1020.11,-302.22"/>
</a>
</g>
</g>
<!-- Node12&#45;&gt;Node8 -->
<g id="edge15_Node000012_Node000008" class="edge">
<title>Node12&#45;&gt;Node8</title>
<g id="a_edge15_Node000012_Node000008"><a xlink:title=" ">
<path fill="none" stroke="#63b8ff" d="M941.26,-199.5C962.42,-199.5 984.6,-199.5 1004.34,-199.5"/>
<polygon fill="#63b8ff" stroke="#63b8ff" points="1004.43,-203 1014.43,-199.5 1004.43,-196 1004.43,-203"/>
</a>
</g>
</g>
<!-- Node12&#45;&gt;Node9 -->
<g id="edge18_Node000012_Node000009" class="edge">
<title>Node12&#45;&gt;Node9</title>
<g id="a_edge18_Node000012_Node000009"><a xlink:title=" ">
<path fill="none" stroke="#63b8ff" d="M894.19,-209.04C908.99,-212.69 925.82,-217.06 941,-221.5 1039.06,-250.2 1064.16,-256.48 1159,-294.5 1180.72,-303.21 1204.63,-314.51 1222.56,-323.34"/>
<polygon fill="#63b8ff" stroke="#63b8ff" points="1221.34,-326.64 1231.86,-327.96 1224.46,-320.37 1221.34,-326.64"/>
</a>
</g>
</g>
<!-- Node12&#45;&gt;Node13 -->
<g id="edge16_Node000012_Node000013" class="edge">
<title>Node12&#45;&gt;Node13</title>
<g id="a_edge16_Node000012_Node000013"><a xlink:title=" ">
<path fill="none" stroke="#63b8ff" d="M868.85,-189.93C905.54,-167.08 998.53,-109.16 1042.82,-81.56"/>
<polygon fill="#63b8ff" stroke="#63b8ff" points="1044.86,-84.42 1051.5,-76.16 1041.16,-78.47 1044.86,-84.42"/>
</a>
</g>
</g>
<!-- Node13&#45;&gt;Node9 -->
<g id="edge17_Node000013_Node000009" class="edge">
<title>Node13&#45;&gt;Node9</title>
<g id="a_edge17_Node000013_Node000009"><a xlink:title=" ">
<path fill="none" stroke="#63b8ff" d="M1134.79,-76.03C1143.65,-79.5 1152.06,-84.19 1159,-90.5 1227.58,-152.91 1244.93,-271.43 1249.17,-318.01"/>
<polygon fill="#63b8ff" stroke="#63b8ff" points="1245.69,-318.3 1249.98,-327.99 1252.66,-317.74 1245.69,-318.3"/>
</a>
</g>
</g>
<!-- Node14&#45;&gt;Node4 -->
<g id="edge21_Node000014_Node000004" class="edge">
<title>Node14&#45;&gt;Node4</title>
<g id="a_edge21_Node000014_Node000004"><a xlink:title=" ">
<path fill="none" stroke="#63b8ff" d="M650.58,-599.15C670.14,-618.31 716.79,-661.27 764,-684.5 851.82,-727.72 879.92,-727.95 977,-740.5 1057.22,-750.87 1081.23,-762.74 1159,-740.5 1186.58,-732.61 1213.94,-713.73 1231.45,-699.86"/>
<polygon fill="#63b8ff" stroke="#63b8ff" points="1234.14,-702.18 1239.66,-693.14 1229.7,-696.76 1234.14,-702.18"/>
</a>
</g>
</g>
<!-- Node14&#45;&gt;Node6 -->
<g id="edge29_Node000014_Node000006" class="edge">
<title>Node14&#45;&gt;Node6</title>
<g id="a_edge29_Node000014_Node000006"><a xlink:title=" ">
<path fill="none" stroke="#63b8ff" d="M710.1,-594.7C788.1,-598.96 908.4,-600.19 941,-570.5 1016.85,-501.42 908.33,-418.71 977,-342.5 979.4,-339.84 982.06,-337.45 984.92,-335.32"/>
<polygon fill="#63b8ff" stroke="#63b8ff" points="986.83,-338.25 993.43,-329.97 983.1,-332.33 986.83,-338.25"/>
</a>
</g>
</g>
<!-- Node14&#45;&gt;Node9 -->
<g id="edge31_Node000014_Node000009" class="edge">
<title>Node14&#45;&gt;Node9</title>
<g id="a_edge31_Node000014_Node000009"><a xlink:title=" ">
<path fill="none" stroke="#63b8ff" d="M710.24,-594.79C727.77,-595.92 746.57,-596.93 764,-597.5 842.63,-600.05 871.15,-633.69 941,-597.5 965.63,-584.74 953.81,-561.73 977,-546.5 1046.08,-501.15 1092.85,-558.02 1159,-508.5 1210.78,-469.73 1236.38,-392.84 1245.93,-356.88"/>
<polygon fill="#63b8ff" stroke="#63b8ff" points="1249.33,-357.68 1248.38,-347.13 1242.55,-355.97 1249.33,-357.68"/>
</a>
</g>
</g>
<!-- Node14&#45;&gt;Node11 -->
<g id="edge30_Node000014_Node000011" class="edge">
<title>Node14&#45;&gt;Node11</title>
<g id="a_edge30_Node000014_Node000011"><a xlink:title=" ">
<path fill="none" stroke="#63b8ff" d="M693.85,-579.96C722.62,-574.77 758.42,-568.3 788.62,-562.85"/>
<polygon fill="#63b8ff" stroke="#63b8ff" points="789.41,-566.26 798.63,-561.04 788.17,-559.38 789.41,-566.26"/>
</a>
</g>
</g>
<!-- Node15 -->
<g id="Node000015" class="node">
<title>Node15</title>
<g id="a_Node000015"><a xlink:href="classEnemyTank.html#a502b571b6aadbbcd72392d182b7fd85c" target="_top" xlink:title="Fires projectile from enemy tank.">
<polygon fill="white" stroke="#666666" points="900,-675 805,-675 805,-656 900,-656 900,-675"/>
<text text-anchor="middle" x="852.5" y="-663" font-family="Helvetica,sans-Serif" font-size="10.00">EnemyTank::fire</text>
</a>
</g>
</g>
<!-- Node14&#45;&gt;Node15 -->
<g id="edge22_Node000014_Node000015" class="edge">
<title>Node14&#45;&gt;Node15</title>
<g id="a_edge22_Node000014_Node000015"><a xlink:title=" ">
<path fill="none" stroke="#63b8ff" d="M661.57,-599.18C685.73,-610.33 727.2,-628.74 764,-641.5 776.33,-645.78 789.84,-649.8 802.48,-653.28"/>
<polygon fill="#63b8ff" stroke="#63b8ff" points="801.83,-656.73 812.4,-655.96 803.65,-649.97 801.83,-656.73"/>
</a>
</g>
</g>
<!-- Node15&#45;&gt;Node4 -->
<g id="edge23_Node000015_Node000004" class="edge">
<title>Node15&#45;&gt;Node4</title>
<g id="a_edge23_Node000015_Node000004"><a xlink:title=" ">
<path fill="none" stroke="#63b8ff" d="M900.21,-663.05C960.25,-660.49 1067.64,-657.93 1159,-666.5 1172.72,-667.79 1187.45,-670.1 1200.99,-672.62"/>
<polygon fill="#63b8ff" stroke="#63b8ff" points="1200.6,-676.11 1211.09,-674.57 1201.93,-669.23 1200.6,-676.11"/>
</a>
</g>
</g>
<!-- Node15&#45;&gt;Node6 -->
<g id="edge26_Node000015_Node000006" class="edge">
<title>Node15&#45;&gt;Node6</title>
<g id="a_edge26_Node000015_Node000006"><a xlink:title=" ">
<path fill="none" stroke="#63b8ff" d="M876.22,-655.87C896.73,-645.92 925.93,-628.33 941,-603.5 1001.78,-503.41 899.47,-430.25 977,-342.5 979.37,-339.81 982.01,-337.41 984.85,-335.27"/>
<polygon fill="#63b8ff" stroke="#63b8ff" points="986.77,-338.19 993.33,-329.87 983.01,-332.29 986.77,-338.19"/>
</a>
</g>
</g>
<!-- Node15&#45;&gt;Node9 -->
<g id="edge27_Node000015_Node000009" class="edge">
<title>Node15&#45;&gt;Node9</title>
<g id="a_edge27_Node000015_Node000009"><a xlink:title=" ">
<path fill="none" stroke="#63b8ff" d="M900.22,-659.22C966.26,-647.98 1086.89,-618.48 1159,-546.5 1214.09,-491.5 1238.52,-397.78 1246.9,-357.2"/>
<polygon fill="#63b8ff" stroke="#63b8ff" points="1250.36,-357.72 1248.85,-347.24 1243.49,-356.38 1250.36,-357.72"/>
</a>
</g>
</g>
<!-- Node16 -->
<g id="Node000016" class="node">
<title>Node16</title>
<g id="a_Node000016"><a xlink:href="classTank.html#a99218709d4502fafb8e0787121a68e54" target="_top" xlink:title="Fires a projectile from the tank.">
<polygon fill="white" stroke="#666666" points="1098.5,-731 1037.5,-731 1037.5,-712 1098.5,-712 1098.5,-731"/>
<text text-anchor="middle" x="1068" y="-719" font-family="Helvetica,sans-Serif" font-size="10.00">Tank::fire</text>
</a>
</g>
</g>
<!-- Node15&#45;&gt;Node16 -->
<g id="edge24_Node000015_Node000016" class="edge">
<title>Node15&#45;&gt;Node16</title>
<g id="a_edge24_Node000015_Node000016"><a xlink:title=" ">
<path fill="none" stroke="#63b8ff" d="M881.72,-675.08C906.6,-683.3 943.94,-695.13 977,-703.5 993.35,-707.64 1011.56,-711.43 1027.3,-714.46"/>
<polygon fill="#63b8ff" stroke="#63b8ff" points="1026.76,-717.92 1037.24,-716.33 1028.06,-711.04 1026.76,-717.92"/>
</a>
</g>
</g>
<!-- Node17 -->
<g id="Node000017" class="node">
<title>Node17</title>
<g id="a_Node000017"><a xlink:href="classProjectile.html#a667a26abf9fb92759a4935fbd439c701" target="_top" xlink:title="Sets new damage value for projectile.">
<polygon fill="white" stroke="#666666" points="1130.5,-694 1005.5,-694 1005.5,-675 1130.5,-675 1130.5,-694"/>
<text text-anchor="middle" x="1068" y="-682" font-family="Helvetica,sans-Serif" font-size="10.00">Projectile::setDamage</text>
</a>
</g>
</g>
<!-- Node15&#45;&gt;Node17 -->
<g id="edge28_Node000015_Node000017" class="edge">
<title>Node15&#45;&gt;Node17</title>
<g id="a_edge28_Node000015_Node000017"><a xlink:title=" ">
<path fill="none" stroke="#63b8ff" d="M900.09,-669.65C927.88,-672.12 963.74,-675.31 995.1,-678.1"/>
<polygon fill="#63b8ff" stroke="#63b8ff" points="994.84,-681.59 1005.11,-678.99 995.46,-674.62 994.84,-681.59"/>
</a>
</g>
</g>
<!-- Node16&#45;&gt;Node4 -->
<g id="edge25_Node000016_Node000004" class="edge">
<title>Node16&#45;&gt;Node4</title>
<g id="a_edge25_Node000016_Node000004"><a xlink:title=" ">
<path fill="none" stroke="#63b8ff" d="M1098.62,-715.71C1116.18,-712.25 1138.88,-707.71 1159,-703.5 1172.83,-700.61 1187.82,-697.37 1201.58,-694.36"/>
<polygon fill="#63b8ff" stroke="#63b8ff" points="1202.33,-697.78 1211.35,-692.22 1200.83,-690.94 1202.33,-697.78"/>
</a>
</g>
</g>
<!-- Node19&#45;&gt;Node5 -->
<g id="edge40_Node000019_Node000005" class="edge">
<title>Node19&#45;&gt;Node5</title>
<g id="a_edge40_Node000019_Node000005"><a xlink:title=" ">
<path fill="none" stroke="#63b8ff" d="M510.06,-333.02C524.02,-334.61 538.43,-336.17 552,-337.5 623.77,-344.56 705.37,-350.99 765.25,-355.42"/>
<polygon fill="#63b8ff" stroke="#63b8ff" points="765.19,-358.92 775.42,-356.17 765.71,-351.94 765.19,-358.92"/>
</a>
</g>
</g>
<!-- Node19&#45;&gt;Node6 -->
<g id="edge47_Node000019_Node000006" class="edge">
<title>Node19&#45;&gt;Node6</title>
<g id="a_edge47_Node000019_Node000006"><a xlink:title=" ">
<path fill="none" stroke="#63b8ff" d="M516.32,-322.84C637.94,-321.88 861.29,-320.12 982.83,-319.16"/>
<polygon fill="#63b8ff" stroke="#63b8ff" points="983.22,-322.66 993.19,-319.08 983.16,-315.66 983.22,-322.66"/>
</a>
</g>
</g>
<!-- Node19&#45;&gt;Node9 -->
<g id="edge50_Node000019_Node000009" class="edge">
<title>Node19&#45;&gt;Node9</title>
<g id="a_edge50_Node000019_Node000009"><a xlink:title=" ">
<path fill="none" stroke="#63b8ff" d="M440.49,-333.05C458.68,-352.78 503.71,-397.86 552,-417.5 639.79,-453.21 669.36,-435.38 764,-440.5 939.38,-449.99 998.54,-499.93 1159,-428.5 1194.1,-412.87 1223.24,-377.34 1238.65,-355.59"/>
<polygon fill="#63b8ff" stroke="#63b8ff" points="1241.62,-357.44 1244.39,-347.21 1235.85,-353.48 1241.62,-357.44"/>
</a>
</g>
</g>
<!-- Node19&#45;&gt;Node10 -->
<g id="edge48_Node000019_Node000010" class="edge">
<title>Node19&#45;&gt;Node10</title>
<g id="a_edge48_Node000019_Node000010"><a xlink:title=" ">
<path fill="none" stroke="#63b8ff" d="M511.69,-313.98C525.14,-312.44 538.96,-310.89 552,-309.5 624.92,-301.72 707.92,-293.75 768.03,-288.14"/>
<polygon fill="#63b8ff" stroke="#63b8ff" points="768.59,-291.6 778.22,-287.19 767.94,-284.63 768.59,-291.6"/>
</a>
</g>
</g>
<!-- Node19&#45;&gt;Node11 -->
<g id="edge49_Node000019_Node000011" class="edge">
<title>Node19&#45;&gt;Node11</title>
<g id="a_edge49_Node000019_Node000011"><a xlink:title=" ">
<path fill="none" stroke="#63b8ff" d="M436.18,-333.04C452.6,-370.09 513.69,-503.51 552,-527.5 623.65,-572.37 724.63,-570.05 789.08,-562.3"/>
<polygon fill="#63b8ff" stroke="#63b8ff" points="789.62,-565.76 799.09,-561.02 788.73,-558.82 789.62,-565.76"/>
</a>
</g>
</g>
<!-- Node20 -->
<g id="Node000020" class="node">
<title>Node20</title>
<g id="a_Node000020"><a xlink:href="classEnemyTank.html#aa70aff895200207527e2465c9439fc05" target="_top" xlink:title="Carefully approaches player.">
<polygon fill="white" stroke="#666666" points="723,-228 557,-228 557,-209 723,-209 723,-228"/>
<text text-anchor="middle" x="640" y="-216" font-family="Helvetica,sans-Serif" font-size="10.00">EnemyTank::cautiousApproach</text>
</a>
</g>
</g>
<!-- Node19&#45;&gt;Node20 -->
<g id="edge34_Node000019_Node000020" class="edge">
<title>Node19&#45;&gt;Node20</title>
<g id="a_edge34_Node000019_Node000020"><a xlink:title=" ">
<path fill="none" stroke="#63b8ff" d="M450.73,-314C487.28,-295.46 568.25,-254.39 611.12,-232.64"/>
<polygon fill="#63b8ff" stroke="#63b8ff" points="612.82,-235.7 620.16,-228.06 609.66,-229.46 612.82,-235.7"/>
</a>
</g>
</g>
<!-- Node21 -->
<g id="Node000021" class="node">
<title>Node21</title>
<g id="a_Node000021"><a xlink:href="classEnemyTank.html#a3038987b5595e2ec68508dfde4a35d51" target="_top" xlink:title="Searches for cover.">
<polygon fill="white" stroke="#666666" points="915,-95 790,-95 790,-76 915,-76 915,-95"/>
<text text-anchor="middle" x="852.5" y="-83" font-family="Helvetica,sans-Serif" font-size="10.00">EnemyTank::findCover</text>
</a>
</g>
</g>
<!-- Node19&#45;&gt;Node21 -->
<g id="edge41_Node000019_Node000021" class="edge">
<title>Node19&#45;&gt;Node21</title>
<g id="a_edge41_Node000019_Node000021"><a xlink:title=" ">
<path fill="none" stroke="#63b8ff" d="M439.11,-313.85C456.24,-291.15 502.11,-233.75 552,-199.5 629.66,-146.18 735.62,-113.52 798.46,-97.52"/>
<polygon fill="#63b8ff" stroke="#63b8ff" points="799.69,-100.82 808.54,-95 797.99,-94.03 799.69,-100.82"/>
</a>
</g>
</g>
<!-- Node20&#45;&gt;Node6 -->
<g id="edge35_Node000020_Node000006" class="edge">
<title>Node20&#45;&gt;Node6</title>
<g id="a_edge35_Node000020_Node000006"><a xlink:title=" ">
<path fill="none" stroke="#63b8ff" d="M723.05,-221.58C784.21,-225.62 869.22,-234.95 941,-256.5 958.72,-261.82 999.73,-282.63 1030.18,-298.69"/>
<polygon fill="#63b8ff" stroke="#63b8ff" points="1028.77,-301.91 1039.25,-303.5 1032.05,-295.72 1028.77,-301.91"/>
</a>
</g>
</g>
<!-- Node20&#45;&gt;Node8 -->
<g id="edge37_Node000020_Node000008" class="edge">
<title>Node20&#45;&gt;Node8</title>
<g id="a_edge37_Node000020_Node000008"><a xlink:title=" ">
<path fill="none" stroke="#63b8ff" d="M664.54,-208.9C688.94,-199.52 728.42,-185.87 764,-180.5 847.93,-167.83 946.16,-178.62 1007.5,-188.37"/>
<polygon fill="#63b8ff" stroke="#63b8ff" points="1006.95,-191.82 1017.39,-189.98 1008.08,-184.92 1006.95,-191.82"/>
</a>
</g>
</g>
<!-- Node20&#45;&gt;Node9 -->
<g id="edge39_Node000020_Node000009" class="edge">
<title>Node20&#45;&gt;Node9</title>
<g id="a_edge39_Node000020_Node000009"><a xlink:title=" ">
<path fill="none" stroke="#63b8ff" d="M659.55,-208.94C683.1,-197.4 725.33,-178.64 764,-171.5 936.69,-139.63 1008.58,-89.89 1159,-180.5 1210.45,-211.49 1235.98,-283.23 1245.69,-317.96"/>
<polygon fill="#63b8ff" stroke="#63b8ff" points="1242.36,-319.06 1248.3,-327.84 1249.13,-317.27 1242.36,-319.06"/>
</a>
</g>
</g>
<!-- Node20&#45;&gt;Node10 -->
<g id="edge36_Node000020_Node000010" class="edge">
<title>Node20&#45;&gt;Node10</title>
<g id="a_edge36_Node000020_Node000010"><a xlink:title=" ">
<path fill="none" stroke="#63b8ff" d="M673.43,-228.05C704.45,-237.19 752.02,-251.2 790.19,-262.44"/>
<polygon fill="#63b8ff" stroke="#63b8ff" points="789.6,-265.92 800.18,-265.38 791.58,-259.2 789.6,-265.92"/>
</a>
</g>
</g>
<!-- Node20&#45;&gt;Node12 -->
<g id="edge38_Node000020_Node000012" class="edge">
<title>Node20&#45;&gt;Node12</title>
<g id="a_edge38_Node000020_Node000012"><a xlink:title=" ">
<path fill="none" stroke="#63b8ff" d="M723.29,-211.07C733.23,-210.17 743.47,-209.25 753.61,-208.34"/>
<polygon fill="#63b8ff" stroke="#63b8ff" points="754.06,-211.81 763.71,-207.42 753.43,-204.84 754.06,-211.81"/>
</a>
</g>
</g>
<!-- Node21&#45;&gt;Node6 -->
<g id="edge42_Node000021_Node000006" class="edge">
<title>Node21&#45;&gt;Node6</title>
<g id="a_edge42_Node000021_Node000006"><a xlink:title=" ">
<path fill="none" stroke="#63b8ff" d="M862.46,-95.2C878.31,-112.37 912.36,-149.27 941,-180.5 978.12,-220.98 1021.25,-268.27 1046.2,-295.66"/>
<polygon fill="#63b8ff" stroke="#63b8ff" points="1043.72,-298.13 1053.04,-303.16 1048.89,-293.41 1043.72,-298.13"/>
</a>
</g>
</g>
<!-- Node21&#45;&gt;Node8 -->
<g id="edge44_Node000021_Node000008" class="edge">
<title>Node21&#45;&gt;Node8</title>
<g id="a_edge44_Node000021_Node000008"><a xlink:title=" ">
<path fill="none" stroke="#63b8ff" d="M871.34,-95.02C908.78,-115.02 995.75,-161.46 1040.04,-185.11"/>
<polygon fill="#63b8ff" stroke="#63b8ff" points="1038.6,-188.3 1049.06,-189.92 1041.89,-182.13 1038.6,-188.3"/>
</a>
</g>
</g>
<!-- Node21&#45;&gt;Node9 -->
<g id="edge46_Node000021_Node000009" class="edge">
<title>Node21&#45;&gt;Node9</title>
<g id="a_edge46_Node000021_Node000009"><a xlink:title=" ">
<path fill="none" stroke="#63b8ff" d="M915.02,-87.2C992.98,-90.51 1121.72,-100.22 1159,-128.5 1221.57,-175.97 1242.11,-275.28 1248.19,-317.66"/>
<polygon fill="#63b8ff" stroke="#63b8ff" points="1244.72,-318.12 1249.49,-327.57 1251.66,-317.2 1244.72,-318.12"/>
</a>
</g>
</g>
<!-- Node21&#45;&gt;Node13 -->
<g id="edge45_Node000021_Node000013" class="edge">
<title>Node21&#45;&gt;Node13</title>
<g id="a_edge45_Node000021_Node000013"><a xlink:title=" ">
<path fill="none" stroke="#63b8ff" d="M915.25,-80C934.73,-78.27 956.65,-76.32 977.64,-74.45"/>
<polygon fill="#63b8ff" stroke="#63b8ff" points="978.21,-77.92 987.86,-73.54 977.59,-70.94 978.21,-77.92"/>
</a>
</g>
</g>
<!-- Node22 -->
<g id="Node000022" class="node">
<title>Node22</title>
<g id="a_Node000022"><a xlink:href="classEnemyTank.html#a8e7ed1aeded64d0b118d54a5f78099b2" target="_top" xlink:title="Gets perpendicular direction.">
<polygon fill="white" stroke="#666666" points="1148.5,-38.5 987.5,-38.5 987.5,-8.5 1148.5,-8.5 1148.5,-38.5"/>
<text text-anchor="start" x="995.5" y="-26.5" font-family="Helvetica,sans-Serif" font-size="10.00">EnemyTank::getPerpendicular</text>
<text text-anchor="middle" x="1068" y="-15.5" font-family="Helvetica,sans-Serif" font-size="10.00">Direction</text>
</a>
</g>
</g>
<!-- Node21&#45;&gt;Node22 -->
<g id="edge43_Node000021_Node000022" class="edge">
<title>Node21&#45;&gt;Node22</title>
<g id="a_edge43_Node000021_Node000022"><a xlink:title=" ">
<path fill="none" stroke="#63b8ff" d="M883.35,-75.97C908.31,-68.08 944.87,-56.72 977,-47.5 984.24,-45.42 991.83,-43.3 999.39,-41.23"/>
<polygon fill="#63b8ff" stroke="#63b8ff" points="1000.56,-44.54 1009.3,-38.54 998.73,-37.79 1000.56,-44.54"/>
</a>
</g>
</g>
</g>
</svg>
