<?xml version="1.0" encoding="UTF-8" standalone="no"?>
<!DOCTYPE svg PUBLIC "-//W3C//DTD SVG 1.1//EN"
 "http://www.w3.org/Graphics/SVG/1.1/DTD/svg11.dtd">
<!-- Generated by graphviz version 2.43.0 (0)
 -->
<!-- Title: ConsoleRenderer::setColor Pages: 1 -->
<svg width="1858pt" height="183pt"
 viewBox="0.00 0.00 1858.00 183.17" xmlns="http://www.w3.org/2000/svg" xmlns:xlink="http://www.w3.org/1999/xlink">
<g id="graph0" class="graph" transform="scale(1 1) rotate(0) translate(4 179.17)">
<title>ConsoleRenderer::setColor</title>
<!-- Node1 -->
<g id="Node000001" class="node">
<title>Node1</title>
<g id="a_Node000001"><a xlink:title="Sets terminal text color.">
<polygon fill="#999999" stroke="#666666" points="1850,-68 1704,-68 1704,-49 1850,-49 1850,-68"/>
<text text-anchor="middle" x="1777" y="-56" font-family="Helvetica,sans-Serif" font-size="10.00">ConsoleRenderer::setColor</text>
</a>
</g>
</g>
<!-- Node2 -->
<g id="Node000002" class="node">
<title>Node2</title>
<g id="a_Node000002"><a xlink:href="classConsoleRenderer.html#ab6e419a1d0f420decceba8e545890318" target="_top" xlink:title="Draws map preview for selection screen.">
<polygon fill="white" stroke="#666666" points="1660,-138.5 1509,-138.5 1509,-108.5 1660,-108.5 1660,-138.5"/>
<text text-anchor="start" x="1517" y="-126.5" font-family="Helvetica,sans-Serif" font-size="10.00">ConsoleRenderer::drawMap</text>
<text text-anchor="middle" x="1584.5" y="-115.5" font-family="Helvetica,sans-Serif" font-size="10.00">Preview</text>
</a>
</g>
</g>
<!-- Node1&#45;&gt;Node2 -->
<g id="edge1_Node000001_Node000002" class="edge">
<title>Node1&#45;&gt;Node2</title>
<g id="a_edge1_Node000001_Node000002"><a xlink:title=" ">
<path fill="none" stroke="#63b8ff" d="M1743.07,-71.78C1721.8,-80.17 1693.45,-90.98 1668,-99.5 1658.81,-102.58 1648.96,-105.64 1639.39,-108.49"/>
<polygon fill="#63b8ff" stroke="#63b8ff" points="1744.59,-74.94 1752.6,-68 1742.01,-68.44 1744.59,-74.94"/>
</a>
</g>
</g>
<!-- Node12 -->
<g id="Node000012" class="node">
<title>Node12</title>
<g id="a_Node000012"><a xlink:href="classConsoleRenderer.html#a216eb9680760729497094ddbebb118e2" target="_top" xlink:title="Draws a single colored pixel/character.">
<polygon fill="white" stroke="#666666" points="1661,-90 1508,-90 1508,-71 1661,-71 1661,-90"/>
<text text-anchor="middle" x="1584.5" y="-78" font-family="Helvetica,sans-Serif" font-size="10.00">ConsoleRenderer::drawPixel</text>
</a>
</g>
</g>
<!-- Node1&#45;&gt;Node12 -->
<g id="edge16_Node000001_Node000012" class="edge">
<title>Node1&#45;&gt;Node12</title>
<g id="a_edge16_Node000001_Node000012"><a xlink:title=" ">
<path fill="none" stroke="#63b8ff" d="M1694.03,-67.97C1683.1,-69.23 1671.93,-70.52 1661.11,-71.77"/>
<polygon fill="#63b8ff" stroke="#63b8ff" points="1694.45,-71.44 1703.98,-66.82 1693.64,-64.49 1694.45,-71.44"/>
</a>
</g>
</g>
<!-- Node13 -->
<g id="Node000013" class="node">
<title>Node13</title>
<g id="a_Node000013"><a xlink:href="classConsoleRenderer.html#ae0a5ec8d9b0ab1252c3a8a9eae7bceaa" target="_top" xlink:title="Draws symbol legend explaining game symbols.">
<polygon fill="white" stroke="#666666" points="1668,-52.5 1501,-52.5 1501,-22.5 1668,-22.5 1668,-52.5"/>
<text text-anchor="start" x="1509" y="-40.5" font-family="Helvetica,sans-Serif" font-size="10.00">ConsoleRenderer::drawSymbol</text>
<text text-anchor="middle" x="1584.5" y="-29.5" font-family="Helvetica,sans-Serif" font-size="10.00">Legend</text>
</a>
</g>
</g>
<!-- Node1&#45;&gt;Node13 -->
<g id="edge17_Node000001_Node000013" class="edge">
<title>Node1&#45;&gt;Node13</title>
<g id="a_edge17_Node000001_Node000013"><a xlink:title=" ">
<path fill="none" stroke="#63b8ff" d="M1694.01,-49.46C1685.45,-48.52 1676.74,-47.56 1668.17,-46.61"/>
<polygon fill="#63b8ff" stroke="#63b8ff" points="1693.66,-52.94 1703.98,-50.56 1694.42,-45.99 1693.66,-52.94"/>
</a>
</g>
</g>
<!-- Node14 -->
<g id="Node000014" class="node">
<title>Node14</title>
<g id="a_Node000014"><a xlink:href="classConsoleRenderer.html#ab34fa7af4ede79de3951f1d5271d7a27" target="_top" xlink:title="Renders the game world to console.">
<polygon fill="white" stroke="#666666" points="1458,-19 1321,-19 1321,0 1458,0 1458,-19"/>
<text text-anchor="middle" x="1389.5" y="-7" font-family="Helvetica,sans-Serif" font-size="10.00">ConsoleRenderer::render</text>
</a>
</g>
</g>
<!-- Node1&#45;&gt;Node14 -->
<g id="edge20_Node000001_Node000014" class="edge">
<title>Node1&#45;&gt;Node14</title>
<g id="a_edge20_Node000001_Node000014"><a xlink:title=" ">
<path fill="none" stroke="#63b8ff" d="M1749.64,-44.17C1728.32,-33.42 1697.15,-19.55 1668,-13.5 1597.47,1.14 1514.68,0.04 1458,-3.4"/>
<polygon fill="#63b8ff" stroke="#63b8ff" points="1748.21,-47.38 1758.7,-48.86 1751.43,-41.16 1748.21,-47.38"/>
</a>
</g>
</g>
<!-- Node3 -->
<g id="Node000003" class="node">
<title>Node3</title>
<g id="a_Node000003"><a xlink:href="classConsoleRenderer.html#afd03640670c991dfa8240af639c2f0da" target="_top" xlink:title="Draws map selection screen.">
<polygon fill="white" stroke="#666666" points="1465,-138.5 1314,-138.5 1314,-108.5 1465,-108.5 1465,-138.5"/>
<text text-anchor="start" x="1322" y="-126.5" font-family="Helvetica,sans-Serif" font-size="10.00">ConsoleRenderer::drawMap</text>
<text text-anchor="middle" x="1389.5" y="-115.5" font-family="Helvetica,sans-Serif" font-size="10.00">Selection</text>
</a>
</g>
</g>
<!-- Node2&#45;&gt;Node3 -->
<g id="edge2_Node000002_Node000003" class="edge">
<title>Node2&#45;&gt;Node3</title>
<g id="a_edge2_Node000002_Node000003"><a xlink:title=" ">
<path fill="none" stroke="#63b8ff" d="M1498.72,-123.5C1487.57,-123.5 1476.21,-123.5 1465.24,-123.5"/>
<polygon fill="#63b8ff" stroke="#63b8ff" points="1498.88,-127 1508.88,-123.5 1498.88,-120 1498.88,-127"/>
</a>
</g>
</g>
<!-- Node4 -->
<g id="Node000004" class="node">
<title>Node4</title>
<g id="a_Node000004"><a xlink:href="classGameController.html#a4a9c94fe33cf6c73bb5dfc415d04d309" target="_top" xlink:title="Displays map selection screen.">
<polygon fill="white" stroke="#666666" points="1278,-133 1087,-133 1087,-114 1278,-114 1278,-133"/>
<text text-anchor="middle" x="1182.5" y="-121" font-family="Helvetica,sans-Serif" font-size="10.00">GameController::showMapSelection</text>
</a>
</g>
</g>
<!-- Node3&#45;&gt;Node4 -->
<g id="edge3_Node000003_Node000004" class="edge">
<title>Node3&#45;&gt;Node4</title>
<g id="a_edge3_Node000003_Node000004"><a xlink:title=" ">
<path fill="none" stroke="#63b8ff" d="M1303.77,-123.5C1295.38,-123.5 1286.82,-123.5 1278.34,-123.5"/>
<polygon fill="#63b8ff" stroke="#63b8ff" points="1303.91,-127 1313.91,-123.5 1303.91,-120 1303.91,-127"/>
</a>
</g>
</g>
<!-- Node5 -->
<g id="Node000005" class="node">
<title>Node5</title>
<g id="a_Node000005"><a xlink:href="classGameController.html#a971b3d8f6296a74f0bebc83b5e79c186" target="_top" xlink:title="Processes a user command.">
<polygon fill="white" stroke="#666666" points="669,-102 481,-102 481,-83 669,-83 669,-102"/>
<text text-anchor="middle" x="575" y="-90" font-family="Helvetica,sans-Serif" font-size="10.00">GameController::processCommand</text>
</a>
</g>
</g>
<!-- Node4&#45;&gt;Node5 -->
<g id="edge4_Node000004_Node000005" class="edge">
<title>Node4&#45;&gt;Node5</title>
<g id="a_edge4_Node000004_Node000005"><a xlink:title=" ">
<path fill="none" stroke="#63b8ff" d="M1136.51,-111.52C1052.04,-90.5 863.93,-50.64 705,-66.5 673.74,-69.62 638.85,-76.89 613.24,-82.95"/>
<polygon fill="#63b8ff" stroke="#63b8ff" points="1135.73,-114.93 1146.28,-113.98 1137.44,-108.15 1135.73,-114.93"/>
</a>
</g>
</g>
<!-- Node9 -->
<g id="Node000009" class="node">
<title>Node9</title>
<g id="a_Node000009"><a xlink:href="classGameController.html#a9d11b5a6255b7249bddba49df0837cf3" target="_top" xlink:title="Displays and manages the main menu.">
<polygon fill="white" stroke="#666666" points="1051,-133 899,-133 899,-114 1051,-114 1051,-133"/>
<text text-anchor="middle" x="975" y="-121" font-family="Helvetica,sans-Serif" font-size="10.00">GameController::showMenu</text>
</a>
</g>
</g>
<!-- Node4&#45;&gt;Node9 -->
<g id="edge8_Node000004_Node000009" class="edge">
<title>Node4&#45;&gt;Node9</title>
<g id="a_edge8_Node000004_Node000009"><a xlink:title=" ">
<path fill="none" stroke="#63b8ff" d="M1076.72,-116.75C1068.06,-116.76 1059.43,-116.84 1051.06,-116.97"/>
<polygon fill="#63b8ff" stroke="#63b8ff" points="1076.86,-120.25 1086.87,-116.77 1076.88,-113.25 1076.86,-120.25"/>
</a>
</g>
</g>
<!-- Node6 -->
<g id="Node000006" class="node">
<title>Node6</title>
<g id="a_Node000006"><a xlink:href="classGameController.html#af2367e58f03d8a1441c9a574967fd360" target="_top" xlink:title="Processes a single game turn/update cycle.">
<polygon fill="white" stroke="#666666" points="445,-117 258,-117 258,-98 445,-98 445,-117"/>
<text text-anchor="middle" x="351.5" y="-105" font-family="Helvetica,sans-Serif" font-size="10.00">GameController::processGameTurn</text>
</a>
</g>
</g>
<!-- Node5&#45;&gt;Node6 -->
<g id="edge5_Node000005_Node000006" class="edge">
<title>Node5&#45;&gt;Node6</title>
<g id="a_edge5_Node000005_Node000006"><a xlink:title=" ">
<path fill="none" stroke="#63b8ff" d="M470.5,-99.51C462.1,-100.08 453.65,-100.65 445.33,-101.21"/>
<polygon fill="#63b8ff" stroke="#63b8ff" points="470.97,-102.99 480.71,-98.82 470.49,-96 470.97,-102.99"/>
</a>
</g>
</g>
<!-- Node7 -->
<g id="Node000007" class="node">
<title>Node7</title>
<g id="a_Node000007"><a xlink:href="classGameController.html#ac958989c8f7f08488546930e5fcb0d82" target="_top" xlink:title="Starts and runs the main game loop.">
<polygon fill="white" stroke="#666666" points="222,-156 77,-156 77,-137 222,-137 222,-156"/>
<text text-anchor="middle" x="149.5" y="-144" font-family="Helvetica,sans-Serif" font-size="10.00">GameController::runGame</text>
</a>
</g>
</g>
<!-- Node6&#45;&gt;Node7 -->
<g id="edge6_Node000006_Node000007" class="edge">
<title>Node6&#45;&gt;Node7</title>
<g id="a_edge6_Node000006_Node000007"><a xlink:title=" ">
<path fill="none" stroke="#63b8ff" d="M291.45,-119.01C262.1,-124.74 227.07,-131.57 199.27,-136.99"/>
<polygon fill="#63b8ff" stroke="#63b8ff" points="292.43,-122.39 301.57,-117.04 291.09,-115.52 292.43,-122.39"/>
</a>
</g>
</g>
<!-- Node8 -->
<g id="Node000008" class="node">
<title>Node8</title>
<g id="a_Node000008"><a xlink:href="main_8cpp.html#ae66f6b31b5ad750f1fe042a706a4e3d4" target="_top" xlink:title="Main function that serves as the application entry point.">
<polygon fill="white" stroke="#666666" points="41,-156 0,-156 0,-137 41,-137 41,-156"/>
<text text-anchor="middle" x="20.5" y="-144" font-family="Helvetica,sans-Serif" font-size="10.00">main</text>
</a>
</g>
</g>
<!-- Node7&#45;&gt;Node8 -->
<g id="edge7_Node000007_Node000008" class="edge">
<title>Node7&#45;&gt;Node8</title>
<g id="a_edge7_Node000007_Node000008"><a xlink:title=" ">
<path fill="none" stroke="#63b8ff" d="M66.79,-146.5C57.31,-146.5 48.43,-146.5 41.08,-146.5"/>
<polygon fill="#63b8ff" stroke="#63b8ff" points="66.83,-150 76.83,-146.5 66.83,-143 66.83,-150"/>
</a>
</g>
</g>
<!-- Node9&#45;&gt;Node4 -->
<g id="edge15_Node000009_Node000004" class="edge">
<title>Node9&#45;&gt;Node4</title>
<g id="a_edge15_Node000009_Node000004"><a xlink:title=" ">
<path fill="none" stroke="#63b8ff" d="M1061.27,-130.16C1069.72,-130.25 1078.33,-130.27 1086.87,-130.23"/>
<polygon fill="#63b8ff" stroke="#63b8ff" points="1061.1,-126.66 1051.06,-130.03 1061.01,-133.66 1061.1,-126.66"/>
</a>
</g>
</g>
<!-- Node9&#45;&gt;Node5 -->
<g id="edge11_Node000009_Node000005" class="edge">
<title>Node9&#45;&gt;Node5</title>
<g id="a_edge11_Node000009_Node000005"><a xlink:title=" ">
<path fill="none" stroke="#63b8ff" d="M888.86,-117.97C835.93,-114.42 766.48,-109.53 705,-104.5 693.45,-103.56 681.33,-102.51 669.34,-101.43"/>
<polygon fill="#63b8ff" stroke="#63b8ff" points="888.67,-121.47 898.89,-118.64 889.14,-114.48 888.67,-121.47"/>
</a>
</g>
</g>
<!-- Node9&#45;&gt;Node7 -->
<g id="edge12_Node000009_Node000007" class="edge">
<title>Node9&#45;&gt;Node7</title>
<g id="a_edge12_Node000009_Node000007"><a xlink:title=" ">
<path fill="none" stroke="#63b8ff" d="M935.09,-136.04C913.98,-142.32 887.31,-149.44 863,-153.5 631.32,-192.18 351.36,-169.63 222.18,-155.4"/>
<polygon fill="#63b8ff" stroke="#63b8ff" points="936.12,-139.38 944.67,-133.13 934.08,-132.68 936.12,-139.38"/>
</a>
</g>
</g>
<!-- Node10 -->
<g id="Node000010" class="node">
<title>Node10</title>
<g id="a_Node000010"><a xlink:href="classGameController.html#a637ea4e72ed2be4a2884b30160b3e8ab" target="_top" xlink:title="Pauses the game and displays pause screen.">
<polygon fill="white" stroke="#666666" points="863,-95 705,-95 705,-76 863,-76 863,-95"/>
<text text-anchor="middle" x="784" y="-83" font-family="Helvetica,sans-Serif" font-size="10.00">GameController::pauseGame</text>
</a>
</g>
</g>
<!-- Node9&#45;&gt;Node10 -->
<g id="edge9_Node000009_Node000010" class="edge">
<title>Node9&#45;&gt;Node10</title>
<g id="a_edge9_Node000009_Node000010"><a xlink:title=" ">
<path fill="none" stroke="#63b8ff" d="M916.26,-111.89C889.38,-106.49 857.8,-100.14 832.35,-95.02"/>
<polygon fill="#63b8ff" stroke="#63b8ff" points="915.81,-115.37 926.31,-113.91 917.19,-108.51 915.81,-115.37"/>
</a>
</g>
</g>
<!-- Node11 -->
<g id="Node000011" class="node">
<title>Node11</title>
<g id="a_Node000011"><a xlink:href="classGameController.html#a85bcf4ecfd197aad278e116215a3717b" target="_top" xlink:title="Displays level completion screen.">
<polygon fill="white" stroke="#666666" points="651,-157.5 499,-157.5 499,-127.5 651,-127.5 651,-157.5"/>
<text text-anchor="start" x="507" y="-145.5" font-family="Helvetica,sans-Serif" font-size="10.00">GameController::showLevel</text>
<text text-anchor="middle" x="575" y="-134.5" font-family="Helvetica,sans-Serif" font-size="10.00">CompleteScreen</text>
</a>
</g>
</g>
<!-- Node9&#45;&gt;Node11 -->
<g id="edge13_Node000009_Node000011" class="edge">
<title>Node9&#45;&gt;Node11</title>
<g id="a_edge13_Node000009_Node000011"><a xlink:title=" ">
<path fill="none" stroke="#63b8ff" d="M897.91,-134.2C886.24,-135.52 874.31,-136.69 863,-137.5 791.17,-142.64 708.99,-143.57 651.03,-143.41"/>
<polygon fill="#63b8ff" stroke="#63b8ff" points="898.56,-137.65 908.08,-133 897.74,-130.7 898.56,-137.65"/>
</a>
</g>
</g>
<!-- Node10&#45;&gt;Node5 -->
<g id="edge10_Node000010_Node000005" class="edge">
<title>Node10&#45;&gt;Node5</title>
<g id="a_edge10_Node000010_Node000005"><a xlink:title=" ">
<path fill="none" stroke="#63b8ff" d="M694.62,-88.49C686.25,-88.77 677.75,-89.06 669.34,-89.34"/>
<polygon fill="#63b8ff" stroke="#63b8ff" points="694.87,-91.98 704.74,-88.15 694.63,-84.99 694.87,-91.98"/>
</a>
</g>
</g>
<!-- Node11&#45;&gt;Node6 -->
<g id="edge14_Node000011_Node000006" class="edge">
<title>Node11&#45;&gt;Node6</title>
<g id="a_edge14_Node000011_Node000006"><a xlink:title=" ">
<path fill="none" stroke="#63b8ff" d="M488.74,-129.03C463.45,-125.03 436.29,-120.74 412.92,-117.05"/>
<polygon fill="#63b8ff" stroke="#63b8ff" points="488.28,-132.5 498.7,-130.6 489.37,-125.58 488.28,-132.5"/>
</a>
</g>
</g>
<!-- Node13&#45;&gt;Node14 -->
<g id="edge18_Node000013_Node000014" class="edge">
<title>Node13&#45;&gt;Node14</title>
<g id="a_edge18_Node000013_Node000014"><a xlink:title=" ">
<path fill="none" stroke="#63b8ff" d="M1490.61,-24.02C1478.95,-22.33 1467.23,-20.63 1456.12,-19.02"/>
<polygon fill="#63b8ff" stroke="#63b8ff" points="1490.41,-27.53 1500.81,-25.5 1491.42,-20.6 1490.41,-27.53"/>
</a>
</g>
</g>
<!-- Node14&#45;&gt;Node6 -->
<g id="edge19_Node000014_Node000006" class="edge">
<title>Node14&#45;&gt;Node6</title>
<g id="a_edge19_Node000014_Node000006"><a xlink:title=" ">
<path fill="none" stroke="#63b8ff" d="M1310.88,-9.5C1227.97,-9.5 1092.7,-9.5 976,-9.5 976,-9.5 976,-9.5 783,-9.5 624.71,-9.5 441.67,-73.27 376.81,-97.92"/>
<polygon fill="#63b8ff" stroke="#63b8ff" points="1310.98,-13 1320.98,-9.5 1310.98,-6 1310.98,-13"/>
</a>
</g>
</g>
</g>
</svg>
