<?xml version="1.0" encoding="UTF-8" standalone="no"?>
<!DOCTYPE svg PUBLIC "-//W3C//DTD SVG 1.1//EN"
 "http://www.w3.org/Graphics/SVG/1.1/DTD/svg11.dtd">
<!-- Generated by graphviz version 2.43.0 (0)
 -->
<!-- Title: PlatformUtils::setColor Pages: 1 -->
<svg width="2224pt" height="180pt"
 viewBox="0.00 0.00 2224.00 180.29" xmlns="http://www.w3.org/2000/svg" xmlns:xlink="http://www.w3.org/1999/xlink">
<g id="graph0" class="graph" transform="scale(1 1) rotate(0) translate(4 176.29)">
<title>PlatformUtils::setColor</title>
<!-- Node1 -->
<g id="Node000001" class="node">
<title>Node1</title>
<g id="a_Node000001"><a xlink:title="Sets terminal text color.">
<polygon fill="#999999" stroke="#666666" points="2216,-82.5 2088,-82.5 2088,-63.5 2216,-63.5 2216,-82.5"/>
<text text-anchor="middle" x="2152" y="-70.5" font-family="Helvetica,sans-Serif" font-size="10.00">PlatformUtils::setColor</text>
</a>
</g>
</g>
<!-- Node2 -->
<g id="Node000002" class="node">
<title>Node2</title>
<g id="a_Node000002"><a xlink:href="classPlatformUtils.html#a4beb970cf8341aff6e4de13d02936580" target="_top" xlink:title="Resets terminal background color to default.">
<polygon fill="white" stroke="#666666" points="2052,-131 1882,-131 1882,-101 2052,-101 2052,-131"/>
<text text-anchor="start" x="1890" y="-119" font-family="Helvetica,sans-Serif" font-size="10.00">PlatformUtils::resetBackground</text>
<text text-anchor="middle" x="1967" y="-108" font-family="Helvetica,sans-Serif" font-size="10.00">Color</text>
</a>
</g>
</g>
<!-- Node1&#45;&gt;Node2 -->
<g id="edge1_Node000001_Node000002" class="edge">
<title>Node1&#45;&gt;Node2</title>
<g id="a_edge1_Node000001_Node000002"><a xlink:title=" ">
<path fill="none" stroke="#63b8ff" d="M2100.6,-84.84C2079.35,-89.84 2054.38,-95.7 2031.86,-100.99"/>
<polygon fill="#63b8ff" stroke="#63b8ff" points="2101.45,-88.24 2110.39,-82.54 2099.85,-81.42 2101.45,-88.24"/>
</a>
</g>
</g>
<!-- Node3 -->
<g id="Node000003" class="node">
<title>Node3</title>
<g id="a_Node000003"><a xlink:href="classPlatformUtils.html#ae3607ef4c4fbee33349ec982eda7bf07" target="_top" xlink:title="Resets terminal color to default.">
<polygon fill="white" stroke="#666666" points="2035.5,-82.5 1898.5,-82.5 1898.5,-63.5 2035.5,-63.5 2035.5,-82.5"/>
<text text-anchor="middle" x="1967" y="-70.5" font-family="Helvetica,sans-Serif" font-size="10.00">PlatformUtils::resetColor</text>
</a>
</g>
</g>
<!-- Node1&#45;&gt;Node3 -->
<g id="edge2_Node000001_Node000003" class="edge">
<title>Node1&#45;&gt;Node3</title>
<g id="a_edge2_Node000001_Node000003"><a xlink:title=" ">
<path fill="none" stroke="#63b8ff" d="M2077.76,-73C2063.84,-73 2049.34,-73 2035.61,-73"/>
<polygon fill="#63b8ff" stroke="#63b8ff" points="2077.77,-76.5 2087.77,-73 2077.77,-69.5 2077.77,-76.5"/>
</a>
</g>
</g>
<!-- Node17 -->
<g id="Node000017" class="node">
<title>Node17</title>
<g id="a_Node000017"><a xlink:href="classConsoleRenderer.html#af06444dbf726424a13127fd4f3a70a8d" target="_top" xlink:title="Sets terminal text color.">
<polygon fill="white" stroke="#666666" points="1841,-44.5 1695,-44.5 1695,-25.5 1841,-25.5 1841,-44.5"/>
<text text-anchor="middle" x="1768" y="-32.5" font-family="Helvetica,sans-Serif" font-size="10.00">ConsoleRenderer::setColor</text>
</a>
</g>
</g>
<!-- Node1&#45;&gt;Node17 -->
<g id="edge22_Node000001_Node000017" class="edge">
<title>Node1&#45;&gt;Node17</title>
<g id="a_edge22_Node000001_Node000017"><a xlink:title=" ">
<path fill="none" stroke="#63b8ff" d="M2097.4,-61.47C2082.74,-58.66 2066.81,-55.91 2052,-54 1980.57,-44.78 1898.4,-39.9 1841.06,-37.4"/>
<polygon fill="#63b8ff" stroke="#63b8ff" points="2096.84,-64.93 2107.32,-63.42 2098.19,-58.06 2096.84,-64.93"/>
</a>
</g>
</g>
<!-- Node4 -->
<g id="Node000004" class="node">
<title>Node4</title>
<g id="a_Node000004"><a xlink:href="classConsoleRenderer.html#a39097953ecd72be19860424c9d00b0ea" target="_top" xlink:title="Resets terminal color to default.">
<polygon fill="white" stroke="#666666" points="1846,-81.5 1690,-81.5 1690,-62.5 1846,-62.5 1846,-81.5"/>
<text text-anchor="middle" x="1768" y="-69.5" font-family="Helvetica,sans-Serif" font-size="10.00">ConsoleRenderer::resetColor</text>
</a>
</g>
</g>
<!-- Node3&#45;&gt;Node4 -->
<g id="edge3_Node000003_Node000004" class="edge">
<title>Node3&#45;&gt;Node4</title>
<g id="a_edge3_Node000003_Node000004"><a xlink:title=" ">
<path fill="none" stroke="#63b8ff" d="M1888.08,-72.6C1874.32,-72.53 1860,-72.46 1846.25,-72.39"/>
<polygon fill="#63b8ff" stroke="#63b8ff" points="1888.46,-76.11 1898.48,-72.66 1888.5,-69.11 1888.46,-76.11"/>
</a>
</g>
</g>
<!-- Node5 -->
<g id="Node000005" class="node">
<title>Node5</title>
<g id="a_Node000005"><a xlink:href="classConsoleRenderer.html#ab6e419a1d0f420decceba8e545890318" target="_top" xlink:title="Draws map preview for selection screen.">
<polygon fill="white" stroke="#666666" points="1653,-112 1502,-112 1502,-82 1653,-82 1653,-112"/>
<text text-anchor="start" x="1510" y="-100" font-family="Helvetica,sans-Serif" font-size="10.00">ConsoleRenderer::drawMap</text>
<text text-anchor="middle" x="1577.5" y="-89" font-family="Helvetica,sans-Serif" font-size="10.00">Preview</text>
</a>
</g>
</g>
<!-- Node4&#45;&gt;Node5 -->
<g id="edge4_Node000004_Node000005" class="edge">
<title>Node4&#45;&gt;Node5</title>
<g id="a_edge4_Node000004_Node000005"><a xlink:title=" ">
<path fill="none" stroke="#63b8ff" d="M1685.12,-82.86C1674.52,-84.27 1663.71,-85.7 1653.23,-87.09"/>
<polygon fill="#63b8ff" stroke="#63b8ff" points="1685.75,-86.31 1695.2,-81.52 1684.83,-79.37 1685.75,-86.31"/>
</a>
</g>
</g>
<!-- Node15 -->
<g id="Node000015" class="node">
<title>Node15</title>
<g id="a_Node000015"><a xlink:href="classConsoleRenderer.html#a216eb9680760729497094ddbebb118e2" target="_top" xlink:title="Draws a single colored pixel/character.">
<polygon fill="white" stroke="#666666" points="1654,-63.5 1501,-63.5 1501,-44.5 1654,-44.5 1654,-63.5"/>
<text text-anchor="middle" x="1577.5" y="-51.5" font-family="Helvetica,sans-Serif" font-size="10.00">ConsoleRenderer::drawPixel</text>
</a>
</g>
</g>
<!-- Node4&#45;&gt;Node15 -->
<g id="edge19_Node000004_Node000015" class="edge">
<title>Node4&#45;&gt;Node15</title>
<g id="a_edge19_Node000004_Node000015"><a xlink:title=" ">
<path fill="none" stroke="#63b8ff" d="M1679.76,-63.67C1671.18,-62.85 1662.52,-62.02 1654.07,-61.22"/>
<polygon fill="#63b8ff" stroke="#63b8ff" points="1679.5,-67.16 1689.79,-64.63 1680.16,-60.19 1679.5,-67.16"/>
</a>
</g>
</g>
<!-- Node16 -->
<g id="Node000016" class="node">
<title>Node16</title>
<g id="a_Node000016"><a xlink:href="classConsoleRenderer.html#ab34fa7af4ede79de3951f1d5271d7a27" target="_top" xlink:title="Renders the game world to console.">
<polygon fill="white" stroke="#666666" points="1646,-26.5 1509,-26.5 1509,-7.5 1646,-7.5 1646,-26.5"/>
<text text-anchor="middle" x="1577.5" y="-14.5" font-family="Helvetica,sans-Serif" font-size="10.00">ConsoleRenderer::render</text>
</a>
</g>
</g>
<!-- Node4&#45;&gt;Node16 -->
<g id="edge20_Node000004_Node000016" class="edge">
<title>Node4&#45;&gt;Node16</title>
<g id="a_edge20_Node000004_Node000016"><a xlink:title=" ">
<path fill="none" stroke="#63b8ff" d="M1711.43,-59.86C1704.14,-57.81 1696.84,-55.52 1690,-53 1673.21,-46.82 1670.81,-41.11 1654,-35 1645.14,-31.78 1635.47,-28.97 1626.11,-26.59"/>
<polygon fill="#63b8ff" stroke="#63b8ff" points="1710.74,-63.29 1721.3,-62.5 1712.54,-56.53 1710.74,-63.29"/>
</a>
</g>
</g>
<!-- Node6 -->
<g id="Node000006" class="node">
<title>Node6</title>
<g id="a_Node000006"><a xlink:href="classConsoleRenderer.html#afd03640670c991dfa8240af639c2f0da" target="_top" xlink:title="Draws map selection screen.">
<polygon fill="white" stroke="#666666" points="1465,-114 1314,-114 1314,-84 1465,-84 1465,-114"/>
<text text-anchor="start" x="1322" y="-102" font-family="Helvetica,sans-Serif" font-size="10.00">ConsoleRenderer::drawMap</text>
<text text-anchor="middle" x="1389.5" y="-91" font-family="Helvetica,sans-Serif" font-size="10.00">Selection</text>
</a>
</g>
</g>
<!-- Node5&#45;&gt;Node6 -->
<g id="edge5_Node000005_Node000006" class="edge">
<title>Node5&#45;&gt;Node6</title>
<g id="a_edge5_Node000005_Node000006"><a xlink:title=" ">
<path fill="none" stroke="#63b8ff" d="M1491.89,-97.91C1482.95,-98.01 1473.91,-98.1 1465.1,-98.2"/>
<polygon fill="#63b8ff" stroke="#63b8ff" points="1491.96,-101.41 1501.92,-97.8 1491.88,-94.41 1491.96,-101.41"/>
</a>
</g>
</g>
<!-- Node7 -->
<g id="Node000007" class="node">
<title>Node7</title>
<g id="a_Node000007"><a xlink:href="classGameController.html#a4a9c94fe33cf6c73bb5dfc415d04d309" target="_top" xlink:title="Displays map selection screen.">
<polygon fill="white" stroke="#666666" points="1278,-112.5 1087,-112.5 1087,-93.5 1278,-93.5 1278,-112.5"/>
<text text-anchor="middle" x="1182.5" y="-100.5" font-family="Helvetica,sans-Serif" font-size="10.00">GameController::showMapSelection</text>
</a>
</g>
</g>
<!-- Node6&#45;&gt;Node7 -->
<g id="edge6_Node000006_Node000007" class="edge">
<title>Node6&#45;&gt;Node7</title>
<g id="a_edge6_Node000006_Node000007"><a xlink:title=" ">
<path fill="none" stroke="#63b8ff" d="M1303.77,-100.65C1295.38,-100.82 1286.82,-100.98 1278.34,-101.15"/>
<polygon fill="#63b8ff" stroke="#63b8ff" points="1303.98,-104.15 1313.91,-100.46 1303.84,-97.15 1303.98,-104.15"/>
</a>
</g>
</g>
<!-- Node8 -->
<g id="Node000008" class="node">
<title>Node8</title>
<g id="a_Node000008"><a xlink:href="classGameController.html#a971b3d8f6296a74f0bebc83b5e79c186" target="_top" xlink:title="Processes a user command.">
<polygon fill="white" stroke="#666666" points="669,-92.5 481,-92.5 481,-73.5 669,-73.5 669,-92.5"/>
<text text-anchor="middle" x="575" y="-80.5" font-family="Helvetica,sans-Serif" font-size="10.00">GameController::processCommand</text>
</a>
</g>
</g>
<!-- Node7&#45;&gt;Node8 -->
<g id="edge7_Node000007_Node000008" class="edge">
<title>Node7&#45;&gt;Node8</title>
<g id="a_edge7_Node000007_Node000008"><a xlink:title=" ">
<path fill="none" stroke="#63b8ff" d="M1076.57,-93.87C1067.92,-93.2 1059.31,-92.57 1051,-92 967.52,-86.26 946.64,-84.22 863,-82 792.8,-80.13 775.22,-81.73 705,-82 693.35,-82.05 681.12,-82.11 669.01,-82.19"/>
<polygon fill="#63b8ff" stroke="#63b8ff" points="1076.49,-97.37 1086.73,-94.67 1077.03,-90.4 1076.49,-97.37"/>
</a>
</g>
</g>
<!-- Node12 -->
<g id="Node000012" class="node">
<title>Node12</title>
<g id="a_Node000012"><a xlink:href="classGameController.html#a9d11b5a6255b7249bddba49df0837cf3" target="_top" xlink:title="Displays and manages the main menu.">
<polygon fill="white" stroke="#666666" points="1051,-120.5 899,-120.5 899,-101.5 1051,-101.5 1051,-120.5"/>
<text text-anchor="middle" x="975" y="-108.5" font-family="Helvetica,sans-Serif" font-size="10.00">GameController::showMenu</text>
</a>
</g>
</g>
<!-- Node7&#45;&gt;Node12 -->
<g id="edge11_Node000007_Node000012" class="edge">
<title>Node7&#45;&gt;Node12</title>
<g id="a_edge11_Node000007_Node000012"><a xlink:title=" ">
<path fill="none" stroke="#63b8ff" d="M1076.72,-100.33C1068.06,-100.68 1059.43,-101.09 1051.06,-101.55"/>
<polygon fill="#63b8ff" stroke="#63b8ff" points="1077.01,-103.82 1086.87,-99.95 1076.75,-96.83 1077.01,-103.82"/>
</a>
</g>
</g>
<!-- Node9 -->
<g id="Node000009" class="node">
<title>Node9</title>
<g id="a_Node000009"><a xlink:href="classGameController.html#af2367e58f03d8a1441c9a574967fd360" target="_top" xlink:title="Processes a single game turn/update cycle.">
<polygon fill="white" stroke="#666666" points="445,-107.5 258,-107.5 258,-88.5 445,-88.5 445,-107.5"/>
<text text-anchor="middle" x="351.5" y="-95.5" font-family="Helvetica,sans-Serif" font-size="10.00">GameController::processGameTurn</text>
</a>
</g>
</g>
<!-- Node8&#45;&gt;Node9 -->
<g id="edge8_Node000008_Node000009" class="edge">
<title>Node8&#45;&gt;Node9</title>
<g id="a_edge8_Node000008_Node000009"><a xlink:title=" ">
<path fill="none" stroke="#63b8ff" d="M470.5,-90.01C462.1,-90.58 453.65,-91.15 445.33,-91.71"/>
<polygon fill="#63b8ff" stroke="#63b8ff" points="470.97,-93.49 480.71,-89.32 470.49,-86.5 470.97,-93.49"/>
</a>
</g>
</g>
<!-- Node10 -->
<g id="Node000010" class="node">
<title>Node10</title>
<g id="a_Node000010"><a xlink:href="classGameController.html#ac958989c8f7f08488546930e5fcb0d82" target="_top" xlink:title="Starts and runs the main game loop.">
<polygon fill="white" stroke="#666666" points="222,-146.5 77,-146.5 77,-127.5 222,-127.5 222,-146.5"/>
<text text-anchor="middle" x="149.5" y="-134.5" font-family="Helvetica,sans-Serif" font-size="10.00">GameController::runGame</text>
</a>
</g>
</g>
<!-- Node9&#45;&gt;Node10 -->
<g id="edge9_Node000009_Node000010" class="edge">
<title>Node9&#45;&gt;Node10</title>
<g id="a_edge9_Node000009_Node000010"><a xlink:title=" ">
<path fill="none" stroke="#63b8ff" d="M291.45,-109.51C262.1,-115.24 227.07,-122.07 199.27,-127.49"/>
<polygon fill="#63b8ff" stroke="#63b8ff" points="292.43,-112.89 301.57,-107.54 291.09,-106.02 292.43,-112.89"/>
</a>
</g>
</g>
<!-- Node11 -->
<g id="Node000011" class="node">
<title>Node11</title>
<g id="a_Node000011"><a xlink:href="main_8cpp.html#ae66f6b31b5ad750f1fe042a706a4e3d4" target="_top" xlink:title="Main function that serves as the application entry point.">
<polygon fill="white" stroke="#666666" points="41,-146.5 0,-146.5 0,-127.5 41,-127.5 41,-146.5"/>
<text text-anchor="middle" x="20.5" y="-134.5" font-family="Helvetica,sans-Serif" font-size="10.00">main</text>
</a>
</g>
</g>
<!-- Node10&#45;&gt;Node11 -->
<g id="edge10_Node000010_Node000011" class="edge">
<title>Node10&#45;&gt;Node11</title>
<g id="a_edge10_Node000010_Node000011"><a xlink:title=" ">
<path fill="none" stroke="#63b8ff" d="M66.79,-137C57.31,-137 48.43,-137 41.08,-137"/>
<polygon fill="#63b8ff" stroke="#63b8ff" points="66.83,-140.5 76.83,-137 66.83,-133.5 66.83,-140.5"/>
</a>
</g>
</g>
<!-- Node12&#45;&gt;Node7 -->
<g id="edge18_Node000012_Node000007" class="edge">
<title>Node12&#45;&gt;Node7</title>
<g id="a_edge18_Node000012_Node000007"><a xlink:title=" ">
<path fill="none" stroke="#63b8ff" d="M1061.12,-114.35C1075.76,-113.93 1090.89,-113.3 1105.27,-112.51"/>
<polygon fill="#63b8ff" stroke="#63b8ff" points="1060.99,-110.85 1051.08,-114.6 1061.17,-117.85 1060.99,-110.85"/>
</a>
</g>
</g>
<!-- Node12&#45;&gt;Node8 -->
<g id="edge14_Node000012_Node000008" class="edge">
<title>Node12&#45;&gt;Node8</title>
<g id="a_edge14_Node000012_Node000008"><a xlink:title=" ">
<path fill="none" stroke="#63b8ff" d="M905.81,-100.06C891.69,-98.11 876.88,-96.29 863,-95 798.45,-89.01 725.45,-86.01 669.22,-84.51"/>
<polygon fill="#63b8ff" stroke="#63b8ff" points="905.55,-103.56 915.95,-101.5 906.54,-96.63 905.55,-103.56"/>
</a>
</g>
</g>
<!-- Node12&#45;&gt;Node10 -->
<g id="edge15_Node000012_Node000010" class="edge">
<title>Node12&#45;&gt;Node10</title>
<g id="a_edge15_Node000012_Node000010"><a xlink:title=" ">
<path fill="none" stroke="#63b8ff" d="M942.54,-124.5C920.67,-133.2 890.6,-143.82 863,-149 627.11,-193.27 339.57,-163.55 214.12,-146.56"/>
<polygon fill="#63b8ff" stroke="#63b8ff" points="944.03,-127.67 951.98,-120.66 941.4,-121.18 944.03,-127.67"/>
</a>
</g>
</g>
<!-- Node13 -->
<g id="Node000013" class="node">
<title>Node13</title>
<g id="a_Node000013"><a xlink:href="classGameController.html#a637ea4e72ed2be4a2884b30160b3e8ab" target="_top" xlink:title="Pauses the game and displays pause screen.">
<polygon fill="white" stroke="#666666" points="863,-123.5 705,-123.5 705,-104.5 863,-104.5 863,-123.5"/>
<text text-anchor="middle" x="784" y="-111.5" font-family="Helvetica,sans-Serif" font-size="10.00">GameController::pauseGame</text>
</a>
</g>
</g>
<!-- Node12&#45;&gt;Node13 -->
<g id="edge12_Node000012_Node000013" class="edge">
<title>Node12&#45;&gt;Node13</title>
<g id="a_edge12_Node000012_Node000013"><a xlink:title=" ">
<path fill="none" stroke="#63b8ff" d="M888.5,-112.36C880.03,-112.49 871.46,-112.63 863.08,-112.76"/>
<polygon fill="#63b8ff" stroke="#63b8ff" points="888.82,-115.85 898.76,-112.19 888.7,-108.85 888.82,-115.85"/>
</a>
</g>
</g>
<!-- Node14 -->
<g id="Node000014" class="node">
<title>Node14</title>
<g id="a_Node000014"><a xlink:href="classGameController.html#a85bcf4ecfd197aad278e116215a3717b" target="_top" xlink:title="Displays level completion screen.">
<polygon fill="white" stroke="#666666" points="651,-148 499,-148 499,-118 651,-118 651,-148"/>
<text text-anchor="start" x="507" y="-136" font-family="Helvetica,sans-Serif" font-size="10.00">GameController::showLevel</text>
<text text-anchor="middle" x="575" y="-125" font-family="Helvetica,sans-Serif" font-size="10.00">CompleteScreen</text>
</a>
</g>
</g>
<!-- Node12&#45;&gt;Node14 -->
<g id="edge16_Node000012_Node000014" class="edge">
<title>Node12&#45;&gt;Node14</title>
<g id="a_edge16_Node000012_Node000014"><a xlink:title=" ">
<path fill="none" stroke="#63b8ff" d="M925.92,-122.66C906.51,-126.81 883.81,-130.96 863,-133 791.35,-140.03 709.14,-139.13 651.13,-137"/>
<polygon fill="#63b8ff" stroke="#63b8ff" points="926.73,-126.07 935.75,-120.5 925.23,-119.23 926.73,-126.07"/>
</a>
</g>
</g>
<!-- Node13&#45;&gt;Node8 -->
<g id="edge13_Node000013_Node000008" class="edge">
<title>Node13&#45;&gt;Node8</title>
<g id="a_edge13_Node000013_Node000008"><a xlink:title=" ">
<path fill="none" stroke="#63b8ff" d="M709.53,-103C686.74,-99.58 661.82,-95.85 639.75,-92.55"/>
<polygon fill="#63b8ff" stroke="#63b8ff" points="709.08,-106.47 719.49,-104.49 710.12,-99.55 709.08,-106.47"/>
</a>
</g>
</g>
<!-- Node14&#45;&gt;Node9 -->
<g id="edge17_Node000014_Node000009" class="edge">
<title>Node14&#45;&gt;Node9</title>
<g id="a_edge17_Node000014_Node000009"><a xlink:title=" ">
<path fill="none" stroke="#63b8ff" d="M488.74,-119.53C463.45,-115.53 436.29,-111.24 412.92,-107.55"/>
<polygon fill="#63b8ff" stroke="#63b8ff" points="488.28,-123 498.7,-121.1 489.37,-116.08 488.28,-123"/>
</a>
</g>
</g>
<!-- Node16&#45;&gt;Node9 -->
<g id="edge21_Node000016_Node000009" class="edge">
<title>Node16&#45;&gt;Node9</title>
<g id="a_edge21_Node000016_Node000009"><a xlink:title=" ">
<path fill="none" stroke="#63b8ff" d="M1498.34,-11.63C1419.07,-6.65 1292.81,0 1183.5,0 1183.5,0 1183.5,0 783,0 624.71,0 441.67,-63.77 376.81,-88.42"/>
<polygon fill="#63b8ff" stroke="#63b8ff" points="1498.53,-15.15 1508.73,-12.29 1498.97,-8.16 1498.53,-15.15"/>
</a>
</g>
</g>
<!-- Node17&#45;&gt;Node5 -->
<g id="edge23_Node000017_Node000005" class="edge">
<title>Node17&#45;&gt;Node5</title>
<g id="a_edge23_Node000017_Node000005"><a xlink:title=" ">
<path fill="none" stroke="#63b8ff" d="M1707.5,-47.29C1701.53,-49 1695.6,-50.91 1690,-53 1673.05,-59.33 1670.64,-64.91 1654,-72 1645.74,-75.52 1636.81,-78.86 1628.08,-81.89"/>
<polygon fill="#63b8ff" stroke="#63b8ff" points="1708.82,-50.56 1717.56,-44.58 1706.99,-43.8 1708.82,-50.56"/>
</a>
</g>
</g>
<!-- Node17&#45;&gt;Node15 -->
<g id="edge24_Node000017_Node000015" class="edge">
<title>Node17&#45;&gt;Node15</title>
<g id="a_edge24_Node000017_Node000015"><a xlink:title=" ">
<path fill="none" stroke="#63b8ff" d="M1684.85,-43.28C1674.69,-44.3 1664.34,-45.35 1654.29,-46.36"/>
<polygon fill="#63b8ff" stroke="#63b8ff" points="1685.33,-46.75 1694.93,-42.26 1684.63,-39.79 1685.33,-46.75"/>
</a>
</g>
</g>
<!-- Node17&#45;&gt;Node16 -->
<g id="edge25_Node000017_Node000016" class="edge">
<title>Node17&#45;&gt;Node16</title>
<g id="a_edge25_Node000017_Node000016"><a xlink:title=" ">
<path fill="none" stroke="#63b8ff" d="M1684.7,-27.14C1671.84,-25.91 1658.68,-24.66 1646.19,-23.46"/>
<polygon fill="#63b8ff" stroke="#63b8ff" points="1684.64,-30.65 1694.93,-28.12 1685.31,-23.68 1684.64,-30.65"/>
</a>
</g>
</g>
</g>
</svg>
