<?xml version="1.0" encoding="UTF-8" standalone="no"?>
<!DOCTYPE svg PUBLIC "-//W3C//DTD SVG 1.1//EN"
 "http://www.w3.org/Graphics/SVG/1.1/DTD/svg11.dtd">
<!-- Generated by graphviz version 2.43.0 (0)
 -->
<!-- Title: Tank::reload Pages: 1 -->
<svg width="410pt" height="119pt"
 viewBox="0.00 0.00 410.00 119.00" xmlns="http://www.w3.org/2000/svg" xmlns:xlink="http://www.w3.org/1999/xlink">
<g id="graph0" class="graph" transform="scale(1 1) rotate(0) translate(4 115)">
<title>Tank::reload</title>
<!-- Node1 -->
<g id="Node000001" class="node">
<title>Node1</title>
<g id="a_Node000001"><a xlink:title="Decrements reload timer.">
<polygon fill="#999999" stroke="#666666" points="402,-56 326,-56 326,-37 402,-37 402,-56"/>
<text text-anchor="middle" x="364" y="-44" font-family="Helvetica,sans-Serif" font-size="10.00">Tank::reload</text>
</a>
</g>
</g>
<!-- Node2 -->
<g id="Node000002" class="node">
<title>Node2</title>
<g id="a_Node000002"><a xlink:href="classTank.html#aba6f34edd8774646bc3a112f7e2e42c3" target="_top" xlink:title="Sets reload time for the tank.">
<polygon fill="white" stroke="#666666" points="290,-93 171,-93 171,-74 290,-74 290,-93"/>
<text text-anchor="middle" x="230.5" y="-81" font-family="Helvetica,sans-Serif" font-size="10.00">Tank::setReloadTime</text>
</a>
</g>
</g>
<!-- Node1&#45;&gt;Node2 -->
<g id="edge1_Node000001_Node000002" class="edge">
<title>Node1&#45;&gt;Node2</title>
<g id="a_edge1_Node000001_Node000002"><a xlink:title=" ">
<path fill="none" stroke="#63b8ff" d="M319.19,-58.83C301.78,-63.73 282.04,-69.28 265.71,-73.88"/>
<polygon fill="#63b8ff" stroke="#63b8ff" points="320.46,-62.11 329.14,-56.03 318.56,-55.37 320.46,-62.11"/>
</a>
</g>
</g>
<!-- Node5 -->
<g id="Node000005" class="node">
<title>Node5</title>
<g id="a_Node000005"><a xlink:href="classEnemyTank.html#a7ae5efc6eff4e7a19abb7f37b44835fc" target="_top" xlink:title="Updates enemy tank state and AI decisions.">
<polygon fill="white" stroke="#666666" points="287,-56 174,-56 174,-37 287,-37 287,-56"/>
<text text-anchor="middle" x="230.5" y="-44" font-family="Helvetica,sans-Serif" font-size="10.00">EnemyTank::update</text>
</a>
</g>
</g>
<!-- Node1&#45;&gt;Node5 -->
<g id="edge4_Node000001_Node000005" class="edge">
<title>Node1&#45;&gt;Node5</title>
<g id="a_edge4_Node000001_Node000005"><a xlink:title=" ">
<path fill="none" stroke="#63b8ff" d="M315.52,-46.5C306.3,-46.5 296.55,-46.5 287.1,-46.5"/>
<polygon fill="#63b8ff" stroke="#63b8ff" points="315.67,-50 325.67,-46.5 315.67,-43 315.67,-50"/>
</a>
</g>
</g>
<!-- Node6 -->
<g id="Node000006" class="node">
<title>Node6</title>
<g id="a_Node000006"><a xlink:href="classPlayerTank.html#abad271395c1c5d171eb954a0c2d52687" target="_top" xlink:title="Updates player tank state.">
<polygon fill="white" stroke="#666666" points="285.5,-19 175.5,-19 175.5,0 285.5,0 285.5,-19"/>
<text text-anchor="middle" x="230.5" y="-7" font-family="Helvetica,sans-Serif" font-size="10.00">PlayerTank::update</text>
</a>
</g>
</g>
<!-- Node1&#45;&gt;Node6 -->
<g id="edge5_Node000001_Node000006" class="edge">
<title>Node1&#45;&gt;Node6</title>
<g id="a_edge5_Node000001_Node000006"><a xlink:title=" ">
<path fill="none" stroke="#63b8ff" d="M319.19,-34.17C301.78,-29.27 282.04,-23.72 265.71,-19.12"/>
<polygon fill="#63b8ff" stroke="#63b8ff" points="318.56,-37.63 329.14,-36.97 320.46,-30.89 318.56,-37.63"/>
</a>
</g>
</g>
<!-- Node3 -->
<g id="Node000003" class="node">
<title>Node3</title>
<g id="a_Node000003"><a xlink:href="classEnemyTank.html#af07a4df76315bfd6ce3745c9597b1447" target="_top" xlink:title="Constructs an EnemyTank object.">
<polygon fill="white" stroke="#666666" points="135,-111 0,-111 0,-92 135,-92 135,-111"/>
<text text-anchor="middle" x="67.5" y="-99" font-family="Helvetica,sans-Serif" font-size="10.00">EnemyTank::EnemyTank</text>
</a>
</g>
</g>
<!-- Node2&#45;&gt;Node3 -->
<g id="edge2_Node000002_Node000003" class="edge">
<title>Node2&#45;&gt;Node3</title>
<g id="a_edge2_Node000002_Node000003"><a xlink:title=" ">
<path fill="none" stroke="#63b8ff" d="M160.72,-91.19C152.27,-92.13 143.64,-93.1 135.22,-94.04"/>
<polygon fill="#63b8ff" stroke="#63b8ff" points="161.37,-94.64 170.92,-90.05 160.59,-87.68 161.37,-94.64"/>
</a>
</g>
</g>
<!-- Node4 -->
<g id="Node000004" class="node">
<title>Node4</title>
<g id="a_Node000004"><a xlink:href="classPlayerTank.html#a79a2bbc44cf5cc8f2c46aaca320b8b47" target="_top" xlink:title="Constructs a PlayerTank object.">
<polygon fill="white" stroke="#666666" points="132,-74 3,-74 3,-55 132,-55 132,-74"/>
<text text-anchor="middle" x="67.5" y="-62" font-family="Helvetica,sans-Serif" font-size="10.00">PlayerTank::PlayerTank</text>
</a>
</g>
</g>
<!-- Node2&#45;&gt;Node4 -->
<g id="edge3_Node000002_Node000004" class="edge">
<title>Node2&#45;&gt;Node4</title>
<g id="a_edge3_Node000002_Node000004"><a xlink:title=" ">
<path fill="none" stroke="#63b8ff" d="M160.75,-75.39C151.28,-74.27 141.58,-73.12 132.2,-72.02"/>
<polygon fill="#63b8ff" stroke="#63b8ff" points="160.58,-78.89 170.92,-76.59 161.4,-71.94 160.58,-78.89"/>
</a>
</g>
</g>
</g>
</svg>
