<?xml version="1.0" encoding="UTF-8" standalone="no"?>
<!DOCTYPE svg PUBLIC "-//W3C//DTD SVG 1.1//EN"
 "http://www.w3.org/Graphics/SVG/1.1/DTD/svg11.dtd">
<!-- Generated by graphviz version 2.43.0 (0)
 -->
<!-- Title: ConsoleRenderer::calculateHorizontalOffset Pages: 1 -->
<svg width="1899pt" height="562pt"
 viewBox="0.00 0.00 1899.00 562.18" xmlns="http://www.w3.org/2000/svg" xmlns:xlink="http://www.w3.org/1999/xlink">
<g id="graph0" class="graph" transform="scale(1 1) rotate(0) translate(4 558.18)">
<title>ConsoleRenderer::calculateHorizontalOffset</title>
<!-- Node1 -->
<g id="Node000001" class="node">
<title>Node1</title>
<g id="a_Node000001"><a xlink:title="Calculates horizontal offset to center content based on terminal width.">
<polygon fill="#999999" stroke="#666666" points="1891,-363.77 1741,-363.77 1741,-333.77 1891,-333.77 1891,-363.77"/>
<text text-anchor="start" x="1749" y="-351.77" font-family="Helvetica,sans-Serif" font-size="10.00">ConsoleRenderer::calculate</text>
<text text-anchor="middle" x="1816" y="-340.77" font-family="Helvetica,sans-Serif" font-size="10.00">HorizontalOffset</text>
</a>
</g>
</g>
<!-- Node2 -->
<g id="Node000002" class="node">
<title>Node2</title>
<g id="a_Node000002"><a xlink:href="classConsoleRenderer.html#af59760cefd8647cf4b6fe34774cac2c1" target="_top" xlink:title="Draws an error message about terminal size.">
<polygon fill="white" stroke="#666666" points="1698,-320.77 1545,-320.77 1545,-290.77 1698,-290.77 1698,-320.77"/>
<text text-anchor="start" x="1553" y="-308.77" font-family="Helvetica,sans-Serif" font-size="10.00">ConsoleRenderer::drawError</text>
<text text-anchor="middle" x="1621.5" y="-297.77" font-family="Helvetica,sans-Serif" font-size="10.00">Message</text>
</a>
</g>
</g>
<!-- Node1&#45;&gt;Node2 -->
<g id="edge1_Node000001_Node000002" class="edge">
<title>Node1&#45;&gt;Node2</title>
<g id="a_edge1_Node000001_Node000002"><a xlink:title=" ">
<path fill="none" stroke="#63b8ff" d="M1737.87,-331.54C1721.96,-327.99 1705.32,-324.27 1689.79,-320.8"/>
<polygon fill="#63b8ff" stroke="#63b8ff" points="1737.15,-334.97 1747.67,-333.73 1738.68,-328.14 1737.15,-334.97"/>
</a>
</g>
</g>
<!-- Node3 -->
<g id="Node000003" class="node">
<title>Node3</title>
<g id="a_Node000003"><a xlink:href="classConsoleRenderer.html#a38306106200aabcfd90f6fe0552e18ea" target="_top" xlink:title="Draws game over screen.">
<polygon fill="white" stroke="#666666" points="1502,-520.27 1320,-520.27 1320,-501.27 1502,-501.27 1502,-520.27"/>
<text text-anchor="middle" x="1411" y="-508.27" font-family="Helvetica,sans-Serif" font-size="10.00">ConsoleRenderer::drawGameOver</text>
</a>
</g>
</g>
<!-- Node1&#45;&gt;Node3 -->
<g id="edge37_Node000001_Node000003" class="edge">
<title>Node1&#45;&gt;Node3</title>
<g id="a_edge37_Node000001_Node000003"><a xlink:title=" ">
<path fill="none" stroke="#63b8ff" d="M1808.44,-373.65C1796.07,-414.84 1765,-496.02 1705,-529.77 1616.14,-579.75 1487.29,-540.04 1435.17,-520.28"/>
<polygon fill="#63b8ff" stroke="#63b8ff" points="1811.85,-374.43 1811.25,-363.86 1805.12,-372.5 1811.85,-374.43"/>
</a>
</g>
</g>
<!-- Node7 -->
<g id="Node000007" class="node">
<title>Node7</title>
<g id="a_Node000007"><a xlink:href="classConsoleRenderer.html#a8c9ea938ec7728f1f3436a0a9d944cf2" target="_top" xlink:title="Draws level completion screen.">
<polygon fill="white" stroke="#666666" points="1489,-272.77 1333,-272.77 1333,-242.77 1489,-242.77 1489,-272.77"/>
<text text-anchor="start" x="1341" y="-260.77" font-family="Helvetica,sans-Serif" font-size="10.00">ConsoleRenderer::drawLevel</text>
<text text-anchor="middle" x="1411" y="-249.77" font-family="Helvetica,sans-Serif" font-size="10.00">Complete</text>
</a>
</g>
</g>
<!-- Node1&#45;&gt;Node7 -->
<g id="edge38_Node000001_Node000007" class="edge">
<title>Node1&#45;&gt;Node7</title>
<g id="a_edge38_Node000001_Node000007"><a xlink:title=" ">
<path fill="none" stroke="#63b8ff" d="M1788.29,-327.57C1767.04,-311.97 1735.84,-291.8 1705,-281.77 1634.38,-258.81 1549.39,-254.19 1489.17,-254.49"/>
<polygon fill="#63b8ff" stroke="#63b8ff" points="1786.39,-330.51 1796.48,-333.72 1790.59,-324.91 1786.39,-330.51"/>
</a>
</g>
</g>
<!-- Node9 -->
<g id="Node000009" class="node">
<title>Node9</title>
<g id="a_Node000009"><a xlink:href="classConsoleRenderer.html#afd03640670c991dfa8240af639c2f0da" target="_top" xlink:title="Draws map selection screen.">
<polygon fill="white" stroke="#666666" points="1486.5,-482.77 1335.5,-482.77 1335.5,-452.77 1486.5,-452.77 1486.5,-482.77"/>
<text text-anchor="start" x="1343.5" y="-470.77" font-family="Helvetica,sans-Serif" font-size="10.00">ConsoleRenderer::drawMap</text>
<text text-anchor="middle" x="1411" y="-459.77" font-family="Helvetica,sans-Serif" font-size="10.00">Selection</text>
</a>
</g>
</g>
<!-- Node1&#45;&gt;Node9 -->
<g id="edge41_Node000001_Node000009" class="edge">
<title>Node1&#45;&gt;Node9</title>
<g id="a_edge41_Node000001_Node000009"><a xlink:title=" ">
<path fill="none" stroke="#63b8ff" d="M1795.02,-371.47C1774.71,-392.87 1741.15,-423.82 1705,-438.77 1634.97,-467.74 1547.79,-472.88 1486.81,-472.08"/>
<polygon fill="#63b8ff" stroke="#63b8ff" points="1797.66,-373.78 1801.89,-364.07 1792.52,-369.02 1797.66,-373.78"/>
</a>
</g>
</g>
<!-- Node12 -->
<g id="Node000012" class="node">
<title>Node12</title>
<g id="a_Node000012"><a xlink:href="classGameController.html#a9d11b5a6255b7249bddba49df0837cf3" target="_top" xlink:title="Displays and manages the main menu.">
<polygon fill="white" stroke="#666666" points="1054,-385.27 902,-385.27 902,-366.27 1054,-366.27 1054,-385.27"/>
<text text-anchor="middle" x="978" y="-373.27" font-family="Helvetica,sans-Serif" font-size="10.00">GameController::showMenu</text>
</a>
</g>
</g>
<!-- Node1&#45;&gt;Node12 -->
<g id="edge48_Node000001_Node000012" class="edge">
<title>Node1&#45;&gt;Node12</title>
<g id="a_edge48_Node000001_Node000012"><a xlink:title=" ">
<path fill="none" stroke="#63b8ff" d="M1764.8,-367.08C1746.23,-373.22 1724.86,-379.58 1705,-383.77 1438.82,-439.95 1363.49,-423.77 1093,-394.77 1071.75,-392.49 1048.45,-388.82 1028.49,-385.31"/>
<polygon fill="#63b8ff" stroke="#63b8ff" points="1766.16,-370.31 1774.52,-363.79 1763.92,-363.68 1766.16,-370.31"/>
</a>
</g>
</g>
<!-- Node14 -->
<g id="Node000014" class="node">
<title>Node14</title>
<g id="a_Node000014"><a xlink:href="classConsoleRenderer.html#aa9273ce964dc1492d66a30b772213e81" target="_top" xlink:title="Draws main menu screen.">
<polygon fill="white" stroke="#666666" points="1489.5,-396.27 1332.5,-396.27 1332.5,-377.27 1489.5,-377.27 1489.5,-396.27"/>
<text text-anchor="middle" x="1411" y="-384.27" font-family="Helvetica,sans-Serif" font-size="10.00">ConsoleRenderer::drawMenu</text>
</a>
</g>
</g>
<!-- Node1&#45;&gt;Node14 -->
<g id="edge42_Node000001_Node000014" class="edge">
<title>Node1&#45;&gt;Node14</title>
<g id="a_edge42_Node000001_Node000014"><a xlink:title=" ">
<path fill="none" stroke="#63b8ff" d="M1730.66,-359.9C1722,-360.92 1713.33,-361.9 1705,-362.77 1632.03,-370.4 1548.62,-377.03 1489.51,-381.37"/>
<polygon fill="#63b8ff" stroke="#63b8ff" points="1731.28,-363.35 1740.79,-358.68 1730.45,-356.4 1731.28,-363.35"/>
</a>
</g>
</g>
<!-- Node15 -->
<g id="Node000015" class="node">
<title>Node15</title>
<g id="a_Node000015"><a xlink:href="classConsoleRenderer.html#a678f6e7177b2d466b8953d4f01bb7436" target="_top" xlink:title="Draws pause screen.">
<polygon fill="white" stroke="#666666" points="1057,-138.77 899,-138.77 899,-108.77 1057,-108.77 1057,-138.77"/>
<text text-anchor="start" x="907" y="-126.77" font-family="Helvetica,sans-Serif" font-size="10.00">ConsoleRenderer::drawPause</text>
<text text-anchor="middle" x="978" y="-115.77" font-family="Helvetica,sans-Serif" font-size="10.00">Screen</text>
</a>
</g>
</g>
<!-- Node1&#45;&gt;Node15 -->
<g id="edge43_Node000001_Node000015" class="edge">
<title>Node1&#45;&gt;Node15</title>
<g id="a_edge43_Node000001_Node000015"><a xlink:title=" ">
<path fill="none" stroke="#63b8ff" d="M1794.38,-326.11C1773.58,-304.36 1739.67,-271.8 1705,-250.77 1496.99,-124.62 1197.51,-115.8 1057.16,-119.61"/>
<polygon fill="#63b8ff" stroke="#63b8ff" points="1792.03,-328.72 1801.43,-333.6 1797.12,-323.92 1792.03,-328.72"/>
</a>
</g>
</g>
<!-- Node16 -->
<g id="Node000016" class="node">
<title>Node16</title>
<g id="a_Node000016"><a xlink:href="classConsoleRenderer.html#a0e17aa687bd8d7381b2bf8425b2a9709" target="_top" xlink:title="Draws settings screen.">
<polygon fill="white" stroke="#666666" points="1496,-358.27 1326,-358.27 1326,-339.27 1496,-339.27 1496,-358.27"/>
<text text-anchor="middle" x="1411" y="-346.27" font-family="Helvetica,sans-Serif" font-size="10.00">ConsoleRenderer::drawSettings</text>
</a>
</g>
</g>
<!-- Node1&#45;&gt;Node16 -->
<g id="edge44_Node000001_Node000016" class="edge">
<title>Node1&#45;&gt;Node16</title>
<g id="a_edge44_Node000001_Node000016"><a xlink:title=" ">
<path fill="none" stroke="#63b8ff" d="M1730.23,-348.77C1661.37,-348.77 1564.73,-348.77 1496.05,-348.77"/>
<polygon fill="#63b8ff" stroke="#63b8ff" points="1730.61,-352.27 1740.61,-348.77 1730.61,-345.27 1730.61,-352.27"/>
</a>
</g>
</g>
<!-- Node19 -->
<g id="Node000019" class="node">
<title>Node19</title>
<g id="a_Node000019"><a xlink:href="classConsoleRenderer.html#ab34fa7af4ede79de3951f1d5271d7a27" target="_top" xlink:title="Renders the game world to console.">
<polygon fill="white" stroke="#666666" points="1479.5,-62.27 1342.5,-62.27 1342.5,-43.27 1479.5,-43.27 1479.5,-62.27"/>
<text text-anchor="middle" x="1411" y="-50.27" font-family="Helvetica,sans-Serif" font-size="10.00">ConsoleRenderer::render</text>
</a>
</g>
</g>
<!-- Node1&#45;&gt;Node19 -->
<g id="edge47_Node000001_Node000019" class="edge">
<title>Node1&#45;&gt;Node19</title>
<g id="a_edge47_Node000001_Node000019"><a xlink:title=" ">
<path fill="none" stroke="#63b8ff" d="M1815.31,-323.36C1814.51,-260.63 1802.66,-98.47 1705,-28.77 1619.63,32.16 1482.51,-20.2 1431.74,-43.22"/>
<polygon fill="#63b8ff" stroke="#63b8ff" points="1811.81,-323.56 1815.35,-333.54 1818.81,-323.53 1811.81,-323.56"/>
</a>
</g>
</g>
<!-- Node20 -->
<g id="Node000020" class="node">
<title>Node20</title>
<g id="a_Node000020"><a xlink:href="classConsoleRenderer.html#ab6e419a1d0f420decceba8e545890318" target="_top" xlink:title="Draws map preview for selection screen.">
<polygon fill="white" stroke="#666666" points="1697,-520.77 1546,-520.77 1546,-490.77 1697,-490.77 1697,-520.77"/>
<text text-anchor="start" x="1554" y="-508.77" font-family="Helvetica,sans-Serif" font-size="10.00">ConsoleRenderer::drawMap</text>
<text text-anchor="middle" x="1621.5" y="-497.77" font-family="Helvetica,sans-Serif" font-size="10.00">Preview</text>
</a>
</g>
</g>
<!-- Node1&#45;&gt;Node20 -->
<g id="edge39_Node000001_Node000020" class="edge">
<title>Node1&#45;&gt;Node20</title>
<g id="a_edge39_Node000001_Node000020"><a xlink:title=" ">
<path fill="none" stroke="#63b8ff" d="M1800.2,-372.61C1781.36,-401.14 1746.26,-448.58 1705,-476.77 1696.85,-482.34 1687.52,-486.95 1678.14,-490.73"/>
<polygon fill="#63b8ff" stroke="#63b8ff" points="1803.24,-374.36 1805.74,-364.06 1797.36,-370.56 1803.24,-374.36"/>
</a>
</g>
</g>
<!-- Node21 -->
<g id="Node000021" class="node">
<title>Node21</title>
<g id="a_Node000021"><a xlink:href="classConsoleRenderer.html#ae0a5ec8d9b0ab1252c3a8a9eae7bceaa" target="_top" xlink:title="Draws symbol legend explaining game symbols.">
<polygon fill="white" stroke="#666666" points="1705,-67.77 1538,-67.77 1538,-37.77 1705,-37.77 1705,-67.77"/>
<text text-anchor="start" x="1546" y="-55.77" font-family="Helvetica,sans-Serif" font-size="10.00">ConsoleRenderer::drawSymbol</text>
<text text-anchor="middle" x="1621.5" y="-44.77" font-family="Helvetica,sans-Serif" font-size="10.00">Legend</text>
</a>
</g>
</g>
<!-- Node1&#45;&gt;Node21 -->
<g id="edge45_Node000001_Node000021" class="edge">
<title>Node1&#45;&gt;Node21</title>
<g id="a_edge45_Node000001_Node000021"><a xlink:title=" ">
<path fill="none" stroke="#63b8ff" d="M1811.58,-323.58C1803.16,-271.2 1776.65,-149.74 1705,-81.77 1699.05,-76.13 1691.94,-71.58 1684.43,-67.91"/>
<polygon fill="#63b8ff" stroke="#63b8ff" points="1808.15,-324.31 1813.11,-333.67 1815.07,-323.26 1808.15,-324.31"/>
</a>
</g>
</g>
<!-- Node2&#45;&gt;Node3 -->
<g id="edge2_Node000002_Node000003" class="edge">
<title>Node2&#45;&gt;Node3</title>
<g id="a_edge2_Node000002_Node000003"><a xlink:title=" ">
<path fill="none" stroke="#63b8ff" d="M1611.97,-330.6C1596.68,-371.16 1560.63,-451.16 1502,-491.77 1496.49,-495.59 1490.36,-498.67 1483.97,-501.14"/>
<polygon fill="#63b8ff" stroke="#63b8ff" points="1615.35,-331.56 1615.49,-320.96 1608.77,-329.15 1615.35,-331.56"/>
</a>
</g>
</g>
<!-- Node2&#45;&gt;Node7 -->
<g id="edge6_Node000002_Node000007" class="edge">
<title>Node2&#45;&gt;Node7</title>
<g id="a_edge6_Node000002_Node000007"><a xlink:title=" ">
<path fill="none" stroke="#63b8ff" d="M1545.34,-288.47C1523.03,-283.33 1498.79,-277.75 1477.17,-272.77"/>
<polygon fill="#63b8ff" stroke="#63b8ff" points="1544.57,-291.88 1555.1,-290.72 1546.14,-285.06 1544.57,-291.88"/>
</a>
</g>
</g>
<!-- Node2&#45;&gt;Node9 -->
<g id="edge9_Node000002_Node000009" class="edge">
<title>Node2&#45;&gt;Node9</title>
<g id="a_edge9_Node000002_Node000009"><a xlink:title=" ">
<path fill="none" stroke="#63b8ff" d="M1595.91,-327.74C1572.34,-348.51 1535.49,-380.2 1502,-405.77 1479.98,-422.58 1453.81,-440.38 1435.37,-452.58"/>
<polygon fill="#63b8ff" stroke="#63b8ff" points="1598.49,-330.13 1603.66,-320.88 1593.85,-324.89 1598.49,-330.13"/>
</a>
</g>
</g>
<!-- Node2&#45;&gt;Node14 -->
<g id="edge20_Node000002_Node000014" class="edge">
<title>Node2&#45;&gt;Node14</title>
<g id="a_edge20_Node000002_Node000014"><a xlink:title=" ">
<path fill="none" stroke="#63b8ff" d="M1587.7,-326.06C1564.51,-339.61 1532.28,-356.89 1502,-367.77 1491.48,-371.55 1479.98,-374.69 1468.83,-377.24"/>
<polygon fill="#63b8ff" stroke="#63b8ff" points="1589.62,-328.99 1596.43,-320.88 1586.05,-322.97 1589.62,-328.99"/>
</a>
</g>
</g>
<!-- Node2&#45;&gt;Node15 -->
<g id="edge22_Node000002_Node000015" class="edge">
<title>Node2&#45;&gt;Node15</title>
<g id="a_edge22_Node000002_Node000015"><a xlink:title=" ">
<path fill="none" stroke="#63b8ff" d="M1591.91,-284.58C1568.77,-268.39 1534.75,-246.73 1502,-233.77 1350.79,-173.96 1161.51,-144.49 1057.15,-131.85"/>
<polygon fill="#63b8ff" stroke="#63b8ff" points="1590.05,-287.54 1600.23,-290.48 1594.1,-281.84 1590.05,-287.54"/>
</a>
</g>
</g>
<!-- Node2&#45;&gt;Node16 -->
<g id="edge25_Node000002_Node000016" class="edge">
<title>Node2&#45;&gt;Node16</title>
<g id="a_edge25_Node000002_Node000016"><a xlink:title=" ">
<path fill="none" stroke="#63b8ff" d="M1537.71,-322.85C1510.63,-328.43 1481.54,-334.43 1458.17,-339.25"/>
<polygon fill="#63b8ff" stroke="#63b8ff" points="1538.49,-326.26 1547.58,-320.81 1537.08,-319.4 1538.49,-326.26"/>
</a>
</g>
</g>
<!-- Node18 -->
<g id="Node000018" class="node">
<title>Node18</title>
<g id="a_Node000018"><a xlink:href="classGameController.html#a19dc0995b5ee51a87bf49dff90f4e991" target="_top" xlink:title="Handles terminal resize events.">
<polygon fill="white" stroke="#666666" points="1498.5,-320.77 1323.5,-320.77 1323.5,-290.77 1498.5,-290.77 1498.5,-320.77"/>
<text text-anchor="start" x="1331.5" y="-308.77" font-family="Helvetica,sans-Serif" font-size="10.00">GameController::handleTerminal</text>
<text text-anchor="middle" x="1411" y="-297.77" font-family="Helvetica,sans-Serif" font-size="10.00">Resize</text>
</a>
</g>
</g>
<!-- Node2&#45;&gt;Node18 -->
<g id="edge28_Node000002_Node000018" class="edge">
<title>Node2&#45;&gt;Node18</title>
<g id="a_edge28_Node000002_Node000018"><a xlink:title=" ">
<path fill="none" stroke="#63b8ff" d="M1534.6,-305.77C1522.72,-305.77 1510.52,-305.77 1498.63,-305.77"/>
<polygon fill="#63b8ff" stroke="#63b8ff" points="1534.93,-309.27 1544.93,-305.77 1534.93,-302.27 1534.93,-309.27"/>
</a>
</g>
</g>
<!-- Node2&#45;&gt;Node19 -->
<g id="edge35_Node000002_Node000019" class="edge">
<title>Node2&#45;&gt;Node19</title>
<g id="a_edge35_Node000002_Node000019"><a xlink:title=" ">
<path fill="none" stroke="#63b8ff" d="M1609.42,-281.31C1591.11,-242.72 1551.56,-166.76 1502,-114.77 1480.53,-92.25 1449.63,-73.14 1430.2,-62.31"/>
<polygon fill="#63b8ff" stroke="#63b8ff" points="1606.41,-283.14 1613.82,-290.72 1612.76,-280.18 1606.41,-283.14"/>
</a>
</g>
</g>
<!-- Node4 -->
<g id="Node000004" class="node">
<title>Node4</title>
<g id="a_Node000004"><a xlink:href="classGameController.html#af2367e58f03d8a1441c9a574967fd360" target="_top" xlink:title="Processes a single game turn/update cycle.">
<polygon fill="white" stroke="#666666" points="445,-252.27 258,-252.27 258,-233.27 445,-233.27 445,-252.27"/>
<text text-anchor="middle" x="351.5" y="-240.27" font-family="Helvetica,sans-Serif" font-size="10.00">GameController::processGameTurn</text>
</a>
</g>
</g>
<!-- Node3&#45;&gt;Node4 -->
<g id="edge3_Node000003_Node000004" class="edge">
<title>Node3&#45;&gt;Node4</title>
<g id="a_edge3_Node000003_Node000004"><a xlink:title=" ">
<path fill="none" stroke="#63b8ff" d="M1309.43,-508.64C1246.86,-506.19 1164.89,-500.96 1093,-489.77 815.86,-446.65 734.77,-455.22 481,-335.77 432.66,-313.02 383.79,-271.34 362.95,-252.49"/>
<polygon fill="#63b8ff" stroke="#63b8ff" points="1309.57,-512.14 1319.69,-509.02 1309.83,-505.15 1309.57,-512.14"/>
</a>
</g>
</g>
<!-- Node5 -->
<g id="Node000005" class="node">
<title>Node5</title>
<g id="a_Node000005"><a xlink:href="classGameController.html#ac958989c8f7f08488546930e5fcb0d82" target="_top" xlink:title="Starts and runs the main game loop.">
<polygon fill="white" stroke="#666666" points="222,-347.27 77,-347.27 77,-328.27 222,-328.27 222,-347.27"/>
<text text-anchor="middle" x="149.5" y="-335.27" font-family="Helvetica,sans-Serif" font-size="10.00">GameController::runGame</text>
</a>
</g>
</g>
<!-- Node4&#45;&gt;Node5 -->
<g id="edge4_Node000004_Node000005" class="edge">
<title>Node4&#45;&gt;Node5</title>
<g id="a_edge4_Node000004_Node000005"><a xlink:title=" ">
<path fill="none" stroke="#63b8ff" d="M320.96,-256.8C279.71,-276.39 205.94,-311.44 170.53,-328.25"/>
<polygon fill="#63b8ff" stroke="#63b8ff" points="322.69,-259.85 330.22,-252.4 319.69,-253.53 322.69,-259.85"/>
</a>
</g>
</g>
<!-- Node6 -->
<g id="Node000006" class="node">
<title>Node6</title>
<g id="a_Node000006"><a xlink:href="main_8cpp.html#ae66f6b31b5ad750f1fe042a706a4e3d4" target="_top" xlink:title="Main function that serves as the application entry point.">
<polygon fill="white" stroke="#666666" points="41,-347.27 0,-347.27 0,-328.27 41,-328.27 41,-347.27"/>
<text text-anchor="middle" x="20.5" y="-335.27" font-family="Helvetica,sans-Serif" font-size="10.00">main</text>
</a>
</g>
</g>
<!-- Node5&#45;&gt;Node6 -->
<g id="edge5_Node000005_Node000006" class="edge">
<title>Node5&#45;&gt;Node6</title>
<g id="a_edge5_Node000005_Node000006"><a xlink:title=" ">
<path fill="none" stroke="#63b8ff" d="M66.79,-337.77C57.31,-337.77 48.43,-337.77 41.08,-337.77"/>
<polygon fill="#63b8ff" stroke="#63b8ff" points="66.83,-341.27 76.83,-337.77 66.83,-334.27 66.83,-341.27"/>
</a>
</g>
</g>
<!-- Node8 -->
<g id="Node000008" class="node">
<title>Node8</title>
<g id="a_Node000008"><a xlink:href="classGameController.html#a85bcf4ecfd197aad278e116215a3717b" target="_top" xlink:title="Displays level completion screen.">
<polygon fill="white" stroke="#666666" points="860,-257.77 708,-257.77 708,-227.77 860,-227.77 860,-257.77"/>
<text text-anchor="start" x="716" y="-245.77" font-family="Helvetica,sans-Serif" font-size="10.00">GameController::showLevel</text>
<text text-anchor="middle" x="784" y="-234.77" font-family="Helvetica,sans-Serif" font-size="10.00">CompleteScreen</text>
</a>
</g>
</g>
<!-- Node7&#45;&gt;Node8 -->
<g id="edge7_Node000007_Node000008" class="edge">
<title>Node7&#45;&gt;Node8</title>
<g id="a_edge7_Node000007_Node000008"><a xlink:title=" ">
<path fill="none" stroke="#63b8ff" d="M1346.91,-240.31C1326.96,-235.58 1304.7,-231.12 1284,-228.77 1113.98,-209.46 1069.79,-218.32 899,-228.77 886.46,-229.54 873.19,-230.78 860.31,-232.21"/>
<polygon fill="#63b8ff" stroke="#63b8ff" points="1346.27,-243.76 1356.82,-242.72 1347.93,-236.95 1346.27,-243.76"/>
</a>
</g>
</g>
<!-- Node8&#45;&gt;Node4 -->
<g id="edge8_Node000008_Node000004" class="edge">
<title>Node8&#45;&gt;Node4</title>
<g id="a_edge8_Node000008_Node000004"><a xlink:title=" ">
<path fill="none" stroke="#63b8ff" d="M697.45,-242.77C624.55,-242.77 520.01,-242.77 445.15,-242.77"/>
<polygon fill="#63b8ff" stroke="#63b8ff" points="697.52,-246.27 707.52,-242.77 697.52,-239.27 697.52,-246.27"/>
</a>
</g>
</g>
<!-- Node10 -->
<g id="Node000010" class="node">
<title>Node10</title>
<g id="a_Node000010"><a xlink:href="classGameController.html#a4a9c94fe33cf6c73bb5dfc415d04d309" target="_top" xlink:title="Displays map selection screen.">
<polygon fill="white" stroke="#666666" points="1284,-480.27 1093,-480.27 1093,-461.27 1284,-461.27 1284,-480.27"/>
<text text-anchor="middle" x="1188.5" y="-468.27" font-family="Helvetica,sans-Serif" font-size="10.00">GameController::showMapSelection</text>
</a>
</g>
</g>
<!-- Node9&#45;&gt;Node10 -->
<g id="edge10_Node000009_Node000010" class="edge">
<title>Node9&#45;&gt;Node10</title>
<g id="a_edge10_Node000009_Node000010"><a xlink:title=" ">
<path fill="none" stroke="#63b8ff" d="M1325.17,-468.93C1311.69,-469.11 1297.69,-469.3 1284.01,-469.49"/>
<polygon fill="#63b8ff" stroke="#63b8ff" points="1325.4,-472.42 1335.35,-468.79 1325.3,-465.42 1325.4,-472.42"/>
</a>
</g>
</g>
<!-- Node11 -->
<g id="Node000011" class="node">
<title>Node11</title>
<g id="a_Node000011"><a xlink:href="classGameController.html#a971b3d8f6296a74f0bebc83b5e79c186" target="_top" xlink:title="Processes a user command.">
<polygon fill="white" stroke="#666666" points="669,-326.27 481,-326.27 481,-307.27 669,-307.27 669,-326.27"/>
<text text-anchor="middle" x="575" y="-314.27" font-family="Helvetica,sans-Serif" font-size="10.00">GameController::processCommand</text>
</a>
</g>
</g>
<!-- Node10&#45;&gt;Node11 -->
<g id="edge11_Node000010_Node000011" class="edge">
<title>Node10&#45;&gt;Node11</title>
<g id="a_edge11_Node000010_Node000011"><a xlink:title=" ">
<path fill="none" stroke="#63b8ff" d="M1127.83,-459.26C1036.18,-441.11 855.57,-403.49 705,-360.77 668.58,-350.44 627.29,-335.83 601.45,-326.33"/>
<polygon fill="#63b8ff" stroke="#63b8ff" points="1127.26,-462.72 1137.75,-461.22 1128.62,-455.85 1127.26,-462.72"/>
</a>
</g>
</g>
<!-- Node10&#45;&gt;Node12 -->
<g id="edge13_Node000010_Node000012" class="edge">
<title>Node10&#45;&gt;Node12</title>
<g id="a_edge13_Node000010_Node000012"><a xlink:title=" ">
<path fill="none" stroke="#63b8ff" d="M1159.54,-458.44C1140.33,-453.2 1114.52,-446.94 1093,-437.77 1058.9,-423.24 1023.18,-399.37 1001.01,-385.52"/>
<polygon fill="#63b8ff" stroke="#63b8ff" points="1158.62,-461.82 1169.2,-461.18 1160.53,-455.08 1158.62,-461.82"/>
</a>
</g>
</g>
<!-- Node11&#45;&gt;Node4 -->
<g id="edge12_Node000011_Node000004" class="edge">
<title>Node11&#45;&gt;Node4</title>
<g id="a_edge12_Node000011_Node000004"><a xlink:title=" ">
<path fill="none" stroke="#63b8ff" d="M535.75,-303.99C491.82,-289.31 420.72,-265.56 381.25,-252.37"/>
<polygon fill="#63b8ff" stroke="#63b8ff" points="534.9,-307.4 545.5,-307.25 537.12,-300.76 534.9,-307.4"/>
</a>
</g>
</g>
<!-- Node12&#45;&gt;Node5 -->
<g id="edge17_Node000012_Node000005" class="edge">
<title>Node12&#45;&gt;Node5</title>
<g id="a_edge17_Node000012_Node000005"><a xlink:title=" ">
<path fill="none" stroke="#63b8ff" d="M891.83,-371.85C728.52,-364.35 374.12,-348.05 222.1,-341.06"/>
<polygon fill="#63b8ff" stroke="#63b8ff" points="891.68,-375.35 901.83,-372.31 892,-368.36 891.68,-375.35"/>
</a>
</g>
</g>
<!-- Node12&#45;&gt;Node8 -->
<g id="edge18_Node000012_Node000008" class="edge">
<title>Node12&#45;&gt;Node8</title>
<g id="a_edge18_Node000012_Node000008"><a xlink:title=" ">
<path fill="none" stroke="#63b8ff" d="M960.96,-358.65C940.04,-337.09 901.57,-299.96 863,-275.77 852.04,-268.9 839.4,-262.85 827.52,-257.87"/>
<polygon fill="#63b8ff" stroke="#63b8ff" points="958.63,-361.28 968.07,-366.09 963.69,-356.44 958.63,-361.28"/>
</a>
</g>
</g>
<!-- Node12&#45;&gt;Node10 -->
<g id="edge19_Node000012_Node000010" class="edge">
<title>Node12&#45;&gt;Node10</title>
<g id="a_edge19_Node000012_Node000010"><a xlink:title=" ">
<path fill="none" stroke="#63b8ff" d="M993.21,-392.57C1014.03,-411.12 1054.54,-439.38 1093,-455.77 1097.52,-457.7 1102.22,-459.49 1107.02,-461.15"/>
<polygon fill="#63b8ff" stroke="#63b8ff" points="995.44,-389.86 985.78,-385.51 990.62,-394.93 995.44,-389.86"/>
</a>
</g>
</g>
<!-- Node12&#45;&gt;Node11 -->
<g id="edge16_Node000012_Node000011" class="edge">
<title>Node12&#45;&gt;Node11</title>
<g id="a_edge16_Node000012_Node000011"><a xlink:title=" ">
<path fill="none" stroke="#63b8ff" d="M901.78,-364.7C826.56,-353.64 712.09,-336.79 640.78,-326.3"/>
<polygon fill="#63b8ff" stroke="#63b8ff" points="901.72,-368.23 912.13,-366.23 902.74,-361.31 901.72,-368.23"/>
</a>
</g>
</g>
<!-- Node13 -->
<g id="Node000013" class="node">
<title>Node13</title>
<g id="a_Node000013"><a xlink:href="classGameController.html#a637ea4e72ed2be4a2884b30160b3e8ab" target="_top" xlink:title="Pauses the game and displays pause screen.">
<polygon fill="white" stroke="#666666" points="863,-303.27 705,-303.27 705,-284.27 863,-284.27 863,-303.27"/>
<text text-anchor="middle" x="784" y="-291.27" font-family="Helvetica,sans-Serif" font-size="10.00">GameController::pauseGame</text>
</a>
</g>
</g>
<!-- Node12&#45;&gt;Node13 -->
<g id="edge14_Node000012_Node000013" class="edge">
<title>Node12&#45;&gt;Node13</title>
<g id="a_edge14_Node000012_Node000013"><a xlink:title=" ">
<path fill="none" stroke="#63b8ff" d="M945.3,-362.23C906.35,-345.6 841.28,-317.81 807.26,-303.28"/>
<polygon fill="#63b8ff" stroke="#63b8ff" points="944.03,-365.5 954.6,-366.2 946.78,-359.06 944.03,-365.5"/>
</a>
</g>
</g>
<!-- Node13&#45;&gt;Node11 -->
<g id="edge15_Node000013_Node000011" class="edge">
<title>Node13&#45;&gt;Node11</title>
<g id="a_edge15_Node000013_Node000011"><a xlink:title=" ">
<path fill="none" stroke="#63b8ff" d="M694.75,-303.58C683.77,-304.8 672.57,-306.04 661.64,-307.26"/>
<polygon fill="#63b8ff" stroke="#63b8ff" points="695.19,-307.05 704.74,-302.47 694.42,-300.09 695.19,-307.05"/>
</a>
</g>
</g>
<!-- Node14&#45;&gt;Node12 -->
<g id="edge21_Node000014_Node000012" class="edge">
<title>Node14&#45;&gt;Node12</title>
<g id="a_edge21_Node000014_Node000012"><a xlink:title=" ">
<path fill="none" stroke="#63b8ff" d="M1322.05,-384.53C1243.2,-382.51 1128.77,-379.59 1054.12,-377.69"/>
<polygon fill="#63b8ff" stroke="#63b8ff" points="1322.36,-388.04 1332.45,-384.79 1322.54,-381.04 1322.36,-388.04"/>
</a>
</g>
</g>
<!-- Node15&#45;&gt;Node4 -->
<g id="edge24_Node000015_Node000004" class="edge">
<title>Node15&#45;&gt;Node4</title>
<g id="a_edge24_Node000015_Node000004"><a xlink:title=" ">
<path fill="none" stroke="#63b8ff" d="M888.64,-114.72C787.2,-107.54 617.27,-105.38 481,-152.77 430.58,-170.31 382.04,-213.75 362.06,-233.15"/>
<polygon fill="#63b8ff" stroke="#63b8ff" points="888.61,-118.23 898.84,-115.48 889.13,-111.25 888.61,-118.23"/>
</a>
</g>
</g>
<!-- Node15&#45;&gt;Node13 -->
<g id="edge23_Node000015_Node000013" class="edge">
<title>Node15&#45;&gt;Node13</title>
<g id="a_edge23_Node000015_Node000013"><a xlink:title=" ">
<path fill="none" stroke="#63b8ff" d="M963.58,-148.08C944.94,-179.71 908.34,-234.71 863,-266.77 852.12,-274.47 838.85,-280.13 826.36,-284.23"/>
<polygon fill="#63b8ff" stroke="#63b8ff" points="966.81,-149.47 968.78,-139.06 960.75,-145.98 966.81,-149.47"/>
</a>
</g>
</g>
<!-- Node17 -->
<g id="Node000017" class="node">
<title>Node17</title>
<g id="a_Node000017"><a xlink:href="classGameController.html#a24f5cae258418d4a5934e6f412c28945" target="_top" xlink:title="Displays and manages the settings menu.">
<polygon fill="white" stroke="#666666" points="1271,-366.27 1106,-366.27 1106,-347.27 1271,-347.27 1271,-366.27"/>
<text text-anchor="middle" x="1188.5" y="-354.27" font-family="Helvetica,sans-Serif" font-size="10.00">GameController::showSettings</text>
</a>
</g>
</g>
<!-- Node16&#45;&gt;Node17 -->
<g id="edge26_Node000016_Node000017" class="edge">
<title>Node16&#45;&gt;Node17</title>
<g id="a_edge26_Node000016_Node000017"><a xlink:title=" ">
<path fill="none" stroke="#63b8ff" d="M1315.55,-352.2C1300.8,-352.73 1285.65,-353.28 1271.21,-353.81"/>
<polygon fill="#63b8ff" stroke="#63b8ff" points="1315.83,-355.69 1325.69,-351.83 1315.57,-348.69 1315.83,-355.69"/>
</a>
</g>
</g>
<!-- Node17&#45;&gt;Node12 -->
<g id="edge27_Node000017_Node000012" class="edge">
<title>Node17&#45;&gt;Node12</title>
<g id="a_edge27_Node000017_Node000012"><a xlink:title=" ">
<path fill="none" stroke="#63b8ff" d="M1095.94,-365.11C1082.04,-366.38 1067.83,-367.68 1054.32,-368.91"/>
<polygon fill="#63b8ff" stroke="#63b8ff" points="1096.35,-368.59 1105.99,-364.2 1095.72,-361.62 1096.35,-368.59"/>
</a>
</g>
</g>
<!-- Node18&#45;&gt;Node4 -->
<g id="edge30_Node000018_Node000004" class="edge">
<title>Node18&#45;&gt;Node4</title>
<g id="a_edge30_Node000018_Node000004"><a xlink:title=" ">
<path fill="none" stroke="#63b8ff" d="M1341.42,-287.95C1334.17,-285.93 1326.92,-283.85 1320,-281.77 1303.84,-276.93 1300.45,-273.47 1284,-269.77 1031.96,-213.11 963.18,-209.99 705,-218.77 616.72,-221.77 516.22,-228.99 445.18,-234.73"/>
<polygon fill="#63b8ff" stroke="#63b8ff" points="1340.7,-291.38 1351.27,-290.67 1342.56,-284.63 1340.7,-291.38"/>
</a>
</g>
</g>
<!-- Node18&#45;&gt;Node8 -->
<g id="edge31_Node000018_Node000008" class="edge">
<title>Node18&#45;&gt;Node8</title>
<g id="a_edge31_Node000018_Node000008"><a xlink:title=" ">
<path fill="none" stroke="#63b8ff" d="M1313.1,-296C1188.1,-283.4 973.32,-261.75 860.02,-250.33"/>
<polygon fill="#63b8ff" stroke="#63b8ff" points="1313.12,-299.52 1323.42,-297.04 1313.83,-292.56 1313.12,-299.52"/>
</a>
</g>
</g>
<!-- Node18&#45;&gt;Node10 -->
<g id="edge32_Node000018_Node000010" class="edge">
<title>Node18&#45;&gt;Node10</title>
<g id="a_edge32_Node000018_Node000010"><a xlink:title=" ">
<path fill="none" stroke="#63b8ff" d="M1329.72,-325.13C1326.35,-326.85 1323.09,-328.73 1320,-330.77 1298.63,-344.88 1301.06,-356.66 1284,-375.77 1254.88,-408.4 1217.56,-444.34 1199.8,-461.13"/>
<polygon fill="#63b8ff" stroke="#63b8ff" points="1331.24,-328.28 1338.85,-320.91 1328.3,-321.93 1331.24,-328.28"/>
</a>
</g>
</g>
<!-- Node18&#45;&gt;Node12 -->
<g id="edge33_Node000018_Node000012" class="edge">
<title>Node18&#45;&gt;Node12</title>
<g id="a_edge33_Node000018_Node000012"><a xlink:title=" ">
<path fill="none" stroke="#63b8ff" d="M1313.11,-310.57C1249.92,-314.99 1165.94,-323.32 1093,-338.77 1061.45,-345.46 1026.31,-357.61 1003.5,-366.16"/>
<polygon fill="#63b8ff" stroke="#63b8ff" points="1313.73,-314.03 1323.47,-309.86 1313.25,-307.05 1313.73,-314.03"/>
</a>
</g>
</g>
<!-- Node18&#45;&gt;Node13 -->
<g id="edge29_Node000018_Node000013" class="edge">
<title>Node18&#45;&gt;Node13</title>
<g id="a_edge29_Node000018_Node000013"><a xlink:title=" ">
<path fill="none" stroke="#63b8ff" d="M1313.2,-303.91C1189.44,-301.54 977.55,-297.47 863.38,-295.28"/>
<polygon fill="#63b8ff" stroke="#63b8ff" points="1313.36,-307.42 1323.42,-304.11 1313.49,-300.42 1313.36,-307.42"/>
</a>
</g>
</g>
<!-- Node18&#45;&gt;Node17 -->
<g id="edge34_Node000018_Node000017" class="edge">
<title>Node18&#45;&gt;Node17</title>
<g id="a_edge34_Node000018_Node000017"><a xlink:title=" ">
<path fill="none" stroke="#63b8ff" d="M1334.89,-323.14C1300.05,-331.2 1259.99,-340.47 1230.76,-347.23"/>
<polygon fill="#63b8ff" stroke="#63b8ff" points="1336.08,-326.46 1345.04,-320.8 1334.5,-319.64 1336.08,-326.46"/>
</a>
</g>
</g>
<!-- Node19&#45;&gt;Node4 -->
<g id="edge36_Node000019_Node000004" class="edge">
<title>Node19&#45;&gt;Node4</title>
<g id="a_edge36_Node000019_Node000004"><a xlink:title=" ">
<path fill="none" stroke="#63b8ff" d="M1332.2,-52.77C1245.89,-52.77 1102.49,-52.77 979,-52.77 979,-52.77 979,-52.77 783,-52.77 646.15,-52.77 601.51,-47.93 481,-112.77 423.71,-143.6 375.77,-208.42 358.95,-233.02"/>
<polygon fill="#63b8ff" stroke="#63b8ff" points="1332.44,-56.27 1342.44,-52.77 1332.44,-49.27 1332.44,-56.27"/>
</a>
</g>
</g>
<!-- Node20&#45;&gt;Node9 -->
<g id="edge40_Node000020_Node000009" class="edge">
<title>Node20&#45;&gt;Node9</title>
<g id="a_edge40_Node000020_Node000009"><a xlink:title=" ">
<path fill="none" stroke="#63b8ff" d="M1535.76,-490.33C1519.45,-487.35 1502.47,-484.26 1486.51,-481.35"/>
<polygon fill="#63b8ff" stroke="#63b8ff" points="1535.35,-493.81 1545.82,-492.16 1536.61,-486.92 1535.35,-493.81"/>
</a>
</g>
</g>
<!-- Node21&#45;&gt;Node19 -->
<g id="edge46_Node000021_Node000019" class="edge">
<title>Node21&#45;&gt;Node19</title>
<g id="a_edge46_Node000021_Node000019"><a xlink:title=" ">
<path fill="none" stroke="#63b8ff" d="M1527.75,-52.77C1511.52,-52.77 1494.91,-52.77 1479.53,-52.77"/>
<polygon fill="#63b8ff" stroke="#63b8ff" points="1527.8,-56.27 1537.8,-52.77 1527.8,-49.27 1527.8,-56.27"/>
</a>
</g>
</g>
</g>
</svg>
