<?xml version="1.0" encoding="UTF-8" standalone="no"?>
<!DOCTYPE svg PUBLIC "-//W3C//DTD SVG 1.1//EN"
 "http://www.w3.org/Graphics/SVG/1.1/DTD/svg11.dtd">
<!-- Generated by graphviz version 2.43.0 (0)
 -->
<!-- Title: ConsoleRenderer::clearScreen Pages: 1 -->
<!--zoomable 687 -->

<svg id="main" version="1.1" xmlns="http://www.w3.org/2000/svg" xmlns:xlink="http://www.w3.org/1999/xlink" xml:space="preserve" onload="init(evt)">
<style type="text/css"><![CDATA[
.node, .edge {opacity: 0.7;}
.node.selected, .edge.selected {opacity: 1;}
.edge:hover path { stroke: red; }
.edge:hover polygon { stroke: red; fill: red; }
]]></style>

<defs>
  <circle id="rim" cx="0" cy="0" r="7"/>
  <circle id="rim2" cx="0" cy="0" r="3.5"/>
  <g id="zoomPlus">
    <use xlink:href="#rim" fill="#404040"><set attributeName="fill" to="#808080" begin="zoomplus.mouseover" end="zoomplus.mouseout"/></use>
    <path d="M-4,0h8M0,-4v8" fill="none" stroke="white" stroke-width="1.5" pointer-events="none"/>
  </g>
  <g id="zoomMin">
    <use xlink:href="#rim" fill="#404040"><set attributeName="fill" to="#808080" begin="zoomminus.mouseover" end="zoomminus.mouseout"/></use>
    <path d="M-4,0h8" fill="none" stroke="white" stroke-width="1.5" pointer-events="none"/>
  </g>
  <g id="arrowUp" transform="translate(30 24)">
    <use xlink:href="#rim"/>
    <path pointer-events="none" fill="none" stroke="white" stroke-width="1.5" d="M0,-3.0v7 M-2.5,-0.5L0,-3.0L2.5,-0.5"/>
  </g>
  <g id="arrowRight" transform="rotate(90) translate(36 -43)">
    <use xlink:href="#rim"/>
    <path pointer-events="none" fill="none" stroke="white" stroke-width="1.5" d="M0,-3.0v7 M-2.5,-0.5L0,-3.0L2.5,-0.5"/>
  </g>
  <g id="arrowDown" transform="rotate(180) translate(-30 -48)">
    <use xlink:href="#rim"/>
    <path pointer-events="none" fill="none" stroke="white" stroke-width="1.5" d="M0,-3.0v7 M-2.5,-0.5L0,-3.0L2.5,-0.5"/>
  </g>
  <g id="arrowLeft" transform="rotate(270) translate(-36 17)">
    <use xlink:href="#rim"/>
    <path pointer-events="none" fill="none" stroke="white" stroke-width="1.5" d="M0,-3.0v7 M-2.5,-0.5L0,-3.0L2.5,-0.5"/>
  </g>
  <g id="resetDef">
    <use xlink:href="#rim2" fill="#404040"><set attributeName="fill" to="#808080" begin="reset.mouseover" end="reset.mouseout"/></use>
  </g>
</defs>
<script type="application/ecmascript">
var viewWidth = 1924;
var viewHeight = 687;
var sectionId = 'dynsection-4';
</script>
<script type="application/ecmascript" xlink:href="svg.min.js"/>
<svg id="graph" class="graph">
<g id="viewport">
<title>ConsoleRenderer::clearScreen</title>
<!-- Node1 -->
<g id="Node000001" class="node">
<title>Node1</title>
<g id="a_Node000001"><a xlink:title="Clears the terminal screen.">
<polygon fill="#999999" stroke="#666666" points="1916,-324.67 1753,-324.67 1753,-305.67 1916,-305.67 1916,-324.67"/>
<text text-anchor="middle" x="1834.5" y="-312.67" font-family="Helvetica,sans-Serif" font-size="10.00">ConsoleRenderer::clearScreen</text>
</a>
</g>
</g>
<!-- Node2 -->
<g id="Node000002" class="node">
<title>Node2</title>
<g id="a_Node000002"><a xlink:href="classConsoleRenderer.html#af59760cefd8647cf4b6fe34774cac2c1" target="_top" xlink:title="Draws an error message about terminal size.">
<polygon fill="white" stroke="#666666" points="1704,-430.17 1551,-430.17 1551,-400.17 1704,-400.17 1704,-430.17"/>
<text text-anchor="start" x="1559" y="-418.17" font-family="Helvetica,sans-Serif" font-size="10.00">ConsoleRenderer::drawError</text>
<text text-anchor="middle" x="1627.5" y="-407.17" font-family="Helvetica,sans-Serif" font-size="10.00">Message</text>
</a>
</g>
</g>
<!-- Node1&#45;&gt;Node2 -->
<g id="edge1_Node000001_Node000002" class="edge">
<title>Node1&#45;&gt;Node2</title>
<g id="a_edge1_Node000001_Node000002"><a xlink:title=" ">
<path fill="none" stroke="#63b8ff" d="M1811.82,-330.49C1789.04,-346.07 1751.75,-370.15 1717,-386.17 1705.69,-391.38 1693.18,-396.08 1681.21,-400.11"/>
<polygon fill="#63b8ff" stroke="#63b8ff" points="1813.85,-333.34 1820.09,-324.77 1809.87,-327.58 1813.85,-333.34"/>
</a>
</g>
</g>
<!-- Node3 -->
<g id="Node000003" class="node">
<title>Node3</title>
<g id="a_Node000003"><a xlink:href="classConsoleRenderer.html#a38306106200aabcfd90f6fe0552e18ea" target="_top" xlink:title="Draws game over screen.">
<polygon fill="white" stroke="#666666" points="1502,-604.67 1320,-604.67 1320,-585.67 1502,-585.67 1502,-604.67"/>
<text text-anchor="middle" x="1411" y="-592.67" font-family="Helvetica,sans-Serif" font-size="10.00">ConsoleRenderer::drawGameOver</text>
</a>
</g>
</g>
<!-- Node1&#45;&gt;Node3 -->
<g id="edge37_Node000001_Node000003" class="edge">
<title>Node1&#45;&gt;Node3</title>
<g id="a_edge37_Node000001_Node000003"><a xlink:title=" ">
<path fill="none" stroke="#63b8ff" d="M1828.79,-334.63C1817.45,-377.15 1784.4,-478.59 1717,-529.17 1655.25,-575.5 1567.74,-590.71 1502.28,-595.08"/>
<polygon fill="#63b8ff" stroke="#63b8ff" points="1832.24,-335.27 1831.32,-324.72 1825.46,-333.54 1832.24,-335.27"/>
</a>
</g>
</g>
<!-- Node4 -->
<g id="Node000004" class="node">
<title>Node4</title>
<g id="a_Node000004"><a xlink:href="classGameController.html#af2367e58f03d8a1441c9a574967fd360" target="_top" xlink:title="Processes a single game turn/update cycle.">
<polygon fill="white" stroke="#666666" points="445,-439.67 258,-439.67 258,-420.67 445,-420.67 445,-439.67"/>
<text text-anchor="middle" x="351.5" y="-427.67" font-family="Helvetica,sans-Serif" font-size="10.00">GameController::processGameTurn</text>
</a>
</g>
</g>
<!-- Node1&#45;&gt;Node4 -->
<g id="edge45_Node000001_Node000004" class="edge">
<title>Node1&#45;&gt;Node4</title>
<g id="a_edge45_Node000001_Node000004"><a xlink:title=" ">
<path fill="none" stroke="#63b8ff" d="M1832.38,-334.84C1828.12,-389.55 1808.19,-544.39 1717,-619.17 1610.67,-706.37 1549.51,-671.17 1412,-671.17 1412,-671.17 1412,-671.17 783,-671.17 642.94,-671.17 598.33,-657.65 481,-581.17 421.02,-542.07 373.68,-466.82 358.03,-439.98"/>
<polygon fill="#63b8ff" stroke="#63b8ff" points="1835.88,-334.97 1833.07,-324.75 1828.89,-334.49 1835.88,-334.97"/>
</a>
</g>
</g>
<!-- Node5 -->
<g id="Node000005" class="node">
<title>Node5</title>
<g id="a_Node000005"><a xlink:href="classGameController.html#ac958989c8f7f08488546930e5fcb0d82" target="_top" xlink:title="Starts and runs the main game loop.">
<polygon fill="white" stroke="#666666" points="222,-224.67 77,-224.67 77,-205.67 222,-205.67 222,-224.67"/>
<text text-anchor="middle" x="149.5" y="-212.67" font-family="Helvetica,sans-Serif" font-size="10.00">GameController::runGame</text>
</a>
</g>
</g>
<!-- Node1&#45;&gt;Node5 -->
<g id="edge46_Node000001_Node000005" class="edge">
<title>Node1&#45;&gt;Node5</title>
<g id="a_edge46_Node000001_Node000005"><a xlink:title=" ">
<path fill="none" stroke="#63b8ff" d="M1831.82,-295.34C1826.28,-243.55 1803.58,-103.94 1717,-42.17 1606.37,36.77 1547.91,-20.17 1412,-20.17 1412,-20.17 1412,-20.17 574,-20.17 394.71,-20.17 208.63,-166.15 161.73,-205.5"/>
<polygon fill="#63b8ff" stroke="#63b8ff" points="1828.36,-295.9 1832.81,-305.52 1835.33,-295.23 1828.36,-295.9"/>
</a>
</g>
</g>
<!-- Node7 -->
<g id="Node000007" class="node">
<title>Node7</title>
<g id="a_Node000007"><a xlink:href="classConsoleRenderer.html#a8c9ea938ec7728f1f3436a0a9d944cf2" target="_top" xlink:title="Draws level completion screen.">
<polygon fill="white" stroke="#666666" points="1489,-567.17 1333,-567.17 1333,-537.17 1489,-537.17 1489,-567.17"/>
<text text-anchor="start" x="1341" y="-555.17" font-family="Helvetica,sans-Serif" font-size="10.00">ConsoleRenderer::drawLevel</text>
<text text-anchor="middle" x="1411" y="-544.17" font-family="Helvetica,sans-Serif" font-size="10.00">Complete</text>
</a>
</g>
</g>
<!-- Node1&#45;&gt;Node7 -->
<g id="edge38_Node000001_Node000007" class="edge">
<title>Node1&#45;&gt;Node7</title>
<g id="a_edge38_Node000001_Node000007"><a xlink:title=" ">
<path fill="none" stroke="#63b8ff" d="M1826.01,-334.46C1811.06,-370.24 1774,-446.75 1717,-485.17 1649.01,-531 1554.89,-546.06 1489.25,-550.72"/>
<polygon fill="#63b8ff" stroke="#63b8ff" points="1829.43,-335.33 1829.93,-324.75 1822.94,-332.71 1829.43,-335.33"/>
</a>
</g>
</g>
<!-- Node8 -->
<g id="Node000008" class="node">
<title>Node8</title>
<g id="a_Node000008"><a xlink:href="classGameController.html#a85bcf4ecfd197aad278e116215a3717b" target="_top" xlink:title="Displays level completion screen.">
<polygon fill="white" stroke="#666666" points="860,-468.17 708,-468.17 708,-438.17 860,-438.17 860,-468.17"/>
<text text-anchor="start" x="716" y="-456.17" font-family="Helvetica,sans-Serif" font-size="10.00">GameController::showLevel</text>
<text text-anchor="middle" x="784" y="-445.17" font-family="Helvetica,sans-Serif" font-size="10.00">CompleteScreen</text>
</a>
</g>
</g>
<!-- Node1&#45;&gt;Node8 -->
<g id="edge47_Node000001_Node000008" class="edge">
<title>Node1&#45;&gt;Node8</title>
<g id="a_edge47_Node000001_Node000008"><a xlink:title=" ">
<path fill="none" stroke="#63b8ff" d="M1830.86,-334.75C1823.17,-383.63 1796.08,-511.57 1717,-574.17 1608.74,-659.86 1550.07,-633.17 1412,-633.17 1412,-633.17 1412,-633.17 1187.5,-633.17 1026.37,-633.17 858.08,-511.47 803.35,-468.21"/>
<polygon fill="#63b8ff" stroke="#63b8ff" points="1834.32,-335.24 1832.32,-324.84 1827.4,-334.22 1834.32,-335.24"/>
</a>
</g>
</g>
<!-- Node9 -->
<g id="Node000009" class="node">
<title>Node9</title>
<g id="a_Node000009"><a xlink:href="classConsoleRenderer.html#afd03640670c991dfa8240af639c2f0da" target="_top" xlink:title="Draws map selection screen.">
<polygon fill="white" stroke="#666666" points="1486.5,-352.17 1335.5,-352.17 1335.5,-322.17 1486.5,-322.17 1486.5,-352.17"/>
<text text-anchor="start" x="1343.5" y="-340.17" font-family="Helvetica,sans-Serif" font-size="10.00">ConsoleRenderer::drawMap</text>
<text text-anchor="middle" x="1411" y="-329.17" font-family="Helvetica,sans-Serif" font-size="10.00">Selection</text>
</a>
</g>
</g>
<!-- Node1&#45;&gt;Node9 -->
<g id="edge39_Node000001_Node000009" class="edge">
<title>Node1&#45;&gt;Node9</title>
<g id="a_edge39_Node000001_Node000009"><a xlink:title=" ">
<path fill="none" stroke="#63b8ff" d="M1742.64,-319.91C1666.23,-323.9 1558.34,-329.53 1486.84,-333.26"/>
<polygon fill="#63b8ff" stroke="#63b8ff" points="1742.93,-323.4 1752.73,-319.38 1742.56,-316.41 1742.93,-323.4"/>
</a>
</g>
</g>
<!-- Node10 -->
<g id="Node000010" class="node">
<title>Node10</title>
<g id="a_Node000010"><a xlink:href="classGameController.html#a4a9c94fe33cf6c73bb5dfc415d04d309" target="_top" xlink:title="Displays map selection screen.">
<polygon fill="white" stroke="#666666" points="1284,-262.67 1093,-262.67 1093,-243.67 1284,-243.67 1284,-262.67"/>
<text text-anchor="middle" x="1188.5" y="-250.67" font-family="Helvetica,sans-Serif" font-size="10.00">GameController::showMapSelection</text>
</a>
</g>
</g>
<!-- Node1&#45;&gt;Node10 -->
<g id="edge48_Node000001_Node000010" class="edge">
<title>Node1&#45;&gt;Node10</title>
<g id="a_edge48_Node000001_Node000010"><a xlink:title=" ">
<path fill="none" stroke="#63b8ff" d="M1742.78,-310.12C1640,-303.89 1467.59,-291.91 1320,-274.17 1305.76,-272.46 1274.31,-267.41 1245.86,-262.69"/>
<polygon fill="#63b8ff" stroke="#63b8ff" points="1742.62,-313.62 1752.81,-310.72 1743.04,-306.63 1742.62,-313.62"/>
</a>
</g>
</g>
<!-- Node12 -->
<g id="Node000012" class="node">
<title>Node12</title>
<g id="a_Node000012"><a xlink:href="classGameController.html#a9d11b5a6255b7249bddba49df0837cf3" target="_top" xlink:title="Displays and manages the main menu.">
<polygon fill="white" stroke="#666666" points="1054,-262.67 902,-262.67 902,-243.67 1054,-243.67 1054,-262.67"/>
<text text-anchor="middle" x="978" y="-250.67" font-family="Helvetica,sans-Serif" font-size="10.00">GameController::showMenu</text>
</a>
</g>
</g>
<!-- Node1&#45;&gt;Node12 -->
<g id="edge49_Node000001_Node000012" class="edge">
<title>Node1&#45;&gt;Node12</title>
<g id="a_edge49_Node000001_Node000012"><a xlink:title=" ">
<path fill="none" stroke="#63b8ff" d="M1809.72,-300.37C1786.87,-286.93 1750.89,-267.77 1717,-258.17 1449.8,-182.43 1368.71,-191.81 1093,-225.17 1064.07,-228.67 1031.89,-237 1009.11,-243.66"/>
<polygon fill="#63b8ff" stroke="#63b8ff" points="1808.01,-303.42 1818.38,-305.56 1811.61,-297.42 1808.01,-303.42"/>
</a>
</g>
</g>
<!-- Node13 -->
<g id="Node000013" class="node">
<title>Node13</title>
<g id="a_Node000013"><a xlink:href="classGameController.html#a637ea4e72ed2be4a2884b30160b3e8ab" target="_top" xlink:title="Pauses the game and displays pause screen.">
<polygon fill="white" stroke="#666666" points="863,-338.67 705,-338.67 705,-319.67 863,-319.67 863,-338.67"/>
<text text-anchor="middle" x="784" y="-326.67" font-family="Helvetica,sans-Serif" font-size="10.00">GameController::pauseGame</text>
</a>
</g>
</g>
<!-- Node1&#45;&gt;Node13 -->
<g id="edge44_Node000001_Node000013" class="edge">
<title>Node1&#45;&gt;Node13</title>
<g id="a_edge44_Node000001_Node000013"><a xlink:title=" ">
<path fill="none" stroke="#63b8ff" d="M1829.75,-295.46C1820.07,-250.58 1789.73,-140.87 1717,-91.17 1604.43,-14.24 1548.35,-58.17 1412,-58.17 1412,-58.17 1412,-58.17 1187.5,-58.17 996.27,-58.17 827.7,-271.25 791.96,-319.52"/>
<polygon fill="#63b8ff" stroke="#63b8ff" points="1826.35,-296.29 1831.78,-305.39 1833.2,-294.89 1826.35,-296.29"/>
</a>
</g>
</g>
<!-- Node14 -->
<g id="Node000014" class="node">
<title>Node14</title>
<g id="a_Node000014"><a xlink:href="classConsoleRenderer.html#aa9273ce964dc1492d66a30b772213e81" target="_top" xlink:title="Draws main menu screen.">
<polygon fill="white" stroke="#666666" points="1489.5,-265.67 1332.5,-265.67 1332.5,-246.67 1489.5,-246.67 1489.5,-265.67"/>
<text text-anchor="middle" x="1411" y="-253.67" font-family="Helvetica,sans-Serif" font-size="10.00">ConsoleRenderer::drawMenu</text>
</a>
</g>
</g>
<!-- Node1&#45;&gt;Node14 -->
<g id="edge40_Node000001_Node000014" class="edge">
<title>Node1&#45;&gt;Node14</title>
<g id="a_edge40_Node000001_Node000014"><a xlink:title=" ">
<path fill="none" stroke="#63b8ff" d="M1796.04,-302.59C1773.41,-295.48 1743.84,-287.07 1717,-282.17 1640.41,-268.19 1551.6,-261.69 1489.63,-258.7"/>
<polygon fill="#63b8ff" stroke="#63b8ff" points="1795.01,-305.93 1805.61,-305.64 1797.14,-299.26 1795.01,-305.93"/>
</a>
</g>
</g>
<!-- Node15 -->
<g id="Node000015" class="node">
<title>Node15</title>
<g id="a_Node000015"><a xlink:href="classConsoleRenderer.html#a678f6e7177b2d466b8953d4f01bb7436" target="_top" xlink:title="Draws pause screen.">
<polygon fill="white" stroke="#666666" points="1057,-425.17 899,-425.17 899,-395.17 1057,-395.17 1057,-425.17"/>
<text text-anchor="start" x="907" y="-413.17" font-family="Helvetica,sans-Serif" font-size="10.00">ConsoleRenderer::drawPause</text>
<text text-anchor="middle" x="978" y="-402.17" font-family="Helvetica,sans-Serif" font-size="10.00">Screen</text>
</a>
</g>
</g>
<!-- Node1&#45;&gt;Node15 -->
<g id="edge41_Node000001_Node000015" class="edge">
<title>Node1&#45;&gt;Node15</title>
<g id="a_edge41_Node000001_Node000015"><a xlink:title=" ">
<path fill="none" stroke="#63b8ff" d="M1823.18,-333.45C1805.69,-362.33 1767.18,-417.46 1717,-439.17 1474.86,-543.91 1145.23,-461.56 1025.15,-425.19"/>
<polygon fill="#63b8ff" stroke="#63b8ff" points="1826.25,-335.14 1828.29,-324.75 1820.21,-331.6 1826.25,-335.14"/>
</a>
</g>
</g>
<!-- Node16 -->
<g id="Node000016" class="node">
<title>Node16</title>
<g id="a_Node000016"><a xlink:href="classConsoleRenderer.html#a0e17aa687bd8d7381b2bf8425b2a9709" target="_top" xlink:title="Draws settings screen.">
<polygon fill="white" stroke="#666666" points="1496,-189.67 1326,-189.67 1326,-170.67 1496,-170.67 1496,-189.67"/>
<text text-anchor="middle" x="1411" y="-177.67" font-family="Helvetica,sans-Serif" font-size="10.00">ConsoleRenderer::drawSettings</text>
</a>
</g>
</g>
<!-- Node1&#45;&gt;Node16 -->
<g id="edge42_Node000001_Node000016" class="edge">
<title>Node1&#45;&gt;Node16</title>
<g id="a_edge42_Node000001_Node000016"><a xlink:title=" ">
<path fill="none" stroke="#63b8ff" d="M1820.77,-297.33C1801.56,-271.99 1762.5,-226.41 1717,-206.17 1647.2,-175.12 1559.62,-170.74 1496.24,-172.87"/>
<polygon fill="#63b8ff" stroke="#63b8ff" points="1817.96,-299.41 1826.72,-305.37 1823.59,-295.25 1817.96,-299.41"/>
</a>
</g>
</g>
<!-- Node17 -->
<g id="Node000017" class="node">
<title>Node17</title>
<g id="a_Node000017"><a xlink:href="classGameController.html#a24f5cae258418d4a5934e6f412c28945" target="_top" xlink:title="Displays and manages the settings menu.">
<polygon fill="white" stroke="#666666" points="1271,-148.67 1106,-148.67 1106,-129.67 1271,-129.67 1271,-148.67"/>
<text text-anchor="middle" x="1188.5" y="-136.67" font-family="Helvetica,sans-Serif" font-size="10.00">GameController::showSettings</text>
</a>
</g>
</g>
<!-- Node1&#45;&gt;Node17 -->
<g id="edge50_Node000001_Node000017" class="edge">
<title>Node1&#45;&gt;Node17</title>
<g id="a_edge50_Node000001_Node000017"><a xlink:title=" ">
<path fill="none" stroke="#63b8ff" d="M1828.94,-295.31C1818.04,-253.05 1786.08,-154.87 1717,-115.17 1637.52,-69.48 1360.27,-109.83 1242.77,-129.67"/>
<polygon fill="#63b8ff" stroke="#63b8ff" points="1825.59,-296.34 1831.37,-305.21 1832.39,-294.67 1825.59,-296.34"/>
</a>
</g>
</g>
<!-- Node18 -->
<g id="Node000018" class="node">
<title>Node18</title>
<g id="a_Node000018"><a xlink:href="classGameController.html#a19dc0995b5ee51a87bf49dff90f4e991" target="_top" xlink:title="Handles terminal resize events.">
<polygon fill="white" stroke="#666666" points="1498.5,-400.17 1323.5,-400.17 1323.5,-370.17 1498.5,-370.17 1498.5,-400.17"/>
<text text-anchor="start" x="1331.5" y="-388.17" font-family="Helvetica,sans-Serif" font-size="10.00">GameController::handleTerminal</text>
<text text-anchor="middle" x="1411" y="-377.17" font-family="Helvetica,sans-Serif" font-size="10.00">Resize</text>
</a>
</g>
</g>
<!-- Node1&#45;&gt;Node18 -->
<g id="edge43_Node000001_Node000018" class="edge">
<title>Node1&#45;&gt;Node18</title>
<g id="a_edge43_Node000001_Node000018"><a xlink:title=" ">
<path fill="none" stroke="#63b8ff" d="M1782.4,-326.88C1762.1,-331.34 1738.51,-336.28 1717,-340.17 1643.66,-353.43 1559.86,-365.58 1498.68,-373.9"/>
<polygon fill="#63b8ff" stroke="#63b8ff" points="1783.38,-330.25 1792.38,-324.67 1781.86,-323.42 1783.38,-330.25"/>
</a>
</g>
</g>
<!-- Node20 -->
<g id="Node000020" class="node">
<title>Node20</title>
<g id="a_Node000020"><a xlink:href="classGameController.html#a47c26eedd973ec104d31a7c96b60d658" target="_top" xlink:title="Toggles between advanced and symbolic graphics modes.">
<polygon fill="white" stroke="#666666" points="1717,-154.17 1538,-154.17 1538,-124.17 1717,-124.17 1717,-154.17"/>
<text text-anchor="start" x="1546" y="-142.17" font-family="Helvetica,sans-Serif" font-size="10.00">GameController::toggleAdvanced</text>
<text text-anchor="middle" x="1627.5" y="-131.17" font-family="Helvetica,sans-Serif" font-size="10.00">Graphics</text>
</a>
</g>
</g>
<!-- Node1&#45;&gt;Node20 -->
<g id="edge51_Node000001_Node000020" class="edge">
<title>Node1&#45;&gt;Node20</title>
<g id="a_edge51_Node000001_Node000020"><a xlink:title=" ">
<path fill="none" stroke="#63b8ff" d="M1823.5,-296.37C1806,-265.23 1766.9,-202.94 1717,-168.17 1708.91,-162.53 1699.65,-157.93 1690.24,-154.2"/>
<polygon fill="#63b8ff" stroke="#63b8ff" points="1820.53,-298.23 1828.41,-305.31 1826.66,-294.86 1820.53,-298.23"/>
</a>
</g>
</g>
<!-- Node2&#45;&gt;Node3 -->
<g id="edge2_Node000002_Node000003" class="edge">
<title>Node2&#45;&gt;Node3</title>
<g id="a_edge2_Node000002_Node000003"><a xlink:title=" ">
<path fill="none" stroke="#63b8ff" d="M1614.65,-439.79C1595.97,-475.78 1556.17,-542.18 1502,-576.17 1495.91,-579.99 1489.18,-583.05 1482.23,-585.51"/>
<polygon fill="#63b8ff" stroke="#63b8ff" points="1617.96,-440.99 1619.35,-430.49 1611.71,-437.83 1617.96,-440.99"/>
</a>
</g>
</g>
<!-- Node2&#45;&gt;Node7 -->
<g id="edge6_Node000002_Node000007" class="edge">
<title>Node2&#45;&gt;Node7</title>
<g id="a_edge6_Node000002_Node000007"><a xlink:title=" ">
<path fill="none" stroke="#63b8ff" d="M1606.14,-437.56C1583.02,-461.77 1543.16,-499.97 1502,-523.17 1492.27,-528.65 1481.37,-533.26 1470.59,-537.09"/>
<polygon fill="#63b8ff" stroke="#63b8ff" points="1608.73,-439.92 1613.03,-430.23 1603.63,-435.12 1608.73,-439.92"/>
</a>
</g>
</g>
<!-- Node2&#45;&gt;Node9 -->
<g id="edge9_Node000002_Node000009" class="edge">
<title>Node2&#45;&gt;Node9</title>
<g id="a_edge9_Node000002_Node000009"><a xlink:title=" ">
<path fill="none" stroke="#63b8ff" d="M1586.11,-395.83C1562.04,-384.77 1530.68,-371.15 1502,-361.17 1492.84,-357.98 1483.02,-354.97 1473.37,-352.22"/>
<polygon fill="#63b8ff" stroke="#63b8ff" points="1584.74,-399.06 1595.29,-400.09 1587.69,-392.71 1584.74,-399.06"/>
</a>
</g>
</g>
<!-- Node2&#45;&gt;Node14 -->
<g id="edge20_Node000002_Node000014" class="edge">
<title>Node2&#45;&gt;Node14</title>
<g id="a_edge20_Node000002_Node000014"><a xlink:title=" ">
<path fill="none" stroke="#63b8ff" d="M1601.53,-393.18C1576.89,-371.86 1537.82,-339.04 1502,-313.17 1477.11,-295.19 1446.66,-276.56 1428.32,-265.68"/>
<polygon fill="#63b8ff" stroke="#63b8ff" points="1599.46,-396.03 1609.3,-399.95 1604.05,-390.74 1599.46,-396.03"/>
</a>
</g>
</g>
<!-- Node2&#45;&gt;Node15 -->
<g id="edge22_Node000002_Node000015" class="edge">
<title>Node2&#45;&gt;Node15</title>
<g id="a_edge22_Node000002_Node000015"><a xlink:title=" ">
<path fill="none" stroke="#63b8ff" d="M1540.92,-414.51C1414.37,-413.53 1179.17,-411.71 1057.08,-410.77"/>
<polygon fill="#63b8ff" stroke="#63b8ff" points="1540.93,-418.01 1550.96,-414.59 1540.98,-411.01 1540.93,-418.01"/>
</a>
</g>
</g>
<!-- Node2&#45;&gt;Node16 -->
<g id="edge25_Node000002_Node000016" class="edge">
<title>Node2&#45;&gt;Node16</title>
<g id="a_edge25_Node000002_Node000016"><a xlink:title=" ">
<path fill="none" stroke="#63b8ff" d="M1613.67,-390.89C1593.51,-354.36 1551.56,-284.51 1502,-237.17 1480.74,-216.86 1451.17,-199.79 1431.81,-189.77"/>
<polygon fill="#63b8ff" stroke="#63b8ff" points="1610.68,-392.73 1618.54,-399.84 1616.83,-389.38 1610.68,-392.73"/>
</a>
</g>
</g>
<!-- Node2&#45;&gt;Node18 -->
<g id="edge28_Node000002_Node000018" class="edge">
<title>Node2&#45;&gt;Node18</title>
<g id="a_edge28_Node000002_Node000018"><a xlink:title=" ">
<path fill="none" stroke="#63b8ff" d="M1540.86,-403.19C1526.97,-401.25 1512.58,-399.23 1498.66,-397.29"/>
<polygon fill="#63b8ff" stroke="#63b8ff" points="1540.49,-406.67 1550.88,-404.59 1541.46,-399.74 1540.49,-406.67"/>
</a>
</g>
</g>
<!-- Node19 -->
<g id="Node000019" class="node">
<title>Node19</title>
<g id="a_Node000019"><a xlink:href="classConsoleRenderer.html#ab34fa7af4ede79de3951f1d5271d7a27" target="_top" xlink:title="Renders the game world to console.">
<polygon fill="white" stroke="#666666" points="643.5,-533.67 506.5,-533.67 506.5,-514.67 643.5,-514.67 643.5,-533.67"/>
<text text-anchor="middle" x="575" y="-521.67" font-family="Helvetica,sans-Serif" font-size="10.00">ConsoleRenderer::render</text>
</a>
</g>
</g>
<!-- Node2&#45;&gt;Node19 -->
<g id="edge35_Node000002_Node000019" class="edge">
<title>Node2&#45;&gt;Node19</title>
<g id="a_edge35_Node000002_Node000019"><a xlink:title=" ">
<path fill="none" stroke="#63b8ff" d="M1540.51,-424.16C1527.6,-425.5 1514.45,-426.87 1502,-428.17 1180.69,-461.6 796.63,-501.35 643.68,-517.17"/>
<polygon fill="#63b8ff" stroke="#63b8ff" points="1541.2,-427.6 1550.79,-423.08 1540.48,-420.64 1541.2,-427.6"/>
</a>
</g>
</g>
<!-- Node3&#45;&gt;Node4 -->
<g id="edge3_Node000003_Node000004" class="edge">
<title>Node3&#45;&gt;Node4</title>
<g id="a_edge3_Node000003_Node000004"><a xlink:title=" ">
<path fill="none" stroke="#63b8ff" d="M1309.43,-595.17C1222.09,-595.17 1092.18,-595.17 979,-595.17 979,-595.17 979,-595.17 783,-595.17 646.73,-595.17 603.98,-600.87 481,-542.17 427.32,-516.55 378.72,-462.11 360.31,-439.91"/>
<polygon fill="#63b8ff" stroke="#63b8ff" points="1309.61,-598.67 1319.61,-595.17 1309.61,-591.67 1309.61,-598.67"/>
</a>
</g>
</g>
<!-- Node4&#45;&gt;Node5 -->
<g id="edge4_Node000004_Node000005" class="edge">
<title>Node4&#45;&gt;Node5</title>
<g id="a_edge4_Node000004_Node000005"><a xlink:title=" ">
<path fill="none" stroke="#63b8ff" d="M334.79,-413.28C295.01,-370.52 191.22,-258.94 159.71,-225.06"/>
<polygon fill="#63b8ff" stroke="#63b8ff" points="332.27,-415.71 341.65,-420.65 337.4,-410.95 332.27,-415.71"/>
</a>
</g>
</g>
<!-- Node6 -->
<g id="Node000006" class="node">
<title>Node6</title>
<g id="a_Node000006"><a xlink:href="main_8cpp.html#ae66f6b31b5ad750f1fe042a706a4e3d4" target="_top" xlink:title="Main function that serves as the application entry point.">
<polygon fill="white" stroke="#666666" points="41,-224.67 0,-224.67 0,-205.67 41,-205.67 41,-224.67"/>
<text text-anchor="middle" x="20.5" y="-212.67" font-family="Helvetica,sans-Serif" font-size="10.00">main</text>
</a>
</g>
</g>
<!-- Node5&#45;&gt;Node6 -->
<g id="edge5_Node000005_Node000006" class="edge">
<title>Node5&#45;&gt;Node6</title>
<g id="a_edge5_Node000005_Node000006"><a xlink:title=" ">
<path fill="none" stroke="#63b8ff" d="M66.79,-215.17C57.31,-215.17 48.43,-215.17 41.08,-215.17"/>
<polygon fill="#63b8ff" stroke="#63b8ff" points="66.83,-218.67 76.83,-215.17 66.83,-211.67 66.83,-218.67"/>
</a>
</g>
</g>
<!-- Node7&#45;&gt;Node8 -->
<g id="edge7_Node000007_Node000008" class="edge">
<title>Node7&#45;&gt;Node8</title>
<g id="a_edge7_Node000007_Node000008"><a xlink:title=" ">
<path fill="none" stroke="#63b8ff" d="M1322.58,-538.32C1199.28,-518.79 976.39,-483.48 860.14,-465.07"/>
<polygon fill="#63b8ff" stroke="#63b8ff" points="1322.31,-541.82 1332.74,-539.93 1323.41,-534.91 1322.31,-541.82"/>
</a>
</g>
</g>
<!-- Node8&#45;&gt;Node4 -->
<g id="edge8_Node000008_Node000004" class="edge">
<title>Node8&#45;&gt;Node4</title>
<g id="a_edge8_Node000008_Node000004"><a xlink:title=" ">
<path fill="none" stroke="#63b8ff" d="M697.45,-448.6C624.55,-444.7 520.01,-439.12 445.15,-435.12"/>
<polygon fill="#63b8ff" stroke="#63b8ff" points="697.35,-452.1 707.52,-449.14 697.72,-445.11 697.35,-452.1"/>
</a>
</g>
</g>
<!-- Node9&#45;&gt;Node10 -->
<g id="edge10_Node000009_Node000010" class="edge">
<title>Node9&#45;&gt;Node10</title>
<g id="a_edge10_Node000009_Node000010"><a xlink:title=" ">
<path fill="none" stroke="#63b8ff" d="M1341.83,-318.45C1334.27,-315.43 1326.85,-312.01 1320,-308.17 1301.59,-297.84 1302.73,-286.92 1284,-277.17 1271.99,-270.92 1258.25,-266.23 1245.05,-262.74"/>
<polygon fill="#63b8ff" stroke="#63b8ff" points="1340.84,-321.81 1351.43,-322.06 1343.3,-315.26 1340.84,-321.81"/>
</a>
</g>
</g>
<!-- Node11 -->
<g id="Node000011" class="node">
<title>Node11</title>
<g id="a_Node000011"><a xlink:href="classGameController.html#a971b3d8f6296a74f0bebc83b5e79c186" target="_top" xlink:title="Processes a user command.">
<polygon fill="white" stroke="#666666" points="669,-319.67 481,-319.67 481,-300.67 669,-300.67 669,-319.67"/>
<text text-anchor="middle" x="575" y="-307.67" font-family="Helvetica,sans-Serif" font-size="10.00">GameController::processCommand</text>
</a>
</g>
</g>
<!-- Node10&#45;&gt;Node11 -->
<g id="edge11_Node000010_Node000011" class="edge">
<title>Node10&#45;&gt;Node11</title>
<g id="a_edge11_Node000010_Node000011"><a xlink:title=" ">
<path fill="none" stroke="#63b8ff" d="M1113.74,-264.08C1095.24,-266.61 1075.42,-269.15 1057,-271.17 922.5,-285.89 766.27,-297.56 669.26,-304.17"/>
<polygon fill="#63b8ff" stroke="#63b8ff" points="1114.44,-267.51 1123.87,-262.67 1113.48,-260.58 1114.44,-267.51"/>
</a>
</g>
</g>
<!-- Node10&#45;&gt;Node12 -->
<g id="edge13_Node000010_Node000012" class="edge">
<title>Node10&#45;&gt;Node12</title>
<g id="a_edge13_Node000010_Node000012"><a xlink:title=" ">
<path fill="none" stroke="#63b8ff" d="M1082.7,-246.42C1073.08,-246.42 1063.47,-246.5 1054.2,-246.66"/>
<polygon fill="#63b8ff" stroke="#63b8ff" points="1082.7,-249.92 1092.71,-246.44 1082.72,-242.92 1082.7,-249.92"/>
</a>
</g>
</g>
<!-- Node11&#45;&gt;Node4 -->
<g id="edge12_Node000011_Node000004" class="edge">
<title>Node11&#45;&gt;Node4</title>
<g id="a_edge12_Node000011_Node000004"><a xlink:title=" ">
<path fill="none" stroke="#63b8ff" d="M541.98,-323.96C523.86,-332.02 500.9,-342.64 481,-353.17 438.7,-375.54 390.82,-405.53 367.24,-420.63"/>
<polygon fill="#63b8ff" stroke="#63b8ff" points="543.76,-327 551.5,-319.76 540.94,-320.59 543.76,-327"/>
</a>
</g>
</g>
<!-- Node12&#45;&gt;Node5 -->
<g id="edge17_Node000012_Node000005" class="edge">
<title>Node12&#45;&gt;Node5</title>
<g id="a_edge17_Node000012_Node000005"><a xlink:title=" ">
<path fill="none" stroke="#63b8ff" d="M891.83,-249.25C728.52,-241.74 374.12,-225.45 222.1,-218.46"/>
<polygon fill="#63b8ff" stroke="#63b8ff" points="891.68,-252.75 901.83,-249.71 892,-245.76 891.68,-252.75"/>
</a>
</g>
</g>
<!-- Node12&#45;&gt;Node8 -->
<g id="edge18_Node000012_Node000008" class="edge">
<title>Node12&#45;&gt;Node8</title>
<g id="a_edge18_Node000012_Node000008"><a xlink:title=" ">
<path fill="none" stroke="#63b8ff" d="M960.72,-270.13C923.93,-308.45 834.85,-401.24 799.66,-437.9"/>
<polygon fill="#63b8ff" stroke="#63b8ff" points="963.34,-272.45 967.74,-262.81 958.29,-267.6 963.34,-272.45"/>
</a>
</g>
</g>
<!-- Node12&#45;&gt;Node10 -->
<g id="edge19_Node000012_Node000010" class="edge">
<title>Node12&#45;&gt;Node10</title>
<g id="a_edge19_Node000012_Node000010"><a xlink:title=" ">
<path fill="none" stroke="#63b8ff" d="M1064.27,-259.82C1073.64,-259.92 1083.23,-259.94 1092.71,-259.89"/>
<polygon fill="#63b8ff" stroke="#63b8ff" points="1064.24,-256.32 1054.2,-259.68 1064.15,-263.32 1064.24,-256.32"/>
</a>
</g>
</g>
<!-- Node12&#45;&gt;Node11 -->
<g id="edge16_Node000012_Node000011" class="edge">
<title>Node12&#45;&gt;Node11</title>
<g id="a_edge16_Node000012_Node000011"><a xlink:title=" ">
<path fill="none" stroke="#63b8ff" d="M891.64,-257.13C837.81,-260.51 767.01,-266.57 705,-277.17 671.16,-282.95 633.17,-293.13 607.24,-300.66"/>
<polygon fill="#63b8ff" stroke="#63b8ff" points="892.06,-260.62 901.83,-256.51 891.63,-253.63 892.06,-260.62"/>
</a>
</g>
</g>
<!-- Node12&#45;&gt;Node13 -->
<g id="edge14_Node000012_Node000013" class="edge">
<title>Node12&#45;&gt;Node13</title>
<g id="a_edge14_Node000012_Node000013"><a xlink:title=" ">
<path fill="none" stroke="#63b8ff" d="M942.97,-266.64C904.52,-281.86 842.91,-306.24 809.12,-319.62"/>
<polygon fill="#63b8ff" stroke="#63b8ff" points="944.67,-269.73 952.68,-262.79 942.1,-263.22 944.67,-269.73"/>
</a>
</g>
</g>
<!-- Node13&#45;&gt;Node11 -->
<g id="edge15_Node000013_Node000011" class="edge">
<title>Node13&#45;&gt;Node11</title>
<g id="a_edge15_Node000013_Node000011"><a xlink:title=" ">
<path fill="none" stroke="#63b8ff" d="M694.62,-321.06C686.25,-320.29 677.75,-319.51 669.34,-318.74"/>
<polygon fill="#63b8ff" stroke="#63b8ff" points="694.46,-324.56 704.74,-321.99 695.1,-317.59 694.46,-324.56"/>
</a>
</g>
</g>
<!-- Node14&#45;&gt;Node12 -->
<g id="edge21_Node000014_Node000012" class="edge">
<title>Node14&#45;&gt;Node12</title>
<g id="a_edge21_Node000014_Node000012"><a xlink:title=" ">
<path fill="none" stroke="#63b8ff" d="M1356.56,-244.73C1334.24,-240.51 1307.98,-236.25 1284,-234.17 1199.43,-226.84 1177.6,-227.17 1093,-234.17 1070.6,-236.02 1045.98,-239.89 1025.37,-243.66"/>
<polygon fill="#63b8ff" stroke="#63b8ff" points="1356.03,-248.2 1366.51,-246.66 1357.36,-241.32 1356.03,-248.2"/>
</a>
</g>
</g>
<!-- Node15&#45;&gt;Node4 -->
<g id="edge24_Node000015_Node000004" class="edge">
<title>Node15&#45;&gt;Node4</title>
<g id="a_edge24_Node000015_Node000004"><a xlink:title=" ">
<path fill="none" stroke="#63b8ff" d="M888.82,-412.99C771.45,-416.75 564.82,-423.37 445.2,-427.2"/>
<polygon fill="#63b8ff" stroke="#63b8ff" points="888.97,-416.49 898.85,-412.67 888.75,-409.49 888.97,-416.49"/>
</a>
</g>
</g>
<!-- Node15&#45;&gt;Node13 -->
<g id="edge23_Node000015_Node000013" class="edge">
<title>Node15&#45;&gt;Node13</title>
<g id="a_edge23_Node000015_Node000013"><a xlink:title=" ">
<path fill="none" stroke="#63b8ff" d="M931.77,-391.09C892.73,-374.62 837.95,-351.51 807.56,-338.68"/>
<polygon fill="#63b8ff" stroke="#63b8ff" points="930.76,-394.46 941.34,-395.12 933.48,-388.01 930.76,-394.46"/>
</a>
</g>
</g>
<!-- Node16&#45;&gt;Node17 -->
<g id="edge26_Node000016_Node000017" class="edge">
<title>Node16&#45;&gt;Node17</title>
<g id="a_edge26_Node000016_Node000017"><a xlink:title=" ">
<path fill="none" stroke="#63b8ff" d="M1348.59,-168.75C1314.63,-162.44 1272.93,-154.68 1240.75,-148.7"/>
<polygon fill="#63b8ff" stroke="#63b8ff" points="1348.39,-172.27 1358.86,-170.66 1349.67,-165.39 1348.39,-172.27"/>
</a>
</g>
</g>
<!-- Node17&#45;&gt;Node12 -->
<g id="edge27_Node000017_Node000012" class="edge">
<title>Node17&#45;&gt;Node12</title>
<g id="a_edge27_Node000017_Node000012"><a xlink:title=" ">
<path fill="none" stroke="#63b8ff" d="M1123.93,-151.39C1113.33,-154.53 1102.65,-158.41 1093,-163.17 1049.36,-184.71 1006.73,-224.92 988.39,-243.41"/>
<polygon fill="#63b8ff" stroke="#63b8ff" points="1124.91,-154.75 1133.62,-148.72 1123.05,-148.01 1124.91,-154.75"/>
</a>
</g>
</g>
<!-- Node18&#45;&gt;Node4 -->
<g id="edge30_Node000018_Node000004" class="edge">
<title>Node18&#45;&gt;Node4</title>
<g id="a_edge30_Node000018_Node000004"><a xlink:title=" ">
<path fill="none" stroke="#63b8ff" d="M1313.21,-378.81C1225.89,-373.63 1093.9,-367.17 979,-367.17 979,-367.17 979,-367.17 783,-367.17 637.22,-367.17 466.56,-402.98 391.4,-420.6"/>
<polygon fill="#63b8ff" stroke="#63b8ff" points="1313.17,-382.32 1323.36,-379.42 1313.59,-375.33 1313.17,-382.32"/>
</a>
</g>
</g>
<!-- Node18&#45;&gt;Node8 -->
<g id="edge31_Node000018_Node000008" class="edge">
<title>Node18&#45;&gt;Node8</title>
<g id="a_edge31_Node000018_Node000008"><a xlink:title=" ">
<path fill="none" stroke="#63b8ff" d="M1312.92,-400.46C1242.13,-411.17 1143.81,-425.12 1057,-434.17 990.61,-441.09 914.84,-446.15 860.16,-449.3"/>
<polygon fill="#63b8ff" stroke="#63b8ff" points="1313.8,-403.87 1323.16,-398.91 1312.75,-396.95 1313.8,-403.87"/>
</a>
</g>
</g>
<!-- Node18&#45;&gt;Node10 -->
<g id="edge32_Node000018_Node000010" class="edge">
<title>Node18&#45;&gt;Node10</title>
<g id="a_edge32_Node000018_Node000010"><a xlink:title=" ">
<path fill="none" stroke="#63b8ff" d="M1324.18,-364.5C1322.74,-363.44 1321.35,-362.33 1320,-361.17 1289.28,-334.59 1314.87,-303.56 1284,-277.17 1276.67,-270.9 1267.91,-266.23 1258.74,-262.76"/>
<polygon fill="#63b8ff" stroke="#63b8ff" points="1322.53,-367.59 1332.86,-369.98 1326.27,-361.68 1322.53,-367.59"/>
</a>
</g>
</g>
<!-- Node18&#45;&gt;Node12 -->
<g id="edge33_Node000018_Node000012" class="edge">
<title>Node18&#45;&gt;Node12</title>
<g id="a_edge33_Node000018_Node000012"><a xlink:title=" ">
<path fill="none" stroke="#63b8ff" d="M1327.69,-365.73C1325.04,-364.32 1322.47,-362.8 1320,-361.17 1298.34,-346.86 1306.08,-328.82 1284,-315.17 1263.2,-302.31 1119.35,-276.64 1036.84,-262.7"/>
<polygon fill="#63b8ff" stroke="#63b8ff" points="1326.44,-369.01 1336.97,-370.16 1329.46,-362.7 1326.44,-369.01"/>
</a>
</g>
</g>
<!-- Node18&#45;&gt;Node13 -->
<g id="edge29_Node000018_Node000013" class="edge">
<title>Node18&#45;&gt;Node13</title>
<g id="a_edge29_Node000018_Node000013"><a xlink:title=" ">
<path fill="none" stroke="#63b8ff" d="M1343.2,-367.59C1316.45,-360.67 1290.41,-354.13 1284,-353.17 1136.46,-331.11 961.92,-327.86 863.26,-328.1"/>
<polygon fill="#63b8ff" stroke="#63b8ff" points="1342.49,-371.03 1353.05,-370.15 1344.25,-364.25 1342.49,-371.03"/>
</a>
</g>
</g>
<!-- Node18&#45;&gt;Node17 -->
<g id="edge34_Node000018_Node000017" class="edge">
<title>Node18&#45;&gt;Node17</title>
<g id="a_edge34_Node000018_Node000017"><a xlink:title=" ">
<path fill="none" stroke="#63b8ff" d="M1323.36,-364.22C1322.2,-363.25 1321.08,-362.23 1320,-361.17 1278.19,-320.01 1313.63,-284.8 1284,-234.17 1262.38,-197.23 1223.02,-164.31 1202.59,-148.72"/>
<polygon fill="#63b8ff" stroke="#63b8ff" points="1321.33,-367.07 1331.5,-370.04 1325.4,-361.38 1321.33,-367.07"/>
</a>
</g>
</g>
<!-- Node19&#45;&gt;Node4 -->
<g id="edge36_Node000019_Node000004" class="edge">
<title>Node19&#45;&gt;Node4</title>
<g id="a_edge36_Node000019_Node000004"><a xlink:title=" ">
<path fill="none" stroke="#63b8ff" d="M542.18,-510.66C496.8,-491.41 414.61,-456.53 375.02,-439.72"/>
<polygon fill="#63b8ff" stroke="#63b8ff" points="540.97,-513.95 551.54,-514.64 543.7,-507.51 540.97,-513.95"/>
</a>
</g>
</g>
<!-- Node20&#45;&gt;Node17 -->
<g id="edge52_Node000020_Node000017" class="edge">
<title>Node20&#45;&gt;Node17</title>
<g id="a_edge52_Node000020_Node000017"><a xlink:title=" ">
<path fill="none" stroke="#63b8ff" d="M1527.55,-139.17C1450.09,-139.17 1343.67,-139.17 1271.06,-139.17"/>
<polygon fill="#63b8ff" stroke="#63b8ff" points="1527.8,-142.67 1537.8,-139.17 1527.8,-135.67 1527.8,-142.67"/>
</a>
</g>
</g>
</g>
</svg>

<g id="navigator" transform="translate(0 0)" fill="#404254">
  <rect fill="#f2f5e9" fill-opacity="0.5" stroke="#606060" stroke-width=".5" x="0" y="0" width="60" height="60"/>
  <use id="zoomplus" xlink:href="#zoomPlus" x="17" y="9" onmousedown="handleZoom(evt,'in')"/>
  <use id="zoomminus" xlink:href="#zoomMin" x="42" y="9" onmousedown="handleZoom(evt,'out')"/>
  <use id="reset" xlink:href="#resetDef" x="30" y="36" onmousedown="handleReset()"/>
   <use id="arrowup" xlink:href="#arrowUp" x="0" y="0" onmousedown="handlePan(0,-1)"/>
  <use id="arrowright" xlink:href="#arrowRight" x="0" y="0" onmousedown="handlePan(1,0)"/>
  <use id="arrowdown" xlink:href="#arrowDown" x="0" y="0" onmousedown="handlePan(0,1)"/>
  <use id="arrowleft" xlink:href="#arrowLeft" x="0" y="0" onmousedown="handlePan(-1,0)"/>
</g>
<svg viewBox="0 0 15 15" width="100%" height="30px" preserveAspectRatio="xMaxYMin meet">
 <g id="arrow_out" transform="scale(0.3 0.3)">
  <a xlink:href="classConsoleRenderer_a041e99f6c0427c254b0349b57fbe2a84_icgraph_org.svg" target="_base">
   <rect id="button" ry="5" rx="5" y="6" x="6" height="38" width="38"
        fill="#f2f5e9" fill-opacity="0.5" stroke="#606060" stroke-width="1.0"/>
   <path id="arrow"
     d="M 11.500037,31.436501 C 11.940474,20.09759 22.043105,11.32322 32.158766,21.979434 L 37.068811,17.246167 C 37.068811,17.246167 37.088388,32 37.088388,32 L 22.160133,31.978069 C 22.160133,31.978069 26.997745,27.140456 26.997745,27.140456 C 18.528582,18.264221 13.291696,25.230495 11.500037,31.436501 z"
     style="fill:#404040;"/>
  </a>
 </g>
</svg>

<style type='text/css'>
<![CDATA[
[data-mouse-over-selected='false'] { opacity: 0.7; }
[data-mouse-over-selected='true']  { opacity: 1.0; }
]]>
</style>
<script type="application/ecmascript"><![CDATA[
document.addEventListener('DOMContentLoaded', (event) => {
  highlightEdges();
  highlightAdjacentNodes();
});
]]></script>
</svg>
