<?xml version="1.0" encoding="UTF-8" standalone="no"?>
<!DOCTYPE svg PUBLIC "-//W3C//DTD SVG 1.1//EN"
 "http://www.w3.org/Graphics/SVG/1.1/DTD/svg11.dtd">
<!-- Generated by graphviz version 2.43.0 (0)
 -->
<!-- Title: ConsoleRenderer::drawMapPreview Pages: 1 -->
<svg width="710pt" height="140pt"
 viewBox="0.00 0.00 710.00 140.00" xmlns="http://www.w3.org/2000/svg" xmlns:xlink="http://www.w3.org/1999/xlink">
<g id="graph0" class="graph" transform="scale(1 1) rotate(0) translate(4 136)">
<title>ConsoleRenderer::drawMapPreview</title>
<!-- Node1 -->
<g id="Node000001" class="node">
<title>Node1</title>
<g id="a_Node000001"><a xlink:title="Draws map preview for selection screen.">
<polygon fill="#999999" stroke="#666666" points="151,-81.5 0,-81.5 0,-51.5 151,-51.5 151,-81.5"/>
<text text-anchor="start" x="8" y="-69.5" font-family="Helvetica,sans-Serif" font-size="10.00">ConsoleRenderer::drawMap</text>
<text text-anchor="middle" x="75.5" y="-58.5" font-family="Helvetica,sans-Serif" font-size="10.00">Preview</text>
</a>
</g>
</g>
<!-- Node2 -->
<g id="Node000002" class="node">
<title>Node2</title>
<g id="a_Node000002"><a xlink:href="ConsoleRenderer_8cpp.html#a279be60aa96dcc35cae7933c2617f6d6" target="_top" xlink:title=" ">
<polygon fill="white" stroke="#666666" points="319.5,-132 223.5,-132 223.5,-113 319.5,-113 319.5,-132"/>
<text text-anchor="middle" x="271.5" y="-120" font-family="Helvetica,sans-Serif" font-size="10.00">getGraphicsMap</text>
</a>
</g>
</g>
<!-- Node1&#45;&gt;Node2 -->
<g id="edge1_Node000001_Node000002" class="edge">
<title>Node1&#45;&gt;Node2</title>
<g id="a_edge1_Node000001_Node000002"><a xlink:title=" ">
<path fill="none" stroke="#63b8ff" d="M116.55,-81.56C137.37,-89.06 163.35,-97.91 187,-104.5 195.51,-106.87 204.58,-109.11 213.49,-111.16"/>
<polygon fill="#63b8ff" stroke="#63b8ff" points="212.93,-114.62 223.45,-113.38 214.45,-107.79 212.93,-114.62"/>
</a>
</g>
</g>
<!-- Node3 -->
<g id="Node000003" class="node">
<title>Node3</title>
<g id="a_Node000003"><a xlink:href="classConsoleRenderer.html#a39097953ecd72be19860424c9d00b0ea" target="_top" xlink:title="Resets terminal color to default.">
<polygon fill="white" stroke="#666666" points="349.5,-95 193.5,-95 193.5,-76 349.5,-76 349.5,-95"/>
<text text-anchor="middle" x="271.5" y="-83" font-family="Helvetica,sans-Serif" font-size="10.00">ConsoleRenderer::resetColor</text>
</a>
</g>
</g>
<!-- Node1&#45;&gt;Node3 -->
<g id="edge2_Node000001_Node000003" class="edge">
<title>Node1&#45;&gt;Node3</title>
<g id="a_edge2_Node000001_Node000003"><a xlink:title=" ">
<path fill="none" stroke="#63b8ff" d="M151.23,-73.82C161.66,-74.84 172.46,-75.9 183.1,-76.94"/>
<polygon fill="#63b8ff" stroke="#63b8ff" points="182.95,-80.44 193.24,-77.93 183.63,-73.48 182.95,-80.44"/>
</a>
</g>
</g>
<!-- Node6 -->
<g id="Node000006" class="node">
<title>Node6</title>
<g id="a_Node000006"><a xlink:href="classConsoleRenderer.html#af06444dbf726424a13127fd4f3a70a8d" target="_top" xlink:title="Sets terminal text color.">
<polygon fill="white" stroke="#666666" points="538,-57 392,-57 392,-38 538,-38 538,-57"/>
<text text-anchor="middle" x="465" y="-45" font-family="Helvetica,sans-Serif" font-size="10.00">ConsoleRenderer::setColor</text>
</a>
</g>
</g>
<!-- Node1&#45;&gt;Node6 -->
<g id="edge5_Node000001_Node000006" class="edge">
<title>Node1&#45;&gt;Node6</title>
<g id="a_edge5_Node000001_Node000006"><a xlink:title=" ">
<path fill="none" stroke="#63b8ff" d="M151.21,-62.84C217.21,-59.6 313.3,-54.89 381.53,-51.54"/>
<polygon fill="#63b8ff" stroke="#63b8ff" points="381.99,-55.03 391.81,-51.04 381.65,-48.03 381.99,-55.03"/>
</a>
</g>
</g>
<!-- Node7 -->
<g id="Node000007" class="node">
<title>Node7</title>
<g id="a_Node000007"><a xlink:href="classPlatformUtils.html#a964fb97fe6351330adbcf813a9706eb6" target="_top" xlink:title="Checks if terminal supports Unicode.">
<polygon fill="white" stroke="#666666" points="356,-19 187,-19 187,0 356,0 356,-19"/>
<text text-anchor="middle" x="271.5" y="-7" font-family="Helvetica,sans-Serif" font-size="10.00">PlatformUtils::supportsUnicode</text>
</a>
</g>
</g>
<!-- Node1&#45;&gt;Node7 -->
<g id="edge7_Node000001_Node000007" class="edge">
<title>Node1&#45;&gt;Node7</title>
<g id="a_edge7_Node000001_Node000007"><a xlink:title=" ">
<path fill="none" stroke="#63b8ff" d="M126.52,-51.44C145.46,-45.77 167.21,-39.3 187,-33.5 199.91,-29.72 213.95,-25.66 226.78,-21.98"/>
<polygon fill="#63b8ff" stroke="#63b8ff" points="228.11,-25.23 236.76,-19.11 226.18,-18.51 228.11,-25.23"/>
</a>
</g>
</g>
<!-- Node4 -->
<g id="Node000004" class="node">
<title>Node4</title>
<g id="a_Node000004"><a xlink:href="classPlatformUtils.html#ae3607ef4c4fbee33349ec982eda7bf07" target="_top" xlink:title="Resets terminal color to default.">
<polygon fill="white" stroke="#666666" points="533.5,-94 396.5,-94 396.5,-75 533.5,-75 533.5,-94"/>
<text text-anchor="middle" x="465" y="-82" font-family="Helvetica,sans-Serif" font-size="10.00">PlatformUtils::resetColor</text>
</a>
</g>
</g>
<!-- Node3&#45;&gt;Node4 -->
<g id="edge3_Node000003_Node000004" class="edge">
<title>Node3&#45;&gt;Node4</title>
<g id="a_edge3_Node000003_Node000004"><a xlink:title=" ">
<path fill="none" stroke="#63b8ff" d="M349.56,-85.1C361.66,-85.03 374.17,-84.97 386.29,-84.91"/>
<polygon fill="#63b8ff" stroke="#63b8ff" points="386.37,-88.41 396.35,-84.85 386.33,-81.41 386.37,-88.41"/>
</a>
</g>
</g>
<!-- Node5 -->
<g id="Node000005" class="node">
<title>Node5</title>
<g id="a_Node000005"><a xlink:href="classPlatformUtils.html#a48de38e18726881bbe61e398ebabb97e" target="_top" xlink:title="Sets terminal text color.">
<polygon fill="white" stroke="#666666" points="702,-75 574,-75 574,-56 702,-56 702,-75"/>
<text text-anchor="middle" x="638" y="-63" font-family="Helvetica,sans-Serif" font-size="10.00">PlatformUtils::setColor</text>
</a>
</g>
</g>
<!-- Node4&#45;&gt;Node5 -->
<g id="edge4_Node000004_Node000005" class="edge">
<title>Node4&#45;&gt;Node5</title>
<g id="a_edge4_Node000004_Node000005"><a xlink:title=" ">
<path fill="none" stroke="#63b8ff" d="M533.58,-76.99C543.53,-75.89 553.81,-74.74 563.85,-73.63"/>
<polygon fill="#63b8ff" stroke="#63b8ff" points="564.25,-77.1 573.8,-72.52 563.48,-70.15 564.25,-77.1"/>
</a>
</g>
</g>
<!-- Node6&#45;&gt;Node5 -->
<g id="edge6_Node000006_Node000005" class="edge">
<title>Node6&#45;&gt;Node5</title>
<g id="a_edge6_Node000006_Node000005"><a xlink:title=" ">
<path fill="none" stroke="#63b8ff" d="M538.02,-55.08C546.46,-55.97 555.08,-56.88 563.53,-57.77"/>
<polygon fill="#63b8ff" stroke="#63b8ff" points="563.43,-61.28 573.74,-58.84 564.16,-54.31 563.43,-61.28"/>
</a>
</g>
</g>
</g>
</svg>
