<?xml version="1.0" encoding="UTF-8" standalone="no"?>
<!DOCTYPE svg PUBLIC "-//W3C//DTD SVG 1.1//EN"
 "http://www.w3.org/Graphics/SVG/1.1/DTD/svg11.dtd">
<!-- Generated by graphviz version 2.43.0 (0)
 -->
<!-- Title: GameController::loadNextLevel Pages: 1 -->
<!--zoomable 1035 -->

<svg id="main" version="1.1" xmlns="http://www.w3.org/2000/svg" xmlns:xlink="http://www.w3.org/1999/xlink" xml:space="preserve" onload="init(evt)">
<style type="text/css"><![CDATA[
.node, .edge {opacity: 0.7;}
.node.selected, .edge.selected {opacity: 1;}
.edge:hover path { stroke: red; }
.edge:hover polygon { stroke: red; fill: red; }
]]></style>

<defs>
  <circle id="rim" cx="0" cy="0" r="7"/>
  <circle id="rim2" cx="0" cy="0" r="3.5"/>
  <g id="zoomPlus">
    <use xlink:href="#rim" fill="#404040"><set attributeName="fill" to="#808080" begin="zoomplus.mouseover" end="zoomplus.mouseout"/></use>
    <path d="M-4,0h8M0,-4v8" fill="none" stroke="white" stroke-width="1.5" pointer-events="none"/>
  </g>
  <g id="zoomMin">
    <use xlink:href="#rim" fill="#404040"><set attributeName="fill" to="#808080" begin="zoomminus.mouseover" end="zoomminus.mouseout"/></use>
    <path d="M-4,0h8" fill="none" stroke="white" stroke-width="1.5" pointer-events="none"/>
  </g>
  <g id="arrowUp" transform="translate(30 24)">
    <use xlink:href="#rim"/>
    <path pointer-events="none" fill="none" stroke="white" stroke-width="1.5" d="M0,-3.0v7 M-2.5,-0.5L0,-3.0L2.5,-0.5"/>
  </g>
  <g id="arrowRight" transform="rotate(90) translate(36 -43)">
    <use xlink:href="#rim"/>
    <path pointer-events="none" fill="none" stroke="white" stroke-width="1.5" d="M0,-3.0v7 M-2.5,-0.5L0,-3.0L2.5,-0.5"/>
  </g>
  <g id="arrowDown" transform="rotate(180) translate(-30 -48)">
    <use xlink:href="#rim"/>
    <path pointer-events="none" fill="none" stroke="white" stroke-width="1.5" d="M0,-3.0v7 M-2.5,-0.5L0,-3.0L2.5,-0.5"/>
  </g>
  <g id="arrowLeft" transform="rotate(270) translate(-36 17)">
    <use xlink:href="#rim"/>
    <path pointer-events="none" fill="none" stroke="white" stroke-width="1.5" d="M0,-3.0v7 M-2.5,-0.5L0,-3.0L2.5,-0.5"/>
  </g>
  <g id="resetDef">
    <use xlink:href="#rim2" fill="#404040"><set attributeName="fill" to="#808080" begin="reset.mouseover" end="reset.mouseout"/></use>
  </g>
</defs>
<script type="application/ecmascript">
var viewWidth = 1165;
var viewHeight = 1035;
var sectionId = 'dynsection-4';
</script>
<script type="application/ecmascript" xlink:href="svg.min.js"/>
<svg id="graph" class="graph">
<g id="viewport">
<title>GameController::loadNextLevel</title>
<!-- Node1 -->
<g id="Node000001" class="node">
<title>Node1</title>
<g id="a_Node000001"><a xlink:title="Loads the next game level.">
<polygon fill="#999999" stroke="#666666" points="144,-472.5 0,-472.5 0,-442.5 144,-442.5 144,-472.5"/>
<text text-anchor="start" x="8" y="-460.5" font-family="Helvetica,sans-Serif" font-size="10.00">GameController::loadNext</text>
<text text-anchor="middle" x="72" y="-449.5" font-family="Helvetica,sans-Serif" font-size="10.00">Level</text>
</a>
</g>
</g>
<!-- Node2 -->
<g id="Node000002" class="node">
<title>Node2</title>
<g id="a_Node000002"><a xlink:href="classGameWorld.html#ad9ff37f139acbfdc8db505d1d89d7979" target="_top" xlink:title="Gets current level number.">
<polygon fill="white" stroke="#666666" points="800,-821 642,-821 642,-802 800,-802 800,-821"/>
<text text-anchor="middle" x="721" y="-809" font-family="Helvetica,sans-Serif" font-size="10.00">GameWorld::getCurrentLevel</text>
</a>
</g>
</g>
<!-- Node1&#45;&gt;Node2 -->
<g id="edge1_Node000001_Node000002" class="edge">
<title>Node1&#45;&gt;Node2</title>
<g id="a_edge1_Node000001_Node000002"><a xlink:title=" ">
<path fill="none" stroke="#63b8ff" d="M97.51,-472.53C202.85,-537.09 612.37,-787.86 627,-793.5 632.74,-795.71 638.79,-797.67 644.93,-799.38"/>
<polygon fill="#63b8ff" stroke="#63b8ff" points="644.07,-802.78 654.63,-801.9 645.83,-796 644.07,-802.78"/>
</a>
</g>
</g>
<!-- Node3 -->
<g id="Node000003" class="node">
<title>Node3</title>
<g id="a_Node000003"><a xlink:href="classGameWorld.html#a13fd8123f71f48726bfeb233961f88da" target="_top" xlink:title="Loads specified level.">
<polygon fill="white" stroke="#666666" points="559,-896 432,-896 432,-877 559,-877 559,-896"/>
<text text-anchor="middle" x="495.5" y="-884" font-family="Helvetica,sans-Serif" font-size="10.00">GameWorld::loadLevel</text>
</a>
</g>
</g>
<!-- Node1&#45;&gt;Node3 -->
<g id="edge2_Node000001_Node000003" class="edge">
<title>Node1&#45;&gt;Node3</title>
<g id="a_edge2_Node000001_Node000003"><a xlink:title=" ">
<path fill="none" stroke="#63b8ff" d="M79.97,-472.99C95.07,-505.46 133.2,-582.06 180,-635.5 272.64,-741.29 414.04,-835.9 470.24,-871.51"/>
<polygon fill="#63b8ff" stroke="#63b8ff" points="468.49,-874.53 478.82,-876.89 472.21,-868.61 468.49,-874.53"/>
</a>
</g>
</g>
<!-- Node16 -->
<g id="Node000016" class="node">
<title>Node16</title>
<g id="a_Node000016"><a xlink:href="classGameController.html#a09c76a5ae9b8f514163dafe31273f44f" target="_top" xlink:title="Loads the currently selected map.">
<polygon fill="white" stroke="#666666" points="364,-354 180,-354 180,-335 364,-335 364,-354"/>
<text text-anchor="middle" x="272" y="-342" font-family="Helvetica,sans-Serif" font-size="10.00">GameController::loadSelectedMap</text>
</a>
</g>
</g>
<!-- Node1&#45;&gt;Node16 -->
<g id="edge16_Node000001_Node000016" class="edge">
<title>Node1&#45;&gt;Node16</title>
<g id="a_edge16_Node000001_Node000016"><a xlink:title=" ">
<path fill="none" stroke="#63b8ff" d="M99.29,-442.49C137.4,-420.74 207.56,-380.71 245.32,-359.16"/>
<polygon fill="#63b8ff" stroke="#63b8ff" points="247.23,-362.09 254.18,-354.1 243.76,-356.01 247.23,-362.09"/>
</a>
</g>
</g>
<!-- Node36 -->
<g id="Node000036" class="node">
<title>Node36</title>
<g id="a_Node000036"><a xlink:href="classGameWorld.html#a0cfc65f0eb89ee76d777f6e2f76cb901" target="_top" xlink:title="Sets current game state.">
<polygon fill="white" stroke="#666666" points="555.5,-19 435.5,-19 435.5,0 555.5,0 555.5,-19"/>
<text text-anchor="middle" x="495.5" y="-7" font-family="Helvetica,sans-Serif" font-size="10.00">GameWorld::setState</text>
</a>
</g>
</g>
<!-- Node1&#45;&gt;Node36 -->
<g id="edge51_Node000001_Node000036" class="edge">
<title>Node1&#45;&gt;Node36</title>
<g id="a_edge51_Node000001_Node000036"><a xlink:title=" ">
<path fill="none" stroke="#63b8ff" d="M80.04,-442.22C109.35,-380.33 228.3,-146.31 400,-33.5 407.87,-28.33 416.79,-24.27 425.93,-21.08"/>
<polygon fill="#63b8ff" stroke="#63b8ff" points="427.01,-24.41 435.49,-18.07 424.9,-17.74 427.01,-24.41"/>
</a>
</g>
</g>
<!-- Node4 -->
<g id="Node000004" class="node">
<title>Node4</title>
<g id="a_Node000004"><a xlink:href="classGameWorld.html#a82921d6b419e2aa8244c5cf69feac3ff" target="_top" xlink:title="Creates enemies for level.">
<polygon fill="white" stroke="#666666" points="797,-972 645,-972 645,-953 797,-953 797,-972"/>
<text text-anchor="middle" x="721" y="-960" font-family="Helvetica,sans-Serif" font-size="10.00">GameWorld::createEnemies</text>
</a>
</g>
</g>
<!-- Node3&#45;&gt;Node4 -->
<g id="edge3_Node000003_Node000004" class="edge">
<title>Node3&#45;&gt;Node4</title>
<g id="a_edge3_Node000003_Node000004"><a xlink:title=" ">
<path fill="none" stroke="#63b8ff" d="M518.35,-896.2C544.02,-907.35 588.05,-925.77 627,-938.5 640.39,-942.88 655.07,-946.98 668.74,-950.51"/>
<polygon fill="#63b8ff" stroke="#63b8ff" points="667.92,-953.91 678.47,-952.98 669.64,-947.13 667.92,-953.91"/>
</a>
</g>
</g>
<!-- Node5 -->
<g id="Node000005" class="node">
<title>Node5</title>
<g id="a_Node000005"><a xlink:href="classGameWorld.html#a704a245a7945b1d7453b22bd698ff5b3" target="_top" xlink:title="Creates obstacles for level.">
<polygon fill="white" stroke="#666666" points="813.5,-1009 628.5,-1009 628.5,-990 813.5,-990 813.5,-1009"/>
<text text-anchor="middle" x="721" y="-997" font-family="Helvetica,sans-Serif" font-size="10.00">GameWorld::createLevelObstacles</text>
</a>
</g>
</g>
<!-- Node3&#45;&gt;Node5 -->
<g id="edge4_Node000003_Node000005" class="edge">
<title>Node3&#45;&gt;Node5</title>
<g id="a_edge4_Node000003_Node000005"><a xlink:title=" ">
<path fill="none" stroke="#63b8ff" d="M506.34,-896.1C526.89,-915.54 576.63,-959.59 627,-981.5 631.78,-983.58 636.8,-985.42 641.93,-987.05"/>
<polygon fill="#63b8ff" stroke="#63b8ff" points="641.31,-990.51 651.89,-989.92 643.26,-983.79 641.31,-990.51"/>
</a>
</g>
</g>
<!-- Node10 -->
<g id="Node000010" class="node">
<title>Node10</title>
<g id="a_Node000010"><a xlink:href="classPlayerTank.html#a59e06eac615955573cfa6842e37f41ad" target="_top" xlink:title="Resets player tank to initial state.">
<polygon fill="white" stroke="#666666" points="771.5,-858 670.5,-858 670.5,-839 771.5,-839 771.5,-858"/>
<text text-anchor="middle" x="721" y="-846" font-family="Helvetica,sans-Serif" font-size="10.00">PlayerTank::reset</text>
</a>
</g>
</g>
<!-- Node3&#45;&gt;Node10 -->
<g id="edge9_Node000003_Node000010" class="edge">
<title>Node3&#45;&gt;Node10</title>
<g id="a_edge9_Node000003_Node000010"><a xlink:title=" ">
<path fill="none" stroke="#63b8ff" d="M552.61,-876.96C585.42,-871.38 626.83,-864.34 660.24,-858.66"/>
<polygon fill="#63b8ff" stroke="#63b8ff" points="661.07,-862.07 670.34,-856.94 659.9,-855.17 661.07,-862.07"/>
</a>
</g>
</g>
<!-- Node14 -->
<g id="Node000014" class="node">
<title>Node14</title>
<g id="a_Node000014"><a xlink:href="classGameObject.html#a8e1f77d21a8ed8a894ae29f0e4126618" target="_top" xlink:title="Sets new position for the object.">
<polygon fill="white" stroke="#666666" points="996.5,-896 859.5,-896 859.5,-877 996.5,-877 996.5,-896"/>
<text text-anchor="middle" x="928" y="-884" font-family="Helvetica,sans-Serif" font-size="10.00">GameObject::setPosition</text>
</a>
</g>
</g>
<!-- Node3&#45;&gt;Node14 -->
<g id="edge15_Node000003_Node000014" class="edge">
<title>Node3&#45;&gt;Node14</title>
<g id="a_edge15_Node000003_Node000014"><a xlink:title=" ">
<path fill="none" stroke="#63b8ff" d="M559.12,-894.59C580.6,-897 604.82,-899.31 627,-900.5 710.44,-904.96 731.61,-905.69 815,-900.5 826.92,-899.76 839.51,-898.58 851.78,-897.21"/>
<polygon fill="#63b8ff" stroke="#63b8ff" points="852.45,-900.65 861.98,-896.02 851.64,-893.7 852.45,-900.65"/>
</a>
</g>
</g>
<!-- Node6 -->
<g id="Node000006" class="node">
<title>Node6</title>
<g id="a_Node000006"><a xlink:href="classGameWorld.html#af148052443ed7c0e22a0ed325429fd1e" target="_top" xlink:title="Adjusts difficulty based on level.">
<polygon fill="white" stroke="#666666" points="1005,-1027 851,-1027 851,-1008 1005,-1008 1005,-1027"/>
<text text-anchor="middle" x="928" y="-1015" font-family="Helvetica,sans-Serif" font-size="10.00">GameWorld::adjustDifficulty</text>
</a>
</g>
</g>
<!-- Node5&#45;&gt;Node6 -->
<g id="edge5_Node000005_Node000006" class="edge">
<title>Node5&#45;&gt;Node6</title>
<g id="a_edge5_Node000005_Node000006"><a xlink:title=" ">
<path fill="none" stroke="#63b8ff" d="M813.71,-1007.55C822.69,-1008.34 831.79,-1009.14 840.72,-1009.92"/>
<polygon fill="#63b8ff" stroke="#63b8ff" points="840.44,-1013.41 850.71,-1010.8 841.06,-1006.44 840.44,-1013.41"/>
</a>
</g>
</g>
<!-- Node7 -->
<g id="Node000007" class="node">
<title>Node7</title>
<g id="a_Node000007"><a xlink:href="classGameObject.html#aa4dd19d6b0ea5701d860b64b08435ae6" target="_top" xlink:title="Gets current position of the object.">
<polygon fill="white" stroke="#666666" points="997,-436 859,-436 859,-417 997,-417 997,-436"/>
<text text-anchor="middle" x="928" y="-424" font-family="Helvetica,sans-Serif" font-size="10.00">GameObject::getPosition</text>
</a>
</g>
</g>
<!-- Node5&#45;&gt;Node7 -->
<g id="edge6_Node000005_Node000007" class="edge">
<title>Node5&#45;&gt;Node7</title>
<g id="a_edge6_Node000005_Node000007"><a xlink:title=" ">
<path fill="none" stroke="#63b8ff" d="M804.75,-989.76C808.48,-987.44 811.93,-984.71 815,-981.5 852.88,-941.89 840.48,-791.29 851,-737.5 872.77,-626.16 908.13,-494.67 921.58,-445.94"/>
<polygon fill="#63b8ff" stroke="#63b8ff" points="925.01,-446.67 924.31,-436.1 918.26,-444.8 925.01,-446.67"/>
</a>
</g>
</g>
<!-- Node8 -->
<g id="Node000008" class="node">
<title>Node8</title>
<g id="a_Node000008"><a xlink:href="classGameWorld.html#a44dd38e9393e523caefeac7448cfc18c" target="_top" xlink:title="Checks if position is valid.">
<polygon fill="white" stroke="#666666" points="1003.5,-990 852.5,-990 852.5,-971 1003.5,-971 1003.5,-990"/>
<text text-anchor="middle" x="928" y="-978" font-family="Helvetica,sans-Serif" font-size="10.00">GameWorld::isValidPosition</text>
</a>
</g>
</g>
<!-- Node5&#45;&gt;Node8 -->
<g id="edge7_Node000005_Node000008" class="edge">
<title>Node5&#45;&gt;Node8</title>
<g id="a_edge7_Node000005_Node000008"><a xlink:title=" ">
<path fill="none" stroke="#63b8ff" d="M813.71,-991C823.18,-990.12 832.78,-989.23 842.17,-988.36"/>
<polygon fill="#63b8ff" stroke="#63b8ff" points="842.63,-991.83 852.27,-987.43 841.99,-984.86 842.63,-991.83"/>
</a>
</g>
</g>
<!-- Node9 -->
<g id="Node000009" class="node">
<title>Node9</title>
<g id="a_Node000009"><a xlink:href="classObstacle.html#aa1936373d282c8dba39f529526b6143d" target="_top" xlink:title="Checks if obstacle is passable for tanks.">
<polygon fill="white" stroke="#666666" points="1157,-990 1041,-990 1041,-971 1157,-971 1157,-990"/>
<text text-anchor="middle" x="1099" y="-978" font-family="Helvetica,sans-Serif" font-size="10.00">Obstacle::isPassable</text>
</a>
</g>
</g>
<!-- Node8&#45;&gt;Node9 -->
<g id="edge8_Node000008_Node000009" class="edge">
<title>Node8&#45;&gt;Node9</title>
<g id="a_edge8_Node000008_Node000009"><a xlink:title=" ">
<path fill="none" stroke="#63b8ff" d="M1003.62,-980.5C1012.58,-980.5 1021.69,-980.5 1030.54,-980.5"/>
<polygon fill="#63b8ff" stroke="#63b8ff" points="1030.79,-984 1040.79,-980.5 1030.79,-977 1030.79,-984"/>
</a>
</g>
</g>
<!-- Node11 -->
<g id="Node000011" class="node">
<title>Node11</title>
<g id="a_Node000011"><a xlink:href="classGameObject.html#a4bc41ca14c07e61dafa74a03c4f3e2df" target="_top" xlink:title="Rotates the object to face new direction.">
<polygon fill="white" stroke="#666666" points="984.5,-765 871.5,-765 871.5,-746 984.5,-746 984.5,-765"/>
<text text-anchor="middle" x="928" y="-753" font-family="Helvetica,sans-Serif" font-size="10.00">GameObject::rotate</text>
</a>
</g>
</g>
<!-- Node10&#45;&gt;Node11 -->
<g id="edge10_Node000010_Node000011" class="edge">
<title>Node10&#45;&gt;Node11</title>
<g id="a_edge10_Node000010_Node000011"><a xlink:title=" ">
<path fill="none" stroke="#63b8ff" d="M771.69,-844.57C786.27,-841.94 801.83,-837.61 815,-830.5 835.19,-819.6 832.48,-807.04 851,-793.5 864.06,-783.95 879.88,-775.61 893.7,-769.19"/>
<polygon fill="#63b8ff" stroke="#63b8ff" points="895.2,-772.35 902.89,-765.06 892.33,-765.97 895.2,-772.35"/>
</a>
</g>
</g>
<!-- Node12 -->
<g id="Node000012" class="node">
<title>Node12</title>
<g id="a_Node000012"><a xlink:href="classGameObject.html#ae1bd24d3b8b67f3c5006ceb1b2159d11" target="_top" xlink:title="Sets destroyed state of the object.">
<polygon fill="white" stroke="#666666" points="1002.5,-821 853.5,-821 853.5,-802 1002.5,-802 1002.5,-821"/>
<text text-anchor="middle" x="928" y="-809" font-family="Helvetica,sans-Serif" font-size="10.00">GameObject::setDestroyed</text>
</a>
</g>
</g>
<!-- Node10&#45;&gt;Node12 -->
<g id="edge11_Node000010_Node000012" class="edge">
<title>Node10&#45;&gt;Node12</title>
<g id="a_edge11_Node000010_Node000012"><a xlink:title=" ">
<path fill="none" stroke="#63b8ff" d="M771.62,-839.54C799.52,-834.51 834.6,-828.18 864.37,-822.8"/>
<polygon fill="#63b8ff" stroke="#63b8ff" points="865.03,-826.24 874.25,-821.02 863.79,-819.35 865.03,-826.24"/>
</a>
</g>
</g>
<!-- Node13 -->
<g id="Node000013" class="node">
<title>Node13</title>
<g id="a_Node000013"><a xlink:href="classGameObject.html#a3cf581673b5b0099d250a434fed52f4d" target="_top" xlink:title="Sets new health value for the object.">
<polygon fill="white" stroke="#666666" points="993.5,-355 862.5,-355 862.5,-336 993.5,-336 993.5,-355"/>
<text text-anchor="middle" x="928" y="-343" font-family="Helvetica,sans-Serif" font-size="10.00">GameObject::setHealth</text>
</a>
</g>
</g>
<!-- Node10&#45;&gt;Node13 -->
<g id="edge12_Node000010_Node000013" class="edge">
<title>Node10&#45;&gt;Node13</title>
<g id="a_edge12_Node000010_Node000013"><a xlink:title=" ">
<path fill="none" stroke="#63b8ff" d="M771.75,-850.15C787.74,-848.04 804.11,-842.61 815,-830.5 877.93,-760.51 807.38,-491.9 851,-408.5 861.72,-388 882.27,-371.6 899.3,-360.68"/>
<polygon fill="#63b8ff" stroke="#63b8ff" points="901.6,-363.38 908.31,-355.18 897.95,-357.4 901.6,-363.38"/>
</a>
</g>
</g>
<!-- Node10&#45;&gt;Node14 -->
<g id="edge13_Node000010_Node000014" class="edge">
<title>Node10&#45;&gt;Node14</title>
<g id="a_edge13_Node000010_Node000014"><a xlink:title=" ">
<path fill="none" stroke="#63b8ff" d="M771.62,-857.7C799.94,-862.95 835.68,-869.57 865.73,-875.14"/>
<polygon fill="#63b8ff" stroke="#63b8ff" points="865.22,-878.61 875.69,-876.99 866.5,-871.73 865.22,-878.61"/>
</a>
</g>
</g>
<!-- Node15 -->
<g id="Node000015" class="node">
<title>Node15</title>
<g id="a_Node000015"><a xlink:href="classTank.html#a1c5feece02579ec3508781a825f97c83" target="_top" xlink:title="Sets base speed for the tank.">
<polygon fill="white" stroke="#666666" points="973,-858 883,-858 883,-839 973,-839 973,-858"/>
<text text-anchor="middle" x="928" y="-846" font-family="Helvetica,sans-Serif" font-size="10.00">Tank::setSpeed</text>
</a>
</g>
</g>
<!-- Node10&#45;&gt;Node15 -->
<g id="edge14_Node000010_Node000015" class="edge">
<title>Node10&#45;&gt;Node15</title>
<g id="a_edge14_Node000010_Node000015"><a xlink:title=" ">
<path fill="none" stroke="#63b8ff" d="M771.62,-848.5C802.07,-848.5 841.09,-848.5 872.41,-848.5"/>
<polygon fill="#63b8ff" stroke="#63b8ff" points="872.72,-852 882.72,-848.5 872.72,-845 872.72,-852"/>
</a>
</g>
</g>
<!-- Node16&#45;&gt;Node2 -->
<g id="edge39_Node000016_Node000002" class="edge">
<title>Node16&#45;&gt;Node2</title>
<g id="a_edge39_Node000016_Node000002"><a xlink:title=" ">
<path fill="none" stroke="#63b8ff" d="M285.59,-354.04C307.58,-370.22 354.97,-403.02 400,-420.5 480.77,-451.86 532.68,-395.42 591,-459.5 691.49,-569.92 525.94,-683.6 627,-793.5 628.85,-795.51 630.85,-797.34 632.98,-799"/>
<polygon fill="#63b8ff" stroke="#63b8ff" points="631.43,-802.16 641.74,-804.58 635.19,-796.25 631.43,-802.16"/>
</a>
</g>
</g>
<!-- Node16&#45;&gt;Node3 -->
<g id="edge45_Node000016_Node000003" class="edge">
<title>Node16&#45;&gt;Node3</title>
<g id="a_edge45_Node000016_Node000003"><a xlink:title=" ">
<path fill="none" stroke="#63b8ff" d="M277.03,-354.37C303.38,-418.83 450.93,-779.88 486.69,-867.39"/>
<polygon fill="#63b8ff" stroke="#63b8ff" points="483.54,-868.94 490.57,-876.87 490.02,-866.29 483.54,-868.94"/>
</a>
</g>
</g>
<!-- Node16&#45;&gt;Node13 -->
<g id="edge47_Node000016_Node000013" class="edge">
<title>Node16&#45;&gt;Node13</title>
<g id="a_edge47_Node000016_Node000013"><a xlink:title=" ">
<path fill="none" stroke="#63b8ff" d="M279.16,-334.7C294.8,-309.5 336.78,-240.13 364,-178.5 383.93,-133.37 360.3,-102.79 400,-73.5 474.22,-18.74 738.59,-14.84 815,-66.5 904.63,-127.1 922.54,-272.49 926.11,-325.62"/>
<polygon fill="#63b8ff" stroke="#63b8ff" points="922.63,-325.97 926.69,-335.76 929.62,-325.58 922.63,-325.97"/>
</a>
</g>
</g>
<!-- Node17 -->
<g id="Node000017" class="node">
<title>Node17</title>
<g id="a_Node000017"><a xlink:href="classMapManager.html#ac1472dad9f9391e45fafadef9c30c1ab" target="_top" xlink:title="Creates game world from map layout.">
<polygon fill="white" stroke="#666666" points="591,-374 400,-374 400,-355 591,-355 591,-374"/>
<text text-anchor="middle" x="495.5" y="-362" font-family="Helvetica,sans-Serif" font-size="10.00">MapManager::createWorldFromMap</text>
</a>
</g>
</g>
<!-- Node16&#45;&gt;Node17 -->
<g id="edge17_Node000016_Node000017" class="edge">
<title>Node16&#45;&gt;Node17</title>
<g id="a_edge17_Node000016_Node000017"><a xlink:title=" ">
<path fill="none" stroke="#63b8ff" d="M364.05,-352.72C372.54,-353.49 381.19,-354.27 389.79,-355.05"/>
<polygon fill="#63b8ff" stroke="#63b8ff" points="389.58,-358.54 399.86,-355.95 390.21,-351.57 389.58,-358.54"/>
</a>
</g>
</g>
<!-- Node24 -->
<g id="Node000024" class="node">
<title>Node24</title>
<g id="a_Node000024"><a xlink:href="classPlayerTank.html#a8e48786bd674e0a64713a2fd8786fc41" target="_top" xlink:title="Gets number of remaining lives.">
<polygon fill="white" stroke="#666666" points="779.5,-243 662.5,-243 662.5,-224 779.5,-224 779.5,-243"/>
<text text-anchor="middle" x="721" y="-231" font-family="Helvetica,sans-Serif" font-size="10.00">PlayerTank::getLives</text>
</a>
</g>
</g>
<!-- Node16&#45;&gt;Node24 -->
<g id="edge40_Node000016_Node000024" class="edge">
<title>Node16&#45;&gt;Node24</title>
<g id="a_edge40_Node000016_Node000024"><a xlink:title=" ">
<path fill="none" stroke="#63b8ff" d="M364.32,-347.77C431.15,-346.27 521.85,-335.86 591,-296.5 612.96,-284 605.37,-265.56 627,-252.5 634.77,-247.81 643.5,-244.26 652.42,-241.57"/>
<polygon fill="#63b8ff" stroke="#63b8ff" points="653.37,-244.94 662.14,-238.98 651.57,-238.17 653.37,-244.94"/>
</a>
</g>
</g>
<!-- Node26 -->
<g id="Node000026" class="node">
<title>Node26</title>
<g id="a_Node000026"><a xlink:href="classGameWorld.html#af726f3547318b0ebae1bb8713611b0ab" target="_top" xlink:title="Gets pointer to player tank.">
<polygon fill="white" stroke="#666666" points="784,-206 658,-206 658,-187 784,-187 784,-206"/>
<text text-anchor="middle" x="721" y="-194" font-family="Helvetica,sans-Serif" font-size="10.00">GameWorld::getPlayer</text>
</a>
</g>
</g>
<!-- Node16&#45;&gt;Node26 -->
<g id="edge42_Node000016_Node000026" class="edge">
<title>Node16&#45;&gt;Node26</title>
<g id="a_edge42_Node000016_Node000026"><a xlink:title=" ">
<path fill="none" stroke="#63b8ff" d="M295.65,-334.99C320.84,-324.65 362.86,-308.04 400,-296.5 483.48,-270.56 514.24,-291.34 591,-249.5 610.32,-238.97 607.47,-225.65 627,-215.5 633.53,-212.1 640.62,-209.32 647.87,-207.03"/>
<polygon fill="#63b8ff" stroke="#63b8ff" points="649.15,-210.3 657.82,-204.2 647.24,-203.57 649.15,-210.3"/>
</a>
</g>
</g>
<!-- Node29 -->
<g id="Node000029" class="node">
<title>Node29</title>
<g id="a_Node000029"><a xlink:href="classPlayerTank.html#ac650158a9f0f60fb07a410fca2cee03f" target="_top" xlink:title="Gets current player score.">
<polygon fill="white" stroke="#666666" points="780.5,-169 661.5,-169 661.5,-150 780.5,-150 780.5,-169"/>
<text text-anchor="middle" x="721" y="-157" font-family="Helvetica,sans-Serif" font-size="10.00">PlayerTank::getScore</text>
</a>
</g>
</g>
<!-- Node16&#45;&gt;Node29 -->
<g id="edge43_Node000016_Node000029" class="edge">
<title>Node16&#45;&gt;Node29</title>
<g id="a_edge43_Node000016_Node000029"><a xlink:title=" ">
<path fill="none" stroke="#63b8ff" d="M283.01,-334.96C303.4,-316.01 351.92,-273.4 400,-249.5 479.1,-210.18 508,-224.73 591,-194.5 607.45,-188.51 610.32,-183.84 627,-178.5 635.53,-175.77 644.63,-173.34 653.67,-171.21"/>
<polygon fill="#63b8ff" stroke="#63b8ff" points="654.44,-174.63 663.43,-169.02 652.91,-167.8 654.44,-174.63"/>
</a>
</g>
</g>
<!-- Node31 -->
<g id="Node000031" class="node">
<title>Node31</title>
<g id="a_Node000031"><a xlink:href="classPlayerTank.html#a5799e229863bc48d1de94625ab91bd0b" target="_top" xlink:title="Sets number of player lives.">
<polygon fill="white" stroke="#666666" points="779,-132 663,-132 663,-113 779,-113 779,-132"/>
<text text-anchor="middle" x="721" y="-120" font-family="Helvetica,sans-Serif" font-size="10.00">PlayerTank::setLives</text>
</a>
</g>
</g>
<!-- Node16&#45;&gt;Node31 -->
<g id="edge48_Node000016_Node000031" class="edge">
<title>Node16&#45;&gt;Node31</title>
<g id="a_edge48_Node000016_Node000031"><a xlink:title=" ">
<path fill="none" stroke="#63b8ff" d="M278.12,-334.95C293.01,-308.14 339.16,-231.7 400,-194.5 478.21,-146.68 584.6,-130.53 652.8,-125.13"/>
<polygon fill="#63b8ff" stroke="#63b8ff" points="653.28,-128.6 662.99,-124.38 652.76,-121.62 653.28,-128.6"/>
</a>
</g>
</g>
<!-- Node32 -->
<g id="Node000032" class="node">
<title>Node32</title>
<g id="a_Node000032"><a xlink:href="classPlayerTank.html#abde1432113bfd6939d0f69e0492b74c7" target="_top" xlink:title="Sets player score.">
<polygon fill="white" stroke="#666666" points="780,-95 662,-95 662,-76 780,-76 780,-95"/>
<text text-anchor="middle" x="721" y="-83" font-family="Helvetica,sans-Serif" font-size="10.00">PlayerTank::setScore</text>
</a>
</g>
</g>
<!-- Node16&#45;&gt;Node32 -->
<g id="edge49_Node000016_Node000032" class="edge">
<title>Node16&#45;&gt;Node32</title>
<g id="a_edge49_Node000016_Node000032"><a xlink:title=" ">
<path fill="none" stroke="#63b8ff" d="M278.8,-334.8C293.28,-310.54 332.17,-245.27 364,-190.5 380.2,-162.62 373.22,-145.47 400,-127.5 474.9,-77.23 582.14,-73.58 651.43,-77.79"/>
<polygon fill="#63b8ff" stroke="#63b8ff" points="651.58,-81.31 661.79,-78.49 652.05,-74.32 651.58,-81.31"/>
</a>
</g>
</g>
<!-- Node33 -->
<g id="Node000033" class="node">
<title>Node33</title>
<g id="a_Node000033"><a xlink:href="classMapManager.html#a48c20c340d2663c0f6222019346ac689" target="_top" xlink:title="Gets specific map by index.">
<polygon fill="white" stroke="#666666" points="557,-524 434,-524 434,-505 557,-505 557,-524"/>
<text text-anchor="middle" x="495.5" y="-512" font-family="Helvetica,sans-Serif" font-size="10.00">MapManager::getMap</text>
</a>
</g>
</g>
<!-- Node16&#45;&gt;Node33 -->
<g id="edge41_Node000016_Node000033" class="edge">
<title>Node16&#45;&gt;Node33</title>
<g id="a_edge41_Node000016_Node000033"><a xlink:title=" ">
<path fill="none" stroke="#63b8ff" d="M278.01,-354.31C292.6,-381.81 338.04,-460.07 400,-496.5 407.35,-500.82 415.52,-504.13 423.9,-506.67"/>
<polygon fill="#63b8ff" stroke="#63b8ff" points="423.23,-510.11 433.79,-509.3 425.03,-503.35 423.23,-510.11"/>
</a>
</g>
</g>
<!-- Node34 -->
<g id="Node000034" class="node">
<title>Node34</title>
<g id="a_Node000034"><a xlink:href="classMapManager.html#af64dff6fc51c7bbc255a4745d8eb0bb4" target="_top" xlink:title="Checks if map index is valid.">
<polygon fill="white" stroke="#666666" points="579,-487 412,-487 412,-468 579,-468 579,-487"/>
<text text-anchor="middle" x="495.5" y="-475" font-family="Helvetica,sans-Serif" font-size="10.00">MapManager::isValidMapIndex</text>
</a>
</g>
</g>
<!-- Node16&#45;&gt;Node34 -->
<g id="edge44_Node000016_Node000034" class="edge">
<title>Node16&#45;&gt;Node34</title>
<g id="a_edge44_Node000016_Node000034"><a xlink:title=" ">
<path fill="none" stroke="#63b8ff" d="M281.17,-354.02C299.92,-375.25 348.43,-426.72 400,-453.5 409.11,-458.23 419.2,-462.07 429.3,-465.16"/>
<polygon fill="#63b8ff" stroke="#63b8ff" points="428.38,-468.54 438.96,-467.92 430.3,-461.81 428.38,-468.54"/>
</a>
</g>
</g>
<!-- Node35 -->
<g id="Node000035" class="node">
<title>Node35</title>
<g id="a_Node000035"><a xlink:href="classGameWorld.html#a70c30d59e1b5010c328b5ddb1fa482cd" target="_top" xlink:title="Sets current level number.">
<polygon fill="white" stroke="#666666" points="574,-411 417,-411 417,-392 574,-392 574,-411"/>
<text text-anchor="middle" x="495.5" y="-399" font-family="Helvetica,sans-Serif" font-size="10.00">GameWorld::setCurrentLevel</text>
</a>
</g>
</g>
<!-- Node16&#45;&gt;Node35 -->
<g id="edge46_Node000016_Node000035" class="edge">
<title>Node16&#45;&gt;Node35</title>
<g id="a_edge46_Node000016_Node000035"><a xlink:title=" ">
<path fill="none" stroke="#63b8ff" d="M301,-354.07C326.57,-362.57 365.52,-374.95 400,-383.5 409.26,-385.8 419.1,-387.97 428.79,-389.95"/>
<polygon fill="#63b8ff" stroke="#63b8ff" points="428.32,-393.42 438.81,-391.95 429.69,-386.56 428.32,-393.42"/>
</a>
</g>
</g>
<!-- Node16&#45;&gt;Node36 -->
<g id="edge50_Node000016_Node000036" class="edge">
<title>Node16&#45;&gt;Node36</title>
<g id="a_edge50_Node000016_Node000036"><a xlink:title=" ">
<path fill="none" stroke="#63b8ff" d="M280.08,-334.96C297.11,-311.58 340.64,-249.06 364,-190.5 390.52,-124.01 349.97,-84.71 400,-33.5 407.1,-26.24 416.06,-21.06 425.62,-17.39"/>
<polygon fill="#63b8ff" stroke="#63b8ff" points="426.93,-20.64 435.34,-14.2 424.74,-13.99 426.93,-20.64"/>
</a>
</g>
</g>
<!-- Node17&#45;&gt;Node2 -->
<g id="edge23_Node000017_Node000002" class="edge">
<title>Node17&#45;&gt;Node2</title>
<g id="a_edge23_Node000017_Node000002"><a xlink:title=" ">
<path fill="none" stroke="#63b8ff" d="M579.58,-374.03C583.79,-376.63 587.65,-379.76 591,-383.5 651.99,-451.66 565.76,-725.56 627,-793.5 628.83,-795.53 630.82,-797.37 632.93,-799.04"/>
<polygon fill="#63b8ff" stroke="#63b8ff" points="631.34,-802.19 641.64,-804.67 635.14,-796.31 631.34,-802.19"/>
</a>
</g>
</g>
<!-- Node17&#45;&gt;Node7 -->
<g id="edge28_Node000017_Node000007" class="edge">
<title>Node17&#45;&gt;Node7</title>
<g id="a_edge28_Node000017_Node000007"><a xlink:title=" ">
<path fill="none" stroke="#63b8ff" d="M591.24,-373.49C654.76,-380.08 740.16,-390.04 815,-402.5 835.46,-405.91 857.85,-410.52 877.19,-414.79"/>
<polygon fill="#63b8ff" stroke="#63b8ff" points="876.47,-418.22 887,-416.99 878,-411.39 876.47,-418.22"/>
</a>
</g>
</g>
<!-- Node17&#45;&gt;Node11 -->
<g id="edge34_Node000017_Node000011" class="edge">
<title>Node17&#45;&gt;Node11</title>
<g id="a_edge34_Node000017_Node000011"><a xlink:title=" ">
<path fill="none" stroke="#63b8ff" d="M579.5,-374.11C583.73,-376.69 587.62,-379.79 591,-383.5 691.66,-493.77 522.41,-610.95 627,-717.5 658.59,-749.68 782.87,-755.78 861.22,-756.32"/>
<polygon fill="#63b8ff" stroke="#63b8ff" points="861.47,-759.82 871.48,-756.36 861.5,-752.82 861.47,-759.82"/>
</a>
</g>
</g>
<!-- Node17&#45;&gt;Node13 -->
<g id="edge35_Node000017_Node000013" class="edge">
<title>Node17&#45;&gt;Node13</title>
<g id="a_edge35_Node000017_Node000013"><a xlink:title=" ">
<path fill="none" stroke="#63b8ff" d="M591.24,-360.32C669.7,-356.86 779.67,-352 852.08,-348.81"/>
<polygon fill="#63b8ff" stroke="#63b8ff" points="852.65,-352.29 862.48,-348.35 852.34,-345.29 852.65,-352.29"/>
</a>
</g>
</g>
<!-- Node17&#45;&gt;Node14 -->
<g id="edge37_Node000017_Node000014" class="edge">
<title>Node17&#45;&gt;Node14</title>
<g id="a_edge37_Node000017_Node000014"><a xlink:title=" ">
<path fill="none" stroke="#63b8ff" d="M580.06,-374.24C584.09,-376.8 587.79,-379.86 591,-383.5 662.38,-464.35 550.32,-791.66 627,-867.5 657.23,-897.4 770.5,-896.93 848.87,-892.65"/>
<polygon fill="#63b8ff" stroke="#63b8ff" points="849.42,-896.12 859.2,-892.05 849.02,-889.13 849.42,-896.12"/>
</a>
</g>
</g>
<!-- Node18 -->
<g id="Node000018" class="node">
<title>Node18</title>
<g id="a_Node000018"><a xlink:href="classMapManager.html#ac5bc6102445e84f0d6f8c9adfdb92a4e" target="_top" xlink:title="Calculates adjusted enemy count based on level.">
<polygon fill="white" stroke="#666666" points="807.5,-708.5 634.5,-708.5 634.5,-678.5 807.5,-678.5 807.5,-708.5"/>
<text text-anchor="start" x="642.5" y="-696.5" font-family="Helvetica,sans-Serif" font-size="10.00">MapManager::calculateAdjusted</text>
<text text-anchor="middle" x="721" y="-685.5" font-family="Helvetica,sans-Serif" font-size="10.00">EnemyCount</text>
</a>
</g>
</g>
<!-- Node17&#45;&gt;Node18 -->
<g id="edge18_Node000017_Node000018" class="edge">
<title>Node17&#45;&gt;Node18</title>
<g id="a_edge18_Node000017_Node000018"><a xlink:title=" ">
<path fill="none" stroke="#63b8ff" d="M579.42,-374.18C583.67,-376.75 587.58,-379.82 591,-383.5 678.21,-477.34 542.36,-573.33 627,-669.5 627.74,-670.34 628.51,-671.16 629.31,-671.95"/>
<polygon fill="#63b8ff" stroke="#63b8ff" points="627.09,-674.67 637.03,-678.36 631.56,-669.28 627.09,-674.67"/>
</a>
</g>
</g>
<!-- Node19 -->
<g id="Node000019" class="node">
<title>Node19</title>
<g id="a_Node000019"><a xlink:href="classMapManager.html#ae3ea6b46f24eb1bf03fd7837a04d559d" target="_top" xlink:title="Calculates enemy difficulty based on level.">
<polygon fill="white" stroke="#666666" points="803,-660.5 639,-660.5 639,-630.5 803,-630.5 803,-660.5"/>
<text text-anchor="start" x="647" y="-648.5" font-family="Helvetica,sans-Serif" font-size="10.00">MapManager::calculateEnemy</text>
<text text-anchor="middle" x="721" y="-637.5" font-family="Helvetica,sans-Serif" font-size="10.00">Difficulty</text>
</a>
</g>
</g>
<!-- Node17&#45;&gt;Node19 -->
<g id="edge19_Node000017_Node000019" class="edge">
<title>Node17&#45;&gt;Node19</title>
<g id="a_edge19_Node000017_Node000019"><a xlink:title=" ">
<path fill="none" stroke="#63b8ff" d="M578.89,-374.03C583.32,-376.62 587.42,-379.74 591,-383.5 664.8,-460.95 555.32,-542.08 627,-621.5 628.19,-622.82 629.44,-624.07 630.75,-625.26"/>
<polygon fill="#63b8ff" stroke="#63b8ff" points="628.71,-628.1 638.79,-631.36 632.94,-622.53 628.71,-628.1"/>
</a>
</g>
</g>
<!-- Node20 -->
<g id="Node000020" class="node">
<title>Node20</title>
<g id="a_Node000020"><a xlink:href="classMapManager.html#ace9dd32160efac15a2b84873861b6f4b" target="_top" xlink:title="Counts enemies in map layout.">
<polygon fill="white" stroke="#666666" points="798.5,-612.5 643.5,-612.5 643.5,-582.5 798.5,-582.5 798.5,-612.5"/>
<text text-anchor="start" x="651.5" y="-600.5" font-family="Helvetica,sans-Serif" font-size="10.00">MapManager::countEnemies</text>
<text text-anchor="middle" x="721" y="-589.5" font-family="Helvetica,sans-Serif" font-size="10.00">InLayout</text>
</a>
</g>
</g>
<!-- Node17&#45;&gt;Node20 -->
<g id="edge20_Node000017_Node000020" class="edge">
<title>Node17&#45;&gt;Node20</title>
<g id="a_edge20_Node000017_Node000020"><a xlink:title=" ">
<path fill="none" stroke="#63b8ff" d="M578.73,-374.18C583.2,-376.74 587.35,-379.81 591,-383.5 651.43,-444.61 568.24,-510.77 627,-573.5 629.34,-575.99 631.9,-578.24 634.63,-580.27"/>
<polygon fill="#63b8ff" stroke="#63b8ff" points="632.95,-583.35 643.28,-585.71 636.68,-577.42 632.95,-583.35"/>
</a>
</g>
</g>
<!-- Node21 -->
<g id="Node000021" class="node">
<title>Node21</title>
<g id="a_Node000021"><a xlink:href="classMapManager.html#a3482ed19e5051b3c1f1f64e7d8c05a79" target="_top" xlink:title="Gets AI behavior based on difficulty level.">
<polygon fill="white" stroke="#666666" points="798.5,-564.5 643.5,-564.5 643.5,-534.5 798.5,-534.5 798.5,-564.5"/>
<text text-anchor="start" x="651.5" y="-552.5" font-family="Helvetica,sans-Serif" font-size="10.00">MapManager::getAIBehavior</text>
<text text-anchor="middle" x="721" y="-541.5" font-family="Helvetica,sans-Serif" font-size="10.00">ForDifficulty</text>
</a>
</g>
</g>
<!-- Node17&#45;&gt;Node21 -->
<g id="edge21_Node000017_Node000021" class="edge">
<title>Node17&#45;&gt;Node21</title>
<g id="a_edge21_Node000017_Node000021"><a xlink:title=" ">
<path fill="none" stroke="#63b8ff" d="M578.03,-374.21C582.73,-376.74 587.12,-379.81 591,-383.5 638.17,-428.38 581.06,-479.36 627,-525.5 629.35,-527.86 631.91,-530 634.61,-531.94"/>
<polygon fill="#63b8ff" stroke="#63b8ff" points="632.8,-534.93 643.15,-537.17 636.45,-528.96 632.8,-534.93"/>
</a>
</g>
</g>
<!-- Node22 -->
<g id="Node000022" class="node">
<title>Node22</title>
<g id="a_Node000022"><a xlink:href="classGameWorld.html#a8ccfe5d146791d20012d963e01262163" target="_top" xlink:title="Gets all active bonuses.">
<polygon fill="white" stroke="#666666" points="789.5,-516 652.5,-516 652.5,-497 789.5,-497 789.5,-516"/>
<text text-anchor="middle" x="721" y="-504" font-family="Helvetica,sans-Serif" font-size="10.00">GameWorld::getBonuses</text>
</a>
</g>
</g>
<!-- Node17&#45;&gt;Node22 -->
<g id="edge22_Node000017_Node000022" class="edge">
<title>Node17&#45;&gt;Node22</title>
<g id="a_edge22_Node000017_Node000022"><a xlink:title=" ">
<path fill="none" stroke="#63b8ff" d="M576.79,-374.12C581.91,-376.66 586.72,-379.75 591,-383.5 628.11,-416.01 589.78,-456.12 627,-488.5 631.61,-492.51 636.84,-495.74 642.42,-498.32"/>
<polygon fill="#63b8ff" stroke="#63b8ff" points="641.49,-501.71 652.07,-502.09 644.03,-495.19 641.49,-501.71"/>
</a>
</g>
</g>
<!-- Node23 -->
<g id="Node000023" class="node">
<title>Node23</title>
<g id="a_Node000023"><a xlink:href="classGameObject.html#aef9f45389e1ce2fe2260bcfd2c84c16a" target="_top" xlink:title="Gets current health points.">
<polygon fill="white" stroke="#666666" points="786.5,-479 655.5,-479 655.5,-460 786.5,-460 786.5,-479"/>
<text text-anchor="middle" x="721" y="-467" font-family="Helvetica,sans-Serif" font-size="10.00">GameObject::getHealth</text>
</a>
</g>
</g>
<!-- Node17&#45;&gt;Node23 -->
<g id="edge24_Node000017_Node000023" class="edge">
<title>Node17&#45;&gt;Node23</title>
<g id="a_edge24_Node000017_Node000023"><a xlink:title=" ">
<path fill="none" stroke="#63b8ff" d="M574.26,-374.13C580.22,-376.63 585.89,-379.71 591,-383.5 618.15,-403.64 599.88,-430.32 627,-450.5 632.6,-454.66 638.88,-457.97 645.48,-460.59"/>
<polygon fill="#63b8ff" stroke="#63b8ff" points="644.73,-464.03 655.33,-463.95 647,-457.41 644.73,-464.03"/>
</a>
</g>
</g>
<!-- Node17&#45;&gt;Node24 -->
<g id="edge25_Node000017_Node000024" class="edge">
<title>Node17&#45;&gt;Node24</title>
<g id="a_edge25_Node000017_Node000024"><a xlink:title=" ">
<path fill="none" stroke="#63b8ff" d="M561.95,-354.88C572.52,-351.08 582.7,-345.8 591,-338.5 622.11,-311.13 594.99,-278.81 627,-252.5 634.37,-246.44 643.16,-242.15 652.36,-239.14"/>
<polygon fill="#63b8ff" stroke="#63b8ff" points="653.35,-242.5 662.04,-236.45 651.47,-235.76 653.35,-242.5"/>
</a>
</g>
</g>
<!-- Node25 -->
<g id="Node000025" class="node">
<title>Node25</title>
<g id="a_Node000025"><a xlink:href="classGameWorld.html#aeb0de8b4054d1ab65b71436966d1a01d" target="_top" xlink:title="Gets all game objects.">
<polygon fill="white" stroke="#666666" points="787,-317 655,-317 655,-298 787,-298 787,-317"/>
<text text-anchor="middle" x="721" y="-305" font-family="Helvetica,sans-Serif" font-size="10.00">GameWorld::getObjects</text>
</a>
</g>
</g>
<!-- Node17&#45;&gt;Node25 -->
<g id="edge26_Node000017_Node000025" class="edge">
<title>Node17&#45;&gt;Node25</title>
<g id="a_edge26_Node000017_Node000025"><a xlink:title=" ">
<path fill="none" stroke="#63b8ff" d="M533.91,-354.96C572.02,-345.24 631.25,-330.13 672.62,-319.58"/>
<polygon fill="#63b8ff" stroke="#63b8ff" points="673.64,-322.93 682.47,-317.07 671.91,-316.15 673.64,-322.93"/>
</a>
</g>
</g>
<!-- Node17&#45;&gt;Node26 -->
<g id="edge27_Node000017_Node000026" class="edge">
<title>Node17&#45;&gt;Node26</title>
<g id="a_edge27_Node000017_Node000026"><a xlink:title=" ">
<path fill="none" stroke="#63b8ff" d="M515.48,-354.85C536.38,-343.4 569.83,-322.53 591,-296.5 615.85,-265.93 596.29,-240.18 627,-215.5 633.3,-210.44 640.6,-206.61 648.29,-203.75"/>
<polygon fill="#63b8ff" stroke="#63b8ff" points="649.35,-207.08 657.81,-200.7 647.22,-200.41 649.35,-207.08"/>
</a>
</g>
</g>
<!-- Node27 -->
<g id="Node000027" class="node">
<title>Node27</title>
<g id="a_Node000027"><a xlink:href="classGameWorld.html#a7b7eb39217a9ca7e8686781766fa982b" target="_top" xlink:title="Gets all active projectiles.">
<polygon fill="white" stroke="#666666" points="794,-280 648,-280 648,-261 794,-261 794,-280"/>
<text text-anchor="middle" x="721" y="-268" font-family="Helvetica,sans-Serif" font-size="10.00">GameWorld::getProjectiles</text>
</a>
</g>
</g>
<!-- Node17&#45;&gt;Node27 -->
<g id="edge29_Node000017_Node000027" class="edge">
<title>Node17&#45;&gt;Node27</title>
<g id="a_edge29_Node000017_Node000027"><a xlink:title=" ">
<path fill="none" stroke="#63b8ff" d="M555.16,-354.89C567.69,-351.1 580.35,-345.83 591,-338.5 613.26,-323.18 604.24,-304.07 627,-289.5 630.59,-287.2 634.41,-285.17 638.36,-283.38"/>
<polygon fill="#63b8ff" stroke="#63b8ff" points="639.82,-286.57 647.82,-279.63 637.23,-280.07 639.82,-286.57"/>
</a>
</g>
</g>
<!-- Node28 -->
<g id="Node000028" class="node">
<title>Node28</title>
<g id="a_Node000028"><a xlink:href="classMapManager.html#a1ad44804432af2a23ae74a8a44007859" target="_top" xlink:title="Gets random enemy tank type based on level.">
<polygon fill="white" stroke="#666666" points="815,-784 627,-784 627,-765 815,-765 815,-784"/>
<text text-anchor="middle" x="721" y="-772" font-family="Helvetica,sans-Serif" font-size="10.00">MapManager::getRandomTankType</text>
</a>
</g>
</g>
<!-- Node17&#45;&gt;Node28 -->
<g id="edge30_Node000017_Node000028" class="edge">
<title>Node17&#45;&gt;Node28</title>
<g id="a_edge30_Node000017_Node000028"><a xlink:title=" ">
<path fill="none" stroke="#63b8ff" d="M579.54,-374.07C583.76,-376.66 587.63,-379.78 591,-383.5 645.96,-444.29 573.71,-688.25 627,-750.5 630.07,-754.09 633.6,-757.18 637.45,-759.83"/>
<polygon fill="#63b8ff" stroke="#63b8ff" points="635.93,-762.99 646.34,-764.98 639.44,-756.94 635.93,-762.99"/>
</a>
</g>
</g>
<!-- Node17&#45;&gt;Node29 -->
<g id="edge31_Node000017_Node000029" class="edge">
<title>Node17&#45;&gt;Node29</title>
<g id="a_edge31_Node000017_Node000029"><a xlink:title=" ">
<path fill="none" stroke="#63b8ff" d="M505.62,-354.92C523.45,-335.87 563.59,-291.47 591,-249.5 610.35,-219.88 598.87,-199.95 627,-178.5 634.31,-172.92 642.86,-168.87 651.75,-165.95"/>
<polygon fill="#63b8ff" stroke="#63b8ff" points="652.82,-169.29 661.49,-163.21 650.92,-162.55 652.82,-169.29"/>
</a>
</g>
</g>
<!-- Node30 -->
<g id="Node000030" class="node">
<title>Node30</title>
<g id="a_Node000030"><a xlink:href="classMapManager.html#abbb0023118bf20fed584293550ace259" target="_top" xlink:title="Checks if position is valid for enemy placement.">
<polygon fill="white" stroke="#666666" points="797,-441.5 645,-441.5 645,-411.5 797,-411.5 797,-441.5"/>
<text text-anchor="start" x="653" y="-429.5" font-family="Helvetica,sans-Serif" font-size="10.00">MapManager::isValidEnemy</text>
<text text-anchor="middle" x="721" y="-418.5" font-family="Helvetica,sans-Serif" font-size="10.00">Position</text>
</a>
</g>
</g>
<!-- Node17&#45;&gt;Node30 -->
<g id="edge32_Node000017_Node000030" class="edge">
<title>Node17&#45;&gt;Node30</title>
<g id="a_edge32_Node000017_Node000030"><a xlink:title=" ">
<path fill="none" stroke="#63b8ff" d="M552.36,-374.07C565.16,-376.72 578.63,-379.88 591,-383.5 607.48,-388.32 610.8,-391.83 627,-397.5 637.62,-401.22 649,-404.96 660.02,-408.46"/>
<polygon fill="#63b8ff" stroke="#63b8ff" points="659.01,-411.81 669.6,-411.47 661.11,-405.13 659.01,-411.81"/>
</a>
</g>
</g>
<!-- Node17&#45;&gt;Node31 -->
<g id="edge36_Node000017_Node000031" class="edge">
<title>Node17&#45;&gt;Node31</title>
<g id="a_edge36_Node000017_Node000031"><a xlink:title=" ">
<path fill="none" stroke="#63b8ff" d="M501.78,-354.98C524.94,-313.33 616.81,-148.8 627,-141.5 634.76,-135.95 643.76,-131.93 653.05,-129.05"/>
<polygon fill="#63b8ff" stroke="#63b8ff" points="654.05,-132.4 662.8,-126.43 652.23,-125.64 654.05,-132.4"/>
</a>
</g>
</g>
<!-- Node17&#45;&gt;Node32 -->
<g id="edge38_Node000017_Node000032" class="edge">
<title>Node17&#45;&gt;Node32</title>
<g id="a_edge38_Node000017_Node000032"><a xlink:title=" ">
<path fill="none" stroke="#63b8ff" d="M498.15,-354.99C505.36,-316.52 537.81,-171.18 627,-103.5 634.41,-97.88 643.08,-93.86 652.1,-91.02"/>
<polygon fill="#63b8ff" stroke="#63b8ff" points="653.22,-94.34 661.97,-88.37 651.41,-87.58 653.22,-94.34"/>
</a>
</g>
</g>
<!-- Node30&#45;&gt;Node7 -->
<g id="edge33_Node000030_Node000007" class="edge">
<title>Node30&#45;&gt;Node7</title>
<g id="a_edge33_Node000030_Node000007"><a xlink:title=" ">
<path fill="none" stroke="#63b8ff" d="M797.17,-426.5C813.92,-426.5 831.72,-426.5 848.6,-426.5"/>
<polygon fill="#63b8ff" stroke="#63b8ff" points="848.97,-430 858.97,-426.5 848.97,-423 848.97,-430"/>
</a>
</g>
</g>
</g>
</svg>

<g id="navigator" transform="translate(0 0)" fill="#404254">
  <rect fill="#f2f5e9" fill-opacity="0.5" stroke="#606060" stroke-width=".5" x="0" y="0" width="60" height="60"/>
  <use id="zoomplus" xlink:href="#zoomPlus" x="17" y="9" onmousedown="handleZoom(evt,'in')"/>
  <use id="zoomminus" xlink:href="#zoomMin" x="42" y="9" onmousedown="handleZoom(evt,'out')"/>
  <use id="reset" xlink:href="#resetDef" x="30" y="36" onmousedown="handleReset()"/>
   <use id="arrowup" xlink:href="#arrowUp" x="0" y="0" onmousedown="handlePan(0,-1)"/>
  <use id="arrowright" xlink:href="#arrowRight" x="0" y="0" onmousedown="handlePan(1,0)"/>
  <use id="arrowdown" xlink:href="#arrowDown" x="0" y="0" onmousedown="handlePan(0,1)"/>
  <use id="arrowleft" xlink:href="#arrowLeft" x="0" y="0" onmousedown="handlePan(-1,0)"/>
</g>
<svg viewBox="0 0 15 15" width="100%" height="30px" preserveAspectRatio="xMaxYMin meet">
 <g id="arrow_out" transform="scale(0.3 0.3)">
  <a xlink:href="classGameController_a4086fc466d91f45c41b2bc5df06af77a_cgraph_org.svg" target="_base">
   <rect id="button" ry="5" rx="5" y="6" x="6" height="38" width="38"
        fill="#f2f5e9" fill-opacity="0.5" stroke="#606060" stroke-width="1.0"/>
   <path id="arrow"
     d="M 11.500037,31.436501 C 11.940474,20.09759 22.043105,11.32322 32.158766,21.979434 L 37.068811,17.246167 C 37.068811,17.246167 37.088388,32 37.088388,32 L 22.160133,31.978069 C 22.160133,31.978069 26.997745,27.140456 26.997745,27.140456 C 18.528582,18.264221 13.291696,25.230495 11.500037,31.436501 z"
     style="fill:#404040;"/>
  </a>
 </g>
</svg>

<style type='text/css'>
<![CDATA[
[data-mouse-over-selected='false'] { opacity: 0.7; }
[data-mouse-over-selected='true']  { opacity: 1.0; }
]]>
</style>
<script type="application/ecmascript"><![CDATA[
document.addEventListener('DOMContentLoaded', (event) => {
  highlightEdges();
  highlightAdjacentNodes();
});
]]></script>
</svg>
