<?xml version="1.0" encoding="UTF-8" standalone="no"?>
<!DOCTYPE svg PUBLIC "-//W3C//DTD SVG 1.1//EN"
 "http://www.w3.org/Graphics/SVG/1.1/DTD/svg11.dtd">
<!-- Generated by graphviz version 2.43.0 (0)
 -->
<!-- Title: GameObject Pages: 1 -->
<svg width="459pt" height="137pt"
 viewBox="0.00 0.00 458.50 137.00" xmlns="http://www.w3.org/2000/svg" xmlns:xlink="http://www.w3.org/1999/xlink">

<svg id="main" version="1.1" xmlns="http://www.w3.org/2000/svg" xmlns:xlink="http://www.w3.org/1999/xlink" xml:space="preserve" onload="init(evt)">
<style type="text/css"><![CDATA[
.node, .edge {opacity: 0.7;}
.node.selected, .edge.selected {opacity: 1;}
.edge:hover path { stroke: red; }
.edge:hover polygon { stroke: red; fill: red; }
]]></style>
<script type="application/ecmascript" xlink:href="svg.min.js"/>
<svg id="graph" class="graph">
<g id="graph0" class="graph" transform="scale(1 1) rotate(0) translate(4 133)">
<title>GameObject</title>
<!-- Node1 -->
<g id="Node000001" class="node">
<title>Node1</title>
<g id="a_Node000001"><a xlink:title="Abstract base class for all game objects.">
<polygon fill="#999999" stroke="#666666" points="216,-129 139,-129 139,-110 216,-110 216,-129"/>
<text text-anchor="middle" x="177.5" y="-117" font-family="Helvetica,sans-Serif" font-size="10.00">GameObject</text>
</a>
</g>
</g>
<!-- Node2 -->
<g id="Node000002" class="node">
<title>Node2</title>
<g id="a_Node000002"><a xlink:href="classBonus.html" target="_top" xlink:title="Represents a bonus object in the game.">
<polygon fill="white" stroke="#666666" points="47,-74 0,-74 0,-55 47,-55 47,-74"/>
<text text-anchor="middle" x="23.5" y="-62" font-family="Helvetica,sans-Serif" font-size="10.00">Bonus</text>
</a>
</g>
</g>
<!-- Node1&#45;&gt;Node2 -->
<g id="edge1_Node000001_Node000002" class="edge">
<title>Node1&#45;&gt;Node2</title>
<g id="a_edge1_Node000001_Node000002"><a xlink:title=" ">
<path fill="none" stroke="#63b8ff" d="M142.97,-106.62C113.79,-96.57 72.76,-82.45 47.17,-73.65"/>
<polygon fill="#63b8ff" stroke="#63b8ff" points="142.16,-110.04 152.76,-109.98 144.44,-103.42 142.16,-110.04"/>
</a>
</g>
</g>
<!-- Node3 -->
<g id="Node000003" class="node">
<title>Node3</title>
<g id="a_Node000003"><a xlink:href="classExplosion.html" target="_top" xlink:title="Class representing an explosion effect.">
<polygon fill="white" stroke="#666666" points="129.5,-74 65.5,-74 65.5,-55 129.5,-55 129.5,-74"/>
<text text-anchor="middle" x="97.5" y="-62" font-family="Helvetica,sans-Serif" font-size="10.00">Explosion</text>
</a>
</g>
</g>
<!-- Node1&#45;&gt;Node3 -->
<g id="edge2_Node000001_Node000003" class="edge">
<title>Node1&#45;&gt;Node3</title>
<g id="a_edge2_Node000001_Node000003"><a xlink:title=" ">
<path fill="none" stroke="#63b8ff" d="M156.25,-104.42C141.74,-94.81 122.96,-82.37 110.59,-74.17"/>
<polygon fill="#63b8ff" stroke="#63b8ff" points="154.38,-107.38 164.65,-109.98 158.24,-101.54 154.38,-107.38"/>
</a>
</g>
</g>
<!-- Node4 -->
<g id="Node000004" class="node">
<title>Node4</title>
<g id="a_Node000004"><a xlink:href="classObstacle.html" target="_top" xlink:title="Base class for all environmental obstacles.">
<polygon fill="white" stroke="#666666" points="207,-74 148,-74 148,-55 207,-55 207,-74"/>
<text text-anchor="middle" x="177.5" y="-62" font-family="Helvetica,sans-Serif" font-size="10.00">Obstacle</text>
</a>
</g>
</g>
<!-- Node1&#45;&gt;Node4 -->
<g id="edge3_Node000001_Node000004" class="edge">
<title>Node1&#45;&gt;Node4</title>
<g id="a_edge3_Node000001_Node000004"><a xlink:title=" ">
<path fill="none" stroke="#63b8ff" d="M177.5,-99.66C177.5,-90.93 177.5,-80.99 177.5,-74.09"/>
<polygon fill="#63b8ff" stroke="#63b8ff" points="174,-99.75 177.5,-109.75 181,-99.75 174,-99.75"/>
</a>
</g>
</g>
<!-- Node8 -->
<g id="Node000008" class="node">
<title>Node8</title>
<g id="a_Node000008"><a xlink:href="classProjectile.html" target="_top" xlink:title="Class representing a projectile fired by tanks.">
<polygon fill="white" stroke="#666666" points="287.5,-74 225.5,-74 225.5,-55 287.5,-55 287.5,-74"/>
<text text-anchor="middle" x="256.5" y="-62" font-family="Helvetica,sans-Serif" font-size="10.00">Projectile</text>
</a>
</g>
</g>
<!-- Node1&#45;&gt;Node8 -->
<g id="edge7_Node000001_Node000008" class="edge">
<title>Node1&#45;&gt;Node8</title>
<g id="a_edge7_Node000001_Node000008"><a xlink:title=" ">
<path fill="none" stroke="#63b8ff" d="M198.89,-104.15C213.17,-94.57 231.47,-82.29 243.58,-74.17"/>
<polygon fill="#63b8ff" stroke="#63b8ff" points="196.55,-101.51 190.19,-109.98 200.45,-107.32 196.55,-101.51"/>
</a>
</g>
</g>
<!-- Node9 -->
<g id="Node000009" class="node">
<title>Node9</title>
<g id="a_Node000009"><a xlink:href="classTank.html" target="_top" xlink:title="Abstract base class for all tank entities.">
<polygon fill="white" stroke="#666666" points="345,-74 306,-74 306,-55 345,-55 345,-74"/>
<text text-anchor="middle" x="325.5" y="-62" font-family="Helvetica,sans-Serif" font-size="10.00">Tank</text>
</a>
</g>
</g>
<!-- Node1&#45;&gt;Node9 -->
<g id="edge8_Node000001_Node000009" class="edge">
<title>Node1&#45;&gt;Node9</title>
<g id="a_edge8_Node000001_Node000009"><a xlink:title=" ">
<path fill="none" stroke="#63b8ff" d="M211.03,-106.49C240.16,-96.06 281.37,-81.3 305.58,-72.63"/>
<polygon fill="#63b8ff" stroke="#63b8ff" points="209.51,-103.32 201.28,-109.98 211.87,-109.91 209.51,-103.32"/>
</a>
</g>
</g>
<!-- Node5 -->
<g id="Node000005" class="node">
<title>Node5</title>
<g id="a_Node000005"><a xlink:href="classForest.html" target="_top" xlink:title="Class representing a forest obstacle.">
<polygon fill="white" stroke="#666666" points="127,-19 80,-19 80,0 127,0 127,-19"/>
<text text-anchor="middle" x="103.5" y="-7" font-family="Helvetica,sans-Serif" font-size="10.00">Forest</text>
</a>
</g>
</g>
<!-- Node4&#45;&gt;Node5 -->
<g id="edge4_Node000004_Node000005" class="edge">
<title>Node4&#45;&gt;Node5</title>
<g id="a_edge4_Node000004_Node000005"><a xlink:title=" ">
<path fill="none" stroke="#63b8ff" d="M157.47,-49.15C144.09,-39.57 126.94,-27.29 115.61,-19.17"/>
<polygon fill="#63b8ff" stroke="#63b8ff" points="155.44,-52.01 165.61,-54.98 159.52,-46.32 155.44,-52.01"/>
</a>
</g>
</g>
<!-- Node6 -->
<g id="Node000006" class="node">
<title>Node6</title>
<g id="a_Node000006"><a xlink:href="classSteelWall.html" target="_top" xlink:title="Class representing a steel wall obstacle.">
<polygon fill="white" stroke="#666666" points="207.5,-19 145.5,-19 145.5,0 207.5,0 207.5,-19"/>
<text text-anchor="middle" x="176.5" y="-7" font-family="Helvetica,sans-Serif" font-size="10.00">SteelWall</text>
</a>
</g>
</g>
<!-- Node4&#45;&gt;Node6 -->
<g id="edge5_Node000004_Node000006" class="edge">
<title>Node4&#45;&gt;Node6</title>
<g id="a_edge5_Node000004_Node000006"><a xlink:title=" ">
<path fill="none" stroke="#63b8ff" d="M177.14,-44.66C176.98,-35.93 176.79,-25.99 176.66,-19.09"/>
<polygon fill="#63b8ff" stroke="#63b8ff" points="173.65,-44.82 177.33,-54.75 180.65,-44.68 173.65,-44.82"/>
</a>
</g>
</g>
<!-- Node7 -->
<g id="Node000007" class="node">
<title>Node7</title>
<g id="a_Node000007"><a xlink:href="classWater.html" target="_top" xlink:title="Class representing a water obstacle.">
<polygon fill="white" stroke="#666666" points="271,-19 226,-19 226,0 271,0 271,-19"/>
<text text-anchor="middle" x="248.5" y="-7" font-family="Helvetica,sans-Serif" font-size="10.00">Water</text>
</a>
</g>
</g>
<!-- Node4&#45;&gt;Node7 -->
<g id="edge6_Node000004_Node000007" class="edge">
<title>Node4&#45;&gt;Node7</title>
<g id="a_edge6_Node000004_Node000007"><a xlink:title=" ">
<path fill="none" stroke="#63b8ff" d="M197.09,-48.88C209.87,-39.34 226.11,-27.21 236.89,-19.17"/>
<polygon fill="#63b8ff" stroke="#63b8ff" points="194.83,-46.2 188.91,-54.98 199.01,-51.81 194.83,-46.2"/>
</a>
</g>
</g>
<!-- Node10 -->
<g id="Node000010" class="node">
<title>Node10</title>
<g id="a_Node000010"><a xlink:href="classEnemyTank.html" target="_top" xlink:title="Class representing enemy tanks with AI behavior.">
<polygon fill="white" stroke="#666666" points="362,-19 289,-19 289,0 362,0 362,-19"/>
<text text-anchor="middle" x="325.5" y="-7" font-family="Helvetica,sans-Serif" font-size="10.00">EnemyTank</text>
</a>
</g>
</g>
<!-- Node9&#45;&gt;Node10 -->
<g id="edge9_Node000009_Node000010" class="edge">
<title>Node9&#45;&gt;Node10</title>
<g id="a_edge9_Node000009_Node000010"><a xlink:title=" ">
<path fill="none" stroke="#63b8ff" d="M325.5,-44.66C325.5,-35.93 325.5,-25.99 325.5,-19.09"/>
<polygon fill="#63b8ff" stroke="#63b8ff" points="322,-44.75 325.5,-54.75 329,-44.75 322,-44.75"/>
</a>
</g>
</g>
<!-- Node11 -->
<g id="Node000011" class="node">
<title>Node11</title>
<g id="a_Node000011"><a xlink:href="classPlayerTank.html" target="_top" xlink:title="Class representing the player&#45;controlled tank.">
<polygon fill="white" stroke="#666666" points="450.5,-19 380.5,-19 380.5,0 450.5,0 450.5,-19"/>
<text text-anchor="middle" x="415.5" y="-7" font-family="Helvetica,sans-Serif" font-size="10.00">PlayerTank</text>
</a>
</g>
</g>
<!-- Node9&#45;&gt;Node11 -->
<g id="edge10_Node000009_Node000011" class="edge">
<title>Node9&#45;&gt;Node11</title>
<g id="a_edge10_Node000009_Node000011"><a xlink:title=" ">
<path fill="none" stroke="#63b8ff" d="M348.94,-49.7C365.34,-40.04 386.73,-27.44 400.78,-19.17"/>
<polygon fill="#63b8ff" stroke="#63b8ff" points="346.8,-46.89 339.96,-54.98 350.35,-52.93 346.8,-46.89"/>
</a>
</g>
</g>
</g>
</svg>
</svg>

<style type='text/css'>
<![CDATA[
[data-mouse-over-selected='false'] { opacity: 0.7; }
[data-mouse-over-selected='true']  { opacity: 1.0; }
]]>
</style>
<script type="application/ecmascript"><![CDATA[
document.addEventListener('DOMContentLoaded', (event) => {
  highlightEdges();
  highlightAdjacentNodes();
});
]]></script>
</svg>
