<?xml version="1.0" encoding="UTF-8" standalone="no"?>
<!DOCTYPE svg PUBLIC "-//W3C//DTD SVG 1.1//EN"
 "http://www.w3.org/Graphics/SVG/1.1/DTD/svg11.dtd">
<!-- Generated by graphviz version 2.43.0 (0)
 -->
<!-- Title: MapManager::MapManager Pages: 1 -->
<svg width="737pt" height="46pt"
 viewBox="0.00 0.00 737.00 46.00" xmlns="http://www.w3.org/2000/svg" xmlns:xlink="http://www.w3.org/1999/xlink">
<g id="graph0" class="graph" transform="scale(1 1) rotate(0) translate(4 42)">
<title>MapManager::MapManager</title>
<!-- Node1 -->
<g id="Node000001" class="node">
<title>Node1</title>
<g id="a_Node000001"><a xlink:title="Constructs a MapManager object.">
<polygon fill="#999999" stroke="#666666" points="150,-38 0,-38 0,-19 150,-19 150,-38"/>
<text text-anchor="middle" x="75" y="-26" font-family="Helvetica,sans-Serif" font-size="10.00">MapManager::MapManager</text>
</a>
</g>
</g>
<!-- Node2 -->
<g id="Node000002" class="node">
<title>Node2</title>
<g id="a_Node000002"><a xlink:href="classMapManager.html#ad0adbcfa1331904665af1868edb052ab" target="_top" xlink:title="Creates default maps if none exist.">
<polygon fill="white" stroke="#666666" points="535,-38 356,-38 356,-19 535,-19 535,-38"/>
<text text-anchor="middle" x="445.5" y="-26" font-family="Helvetica,sans-Serif" font-size="10.00">MapManager::createDefaultMaps</text>
</a>
</g>
</g>
<!-- Node1&#45;&gt;Node2 -->
<g id="edge1_Node000001_Node000002" class="edge">
<title>Node1&#45;&gt;Node2</title>
<g id="a_edge1_Node000001_Node000002"><a xlink:title=" ">
<path fill="none" stroke="#63b8ff" d="M150.13,-28.5C206.37,-28.5 284.24,-28.5 345.76,-28.5"/>
<polygon fill="#63b8ff" stroke="#63b8ff" points="345.87,-32 355.87,-28.5 345.87,-25 345.87,-32"/>
</a>
</g>
</g>
<!-- Node4 -->
<g id="Node000004" class="node">
<title>Node4</title>
<g id="a_Node000004"><a xlink:href="classMapManager.html#a5242ad70cbfc71d06233f84723dd1b7b" target="_top" xlink:title="Loads all maps from directory.">
<polygon fill="white" stroke="#666666" points="320,-19 186,-19 186,0 320,0 320,-19"/>
<text text-anchor="middle" x="253" y="-7" font-family="Helvetica,sans-Serif" font-size="10.00">MapManager::loadMaps</text>
</a>
</g>
</g>
<!-- Node1&#45;&gt;Node4 -->
<g id="edge3_Node000001_Node000004" class="edge">
<title>Node1&#45;&gt;Node4</title>
<g id="a_edge3_Node000001_Node000004"><a xlink:title=" ">
<path fill="none" stroke="#63b8ff" d="M150.13,-20.5C158.55,-19.59 167.13,-18.66 175.58,-17.75"/>
<polygon fill="#63b8ff" stroke="#63b8ff" points="176.22,-21.2 185.79,-16.65 175.47,-14.24 176.22,-21.2"/>
</a>
</g>
</g>
<!-- Node3 -->
<g id="Node000003" class="node">
<title>Node3</title>
<g id="a_Node000003"><a xlink:href="classMapManager.html#a567c17018afe3a29cd1fb783d54ef098" target="_top" xlink:title="Saves map to file.">
<polygon fill="white" stroke="#666666" points="729,-38 571,-38 571,-19 729,-19 729,-38"/>
<text text-anchor="middle" x="650" y="-26" font-family="Helvetica,sans-Serif" font-size="10.00">MapManager::saveMapToFile</text>
</a>
</g>
</g>
<!-- Node2&#45;&gt;Node3 -->
<g id="edge2_Node000002_Node000003" class="edge">
<title>Node2&#45;&gt;Node3</title>
<g id="a_edge2_Node000002_Node000003"><a xlink:title=" ">
<path fill="none" stroke="#63b8ff" d="M535.02,-28.5C543.5,-28.5 552.09,-28.5 560.57,-28.5"/>
<polygon fill="#63b8ff" stroke="#63b8ff" points="560.83,-32 570.83,-28.5 560.83,-25 560.83,-32"/>
</a>
</g>
</g>
<!-- Node4&#45;&gt;Node2 -->
<g id="edge4_Node000004_Node000002" class="edge">
<title>Node4&#45;&gt;Node2</title>
<g id="a_edge4_Node000004_Node000002"><a xlink:title=" ">
<path fill="none" stroke="#63b8ff" d="M320.09,-16.09C328.36,-16.92 336.95,-17.77 345.58,-18.63"/>
<polygon fill="#63b8ff" stroke="#63b8ff" points="345.41,-22.13 355.71,-19.64 346.1,-15.17 345.41,-22.13"/>
</a>
</g>
</g>
</g>
</svg>
