<?xml version="1.0" encoding="UTF-8" standalone="no"?>
<!DOCTYPE svg PUBLIC "-//W3C//DTD SVG 1.1//EN"
 "http://www.w3.org/Graphics/SVG/1.1/DTD/svg11.dtd">
<!-- Generated by graphviz version 2.43.0 (0)
 -->
<!-- Title: PlatformUtils::clearScreen Pages: 1 -->
<svg width="2104pt" height="719pt"
 viewBox="0.00 0.00 2104.00 718.64" xmlns="http://www.w3.org/2000/svg" xmlns:xlink="http://www.w3.org/1999/xlink">
<g id="graph0" class="graph" transform="scale(1 1) rotate(0) translate(4 714.64)">
<title>PlatformUtils::clearScreen</title>
<!-- Node1 -->
<g id="Node000001" class="node">
<title>Node1</title>
<g id="a_Node000001"><a xlink:title="Clears the terminal screen.">
<polygon fill="#999999" stroke="#666666" points="2096,-188.5 1952,-188.5 1952,-169.5 2096,-169.5 2096,-188.5"/>
<text text-anchor="middle" x="2024" y="-176.5" font-family="Helvetica,sans-Serif" font-size="10.00">PlatformUtils::clearScreen</text>
</a>
</g>
</g>
<!-- Node2 -->
<g id="Node000002" class="node">
<title>Node2</title>
<g id="a_Node000002"><a xlink:href="classConsoleRenderer.html#a041e99f6c0427c254b0349b57fbe2a84" target="_top" xlink:title="Clears the terminal screen.">
<polygon fill="white" stroke="#666666" points="1916,-371.5 1753,-371.5 1753,-352.5 1916,-352.5 1916,-371.5"/>
<text text-anchor="middle" x="1834.5" y="-359.5" font-family="Helvetica,sans-Serif" font-size="10.00">ConsoleRenderer::clearScreen</text>
</a>
</g>
</g>
<!-- Node1&#45;&gt;Node2 -->
<g id="edge1_Node000001_Node000002" class="edge">
<title>Node1&#45;&gt;Node2</title>
<g id="a_edge1_Node000001_Node000002"><a xlink:title=" ">
<path fill="none" stroke="#63b8ff" d="M2005.87,-195.72C1967.63,-233.04 1876.26,-322.22 1845.67,-352.07"/>
<polygon fill="#63b8ff" stroke="#63b8ff" points="2008.47,-198.07 2013.18,-188.58 2003.58,-193.06 2008.47,-198.07"/>
</a>
</g>
</g>
<!-- Node22 -->
<g id="Node000022" class="node">
<title>Node22</title>
<g id="a_Node000022"><a xlink:href="classPlatformUtils.html#a706d468490e5e97ebfcdd6e4cf68b860" target="_top" xlink:title="Displays message about required terminal size.">
<polygon fill="white" stroke="#666666" points="424,-30 279,-30 279,0 424,0 424,-30"/>
<text text-anchor="start" x="287" y="-18" font-family="Helvetica,sans-Serif" font-size="10.00">PlatformUtils::showResize</text>
<text text-anchor="middle" x="351.5" y="-7" font-family="Helvetica,sans-Serif" font-size="10.00">Message</text>
</a>
</g>
</g>
<!-- Node1&#45;&gt;Node22 -->
<g id="edge55_Node000001_Node000022" class="edge">
<title>Node1&#45;&gt;Node22</title>
<g id="a_edge55_Node000001_Node000022"><a xlink:title=" ">
<path fill="none" stroke="#63b8ff" d="M2001.95,-163.52C1944.94,-123.19 1781.57,-18 1628.5,-18 1628.5,-18 1628.5,-18 783,-18 656.69,-18 509.53,-16.69 424.1,-15.8"/>
<polygon fill="#63b8ff" stroke="#63b8ff" points="2000,-166.43 2010.16,-169.41 2004.07,-160.74 2000,-166.43"/>
</a>
</g>
</g>
<!-- Node3 -->
<g id="Node000003" class="node">
<title>Node3</title>
<g id="a_Node000003"><a xlink:href="classConsoleRenderer.html#af59760cefd8647cf4b6fe34774cac2c1" target="_top" xlink:title="Draws an error message about terminal size.">
<polygon fill="white" stroke="#666666" points="1704,-439 1551,-439 1551,-409 1704,-409 1704,-439"/>
<text text-anchor="start" x="1559" y="-427" font-family="Helvetica,sans-Serif" font-size="10.00">ConsoleRenderer::drawError</text>
<text text-anchor="middle" x="1627.5" y="-416" font-family="Helvetica,sans-Serif" font-size="10.00">Message</text>
</a>
</g>
</g>
<!-- Node2&#45;&gt;Node3 -->
<g id="edge2_Node000002_Node000003" class="edge">
<title>Node2&#45;&gt;Node3</title>
<g id="a_edge2_Node000002_Node000003"><a xlink:title=" ">
<path fill="none" stroke="#63b8ff" d="M1792.19,-374.5C1759.37,-384.42 1713.37,-398.33 1678.48,-408.88"/>
<polygon fill="#63b8ff" stroke="#63b8ff" points="1793.36,-377.8 1801.92,-371.55 1791.33,-371.1 1793.36,-377.8"/>
</a>
</g>
</g>
<!-- Node4 -->
<g id="Node000004" class="node">
<title>Node4</title>
<g id="a_Node000004"><a xlink:href="classConsoleRenderer.html#a38306106200aabcfd90f6fe0552e18ea" target="_top" xlink:title="Draws game over screen.">
<polygon fill="white" stroke="#666666" points="1502,-552.5 1320,-552.5 1320,-533.5 1502,-533.5 1502,-552.5"/>
<text text-anchor="middle" x="1411" y="-540.5" font-family="Helvetica,sans-Serif" font-size="10.00">ConsoleRenderer::drawGameOver</text>
</a>
</g>
</g>
<!-- Node2&#45;&gt;Node4 -->
<g id="edge38_Node000002_Node000004" class="edge">
<title>Node2&#45;&gt;Node4</title>
<g id="a_edge38_Node000002_Node000004"><a xlink:title=" ">
<path fill="none" stroke="#63b8ff" d="M1825.8,-381.04C1810.74,-415.5 1773.79,-487.57 1717,-519 1641.71,-560.67 1539.57,-559.21 1474.72,-552.52"/>
<polygon fill="#63b8ff" stroke="#63b8ff" points="1829.11,-382.21 1829.77,-371.63 1822.66,-379.48 1829.11,-382.21"/>
</a>
</g>
</g>
<!-- Node5 -->
<g id="Node000005" class="node">
<title>Node5</title>
<g id="a_Node000005"><a xlink:href="classGameController.html#af2367e58f03d8a1441c9a574967fd360" target="_top" xlink:title="Processes a single game turn/update cycle.">
<polygon fill="white" stroke="#666666" points="445,-419.5 258,-419.5 258,-400.5 445,-400.5 445,-419.5"/>
<text text-anchor="middle" x="351.5" y="-407.5" font-family="Helvetica,sans-Serif" font-size="10.00">GameController::processGameTurn</text>
</a>
</g>
</g>
<!-- Node2&#45;&gt;Node5 -->
<g id="edge46_Node000002_Node000005" class="edge">
<title>Node2&#45;&gt;Node5</title>
<g id="a_edge46_Node000002_Node000005"><a xlink:title=" ">
<path fill="none" stroke="#63b8ff" d="M1832.55,-381.79C1828.74,-436.76 1809.86,-591.96 1717,-663 1608.74,-745.81 1548.3,-695 1412,-695 1412,-695 1412,-695 783,-695 638.57,-695 596.53,-661.68 481,-575 420.01,-529.24 372.61,-447.52 357.55,-419.64"/>
<polygon fill="#63b8ff" stroke="#63b8ff" points="1836.05,-381.83 1833.15,-371.64 1829.06,-381.42 1836.05,-381.83"/>
</a>
</g>
</g>
<!-- Node6 -->
<g id="Node000006" class="node">
<title>Node6</title>
<g id="a_Node000006"><a xlink:href="classGameController.html#ac958989c8f7f08488546930e5fcb0d82" target="_top" xlink:title="Starts and runs the main game loop.">
<polygon fill="white" stroke="#666666" points="222,-67.5 77,-67.5 77,-48.5 222,-48.5 222,-67.5"/>
<text text-anchor="middle" x="149.5" y="-55.5" font-family="Helvetica,sans-Serif" font-size="10.00">GameController::runGame</text>
</a>
</g>
</g>
<!-- Node2&#45;&gt;Node6 -->
<g id="edge48_Node000002_Node000006" class="edge">
<title>Node2&#45;&gt;Node6</title>
<g id="a_edge48_Node000002_Node000006"><a xlink:title=" ">
<path fill="none" stroke="#63b8ff" d="M1832.16,-342.16C1827.39,-289.06 1806.35,-143.4 1717,-79 1606.77,0.45 1547.88,-58 1412,-58 1412,-58 1412,-58 574,-58 450.3,-58 306.27,-58 222.06,-58"/>
<polygon fill="#63b8ff" stroke="#63b8ff" points="1828.68,-342.59 1832.96,-352.28 1835.66,-342.03 1828.68,-342.59"/>
</a>
</g>
</g>
<!-- Node8 -->
<g id="Node000008" class="node">
<title>Node8</title>
<g id="a_Node000008"><a xlink:href="classConsoleRenderer.html#a8c9ea938ec7728f1f3436a0a9d944cf2" target="_top" xlink:title="Draws level completion screen.">
<polygon fill="white" stroke="#666666" points="1489,-192 1333,-192 1333,-162 1489,-162 1489,-192"/>
<text text-anchor="start" x="1341" y="-180" font-family="Helvetica,sans-Serif" font-size="10.00">ConsoleRenderer::drawLevel</text>
<text text-anchor="middle" x="1411" y="-169" font-family="Helvetica,sans-Serif" font-size="10.00">Complete</text>
</a>
</g>
</g>
<!-- Node2&#45;&gt;Node8 -->
<g id="edge39_Node000002_Node000008" class="edge">
<title>Node2&#45;&gt;Node8</title>
<g id="a_edge39_Node000002_Node000008"><a xlink:title=" ">
<path fill="none" stroke="#63b8ff" d="M1824.66,-343.05C1808.41,-310.63 1770.53,-245.1 1717,-215 1647,-175.63 1553.89,-169.42 1489.04,-170.99"/>
<polygon fill="#63b8ff" stroke="#63b8ff" points="1821.64,-344.86 1829.16,-352.33 1827.94,-341.8 1821.64,-344.86"/>
</a>
</g>
</g>
<!-- Node9 -->
<g id="Node000009" class="node">
<title>Node9</title>
<g id="a_Node000009"><a xlink:href="classGameController.html#a85bcf4ecfd197aad278e116215a3717b" target="_top" xlink:title="Displays level completion screen.">
<polygon fill="white" stroke="#666666" points="860,-207 708,-207 708,-177 860,-177 860,-207"/>
<text text-anchor="start" x="716" y="-195" font-family="Helvetica,sans-Serif" font-size="10.00">GameController::showLevel</text>
<text text-anchor="middle" x="784" y="-184" font-family="Helvetica,sans-Serif" font-size="10.00">CompleteScreen</text>
</a>
</g>
</g>
<!-- Node2&#45;&gt;Node9 -->
<g id="edge49_Node000002_Node000009" class="edge">
<title>Node2&#45;&gt;Node9</title>
<g id="a_edge49_Node000002_Node000009"><a xlink:title=" ">
<path fill="none" stroke="#63b8ff" d="M1830.23,-342.35C1821.4,-296.11 1792.43,-180.35 1717,-128 1605.03,-50.29 1548.3,-96 1412,-96 1412,-96 1412,-96 1187.5,-96 1049.57,-96 892.13,-150 822.03,-177"/>
<polygon fill="#63b8ff" stroke="#63b8ff" points="1826.8,-343.08 1832.02,-352.3 1833.69,-341.84 1826.8,-343.08"/>
</a>
</g>
</g>
<!-- Node10 -->
<g id="Node000010" class="node">
<title>Node10</title>
<g id="a_Node000010"><a xlink:href="classConsoleRenderer.html#afd03640670c991dfa8240af639c2f0da" target="_top" xlink:title="Draws map selection screen.">
<polygon fill="white" stroke="#666666" points="1486.5,-240 1335.5,-240 1335.5,-210 1486.5,-210 1486.5,-240"/>
<text text-anchor="start" x="1343.5" y="-228" font-family="Helvetica,sans-Serif" font-size="10.00">ConsoleRenderer::drawMap</text>
<text text-anchor="middle" x="1411" y="-217" font-family="Helvetica,sans-Serif" font-size="10.00">Selection</text>
</a>
</g>
</g>
<!-- Node2&#45;&gt;Node10 -->
<g id="edge40_Node000002_Node000010" class="edge">
<title>Node2&#45;&gt;Node10</title>
<g id="a_edge40_Node000002_Node000010"><a xlink:title=" ">
<path fill="none" stroke="#63b8ff" d="M1820.5,-343.86C1801.17,-318.51 1762.24,-273.3 1717,-253 1643.62,-220.07 1550.49,-216.28 1486.55,-218.69"/>
<polygon fill="#63b8ff" stroke="#63b8ff" points="1817.94,-346.28 1826.71,-352.22 1823.56,-342.11 1817.94,-346.28"/>
</a>
</g>
</g>
<!-- Node11 -->
<g id="Node000011" class="node">
<title>Node11</title>
<g id="a_Node000011"><a xlink:href="classGameController.html#a4a9c94fe33cf6c73bb5dfc415d04d309" target="_top" xlink:title="Displays map selection screen.">
<polygon fill="white" stroke="#666666" points="1284,-282.5 1093,-282.5 1093,-263.5 1284,-263.5 1284,-282.5"/>
<text text-anchor="middle" x="1188.5" y="-270.5" font-family="Helvetica,sans-Serif" font-size="10.00">GameController::showMapSelection</text>
</a>
</g>
</g>
<!-- Node2&#45;&gt;Node11 -->
<g id="edge50_Node000002_Node000011" class="edge">
<title>Node2&#45;&gt;Node11</title>
<g id="a_edge50_Node000002_Node000011"><a xlink:title=" ">
<path fill="none" stroke="#63b8ff" d="M1828.29,-342.25C1816.39,-301.47 1782.97,-208.43 1717,-168 1641.73,-121.87 1402.25,-120.93 1320,-153 1261.21,-175.92 1212.89,-239.08 1195.97,-263.34"/>
<polygon fill="#63b8ff" stroke="#63b8ff" points="1824.97,-343.37 1831.03,-352.06 1831.72,-341.49 1824.97,-343.37"/>
</a>
</g>
</g>
<!-- Node13 -->
<g id="Node000013" class="node">
<title>Node13</title>
<g id="a_Node000013"><a xlink:href="classGameController.html#a9d11b5a6255b7249bddba49df0837cf3" target="_top" xlink:title="Displays and manages the main menu.">
<polygon fill="white" stroke="#666666" points="1054,-339.5 902,-339.5 902,-320.5 1054,-320.5 1054,-339.5"/>
<text text-anchor="middle" x="978" y="-327.5" font-family="Helvetica,sans-Serif" font-size="10.00">GameController::showMenu</text>
</a>
</g>
</g>
<!-- Node2&#45;&gt;Node13 -->
<g id="edge51_Node000002_Node000013" class="edge">
<title>Node2&#45;&gt;Node13</title>
<g id="a_edge51_Node000002_Node000013"><a xlink:title=" ">
<path fill="none" stroke="#63b8ff" d="M1821.23,-379.81C1802.34,-405.49 1763.39,-451.8 1717,-470 1642.94,-499.05 1617.49,-473.21 1538,-470 1339.74,-461.99 1274.97,-513.12 1093,-434 1043.86,-412.64 1001.92,-361.18 985.92,-339.69"/>
<polygon fill="#63b8ff" stroke="#63b8ff" points="1824.08,-381.84 1827.06,-371.67 1818.39,-377.77 1824.08,-381.84"/>
</a>
</g>
</g>
<!-- Node14 -->
<g id="Node000014" class="node">
<title>Node14</title>
<g id="a_Node000014"><a xlink:href="classGameController.html#a637ea4e72ed2be4a2884b30160b3e8ab" target="_top" xlink:title="Pauses the game and displays pause screen.">
<polygon fill="white" stroke="#666666" points="863,-396.5 705,-396.5 705,-377.5 863,-377.5 863,-396.5"/>
<text text-anchor="middle" x="784" y="-384.5" font-family="Helvetica,sans-Serif" font-size="10.00">GameController::pauseGame</text>
</a>
</g>
</g>
<!-- Node2&#45;&gt;Node14 -->
<g id="edge45_Node000002_Node000014" class="edge">
<title>Node2&#45;&gt;Node14</title>
<g id="a_edge45_Node000002_Node000014"><a xlink:title=" ">
<path fill="none" stroke="#63b8ff" d="M1828.25,-381.5C1816.26,-421.74 1782.7,-513.39 1717,-552 1640.92,-596.71 1407.16,-574.82 1320,-561 1313.38,-559.95 924.8,-432.78 814.12,-396.54"/>
<polygon fill="#63b8ff" stroke="#63b8ff" points="1831.64,-382.39 1831.01,-371.82 1824.9,-380.47 1831.64,-382.39"/>
</a>
</g>
</g>
<!-- Node15 -->
<g id="Node000015" class="node">
<title>Node15</title>
<g id="a_Node000015"><a xlink:href="classConsoleRenderer.html#aa9273ce964dc1492d66a30b772213e81" target="_top" xlink:title="Draws main menu screen.">
<polygon fill="white" stroke="#666666" points="1489.5,-438.5 1332.5,-438.5 1332.5,-419.5 1489.5,-419.5 1489.5,-438.5"/>
<text text-anchor="middle" x="1411" y="-426.5" font-family="Helvetica,sans-Serif" font-size="10.00">ConsoleRenderer::drawMenu</text>
</a>
</g>
</g>
<!-- Node2&#45;&gt;Node15 -->
<g id="edge41_Node000002_Node000015" class="edge">
<title>Node2&#45;&gt;Node15</title>
<g id="a_edge41_Node000002_Node000015"><a xlink:title=" ">
<path fill="none" stroke="#63b8ff" d="M1817.7,-379C1796.95,-399.94 1758.29,-434.41 1717,-448 1621.5,-479.43 1500.26,-453.92 1443.72,-438.54"/>
<polygon fill="#63b8ff" stroke="#63b8ff" points="1820.31,-381.34 1824.74,-371.71 1815.28,-376.47 1820.31,-381.34"/>
</a>
</g>
</g>
<!-- Node16 -->
<g id="Node000016" class="node">
<title>Node16</title>
<g id="a_Node000016"><a xlink:href="classConsoleRenderer.html#a678f6e7177b2d466b8953d4f01bb7436" target="_top" xlink:title="Draws pause screen.">
<polygon fill="white" stroke="#666666" points="1057,-515 899,-515 899,-485 1057,-485 1057,-515"/>
<text text-anchor="start" x="907" y="-503" font-family="Helvetica,sans-Serif" font-size="10.00">ConsoleRenderer::drawPause</text>
<text text-anchor="middle" x="978" y="-492" font-family="Helvetica,sans-Serif" font-size="10.00">Screen</text>
</a>
</g>
</g>
<!-- Node2&#45;&gt;Node16 -->
<g id="edge42_Node000002_Node000016" class="edge">
<title>Node2&#45;&gt;Node16</title>
<g id="a_edge42_Node000002_Node000016"><a xlink:title=" ">
<path fill="none" stroke="#63b8ff" d="M1831.81,-381.64C1826.24,-432.93 1803.48,-570.97 1717,-630 1602.29,-708.3 1218.6,-654.28 1093,-595 1051.3,-575.32 1012.18,-536.71 992.42,-515.27"/>
<polygon fill="#63b8ff" stroke="#63b8ff" points="1835.31,-381.86 1832.8,-371.57 1828.34,-381.18 1835.31,-381.86"/>
</a>
</g>
</g>
<!-- Node17 -->
<g id="Node000017" class="node">
<title>Node17</title>
<g id="a_Node000017"><a xlink:href="classConsoleRenderer.html#a0e17aa687bd8d7381b2bf8425b2a9709" target="_top" xlink:title="Draws settings screen.">
<polygon fill="white" stroke="#666666" points="1496,-401.5 1326,-401.5 1326,-382.5 1496,-382.5 1496,-401.5"/>
<text text-anchor="middle" x="1411" y="-389.5" font-family="Helvetica,sans-Serif" font-size="10.00">ConsoleRenderer::drawSettings</text>
</a>
</g>
</g>
<!-- Node2&#45;&gt;Node17 -->
<g id="edge43_Node000002_Node000017" class="edge">
<title>Node2&#45;&gt;Node17</title>
<g id="a_edge43_Node000002_Node000017"><a xlink:title=" ">
<path fill="none" stroke="#63b8ff" d="M1742.6,-368.47C1669.44,-373.68 1567.4,-380.94 1496.11,-386.01"/>
<polygon fill="#63b8ff" stroke="#63b8ff" points="1743,-371.95 1752.73,-367.75 1742.51,-364.97 1743,-371.95"/>
</a>
</g>
</g>
<!-- Node18 -->
<g id="Node000018" class="node">
<title>Node18</title>
<g id="a_Node000018"><a xlink:href="classGameController.html#a24f5cae258418d4a5934e6f412c28945" target="_top" xlink:title="Displays and manages the settings menu.">
<polygon fill="white" stroke="#666666" points="1271,-396.5 1106,-396.5 1106,-377.5 1271,-377.5 1271,-396.5"/>
<text text-anchor="middle" x="1188.5" y="-384.5" font-family="Helvetica,sans-Serif" font-size="10.00">GameController::showSettings</text>
</a>
</g>
</g>
<!-- Node2&#45;&gt;Node18 -->
<g id="edge52_Node000002_Node000018" class="edge">
<title>Node2&#45;&gt;Node18</title>
<g id="a_edge52_Node000002_Node000018"><a xlink:title=" ">
<path fill="none" stroke="#63b8ff" d="M1742.88,-361.44C1640.2,-361.38 1467.88,-363.05 1320,-373 1303.4,-374.12 1285.66,-375.74 1268.77,-377.48"/>
<polygon fill="#63b8ff" stroke="#63b8ff" points="1742.9,-364.94 1752.91,-361.45 1742.91,-357.94 1742.9,-364.94"/>
</a>
</g>
</g>
<!-- Node19 -->
<g id="Node000019" class="node">
<title>Node19</title>
<g id="a_Node000019"><a xlink:href="classGameController.html#a19dc0995b5ee51a87bf49dff90f4e991" target="_top" xlink:title="Handles terminal resize events.">
<polygon fill="white" stroke="#666666" points="1498.5,-288 1323.5,-288 1323.5,-258 1498.5,-258 1498.5,-288"/>
<text text-anchor="start" x="1331.5" y="-276" font-family="Helvetica,sans-Serif" font-size="10.00">GameController::handleTerminal</text>
<text text-anchor="middle" x="1411" y="-265" font-family="Helvetica,sans-Serif" font-size="10.00">Resize</text>
</a>
</g>
</g>
<!-- Node2&#45;&gt;Node19 -->
<g id="edge44_Node000002_Node000019" class="edge">
<title>Node2&#45;&gt;Node19</title>
<g id="a_edge44_Node000002_Node000019"><a xlink:title=" ">
<path fill="none" stroke="#63b8ff" d="M1817.68,-345.06C1796.91,-324.19 1758.22,-289.79 1717,-276 1646.32,-252.35 1561.16,-253.8 1498.81,-259.9"/>
<polygon fill="#63b8ff" stroke="#63b8ff" points="1815.25,-347.59 1824.73,-352.33 1820.28,-342.71 1815.25,-347.59"/>
</a>
</g>
</g>
<!-- Node20 -->
<g id="Node000020" class="node">
<title>Node20</title>
<g id="a_Node000020"><a xlink:href="classConsoleRenderer.html#ab34fa7af4ede79de3951f1d5271d7a27" target="_top" xlink:title="Renders the game world to console.">
<polygon fill="white" stroke="#666666" points="1479.5,-628.5 1342.5,-628.5 1342.5,-609.5 1479.5,-609.5 1479.5,-628.5"/>
<text text-anchor="middle" x="1411" y="-616.5" font-family="Helvetica,sans-Serif" font-size="10.00">ConsoleRenderer::render</text>
</a>
</g>
</g>
<!-- Node2&#45;&gt;Node20 -->
<g id="edge47_Node000002_Node000020" class="edge">
<title>Node2&#45;&gt;Node20</title>
<g id="a_edge47_Node000002_Node000020"><a xlink:title=" ">
<path fill="none" stroke="#63b8ff" d="M1830.29,-381.7C1821.59,-428.03 1792.89,-543.88 1717,-595 1638.92,-647.6 1522.75,-638.87 1458.66,-628.52"/>
<polygon fill="#63b8ff" stroke="#63b8ff" points="1833.76,-382.18 1832.05,-371.73 1826.87,-380.97 1833.76,-382.18"/>
</a>
</g>
</g>
<!-- Node21 -->
<g id="Node000021" class="node">
<title>Node21</title>
<g id="a_Node000021"><a xlink:href="classGameController.html#a47c26eedd973ec104d31a7c96b60d658" target="_top" xlink:title="Toggles between advanced and symbolic graphics modes.">
<polygon fill="white" stroke="#666666" points="1717,-315 1538,-315 1538,-285 1717,-285 1717,-315"/>
<text text-anchor="start" x="1546" y="-303" font-family="Helvetica,sans-Serif" font-size="10.00">GameController::toggleAdvanced</text>
<text text-anchor="middle" x="1627.5" y="-292" font-family="Helvetica,sans-Serif" font-size="10.00">Graphics</text>
</a>
</g>
</g>
<!-- Node2&#45;&gt;Node21 -->
<g id="edge53_Node000002_Node000021" class="edge">
<title>Node2&#45;&gt;Node21</title>
<g id="a_edge53_Node000002_Node000021"><a xlink:title=" ">
<path fill="none" stroke="#63b8ff" d="M1792.19,-349.5C1759.37,-339.58 1713.37,-325.67 1678.48,-315.12"/>
<polygon fill="#63b8ff" stroke="#63b8ff" points="1791.33,-352.9 1801.92,-352.45 1793.36,-346.2 1791.33,-352.9"/>
</a>
</g>
</g>
<!-- Node3&#45;&gt;Node4 -->
<g id="edge3_Node000003_Node000004" class="edge">
<title>Node3&#45;&gt;Node4</title>
<g id="a_edge3_Node000003_Node000004"><a xlink:title=" ">
<path fill="none" stroke="#63b8ff" d="M1590.46,-444C1543.78,-469.89 1464.27,-514 1429.33,-533.38"/>
<polygon fill="#63b8ff" stroke="#63b8ff" points="1592.29,-446.98 1599.33,-439.07 1588.89,-440.86 1592.29,-446.98"/>
</a>
</g>
</g>
<!-- Node3&#45;&gt;Node8 -->
<g id="edge7_Node000003_Node000008" class="edge">
<title>Node3&#45;&gt;Node8</title>
<g id="a_edge7_Node000003_Node000008"><a xlink:title=" ">
<path fill="none" stroke="#63b8ff" d="M1601.52,-401.78C1581.69,-382.89 1554.62,-354.1 1538,-324 1510.46,-274.14 1542.76,-240.79 1502,-201 1498.18,-197.27 1493.85,-194.11 1489.21,-191.42"/>
<polygon fill="#63b8ff" stroke="#63b8ff" points="1599.3,-404.49 1608.99,-408.76 1604.07,-399.38 1599.3,-404.49"/>
</a>
</g>
</g>
<!-- Node3&#45;&gt;Node10 -->
<g id="edge10_Node000003_Node000010" class="edge">
<title>Node3&#45;&gt;Node10</title>
<g id="a_edge10_Node000003_Node000010"><a xlink:title=" ">
<path fill="none" stroke="#63b8ff" d="M1603.47,-401.7C1584.34,-382.36 1557.24,-352.99 1538,-324 1517.55,-293.19 1530.47,-272.59 1502,-249 1497.39,-245.18 1492.24,-241.97 1486.79,-239.26"/>
<polygon fill="#63b8ff" stroke="#63b8ff" points="1601.08,-404.26 1610.63,-408.84 1606.02,-399.3 1601.08,-404.26"/>
</a>
</g>
</g>
<!-- Node3&#45;&gt;Node15 -->
<g id="edge21_Node000003_Node000015" class="edge">
<title>Node3&#45;&gt;Node15</title>
<g id="a_edge21_Node000003_Node000015"><a xlink:title=" ">
<path fill="none" stroke="#63b8ff" d="M1540.55,-426C1523.8,-426.39 1506.32,-426.8 1489.84,-427.19"/>
<polygon fill="#63b8ff" stroke="#63b8ff" points="1540.96,-429.49 1550.88,-425.76 1540.8,-422.5 1540.96,-429.49"/>
</a>
</g>
</g>
<!-- Node3&#45;&gt;Node16 -->
<g id="edge23_Node000003_Node000016" class="edge">
<title>Node3&#45;&gt;Node16</title>
<g id="a_edge23_Node000003_Node000016"><a xlink:title=" ">
<path fill="none" stroke="#63b8ff" d="M1541.04,-440.74C1527.99,-443.02 1514.66,-445.19 1502,-447 1344.8,-469.45 1159.68,-485.87 1057.22,-494.08"/>
<polygon fill="#63b8ff" stroke="#63b8ff" points="1541.71,-444.17 1550.95,-438.98 1540.49,-437.28 1541.71,-444.17"/>
</a>
</g>
</g>
<!-- Node3&#45;&gt;Node17 -->
<g id="edge26_Node000003_Node000017" class="edge">
<title>Node3&#45;&gt;Node17</title>
<g id="a_edge26_Node000003_Node000017"><a xlink:title=" ">
<path fill="none" stroke="#63b8ff" d="M1540.71,-411.2C1519.1,-407.98 1496.27,-404.57 1475.94,-401.54"/>
<polygon fill="#63b8ff" stroke="#63b8ff" points="1540.47,-414.7 1550.88,-412.72 1541.5,-407.78 1540.47,-414.7"/>
</a>
</g>
</g>
<!-- Node3&#45;&gt;Node19 -->
<g id="edge29_Node000003_Node000019" class="edge">
<title>Node3&#45;&gt;Node19</title>
<g id="a_edge29_Node000003_Node000019"><a xlink:title=" ">
<path fill="none" stroke="#63b8ff" d="M1596.92,-403.17C1553.16,-372.37 1472.2,-315.38 1433.58,-288.19"/>
<polygon fill="#63b8ff" stroke="#63b8ff" points="1594.96,-406.08 1605.15,-408.97 1598.99,-400.35 1594.96,-406.08"/>
</a>
</g>
</g>
<!-- Node3&#45;&gt;Node20 -->
<g id="edge36_Node000003_Node000020" class="edge">
<title>Node3&#45;&gt;Node20</title>
<g id="a_edge36_Node000003_Node000020"><a xlink:title=" ">
<path fill="none" stroke="#63b8ff" d="M1608.42,-447.39C1585.53,-476.12 1544,-525.42 1502,-561 1478.88,-580.58 1448.72,-598.74 1429.85,-609.35"/>
<polygon fill="#63b8ff" stroke="#63b8ff" points="1611.46,-449.19 1614.9,-439.17 1605.96,-444.85 1611.46,-449.19"/>
</a>
</g>
</g>
<!-- Node4&#45;&gt;Node5 -->
<g id="edge4_Node000004_Node000005" class="edge">
<title>Node4&#45;&gt;Node5</title>
<g id="a_edge4_Node000004_Node000005"><a xlink:title=" ">
<path fill="none" stroke="#63b8ff" d="M1309.43,-543C1222.09,-543 1092.18,-543 979,-543 979,-543 979,-543 783,-543 615.6,-543 427.24,-450.06 369.94,-419.57"/>
<polygon fill="#63b8ff" stroke="#63b8ff" points="1309.61,-546.5 1319.61,-543 1309.61,-539.5 1309.61,-546.5"/>
</a>
</g>
</g>
<!-- Node5&#45;&gt;Node6 -->
<g id="edge5_Node000005_Node000006" class="edge">
<title>Node5&#45;&gt;Node6</title>
<g id="a_edge5_Node000005_Node000006"><a xlink:title=" ">
<path fill="none" stroke="#63b8ff" d="M336.41,-392.44C317.33,-368.22 282.8,-322.79 258,-281 211.06,-201.91 167.48,-99.22 154.44,-67.65"/>
<polygon fill="#63b8ff" stroke="#63b8ff" points="333.74,-394.7 342.7,-400.36 339.22,-390.35 333.74,-394.7"/>
</a>
</g>
</g>
<!-- Node7 -->
<g id="Node000007" class="node">
<title>Node7</title>
<g id="a_Node000007"><a xlink:href="main_8cpp.html#ae66f6b31b5ad750f1fe042a706a4e3d4" target="_top" xlink:title="Main function that serves as the application entry point.">
<polygon fill="white" stroke="#666666" points="41,-46.5 0,-46.5 0,-27.5 41,-27.5 41,-46.5"/>
<text text-anchor="middle" x="20.5" y="-34.5" font-family="Helvetica,sans-Serif" font-size="10.00">main</text>
</a>
</g>
</g>
<!-- Node6&#45;&gt;Node7 -->
<g id="edge6_Node000006_Node000007" class="edge">
<title>Node6&#45;&gt;Node7</title>
<g id="a_edge6_Node000006_Node000007"><a xlink:title=" ">
<path fill="none" stroke="#63b8ff" d="M80.87,-46.82C66.34,-44.41 52.1,-42.06 41.2,-40.26"/>
<polygon fill="#63b8ff" stroke="#63b8ff" points="80.51,-50.3 90.95,-48.48 81.65,-43.4 80.51,-50.3"/>
</a>
</g>
</g>
<!-- Node8&#45;&gt;Node9 -->
<g id="edge8_Node000008_Node000009" class="edge">
<title>Node8&#45;&gt;Node9</title>
<g id="a_edge8_Node000008_Node000009"><a xlink:title=" ">
<path fill="none" stroke="#63b8ff" d="M1322.68,-176.25C1220.9,-175.78 1047.67,-176.27 899,-183 886.41,-183.57 873.05,-184.41 860.07,-185.35"/>
<polygon fill="#63b8ff" stroke="#63b8ff" points="1322.89,-179.75 1332.91,-176.3 1322.92,-172.75 1322.89,-179.75"/>
</a>
</g>
</g>
<!-- Node9&#45;&gt;Node5 -->
<g id="edge9_Node000009_Node000005" class="edge">
<title>Node9&#45;&gt;Node5</title>
<g id="a_edge9_Node000009_Node000005"><a xlink:title=" ">
<path fill="none" stroke="#63b8ff" d="M698.29,-209.42C635.38,-224.75 549.05,-250.96 481,-291 428.33,-322 379.15,-377.68 360.45,-400.17"/>
<polygon fill="#63b8ff" stroke="#63b8ff" points="699.27,-212.78 708.18,-207.05 697.64,-205.97 699.27,-212.78"/>
</a>
</g>
</g>
<!-- Node10&#45;&gt;Node11 -->
<g id="edge11_Node000010_Node000011" class="edge">
<title>Node10&#45;&gt;Node11</title>
<g id="a_edge11_Node000010_Node000011"><a xlink:title=" ">
<path fill="none" stroke="#63b8ff" d="M1330.81,-242.24C1298.02,-249.38 1261.25,-257.38 1233.44,-263.44"/>
<polygon fill="#63b8ff" stroke="#63b8ff" points="1331.81,-245.6 1340.84,-240.06 1330.32,-238.76 1331.81,-245.6"/>
</a>
</g>
</g>
<!-- Node12 -->
<g id="Node000012" class="node">
<title>Node12</title>
<g id="a_Node000012"><a xlink:href="classGameController.html#a971b3d8f6296a74f0bebc83b5e79c186" target="_top" xlink:title="Processes a user command.">
<polygon fill="white" stroke="#666666" points="669,-363.5 481,-363.5 481,-344.5 669,-344.5 669,-363.5"/>
<text text-anchor="middle" x="575" y="-351.5" font-family="Helvetica,sans-Serif" font-size="10.00">GameController::processCommand</text>
</a>
</g>
</g>
<!-- Node11&#45;&gt;Node12 -->
<g id="edge12_Node000011_Node000012" class="edge">
<title>Node11&#45;&gt;Node12</title>
<g id="a_edge12_Node000011_Node000012"><a xlink:title=" ">
<path fill="none" stroke="#63b8ff" d="M1096.66,-283.71C999.6,-295.34 841.27,-314.83 705,-334 682.11,-337.22 656.98,-341.05 635.03,-344.49"/>
<polygon fill="#63b8ff" stroke="#63b8ff" points="1097.22,-287.17 1106.73,-282.51 1096.39,-280.22 1097.22,-287.17"/>
</a>
</g>
</g>
<!-- Node11&#45;&gt;Node13 -->
<g id="edge14_Node000011_Node000013" class="edge">
<title>Node11&#45;&gt;Node13</title>
<g id="a_edge14_Node000011_Node000013"><a xlink:title=" ">
<path fill="none" stroke="#63b8ff" d="M1103.87,-285.09C1100.19,-286.06 1096.56,-287.03 1093,-288 1056.22,-297.99 1013.06,-310.78 991.95,-320.5"/>
<polygon fill="#63b8ff" stroke="#63b8ff" points="1104.87,-288.44 1113.67,-282.54 1103.11,-281.67 1104.87,-288.44"/>
</a>
</g>
</g>
<!-- Node12&#45;&gt;Node5 -->
<g id="edge13_Node000012_Node000005" class="edge">
<title>Node12&#45;&gt;Node5</title>
<g id="a_edge13_Node000012_Node000005"><a xlink:title=" ">
<path fill="none" stroke="#63b8ff" d="M526.46,-366.02C485.71,-376.32 427.78,-390.97 390.17,-400.48"/>
<polygon fill="#63b8ff" stroke="#63b8ff" points="527.34,-369.41 536.17,-363.56 525.62,-362.62 527.34,-369.41"/>
</a>
</g>
</g>
<!-- Node13&#45;&gt;Node6 -->
<g id="edge18_Node000013_Node000006" class="edge">
<title>Node13&#45;&gt;Node6</title>
<g id="a_edge18_Node000013_Node000006"><a xlink:title=" ">
<path fill="none" stroke="#63b8ff" d="M938.46,-317.32C796.54,-270.61 304.72,-108.75 179.62,-67.58"/>
<polygon fill="#63b8ff" stroke="#63b8ff" points="937.48,-320.68 948.07,-320.48 939.66,-314.03 937.48,-320.68"/>
</a>
</g>
</g>
<!-- Node13&#45;&gt;Node9 -->
<g id="edge19_Node000013_Node000009" class="edge">
<title>Node13&#45;&gt;Node9</title>
<g id="a_edge19_Node000013_Node000009"><a xlink:title=" ">
<path fill="none" stroke="#63b8ff" d="M955.35,-314.44C918.22,-287.75 842.88,-233.6 806.12,-207.18"/>
<polygon fill="#63b8ff" stroke="#63b8ff" points="953.34,-317.3 963.5,-320.3 957.42,-311.62 953.34,-317.3"/>
</a>
</g>
</g>
<!-- Node13&#45;&gt;Node11 -->
<g id="edge20_Node000013_Node000011" class="edge">
<title>Node13&#45;&gt;Node11</title>
<g id="a_edge20_Node000013_Node000011"><a xlink:title=" ">
<path fill="none" stroke="#63b8ff" d="M1050.12,-317.84C1064.3,-313.95 1079.11,-309.77 1093,-306 1121.42,-298.28 1154.87,-289.97 1173.37,-282.61"/>
<polygon fill="#63b8ff" stroke="#63b8ff" points="1049.16,-314.47 1040.43,-320.47 1050.99,-321.23 1049.16,-314.47"/>
</a>
</g>
</g>
<!-- Node13&#45;&gt;Node12 -->
<g id="edge17_Node000013_Node000012" class="edge">
<title>Node13&#45;&gt;Node12</title>
<g id="a_edge17_Node000013_Node000012"><a xlink:title=" ">
<path fill="none" stroke="#63b8ff" d="M891.31,-335.13C825.99,-339.04 736.15,-344.41 669.07,-348.43"/>
<polygon fill="#63b8ff" stroke="#63b8ff" points="891.8,-338.61 901.57,-334.51 891.38,-331.62 891.8,-338.61"/>
</a>
</g>
</g>
<!-- Node13&#45;&gt;Node14 -->
<g id="edge15_Node000013_Node000014" class="edge">
<title>Node13&#45;&gt;Node14</title>
<g id="a_edge15_Node000013_Node000014"><a xlink:title=" ">
<path fill="none" stroke="#63b8ff" d="M934.83,-342.52C899.41,-353.04 849.54,-367.84 817.24,-377.43"/>
<polygon fill="#63b8ff" stroke="#63b8ff" points="936.27,-345.74 944.86,-339.54 934.28,-339.03 936.27,-345.74"/>
</a>
</g>
</g>
<!-- Node14&#45;&gt;Node12 -->
<g id="edge16_Node000014_Node000012" class="edge">
<title>Node14&#45;&gt;Node12</title>
<g id="a_edge16_Node000014_Node000012"><a xlink:title=" ">
<path fill="none" stroke="#63b8ff" d="M713.22,-375.88C688.13,-371.88 660.07,-367.4 635.89,-363.55"/>
<polygon fill="#63b8ff" stroke="#63b8ff" points="712.98,-379.38 723.4,-377.5 714.08,-372.47 712.98,-379.38"/>
</a>
</g>
</g>
<!-- Node15&#45;&gt;Node13 -->
<g id="edge22_Node000015_Node000013" class="edge">
<title>Node15&#45;&gt;Node13</title>
<g id="a_edge22_Node000015_Node000013"><a xlink:title=" ">
<path fill="none" stroke="#63b8ff" d="M1322.05,-434.01C1257.08,-434.94 1167.38,-430.37 1093,-405 1050.62,-390.54 1008.68,-356.55 989.63,-339.75"/>
<polygon fill="#63b8ff" stroke="#63b8ff" points="1322.33,-437.5 1332.26,-433.81 1322.2,-430.5 1322.33,-437.5"/>
</a>
</g>
</g>
<!-- Node16&#45;&gt;Node5 -->
<g id="edge25_Node000016_Node000005" class="edge">
<title>Node16&#45;&gt;Node5</title>
<g id="a_edge25_Node000016_Node000005"><a xlink:title=" ">
<path fill="none" stroke="#63b8ff" d="M888.81,-487.29C762.26,-469.05 531.97,-435.87 418.84,-419.56"/>
<polygon fill="#63b8ff" stroke="#63b8ff" points="888.46,-490.78 898.85,-488.74 889.46,-483.85 888.46,-490.78"/>
</a>
</g>
</g>
<!-- Node16&#45;&gt;Node14 -->
<g id="edge24_Node000016_Node000014" class="edge">
<title>Node16&#45;&gt;Node14</title>
<g id="a_edge24_Node000016_Node000014"><a xlink:title=" ">
<path fill="none" stroke="#63b8ff" d="M920.53,-481.16C913.15,-478.07 905.79,-474.67 899,-471 877.8,-459.54 822.24,-416.39 797.36,-396.79"/>
<polygon fill="#63b8ff" stroke="#63b8ff" points="919.28,-484.43 929.87,-484.89 921.88,-477.93 919.28,-484.43"/>
</a>
</g>
</g>
<!-- Node17&#45;&gt;Node18 -->
<g id="edge27_Node000017_Node000018" class="edge">
<title>Node17&#45;&gt;Node18</title>
<g id="a_edge27_Node000017_Node000018"><a xlink:title=" ">
<path fill="none" stroke="#63b8ff" d="M1315.55,-389.86C1300.8,-389.52 1285.65,-389.18 1271.21,-388.85"/>
<polygon fill="#63b8ff" stroke="#63b8ff" points="1315.62,-393.36 1325.69,-390.09 1315.78,-386.36 1315.62,-393.36"/>
</a>
</g>
</g>
<!-- Node18&#45;&gt;Node13 -->
<g id="edge28_Node000018_Node000013" class="edge">
<title>Node18&#45;&gt;Node13</title>
<g id="a_edge28_Node000018_Node000013"><a xlink:title=" ">
<path fill="none" stroke="#63b8ff" d="M1142.69,-374.75C1104.17,-364.22 1049.38,-349.24 1014.01,-339.57"/>
<polygon fill="#63b8ff" stroke="#63b8ff" points="1142.03,-378.2 1152.6,-377.46 1143.88,-371.45 1142.03,-378.2"/>
</a>
</g>
</g>
<!-- Node19&#45;&gt;Node5 -->
<g id="edge31_Node000019_Node000005" class="edge">
<title>Node19&#45;&gt;Node5</title>
<g id="a_edge31_Node000019_Node000005"><a xlink:title=" ">
<path fill="none" stroke="#63b8ff" d="M1313.2,-256.91C1303.36,-255.72 1293.5,-254.71 1284,-254 1199.35,-247.65 1177.71,-248.42 1093,-254 819.22,-272.04 740.57,-246.1 481,-335 435.06,-350.73 387.29,-383.81 365.16,-400.27"/>
<polygon fill="#63b8ff" stroke="#63b8ff" points="1313.07,-260.42 1323.43,-258.21 1313.95,-253.48 1313.07,-260.42"/>
</a>
</g>
</g>
<!-- Node19&#45;&gt;Node9 -->
<g id="edge32_Node000019_Node000009" class="edge">
<title>Node19&#45;&gt;Node9</title>
<g id="a_edge32_Node000019_Node000009"><a xlink:title=" ">
<path fill="none" stroke="#63b8ff" d="M1331.92,-254.3C1327.83,-252.67 1323.83,-250.9 1320,-249 1301.84,-239.99 1302.97,-228.13 1284,-221 1208.56,-192.64 979.88,-190.17 860.06,-190.95"/>
<polygon fill="#63b8ff" stroke="#63b8ff" points="1331.01,-257.7 1341.6,-257.89 1333.44,-251.13 1331.01,-257.7"/>
</a>
</g>
</g>
<!-- Node19&#45;&gt;Node11 -->
<g id="edge33_Node000019_Node000011" class="edge">
<title>Node19&#45;&gt;Node11</title>
<g id="a_edge33_Node000019_Node000011"><a xlink:title=" ">
<path fill="none" stroke="#63b8ff" d="M1313.42,-273C1303.7,-273 1293.84,-273 1284.14,-273"/>
<polygon fill="#63b8ff" stroke="#63b8ff" points="1313.49,-276.5 1323.49,-273 1313.49,-269.5 1313.49,-276.5"/>
</a>
</g>
</g>
<!-- Node19&#45;&gt;Node13 -->
<g id="edge34_Node000019_Node000013" class="edge">
<title>Node19&#45;&gt;Node13</title>
<g id="a_edge34_Node000019_Node000013"><a xlink:title=" ">
<path fill="none" stroke="#63b8ff" d="M1313.06,-287C1303.24,-288.37 1293.43,-289.72 1284,-291 1205.71,-301.6 1116,-312.98 1054.25,-320.69"/>
<polygon fill="#63b8ff" stroke="#63b8ff" points="1313.85,-290.42 1323.26,-285.56 1312.88,-283.49 1313.85,-290.42"/>
</a>
</g>
</g>
<!-- Node19&#45;&gt;Node14 -->
<g id="edge30_Node000019_Node000014" class="edge">
<title>Node19&#45;&gt;Node14</title>
<g id="a_edge30_Node000019_Node000014"><a xlink:title=" ">
<path fill="none" stroke="#63b8ff" d="M1347.58,-291.18C1338.26,-294.25 1328.83,-297.56 1320,-301 1303.51,-307.42 1300.96,-312.95 1284,-318 1139.2,-361.1 962.6,-377.45 863.05,-383.53"/>
<polygon fill="#63b8ff" stroke="#63b8ff" points="1348.78,-294.47 1357.22,-288.07 1346.63,-287.81 1348.78,-294.47"/>
</a>
</g>
</g>
<!-- Node19&#45;&gt;Node18 -->
<g id="edge35_Node000019_Node000018" class="edge">
<title>Node19&#45;&gt;Node18</title>
<g id="a_edge35_Node000019_Node000018"><a xlink:title=" ">
<path fill="none" stroke="#63b8ff" d="M1334.34,-292.65C1329.25,-295.37 1324.41,-298.48 1320,-302 1295.42,-321.66 1309.19,-344.12 1284,-363 1275.6,-369.29 1265.73,-373.95 1255.59,-377.39"/>
<polygon fill="#63b8ff" stroke="#63b8ff" points="1336.23,-295.62 1343.72,-288.13 1333.19,-289.32 1336.23,-295.62"/>
</a>
</g>
</g>
<!-- Node20&#45;&gt;Node5 -->
<g id="edge37_Node000020_Node000005" class="edge">
<title>Node20&#45;&gt;Node5</title>
<g id="a_edge37_Node000020_Node000005"><a xlink:title=" ">
<path fill="none" stroke="#63b8ff" d="M1332.2,-619C1245.89,-619 1102.49,-619 979,-619 979,-619 979,-619 783,-619 641.04,-619 605.01,-584.1 481,-515 431.42,-487.37 382.05,-440.09 361.93,-419.76"/>
<polygon fill="#63b8ff" stroke="#63b8ff" points="1332.44,-622.5 1342.44,-619 1332.44,-615.5 1332.44,-622.5"/>
</a>
</g>
</g>
<!-- Node21&#45;&gt;Node18 -->
<g id="edge54_Node000021_Node000018" class="edge">
<title>Node21&#45;&gt;Node18</title>
<g id="a_edge54_Node000021_Node000018"><a xlink:title=" ">
<path fill="none" stroke="#63b8ff" d="M1527.81,-301.97C1466.43,-305.83 1386.75,-315.7 1320,-340 1302.16,-346.5 1301.42,-355.46 1284,-363 1270.02,-369.05 1254.19,-373.82 1239.54,-377.45"/>
<polygon fill="#63b8ff" stroke="#63b8ff" points="1528.11,-305.46 1537.89,-301.38 1527.7,-298.47 1528.11,-305.46"/>
</a>
</g>
</g>
<!-- Node22&#45;&gt;Node6 -->
<g id="edge57_Node000022_Node000006" class="edge">
<title>Node22&#45;&gt;Node6</title>
<g id="a_edge57_Node000022_Node000006"><a xlink:title=" ">
<path fill="none" stroke="#63b8ff" d="M270.74,-32.15C244.87,-37.71 217.11,-43.68 194.79,-48.48"/>
<polygon fill="#63b8ff" stroke="#63b8ff" points="271.51,-35.56 280.55,-30.04 270.04,-28.72 271.51,-35.56"/>
</a>
</g>
</g>
<!-- Node22&#45;&gt;Node7 -->
<g id="edge56_Node000022_Node000007" class="edge">
<title>Node22&#45;&gt;Node7</title>
<g id="a_edge56_Node000022_Node000007"><a xlink:title=" ">
<path fill="none" stroke="#63b8ff" d="M268.67,-20.47C192.71,-25.55 84.95,-32.76 41.15,-35.69"/>
<polygon fill="#63b8ff" stroke="#63b8ff" points="268.96,-23.96 278.71,-19.8 268.49,-16.98 268.96,-23.96"/>
</a>
</g>
</g>
</g>
</svg>
