<?xml version="1.0" encoding="UTF-8" standalone="no"?>
<!DOCTYPE svg PUBLIC "-//W3C//DTD SVG 1.1//EN"
 "http://www.w3.org/Graphics/SVG/1.1/DTD/svg11.dtd">
<!-- Generated by graphviz version 2.43.0 (0)
 -->
<!-- Title: ConsoleRenderer::setAdvancedGraphics Pages: 1 -->
<svg width="1713pt" height="144pt"
 viewBox="0.00 0.00 1713.00 143.77" xmlns="http://www.w3.org/2000/svg" xmlns:xlink="http://www.w3.org/1999/xlink">
<g id="graph0" class="graph" transform="scale(1 1) rotate(0) translate(4 139.77)">
<title>ConsoleRenderer::setAdvancedGraphics</title>
<!-- Node1 -->
<g id="Node000001" class="node">
<title>Node1</title>
<g id="a_Node000001"><a xlink:title="Enables or disables advanced graphics.">
<polygon fill="#999999" stroke="#666666" points="1705,-115.77 1536,-115.77 1536,-85.77 1705,-85.77 1705,-115.77"/>
<text text-anchor="start" x="1544" y="-103.77" font-family="Helvetica,sans-Serif" font-size="10.00">ConsoleRenderer::setAdvanced</text>
<text text-anchor="middle" x="1620.5" y="-92.77" font-family="Helvetica,sans-Serif" font-size="10.00">Graphics</text>
</a>
</g>
</g>
<!-- Node2 -->
<g id="Node000002" class="node">
<title>Node2</title>
<g id="a_Node000002"><a xlink:href="classGameController.html#a54d4ccea0379465b0806dae60d1baeb2" target="_top" xlink:title="Constructs a GameController object.">
<polygon fill="white" stroke="#666666" points="1499,-132.27 1322,-132.27 1322,-113.27 1499,-113.27 1499,-132.27"/>
<text text-anchor="middle" x="1410.5" y="-120.27" font-family="Helvetica,sans-Serif" font-size="10.00">GameController::GameController</text>
</a>
</g>
</g>
<!-- Node1&#45;&gt;Node2 -->
<g id="edge1_Node000001_Node000002" class="edge">
<title>Node1&#45;&gt;Node2</title>
<g id="a_edge1_Node000001_Node000002"><a xlink:title=" ">
<path fill="none" stroke="#63b8ff" d="M1525.82,-110.68C1516.93,-111.62 1507.94,-112.57 1499.11,-113.51"/>
<polygon fill="#63b8ff" stroke="#63b8ff" points="1526.22,-114.16 1535.8,-109.63 1525.48,-107.2 1526.22,-114.16"/>
</a>
</g>
</g>
<!-- Node3 -->
<g id="Node000003" class="node">
<title>Node3</title>
<g id="a_Node000003"><a xlink:href="classGameController.html#a47c26eedd973ec104d31a7c96b60d658" target="_top" xlink:title="Toggles between advanced and symbolic graphics modes.">
<polygon fill="white" stroke="#666666" points="1500,-94.77 1321,-94.77 1321,-64.77 1500,-64.77 1500,-94.77"/>
<text text-anchor="start" x="1329" y="-82.77" font-family="Helvetica,sans-Serif" font-size="10.00">GameController::toggleAdvanced</text>
<text text-anchor="middle" x="1410.5" y="-71.77" font-family="Helvetica,sans-Serif" font-size="10.00">Graphics</text>
</a>
</g>
</g>
<!-- Node1&#45;&gt;Node3 -->
<g id="edge2_Node000001_Node000003" class="edge">
<title>Node1&#45;&gt;Node3</title>
<g id="a_edge2_Node000001_Node000003"><a xlink:title=" ">
<path fill="none" stroke="#63b8ff" d="M1525.82,-91.31C1517.27,-90.45 1508.63,-89.58 1500.13,-88.72"/>
<polygon fill="#63b8ff" stroke="#63b8ff" points="1525.5,-94.8 1535.8,-92.32 1526.2,-87.83 1525.5,-94.8"/>
</a>
</g>
</g>
<!-- Node4 -->
<g id="Node000004" class="node">
<title>Node4</title>
<g id="a_Node000004"><a xlink:href="classGameController.html#a24f5cae258418d4a5934e6f412c28945" target="_top" xlink:title="Displays and manages the settings menu.">
<polygon fill="white" stroke="#666666" points="1285,-89.27 1120,-89.27 1120,-70.27 1285,-70.27 1285,-89.27"/>
<text text-anchor="middle" x="1202.5" y="-77.27" font-family="Helvetica,sans-Serif" font-size="10.00">GameController::showSettings</text>
</a>
</g>
</g>
<!-- Node3&#45;&gt;Node4 -->
<g id="edge3_Node000003_Node000004" class="edge">
<title>Node3&#45;&gt;Node4</title>
<g id="a_edge3_Node000003_Node000004"><a xlink:title=" ">
<path fill="none" stroke="#63b8ff" d="M1310.87,-79.77C1302.25,-79.77 1293.6,-79.77 1285.15,-79.77"/>
<polygon fill="#63b8ff" stroke="#63b8ff" points="1310.94,-83.27 1320.94,-79.77 1310.94,-76.27 1310.94,-83.27"/>
</a>
</g>
</g>
<!-- Node5 -->
<g id="Node000005" class="node">
<title>Node5</title>
<g id="a_Node000005"><a xlink:href="classGameController.html#a9d11b5a6255b7249bddba49df0837cf3" target="_top" xlink:title="Displays and manages the main menu.">
<polygon fill="white" stroke="#666666" points="1084,-89.27 932,-89.27 932,-70.27 1084,-70.27 1084,-89.27"/>
<text text-anchor="middle" x="1008" y="-77.27" font-family="Helvetica,sans-Serif" font-size="10.00">GameController::showMenu</text>
</a>
</g>
</g>
<!-- Node4&#45;&gt;Node5 -->
<g id="edge4_Node000004_Node000005" class="edge">
<title>Node4&#45;&gt;Node5</title>
<g id="a_edge4_Node000004_Node000005"><a xlink:title=" ">
<path fill="none" stroke="#63b8ff" d="M1109.78,-79.77C1101.15,-79.77 1092.48,-79.77 1084.04,-79.77"/>
<polygon fill="#63b8ff" stroke="#63b8ff" points="1109.86,-83.27 1119.86,-79.77 1109.86,-76.27 1109.86,-83.27"/>
</a>
</g>
</g>
<!-- Node6 -->
<g id="Node000006" class="node">
<title>Node6</title>
<g id="a_Node000006"><a xlink:href="classGameController.html#a637ea4e72ed2be4a2884b30160b3e8ab" target="_top" xlink:title="Pauses the game and displays pause screen.">
<polygon fill="white" stroke="#666666" points="879.5,-71.27 721.5,-71.27 721.5,-52.27 879.5,-52.27 879.5,-71.27"/>
<text text-anchor="middle" x="800.5" y="-59.27" font-family="Helvetica,sans-Serif" font-size="10.00">GameController::pauseGame</text>
</a>
</g>
</g>
<!-- Node5&#45;&gt;Node6 -->
<g id="edge5_Node000005_Node000006" class="edge">
<title>Node5&#45;&gt;Node6</title>
<g id="a_edge5_Node000005_Node000006"><a xlink:title=" ">
<path fill="none" stroke="#63b8ff" d="M921.89,-72.32C907.95,-71.1 893.57,-69.84 879.81,-68.63"/>
<polygon fill="#63b8ff" stroke="#63b8ff" points="921.67,-75.81 931.94,-73.2 922.28,-68.84 921.67,-75.81"/>
</a>
</g>
</g>
<!-- Node7 -->
<g id="Node000007" class="node">
<title>Node7</title>
<g id="a_Node000007"><a xlink:href="classGameController.html#a971b3d8f6296a74f0bebc83b5e79c186" target="_top" xlink:title="Processes a user command.">
<polygon fill="white" stroke="#666666" points="669,-71.27 481,-71.27 481,-52.27 669,-52.27 669,-71.27"/>
<text text-anchor="middle" x="575" y="-59.27" font-family="Helvetica,sans-Serif" font-size="10.00">GameController::processCommand</text>
</a>
</g>
</g>
<!-- Node5&#45;&gt;Node7 -->
<g id="edge10_Node000005_Node000007" class="edge">
<title>Node5&#45;&gt;Node7</title>
<g id="a_edge10_Node000005_Node000007"><a xlink:title=" ">
<path fill="none" stroke="#63b8ff" d="M975.98,-66.44C954.09,-57.78 923.82,-47.29 896,-42.77 800.83,-27.33 687.91,-41.49 624.86,-52.26"/>
<polygon fill="#63b8ff" stroke="#63b8ff" points="974.83,-69.75 985.41,-70.26 977.46,-63.26 974.83,-69.75"/>
</a>
</g>
</g>
<!-- Node9 -->
<g id="Node000009" class="node">
<title>Node9</title>
<g id="a_Node000009"><a xlink:href="classGameController.html#ac958989c8f7f08488546930e5fcb0d82" target="_top" xlink:title="Starts and runs the main game loop.">
<polygon fill="white" stroke="#666666" points="222,-33.27 77,-33.27 77,-14.27 222,-14.27 222,-33.27"/>
<text text-anchor="middle" x="149.5" y="-21.27" font-family="Helvetica,sans-Serif" font-size="10.00">GameController::runGame</text>
</a>
</g>
</g>
<!-- Node5&#45;&gt;Node9 -->
<g id="edge11_Node000005_Node000009" class="edge">
<title>Node5&#45;&gt;Node9</title>
<g id="a_edge11_Node000005_Node000009"><a xlink:title=" ">
<path fill="none" stroke="#63b8ff" d="M981.01,-65.34C959.1,-54.02 926.51,-39.16 896,-32.77 653.23,18.04 356.19,-2.18 222.16,-15.55"/>
<polygon fill="#63b8ff" stroke="#63b8ff" points="979.52,-68.51 990,-70.09 982.79,-62.32 979.52,-68.51"/>
</a>
</g>
</g>
<!-- Node11 -->
<g id="Node000011" class="node">
<title>Node11</title>
<g id="a_Node000011"><a xlink:href="classGameController.html#a85bcf4ecfd197aad278e116215a3717b" target="_top" xlink:title="Displays level completion screen.">
<polygon fill="white" stroke="#666666" points="651,-135.77 499,-135.77 499,-105.77 651,-105.77 651,-135.77"/>
<text text-anchor="start" x="507" y="-123.77" font-family="Helvetica,sans-Serif" font-size="10.00">GameController::showLevel</text>
<text text-anchor="middle" x="575" y="-112.77" font-family="Helvetica,sans-Serif" font-size="10.00">CompleteScreen</text>
</a>
</g>
</g>
<!-- Node5&#45;&gt;Node11 -->
<g id="edge12_Node000005_Node000011" class="edge">
<title>Node5&#45;&gt;Node11</title>
<g id="a_edge12_Node000005_Node000011"><a xlink:title=" ">
<path fill="none" stroke="#63b8ff" d="M976.41,-93.22C954.5,-102.1 924.03,-112.97 896,-117.77 813.17,-131.96 716.52,-130.43 651.28,-126.8"/>
<polygon fill="#63b8ff" stroke="#63b8ff" points="977.95,-96.37 985.84,-89.3 975.26,-89.9 977.95,-96.37"/>
</a>
</g>
</g>
<!-- Node12 -->
<g id="Node000012" class="node">
<title>Node12</title>
<g id="a_Node000012"><a xlink:href="classGameController.html#a4a9c94fe33cf6c73bb5dfc415d04d309" target="_top" xlink:title="Displays map selection screen.">
<polygon fill="white" stroke="#666666" points="896,-108.27 705,-108.27 705,-89.27 896,-89.27 896,-108.27"/>
<text text-anchor="middle" x="800.5" y="-96.27" font-family="Helvetica,sans-Serif" font-size="10.00">GameController::showMapSelection</text>
</a>
</g>
</g>
<!-- Node5&#45;&gt;Node12 -->
<g id="edge14_Node000005_Node000012" class="edge">
<title>Node5&#45;&gt;Node12</title>
<g id="a_edge14_Node000005_Node000012"><a xlink:title=" ">
<path fill="none" stroke="#63b8ff" d="M921.77,-80.99C895,-83.19 866.59,-86.18 844.11,-89.24"/>
<polygon fill="#63b8ff" stroke="#63b8ff" points="922.25,-84.46 931.94,-80.18 921.69,-77.49 922.25,-84.46"/>
</a>
</g>
</g>
<!-- Node6&#45;&gt;Node7 -->
<g id="edge6_Node000006_Node000007" class="edge">
<title>Node6&#45;&gt;Node7</title>
<g id="a_edge6_Node000006_Node000007"><a xlink:title=" ">
<path fill="none" stroke="#63b8ff" d="M710.93,-61.77C697.18,-61.77 682.94,-61.77 669.09,-61.77"/>
<polygon fill="#63b8ff" stroke="#63b8ff" points="711.33,-65.27 721.33,-61.77 711.33,-58.27 711.33,-65.27"/>
</a>
</g>
</g>
<!-- Node8 -->
<g id="Node000008" class="node">
<title>Node8</title>
<g id="a_Node000008"><a xlink:href="classGameController.html#af2367e58f03d8a1441c9a574967fd360" target="_top" xlink:title="Processes a single game turn/update cycle.">
<polygon fill="white" stroke="#666666" points="445,-71.27 258,-71.27 258,-52.27 445,-52.27 445,-71.27"/>
<text text-anchor="middle" x="351.5" y="-59.27" font-family="Helvetica,sans-Serif" font-size="10.00">GameController::processGameTurn</text>
</a>
</g>
</g>
<!-- Node7&#45;&gt;Node8 -->
<g id="edge7_Node000007_Node000008" class="edge">
<title>Node7&#45;&gt;Node8</title>
<g id="a_edge7_Node000007_Node000008"><a xlink:title=" ">
<path fill="none" stroke="#63b8ff" d="M470.5,-61.77C462.1,-61.77 453.65,-61.77 445.33,-61.77"/>
<polygon fill="#63b8ff" stroke="#63b8ff" points="470.71,-65.27 480.71,-61.77 470.71,-58.27 470.71,-65.27"/>
</a>
</g>
</g>
<!-- Node8&#45;&gt;Node9 -->
<g id="edge8_Node000008_Node000009" class="edge">
<title>Node8&#45;&gt;Node9</title>
<g id="a_edge8_Node000008_Node000009"><a xlink:title=" ">
<path fill="none" stroke="#63b8ff" d="M290.4,-50.35C261.79,-44.92 227.96,-38.49 200.73,-33.32"/>
<polygon fill="#63b8ff" stroke="#63b8ff" points="289.81,-53.8 300.29,-52.23 291.12,-46.93 289.81,-53.8"/>
</a>
</g>
</g>
<!-- Node10 -->
<g id="Node000010" class="node">
<title>Node10</title>
<g id="a_Node000010"><a xlink:href="main_8cpp.html#ae66f6b31b5ad750f1fe042a706a4e3d4" target="_top" xlink:title="Main function that serves as the application entry point.">
<polygon fill="white" stroke="#666666" points="41,-33.27 0,-33.27 0,-14.27 41,-14.27 41,-33.27"/>
<text text-anchor="middle" x="20.5" y="-21.27" font-family="Helvetica,sans-Serif" font-size="10.00">main</text>
</a>
</g>
</g>
<!-- Node9&#45;&gt;Node10 -->
<g id="edge9_Node000009_Node000010" class="edge">
<title>Node9&#45;&gt;Node10</title>
<g id="a_edge9_Node000009_Node000010"><a xlink:title=" ">
<path fill="none" stroke="#63b8ff" d="M66.79,-23.77C57.31,-23.77 48.43,-23.77 41.08,-23.77"/>
<polygon fill="#63b8ff" stroke="#63b8ff" points="66.83,-27.27 76.83,-23.77 66.83,-20.27 66.83,-27.27"/>
</a>
</g>
</g>
<!-- Node11&#45;&gt;Node8 -->
<g id="edge13_Node000011_Node000008" class="edge">
<title>Node11&#45;&gt;Node8</title>
<g id="a_edge13_Node000011_Node000008"><a xlink:title=" ">
<path fill="none" stroke="#63b8ff" d="M507.79,-103.14C468.64,-92.71 420.59,-79.91 388.4,-71.33"/>
<polygon fill="#63b8ff" stroke="#63b8ff" points="506.97,-106.54 517.53,-105.73 508.77,-99.78 506.97,-106.54"/>
</a>
</g>
</g>
<!-- Node12&#45;&gt;Node5 -->
<g id="edge16_Node000012_Node000005" class="edge">
<title>Node12&#45;&gt;Node5</title>
<g id="a_edge16_Node000012_Node000005"><a xlink:title=" ">
<path fill="none" stroke="#63b8ff" d="M906.25,-95.84C926.85,-93.91 947.35,-91.63 964.42,-89.3"/>
<polygon fill="#63b8ff" stroke="#63b8ff" points="905.78,-92.36 896.14,-96.75 906.41,-99.34 905.78,-92.36"/>
</a>
</g>
</g>
<!-- Node12&#45;&gt;Node7 -->
<g id="edge15_Node000012_Node000007" class="edge">
<title>Node12&#45;&gt;Node7</title>
<g id="a_edge15_Node000012_Node000007"><a xlink:title=" ">
<path fill="none" stroke="#63b8ff" d="M731.98,-87.59C700.64,-82.41 663.77,-76.3 633.75,-71.33"/>
<polygon fill="#63b8ff" stroke="#63b8ff" points="731.51,-91.06 741.94,-89.24 732.65,-84.16 731.51,-91.06"/>
</a>
</g>
</g>
</g>
</svg>
