<?xml version="1.0" encoding="UTF-8" standalone="no"?>
<!DOCTYPE svg PUBLIC "-//W3C//DTD SVG 1.1//EN"
 "http://www.w3.org/Graphics/SVG/1.1/DTD/svg11.dtd">
<!-- Generated by graphviz version 2.43.0 (0)
 -->
<!-- Title: ConsoleRenderer::drawMenu Pages: 1 -->
<!--zoomable 114 -->

<svg id="main" version="1.1" xmlns="http://www.w3.org/2000/svg" xmlns:xlink="http://www.w3.org/1999/xlink" xml:space="preserve" onload="init(evt)">
<style type="text/css"><![CDATA[
.node, .edge {opacity: 0.7;}
.node.selected, .edge.selected {opacity: 1;}
.edge:hover path { stroke: red; }
.edge:hover polygon { stroke: red; fill: red; }
]]></style>

<defs>
  <circle id="rim" cx="0" cy="0" r="7"/>
  <circle id="rim2" cx="0" cy="0" r="3.5"/>
  <g id="zoomPlus">
    <use xlink:href="#rim" fill="#404040"><set attributeName="fill" to="#808080" begin="zoomplus.mouseover" end="zoomplus.mouseout"/></use>
    <path d="M-4,0h8M0,-4v8" fill="none" stroke="white" stroke-width="1.5" pointer-events="none"/>
  </g>
  <g id="zoomMin">
    <use xlink:href="#rim" fill="#404040"><set attributeName="fill" to="#808080" begin="zoomminus.mouseover" end="zoomminus.mouseout"/></use>
    <path d="M-4,0h8" fill="none" stroke="white" stroke-width="1.5" pointer-events="none"/>
  </g>
  <g id="arrowUp" transform="translate(30 24)">
    <use xlink:href="#rim"/>
    <path pointer-events="none" fill="none" stroke="white" stroke-width="1.5" d="M0,-3.0v7 M-2.5,-0.5L0,-3.0L2.5,-0.5"/>
  </g>
  <g id="arrowRight" transform="rotate(90) translate(36 -43)">
    <use xlink:href="#rim"/>
    <path pointer-events="none" fill="none" stroke="white" stroke-width="1.5" d="M0,-3.0v7 M-2.5,-0.5L0,-3.0L2.5,-0.5"/>
  </g>
  <g id="arrowDown" transform="rotate(180) translate(-30 -48)">
    <use xlink:href="#rim"/>
    <path pointer-events="none" fill="none" stroke="white" stroke-width="1.5" d="M0,-3.0v7 M-2.5,-0.5L0,-3.0L2.5,-0.5"/>
  </g>
  <g id="arrowLeft" transform="rotate(270) translate(-36 17)">
    <use xlink:href="#rim"/>
    <path pointer-events="none" fill="none" stroke="white" stroke-width="1.5" d="M0,-3.0v7 M-2.5,-0.5L0,-3.0L2.5,-0.5"/>
  </g>
  <g id="resetDef">
    <use xlink:href="#rim2" fill="#404040"><set attributeName="fill" to="#808080" begin="reset.mouseover" end="reset.mouseout"/></use>
  </g>
</defs>
<script type="application/ecmascript">
var viewWidth = 837;
var viewHeight = 114;
var sectionId = 'dynsection-17';
</script>
<script type="application/ecmascript" xlink:href="svg.min.js"/>
<svg id="graph" class="graph">
<g id="viewport">
<title>ConsoleRenderer::drawMenu</title>
<!-- Node1 -->
<g id="Node000001" class="node">
<title>Node1</title>
<g id="a_Node000001"><a xlink:title="Draws main menu screen.">
<polygon fill="#999999" stroke="#666666" points="157,-67.5 0,-67.5 0,-48.5 157,-48.5 157,-67.5"/>
<text text-anchor="middle" x="78.5" y="-55.5" font-family="Helvetica,sans-Serif" font-size="10.00">ConsoleRenderer::drawMenu</text>
</a>
</g>
</g>
<!-- Node2 -->
<g id="Node000002" class="node">
<title>Node2</title>
<g id="a_Node000002"><a xlink:href="classConsoleRenderer.html#a9576db66ee7dc8d9fdec36f0181b9a12" target="_top" xlink:title="Checks if terminal size meets requirements.">
<polygon fill="white" stroke="#666666" points="390,-105.5 193,-105.5 193,-86.5 390,-86.5 390,-105.5"/>
<text text-anchor="middle" x="291.5" y="-93.5" font-family="Helvetica,sans-Serif" font-size="10.00">ConsoleRenderer::checkTerminalSize</text>
</a>
</g>
</g>
<!-- Node1&#45;&gt;Node2 -->
<g id="edge1_Node000001_Node000002" class="edge">
<title>Node1&#45;&gt;Node2</title>
<g id="a_edge1_Node000001_Node000002"><a xlink:title=" ">
<path fill="none" stroke="#63b8ff" d="M132.47,-67.54C161.32,-72.73 197.2,-79.2 227.47,-84.65"/>
<polygon fill="#63b8ff" stroke="#63b8ff" points="227.04,-88.13 237.51,-86.46 228.29,-81.24 227.04,-88.13"/>
</a>
</g>
</g>
<!-- Node5 -->
<g id="Node000005" class="node">
<title>Node5</title>
<g id="a_Node000005"><a xlink:href="classConsoleRenderer.html#a041e99f6c0427c254b0349b57fbe2a84" target="_top" xlink:title="Clears the terminal screen.">
<polygon fill="white" stroke="#666666" points="608.5,-64.5 445.5,-64.5 445.5,-45.5 608.5,-45.5 608.5,-64.5"/>
<text text-anchor="middle" x="527" y="-52.5" font-family="Helvetica,sans-Serif" font-size="10.00">ConsoleRenderer::clearScreen</text>
</a>
</g>
</g>
<!-- Node1&#45;&gt;Node5 -->
<g id="edge4_Node000001_Node000005" class="edge">
<title>Node1&#45;&gt;Node5</title>
<g id="a_edge4_Node000001_Node000005"><a xlink:title=" ">
<path fill="none" stroke="#63b8ff" d="M157.02,-57.48C234.45,-56.96 353.42,-56.16 435.22,-55.61"/>
<polygon fill="#63b8ff" stroke="#63b8ff" points="435.28,-59.11 445.26,-55.54 435.23,-52.11 435.28,-59.11"/>
</a>
</g>
</g>
<!-- Node7 -->
<g id="Node000007" class="node">
<title>Node7</title>
<g id="a_Node000007"><a xlink:href="classConsoleRenderer.html#af59760cefd8647cf4b6fe34774cac2c1" target="_top" xlink:title="Draws an error message about terminal size.">
<polygon fill="white" stroke="#666666" points="368,-30 215,-30 215,0 368,0 368,-30"/>
<text text-anchor="start" x="223" y="-18" font-family="Helvetica,sans-Serif" font-size="10.00">ConsoleRenderer::drawError</text>
<text text-anchor="middle" x="291.5" y="-7" font-family="Helvetica,sans-Serif" font-size="10.00">Message</text>
</a>
</g>
</g>
<!-- Node1&#45;&gt;Node7 -->
<g id="edge6_Node000001_Node000007" class="edge">
<title>Node1&#45;&gt;Node7</title>
<g id="a_edge6_Node000001_Node000007"><a xlink:title=" ">
<path fill="none" stroke="#63b8ff" d="M126.33,-48.46C150.01,-43.63 179.47,-37.63 206.88,-32.04"/>
<polygon fill="#63b8ff" stroke="#63b8ff" points="207.76,-35.43 216.86,-30.01 206.37,-28.57 207.76,-35.43"/>
</a>
</g>
</g>
<!-- Node3 -->
<g id="Node000003" class="node">
<title>Node3</title>
<g id="a_Node000003"><a xlink:href="classConsoleRenderer.html#aae418386985b5ad1286af9cb8a7726c9" target="_top" xlink:title="Updates terminal size information.">
<polygon fill="white" stroke="#666666" points="628,-105.5 426,-105.5 426,-86.5 628,-86.5 628,-105.5"/>
<text text-anchor="middle" x="527" y="-93.5" font-family="Helvetica,sans-Serif" font-size="10.00">ConsoleRenderer::updateTerminalSize</text>
</a>
</g>
</g>
<!-- Node2&#45;&gt;Node3 -->
<g id="edge2_Node000002_Node000003" class="edge">
<title>Node2&#45;&gt;Node3</title>
<g id="a_edge2_Node000002_Node000003"><a xlink:title=" ">
<path fill="none" stroke="#63b8ff" d="M390.17,-96C398.52,-96 407.01,-96 415.45,-96"/>
<polygon fill="#63b8ff" stroke="#63b8ff" points="415.72,-99.5 425.72,-96 415.72,-92.5 415.72,-99.5"/>
</a>
</g>
</g>
<!-- Node4 -->
<g id="Node000004" class="node">
<title>Node4</title>
<g id="a_Node000004"><a xlink:href="classPlatformUtils.html#a9fb2159f36325087d8c93e7937d6da0b" target="_top" xlink:title="Gets current terminal dimensions.">
<polygon fill="white" stroke="#666666" points="829,-105.5 664,-105.5 664,-86.5 829,-86.5 829,-105.5"/>
<text text-anchor="middle" x="746.5" y="-93.5" font-family="Helvetica,sans-Serif" font-size="10.00">PlatformUtils::getTerminalSize</text>
</a>
</g>
</g>
<!-- Node3&#45;&gt;Node4 -->
<g id="edge3_Node000003_Node000004" class="edge">
<title>Node3&#45;&gt;Node4</title>
<g id="a_edge3_Node000003_Node000004"><a xlink:title=" ">
<path fill="none" stroke="#63b8ff" d="M628.16,-96C636.64,-96 645.19,-96 653.6,-96"/>
<polygon fill="#63b8ff" stroke="#63b8ff" points="653.78,-99.5 663.78,-96 653.78,-92.5 653.78,-99.5"/>
</a>
</g>
</g>
<!-- Node6 -->
<g id="Node000006" class="node">
<title>Node6</title>
<g id="a_Node000006"><a xlink:href="classPlatformUtils.html#acddd420e3f04cd70a8932b5472fce01d" target="_top" xlink:title="Clears the terminal screen.">
<polygon fill="white" stroke="#666666" points="818.5,-64.5 674.5,-64.5 674.5,-45.5 818.5,-45.5 818.5,-64.5"/>
<text text-anchor="middle" x="746.5" y="-52.5" font-family="Helvetica,sans-Serif" font-size="10.00">PlatformUtils::clearScreen</text>
</a>
</g>
</g>
<!-- Node5&#45;&gt;Node6 -->
<g id="edge5_Node000005_Node000006" class="edge">
<title>Node5&#45;&gt;Node6</title>
<g id="a_edge5_Node000005_Node000006"><a xlink:title=" ">
<path fill="none" stroke="#63b8ff" d="M608.68,-55C626.75,-55 645.94,-55 664.04,-55"/>
<polygon fill="#63b8ff" stroke="#63b8ff" points="664.26,-58.5 674.26,-55 664.26,-51.5 664.26,-58.5"/>
</a>
</g>
</g>
<!-- Node7&#45;&gt;Node5 -->
<g id="edge7_Node000007_Node000005" class="edge">
<title>Node7&#45;&gt;Node5</title>
<g id="a_edge7_Node000007_Node000005"><a xlink:title=" ">
<path fill="none" stroke="#63b8ff" d="M368.31,-27.99C398.09,-33.09 431.94,-38.89 460.62,-43.8"/>
<polygon fill="#63b8ff" stroke="#63b8ff" points="460.09,-47.26 470.54,-45.5 461.27,-40.36 460.09,-47.26"/>
</a>
</g>
</g>
<!-- Node8 -->
<g id="Node000008" class="node">
<title>Node8</title>
<g id="a_Node000008"><a xlink:href="classConsoleRenderer.html#a71e694cb8e3ecdd88b44a78b339a3963" target="_top" xlink:title="Draws centered text within specified width.">
<polygon fill="white" stroke="#666666" points="624,-24.5 430,-24.5 430,-5.5 624,-5.5 624,-24.5"/>
<text text-anchor="middle" x="527" y="-12.5" font-family="Helvetica,sans-Serif" font-size="10.00">ConsoleRenderer::drawCenteredText</text>
</a>
</g>
</g>
<!-- Node7&#45;&gt;Node8 -->
<g id="edge8_Node000007_Node000008" class="edge">
<title>Node7&#45;&gt;Node8</title>
<g id="a_edge8_Node000007_Node000008"><a xlink:title=" ">
<path fill="none" stroke="#63b8ff" d="M368.31,-15C384.67,-15 402.27,-15 419.56,-15"/>
<polygon fill="#63b8ff" stroke="#63b8ff" points="419.69,-18.5 429.69,-15 419.69,-11.5 419.69,-18.5"/>
</a>
</g>
</g>
</g>
</svg>

<g id="navigator" transform="translate(0 0)" fill="#404254">
  <rect fill="#f2f5e9" fill-opacity="0.5" stroke="#606060" stroke-width=".5" x="0" y="0" width="60" height="60"/>
  <use id="zoomplus" xlink:href="#zoomPlus" x="17" y="9" onmousedown="handleZoom(evt,'in')"/>
  <use id="zoomminus" xlink:href="#zoomMin" x="42" y="9" onmousedown="handleZoom(evt,'out')"/>
  <use id="reset" xlink:href="#resetDef" x="30" y="36" onmousedown="handleReset()"/>
   <use id="arrowup" xlink:href="#arrowUp" x="0" y="0" onmousedown="handlePan(0,-1)"/>
  <use id="arrowright" xlink:href="#arrowRight" x="0" y="0" onmousedown="handlePan(1,0)"/>
  <use id="arrowdown" xlink:href="#arrowDown" x="0" y="0" onmousedown="handlePan(0,1)"/>
  <use id="arrowleft" xlink:href="#arrowLeft" x="0" y="0" onmousedown="handlePan(-1,0)"/>
</g>
<svg viewBox="0 0 15 15" width="100%" height="30px" preserveAspectRatio="xMaxYMin meet">
 <g id="arrow_out" transform="scale(0.3 0.3)">
  <a xlink:href="classConsoleRenderer_aa9273ce964dc1492d66a30b772213e81_cgraph_org.svg" target="_base">
   <rect id="button" ry="5" rx="5" y="6" x="6" height="38" width="38"
        fill="#f2f5e9" fill-opacity="0.5" stroke="#606060" stroke-width="1.0"/>
   <path id="arrow"
     d="M 11.500037,31.436501 C 11.940474,20.09759 22.043105,11.32322 32.158766,21.979434 L 37.068811,17.246167 C 37.068811,17.246167 37.088388,32 37.088388,32 L 22.160133,31.978069 C 22.160133,31.978069 26.997745,27.140456 26.997745,27.140456 C 18.528582,18.264221 13.291696,25.230495 11.500037,31.436501 z"
     style="fill:#404040;"/>
  </a>
 </g>
</svg>

<style type='text/css'>
<![CDATA[
[data-mouse-over-selected='false'] { opacity: 0.7; }
[data-mouse-over-selected='true']  { opacity: 1.0; }
]]>
</style>
<script type="application/ecmascript"><![CDATA[
document.addEventListener('DOMContentLoaded', (event) => {
  highlightEdges();
  highlightAdjacentNodes();
});
]]></script>
</svg>
