<?xml version="1.0" encoding="UTF-8" standalone="no"?>
<!DOCTYPE svg PUBLIC "-//W3C//DTD SVG 1.1//EN"
 "http://www.w3.org/Graphics/SVG/1.1/DTD/svg11.dtd">
<!-- Generated by graphviz version 2.43.0 (0)
 -->
<!-- Title: PlayerTank::update Pages: 1 -->
<svg width="263pt" height="64pt"
 viewBox="0.00 0.00 263.00 64.00" xmlns="http://www.w3.org/2000/svg" xmlns:xlink="http://www.w3.org/1999/xlink">
<g id="graph0" class="graph" transform="scale(1 1) rotate(0) translate(4 60)">
<title>PlayerTank::update</title>
<!-- Node1 -->
<g id="Node000001" class="node">
<title>Node1</title>
<g id="a_Node000001"><a xlink:title="Updates player tank state.">
<polygon fill="#999999" stroke="#666666" points="110,-37 0,-37 0,-18 110,-18 110,-37"/>
<text text-anchor="middle" x="55" y="-25" font-family="Helvetica,sans-Serif" font-size="10.00">PlayerTank::update</text>
</a>
</g>
</g>
<!-- Node2 -->
<g id="Node000002" class="node">
<title>Node2</title>
<g id="a_Node000002"><a xlink:href="classTank.html#aeeed7bc06ef4c9f60bb74b4b80eb22dd" target="_top" xlink:title="Decrements reload timer.">
<polygon fill="white" stroke="#666666" points="238.5,-56 162.5,-56 162.5,-37 238.5,-37 238.5,-56"/>
<text text-anchor="middle" x="200.5" y="-44" font-family="Helvetica,sans-Serif" font-size="10.00">Tank::reload</text>
</a>
</g>
</g>
<!-- Node1&#45;&gt;Node2 -->
<g id="edge1_Node000001_Node000002" class="edge">
<title>Node1&#45;&gt;Node2</title>
<g id="a_edge1_Node000001_Node000002"><a xlink:title=" ">
<path fill="none" stroke="#63b8ff" d="M110.25,-34.68C124.04,-36.51 138.74,-38.46 152.16,-40.23"/>
<polygon fill="#63b8ff" stroke="#63b8ff" points="151.75,-43.71 162.13,-41.55 152.67,-36.77 151.75,-43.71"/>
</a>
</g>
</g>
<!-- Node3 -->
<g id="Node000003" class="node">
<title>Node3</title>
<g id="a_Node000003"><a xlink:href="classTank.html#a699d319d640cf416e673687d443e1917" target="_top" xlink:title="Updates bonus effect durations.">
<polygon fill="white" stroke="#666666" points="255,-19 146,-19 146,0 255,0 255,-19"/>
<text text-anchor="middle" x="200.5" y="-7" font-family="Helvetica,sans-Serif" font-size="10.00">Tank::updateBonus</text>
</a>
</g>
</g>
<!-- Node1&#45;&gt;Node3 -->
<g id="edge2_Node000001_Node000003" class="edge">
<title>Node1&#45;&gt;Node3</title>
<g id="a_edge2_Node000001_Node000003"><a xlink:title=" ">
<path fill="none" stroke="#63b8ff" d="M110.25,-20.69C118.49,-19.66 127.06,-18.59 135.48,-17.53"/>
<polygon fill="#63b8ff" stroke="#63b8ff" points="136.16,-20.97 145.65,-16.25 135.29,-14.03 136.16,-20.97"/>
</a>
</g>
</g>
</g>
</svg>
