<?xml version="1.0" encoding="UTF-8" standalone="no"?>
<!DOCTYPE svg PUBLIC "-//W3C//DTD SVG 1.1//EN"
 "http://www.w3.org/Graphics/SVG/1.1/DTD/svg11.dtd">
<!-- Generated by graphviz version 2.43.0 (0)
 -->
<!-- Title: ConsoleRenderer::drawSymbolLegend Pages: 1 -->
<svg width="726pt" height="140pt"
 viewBox="0.00 0.00 726.00 140.00" xmlns="http://www.w3.org/2000/svg" xmlns:xlink="http://www.w3.org/1999/xlink">
<g id="graph0" class="graph" transform="scale(1 1) rotate(0) translate(4 136)">
<title>ConsoleRenderer::drawSymbolLegend</title>
<!-- Node1 -->
<g id="Node000001" class="node">
<title>Node1</title>
<g id="a_Node000001"><a xlink:title="Draws symbol legend explaining game symbols.">
<polygon fill="#999999" stroke="#666666" points="167,-81.5 0,-81.5 0,-51.5 167,-51.5 167,-81.5"/>
<text text-anchor="start" x="8" y="-69.5" font-family="Helvetica,sans-Serif" font-size="10.00">ConsoleRenderer::drawSymbol</text>
<text text-anchor="middle" x="83.5" y="-58.5" font-family="Helvetica,sans-Serif" font-size="10.00">Legend</text>
</a>
</g>
</g>
<!-- Node2 -->
<g id="Node000002" class="node">
<title>Node2</title>
<g id="a_Node000002"><a xlink:href="ConsoleRenderer_8cpp.html#a279be60aa96dcc35cae7933c2617f6d6" target="_top" xlink:title=" ">
<polygon fill="white" stroke="#666666" points="335.5,-132 239.5,-132 239.5,-113 335.5,-113 335.5,-132"/>
<text text-anchor="middle" x="287.5" y="-120" font-family="Helvetica,sans-Serif" font-size="10.00">getGraphicsMap</text>
</a>
</g>
</g>
<!-- Node1&#45;&gt;Node2 -->
<g id="edge1_Node000001_Node000002" class="edge">
<title>Node1&#45;&gt;Node2</title>
<g id="a_edge1_Node000001_Node000002"><a xlink:title=" ">
<path fill="none" stroke="#63b8ff" d="M127.81,-81.52C150.12,-88.96 177.85,-97.77 203,-104.5 211.54,-106.78 220.62,-108.98 229.54,-111"/>
<polygon fill="#63b8ff" stroke="#63b8ff" points="228.97,-114.46 239.49,-113.21 230.49,-107.63 228.97,-114.46"/>
</a>
</g>
</g>
<!-- Node3 -->
<g id="Node000003" class="node">
<title>Node3</title>
<g id="a_Node000003"><a xlink:href="classConsoleRenderer.html#a39097953ecd72be19860424c9d00b0ea" target="_top" xlink:title="Resets terminal color to default.">
<polygon fill="white" stroke="#666666" points="365.5,-95 209.5,-95 209.5,-76 365.5,-76 365.5,-95"/>
<text text-anchor="middle" x="287.5" y="-83" font-family="Helvetica,sans-Serif" font-size="10.00">ConsoleRenderer::resetColor</text>
</a>
</g>
</g>
<!-- Node1&#45;&gt;Node3 -->
<g id="edge2_Node000001_Node000003" class="edge">
<title>Node1&#45;&gt;Node3</title>
<g id="a_edge2_Node000001_Node000003"><a xlink:title=" ">
<path fill="none" stroke="#63b8ff" d="M167.24,-74.28C177.81,-75.28 188.66,-76.3 199.29,-77.3"/>
<polygon fill="#63b8ff" stroke="#63b8ff" points="199.13,-80.8 209.41,-78.25 199.78,-73.83 199.13,-80.8"/>
</a>
</g>
</g>
<!-- Node6 -->
<g id="Node000006" class="node">
<title>Node6</title>
<g id="a_Node000006"><a xlink:href="classConsoleRenderer.html#af06444dbf726424a13127fd4f3a70a8d" target="_top" xlink:title="Sets terminal text color.">
<polygon fill="white" stroke="#666666" points="554,-57 408,-57 408,-38 554,-38 554,-57"/>
<text text-anchor="middle" x="481" y="-45" font-family="Helvetica,sans-Serif" font-size="10.00">ConsoleRenderer::setColor</text>
</a>
</g>
</g>
<!-- Node1&#45;&gt;Node6 -->
<g id="edge5_Node000001_Node000006" class="edge">
<title>Node1&#45;&gt;Node6</title>
<g id="a_edge5_Node000001_Node000006"><a xlink:title=" ">
<path fill="none" stroke="#63b8ff" d="M167.41,-62.52C235.06,-59.27 330.15,-54.7 397.65,-51.46"/>
<polygon fill="#63b8ff" stroke="#63b8ff" points="398,-54.94 407.82,-50.97 397.67,-47.95 398,-54.94"/>
</a>
</g>
</g>
<!-- Node7 -->
<g id="Node000007" class="node">
<title>Node7</title>
<g id="a_Node000007"><a xlink:href="classPlatformUtils.html#a964fb97fe6351330adbcf813a9706eb6" target="_top" xlink:title="Checks if terminal supports Unicode.">
<polygon fill="white" stroke="#666666" points="372,-19 203,-19 203,0 372,0 372,-19"/>
<text text-anchor="middle" x="287.5" y="-7" font-family="Helvetica,sans-Serif" font-size="10.00">PlatformUtils::supportsUnicode</text>
</a>
</g>
</g>
<!-- Node1&#45;&gt;Node7 -->
<g id="edge7_Node000001_Node000007" class="edge">
<title>Node1&#45;&gt;Node7</title>
<g id="a_edge7_Node000001_Node000007"><a xlink:title=" ">
<path fill="none" stroke="#63b8ff" d="M137.84,-51.45C170.5,-42.23 211.79,-30.58 242.56,-21.9"/>
<polygon fill="#63b8ff" stroke="#63b8ff" points="243.89,-25.16 252.56,-19.08 241.99,-18.42 243.89,-25.16"/>
</a>
</g>
</g>
<!-- Node4 -->
<g id="Node000004" class="node">
<title>Node4</title>
<g id="a_Node000004"><a xlink:href="classPlatformUtils.html#ae3607ef4c4fbee33349ec982eda7bf07" target="_top" xlink:title="Resets terminal color to default.">
<polygon fill="white" stroke="#666666" points="549.5,-94 412.5,-94 412.5,-75 549.5,-75 549.5,-94"/>
<text text-anchor="middle" x="481" y="-82" font-family="Helvetica,sans-Serif" font-size="10.00">PlatformUtils::resetColor</text>
</a>
</g>
</g>
<!-- Node3&#45;&gt;Node4 -->
<g id="edge3_Node000003_Node000004" class="edge">
<title>Node3&#45;&gt;Node4</title>
<g id="a_edge3_Node000003_Node000004"><a xlink:title=" ">
<path fill="none" stroke="#63b8ff" d="M365.56,-85.1C377.66,-85.03 390.17,-84.97 402.29,-84.91"/>
<polygon fill="#63b8ff" stroke="#63b8ff" points="402.37,-88.41 412.35,-84.85 402.33,-81.41 402.37,-88.41"/>
</a>
</g>
</g>
<!-- Node5 -->
<g id="Node000005" class="node">
<title>Node5</title>
<g id="a_Node000005"><a xlink:href="classPlatformUtils.html#a48de38e18726881bbe61e398ebabb97e" target="_top" xlink:title="Sets terminal text color.">
<polygon fill="white" stroke="#666666" points="718,-75 590,-75 590,-56 718,-56 718,-75"/>
<text text-anchor="middle" x="654" y="-63" font-family="Helvetica,sans-Serif" font-size="10.00">PlatformUtils::setColor</text>
</a>
</g>
</g>
<!-- Node4&#45;&gt;Node5 -->
<g id="edge4_Node000004_Node000005" class="edge">
<title>Node4&#45;&gt;Node5</title>
<g id="a_edge4_Node000004_Node000005"><a xlink:title=" ">
<path fill="none" stroke="#63b8ff" d="M549.58,-76.99C559.53,-75.89 569.81,-74.74 579.85,-73.63"/>
<polygon fill="#63b8ff" stroke="#63b8ff" points="580.25,-77.1 589.8,-72.52 579.48,-70.15 580.25,-77.1"/>
</a>
</g>
</g>
<!-- Node6&#45;&gt;Node5 -->
<g id="edge6_Node000006_Node000005" class="edge">
<title>Node6&#45;&gt;Node5</title>
<g id="a_edge6_Node000006_Node000005"><a xlink:title=" ">
<path fill="none" stroke="#63b8ff" d="M554.02,-55.08C562.46,-55.97 571.08,-56.88 579.53,-57.77"/>
<polygon fill="#63b8ff" stroke="#63b8ff" points="579.43,-61.28 589.74,-58.84 580.16,-54.31 579.43,-61.28"/>
</a>
</g>
</g>
</g>
</svg>
