<?xml version="1.0" encoding="UTF-8" standalone="no"?>
<!DOCTYPE svg PUBLIC "-//W3C//DTD SVG 1.1//EN"
 "http://www.w3.org/Graphics/SVG/1.1/DTD/svg11.dtd">
<!-- Generated by graphviz version 2.43.0 (0)
 -->
<!-- Title: GameWorld::playerMove Pages: 1 -->
<svg width="715pt" height="323pt"
 viewBox="0.00 0.00 715.00 323.00" xmlns="http://www.w3.org/2000/svg" xmlns:xlink="http://www.w3.org/1999/xlink">
<g id="graph0" class="graph" transform="scale(1 1) rotate(0) translate(4 319)">
<title>GameWorld::playerMove</title>
<!-- Node1 -->
<g id="Node000001" class="node">
<title>Node1</title>
<g id="a_Node000001"><a xlink:title="Moves player tank in specified direction.">
<polygon fill="#999999" stroke="#666666" points="137,-167 0,-167 0,-148 137,-148 137,-167"/>
<text text-anchor="middle" x="68.5" y="-155" font-family="Helvetica,sans-Serif" font-size="10.00">GameWorld::playerMove</text>
</a>
</g>
</g>
<!-- Node2 -->
<g id="Node000002" class="node">
<title>Node2</title>
<g id="a_Node000002"><a xlink:href="classPlayerTank.html#a34ecaf7829cc7b3e4965afa9ef6c25f0" target="_top" xlink:title="Adds points to player&#39;s score.">
<polygon fill="white" stroke="#666666" points="324.5,-315 203.5,-315 203.5,-296 324.5,-296 324.5,-315"/>
<text text-anchor="middle" x="264" y="-303" font-family="Helvetica,sans-Serif" font-size="10.00">PlayerTank::addScore</text>
</a>
</g>
</g>
<!-- Node1&#45;&gt;Node2 -->
<g id="edge1_Node000001_Node000002" class="edge">
<title>Node1&#45;&gt;Node2</title>
<g id="a_edge1_Node000001_Node000002"><a xlink:title=" ">
<path fill="none" stroke="#63b8ff" d="M74.18,-167.25C86.52,-191.86 122.52,-256.69 173,-287.5 179.27,-291.32 186.19,-294.35 193.33,-296.75"/>
<polygon fill="#63b8ff" stroke="#63b8ff" points="192.59,-300.18 203.17,-299.65 194.56,-293.47 192.59,-300.18"/>
</a>
</g>
</g>
<!-- Node3 -->
<g id="Node000003" class="node">
<title>Node3</title>
<g id="a_Node000003"><a xlink:href="classGameWorld.html#aa547d7890c6acf2e8ee3014a52d741b9" target="_top" xlink:title="Applies slow effect to all enemies.">
<polygon fill="white" stroke="#666666" points="355,-278 173,-278 173,-259 355,-259 355,-278"/>
<text text-anchor="middle" x="264" y="-266" font-family="Helvetica,sans-Serif" font-size="10.00">GameWorld::applySlowToEnemies</text>
</a>
</g>
</g>
<!-- Node1&#45;&gt;Node3 -->
<g id="edge2_Node000001_Node000003" class="edge">
<title>Node1&#45;&gt;Node3</title>
<g id="a_edge2_Node000001_Node000003"><a xlink:title=" ">
<path fill="none" stroke="#63b8ff" d="M77.16,-167.23C92.88,-186.48 130.89,-229.39 173,-250.5 176.85,-252.43 180.88,-254.15 185.02,-255.69"/>
<polygon fill="#63b8ff" stroke="#63b8ff" points="184.25,-259.12 194.85,-258.95 186.46,-252.48 184.25,-259.12"/>
</a>
</g>
</g>
<!-- Node7 -->
<g id="Node000007" class="node">
<title>Node7</title>
<g id="a_Node000007"><a xlink:href="classPlayerTank.html#acbcf8a59c3335592fbde3532a1504ba1" target="_top" xlink:title="Gets the bounding dimensions of the player tank.">
<polygon fill="white" stroke="#666666" points="328,-241 200,-241 200,-222 328,-222 328,-241"/>
<text text-anchor="middle" x="264" y="-229" font-family="Helvetica,sans-Serif" font-size="10.00">PlayerTank::getBounds</text>
</a>
</g>
</g>
<!-- Node1&#45;&gt;Node7 -->
<g id="edge6_Node000001_Node000007" class="edge">
<title>Node1&#45;&gt;Node7</title>
<g id="a_edge6_Node000001_Node000007"><a xlink:title=" ">
<path fill="none" stroke="#63b8ff" d="M83.93,-167.12C103.36,-179.64 139.37,-201.35 173,-213.5 179.24,-215.76 185.84,-217.75 192.5,-219.52"/>
<polygon fill="#63b8ff" stroke="#63b8ff" points="191.74,-222.93 202.29,-221.94 193.42,-216.14 191.74,-222.93"/>
</a>
</g>
</g>
<!-- Node8 -->
<g id="Node000008" class="node">
<title>Node8</title>
<g id="a_Node000008"><a xlink:href="classGameObject.html#aa4dd19d6b0ea5701d860b64b08435ae6" target="_top" xlink:title="Gets current position of the object.">
<polygon fill="white" stroke="#666666" points="333,-204 195,-204 195,-185 333,-185 333,-204"/>
<text text-anchor="middle" x="264" y="-192" font-family="Helvetica,sans-Serif" font-size="10.00">GameObject::getPosition</text>
</a>
</g>
</g>
<!-- Node1&#45;&gt;Node8 -->
<g id="edge7_Node000001_Node000008" class="edge">
<title>Node1&#45;&gt;Node8</title>
<g id="a_edge7_Node000001_Node000008"><a xlink:title=" ">
<path fill="none" stroke="#63b8ff" d="M119.33,-167.03C144.85,-171.91 176.11,-177.89 202.95,-183.02"/>
<polygon fill="#63b8ff" stroke="#63b8ff" points="202.52,-186.5 213,-184.94 203.84,-179.62 202.52,-186.5"/>
</a>
</g>
</g>
<!-- Node9 -->
<g id="Node000009" class="node">
<title>Node9</title>
<g id="a_Node000009"><a xlink:href="classGameObject.html#a23fa2f0e3e39338c02e99966bde20a34" target="_top" xlink:title="Gets movement speed of the object.">
<polygon fill="white" stroke="#666666" points="328.5,-167 199.5,-167 199.5,-148 328.5,-148 328.5,-167"/>
<text text-anchor="middle" x="264" y="-155" font-family="Helvetica,sans-Serif" font-size="10.00">GameObject::getSpeed</text>
</a>
</g>
</g>
<!-- Node1&#45;&gt;Node9 -->
<g id="edge8_Node000001_Node000009" class="edge">
<title>Node1&#45;&gt;Node9</title>
<g id="a_edge8_Node000001_Node000009"><a xlink:title=" ">
<path fill="none" stroke="#63b8ff" d="M137.18,-157.5C153.87,-157.5 171.84,-157.5 188.83,-157.5"/>
<polygon fill="#63b8ff" stroke="#63b8ff" points="189.26,-161 199.26,-157.5 189.26,-154 189.26,-161"/>
</a>
</g>
</g>
<!-- Node10 -->
<g id="Node000010" class="node">
<title>Node10</title>
<g id="a_Node000010"><a xlink:href="classTank.html#afe2dfb3536ff83c98132d2cd505cda61" target="_top" xlink:title="Gets remaining speed boost duration.">
<polygon fill="white" stroke="#666666" points="344.5,-130 183.5,-130 183.5,-111 344.5,-111 344.5,-130"/>
<text text-anchor="middle" x="264" y="-118" font-family="Helvetica,sans-Serif" font-size="10.00">Tank::getSpeedBoostDuration</text>
</a>
</g>
</g>
<!-- Node1&#45;&gt;Node10 -->
<g id="edge9_Node000001_Node000010" class="edge">
<title>Node1&#45;&gt;Node10</title>
<g id="a_edge9_Node000001_Node000010"><a xlink:title=" ">
<path fill="none" stroke="#63b8ff" d="M119.33,-147.97C144.85,-143.09 176.11,-137.11 202.95,-131.98"/>
<polygon fill="#63b8ff" stroke="#63b8ff" points="203.84,-135.38 213,-130.06 202.52,-128.5 203.84,-135.38"/>
</a>
</g>
</g>
<!-- Node11 -->
<g id="Node000011" class="node">
<title>Node11</title>
<g id="a_Node000011"><a xlink:href="classGameWorld.html#a44dd38e9393e523caefeac7448cfc18c" target="_top" xlink:title="Checks if position is valid.">
<polygon fill="white" stroke="#666666" points="339.5,-93 188.5,-93 188.5,-74 339.5,-74 339.5,-93"/>
<text text-anchor="middle" x="264" y="-81" font-family="Helvetica,sans-Serif" font-size="10.00">GameWorld::isValidPosition</text>
</a>
</g>
</g>
<!-- Node1&#45;&gt;Node11 -->
<g id="edge10_Node000001_Node000011" class="edge">
<title>Node1&#45;&gt;Node11</title>
<g id="a_edge10_Node000001_Node000011"><a xlink:title=" ">
<path fill="none" stroke="#63b8ff" d="M83.93,-147.88C103.36,-135.36 139.37,-113.65 173,-101.5 179.24,-99.24 185.84,-97.25 192.5,-95.48"/>
<polygon fill="#63b8ff" stroke="#63b8ff" points="193.42,-98.86 202.29,-93.06 191.74,-92.07 193.42,-98.86"/>
</a>
</g>
</g>
<!-- Node13 -->
<g id="Node000013" class="node">
<title>Node13</title>
<g id="a_Node000013"><a xlink:href="classGameObject.html#a4bc41ca14c07e61dafa74a03c4f3e2df" target="_top" xlink:title="Rotates the object to face new direction.">
<polygon fill="white" stroke="#666666" points="320.5,-56 207.5,-56 207.5,-37 320.5,-37 320.5,-56"/>
<text text-anchor="middle" x="264" y="-44" font-family="Helvetica,sans-Serif" font-size="10.00">GameObject::rotate</text>
</a>
</g>
</g>
<!-- Node1&#45;&gt;Node13 -->
<g id="edge12_Node000001_Node000013" class="edge">
<title>Node1&#45;&gt;Node13</title>
<g id="a_edge12_Node000001_Node000013"><a xlink:title=" ">
<path fill="none" stroke="#63b8ff" d="M77.16,-147.77C92.88,-128.52 130.89,-85.61 173,-64.5 180.58,-60.7 188.89,-57.7 197.31,-55.34"/>
<polygon fill="#63b8ff" stroke="#63b8ff" points="198.36,-58.68 207.2,-52.84 196.64,-51.9 198.36,-58.68"/>
</a>
</g>
</g>
<!-- Node14 -->
<g id="Node000014" class="node">
<title>Node14</title>
<g id="a_Node000014"><a xlink:href="classGameObject.html#a8e1f77d21a8ed8a894ae29f0e4126618" target="_top" xlink:title="Sets new position for the object.">
<polygon fill="white" stroke="#666666" points="332.5,-19 195.5,-19 195.5,0 332.5,0 332.5,-19"/>
<text text-anchor="middle" x="264" y="-7" font-family="Helvetica,sans-Serif" font-size="10.00">GameObject::setPosition</text>
</a>
</g>
</g>
<!-- Node1&#45;&gt;Node14 -->
<g id="edge13_Node000001_Node000014" class="edge">
<title>Node1&#45;&gt;Node14</title>
<g id="a_edge13_Node000001_Node000014"><a xlink:title=" ">
<path fill="none" stroke="#63b8ff" d="M74.18,-147.75C86.52,-123.14 122.52,-58.31 173,-27.5 176.93,-25.1 181.12,-23.01 185.47,-21.2"/>
<polygon fill="#63b8ff" stroke="#63b8ff" points="186.98,-24.37 195.17,-17.65 184.58,-17.8 186.98,-24.37"/>
</a>
</g>
</g>
<!-- Node4 -->
<g id="Node000004" class="node">
<title>Node4</title>
<g id="a_Node000004"><a xlink:href="classEnemyTank.html#ac30fc0d640fb804d2e382603b424faa7" target="_top" xlink:title="Applies slow effect to enemy tank.">
<polygon fill="white" stroke="#666666" points="548,-296 391,-296 391,-277 548,-277 548,-296"/>
<text text-anchor="middle" x="469.5" y="-284" font-family="Helvetica,sans-Serif" font-size="10.00">EnemyTank::applySlowEffect</text>
</a>
</g>
</g>
<!-- Node3&#45;&gt;Node4 -->
<g id="edge3_Node000003_Node000004" class="edge">
<title>Node3&#45;&gt;Node4</title>
<g id="a_edge3_Node000003_Node000004"><a xlink:title=" ">
<path fill="none" stroke="#63b8ff" d="M355.15,-276.47C363.61,-277.22 372.19,-277.98 380.63,-278.73"/>
<polygon fill="#63b8ff" stroke="#63b8ff" points="380.58,-282.24 390.85,-279.63 381.2,-275.26 380.58,-282.24"/>
</a>
</g>
</g>
<!-- Node6 -->
<g id="Node000006" class="node">
<title>Node6</title>
<g id="a_Node000006"><a xlink:href="classGameObject.html#a51ac0947e5c628f04657cafecc9fe36b" target="_top" xlink:title="Checks if object is destroyed.">
<polygon fill="white" stroke="#666666" points="540.5,-259 398.5,-259 398.5,-240 540.5,-240 540.5,-259"/>
<text text-anchor="middle" x="469.5" y="-247" font-family="Helvetica,sans-Serif" font-size="10.00">GameObject::isDestroyed</text>
</a>
</g>
</g>
<!-- Node3&#45;&gt;Node6 -->
<g id="edge5_Node000003_Node000006" class="edge">
<title>Node3&#45;&gt;Node6</title>
<g id="a_edge5_Node000003_Node000006"><a xlink:title=" ">
<path fill="none" stroke="#63b8ff" d="M355.15,-260.08C366.1,-259.06 377.24,-258.02 388.05,-257.01"/>
<polygon fill="#63b8ff" stroke="#63b8ff" points="388.65,-260.47 398.28,-256.06 388,-253.5 388.65,-260.47"/>
</a>
</g>
</g>
<!-- Node5 -->
<g id="Node000005" class="node">
<title>Node5</title>
<g id="a_Node000005"><a xlink:href="classTank.html#ad2c4d964485d2fa5b948f92ae0a76250" target="_top" xlink:title="Applies slow effect to the tank.">
<polygon fill="white" stroke="#666666" points="707,-296 584,-296 584,-277 707,-277 707,-296"/>
<text text-anchor="middle" x="645.5" y="-284" font-family="Helvetica,sans-Serif" font-size="10.00">Tank::applySlowEffect</text>
</a>
</g>
</g>
<!-- Node4&#45;&gt;Node5 -->
<g id="edge4_Node000004_Node000005" class="edge">
<title>Node4&#45;&gt;Node5</title>
<g id="a_edge4_Node000004_Node000005"><a xlink:title=" ">
<path fill="none" stroke="#63b8ff" d="M548.09,-286.5C556.59,-286.5 565.22,-286.5 573.63,-286.5"/>
<polygon fill="#63b8ff" stroke="#63b8ff" points="573.77,-290 583.77,-286.5 573.77,-283 573.77,-290"/>
</a>
</g>
</g>
<!-- Node12 -->
<g id="Node000012" class="node">
<title>Node12</title>
<g id="a_Node000012"><a xlink:href="classObstacle.html#aa1936373d282c8dba39f529526b6143d" target="_top" xlink:title="Checks if obstacle is passable for tanks.">
<polygon fill="white" stroke="#666666" points="527.5,-93 411.5,-93 411.5,-74 527.5,-74 527.5,-93"/>
<text text-anchor="middle" x="469.5" y="-81" font-family="Helvetica,sans-Serif" font-size="10.00">Obstacle::isPassable</text>
</a>
</g>
</g>
<!-- Node11&#45;&gt;Node12 -->
<g id="edge11_Node000011_Node000012" class="edge">
<title>Node11&#45;&gt;Node12</title>
<g id="a_edge11_Node000011_Node000012"><a xlink:title=" ">
<path fill="none" stroke="#63b8ff" d="M339.62,-83.5C359.81,-83.5 381.54,-83.5 401.29,-83.5"/>
<polygon fill="#63b8ff" stroke="#63b8ff" points="401.42,-87 411.42,-83.5 401.42,-80 401.42,-87"/>
</a>
</g>
</g>
</g>
</svg>
