<?xml version="1.0" encoding="UTF-8" standalone="no"?>
<!DOCTYPE svg PUBLIC "-//W3C//DTD SVG 1.1//EN"
 "http://www.w3.org/Graphics/SVG/1.1/DTD/svg11.dtd">
<!-- Generated by graphviz version 2.43.0 (0)
 -->
<!-- Title: GameWorld::applySlowToEnemies Pages: 1 -->
<svg width="542pt" height="64pt"
 viewBox="0.00 0.00 542.00 64.00" xmlns="http://www.w3.org/2000/svg" xmlns:xlink="http://www.w3.org/1999/xlink">
<g id="graph0" class="graph" transform="scale(1 1) rotate(0) translate(4 60)">
<title>GameWorld::applySlowToEnemies</title>
<!-- Node1 -->
<g id="Node000001" class="node">
<title>Node1</title>
<g id="a_Node000001"><a xlink:title="Applies slow effect to all enemies.">
<polygon fill="#999999" stroke="#666666" points="182,-37 0,-37 0,-18 182,-18 182,-37"/>
<text text-anchor="middle" x="91" y="-25" font-family="Helvetica,sans-Serif" font-size="10.00">GameWorld::applySlowToEnemies</text>
</a>
</g>
</g>
<!-- Node2 -->
<g id="Node000002" class="node">
<title>Node2</title>
<g id="a_Node000002"><a xlink:href="classEnemyTank.html#ac30fc0d640fb804d2e382603b424faa7" target="_top" xlink:title="Applies slow effect to enemy tank.">
<polygon fill="white" stroke="#666666" points="375,-56 218,-56 218,-37 375,-37 375,-56"/>
<text text-anchor="middle" x="296.5" y="-44" font-family="Helvetica,sans-Serif" font-size="10.00">EnemyTank::applySlowEffect</text>
</a>
</g>
</g>
<!-- Node1&#45;&gt;Node2 -->
<g id="edge1_Node000001_Node000002" class="edge">
<title>Node1&#45;&gt;Node2</title>
<g id="a_edge1_Node000001_Node000002"><a xlink:title=" ">
<path fill="none" stroke="#63b8ff" d="M182.15,-35.92C190.61,-36.71 199.19,-37.51 207.63,-38.3"/>
<polygon fill="#63b8ff" stroke="#63b8ff" points="207.57,-41.81 217.85,-39.25 208.22,-34.84 207.57,-41.81"/>
</a>
</g>
</g>
<!-- Node4 -->
<g id="Node000004" class="node">
<title>Node4</title>
<g id="a_Node000004"><a xlink:href="classGameObject.html#a51ac0947e5c628f04657cafecc9fe36b" target="_top" xlink:title="Checks if object is destroyed.">
<polygon fill="white" stroke="#666666" points="367.5,-19 225.5,-19 225.5,0 367.5,0 367.5,-19"/>
<text text-anchor="middle" x="296.5" y="-7" font-family="Helvetica,sans-Serif" font-size="10.00">GameObject::isDestroyed</text>
</a>
</g>
</g>
<!-- Node1&#45;&gt;Node4 -->
<g id="edge3_Node000001_Node000004" class="edge">
<title>Node1&#45;&gt;Node4</title>
<g id="a_edge3_Node000001_Node000004"><a xlink:title=" ">
<path fill="none" stroke="#63b8ff" d="M182.15,-19.53C193.1,-18.56 204.24,-17.57 215.05,-16.62"/>
<polygon fill="#63b8ff" stroke="#63b8ff" points="215.63,-20.08 225.28,-15.71 215.01,-13.11 215.63,-20.08"/>
</a>
</g>
</g>
<!-- Node3 -->
<g id="Node000003" class="node">
<title>Node3</title>
<g id="a_Node000003"><a xlink:href="classTank.html#ad2c4d964485d2fa5b948f92ae0a76250" target="_top" xlink:title="Applies slow effect to the tank.">
<polygon fill="white" stroke="#666666" points="534,-56 411,-56 411,-37 534,-37 534,-56"/>
<text text-anchor="middle" x="472.5" y="-44" font-family="Helvetica,sans-Serif" font-size="10.00">Tank::applySlowEffect</text>
</a>
</g>
</g>
<!-- Node2&#45;&gt;Node3 -->
<g id="edge2_Node000002_Node000003" class="edge">
<title>Node2&#45;&gt;Node3</title>
<g id="a_edge2_Node000002_Node000003"><a xlink:title=" ">
<path fill="none" stroke="#63b8ff" d="M375.09,-46.5C383.59,-46.5 392.22,-46.5 400.63,-46.5"/>
<polygon fill="#63b8ff" stroke="#63b8ff" points="400.77,-50 410.77,-46.5 400.77,-43 400.77,-50"/>
</a>
</g>
</g>
</g>
</svg>
