<?xml version="1.0" encoding="UTF-8" standalone="no"?>
<!DOCTYPE svg PUBLIC "-//W3C//DTD SVG 1.1//EN"
 "http://www.w3.org/Graphics/SVG/1.1/DTD/svg11.dtd">
<!-- Generated by graphviz version 2.43.0 (0)
 -->
<!-- Title: PlatformUtils::clearScreen Pages: 1 -->
<svg width="2104pt" height="702pt"
 viewBox="0.00 0.00 2104.00 701.96" xmlns="http://www.w3.org/2000/svg" xmlns:xlink="http://www.w3.org/1999/xlink">
<g id="graph0" class="graph" transform="scale(1 1) rotate(0) translate(4 697.96)">
<title>PlatformUtils::clearScreen</title>
<!-- Node1 -->
<g id="Node000001" class="node">
<title>Node1</title>
<g id="a_Node000001"><a xlink:title="Clears the terminal screen.">
<polygon fill="#999999" stroke="#666666" points="2096,-166.5 1952,-166.5 1952,-147.5 2096,-147.5 2096,-166.5"/>
<text text-anchor="middle" x="2024" y="-154.5" font-family="Helvetica,sans-Serif" font-size="10.00">PlatformUtils::clearScreen</text>
</a>
</g>
</g>
<!-- Node2 -->
<g id="Node000002" class="node">
<title>Node2</title>
<g id="a_Node000002"><a xlink:href="classConsoleRenderer.html#a041e99f6c0427c254b0349b57fbe2a84" target="_top" xlink:title="Clears the terminal screen.">
<polygon fill="white" stroke="#666666" points="1916,-323.5 1753,-323.5 1753,-304.5 1916,-304.5 1916,-323.5"/>
<text text-anchor="middle" x="1834.5" y="-311.5" font-family="Helvetica,sans-Serif" font-size="10.00">ConsoleRenderer::clearScreen</text>
</a>
</g>
</g>
<!-- Node1&#45;&gt;Node2 -->
<g id="edge1_Node000001_Node000002" class="edge">
<title>Node1&#45;&gt;Node2</title>
<g id="a_edge1_Node000001_Node000002"><a xlink:title=" ">
<path fill="none" stroke="#63b8ff" d="M2003.61,-173.24C1964.82,-205.72 1878.71,-277.82 1847.28,-304.14"/>
<polygon fill="#63b8ff" stroke="#63b8ff" points="2006.13,-175.69 2011.55,-166.58 2001.64,-170.32 2006.13,-175.69"/>
</a>
</g>
</g>
<!-- Node22 -->
<g id="Node000022" class="node">
<title>Node22</title>
<g id="a_Node000022"><a xlink:href="classPlatformUtils.html#a706d468490e5e97ebfcdd6e4cf68b860" target="_top" xlink:title="Displays message about required terminal size.">
<polygon fill="white" stroke="#666666" points="424,-182 279,-182 279,-152 424,-152 424,-182"/>
<text text-anchor="start" x="287" y="-170" font-family="Helvetica,sans-Serif" font-size="10.00">PlatformUtils::showResize</text>
<text text-anchor="middle" x="351.5" y="-159" font-family="Helvetica,sans-Serif" font-size="10.00">Message</text>
</a>
</g>
</g>
<!-- Node1&#45;&gt;Node22 -->
<g id="edge54_Node000001_Node000022" class="edge">
<title>Node1&#45;&gt;Node22</title>
<g id="a_edge54_Node000001_Node000022"><a xlink:title=" ">
<path fill="none" stroke="#63b8ff" d="M2001.49,-141.63C1943.98,-102.11 1780.69,0 1628.5,0 1628.5,0 1628.5,0 783,0 615.85,0 435.41,-110.78 374.2,-151.89"/>
<polygon fill="#63b8ff" stroke="#63b8ff" points="1999.59,-144.57 2009.79,-147.42 2003.59,-138.83 1999.59,-144.57"/>
</a>
</g>
</g>
<!-- Node3 -->
<g id="Node000003" class="node">
<title>Node3</title>
<g id="a_Node000003"><a xlink:href="classConsoleRenderer.html#af59760cefd8647cf4b6fe34774cac2c1" target="_top" xlink:title="Draws an error message about terminal size.">
<polygon fill="white" stroke="#666666" points="1704,-410 1551,-410 1551,-380 1704,-380 1704,-410"/>
<text text-anchor="start" x="1559" y="-398" font-family="Helvetica,sans-Serif" font-size="10.00">ConsoleRenderer::drawError</text>
<text text-anchor="middle" x="1627.5" y="-387" font-family="Helvetica,sans-Serif" font-size="10.00">Message</text>
</a>
</g>
</g>
<!-- Node2&#45;&gt;Node3 -->
<g id="edge2_Node000002_Node000003" class="edge">
<title>Node2&#45;&gt;Node3</title>
<g id="a_edge2_Node000002_Node000003"><a xlink:title=" ">
<path fill="none" stroke="#63b8ff" d="M1804.23,-328.08C1780.88,-339.06 1747.2,-354.35 1717,-366 1704.33,-370.89 1690.44,-375.69 1677.51,-379.94"/>
<polygon fill="#63b8ff" stroke="#63b8ff" points="1806.02,-331.1 1813.56,-323.66 1803.03,-324.77 1806.02,-331.1"/>
</a>
</g>
</g>
<!-- Node4 -->
<g id="Node000004" class="node">
<title>Node4</title>
<g id="a_Node000004"><a xlink:href="classConsoleRenderer.html#a38306106200aabcfd90f6fe0552e18ea" target="_top" xlink:title="Draws game over screen.">
<polygon fill="white" stroke="#666666" points="1502,-609.5 1320,-609.5 1320,-590.5 1502,-590.5 1502,-609.5"/>
<text text-anchor="middle" x="1411" y="-597.5" font-family="Helvetica,sans-Serif" font-size="10.00">ConsoleRenderer::drawGameOver</text>
</a>
</g>
</g>
<!-- Node2&#45;&gt;Node4 -->
<g id="edge38_Node000002_Node000004" class="edge">
<title>Node2&#45;&gt;Node4</title>
<g id="a_edge38_Node000002_Node000004"><a xlink:title=" ">
<path fill="none" stroke="#63b8ff" d="M1831.44,-333.67C1825.02,-383.88 1800.52,-516.94 1717,-576 1638.94,-631.2 1519.86,-620.64 1456.04,-609.5"/>
<polygon fill="#63b8ff" stroke="#63b8ff" points="1834.94,-333.86 1832.63,-323.52 1827.99,-333.05 1834.94,-333.86"/>
</a>
</g>
</g>
<!-- Node5 -->
<g id="Node000005" class="node">
<title>Node5</title>
<g id="a_Node000005"><a xlink:href="classGameController.html#af2367e58f03d8a1441c9a574967fd360" target="_top" xlink:title="Processes a single game turn/update cycle.">
<polygon fill="white" stroke="#666666" points="445,-399.5 258,-399.5 258,-380.5 445,-380.5 445,-399.5"/>
<text text-anchor="middle" x="351.5" y="-387.5" font-family="Helvetica,sans-Serif" font-size="10.00">GameController::processGameTurn</text>
</a>
</g>
</g>
<!-- Node2&#45;&gt;Node5 -->
<g id="edge46_Node000002_Node000005" class="edge">
<title>Node2&#45;&gt;Node5</title>
<g id="a_edge46_Node000002_Node000005"><a xlink:title=" ">
<path fill="none" stroke="#63b8ff" d="M1832.51,-333.61C1828.61,-388.07 1809.52,-541.74 1717,-611 1608.06,-692.56 1548.09,-638 1412,-638 1412,-638 1412,-638 783,-638 645.7,-638 595.44,-648.85 481,-573 412.07,-527.32 368.89,-430.97 356.32,-399.89"/>
<polygon fill="#63b8ff" stroke="#63b8ff" points="1836.01,-333.76 1833.14,-323.56 1829.02,-333.32 1836.01,-333.76"/>
</a>
</g>
</g>
<!-- Node6 -->
<g id="Node000006" class="node">
<title>Node6</title>
<g id="a_Node000006"><a xlink:href="classGameController.html#ac958989c8f7f08488546930e5fcb0d82" target="_top" xlink:title="Starts and runs the main game loop.">
<polygon fill="white" stroke="#666666" points="222,-219.5 77,-219.5 77,-200.5 222,-200.5 222,-219.5"/>
<text text-anchor="middle" x="149.5" y="-207.5" font-family="Helvetica,sans-Serif" font-size="10.00">GameController::runGame</text>
</a>
</g>
</g>
<!-- Node2&#45;&gt;Node6 -->
<g id="edge47_Node000002_Node000006" class="edge">
<title>Node2&#45;&gt;Node6</title>
<g id="a_edge47_Node000002_Node000006"><a xlink:title=" ">
<path fill="none" stroke="#63b8ff" d="M1833.4,-333.92C1831.9,-392.87 1818.7,-567.33 1717,-647 1609.81,-730.97 1548.17,-676 1412,-676 1412,-676 1412,-676 574,-676 318.19,-676 176.19,-286.65 153.68,-219.73"/>
<polygon fill="#63b8ff" stroke="#63b8ff" points="1836.9,-333.78 1833.56,-323.73 1829.9,-333.67 1836.9,-333.78"/>
</a>
</g>
</g>
<!-- Node8 -->
<g id="Node000008" class="node">
<title>Node8</title>
<g id="a_Node000008"><a xlink:href="classConsoleRenderer.html#a8c9ea938ec7728f1f3436a0a9d944cf2" target="_top" xlink:title="Draws level completion screen.">
<polygon fill="white" stroke="#666666" points="1489,-534 1333,-534 1333,-504 1489,-504 1489,-534"/>
<text text-anchor="start" x="1341" y="-522" font-family="Helvetica,sans-Serif" font-size="10.00">ConsoleRenderer::drawLevel</text>
<text text-anchor="middle" x="1411" y="-511" font-family="Helvetica,sans-Serif" font-size="10.00">Complete</text>
</a>
</g>
</g>
<!-- Node2&#45;&gt;Node8 -->
<g id="edge39_Node000002_Node000008" class="edge">
<title>Node2&#45;&gt;Node8</title>
<g id="a_edge39_Node000002_Node000008"><a xlink:title=" ">
<path fill="none" stroke="#63b8ff" d="M1827.01,-333.61C1813.38,-371.33 1777.91,-453.45 1717,-490 1648.13,-531.32 1554.39,-533.99 1489.08,-529.22"/>
<polygon fill="#63b8ff" stroke="#63b8ff" points="1830.43,-334.42 1830.41,-323.83 1823.82,-332.13 1830.43,-334.42"/>
</a>
</g>
</g>
<!-- Node9 -->
<g id="Node000009" class="node">
<title>Node9</title>
<g id="a_Node000009"><a xlink:href="classGameController.html#a85bcf4ecfd197aad278e116215a3717b" target="_top" xlink:title="Displays level completion screen.">
<polygon fill="white" stroke="#666666" points="860,-382 708,-382 708,-352 860,-352 860,-382"/>
<text text-anchor="start" x="716" y="-370" font-family="Helvetica,sans-Serif" font-size="10.00">GameController::showLevel</text>
<text text-anchor="middle" x="784" y="-359" font-family="Helvetica,sans-Serif" font-size="10.00">CompleteScreen</text>
</a>
</g>
</g>
<!-- Node2&#45;&gt;Node9 -->
<g id="edge48_Node000002_Node000009" class="edge">
<title>Node2&#45;&gt;Node9</title>
<g id="a_edge48_Node000002_Node000009"><a xlink:title=" ">
<path fill="none" stroke="#63b8ff" d="M1829.19,-333.47C1818.58,-376.34 1786.79,-478.65 1717,-524 1636.56,-576.27 1597.83,-538.77 1502,-543 1232.41,-554.89 1138.2,-596.9 899,-472 855.35,-449.21 815.85,-405.35 796.88,-382.18"/>
<polygon fill="#63b8ff" stroke="#63b8ff" points="1832.61,-334.24 1831.49,-323.7 1825.79,-332.63 1832.61,-334.24"/>
</a>
</g>
</g>
<!-- Node10 -->
<g id="Node000010" class="node">
<title>Node10</title>
<g id="a_Node000010"><a xlink:href="classConsoleRenderer.html#afd03640670c991dfa8240af639c2f0da" target="_top" xlink:title="Draws map selection screen.">
<polygon fill="white" stroke="#666666" points="1486.5,-372 1335.5,-372 1335.5,-342 1486.5,-342 1486.5,-372"/>
<text text-anchor="start" x="1343.5" y="-360" font-family="Helvetica,sans-Serif" font-size="10.00">ConsoleRenderer::drawMap</text>
<text text-anchor="middle" x="1411" y="-349" font-family="Helvetica,sans-Serif" font-size="10.00">Selection</text>
</a>
</g>
</g>
<!-- Node2&#45;&gt;Node10 -->
<g id="edge40_Node000002_Node000010" class="edge">
<title>Node2&#45;&gt;Node10</title>
<g id="a_edge40_Node000002_Node000010"><a xlink:title=" ">
<path fill="none" stroke="#63b8ff" d="M1746.22,-324.73C1736.37,-325.87 1726.47,-326.98 1717,-328 1638.47,-336.45 1548.41,-344.86 1486.63,-350.42"/>
<polygon fill="#63b8ff" stroke="#63b8ff" points="1746.92,-328.17 1756.45,-323.53 1746.11,-321.22 1746.92,-328.17"/>
</a>
</g>
</g>
<!-- Node11 -->
<g id="Node000011" class="node">
<title>Node11</title>
<g id="a_Node000011"><a xlink:href="classGameController.html#a4a9c94fe33cf6c73bb5dfc415d04d309" target="_top" xlink:title="Displays map selection screen.">
<polygon fill="white" stroke="#666666" points="1284,-295.5 1093,-295.5 1093,-276.5 1284,-276.5 1284,-295.5"/>
<text text-anchor="middle" x="1188.5" y="-283.5" font-family="Helvetica,sans-Serif" font-size="10.00">GameController::showMapSelection</text>
</a>
</g>
</g>
<!-- Node2&#45;&gt;Node11 -->
<g id="edge49_Node000002_Node000011" class="edge">
<title>Node2&#45;&gt;Node11</title>
<g id="a_edge49_Node000002_Node000011"><a xlink:title=" ">
<path fill="none" stroke="#63b8ff" d="M1742.97,-311.08C1640.36,-307.64 1468.11,-301.42 1320,-294 1308.44,-293.42 1296.3,-292.75 1284.28,-292.06"/>
<polygon fill="#63b8ff" stroke="#63b8ff" points="1742.87,-314.58 1752.98,-311.42 1743.11,-307.59 1742.87,-314.58"/>
</a>
</g>
</g>
<!-- Node13 -->
<g id="Node000013" class="node">
<title>Node13</title>
<g id="a_Node000013"><a xlink:href="classGameController.html#a9d11b5a6255b7249bddba49df0837cf3" target="_top" xlink:title="Displays and manages the main menu.">
<polygon fill="white" stroke="#666666" points="1054,-238.5 902,-238.5 902,-219.5 1054,-219.5 1054,-238.5"/>
<text text-anchor="middle" x="978" y="-226.5" font-family="Helvetica,sans-Serif" font-size="10.00">GameController::showMenu</text>
</a>
</g>
</g>
<!-- Node2&#45;&gt;Node13 -->
<g id="edge50_Node000002_Node000013" class="edge">
<title>Node2&#45;&gt;Node13</title>
<g id="a_edge50_Node000002_Node000013"><a xlink:title=" ">
<path fill="none" stroke="#63b8ff" d="M1829.95,-294.17C1820.69,-249.13 1791.19,-139.57 1717,-95 1675.98,-70.36 1197.82,-68.8 1093,-115 1041.01,-137.92 999.79,-196.17 984.95,-219.31"/>
<polygon fill="#63b8ff" stroke="#63b8ff" points="1826.54,-295 1831.88,-304.15 1833.42,-293.67 1826.54,-295"/>
</a>
</g>
</g>
<!-- Node14 -->
<g id="Node000014" class="node">
<title>Node14</title>
<g id="a_Node000014"><a xlink:href="classGameController.html#a637ea4e72ed2be4a2884b30160b3e8ab" target="_top" xlink:title="Pauses the game and displays pause screen.">
<polygon fill="white" stroke="#666666" points="863,-181.5 705,-181.5 705,-162.5 863,-162.5 863,-181.5"/>
<text text-anchor="middle" x="784" y="-169.5" font-family="Helvetica,sans-Serif" font-size="10.00">GameController::pauseGame</text>
</a>
</g>
</g>
<!-- Node2&#45;&gt;Node14 -->
<g id="edge45_Node000002_Node000014" class="edge">
<title>Node2&#45;&gt;Node14</title>
<g id="a_edge45_Node000002_Node000014"><a xlink:title=" ">
<path fill="none" stroke="#63b8ff" d="M1830.37,-294.35C1821.79,-247.54 1793.24,-129.31 1717,-75 1605.78,4.23 1548.55,-38 1412,-38 1412,-38 1412,-38 1187.5,-38 1029.89,-38 854.52,-131.64 801.22,-162.36"/>
<polygon fill="#63b8ff" stroke="#63b8ff" points="1826.96,-295.13 1832.1,-304.4 1833.86,-293.95 1826.96,-295.13"/>
</a>
</g>
</g>
<!-- Node15 -->
<g id="Node000015" class="node">
<title>Node15</title>
<g id="a_Node000015"><a xlink:href="classConsoleRenderer.html#aa9273ce964dc1492d66a30b772213e81" target="_top" xlink:title="Draws main menu screen.">
<polygon fill="white" stroke="#666666" points="1489.5,-285.5 1332.5,-285.5 1332.5,-266.5 1489.5,-266.5 1489.5,-285.5"/>
<text text-anchor="middle" x="1411" y="-273.5" font-family="Helvetica,sans-Serif" font-size="10.00">ConsoleRenderer::drawMenu</text>
</a>
</g>
</g>
<!-- Node2&#45;&gt;Node15 -->
<g id="edge41_Node000002_Node000015" class="edge">
<title>Node2&#45;&gt;Node15</title>
<g id="a_edge41_Node000002_Node000015"><a xlink:title=" ">
<path fill="none" stroke="#63b8ff" d="M1748.06,-303.32C1737.6,-302.14 1727.06,-301 1717,-300 1639.83,-292.33 1551.48,-285.6 1489.8,-281.24"/>
<polygon fill="#63b8ff" stroke="#63b8ff" points="1747.7,-306.81 1758.03,-304.47 1748.5,-299.85 1747.7,-306.81"/>
</a>
</g>
</g>
<!-- Node16 -->
<g id="Node000016" class="node">
<title>Node16</title>
<g id="a_Node000016"><a xlink:href="classConsoleRenderer.html#a678f6e7177b2d466b8953d4f01bb7436" target="_top" xlink:title="Draws pause screen.">
<polygon fill="white" stroke="#666666" points="1057,-423 899,-423 899,-393 1057,-393 1057,-423"/>
<text text-anchor="start" x="907" y="-411" font-family="Helvetica,sans-Serif" font-size="10.00">ConsoleRenderer::drawPause</text>
<text text-anchor="middle" x="978" y="-400" font-family="Helvetica,sans-Serif" font-size="10.00">Screen</text>
</a>
</g>
</g>
<!-- Node2&#45;&gt;Node16 -->
<g id="edge42_Node000002_Node000016" class="edge">
<title>Node2&#45;&gt;Node16</title>
<g id="a_edge42_Node000002_Node000016"><a xlink:title=" ">
<path fill="none" stroke="#63b8ff" d="M1820.57,-332.03C1801.33,-357.14 1762.5,-401.52 1717,-419 1479.26,-510.33 1165.84,-453.22 1037.55,-423.11"/>
<polygon fill="#63b8ff" stroke="#63b8ff" points="1823.59,-333.85 1826.75,-323.74 1817.97,-329.67 1823.59,-333.85"/>
</a>
</g>
</g>
<!-- Node17 -->
<g id="Node000017" class="node">
<title>Node17</title>
<g id="a_Node000017"><a xlink:href="classConsoleRenderer.html#a0e17aa687bd8d7381b2bf8425b2a9709" target="_top" xlink:title="Draws settings screen.">
<polygon fill="white" stroke="#666666" points="1496,-199.5 1326,-199.5 1326,-180.5 1496,-180.5 1496,-199.5"/>
<text text-anchor="middle" x="1411" y="-187.5" font-family="Helvetica,sans-Serif" font-size="10.00">ConsoleRenderer::drawSettings</text>
</a>
</g>
</g>
<!-- Node2&#45;&gt;Node17 -->
<g id="edge43_Node000002_Node000017" class="edge">
<title>Node2&#45;&gt;Node17</title>
<g id="a_edge43_Node000002_Node000017"><a xlink:title=" ">
<path fill="none" stroke="#63b8ff" d="M1811.77,-298.49C1789.16,-283.1 1752.21,-259.99 1717,-247 1644.98,-220.44 1558.63,-205.79 1496.23,-198.01"/>
<polygon fill="#63b8ff" stroke="#63b8ff" points="1810.04,-301.55 1820.26,-304.37 1814.03,-295.8 1810.04,-301.55"/>
</a>
</g>
</g>
<!-- Node18 -->
<g id="Node000018" class="node">
<title>Node18</title>
<g id="a_Node000018"><a xlink:href="classGameController.html#a24f5cae258418d4a5934e6f412c28945" target="_top" xlink:title="Displays and manages the settings menu.">
<polygon fill="white" stroke="#666666" points="1271,-143.5 1106,-143.5 1106,-124.5 1271,-124.5 1271,-143.5"/>
<text text-anchor="middle" x="1188.5" y="-131.5" font-family="Helvetica,sans-Serif" font-size="10.00">GameController::showSettings</text>
</a>
</g>
</g>
<!-- Node2&#45;&gt;Node18 -->
<g id="edge51_Node000002_Node000018" class="edge">
<title>Node2&#45;&gt;Node18</title>
<g id="a_edge51_Node000002_Node000018"><a xlink:title=" ">
<path fill="none" stroke="#63b8ff" d="M1821.12,-296.04C1802.07,-270 1762.95,-222.44 1717,-200 1640.29,-162.53 1398.97,-144.75 1271.02,-137.77"/>
<polygon fill="#63b8ff" stroke="#63b8ff" points="1818.33,-298.16 1826.99,-304.27 1824.03,-294.1 1818.33,-298.16"/>
</a>
</g>
</g>
<!-- Node19 -->
<g id="Node000019" class="node">
<title>Node19</title>
<g id="a_Node000019"><a xlink:href="classGameController.html#a19dc0995b5ee51a87bf49dff90f4e991" target="_top" xlink:title="Handles terminal resize events.">
<polygon fill="white" stroke="#666666" points="1498.5,-248 1323.5,-248 1323.5,-218 1498.5,-218 1498.5,-248"/>
<text text-anchor="start" x="1331.5" y="-236" font-family="Helvetica,sans-Serif" font-size="10.00">GameController::handleTerminal</text>
<text text-anchor="middle" x="1411" y="-225" font-family="Helvetica,sans-Serif" font-size="10.00">Resize</text>
</a>
</g>
</g>
<!-- Node2&#45;&gt;Node19 -->
<g id="edge44_Node000002_Node000019" class="edge">
<title>Node2&#45;&gt;Node19</title>
<g id="a_edge44_Node000002_Node000019"><a xlink:title=" ">
<path fill="none" stroke="#63b8ff" d="M1792.33,-301.51C1770.15,-295.09 1742.24,-287.48 1717,-282 1643.89,-266.13 1559.89,-253.01 1498.58,-244.35"/>
<polygon fill="#63b8ff" stroke="#63b8ff" points="1791.5,-304.92 1802.08,-304.37 1793.47,-298.2 1791.5,-304.92"/>
</a>
</g>
</g>
<!-- Node21 -->
<g id="Node000021" class="node">
<title>Node21</title>
<g id="a_Node000021"><a xlink:href="classGameController.html#a47c26eedd973ec104d31a7c96b60d658" target="_top" xlink:title="Toggles between advanced and symbolic graphics modes.">
<polygon fill="white" stroke="#666666" points="1717,-134 1538,-134 1538,-104 1717,-104 1717,-134"/>
<text text-anchor="start" x="1546" y="-122" font-family="Helvetica,sans-Serif" font-size="10.00">GameController::toggleAdvanced</text>
<text text-anchor="middle" x="1627.5" y="-111" font-family="Helvetica,sans-Serif" font-size="10.00">Graphics</text>
</a>
</g>
</g>
<!-- Node2&#45;&gt;Node21 -->
<g id="edge52_Node000002_Node000021" class="edge">
<title>Node2&#45;&gt;Node21</title>
<g id="a_edge52_Node000002_Node000021"><a xlink:title=" ">
<path fill="none" stroke="#63b8ff" d="M1825.06,-294.7C1809.01,-260.21 1770.83,-187.9 1717,-148 1709.47,-142.42 1700.8,-137.87 1691.91,-134.19"/>
<polygon fill="#63b8ff" stroke="#63b8ff" points="1822.01,-296.45 1829.32,-304.11 1828.38,-293.56 1822.01,-296.45"/>
</a>
</g>
</g>
<!-- Node3&#45;&gt;Node4 -->
<g id="edge3_Node000003_Node000004" class="edge">
<title>Node3&#45;&gt;Node4</title>
<g id="a_edge3_Node000003_Node000004"><a xlink:title=" ">
<path fill="none" stroke="#63b8ff" d="M1610.19,-418.6C1588.06,-449.53 1546.19,-504.4 1502,-543 1479.57,-562.59 1449.76,-580.08 1430.72,-590.37"/>
<polygon fill="#63b8ff" stroke="#63b8ff" points="1613.23,-420.36 1616.15,-410.17 1607.52,-416.32 1613.23,-420.36"/>
</a>
</g>
</g>
<!-- Node3&#45;&gt;Node8 -->
<g id="edge7_Node000003_Node000008" class="edge">
<title>Node3&#45;&gt;Node8</title>
<g id="a_edge7_Node000003_Node000008"><a xlink:title=" ">
<path fill="none" stroke="#63b8ff" d="M1591.49,-415.24C1548.52,-440.08 1476.65,-481.63 1438.18,-503.86"/>
<polygon fill="#63b8ff" stroke="#63b8ff" points="1593.29,-418.24 1600.2,-410.2 1589.79,-412.18 1593.29,-418.24"/>
</a>
</g>
</g>
<!-- Node3&#45;&gt;Node10 -->
<g id="edge10_Node000003_Node000010" class="edge">
<title>Node3&#45;&gt;Node10</title>
<g id="a_edge10_Node000003_Node000010"><a xlink:title=" ">
<path fill="none" stroke="#63b8ff" d="M1540.98,-379.85C1522.98,-376.66 1504.14,-373.32 1486.58,-370.21"/>
<polygon fill="#63b8ff" stroke="#63b8ff" points="1540.42,-383.3 1550.88,-381.6 1541.64,-376.41 1540.42,-383.3"/>
</a>
</g>
</g>
<!-- Node3&#45;&gt;Node15 -->
<g id="edge21_Node000003_Node000015" class="edge">
<title>Node3&#45;&gt;Node15</title>
<g id="a_edge21_Node000003_Node000015"><a xlink:title=" ">
<path fill="none" stroke="#63b8ff" d="M1590.46,-375C1543.78,-349.11 1464.27,-305 1429.33,-285.62"/>
<polygon fill="#63b8ff" stroke="#63b8ff" points="1588.89,-378.14 1599.33,-379.93 1592.29,-372.02 1588.89,-378.14"/>
</a>
</g>
</g>
<!-- Node3&#45;&gt;Node16 -->
<g id="edge23_Node000003_Node000016" class="edge">
<title>Node3&#45;&gt;Node16</title>
<g id="a_edge23_Node000003_Node000016"><a xlink:title=" ">
<path fill="none" stroke="#63b8ff" d="M1540.92,-396.72C1414.37,-399.26 1179.17,-403.98 1057.08,-406.43"/>
<polygon fill="#63b8ff" stroke="#63b8ff" points="1541.03,-400.22 1550.96,-396.52 1540.89,-393.22 1541.03,-400.22"/>
</a>
</g>
</g>
<!-- Node3&#45;&gt;Node17 -->
<g id="edge26_Node000003_Node000017" class="edge">
<title>Node3&#45;&gt;Node17</title>
<g id="a_edge26_Node000003_Node000017"><a xlink:title=" ">
<path fill="none" stroke="#63b8ff" d="M1617.28,-370.41C1600.75,-329.91 1562.09,-249.63 1502,-209 1496.31,-205.15 1489.99,-202.06 1483.42,-199.58"/>
<polygon fill="#63b8ff" stroke="#63b8ff" points="1614.06,-371.79 1621,-379.8 1620.57,-369.21 1614.06,-371.79"/>
</a>
</g>
</g>
<!-- Node3&#45;&gt;Node19 -->
<g id="edge29_Node000003_Node000019" class="edge">
<title>Node3&#45;&gt;Node19</title>
<g id="a_edge29_Node000003_Node000019"><a xlink:title=" ">
<path fill="none" stroke="#63b8ff" d="M1611.7,-371.49C1590.97,-340.53 1550.36,-286.56 1502,-257 1496.34,-253.54 1490.19,-250.58 1483.84,-248.03"/>
<polygon fill="#63b8ff" stroke="#63b8ff" points="1608.83,-373.5 1617.24,-379.94 1614.69,-369.66 1608.83,-373.5"/>
</a>
</g>
</g>
<!-- Node20 -->
<g id="Node000020" class="node">
<title>Node20</title>
<g id="a_Node000020"><a xlink:href="classConsoleRenderer.html#ab34fa7af4ede79de3951f1d5271d7a27" target="_top" xlink:title="Renders the game world to console.">
<polygon fill="white" stroke="#666666" points="643.5,-514.5 506.5,-514.5 506.5,-495.5 643.5,-495.5 643.5,-514.5"/>
<text text-anchor="middle" x="575" y="-502.5" font-family="Helvetica,sans-Serif" font-size="10.00">ConsoleRenderer::render</text>
</a>
</g>
</g>
<!-- Node3&#45;&gt;Node20 -->
<g id="edge36_Node000003_Node000020" class="edge">
<title>Node3&#45;&gt;Node20</title>
<g id="a_edge36_Node000003_Node000020"><a xlink:title=" ">
<path fill="none" stroke="#63b8ff" d="M1540.97,-408.67C1527.93,-410.57 1514.62,-412.42 1502,-414 1181.43,-454.18 796.57,-487.12 643.53,-499.61"/>
<polygon fill="#63b8ff" stroke="#63b8ff" points="1541.5,-412.13 1550.88,-407.2 1540.47,-405.2 1541.5,-412.13"/>
</a>
</g>
</g>
<!-- Node4&#45;&gt;Node5 -->
<g id="edge4_Node000004_Node000005" class="edge">
<title>Node4&#45;&gt;Node5</title>
<g id="a_edge4_Node000004_Node000005"><a xlink:title=" ">
<path fill="none" stroke="#63b8ff" d="M1309.43,-600C1222.09,-600 1092.18,-600 979,-600 979,-600 979,-600 783,-600 644.59,-600 600.67,-593.54 481,-524 423.59,-490.64 375.37,-424.2 358.72,-399.52"/>
<polygon fill="#63b8ff" stroke="#63b8ff" points="1309.61,-603.5 1319.61,-600 1309.61,-596.5 1309.61,-603.5"/>
</a>
</g>
</g>
<!-- Node5&#45;&gt;Node6 -->
<g id="edge5_Node000005_Node000006" class="edge">
<title>Node5&#45;&gt;Node6</title>
<g id="a_edge5_Node000005_Node000006"><a xlink:title=" ">
<path fill="none" stroke="#63b8ff" d="M332.15,-373.48C291.29,-336.71 193.87,-249.03 161.31,-219.73"/>
<polygon fill="#63b8ff" stroke="#63b8ff" points="329.97,-376.23 339.75,-380.32 334.66,-371.03 329.97,-376.23"/>
</a>
</g>
</g>
<!-- Node7 -->
<g id="Node000007" class="node">
<title>Node7</title>
<g id="a_Node000007"><a xlink:href="main_8cpp.html#ae66f6b31b5ad750f1fe042a706a4e3d4" target="_top" xlink:title="Main function that serves as the application entry point.">
<polygon fill="white" stroke="#666666" points="41,-198.5 0,-198.5 0,-179.5 41,-179.5 41,-198.5"/>
<text text-anchor="middle" x="20.5" y="-186.5" font-family="Helvetica,sans-Serif" font-size="10.00">main</text>
</a>
</g>
</g>
<!-- Node6&#45;&gt;Node7 -->
<g id="edge6_Node000006_Node000007" class="edge">
<title>Node6&#45;&gt;Node7</title>
<g id="a_edge6_Node000006_Node000007"><a xlink:title=" ">
<path fill="none" stroke="#63b8ff" d="M80.87,-198.82C66.34,-196.41 52.1,-194.06 41.2,-192.26"/>
<polygon fill="#63b8ff" stroke="#63b8ff" points="80.51,-202.3 90.95,-200.48 81.65,-195.4 80.51,-202.3"/>
</a>
</g>
</g>
<!-- Node8&#45;&gt;Node9 -->
<g id="edge8_Node000008_Node000009" class="edge">
<title>Node8&#45;&gt;Node9</title>
<g id="a_edge8_Node000008_Node000009"><a xlink:title=" ">
<path fill="none" stroke="#63b8ff" d="M1322.79,-515.7C1258.74,-512.15 1169.87,-504.85 1093,-490 1004.64,-472.93 981.74,-467.41 899,-432 865.91,-417.84 830.24,-396.4 807.78,-382.06"/>
<polygon fill="#63b8ff" stroke="#63b8ff" points="1322.68,-519.2 1332.85,-516.24 1323.05,-512.21 1322.68,-519.2"/>
</a>
</g>
</g>
<!-- Node9&#45;&gt;Node5 -->
<g id="edge9_Node000009_Node000005" class="edge">
<title>Node9&#45;&gt;Node5</title>
<g id="a_edge9_Node000009_Node000005"><a xlink:title=" ">
<path fill="none" stroke="#63b8ff" d="M697.45,-371.57C624.55,-375.47 520.01,-381.05 445.15,-385.05"/>
<polygon fill="#63b8ff" stroke="#63b8ff" points="697.72,-375.06 707.52,-371.03 697.35,-368.07 697.72,-375.06"/>
</a>
</g>
</g>
<!-- Node10&#45;&gt;Node11 -->
<g id="edge11_Node000010_Node000011" class="edge">
<title>Node10&#45;&gt;Node11</title>
<g id="a_edge11_Node000010_Node000011"><a xlink:title=" ">
<path fill="none" stroke="#63b8ff" d="M1353.51,-338.81C1310.71,-325.03 1253.6,-306.64 1219.29,-295.59"/>
<polygon fill="#63b8ff" stroke="#63b8ff" points="1352.65,-342.21 1363.24,-341.94 1354.79,-335.55 1352.65,-342.21"/>
</a>
</g>
</g>
<!-- Node12 -->
<g id="Node000012" class="node">
<title>Node12</title>
<g id="a_Node000012"><a xlink:href="classGameController.html#a971b3d8f6296a74f0bebc83b5e79c186" target="_top" xlink:title="Processes a user command.">
<polygon fill="white" stroke="#666666" points="669,-276.5 481,-276.5 481,-257.5 669,-257.5 669,-276.5"/>
<text text-anchor="middle" x="575" y="-264.5" font-family="Helvetica,sans-Serif" font-size="10.00">GameController::processCommand</text>
</a>
</g>
</g>
<!-- Node11&#45;&gt;Node12 -->
<g id="edge12_Node000011_Node000012" class="edge">
<title>Node11&#45;&gt;Node12</title>
<g id="a_edge12_Node000011_Node000012"><a xlink:title=" ">
<path fill="none" stroke="#63b8ff" d="M1082.63,-282.74C966.35,-279.13 780.55,-273.36 669.2,-269.9"/>
<polygon fill="#63b8ff" stroke="#63b8ff" points="1082.85,-286.25 1092.96,-283.06 1083.07,-279.25 1082.85,-286.25"/>
</a>
</g>
</g>
<!-- Node11&#45;&gt;Node13 -->
<g id="edge14_Node000011_Node000013" class="edge">
<title>Node11&#45;&gt;Node13</title>
<g id="a_edge14_Node000011_Node000013"><a xlink:title=" ">
<path fill="none" stroke="#63b8ff" d="M1163.94,-272.97C1144.79,-266.51 1117.09,-259.54 1093,-253 1075.9,-248.35 1057.42,-243.11 1040.43,-238.53"/>
<polygon fill="#63b8ff" stroke="#63b8ff" points="1162.78,-276.27 1173.37,-276.39 1165.17,-269.69 1162.78,-276.27"/>
</a>
</g>
</g>
<!-- Node12&#45;&gt;Node5 -->
<g id="edge13_Node000012_Node000005" class="edge">
<title>Node12&#45;&gt;Node5</title>
<g id="a_edge13_Node000012_Node000005"><a xlink:title=" ">
<path fill="none" stroke="#63b8ff" d="M541.55,-280.82C523.46,-288.82 500.68,-299.38 481,-310 438.22,-333.09 390.16,-364.59 366.8,-380.28"/>
<polygon fill="#63b8ff" stroke="#63b8ff" points="543.31,-283.87 551.06,-276.66 540.5,-277.46 543.31,-283.87"/>
</a>
</g>
</g>
<!-- Node13&#45;&gt;Node6 -->
<g id="edge18_Node000013_Node000006" class="edge">
<title>Node13&#45;&gt;Node6</title>
<g id="a_edge18_Node000013_Node000006"><a xlink:title=" ">
<path fill="none" stroke="#63b8ff" d="M891.83,-227.04C728.52,-223.29 374.12,-215.14 222.1,-211.65"/>
<polygon fill="#63b8ff" stroke="#63b8ff" points="891.75,-230.54 901.83,-227.27 891.91,-223.54 891.75,-230.54"/>
</a>
</g>
</g>
<!-- Node13&#45;&gt;Node9 -->
<g id="edge19_Node000013_Node000009" class="edge">
<title>Node13&#45;&gt;Node9</title>
<g id="a_edge19_Node000013_Node000009"><a xlink:title=" ">
<path fill="none" stroke="#63b8ff" d="M955.35,-244.56C918.22,-271.25 842.88,-325.4 806.12,-351.82"/>
<polygon fill="#63b8ff" stroke="#63b8ff" points="957.42,-247.38 963.5,-238.7 953.34,-241.7 957.42,-247.38"/>
</a>
</g>
</g>
<!-- Node13&#45;&gt;Node11 -->
<g id="edge20_Node000013_Node000011" class="edge">
<title>Node13&#45;&gt;Node11</title>
<g id="a_edge20_Node000013_Node000011"><a xlink:title=" ">
<path fill="none" stroke="#63b8ff" d="M1001.46,-242.53C1024.41,-251.57 1061.1,-262.33 1093,-271 1099.7,-272.82 1106.67,-274.67 1113.67,-276.46"/>
<polygon fill="#63b8ff" stroke="#63b8ff" points="1002.53,-239.18 991.95,-238.5 999.8,-245.62 1002.53,-239.18"/>
</a>
</g>
</g>
<!-- Node13&#45;&gt;Node12 -->
<g id="edge17_Node000013_Node000012" class="edge">
<title>Node13&#45;&gt;Node12</title>
<g id="a_edge17_Node000013_Node000012"><a xlink:title=" ">
<path fill="none" stroke="#63b8ff" d="M891.31,-237.12C825.99,-243.31 736.15,-251.82 669.07,-258.18"/>
<polygon fill="#63b8ff" stroke="#63b8ff" points="891.95,-240.58 901.57,-236.15 891.29,-233.61 891.95,-240.58"/>
</a>
</g>
</g>
<!-- Node13&#45;&gt;Node14 -->
<g id="edge15_Node000013_Node000014" class="edge">
<title>Node13&#45;&gt;Node14</title>
<g id="a_edge15_Node000013_Node000014"><a xlink:title=" ">
<path fill="none" stroke="#63b8ff" d="M934.83,-216.48C899.41,-205.96 849.54,-191.16 817.24,-181.57"/>
<polygon fill="#63b8ff" stroke="#63b8ff" points="934.28,-219.97 944.86,-219.46 936.27,-213.26 934.28,-219.97"/>
</a>
</g>
</g>
<!-- Node14&#45;&gt;Node12 -->
<g id="edge16_Node000014_Node000012" class="edge">
<title>Node14&#45;&gt;Node12</title>
<g id="a_edge16_Node000014_Node000012"><a xlink:title=" ">
<path fill="none" stroke="#63b8ff" d="M752.7,-185.91C710.06,-205.48 633.46,-240.63 596.74,-257.48"/>
<polygon fill="#63b8ff" stroke="#63b8ff" points="754.38,-188.98 762.01,-181.63 751.46,-182.62 754.38,-188.98"/>
</a>
</g>
</g>
<!-- Node15&#45;&gt;Node13 -->
<g id="edge22_Node000015_Node000013" class="edge">
<title>Node15&#45;&gt;Node13</title>
<g id="a_edge22_Node000015_Node000013"><a xlink:title=" ">
<path fill="none" stroke="#63b8ff" d="M1322.05,-266.41C1243.2,-257.81 1128.77,-245.33 1054.12,-237.19"/>
<polygon fill="#63b8ff" stroke="#63b8ff" points="1322.13,-269.94 1332.45,-267.54 1322.89,-262.98 1322.13,-269.94"/>
</a>
</g>
</g>
<!-- Node16&#45;&gt;Node5 -->
<g id="edge25_Node000016_Node000005" class="edge">
<title>Node16&#45;&gt;Node5</title>
<g id="a_edge25_Node000016_Node000005"><a xlink:title=" ">
<path fill="none" stroke="#63b8ff" d="M888.82,-405.46C771.45,-402.08 564.82,-396.12 445.2,-392.67"/>
<polygon fill="#63b8ff" stroke="#63b8ff" points="888.76,-408.96 898.85,-405.75 888.96,-401.96 888.76,-408.96"/>
</a>
</g>
</g>
<!-- Node16&#45;&gt;Node14 -->
<g id="edge24_Node000016_Node000014" class="edge">
<title>Node16&#45;&gt;Node14</title>
<g id="a_edge24_Node000016_Node000014"><a xlink:title=" ">
<path fill="none" stroke="#63b8ff" d="M958.15,-384.83C917.11,-334.38 821.08,-216.35 792.9,-181.72"/>
<polygon fill="#63b8ff" stroke="#63b8ff" points="955.67,-387.33 964.7,-392.88 961.1,-382.91 955.67,-387.33"/>
</a>
</g>
</g>
<!-- Node17&#45;&gt;Node18 -->
<g id="edge27_Node000017_Node000018" class="edge">
<title>Node17&#45;&gt;Node18</title>
<g id="a_edge27_Node000017_Node000018"><a xlink:title=" ">
<path fill="none" stroke="#63b8ff" d="M1362.42,-177.92C1321.86,-167.62 1264.36,-153.01 1227,-143.52"/>
<polygon fill="#63b8ff" stroke="#63b8ff" points="1361.79,-181.37 1372.35,-180.44 1363.51,-174.58 1361.79,-181.37"/>
</a>
</g>
</g>
<!-- Node18&#45;&gt;Node13 -->
<g id="edge28_Node000018_Node000013" class="edge">
<title>Node18&#45;&gt;Node13</title>
<g id="a_edge28_Node000018_Node000013"><a xlink:title=" ">
<path fill="none" stroke="#63b8ff" d="M1157.25,-147.78C1114.36,-167.33 1036.95,-202.6 999.89,-219.48"/>
<polygon fill="#63b8ff" stroke="#63b8ff" points="1158.71,-150.96 1166.36,-143.63 1155.81,-144.59 1158.71,-150.96"/>
</a>
</g>
</g>
<!-- Node19&#45;&gt;Node5 -->
<g id="edge31_Node000019_Node000005" class="edge">
<title>Node19&#45;&gt;Node5</title>
<g id="a_edge31_Node000019_Node000005"><a xlink:title=" ">
<path fill="none" stroke="#63b8ff" d="M1327.47,-252.51C1324.89,-253.91 1322.4,-255.4 1320,-257 1298.12,-271.61 1307.2,-291.59 1284,-304 1224.11,-336.05 1046.92,-324 979,-324 979,-324 979,-324 783,-324 635.74,-324 463.39,-362.2 389.35,-380.47"/>
<polygon fill="#63b8ff" stroke="#63b8ff" points="1329,-255.66 1336.48,-248.15 1325.95,-249.36 1329,-255.66"/>
</a>
</g>
</g>
<!-- Node19&#45;&gt;Node9 -->
<g id="edge32_Node000019_Node000009" class="edge">
<title>Node19&#45;&gt;Node9</title>
<g id="a_edge32_Node000019_Node000009"><a xlink:title=" ">
<path fill="none" stroke="#63b8ff" d="M1324.75,-253.31C1323.11,-254.47 1321.52,-255.7 1320,-257 1290.04,-282.58 1316.4,-315.58 1284,-338 1217.37,-384.11 982.4,-378.38 860.16,-371.9"/>
<polygon fill="#63b8ff" stroke="#63b8ff" points="1326.66,-256.24 1333.34,-248.02 1322.99,-250.28 1326.66,-256.24"/>
</a>
</g>
</g>
<!-- Node19&#45;&gt;Node11 -->
<g id="edge33_Node000019_Node000011" class="edge">
<title>Node19&#45;&gt;Node11</title>
<g id="a_edge33_Node000019_Node000011"><a xlink:title=" ">
<path fill="none" stroke="#63b8ff" d="M1337.43,-250.44C1301.44,-259.09 1259.37,-269.21 1229.31,-276.43"/>
<polygon fill="#63b8ff" stroke="#63b8ff" points="1338.5,-253.79 1347.4,-248.05 1336.86,-246.98 1338.5,-253.79"/>
</a>
</g>
</g>
<!-- Node19&#45;&gt;Node13 -->
<g id="edge34_Node000019_Node000013" class="edge">
<title>Node19&#45;&gt;Node13</title>
<g id="a_edge34_Node000019_Node000013"><a xlink:title=" ">
<path fill="none" stroke="#63b8ff" d="M1312.93,-232.1C1234.56,-231.37 1125.87,-230.36 1054.05,-229.7"/>
<polygon fill="#63b8ff" stroke="#63b8ff" points="1313.27,-235.6 1323.3,-232.2 1313.33,-228.6 1313.27,-235.6"/>
</a>
</g>
</g>
<!-- Node19&#45;&gt;Node14 -->
<g id="edge30_Node000019_Node000014" class="edge">
<title>Node19&#45;&gt;Node14</title>
<g id="a_edge30_Node000019_Node000014"><a xlink:title=" ">
<path fill="none" stroke="#63b8ff" d="M1313.2,-223.55C1189.44,-211.47 977.55,-190.79 863.38,-179.65"/>
<polygon fill="#63b8ff" stroke="#63b8ff" points="1313.13,-227.06 1323.42,-224.55 1313.81,-220.1 1313.13,-227.06"/>
</a>
</g>
</g>
<!-- Node19&#45;&gt;Node18 -->
<g id="edge35_Node000019_Node000018" class="edge">
<title>Node19&#45;&gt;Node18</title>
<g id="a_edge35_Node000019_Node000018"><a xlink:title=" ">
<path fill="none" stroke="#63b8ff" d="M1329.07,-213.56C1325.92,-211.86 1322.88,-210.01 1320,-208 1297.54,-192.34 1306.64,-173.41 1284,-158 1274.77,-151.71 1264.01,-147.07 1253.13,-143.65"/>
<polygon fill="#63b8ff" stroke="#63b8ff" points="1327.66,-216.76 1338.19,-217.96 1330.71,-210.46 1327.66,-216.76"/>
</a>
</g>
</g>
<!-- Node20&#45;&gt;Node5 -->
<g id="edge37_Node000020_Node000005" class="edge">
<title>Node20&#45;&gt;Node5</title>
<g id="a_edge37_Node000020_Node000005"><a xlink:title=" ">
<path fill="none" stroke="#63b8ff" d="M546.44,-490.69C500.66,-466.92 410.12,-419.92 371.11,-399.66"/>
<polygon fill="#63b8ff" stroke="#63b8ff" points="545.01,-493.89 555.5,-495.39 548.23,-487.68 545.01,-493.89"/>
</a>
</g>
</g>
<!-- Node21&#45;&gt;Node18 -->
<g id="edge53_Node000021_Node000018" class="edge">
<title>Node21&#45;&gt;Node18</title>
<g id="a_edge53_Node000021_Node000018"><a xlink:title=" ">
<path fill="none" stroke="#63b8ff" d="M1527.55,-122.4C1450.09,-125.06 1343.67,-128.71 1271.06,-131.2"/>
<polygon fill="#63b8ff" stroke="#63b8ff" points="1527.93,-125.89 1537.8,-122.04 1527.69,-118.89 1527.93,-125.89"/>
</a>
</g>
</g>
<!-- Node22&#45;&gt;Node6 -->
<g id="edge56_Node000022_Node000006" class="edge">
<title>Node22&#45;&gt;Node6</title>
<g id="a_edge56_Node000022_Node000006"><a xlink:title=" ">
<path fill="none" stroke="#63b8ff" d="M270.74,-184.15C244.87,-189.71 217.11,-195.68 194.79,-200.48"/>
<polygon fill="#63b8ff" stroke="#63b8ff" points="271.51,-187.56 280.55,-182.04 270.04,-180.72 271.51,-187.56"/>
</a>
</g>
</g>
<!-- Node22&#45;&gt;Node7 -->
<g id="edge55_Node000022_Node000007" class="edge">
<title>Node22&#45;&gt;Node7</title>
<g id="a_edge55_Node000022_Node000007"><a xlink:title=" ">
<path fill="none" stroke="#63b8ff" d="M268.67,-172.47C192.71,-177.55 84.95,-184.76 41.15,-187.69"/>
<polygon fill="#63b8ff" stroke="#63b8ff" points="268.96,-175.96 278.71,-171.8 268.49,-168.98 268.96,-175.96"/>
</a>
</g>
</g>
</g>
</svg>
