<?xml version="1.0" encoding="UTF-8" standalone="no"?>
<!DOCTYPE svg PUBLIC "-//W3C//DTD SVG 1.1//EN"
 "http://www.w3.org/Graphics/SVG/1.1/DTD/svg11.dtd">
<!-- Generated by graphviz version 2.43.0 (0)
 -->
<!-- Title: EnemyTank::aggressiveBehavior Pages: 1 -->
<!--zoomable 350 -->

<svg id="main" version="1.1" xmlns="http://www.w3.org/2000/svg" xmlns:xlink="http://www.w3.org/1999/xlink" xml:space="preserve" onload="init(evt)">
<style type="text/css"><![CDATA[
.node, .edge {opacity: 0.7;}
.node.selected, .edge.selected {opacity: 1;}
.edge:hover path { stroke: red; }
.edge:hover polygon { stroke: red; fill: red; }
]]></style>

<defs>
  <circle id="rim" cx="0" cy="0" r="7"/>
  <circle id="rim2" cx="0" cy="0" r="3.5"/>
  <g id="zoomPlus">
    <use xlink:href="#rim" fill="#404040"><set attributeName="fill" to="#808080" begin="zoomplus.mouseover" end="zoomplus.mouseout"/></use>
    <path d="M-4,0h8M0,-4v8" fill="none" stroke="white" stroke-width="1.5" pointer-events="none"/>
  </g>
  <g id="zoomMin">
    <use xlink:href="#rim" fill="#404040"><set attributeName="fill" to="#808080" begin="zoomminus.mouseover" end="zoomminus.mouseout"/></use>
    <path d="M-4,0h8" fill="none" stroke="white" stroke-width="1.5" pointer-events="none"/>
  </g>
  <g id="arrowUp" transform="translate(30 24)">
    <use xlink:href="#rim"/>
    <path pointer-events="none" fill="none" stroke="white" stroke-width="1.5" d="M0,-3.0v7 M-2.5,-0.5L0,-3.0L2.5,-0.5"/>
  </g>
  <g id="arrowRight" transform="rotate(90) translate(36 -43)">
    <use xlink:href="#rim"/>
    <path pointer-events="none" fill="none" stroke="white" stroke-width="1.5" d="M0,-3.0v7 M-2.5,-0.5L0,-3.0L2.5,-0.5"/>
  </g>
  <g id="arrowDown" transform="rotate(180) translate(-30 -48)">
    <use xlink:href="#rim"/>
    <path pointer-events="none" fill="none" stroke="white" stroke-width="1.5" d="M0,-3.0v7 M-2.5,-0.5L0,-3.0L2.5,-0.5"/>
  </g>
  <g id="arrowLeft" transform="rotate(270) translate(-36 17)">
    <use xlink:href="#rim"/>
    <path pointer-events="none" fill="none" stroke="white" stroke-width="1.5" d="M0,-3.0v7 M-2.5,-0.5L0,-3.0L2.5,-0.5"/>
  </g>
  <g id="resetDef">
    <use xlink:href="#rim2" fill="#404040"><set attributeName="fill" to="#808080" begin="reset.mouseover" end="reset.mouseout"/></use>
  </g>
</defs>
<script type="application/ecmascript">
var viewWidth = 764;
var viewHeight = 350;
var sectionId = 'dynsection-3';
</script>
<script type="application/ecmascript" xlink:href="svg.min.js"/>
<svg id="graph" class="graph">
<g id="viewport">
<title>EnemyTank::aggressiveBehavior</title>
<!-- Node1 -->
<g id="Node000001" class="node">
<title>Node1</title>
<g id="a_Node000001"><a xlink:title="Executes aggressive behavior.">
<polygon fill="#999999" stroke="#666666" points="176,-181 0,-181 0,-162 176,-162 176,-181"/>
<text text-anchor="middle" x="88" y="-169" font-family="Helvetica,sans-Serif" font-size="10.00">EnemyTank::aggressiveBehavior</text>
</a>
</g>
</g>
<!-- Node2 -->
<g id="Node000002" class="node">
<title>Node2</title>
<g id="a_Node000002"><a xlink:href="classTank.html#a6a39f37aa7ebbf66d0661815c43b37ef" target="_top" xlink:title="Checks if tank can fire.">
<polygon fill="white" stroke="#666666" points="340.5,-297 260.5,-297 260.5,-278 340.5,-278 340.5,-297"/>
<text text-anchor="middle" x="300.5" y="-285" font-family="Helvetica,sans-Serif" font-size="10.00">Tank::canFire</text>
</a>
</g>
</g>
<!-- Node1&#45;&gt;Node2 -->
<g id="edge1_Node000001_Node000002" class="edge">
<title>Node1&#45;&gt;Node2</title>
<g id="a_edge1_Node000001_Node000002"><a xlink:title=" ">
<path fill="none" stroke="#63b8ff" d="M98.16,-181.24C117.3,-200.98 163.79,-245.76 212,-268.5 223.87,-274.1 237.43,-278.07 250.27,-280.88"/>
<polygon fill="#63b8ff" stroke="#63b8ff" points="249.88,-284.37 260.37,-282.9 251.25,-277.51 249.88,-284.37"/>
</a>
</g>
</g>
<!-- Node3 -->
<g id="Node000003" class="node">
<title>Node3</title>
<g id="a_Node000003"><a xlink:href="classEnemyTank.html#a85bd09ffb86b2c36c6b76fe6f6752324" target="_top" xlink:title="Moves away from player.">
<polygon fill="white" stroke="#666666" points="377.5,-181 223.5,-181 223.5,-162 377.5,-162 377.5,-181"/>
<text text-anchor="middle" x="300.5" y="-169" font-family="Helvetica,sans-Serif" font-size="10.00">EnemyTank::defensiveMove</text>
</a>
</g>
</g>
<!-- Node1&#45;&gt;Node3 -->
<g id="edge2_Node000001_Node000003" class="edge">
<title>Node1&#45;&gt;Node3</title>
<g id="a_edge2_Node000001_Node000003"><a xlink:title=" ">
<path fill="none" stroke="#63b8ff" d="M176.14,-171.5C188.33,-171.5 200.86,-171.5 213.04,-171.5"/>
<polygon fill="#63b8ff" stroke="#63b8ff" points="213.18,-175 223.18,-171.5 213.18,-168 213.18,-175"/>
</a>
</g>
</g>
<!-- Node4 -->
<g id="Node000004" class="node">
<title>Node4</title>
<g id="a_Node000004"><a xlink:href="classEnemyTank.html#a9eb0cacdd5e196535f1d60da1ca622ac" target="_top" xlink:title="Gets direction towards last known player position.">
<polygon fill="white" stroke="#666666" points="590.5,-266.5 441.5,-266.5 441.5,-236.5 590.5,-236.5 590.5,-266.5"/>
<text text-anchor="start" x="449.5" y="-254.5" font-family="Helvetica,sans-Serif" font-size="10.00">EnemyTank::getDirectionTo</text>
<text text-anchor="middle" x="516" y="-243.5" font-family="Helvetica,sans-Serif" font-size="10.00">Player</text>
</a>
</g>
</g>
<!-- Node1&#45;&gt;Node4 -->
<g id="edge8_Node000001_Node000004" class="edge">
<title>Node1&#45;&gt;Node4</title>
<g id="a_edge8_Node000001_Node000004"><a xlink:title=" ">
<path fill="none" stroke="#63b8ff" d="M139.96,-181.07C211.98,-194.59 344.39,-219.46 431.05,-235.74"/>
<polygon fill="#63b8ff" stroke="#63b8ff" points="430.65,-239.22 441.12,-237.63 431.94,-232.34 430.65,-239.22"/>
</a>
</g>
</g>
<!-- Node7 -->
<g id="Node000007" class="node">
<title>Node7</title>
<g id="a_Node000007"><a xlink:href="classGameObject.html#a4bc41ca14c07e61dafa74a03c4f3e2df" target="_top" xlink:title="Rotates the object to face new direction.">
<polygon fill="white" stroke="#666666" points="756,-218 643,-218 643,-199 756,-199 756,-218"/>
<text text-anchor="middle" x="699.5" y="-206" font-family="Helvetica,sans-Serif" font-size="10.00">GameObject::rotate</text>
</a>
</g>
</g>
<!-- Node1&#45;&gt;Node7 -->
<g id="edge17_Node000001_Node000007" class="edge">
<title>Node1&#45;&gt;Node7</title>
<g id="a_edge17_Node000001_Node000007"><a xlink:title=" ">
<path fill="none" stroke="#63b8ff" d="M117.54,-161.98C197.49,-136.9 429.41,-75.01 607,-136.5 638.31,-147.34 667.03,-173.81 683.65,-191.46"/>
<polygon fill="#63b8ff" stroke="#63b8ff" points="681.07,-193.83 690.4,-198.85 686.24,-189.11 681.07,-193.83"/>
</a>
</g>
</g>
<!-- Node8 -->
<g id="Node000008" class="node">
<title>Node8</title>
<g id="a_Node000008"><a xlink:href="classEnemyTank.html#a99abccd6cdea62b595ec72f9e374d841" target="_top" xlink:title="Gets Manhattan distance to player.">
<polygon fill="white" stroke="#666666" points="374.5,-67.5 226.5,-67.5 226.5,-37.5 374.5,-37.5 374.5,-67.5"/>
<text text-anchor="start" x="234.5" y="-55.5" font-family="Helvetica,sans-Serif" font-size="10.00">EnemyTank::getDistanceTo</text>
<text text-anchor="middle" x="300.5" y="-44.5" font-family="Helvetica,sans-Serif" font-size="10.00">Player</text>
</a>
</g>
</g>
<!-- Node1&#45;&gt;Node8 -->
<g id="edge9_Node000001_Node000008" class="edge">
<title>Node1&#45;&gt;Node8</title>
<g id="a_edge9_Node000001_Node000008"><a xlink:title=" ">
<path fill="none" stroke="#63b8ff" d="M99.75,-161.8C120.23,-143.76 166.84,-104.77 212,-81.5 219.46,-77.65 227.54,-74.17 235.67,-71.05"/>
<polygon fill="#63b8ff" stroke="#63b8ff" points="237.02,-74.29 245.21,-67.57 234.61,-67.71 237.02,-74.29"/>
</a>
</g>
</g>
<!-- Node9 -->
<g id="Node000009" class="node">
<title>Node9</title>
<g id="a_Node000009"><a xlink:href="classEnemyTank.html#abf1f9838c12039c2a0872181aeee713e" target="_top" xlink:title="Checks if tank has clear line of sight to player.">
<polygon fill="white" stroke="#666666" points="372,-19 229,-19 229,0 372,0 372,-19"/>
<text text-anchor="middle" x="300.5" y="-7" font-family="Helvetica,sans-Serif" font-size="10.00">EnemyTank::hasClearShot</text>
</a>
</g>
</g>
<!-- Node1&#45;&gt;Node9 -->
<g id="edge10_Node000001_Node000009" class="edge">
<title>Node1&#45;&gt;Node9</title>
<g id="a_edge10_Node000001_Node000009"><a xlink:title=" ">
<path fill="none" stroke="#63b8ff" d="M94.18,-161.98C108.86,-135.97 153.48,-63.35 212,-28.5 215.68,-26.31 219.58,-24.37 223.62,-22.65"/>
<polygon fill="#63b8ff" stroke="#63b8ff" points="225.1,-25.83 233.23,-19.03 222.63,-19.28 225.1,-25.83"/>
</a>
</g>
</g>
<!-- Node10 -->
<g id="Node000010" class="node">
<title>Node10</title>
<g id="a_Node000010"><a xlink:href="classEnemyTank.html#aa7421a7881c97b14301ef95e11fac1a8" target="_top" xlink:title="Moves towards player position.">
<polygon fill="white" stroke="#666666" points="389,-260 212,-260 212,-241 389,-241 389,-260"/>
<text text-anchor="middle" x="300.5" y="-248" font-family="Helvetica,sans-Serif" font-size="10.00">EnemyTank::moveTowardsPlayer</text>
</a>
</g>
</g>
<!-- Node1&#45;&gt;Node10 -->
<g id="edge11_Node000001_Node000010" class="edge">
<title>Node1&#45;&gt;Node10</title>
<g id="a_edge11_Node000001_Node000010"><a xlink:title=" ">
<path fill="none" stroke="#63b8ff" d="M108.69,-181.14C132.7,-192.65 174.7,-212.05 212,-225.5 224.79,-230.11 238.87,-234.45 251.93,-238.17"/>
<polygon fill="#63b8ff" stroke="#63b8ff" points="251.1,-241.58 261.67,-240.9 252.99,-234.83 251.1,-241.58"/>
</a>
</g>
</g>
<!-- Node3&#45;&gt;Node4 -->
<g id="edge3_Node000003_Node000004" class="edge">
<title>Node3&#45;&gt;Node4</title>
<g id="a_edge3_Node000003_Node000004"><a xlink:title=" ">
<path fill="none" stroke="#63b8ff" d="M345.98,-181.11C360.18,-185.12 375.67,-190.5 389,-197.5 407.19,-207.05 406.72,-217.11 425,-226.5 429.48,-228.8 434.2,-230.91 439.04,-232.85"/>
<polygon fill="#63b8ff" stroke="#63b8ff" points="437.85,-236.14 448.44,-236.35 440.29,-229.58 437.85,-236.14"/>
</a>
</g>
</g>
<!-- Node5 -->
<g id="Node000005" class="node">
<title>Node5</title>
<g id="a_Node000005"><a xlink:href="classEnemyTank.html#a8e77035e33942a8ac511fbb3970917bc" target="_top" xlink:title="Gets opposite direction.">
<polygon fill="white" stroke="#666666" points="607,-181 425,-181 425,-162 607,-162 607,-181"/>
<text text-anchor="middle" x="516" y="-169" font-family="Helvetica,sans-Serif" font-size="10.00">EnemyTank::getOppositeDirection</text>
</a>
</g>
</g>
<!-- Node3&#45;&gt;Node5 -->
<g id="edge4_Node000003_Node000005" class="edge">
<title>Node3&#45;&gt;Node5</title>
<g id="a_edge4_Node000003_Node000005"><a xlink:title=" ">
<path fill="none" stroke="#63b8ff" d="M377.67,-171.5C389.77,-171.5 402.44,-171.5 414.98,-171.5"/>
<polygon fill="#63b8ff" stroke="#63b8ff" points="415,-175 425,-171.5 415,-168 415,-175"/>
</a>
</g>
</g>
<!-- Node6 -->
<g id="Node000006" class="node">
<title>Node6</title>
<g id="a_Node000006"><a xlink:href="classEnemyTank.html#ad9f295f9b2df24bb291db3783b292289" target="_top" xlink:title="Moves enemy tank in specified direction.">
<polygon fill="white" stroke="#666666" points="569.5,-218 462.5,-218 462.5,-199 569.5,-199 569.5,-218"/>
<text text-anchor="middle" x="516" y="-206" font-family="Helvetica,sans-Serif" font-size="10.00">EnemyTank::move</text>
</a>
</g>
</g>
<!-- Node3&#45;&gt;Node6 -->
<g id="edge5_Node000003_Node000006" class="edge">
<title>Node3&#45;&gt;Node6</title>
<g id="a_edge5_Node000003_Node000006"><a xlink:title=" ">
<path fill="none" stroke="#63b8ff" d="M356.48,-181.03C385.79,-186.11 421.96,-192.38 452.35,-197.64"/>
<polygon fill="#63b8ff" stroke="#63b8ff" points="451.96,-201.13 462.41,-199.39 453.16,-194.23 451.96,-201.13"/>
</a>
</g>
</g>
<!-- Node3&#45;&gt;Node7 -->
<g id="edge7_Node000003_Node000007" class="edge">
<title>Node3&#45;&gt;Node7</title>
<g id="a_edge7_Node000003_Node000007"><a xlink:title=" ">
<path fill="none" stroke="#63b8ff" d="M336.66,-161.89C394.34,-147.75 512.12,-125.77 607,-152.5 634.33,-160.2 661.55,-178.58 679.11,-192.2"/>
<polygon fill="#63b8ff" stroke="#63b8ff" points="677.36,-195.29 687.35,-198.8 681.74,-189.82 677.36,-195.29"/>
</a>
</g>
</g>
<!-- Node6&#45;&gt;Node7 -->
<g id="edge6_Node000006_Node000007" class="edge">
<title>Node6&#45;&gt;Node7</title>
<g id="a_edge6_Node000006_Node000007"><a xlink:title=" ">
<path fill="none" stroke="#63b8ff" d="M569.99,-208.5C589.59,-208.5 612.05,-208.5 632.66,-208.5"/>
<polygon fill="#63b8ff" stroke="#63b8ff" points="632.92,-212 642.92,-208.5 632.92,-205 632.92,-212"/>
</a>
</g>
</g>
<!-- Node10&#45;&gt;Node4 -->
<g id="edge12_Node000010_Node000004" class="edge">
<title>Node10&#45;&gt;Node4</title>
<g id="a_edge12_Node000010_Node000004"><a xlink:title=" ">
<path fill="none" stroke="#63b8ff" d="M389.26,-250.91C403.01,-250.98 417.19,-251.04 430.86,-251.11"/>
<polygon fill="#63b8ff" stroke="#63b8ff" points="431.17,-254.61 441.19,-251.15 431.2,-247.61 431.17,-254.61"/>
</a>
</g>
</g>
<!-- Node10&#45;&gt;Node6 -->
<g id="edge13_Node000010_Node000006" class="edge">
<title>Node10&#45;&gt;Node6</title>
<g id="a_edge13_Node000010_Node000006"><a xlink:title=" ">
<path fill="none" stroke="#63b8ff" d="M349.95,-240.97C381.5,-234.76 422.86,-226.63 456.28,-220.05"/>
<polygon fill="#63b8ff" stroke="#63b8ff" points="457.24,-223.43 466.38,-218.07 455.89,-216.56 457.24,-223.43"/>
</a>
</g>
</g>
<!-- Node10&#45;&gt;Node7 -->
<g id="edge16_Node000010_Node000007" class="edge">
<title>Node10&#45;&gt;Node7</title>
<g id="a_edge16_Node000010_Node000007"><a xlink:title=" ">
<path fill="none" stroke="#63b8ff" d="M348.17,-260.06C382.3,-267.03 422.99,-275.3 425,-275.5 505.49,-283.56 530.12,-300.64 607,-275.5 636.91,-265.72 665.14,-242.03 682.13,-225.62"/>
<polygon fill="#63b8ff" stroke="#63b8ff" points="684.92,-227.78 689.52,-218.24 679.97,-222.82 684.92,-227.78"/>
</a>
</g>
</g>
<!-- Node11 -->
<g id="Node000011" class="node">
<title>Node11</title>
<g id="a_Node000011"><a xlink:href="classEnemyTank.html#a327ab507c7512b075c5a4c85d6933bba" target="_top" xlink:title="Executes random movement behavior.">
<polygon fill="white" stroke="#666666" points="596,-342 436,-342 436,-323 596,-323 596,-342"/>
<text text-anchor="middle" x="516" y="-330" font-family="Helvetica,sans-Serif" font-size="10.00">EnemyTank::randomBehavior</text>
</a>
</g>
</g>
<!-- Node10&#45;&gt;Node11 -->
<g id="edge14_Node000010_Node000011" class="edge">
<title>Node10&#45;&gt;Node11</title>
<g id="a_edge14_Node000010_Node000011"><a xlink:title=" ">
<path fill="none" stroke="#63b8ff" d="M369.95,-260.11C376.61,-262.35 383.08,-265.11 389,-268.5 409.75,-280.39 404.6,-296.01 425,-308.5 432.52,-313.1 440.91,-316.83 449.47,-319.85"/>
<polygon fill="#63b8ff" stroke="#63b8ff" points="448.57,-323.24 459.16,-322.97 450.71,-316.57 448.57,-323.24"/>
</a>
</g>
</g>
<!-- Node11&#45;&gt;Node7 -->
<g id="edge15_Node000011_Node000007" class="edge">
<title>Node11&#45;&gt;Node7</title>
<g id="a_edge15_Node000011_Node000007"><a xlink:title=" ">
<path fill="none" stroke="#63b8ff" d="M572.8,-322.9C584.61,-319.45 596.63,-314.79 607,-308.5 641.84,-287.37 671.41,-249.08 686.9,-226.51"/>
<polygon fill="#63b8ff" stroke="#63b8ff" points="689.83,-228.42 692.48,-218.16 684.01,-224.53 689.83,-228.42"/>
</a>
</g>
</g>
</g>
</svg>

<g id="navigator" transform="translate(0 0)" fill="#404254">
  <rect fill="#f2f5e9" fill-opacity="0.5" stroke="#606060" stroke-width=".5" x="0" y="0" width="60" height="60"/>
  <use id="zoomplus" xlink:href="#zoomPlus" x="17" y="9" onmousedown="handleZoom(evt,'in')"/>
  <use id="zoomminus" xlink:href="#zoomMin" x="42" y="9" onmousedown="handleZoom(evt,'out')"/>
  <use id="reset" xlink:href="#resetDef" x="30" y="36" onmousedown="handleReset()"/>
   <use id="arrowup" xlink:href="#arrowUp" x="0" y="0" onmousedown="handlePan(0,-1)"/>
  <use id="arrowright" xlink:href="#arrowRight" x="0" y="0" onmousedown="handlePan(1,0)"/>
  <use id="arrowdown" xlink:href="#arrowDown" x="0" y="0" onmousedown="handlePan(0,1)"/>
  <use id="arrowleft" xlink:href="#arrowLeft" x="0" y="0" onmousedown="handlePan(-1,0)"/>
</g>
<svg viewBox="0 0 15 15" width="100%" height="30px" preserveAspectRatio="xMaxYMin meet">
 <g id="arrow_out" transform="scale(0.3 0.3)">
  <a xlink:href="classEnemyTank_a5b53b4d6721012b14e41a0882bd1c2a3_cgraph_org.svg" target="_base">
   <rect id="button" ry="5" rx="5" y="6" x="6" height="38" width="38"
        fill="#f2f5e9" fill-opacity="0.5" stroke="#606060" stroke-width="1.0"/>
   <path id="arrow"
     d="M 11.500037,31.436501 C 11.940474,20.09759 22.043105,11.32322 32.158766,21.979434 L 37.068811,17.246167 C 37.068811,17.246167 37.088388,32 37.088388,32 L 22.160133,31.978069 C 22.160133,31.978069 26.997745,27.140456 26.997745,27.140456 C 18.528582,18.264221 13.291696,25.230495 11.500037,31.436501 z"
     style="fill:#404040;"/>
  </a>
 </g>
</svg>

<style type='text/css'>
<![CDATA[
[data-mouse-over-selected='false'] { opacity: 0.7; }
[data-mouse-over-selected='true']  { opacity: 1.0; }
]]>
</style>
<script type="application/ecmascript"><![CDATA[
document.addEventListener('DOMContentLoaded', (event) => {
  highlightEdges();
  highlightAdjacentNodes();
});
]]></script>
</svg>
