<?xml version="1.0" encoding="UTF-8" standalone="no"?>
<!DOCTYPE svg PUBLIC "-//W3C//DTD SVG 1.1//EN"
 "http://www.w3.org/Graphics/SVG/1.1/DTD/svg11.dtd">
<!-- Generated by graphviz version 2.43.0 (0)
 -->
<!-- Title: EnemyTank::fire Pages: 1 -->
<svg width="760pt" height="64pt"
 viewBox="0.00 0.00 760.00 64.00" xmlns="http://www.w3.org/2000/svg" xmlns:xlink="http://www.w3.org/1999/xlink">
<g id="graph0" class="graph" transform="scale(1 1) rotate(0) translate(4 60)">
<title>EnemyTank::fire</title>
<!-- Node1 -->
<g id="Node000001" class="node">
<title>Node1</title>
<g id="a_Node000001"><a xlink:title="Fires projectile from enemy tank.">
<polygon fill="#999999" stroke="#666666" points="752,-37 657,-37 657,-18 752,-18 752,-37"/>
<text text-anchor="middle" x="704.5" y="-25" font-family="Helvetica,sans-Serif" font-size="10.00">EnemyTank::fire</text>
</a>
</g>
</g>
<!-- Node2 -->
<g id="Node000002" class="node">
<title>Node2</title>
<g id="a_Node000002"><a xlink:href="classEnemyTank.html#a5759e09a78eab14d4b85dc1bd93ead19" target="_top" xlink:title="Attempts to shoot at player.">
<polygon fill="white" stroke="#666666" points="621,-56 481,-56 481,-37 621,-37 621,-56"/>
<text text-anchor="middle" x="551" y="-44" font-family="Helvetica,sans-Serif" font-size="10.00">EnemyTank::attemptShot</text>
</a>
</g>
</g>
<!-- Node1&#45;&gt;Node2 -->
<g id="edge1_Node000001_Node000002" class="edge">
<title>Node1&#45;&gt;Node2</title>
<g id="a_edge1_Node000001_Node000002"><a xlink:title=" ">
<path fill="none" stroke="#63b8ff" d="M646.78,-34.61C638.4,-35.66 629.69,-36.76 621.09,-37.83"/>
<polygon fill="#63b8ff" stroke="#63b8ff" points="647.32,-38.07 656.81,-33.36 646.45,-31.13 647.32,-38.07"/>
</a>
</g>
</g>
<!-- Node5 -->
<g id="Node000005" class="node">
<title>Node5</title>
<g id="a_Node000005"><a xlink:href="classGameWorld.html#ab645acf30cb0a4640a8fb5b88c5c7c94" target="_top" xlink:title="Updates all game objects and logic.">
<polygon fill="white" stroke="#666666" points="607.5,-19 494.5,-19 494.5,0 607.5,0 607.5,-19"/>
<text text-anchor="middle" x="551" y="-7" font-family="Helvetica,sans-Serif" font-size="10.00">GameWorld::update</text>
</a>
</g>
</g>
<!-- Node1&#45;&gt;Node5 -->
<g id="edge4_Node000001_Node000005" class="edge">
<title>Node1&#45;&gt;Node5</title>
<g id="a_edge4_Node000001_Node000005"><a xlink:title=" ">
<path fill="none" stroke="#63b8ff" d="M646.73,-20.76C633.93,-19.23 620.34,-17.62 607.59,-16.1"/>
<polygon fill="#63b8ff" stroke="#63b8ff" points="646.47,-24.25 656.81,-21.95 647.29,-17.3 646.47,-24.25"/>
</a>
</g>
</g>
<!-- Node3 -->
<g id="Node000003" class="node">
<title>Node3</title>
<g id="a_Node000003"><a xlink:href="classEnemyTank.html#a338556623afc739ebf5585caaa73fcdb" target="_top" xlink:title="Decides next action based on behavior.">
<polygon fill="white" stroke="#666666" points="432,-56 271,-56 271,-37 432,-37 432,-56"/>
<text text-anchor="middle" x="351.5" y="-44" font-family="Helvetica,sans-Serif" font-size="10.00">EnemyTank::decideNextMove</text>
</a>
</g>
</g>
<!-- Node2&#45;&gt;Node3 -->
<g id="edge2_Node000002_Node000003" class="edge">
<title>Node2&#45;&gt;Node3</title>
<g id="a_edge2_Node000002_Node000003"><a xlink:title=" ">
<path fill="none" stroke="#63b8ff" d="M470.8,-46.5C458.03,-46.5 444.8,-46.5 432.02,-46.5"/>
<polygon fill="#63b8ff" stroke="#63b8ff" points="470.92,-50 480.92,-46.5 470.92,-43 470.92,-50"/>
</a>
</g>
</g>
<!-- Node4 -->
<g id="Node000004" class="node">
<title>Node4</title>
<g id="a_Node000004"><a xlink:href="classEnemyTank.html#a7ae5efc6eff4e7a19abb7f37b44835fc" target="_top" xlink:title="Updates enemy tank state and AI decisions.">
<polygon fill="white" stroke="#666666" points="206,-56 93,-56 93,-37 206,-37 206,-56"/>
<text text-anchor="middle" x="149.5" y="-44" font-family="Helvetica,sans-Serif" font-size="10.00">EnemyTank::update</text>
</a>
</g>
</g>
<!-- Node3&#45;&gt;Node4 -->
<g id="edge3_Node000003_Node000004" class="edge">
<title>Node3&#45;&gt;Node4</title>
<g id="a_edge3_Node000003_Node000004"><a xlink:title=" ">
<path fill="none" stroke="#63b8ff" d="M260.64,-46.5C242.08,-46.5 223.06,-46.5 206.16,-46.5"/>
<polygon fill="#63b8ff" stroke="#63b8ff" points="260.88,-50 270.88,-46.5 260.88,-43 260.88,-50"/>
</a>
</g>
</g>
<!-- Node6 -->
<g id="Node000006" class="node">
<title>Node6</title>
<g id="a_Node000006"><a xlink:href="classGameController.html#af2367e58f03d8a1441c9a574967fd360" target="_top" xlink:title="Processes a single game turn/update cycle.">
<polygon fill="white" stroke="#666666" points="445,-19 258,-19 258,0 445,0 445,-19"/>
<text text-anchor="middle" x="351.5" y="-7" font-family="Helvetica,sans-Serif" font-size="10.00">GameController::processGameTurn</text>
</a>
</g>
</g>
<!-- Node5&#45;&gt;Node6 -->
<g id="edge5_Node000005_Node000006" class="edge">
<title>Node5&#45;&gt;Node6</title>
<g id="a_edge5_Node000005_Node000006"><a xlink:title=" ">
<path fill="none" stroke="#63b8ff" d="M484.12,-9.5C471.57,-9.5 458.21,-9.5 445,-9.5"/>
<polygon fill="#63b8ff" stroke="#63b8ff" points="484.46,-13 494.46,-9.5 484.46,-6 484.46,-13"/>
</a>
</g>
</g>
<!-- Node7 -->
<g id="Node000007" class="node">
<title>Node7</title>
<g id="a_Node000007"><a xlink:href="classGameController.html#ac958989c8f7f08488546930e5fcb0d82" target="_top" xlink:title="Starts and runs the main game loop.">
<polygon fill="white" stroke="#666666" points="222,-19 77,-19 77,0 222,0 222,-19"/>
<text text-anchor="middle" x="149.5" y="-7" font-family="Helvetica,sans-Serif" font-size="10.00">GameController::runGame</text>
</a>
</g>
</g>
<!-- Node6&#45;&gt;Node7 -->
<g id="edge6_Node000006_Node000007" class="edge">
<title>Node6&#45;&gt;Node7</title>
<g id="a_edge6_Node000006_Node000007"><a xlink:title=" ">
<path fill="none" stroke="#63b8ff" d="M247.71,-9.5C239.1,-9.5 230.52,-9.5 222.22,-9.5"/>
<polygon fill="#63b8ff" stroke="#63b8ff" points="247.82,-13 257.82,-9.5 247.82,-6 247.82,-13"/>
</a>
</g>
</g>
<!-- Node8 -->
<g id="Node000008" class="node">
<title>Node8</title>
<g id="a_Node000008"><a xlink:href="main_8cpp.html#ae66f6b31b5ad750f1fe042a706a4e3d4" target="_top" xlink:title="Main function that serves as the application entry point.">
<polygon fill="white" stroke="#666666" points="41,-19 0,-19 0,0 41,0 41,-19"/>
<text text-anchor="middle" x="20.5" y="-7" font-family="Helvetica,sans-Serif" font-size="10.00">main</text>
</a>
</g>
</g>
<!-- Node7&#45;&gt;Node8 -->
<g id="edge7_Node000007_Node000008" class="edge">
<title>Node7&#45;&gt;Node8</title>
<g id="a_edge7_Node000007_Node000008"><a xlink:title=" ">
<path fill="none" stroke="#63b8ff" d="M66.79,-9.5C57.31,-9.5 48.43,-9.5 41.08,-9.5"/>
<polygon fill="#63b8ff" stroke="#63b8ff" points="66.83,-13 76.83,-9.5 66.83,-6 66.83,-13"/>
</a>
</g>
</g>
</g>
</svg>
