<?xml version="1.0" encoding="UTF-8" standalone="no"?>
<!DOCTYPE svg PUBLIC "-//W3C//DTD SVG 1.1//EN"
 "http://www.w3.org/Graphics/SVG/1.1/DTD/svg11.dtd">
<!-- Generated by graphviz version 2.43.0 (0)
 -->
<!-- Title: ConsoleRenderer::drawMenu Pages: 1 -->
<svg width="837pt" height="141pt"
 viewBox="0.00 0.00 837.00 141.00" xmlns="http://www.w3.org/2000/svg" xmlns:xlink="http://www.w3.org/1999/xlink">
<g id="graph0" class="graph" transform="scale(1 1) rotate(0) translate(4 137)">
<title>ConsoleRenderer::drawMenu</title>
<!-- Node1 -->
<g id="Node000001" class="node">
<title>Node1</title>
<g id="a_Node000001"><a xlink:title="Draws main menu screen.">
<polygon fill="#999999" stroke="#666666" points="157,-73 0,-73 0,-54 157,-54 157,-73"/>
<text text-anchor="middle" x="78.5" y="-61" font-family="Helvetica,sans-Serif" font-size="10.00">ConsoleRenderer::drawMenu</text>
</a>
</g>
</g>
<!-- Node2 -->
<g id="Node000002" class="node">
<title>Node2</title>
<g id="a_Node000002"><a xlink:href="classConsoleRenderer.html#a209136c99544bd8fa46cc9860cedab1c" target="_top" xlink:title="Calculates horizontal offset to center content based on terminal width.">
<polygon fill="white" stroke="#666666" points="602,-86.5 452,-86.5 452,-56.5 602,-56.5 602,-86.5"/>
<text text-anchor="start" x="460" y="-74.5" font-family="Helvetica,sans-Serif" font-size="10.00">ConsoleRenderer::calculate</text>
<text text-anchor="middle" x="527" y="-63.5" font-family="Helvetica,sans-Serif" font-size="10.00">HorizontalOffset</text>
</a>
</g>
</g>
<!-- Node1&#45;&gt;Node2 -->
<g id="edge1_Node000001_Node000002" class="edge">
<title>Node1&#45;&gt;Node2</title>
<g id="a_edge1_Node000001_Node000002"><a xlink:title=" ">
<path fill="none" stroke="#63b8ff" d="M157.04,-65.67C169.08,-65.97 181.37,-66.26 193,-66.5 277.68,-68.25 374.47,-69.64 441.8,-70.5"/>
<polygon fill="#63b8ff" stroke="#63b8ff" points="441.89,-74 451.93,-70.63 441.98,-67 441.89,-74"/>
</a>
</g>
</g>
<!-- Node3 -->
<g id="Node000003" class="node">
<title>Node3</title>
<g id="a_Node000003"><a xlink:href="classConsoleRenderer.html#a9576db66ee7dc8d9fdec36f0181b9a12" target="_top" xlink:title="Checks if terminal size meets requirements.">
<polygon fill="white" stroke="#666666" points="390,-133 193,-133 193,-114 390,-114 390,-133"/>
<text text-anchor="middle" x="291.5" y="-121" font-family="Helvetica,sans-Serif" font-size="10.00">ConsoleRenderer::checkTerminalSize</text>
</a>
</g>
</g>
<!-- Node1&#45;&gt;Node3 -->
<g id="edge2_Node000001_Node000003" class="edge">
<title>Node1&#45;&gt;Node3</title>
<g id="a_edge2_Node000001_Node000003"><a xlink:title=" ">
<path fill="none" stroke="#63b8ff" d="M107.8,-73.05C130.67,-80.62 163.75,-91.27 193,-99.5 207.86,-103.68 224.11,-107.84 239.01,-111.5"/>
<polygon fill="#63b8ff" stroke="#63b8ff" points="238.53,-114.98 249.07,-113.94 240.18,-108.18 238.53,-114.98"/>
</a>
</g>
</g>
<!-- Node6 -->
<g id="Node000006" class="node">
<title>Node6</title>
<g id="a_Node000006"><a xlink:href="classConsoleRenderer.html#a041e99f6c0427c254b0349b57fbe2a84" target="_top" xlink:title="Clears the terminal screen.">
<polygon fill="white" stroke="#666666" points="608.5,-19 445.5,-19 445.5,0 608.5,0 608.5,-19"/>
<text text-anchor="middle" x="527" y="-7" font-family="Helvetica,sans-Serif" font-size="10.00">ConsoleRenderer::clearScreen</text>
</a>
</g>
</g>
<!-- Node1&#45;&gt;Node6 -->
<g id="edge5_Node000001_Node000006" class="edge">
<title>Node1&#45;&gt;Node6</title>
<g id="a_edge5_Node000001_Node000006"><a xlink:title=" ">
<path fill="none" stroke="#63b8ff" d="M97.76,-53.93C119.68,-43 157.91,-25.7 193,-18.5 273.7,-1.95 367.69,-1.03 435.19,-3.47"/>
<polygon fill="#63b8ff" stroke="#63b8ff" points="435.24,-6.98 445.37,-3.87 435.52,0.02 435.24,-6.98"/>
</a>
</g>
</g>
<!-- Node8 -->
<g id="Node000008" class="node">
<title>Node8</title>
<g id="a_Node000008"><a xlink:href="classConsoleRenderer.html#af59760cefd8647cf4b6fe34774cac2c1" target="_top" xlink:title="Draws an error message about terminal size.">
<polygon fill="white" stroke="#666666" points="368,-57.5 215,-57.5 215,-27.5 368,-27.5 368,-57.5"/>
<text text-anchor="start" x="223" y="-45.5" font-family="Helvetica,sans-Serif" font-size="10.00">ConsoleRenderer::drawError</text>
<text text-anchor="middle" x="291.5" y="-34.5" font-family="Helvetica,sans-Serif" font-size="10.00">Message</text>
</a>
</g>
</g>
<!-- Node1&#45;&gt;Node8 -->
<g id="edge7_Node000001_Node000008" class="edge">
<title>Node1&#45;&gt;Node8</title>
<g id="a_edge7_Node000001_Node000008"><a xlink:title=" ">
<path fill="none" stroke="#63b8ff" d="M157.17,-55.77C172.59,-54.23 188.87,-52.61 204.55,-51.05"/>
<polygon fill="#63b8ff" stroke="#63b8ff" points="205.15,-54.51 214.75,-50.04 204.46,-47.55 205.15,-54.51"/>
</a>
</g>
</g>
<!-- Node4 -->
<g id="Node000004" class="node">
<title>Node4</title>
<g id="a_Node000004"><a xlink:href="classConsoleRenderer.html#aae418386985b5ad1286af9cb8a7726c9" target="_top" xlink:title="Updates terminal size information.">
<polygon fill="white" stroke="#666666" points="628,-133 426,-133 426,-114 628,-114 628,-133"/>
<text text-anchor="middle" x="527" y="-121" font-family="Helvetica,sans-Serif" font-size="10.00">ConsoleRenderer::updateTerminalSize</text>
</a>
</g>
</g>
<!-- Node3&#45;&gt;Node4 -->
<g id="edge3_Node000003_Node000004" class="edge">
<title>Node3&#45;&gt;Node4</title>
<g id="a_edge3_Node000003_Node000004"><a xlink:title=" ">
<path fill="none" stroke="#63b8ff" d="M390.17,-123.5C398.52,-123.5 407.01,-123.5 415.45,-123.5"/>
<polygon fill="#63b8ff" stroke="#63b8ff" points="415.72,-127 425.72,-123.5 415.72,-120 415.72,-127"/>
</a>
</g>
</g>
<!-- Node5 -->
<g id="Node000005" class="node">
<title>Node5</title>
<g id="a_Node000005"><a xlink:href="classPlatformUtils.html#a9fb2159f36325087d8c93e7937d6da0b" target="_top" xlink:title="Gets current terminal dimensions.">
<polygon fill="white" stroke="#666666" points="829,-133 664,-133 664,-114 829,-114 829,-133"/>
<text text-anchor="middle" x="746.5" y="-121" font-family="Helvetica,sans-Serif" font-size="10.00">PlatformUtils::getTerminalSize</text>
</a>
</g>
</g>
<!-- Node4&#45;&gt;Node5 -->
<g id="edge4_Node000004_Node000005" class="edge">
<title>Node4&#45;&gt;Node5</title>
<g id="a_edge4_Node000004_Node000005"><a xlink:title=" ">
<path fill="none" stroke="#63b8ff" d="M628.16,-123.5C636.64,-123.5 645.19,-123.5 653.6,-123.5"/>
<polygon fill="#63b8ff" stroke="#63b8ff" points="653.78,-127 663.78,-123.5 653.78,-120 653.78,-127"/>
</a>
</g>
</g>
<!-- Node7 -->
<g id="Node000007" class="node">
<title>Node7</title>
<g id="a_Node000007"><a xlink:href="classPlatformUtils.html#acddd420e3f04cd70a8932b5472fce01d" target="_top" xlink:title="Clears the terminal screen.">
<polygon fill="white" stroke="#666666" points="818.5,-19 674.5,-19 674.5,0 818.5,0 818.5,-19"/>
<text text-anchor="middle" x="746.5" y="-7" font-family="Helvetica,sans-Serif" font-size="10.00">PlatformUtils::clearScreen</text>
</a>
</g>
</g>
<!-- Node6&#45;&gt;Node7 -->
<g id="edge6_Node000006_Node000007" class="edge">
<title>Node6&#45;&gt;Node7</title>
<g id="a_edge6_Node000006_Node000007"><a xlink:title=" ">
<path fill="none" stroke="#63b8ff" d="M608.68,-9.5C626.75,-9.5 645.94,-9.5 664.04,-9.5"/>
<polygon fill="#63b8ff" stroke="#63b8ff" points="664.26,-13 674.26,-9.5 664.26,-6 664.26,-13"/>
</a>
</g>
</g>
<!-- Node8&#45;&gt;Node2 -->
<g id="edge8_Node000008_Node000002" class="edge">
<title>Node8&#45;&gt;Node2</title>
<g id="a_edge8_Node000008_Node000002"><a xlink:title=" ">
<path fill="none" stroke="#63b8ff" d="M368.31,-51.92C391.73,-54.82 417.67,-58.05 441.63,-61.02"/>
<polygon fill="#63b8ff" stroke="#63b8ff" points="441.41,-64.52 451.76,-62.28 442.27,-57.57 441.41,-64.52"/>
</a>
</g>
</g>
<!-- Node8&#45;&gt;Node6 -->
<g id="edge9_Node000008_Node000006" class="edge">
<title>Node8&#45;&gt;Node6</title>
<g id="a_edge9_Node000008_Node000006"><a xlink:title=" ">
<path fill="none" stroke="#63b8ff" d="M368.31,-31.79C393.94,-28.16 422.58,-24.12 448.35,-20.47"/>
<polygon fill="#63b8ff" stroke="#63b8ff" points="449.03,-23.91 458.44,-19.05 448.05,-16.98 449.03,-23.91"/>
</a>
</g>
</g>
</g>
</svg>
