<?xml version="1.0" encoding="UTF-8" standalone="no"?>
<!DOCTYPE svg PUBLIC "-//W3C//DTD SVG 1.1//EN"
 "http://www.w3.org/Graphics/SVG/1.1/DTD/svg11.dtd">
<!-- Generated by graphviz version 2.43.0 (0)
 -->
<!-- Title: EnemyTank Pages: 1 -->
<svg width="146pt" height="215pt"
 viewBox="0.00 0.00 146.00 215.00" xmlns="http://www.w3.org/2000/svg" xmlns:xlink="http://www.w3.org/1999/xlink">
<g id="graph0" class="graph" transform="scale(1 1) rotate(0) translate(4 211)">
<title>EnemyTank</title>
<!-- Node1 -->
<g id="Node000001" class="node">
<title>Node1</title>
<g id="a_Node000001"><a xlink:title="Class representing enemy tanks with AI behavior.">
<polygon fill="#999999" stroke="#666666" points="73,-19 0,-19 0,0 73,0 73,-19"/>
<text text-anchor="middle" x="36.5" y="-7" font-family="Helvetica,sans-Serif" font-size="10.00">EnemyTank</text>
</a>
</g>
</g>
<!-- Node2 -->
<g id="Node000002" class="node">
<title>Node2</title>
<g id="a_Node000002"><a xlink:href="classTank.html" target="_top" xlink:title="Abstract base class for all tank entities.">
<polygon fill="white" stroke="#666666" points="109,-75 70,-75 70,-56 109,-56 109,-75"/>
<text text-anchor="middle" x="89.5" y="-63" font-family="Helvetica,sans-Serif" font-size="10.00">Tank</text>
</a>
</g>
</g>
<!-- Node2&#45;&gt;Node1 -->
<g id="edge1_Node000001_Node000002" class="edge">
<title>Node2&#45;&gt;Node1</title>
<g id="a_edge1_Node000001_Node000002"><a xlink:title=" ">
<path fill="none" stroke="#63b8ff" d="M73.52,-48.22C64.18,-38.7 52.75,-27.06 45.09,-19.25"/>
<polygon fill="#63b8ff" stroke="#63b8ff" points="71.25,-50.9 80.75,-55.58 76.24,-45.99 71.25,-50.9"/>
</a>
</g>
</g>
<!-- Node3 -->
<g id="Node000003" class="node">
<title>Node3</title>
<g id="a_Node000003"><a xlink:href="classGameObject.html" target="_top" xlink:title="Abstract base class for all game objects.">
<polygon fill="white" stroke="#666666" points="138,-141 61,-141 61,-122 138,-122 138,-141"/>
<text text-anchor="middle" x="99.5" y="-129" font-family="Helvetica,sans-Serif" font-size="10.00">GameObject</text>
</a>
</g>
</g>
<!-- Node3&#45;&gt;Node2 -->
<g id="edge2_Node000002_Node000003" class="edge">
<title>Node3&#45;&gt;Node2</title>
<g id="a_edge2_Node000002_Node000003"><a xlink:title=" ">
<path fill="none" stroke="#63b8ff" d="M106.42,-111.82C107.76,-105.76 108.27,-99.04 106.5,-93 104.59,-86.5 100.55,-80.08 96.88,-75.18"/>
<polygon fill="#63b8ff" stroke="#63b8ff" points="102.97,-111.16 103.43,-121.74 109.67,-113.18 102.97,-111.16"/>
</a>
</g>
</g>
<!-- Node4 -->
<g id="Node000004" class="node">
<title>Node4</title>
<g id="a_Node000004"><a xlink:href="structPoint.html" target="_top" xlink:title="Structure representing a 2D point with integer coordinates.">
<polygon fill="white" stroke="#666666" points="48,-207 7,-207 7,-188 48,-188 48,-207"/>
<text text-anchor="middle" x="27.5" y="-195" font-family="Helvetica,sans-Serif" font-size="10.00">Point</text>
</a>
</g>
</g>
<!-- Node4&#45;&gt;Node1 -->
<g id="edge4_Node000001_Node000004" class="edge">
<title>Node4&#45;&gt;Node1</title>
<g id="a_edge4_Node000001_Node000004"><a xlink:title=" ">
<path fill="none" stroke="#9a32cd" stroke-dasharray="5,2" d="M20.39,-178.55C13.12,-157.94 3.53,-123.08 8.5,-93 13.08,-65.24 25.79,-34.27 32.39,-19.41"/>
<polygon fill="#9a32cd" stroke="#9a32cd" points="17.12,-179.79 23.9,-187.93 23.68,-177.34 17.12,-179.79"/>
</a>
</g>
<text text-anchor="middle" x="55.5" y="-96" font-family="Helvetica,sans-Serif" font-size="10.00" fill="grey"> playerLastPosition</text>
</g>
<!-- Node4&#45;&gt;Node3 -->
<g id="edge3_Node000003_Node000004" class="edge">
<title>Node4&#45;&gt;Node3</title>
<g id="a_edge3_Node000003_Node000004"><a xlink:title=" ">
<path fill="none" stroke="#9a32cd" stroke-dasharray="5,2" d="M44.74,-181.18C58.71,-168.76 77.92,-151.68 89.48,-141.41"/>
<polygon fill="#9a32cd" stroke="#9a32cd" points="42.36,-178.61 37.21,-187.87 47.01,-183.84 42.36,-178.61"/>
</a>
</g>
<text text-anchor="middle" x="89" y="-162" font-family="Helvetica,sans-Serif" font-size="10.00" fill="grey"> position</text>
</g>
</g>
</svg>
