<?xml version="1.0" encoding="UTF-8" standalone="no"?>
<!DOCTYPE svg PUBLIC "-//W3C//DTD SVG 1.1//EN"
 "http://www.w3.org/Graphics/SVG/1.1/DTD/svg11.dtd">
<!-- Generated by graphviz version 2.43.0 (0)
 -->
<!-- Title: GameObject::getDirection Pages: 1 -->
<!--zoomable 124 -->

<svg id="main" version="1.1" xmlns="http://www.w3.org/2000/svg" xmlns:xlink="http://www.w3.org/1999/xlink" xml:space="preserve" onload="init(evt)">
<style type="text/css"><![CDATA[
.node, .edge {opacity: 0.7;}
.node.selected, .edge.selected {opacity: 1;}
.edge:hover path { stroke: red; }
.edge:hover polygon { stroke: red; fill: red; }
]]></style>

<defs>
  <circle id="rim" cx="0" cy="0" r="7"/>
  <circle id="rim2" cx="0" cy="0" r="3.5"/>
  <g id="zoomPlus">
    <use xlink:href="#rim" fill="#404040"><set attributeName="fill" to="#808080" begin="zoomplus.mouseover" end="zoomplus.mouseout"/></use>
    <path d="M-4,0h8M0,-4v8" fill="none" stroke="white" stroke-width="1.5" pointer-events="none"/>
  </g>
  <g id="zoomMin">
    <use xlink:href="#rim" fill="#404040"><set attributeName="fill" to="#808080" begin="zoomminus.mouseover" end="zoomminus.mouseout"/></use>
    <path d="M-4,0h8" fill="none" stroke="white" stroke-width="1.5" pointer-events="none"/>
  </g>
  <g id="arrowUp" transform="translate(30 24)">
    <use xlink:href="#rim"/>
    <path pointer-events="none" fill="none" stroke="white" stroke-width="1.5" d="M0,-3.0v7 M-2.5,-0.5L0,-3.0L2.5,-0.5"/>
  </g>
  <g id="arrowRight" transform="rotate(90) translate(36 -43)">
    <use xlink:href="#rim"/>
    <path pointer-events="none" fill="none" stroke="white" stroke-width="1.5" d="M0,-3.0v7 M-2.5,-0.5L0,-3.0L2.5,-0.5"/>
  </g>
  <g id="arrowDown" transform="rotate(180) translate(-30 -48)">
    <use xlink:href="#rim"/>
    <path pointer-events="none" fill="none" stroke="white" stroke-width="1.5" d="M0,-3.0v7 M-2.5,-0.5L0,-3.0L2.5,-0.5"/>
  </g>
  <g id="arrowLeft" transform="rotate(270) translate(-36 17)">
    <use xlink:href="#rim"/>
    <path pointer-events="none" fill="none" stroke="white" stroke-width="1.5" d="M0,-3.0v7 M-2.5,-0.5L0,-3.0L2.5,-0.5"/>
  </g>
  <g id="resetDef">
    <use xlink:href="#rim2" fill="#404040"><set attributeName="fill" to="#808080" begin="reset.mouseover" end="reset.mouseout"/></use>
  </g>
</defs>
<script type="application/ecmascript">
var viewWidth = 1419;
var viewHeight = 124;
var sectionId = 'dynsection-2';
</script>
<script type="application/ecmascript" xlink:href="svg.min.js"/>
<svg id="graph" class="graph">
<g id="viewport">
<title>GameObject::getDirection</title>
<!-- Node1 -->
<g id="Node000001" class="node">
<title>Node1</title>
<g id="a_Node000001"><a xlink:title="Gets current direction of the object.">
<polygon fill="#999999" stroke="#666666" points="1411,-62 1268,-62 1268,-43 1411,-43 1411,-62"/>
<text text-anchor="middle" x="1339.5" y="-50" font-family="Helvetica,sans-Serif" font-size="10.00">GameObject::getDirection</text>
</a>
</g>
</g>
<!-- Node2 -->
<g id="Node000002" class="node">
<title>Node2</title>
<g id="a_Node000002"><a xlink:href="classGameWorld.html#a60724b9a69573c00245f87dfdfeefa14" target="_top" xlink:title="Handles tank&#45;obstacle collision.">
<polygon fill="white" stroke="#666666" points="1221,-115.5 1043,-115.5 1043,-85.5 1221,-85.5 1221,-115.5"/>
<text text-anchor="start" x="1051" y="-103.5" font-family="Helvetica,sans-Serif" font-size="10.00">GameWorld::handleTankObstacle</text>
<text text-anchor="middle" x="1132" y="-92.5" font-family="Helvetica,sans-Serif" font-size="10.00">Collision</text>
</a>
</g>
</g>
<!-- Node1&#45;&gt;Node2 -->
<g id="edge1_Node000001_Node000002" class="edge">
<title>Node1&#45;&gt;Node2</title>
<g id="a_edge1_Node000001_Node000002"><a xlink:title=" ">
<path fill="none" stroke="#63b8ff" d="M1287.33,-64.45C1260.14,-70.8 1226.45,-78.67 1197.49,-85.44"/>
<polygon fill="#63b8ff" stroke="#63b8ff" points="1288.47,-67.78 1297.41,-62.1 1286.87,-60.96 1288.47,-67.78"/>
</a>
</g>
</g>
<!-- Node9 -->
<g id="Node000009" class="node">
<title>Node9</title>
<g id="a_Node000009"><a xlink:href="classGameWorld.html#adc81260573ef130580a3c2a05bd460aa" target="_top" xlink:title="Handles tank&#45;tank collision.">
<polygon fill="white" stroke="#666666" points="1211,-67.5 1053,-67.5 1053,-37.5 1211,-37.5 1211,-67.5"/>
<text text-anchor="start" x="1061" y="-55.5" font-family="Helvetica,sans-Serif" font-size="10.00">GameWorld::handleTankTank</text>
<text text-anchor="middle" x="1132" y="-44.5" font-family="Helvetica,sans-Serif" font-size="10.00">Collision</text>
</a>
</g>
</g>
<!-- Node1&#45;&gt;Node9 -->
<g id="edge8_Node000001_Node000009" class="edge">
<title>Node1&#45;&gt;Node9</title>
<g id="a_edge8_Node000001_Node000009"><a xlink:title=" ">
<path fill="none" stroke="#63b8ff" d="M1257.39,-52.5C1242.19,-52.5 1226.34,-52.5 1211.24,-52.5"/>
<polygon fill="#63b8ff" stroke="#63b8ff" points="1257.78,-56 1267.78,-52.5 1257.78,-49 1257.78,-56"/>
</a>
</g>
</g>
<!-- Node11 -->
<g id="Node000011" class="node">
<title>Node11</title>
<g id="a_Node000011"><a xlink:href="classGameWorld.html#a49a5714c352312fbc4502adc5dfa8854" target="_top" xlink:title="Updates movement for specific enemy.">
<polygon fill="white" stroke="#666666" points="1232,-19 1032,-19 1032,0 1232,0 1232,-19"/>
<text text-anchor="middle" x="1132" y="-7" font-family="Helvetica,sans-Serif" font-size="10.00">GameWorld::updateEnemyMovement</text>
</a>
</g>
</g>
<!-- Node1&#45;&gt;Node11 -->
<g id="edge11_Node000001_Node000011" class="edge">
<title>Node1&#45;&gt;Node11</title>
<g id="a_edge11_Node000001_Node000011"><a xlink:title=" ">
<path fill="none" stroke="#63b8ff" d="M1287.55,-40.67C1269.97,-36.68 1250.15,-32.29 1232,-28.5 1216.5,-25.27 1199.58,-21.94 1184.19,-19"/>
<polygon fill="#63b8ff" stroke="#63b8ff" points="1287.07,-44.15 1297.6,-42.96 1288.63,-37.33 1287.07,-44.15"/>
</a>
</g>
</g>
<!-- Node3 -->
<g id="Node000003" class="node">
<title>Node3</title>
<g id="a_Node000003"><a xlink:href="classGameWorld.html#ab28f8bec4f78b7be44d509449508babb" target="_top" xlink:title="Checks tank&#45;obstacle collisions.">
<polygon fill="white" stroke="#666666" points="996,-115.5 823,-115.5 823,-85.5 996,-85.5 996,-115.5"/>
<text text-anchor="start" x="831" y="-103.5" font-family="Helvetica,sans-Serif" font-size="10.00">GameWorld::checkTankObstacle</text>
<text text-anchor="middle" x="909.5" y="-92.5" font-family="Helvetica,sans-Serif" font-size="10.00">Collisions</text>
</a>
</g>
</g>
<!-- Node2&#45;&gt;Node3 -->
<g id="edge2_Node000002_Node000003" class="edge">
<title>Node2&#45;&gt;Node3</title>
<g id="a_edge2_Node000002_Node000003"><a xlink:title=" ">
<path fill="none" stroke="#63b8ff" d="M1032.75,-100.5C1020.6,-100.5 1008.25,-100.5 996.3,-100.5"/>
<polygon fill="#63b8ff" stroke="#63b8ff" points="1032.9,-104 1042.9,-100.5 1032.9,-97 1032.9,-104"/>
</a>
</g>
</g>
<!-- Node4 -->
<g id="Node000004" class="node">
<title>Node4</title>
<g id="a_Node000004"><a xlink:href="classGameWorld.html#a2a5aaafc1c18521a4657d6a4a66c4d91" target="_top" xlink:title="Checks all types of collisions.">
<polygon fill="white" stroke="#666666" points="786,-62 631,-62 631,-43 786,-43 786,-62"/>
<text text-anchor="middle" x="708.5" y="-50" font-family="Helvetica,sans-Serif" font-size="10.00">GameWorld::checkCollisions</text>
</a>
</g>
</g>
<!-- Node3&#45;&gt;Node4 -->
<g id="edge3_Node000003_Node000004" class="edge">
<title>Node3&#45;&gt;Node4</title>
<g id="a_edge3_Node000003_Node000004"><a xlink:title=" ">
<path fill="none" stroke="#63b8ff" d="M836.26,-83.08C806.87,-75.99 774.04,-68.07 749.15,-62.06"/>
<polygon fill="#63b8ff" stroke="#63b8ff" points="835.54,-86.5 846.08,-85.44 837.18,-79.7 835.54,-86.5"/>
</a>
</g>
</g>
<!-- Node5 -->
<g id="Node000005" class="node">
<title>Node5</title>
<g id="a_Node000005"><a xlink:href="classGameWorld.html#ab645acf30cb0a4640a8fb5b88c5c7c94" target="_top" xlink:title="Updates all game objects and logic.">
<polygon fill="white" stroke="#666666" points="594,-40 481,-40 481,-21 594,-21 594,-40"/>
<text text-anchor="middle" x="537.5" y="-28" font-family="Helvetica,sans-Serif" font-size="10.00">GameWorld::update</text>
</a>
</g>
</g>
<!-- Node4&#45;&gt;Node5 -->
<g id="edge4_Node000004_Node000005" class="edge">
<title>Node4&#45;&gt;Node5</title>
<g id="a_edge4_Node000004_Node000005"><a xlink:title=" ">
<path fill="none" stroke="#63b8ff" d="M624.2,-41.66C614.02,-40.33 603.81,-39 594.17,-37.75"/>
<polygon fill="#63b8ff" stroke="#63b8ff" points="623.99,-45.16 634.36,-42.98 624.89,-38.22 623.99,-45.16"/>
</a>
</g>
</g>
<!-- Node6 -->
<g id="Node000006" class="node">
<title>Node6</title>
<g id="a_Node000006"><a xlink:href="classGameController.html#af2367e58f03d8a1441c9a574967fd360" target="_top" xlink:title="Processes a single game turn/update cycle.">
<polygon fill="white" stroke="#666666" points="445,-40 258,-40 258,-21 445,-21 445,-40"/>
<text text-anchor="middle" x="351.5" y="-28" font-family="Helvetica,sans-Serif" font-size="10.00">GameController::processGameTurn</text>
</a>
</g>
</g>
<!-- Node5&#45;&gt;Node6 -->
<g id="edge5_Node000005_Node000006" class="edge">
<title>Node5&#45;&gt;Node6</title>
<g id="a_edge5_Node000005_Node000006"><a xlink:title=" ">
<path fill="none" stroke="#63b8ff" d="M470.78,-30.5C462.43,-30.5 453.76,-30.5 445.08,-30.5"/>
<polygon fill="#63b8ff" stroke="#63b8ff" points="470.79,-34 480.79,-30.5 470.79,-27 470.79,-34"/>
</a>
</g>
</g>
<!-- Node7 -->
<g id="Node000007" class="node">
<title>Node7</title>
<g id="a_Node000007"><a xlink:href="classGameController.html#ac958989c8f7f08488546930e5fcb0d82" target="_top" xlink:title="Starts and runs the main game loop.">
<polygon fill="white" stroke="#666666" points="222,-40 77,-40 77,-21 222,-21 222,-40"/>
<text text-anchor="middle" x="149.5" y="-28" font-family="Helvetica,sans-Serif" font-size="10.00">GameController::runGame</text>
</a>
</g>
</g>
<!-- Node6&#45;&gt;Node7 -->
<g id="edge6_Node000006_Node000007" class="edge">
<title>Node6&#45;&gt;Node7</title>
<g id="a_edge6_Node000006_Node000007"><a xlink:title=" ">
<path fill="none" stroke="#63b8ff" d="M247.71,-30.5C239.1,-30.5 230.52,-30.5 222.22,-30.5"/>
<polygon fill="#63b8ff" stroke="#63b8ff" points="247.82,-34 257.82,-30.5 247.82,-27 247.82,-34"/>
</a>
</g>
</g>
<!-- Node8 -->
<g id="Node000008" class="node">
<title>Node8</title>
<g id="a_Node000008"><a xlink:href="main_8cpp.html#ae66f6b31b5ad750f1fe042a706a4e3d4" target="_top" xlink:title="Main function that serves as the application entry point.">
<polygon fill="white" stroke="#666666" points="41,-40 0,-40 0,-21 41,-21 41,-40"/>
<text text-anchor="middle" x="20.5" y="-28" font-family="Helvetica,sans-Serif" font-size="10.00">main</text>
</a>
</g>
</g>
<!-- Node7&#45;&gt;Node8 -->
<g id="edge7_Node000007_Node000008" class="edge">
<title>Node7&#45;&gt;Node8</title>
<g id="a_edge7_Node000007_Node000008"><a xlink:title=" ">
<path fill="none" stroke="#63b8ff" d="M66.79,-30.5C57.31,-30.5 48.43,-30.5 41.08,-30.5"/>
<polygon fill="#63b8ff" stroke="#63b8ff" points="66.83,-34 76.83,-30.5 66.83,-27 66.83,-34"/>
</a>
</g>
</g>
<!-- Node10 -->
<g id="Node000010" class="node">
<title>Node10</title>
<g id="a_Node000010"><a xlink:href="classGameWorld.html#aba83e6f4f714c9f590f4cb8078cd9a2b" target="_top" xlink:title="Checks tank&#45;tank collisions.">
<polygon fill="white" stroke="#666666" points="986,-67.5 833,-67.5 833,-37.5 986,-37.5 986,-67.5"/>
<text text-anchor="start" x="841" y="-55.5" font-family="Helvetica,sans-Serif" font-size="10.00">GameWorld::checkTankTank</text>
<text text-anchor="middle" x="909.5" y="-44.5" font-family="Helvetica,sans-Serif" font-size="10.00">Collisions</text>
</a>
</g>
</g>
<!-- Node9&#45;&gt;Node10 -->
<g id="edge9_Node000009_Node000010" class="edge">
<title>Node9&#45;&gt;Node10</title>
<g id="a_edge9_Node000009_Node000010"><a xlink:title=" ">
<path fill="none" stroke="#63b8ff" d="M1042.93,-52.5C1024.15,-52.5 1004.49,-52.5 986.22,-52.5"/>
<polygon fill="#63b8ff" stroke="#63b8ff" points="1042.95,-56 1052.95,-52.5 1042.95,-49 1042.95,-56"/>
</a>
</g>
</g>
<!-- Node10&#45;&gt;Node4 -->
<g id="edge10_Node000010_Node000004" class="edge">
<title>Node10&#45;&gt;Node4</title>
<g id="a_edge10_Node000010_Node000004"><a xlink:title=" ">
<path fill="none" stroke="#63b8ff" d="M822.85,-52.5C810.7,-52.5 798.26,-52.5 786.29,-52.5"/>
<polygon fill="#63b8ff" stroke="#63b8ff" points="822.98,-56 832.98,-52.5 822.98,-49 822.98,-56"/>
</a>
</g>
</g>
<!-- Node12 -->
<g id="Node000012" class="node">
<title>Node12</title>
<g id="a_Node000012"><a xlink:href="classGameWorld.html#a48cb994868f422ae759b15f3b9c861b6" target="_top" xlink:title="Updates AI for all enemies.">
<polygon fill="white" stroke="#666666" points="787,-22 630,-22 630,-3 787,-3 787,-22"/>
<text text-anchor="middle" x="708.5" y="-10" font-family="Helvetica,sans-Serif" font-size="10.00">GameWorld::updateEnemyAI</text>
</a>
</g>
</g>
<!-- Node11&#45;&gt;Node12 -->
<g id="edge12_Node000011_Node000012" class="edge">
<title>Node11&#45;&gt;Node12</title>
<g id="a_edge12_Node000011_Node000012"><a xlink:title=" ">
<path fill="none" stroke="#63b8ff" d="M1021.69,-10.28C948.19,-10.8 853.07,-11.48 787.24,-11.95"/>
<polygon fill="#63b8ff" stroke="#63b8ff" points="1021.94,-13.78 1031.91,-10.21 1021.89,-6.78 1021.94,-13.78"/>
</a>
</g>
</g>
<!-- Node12&#45;&gt;Node5 -->
<g id="edge13_Node000012_Node000005" class="edge">
<title>Node12&#45;&gt;Node5</title>
<g id="a_edge13_Node000012_Node000005"><a xlink:title=" ">
<path fill="none" stroke="#63b8ff" d="M619.8,-21.84C611.17,-22.76 602.59,-23.67 594.41,-24.54"/>
<polygon fill="#63b8ff" stroke="#63b8ff" points="620.35,-25.3 629.92,-20.76 619.61,-18.34 620.35,-25.3"/>
</a>
</g>
</g>
</g>
</svg>

<g id="navigator" transform="translate(0 0)" fill="#404254">
  <rect fill="#f2f5e9" fill-opacity="0.5" stroke="#606060" stroke-width=".5" x="0" y="0" width="60" height="60"/>
  <use id="zoomplus" xlink:href="#zoomPlus" x="17" y="9" onmousedown="handleZoom(evt,'in')"/>
  <use id="zoomminus" xlink:href="#zoomMin" x="42" y="9" onmousedown="handleZoom(evt,'out')"/>
  <use id="reset" xlink:href="#resetDef" x="30" y="36" onmousedown="handleReset()"/>
   <use id="arrowup" xlink:href="#arrowUp" x="0" y="0" onmousedown="handlePan(0,-1)"/>
  <use id="arrowright" xlink:href="#arrowRight" x="0" y="0" onmousedown="handlePan(1,0)"/>
  <use id="arrowdown" xlink:href="#arrowDown" x="0" y="0" onmousedown="handlePan(0,1)"/>
  <use id="arrowleft" xlink:href="#arrowLeft" x="0" y="0" onmousedown="handlePan(-1,0)"/>
</g>
<svg viewBox="0 0 15 15" width="100%" height="30px" preserveAspectRatio="xMaxYMin meet">
 <g id="arrow_out" transform="scale(0.3 0.3)">
  <a xlink:href="classGameObject_a650b9622507919864b54aadcaab92110_icgraph_org.svg" target="_base">
   <rect id="button" ry="5" rx="5" y="6" x="6" height="38" width="38"
        fill="#f2f5e9" fill-opacity="0.5" stroke="#606060" stroke-width="1.0"/>
   <path id="arrow"
     d="M 11.500037,31.436501 C 11.940474,20.09759 22.043105,11.32322 32.158766,21.979434 L 37.068811,17.246167 C 37.068811,17.246167 37.088388,32 37.088388,32 L 22.160133,31.978069 C 22.160133,31.978069 26.997745,27.140456 26.997745,27.140456 C 18.528582,18.264221 13.291696,25.230495 11.500037,31.436501 z"
     style="fill:#404040;"/>
  </a>
 </g>
</svg>

<style type='text/css'>
<![CDATA[
[data-mouse-over-selected='false'] { opacity: 0.7; }
[data-mouse-over-selected='true']  { opacity: 1.0; }
]]>
</style>
<script type="application/ecmascript"><![CDATA[
document.addEventListener('DOMContentLoaded', (event) => {
  highlightEdges();
  highlightAdjacentNodes();
});
]]></script>
</svg>
