<?xml version="1.0" encoding="UTF-8" standalone="no"?>
<!DOCTYPE svg PUBLIC "-//W3C//DTD SVG 1.1//EN"
 "http://www.w3.org/Graphics/SVG/1.1/DTD/svg11.dtd">
<!-- Generated by graphviz version 2.43.0 (0)
 -->
<!-- Title: ConsoleRenderer::checkTerminalSize Pages: 1 -->
<svg width="1736pt" height="479pt"
 viewBox="0.00 0.00 1736.00 479.15" xmlns="http://www.w3.org/2000/svg" xmlns:xlink="http://www.w3.org/1999/xlink">
<g id="graph0" class="graph" transform="scale(1 1) rotate(0) translate(4 475.15)">
<title>ConsoleRenderer::checkTerminalSize</title>
<!-- Node1 -->
<g id="Node000001" class="node">
<title>Node1</title>
<g id="a_Node000001"><a xlink:title="Checks if terminal size meets requirements.">
<polygon fill="#999999" stroke="#666666" points="1728,-275.65 1531,-275.65 1531,-256.65 1728,-256.65 1728,-275.65"/>
<text text-anchor="middle" x="1629.5" y="-263.65" font-family="Helvetica,sans-Serif" font-size="10.00">ConsoleRenderer::checkTerminalSize</text>
</a>
</g>
</g>
<!-- Node2 -->
<g id="Node000002" class="node">
<title>Node2</title>
<g id="a_Node000002"><a xlink:href="classConsoleRenderer.html#a38306106200aabcfd90f6fe0552e18ea" target="_top" xlink:title="Draws game over screen.">
<polygon fill="white" stroke="#666666" points="666,-83.65 484,-83.65 484,-64.65 666,-64.65 666,-83.65"/>
<text text-anchor="middle" x="575" y="-71.65" font-family="Helvetica,sans-Serif" font-size="10.00">ConsoleRenderer::drawGameOver</text>
</a>
</g>
</g>
<!-- Node1&#45;&gt;Node2 -->
<g id="edge1_Node000001_Node000002" class="edge">
<title>Node1&#45;&gt;Node2</title>
<g id="a_edge1_Node000001_Node000002"><a xlink:title=" ">
<path fill="none" stroke="#63b8ff" d="M1614.58,-248.67C1592.28,-221.89 1545.85,-171.01 1495,-144.15 1371.65,-79 1329,-72.15 1189.5,-72.15 1189.5,-72.15 1189.5,-72.15 977,-72.15 870.31,-72.15 747.65,-72.87 666.38,-73.44"/>
<polygon fill="#63b8ff" stroke="#63b8ff" points="1611.91,-250.93 1620.95,-256.46 1617.33,-246.5 1611.91,-250.93"/>
</a>
</g>
</g>
<!-- Node4 -->
<g id="Node000004" class="node">
<title>Node4</title>
<g id="a_Node000004"><a xlink:href="classGameController.html#ac958989c8f7f08488546930e5fcb0d82" target="_top" xlink:title="Starts and runs the main game loop.">
<polygon fill="white" stroke="#666666" points="222,-319.65 77,-319.65 77,-300.65 222,-300.65 222,-319.65"/>
<text text-anchor="middle" x="149.5" y="-307.65" font-family="Helvetica,sans-Serif" font-size="10.00">GameController::runGame</text>
</a>
</g>
</g>
<!-- Node1&#45;&gt;Node4 -->
<g id="edge36_Node000001_Node000004" class="edge">
<title>Node1&#45;&gt;Node4</title>
<g id="a_edge36_Node000001_Node000004"><a xlink:title=" ">
<path fill="none" stroke="#63b8ff" d="M1614.89,-283.53C1592.68,-310.72 1546,-363.16 1495,-392.15 1373.07,-461.44 1329.74,-471.15 1189.5,-471.15 1189.5,-471.15 1189.5,-471.15 574,-471.15 402.53,-471.15 215.99,-354.4 164.39,-319.74"/>
<polygon fill="#63b8ff" stroke="#63b8ff" points="1617.68,-285.65 1621.21,-275.66 1612.22,-281.26 1617.68,-285.65"/>
</a>
</g>
</g>
<!-- Node6 -->
<g id="Node000006" class="node">
<title>Node6</title>
<g id="a_Node000006"><a xlink:href="classConsoleRenderer.html#a8c9ea938ec7728f1f3436a0a9d944cf2" target="_top" xlink:title="Draws level completion screen.">
<polygon fill="white" stroke="#666666" points="1266.5,-443.15 1110.5,-443.15 1110.5,-413.15 1266.5,-413.15 1266.5,-443.15"/>
<text text-anchor="start" x="1118.5" y="-431.15" font-family="Helvetica,sans-Serif" font-size="10.00">ConsoleRenderer::drawLevel</text>
<text text-anchor="middle" x="1188.5" y="-420.15" font-family="Helvetica,sans-Serif" font-size="10.00">Complete</text>
</a>
</g>
</g>
<!-- Node1&#45;&gt;Node6 -->
<g id="edge5_Node000001_Node000006" class="edge">
<title>Node1&#45;&gt;Node6</title>
<g id="a_edge5_Node000001_Node000006"><a xlink:title=" ">
<path fill="none" stroke="#63b8ff" d="M1608.37,-282.16C1583.23,-301.41 1538.24,-333.46 1495,-352.15 1420.63,-384.3 1329.94,-404.7 1266.78,-416.18"/>
<polygon fill="#63b8ff" stroke="#63b8ff" points="1610.65,-284.82 1616.4,-275.93 1606.35,-279.29 1610.65,-284.82"/>
</a>
</g>
</g>
<!-- Node8 -->
<g id="Node000008" class="node">
<title>Node8</title>
<g id="a_Node000008"><a xlink:href="classConsoleRenderer.html#afd03640670c991dfa8240af639c2f0da" target="_top" xlink:title="Draws map selection screen.">
<polygon fill="white" stroke="#666666" points="1483,-233.15 1332,-233.15 1332,-203.15 1483,-203.15 1483,-233.15"/>
<text text-anchor="start" x="1340" y="-221.15" font-family="Helvetica,sans-Serif" font-size="10.00">ConsoleRenderer::drawMap</text>
<text text-anchor="middle" x="1407.5" y="-210.15" font-family="Helvetica,sans-Serif" font-size="10.00">Selection</text>
</a>
</g>
</g>
<!-- Node1&#45;&gt;Node8 -->
<g id="edge8_Node000001_Node000008" class="edge">
<title>Node1&#45;&gt;Node8</title>
<g id="a_edge8_Node000001_Node000008"><a xlink:title=" ">
<path fill="none" stroke="#63b8ff" d="M1574.71,-254.41C1545.35,-248.01 1508.69,-240.01 1477.27,-233.15"/>
<polygon fill="#63b8ff" stroke="#63b8ff" points="1574.26,-257.9 1584.77,-256.61 1575.75,-251.06 1574.26,-257.9"/>
</a>
</g>
</g>
<!-- Node13 -->
<g id="Node000013" class="node">
<title>Node13</title>
<g id="a_Node000013"><a xlink:href="classConsoleRenderer.html#aa9273ce964dc1492d66a30b772213e81" target="_top" xlink:title="Draws main menu screen.">
<polygon fill="white" stroke="#666666" points="1267,-356.65 1110,-356.65 1110,-337.65 1267,-337.65 1267,-356.65"/>
<text text-anchor="middle" x="1188.5" y="-344.65" font-family="Helvetica,sans-Serif" font-size="10.00">ConsoleRenderer::drawMenu</text>
</a>
</g>
</g>
<!-- Node1&#45;&gt;Node13 -->
<g id="edge19_Node000001_Node000013" class="edge">
<title>Node1&#45;&gt;Node13</title>
<g id="a_edge19_Node000001_Node000013"><a xlink:title=" ">
<path fill="none" stroke="#63b8ff" d="M1604,-280.95C1577.98,-295.82 1535.15,-317.96 1495,-328.15 1419.28,-347.36 1329.79,-350.77 1267.31,-350.2"/>
<polygon fill="#63b8ff" stroke="#63b8ff" points="1605.9,-283.89 1612.78,-275.83 1602.38,-277.84 1605.9,-283.89"/>
</a>
</g>
</g>
<!-- Node14 -->
<g id="Node000014" class="node">
<title>Node14</title>
<g id="a_Node000014"><a xlink:href="classConsoleRenderer.html#a678f6e7177b2d466b8953d4f01bb7436" target="_top" xlink:title="Draws pause screen.">
<polygon fill="white" stroke="#666666" points="1057,-130.15 899,-130.15 899,-100.15 1057,-100.15 1057,-130.15"/>
<text text-anchor="start" x="907" y="-118.15" font-family="Helvetica,sans-Serif" font-size="10.00">ConsoleRenderer::drawPause</text>
<text text-anchor="middle" x="978" y="-107.15" font-family="Helvetica,sans-Serif" font-size="10.00">Screen</text>
</a>
</g>
</g>
<!-- Node1&#45;&gt;Node14 -->
<g id="edge21_Node000001_Node000014" class="edge">
<title>Node1&#45;&gt;Node14</title>
<g id="a_edge21_Node000001_Node000014"><a xlink:title=" ">
<path fill="none" stroke="#63b8ff" d="M1605.17,-251.11C1579.2,-234.97 1535.55,-209.58 1495,-194.15 1346.99,-137.82 1160.61,-121.58 1057.21,-116.95"/>
<polygon fill="#63b8ff" stroke="#63b8ff" points="1603.57,-254.24 1613.9,-256.61 1607.3,-248.32 1603.57,-254.24"/>
</a>
</g>
</g>
<!-- Node15 -->
<g id="Node000015" class="node">
<title>Node15</title>
<g id="a_Node000015"><a xlink:href="classConsoleRenderer.html#a0e17aa687bd8d7381b2bf8425b2a9709" target="_top" xlink:title="Draws settings screen.">
<polygon fill="white" stroke="#666666" points="1492.5,-318.65 1322.5,-318.65 1322.5,-299.65 1492.5,-299.65 1492.5,-318.65"/>
<text text-anchor="middle" x="1407.5" y="-306.65" font-family="Helvetica,sans-Serif" font-size="10.00">ConsoleRenderer::drawSettings</text>
</a>
</g>
</g>
<!-- Node1&#45;&gt;Node15 -->
<g id="edge24_Node000001_Node000015" class="edge">
<title>Node1&#45;&gt;Node15</title>
<g id="a_edge24_Node000001_Node000015"><a xlink:title=" ">
<path fill="none" stroke="#63b8ff" d="M1569.55,-277.67C1534.41,-284.54 1490.34,-293.15 1457.19,-299.63"/>
<polygon fill="#63b8ff" stroke="#63b8ff" points="1570.53,-281.05 1579.67,-275.69 1569.19,-274.18 1570.53,-281.05"/>
</a>
</g>
</g>
<!-- Node17 -->
<g id="Node000017" class="node">
<title>Node17</title>
<g id="a_Node000017"><a xlink:href="classGameController.html#a19dc0995b5ee51a87bf49dff90f4e991" target="_top" xlink:title="Handles terminal resize events.">
<polygon fill="white" stroke="#666666" points="1495,-281.15 1320,-281.15 1320,-251.15 1495,-251.15 1495,-281.15"/>
<text text-anchor="start" x="1328" y="-269.15" font-family="Helvetica,sans-Serif" font-size="10.00">GameController::handleTerminal</text>
<text text-anchor="middle" x="1407.5" y="-258.15" font-family="Helvetica,sans-Serif" font-size="10.00">Resize</text>
</a>
</g>
</g>
<!-- Node1&#45;&gt;Node17 -->
<g id="edge27_Node000001_Node000017" class="edge">
<title>Node1&#45;&gt;Node17</title>
<g id="a_edge27_Node000001_Node000017"><a xlink:title=" ">
<path fill="none" stroke="#63b8ff" d="M1520.72,-266.15C1512.18,-266.15 1503.62,-266.15 1495.25,-266.15"/>
<polygon fill="#63b8ff" stroke="#63b8ff" points="1520.72,-269.65 1530.72,-266.15 1520.72,-262.65 1520.72,-269.65"/>
</a>
</g>
</g>
<!-- Node18 -->
<g id="Node000018" class="node">
<title>Node18</title>
<g id="a_Node000018"><a xlink:href="classConsoleRenderer.html#ab34fa7af4ede79de3951f1d5271d7a27" target="_top" xlink:title="Renders the game world to console.">
<polygon fill="white" stroke="#666666" points="1046.5,-43.65 909.5,-43.65 909.5,-24.65 1046.5,-24.65 1046.5,-43.65"/>
<text text-anchor="middle" x="978" y="-31.65" font-family="Helvetica,sans-Serif" font-size="10.00">ConsoleRenderer::render</text>
</a>
</g>
</g>
<!-- Node1&#45;&gt;Node18 -->
<g id="edge34_Node000001_Node000018" class="edge">
<title>Node1&#45;&gt;Node18</title>
<g id="a_edge34_Node000001_Node000018"><a xlink:title=" ">
<path fill="none" stroke="#63b8ff" d="M1622.72,-246.56C1608.85,-203.48 1569.19,-100.96 1495,-58.15 1338.67,32.05 1109.24,-4.74 1018.26,-24.6"/>
<polygon fill="#63b8ff" stroke="#63b8ff" points="1619.46,-247.86 1625.76,-256.38 1626.15,-245.79 1619.46,-247.86"/>
</a>
</g>
</g>
<!-- Node3 -->
<g id="Node000003" class="node">
<title>Node3</title>
<g id="a_Node000003"><a xlink:href="classGameController.html#af2367e58f03d8a1441c9a574967fd360" target="_top" xlink:title="Processes a single game turn/update cycle.">
<polygon fill="white" stroke="#666666" points="445,-167.65 258,-167.65 258,-148.65 445,-148.65 445,-167.65"/>
<text text-anchor="middle" x="351.5" y="-155.65" font-family="Helvetica,sans-Serif" font-size="10.00">GameController::processGameTurn</text>
</a>
</g>
</g>
<!-- Node2&#45;&gt;Node3 -->
<g id="edge2_Node000002_Node000003" class="edge">
<title>Node2&#45;&gt;Node3</title>
<g id="a_edge2_Node000002_Node000003"><a xlink:title=" ">
<path fill="none" stroke="#63b8ff" d="M530.58,-86.68C514.85,-91.49 497.01,-97.24 481,-103.15 442.3,-117.43 398.33,-136.99 373.16,-148.53"/>
<polygon fill="#63b8ff" stroke="#63b8ff" points="532.02,-89.91 540.58,-83.67 530,-83.21 532.02,-89.91"/>
</a>
</g>
</g>
<!-- Node3&#45;&gt;Node4 -->
<g id="edge3_Node000003_Node000004" class="edge">
<title>Node3&#45;&gt;Node4</title>
<g id="a_edge3_Node000003_Node000004"><a xlink:title=" ">
<path fill="none" stroke="#63b8ff" d="M329.98,-173.74C288.67,-205.14 196.53,-275.16 163.01,-300.65"/>
<polygon fill="#63b8ff" stroke="#63b8ff" points="332.15,-176.5 337.99,-167.66 327.91,-170.92 332.15,-176.5"/>
</a>
</g>
</g>
<!-- Node5 -->
<g id="Node000005" class="node">
<title>Node5</title>
<g id="a_Node000005"><a xlink:href="main_8cpp.html#ae66f6b31b5ad750f1fe042a706a4e3d4" target="_top" xlink:title="Main function that serves as the application entry point.">
<polygon fill="white" stroke="#666666" points="41,-319.65 0,-319.65 0,-300.65 41,-300.65 41,-319.65"/>
<text text-anchor="middle" x="20.5" y="-307.65" font-family="Helvetica,sans-Serif" font-size="10.00">main</text>
</a>
</g>
</g>
<!-- Node4&#45;&gt;Node5 -->
<g id="edge4_Node000004_Node000005" class="edge">
<title>Node4&#45;&gt;Node5</title>
<g id="a_edge4_Node000004_Node000005"><a xlink:title=" ">
<path fill="none" stroke="#63b8ff" d="M66.79,-310.15C57.31,-310.15 48.43,-310.15 41.08,-310.15"/>
<polygon fill="#63b8ff" stroke="#63b8ff" points="66.83,-313.65 76.83,-310.15 66.83,-306.65 66.83,-313.65"/>
</a>
</g>
</g>
<!-- Node7 -->
<g id="Node000007" class="node">
<title>Node7</title>
<g id="a_Node000007"><a xlink:href="classGameController.html#a85bcf4ecfd197aad278e116215a3717b" target="_top" xlink:title="Displays level completion screen.">
<polygon fill="white" stroke="#666666" points="860,-391.15 708,-391.15 708,-361.15 860,-361.15 860,-391.15"/>
<text text-anchor="start" x="716" y="-379.15" font-family="Helvetica,sans-Serif" font-size="10.00">GameController::showLevel</text>
<text text-anchor="middle" x="784" y="-368.15" font-family="Helvetica,sans-Serif" font-size="10.00">CompleteScreen</text>
</a>
</g>
</g>
<!-- Node6&#45;&gt;Node7 -->
<g id="edge6_Node000006_Node000007" class="edge">
<title>Node6&#45;&gt;Node7</title>
<g id="a_edge6_Node000006_Node000007"><a xlink:title=" ">
<path fill="none" stroke="#63b8ff" d="M1100.28,-421.64C1042.91,-416.81 966.27,-409.29 899,-399.15 884.33,-396.94 868.68,-394.1 853.83,-391.18"/>
<polygon fill="#63b8ff" stroke="#63b8ff" points="1100.15,-425.14 1110.4,-422.48 1100.73,-418.17 1100.15,-425.14"/>
</a>
</g>
</g>
<!-- Node7&#45;&gt;Node3 -->
<g id="edge7_Node000007_Node000003" class="edge">
<title>Node7&#45;&gt;Node3</title>
<g id="a_edge7_Node000007_Node000003"><a xlink:title=" ">
<path fill="none" stroke="#63b8ff" d="M739.13,-356.81C679.84,-330.35 571.17,-280.7 481,-233.15 439.42,-211.22 392.01,-182.56 368.08,-167.83"/>
<polygon fill="#63b8ff" stroke="#63b8ff" points="738,-360.14 748.56,-361.01 740.85,-353.74 738,-360.14"/>
</a>
</g>
</g>
<!-- Node9 -->
<g id="Node000009" class="node">
<title>Node9</title>
<g id="a_Node000009"><a xlink:href="classGameController.html#a4a9c94fe33cf6c73bb5dfc415d04d309" target="_top" xlink:title="Displays map selection screen.">
<polygon fill="white" stroke="#666666" points="1284,-243.65 1093,-243.65 1093,-224.65 1284,-224.65 1284,-243.65"/>
<text text-anchor="middle" x="1188.5" y="-231.65" font-family="Helvetica,sans-Serif" font-size="10.00">GameController::showMapSelection</text>
</a>
</g>
</g>
<!-- Node8&#45;&gt;Node9 -->
<g id="edge9_Node000008_Node000009" class="edge">
<title>Node8&#45;&gt;Node9</title>
<g id="a_edge9_Node000008_Node000009"><a xlink:title=" ">
<path fill="none" stroke="#63b8ff" d="M1321.64,-224.41C1309.37,-225.31 1296.69,-226.25 1284.25,-227.16"/>
<polygon fill="#63b8ff" stroke="#63b8ff" points="1322.11,-227.88 1331.82,-223.66 1321.59,-220.9 1322.11,-227.88"/>
</a>
</g>
</g>
<!-- Node10 -->
<g id="Node000010" class="node">
<title>Node10</title>
<g id="a_Node000010"><a xlink:href="classGameController.html#a971b3d8f6296a74f0bebc83b5e79c186" target="_top" xlink:title="Processes a user command.">
<polygon fill="white" stroke="#666666" points="669,-224.65 481,-224.65 481,-205.65 669,-205.65 669,-224.65"/>
<text text-anchor="middle" x="575" y="-212.65" font-family="Helvetica,sans-Serif" font-size="10.00">GameController::processCommand</text>
</a>
</g>
</g>
<!-- Node9&#45;&gt;Node10 -->
<g id="edge10_Node000009_Node000010" class="edge">
<title>Node9&#45;&gt;Node10</title>
<g id="a_edge10_Node000009_Node000010"><a xlink:title=" ">
<path fill="none" stroke="#63b8ff" d="M1082.63,-230.89C966.35,-227.28 780.55,-221.51 669.2,-218.05"/>
<polygon fill="#63b8ff" stroke="#63b8ff" points="1082.85,-234.4 1092.96,-231.21 1083.07,-227.4 1082.85,-234.4"/>
</a>
</g>
</g>
<!-- Node11 -->
<g id="Node000011" class="node">
<title>Node11</title>
<g id="a_Node000011"><a xlink:href="classGameController.html#a9d11b5a6255b7249bddba49df0837cf3" target="_top" xlink:title="Displays and manages the main menu.">
<polygon fill="white" stroke="#666666" points="1054,-281.65 902,-281.65 902,-262.65 1054,-262.65 1054,-281.65"/>
<text text-anchor="middle" x="978" y="-269.65" font-family="Helvetica,sans-Serif" font-size="10.00">GameController::showMenu</text>
</a>
</g>
</g>
<!-- Node9&#45;&gt;Node11 -->
<g id="edge12_Node000009_Node000011" class="edge">
<title>Node9&#45;&gt;Node11</title>
<g id="a_edge12_Node000009_Node000011"><a xlink:title=" ">
<path fill="none" stroke="#63b8ff" d="M1088.57,-245.44C1057.95,-250.93 1026.72,-257.31 1005.47,-262.65"/>
<polygon fill="#63b8ff" stroke="#63b8ff" points="1089.23,-248.88 1098.47,-243.69 1088.02,-241.98 1089.23,-248.88"/>
</a>
</g>
</g>
<!-- Node10&#45;&gt;Node3 -->
<g id="edge11_Node000010_Node000003" class="edge">
<title>Node10&#45;&gt;Node3</title>
<g id="a_edge11_Node000010_Node000003"><a xlink:title=" ">
<path fill="none" stroke="#63b8ff" d="M527.18,-203.1C486.22,-192.56 427.51,-177.45 389.7,-167.72"/>
<polygon fill="#63b8ff" stroke="#63b8ff" points="526.37,-206.51 536.93,-205.61 528.11,-199.73 526.37,-206.51"/>
</a>
</g>
</g>
<!-- Node11&#45;&gt;Node4 -->
<g id="edge16_Node000011_Node000004" class="edge">
<title>Node11&#45;&gt;Node4</title>
<g id="a_edge16_Node000011_Node000004"><a xlink:title=" ">
<path fill="none" stroke="#63b8ff" d="M891.83,-276.07C728.52,-283.57 374.12,-299.87 222.1,-306.86"/>
<polygon fill="#63b8ff" stroke="#63b8ff" points="892,-279.56 901.83,-275.61 891.68,-272.57 892,-279.56"/>
</a>
</g>
</g>
<!-- Node11&#45;&gt;Node7 -->
<g id="edge17_Node000011_Node000007" class="edge">
<title>Node11&#45;&gt;Node7</title>
<g id="a_edge17_Node000011_Node000007"><a xlink:title=" ">
<path fill="none" stroke="#63b8ff" d="M950.28,-286.62C914.03,-306.26 849.58,-341.17 812.79,-361.1"/>
<polygon fill="#63b8ff" stroke="#63b8ff" points="952.16,-289.59 959.28,-281.75 948.82,-283.43 952.16,-289.59"/>
</a>
</g>
</g>
<!-- Node11&#45;&gt;Node9 -->
<g id="edge18_Node000011_Node000009" class="edge">
<title>Node11&#45;&gt;Node9</title>
<g id="a_edge18_Node000011_Node000009"><a xlink:title=" ">
<path fill="none" stroke="#63b8ff" d="M1064.29,-263.26C1098.83,-257.33 1136.24,-249.86 1160.67,-243.74"/>
<polygon fill="#63b8ff" stroke="#63b8ff" points="1063.44,-259.85 1054.16,-264.96 1064.6,-266.75 1063.44,-259.85"/>
</a>
</g>
</g>
<!-- Node11&#45;&gt;Node10 -->
<g id="edge15_Node000011_Node000010" class="edge">
<title>Node11&#45;&gt;Node10</title>
<g id="a_edge15_Node000011_Node000010"><a xlink:title=" ">
<path fill="none" stroke="#63b8ff" d="M891.64,-268.18C837.81,-264.8 767.01,-258.74 705,-248.15 671.16,-242.37 633.17,-232.19 607.24,-224.66"/>
<polygon fill="#63b8ff" stroke="#63b8ff" points="891.63,-271.69 901.83,-268.8 892.06,-264.7 891.63,-271.69"/>
</a>
</g>
</g>
<!-- Node12 -->
<g id="Node000012" class="node">
<title>Node12</title>
<g id="a_Node000012"><a xlink:href="classGameController.html#a637ea4e72ed2be4a2884b30160b3e8ab" target="_top" xlink:title="Pauses the game and displays pause screen.">
<polygon fill="white" stroke="#666666" points="863,-205.65 705,-205.65 705,-186.65 863,-186.65 863,-205.65"/>
<text text-anchor="middle" x="784" y="-193.65" font-family="Helvetica,sans-Serif" font-size="10.00">GameController::pauseGame</text>
</a>
</g>
</g>
<!-- Node11&#45;&gt;Node12 -->
<g id="edge13_Node000011_Node000012" class="edge">
<title>Node11&#45;&gt;Node12</title>
<g id="a_edge13_Node000011_Node000012"><a xlink:title=" ">
<path fill="none" stroke="#63b8ff" d="M942.97,-258.68C904.52,-243.46 842.91,-219.07 809.12,-205.7"/>
<polygon fill="#63b8ff" stroke="#63b8ff" points="942.1,-262.1 952.68,-262.52 944.67,-255.59 942.1,-262.1"/>
</a>
</g>
</g>
<!-- Node12&#45;&gt;Node10 -->
<g id="edge14_Node000012_Node000010" class="edge">
<title>Node12&#45;&gt;Node10</title>
<g id="a_edge14_Node000012_Node000010"><a xlink:title=" ">
<path fill="none" stroke="#63b8ff" d="M694.62,-204.26C686.25,-205.03 677.75,-205.81 669.34,-206.58"/>
<polygon fill="#63b8ff" stroke="#63b8ff" points="695.1,-207.73 704.74,-203.33 694.46,-200.76 695.1,-207.73"/>
</a>
</g>
</g>
<!-- Node13&#45;&gt;Node11 -->
<g id="edge20_Node000013_Node000011" class="edge">
<title>Node13&#45;&gt;Node11</title>
<g id="a_edge20_Node000013_Node000011"><a xlink:title=" ">
<path fill="none" stroke="#63b8ff" d="M1114.39,-335.32C1107.09,-333.51 1099.85,-331.47 1093,-329.15 1056.11,-316.68 1016.06,-294.41 994.63,-281.72"/>
<polygon fill="#63b8ff" stroke="#63b8ff" points="1113.82,-338.78 1124.35,-337.63 1115.4,-331.96 1113.82,-338.78"/>
</a>
</g>
</g>
<!-- Node14&#45;&gt;Node3 -->
<g id="edge23_Node000014_Node000003" class="edge">
<title>Node14&#45;&gt;Node3</title>
<g id="a_edge23_Node000014_Node000003"><a xlink:title=" ">
<path fill="none" stroke="#63b8ff" d="M888.45,-118.99C789.16,-123.6 623.38,-132.24 481,-144.15 465.79,-145.42 449.6,-147.01 434.01,-148.65"/>
<polygon fill="#63b8ff" stroke="#63b8ff" points="888.91,-122.47 898.74,-118.51 888.59,-115.48 888.91,-122.47"/>
</a>
</g>
</g>
<!-- Node14&#45;&gt;Node12 -->
<g id="edge22_Node000014_Node000012" class="edge">
<title>Node14&#45;&gt;Node12</title>
<g id="a_edge22_Node000014_Node000012"><a xlink:title=" ">
<path fill="none" stroke="#63b8ff" d="M931.77,-134.23C892.73,-150.7 837.95,-173.81 807.56,-186.63"/>
<polygon fill="#63b8ff" stroke="#63b8ff" points="933.48,-137.31 941.34,-130.2 930.76,-130.86 933.48,-137.31"/>
</a>
</g>
</g>
<!-- Node16 -->
<g id="Node000016" class="node">
<title>Node16</title>
<g id="a_Node000016"><a xlink:href="classGameController.html#a24f5cae258418d4a5934e6f412c28945" target="_top" xlink:title="Displays and manages the settings menu.">
<polygon fill="white" stroke="#666666" points="1271,-319.65 1106,-319.65 1106,-300.65 1271,-300.65 1271,-319.65"/>
<text text-anchor="middle" x="1188.5" y="-307.65" font-family="Helvetica,sans-Serif" font-size="10.00">GameController::showSettings</text>
</a>
</g>
</g>
<!-- Node15&#45;&gt;Node16 -->
<g id="edge25_Node000015_Node000016" class="edge">
<title>Node15&#45;&gt;Node16</title>
<g id="a_edge25_Node000015_Node000016"><a xlink:title=" ">
<path fill="none" stroke="#63b8ff" d="M1311.97,-309.59C1298.37,-309.65 1284.48,-309.71 1271.17,-309.77"/>
<polygon fill="#63b8ff" stroke="#63b8ff" points="1312.31,-313.08 1322.29,-309.54 1312.28,-306.08 1312.31,-313.08"/>
</a>
</g>
</g>
<!-- Node16&#45;&gt;Node11 -->
<g id="edge26_Node000016_Node000011" class="edge">
<title>Node16&#45;&gt;Node11</title>
<g id="a_edge26_Node000016_Node000011"><a xlink:title=" ">
<path fill="none" stroke="#63b8ff" d="M1125.24,-298.8C1095.33,-293.35 1059.87,-286.89 1031.37,-281.69"/>
<polygon fill="#63b8ff" stroke="#63b8ff" points="1124.69,-302.26 1135.16,-300.61 1125.95,-295.37 1124.69,-302.26"/>
</a>
</g>
</g>
<!-- Node17&#45;&gt;Node3 -->
<g id="edge29_Node000017_Node000003" class="edge">
<title>Node17&#45;&gt;Node3</title>
<g id="a_edge29_Node000017_Node000003"><a xlink:title=" ">
<path fill="none" stroke="#63b8ff" d="M1324.97,-245.78C1323.26,-244.64 1321.6,-243.43 1320,-242.15 1293.59,-221.05 1312.52,-193.3 1284,-175.15 1226.73,-138.71 1046.88,-158.15 979,-158.15 979,-158.15 979,-158.15 783,-158.15 666.59,-158.15 532.48,-158.15 445.29,-158.15"/>
<polygon fill="#63b8ff" stroke="#63b8ff" points="1323.53,-248.99 1333.94,-250.99 1327.05,-242.94 1323.53,-248.99"/>
</a>
</g>
</g>
<!-- Node17&#45;&gt;Node7 -->
<g id="edge30_Node000017_Node000007" class="edge">
<title>Node17&#45;&gt;Node7</title>
<g id="a_edge30_Node000017_Node000007"><a xlink:title=" ">
<path fill="none" stroke="#63b8ff" d="M1326.25,-286.44C1324.07,-287.9 1321.98,-289.47 1320,-291.15 1291.78,-315.03 1315.1,-346.15 1284,-366.15 1216.05,-409.87 982.27,-395.19 860.34,-384"/>
<polygon fill="#63b8ff" stroke="#63b8ff" points="1328.15,-289.39 1335.02,-281.31 1324.62,-283.34 1328.15,-289.39"/>
</a>
</g>
</g>
<!-- Node17&#45;&gt;Node9 -->
<g id="edge31_Node000017_Node000009" class="edge">
<title>Node17&#45;&gt;Node9</title>
<g id="a_edge31_Node000017_Node000009"><a xlink:title=" ">
<path fill="none" stroke="#63b8ff" d="M1309.69,-251.87C1290.83,-249.09 1271.5,-246.24 1254,-243.66"/>
<polygon fill="#63b8ff" stroke="#63b8ff" points="1309.4,-255.37 1319.8,-253.36 1310.42,-248.44 1309.4,-255.37"/>
</a>
</g>
</g>
<!-- Node17&#45;&gt;Node11 -->
<g id="edge32_Node000017_Node000011" class="edge">
<title>Node17&#45;&gt;Node11</title>
<g id="a_edge32_Node000017_Node000011"><a xlink:title=" ">
<path fill="none" stroke="#63b8ff" d="M1309.75,-267.51C1232.36,-268.59 1125.4,-270.1 1054.3,-271.09"/>
<polygon fill="#63b8ff" stroke="#63b8ff" points="1310.04,-271 1319.99,-267.36 1309.94,-264 1310.04,-271"/>
</a>
</g>
</g>
<!-- Node17&#45;&gt;Node12 -->
<g id="edge28_Node000017_Node000012" class="edge">
<title>Node17&#45;&gt;Node12</title>
<g id="a_edge28_Node000017_Node000012"><a xlink:title=" ">
<path fill="none" stroke="#63b8ff" d="M1332.34,-247.59C1328.11,-245.91 1323.96,-244.1 1320,-242.15 1302.05,-233.32 1302.85,-221.83 1284,-215.15 1135.9,-162.63 947.38,-174.96 849.91,-186.63"/>
<polygon fill="#63b8ff" stroke="#63b8ff" points="1331.14,-250.88 1341.74,-251.06 1333.57,-244.31 1331.14,-250.88"/>
</a>
</g>
</g>
<!-- Node17&#45;&gt;Node16 -->
<g id="edge33_Node000017_Node000016" class="edge">
<title>Node17&#45;&gt;Node16</title>
<g id="a_edge33_Node000017_Node000016"><a xlink:title=" ">
<path fill="none" stroke="#63b8ff" d="M1322.62,-283.16C1293.36,-289.09 1261.58,-295.53 1236.41,-300.64"/>
<polygon fill="#63b8ff" stroke="#63b8ff" points="1323.32,-286.59 1332.43,-281.17 1321.93,-279.73 1323.32,-286.59"/>
</a>
</g>
</g>
<!-- Node18&#45;&gt;Node3 -->
<g id="edge35_Node000018_Node000003" class="edge">
<title>Node18&#45;&gt;Node3</title>
<g id="a_edge35_Node000018_Node000003"><a xlink:title=" ">
<path fill="none" stroke="#63b8ff" d="M903.9,-23.45C804.61,-11.94 623.18,-1.79 481,-55.15 427.46,-75.24 379.15,-126.81 360.57,-148.4"/>
<polygon fill="#63b8ff" stroke="#63b8ff" points="903.49,-26.92 913.84,-24.63 904.33,-19.97 903.49,-26.92"/>
</a>
</g>
</g>
</g>
</svg>
