<?xml version="1.0" encoding="UTF-8" standalone="no"?>
<!DOCTYPE svg PUBLIC "-//W3C//DTD SVG 1.1//EN"
 "http://www.w3.org/Graphics/SVG/1.1/DTD/svg11.dtd">
<!-- Generated by graphviz version 2.43.0 (0)
 -->
<!-- Title: view/ConsoleRenderer.h Pages: 1 -->
<svg width="1166pt" height="357pt"
 viewBox="0.00 0.00 1166.00 357.00" xmlns="http://www.w3.org/2000/svg" xmlns:xlink="http://www.w3.org/1999/xlink">
<g id="graph0" class="graph" transform="scale(1 1) rotate(0) translate(4 353)">
<title>view/ConsoleRenderer.h</title>
<!-- Node1 -->
<g id="Node000001" class="node">
<title>Node1</title>
<g id="a_Node000001"><a xlink:title="Renders game state, menus, and UI elements to the console.">
<polygon fill="#999999" stroke="#666666" points="784,-349 650,-349 650,-330 784,-330 784,-349"/>
<text text-anchor="middle" x="717" y="-337" font-family="Helvetica,sans-Serif" font-size="10.00">view/ConsoleRenderer.h</text>
</a>
</g>
</g>
<!-- Node2 -->
<g id="Node000002" class="node">
<title>Node2</title>
<g id="a_Node000002"><a xlink:href="GameWorld_8h.html" target="_top" xlink:title="Main game world manager handling objects, collisions, states, and game logic.">
<polygon fill="white" stroke="#666666" points="419.5,-239 294.5,-239 294.5,-220 419.5,-220 419.5,-239"/>
<text text-anchor="middle" x="357" y="-227" font-family="Helvetica,sans-Serif" font-size="10.00">../model/GameWorld.h</text>
</a>
</g>
</g>
<!-- Node1&#45;&gt;Node2 -->
<g id="edge1_Node000001_Node000002" class="edge">
<title>Node1&#45;&gt;Node2</title>
<g id="a_edge1_Node000001_Node000002"><a xlink:title=" ">
<path fill="none" stroke="#63b8ff" d="M688.45,-329.94C624.12,-310.64 467.82,-263.74 395.22,-241.97"/>
<polygon fill="#63b8ff" stroke="#63b8ff" points="396.14,-238.59 385.55,-239.07 394.12,-245.29 396.14,-238.59"/>
</a>
</g>
</g>
<!-- Node3 -->
<g id="Node000003" class="node">
<title>Node3</title>
<g id="a_Node000003"><a xlink:title=" ">
<polygon fill="#e0e0e0" stroke="#999999" points="80.5,-19 33.5,-19 33.5,0 80.5,0 80.5,-19"/>
<text text-anchor="middle" x="57" y="-7" font-family="Helvetica,sans-Serif" font-size="10.00">vector</text>
</a>
</g>
</g>
<!-- Node1&#45;&gt;Node3 -->
<g id="edge40_Node000001_Node000003" class="edge">
<title>Node1&#45;&gt;Node3</title>
<g id="a_edge40_Node000001_Node000003"><a xlink:title=" ">
<path fill="none" stroke="#63b8ff" d="M649.87,-335.39C471.63,-326.23 0,-295.84 0,-230.5 0,-230.5 0,-230.5 0,-118.5 0,-82.51 25.06,-46.76 41.95,-26.76"/>
<polygon fill="#63b8ff" stroke="#63b8ff" points="44.62,-29.02 48.59,-19.2 39.36,-24.4 44.62,-29.02"/>
</a>
</g>
</g>
<!-- Node16 -->
<g id="Node000016" class="node">
<title>Node16</title>
<g id="a_Node000016"><a xlink:href="MapManager_8h.html" target="_top" xlink:title="Manages game maps, level generation, and procedural content.">
<polygon fill="white" stroke="#666666" points="734,-294 612,-294 612,-275 734,-275 734,-294"/>
<text text-anchor="middle" x="673" y="-282" font-family="Helvetica,sans-Serif" font-size="10.00">../utils/MapManager.h</text>
</a>
</g>
</g>
<!-- Node1&#45;&gt;Node16 -->
<g id="edge24_Node000001_Node000016" class="edge">
<title>Node1&#45;&gt;Node16</title>
<g id="a_edge24_Node000001_Node000016"><a xlink:title=" ">
<path fill="none" stroke="#63b8ff" d="M709.73,-329.75C703.46,-322.18 694.21,-311.05 686.57,-301.84"/>
<polygon fill="#63b8ff" stroke="#63b8ff" points="689.21,-299.55 680.13,-294.09 683.83,-304.02 689.21,-299.55"/>
</a>
</g>
</g>
<!-- Node17 -->
<g id="Node000017" class="node">
<title>Node17</title>
<g id="a_Node000017"><a xlink:title=" ">
<polygon fill="#e0e0e0" stroke="#999999" points="852,-239 808,-239 808,-220 852,-220 852,-239"/>
<text text-anchor="middle" x="830" y="-227" font-family="Helvetica,sans-Serif" font-size="10.00">string</text>
</a>
</g>
</g>
<!-- Node1&#45;&gt;Node17 -->
<g id="edge39_Node000001_Node000017" class="edge">
<title>Node1&#45;&gt;Node17</title>
<g id="a_edge39_Node000001_Node000017"><a xlink:title=" ">
<path fill="none" stroke="#63b8ff" d="M726.25,-329.66C745.38,-311.38 789.53,-269.18 813.61,-246.17"/>
<polygon fill="#63b8ff" stroke="#63b8ff" points="816.13,-248.6 820.94,-239.16 811.29,-243.54 816.13,-248.6"/>
</a>
</g>
</g>
<!-- Node19 -->
<g id="Node000019" class="node">
<title>Node19</title>
<g id="a_Node000019"><a xlink:href="PlatformUtils_8h.html" target="_top" xlink:title="Cross&#45;platform utilities for console I/O, colors, and terminal manipulation.">
<polygon fill="white" stroke="#666666" points="963.5,-294 840.5,-294 840.5,-275 963.5,-275 963.5,-294"/>
<text text-anchor="middle" x="902" y="-282" font-family="Helvetica,sans-Serif" font-size="10.00">../utils/PlatformUtils.h</text>
</a>
</g>
</g>
<!-- Node1&#45;&gt;Node19 -->
<g id="edge32_Node000001_Node000019" class="edge">
<title>Node1&#45;&gt;Node19</title>
<g id="a_edge32_Node000001_Node000019"><a xlink:title=" ">
<path fill="none" stroke="#63b8ff" d="M746.72,-329.98C778.05,-321.01 827.57,-306.82 862.24,-296.89"/>
<polygon fill="#63b8ff" stroke="#63b8ff" points="863.39,-300.2 872.04,-294.08 861.47,-293.47 863.39,-300.2"/>
</a>
</g>
</g>
<!-- Node24 -->
<g id="Node000024" class="node">
<title>Node24</title>
<g id="a_Node000024"><a xlink:title=" ">
<polygon fill="#e0e0e0" stroke="#999999" points="1042,-294 982,-294 982,-275 1042,-275 1042,-294"/>
<text text-anchor="middle" x="1012" y="-282" font-family="Helvetica,sans-Serif" font-size="10.00">iostream</text>
</a>
</g>
</g>
<!-- Node1&#45;&gt;Node24 -->
<g id="edge38_Node000001_Node000024" class="edge">
<title>Node1&#45;&gt;Node24</title>
<g id="a_edge38_Node000001_Node000024"><a xlink:title=" ">
<path fill="none" stroke="#63b8ff" d="M770.07,-329.95C819.7,-321.8 896.14,-308.87 971.63,-294.2"/>
<polygon fill="#63b8ff" stroke="#63b8ff" points="972.65,-297.57 981.79,-292.22 971.31,-290.7 972.65,-297.57"/>
</a>
</g>
</g>
<!-- Node2&#45;&gt;Node3 -->
<g id="edge2_Node000002_Node000003" class="edge">
<title>Node2&#45;&gt;Node3</title>
<g id="a_edge2_Node000002_Node000003"><a xlink:title=" ">
<path fill="none" stroke="#63b8ff" d="M294.49,-223.82C233.06,-218.01 144.87,-206.06 119,-184 72.01,-143.92 60.63,-65.59 57.88,-29.51"/>
<polygon fill="#63b8ff" stroke="#63b8ff" points="61.36,-29.16 57.25,-19.39 54.38,-29.59 61.36,-29.16"/>
</a>
</g>
</g>
<!-- Node4 -->
<g id="Node000004" class="node">
<title>Node4</title>
<g id="a_Node000004"><a xlink:title=" ">
<polygon fill="#e0e0e0" stroke="#999999" points="386,-184 328,-184 328,-165 386,-165 386,-184"/>
<text text-anchor="middle" x="357" y="-172" font-family="Helvetica,sans-Serif" font-size="10.00">memory</text>
</a>
</g>
</g>
<!-- Node2&#45;&gt;Node4 -->
<g id="edge3_Node000002_Node000004" class="edge">
<title>Node2&#45;&gt;Node4</title>
<g id="a_edge3_Node000002_Node000004"><a xlink:title=" ">
<path fill="none" stroke="#63b8ff" d="M357,-219.75C357,-212.8 357,-202.85 357,-194.13"/>
<polygon fill="#63b8ff" stroke="#63b8ff" points="360.5,-194.09 357,-184.09 353.5,-194.09 360.5,-194.09"/>
</a>
</g>
</g>
<!-- Node5 -->
<g id="Node000005" class="node">
<title>Node5</title>
<g id="a_Node000005"><a xlink:title=" ">
<polygon fill="#e0e0e0" stroke="#999999" points="468,-184 404,-184 404,-165 468,-165 468,-184"/>
<text text-anchor="middle" x="436" y="-172" font-family="Helvetica,sans-Serif" font-size="10.00">algorithm</text>
</a>
</g>
</g>
<!-- Node2&#45;&gt;Node5 -->
<g id="edge4_Node000002_Node000005" class="edge">
<title>Node2&#45;&gt;Node5</title>
<g id="a_edge4_Node000002_Node000005"><a xlink:title=" ">
<path fill="none" stroke="#63b8ff" d="M369.69,-219.98C381.83,-211.84 400.36,-199.41 414.75,-189.76"/>
<polygon fill="#63b8ff" stroke="#63b8ff" points="416.72,-192.65 423.08,-184.17 412.82,-186.84 416.72,-192.65"/>
</a>
</g>
</g>
<!-- Node6 -->
<g id="Node000006" class="node">
<title>Node6</title>
<g id="a_Node000006"><a xlink:title=" ">
<polygon fill="#e0e0e0" stroke="#999999" points="196,-184 142,-184 142,-165 196,-165 196,-184"/>
<text text-anchor="middle" x="169" y="-172" font-family="Helvetica,sans-Serif" font-size="10.00">random</text>
</a>
</g>
</g>
<!-- Node2&#45;&gt;Node6 -->
<g id="edge5_Node000002_Node000006" class="edge">
<title>Node2&#45;&gt;Node6</title>
<g id="a_edge5_Node000002_Node000006"><a xlink:title=" ">
<path fill="none" stroke="#63b8ff" d="M326.79,-219.98C293.92,-210.72 241.33,-195.89 206,-185.93"/>
<polygon fill="#63b8ff" stroke="#63b8ff" points="206.65,-182.48 196.08,-183.13 204.75,-189.22 206.65,-182.48"/>
</a>
</g>
</g>
<!-- Node7 -->
<g id="Node000007" class="node">
<title>Node7</title>
<g id="a_Node000007"><a xlink:href="GameObject_8h.html" target="_top" xlink:title="Base class and structures for all game objects with position, direction, and health.">
<polygon fill="white" stroke="#666666" points="397,-19 311,-19 311,0 397,0 397,-19"/>
<text text-anchor="middle" x="354" y="-7" font-family="Helvetica,sans-Serif" font-size="10.00">GameObject.h</text>
</a>
</g>
</g>
<!-- Node2&#45;&gt;Node7 -->
<g id="edge6_Node000002_Node000007" class="edge">
<title>Node2&#45;&gt;Node7</title>
<g id="a_edge6_Node000002_Node000007"><a xlink:title=" ">
<path fill="none" stroke="#63b8ff" d="M334.27,-219.97C316.75,-212.53 292.77,-200.36 276,-184 255.76,-164.25 251.37,-156.3 244,-129 231.08,-81.11 288.41,-42.87 325.16,-23.78"/>
<polygon fill="#63b8ff" stroke="#63b8ff" points="327.08,-26.73 334.46,-19.13 323.95,-20.47 327.08,-26.73"/>
</a>
</g>
</g>
<!-- Node8 -->
<g id="Node000008" class="node">
<title>Node8</title>
<g id="a_Node000008"><a xlink:href="PlayerTank_8h.html" target="_top" xlink:title="Player&#45;controlled tank with lives, score system, and special abilities.">
<polygon fill="white" stroke="#666666" points="565.5,-184 486.5,-184 486.5,-165 565.5,-165 565.5,-184"/>
<text text-anchor="middle" x="526" y="-172" font-family="Helvetica,sans-Serif" font-size="10.00">PlayerTank.h</text>
</a>
</g>
</g>
<!-- Node2&#45;&gt;Node8 -->
<g id="edge7_Node000002_Node000008" class="edge">
<title>Node2&#45;&gt;Node8</title>
<g id="a_edge7_Node000002_Node000008"><a xlink:title=" ">
<path fill="none" stroke="#63b8ff" d="M384.15,-219.98C412.53,-211.09 457.23,-197.07 488.86,-187.15"/>
<polygon fill="#63b8ff" stroke="#63b8ff" points="490.14,-190.41 498.63,-184.08 488.05,-183.73 490.14,-190.41"/>
</a>
</g>
</g>
<!-- Node10 -->
<g id="Node000010" class="node">
<title>Node10</title>
<g id="a_Node000010"><a xlink:href="Projectile_8h.html" target="_top" xlink:title="Projectile class for bullets fired by tanks with collision detection.">
<polygon fill="white" stroke="#666666" points="185.5,-74 114.5,-74 114.5,-55 185.5,-55 185.5,-74"/>
<text text-anchor="middle" x="150" y="-62" font-family="Helvetica,sans-Serif" font-size="10.00">Projectile.h</text>
</a>
</g>
</g>
<!-- Node2&#45;&gt;Node10 -->
<g id="edge21_Node000002_Node000010" class="edge">
<title>Node2&#45;&gt;Node10</title>
<g id="a_edge21_Node000002_Node000010"><a xlink:title=" ">
<path fill="none" stroke="#63b8ff" d="M294.34,-224.74C235.34,-219.74 153.09,-208.48 133,-184 109.25,-155.07 127.33,-108.2 140.14,-82.95"/>
<polygon fill="#63b8ff" stroke="#63b8ff" points="143.23,-84.59 144.85,-74.13 137.05,-81.3 143.23,-84.59"/>
</a>
</g>
</g>
<!-- Node11 -->
<g id="Node000011" class="node">
<title>Node11</title>
<g id="a_Node000011"><a xlink:href="Bonus_8h.html" target="_top" xlink:title="Power&#45;up bonuses with various effects for enhancing player abilities.">
<polygon fill="white" stroke="#666666" points="382,-74 326,-74 326,-55 382,-55 382,-74"/>
<text text-anchor="middle" x="354" y="-62" font-family="Helvetica,sans-Serif" font-size="10.00">Bonus.h</text>
</a>
</g>
</g>
<!-- Node2&#45;&gt;Node11 -->
<g id="edge20_Node000002_Node000011" class="edge">
<title>Node2&#45;&gt;Node11</title>
<g id="a_edge20_Node000002_Node000011"><a xlink:title=" ">
<path fill="none" stroke="#63b8ff" d="M346.29,-219.93C337.07,-211.8 324.41,-198.68 319,-184 316.08,-176.08 317.25,-173.26 319,-165 322.63,-147.87 328.92,-145.42 335,-129 340.5,-114.14 345.58,-96.9 349.1,-84.14"/>
<polygon fill="#63b8ff" stroke="#63b8ff" points="352.54,-84.81 351.76,-74.24 345.78,-82.99 352.54,-84.81"/>
</a>
</g>
</g>
<!-- Node12 -->
<g id="Node000012" class="node">
<title>Node12</title>
<g id="a_Node000012"><a xlink:href="EnemyTank_8h.html" target="_top" xlink:title="AI&#45;controlled enemy tanks with various behaviors, types, and difficulty levels.">
<polygon fill="white" stroke="#666666" points="666,-184 584,-184 584,-165 666,-165 666,-184"/>
<text text-anchor="middle" x="625" y="-172" font-family="Helvetica,sans-Serif" font-size="10.00">EnemyTank.h</text>
</a>
</g>
</g>
<!-- Node2&#45;&gt;Node12 -->
<g id="edge15_Node000002_Node000012" class="edge">
<title>Node2&#45;&gt;Node12</title>
<g id="a_edge15_Node000002_Node000012"><a xlink:title=" ">
<path fill="none" stroke="#63b8ff" d="M400.06,-219.98C447.4,-210.62 523.42,-195.59 573.78,-185.63"/>
<polygon fill="#63b8ff" stroke="#63b8ff" points="574.68,-189.02 583.81,-183.65 573.32,-182.15 574.68,-189.02"/>
</a>
</g>
</g>
<!-- Node14 -->
<g id="Node000014" class="node">
<title>Node14</title>
<g id="a_Node000014"><a xlink:href="Obstacle_8h.html" target="_top" xlink:title="Environmental obstacles including walls, water, forests, and their properties.">
<polygon fill="white" stroke="#666666" points="752,-184 684,-184 684,-165 752,-165 752,-184"/>
<text text-anchor="middle" x="718" y="-172" font-family="Helvetica,sans-Serif" font-size="10.00">Obstacle.h</text>
</a>
</g>
</g>
<!-- Node2&#45;&gt;Node14 -->
<g id="edge18_Node000002_Node000014" class="edge">
<title>Node2&#45;&gt;Node14</title>
<g id="a_edge18_Node000002_Node000014"><a xlink:title=" ">
<path fill="none" stroke="#63b8ff" d="M419.61,-220.79C481.66,-212.92 579.66,-199.84 673.79,-184.13"/>
<polygon fill="#63b8ff" stroke="#63b8ff" points="674.48,-187.56 683.76,-182.45 673.32,-180.65 674.48,-187.56"/>
</a>
</g>
</g>
<!-- Node15 -->
<g id="Node000015" class="node">
<title>Node15</title>
<g id="a_Node000015"><a xlink:href="Explosion_8h.html" target="_top" xlink:title="Visual explosion effects for game events like tank destruction.">
<polygon fill="white" stroke="#666666" points="325.5,-129 252.5,-129 252.5,-110 325.5,-110 325.5,-129"/>
<text text-anchor="middle" x="289" y="-117" font-family="Helvetica,sans-Serif" font-size="10.00">Explosion.h</text>
</a>
</g>
</g>
<!-- Node2&#45;&gt;Node15 -->
<g id="edge22_Node000002_Node000015" class="edge">
<title>Node2&#45;&gt;Node15</title>
<g id="a_edge22_Node000002_Node000015"><a xlink:title=" ">
<path fill="none" stroke="#63b8ff" d="M331.49,-219.9C315.31,-212.96 295.65,-201.44 286,-184 278.48,-170.42 280.13,-152.6 283.14,-139.29"/>
<polygon fill="#63b8ff" stroke="#63b8ff" points="286.59,-139.94 285.82,-129.37 279.84,-138.11 286.59,-139.94"/>
</a>
</g>
</g>
<!-- Node9 -->
<g id="Node000009" class="node">
<title>Node9</title>
<g id="a_Node000009"><a xlink:href="Tank_8h.html" target="_top" xlink:title="Abstract tank base class with shooting, bonuses, and combat mechanics.">
<polygon fill="white" stroke="#666666" points="434,-129 386,-129 386,-110 434,-110 434,-129"/>
<text text-anchor="middle" x="410" y="-117" font-family="Helvetica,sans-Serif" font-size="10.00">Tank.h</text>
</a>
</g>
</g>
<!-- Node8&#45;&gt;Node9 -->
<g id="edge8_Node000008_Node000009" class="edge">
<title>Node8&#45;&gt;Node9</title>
<g id="a_edge8_Node000008_Node000009"><a xlink:title=" ">
<path fill="none" stroke="#63b8ff" d="M507.36,-164.98C488.7,-156.46 459.75,-143.23 438.26,-133.41"/>
<polygon fill="#63b8ff" stroke="#63b8ff" points="439.53,-130.14 428.98,-129.17 436.62,-136.51 439.53,-130.14"/>
</a>
</g>
</g>
<!-- Node9&#45;&gt;Node7 -->
<g id="edge9_Node000009_Node000007" class="edge">
<title>Node9&#45;&gt;Node7</title>
<g id="a_edge9_Node000009_Node000007"><a xlink:title=" ">
<path fill="none" stroke="#63b8ff" d="M408.56,-109.86C406.2,-97.23 400.79,-73.25 391,-55 385.5,-44.75 377.41,-34.67 370.19,-26.7"/>
<polygon fill="#63b8ff" stroke="#63b8ff" points="372.55,-24.1 363.14,-19.24 367.47,-28.91 372.55,-24.1"/>
</a>
</g>
</g>
<!-- Node9&#45;&gt;Node10 -->
<g id="edge10_Node000009_Node000010" class="edge">
<title>Node9&#45;&gt;Node10</title>
<g id="a_edge10_Node000009_Node000010"><a xlink:title=" ">
<path fill="none" stroke="#63b8ff" d="M385.54,-113.51C342.1,-104.66 250.88,-86.06 195.58,-74.79"/>
<polygon fill="#63b8ff" stroke="#63b8ff" points="196.19,-71.34 185.69,-72.77 194.79,-78.2 196.19,-71.34"/>
</a>
</g>
</g>
<!-- Node9&#45;&gt;Node11 -->
<g id="edge13_Node000009_Node000011" class="edge">
<title>Node9&#45;&gt;Node11</title>
<g id="a_edge13_Node000009_Node000011"><a xlink:title=" ">
<path fill="none" stroke="#63b8ff" d="M401,-109.98C392.81,-102.23 380.49,-90.58 370.53,-81.14"/>
<polygon fill="#63b8ff" stroke="#63b8ff" points="372.83,-78.5 363.16,-74.17 368.02,-83.59 372.83,-78.5"/>
</a>
</g>
</g>
<!-- Node10&#45;&gt;Node3 -->
<g id="edge12_Node000010_Node000003" class="edge">
<title>Node10&#45;&gt;Node3</title>
<g id="a_edge12_Node000010_Node000003"><a xlink:title=" ">
<path fill="none" stroke="#63b8ff" d="M135.06,-54.98C120.5,-46.69 98.13,-33.94 81.07,-24.22"/>
<polygon fill="#63b8ff" stroke="#63b8ff" points="82.64,-21.08 72.21,-19.17 79.17,-27.16 82.64,-21.08"/>
</a>
</g>
</g>
<!-- Node10&#45;&gt;Node7 -->
<g id="edge11_Node000010_Node000007" class="edge">
<title>Node10&#45;&gt;Node7</title>
<g id="a_edge11_Node000010_Node000007"><a xlink:title=" ">
<path fill="none" stroke="#63b8ff" d="M182.78,-54.98C217.62,-45.93 272.87,-31.58 311.14,-21.64"/>
<polygon fill="#63b8ff" stroke="#63b8ff" points="312.17,-24.98 320.97,-19.08 310.41,-18.21 312.17,-24.98"/>
</a>
</g>
</g>
<!-- Node11&#45;&gt;Node7 -->
<g id="edge14_Node000011_Node000007" class="edge">
<title>Node11&#45;&gt;Node7</title>
<g id="a_edge14_Node000011_Node000007"><a xlink:title=" ">
<path fill="none" stroke="#63b8ff" d="M354,-54.75C354,-47.8 354,-37.85 354,-29.13"/>
<polygon fill="#63b8ff" stroke="#63b8ff" points="357.5,-29.09 354,-19.09 350.5,-29.09 357.5,-29.09"/>
</a>
</g>
</g>
<!-- Node12&#45;&gt;Node9 -->
<g id="edge16_Node000012_Node000009" class="edge">
<title>Node12&#45;&gt;Node9</title>
<g id="a_edge16_Node000012_Node000009"><a xlink:title=" ">
<path fill="none" stroke="#63b8ff" d="M590.46,-164.98C550.16,-155.05 483.98,-138.74 443.94,-128.87"/>
<polygon fill="#63b8ff" stroke="#63b8ff" points="444.66,-125.44 434.12,-126.45 442.99,-132.24 444.66,-125.44"/>
</a>
</g>
</g>
<!-- Node13 -->
<g id="Node000013" class="node">
<title>Node13</title>
<g id="a_Node000013"><a xlink:title=" ">
<polygon fill="#e0e0e0" stroke="#999999" points="651.5,-129 598.5,-129 598.5,-110 651.5,-110 651.5,-129"/>
<text text-anchor="middle" x="625" y="-117" font-family="Helvetica,sans-Serif" font-size="10.00">stdlib.h</text>
</a>
</g>
</g>
<!-- Node12&#45;&gt;Node13 -->
<g id="edge17_Node000012_Node000013" class="edge">
<title>Node12&#45;&gt;Node13</title>
<g id="a_edge17_Node000012_Node000013"><a xlink:title=" ">
<path fill="none" stroke="#63b8ff" d="M625,-164.75C625,-157.8 625,-147.85 625,-139.13"/>
<polygon fill="#63b8ff" stroke="#63b8ff" points="628.5,-139.09 625,-129.09 621.5,-139.09 628.5,-139.09"/>
</a>
</g>
</g>
<!-- Node14&#45;&gt;Node7 -->
<g id="edge19_Node000014_Node000007" class="edge">
<title>Node14&#45;&gt;Node7</title>
<g id="a_edge19_Node000014_Node000007"><a xlink:title=" ">
<path fill="none" stroke="#63b8ff" d="M712.43,-164.78C703.3,-151.16 683.85,-124.85 661,-110 580.85,-57.9 471.16,-31.05 406.92,-18.94"/>
<polygon fill="#63b8ff" stroke="#63b8ff" points="407.48,-15.48 397.01,-17.12 406.21,-22.36 407.48,-15.48"/>
</a>
</g>
</g>
<!-- Node15&#45;&gt;Node7 -->
<g id="edge23_Node000015_Node000007" class="edge">
<title>Node15&#45;&gt;Node7</title>
<g id="a_edge23_Node000015_Node000007"><a xlink:title=" ">
<path fill="none" stroke="#63b8ff" d="M291.92,-109.91C296.38,-97.34 305.58,-73.44 317,-55 323.2,-44.98 331.49,-34.81 338.64,-26.72"/>
<polygon fill="#63b8ff" stroke="#63b8ff" points="341.4,-28.88 345.56,-19.14 336.23,-24.17 341.4,-28.88"/>
</a>
</g>
</g>
<!-- Node16&#45;&gt;Node2 -->
<g id="edge29_Node000016_Node000002" class="edge">
<title>Node16&#45;&gt;Node2</title>
<g id="a_edge29_Node000016_Node000002"><a xlink:title=" ">
<path fill="none" stroke="#63b8ff" d="M622.23,-274.98C566.57,-265.65 477.29,-250.67 417.9,-240.71"/>
<polygon fill="#63b8ff" stroke="#63b8ff" points="418.35,-237.24 407.91,-239.04 417.19,-244.14 418.35,-237.24"/>
</a>
</g>
</g>
<!-- Node16&#45;&gt;Node3 -->
<g id="edge26_Node000016_Node000003" class="edge">
<title>Node16&#45;&gt;Node3</title>
<g id="a_edge26_Node000016_Node000003"><a xlink:title=" ">
<path fill="none" stroke="#63b8ff" d="M611.83,-279.48C452.68,-268.22 38,-233.34 38,-175.5 38,-175.5 38,-175.5 38,-118.5 38,-86.56 46.16,-50.1 51.78,-28.77"/>
<polygon fill="#63b8ff" stroke="#63b8ff" points="55.17,-29.66 54.44,-19.09 48.42,-27.81 55.17,-29.66"/>
</a>
</g>
</g>
<!-- Node16&#45;&gt;Node7 -->
<g id="edge28_Node000016_Node000007" class="edge">
<title>Node16&#45;&gt;Node7</title>
<g id="a_edge28_Node000016_Node000007"><a xlink:title=" ">
<path fill="none" stroke="#63b8ff" d="M703.45,-274.95C722.51,-268.13 746.17,-256.73 761,-239 779.9,-216.41 780,-204.96 780,-175.5 780,-175.5 780,-175.5 780,-118.5 780,-42.48 521.86,-19.37 407.47,-12.86"/>
<polygon fill="#63b8ff" stroke="#63b8ff" points="407.37,-9.35 397.19,-12.3 406.99,-16.34 407.37,-9.35"/>
</a>
</g>
</g>
<!-- Node16&#45;&gt;Node12 -->
<g id="edge31_Node000016_Node000012" class="edge">
<title>Node16&#45;&gt;Node12</title>
<g id="a_edge31_Node000016_Node000012"><a xlink:title=" ">
<path fill="none" stroke="#63b8ff" d="M669.07,-274.66C661.19,-256.93 643.32,-216.73 632.92,-193.32"/>
<polygon fill="#63b8ff" stroke="#63b8ff" points="636.11,-191.87 628.85,-184.16 629.71,-194.72 636.11,-191.87"/>
</a>
</g>
</g>
<!-- Node16&#45;&gt;Node14 -->
<g id="edge30_Node000016_Node000014" class="edge">
<title>Node16&#45;&gt;Node14</title>
<g id="a_edge30_Node000016_Node000014"><a xlink:title=" ">
<path fill="none" stroke="#63b8ff" d="M671.38,-274.87C669.42,-262.25 667.27,-238.29 675,-220 679.82,-208.6 689.01,-198.45 697.66,-190.73"/>
<polygon fill="#63b8ff" stroke="#63b8ff" points="700.17,-193.2 705.62,-184.12 695.69,-187.81 700.17,-193.2"/>
</a>
</g>
</g>
<!-- Node16&#45;&gt;Node17 -->
<g id="edge25_Node000016_Node000017" class="edge">
<title>Node16&#45;&gt;Node17</title>
<g id="a_edge25_Node000016_Node000017"><a xlink:title=" ">
<path fill="none" stroke="#63b8ff" d="M698.22,-274.98C725.36,-265.82 768.59,-251.23 798.07,-241.28"/>
<polygon fill="#63b8ff" stroke="#63b8ff" points="799.53,-244.48 807.88,-237.97 797.29,-237.85 799.53,-244.48"/>
</a>
</g>
</g>
<!-- Node18 -->
<g id="Node000018" class="node">
<title>Node18</title>
<g id="a_Node000018"><a xlink:title=" ">
<polygon fill="#e0e0e0" stroke="#999999" points="752,-239 684,-239 684,-220 752,-220 752,-239"/>
<text text-anchor="middle" x="718" y="-227" font-family="Helvetica,sans-Serif" font-size="10.00">filesystem</text>
</a>
</g>
</g>
<!-- Node16&#45;&gt;Node18 -->
<g id="edge27_Node000016_Node000018" class="edge">
<title>Node16&#45;&gt;Node18</title>
<g id="a_edge27_Node000016_Node000018"><a xlink:title=" ">
<path fill="none" stroke="#63b8ff" d="M680.43,-274.75C686.85,-267.18 696.31,-256.05 704.12,-246.84"/>
<polygon fill="#63b8ff" stroke="#63b8ff" points="706.9,-248.98 710.71,-239.09 701.57,-244.45 706.9,-248.98"/>
</a>
</g>
</g>
<!-- Node19&#45;&gt;Node17 -->
<g id="edge33_Node000019_Node000017" class="edge">
<title>Node19&#45;&gt;Node17</title>
<g id="a_edge33_Node000019_Node000017"><a xlink:title=" ">
<path fill="none" stroke="#63b8ff" d="M890.43,-274.98C879.58,-267 863.12,-254.88 850.12,-245.31"/>
<polygon fill="#63b8ff" stroke="#63b8ff" points="851.91,-242.28 841.78,-239.17 847.76,-247.92 851.91,-242.28"/>
</a>
</g>
</g>
<!-- Node20 -->
<g id="Node000020" class="node">
<title>Node20</title>
<g id="a_Node000020"><a xlink:title=" ">
<polygon fill="#e0e0e0" stroke="#999999" points="933.5,-239 870.5,-239 870.5,-220 933.5,-220 933.5,-239"/>
<text text-anchor="middle" x="902" y="-227" font-family="Helvetica,sans-Serif" font-size="10.00">termios.h</text>
</a>
</g>
</g>
<!-- Node19&#45;&gt;Node20 -->
<g id="edge34_Node000019_Node000020" class="edge">
<title>Node19&#45;&gt;Node20</title>
<g id="a_edge34_Node000019_Node000020"><a xlink:title=" ">
<path fill="none" stroke="#63b8ff" d="M902,-274.75C902,-267.8 902,-257.85 902,-249.13"/>
<polygon fill="#63b8ff" stroke="#63b8ff" points="905.5,-249.09 902,-239.09 898.5,-249.09 905.5,-249.09"/>
</a>
</g>
</g>
<!-- Node21 -->
<g id="Node000021" class="node">
<title>Node21</title>
<g id="a_Node000021"><a xlink:title=" ">
<polygon fill="#e0e0e0" stroke="#999999" points="1008,-239 952,-239 952,-220 1008,-220 1008,-239"/>
<text text-anchor="middle" x="980" y="-227" font-family="Helvetica,sans-Serif" font-size="10.00">unistd.h</text>
</a>
</g>
</g>
<!-- Node19&#45;&gt;Node21 -->
<g id="edge35_Node000019_Node000021" class="edge">
<title>Node19&#45;&gt;Node21</title>
<g id="a_edge35_Node000019_Node000021"><a xlink:title=" ">
<path fill="none" stroke="#63b8ff" d="M914.53,-274.98C926.4,-266.92 944.46,-254.65 958.61,-245.03"/>
<polygon fill="#63b8ff" stroke="#63b8ff" points="960.94,-247.69 967.24,-239.17 957,-241.9 960.94,-247.69"/>
</a>
</g>
</g>
<!-- Node22 -->
<g id="Node000022" class="node">
<title>Node22</title>
<g id="a_Node000022"><a xlink:title=" ">
<polygon fill="#e0e0e0" stroke="#999999" points="1073.5,-239 1026.5,-239 1026.5,-220 1073.5,-220 1073.5,-239"/>
<text text-anchor="middle" x="1050" y="-227" font-family="Helvetica,sans-Serif" font-size="10.00">fcntl.h</text>
</a>
</g>
</g>
<!-- Node19&#45;&gt;Node22 -->
<g id="edge36_Node000019_Node000022" class="edge">
<title>Node19&#45;&gt;Node22</title>
<g id="a_edge36_Node000019_Node000022"><a xlink:title=" ">
<path fill="none" stroke="#63b8ff" d="M925.78,-274.98C950.38,-266.18 988.99,-252.35 1016.64,-242.45"/>
<polygon fill="#63b8ff" stroke="#63b8ff" points="1018.05,-245.66 1026.28,-238.99 1015.69,-239.07 1018.05,-245.66"/>
</a>
</g>
</g>
<!-- Node23 -->
<g id="Node000023" class="node">
<title>Node23</title>
<g id="a_Node000023"><a xlink:title=" ">
<polygon fill="#e0e0e0" stroke="#999999" points="1158,-239 1092,-239 1092,-220 1158,-220 1158,-239"/>
<text text-anchor="middle" x="1125" y="-227" font-family="Helvetica,sans-Serif" font-size="10.00">sys/ioctl.h</text>
</a>
</g>
</g>
<!-- Node19&#45;&gt;Node23 -->
<g id="edge37_Node000019_Node000023" class="edge">
<title>Node19&#45;&gt;Node23</title>
<g id="a_edge37_Node000019_Node000023"><a xlink:title=" ">
<path fill="none" stroke="#63b8ff" d="M937.83,-274.98C977.07,-265.66 1039.99,-250.71 1081.9,-240.74"/>
<polygon fill="#63b8ff" stroke="#63b8ff" points="1082.89,-244.11 1091.81,-238.39 1081.27,-237.3 1082.89,-244.11"/>
</a>
</g>
</g>
</g>
</svg>
