<?xml version="1.0" encoding="UTF-8" standalone="no"?>
<!DOCTYPE svg PUBLIC "-//W3C//DTD SVG 1.1//EN"
 "http://www.w3.org/Graphics/SVG/1.1/DTD/svg11.dtd">
<!-- Generated by graphviz version 2.43.0 (0)
 -->
<!-- Title: src/view/ConsoleRenderer.cpp Pages: 1 -->
<!--zoomable 412 -->

<svg id="main" version="1.1" xmlns="http://www.w3.org/2000/svg" xmlns:xlink="http://www.w3.org/1999/xlink" xml:space="preserve" onload="init(evt)">
<style type="text/css"><![CDATA[
.node, .edge {opacity: 0.7;}
.node.selected, .edge.selected {opacity: 1;}
.edge:hover path { stroke: red; }
.edge:hover polygon { stroke: red; fill: red; }
]]></style>

<defs>
  <circle id="rim" cx="0" cy="0" r="7"/>
  <circle id="rim2" cx="0" cy="0" r="3.5"/>
  <g id="zoomPlus">
    <use xlink:href="#rim" fill="#404040"><set attributeName="fill" to="#808080" begin="zoomplus.mouseover" end="zoomplus.mouseout"/></use>
    <path d="M-4,0h8M0,-4v8" fill="none" stroke="white" stroke-width="1.5" pointer-events="none"/>
  </g>
  <g id="zoomMin">
    <use xlink:href="#rim" fill="#404040"><set attributeName="fill" to="#808080" begin="zoomminus.mouseover" end="zoomminus.mouseout"/></use>
    <path d="M-4,0h8" fill="none" stroke="white" stroke-width="1.5" pointer-events="none"/>
  </g>
  <g id="arrowUp" transform="translate(30 24)">
    <use xlink:href="#rim"/>
    <path pointer-events="none" fill="none" stroke="white" stroke-width="1.5" d="M0,-3.0v7 M-2.5,-0.5L0,-3.0L2.5,-0.5"/>
  </g>
  <g id="arrowRight" transform="rotate(90) translate(36 -43)">
    <use xlink:href="#rim"/>
    <path pointer-events="none" fill="none" stroke="white" stroke-width="1.5" d="M0,-3.0v7 M-2.5,-0.5L0,-3.0L2.5,-0.5"/>
  </g>
  <g id="arrowDown" transform="rotate(180) translate(-30 -48)">
    <use xlink:href="#rim"/>
    <path pointer-events="none" fill="none" stroke="white" stroke-width="1.5" d="M0,-3.0v7 M-2.5,-0.5L0,-3.0L2.5,-0.5"/>
  </g>
  <g id="arrowLeft" transform="rotate(270) translate(-36 17)">
    <use xlink:href="#rim"/>
    <path pointer-events="none" fill="none" stroke="white" stroke-width="1.5" d="M0,-3.0v7 M-2.5,-0.5L0,-3.0L2.5,-0.5"/>
  </g>
  <g id="resetDef">
    <use xlink:href="#rim2" fill="#404040"><set attributeName="fill" to="#808080" begin="reset.mouseover" end="reset.mouseout"/></use>
  </g>
</defs>
<script type="application/ecmascript">
var viewWidth = 1210;
var viewHeight = 412;
var sectionId = 'dynsection-0';
</script>
<script type="application/ecmascript" xlink:href="svg.min.js"/>
<svg id="graph" class="graph">
<g id="viewport">
<title>src/view/ConsoleRenderer.cpp</title>
<!-- Node1 -->
<g id="Node000001" class="node">
<title>Node1</title>
<g id="a_Node000001"><a xlink:title="Implementation of console&#45;based game rendering with ASCII/Unicode support.">
<polygon fill="#999999" stroke="#666666" points="519.5,-404 356.5,-404 356.5,-385 519.5,-385 519.5,-404"/>
<text text-anchor="middle" x="438" y="-392" font-family="Helvetica,sans-Serif" font-size="10.00">src/view/ConsoleRenderer.cpp</text>
</a>
</g>
</g>
<!-- Node2 -->
<g id="Node000002" class="node">
<title>Node2</title>
<g id="a_Node000002"><a xlink:href="ConsoleRenderer_8h.html" target="_top" xlink:title="Renders game state, menus, and UI elements to the console.">
<polygon fill="white" stroke="#666666" points="492,-349 384,-349 384,-330 492,-330 492,-349"/>
<text text-anchor="middle" x="438" y="-337" font-family="Helvetica,sans-Serif" font-size="10.00">ConsoleRenderer.h</text>
</a>
</g>
</g>
<!-- Node1&#45;&gt;Node2 -->
<g id="edge1_Node000001_Node000002" class="edge">
<title>Node1&#45;&gt;Node2</title>
<g id="a_edge1_Node000001_Node000002"><a xlink:title=" ">
<path fill="none" stroke="#63b8ff" d="M438,-384.75C438,-377.8 438,-367.85 438,-359.13"/>
<polygon fill="#63b8ff" stroke="#63b8ff" points="441.5,-359.09 438,-349.09 434.5,-359.09 441.5,-359.09"/>
</a>
</g>
</g>
<!-- Node4 -->
<g id="Node000004" class="node">
<title>Node4</title>
<g id="a_Node000004"><a xlink:title=" ">
<polygon fill="#e0e0e0" stroke="#999999" points="467.5,-19 420.5,-19 420.5,0 467.5,0 467.5,-19"/>
<text text-anchor="middle" x="444" y="-7" font-family="Helvetica,sans-Serif" font-size="10.00">vector</text>
</a>
</g>
</g>
<!-- Node1&#45;&gt;Node4 -->
<g id="edge44_Node000001_Node000004" class="edge">
<title>Node1&#45;&gt;Node4</title>
<g id="a_edge44_Node000001_Node000004"><a xlink:title=" ">
<path fill="none" stroke="#63b8ff" d="M356.39,-389.95C229.67,-382.18 0,-358.09 0,-285.5 0,-285.5 0,-285.5 0,-118.5 0,-74.14 36.23,-72.48 77,-55 136.65,-29.42 331.09,-16.48 410.13,-12.18"/>
<polygon fill="#63b8ff" stroke="#63b8ff" points="410.69,-15.65 420.49,-11.63 410.32,-8.66 410.69,-15.65"/>
</a>
</g>
</g>
<!-- Node18 -->
<g id="Node000018" class="node">
<title>Node18</title>
<g id="a_Node000018"><a xlink:title=" ">
<polygon fill="#e0e0e0" stroke="#999999" points="416,-239 372,-239 372,-220 416,-220 416,-239"/>
<text text-anchor="middle" x="394" y="-227" font-family="Helvetica,sans-Serif" font-size="10.00">string</text>
</a>
</g>
</g>
<!-- Node1&#45;&gt;Node18 -->
<g id="edge43_Node000001_Node000018" class="edge">
<title>Node1&#45;&gt;Node18</title>
<g id="a_edge43_Node000001_Node000018"><a xlink:title=" ">
<path fill="none" stroke="#63b8ff" d="M416.85,-384.93C402.17,-377.73 383.75,-365.88 375,-349 358.06,-316.3 373.57,-272.27 384.8,-248.14"/>
<polygon fill="#63b8ff" stroke="#63b8ff" points="387.96,-249.62 389.24,-239.1 381.68,-246.53 387.96,-249.62"/>
</a>
</g>
</g>
<!-- Node25 -->
<g id="Node000025" class="node">
<title>Node25</title>
<g id="a_Node000025"><a xlink:title=" ">
<polygon fill="#e0e0e0" stroke="#999999" points="660,-294 600,-294 600,-275 660,-275 660,-294"/>
<text text-anchor="middle" x="630" y="-282" font-family="Helvetica,sans-Serif" font-size="10.00">iostream</text>
</a>
</g>
</g>
<!-- Node1&#45;&gt;Node25 -->
<g id="edge42_Node000001_Node000025" class="edge">
<title>Node1&#45;&gt;Node25</title>
<g id="a_edge42_Node000001_Node000025"><a xlink:title=" ">
<path fill="none" stroke="#63b8ff" d="M450.81,-384.83C469.73,-372.16 506.43,-348.14 539,-330 559.48,-318.59 583.31,-307 601.45,-298.51"/>
<polygon fill="#63b8ff" stroke="#63b8ff" points="603.28,-301.51 610.88,-294.13 600.33,-295.16 603.28,-301.51"/>
</a>
</g>
</g>
<!-- Node26 -->
<g id="Node000026" class="node">
<title>Node26</title>
<g id="a_Node000026"><a xlink:title=" ">
<polygon fill="#e0e0e0" stroke="#999999" points="586,-349 548,-349 548,-330 586,-330 586,-349"/>
<text text-anchor="middle" x="567" y="-337" font-family="Helvetica,sans-Serif" font-size="10.00">map</text>
</a>
</g>
</g>
<!-- Node1&#45;&gt;Node26 -->
<g id="edge45_Node000001_Node000026" class="edge">
<title>Node1&#45;&gt;Node26</title>
<g id="a_edge45_Node000001_Node000026"><a xlink:title=" ">
<path fill="none" stroke="#63b8ff" d="M458.73,-384.98C480.26,-376.14 514.12,-362.23 538.24,-352.32"/>
<polygon fill="#63b8ff" stroke="#63b8ff" points="539.67,-355.51 547.59,-348.47 537.01,-349.04 539.67,-355.51"/>
</a>
</g>
</g>
<!-- Node3 -->
<g id="Node000003" class="node">
<title>Node3</title>
<g id="a_Node000003"><a xlink:href="GameWorld_8h.html" target="_top" xlink:title="Main game world manager handling objects, collisions, states, and game logic.">
<polygon fill="white" stroke="#666666" points="863.5,-239 738.5,-239 738.5,-220 863.5,-220 863.5,-239"/>
<text text-anchor="middle" x="801" y="-227" font-family="Helvetica,sans-Serif" font-size="10.00">../model/GameWorld.h</text>
</a>
</g>
</g>
<!-- Node2&#45;&gt;Node3 -->
<g id="edge2_Node000002_Node000003" class="edge">
<title>Node2&#45;&gt;Node3</title>
<g id="a_edge2_Node000002_Node000003"><a xlink:title=" ">
<path fill="none" stroke="#63b8ff" d="M462.06,-329.94C485.51,-321.43 522.07,-307.68 553,-294 570.27,-286.36 573.17,-281.23 591,-275 636.5,-259.1 689.63,-247.9 731.06,-240.72"/>
<polygon fill="#63b8ff" stroke="#63b8ff" points="731.79,-244.15 741.06,-239.03 730.62,-237.25 731.79,-244.15"/>
</a>
</g>
</g>
<!-- Node2&#45;&gt;Node4 -->
<g id="edge41_Node000002_Node000004" class="edge">
<title>Node2&#45;&gt;Node4</title>
<g id="a_edge41_Node000002_Node000004"><a xlink:title=" ">
<path fill="none" stroke="#63b8ff" d="M383.64,-335.19C274.27,-327.05 38,-301.26 38,-230.5 38,-230.5 38,-230.5 38,-118.5 38,-41.7 312.78,-18.17 410.23,-12.24"/>
<polygon fill="#63b8ff" stroke="#63b8ff" points="410.64,-15.72 420.42,-11.64 410.23,-8.73 410.64,-15.72"/>
</a>
</g>
</g>
<!-- Node17 -->
<g id="Node000017" class="node">
<title>Node17</title>
<g id="a_Node000017"><a xlink:href="MapManager_8h.html" target="_top" xlink:title="Manages game maps, level generation, and procedural content.">
<polygon fill="white" stroke="#666666" points="544,-294 422,-294 422,-275 544,-275 544,-294"/>
<text text-anchor="middle" x="483" y="-282" font-family="Helvetica,sans-Serif" font-size="10.00">../utils/MapManager.h</text>
</a>
</g>
</g>
<!-- Node2&#45;&gt;Node17 -->
<g id="edge25_Node000002_Node000017" class="edge">
<title>Node2&#45;&gt;Node17</title>
<g id="a_edge25_Node000002_Node000017"><a xlink:title=" ">
<path fill="none" stroke="#63b8ff" d="M445.43,-329.75C451.85,-322.18 461.31,-311.05 469.12,-301.84"/>
<polygon fill="#63b8ff" stroke="#63b8ff" points="471.9,-303.98 475.71,-294.09 466.57,-299.45 471.9,-303.98"/>
</a>
</g>
</g>
<!-- Node2&#45;&gt;Node18 -->
<g id="edge40_Node000002_Node000018" class="edge">
<title>Node2&#45;&gt;Node18</title>
<g id="a_edge40_Node000002_Node000018"><a xlink:title=" ">
<path fill="none" stroke="#63b8ff" d="M432.43,-329.93C426.92,-321.17 418.54,-307.05 413,-294 406.81,-279.42 401.78,-262.15 398.46,-249.31"/>
<polygon fill="#63b8ff" stroke="#63b8ff" points="401.79,-248.21 395.99,-239.34 395,-249.89 401.79,-248.21"/>
</a>
</g>
</g>
<!-- Node20 -->
<g id="Node000020" class="node">
<title>Node20</title>
<g id="a_Node000020"><a xlink:href="PlatformUtils_8h.html" target="_top" xlink:title="Cross&#45;platform utilities for console I/O, colors, and terminal manipulation.">
<polygon fill="white" stroke="#666666" points="318.5,-294 195.5,-294 195.5,-275 318.5,-275 318.5,-294"/>
<text text-anchor="middle" x="257" y="-282" font-family="Helvetica,sans-Serif" font-size="10.00">../utils/PlatformUtils.h</text>
</a>
</g>
</g>
<!-- Node2&#45;&gt;Node20 -->
<g id="edge33_Node000002_Node000020" class="edge">
<title>Node2&#45;&gt;Node20</title>
<g id="a_edge33_Node000002_Node000020"><a xlink:title=" ">
<path fill="none" stroke="#63b8ff" d="M408.92,-329.98C378.4,-321.05 330.24,-306.94 296.34,-297.02"/>
<polygon fill="#63b8ff" stroke="#63b8ff" points="296.89,-293.53 286.31,-294.08 294.92,-300.25 296.89,-293.53"/>
</a>
</g>
</g>
<!-- Node2&#45;&gt;Node25 -->
<g id="edge39_Node000002_Node000025" class="edge">
<title>Node2&#45;&gt;Node25</title>
<g id="a_edge39_Node000002_Node000025"><a xlink:title=" ">
<path fill="none" stroke="#63b8ff" d="M468.85,-329.98C501.79,-320.89 554.12,-306.45 590.16,-296.5"/>
<polygon fill="#63b8ff" stroke="#63b8ff" points="591.15,-299.85 599.86,-293.82 589.29,-293.11 591.15,-299.85"/>
</a>
</g>
</g>
<!-- Node3&#45;&gt;Node4 -->
<g id="edge3_Node000003_Node000004" class="edge">
<title>Node3&#45;&gt;Node4</title>
<g id="a_edge3_Node000003_Node000004"><a xlink:title=" ">
<path fill="none" stroke="#63b8ff" d="M738.49,-226.79C661.31,-223.41 535.93,-213.44 501,-184 497.91,-181.4 463.64,-73.05 449.77,-28.92"/>
<polygon fill="#63b8ff" stroke="#63b8ff" points="453.05,-27.68 446.72,-19.18 446.37,-29.77 453.05,-27.68"/>
</a>
</g>
</g>
<!-- Node5 -->
<g id="Node000005" class="node">
<title>Node5</title>
<g id="a_Node000005"><a xlink:title=" ">
<polygon fill="#e0e0e0" stroke="#999999" points="830,-184 772,-184 772,-165 830,-165 830,-184"/>
<text text-anchor="middle" x="801" y="-172" font-family="Helvetica,sans-Serif" font-size="10.00">memory</text>
</a>
</g>
</g>
<!-- Node3&#45;&gt;Node5 -->
<g id="edge4_Node000003_Node000005" class="edge">
<title>Node3&#45;&gt;Node5</title>
<g id="a_edge4_Node000003_Node000005"><a xlink:title=" ">
<path fill="none" stroke="#63b8ff" d="M801,-219.75C801,-212.8 801,-202.85 801,-194.13"/>
<polygon fill="#63b8ff" stroke="#63b8ff" points="804.5,-194.09 801,-184.09 797.5,-194.09 804.5,-194.09"/>
</a>
</g>
</g>
<!-- Node6 -->
<g id="Node000006" class="node">
<title>Node6</title>
<g id="a_Node000006"><a xlink:title=" ">
<polygon fill="#e0e0e0" stroke="#999999" points="912,-184 848,-184 848,-165 912,-165 912,-184"/>
<text text-anchor="middle" x="880" y="-172" font-family="Helvetica,sans-Serif" font-size="10.00">algorithm</text>
</a>
</g>
</g>
<!-- Node3&#45;&gt;Node6 -->
<g id="edge5_Node000003_Node000006" class="edge">
<title>Node3&#45;&gt;Node6</title>
<g id="a_edge5_Node000003_Node000006"><a xlink:title=" ">
<path fill="none" stroke="#63b8ff" d="M813.69,-219.98C825.83,-211.84 844.36,-199.41 858.75,-189.76"/>
<polygon fill="#63b8ff" stroke="#63b8ff" points="860.72,-192.65 867.08,-184.17 856.82,-186.84 860.72,-192.65"/>
</a>
</g>
</g>
<!-- Node7 -->
<g id="Node000007" class="node">
<title>Node7</title>
<g id="a_Node000007"><a xlink:title=" ">
<polygon fill="#e0e0e0" stroke="#999999" points="984,-184 930,-184 930,-165 984,-165 984,-184"/>
<text text-anchor="middle" x="957" y="-172" font-family="Helvetica,sans-Serif" font-size="10.00">random</text>
</a>
</g>
</g>
<!-- Node3&#45;&gt;Node7 -->
<g id="edge6_Node000003_Node000007" class="edge">
<title>Node3&#45;&gt;Node7</title>
<g id="a_edge6_Node000003_Node000007"><a xlink:title=" ">
<path fill="none" stroke="#63b8ff" d="M826.06,-219.98C852.03,-211.16 892.81,-197.31 921.96,-187.41"/>
<polygon fill="#63b8ff" stroke="#63b8ff" points="923.4,-190.61 931.74,-184.08 921.15,-183.99 923.4,-190.61"/>
</a>
</g>
</g>
<!-- Node8 -->
<g id="Node000008" class="node">
<title>Node8</title>
<g id="a_Node000008"><a xlink:href="GameObject_8h.html" target="_top" xlink:title="Base class and structures for all game objects with position, direction, and health.">
<polygon fill="white" stroke="#666666" points="807,-19 721,-19 721,0 807,0 807,-19"/>
<text text-anchor="middle" x="764" y="-7" font-family="Helvetica,sans-Serif" font-size="10.00">GameObject.h</text>
</a>
</g>
</g>
<!-- Node3&#45;&gt;Node8 -->
<g id="edge7_Node000003_Node000008" class="edge">
<title>Node3&#45;&gt;Node8</title>
<g id="a_edge7_Node000003_Node000008"><a xlink:title=" ">
<path fill="none" stroke="#63b8ff" d="M863.78,-225.61C949.39,-220.8 1097.54,-209.06 1145,-184 1179.88,-165.58 1218.34,-141.04 1194,-110 1147.84,-51.14 921.96,-24.18 817.36,-14.71"/>
<polygon fill="#63b8ff" stroke="#63b8ff" points="817.59,-11.21 807.32,-13.82 816.97,-18.19 817.59,-11.21"/>
</a>
</g>
</g>
<!-- Node9 -->
<g id="Node000009" class="node">
<title>Node9</title>
<g id="a_Node000009"><a xlink:href="PlayerTank_8h.html" target="_top" xlink:title="Player&#45;controlled tank with lives, score system, and special abilities.">
<polygon fill="white" stroke="#666666" points="1081.5,-184 1002.5,-184 1002.5,-165 1081.5,-165 1081.5,-184"/>
<text text-anchor="middle" x="1042" y="-172" font-family="Helvetica,sans-Serif" font-size="10.00">PlayerTank.h</text>
</a>
</g>
</g>
<!-- Node3&#45;&gt;Node9 -->
<g id="edge8_Node000003_Node000009" class="edge">
<title>Node3&#45;&gt;Node9</title>
<g id="a_edge8_Node000003_Node000009"><a xlink:title=" ">
<path fill="none" stroke="#63b8ff" d="M839.72,-219.98C881.41,-210.82 947.82,-196.21 993.09,-186.26"/>
<polygon fill="#63b8ff" stroke="#63b8ff" points="993.96,-189.65 1002.98,-184.08 992.46,-182.81 993.96,-189.65"/>
</a>
</g>
</g>
<!-- Node11 -->
<g id="Node000011" class="node">
<title>Node11</title>
<g id="a_Node000011"><a xlink:href="Projectile_8h.html" target="_top" xlink:title="Projectile class for bullets fired by tanks with collision detection.">
<polygon fill="white" stroke="#666666" points="725.5,-74 654.5,-74 654.5,-55 725.5,-55 725.5,-74"/>
<text text-anchor="middle" x="690" y="-62" font-family="Helvetica,sans-Serif" font-size="10.00">Projectile.h</text>
</a>
</g>
</g>
<!-- Node3&#45;&gt;Node11 -->
<g id="edge22_Node000003_Node000011" class="edge">
<title>Node3&#45;&gt;Node11</title>
<g id="a_edge22_Node000003_Node000011"><a xlink:title=" ">
<path fill="none" stroke="#63b8ff" d="M738.46,-224.45C710.65,-219.15 680.34,-207.81 663,-184 640.74,-153.43 662.88,-107.59 678.16,-82.84"/>
<polygon fill="#63b8ff" stroke="#63b8ff" points="681.27,-84.48 683.77,-74.18 675.39,-80.67 681.27,-84.48"/>
</a>
</g>
</g>
<!-- Node12 -->
<g id="Node000012" class="node">
<title>Node12</title>
<g id="a_Node000012"><a xlink:href="Bonus_8h.html" target="_top" xlink:title="Power&#45;up bonuses with various effects for enhancing player abilities.">
<polygon fill="white" stroke="#666666" points="848,-74 792,-74 792,-55 848,-55 848,-74"/>
<text text-anchor="middle" x="820" y="-62" font-family="Helvetica,sans-Serif" font-size="10.00">Bonus.h</text>
</a>
</g>
</g>
<!-- Node3&#45;&gt;Node12 -->
<g id="edge21_Node000003_Node000012" class="edge">
<title>Node3&#45;&gt;Node12</title>
<g id="a_edge21_Node000003_Node000012"><a xlink:title=" ">
<path fill="none" stroke="#63b8ff" d="M863.64,-228.04C939.96,-226 1062.3,-217.43 1091,-184 1159.04,-104.73 947.78,-76.61 858.18,-68.41"/>
<polygon fill="#63b8ff" stroke="#63b8ff" points="858.4,-64.91 848.13,-67.53 857.79,-71.89 858.4,-64.91"/>
</a>
</g>
</g>
<!-- Node13 -->
<g id="Node000013" class="node">
<title>Node13</title>
<g id="a_Node000013"><a xlink:href="EnemyTank_8h.html" target="_top" xlink:title="AI&#45;controlled enemy tanks with various behaviors, types, and difficulty levels.">
<polygon fill="white" stroke="#666666" points="754,-184 672,-184 672,-165 754,-165 754,-184"/>
<text text-anchor="middle" x="713" y="-172" font-family="Helvetica,sans-Serif" font-size="10.00">EnemyTank.h</text>
</a>
</g>
</g>
<!-- Node3&#45;&gt;Node13 -->
<g id="edge16_Node000003_Node000013" class="edge">
<title>Node3&#45;&gt;Node13</title>
<g id="a_edge16_Node000003_Node000013"><a xlink:title=" ">
<path fill="none" stroke="#63b8ff" d="M786.86,-219.98C773.21,-211.77 752.31,-199.18 736.22,-189.49"/>
<polygon fill="#63b8ff" stroke="#63b8ff" points="737.77,-186.33 727.4,-184.17 734.16,-192.33 737.77,-186.33"/>
</a>
</g>
</g>
<!-- Node15 -->
<g id="Node000015" class="node">
<title>Node15</title>
<g id="a_Node000015"><a xlink:href="Obstacle_8h.html" target="_top" xlink:title="Environmental obstacles including walls, water, forests, and their properties.">
<polygon fill="white" stroke="#666666" points="578,-184 510,-184 510,-165 578,-165 578,-184"/>
<text text-anchor="middle" x="544" y="-172" font-family="Helvetica,sans-Serif" font-size="10.00">Obstacle.h</text>
</a>
</g>
</g>
<!-- Node3&#45;&gt;Node15 -->
<g id="edge19_Node000003_Node000015" class="edge">
<title>Node3&#45;&gt;Node15</title>
<g id="a_edge19_Node000003_Node000015"><a xlink:title=" ">
<path fill="none" stroke="#63b8ff" d="M759.71,-219.98C712.68,-210.29 636.15,-194.5 588.02,-184.58"/>
<polygon fill="#63b8ff" stroke="#63b8ff" points="588.7,-181.14 578.2,-182.55 587.29,-188 588.7,-181.14"/>
</a>
</g>
</g>
<!-- Node16 -->
<g id="Node000016" class="node">
<title>Node16</title>
<g id="a_Node000016"><a xlink:href="Explosion_8h.html" target="_top" xlink:title="Visual explosion effects for game events like tank destruction.">
<polygon fill="white" stroke="#666666" points="1184.5,-129 1111.5,-129 1111.5,-110 1184.5,-110 1184.5,-129"/>
<text text-anchor="middle" x="1148" y="-117" font-family="Helvetica,sans-Serif" font-size="10.00">Explosion.h</text>
</a>
</g>
</g>
<!-- Node3&#45;&gt;Node16 -->
<g id="edge23_Node000003_Node000016" class="edge">
<title>Node3&#45;&gt;Node16</title>
<g id="a_edge23_Node000003_Node000016"><a xlink:title=" ">
<path fill="none" stroke="#63b8ff" d="M863.8,-227.3C946.21,-224.5 1084.94,-215.15 1124,-184 1137.66,-173.11 1143.55,-153.54 1146.08,-139"/>
<polygon fill="#63b8ff" stroke="#63b8ff" points="1149.55,-139.46 1147.44,-129.08 1142.62,-138.51 1149.55,-139.46"/>
</a>
</g>
</g>
<!-- Node10 -->
<g id="Node000010" class="node">
<title>Node10</title>
<g id="a_Node000010"><a xlink:href="Tank_8h.html" target="_top" xlink:title="Abstract tank base class with shooting, bonuses, and combat mechanics.">
<polygon fill="white" stroke="#666666" points="799,-129 751,-129 751,-110 799,-110 799,-129"/>
<text text-anchor="middle" x="775" y="-117" font-family="Helvetica,sans-Serif" font-size="10.00">Tank.h</text>
</a>
</g>
</g>
<!-- Node9&#45;&gt;Node10 -->
<g id="edge9_Node000009_Node000010" class="edge">
<title>Node9&#45;&gt;Node10</title>
<g id="a_edge9_Node000009_Node000010"><a xlink:title=" ">
<path fill="none" stroke="#63b8ff" d="M1002.32,-165.62C949.97,-155.23 858.7,-137.11 809.23,-127.29"/>
<polygon fill="#63b8ff" stroke="#63b8ff" points="809.83,-123.84 799.34,-125.33 808.46,-130.71 809.83,-123.84"/>
</a>
</g>
</g>
<!-- Node10&#45;&gt;Node8 -->
<g id="edge10_Node000010_Node000008" class="edge">
<title>Node10&#45;&gt;Node8</title>
<g id="a_edge10_Node000010_Node000008"><a xlink:title=" ">
<path fill="none" stroke="#63b8ff" d="M774.1,-109.66C772.32,-92.17 768.31,-52.8 765.91,-29.27"/>
<polygon fill="#63b8ff" stroke="#63b8ff" points="769.38,-28.75 764.88,-19.16 762.41,-29.46 769.38,-28.75"/>
</a>
</g>
</g>
<!-- Node10&#45;&gt;Node11 -->
<g id="edge11_Node000010_Node000011" class="edge">
<title>Node10&#45;&gt;Node11</title>
<g id="a_edge11_Node000010_Node000011"><a xlink:title=" ">
<path fill="none" stroke="#63b8ff" d="M761.34,-109.98C748.16,-101.77 727.97,-89.18 712.43,-79.49"/>
<polygon fill="#63b8ff" stroke="#63b8ff" points="714.24,-76.49 703.91,-74.17 710.54,-82.43 714.24,-76.49"/>
</a>
</g>
</g>
<!-- Node10&#45;&gt;Node12 -->
<g id="edge14_Node000010_Node000012" class="edge">
<title>Node10&#45;&gt;Node12</title>
<g id="a_edge14_Node000010_Node000012"><a xlink:title=" ">
<path fill="none" stroke="#63b8ff" d="M782.43,-109.75C788.85,-102.18 798.31,-91.05 806.12,-81.84"/>
<polygon fill="#63b8ff" stroke="#63b8ff" points="808.9,-83.98 812.71,-74.09 803.57,-79.45 808.9,-83.98"/>
</a>
</g>
</g>
<!-- Node11&#45;&gt;Node4 -->
<g id="edge13_Node000011_Node000004" class="edge">
<title>Node11&#45;&gt;Node4</title>
<g id="a_edge13_Node000011_Node000004"><a xlink:title=" ">
<path fill="none" stroke="#63b8ff" d="M654.49,-55.85C607.11,-45.64 523.83,-27.7 477.5,-17.72"/>
<polygon fill="#63b8ff" stroke="#63b8ff" points="478.16,-14.28 467.65,-15.59 476.69,-21.12 478.16,-14.28"/>
</a>
</g>
</g>
<!-- Node11&#45;&gt;Node8 -->
<g id="edge12_Node000011_Node000008" class="edge">
<title>Node11&#45;&gt;Node8</title>
<g id="a_edge12_Node000011_Node000008"><a xlink:title=" ">
<path fill="none" stroke="#63b8ff" d="M701.89,-54.98C713.15,-46.92 730.29,-34.65 743.71,-25.03"/>
<polygon fill="#63b8ff" stroke="#63b8ff" points="745.8,-27.84 751.89,-19.17 741.73,-22.15 745.8,-27.84"/>
</a>
</g>
</g>
<!-- Node12&#45;&gt;Node8 -->
<g id="edge15_Node000012_Node000008" class="edge">
<title>Node12&#45;&gt;Node8</title>
<g id="a_edge15_Node000012_Node000008"><a xlink:title=" ">
<path fill="none" stroke="#63b8ff" d="M811,-54.98C802.81,-47.23 790.49,-35.58 780.53,-26.14"/>
<polygon fill="#63b8ff" stroke="#63b8ff" points="782.83,-23.5 773.16,-19.17 778.02,-28.59 782.83,-23.5"/>
</a>
</g>
</g>
<!-- Node13&#45;&gt;Node10 -->
<g id="edge17_Node000013_Node000010" class="edge">
<title>Node13&#45;&gt;Node10</title>
<g id="a_edge17_Node000013_Node000010"><a xlink:title=" ">
<path fill="none" stroke="#63b8ff" d="M722.96,-164.98C732.13,-157.15 745.94,-145.34 757.03,-135.86"/>
<polygon fill="#63b8ff" stroke="#63b8ff" points="759.53,-138.33 764.86,-129.17 754.98,-133.01 759.53,-138.33"/>
</a>
</g>
</g>
<!-- Node14 -->
<g id="Node000014" class="node">
<title>Node14</title>
<g id="a_Node000014"><a xlink:title=" ">
<polygon fill="#e0e0e0" stroke="#999999" points="732.5,-129 679.5,-129 679.5,-110 732.5,-110 732.5,-129"/>
<text text-anchor="middle" x="706" y="-117" font-family="Helvetica,sans-Serif" font-size="10.00">stdlib.h</text>
</a>
</g>
</g>
<!-- Node13&#45;&gt;Node14 -->
<g id="edge18_Node000013_Node000014" class="edge">
<title>Node13&#45;&gt;Node14</title>
<g id="a_edge18_Node000013_Node000014"><a xlink:title=" ">
<path fill="none" stroke="#63b8ff" d="M711.84,-164.75C710.93,-157.8 709.61,-147.85 708.46,-139.13"/>
<polygon fill="#63b8ff" stroke="#63b8ff" points="711.91,-138.54 707.13,-129.09 704.97,-139.46 711.91,-138.54"/>
</a>
</g>
</g>
<!-- Node15&#45;&gt;Node8 -->
<g id="edge20_Node000015_Node000008" class="edge">
<title>Node15&#45;&gt;Node8</title>
<g id="a_edge20_Node000015_Node000008"><a xlink:title=" ">
<path fill="none" stroke="#63b8ff" d="M544.88,-164.84C547.58,-142.94 557.78,-84.99 592,-55 624.65,-26.39 673.4,-15.78 710.67,-12.04"/>
<polygon fill="#63b8ff" stroke="#63b8ff" points="711.2,-15.51 720.86,-11.15 710.59,-8.53 711.2,-15.51"/>
</a>
</g>
</g>
<!-- Node16&#45;&gt;Node8 -->
<g id="edge24_Node000016_Node000008" class="edge">
<title>Node16&#45;&gt;Node8</title>
<g id="a_edge24_Node000016_Node000008"><a xlink:title=" ">
<path fill="none" stroke="#63b8ff" d="M1117.55,-109.94C1048.79,-90.6 881.52,-43.55 804.3,-21.83"/>
<polygon fill="#63b8ff" stroke="#63b8ff" points="805.03,-18.4 794.46,-19.07 803.13,-25.14 805.03,-18.4"/>
</a>
</g>
</g>
<!-- Node17&#45;&gt;Node3 -->
<g id="edge30_Node000017_Node000003" class="edge">
<title>Node17&#45;&gt;Node3</title>
<g id="a_edge30_Node000017_Node000003"><a xlink:title=" ">
<path fill="none" stroke="#63b8ff" d="M534.09,-274.98C590.11,-265.65 679.95,-250.67 739.71,-240.71"/>
<polygon fill="#63b8ff" stroke="#63b8ff" points="740.48,-244.13 749.77,-239.04 739.33,-237.23 740.48,-244.13"/>
</a>
</g>
</g>
<!-- Node17&#45;&gt;Node4 -->
<g id="edge27_Node000017_Node000004" class="edge">
<title>Node17&#45;&gt;Node4</title>
<g id="a_edge27_Node000017_Node000004"><a xlink:title=" ">
<path fill="none" stroke="#63b8ff" d="M477.58,-274.92C466.86,-257.12 444,-214.57 444,-175.5 444,-175.5 444,-175.5 444,-118.5 444,-87.19 444,-50.77 444,-29.23"/>
<polygon fill="#63b8ff" stroke="#63b8ff" points="447.5,-29.18 444,-19.18 440.5,-29.18 447.5,-29.18"/>
</a>
</g>
</g>
<!-- Node17&#45;&gt;Node8 -->
<g id="edge29_Node000017_Node000008" class="edge">
<title>Node17&#45;&gt;Node8</title>
<g id="a_edge29_Node000017_Node000008"><a xlink:title=" ">
<path fill="none" stroke="#63b8ff" d="M523.73,-274.93C545.27,-268.44 570.59,-257.39 587,-239 606.61,-217.02 606,-204.96 606,-175.5 606,-175.5 606,-175.5 606,-118.5 606,-64.84 668.89,-35.9 715.32,-21.85"/>
<polygon fill="#63b8ff" stroke="#63b8ff" points="716.3,-25.2 724.94,-19.07 714.37,-18.48 716.3,-25.2"/>
</a>
</g>
</g>
<!-- Node17&#45;&gt;Node13 -->
<g id="edge32_Node000017_Node000013" class="edge">
<title>Node17&#45;&gt;Node13</title>
<g id="a_edge32_Node000017_Node000013"><a xlink:title=" ">
<path fill="none" stroke="#63b8ff" d="M518.41,-274.98C546.73,-267.47 587,-255.21 620,-239 647.6,-225.44 676.38,-204.58 694.48,-190.5"/>
<polygon fill="#63b8ff" stroke="#63b8ff" points="696.79,-193.14 702.46,-184.2 692.44,-187.65 696.79,-193.14"/>
</a>
</g>
</g>
<!-- Node17&#45;&gt;Node15 -->
<g id="edge31_Node000017_Node000015" class="edge">
<title>Node17&#45;&gt;Node15</title>
<g id="a_edge31_Node000017_Node000015"><a xlink:title=" ">
<path fill="none" stroke="#63b8ff" d="M484.1,-274.76C485.99,-262.01 490.71,-237.88 501,-220 507.25,-209.13 516.74,-198.93 525.22,-191.04"/>
<polygon fill="#63b8ff" stroke="#63b8ff" points="527.73,-193.49 532.89,-184.23 523.09,-188.25 527.73,-193.49"/>
</a>
</g>
</g>
<!-- Node17&#45;&gt;Node18 -->
<g id="edge26_Node000017_Node000018" class="edge">
<title>Node17&#45;&gt;Node18</title>
<g id="a_edge26_Node000017_Node000018"><a xlink:title=" ">
<path fill="none" stroke="#63b8ff" d="M468.7,-274.98C454.9,-266.77 433.76,-254.18 417.49,-244.49"/>
<polygon fill="#63b8ff" stroke="#63b8ff" points="418.94,-241.28 408.56,-239.17 415.36,-247.29 418.94,-241.28"/>
</a>
</g>
</g>
<!-- Node19 -->
<g id="Node000019" class="node">
<title>Node19</title>
<g id="a_Node000019"><a xlink:title=" ">
<polygon fill="#e0e0e0" stroke="#999999" points="578,-239 510,-239 510,-220 578,-220 578,-239"/>
<text text-anchor="middle" x="544" y="-227" font-family="Helvetica,sans-Serif" font-size="10.00">filesystem</text>
</a>
</g>
</g>
<!-- Node17&#45;&gt;Node19 -->
<g id="edge28_Node000017_Node000019" class="edge">
<title>Node17&#45;&gt;Node19</title>
<g id="a_edge28_Node000017_Node000019"><a xlink:title=" ">
<path fill="none" stroke="#63b8ff" d="M492.8,-274.98C501.82,-267.15 515.41,-255.34 526.32,-245.86"/>
<polygon fill="#63b8ff" stroke="#63b8ff" points="528.77,-248.37 534.02,-239.17 524.18,-243.09 528.77,-248.37"/>
</a>
</g>
</g>
<!-- Node20&#45;&gt;Node18 -->
<g id="edge34_Node000020_Node000018" class="edge">
<title>Node20&#45;&gt;Node18</title>
<g id="a_edge34_Node000020_Node000018"><a xlink:title=" ">
<path fill="none" stroke="#63b8ff" d="M279.01,-274.98C301.45,-266.3 336.48,-252.75 361.99,-242.88"/>
<polygon fill="#63b8ff" stroke="#63b8ff" points="363.52,-246.04 371.59,-239.17 361,-239.51 363.52,-246.04"/>
</a>
</g>
</g>
<!-- Node21 -->
<g id="Node000021" class="node">
<title>Node21</title>
<g id="a_Node000021"><a xlink:title=" ">
<polygon fill="#e0e0e0" stroke="#999999" points="279.5,-239 216.5,-239 216.5,-220 279.5,-220 279.5,-239"/>
<text text-anchor="middle" x="248" y="-227" font-family="Helvetica,sans-Serif" font-size="10.00">termios.h</text>
</a>
</g>
</g>
<!-- Node20&#45;&gt;Node21 -->
<g id="edge35_Node000020_Node000021" class="edge">
<title>Node20&#45;&gt;Node21</title>
<g id="a_edge35_Node000020_Node000021"><a xlink:title=" ">
<path fill="none" stroke="#63b8ff" d="M255.51,-274.75C254.33,-267.8 252.64,-257.85 251.16,-249.13"/>
<polygon fill="#63b8ff" stroke="#63b8ff" points="254.58,-248.36 249.46,-239.09 247.68,-249.53 254.58,-248.36"/>
</a>
</g>
</g>
<!-- Node22 -->
<g id="Node000022" class="node">
<title>Node22</title>
<g id="a_Node000022"><a xlink:title=" ">
<polygon fill="#e0e0e0" stroke="#999999" points="354,-239 298,-239 298,-220 354,-220 354,-239"/>
<text text-anchor="middle" x="326" y="-227" font-family="Helvetica,sans-Serif" font-size="10.00">unistd.h</text>
</a>
</g>
</g>
<!-- Node20&#45;&gt;Node22 -->
<g id="edge36_Node000020_Node000022" class="edge">
<title>Node20&#45;&gt;Node22</title>
<g id="a_edge36_Node000020_Node000022"><a xlink:title=" ">
<path fill="none" stroke="#63b8ff" d="M268.09,-274.98C278.49,-267 294.26,-254.88 306.72,-245.31"/>
<polygon fill="#63b8ff" stroke="#63b8ff" points="308.91,-248.04 314.71,-239.17 304.65,-242.49 308.91,-248.04"/>
</a>
</g>
</g>
<!-- Node23 -->
<g id="Node000023" class="node">
<title>Node23</title>
<g id="a_Node000023"><a xlink:title=" ">
<polygon fill="#e0e0e0" stroke="#999999" points="113.5,-239 66.5,-239 66.5,-220 113.5,-220 113.5,-239"/>
<text text-anchor="middle" x="90" y="-227" font-family="Helvetica,sans-Serif" font-size="10.00">fcntl.h</text>
</a>
</g>
</g>
<!-- Node20&#45;&gt;Node23 -->
<g id="edge37_Node000020_Node000023" class="edge">
<title>Node20&#45;&gt;Node23</title>
<g id="a_edge37_Node000020_Node000023"><a xlink:title=" ">
<path fill="none" stroke="#63b8ff" d="M230.17,-274.98C201.05,-265.74 154.52,-250.98 123.14,-241.02"/>
<polygon fill="#63b8ff" stroke="#63b8ff" points="124.12,-237.66 113.53,-237.97 122,-244.33 124.12,-237.66"/>
</a>
</g>
</g>
<!-- Node24 -->
<g id="Node000024" class="node">
<title>Node24</title>
<g id="a_Node000024"><a xlink:title=" ">
<polygon fill="#e0e0e0" stroke="#999999" points="198,-239 132,-239 132,-220 198,-220 198,-239"/>
<text text-anchor="middle" x="165" y="-227" font-family="Helvetica,sans-Serif" font-size="10.00">sys/ioctl.h</text>
</a>
</g>
</g>
<!-- Node20&#45;&gt;Node24 -->
<g id="edge38_Node000020_Node000024" class="edge">
<title>Node20&#45;&gt;Node24</title>
<g id="a_edge38_Node000020_Node000024"><a xlink:title=" ">
<path fill="none" stroke="#63b8ff" d="M242.22,-274.98C227.82,-266.69 205.69,-253.94 188.81,-244.22"/>
<polygon fill="#63b8ff" stroke="#63b8ff" points="190.46,-241.13 180.05,-239.17 186.97,-247.19 190.46,-241.13"/>
</a>
</g>
</g>
</g>
</svg>

<g id="navigator" transform="translate(0 0)" fill="#404254">
  <rect fill="#f2f5e9" fill-opacity="0.5" stroke="#606060" stroke-width=".5" x="0" y="0" width="60" height="60"/>
  <use id="zoomplus" xlink:href="#zoomPlus" x="17" y="9" onmousedown="handleZoom(evt,'in')"/>
  <use id="zoomminus" xlink:href="#zoomMin" x="42" y="9" onmousedown="handleZoom(evt,'out')"/>
  <use id="reset" xlink:href="#resetDef" x="30" y="36" onmousedown="handleReset()"/>
   <use id="arrowup" xlink:href="#arrowUp" x="0" y="0" onmousedown="handlePan(0,-1)"/>
  <use id="arrowright" xlink:href="#arrowRight" x="0" y="0" onmousedown="handlePan(1,0)"/>
  <use id="arrowdown" xlink:href="#arrowDown" x="0" y="0" onmousedown="handlePan(0,1)"/>
  <use id="arrowleft" xlink:href="#arrowLeft" x="0" y="0" onmousedown="handlePan(-1,0)"/>
</g>
<svg viewBox="0 0 15 15" width="100%" height="30px" preserveAspectRatio="xMaxYMin meet">
 <g id="arrow_out" transform="scale(0.3 0.3)">
  <a xlink:href="ConsoleRenderer_8cpp__incl_org.svg" target="_base">
   <rect id="button" ry="5" rx="5" y="6" x="6" height="38" width="38"
        fill="#f2f5e9" fill-opacity="0.5" stroke="#606060" stroke-width="1.0"/>
   <path id="arrow"
     d="M 11.500037,31.436501 C 11.940474,20.09759 22.043105,11.32322 32.158766,21.979434 L 37.068811,17.246167 C 37.068811,17.246167 37.088388,32 37.088388,32 L 22.160133,31.978069 C 22.160133,31.978069 26.997745,27.140456 26.997745,27.140456 C 18.528582,18.264221 13.291696,25.230495 11.500037,31.436501 z"
     style="fill:#404040;"/>
  </a>
 </g>
</svg>

<style type='text/css'>
<![CDATA[
[data-mouse-over-selected='false'] { opacity: 0.7; }
[data-mouse-over-selected='true']  { opacity: 1.0; }
]]>
</style>
<script type="application/ecmascript"><![CDATA[
document.addEventListener('DOMContentLoaded', (event) => {
  highlightEdges();
  highlightAdjacentNodes();
});
]]></script>
</svg>
