<?xml version="1.0" encoding="UTF-8" standalone="no"?>
<!DOCTYPE svg PUBLIC "-//W3C//DTD SVG 1.1//EN"
 "http://www.w3.org/Graphics/SVG/1.1/DTD/svg11.dtd">
<!-- Generated by graphviz version 2.43.0 (0)
 -->
<!-- Title: src Pages: 1 -->
<svg width="120pt" height="279pt"
 viewBox="0.00 0.00 120.00 279.00" xmlns="http://www.w3.org/2000/svg" xmlns:xlink="http://www.w3.org/1999/xlink">
<g id="graph0" class="graph" transform="scale(1 1) rotate(0) translate(4 275)">
<title>src</title>
<g id="clust1" class="cluster">
<title>clusterdir_68267d1309a1af8e8297ef4c3efbcdba</title>
<g id="a_clust1"><a xlink:href="dir_68267d1309a1af8e8297ef4c3efbcdba.html" target="_top">
<polygon fill="#edf0f7" stroke="#404040" stroke-width="2" points="8,-8 8,-263 104,-263 104,-8 8,-8"/>
</a>
</g>
</g>
<!-- dir_68267d1309a1af8e8297ef4c3efbcdba -->
<g id="node1" class="node">
<title>dir_68267d1309a1af8e8297ef4c3efbcdba</title>
<text text-anchor="middle" x="48" y="-243" font-family="Helvetica,sans-Serif" font-size="10.00">src</text>
</g>
<!-- dir_41ef5d8a90b9cc03a02949a5c062e6f0 -->
<g id="node2" class="node">
<title>dir_41ef5d8a90b9cc03a02949a5c062e6f0</title>
<g id="a_node2"><a xlink:href="dir_41ef5d8a90b9cc03a02949a5c062e6f0.html" target="_top" xlink:title="controller">
<polygon fill="#a2b4d6" stroke="#404040" points="79.5,-200 16.5,-200 16.5,-181 79.5,-181 79.5,-200"/>
<text text-anchor="middle" x="48" y="-188" font-family="Helvetica,sans-Serif" font-size="10.00">controller</text>
</a>
</g>
</g>
<!-- dir_68267d1309a1af8e8297ef4c3efbcdba&#45;&gt;dir_41ef5d8a90b9cc03a02949a5c062e6f0 -->
<g id="edge1" class="edge">
<title>dir_68267d1309a1af8e8297ef4c3efbcdba&#45;&gt;dir_41ef5d8a90b9cc03a02949a5c062e6f0</title>
<g id="a_edge1"><a xlink:href="dir_000002_000000.html" target="_top">
<path fill="none" stroke="#63b8ff" d="M48,-235.75C48,-228.8 48,-218.85 48,-210.13"/>
<polygon fill="#63b8ff" stroke="#63b8ff" points="51.5,-210.09 48,-200.09 44.5,-210.09 51.5,-210.09"/>
</a>
</g>
<g id="a_edge1&#45;headlabel"><a xlink:href="dir_000002_000000.html" target="_top" xlink:title="1">
<text text-anchor="middle" x="54.34" y="-211.18" font-family="Helvetica,sans-Serif" font-size="10.00" fill="#63b8ff">1</text>
</a>
</g>
</g>
<!-- dir_5dd65160827af56e6353642206b80129 -->
<g id="node3" class="node">
<title>dir_5dd65160827af56e6353642206b80129</title>
<g id="a_node3"><a xlink:href="dir_5dd65160827af56e6353642206b80129.html" target="_top" xlink:title="model">
<polygon fill="#a2b4d6" stroke="#404040" points="78.5,-35 31.5,-35 31.5,-16 78.5,-16 78.5,-35"/>
<text text-anchor="middle" x="55" y="-23" font-family="Helvetica,sans-Serif" font-size="10.00">model</text>
</a>
</g>
</g>
<!-- dir_41ef5d8a90b9cc03a02949a5c062e6f0&#45;&gt;dir_5dd65160827af56e6353642206b80129 -->
<g id="edge3" class="edge">
<title>dir_41ef5d8a90b9cc03a02949a5c062e6f0&#45;&gt;dir_5dd65160827af56e6353642206b80129</title>
<g id="a_edge3"><a xlink:href="dir_000000_000001.html" target="_top">
<path fill="none" stroke="#63b8ff" d="M43.76,-180.73C34.75,-160.89 15.42,-111.15 27,-71 29.87,-61.06 35.68,-51.2 41.28,-43.29"/>
<polygon fill="#63b8ff" stroke="#63b8ff" points="44.08,-45.39 47.33,-35.3 38.5,-41.16 44.08,-45.39"/>
</a>
</g>
<g id="a_edge3&#45;headlabel"><a xlink:href="dir_000000_000001.html" target="_top" xlink:title="1">
<text text-anchor="middle" x="44.18" y="-47.47" font-family="Helvetica,sans-Serif" font-size="10.00" fill="#63b8ff">1</text>
</a>
</g>
</g>
<!-- dir_313caf1132e152dd9b58bea13a4052ca -->
<g id="node4" class="node">
<title>dir_313caf1132e152dd9b58bea13a4052ca</title>
<g id="a_node4"><a xlink:href="dir_313caf1132e152dd9b58bea13a4052ca.html" target="_top" xlink:title="utils">
<polygon fill="#a2b4d6" stroke="#404040" points="74,-90 36,-90 36,-71 74,-71 74,-90"/>
<text text-anchor="middle" x="55" y="-78" font-family="Helvetica,sans-Serif" font-size="10.00">utils</text>
</a>
</g>
</g>
<!-- dir_41ef5d8a90b9cc03a02949a5c062e6f0&#45;&gt;dir_313caf1132e152dd9b58bea13a4052ca -->
<g id="edge2" class="edge">
<title>dir_41ef5d8a90b9cc03a02949a5c062e6f0&#45;&gt;dir_313caf1132e152dd9b58bea13a4052ca</title>
<g id="a_edge2"><a xlink:href="dir_000000_000003.html" target="_top">
<path fill="none" stroke="#63b8ff" d="M47.29,-180.85C46.42,-168.61 45.26,-145.55 47,-126 47.76,-117.5 49.32,-108.19 50.86,-100.29"/>
<polygon fill="#63b8ff" stroke="#63b8ff" points="54.32,-100.81 52.94,-90.3 47.47,-99.38 54.32,-100.81"/>
</a>
</g>
<g id="a_edge2&#45;headlabel"><a xlink:href="dir_000000_000003.html" target="_top" xlink:title="4">
<text text-anchor="middle" x="56.37" y="-102.4" font-family="Helvetica,sans-Serif" font-size="10.00" fill="#63b8ff">4</text>
</a>
</g>
</g>
<!-- dir_b39b5091e8d1d2be4b7fc59d57749634 -->
<g id="node5" class="node">
<title>dir_b39b5091e8d1d2be4b7fc59d57749634</title>
<g id="a_node5"><a xlink:href="dir_b39b5091e8d1d2be4b7fc59d57749634.html" target="_top" xlink:title="view">
<polygon fill="#a2b4d6" stroke="#404040" points="96,-145 56,-145 56,-126 96,-126 96,-145"/>
<text text-anchor="middle" x="76" y="-133" font-family="Helvetica,sans-Serif" font-size="10.00">view</text>
</a>
</g>
</g>
<!-- dir_41ef5d8a90b9cc03a02949a5c062e6f0&#45;&gt;dir_b39b5091e8d1d2be4b7fc59d57749634 -->
<g id="edge4" class="edge">
<title>dir_41ef5d8a90b9cc03a02949a5c062e6f0&#45;&gt;dir_b39b5091e8d1d2be4b7fc59d57749634</title>
<g id="a_edge4"><a xlink:href="dir_000000_000004.html" target="_top">
<path fill="none" stroke="#63b8ff" d="M52.62,-180.75C56.46,-173.49 62.02,-162.95 66.76,-153.98"/>
<polygon fill="#63b8ff" stroke="#63b8ff" points="69.89,-155.57 71.46,-145.09 63.7,-152.3 69.89,-155.57"/>
</a>
</g>
<g id="a_edge4&#45;headlabel"><a xlink:href="dir_000000_000004.html" target="_top" xlink:title="1">
<text text-anchor="middle" x="70.72" y="-157.57" font-family="Helvetica,sans-Serif" font-size="10.00" fill="#63b8ff">1</text>
</a>
</g>
</g>
<!-- dir_313caf1132e152dd9b58bea13a4052ca&#45;&gt;dir_5dd65160827af56e6353642206b80129 -->
<g id="edge5" class="edge">
<title>dir_313caf1132e152dd9b58bea13a4052ca&#45;&gt;dir_5dd65160827af56e6353642206b80129</title>
<g id="a_edge5"><a xlink:href="dir_000003_000001.html" target="_top">
<path fill="none" stroke="#63b8ff" d="M55,-70.75C55,-63.8 55,-53.85 55,-45.13"/>
<polygon fill="#63b8ff" stroke="#63b8ff" points="58.5,-45.09 55,-35.09 51.5,-45.09 58.5,-45.09"/>
</a>
</g>
<g id="a_edge5&#45;headlabel"><a xlink:href="dir_000003_000001.html" target="_top" xlink:title="5">
<text text-anchor="middle" x="61.34" y="-46.18" font-family="Helvetica,sans-Serif" font-size="10.00" fill="#63b8ff">5</text>
</a>
</g>
</g>
<!-- dir_b39b5091e8d1d2be4b7fc59d57749634&#45;&gt;dir_5dd65160827af56e6353642206b80129 -->
<g id="edge7" class="edge">
<title>dir_b39b5091e8d1d2be4b7fc59d57749634&#45;&gt;dir_5dd65160827af56e6353642206b80129</title>
<g id="a_edge7"><a xlink:href="dir_000004_000001.html" target="_top">
<path fill="none" stroke="#63b8ff" d="M79.08,-125.69C82.95,-113.26 88.47,-89.97 83,-71 80.13,-61.06 74.32,-51.2 68.72,-43.29"/>
<polygon fill="#63b8ff" stroke="#63b8ff" points="71.5,-41.16 62.67,-35.3 65.92,-45.39 71.5,-41.16"/>
</a>
</g>
<g id="a_edge7&#45;headlabel"><a xlink:href="dir_000004_000001.html" target="_top" xlink:title="1">
<text text-anchor="middle" x="75.93" y="-39.82" font-family="Helvetica,sans-Serif" font-size="10.00" fill="#63b8ff">1</text>
</a>
</g>
</g>
<!-- dir_b39b5091e8d1d2be4b7fc59d57749634&#45;&gt;dir_313caf1132e152dd9b58bea13a4052ca -->
<g id="edge6" class="edge">
<title>dir_b39b5091e8d1d2be4b7fc59d57749634&#45;&gt;dir_313caf1132e152dd9b58bea13a4052ca</title>
<g id="a_edge6"><a xlink:href="dir_000004_000003.html" target="_top">
<path fill="none" stroke="#63b8ff" d="M72.53,-125.75C69.72,-118.65 65.66,-108.4 62.15,-99.56"/>
<polygon fill="#63b8ff" stroke="#63b8ff" points="65.34,-98.1 58.4,-90.09 58.83,-100.68 65.34,-98.1"/>
</a>
</g>
<g id="a_edge6&#45;headlabel"><a xlink:href="dir_000004_000003.html" target="_top" xlink:title="2">
<text text-anchor="middle" x="69.3" y="-97.89" font-family="Helvetica,sans-Serif" font-size="10.00" fill="#63b8ff">2</text>
</a>
</g>
</g>
</g>
</svg>
