<?xml version="1.0" encoding="UTF-8" standalone="no"?>
<!DOCTYPE svg PUBLIC "-//W3C//DTD SVG 1.1//EN"
 "http://www.w3.org/Graphics/SVG/1.1/DTD/svg11.dtd">
<!-- Generated by graphviz version 2.43.0 (0)
 -->
<!-- Title: model/EnemyTank.h Pages: 1 -->
<svg width="377pt" height="302pt"
 viewBox="0.00 0.00 377.20 302.00" xmlns="http://www.w3.org/2000/svg" xmlns:xlink="http://www.w3.org/1999/xlink">
<g id="graph0" class="graph" transform="scale(1 1) rotate(0) translate(4 298)">
<title>model/EnemyTank.h</title>
<!-- Node1 -->
<g id="Node000001" class="node">
<title>Node1</title>
<g id="a_Node000001"><a xlink:title="AI&#45;controlled enemy tanks with various behaviors, types, and difficulty levels.">
<polygon fill="#999999" stroke="#666666" points="262,-294 146,-294 146,-275 262,-275 262,-294"/>
<text text-anchor="middle" x="204" y="-282" font-family="Helvetica,sans-Serif" font-size="10.00">model/EnemyTank.h</text>
</a>
</g>
</g>
<!-- Node2 -->
<g id="Node000002" class="node">
<title>Node2</title>
<g id="a_Node000002"><a xlink:href="EnemyTank_8cpp.html" target="_top" xlink:title="Implementation of enemy tank AI behaviors, movement patterns, and combat logic.">
<polygon fill="white" stroke="#666666" points="127.5,-239 0.5,-239 0.5,-220 127.5,-220 127.5,-239"/>
<text text-anchor="middle" x="64" y="-227" font-family="Helvetica,sans-Serif" font-size="10.00">model/EnemyTank.cpp</text>
</a>
</g>
</g>
<!-- Node1&#45;&gt;Node2 -->
<g id="edge1_Node000001_Node000002" class="edge">
<title>Node1&#45;&gt;Node2</title>
<g id="a_edge1_Node000001_Node000002"><a xlink:title=" ">
<path fill="none" stroke="#63b8ff" d="M172.09,-271.42C146.12,-261.59 110.08,-247.95 86.9,-239.17"/>
<polygon fill="#63b8ff" stroke="#63b8ff" points="170.92,-274.72 181.51,-274.98 173.39,-268.17 170.92,-274.72"/>
</a>
</g>
</g>
<!-- Node3 -->
<g id="Node000003" class="node">
<title>Node3</title>
<g id="a_Node000003"><a xlink:href="GameWorld_8h.html" target="_top" xlink:title="Main game world manager handling objects, collisions, states, and game logic.">
<polygon fill="white" stroke="#666666" points="262,-239 146,-239 146,-220 262,-220 262,-239"/>
<text text-anchor="middle" x="204" y="-227" font-family="Helvetica,sans-Serif" font-size="10.00">model/GameWorld.h</text>
</a>
</g>
</g>
<!-- Node1&#45;&gt;Node3 -->
<g id="edge2_Node000001_Node000003" class="edge">
<title>Node1&#45;&gt;Node3</title>
<g id="a_edge2_Node000001_Node000003"><a xlink:title=" ">
<path fill="none" stroke="#63b8ff" d="M204,-264.66C204,-255.93 204,-245.99 204,-239.09"/>
<polygon fill="#63b8ff" stroke="#63b8ff" points="200.5,-264.75 204,-274.75 207.5,-264.75 200.5,-264.75"/>
</a>
</g>
</g>
<!-- Node8 -->
<g id="Node000008" class="node">
<title>Node8</title>
<g id="a_Node000008"><a xlink:href="MapManager_8h.html" target="_top" xlink:title="Manages game maps, level generation, and procedural content.">
<polygon fill="white" stroke="#666666" points="346.5,-184 233.5,-184 233.5,-165 346.5,-165 346.5,-184"/>
<text text-anchor="middle" x="290" y="-172" font-family="Helvetica,sans-Serif" font-size="10.00">utils/MapManager.h</text>
</a>
</g>
</g>
<!-- Node1&#45;&gt;Node8 -->
<g id="edge14_Node000001_Node000008" class="edge">
<title>Node1&#45;&gt;Node8</title>
<g id="a_edge14_Node000001_Node000008"><a xlink:title=" ">
<path fill="none" stroke="#63b8ff" d="M232.66,-270.31C246.03,-262.84 261.14,-252.31 271,-239 283.47,-222.17 287.81,-197.18 289.28,-184.13"/>
<polygon fill="#63b8ff" stroke="#63b8ff" points="230.98,-267.23 223.76,-274.99 234.24,-273.43 230.98,-267.23"/>
</a>
</g>
</g>
<!-- Node4 -->
<g id="Node000004" class="node">
<title>Node4</title>
<g id="a_Node000004"><a xlink:href="GameController_8h.html" target="_top" xlink:title="Central game controller coordinating model, view, and input systems.">
<polygon fill="white" stroke="#666666" points="316,-74 164,-74 164,-55 316,-55 316,-74"/>
<text text-anchor="middle" x="240" y="-62" font-family="Helvetica,sans-Serif" font-size="10.00">controller/GameController.h</text>
</a>
</g>
</g>
<!-- Node3&#45;&gt;Node4 -->
<g id="edge3_Node000003_Node000004" class="edge">
<title>Node3&#45;&gt;Node4</title>
<g id="a_edge3_Node000003_Node000004"><a xlink:title=" ">
<path fill="none" stroke="#63b8ff" d="M205.8,-209.73C208.34,-186.15 213.73,-144.59 223,-110 226.43,-97.22 232.21,-83.03 236.07,-74.19"/>
<polygon fill="#63b8ff" stroke="#63b8ff" points="202.31,-209.44 204.78,-219.75 209.28,-210.15 202.31,-209.44"/>
</a>
</g>
</g>
<!-- Node7 -->
<g id="Node000007" class="node">
<title>Node7</title>
<g id="a_Node000007"><a xlink:href="GameWorld_8cpp.html" target="_top" xlink:title="Core game simulation with object management, collisions, and level generation.">
<polygon fill="white" stroke="#666666" points="138,-184 10,-184 10,-165 138,-165 138,-184"/>
<text text-anchor="middle" x="74" y="-172" font-family="Helvetica,sans-Serif" font-size="10.00">model/GameWorld.cpp</text>
</a>
</g>
</g>
<!-- Node3&#45;&gt;Node7 -->
<g id="edge6_Node000003_Node000007" class="edge">
<title>Node3&#45;&gt;Node7</title>
<g id="a_edge6_Node000003_Node000007"><a xlink:title=" ">
<path fill="none" stroke="#63b8ff" d="M173.73,-216.16C149.66,-206.35 116.6,-192.87 95.27,-184.17"/>
<polygon fill="#63b8ff" stroke="#63b8ff" points="172.53,-219.45 183.11,-219.98 175.17,-212.97 172.53,-219.45"/>
</a>
</g>
</g>
<!-- Node3&#45;&gt;Node8 -->
<g id="edge7_Node000003_Node000008" class="edge">
<title>Node3&#45;&gt;Node8</title>
<g id="a_edge7_Node000003_Node000008"><a xlink:title=" ">
<path fill="none" stroke="#63b8ff" d="M226.4,-214.7C242.07,-205.04 262.51,-192.44 275.93,-184.17"/>
<polygon fill="#63b8ff" stroke="#63b8ff" points="224.49,-211.76 217.82,-219.98 228.17,-217.72 224.49,-211.76"/>
</a>
</g>
</g>
<!-- Node10 -->
<g id="Node000010" class="node">
<title>Node10</title>
<g id="a_Node000010"><a xlink:href="ConsoleRenderer_8h.html" target="_top" xlink:title="Renders game state, menus, and UI elements to the console.">
<polygon fill="white" stroke="#666666" points="176,-129 42,-129 42,-110 176,-110 176,-129"/>
<text text-anchor="middle" x="109" y="-117" font-family="Helvetica,sans-Serif" font-size="10.00">view/ConsoleRenderer.h</text>
</a>
</g>
</g>
<!-- Node3&#45;&gt;Node10 -->
<g id="edge13_Node000003_Node000010" class="edge">
<title>Node3&#45;&gt;Node10</title>
<g id="a_edge13_Node000003_Node000010"><a xlink:title=" ">
<path fill="none" stroke="#63b8ff" d="M189.48,-212C169.02,-188.73 132.42,-147.13 116.62,-129.16"/>
<polygon fill="#63b8ff" stroke="#63b8ff" points="186.99,-214.47 196.23,-219.66 192.25,-209.84 186.99,-214.47"/>
</a>
</g>
</g>
<!-- Node5 -->
<g id="Node000005" class="node">
<title>Node5</title>
<g id="a_Node000005"><a xlink:href="GameController_8cpp.html" target="_top" xlink:title="Implementation of main game controller and game loop logic.">
<polygon fill="white" stroke="#666666" points="255.5,-19 92.5,-19 92.5,0 255.5,0 255.5,-19"/>
<text text-anchor="middle" x="174" y="-7" font-family="Helvetica,sans-Serif" font-size="10.00">controller/GameController.cpp</text>
</a>
</g>
</g>
<!-- Node4&#45;&gt;Node5 -->
<g id="edge4_Node000004_Node000005" class="edge">
<title>Node4&#45;&gt;Node5</title>
<g id="a_edge4_Node000004_Node000005"><a xlink:title=" ">
<path fill="none" stroke="#63b8ff" d="M221.45,-48.6C209.62,-39.11 194.71,-27.13 184.8,-19.17"/>
<polygon fill="#63b8ff" stroke="#63b8ff" points="219.41,-51.45 229.4,-54.98 223.79,-45.99 219.41,-51.45"/>
</a>
</g>
</g>
<!-- Node6 -->
<g id="Node000006" class="node">
<title>Node6</title>
<g id="a_Node000006"><a xlink:href="main_8cpp.html" target="_top" xlink:title="Main entry point for the Tank Simulator game.">
<polygon fill="white" stroke="#666666" points="336,-19 274,-19 274,0 336,0 336,-19"/>
<text text-anchor="middle" x="305" y="-7" font-family="Helvetica,sans-Serif" font-size="10.00">main.cpp</text>
</a>
</g>
</g>
<!-- Node4&#45;&gt;Node6 -->
<g id="edge5_Node000004_Node000006" class="edge">
<title>Node4&#45;&gt;Node6</title>
<g id="a_edge5_Node000004_Node000006"><a xlink:title=" ">
<path fill="none" stroke="#63b8ff" d="M258.27,-48.6C269.92,-39.11 284.6,-27.13 294.37,-19.17"/>
<polygon fill="#63b8ff" stroke="#63b8ff" points="255.98,-45.95 250.44,-54.98 260.41,-51.38 255.98,-45.95"/>
</a>
</g>
</g>
<!-- Node8&#45;&gt;Node4 -->
<g id="edge8_Node000008_Node000004" class="edge">
<title>Node8&#45;&gt;Node4</title>
<g id="a_edge8_Node000008_Node000004"><a xlink:title=" ">
<path fill="none" stroke="#63b8ff" d="M324.79,-160.93C350.93,-149.46 379.89,-131.11 365,-110 351.79,-91.27 329.96,-80.38 308.22,-74.06"/>
<polygon fill="#63b8ff" stroke="#63b8ff" points="323.26,-157.78 315.37,-164.84 325.94,-164.24 323.26,-157.78"/>
</a>
</g>
</g>
<!-- Node9 -->
<g id="Node000009" class="node">
<title>Node9</title>
<g id="a_Node000009"><a xlink:href="MapManager_8cpp.html" target="_top" xlink:title="Implementation for loading, creating, and managing game maps.">
<polygon fill="white" stroke="#666666" points="356,-129 232,-129 232,-110 356,-110 356,-129"/>
<text text-anchor="middle" x="294" y="-117" font-family="Helvetica,sans-Serif" font-size="10.00">utils/MapManager.cpp</text>
</a>
</g>
</g>
<!-- Node8&#45;&gt;Node9 -->
<g id="edge9_Node000008_Node000009" class="edge">
<title>Node8&#45;&gt;Node9</title>
<g id="a_edge9_Node000008_Node000009"><a xlink:title=" ">
<path fill="none" stroke="#63b8ff" d="M291.42,-154.66C292.08,-145.93 292.83,-135.99 293.35,-129.09"/>
<polygon fill="#63b8ff" stroke="#63b8ff" points="287.92,-154.51 290.66,-164.75 294.9,-155.04 287.92,-154.51"/>
</a>
</g>
</g>
<!-- Node8&#45;&gt;Node10 -->
<g id="edge10_Node000008_Node000010" class="edge">
<title>Node8&#45;&gt;Node10</title>
<g id="a_edge10_Node000008_Node000010"><a xlink:title=" ">
<path fill="none" stroke="#63b8ff" d="M250.92,-162.06C217.09,-152.15 168.92,-138.04 138.31,-129.08"/>
<polygon fill="#63b8ff" stroke="#63b8ff" points="250.34,-165.53 260.92,-164.98 252.31,-158.82 250.34,-165.53"/>
</a>
</g>
</g>
<!-- Node10&#45;&gt;Node4 -->
<g id="edge11_Node000010_Node000004" class="edge">
<title>Node10&#45;&gt;Node4</title>
<g id="a_edge11_Node000010_Node000004"><a xlink:title=" ">
<path fill="none" stroke="#63b8ff" d="M139.5,-106.16C163.75,-96.35 197.07,-82.87 218.57,-74.17"/>
<polygon fill="#63b8ff" stroke="#63b8ff" points="138,-102.99 130.05,-109.98 140.63,-109.48 138,-102.99"/>
</a>
</g>
</g>
<!-- Node11 -->
<g id="Node000011" class="node">
<title>Node11</title>
<g id="a_Node000011"><a xlink:href="ConsoleRenderer_8cpp.html" target="_top" xlink:title="Implementation of console&#45;based game rendering with ASCII/Unicode support.">
<polygon fill="white" stroke="#666666" points="146,-74 0,-74 0,-55 146,-55 146,-74"/>
<text text-anchor="middle" x="73" y="-62" font-family="Helvetica,sans-Serif" font-size="10.00">view/ConsoleRenderer.cpp</text>
</a>
</g>
</g>
<!-- Node10&#45;&gt;Node11 -->
<g id="edge12_Node000010_Node000011" class="edge">
<title>Node10&#45;&gt;Node11</title>
<g id="a_edge12_Node000010_Node000011"><a xlink:title=" ">
<path fill="none" stroke="#63b8ff" d="M97.38,-101.39C91.18,-92.27 83.83,-81.45 78.83,-74.09"/>
<polygon fill="#63b8ff" stroke="#63b8ff" points="94.54,-103.44 103.06,-109.75 100.33,-99.51 94.54,-103.44"/>
</a>
</g>
</g>
</g>
</svg>
