<?xml version="1.0" encoding="UTF-8" standalone="no"?>
<!DOCTYPE svg PUBLIC "-//W3C//DTD SVG 1.1//EN"
 "http://www.w3.org/Graphics/SVG/1.1/DTD/svg11.dtd">
<!-- Generated by graphviz version 2.43.0 (0)
 -->
<!-- Title: src/controller/GameController.h Pages: 1 -->
<!--zoomable 412 -->

<svg id="main" version="1.1" xmlns="http://www.w3.org/2000/svg" xmlns:xlink="http://www.w3.org/1999/xlink" xml:space="preserve" onload="init(evt)">
<style type="text/css"><![CDATA[
.node, .edge {opacity: 0.7;}
.node.selected, .edge.selected {opacity: 1;}
.edge:hover path { stroke: red; }
.edge:hover polygon { stroke: red; fill: red; }
]]></style>

<defs>
  <circle id="rim" cx="0" cy="0" r="7"/>
  <circle id="rim2" cx="0" cy="0" r="3.5"/>
  <g id="zoomPlus">
    <use xlink:href="#rim" fill="#404040"><set attributeName="fill" to="#808080" begin="zoomplus.mouseover" end="zoomplus.mouseout"/></use>
    <path d="M-4,0h8M0,-4v8" fill="none" stroke="white" stroke-width="1.5" pointer-events="none"/>
  </g>
  <g id="zoomMin">
    <use xlink:href="#rim" fill="#404040"><set attributeName="fill" to="#808080" begin="zoomminus.mouseover" end="zoomminus.mouseout"/></use>
    <path d="M-4,0h8" fill="none" stroke="white" stroke-width="1.5" pointer-events="none"/>
  </g>
  <g id="arrowUp" transform="translate(30 24)">
    <use xlink:href="#rim"/>
    <path pointer-events="none" fill="none" stroke="white" stroke-width="1.5" d="M0,-3.0v7 M-2.5,-0.5L0,-3.0L2.5,-0.5"/>
  </g>
  <g id="arrowRight" transform="rotate(90) translate(36 -43)">
    <use xlink:href="#rim"/>
    <path pointer-events="none" fill="none" stroke="white" stroke-width="1.5" d="M0,-3.0v7 M-2.5,-0.5L0,-3.0L2.5,-0.5"/>
  </g>
  <g id="arrowDown" transform="rotate(180) translate(-30 -48)">
    <use xlink:href="#rim"/>
    <path pointer-events="none" fill="none" stroke="white" stroke-width="1.5" d="M0,-3.0v7 M-2.5,-0.5L0,-3.0L2.5,-0.5"/>
  </g>
  <g id="arrowLeft" transform="rotate(270) translate(-36 17)">
    <use xlink:href="#rim"/>
    <path pointer-events="none" fill="none" stroke="white" stroke-width="1.5" d="M0,-3.0v7 M-2.5,-0.5L0,-3.0L2.5,-0.5"/>
  </g>
  <g id="resetDef">
    <use xlink:href="#rim2" fill="#404040"><set attributeName="fill" to="#808080" begin="reset.mouseover" end="reset.mouseout"/></use>
  </g>
</defs>
<script type="application/ecmascript">
var viewWidth = 1460;
var viewHeight = 412;
var sectionId = 'dynsection-0';
</script>
<script type="application/ecmascript" xlink:href="svg.min.js"/>
<svg id="graph" class="graph">
<g id="viewport">
<title>src/controller/GameController.h</title>
<!-- Node1 -->
<g id="Node000001" class="node">
<title>Node1</title>
<g id="a_Node000001"><a xlink:title="Central game controller coordinating model, view, and input systems.">
<polygon fill="#999999" stroke="#666666" points="1066.5,-404 897.5,-404 897.5,-385 1066.5,-385 1066.5,-404"/>
<text text-anchor="middle" x="982" y="-392" font-family="Helvetica,sans-Serif" font-size="10.00">src/controller/GameController.h</text>
</a>
</g>
</g>
<!-- Node2 -->
<g id="Node000002" class="node">
<title>Node2</title>
<g id="a_Node000002"><a xlink:href="InputHandler_8h.html" target="_top" xlink:title="Handles user input and maps keystrokes to game commands.">
<polygon fill="white" stroke="#666666" points="1352,-349 1206,-349 1206,-330 1352,-330 1352,-349"/>
<text text-anchor="middle" x="1279" y="-337" font-family="Helvetica,sans-Serif" font-size="10.00">../controller/InputHandler.h</text>
</a>
</g>
</g>
<!-- Node1&#45;&gt;Node2 -->
<g id="edge1_Node000001_Node000002" class="edge">
<title>Node1&#45;&gt;Node2</title>
<g id="a_edge1_Node000001_Node000002"><a xlink:title=" ">
<path fill="none" stroke="#63b8ff" d="M1029.72,-384.98C1081.74,-375.7 1165,-360.84 1220.82,-350.88"/>
<polygon fill="#63b8ff" stroke="#63b8ff" points="1221.68,-354.28 1230.91,-349.08 1220.45,-347.39 1221.68,-354.28"/>
</a>
</g>
</g>
<!-- Node4 -->
<g id="Node000004" class="node">
<title>Node4</title>
<g id="a_Node000004"><a xlink:title=" ">
<polygon fill="#e0e0e0" stroke="#999999" points="1042,-239 998,-239 998,-220 1042,-220 1042,-239"/>
<text text-anchor="middle" x="1020" y="-227" font-family="Helvetica,sans-Serif" font-size="10.00">string</text>
</a>
</g>
</g>
<!-- Node1&#45;&gt;Node4 -->
<g id="edge58_Node000001_Node000004" class="edge">
<title>Node1&#45;&gt;Node4</title>
<g id="a_edge58_Node000001_Node000004"><a xlink:title=" ">
<path fill="none" stroke="#63b8ff" d="M984.04,-384.74C990,-359.2 1007.43,-284.43 1015.63,-249.23"/>
<polygon fill="#63b8ff" stroke="#63b8ff" points="1019.08,-249.84 1017.95,-239.31 1012.27,-248.25 1019.08,-249.84"/>
</a>
</g>
</g>
<!-- Node9 -->
<g id="Node000009" class="node">
<title>Node9</title>
<g id="a_Node000009"><a xlink:title=" ">
<polygon fill="#e0e0e0" stroke="#999999" points="1304,-294 1266,-294 1266,-275 1304,-275 1304,-294"/>
<text text-anchor="middle" x="1285" y="-282" font-family="Helvetica,sans-Serif" font-size="10.00">map</text>
</a>
</g>
</g>
<!-- Node1&#45;&gt;Node9 -->
<g id="edge55_Node000001_Node000009" class="edge">
<title>Node1&#45;&gt;Node9</title>
<g id="a_edge55_Node000001_Node000009"><a xlink:title=" ">
<path fill="none" stroke="#63b8ff" d="M1066.94,-389.41C1172.67,-383.43 1341.79,-370.6 1361,-349 1379.99,-327.65 1342.29,-307.25 1313.5,-295.57"/>
<polygon fill="#63b8ff" stroke="#63b8ff" points="1314.76,-292.31 1304.17,-291.96 1312.23,-298.84 1314.76,-292.31"/>
</a>
</g>
</g>
<!-- Node10 -->
<g id="Node000010" class="node">
<title>Node10</title>
<g id="a_Node000010"><a xlink:href="GameWorld_8h.html" target="_top" xlink:title="Main game world manager handling objects, collisions, states, and game logic.">
<polygon fill="white" stroke="#666666" points="508.5,-239 383.5,-239 383.5,-220 508.5,-220 508.5,-239"/>
<text text-anchor="middle" x="446" y="-227" font-family="Helvetica,sans-Serif" font-size="10.00">../model/GameWorld.h</text>
</a>
</g>
</g>
<!-- Node1&#45;&gt;Node10 -->
<g id="edge10_Node000001_Node000010" class="edge">
<title>Node1&#45;&gt;Node10</title>
<g id="a_edge10_Node000001_Node000010"><a xlink:title=" ">
<path fill="none" stroke="#63b8ff" d="M923.74,-384.96C876.05,-377.37 807.07,-365 748,-349 677.44,-329.89 661.03,-320.73 593,-294 551.16,-277.56 503.52,-256.55 474.1,-243.3"/>
<polygon fill="#63b8ff" stroke="#63b8ff" points="475.41,-240.06 464.86,-239.13 472.53,-246.44 475.41,-240.06"/>
</a>
</g>
</g>
<!-- Node11 -->
<g id="Node000011" class="node">
<title>Node11</title>
<g id="a_Node000011"><a xlink:title=" ">
<polygon fill="#e0e0e0" stroke="#999999" points="794.5,-19 747.5,-19 747.5,0 794.5,0 794.5,-19"/>
<text text-anchor="middle" x="771" y="-7" font-family="Helvetica,sans-Serif" font-size="10.00">vector</text>
</a>
</g>
</g>
<!-- Node1&#45;&gt;Node11 -->
<g id="edge56_Node000001_Node000011" class="edge">
<title>Node1&#45;&gt;Node11</title>
<g id="a_edge56_Node000001_Node000011"><a xlink:title=" ">
<path fill="none" stroke="#63b8ff" d="M910.38,-384.98C865.92,-378.05 814.73,-366.51 801,-349 795.79,-342.35 799.88,-338.37 801,-330 807.05,-284.58 828,-276.32 828,-230.5 828,-230.5 828,-230.5 828,-118.5 828,-82.51 802.94,-46.76 786.05,-26.76"/>
<polygon fill="#63b8ff" stroke="#63b8ff" points="788.64,-24.4 779.41,-19.2 783.38,-29.02 788.64,-24.4"/>
</a>
</g>
</g>
<!-- Node24 -->
<g id="Node000024" class="node">
<title>Node24</title>
<g id="a_Node000024"><a xlink:href="MapManager_8h.html" target="_top" xlink:title="Manages game maps, level generation, and procedural content.">
<polygon fill="white" stroke="#666666" points="507,-294 385,-294 385,-275 507,-275 507,-294"/>
<text text-anchor="middle" x="446" y="-282" font-family="Helvetica,sans-Serif" font-size="10.00">../utils/MapManager.h</text>
</a>
</g>
</g>
<!-- Node1&#45;&gt;Node24 -->
<g id="edge33_Node000001_Node000024" class="edge">
<title>Node1&#45;&gt;Node24</title>
<g id="a_edge33_Node000001_Node000024"><a xlink:title=" ">
<path fill="none" stroke="#63b8ff" d="M897.31,-389.42C789.51,-383.44 609.72,-370.59 547,-349 515.24,-338.07 483.19,-315.5 463.96,-300.43"/>
<polygon fill="#63b8ff" stroke="#63b8ff" points="466.07,-297.63 456.08,-294.1 461.68,-303.09 466.07,-297.63"/>
</a>
</g>
</g>
<!-- Node26 -->
<g id="Node000026" class="node">
<title>Node26</title>
<g id="a_Node000026"><a xlink:href="ScoreManager_8h.html" target="_top" xlink:title="Manages high scores, leaderboards, and player achievements.">
<polygon fill="white" stroke="#666666" points="800,-294 672,-294 672,-275 800,-275 800,-294"/>
<text text-anchor="middle" x="736" y="-282" font-family="Helvetica,sans-Serif" font-size="10.00">../utils/ScoreManager.h</text>
</a>
</g>
</g>
<!-- Node1&#45;&gt;Node26 -->
<g id="edge41_Node000001_Node000026" class="edge">
<title>Node1&#45;&gt;Node26</title>
<g id="a_edge41_Node000001_Node000026"><a xlink:title=" ">
<path fill="none" stroke="#63b8ff" d="M907.68,-384.99C854.9,-377.68 789.71,-365.66 768,-349 753.48,-337.86 745.05,-318.33 740.52,-303.87"/>
<polygon fill="#63b8ff" stroke="#63b8ff" points="743.83,-302.71 737.78,-294.01 737.09,-304.58 743.83,-302.71"/>
</a>
</g>
</g>
<!-- Node27 -->
<g id="Node000027" class="node">
<title>Node27</title>
<g id="a_Node000027"><a xlink:href="ConsoleRenderer_8h.html" target="_top" xlink:title="Renders game state, menus, and UI elements to the console.">
<polygon fill="white" stroke="#666666" points="953.5,-349 810.5,-349 810.5,-330 953.5,-330 953.5,-349"/>
<text text-anchor="middle" x="882" y="-337" font-family="Helvetica,sans-Serif" font-size="10.00">../view/ConsoleRenderer.h</text>
</a>
</g>
</g>
<!-- Node1&#45;&gt;Node27 -->
<g id="edge45_Node000001_Node000027" class="edge">
<title>Node1&#45;&gt;Node27</title>
<g id="a_edge45_Node000001_Node000027"><a xlink:title=" ">
<path fill="none" stroke="#63b8ff" d="M965.93,-384.98C950.14,-376.61 925.78,-363.7 907.37,-353.95"/>
<polygon fill="#63b8ff" stroke="#63b8ff" points="908.83,-350.76 898.36,-349.17 905.56,-356.95 908.83,-350.76"/>
</a>
</g>
</g>
<!-- Node28 -->
<g id="Node000028" class="node">
<title>Node28</title>
<g id="a_Node000028"><a xlink:title=" ">
<polygon fill="#e0e0e0" stroke="#999999" points="992,-294 932,-294 932,-275 992,-275 992,-294"/>
<text text-anchor="middle" x="962" y="-282" font-family="Helvetica,sans-Serif" font-size="10.00">iostream</text>
</a>
</g>
</g>
<!-- Node1&#45;&gt;Node28 -->
<g id="edge57_Node000001_Node000028" class="edge">
<title>Node1&#45;&gt;Node28</title>
<g id="a_edge57_Node000001_Node000028"><a xlink:title=" ">
<path fill="none" stroke="#63b8ff" d="M980.36,-384.66C977.12,-367.17 969.83,-327.8 965.48,-304.27"/>
<polygon fill="#63b8ff" stroke="#63b8ff" points="968.87,-303.35 963.6,-294.16 961.98,-304.63 968.87,-303.35"/>
</a>
</g>
</g>
<!-- Node29 -->
<g id="Node000029" class="node">
<title>Node29</title>
<g id="a_Node000029"><a xlink:href="SettingsManager_8h.html" target="_top" xlink:title="Manages game configuration settings and user preferences.">
<polygon fill="white" stroke="#666666" points="1188,-349 1048,-349 1048,-330 1188,-330 1188,-349"/>
<text text-anchor="middle" x="1118" y="-337" font-family="Helvetica,sans-Serif" font-size="10.00">../utils/SettingsManager.h</text>
</a>
</g>
</g>
<!-- Node1&#45;&gt;Node29 -->
<g id="edge52_Node000001_Node000029" class="edge">
<title>Node1&#45;&gt;Node29</title>
<g id="a_edge52_Node000001_Node000029"><a xlink:title=" ">
<path fill="none" stroke="#63b8ff" d="M1003.85,-384.98C1026.12,-376.3 1060.9,-362.75 1086.22,-352.88"/>
<polygon fill="#63b8ff" stroke="#63b8ff" points="1087.71,-356.06 1095.75,-349.17 1085.16,-349.54 1087.71,-356.06"/>
</a>
</g>
</g>
<!-- Node30 -->
<g id="Node000030" class="node">
<title>Node30</title>
<g id="a_Node000030"><a xlink:title=" ">
<polygon fill="#e0e0e0" stroke="#999999" points="1452,-349 1408,-349 1408,-330 1452,-330 1452,-349"/>
<text text-anchor="middle" x="1430" y="-337" font-family="Helvetica,sans-Serif" font-size="10.00">ctime</text>
</a>
</g>
</g>
<!-- Node1&#45;&gt;Node30 -->
<g id="edge59_Node000001_Node000030" class="edge">
<title>Node1&#45;&gt;Node30</title>
<g id="a_edge59_Node000001_Node000030"><a xlink:title=" ">
<path fill="none" stroke="#63b8ff" d="M1066.86,-387.43C1150.45,-380.73 1281.61,-368.26 1394,-349 1395.25,-348.79 1396.51,-348.56 1397.79,-348.31"/>
<polygon fill="#63b8ff" stroke="#63b8ff" points="1398.56,-351.73 1407.62,-346.24 1397.11,-344.88 1398.56,-351.73"/>
</a>
</g>
</g>
<!-- Node3 -->
<g id="Node000003" class="node">
<title>Node3</title>
<g id="a_Node000003"><a xlink:href="PlatformUtils_8h.html" target="_top" xlink:title="Cross&#45;platform utilities for console I/O, colors, and terminal manipulation.">
<polygon fill="white" stroke="#666666" points="1247.5,-294 1124.5,-294 1124.5,-275 1247.5,-275 1247.5,-294"/>
<text text-anchor="middle" x="1186" y="-282" font-family="Helvetica,sans-Serif" font-size="10.00">../utils/PlatformUtils.h</text>
</a>
</g>
</g>
<!-- Node2&#45;&gt;Node3 -->
<g id="edge2_Node000002_Node000003" class="edge">
<title>Node2&#45;&gt;Node3</title>
<g id="a_edge2_Node000002_Node000003"><a xlink:title=" ">
<path fill="none" stroke="#63b8ff" d="M1264.06,-329.98C1249.5,-321.69 1227.13,-308.94 1210.07,-299.22"/>
<polygon fill="#63b8ff" stroke="#63b8ff" points="1211.64,-296.08 1201.21,-294.17 1208.17,-302.16 1211.64,-296.08"/>
</a>
</g>
</g>
<!-- Node2&#45;&gt;Node4 -->
<g id="edge9_Node000002_Node000004" class="edge">
<title>Node2&#45;&gt;Node4</title>
<g id="a_edge9_Node000002_Node000004"><a xlink:title=" ">
<path fill="none" stroke="#63b8ff" d="M1232.68,-329.96C1199.3,-322.84 1153.67,-311.07 1116,-294 1100.59,-287.02 1063.55,-261.48 1040.25,-245"/>
<polygon fill="#63b8ff" stroke="#63b8ff" points="1042.24,-242.12 1032.06,-239.18 1038.19,-247.82 1042.24,-242.12"/>
</a>
</g>
</g>
<!-- Node2&#45;&gt;Node9 -->
<g id="edge8_Node000002_Node000009" class="edge">
<title>Node2&#45;&gt;Node9</title>
<g id="a_edge8_Node000002_Node000009"><a xlink:title=" ">
<path fill="none" stroke="#63b8ff" d="M1279.99,-329.75C1280.78,-322.8 1281.9,-312.85 1282.89,-304.13"/>
<polygon fill="#63b8ff" stroke="#63b8ff" points="1286.38,-304.42 1284.03,-294.09 1279.42,-303.63 1286.38,-304.42"/>
</a>
</g>
</g>
<!-- Node3&#45;&gt;Node4 -->
<g id="edge3_Node000003_Node000004" class="edge">
<title>Node3&#45;&gt;Node4</title>
<g id="a_edge3_Node000003_Node000004"><a xlink:title=" ">
<path fill="none" stroke="#63b8ff" d="M1159.33,-274.98C1130.1,-265.65 1083.22,-250.68 1052.02,-240.72"/>
<polygon fill="#63b8ff" stroke="#63b8ff" points="1052.68,-237.26 1042.09,-237.55 1050.55,-243.93 1052.68,-237.26"/>
</a>
</g>
</g>
<!-- Node5 -->
<g id="Node000005" class="node">
<title>Node5</title>
<g id="a_Node000005"><a xlink:title=" ">
<polygon fill="#e0e0e0" stroke="#999999" points="1287.5,-239 1224.5,-239 1224.5,-220 1287.5,-220 1287.5,-239"/>
<text text-anchor="middle" x="1256" y="-227" font-family="Helvetica,sans-Serif" font-size="10.00">termios.h</text>
</a>
</g>
</g>
<!-- Node3&#45;&gt;Node5 -->
<g id="edge4_Node000003_Node000005" class="edge">
<title>Node3&#45;&gt;Node5</title>
<g id="a_edge4_Node000003_Node000005"><a xlink:title=" ">
<path fill="none" stroke="#63b8ff" d="M1197.25,-274.98C1207.8,-267 1223.8,-254.88 1236.44,-245.31"/>
<polygon fill="#63b8ff" stroke="#63b8ff" points="1238.69,-248 1244.55,-239.17 1234.46,-242.42 1238.69,-248"/>
</a>
</g>
</g>
<!-- Node6 -->
<g id="Node000006" class="node">
<title>Node6</title>
<g id="a_Node000006"><a xlink:title=" ">
<polygon fill="#e0e0e0" stroke="#999999" points="1362,-239 1306,-239 1306,-220 1362,-220 1362,-239"/>
<text text-anchor="middle" x="1334" y="-227" font-family="Helvetica,sans-Serif" font-size="10.00">unistd.h</text>
</a>
</g>
</g>
<!-- Node3&#45;&gt;Node6 -->
<g id="edge5_Node000003_Node000006" class="edge">
<title>Node3&#45;&gt;Node6</title>
<g id="a_edge5_Node000003_Node000006"><a xlink:title=" ">
<path fill="none" stroke="#63b8ff" d="M1209.78,-274.98C1234.23,-266.23 1272.53,-252.51 1300.15,-242.62"/>
<polygon fill="#63b8ff" stroke="#63b8ff" points="1301.55,-245.84 1309.79,-239.17 1299.19,-239.25 1301.55,-245.84"/>
</a>
</g>
</g>
<!-- Node7 -->
<g id="Node000007" class="node">
<title>Node7</title>
<g id="a_Node000007"><a xlink:title=" ">
<polygon fill="#e0e0e0" stroke="#999999" points="1121.5,-239 1074.5,-239 1074.5,-220 1121.5,-220 1121.5,-239"/>
<text text-anchor="middle" x="1098" y="-227" font-family="Helvetica,sans-Serif" font-size="10.00">fcntl.h</text>
</a>
</g>
</g>
<!-- Node3&#45;&gt;Node7 -->
<g id="edge6_Node000003_Node000007" class="edge">
<title>Node3&#45;&gt;Node7</title>
<g id="a_edge6_Node000003_Node000007"><a xlink:title=" ">
<path fill="none" stroke="#63b8ff" d="M1171.86,-274.98C1158.21,-266.77 1137.31,-254.18 1121.22,-244.49"/>
<polygon fill="#63b8ff" stroke="#63b8ff" points="1122.77,-241.33 1112.4,-239.17 1119.16,-247.33 1122.77,-241.33"/>
</a>
</g>
</g>
<!-- Node8 -->
<g id="Node000008" class="node">
<title>Node8</title>
<g id="a_Node000008"><a xlink:title=" ">
<polygon fill="#e0e0e0" stroke="#999999" points="1206,-239 1140,-239 1140,-220 1206,-220 1206,-239"/>
<text text-anchor="middle" x="1173" y="-227" font-family="Helvetica,sans-Serif" font-size="10.00">sys/ioctl.h</text>
</a>
</g>
</g>
<!-- Node3&#45;&gt;Node8 -->
<g id="edge7_Node000003_Node000008" class="edge">
<title>Node3&#45;&gt;Node8</title>
<g id="a_edge7_Node000003_Node000008"><a xlink:title=" ">
<path fill="none" stroke="#63b8ff" d="M1183.85,-274.75C1182.13,-267.72 1179.65,-257.62 1177.5,-248.84"/>
<polygon fill="#63b8ff" stroke="#63b8ff" points="1180.89,-247.97 1175.11,-239.09 1174.09,-249.63 1180.89,-247.97"/>
</a>
</g>
</g>
<!-- Node10&#45;&gt;Node11 -->
<g id="edge11_Node000010_Node000011" class="edge">
<title>Node10&#45;&gt;Node11</title>
<g id="a_edge11_Node000010_Node000011"><a xlink:title=" ">
<path fill="none" stroke="#63b8ff" d="M508.86,-220.47C541.68,-214.19 581.47,-203.17 613,-184 648.28,-162.55 726.73,-66.32 757.88,-27.16"/>
<polygon fill="#63b8ff" stroke="#63b8ff" points="760.63,-29.32 764.1,-19.31 755.14,-24.97 760.63,-29.32"/>
</a>
</g>
</g>
<!-- Node12 -->
<g id="Node000012" class="node">
<title>Node12</title>
<g id="a_Node000012"><a xlink:title=" ">
<polygon fill="#e0e0e0" stroke="#999999" points="532,-184 474,-184 474,-165 532,-165 532,-184"/>
<text text-anchor="middle" x="503" y="-172" font-family="Helvetica,sans-Serif" font-size="10.00">memory</text>
</a>
</g>
</g>
<!-- Node10&#45;&gt;Node12 -->
<g id="edge12_Node000010_Node000012" class="edge">
<title>Node10&#45;&gt;Node12</title>
<g id="a_edge12_Node000010_Node000012"><a xlink:title=" ">
<path fill="none" stroke="#63b8ff" d="M455.16,-219.98C463.5,-212.23 476.03,-200.58 486.18,-191.14"/>
<polygon fill="#63b8ff" stroke="#63b8ff" points="488.74,-193.54 493.68,-184.17 483.97,-188.42 488.74,-193.54"/>
</a>
</g>
</g>
<!-- Node13 -->
<g id="Node000013" class="node">
<title>Node13</title>
<g id="a_Node000013"><a xlink:title=" ">
<polygon fill="#e0e0e0" stroke="#999999" points="724,-184 660,-184 660,-165 724,-165 724,-184"/>
<text text-anchor="middle" x="692" y="-172" font-family="Helvetica,sans-Serif" font-size="10.00">algorithm</text>
</a>
</g>
</g>
<!-- Node10&#45;&gt;Node13 -->
<g id="edge13_Node000010_Node000013" class="edge">
<title>Node10&#45;&gt;Node13</title>
<g id="a_edge13_Node000010_Node000013"><a xlink:title=" ">
<path fill="none" stroke="#63b8ff" d="M485.52,-219.98C530.48,-210.3 603.59,-194.55 649.67,-184.62"/>
<polygon fill="#63b8ff" stroke="#63b8ff" points="650.6,-188 659.64,-182.47 649.13,-181.16 650.6,-188"/>
</a>
</g>
</g>
<!-- Node14 -->
<g id="Node000014" class="node">
<title>Node14</title>
<g id="a_Node000014"><a xlink:title=" ">
<polygon fill="#e0e0e0" stroke="#999999" points="604,-184 550,-184 550,-165 604,-165 604,-184"/>
<text text-anchor="middle" x="577" y="-172" font-family="Helvetica,sans-Serif" font-size="10.00">random</text>
</a>
</g>
</g>
<!-- Node10&#45;&gt;Node14 -->
<g id="edge14_Node000010_Node000014" class="edge">
<title>Node10&#45;&gt;Node14</title>
<g id="a_edge14_Node000010_Node000014"><a xlink:title=" ">
<path fill="none" stroke="#63b8ff" d="M467.05,-219.98C488.41,-211.34 521.7,-197.87 546.06,-188.02"/>
<polygon fill="#63b8ff" stroke="#63b8ff" points="547.61,-191.17 555.57,-184.17 544.99,-184.68 547.61,-191.17"/>
</a>
</g>
</g>
<!-- Node15 -->
<g id="Node000015" class="node">
<title>Node15</title>
<g id="a_Node000015"><a xlink:href="GameObject_8h.html" target="_top" xlink:title="Base class and structures for all game objects with position, direction, and health.">
<polygon fill="white" stroke="#666666" points="357,-19 271,-19 271,0 357,0 357,-19"/>
<text text-anchor="middle" x="314" y="-7" font-family="Helvetica,sans-Serif" font-size="10.00">GameObject.h</text>
</a>
</g>
</g>
<!-- Node10&#45;&gt;Node15 -->
<g id="edge15_Node000010_Node000015" class="edge">
<title>Node10&#45;&gt;Node15</title>
<g id="a_edge15_Node000010_Node000015"><a xlink:title=" ">
<path fill="none" stroke="#63b8ff" d="M440.83,-219.79C430.66,-202.58 407.43,-162.94 389,-129 371.36,-96.51 371.39,-85.84 351,-55 344.5,-45.17 336.2,-35.01 329.1,-26.88"/>
<polygon fill="#63b8ff" stroke="#63b8ff" points="331.54,-24.37 322.27,-19.25 326.33,-29.03 331.54,-24.37"/>
</a>
</g>
</g>
<!-- Node16 -->
<g id="Node000016" class="node">
<title>Node16</title>
<g id="a_Node000016"><a xlink:href="PlayerTank_8h.html" target="_top" xlink:title="Player&#45;controlled tank with lives, score system, and special abilities.">
<polygon fill="white" stroke="#666666" points="303.5,-184 224.5,-184 224.5,-165 303.5,-165 303.5,-184"/>
<text text-anchor="middle" x="264" y="-172" font-family="Helvetica,sans-Serif" font-size="10.00">PlayerTank.h</text>
</a>
</g>
</g>
<!-- Node10&#45;&gt;Node16 -->
<g id="edge16_Node000010_Node000016" class="edge">
<title>Node10&#45;&gt;Node16</title>
<g id="a_edge16_Node000010_Node000016"><a xlink:title=" ">
<path fill="none" stroke="#63b8ff" d="M416.76,-219.98C385.94,-211.01 337.22,-196.82 303.11,-186.89"/>
<polygon fill="#63b8ff" stroke="#63b8ff" points="304.05,-183.52 293.47,-184.08 302.09,-190.24 304.05,-183.52"/>
</a>
</g>
</g>
<!-- Node18 -->
<g id="Node000018" class="node">
<title>Node18</title>
<g id="a_Node000018"><a xlink:href="Projectile_8h.html" target="_top" xlink:title="Projectile class for bullets fired by tanks with collision detection.">
<polygon fill="white" stroke="#666666" points="528.5,-74 457.5,-74 457.5,-55 528.5,-55 528.5,-74"/>
<text text-anchor="middle" x="493" y="-62" font-family="Helvetica,sans-Serif" font-size="10.00">Projectile.h</text>
</a>
</g>
</g>
<!-- Node10&#45;&gt;Node18 -->
<g id="edge30_Node000010_Node000018" class="edge">
<title>Node10&#45;&gt;Node18</title>
<g id="a_edge30_Node000010_Node000018"><a xlink:title=" ">
<path fill="none" stroke="#63b8ff" d="M448.3,-219.78C451.62,-207.46 458.12,-184.29 465,-165 470.83,-148.67 474.9,-145.57 480,-129 484.55,-114.19 487.97,-96.95 490.15,-84.17"/>
<polygon fill="#63b8ff" stroke="#63b8ff" points="493.61,-84.69 491.75,-74.26 486.7,-83.57 493.61,-84.69"/>
</a>
</g>
</g>
<!-- Node19 -->
<g id="Node000019" class="node">
<title>Node19</title>
<g id="a_Node000019"><a xlink:href="Bonus_8h.html" target="_top" xlink:title="Power&#45;up bonuses with various effects for enhancing player abilities.">
<polygon fill="white" stroke="#666666" points="342,-74 286,-74 286,-55 342,-55 342,-74"/>
<text text-anchor="middle" x="314" y="-62" font-family="Helvetica,sans-Serif" font-size="10.00">Bonus.h</text>
</a>
</g>
</g>
<!-- Node10&#45;&gt;Node19 -->
<g id="edge29_Node000010_Node000019" class="edge">
<title>Node10&#45;&gt;Node19</title>
<g id="a_edge29_Node000010_Node000019"><a xlink:title=" ">
<path fill="none" stroke="#63b8ff" d="M415.16,-219.87C395.8,-213.01 371.62,-201.6 356,-184 330.36,-155.13 320.1,-109.57 316.21,-84.18"/>
<polygon fill="#63b8ff" stroke="#63b8ff" points="319.65,-83.5 314.84,-74.06 312.71,-84.44 319.65,-83.5"/>
</a>
</g>
</g>
<!-- Node20 -->
<g id="Node000020" class="node">
<title>Node20</title>
<g id="a_Node000020"><a xlink:href="EnemyTank_8h.html" target="_top" xlink:title="AI&#45;controlled enemy tanks with various behaviors, types, and difficulty levels.">
<polygon fill="white" stroke="#666666" points="206,-184 124,-184 124,-165 206,-165 206,-184"/>
<text text-anchor="middle" x="165" y="-172" font-family="Helvetica,sans-Serif" font-size="10.00">EnemyTank.h</text>
</a>
</g>
</g>
<!-- Node10&#45;&gt;Node20 -->
<g id="edge24_Node000010_Node000020" class="edge">
<title>Node10&#45;&gt;Node20</title>
<g id="a_edge24_Node000010_Node000020"><a xlink:title=" ">
<path fill="none" stroke="#63b8ff" d="M400.85,-219.98C350.42,-210.47 268.96,-195.11 216.2,-185.16"/>
<polygon fill="#63b8ff" stroke="#63b8ff" points="216.85,-181.72 206.37,-183.3 215.55,-188.6 216.85,-181.72"/>
</a>
</g>
</g>
<!-- Node22 -->
<g id="Node000022" class="node">
<title>Node22</title>
<g id="a_Node000022"><a xlink:href="Obstacle_8h.html" target="_top" xlink:title="Environmental obstacles including walls, water, forests, and their properties.">
<polygon fill="white" stroke="#666666" points="68,-184 0,-184 0,-165 68,-165 68,-184"/>
<text text-anchor="middle" x="34" y="-172" font-family="Helvetica,sans-Serif" font-size="10.00">Obstacle.h</text>
</a>
</g>
</g>
<!-- Node10&#45;&gt;Node22 -->
<g id="edge27_Node000010_Node000022" class="edge">
<title>Node10&#45;&gt;Node22</title>
<g id="a_edge27_Node000010_Node000022"><a xlink:title=" ">
<path fill="none" stroke="#63b8ff" d="M383.43,-220.45C299.32,-209.63 151.89,-190.67 78.34,-181.2"/>
<polygon fill="#63b8ff" stroke="#63b8ff" points="78.41,-177.68 68.04,-179.88 77.52,-184.63 78.41,-177.68"/>
</a>
</g>
</g>
<!-- Node23 -->
<g id="Node000023" class="node">
<title>Node23</title>
<g id="a_Node000023"><a xlink:href="Explosion_8h.html" target="_top" xlink:title="Visual explosion effects for game events like tank destruction.">
<polygon fill="white" stroke="#666666" points="471.5,-129 398.5,-129 398.5,-110 471.5,-110 471.5,-129"/>
<text text-anchor="middle" x="435" y="-117" font-family="Helvetica,sans-Serif" font-size="10.00">Explosion.h</text>
</a>
</g>
</g>
<!-- Node10&#45;&gt;Node23 -->
<g id="edge31_Node000010_Node000023" class="edge">
<title>Node10&#45;&gt;Node23</title>
<g id="a_edge31_Node000010_Node000023"><a xlink:title=" ">
<path fill="none" stroke="#63b8ff" d="M442.4,-219.82C438.94,-210.99 433.97,-196.81 432,-184 429.72,-169.13 430.71,-152.1 432.15,-139.42"/>
<polygon fill="#63b8ff" stroke="#63b8ff" points="435.66,-139.56 433.5,-129.18 428.72,-138.64 435.66,-139.56"/>
</a>
</g>
</g>
<!-- Node17 -->
<g id="Node000017" class="node">
<title>Node17</title>
<g id="a_Node000017"><a xlink:href="Tank_8h.html" target="_top" xlink:title="Abstract tank base class with shooting, bonuses, and combat mechanics.">
<polygon fill="white" stroke="#666666" points="288,-129 240,-129 240,-110 288,-110 288,-129"/>
<text text-anchor="middle" x="264" y="-117" font-family="Helvetica,sans-Serif" font-size="10.00">Tank.h</text>
</a>
</g>
</g>
<!-- Node16&#45;&gt;Node17 -->
<g id="edge17_Node000016_Node000017" class="edge">
<title>Node16&#45;&gt;Node17</title>
<g id="a_edge17_Node000016_Node000017"><a xlink:title=" ">
<path fill="none" stroke="#63b8ff" d="M264,-164.75C264,-157.8 264,-147.85 264,-139.13"/>
<polygon fill="#63b8ff" stroke="#63b8ff" points="267.5,-139.09 264,-129.09 260.5,-139.09 267.5,-139.09"/>
</a>
</g>
</g>
<!-- Node17&#45;&gt;Node15 -->
<g id="edge18_Node000017_Node000015" class="edge">
<title>Node17&#45;&gt;Node15</title>
<g id="a_edge18_Node000017_Node000015"><a xlink:title=" ">
<path fill="none" stroke="#63b8ff" d="M264.44,-109.86C265.37,-97.23 268.23,-73.26 277,-55 282.04,-44.51 290.09,-34.41 297.39,-26.49"/>
<polygon fill="#63b8ff" stroke="#63b8ff" points="300.12,-28.71 304.58,-19.1 295.1,-23.83 300.12,-28.71"/>
</a>
</g>
</g>
<!-- Node17&#45;&gt;Node18 -->
<g id="edge19_Node000017_Node000018" class="edge">
<title>Node17&#45;&gt;Node18</title>
<g id="a_edge19_Node000017_Node000018"><a xlink:title=" ">
<path fill="none" stroke="#63b8ff" d="M288.07,-112.93C325.81,-104.19 399.53,-87.13 447.49,-76.03"/>
<polygon fill="#63b8ff" stroke="#63b8ff" points="448.36,-79.42 457.31,-73.76 446.78,-72.6 448.36,-79.42"/>
</a>
</g>
</g>
<!-- Node17&#45;&gt;Node19 -->
<g id="edge22_Node000017_Node000019" class="edge">
<title>Node17&#45;&gt;Node19</title>
<g id="a_edge22_Node000017_Node000019"><a xlink:title=" ">
<path fill="none" stroke="#63b8ff" d="M272.26,-109.75C279.46,-102.11 290.11,-90.82 298.85,-81.56"/>
<polygon fill="#63b8ff" stroke="#63b8ff" points="301.58,-83.76 305.9,-74.09 296.49,-78.96 301.58,-83.76"/>
</a>
</g>
</g>
<!-- Node18&#45;&gt;Node11 -->
<g id="edge21_Node000018_Node000011" class="edge">
<title>Node18&#45;&gt;Node11</title>
<g id="a_edge21_Node000018_Node000011"><a xlink:title=" ">
<path fill="none" stroke="#63b8ff" d="M528.77,-56.68C582.8,-46.38 684.51,-26.99 737.29,-16.93"/>
<polygon fill="#63b8ff" stroke="#63b8ff" points="738,-20.35 747.17,-15.04 736.69,-13.48 738,-20.35"/>
</a>
</g>
</g>
<!-- Node18&#45;&gt;Node15 -->
<g id="edge20_Node000018_Node000015" class="edge">
<title>Node18&#45;&gt;Node15</title>
<g id="a_edge20_Node000018_Node000015"><a xlink:title=" ">
<path fill="none" stroke="#63b8ff" d="M464.24,-54.98C434.06,-46.05 386.43,-31.94 352.9,-22.02"/>
<polygon fill="#63b8ff" stroke="#63b8ff" points="353.57,-18.57 342.98,-19.08 351.58,-25.28 353.57,-18.57"/>
</a>
</g>
</g>
<!-- Node19&#45;&gt;Node15 -->
<g id="edge23_Node000019_Node000015" class="edge">
<title>Node19&#45;&gt;Node15</title>
<g id="a_edge23_Node000019_Node000015"><a xlink:title=" ">
<path fill="none" stroke="#63b8ff" d="M314,-54.75C314,-47.8 314,-37.85 314,-29.13"/>
<polygon fill="#63b8ff" stroke="#63b8ff" points="317.5,-29.09 314,-19.09 310.5,-29.09 317.5,-29.09"/>
</a>
</g>
</g>
<!-- Node20&#45;&gt;Node17 -->
<g id="edge25_Node000020_Node000017" class="edge">
<title>Node20&#45;&gt;Node17</title>
<g id="a_edge25_Node000020_Node000017"><a xlink:title=" ">
<path fill="none" stroke="#63b8ff" d="M180.91,-164.98C196.55,-156.61 220.66,-143.7 238.88,-133.95"/>
<polygon fill="#63b8ff" stroke="#63b8ff" points="240.64,-136.98 247.8,-129.17 237.34,-130.8 240.64,-136.98"/>
</a>
</g>
</g>
<!-- Node21 -->
<g id="Node000021" class="node">
<title>Node21</title>
<g id="a_Node000021"><a xlink:title=" ">
<polygon fill="#e0e0e0" stroke="#999999" points="191.5,-129 138.5,-129 138.5,-110 191.5,-110 191.5,-129"/>
<text text-anchor="middle" x="165" y="-117" font-family="Helvetica,sans-Serif" font-size="10.00">stdlib.h</text>
</a>
</g>
</g>
<!-- Node20&#45;&gt;Node21 -->
<g id="edge26_Node000020_Node000021" class="edge">
<title>Node20&#45;&gt;Node21</title>
<g id="a_edge26_Node000020_Node000021"><a xlink:title=" ">
<path fill="none" stroke="#63b8ff" d="M165,-164.75C165,-157.8 165,-147.85 165,-139.13"/>
<polygon fill="#63b8ff" stroke="#63b8ff" points="168.5,-139.09 165,-129.09 161.5,-139.09 168.5,-139.09"/>
</a>
</g>
</g>
<!-- Node22&#45;&gt;Node15 -->
<g id="edge28_Node000022_Node000015" class="edge">
<title>Node22&#45;&gt;Node15</title>
<g id="a_edge28_Node000022_Node000015"><a xlink:title=" ">
<path fill="none" stroke="#63b8ff" d="M34.77,-164.7C37.21,-142.5 46.84,-83.88 82,-55 108.74,-33.04 201.02,-20.69 260.83,-14.83"/>
<polygon fill="#63b8ff" stroke="#63b8ff" points="261.24,-18.31 270.86,-13.88 260.58,-11.34 261.24,-18.31"/>
</a>
</g>
</g>
<!-- Node23&#45;&gt;Node15 -->
<g id="edge32_Node000023_Node000015" class="edge">
<title>Node23&#45;&gt;Node15</title>
<g id="a_edge32_Node000023_Node000015"><a xlink:title=" ">
<path fill="none" stroke="#63b8ff" d="M429.49,-109.95C420.86,-97.02 403.17,-72.17 384,-55 370.58,-42.98 353.55,-32.08 339.65,-24.08"/>
<polygon fill="#63b8ff" stroke="#63b8ff" points="341.05,-20.85 330.61,-19.02 337.63,-26.96 341.05,-20.85"/>
</a>
</g>
</g>
<!-- Node24&#45;&gt;Node4 -->
<g id="edge34_Node000024_Node000004" class="edge">
<title>Node24&#45;&gt;Node4</title>
<g id="a_edge34_Node000024_Node000004"><a xlink:title=" ">
<path fill="none" stroke="#63b8ff" d="M507.16,-277.85C628.31,-266.67 895.09,-242.03 987.63,-233.49"/>
<polygon fill="#63b8ff" stroke="#63b8ff" points="988.14,-236.96 997.78,-232.55 987.5,-229.99 988.14,-236.96"/>
</a>
</g>
</g>
<!-- Node24&#45;&gt;Node10 -->
<g id="edge38_Node000024_Node000010" class="edge">
<title>Node24&#45;&gt;Node10</title>
<g id="a_edge38_Node000024_Node000010"><a xlink:title=" ">
<path fill="none" stroke="#63b8ff" d="M446,-274.75C446,-267.8 446,-257.85 446,-249.13"/>
<polygon fill="#63b8ff" stroke="#63b8ff" points="449.5,-249.09 446,-239.09 442.5,-249.09 449.5,-249.09"/>
</a>
</g>
</g>
<!-- Node24&#45;&gt;Node11 -->
<g id="edge35_Node000024_Node000011" class="edge">
<title>Node24&#45;&gt;Node11</title>
<g id="a_edge35_Node000024_Node000011"><a xlink:title=" ">
<path fill="none" stroke="#63b8ff" d="M507.11,-279.38C572.69,-271.58 675.21,-249.05 733,-184 772.19,-139.88 774.02,-64.77 772.45,-29.66"/>
<polygon fill="#63b8ff" stroke="#63b8ff" points="775.93,-29.16 771.84,-19.38 768.94,-29.58 775.93,-29.16"/>
</a>
</g>
</g>
<!-- Node24&#45;&gt;Node15 -->
<g id="edge37_Node000024_Node000015" class="edge">
<title>Node24&#45;&gt;Node15</title>
<g id="a_edge37_Node000024_Node000015"><a xlink:title=" ">
<path fill="none" stroke="#63b8ff" d="M390.24,-274.97C304.69,-260.6 147.52,-228.7 115,-184 62.06,-111.23 207.38,-48.02 277.99,-22.52"/>
<polygon fill="#63b8ff" stroke="#63b8ff" points="279.58,-25.67 287.83,-19.03 277.24,-19.07 279.58,-25.67"/>
</a>
</g>
</g>
<!-- Node24&#45;&gt;Node20 -->
<g id="edge40_Node000024_Node000020" class="edge">
<title>Node24&#45;&gt;Node20</title>
<g id="a_edge40_Node000024_Node000020"><a xlink:title=" ">
<path fill="none" stroke="#63b8ff" d="M423.48,-274.84C373.72,-255.72 254.29,-209.82 196.88,-187.75"/>
<polygon fill="#63b8ff" stroke="#63b8ff" points="197.83,-184.37 187.24,-184.05 195.32,-190.9 197.83,-184.37"/>
</a>
</g>
</g>
<!-- Node24&#45;&gt;Node22 -->
<g id="edge39_Node000024_Node000022" class="edge">
<title>Node24&#45;&gt;Node22</title>
<g id="a_edge39_Node000024_Node000022"><a xlink:title=" ">
<path fill="none" stroke="#63b8ff" d="M384.64,-281.51C272.98,-277.26 45.81,-265.43 22,-239 10.88,-226.66 16.64,-207.35 23.47,-193.26"/>
<polygon fill="#63b8ff" stroke="#63b8ff" points="26.74,-194.57 28.41,-184.1 20.58,-191.25 26.74,-194.57"/>
</a>
</g>
</g>
<!-- Node25 -->
<g id="Node000025" class="node">
<title>Node25</title>
<g id="a_Node000025"><a xlink:title=" ">
<polygon fill="#e0e0e0" stroke="#999999" points="99,-239 31,-239 31,-220 99,-220 99,-239"/>
<text text-anchor="middle" x="65" y="-227" font-family="Helvetica,sans-Serif" font-size="10.00">filesystem</text>
</a>
</g>
</g>
<!-- Node24&#45;&gt;Node25 -->
<g id="edge36_Node000024_Node000025" class="edge">
<title>Node24&#45;&gt;Node25</title>
<g id="a_edge36_Node000024_Node000025"><a xlink:title=" ">
<path fill="none" stroke="#63b8ff" d="M384.82,-276.11C317.94,-267.86 207.67,-253.7 113,-239 111.73,-238.8 110.44,-238.6 109.14,-238.39"/>
<polygon fill="#63b8ff" stroke="#63b8ff" points="109.5,-234.9 99.06,-236.72 108.35,-241.81 109.5,-234.9"/>
</a>
</g>
</g>
<!-- Node26&#45;&gt;Node4 -->
<g id="edge43_Node000026_Node000004" class="edge">
<title>Node26&#45;&gt;Node4</title>
<g id="a_edge43_Node000026_Node000004"><a xlink:title=" ">
<path fill="none" stroke="#63b8ff" d="M781.63,-274.98C839.31,-264.22 937.14,-245.96 987.67,-236.53"/>
<polygon fill="#63b8ff" stroke="#63b8ff" points="988.51,-239.94 997.7,-234.66 987.22,-233.06 988.51,-239.94"/>
</a>
</g>
</g>
<!-- Node26&#45;&gt;Node11 -->
<g id="edge42_Node000026_Node000011" class="edge">
<title>Node26&#45;&gt;Node11</title>
<g id="a_edge42_Node000026_Node000011"><a xlink:title=" ">
<path fill="none" stroke="#63b8ff" d="M743.74,-274.99C758.67,-257.64 790,-216.38 790,-175.5 790,-175.5 790,-175.5 790,-118.5 790,-86.56 781.84,-50.1 776.22,-28.77"/>
<polygon fill="#63b8ff" stroke="#63b8ff" points="779.58,-27.81 773.56,-19.09 772.83,-29.66 779.58,-27.81"/>
</a>
</g>
</g>
<!-- Node26&#45;&gt;Node13 -->
<g id="edge44_Node000026_Node000013" class="edge">
<title>Node26&#45;&gt;Node13</title>
<g id="a_edge44_Node000026_Node000013"><a xlink:title=" ">
<path fill="none" stroke="#63b8ff" d="M732.4,-274.66C725.21,-257.01 708.94,-217.09 699.39,-193.64"/>
<polygon fill="#63b8ff" stroke="#63b8ff" points="702.54,-192.1 695.53,-184.16 696.06,-194.74 702.54,-192.1"/>
</a>
</g>
</g>
<!-- Node27&#45;&gt;Node3 -->
<g id="edge48_Node000027_Node000003" class="edge">
<title>Node27&#45;&gt;Node3</title>
<g id="a_edge48_Node000027_Node000003"><a xlink:title=" ">
<path fill="none" stroke="#63b8ff" d="M930.84,-329.98C984.28,-320.67 1069.92,-305.74 1127.06,-295.78"/>
<polygon fill="#63b8ff" stroke="#63b8ff" points="1127.78,-299.2 1137.03,-294.04 1126.57,-292.31 1127.78,-299.2"/>
</a>
</g>
</g>
<!-- Node27&#45;&gt;Node4 -->
<g id="edge50_Node000027_Node000004" class="edge">
<title>Node27&#45;&gt;Node4</title>
<g id="a_edge50_Node000027_Node000004"><a xlink:title=" ">
<path fill="none" stroke="#63b8ff" d="M885.77,-329.57C891.84,-316.13 904.95,-290.64 923,-275 941.93,-258.6 967.91,-247.12 988.22,-239.93"/>
<polygon fill="#63b8ff" stroke="#63b8ff" points="989.61,-243.15 997.97,-236.64 987.37,-236.52 989.61,-243.15"/>
</a>
</g>
</g>
<!-- Node27&#45;&gt;Node10 -->
<g id="edge46_Node000027_Node000010" class="edge">
<title>Node27&#45;&gt;Node10</title>
<g id="a_edge46_Node000027_Node000010"><a xlink:title=" ">
<path fill="none" stroke="#63b8ff" d="M833.89,-329.93C789.35,-321.71 721.38,-308.44 663,-294 598.8,-278.11 525.11,-255.63 482.23,-242.12"/>
<polygon fill="#63b8ff" stroke="#63b8ff" points="483.12,-238.73 472.53,-239.05 481.01,-245.4 483.12,-238.73"/>
</a>
</g>
</g>
<!-- Node27&#45;&gt;Node11 -->
<g id="edge51_Node000027_Node000011" class="edge">
<title>Node27&#45;&gt;Node11</title>
<g id="a_edge51_Node000027_Node000011"><a xlink:title=" ">
<path fill="none" stroke="#63b8ff" d="M879.84,-329.88C875.47,-311.67 866,-267.84 866,-230.5 866,-230.5 866,-230.5 866,-118.5 866,-88.33 861.11,-78.34 842,-55 831.14,-41.74 815.24,-31.26 801.24,-23.81"/>
<polygon fill="#63b8ff" stroke="#63b8ff" points="802.44,-20.5 791.93,-19.14 799.3,-26.75 802.44,-20.5"/>
</a>
</g>
</g>
<!-- Node27&#45;&gt;Node24 -->
<g id="edge47_Node000027_Node000024" class="edge">
<title>Node27&#45;&gt;Node24</title>
<g id="a_edge47_Node000027_Node000024"><a xlink:title=" ">
<path fill="none" stroke="#63b8ff" d="M811.95,-329.98C731.04,-320.15 598.64,-304.06 517.24,-294.16"/>
<polygon fill="#63b8ff" stroke="#63b8ff" points="517.43,-290.66 507.08,-292.92 516.58,-297.61 517.43,-290.66"/>
</a>
</g>
</g>
<!-- Node27&#45;&gt;Node28 -->
<g id="edge49_Node000027_Node000028" class="edge">
<title>Node27&#45;&gt;Node28</title>
<g id="a_edge49_Node000027_Node000028"><a xlink:title=" ">
<path fill="none" stroke="#63b8ff" d="M894.85,-329.98C907.14,-321.84 925.91,-309.41 940.48,-299.76"/>
<polygon fill="#63b8ff" stroke="#63b8ff" points="942.51,-302.61 948.91,-294.17 938.64,-296.78 942.51,-302.61"/>
</a>
</g>
</g>
<!-- Node29&#45;&gt;Node4 -->
<g id="edge53_Node000029_Node000004" class="edge">
<title>Node29&#45;&gt;Node4</title>
<g id="a_edge53_Node000029_Node000004"><a xlink:title=" ">
<path fill="none" stroke="#63b8ff" d="M1109.98,-329.66C1093.53,-311.54 1055.76,-269.91 1034.76,-246.77"/>
<polygon fill="#63b8ff" stroke="#63b8ff" points="1037.17,-244.21 1027.86,-239.16 1031.98,-248.92 1037.17,-244.21"/>
</a>
</g>
</g>
<!-- Node29&#45;&gt;Node9 -->
<g id="edge54_Node000029_Node000009" class="edge">
<title>Node29&#45;&gt;Node9</title>
<g id="a_edge54_Node000029_Node000009"><a xlink:title=" ">
<path fill="none" stroke="#63b8ff" d="M1144.83,-329.98C1175.15,-320.36 1224.34,-304.75 1255.66,-294.81"/>
<polygon fill="#63b8ff" stroke="#63b8ff" points="1257.07,-298.04 1265.54,-291.68 1254.95,-291.37 1257.07,-298.04"/>
</a>
</g>
</g>
</g>
</svg>

<g id="navigator" transform="translate(0 0)" fill="#404254">
  <rect fill="#f2f5e9" fill-opacity="0.5" stroke="#606060" stroke-width=".5" x="0" y="0" width="60" height="60"/>
  <use id="zoomplus" xlink:href="#zoomPlus" x="17" y="9" onmousedown="handleZoom(evt,'in')"/>
  <use id="zoomminus" xlink:href="#zoomMin" x="42" y="9" onmousedown="handleZoom(evt,'out')"/>
  <use id="reset" xlink:href="#resetDef" x="30" y="36" onmousedown="handleReset()"/>
   <use id="arrowup" xlink:href="#arrowUp" x="0" y="0" onmousedown="handlePan(0,-1)"/>
  <use id="arrowright" xlink:href="#arrowRight" x="0" y="0" onmousedown="handlePan(1,0)"/>
  <use id="arrowdown" xlink:href="#arrowDown" x="0" y="0" onmousedown="handlePan(0,1)"/>
  <use id="arrowleft" xlink:href="#arrowLeft" x="0" y="0" onmousedown="handlePan(-1,0)"/>
</g>
<svg viewBox="0 0 15 15" width="100%" height="30px" preserveAspectRatio="xMaxYMin meet">
 <g id="arrow_out" transform="scale(0.3 0.3)">
  <a xlink:href="GameController_8h__incl_org.svg" target="_base">
   <rect id="button" ry="5" rx="5" y="6" x="6" height="38" width="38"
        fill="#f2f5e9" fill-opacity="0.5" stroke="#606060" stroke-width="1.0"/>
   <path id="arrow"
     d="M 11.500037,31.436501 C 11.940474,20.09759 22.043105,11.32322 32.158766,21.979434 L 37.068811,17.246167 C 37.068811,17.246167 37.088388,32 37.088388,32 L 22.160133,31.978069 C 22.160133,31.978069 26.997745,27.140456 26.997745,27.140456 C 18.528582,18.264221 13.291696,25.230495 11.500037,31.436501 z"
     style="fill:#404040;"/>
  </a>
 </g>
</svg>

<style type='text/css'>
<![CDATA[
[data-mouse-over-selected='false'] { opacity: 0.7; }
[data-mouse-over-selected='true']  { opacity: 1.0; }
]]>
</style>
<script type="application/ecmascript"><![CDATA[
document.addEventListener('DOMContentLoaded', (event) => {
  highlightEdges();
  highlightAdjacentNodes();
});
]]></script>
</svg>
