<?xml version="1.0" encoding="UTF-8" standalone="no"?>
<!DOCTYPE svg PUBLIC "-//W3C//DTD SVG 1.1//EN"
 "http://www.w3.org/Graphics/SVG/1.1/DTD/svg11.dtd">
<!-- Generated by graphviz version 2.43.0 (0)
 -->
<!-- Title: model/GameObject.h Pages: 1 -->
<svg width="1119pt" height="467pt"
 viewBox="0.00 0.00 1119.44 467.00" xmlns="http://www.w3.org/2000/svg" xmlns:xlink="http://www.w3.org/1999/xlink">
<g id="graph0" class="graph" transform="scale(1 1) rotate(0) translate(4 463)">
<title>model/GameObject.h</title>
<!-- Node1 -->
<g id="Node000001" class="node">
<title>Node1</title>
<g id="a_Node000001"><a xlink:title="Base class and structures for all game objects with position, direction, and health.">
<polygon fill="#999999" stroke="#666666" points="737.94,-459 617.94,-459 617.94,-440 737.94,-440 737.94,-459"/>
<text text-anchor="middle" x="677.94" y="-447" font-family="Helvetica,sans-Serif" font-size="10.00">model/GameObject.h</text>
</a>
</g>
</g>
<!-- Node2 -->
<g id="Node000002" class="node">
<title>Node2</title>
<g id="a_Node000002"><a xlink:href="Bonus_8h.html" target="_top" xlink:title="Power&#45;up bonuses with various effects for enhancing player abilities.">
<polygon fill="white" stroke="#666666" points="473.44,-404 384.44,-404 384.44,-385 473.44,-385 473.44,-404"/>
<text text-anchor="middle" x="428.94" y="-392" font-family="Helvetica,sans-Serif" font-size="10.00">model/Bonus.h</text>
</a>
</g>
</g>
<!-- Node1&#45;&gt;Node2 -->
<g id="edge1_Node000001_Node000002" class="edge">
<title>Node1&#45;&gt;Node2</title>
<g id="a_edge1_Node000001_Node000002"><a xlink:title=" ">
<path fill="none" stroke="#63b8ff" d="M628.03,-437.88C581.37,-427.94 512.54,-413.3 469.26,-404.08"/>
<polygon fill="#63b8ff" stroke="#63b8ff" points="627.42,-441.33 637.93,-439.98 628.88,-434.48 627.42,-441.33"/>
</a>
</g>
</g>
<!-- Node4 -->
<g id="Node000004" class="node">
<title>Node4</title>
<g id="a_Node000004"><a xlink:href="GameWorld_8h.html" target="_top" xlink:title="Main game world manager handling objects, collisions, states, and game logic.">
<polygon fill="white" stroke="#666666" points="759.94,-239 643.94,-239 643.94,-220 759.94,-220 759.94,-239"/>
<text text-anchor="middle" x="701.94" y="-227" font-family="Helvetica,sans-Serif" font-size="10.00">model/GameWorld.h</text>
</a>
</g>
</g>
<!-- Node1&#45;&gt;Node4 -->
<g id="edge31_Node000001_Node000004" class="edge">
<title>Node1&#45;&gt;Node4</title>
<g id="a_edge31_Node000001_Node000004"><a xlink:title=" ">
<path fill="none" stroke="#63b8ff" d="M748.14,-438.1C799.54,-426.28 865.27,-401.3 894.94,-349 930.1,-287.01 818.73,-253.4 750.69,-239.05"/>
<polygon fill="#63b8ff" stroke="#63b8ff" points="747.1,-434.75 738.07,-440.3 748.59,-441.59 747.1,-434.75"/>
</a>
</g>
</g>
<!-- Node9 -->
<g id="Node000009" class="node">
<title>Node9</title>
<g id="a_Node000009"><a xlink:href="MapManager_8h.html" target="_top" xlink:title="Manages game maps, level generation, and procedural content.">
<polygon fill="white" stroke="#666666" points="534.44,-184 421.44,-184 421.44,-165 534.44,-165 534.44,-184"/>
<text text-anchor="middle" x="477.94" y="-172" font-family="Helvetica,sans-Serif" font-size="10.00">utils/MapManager.h</text>
</a>
</g>
</g>
<!-- Node1&#45;&gt;Node9 -->
<g id="edge41_Node000001_Node000009" class="edge">
<title>Node1&#45;&gt;Node9</title>
<g id="a_edge41_Node000001_Node000009"><a xlink:title=" ">
<path fill="none" stroke="#63b8ff" d="M607.83,-444.6C434.72,-434.03 0.94,-401.47 0.94,-340.5 0.94,-340.5 0.94,-340.5 0.94,-283.5 0.94,-254.04 -2.81,-238.72 19.94,-220 50.32,-195 305.16,-182.13 421.01,-177.52"/>
<polygon fill="#63b8ff" stroke="#63b8ff" points="607.67,-448.1 617.86,-445.2 608.09,-441.11 607.67,-448.1"/>
</a>
</g>
</g>
<!-- Node13 -->
<g id="Node000013" class="node">
<title>Node13</title>
<g id="a_Node000013"><a xlink:href="Tank_8h.html" target="_top" xlink:title="Abstract tank base class with shooting, bonuses, and combat mechanics.">
<polygon fill="white" stroke="#666666" points="533.94,-349 451.94,-349 451.94,-330 533.94,-330 533.94,-349"/>
<text text-anchor="middle" x="492.94" y="-337" font-family="Helvetica,sans-Serif" font-size="10.00">model/Tank.h</text>
</a>
</g>
</g>
<!-- Node1&#45;&gt;Node13 -->
<g id="edge40_Node000001_Node000013" class="edge">
<title>Node1&#45;&gt;Node13</title>
<g id="a_edge40_Node000001_Node000013"><a xlink:title=" ">
<path fill="none" stroke="#63b8ff" d="M630.93,-437.19C606.69,-430.02 577.39,-419.2 553.94,-404 530.33,-388.7 509.15,-362.59 499.1,-349.11"/>
<polygon fill="#63b8ff" stroke="#63b8ff" points="630.05,-440.58 640.63,-439.95 631.97,-433.85 630.05,-440.58"/>
</a>
</g>
</g>
<!-- Node20 -->
<g id="Node000020" class="node">
<title>Node20</title>
<g id="a_Node000020"><a xlink:href="Explosion_8h.html" target="_top" xlink:title="Visual explosion effects for game events like tank destruction.">
<polygon fill="white" stroke="#666666" points="793.44,-404 686.44,-404 686.44,-385 793.44,-385 793.44,-404"/>
<text text-anchor="middle" x="739.94" y="-392" font-family="Helvetica,sans-Serif" font-size="10.00">model/Explosion.h</text>
</a>
</g>
</g>
<!-- Node1&#45;&gt;Node20 -->
<g id="edge27_Node000001_Node000020" class="edge">
<title>Node1&#45;&gt;Node20</title>
<g id="a_edge27_Node000001_Node000020"><a xlink:title=" ">
<path fill="none" stroke="#63b8ff" d="M695.69,-433.32C706.75,-423.87 720.57,-412.06 729.79,-404.17"/>
<polygon fill="#63b8ff" stroke="#63b8ff" points="693.23,-430.83 687.9,-439.98 697.77,-436.15 693.23,-430.83"/>
</a>
</g>
</g>
<!-- Node22 -->
<g id="Node000022" class="node">
<title>Node22</title>
<g id="a_Node000022"><a xlink:href="GameObject_8cpp.html" target="_top" xlink:title="Implementation of base game object methods for movement, rotation, and damage.">
<polygon fill="white" stroke="#666666" points="1111.44,-404 980.44,-404 980.44,-385 1111.44,-385 1111.44,-404"/>
<text text-anchor="middle" x="1045.94" y="-392" font-family="Helvetica,sans-Serif" font-size="10.00">model/GameObject.cpp</text>
</a>
</g>
</g>
<!-- Node1&#45;&gt;Node22 -->
<g id="edge30_Node000001_Node000022" class="edge">
<title>Node1&#45;&gt;Node22</title>
<g id="a_edge30_Node000001_Node000022"><a xlink:title=" ">
<path fill="none" stroke="#63b8ff" d="M746.99,-438.56C816.07,-428.61 921.23,-413.46 986.65,-404.04"/>
<polygon fill="#63b8ff" stroke="#63b8ff" points="746.46,-435.09 737.06,-439.98 747.46,-442.02 746.46,-435.09"/>
</a>
</g>
</g>
<!-- Node23 -->
<g id="Node000023" class="node">
<title>Node23</title>
<g id="a_Node000023"><a xlink:href="Obstacle_8h.html" target="_top" xlink:title="Environmental obstacles including walls, water, forests, and their properties.">
<polygon fill="white" stroke="#666666" points="1023.94,-294 921.94,-294 921.94,-275 1023.94,-275 1023.94,-294"/>
<text text-anchor="middle" x="972.94" y="-282" font-family="Helvetica,sans-Serif" font-size="10.00">model/Obstacle.h</text>
</a>
</g>
</g>
<!-- Node1&#45;&gt;Node23 -->
<g id="edge32_Node000001_Node000023" class="edge">
<title>Node1&#45;&gt;Node23</title>
<g id="a_edge32_Node000001_Node000023"><a xlink:title=" ">
<path fill="none" stroke="#63b8ff" d="M748.24,-443.68C812.39,-437.94 901.15,-426.2 927.94,-404 962.67,-375.21 970.63,-316.54 972.43,-294.31"/>
<polygon fill="#63b8ff" stroke="#63b8ff" points="747.83,-440.2 738.17,-444.55 748.43,-447.17 747.83,-440.2"/>
</a>
</g>
</g>
<!-- Node25 -->
<g id="Node000025" class="node">
<title>Node25</title>
<g id="a_Node000025"><a xlink:href="Projectile_8h.html" target="_top" xlink:title="Projectile class for bullets fired by tanks with collision detection.">
<polygon fill="white" stroke="#666666" points="668.44,-404 563.44,-404 563.44,-385 668.44,-385 668.44,-404"/>
<text text-anchor="middle" x="615.94" y="-392" font-family="Helvetica,sans-Serif" font-size="10.00">model/Projectile.h</text>
</a>
</g>
</g>
<!-- Node1&#45;&gt;Node25 -->
<g id="edge36_Node000001_Node000025" class="edge">
<title>Node1&#45;&gt;Node25</title>
<g id="a_edge36_Node000001_Node000025"><a xlink:title=" ">
<path fill="none" stroke="#63b8ff" d="M660.18,-433.32C649.13,-423.87 635.31,-412.06 626.08,-404.17"/>
<polygon fill="#63b8ff" stroke="#63b8ff" points="658.1,-436.15 667.98,-439.98 662.65,-430.83 658.1,-436.15"/>
</a>
</g>
</g>
<!-- Node3 -->
<g id="Node000003" class="node">
<title>Node3</title>
<g id="a_Node000003"><a xlink:href="Bonus_8cpp.html" target="_top" xlink:title="Implementation of power&#45;up bonuses with various effects for player tank.">
<polygon fill="white" stroke="#666666" points="130.44,-239 29.44,-239 29.44,-220 130.44,-220 130.44,-239"/>
<text text-anchor="middle" x="79.94" y="-227" font-family="Helvetica,sans-Serif" font-size="10.00">model/Bonus.cpp</text>
</a>
</g>
</g>
<!-- Node2&#45;&gt;Node3 -->
<g id="edge2_Node000002_Node000003" class="edge">
<title>Node2&#45;&gt;Node3</title>
<g id="a_edge2_Node000002_Node000003"><a xlink:title=" ">
<path fill="none" stroke="#63b8ff" d="M374.33,-384.46C311.69,-372.09 207.97,-345.31 132.94,-294 111.13,-279.09 93.29,-252.81 84.98,-239.2"/>
<polygon fill="#63b8ff" stroke="#63b8ff" points="373.92,-387.95 384.4,-386.4 375.24,-381.07 373.92,-387.95"/>
</a>
</g>
</g>
<!-- Node2&#45;&gt;Node4 -->
<g id="edge3_Node000002_Node000004" class="edge">
<title>Node2&#45;&gt;Node4</title>
<g id="a_edge3_Node000002_Node000004"><a xlink:title=" ">
<path fill="none" stroke="#63b8ff" d="M423.91,-375.03C418.09,-349.17 412.22,-302.29 436.94,-275 463.87,-245.26 574.24,-235.4 643.77,-232.12"/>
<polygon fill="#63b8ff" stroke="#63b8ff" points="420.58,-376.13 426.38,-385 427.37,-374.45 420.58,-376.13"/>
</a>
</g>
</g>
<!-- Node2&#45;&gt;Node13 -->
<g id="edge15_Node000002_Node000013" class="edge">
<title>Node2&#45;&gt;Node13</title>
<g id="a_edge15_Node000002_Node000013"><a xlink:title=" ">
<path fill="none" stroke="#63b8ff" d="M446.93,-378.6C458.39,-369.11 472.85,-357.13 482.47,-349.17"/>
<polygon fill="#63b8ff" stroke="#63b8ff" points="444.69,-375.91 439.22,-384.98 449.15,-381.3 444.69,-375.91"/>
</a>
</g>
</g>
<!-- Node5 -->
<g id="Node000005" class="node">
<title>Node5</title>
<g id="a_Node000005"><a xlink:href="GameController_8h.html" target="_top" xlink:title="Central game controller coordinating model, view, and input systems.">
<polygon fill="white" stroke="#666666" points="783.94,-74 631.94,-74 631.94,-55 783.94,-55 783.94,-74"/>
<text text-anchor="middle" x="707.94" y="-62" font-family="Helvetica,sans-Serif" font-size="10.00">controller/GameController.h</text>
</a>
</g>
</g>
<!-- Node4&#45;&gt;Node5 -->
<g id="edge4_Node000004_Node000005" class="edge">
<title>Node4&#45;&gt;Node5</title>
<g id="a_edge4_Node000004_Node000005"><a xlink:title=" ">
<path fill="none" stroke="#63b8ff" d="M705.05,-209.66C706.2,-201.76 707.37,-192.46 707.94,-184 710.69,-142.95 709.14,-93.71 708.33,-74.14"/>
<polygon fill="#63b8ff" stroke="#63b8ff" points="701.57,-209.25 703.48,-219.67 708.48,-210.33 701.57,-209.25"/>
</a>
</g>
</g>
<!-- Node8 -->
<g id="Node000008" class="node">
<title>Node8</title>
<g id="a_Node000008"><a xlink:href="GameWorld_8cpp.html" target="_top" xlink:title="Core game simulation with object management, collisions, and level generation.">
<polygon fill="white" stroke="#666666" points="680.94,-184 552.94,-184 552.94,-165 680.94,-165 680.94,-184"/>
<text text-anchor="middle" x="616.94" y="-172" font-family="Helvetica,sans-Serif" font-size="10.00">model/GameWorld.cpp</text>
</a>
</g>
</g>
<!-- Node4&#45;&gt;Node8 -->
<g id="edge7_Node000004_Node000008" class="edge">
<title>Node4&#45;&gt;Node8</title>
<g id="a_edge7_Node000004_Node000008"><a xlink:title=" ">
<path fill="none" stroke="#63b8ff" d="M679.36,-214.42C663.94,-204.81 643.99,-192.37 630.84,-184.17"/>
<polygon fill="#63b8ff" stroke="#63b8ff" points="677.94,-217.66 688.28,-219.98 681.65,-211.72 677.94,-217.66"/>
</a>
</g>
</g>
<!-- Node4&#45;&gt;Node9 -->
<g id="edge8_Node000004_Node000009" class="edge">
<title>Node4&#45;&gt;Node9</title>
<g id="a_edge8_Node000004_Node000009"><a xlink:title=" ">
<path fill="none" stroke="#63b8ff" d="M655.98,-217.63C614.02,-207.7 552.82,-193.22 514.21,-184.08"/>
<polygon fill="#63b8ff" stroke="#63b8ff" points="655.41,-221.09 665.95,-219.98 657.02,-214.28 655.41,-221.09"/>
</a>
</g>
</g>
<!-- Node11 -->
<g id="Node000011" class="node">
<title>Node11</title>
<g id="a_Node000011"><a xlink:href="ConsoleRenderer_8h.html" target="_top" xlink:title="Renders game state, menus, and UI elements to the console.">
<polygon fill="white" stroke="#666666" points="625.94,-129 491.94,-129 491.94,-110 625.94,-110 625.94,-129"/>
<text text-anchor="middle" x="558.94" y="-117" font-family="Helvetica,sans-Serif" font-size="10.00">view/ConsoleRenderer.h</text>
</a>
</g>
</g>
<!-- Node4&#45;&gt;Node11 -->
<g id="edge14_Node000004_Node000011" class="edge">
<title>Node4&#45;&gt;Node11</title>
<g id="a_edge14_Node000004_Node000011"><a xlink:title=" ">
<path fill="none" stroke="#63b8ff" d="M703.14,-209.6C702.99,-195.7 700.51,-177.18 689.94,-165 673.64,-146.23 649.1,-135.36 625.66,-129.08"/>
<polygon fill="#63b8ff" stroke="#63b8ff" points="699.63,-209.86 702.84,-219.96 706.63,-210.06 699.63,-209.86"/>
</a>
</g>
</g>
<!-- Node6 -->
<g id="Node000006" class="node">
<title>Node6</title>
<g id="a_Node000006"><a xlink:href="GameController_8cpp.html" target="_top" xlink:title="Implementation of main game controller and game loop logic.">
<polygon fill="white" stroke="#666666" points="723.44,-19 560.44,-19 560.44,0 723.44,0 723.44,-19"/>
<text text-anchor="middle" x="641.94" y="-7" font-family="Helvetica,sans-Serif" font-size="10.00">controller/GameController.cpp</text>
</a>
</g>
</g>
<!-- Node5&#45;&gt;Node6 -->
<g id="edge5_Node000005_Node000006" class="edge">
<title>Node5&#45;&gt;Node6</title>
<g id="a_edge5_Node000005_Node000006"><a xlink:title=" ">
<path fill="none" stroke="#63b8ff" d="M689.38,-48.6C677.56,-39.11 662.65,-27.13 652.73,-19.17"/>
<polygon fill="#63b8ff" stroke="#63b8ff" points="687.34,-51.45 697.33,-54.98 691.73,-45.99 687.34,-51.45"/>
</a>
</g>
</g>
<!-- Node7 -->
<g id="Node000007" class="node">
<title>Node7</title>
<g id="a_Node000007"><a xlink:href="main_8cpp.html" target="_top" xlink:title="Main entry point for the Tank Simulator game.">
<polygon fill="white" stroke="#666666" points="803.94,-19 741.94,-19 741.94,0 803.94,0 803.94,-19"/>
<text text-anchor="middle" x="772.94" y="-7" font-family="Helvetica,sans-Serif" font-size="10.00">main.cpp</text>
</a>
</g>
</g>
<!-- Node5&#45;&gt;Node7 -->
<g id="edge6_Node000005_Node000007" class="edge">
<title>Node5&#45;&gt;Node7</title>
<g id="a_edge6_Node000005_Node000007"><a xlink:title=" ">
<path fill="none" stroke="#63b8ff" d="M726.21,-48.6C737.85,-39.11 752.54,-27.13 762.3,-19.17"/>
<polygon fill="#63b8ff" stroke="#63b8ff" points="723.92,-45.95 718.38,-54.98 728.34,-51.38 723.92,-45.95"/>
</a>
</g>
</g>
<!-- Node9&#45;&gt;Node5 -->
<g id="edge9_Node000009_Node000005" class="edge">
<title>Node9&#45;&gt;Node5</title>
<g id="a_edge9_Node000009_Node000005"><a xlink:title=" ">
<path fill="none" stroke="#63b8ff" d="M538.86,-162.78C568.98,-155.88 605.16,-145.11 634.94,-129 662.12,-114.29 687.94,-87.92 700.31,-74.25"/>
<polygon fill="#63b8ff" stroke="#63b8ff" points="537.9,-159.4 528.89,-164.97 539.41,-166.24 537.9,-159.4"/>
</a>
</g>
</g>
<!-- Node10 -->
<g id="Node000010" class="node">
<title>Node10</title>
<g id="a_Node000010"><a xlink:href="MapManager_8cpp.html" target="_top" xlink:title="Implementation for loading, creating, and managing game maps.">
<polygon fill="white" stroke="#666666" points="399.94,-129 275.94,-129 275.94,-110 399.94,-110 399.94,-129"/>
<text text-anchor="middle" x="337.94" y="-117" font-family="Helvetica,sans-Serif" font-size="10.00">utils/MapManager.cpp</text>
</a>
</g>
</g>
<!-- Node9&#45;&gt;Node10 -->
<g id="edge10_Node000009_Node000010" class="edge">
<title>Node9&#45;&gt;Node10</title>
<g id="a_edge10_Node000009_Node000010"><a xlink:title=" ">
<path fill="none" stroke="#63b8ff" d="M446.03,-161.42C420.06,-151.59 384.02,-137.95 360.84,-129.17"/>
<polygon fill="#63b8ff" stroke="#63b8ff" points="444.85,-164.72 455.44,-164.98 447.33,-158.17 444.85,-164.72"/>
</a>
</g>
</g>
<!-- Node9&#45;&gt;Node11 -->
<g id="edge11_Node000009_Node000011" class="edge">
<title>Node9&#45;&gt;Node11</title>
<g id="a_edge11_Node000009_Node000011"><a xlink:title=" ">
<path fill="none" stroke="#63b8ff" d="M499.45,-159.42C514.15,-149.81 533.16,-137.37 545.69,-129.17"/>
<polygon fill="#63b8ff" stroke="#63b8ff" points="497.4,-156.58 490.95,-164.98 501.24,-162.44 497.4,-156.58"/>
</a>
</g>
</g>
<!-- Node11&#45;&gt;Node5 -->
<g id="edge12_Node000011_Node000005" class="edge">
<title>Node11&#45;&gt;Node5</title>
<g id="a_edge12_Node000011_Node000005"><a xlink:title=" ">
<path fill="none" stroke="#63b8ff" d="M592.53,-106.55C620.2,-96.71 658.78,-82.98 683.56,-74.17"/>
<polygon fill="#63b8ff" stroke="#63b8ff" points="591.13,-103.34 582.88,-109.98 593.47,-109.93 591.13,-103.34"/>
</a>
</g>
</g>
<!-- Node12 -->
<g id="Node000012" class="node">
<title>Node12</title>
<g id="a_Node000012"><a xlink:href="ConsoleRenderer_8cpp.html" target="_top" xlink:title="Implementation of console&#45;based game rendering with ASCII/Unicode support.">
<polygon fill="white" stroke="#666666" points="613.94,-74 467.94,-74 467.94,-55 613.94,-55 613.94,-74"/>
<text text-anchor="middle" x="540.94" y="-62" font-family="Helvetica,sans-Serif" font-size="10.00">view/ConsoleRenderer.cpp</text>
</a>
</g>
</g>
<!-- Node11&#45;&gt;Node12 -->
<g id="edge13_Node000011_Node000012" class="edge">
<title>Node11&#45;&gt;Node12</title>
<g id="a_edge13_Node000011_Node000012"><a xlink:title=" ">
<path fill="none" stroke="#63b8ff" d="M552.74,-100.24C549.72,-91.37 546.25,-81.14 543.85,-74.09"/>
<polygon fill="#63b8ff" stroke="#63b8ff" points="549.43,-101.4 555.96,-109.75 556.06,-99.15 549.43,-101.4"/>
</a>
</g>
</g>
<!-- Node14 -->
<g id="Node000014" class="node">
<title>Node14</title>
<g id="a_Node000014"><a xlink:href="EnemyTank_8h.html" target="_top" xlink:title="AI&#45;controlled enemy tanks with various behaviors, types, and difficulty levels.">
<polygon fill="white" stroke="#666666" points="389.94,-294 273.94,-294 273.94,-275 389.94,-275 389.94,-294"/>
<text text-anchor="middle" x="331.94" y="-282" font-family="Helvetica,sans-Serif" font-size="10.00">model/EnemyTank.h</text>
</a>
</g>
</g>
<!-- Node13&#45;&gt;Node14 -->
<g id="edge16_Node000013_Node000014" class="edge">
<title>Node13&#45;&gt;Node14</title>
<g id="a_edge16_Node000013_Node000014"><a xlink:title=" ">
<path fill="none" stroke="#63b8ff" d="M457.39,-326.8C427.34,-316.91 385,-302.97 358.01,-294.08"/>
<polygon fill="#63b8ff" stroke="#63b8ff" points="456.48,-330.18 467.07,-329.98 458.67,-323.53 456.48,-330.18"/>
</a>
</g>
</g>
<!-- Node16 -->
<g id="Node000016" class="node">
<title>Node16</title>
<g id="a_Node000016"><a xlink:href="PlayerTank_8h.html" target="_top" xlink:title="Player&#45;controlled tank with lives, score system, and special abilities.">
<polygon fill="white" stroke="#666666" points="255.44,-294 142.44,-294 142.44,-275 255.44,-275 255.44,-294"/>
<text text-anchor="middle" x="198.94" y="-282" font-family="Helvetica,sans-Serif" font-size="10.00">model/PlayerTank.h</text>
</a>
</g>
</g>
<!-- Node13&#45;&gt;Node16 -->
<g id="edge20_Node000013_Node000016" class="edge">
<title>Node13&#45;&gt;Node16</title>
<g id="a_edge20_Node000013_Node000016"><a xlink:title=" ">
<path fill="none" stroke="#63b8ff" d="M441.85,-329.29C386.74,-319.36 299.72,-303.67 246.17,-294.01"/>
<polygon fill="#63b8ff" stroke="#63b8ff" points="441.29,-332.75 451.75,-331.07 442.53,-325.86 441.29,-332.75"/>
</a>
</g>
</g>
<!-- Node18 -->
<g id="Node000018" class="node">
<title>Node18</title>
<g id="a_Node000018"><a xlink:href="Projectile_8cpp.html" target="_top" xlink:title="Implementation of projectile movement, collision detection, and damage calculation.">
<polygon fill="white" stroke="#666666" points="673.94,-294 557.94,-294 557.94,-275 673.94,-275 673.94,-294"/>
<text text-anchor="middle" x="615.94" y="-282" font-family="Helvetica,sans-Serif" font-size="10.00">model/Projectile.cpp</text>
</a>
</g>
</g>
<!-- Node13&#45;&gt;Node18 -->
<g id="edge25_Node000013_Node000018" class="edge">
<title>Node13&#45;&gt;Node18</title>
<g id="a_edge25_Node000013_Node000018"><a xlink:title=" ">
<path fill="none" stroke="#63b8ff" d="M522.18,-325.9C544.9,-316.11 575.81,-302.79 595.82,-294.17"/>
<polygon fill="#63b8ff" stroke="#63b8ff" points="520.5,-322.81 512.7,-329.98 523.27,-329.24 520.5,-322.81"/>
</a>
</g>
</g>
<!-- Node19 -->
<g id="Node000019" class="node">
<title>Node19</title>
<g id="a_Node000019"><a xlink:href="Tank_8cpp.html" target="_top" xlink:title="Implementation of tank mechanics including movement, firing, and bonus effects.">
<polygon fill="white" stroke="#666666" points="539.44,-294 446.44,-294 446.44,-275 539.44,-275 539.44,-294"/>
<text text-anchor="middle" x="492.94" y="-282" font-family="Helvetica,sans-Serif" font-size="10.00">model/Tank.cpp</text>
</a>
</g>
</g>
<!-- Node13&#45;&gt;Node19 -->
<g id="edge26_Node000013_Node000019" class="edge">
<title>Node13&#45;&gt;Node19</title>
<g id="a_edge26_Node000013_Node000019"><a xlink:title=" ">
<path fill="none" stroke="#63b8ff" d="M492.94,-319.66C492.94,-310.93 492.94,-300.99 492.94,-294.09"/>
<polygon fill="#63b8ff" stroke="#63b8ff" points="489.44,-319.75 492.94,-329.75 496.44,-319.75 489.44,-319.75"/>
</a>
</g>
</g>
<!-- Node14&#45;&gt;Node4 -->
<g id="edge18_Node000014_Node000004" class="edge">
<title>Node14&#45;&gt;Node4</title>
<g id="a_edge18_Node000014_Node000004"><a xlink:title=" ">
<path fill="none" stroke="#63b8ff" d="M400.19,-273.72C470.13,-263.7 577.72,-248.29 643.75,-238.83"/>
<polygon fill="#63b8ff" stroke="#63b8ff" points="399.56,-270.28 390.16,-275.16 400.55,-277.21 399.56,-270.28"/>
</a>
</g>
</g>
<!-- Node14&#45;&gt;Node9 -->
<g id="edge19_Node000014_Node000009" class="edge">
<title>Node14&#45;&gt;Node9</title>
<g id="a_edge19_Node000014_Node000009"><a xlink:title=" ">
<path fill="none" stroke="#63b8ff" d="M399.98,-274.9C423.62,-268.6 448.34,-257.74 464.94,-239 478.67,-223.5 479.38,-197.48 478.69,-184.07"/>
<polygon fill="#63b8ff" stroke="#63b8ff" points="398.84,-271.57 389.94,-277.32 400.49,-278.38 398.84,-271.57"/>
</a>
</g>
</g>
<!-- Node15 -->
<g id="Node000015" class="node">
<title>Node15</title>
<g id="a_Node000015"><a xlink:href="EnemyTank_8cpp.html" target="_top" xlink:title="Implementation of enemy tank AI behaviors, movement patterns, and combat logic.">
<polygon fill="white" stroke="#666666" points="456.44,-239 329.44,-239 329.44,-220 456.44,-220 456.44,-239"/>
<text text-anchor="middle" x="392.94" y="-227" font-family="Helvetica,sans-Serif" font-size="10.00">model/EnemyTank.cpp</text>
</a>
</g>
</g>
<!-- Node14&#45;&gt;Node15 -->
<g id="edge17_Node000014_Node000015" class="edge">
<title>Node14&#45;&gt;Node15</title>
<g id="a_edge17_Node000014_Node000015"><a xlink:title=" ">
<path fill="none" stroke="#63b8ff" d="M349.4,-268.32C360.28,-258.87 373.88,-247.06 382.96,-239.17"/>
<polygon fill="#63b8ff" stroke="#63b8ff" points="346.99,-265.78 341.74,-274.98 351.58,-271.07 346.99,-265.78"/>
</a>
</g>
</g>
<!-- Node16&#45;&gt;Node3 -->
<g id="edge21_Node000016_Node000003" class="edge">
<title>Node16&#45;&gt;Node3</title>
<g id="a_edge21_Node000016_Node000003"><a xlink:title=" ">
<path fill="none" stroke="#63b8ff" d="M170.64,-270.9C148.66,-261.11 118.76,-247.79 99.4,-239.17"/>
<polygon fill="#63b8ff" stroke="#63b8ff" points="169.26,-274.11 179.82,-274.98 172.11,-267.72 169.26,-274.11"/>
</a>
</g>
</g>
<!-- Node16&#45;&gt;Node4 -->
<g id="edge22_Node000016_Node000004" class="edge">
<title>Node16&#45;&gt;Node4</title>
<g id="a_edge22_Node000016_Node000004"><a xlink:title=" ">
<path fill="none" stroke="#63b8ff" d="M265.68,-274.95C407.99,-258.64 562.13,-243.65 643.92,-235.91"/>
<polygon fill="#63b8ff" stroke="#63b8ff" points="264.99,-271.5 255.45,-276.12 265.79,-278.46 264.99,-271.5"/>
</a>
</g>
</g>
<!-- Node16&#45;&gt;Node10 -->
<g id="edge24_Node000016_Node000010" class="edge">
<title>Node16&#45;&gt;Node10</title>
<g id="a_edge24_Node000016_Node000010"><a xlink:title=" ">
<path fill="none" stroke="#63b8ff" d="M233.41,-270.97C249.75,-263.66 268.57,-253.07 281.94,-239 313.92,-205.36 330.49,-150.08 335.9,-129.02"/>
<polygon fill="#63b8ff" stroke="#63b8ff" points="231.98,-267.77 224.14,-274.9 234.71,-274.22 231.98,-267.77"/>
</a>
</g>
</g>
<!-- Node17 -->
<g id="Node000017" class="node">
<title>Node17</title>
<g id="a_Node000017"><a xlink:href="PlayerTank_8cpp.html" target="_top" xlink:title="Implementation of player&#45;controlled tank with lives, score, and bonus management.">
<polygon fill="white" stroke="#666666" points="272.94,-239 148.94,-239 148.94,-220 272.94,-220 272.94,-239"/>
<text text-anchor="middle" x="210.94" y="-227" font-family="Helvetica,sans-Serif" font-size="10.00">model/PlayerTank.cpp</text>
</a>
</g>
</g>
<!-- Node16&#45;&gt;Node17 -->
<g id="edge23_Node000016_Node000017" class="edge">
<title>Node16&#45;&gt;Node17</title>
<g id="a_edge23_Node000016_Node000017"><a xlink:title=" ">
<path fill="none" stroke="#63b8ff" d="M203.14,-264.95C205.13,-256.15 207.41,-246.06 208.99,-239.09"/>
<polygon fill="#63b8ff" stroke="#63b8ff" points="199.71,-264.22 200.92,-274.75 206.54,-265.77 199.71,-264.22"/>
</a>
</g>
</g>
<!-- Node20&#45;&gt;Node4 -->
<g id="edge29_Node000020_Node000004" class="edge">
<title>Node20&#45;&gt;Node4</title>
<g id="a_edge29_Node000020_Node000004"><a xlink:title=" ">
<path fill="none" stroke="#63b8ff" d="M736.78,-374.84C732.67,-351.38 724.94,-309.94 715.94,-275 712.7,-262.45 708.04,-248.21 705,-239.29"/>
<polygon fill="#63b8ff" stroke="#63b8ff" points="733.35,-375.54 738.5,-384.81 740.25,-374.36 733.35,-375.54"/>
</a>
</g>
</g>
<!-- Node21 -->
<g id="Node000021" class="node">
<title>Node21</title>
<g id="a_Node000021"><a xlink:href="Explosion_8cpp.html" target="_top" xlink:title="Implementation of timed explosion visual effects.">
<polygon fill="white" stroke="#666666" points="885.94,-349 767.94,-349 767.94,-330 885.94,-330 885.94,-349"/>
<text text-anchor="middle" x="826.94" y="-337" font-family="Helvetica,sans-Serif" font-size="10.00">model/Explosion.cpp</text>
</a>
</g>
</g>
<!-- Node20&#45;&gt;Node21 -->
<g id="edge28_Node000020_Node000021" class="edge">
<title>Node20&#45;&gt;Node21</title>
<g id="a_edge28_Node000020_Node000021"><a xlink:title=" ">
<path fill="none" stroke="#63b8ff" d="M762.6,-379.7C778.44,-370.04 799.12,-357.44 812.7,-349.17"/>
<polygon fill="#63b8ff" stroke="#63b8ff" points="760.63,-376.79 753.92,-384.98 764.28,-382.77 760.63,-376.79"/>
</a>
</g>
</g>
<!-- Node23&#45;&gt;Node4 -->
<g id="edge33_Node000023_Node000004" class="edge">
<title>Node23&#45;&gt;Node4</title>
<g id="a_edge33_Node000023_Node000004"><a xlink:title=" ">
<path fill="none" stroke="#63b8ff" d="M919.58,-273.07C868.78,-263.13 793.23,-248.35 745.82,-239.08"/>
<polygon fill="#63b8ff" stroke="#63b8ff" points="918.91,-276.5 929.4,-274.98 920.25,-269.63 918.91,-276.5"/>
</a>
</g>
</g>
<!-- Node23&#45;&gt;Node9 -->
<g id="edge35_Node000023_Node000009" class="edge">
<title>Node23&#45;&gt;Node9</title>
<g id="a_edge35_Node000023_Node000009"><a xlink:title=" ">
<path fill="none" stroke="#63b8ff" d="M939.88,-271.52C899.87,-257.42 830.25,-234.15 768.94,-220 725.55,-209.99 606.41,-192.99 534.74,-183.15"/>
<polygon fill="#63b8ff" stroke="#63b8ff" points="938.79,-274.85 949.39,-274.9 941.13,-268.25 938.79,-274.85"/>
</a>
</g>
</g>
<!-- Node24 -->
<g id="Node000024" class="node">
<title>Node24</title>
<g id="a_Node000024"><a xlink:href="Obstacle_8cpp.html" target="_top" xlink:title="Implementation of environmental obstacles with different passability and durability.">
<polygon fill="white" stroke="#666666" points="1029.44,-239 916.44,-239 916.44,-220 1029.44,-220 1029.44,-239"/>
<text text-anchor="middle" x="972.94" y="-227" font-family="Helvetica,sans-Serif" font-size="10.00">model/Obstacle.cpp</text>
</a>
</g>
</g>
<!-- Node23&#45;&gt;Node24 -->
<g id="edge34_Node000023_Node000024" class="edge">
<title>Node23&#45;&gt;Node24</title>
<g id="a_edge34_Node000023_Node000024"><a xlink:title=" ">
<path fill="none" stroke="#63b8ff" d="M972.94,-264.66C972.94,-255.93 972.94,-245.99 972.94,-239.09"/>
<polygon fill="#63b8ff" stroke="#63b8ff" points="969.44,-264.75 972.94,-274.75 976.44,-264.75 969.44,-264.75"/>
</a>
</g>
</g>
<!-- Node25&#45;&gt;Node4 -->
<g id="edge37_Node000025_Node000004" class="edge">
<title>Node25&#45;&gt;Node4</title>
<g id="a_edge37_Node000025_Node000004"><a xlink:title=" ">
<path fill="none" stroke="#63b8ff" d="M629.31,-377.05C644.2,-358.05 668.11,-325.37 682.94,-294 691.79,-275.27 697.59,-251.49 700.25,-239.02"/>
<polygon fill="#63b8ff" stroke="#63b8ff" points="626.48,-374.99 622.99,-384.99 631.96,-379.35 626.48,-374.99"/>
</a>
</g>
</g>
<!-- Node25&#45;&gt;Node13 -->
<g id="edge39_Node000025_Node000013" class="edge">
<title>Node25&#45;&gt;Node13</title>
<g id="a_edge39_Node000025_Node000013"><a xlink:title=" ">
<path fill="none" stroke="#63b8ff" d="M586.69,-380.9C563.97,-371.11 533.07,-357.79 513.06,-349.17"/>
<polygon fill="#63b8ff" stroke="#63b8ff" points="585.61,-384.24 596.18,-384.98 588.38,-377.81 585.61,-384.24"/>
</a>
</g>
</g>
<!-- Node25&#45;&gt;Node18 -->
<g id="edge38_Node000025_Node000018" class="edge">
<title>Node25&#45;&gt;Node18</title>
<g id="a_edge38_Node000025_Node000018"><a xlink:title=" ">
<path fill="none" stroke="#63b8ff" d="M615.94,-374.48C615.94,-350.84 615.94,-311.5 615.94,-294.16"/>
<polygon fill="#63b8ff" stroke="#63b8ff" points="612.44,-374.66 615.94,-384.66 619.44,-374.66 612.44,-374.66"/>
</a>
</g>
</g>
</g>
</svg>
