<?xml version="1.0" encoding="UTF-8" standalone="no"?>
<!DOCTYPE svg PUBLIC "-//W3C//DTD SVG 1.1//EN"
 "http://www.w3.org/Graphics/SVG/1.1/DTD/svg11.dtd">
<!-- Generated by graphviz version 2.43.0 (0)
 -->
<!-- Title: model/GameWorld.h Pages: 1 -->
<svg width="465pt" height="247pt"
 viewBox="0.00 0.00 464.50 247.00" xmlns="http://www.w3.org/2000/svg" xmlns:xlink="http://www.w3.org/1999/xlink">
<g id="graph0" class="graph" transform="scale(1 1) rotate(0) translate(4 243)">
<title>model/GameWorld.h</title>
<!-- Node1 -->
<g id="Node000001" class="node">
<title>Node1</title>
<g id="a_Node000001"><a xlink:title="Main game world manager handling objects, collisions, states, and game logic.">
<polygon fill="#999999" stroke="#666666" points="286.5,-239 170.5,-239 170.5,-220 286.5,-220 286.5,-239"/>
<text text-anchor="middle" x="228.5" y="-227" font-family="Helvetica,sans-Serif" font-size="10.00">model/GameWorld.h</text>
</a>
</g>
</g>
<!-- Node2 -->
<g id="Node000002" class="node">
<title>Node2</title>
<g id="a_Node000002"><a xlink:href="GameController_8h.html" target="_top" xlink:title="Central game controller coordinating model, view, and input systems.">
<polygon fill="white" stroke="#666666" points="222.5,-74 70.5,-74 70.5,-55 222.5,-55 222.5,-74"/>
<text text-anchor="middle" x="146.5" y="-62" font-family="Helvetica,sans-Serif" font-size="10.00">controller/GameController.h</text>
</a>
</g>
</g>
<!-- Node1&#45;&gt;Node2 -->
<g id="edge1_Node000001_Node000002" class="edge">
<title>Node1&#45;&gt;Node2</title>
<g id="a_edge1_Node000001_Node000002"><a xlink:title=" ">
<path fill="none" stroke="#63b8ff" d="M160.35,-224.2C132.83,-218.71 103.6,-207.27 86.5,-184 58.92,-146.46 112.22,-94.38 135.94,-74.08"/>
<polygon fill="#63b8ff" stroke="#63b8ff" points="159.93,-227.68 170.38,-225.97 161.14,-220.79 159.93,-227.68"/>
</a>
</g>
</g>
<!-- Node5 -->
<g id="Node000005" class="node">
<title>Node5</title>
<g id="a_Node000005"><a xlink:href="GameWorld_8cpp.html" target="_top" xlink:title="Core game simulation with object management, collisions, and level generation.">
<polygon fill="white" stroke="#666666" points="223.5,-184 95.5,-184 95.5,-165 223.5,-165 223.5,-184"/>
<text text-anchor="middle" x="159.5" y="-172" font-family="Helvetica,sans-Serif" font-size="10.00">model/GameWorld.cpp</text>
</a>
</g>
</g>
<!-- Node1&#45;&gt;Node5 -->
<g id="edge4_Node000001_Node000005" class="edge">
<title>Node1&#45;&gt;Node5</title>
<g id="a_edge4_Node000001_Node000005"><a xlink:title=" ">
<path fill="none" stroke="#63b8ff" d="M209.46,-213.88C197.04,-204.34 181.26,-192.21 170.79,-184.17"/>
<polygon fill="#63b8ff" stroke="#63b8ff" points="207.35,-216.67 217.41,-219.98 211.62,-211.12 207.35,-216.67"/>
</a>
</g>
</g>
<!-- Node6 -->
<g id="Node000006" class="node">
<title>Node6</title>
<g id="a_Node000006"><a xlink:href="MapManager_8h.html" target="_top" xlink:title="Manages game maps, level generation, and procedural content.">
<polygon fill="white" stroke="#666666" points="355,-184 242,-184 242,-165 355,-165 355,-184"/>
<text text-anchor="middle" x="298.5" y="-172" font-family="Helvetica,sans-Serif" font-size="10.00">utils/MapManager.h</text>
</a>
</g>
</g>
<!-- Node1&#45;&gt;Node6 -->
<g id="edge5_Node000001_Node000006" class="edge">
<title>Node1&#45;&gt;Node6</title>
<g id="a_edge5_Node000001_Node000006"><a xlink:title=" ">
<path fill="none" stroke="#63b8ff" d="M247.81,-213.88C260.41,-204.34 276.43,-192.21 287.05,-184.17"/>
<polygon fill="#63b8ff" stroke="#63b8ff" points="245.61,-211.16 239.75,-219.98 249.83,-216.74 245.61,-211.16"/>
</a>
</g>
</g>
<!-- Node8 -->
<g id="Node000008" class="node">
<title>Node8</title>
<g id="a_Node000008"><a xlink:href="ConsoleRenderer_8h.html" target="_top" xlink:title="Renders game state, menus, and UI elements to the console.">
<polygon fill="white" stroke="#666666" points="450.5,-129 316.5,-129 316.5,-110 450.5,-110 450.5,-129"/>
<text text-anchor="middle" x="383.5" y="-117" font-family="Helvetica,sans-Serif" font-size="10.00">view/ConsoleRenderer.h</text>
</a>
</g>
</g>
<!-- Node1&#45;&gt;Node8 -->
<g id="edge11_Node000001_Node000008" class="edge">
<title>Node1&#45;&gt;Node8</title>
<g id="a_edge11_Node000001_Node000008"><a xlink:title=" ">
<path fill="none" stroke="#63b8ff" d="M296.53,-219.58C320.78,-213.25 346.52,-202.45 364.5,-184 379.28,-168.84 382.63,-142.67 383.34,-129.15"/>
<polygon fill="#63b8ff" stroke="#63b8ff" points="295.53,-216.22 286.61,-221.95 297.15,-223.03 295.53,-216.22"/>
</a>
</g>
</g>
<!-- Node3 -->
<g id="Node000003" class="node">
<title>Node3</title>
<g id="a_Node000003"><a xlink:href="GameController_8cpp.html" target="_top" xlink:title="Implementation of main game controller and game loop logic.">
<polygon fill="white" stroke="#666666" points="163,-19 0,-19 0,0 163,0 163,-19"/>
<text text-anchor="middle" x="81.5" y="-7" font-family="Helvetica,sans-Serif" font-size="10.00">controller/GameController.cpp</text>
</a>
</g>
</g>
<!-- Node2&#45;&gt;Node3 -->
<g id="edge2_Node000002_Node000003" class="edge">
<title>Node2&#45;&gt;Node3</title>
<g id="a_edge2_Node000002_Node000003"><a xlink:title=" ">
<path fill="none" stroke="#63b8ff" d="M128.23,-48.6C116.58,-39.11 101.9,-27.13 92.13,-19.17"/>
<polygon fill="#63b8ff" stroke="#63b8ff" points="126.09,-51.38 136.06,-54.98 130.52,-45.95 126.09,-51.38"/>
</a>
</g>
</g>
<!-- Node4 -->
<g id="Node000004" class="node">
<title>Node4</title>
<g id="a_Node000004"><a xlink:href="main_8cpp.html" target="_top" xlink:title="Main entry point for the Tank Simulator game.">
<polygon fill="white" stroke="#666666" points="243.5,-19 181.5,-19 181.5,0 243.5,0 243.5,-19"/>
<text text-anchor="middle" x="212.5" y="-7" font-family="Helvetica,sans-Serif" font-size="10.00">main.cpp</text>
</a>
</g>
</g>
<!-- Node2&#45;&gt;Node4 -->
<g id="edge3_Node000002_Node000004" class="edge">
<title>Node2&#45;&gt;Node4</title>
<g id="a_edge3_Node000002_Node000004"><a xlink:title=" ">
<path fill="none" stroke="#63b8ff" d="M165.05,-48.6C176.88,-39.11 191.79,-27.13 201.7,-19.17"/>
<polygon fill="#63b8ff" stroke="#63b8ff" points="162.71,-45.99 157.1,-54.98 167.09,-51.45 162.71,-45.99"/>
</a>
</g>
</g>
<!-- Node6&#45;&gt;Node2 -->
<g id="edge6_Node000006_Node000002" class="edge">
<title>Node6&#45;&gt;Node2</title>
<g id="a_edge6_Node000006_Node000002"><a xlink:title=" ">
<path fill="none" stroke="#63b8ff" d="M232.25,-164.33C208.44,-157.98 183.14,-147.22 165.5,-129 150.77,-113.79 147.4,-87.64 146.67,-74.13"/>
<polygon fill="#63b8ff" stroke="#63b8ff" points="231.44,-167.74 241.98,-166.72 233.1,-160.94 231.44,-167.74"/>
</a>
</g>
</g>
<!-- Node7 -->
<g id="Node000007" class="node">
<title>Node7</title>
<g id="a_Node000007"><a xlink:href="MapManager_8cpp.html" target="_top" xlink:title="Implementation for loading, creating, and managing game maps.">
<polygon fill="white" stroke="#666666" points="298.5,-129 174.5,-129 174.5,-110 298.5,-110 298.5,-129"/>
<text text-anchor="middle" x="236.5" y="-117" font-family="Helvetica,sans-Serif" font-size="10.00">utils/MapManager.cpp</text>
</a>
</g>
</g>
<!-- Node6&#45;&gt;Node7 -->
<g id="edge7_Node000006_Node000007" class="edge">
<title>Node6&#45;&gt;Node7</title>
<g id="a_edge7_Node000006_Node000007"><a xlink:title=" ">
<path fill="none" stroke="#63b8ff" d="M280.75,-158.32C269.69,-148.87 255.87,-137.06 246.64,-129.17"/>
<polygon fill="#63b8ff" stroke="#63b8ff" points="278.66,-161.15 288.54,-164.98 283.21,-155.83 278.66,-161.15"/>
</a>
</g>
</g>
<!-- Node6&#45;&gt;Node8 -->
<g id="edge8_Node000006_Node000008" class="edge">
<title>Node6&#45;&gt;Node8</title>
<g id="a_edge8_Node000006_Node000008"><a xlink:title=" ">
<path fill="none" stroke="#63b8ff" d="M321.07,-159.42C336.5,-149.81 356.45,-137.37 369.59,-129.17"/>
<polygon fill="#63b8ff" stroke="#63b8ff" points="318.79,-156.72 312.16,-164.98 322.49,-162.66 318.79,-156.72"/>
</a>
</g>
</g>
<!-- Node8&#45;&gt;Node2 -->
<g id="edge9_Node000008_Node000002" class="edge">
<title>Node8&#45;&gt;Node2</title>
<g id="a_edge9_Node000008_Node000002"><a xlink:title=" ">
<path fill="none" stroke="#63b8ff" d="M335.44,-107.75C291.03,-97.82 225.9,-83.26 184.88,-74.08"/>
<polygon fill="#63b8ff" stroke="#63b8ff" points="334.9,-111.22 345.42,-109.98 336.43,-104.39 334.9,-111.22"/>
</a>
</g>
</g>
<!-- Node9 -->
<g id="Node000009" class="node">
<title>Node9</title>
<g id="a_Node000009"><a xlink:href="ConsoleRenderer_8cpp.html" target="_top" xlink:title="Implementation of console&#45;based game rendering with ASCII/Unicode support.">
<polygon fill="white" stroke="#666666" points="456.5,-74 310.5,-74 310.5,-55 456.5,-55 456.5,-74"/>
<text text-anchor="middle" x="383.5" y="-62" font-family="Helvetica,sans-Serif" font-size="10.00">view/ConsoleRenderer.cpp</text>
</a>
</g>
</g>
<!-- Node8&#45;&gt;Node9 -->
<g id="edge10_Node000008_Node000009" class="edge">
<title>Node8&#45;&gt;Node9</title>
<g id="a_edge10_Node000008_Node000009"><a xlink:title=" ">
<path fill="none" stroke="#63b8ff" d="M383.5,-99.66C383.5,-90.93 383.5,-80.99 383.5,-74.09"/>
<polygon fill="#63b8ff" stroke="#63b8ff" points="380,-99.75 383.5,-109.75 387,-99.75 380,-99.75"/>
</a>
</g>
</g>
</g>
</svg>
