<?xml version="1.0" encoding="UTF-8" standalone="no"?>
<!DOCTYPE svg PUBLIC "-//W3C//DTD SVG 1.1//EN"
 "http://www.w3.org/Graphics/SVG/1.1/DTD/svg11.dtd">
<!-- Generated by graphviz version 2.43.0 (0)
 -->
<!-- Title: model/GameWorld.cpp Pages: 1 -->
<svg width="829pt" height="302pt"
 viewBox="0.00 0.00 829.00 302.00" xmlns="http://www.w3.org/2000/svg" xmlns:xlink="http://www.w3.org/1999/xlink">
<g id="graph0" class="graph" transform="scale(1 1) rotate(0) translate(4 298)">
<title>model/GameWorld.cpp</title>
<!-- Node1 -->
<g id="Node000001" class="node">
<title>Node1</title>
<g id="a_Node000001"><a xlink:title="Core game simulation with object management, collisions, and level generation.">
<polygon fill="#999999" stroke="#666666" points="623,-294 495,-294 495,-275 623,-275 623,-294"/>
<text text-anchor="middle" x="559" y="-282" font-family="Helvetica,sans-Serif" font-size="10.00">model/GameWorld.cpp</text>
</a>
</g>
</g>
<!-- Node2 -->
<g id="Node000002" class="node">
<title>Node2</title>
<g id="a_Node000002"><a xlink:href="GameWorld_8h.html" target="_top" xlink:title="Main game world manager handling objects, collisions, states, and game logic.">
<polygon fill="white" stroke="#666666" points="410.5,-239 327.5,-239 327.5,-220 410.5,-220 410.5,-239"/>
<text text-anchor="middle" x="369" y="-227" font-family="Helvetica,sans-Serif" font-size="10.00">GameWorld.h</text>
</a>
</g>
</g>
<!-- Node1&#45;&gt;Node2 -->
<g id="edge1_Node000001_Node000002" class="edge">
<title>Node1&#45;&gt;Node2</title>
<g id="a_edge1_Node000001_Node000002"><a xlink:title=" ">
<path fill="none" stroke="#63b8ff" d="M528.47,-274.98C496.3,-266.01 445.44,-251.82 409.83,-241.89"/>
<polygon fill="#63b8ff" stroke="#63b8ff" points="410.34,-238.4 399.77,-239.08 408.46,-245.14 410.34,-238.4"/>
</a>
</g>
</g>
<!-- Node3 -->
<g id="Node000003" class="node">
<title>Node3</title>
<g id="a_Node000003"><a xlink:title=" ">
<polygon fill="#e0e0e0" stroke="#999999" points="61.5,-19 14.5,-19 14.5,0 61.5,0 61.5,-19"/>
<text text-anchor="middle" x="38" y="-7" font-family="Helvetica,sans-Serif" font-size="10.00">vector</text>
</a>
</g>
</g>
<!-- Node1&#45;&gt;Node3 -->
<g id="edge26_Node000001_Node000003" class="edge">
<title>Node1&#45;&gt;Node3</title>
<g id="a_edge26_Node000001_Node000003"><a xlink:title=" ">
<path fill="none" stroke="#63b8ff" d="M494.88,-284.44C348.04,-284.86 0,-275.33 0,-175.5 0,-175.5 0,-175.5 0,-118.5 0,-85.02 16.45,-48.84 27.7,-28.01"/>
<polygon fill="#63b8ff" stroke="#63b8ff" points="30.87,-29.53 32.72,-19.1 24.76,-26.1 30.87,-29.53"/>
</a>
</g>
</g>
<!-- Node4 -->
<g id="Node000004" class="node">
<title>Node4</title>
<g id="a_Node000004"><a xlink:title=" ">
<polygon fill="#e0e0e0" stroke="#999999" points="512,-184 454,-184 454,-165 512,-165 512,-184"/>
<text text-anchor="middle" x="483" y="-172" font-family="Helvetica,sans-Serif" font-size="10.00">memory</text>
</a>
</g>
</g>
<!-- Node1&#45;&gt;Node4 -->
<g id="edge27_Node000001_Node000004" class="edge">
<title>Node1&#45;&gt;Node4</title>
<g id="a_edge27_Node000001_Node000004"><a xlink:title=" ">
<path fill="none" stroke="#63b8ff" d="M552.78,-274.66C540.14,-256.69 511.25,-215.64 494.88,-192.38"/>
<polygon fill="#63b8ff" stroke="#63b8ff" points="497.71,-190.32 489.09,-184.16 491.99,-194.35 497.71,-190.32"/>
</a>
</g>
</g>
<!-- Node5 -->
<g id="Node000005" class="node">
<title>Node5</title>
<g id="a_Node000005"><a xlink:title=" ">
<polygon fill="#e0e0e0" stroke="#999999" points="594,-184 530,-184 530,-165 594,-165 594,-184"/>
<text text-anchor="middle" x="562" y="-172" font-family="Helvetica,sans-Serif" font-size="10.00">algorithm</text>
</a>
</g>
</g>
<!-- Node1&#45;&gt;Node5 -->
<g id="edge28_Node000001_Node000005" class="edge">
<title>Node1&#45;&gt;Node5</title>
<g id="a_edge28_Node000001_Node000005"><a xlink:title=" ">
<path fill="none" stroke="#63b8ff" d="M554.88,-274.91C549.55,-262.74 541.35,-239.76 545,-220 546.67,-210.95 550.1,-201.36 553.44,-193.41"/>
<polygon fill="#63b8ff" stroke="#63b8ff" points="556.73,-194.65 557.63,-184.09 550.34,-191.78 556.73,-194.65"/>
</a>
</g>
</g>
<!-- Node6 -->
<g id="Node000006" class="node">
<title>Node6</title>
<g id="a_Node000006"><a xlink:title=" ">
<polygon fill="#e0e0e0" stroke="#999999" points="666,-184 612,-184 612,-165 666,-165 666,-184"/>
<text text-anchor="middle" x="639" y="-172" font-family="Helvetica,sans-Serif" font-size="10.00">random</text>
</a>
</g>
</g>
<!-- Node1&#45;&gt;Node6 -->
<g id="edge29_Node000001_Node000006" class="edge">
<title>Node1&#45;&gt;Node6</title>
<g id="a_edge29_Node000001_Node000006"><a xlink:title=" ">
<path fill="none" stroke="#63b8ff" d="M559.99,-274.94C561.84,-262 566.8,-237.13 579,-220 587.93,-207.46 601.49,-196.98 613.45,-189.34"/>
<polygon fill="#63b8ff" stroke="#63b8ff" points="615.44,-192.24 622.19,-184.07 611.82,-186.24 615.44,-192.24"/>
</a>
</g>
</g>
<!-- Node16 -->
<g id="Node000016" class="node">
<title>Node16</title>
<g id="a_Node000016"><a xlink:title=" ">
<polygon fill="#e0e0e0" stroke="#999999" points="636.5,-239 587.5,-239 587.5,-220 636.5,-220 636.5,-239"/>
<text text-anchor="middle" x="612" y="-227" font-family="Helvetica,sans-Serif" font-size="10.00">cstdlib</text>
</a>
</g>
</g>
<!-- Node1&#45;&gt;Node16 -->
<g id="edge24_Node000001_Node000016" class="edge">
<title>Node1&#45;&gt;Node16</title>
<g id="a_edge24_Node000001_Node000016"><a xlink:title=" ">
<path fill="none" stroke="#63b8ff" d="M567.75,-274.75C575.47,-267.03 586.9,-255.6 596.22,-246.28"/>
<polygon fill="#63b8ff" stroke="#63b8ff" points="598.81,-248.64 603.41,-239.09 593.86,-243.69 598.81,-248.64"/>
</a>
</g>
</g>
<!-- Node17 -->
<g id="Node000017" class="node">
<title>Node17</title>
<g id="a_Node000017"><a xlink:title=" ">
<polygon fill="#e0e0e0" stroke="#999999" points="699,-239 655,-239 655,-220 699,-220 699,-239"/>
<text text-anchor="middle" x="677" y="-227" font-family="Helvetica,sans-Serif" font-size="10.00">ctime</text>
</a>
</g>
</g>
<!-- Node1&#45;&gt;Node17 -->
<g id="edge25_Node000001_Node000017" class="edge">
<title>Node1&#45;&gt;Node17</title>
<g id="a_edge25_Node000001_Node000017"><a xlink:title=" ">
<path fill="none" stroke="#63b8ff" d="M577.96,-274.98C597.03,-266.42 626.66,-253.11 648.55,-243.28"/>
<polygon fill="#63b8ff" stroke="#63b8ff" points="650.01,-246.46 657.7,-239.17 647.14,-240.07 650.01,-246.46"/>
</a>
</g>
</g>
<!-- Node18 -->
<g id="Node000018" class="node">
<title>Node18</title>
<g id="a_Node000018"><a xlink:title=" ">
<polygon fill="#e0e0e0" stroke="#999999" points="764.5,-239 717.5,-239 717.5,-220 764.5,-220 764.5,-239"/>
<text text-anchor="middle" x="741" y="-227" font-family="Helvetica,sans-Serif" font-size="10.00">cmath</text>
</a>
</g>
</g>
<!-- Node1&#45;&gt;Node18 -->
<g id="edge30_Node000001_Node000018" class="edge">
<title>Node1&#45;&gt;Node18</title>
<g id="a_edge30_Node000001_Node000018"><a xlink:title=" ">
<path fill="none" stroke="#63b8ff" d="M588.24,-274.98C620.75,-265.52 673.17,-250.25 707.36,-240.3"/>
<polygon fill="#63b8ff" stroke="#63b8ff" points="708.72,-243.55 717.34,-237.39 706.76,-236.83 708.72,-243.55"/>
</a>
</g>
</g>
<!-- Node19 -->
<g id="Node000019" class="node">
<title>Node19</title>
<g id="a_Node000019"><a xlink:title=" ">
<polygon fill="#e0e0e0" stroke="#999999" points="821,-239 783,-239 783,-220 821,-220 821,-239"/>
<text text-anchor="middle" x="802" y="-227" font-family="Helvetica,sans-Serif" font-size="10.00">map</text>
</a>
</g>
</g>
<!-- Node1&#45;&gt;Node19 -->
<g id="edge31_Node000001_Node000019" class="edge">
<title>Node1&#45;&gt;Node19</title>
<g id="a_edge31_Node000001_Node000019"><a xlink:title=" ">
<path fill="none" stroke="#63b8ff" d="M606.26,-275C647.78,-267.24 710.03,-254.91 772.72,-239.14"/>
<polygon fill="#63b8ff" stroke="#63b8ff" points="773.96,-242.44 782.78,-236.58 772.23,-235.66 773.96,-242.44"/>
</a>
</g>
</g>
<!-- Node2&#45;&gt;Node3 -->
<g id="edge2_Node000002_Node000003" class="edge">
<title>Node2&#45;&gt;Node3</title>
<g id="a_edge2_Node000002_Node000003"><a xlink:title=" ">
<path fill="none" stroke="#63b8ff" d="M327.44,-227.49C256.95,-224.91 118.16,-215.83 83,-184 38.45,-143.67 35.51,-65.47 36.75,-29.47"/>
<polygon fill="#63b8ff" stroke="#63b8ff" points="40.25,-29.53 37.25,-19.37 33.26,-29.18 40.25,-29.53"/>
</a>
</g>
</g>
<!-- Node2&#45;&gt;Node4 -->
<g id="edge3_Node000002_Node000004" class="edge">
<title>Node2&#45;&gt;Node4</title>
<g id="a_edge3_Node000002_Node000004"><a xlink:title=" ">
<path fill="none" stroke="#63b8ff" d="M387.32,-219.98C405.66,-211.46 434.11,-198.23 455.23,-188.41"/>
<polygon fill="#63b8ff" stroke="#63b8ff" points="456.76,-191.56 464.35,-184.17 453.81,-185.21 456.76,-191.56"/>
</a>
</g>
</g>
<!-- Node2&#45;&gt;Node5 -->
<g id="edge4_Node000002_Node000005" class="edge">
<title>Node2&#45;&gt;Node5</title>
<g id="a_edge4_Node000002_Node000005"><a xlink:title=" ">
<path fill="none" stroke="#63b8ff" d="M400.01,-219.98C432.83,-210.97 484.8,-196.7 520.99,-186.76"/>
<polygon fill="#63b8ff" stroke="#63b8ff" points="522.03,-190.11 530.75,-184.08 520.18,-183.36 522.03,-190.11"/>
</a>
</g>
</g>
<!-- Node2&#45;&gt;Node6 -->
<g id="edge5_Node000002_Node000006" class="edge">
<title>Node2&#45;&gt;Node6</title>
<g id="a_edge5_Node000002_Node000006"><a xlink:title=" ">
<path fill="none" stroke="#63b8ff" d="M410.53,-221.17C455.39,-213.13 529.18,-199.53 602.09,-184.12"/>
<polygon fill="#63b8ff" stroke="#63b8ff" points="602.85,-187.54 611.9,-182.03 601.39,-180.69 602.85,-187.54"/>
</a>
</g>
</g>
<!-- Node7 -->
<g id="Node000007" class="node">
<title>Node7</title>
<g id="a_Node000007"><a xlink:href="GameObject_8h.html" target="_top" xlink:title="Base class and structures for all game objects with position, direction, and health.">
<polygon fill="white" stroke="#666666" points="365,-19 279,-19 279,0 365,0 365,-19"/>
<text text-anchor="middle" x="322" y="-7" font-family="Helvetica,sans-Serif" font-size="10.00">GameObject.h</text>
</a>
</g>
</g>
<!-- Node2&#45;&gt;Node7 -->
<g id="edge6_Node000002_Node000007" class="edge">
<title>Node2&#45;&gt;Node7</title>
<g id="a_edge6_Node000002_Node000007"><a xlink:title=" ">
<path fill="none" stroke="#63b8ff" d="M367.16,-219.95C360.24,-187.88 335.73,-74.2 326.01,-29.12"/>
<polygon fill="#63b8ff" stroke="#63b8ff" points="329.41,-28.26 323.88,-19.22 322.57,-29.74 329.41,-28.26"/>
</a>
</g>
</g>
<!-- Node8 -->
<g id="Node000008" class="node">
<title>Node8</title>
<g id="a_Node000008"><a xlink:href="PlayerTank_8h.html" target="_top" xlink:title="Player&#45;controlled tank with lives, score system, and special abilities.">
<polygon fill="white" stroke="#666666" points="283.5,-184 204.5,-184 204.5,-165 283.5,-165 283.5,-184"/>
<text text-anchor="middle" x="244" y="-172" font-family="Helvetica,sans-Serif" font-size="10.00">PlayerTank.h</text>
</a>
</g>
</g>
<!-- Node2&#45;&gt;Node8 -->
<g id="edge7_Node000002_Node000008" class="edge">
<title>Node2&#45;&gt;Node8</title>
<g id="a_edge7_Node000002_Node000008"><a xlink:title=" ">
<path fill="none" stroke="#63b8ff" d="M348.92,-219.98C328.63,-211.38 297.04,-197.99 273.83,-188.15"/>
<polygon fill="#63b8ff" stroke="#63b8ff" points="275.02,-184.85 264.45,-184.17 272.29,-191.3 275.02,-184.85"/>
</a>
</g>
</g>
<!-- Node10 -->
<g id="Node000010" class="node">
<title>Node10</title>
<g id="a_Node000010"><a xlink:href="Projectile_8h.html" target="_top" xlink:title="Projectile class for bullets fired by tanks with collision detection.">
<polygon fill="white" stroke="#666666" points="173.5,-74 102.5,-74 102.5,-55 173.5,-55 173.5,-74"/>
<text text-anchor="middle" x="138" y="-62" font-family="Helvetica,sans-Serif" font-size="10.00">Projectile.h</text>
</a>
</g>
</g>
<!-- Node2&#45;&gt;Node10 -->
<g id="edge21_Node000002_Node000010" class="edge">
<title>Node2&#45;&gt;Node10</title>
<g id="a_edge21_Node000002_Node000010"><a xlink:title=" ">
<path fill="none" stroke="#63b8ff" d="M327.49,-228.05C258.36,-226.33 124.35,-218.5 95,-184 69.25,-153.73 101.67,-106.78 122.69,-82.04"/>
<polygon fill="#63b8ff" stroke="#63b8ff" points="125.54,-84.1 129.53,-74.28 120.29,-79.47 125.54,-84.1"/>
</a>
</g>
</g>
<!-- Node11 -->
<g id="Node000011" class="node">
<title>Node11</title>
<g id="a_Node000011"><a xlink:href="Bonus_8h.html" target="_top" xlink:title="Power&#45;up bonuses with various effects for enhancing player abilities.">
<polygon fill="white" stroke="#666666" points="322,-74 266,-74 266,-55 322,-55 322,-74"/>
<text text-anchor="middle" x="294" y="-62" font-family="Helvetica,sans-Serif" font-size="10.00">Bonus.h</text>
</a>
</g>
</g>
<!-- Node2&#45;&gt;Node11 -->
<g id="edge20_Node000002_Node000011" class="edge">
<title>Node2&#45;&gt;Node11</title>
<g id="a_edge20_Node000002_Node000011"><a xlink:title=" ">
<path fill="none" stroke="#63b8ff" d="M361.34,-219.83C354.04,-211.22 343.14,-197.41 336,-184 318.2,-150.57 305.23,-108.02 298.73,-84.07"/>
<polygon fill="#63b8ff" stroke="#63b8ff" points="302.06,-82.98 296.13,-74.2 295.29,-84.76 302.06,-82.98"/>
</a>
</g>
</g>
<!-- Node12 -->
<g id="Node000012" class="node">
<title>Node12</title>
<g id="a_Node000012"><a xlink:href="EnemyTank_8h.html" target="_top" xlink:title="AI&#45;controlled enemy tanks with various behaviors, types, and difficulty levels.">
<polygon fill="white" stroke="#666666" points="186,-184 104,-184 104,-165 186,-165 186,-184"/>
<text text-anchor="middle" x="145" y="-172" font-family="Helvetica,sans-Serif" font-size="10.00">EnemyTank.h</text>
</a>
</g>
</g>
<!-- Node2&#45;&gt;Node12 -->
<g id="edge15_Node000002_Node000012" class="edge">
<title>Node2&#45;&gt;Node12</title>
<g id="a_edge15_Node000002_Node000012"><a xlink:title=" ">
<path fill="none" stroke="#63b8ff" d="M333.01,-219.98C294.51,-210.87 233.31,-196.4 191.26,-186.45"/>
<polygon fill="#63b8ff" stroke="#63b8ff" points="191.81,-182.98 181.27,-184.08 190.2,-189.79 191.81,-182.98"/>
</a>
</g>
</g>
<!-- Node14 -->
<g id="Node000014" class="node">
<title>Node14</title>
<g id="a_Node000014"><a xlink:href="Obstacle_8h.html" target="_top" xlink:title="Environmental obstacles including walls, water, forests, and their properties.">
<polygon fill="white" stroke="#666666" points="446,-129 378,-129 378,-110 446,-110 446,-129"/>
<text text-anchor="middle" x="412" y="-117" font-family="Helvetica,sans-Serif" font-size="10.00">Obstacle.h</text>
</a>
</g>
</g>
<!-- Node2&#45;&gt;Node14 -->
<g id="edge18_Node000002_Node000014" class="edge">
<title>Node2&#45;&gt;Node14</title>
<g id="a_edge18_Node000002_Node000014"><a xlink:title=" ">
<path fill="none" stroke="#63b8ff" d="M372.52,-219.66C379.55,-202.01 395.44,-162.09 404.78,-138.64"/>
<polygon fill="#63b8ff" stroke="#63b8ff" points="408.11,-139.74 408.55,-129.16 401.6,-137.15 408.11,-139.74"/>
</a>
</g>
</g>
<!-- Node15 -->
<g id="Node000015" class="node">
<title>Node15</title>
<g id="a_Node000015"><a xlink:href="Explosion_8h.html" target="_top" xlink:title="Visual explosion effects for game events like tank destruction.">
<polygon fill="white" stroke="#666666" points="504.5,-74 431.5,-74 431.5,-55 504.5,-55 504.5,-74"/>
<text text-anchor="middle" x="468" y="-62" font-family="Helvetica,sans-Serif" font-size="10.00">Explosion.h</text>
</a>
</g>
</g>
<!-- Node2&#45;&gt;Node15 -->
<g id="edge22_Node000002_Node000015" class="edge">
<title>Node2&#45;&gt;Node15</title>
<g id="a_edge22_Node000002_Node000015"><a xlink:title=" ">
<path fill="none" stroke="#63b8ff" d="M379.38,-219.83C397.75,-203.88 435.84,-167.92 455,-129 461.92,-114.94 465.16,-97.4 466.67,-84.31"/>
<polygon fill="#63b8ff" stroke="#63b8ff" points="470.17,-84.44 467.61,-74.16 463.2,-83.8 470.17,-84.44"/>
</a>
</g>
</g>
<!-- Node9 -->
<g id="Node000009" class="node">
<title>Node9</title>
<g id="a_Node000009"><a xlink:href="Tank_8h.html" target="_top" xlink:title="Abstract tank base class with shooting, bonuses, and combat mechanics.">
<polygon fill="white" stroke="#666666" points="262,-129 214,-129 214,-110 262,-110 262,-129"/>
<text text-anchor="middle" x="238" y="-117" font-family="Helvetica,sans-Serif" font-size="10.00">Tank.h</text>
</a>
</g>
</g>
<!-- Node8&#45;&gt;Node9 -->
<g id="edge8_Node000008_Node000009" class="edge">
<title>Node8&#45;&gt;Node9</title>
<g id="a_edge8_Node000008_Node000009"><a xlink:title=" ">
<path fill="none" stroke="#63b8ff" d="M243.01,-164.75C242.22,-157.8 241.1,-147.85 240.11,-139.13"/>
<polygon fill="#63b8ff" stroke="#63b8ff" points="243.58,-138.63 238.97,-129.09 236.62,-139.42 243.58,-138.63"/>
</a>
</g>
</g>
<!-- Node9&#45;&gt;Node7 -->
<g id="edge9_Node000009_Node000007" class="edge">
<title>Node9&#45;&gt;Node7</title>
<g id="a_edge9_Node000009_Node000007"><a xlink:title=" ">
<path fill="none" stroke="#63b8ff" d="M238.75,-109.89C240.26,-96.87 244.65,-71.92 257,-55 266.54,-41.93 281.14,-31.44 294.09,-23.93"/>
<polygon fill="#63b8ff" stroke="#63b8ff" points="296.03,-26.86 303.13,-19 292.68,-20.72 296.03,-26.86"/>
</a>
</g>
</g>
<!-- Node9&#45;&gt;Node10 -->
<g id="edge10_Node000009_Node000010" class="edge">
<title>Node9&#45;&gt;Node10</title>
<g id="a_edge10_Node000009_Node000010"><a xlink:title=" ">
<path fill="none" stroke="#63b8ff" d="M221.93,-109.98C206.14,-101.61 181.78,-88.7 163.37,-78.95"/>
<polygon fill="#63b8ff" stroke="#63b8ff" points="164.83,-75.76 154.36,-74.17 161.56,-81.95 164.83,-75.76"/>
</a>
</g>
</g>
<!-- Node9&#45;&gt;Node11 -->
<g id="edge13_Node000009_Node000011" class="edge">
<title>Node9&#45;&gt;Node11</title>
<g id="a_edge13_Node000009_Node000011"><a xlink:title=" ">
<path fill="none" stroke="#63b8ff" d="M247,-109.98C255.19,-102.23 267.51,-90.58 277.47,-81.14"/>
<polygon fill="#63b8ff" stroke="#63b8ff" points="279.98,-83.59 284.84,-74.17 275.17,-78.5 279.98,-83.59"/>
</a>
</g>
</g>
<!-- Node10&#45;&gt;Node3 -->
<g id="edge12_Node000010_Node000003" class="edge">
<title>Node10&#45;&gt;Node3</title>
<g id="a_edge12_Node000010_Node000003"><a xlink:title=" ">
<path fill="none" stroke="#63b8ff" d="M121.93,-54.98C106.14,-46.61 81.78,-33.7 63.37,-23.95"/>
<polygon fill="#63b8ff" stroke="#63b8ff" points="64.83,-20.76 54.36,-19.17 61.56,-26.95 64.83,-20.76"/>
</a>
</g>
</g>
<!-- Node10&#45;&gt;Node7 -->
<g id="edge11_Node000010_Node000007" class="edge">
<title>Node10&#45;&gt;Node7</title>
<g id="a_edge11_Node000010_Node000007"><a xlink:title=" ">
<path fill="none" stroke="#63b8ff" d="M167.56,-54.98C198.72,-46.01 247.97,-31.82 282.46,-21.89"/>
<polygon fill="#63b8ff" stroke="#63b8ff" points="283.57,-25.21 292.21,-19.08 281.63,-18.49 283.57,-25.21"/>
</a>
</g>
</g>
<!-- Node11&#45;&gt;Node7 -->
<g id="edge14_Node000011_Node000007" class="edge">
<title>Node11&#45;&gt;Node7</title>
<g id="a_edge14_Node000011_Node000007"><a xlink:title=" ">
<path fill="none" stroke="#63b8ff" d="M298.62,-54.75C302.46,-47.49 308.02,-36.95 312.76,-27.98"/>
<polygon fill="#63b8ff" stroke="#63b8ff" points="315.89,-29.57 317.46,-19.09 309.7,-26.3 315.89,-29.57"/>
</a>
</g>
</g>
<!-- Node12&#45;&gt;Node9 -->
<g id="edge16_Node000012_Node000009" class="edge">
<title>Node12&#45;&gt;Node9</title>
<g id="a_edge16_Node000012_Node000009"><a xlink:title=" ">
<path fill="none" stroke="#63b8ff" d="M159.94,-164.98C174.5,-156.69 196.87,-143.94 213.93,-134.22"/>
<polygon fill="#63b8ff" stroke="#63b8ff" points="215.83,-137.16 222.79,-129.17 212.36,-131.08 215.83,-137.16"/>
</a>
</g>
</g>
<!-- Node13 -->
<g id="Node000013" class="node">
<title>Node13</title>
<g id="a_Node000013"><a xlink:title=" ">
<polygon fill="#e0e0e0" stroke="#999999" points="171.5,-129 118.5,-129 118.5,-110 171.5,-110 171.5,-129"/>
<text text-anchor="middle" x="145" y="-117" font-family="Helvetica,sans-Serif" font-size="10.00">stdlib.h</text>
</a>
</g>
</g>
<!-- Node12&#45;&gt;Node13 -->
<g id="edge17_Node000012_Node000013" class="edge">
<title>Node12&#45;&gt;Node13</title>
<g id="a_edge17_Node000012_Node000013"><a xlink:title=" ">
<path fill="none" stroke="#63b8ff" d="M145,-164.75C145,-157.8 145,-147.85 145,-139.13"/>
<polygon fill="#63b8ff" stroke="#63b8ff" points="148.5,-139.09 145,-129.09 141.5,-139.09 148.5,-139.09"/>
</a>
</g>
</g>
<!-- Node14&#45;&gt;Node7 -->
<g id="edge19_Node000014_Node000007" class="edge">
<title>Node14&#45;&gt;Node7</title>
<g id="a_edge19_Node000014_Node000007"><a xlink:title=" ">
<path fill="none" stroke="#63b8ff" d="M405.77,-109.64C396.88,-97.15 379.88,-73.78 364,-55 355.68,-45.16 345.82,-34.66 337.75,-26.33"/>
<polygon fill="#63b8ff" stroke="#63b8ff" points="340.16,-23.79 330.66,-19.1 335.16,-28.7 340.16,-23.79"/>
</a>
</g>
</g>
<!-- Node15&#45;&gt;Node7 -->
<g id="edge23_Node000015_Node000007" class="edge">
<title>Node15&#45;&gt;Node7</title>
<g id="a_edge23_Node000015_Node000007"><a xlink:title=" ">
<path fill="none" stroke="#63b8ff" d="M444.54,-54.98C420.42,-46.23 382.63,-32.51 355.4,-22.62"/>
<polygon fill="#63b8ff" stroke="#63b8ff" points="356.48,-19.29 345.88,-19.17 354.09,-25.87 356.48,-19.29"/>
</a>
</g>
</g>
</g>
</svg>
