<?xml version="1.0" encoding="UTF-8" standalone="no"?>
<!DOCTYPE svg PUBLIC "-//W3C//DTD SVG 1.1//EN"
 "http://www.w3.org/Graphics/SVG/1.1/DTD/svg11.dtd">
<!-- Generated by graphviz version 2.43.0 (0)
 -->
<!-- Title: src/controller/GameController.cpp Pages: 1 -->
<!--zoomable 467 -->

<svg id="main" version="1.1" xmlns="http://www.w3.org/2000/svg" xmlns:xlink="http://www.w3.org/1999/xlink" xml:space="preserve" onload="init(evt)">
<style type="text/css"><![CDATA[
.node, .edge {opacity: 0.7;}
.node.selected, .edge.selected {opacity: 1;}
.edge:hover path { stroke: red; }
.edge:hover polygon { stroke: red; fill: red; }
]]></style>

<defs>
  <circle id="rim" cx="0" cy="0" r="7"/>
  <circle id="rim2" cx="0" cy="0" r="3.5"/>
  <g id="zoomPlus">
    <use xlink:href="#rim" fill="#404040"><set attributeName="fill" to="#808080" begin="zoomplus.mouseover" end="zoomplus.mouseout"/></use>
    <path d="M-4,0h8M0,-4v8" fill="none" stroke="white" stroke-width="1.5" pointer-events="none"/>
  </g>
  <g id="zoomMin">
    <use xlink:href="#rim" fill="#404040"><set attributeName="fill" to="#808080" begin="zoomminus.mouseover" end="zoomminus.mouseout"/></use>
    <path d="M-4,0h8" fill="none" stroke="white" stroke-width="1.5" pointer-events="none"/>
  </g>
  <g id="arrowUp" transform="translate(30 24)">
    <use xlink:href="#rim"/>
    <path pointer-events="none" fill="none" stroke="white" stroke-width="1.5" d="M0,-3.0v7 M-2.5,-0.5L0,-3.0L2.5,-0.5"/>
  </g>
  <g id="arrowRight" transform="rotate(90) translate(36 -43)">
    <use xlink:href="#rim"/>
    <path pointer-events="none" fill="none" stroke="white" stroke-width="1.5" d="M0,-3.0v7 M-2.5,-0.5L0,-3.0L2.5,-0.5"/>
  </g>
  <g id="arrowDown" transform="rotate(180) translate(-30 -48)">
    <use xlink:href="#rim"/>
    <path pointer-events="none" fill="none" stroke="white" stroke-width="1.5" d="M0,-3.0v7 M-2.5,-0.5L0,-3.0L2.5,-0.5"/>
  </g>
  <g id="arrowLeft" transform="rotate(270) translate(-36 17)">
    <use xlink:href="#rim"/>
    <path pointer-events="none" fill="none" stroke="white" stroke-width="1.5" d="M0,-3.0v7 M-2.5,-0.5L0,-3.0L2.5,-0.5"/>
  </g>
  <g id="resetDef">
    <use xlink:href="#rim2" fill="#404040"><set attributeName="fill" to="#808080" begin="reset.mouseover" end="reset.mouseout"/></use>
  </g>
</defs>
<script type="application/ecmascript">
var viewWidth = 1442;
var viewHeight = 467;
var sectionId = 'dynsection-0';
</script>
<script type="application/ecmascript" xlink:href="svg.min.js"/>
<svg id="graph" class="graph">
<g id="viewport">
<title>src/controller/GameController.cpp</title>
<!-- Node1 -->
<g id="Node000001" class="node">
<title>Node1</title>
<g id="a_Node000001"><a xlink:title="Implementation of main game controller and game loop logic.">
<polygon fill="#999999" stroke="#666666" points="1327,-459 1147,-459 1147,-440 1327,-440 1327,-459"/>
<text text-anchor="middle" x="1237" y="-447" font-family="Helvetica,sans-Serif" font-size="10.00">src/controller/GameController.cpp</text>
</a>
</g>
</g>
<!-- Node2 -->
<g id="Node000002" class="node">
<title>Node2</title>
<g id="a_Node000002"><a xlink:href="GameController_8h.html" target="_top" xlink:title="Central game controller coordinating model, view, and input systems.">
<polygon fill="white" stroke="#666666" points="1034,-404 932,-404 932,-385 1034,-385 1034,-404"/>
<text text-anchor="middle" x="983" y="-392" font-family="Helvetica,sans-Serif" font-size="10.00">GameController.h</text>
</a>
</g>
</g>
<!-- Node1&#45;&gt;Node2 -->
<g id="edge1_Node000001_Node000002" class="edge">
<title>Node1&#45;&gt;Node2</title>
<g id="a_edge1_Node000001_Node000002"><a xlink:title=" ">
<path fill="none" stroke="#63b8ff" d="M1196.19,-439.98C1152.07,-430.78 1081.67,-416.09 1033.95,-406.13"/>
<polygon fill="#63b8ff" stroke="#63b8ff" points="1034.63,-402.7 1024.13,-404.08 1033.2,-409.55 1034.63,-402.7"/>
</a>
</g>
</g>
<!-- Node31 -->
<g id="Node000031" class="node">
<title>Node31</title>
<g id="a_Node000031"><a xlink:title=" ">
<polygon fill="#e0e0e0" stroke="#999999" points="1434,-349 1390,-349 1390,-330 1434,-330 1434,-349"/>
<text text-anchor="middle" x="1412" y="-337" font-family="Helvetica,sans-Serif" font-size="10.00">ctime</text>
</a>
</g>
</g>
<!-- Node1&#45;&gt;Node31 -->
<g id="edge61_Node000001_Node000031" class="edge">
<title>Node1&#45;&gt;Node31</title>
<g id="a_edge61_Node000001_Node000031"><a xlink:title=" ">
<path fill="none" stroke="#63b8ff" d="M1237.09,-439.79C1237.71,-426.17 1240.93,-399.88 1256,-385 1260.51,-380.55 1335.79,-360.36 1380.09,-348.76"/>
<polygon fill="#63b8ff" stroke="#63b8ff" points="1381.04,-352.13 1389.84,-346.22 1379.28,-345.36 1381.04,-352.13"/>
</a>
</g>
</g>
<!-- Node32 -->
<g id="Node000032" class="node">
<title>Node32</title>
<g id="a_Node000032"><a xlink:title=" ">
<polygon fill="#e0e0e0" stroke="#999999" points="1313,-404 1265,-404 1265,-385 1313,-385 1313,-404"/>
<text text-anchor="middle" x="1289" y="-392" font-family="Helvetica,sans-Serif" font-size="10.00">thread</text>
</a>
</g>
</g>
<!-- Node1&#45;&gt;Node32 -->
<g id="edge62_Node000001_Node000032" class="edge">
<title>Node1&#45;&gt;Node32</title>
<g id="a_edge62_Node000001_Node000032"><a xlink:title=" ">
<path fill="none" stroke="#63b8ff" d="M1245.59,-439.75C1253.16,-432.03 1264.38,-420.6 1273.51,-411.28"/>
<polygon fill="#63b8ff" stroke="#63b8ff" points="1276.07,-413.68 1280.57,-404.09 1271.07,-408.78 1276.07,-413.68"/>
</a>
</g>
</g>
<!-- Node3 -->
<g id="Node000003" class="node">
<title>Node3</title>
<g id="a_Node000003"><a xlink:href="InputHandler_8h.html" target="_top" xlink:title="Handles user input and maps keystrokes to game commands.">
<polygon fill="white" stroke="#666666" points="1334,-349 1188,-349 1188,-330 1334,-330 1334,-349"/>
<text text-anchor="middle" x="1261" y="-337" font-family="Helvetica,sans-Serif" font-size="10.00">../controller/InputHandler.h</text>
</a>
</g>
</g>
<!-- Node2&#45;&gt;Node3 -->
<g id="edge2_Node000002_Node000003" class="edge">
<title>Node2&#45;&gt;Node3</title>
<g id="a_edge2_Node000002_Node000003"><a xlink:title=" ">
<path fill="none" stroke="#63b8ff" d="M1027.67,-384.98C1076.16,-375.74 1153.65,-360.97 1205.89,-351.01"/>
<polygon fill="#63b8ff" stroke="#63b8ff" points="1206.82,-354.39 1215.98,-349.08 1205.51,-347.52 1206.82,-354.39"/>
</a>
</g>
</g>
<!-- Node5 -->
<g id="Node000005" class="node">
<title>Node5</title>
<g id="a_Node000005"><a xlink:title=" ">
<polygon fill="#e0e0e0" stroke="#999999" points="1040,-239 996,-239 996,-220 1040,-220 1040,-239"/>
<text text-anchor="middle" x="1018" y="-227" font-family="Helvetica,sans-Serif" font-size="10.00">string</text>
</a>
</g>
</g>
<!-- Node2&#45;&gt;Node5 -->
<g id="edge59_Node000002_Node000005" class="edge">
<title>Node2&#45;&gt;Node5</title>
<g id="a_edge59_Node000002_Node000005"><a xlink:title=" ">
<path fill="none" stroke="#63b8ff" d="M984.88,-384.74C990.37,-359.2 1006.42,-284.43 1013.98,-249.23"/>
<polygon fill="#63b8ff" stroke="#63b8ff" points="1017.43,-249.82 1016.11,-239.31 1010.59,-248.35 1017.43,-249.82"/>
</a>
</g>
</g>
<!-- Node10 -->
<g id="Node000010" class="node">
<title>Node10</title>
<g id="a_Node000010"><a xlink:title=" ">
<polygon fill="#e0e0e0" stroke="#999999" points="1302,-294 1264,-294 1264,-275 1302,-275 1302,-294"/>
<text text-anchor="middle" x="1283" y="-282" font-family="Helvetica,sans-Serif" font-size="10.00">map</text>
</a>
</g>
</g>
<!-- Node2&#45;&gt;Node10 -->
<g id="edge56_Node000002_Node000010" class="edge">
<title>Node2&#45;&gt;Node10</title>
<g id="a_edge56_Node000002_Node000010"><a xlink:title=" ">
<path fill="none" stroke="#63b8ff" d="M1034.02,-390.88C1128.48,-385.5 1322.88,-371.77 1343,-349 1358.63,-331.32 1333.11,-311.68 1310.67,-298.99"/>
<polygon fill="#63b8ff" stroke="#63b8ff" points="1312.16,-295.81 1301.69,-294.16 1308.85,-301.98 1312.16,-295.81"/>
</a>
</g>
</g>
<!-- Node11 -->
<g id="Node000011" class="node">
<title>Node11</title>
<g id="a_Node000011"><a xlink:href="GameWorld_8h.html" target="_top" xlink:title="Main game world manager handling objects, collisions, states, and game logic.">
<polygon fill="white" stroke="#666666" points="515.5,-239 390.5,-239 390.5,-220 515.5,-220 515.5,-239"/>
<text text-anchor="middle" x="453" y="-227" font-family="Helvetica,sans-Serif" font-size="10.00">../model/GameWorld.h</text>
</a>
</g>
</g>
<!-- Node2&#45;&gt;Node11 -->
<g id="edge11_Node000002_Node000011" class="edge">
<title>Node2&#45;&gt;Node11</title>
<g id="a_edge11_Node000002_Node000011"><a xlink:title=" ">
<path fill="none" stroke="#63b8ff" d="M931.68,-390.14C847.06,-384.08 682.23,-369.99 628,-349 574.76,-328.39 570.44,-306.77 523,-275 507.35,-264.52 489.41,-253.13 475.62,-244.5"/>
<polygon fill="#63b8ff" stroke="#63b8ff" points="477.14,-241.32 466.81,-239.01 473.44,-247.27 477.14,-241.32"/>
</a>
</g>
</g>
<!-- Node12 -->
<g id="Node000012" class="node">
<title>Node12</title>
<g id="a_Node000012"><a xlink:title=" ">
<polygon fill="#e0e0e0" stroke="#999999" points="784.5,-19 737.5,-19 737.5,0 784.5,0 784.5,-19"/>
<text text-anchor="middle" x="761" y="-7" font-family="Helvetica,sans-Serif" font-size="10.00">vector</text>
</a>
</g>
</g>
<!-- Node2&#45;&gt;Node12 -->
<g id="edge57_Node000002_Node000012" class="edge">
<title>Node2&#45;&gt;Node12</title>
<g id="a_edge57_Node000002_Node000012"><a xlink:title=" ">
<path fill="none" stroke="#63b8ff" d="M931.91,-389.35C887.45,-384.24 822.13,-373.07 770,-349 733.76,-332.27 716.57,-329.84 699,-294 695.28,-286.42 697.08,-283.22 699,-275 715.25,-205.48 752.5,-199.11 766,-129 772.69,-94.25 768.14,-52.74 764.43,-29.22"/>
<polygon fill="#63b8ff" stroke="#63b8ff" points="767.86,-28.5 762.73,-19.23 760.96,-29.67 767.86,-28.5"/>
</a>
</g>
</g>
<!-- Node25 -->
<g id="Node000025" class="node">
<title>Node25</title>
<g id="a_Node000025"><a xlink:href="MapManager_8h.html" target="_top" xlink:title="Manages game maps, level generation, and procedural content.">
<polygon fill="white" stroke="#666666" points="514,-294 392,-294 392,-275 514,-275 514,-294"/>
<text text-anchor="middle" x="453" y="-282" font-family="Helvetica,sans-Serif" font-size="10.00">../utils/MapManager.h</text>
</a>
</g>
</g>
<!-- Node2&#45;&gt;Node25 -->
<g id="edge34_Node000002_Node000025" class="edge">
<title>Node2&#45;&gt;Node25</title>
<g id="a_edge34_Node000002_Node000025"><a xlink:title=" ">
<path fill="none" stroke="#63b8ff" d="M931.66,-391.01C833.83,-385.81 624.35,-372.27 556,-349 523.75,-338.02 491.03,-315.47 471.37,-300.41"/>
<polygon fill="#63b8ff" stroke="#63b8ff" points="473.34,-297.51 463.31,-294.09 469.02,-303.02 473.34,-297.51"/>
</a>
</g>
</g>
<!-- Node27 -->
<g id="Node000027" class="node">
<title>Node27</title>
<g id="a_Node000027"><a xlink:href="ScoreManager_8h.html" target="_top" xlink:title="Manages high scores, leaderboards, and player achievements.">
<polygon fill="white" stroke="#666666" points="836,-294 708,-294 708,-275 836,-275 836,-294"/>
<text text-anchor="middle" x="772" y="-282" font-family="Helvetica,sans-Serif" font-size="10.00">../utils/ScoreManager.h</text>
</a>
</g>
</g>
<!-- Node2&#45;&gt;Node27 -->
<g id="edge42_Node000002_Node000027" class="edge">
<title>Node2&#45;&gt;Node27</title>
<g id="a_edge42_Node000002_Node000027"><a xlink:title=" ">
<path fill="none" stroke="#63b8ff" d="M931.87,-388.57C879.55,-382.43 803.13,-370.11 783,-349 771.79,-337.24 769.76,-318.4 770.1,-304.29"/>
<polygon fill="#63b8ff" stroke="#63b8ff" points="773.6,-304.41 770.75,-294.21 766.61,-303.96 773.6,-304.41"/>
</a>
</g>
</g>
<!-- Node28 -->
<g id="Node000028" class="node">
<title>Node28</title>
<g id="a_Node000028"><a xlink:href="ConsoleRenderer_8h.html" target="_top" xlink:title="Renders game state, menus, and UI elements to the console.">
<polygon fill="white" stroke="#666666" points="935.5,-349 792.5,-349 792.5,-330 935.5,-330 935.5,-349"/>
<text text-anchor="middle" x="864" y="-337" font-family="Helvetica,sans-Serif" font-size="10.00">../view/ConsoleRenderer.h</text>
</a>
</g>
</g>
<!-- Node2&#45;&gt;Node28 -->
<g id="edge46_Node000002_Node000028" class="edge">
<title>Node2&#45;&gt;Node28</title>
<g id="a_edge46_Node000002_Node000028"><a xlink:title=" ">
<path fill="none" stroke="#63b8ff" d="M963.88,-384.98C944.65,-376.42 914.77,-363.11 892.69,-353.28"/>
<polygon fill="#63b8ff" stroke="#63b8ff" points="894.03,-350.04 883.47,-349.17 891.18,-356.44 894.03,-350.04"/>
</a>
</g>
</g>
<!-- Node29 -->
<g id="Node000029" class="node">
<title>Node29</title>
<g id="a_Node000029"><a xlink:title=" ">
<polygon fill="#e0e0e0" stroke="#999999" points="990,-294 930,-294 930,-275 990,-275 990,-294"/>
<text text-anchor="middle" x="960" y="-282" font-family="Helvetica,sans-Serif" font-size="10.00">iostream</text>
</a>
</g>
</g>
<!-- Node2&#45;&gt;Node29 -->
<g id="edge58_Node000002_Node000029" class="edge">
<title>Node2&#45;&gt;Node29</title>
<g id="a_edge58_Node000002_Node000029"><a xlink:title=" ">
<path fill="none" stroke="#63b8ff" d="M981.12,-384.66C977.38,-367.09 968.93,-327.45 963.93,-303.95"/>
<polygon fill="#63b8ff" stroke="#63b8ff" points="967.35,-303.21 961.84,-294.16 960.5,-304.67 967.35,-303.21"/>
</a>
</g>
</g>
<!-- Node30 -->
<g id="Node000030" class="node">
<title>Node30</title>
<g id="a_Node000030"><a xlink:href="SettingsManager_8h.html" target="_top" xlink:title="Manages game configuration settings and user preferences.">
<polygon fill="white" stroke="#666666" points="1170,-349 1030,-349 1030,-330 1170,-330 1170,-349"/>
<text text-anchor="middle" x="1100" y="-337" font-family="Helvetica,sans-Serif" font-size="10.00">../utils/SettingsManager.h</text>
</a>
</g>
</g>
<!-- Node2&#45;&gt;Node30 -->
<g id="edge53_Node000002_Node000030" class="edge">
<title>Node2&#45;&gt;Node30</title>
<g id="a_edge53_Node000002_Node000030"><a xlink:title=" ">
<path fill="none" stroke="#63b8ff" d="M1001.8,-384.98C1020.62,-376.46 1049.82,-363.23 1071.5,-353.41"/>
<polygon fill="#63b8ff" stroke="#63b8ff" points="1073.2,-356.48 1080.86,-349.17 1070.31,-350.11 1073.2,-356.48"/>
</a>
</g>
</g>
<!-- Node2&#45;&gt;Node31 -->
<g id="edge60_Node000002_Node000031" class="edge">
<title>Node2&#45;&gt;Node31</title>
<g id="a_edge60_Node000002_Node000031"><a xlink:title=" ">
<path fill="none" stroke="#63b8ff" d="M1034.15,-389.67C1109.41,-383.58 1254.23,-370.19 1376,-349 1377.25,-348.78 1378.51,-348.55 1379.79,-348.3"/>
<polygon fill="#63b8ff" stroke="#63b8ff" points="1380.56,-351.72 1389.62,-346.22 1379.11,-344.87 1380.56,-351.72"/>
</a>
</g>
</g>
<!-- Node4 -->
<g id="Node000004" class="node">
<title>Node4</title>
<g id="a_Node000004"><a xlink:href="PlatformUtils_8h.html" target="_top" xlink:title="Cross&#45;platform utilities for console I/O, colors, and terminal manipulation.">
<polygon fill="white" stroke="#666666" points="1245.5,-294 1122.5,-294 1122.5,-275 1245.5,-275 1245.5,-294"/>
<text text-anchor="middle" x="1184" y="-282" font-family="Helvetica,sans-Serif" font-size="10.00">../utils/PlatformUtils.h</text>
</a>
</g>
</g>
<!-- Node3&#45;&gt;Node4 -->
<g id="edge3_Node000003_Node000004" class="edge">
<title>Node3&#45;&gt;Node4</title>
<g id="a_edge3_Node000003_Node000004"><a xlink:title=" ">
<path fill="none" stroke="#63b8ff" d="M1248.63,-329.98C1236.91,-321.92 1219.08,-309.65 1205.11,-300.03"/>
<polygon fill="#63b8ff" stroke="#63b8ff" points="1206.82,-296.96 1196.6,-294.17 1202.85,-302.72 1206.82,-296.96"/>
</a>
</g>
</g>
<!-- Node3&#45;&gt;Node5 -->
<g id="edge10_Node000003_Node000005" class="edge">
<title>Node3&#45;&gt;Node5</title>
<g id="a_edge10_Node000003_Node000005"><a xlink:title=" ">
<path fill="none" stroke="#63b8ff" d="M1221.19,-329.94C1190.7,-322.58 1148.07,-310.54 1113,-294 1084.63,-280.62 1055.06,-259.54 1036.6,-245.38"/>
<polygon fill="#63b8ff" stroke="#63b8ff" points="1038.52,-242.44 1028.48,-239.05 1034.21,-247.96 1038.52,-242.44"/>
</a>
</g>
</g>
<!-- Node3&#45;&gt;Node10 -->
<g id="edge9_Node000003_Node000010" class="edge">
<title>Node3&#45;&gt;Node10</title>
<g id="a_edge9_Node000003_Node000010"><a xlink:title=" ">
<path fill="none" stroke="#63b8ff" d="M1264.63,-329.75C1267.58,-322.65 1271.83,-312.4 1275.51,-303.56"/>
<polygon fill="#63b8ff" stroke="#63b8ff" points="1278.83,-304.67 1279.43,-294.09 1272.37,-301.98 1278.83,-304.67"/>
</a>
</g>
</g>
<!-- Node4&#45;&gt;Node5 -->
<g id="edge4_Node000004_Node000005" class="edge">
<title>Node4&#45;&gt;Node5</title>
<g id="a_edge4_Node000004_Node000005"><a xlink:title=" ">
<path fill="none" stroke="#63b8ff" d="M1157.33,-274.98C1128.1,-265.65 1081.22,-250.68 1050.02,-240.72"/>
<polygon fill="#63b8ff" stroke="#63b8ff" points="1050.68,-237.26 1040.09,-237.55 1048.55,-243.93 1050.68,-237.26"/>
</a>
</g>
</g>
<!-- Node6 -->
<g id="Node000006" class="node">
<title>Node6</title>
<g id="a_Node000006"><a xlink:title=" ">
<polygon fill="#e0e0e0" stroke="#999999" points="1359.5,-239 1296.5,-239 1296.5,-220 1359.5,-220 1359.5,-239"/>
<text text-anchor="middle" x="1328" y="-227" font-family="Helvetica,sans-Serif" font-size="10.00">termios.h</text>
</a>
</g>
</g>
<!-- Node4&#45;&gt;Node6 -->
<g id="edge5_Node000004_Node000006" class="edge">
<title>Node4&#45;&gt;Node6</title>
<g id="a_edge5_Node000004_Node000006"><a xlink:title=" ">
<path fill="none" stroke="#63b8ff" d="M1207.14,-274.98C1230.82,-266.27 1267.87,-252.63 1294.71,-242.75"/>
<polygon fill="#63b8ff" stroke="#63b8ff" points="1296.27,-245.91 1304.44,-239.17 1293.85,-239.34 1296.27,-245.91"/>
</a>
</g>
</g>
<!-- Node7 -->
<g id="Node000007" class="node">
<title>Node7</title>
<g id="a_Node000007"><a xlink:title=" ">
<polygon fill="#e0e0e0" stroke="#999999" points="1128,-239 1072,-239 1072,-220 1128,-220 1128,-239"/>
<text text-anchor="middle" x="1100" y="-227" font-family="Helvetica,sans-Serif" font-size="10.00">unistd.h</text>
</a>
</g>
</g>
<!-- Node4&#45;&gt;Node7 -->
<g id="edge6_Node000004_Node000007" class="edge">
<title>Node4&#45;&gt;Node7</title>
<g id="a_edge6_Node000004_Node000007"><a xlink:title=" ">
<path fill="none" stroke="#63b8ff" d="M1170.5,-274.98C1157.6,-266.84 1137.9,-254.41 1122.6,-244.76"/>
<polygon fill="#63b8ff" stroke="#63b8ff" points="1124.07,-241.55 1113.74,-239.17 1120.33,-247.47 1124.07,-241.55"/>
</a>
</g>
</g>
<!-- Node8 -->
<g id="Node000008" class="node">
<title>Node8</title>
<g id="a_Node000008"><a xlink:title=" ">
<polygon fill="#e0e0e0" stroke="#999999" points="1193.5,-239 1146.5,-239 1146.5,-220 1193.5,-220 1193.5,-239"/>
<text text-anchor="middle" x="1170" y="-227" font-family="Helvetica,sans-Serif" font-size="10.00">fcntl.h</text>
</a>
</g>
</g>
<!-- Node4&#45;&gt;Node8 -->
<g id="edge7_Node000004_Node000008" class="edge">
<title>Node4&#45;&gt;Node8</title>
<g id="a_edge7_Node000004_Node000008"><a xlink:title=" ">
<path fill="none" stroke="#63b8ff" d="M1181.69,-274.75C1179.83,-267.72 1177.16,-257.62 1174.85,-248.84"/>
<polygon fill="#63b8ff" stroke="#63b8ff" points="1178.21,-247.86 1172.27,-239.09 1171.44,-249.65 1178.21,-247.86"/>
</a>
</g>
</g>
<!-- Node9 -->
<g id="Node000009" class="node">
<title>Node9</title>
<g id="a_Node000009"><a xlink:title=" ">
<polygon fill="#e0e0e0" stroke="#999999" points="1278,-239 1212,-239 1212,-220 1278,-220 1278,-239"/>
<text text-anchor="middle" x="1245" y="-227" font-family="Helvetica,sans-Serif" font-size="10.00">sys/ioctl.h</text>
</a>
</g>
</g>
<!-- Node4&#45;&gt;Node9 -->
<g id="edge8_Node000004_Node000009" class="edge">
<title>Node4&#45;&gt;Node9</title>
<g id="a_edge8_Node000004_Node000009"><a xlink:title=" ">
<path fill="none" stroke="#63b8ff" d="M1193.8,-274.98C1202.82,-267.15 1216.41,-255.34 1227.32,-245.86"/>
<polygon fill="#63b8ff" stroke="#63b8ff" points="1229.77,-248.37 1235.02,-239.17 1225.18,-243.09 1229.77,-248.37"/>
</a>
</g>
</g>
<!-- Node11&#45;&gt;Node12 -->
<g id="edge12_Node000011_Node000012" class="edge">
<title>Node11&#45;&gt;Node12</title>
<g id="a_edge12_Node000011_Node000012"><a xlink:title=" ">
<path fill="none" stroke="#63b8ff" d="M456.81,-219.77C462.9,-206.6 475.91,-181.44 493,-165 565.52,-95.26 675.42,-44.85 729.16,-22.83"/>
<polygon fill="#63b8ff" stroke="#63b8ff" points="730.55,-26.04 738.52,-19.05 727.93,-19.55 730.55,-26.04"/>
</a>
</g>
</g>
<!-- Node13 -->
<g id="Node000013" class="node">
<title>Node13</title>
<g id="a_Node000013"><a xlink:title=" ">
<polygon fill="#e0e0e0" stroke="#999999" points="560,-184 502,-184 502,-165 560,-165 560,-184"/>
<text text-anchor="middle" x="531" y="-172" font-family="Helvetica,sans-Serif" font-size="10.00">memory</text>
</a>
</g>
</g>
<!-- Node11&#45;&gt;Node13 -->
<g id="edge13_Node000011_Node000013" class="edge">
<title>Node11&#45;&gt;Node13</title>
<g id="a_edge13_Node000011_Node000013"><a xlink:title=" ">
<path fill="none" stroke="#63b8ff" d="M465.53,-219.98C477.4,-211.92 495.46,-199.65 509.61,-190.03"/>
<polygon fill="#63b8ff" stroke="#63b8ff" points="511.94,-192.69 518.24,-184.17 508,-186.9 511.94,-192.69"/>
</a>
</g>
</g>
<!-- Node14 -->
<g id="Node000014" class="node">
<title>Node14</title>
<g id="a_Node000014"><a xlink:title=" ">
<polygon fill="#e0e0e0" stroke="#999999" points="714,-184 650,-184 650,-165 714,-165 714,-184"/>
<text text-anchor="middle" x="682" y="-172" font-family="Helvetica,sans-Serif" font-size="10.00">algorithm</text>
</a>
</g>
</g>
<!-- Node11&#45;&gt;Node14 -->
<g id="edge14_Node000011_Node000014" class="edge">
<title>Node11&#45;&gt;Node14</title>
<g id="a_edge14_Node000011_Node000014"><a xlink:title=" ">
<path fill="none" stroke="#63b8ff" d="M489.79,-219.98C530.76,-210.5 596.85,-195.21 639.87,-185.25"/>
<polygon fill="#63b8ff" stroke="#63b8ff" points="640.79,-188.63 649.74,-182.97 639.21,-181.81 640.79,-188.63"/>
</a>
</g>
</g>
<!-- Node15 -->
<g id="Node000015" class="node">
<title>Node15</title>
<g id="a_Node000015"><a xlink:title=" ">
<polygon fill="#e0e0e0" stroke="#999999" points="632,-184 578,-184 578,-165 632,-165 632,-184"/>
<text text-anchor="middle" x="605" y="-172" font-family="Helvetica,sans-Serif" font-size="10.00">random</text>
</a>
</g>
</g>
<!-- Node11&#45;&gt;Node15 -->
<g id="edge15_Node000011_Node000015" class="edge">
<title>Node11&#45;&gt;Node15</title>
<g id="a_edge15_Node000011_Node000015"><a xlink:title=" ">
<path fill="none" stroke="#63b8ff" d="M477.42,-219.98C502.72,-211.16 542.45,-197.31 570.86,-187.41"/>
<polygon fill="#63b8ff" stroke="#63b8ff" points="572.1,-190.68 580.39,-184.08 569.79,-184.07 572.1,-190.68"/>
</a>
</g>
</g>
<!-- Node16 -->
<g id="Node000016" class="node">
<title>Node16</title>
<g id="a_Node000016"><a xlink:href="GameObject_8h.html" target="_top" xlink:title="Base class and structures for all game objects with position, direction, and health.">
<polygon fill="white" stroke="#666666" points="305,-19 219,-19 219,0 305,0 305,-19"/>
<text text-anchor="middle" x="262" y="-7" font-family="Helvetica,sans-Serif" font-size="10.00">GameObject.h</text>
</a>
</g>
</g>
<!-- Node11&#45;&gt;Node16 -->
<g id="edge16_Node000011_Node000016" class="edge">
<title>Node11&#45;&gt;Node16</title>
<g id="a_edge16_Node000011_Node000016"><a xlink:title=" ">
<path fill="none" stroke="#63b8ff" d="M394.86,-219.99C336.1,-210.8 252.62,-195.87 243,-184 206.18,-138.55 235.69,-63 252.43,-28.58"/>
<polygon fill="#63b8ff" stroke="#63b8ff" points="255.74,-29.8 257.13,-19.3 249.49,-26.64 255.74,-29.8"/>
</a>
</g>
</g>
<!-- Node17 -->
<g id="Node000017" class="node">
<title>Node17</title>
<g id="a_Node000017"><a xlink:href="PlayerTank_8h.html" target="_top" xlink:title="Player&#45;controlled tank with lives, score system, and special abilities.">
<polygon fill="white" stroke="#666666" points="331.5,-184 252.5,-184 252.5,-165 331.5,-165 331.5,-184"/>
<text text-anchor="middle" x="292" y="-172" font-family="Helvetica,sans-Serif" font-size="10.00">PlayerTank.h</text>
</a>
</g>
</g>
<!-- Node11&#45;&gt;Node17 -->
<g id="edge17_Node000011_Node000017" class="edge">
<title>Node11&#45;&gt;Node17</title>
<g id="a_edge17_Node000011_Node000017"><a xlink:title=" ">
<path fill="none" stroke="#63b8ff" d="M427.13,-219.98C400.22,-211.13 357.88,-197.19 327.77,-187.28"/>
<polygon fill="#63b8ff" stroke="#63b8ff" points="328.66,-183.88 318.07,-184.08 326.47,-190.53 328.66,-183.88"/>
</a>
</g>
</g>
<!-- Node19 -->
<g id="Node000019" class="node">
<title>Node19</title>
<g id="a_Node000019"><a xlink:href="Projectile_8h.html" target="_top" xlink:title="Projectile class for bullets fired by tanks with collision detection.">
<polygon fill="white" stroke="#666666" points="473.5,-74 402.5,-74 402.5,-55 473.5,-55 473.5,-74"/>
<text text-anchor="middle" x="438" y="-62" font-family="Helvetica,sans-Serif" font-size="10.00">Projectile.h</text>
</a>
</g>
</g>
<!-- Node11&#45;&gt;Node19 -->
<g id="edge31_Node000011_Node000019" class="edge">
<title>Node11&#45;&gt;Node19</title>
<g id="a_edge31_Node000011_Node000019"><a xlink:title=" ">
<path fill="none" stroke="#63b8ff" d="M452.19,-219.74C449.85,-194.31 443.02,-120.08 439.77,-84.69"/>
<polygon fill="#63b8ff" stroke="#63b8ff" points="443.21,-83.94 438.81,-74.31 436.24,-84.59 443.21,-83.94"/>
</a>
</g>
</g>
<!-- Node20 -->
<g id="Node000020" class="node">
<title>Node20</title>
<g id="a_Node000020"><a xlink:href="Bonus_8h.html" target="_top" xlink:title="Power&#45;up bonuses with various effects for enhancing player abilities.">
<polygon fill="white" stroke="#666666" points="346,-74 290,-74 290,-55 346,-55 346,-74"/>
<text text-anchor="middle" x="318" y="-62" font-family="Helvetica,sans-Serif" font-size="10.00">Bonus.h</text>
</a>
</g>
</g>
<!-- Node11&#45;&gt;Node20 -->
<g id="edge30_Node000011_Node000020" class="edge">
<title>Node11&#45;&gt;Node20</title>
<g id="a_edge30_Node000011_Node000020"><a xlink:title=" ">
<path fill="none" stroke="#63b8ff" d="M441.07,-219.84C419.81,-203.89 374.97,-167.95 347,-129 336.96,-115.02 329.13,-97 324.16,-83.74"/>
<polygon fill="#63b8ff" stroke="#63b8ff" points="327.44,-82.53 320.79,-74.28 320.85,-84.88 327.44,-82.53"/>
</a>
</g>
</g>
<!-- Node21 -->
<g id="Node000021" class="node">
<title>Node21</title>
<g id="a_Node000021"><a xlink:href="EnemyTank_8h.html" target="_top" xlink:title="AI&#45;controlled enemy tanks with various behaviors, types, and difficulty levels.">
<polygon fill="white" stroke="#666666" points="196,-184 114,-184 114,-165 196,-165 196,-184"/>
<text text-anchor="middle" x="155" y="-172" font-family="Helvetica,sans-Serif" font-size="10.00">EnemyTank.h</text>
</a>
</g>
</g>
<!-- Node11&#45;&gt;Node21 -->
<g id="edge25_Node000011_Node000021" class="edge">
<title>Node11&#45;&gt;Node21</title>
<g id="a_edge25_Node000011_Node000021"><a xlink:title=" ">
<path fill="none" stroke="#63b8ff" d="M405.12,-219.98C350.6,-210.29 261.88,-194.51 206.07,-184.58"/>
<polygon fill="#63b8ff" stroke="#63b8ff" points="206.5,-181.11 196.04,-182.8 205.28,-188 206.5,-181.11"/>
</a>
</g>
</g>
<!-- Node23 -->
<g id="Node000023" class="node">
<title>Node23</title>
<g id="a_Node000023"><a xlink:href="Obstacle_8h.html" target="_top" xlink:title="Environmental obstacles including walls, water, forests, and their properties.">
<polygon fill="white" stroke="#666666" points="96,-184 28,-184 28,-165 96,-165 96,-184"/>
<text text-anchor="middle" x="62" y="-172" font-family="Helvetica,sans-Serif" font-size="10.00">Obstacle.h</text>
</a>
</g>
</g>
<!-- Node11&#45;&gt;Node23 -->
<g id="edge28_Node000011_Node000023" class="edge">
<title>Node11&#45;&gt;Node23</title>
<g id="a_edge28_Node000011_Node000023"><a xlink:title=" ">
<path fill="none" stroke="#63b8ff" d="M390.31,-221C309.75,-211.28 173.2,-194.5 106.34,-184.1"/>
<polygon fill="#63b8ff" stroke="#63b8ff" points="106.66,-180.6 96.23,-182.48 105.55,-187.52 106.66,-180.6"/>
</a>
</g>
</g>
<!-- Node24 -->
<g id="Node000024" class="node">
<title>Node24</title>
<g id="a_Node000024"><a xlink:href="Explosion_8h.html" target="_top" xlink:title="Visual explosion effects for game events like tank destruction.">
<polygon fill="white" stroke="#666666" points="429.5,-129 356.5,-129 356.5,-110 429.5,-110 429.5,-129"/>
<text text-anchor="middle" x="393" y="-117" font-family="Helvetica,sans-Serif" font-size="10.00">Explosion.h</text>
</a>
</g>
</g>
<!-- Node11&#45;&gt;Node24 -->
<g id="edge32_Node000011_Node000024" class="edge">
<title>Node11&#45;&gt;Node24</title>
<g id="a_edge32_Node000011_Node000024"><a xlink:title=" ">
<path fill="none" stroke="#63b8ff" d="M446.34,-219.94C439.71,-211.2 429.46,-197.09 422,-184 413.65,-169.36 405.81,-151.89 400.4,-138.98"/>
<polygon fill="#63b8ff" stroke="#63b8ff" points="403.49,-137.3 396.46,-129.37 397.01,-139.95 403.49,-137.3"/>
</a>
</g>
</g>
<!-- Node18 -->
<g id="Node000018" class="node">
<title>Node18</title>
<g id="a_Node000018"><a xlink:href="Tank_8h.html" target="_top" xlink:title="Abstract tank base class with shooting, bonuses, and combat mechanics.">
<polygon fill="white" stroke="#666666" points="300,-129 252,-129 252,-110 300,-110 300,-129"/>
<text text-anchor="middle" x="276" y="-117" font-family="Helvetica,sans-Serif" font-size="10.00">Tank.h</text>
</a>
</g>
</g>
<!-- Node17&#45;&gt;Node18 -->
<g id="edge18_Node000017_Node000018" class="edge">
<title>Node17&#45;&gt;Node18</title>
<g id="a_edge18_Node000017_Node000018"><a xlink:title=" ">
<path fill="none" stroke="#63b8ff" d="M289.36,-164.75C287.24,-157.72 284.19,-147.62 281.54,-138.84"/>
<polygon fill="#63b8ff" stroke="#63b8ff" points="284.83,-137.65 278.59,-129.09 278.13,-139.67 284.83,-137.65"/>
</a>
</g>
</g>
<!-- Node18&#45;&gt;Node16 -->
<g id="edge19_Node000018_Node000016" class="edge">
<title>Node18&#45;&gt;Node16</title>
<g id="a_edge19_Node000018_Node000016"><a xlink:title=" ">
<path fill="none" stroke="#63b8ff" d="M274.85,-109.66C272.59,-92.17 267.48,-52.8 264.43,-29.27"/>
<polygon fill="#63b8ff" stroke="#63b8ff" points="267.88,-28.63 263.12,-19.16 260.94,-29.53 267.88,-28.63"/>
</a>
</g>
</g>
<!-- Node18&#45;&gt;Node19 -->
<g id="edge20_Node000018_Node000019" class="edge">
<title>Node18&#45;&gt;Node19</title>
<g id="a_edge20_Node000018_Node000019"><a xlink:title=" ">
<path fill="none" stroke="#63b8ff" d="M300.25,-110.57C327.33,-101.71 371.42,-87.28 402.41,-77.14"/>
<polygon fill="#63b8ff" stroke="#63b8ff" points="403.55,-80.45 411.97,-74.02 401.38,-73.8 403.55,-80.45"/>
</a>
</g>
</g>
<!-- Node18&#45;&gt;Node20 -->
<g id="edge23_Node000018_Node000020" class="edge">
<title>Node18&#45;&gt;Node20</title>
<g id="a_edge23_Node000018_Node000020"><a xlink:title=" ">
<path fill="none" stroke="#63b8ff" d="M282.94,-109.75C288.87,-102.26 297.57,-91.28 304.82,-82.13"/>
<polygon fill="#63b8ff" stroke="#63b8ff" points="307.73,-84.1 311.19,-74.09 302.24,-79.75 307.73,-84.1"/>
</a>
</g>
</g>
<!-- Node19&#45;&gt;Node12 -->
<g id="edge22_Node000019_Node000012" class="edge">
<title>Node19&#45;&gt;Node12</title>
<g id="a_edge22_Node000019_Node000012"><a xlink:title=" ">
<path fill="none" stroke="#63b8ff" d="M473.5,-57.43C478.37,-56.61 483.31,-55.78 488,-55 574.19,-40.65 675.78,-24.22 727.33,-15.91"/>
<polygon fill="#63b8ff" stroke="#63b8ff" points="727.94,-19.36 737.26,-14.31 726.83,-12.45 727.94,-19.36"/>
</a>
</g>
</g>
<!-- Node19&#45;&gt;Node16 -->
<g id="edge21_Node000019_Node000016" class="edge">
<title>Node19&#45;&gt;Node16</title>
<g id="a_edge21_Node000019_Node000016"><a xlink:title=" ">
<path fill="none" stroke="#63b8ff" d="M409.72,-54.98C380.05,-46.05 333.21,-31.94 300.25,-22.02"/>
<polygon fill="#63b8ff" stroke="#63b8ff" points="301.08,-18.61 290.5,-19.08 299.07,-25.32 301.08,-18.61"/>
</a>
</g>
</g>
<!-- Node20&#45;&gt;Node16 -->
<g id="edge24_Node000020_Node000016" class="edge">
<title>Node20&#45;&gt;Node16</title>
<g id="a_edge24_Node000020_Node000016"><a xlink:title=" ">
<path fill="none" stroke="#63b8ff" d="M309,-54.98C300.81,-47.23 288.49,-35.58 278.53,-26.14"/>
<polygon fill="#63b8ff" stroke="#63b8ff" points="280.83,-23.5 271.16,-19.17 276.02,-28.59 280.83,-23.5"/>
</a>
</g>
</g>
<!-- Node21&#45;&gt;Node18 -->
<g id="edge26_Node000021_Node000018" class="edge">
<title>Node21&#45;&gt;Node18</title>
<g id="a_edge26_Node000021_Node000018"><a xlink:title=" ">
<path fill="none" stroke="#63b8ff" d="M174.44,-164.98C193.99,-156.42 224.38,-143.11 246.82,-133.28"/>
<polygon fill="#63b8ff" stroke="#63b8ff" points="248.45,-136.39 256.21,-129.17 245.64,-129.98 248.45,-136.39"/>
</a>
</g>
</g>
<!-- Node22 -->
<g id="Node000022" class="node">
<title>Node22</title>
<g id="a_Node000022"><a xlink:title=" ">
<polygon fill="#e0e0e0" stroke="#999999" points="181.5,-129 128.5,-129 128.5,-110 181.5,-110 181.5,-129"/>
<text text-anchor="middle" x="155" y="-117" font-family="Helvetica,sans-Serif" font-size="10.00">stdlib.h</text>
</a>
</g>
</g>
<!-- Node21&#45;&gt;Node22 -->
<g id="edge27_Node000021_Node000022" class="edge">
<title>Node21&#45;&gt;Node22</title>
<g id="a_edge27_Node000021_Node000022"><a xlink:title=" ">
<path fill="none" stroke="#63b8ff" d="M155,-164.75C155,-157.8 155,-147.85 155,-139.13"/>
<polygon fill="#63b8ff" stroke="#63b8ff" points="158.5,-139.09 155,-129.09 151.5,-139.09 158.5,-139.09"/>
</a>
</g>
</g>
<!-- Node23&#45;&gt;Node16 -->
<g id="edge29_Node000023_Node000016" class="edge">
<title>Node23&#45;&gt;Node16</title>
<g id="a_edge29_Node000023_Node000016"><a xlink:title=" ">
<path fill="none" stroke="#63b8ff" d="M68.8,-164.7C78.95,-151.88 99.02,-127.65 119,-110 158.06,-75.49 209.34,-42.35 238.69,-24.37"/>
<polygon fill="#63b8ff" stroke="#63b8ff" points="240.66,-27.27 247.4,-19.09 237.03,-21.28 240.66,-27.27"/>
</a>
</g>
</g>
<!-- Node24&#45;&gt;Node16 -->
<g id="edge33_Node000024_Node000016" class="edge">
<title>Node24&#45;&gt;Node16</title>
<g id="a_edge33_Node000024_Node000016"><a xlink:title=" ">
<path fill="none" stroke="#63b8ff" d="M389.64,-109.6C384.2,-96.2 372.28,-70.75 355,-55 339.19,-40.59 317.87,-29.94 299.63,-22.67"/>
<polygon fill="#63b8ff" stroke="#63b8ff" points="300.74,-19.35 290.15,-19.08 298.26,-25.9 300.74,-19.35"/>
</a>
</g>
</g>
<!-- Node25&#45;&gt;Node5 -->
<g id="edge35_Node000025_Node000005" class="edge">
<title>Node25&#45;&gt;Node5</title>
<g id="a_edge35_Node000025_Node000005"><a xlink:title=" ">
<path fill="none" stroke="#63b8ff" d="M514,-277.78C633.54,-266.56 894.86,-242.05 985.93,-233.51"/>
<polygon fill="#63b8ff" stroke="#63b8ff" points="986.3,-236.99 995.93,-232.57 985.65,-230.02 986.3,-236.99"/>
</a>
</g>
</g>
<!-- Node25&#45;&gt;Node11 -->
<g id="edge39_Node000025_Node000011" class="edge">
<title>Node25&#45;&gt;Node11</title>
<g id="a_edge39_Node000025_Node000011"><a xlink:title=" ">
<path fill="none" stroke="#63b8ff" d="M453,-274.75C453,-267.8 453,-257.85 453,-249.13"/>
<polygon fill="#63b8ff" stroke="#63b8ff" points="456.5,-249.09 453,-239.09 449.5,-249.09 456.5,-249.09"/>
</a>
</g>
</g>
<!-- Node25&#45;&gt;Node12 -->
<g id="edge36_Node000025_Node000012" class="edge">
<title>Node25&#45;&gt;Node12</title>
<g id="a_edge36_Node000025_Node000012"><a xlink:title=" ">
<path fill="none" stroke="#63b8ff" d="M514.26,-277.75C576.13,-268.58 669.92,-244.93 723,-184 761.76,-139.51 763.81,-64.58 762.37,-29.59"/>
<polygon fill="#63b8ff" stroke="#63b8ff" points="765.85,-29.14 761.8,-19.35 758.86,-29.53 765.85,-29.14"/>
</a>
</g>
</g>
<!-- Node25&#45;&gt;Node16 -->
<g id="edge38_Node000025_Node000016" class="edge">
<title>Node25&#45;&gt;Node16</title>
<g id="a_edge38_Node000025_Node000016"><a xlink:title=" ">
<path fill="none" stroke="#63b8ff" d="M391.91,-281.62C268.26,-276.16 0,-255.14 0,-175.5 0,-175.5 0,-175.5 0,-118.5 0,-29.22 131.65,-12.25 208.3,-9.93"/>
<polygon fill="#63b8ff" stroke="#63b8ff" points="208.82,-13.42 218.74,-9.69 208.66,-6.42 208.82,-13.42"/>
</a>
</g>
</g>
<!-- Node25&#45;&gt;Node21 -->
<g id="edge41_Node000025_Node000021" class="edge">
<title>Node25&#45;&gt;Node21</title>
<g id="a_edge41_Node000025_Node000021"><a xlink:title=" ">
<path fill="none" stroke="#63b8ff" d="M416.74,-274.95C384.39,-266.93 335.96,-253.96 295,-239 254.19,-224.09 208.66,-202.46 180.93,-188.69"/>
<polygon fill="#63b8ff" stroke="#63b8ff" points="182.4,-185.52 171.89,-184.17 179.27,-191.78 182.4,-185.52"/>
</a>
</g>
</g>
<!-- Node25&#45;&gt;Node23 -->
<g id="edge40_Node000025_Node000023" class="edge">
<title>Node25&#45;&gt;Node23</title>
<g id="a_edge40_Node000025_Node000023"><a xlink:title=" ">
<path fill="none" stroke="#63b8ff" d="M404.43,-274.96C361.8,-267.03 298.3,-254.19 244,-239 190.09,-223.92 128.93,-201.44 93.01,-187.66"/>
<polygon fill="#63b8ff" stroke="#63b8ff" points="94.16,-184.36 83.57,-184.02 91.64,-190.89 94.16,-184.36"/>
</a>
</g>
</g>
<!-- Node26 -->
<g id="Node000026" class="node">
<title>Node26</title>
<g id="a_Node000026"><a xlink:title=" ">
<polygon fill="#e0e0e0" stroke="#999999" points="372,-239 304,-239 304,-220 372,-220 372,-239"/>
<text text-anchor="middle" x="338" y="-227" font-family="Helvetica,sans-Serif" font-size="10.00">filesystem</text>
</a>
</g>
</g>
<!-- Node25&#45;&gt;Node26 -->
<g id="edge37_Node000025_Node000026" class="edge">
<title>Node25&#45;&gt;Node26</title>
<g id="a_edge37_Node000025_Node000026"><a xlink:title=" ">
<path fill="none" stroke="#63b8ff" d="M434.52,-274.98C416.02,-266.46 387.32,-253.23 366.02,-243.41"/>
<polygon fill="#63b8ff" stroke="#63b8ff" points="367.36,-240.18 356.81,-239.17 364.43,-246.53 367.36,-240.18"/>
</a>
</g>
</g>
<!-- Node27&#45;&gt;Node5 -->
<g id="edge44_Node000027_Node000005" class="edge">
<title>Node27&#45;&gt;Node5</title>
<g id="a_edge44_Node000027_Node000005"><a xlink:title=" ">
<path fill="none" stroke="#63b8ff" d="M811.52,-274.98C859.93,-264.56 941,-247.09 985.8,-237.44"/>
<polygon fill="#63b8ff" stroke="#63b8ff" points="986.8,-240.8 995.84,-235.27 985.33,-233.96 986.8,-240.8"/>
</a>
</g>
</g>
<!-- Node27&#45;&gt;Node12 -->
<g id="edge43_Node000027_Node000012" class="edge">
<title>Node27&#45;&gt;Node12</title>
<g id="a_edge43_Node000027_Node000012"><a xlink:title=" ">
<path fill="none" stroke="#63b8ff" d="M778.59,-274.8C791.31,-257.1 818,-215.24 818,-175.5 818,-175.5 818,-175.5 818,-118.5 818,-82.51 792.94,-46.76 776.05,-26.76"/>
<polygon fill="#63b8ff" stroke="#63b8ff" points="778.64,-24.4 769.41,-19.2 773.38,-29.02 778.64,-24.4"/>
</a>
</g>
</g>
<!-- Node27&#45;&gt;Node14 -->
<g id="edge45_Node000027_Node000014" class="edge">
<title>Node27&#45;&gt;Node14</title>
<g id="a_edge45_Node000027_Node000014"><a xlink:title=" ">
<path fill="none" stroke="#63b8ff" d="M764.63,-274.66C749.6,-256.61 715.15,-215.28 695.81,-192.08"/>
<polygon fill="#63b8ff" stroke="#63b8ff" points="698.31,-189.6 689.22,-184.16 692.93,-194.08 698.31,-189.6"/>
</a>
</g>
</g>
<!-- Node28&#45;&gt;Node4 -->
<g id="edge49_Node000028_Node000004" class="edge">
<title>Node28&#45;&gt;Node4</title>
<g id="a_edge49_Node000028_Node000004"><a xlink:title=" ">
<path fill="none" stroke="#63b8ff" d="M915.41,-329.98C971.78,-320.65 1062.19,-305.67 1122.33,-295.71"/>
<polygon fill="#63b8ff" stroke="#63b8ff" points="1123.16,-299.13 1132.45,-294.04 1122.01,-292.22 1123.16,-299.13"/>
</a>
</g>
</g>
<!-- Node28&#45;&gt;Node5 -->
<g id="edge51_Node000028_Node000005" class="edge">
<title>Node28&#45;&gt;Node5</title>
<g id="a_edge51_Node000028_Node000005"><a xlink:title=" ">
<path fill="none" stroke="#63b8ff" d="M870.09,-329.66C879.64,-316.34 899.29,-290.99 921,-275 940.91,-260.34 966.42,-248.87 986.29,-241.25"/>
<polygon fill="#63b8ff" stroke="#63b8ff" points="987.65,-244.48 995.81,-237.72 985.22,-237.91 987.65,-244.48"/>
</a>
</g>
</g>
<!-- Node28&#45;&gt;Node11 -->
<g id="edge47_Node000028_Node000011" class="edge">
<title>Node28&#45;&gt;Node11</title>
<g id="a_edge47_Node000028_Node000011"><a xlink:title=" ">
<path fill="none" stroke="#63b8ff" d="M831.41,-329.94C757.59,-310.54 577.69,-263.26 495.37,-241.63"/>
<polygon fill="#63b8ff" stroke="#63b8ff" points="496.16,-238.22 485.6,-239.07 494.38,-244.99 496.16,-238.22"/>
</a>
</g>
</g>
<!-- Node28&#45;&gt;Node12 -->
<g id="edge52_Node000028_Node000012" class="edge">
<title>Node28&#45;&gt;Node12</title>
<g id="a_edge52_Node000028_Node000012"><a xlink:title=" ">
<path fill="none" stroke="#63b8ff" d="M864,-329.82C864,-311.48 864,-267.44 864,-230.5 864,-230.5 864,-230.5 864,-118.5 864,-74.36 818.38,-41.13 787.86,-23.85"/>
<polygon fill="#63b8ff" stroke="#63b8ff" points="789.4,-20.7 778.94,-19 786.06,-26.85 789.4,-20.7"/>
</a>
</g>
</g>
<!-- Node28&#45;&gt;Node25 -->
<g id="edge48_Node000028_Node000025" class="edge">
<title>Node28&#45;&gt;Node25</title>
<g id="a_edge48_Node000028_Node000025"><a xlink:title=" ">
<path fill="none" stroke="#63b8ff" d="M797.97,-329.98C723.04,-320.32 601.29,-304.62 524.27,-294.69"/>
<polygon fill="#63b8ff" stroke="#63b8ff" points="524.54,-291.2 514.17,-293.39 523.64,-298.14 524.54,-291.2"/>
</a>
</g>
</g>
<!-- Node28&#45;&gt;Node29 -->
<g id="edge50_Node000028_Node000029" class="edge">
<title>Node28&#45;&gt;Node29</title>
<g id="a_edge50_Node000028_Node000029"><a xlink:title=" ">
<path fill="none" stroke="#63b8ff" d="M879.42,-329.98C894.45,-321.69 917.54,-308.94 935.16,-299.22"/>
<polygon fill="#63b8ff" stroke="#63b8ff" points="937.23,-302.07 944.3,-294.17 933.85,-295.94 937.23,-302.07"/>
</a>
</g>
</g>
<!-- Node30&#45;&gt;Node5 -->
<g id="edge54_Node000030_Node000005" class="edge">
<title>Node30&#45;&gt;Node5</title>
<g id="a_edge54_Node000030_Node000005"><a xlink:title=" ">
<path fill="none" stroke="#63b8ff" d="M1093.29,-329.66C1079.65,-311.69 1048.48,-270.64 1030.82,-247.38"/>
<polygon fill="#63b8ff" stroke="#63b8ff" points="1033.41,-245.01 1024.57,-239.16 1027.83,-249.24 1033.41,-245.01"/>
</a>
</g>
</g>
<!-- Node30&#45;&gt;Node10 -->
<g id="edge55_Node000030_Node000010" class="edge">
<title>Node30&#45;&gt;Node10</title>
<g id="a_edge55_Node000030_Node000010"><a xlink:title=" ">
<path fill="none" stroke="#63b8ff" d="M1129.82,-329.92C1160.85,-320.98 1210.85,-306.56 1254,-294 1254.1,-293.97 1254.2,-293.94 1254.3,-293.91"/>
<polygon fill="#63b8ff" stroke="#63b8ff" points="1255.35,-297.25 1263.97,-291.09 1253.39,-290.53 1255.35,-297.25"/>
</a>
</g>
</g>
</g>
</svg>

<g id="navigator" transform="translate(0 0)" fill="#404254">
  <rect fill="#f2f5e9" fill-opacity="0.5" stroke="#606060" stroke-width=".5" x="0" y="0" width="60" height="60"/>
  <use id="zoomplus" xlink:href="#zoomPlus" x="17" y="9" onmousedown="handleZoom(evt,'in')"/>
  <use id="zoomminus" xlink:href="#zoomMin" x="42" y="9" onmousedown="handleZoom(evt,'out')"/>
  <use id="reset" xlink:href="#resetDef" x="30" y="36" onmousedown="handleReset()"/>
   <use id="arrowup" xlink:href="#arrowUp" x="0" y="0" onmousedown="handlePan(0,-1)"/>
  <use id="arrowright" xlink:href="#arrowRight" x="0" y="0" onmousedown="handlePan(1,0)"/>
  <use id="arrowdown" xlink:href="#arrowDown" x="0" y="0" onmousedown="handlePan(0,1)"/>
  <use id="arrowleft" xlink:href="#arrowLeft" x="0" y="0" onmousedown="handlePan(-1,0)"/>
</g>
<svg viewBox="0 0 15 15" width="100%" height="30px" preserveAspectRatio="xMaxYMin meet">
 <g id="arrow_out" transform="scale(0.3 0.3)">
  <a xlink:href="GameController_8cpp__incl_org.svg" target="_base">
   <rect id="button" ry="5" rx="5" y="6" x="6" height="38" width="38"
        fill="#f2f5e9" fill-opacity="0.5" stroke="#606060" stroke-width="1.0"/>
   <path id="arrow"
     d="M 11.500037,31.436501 C 11.940474,20.09759 22.043105,11.32322 32.158766,21.979434 L 37.068811,17.246167 C 37.068811,17.246167 37.088388,32 37.088388,32 L 22.160133,31.978069 C 22.160133,31.978069 26.997745,27.140456 26.997745,27.140456 C 18.528582,18.264221 13.291696,25.230495 11.500037,31.436501 z"
     style="fill:#404040;"/>
  </a>
 </g>
</svg>

<style type='text/css'>
<![CDATA[
[data-mouse-over-selected='false'] { opacity: 0.7; }
[data-mouse-over-selected='true']  { opacity: 1.0; }
]]>
</style>
<script type="application/ecmascript"><![CDATA[
document.addEventListener('DOMContentLoaded', (event) => {
  highlightEdges();
  highlightAdjacentNodes();
});
]]></script>
</svg>
