<?xml version="1.0" encoding="UTF-8" standalone="no"?>
<!DOCTYPE svg PUBLIC "-//W3C//DTD SVG 1.1//EN"
 "http://www.w3.org/Graphics/SVG/1.1/DTD/svg11.dtd">
<!-- Generated by graphviz version 2.43.0 (0)
 -->
<!-- Title: src/model/GameWorld.h Pages: 1 -->
<svg width="628pt" height="247pt"
 viewBox="0.00 0.00 627.50 247.00" xmlns="http://www.w3.org/2000/svg" xmlns:xlink="http://www.w3.org/1999/xlink">
<g id="graph0" class="graph" transform="scale(1 1) rotate(0) translate(4 243)">
<title>src/model/GameWorld.h</title>
<!-- Node1 -->
<g id="Node000001" class="node">
<title>Node1</title>
<g id="a_Node000001"><a xlink:title="Main game world manager handling objects, collisions, states, and game logic.">
<polygon fill="#999999" stroke="#666666" points="370.5,-239 236.5,-239 236.5,-220 370.5,-220 370.5,-239"/>
<text text-anchor="middle" x="303.5" y="-227" font-family="Helvetica,sans-Serif" font-size="10.00">src/model/GameWorld.h</text>
</a>
</g>
</g>
<!-- Node2 -->
<g id="Node000002" class="node">
<title>Node2</title>
<g id="a_Node000002"><a xlink:title=" ">
<polygon fill="#e0e0e0" stroke="#999999" points="47,-19 0,-19 0,0 47,0 47,-19"/>
<text text-anchor="middle" x="23.5" y="-7" font-family="Helvetica,sans-Serif" font-size="10.00">vector</text>
</a>
</g>
</g>
<!-- Node1&#45;&gt;Node2 -->
<g id="edge1_Node000001_Node000002" class="edge">
<title>Node1&#45;&gt;Node2</title>
<g id="a_edge1_Node000001_Node000002"><a xlink:title=" ">
<path fill="none" stroke="#63b8ff" d="M236.23,-223.47C173.12,-217.5 84.52,-205.54 57.5,-184 15.93,-150.86 21.16,-126.08 10.5,-74 7.36,-58.67 11.47,-41.26 15.88,-28.55"/>
<polygon fill="#63b8ff" stroke="#63b8ff" points="19.18,-29.72 19.5,-19.13 12.64,-27.21 19.18,-29.72"/>
</a>
</g>
</g>
<!-- Node3 -->
<g id="Node000003" class="node">
<title>Node3</title>
<g id="a_Node000003"><a xlink:title=" ">
<polygon fill="#e0e0e0" stroke="#999999" points="465.5,-184 407.5,-184 407.5,-165 465.5,-165 465.5,-184"/>
<text text-anchor="middle" x="436.5" y="-172" font-family="Helvetica,sans-Serif" font-size="10.00">memory</text>
</a>
</g>
</g>
<!-- Node1&#45;&gt;Node3 -->
<g id="edge2_Node000001_Node000003" class="edge">
<title>Node1&#45;&gt;Node3</title>
<g id="a_edge2_Node000001_Node000003"><a xlink:title=" ">
<path fill="none" stroke="#63b8ff" d="M324.87,-219.98C346.65,-211.3 380.66,-197.75 405.42,-187.88"/>
<polygon fill="#63b8ff" stroke="#63b8ff" points="406.75,-191.12 414.74,-184.17 404.16,-184.62 406.75,-191.12"/>
</a>
</g>
</g>
<!-- Node4 -->
<g id="Node000004" class="node">
<title>Node4</title>
<g id="a_Node000004"><a xlink:title=" ">
<polygon fill="#e0e0e0" stroke="#999999" points="547.5,-184 483.5,-184 483.5,-165 547.5,-165 547.5,-184"/>
<text text-anchor="middle" x="515.5" y="-172" font-family="Helvetica,sans-Serif" font-size="10.00">algorithm</text>
</a>
</g>
</g>
<!-- Node1&#45;&gt;Node4 -->
<g id="edge3_Node000001_Node000004" class="edge">
<title>Node1&#45;&gt;Node4</title>
<g id="a_edge3_Node000001_Node000004"><a xlink:title=" ">
<path fill="none" stroke="#63b8ff" d="M337.56,-219.98C374.49,-210.75 433.49,-196 473.32,-186.04"/>
<polygon fill="#63b8ff" stroke="#63b8ff" points="474.41,-189.38 483.26,-183.56 472.71,-182.59 474.41,-189.38"/>
</a>
</g>
</g>
<!-- Node5 -->
<g id="Node000005" class="node">
<title>Node5</title>
<g id="a_Node000005"><a xlink:title=" ">
<polygon fill="#e0e0e0" stroke="#999999" points="619.5,-184 565.5,-184 565.5,-165 619.5,-165 619.5,-184"/>
<text text-anchor="middle" x="592.5" y="-172" font-family="Helvetica,sans-Serif" font-size="10.00">random</text>
</a>
</g>
</g>
<!-- Node1&#45;&gt;Node5 -->
<g id="edge4_Node000001_Node000005" class="edge">
<title>Node1&#45;&gt;Node5</title>
<g id="a_edge4_Node000001_Node000005"><a xlink:title=" ">
<path fill="none" stroke="#63b8ff" d="M357.47,-219.94C406.6,-211.93 481.37,-199.22 555.44,-184.12"/>
<polygon fill="#63b8ff" stroke="#63b8ff" points="556.32,-187.51 565.41,-182.07 554.91,-180.66 556.32,-187.51"/>
</a>
</g>
</g>
<!-- Node6 -->
<g id="Node000006" class="node">
<title>Node6</title>
<g id="a_Node000006"><a xlink:href="GameObject_8h.html" target="_top" xlink:title="Base class and structures for all game objects with position, direction, and health.">
<polygon fill="white" stroke="#666666" points="281.5,-19 195.5,-19 195.5,0 281.5,0 281.5,-19"/>
<text text-anchor="middle" x="238.5" y="-7" font-family="Helvetica,sans-Serif" font-size="10.00">GameObject.h</text>
</a>
</g>
</g>
<!-- Node1&#45;&gt;Node6 -->
<g id="edge5_Node000001_Node000006" class="edge">
<title>Node1&#45;&gt;Node6</title>
<g id="a_edge5_Node000001_Node000006"><a xlink:title=" ">
<path fill="none" stroke="#63b8ff" d="M306.18,-219.87C313.91,-193.31 333.8,-111.21 303.5,-55 296.14,-41.34 282.53,-31.05 269.67,-23.82"/>
<polygon fill="#63b8ff" stroke="#63b8ff" points="271.02,-20.58 260.53,-19.1 267.8,-26.8 271.02,-20.58"/>
</a>
</g>
</g>
<!-- Node7 -->
<g id="Node000007" class="node">
<title>Node7</title>
<g id="a_Node000007"><a xlink:href="PlayerTank_8h.html" target="_top" xlink:title="Player&#45;controlled tank with lives, score system, and special abilities.">
<polygon fill="white" stroke="#666666" points="175,-184 96,-184 96,-165 175,-165 175,-184"/>
<text text-anchor="middle" x="135.5" y="-172" font-family="Helvetica,sans-Serif" font-size="10.00">PlayerTank.h</text>
</a>
</g>
</g>
<!-- Node1&#45;&gt;Node7 -->
<g id="edge6_Node000001_Node000007" class="edge">
<title>Node1&#45;&gt;Node7</title>
<g id="a_edge6_Node000001_Node000007"><a xlink:title=" ">
<path fill="none" stroke="#63b8ff" d="M276.51,-219.98C248.3,-211.09 203.86,-197.07 172.42,-187.15"/>
<polygon fill="#63b8ff" stroke="#63b8ff" points="173.29,-183.75 162.7,-184.08 171.19,-190.43 173.29,-183.75"/>
</a>
</g>
</g>
<!-- Node9 -->
<g id="Node000009" class="node">
<title>Node9</title>
<g id="a_Node000009"><a xlink:href="Projectile_8h.html" target="_top" xlink:title="Projectile class for bullets fired by tanks with collision detection.">
<polygon fill="white" stroke="#666666" points="91,-74 20,-74 20,-55 91,-55 91,-74"/>
<text text-anchor="middle" x="55.5" y="-62" font-family="Helvetica,sans-Serif" font-size="10.00">Projectile.h</text>
</a>
</g>
</g>
<!-- Node1&#45;&gt;Node9 -->
<g id="edge20_Node000001_Node000009" class="edge">
<title>Node1&#45;&gt;Node9</title>
<g id="a_edge20_Node000001_Node000009"><a xlink:title=" ">
<path fill="none" stroke="#63b8ff" d="M236.31,-223.85C176.96,-218.3 96.5,-206.74 74.5,-184 48.63,-157.26 49.6,-110.17 52.56,-84.12"/>
<polygon fill="#63b8ff" stroke="#63b8ff" points="56.05,-84.46 53.93,-74.08 49.11,-83.52 56.05,-84.46"/>
</a>
</g>
</g>
<!-- Node10 -->
<g id="Node000010" class="node">
<title>Node10</title>
<g id="a_Node000010"><a xlink:href="Bonus_8h.html" target="_top" xlink:title="Power&#45;up bonuses with various effects for enhancing player abilities.">
<polygon fill="white" stroke="#666666" points="294.5,-74 238.5,-74 238.5,-55 294.5,-55 294.5,-74"/>
<text text-anchor="middle" x="266.5" y="-62" font-family="Helvetica,sans-Serif" font-size="10.00">Bonus.h</text>
</a>
</g>
</g>
<!-- Node1&#45;&gt;Node10 -->
<g id="edge19_Node000001_Node000010" class="edge">
<title>Node1&#45;&gt;Node10</title>
<g id="a_edge19_Node000001_Node000010"><a xlink:title=" ">
<path fill="none" stroke="#63b8ff" d="M301.69,-219.86C297.56,-200.27 287.07,-151.02 277.5,-110 275.49,-101.37 273.14,-91.82 271.14,-83.8"/>
<polygon fill="#63b8ff" stroke="#63b8ff" points="274.51,-82.86 268.68,-74.01 267.72,-84.57 274.51,-82.86"/>
</a>
</g>
</g>
<!-- Node11 -->
<g id="Node000011" class="node">
<title>Node11</title>
<g id="a_Node000011"><a xlink:href="EnemyTank_8h.html" target="_top" xlink:title="AI&#45;controlled enemy tanks with various behaviors, types, and difficulty levels.">
<polygon fill="white" stroke="#666666" points="275.5,-184 193.5,-184 193.5,-165 275.5,-165 275.5,-184"/>
<text text-anchor="middle" x="234.5" y="-172" font-family="Helvetica,sans-Serif" font-size="10.00">EnemyTank.h</text>
</a>
</g>
</g>
<!-- Node1&#45;&gt;Node11 -->
<g id="edge14_Node000001_Node000011" class="edge">
<title>Node1&#45;&gt;Node11</title>
<g id="a_edge14_Node000001_Node000011"><a xlink:title=" ">
<path fill="none" stroke="#63b8ff" d="M292.41,-219.98C282.01,-212 266.24,-199.88 253.78,-190.31"/>
<polygon fill="#63b8ff" stroke="#63b8ff" points="255.85,-187.49 245.79,-184.17 251.59,-193.04 255.85,-187.49"/>
</a>
</g>
</g>
<!-- Node13 -->
<g id="Node000013" class="node">
<title>Node13</title>
<g id="a_Node000013"><a xlink:href="Obstacle_8h.html" target="_top" xlink:title="Environmental obstacles including walls, water, forests, and their properties.">
<polygon fill="white" stroke="#666666" points="437.5,-129 369.5,-129 369.5,-110 437.5,-110 437.5,-129"/>
<text text-anchor="middle" x="403.5" y="-117" font-family="Helvetica,sans-Serif" font-size="10.00">Obstacle.h</text>
</a>
</g>
</g>
<!-- Node1&#45;&gt;Node13 -->
<g id="edge17_Node000001_Node000013" class="edge">
<title>Node1&#45;&gt;Node13</title>
<g id="a_edge17_Node000001_Node000013"><a xlink:title=" ">
<path fill="none" stroke="#63b8ff" d="M314.87,-219.94C325.84,-211.42 342.63,-197.67 355.5,-184 369.22,-169.42 382.78,-151.01 391.97,-137.77"/>
<polygon fill="#63b8ff" stroke="#63b8ff" points="395.09,-139.41 397.83,-129.18 389.3,-135.47 395.09,-139.41"/>
</a>
</g>
</g>
<!-- Node14 -->
<g id="Node000014" class="node">
<title>Node14</title>
<g id="a_Node000014"><a xlink:href="Explosion_8h.html" target="_top" xlink:title="Visual explosion effects for game events like tank destruction.">
<polygon fill="white" stroke="#666666" points="182,-74 109,-74 109,-55 182,-55 182,-74"/>
<text text-anchor="middle" x="145.5" y="-62" font-family="Helvetica,sans-Serif" font-size="10.00">Explosion.h</text>
</a>
</g>
</g>
<!-- Node1&#45;&gt;Node14 -->
<g id="edge21_Node000001_Node000014" class="edge">
<title>Node1&#45;&gt;Node14</title>
<g id="a_edge21_Node000001_Node000014"><a xlink:title=" ">
<path fill="none" stroke="#63b8ff" d="M236.27,-223.77C180.02,-218.24 106.06,-206.78 87.5,-184 61.12,-151.64 101.71,-105.29 127.28,-81.27"/>
<polygon fill="#63b8ff" stroke="#63b8ff" points="129.9,-83.62 134.94,-74.31 125.19,-78.44 129.9,-83.62"/>
</a>
</g>
</g>
<!-- Node8 -->
<g id="Node000008" class="node">
<title>Node8</title>
<g id="a_Node000008"><a xlink:href="Tank_8h.html" target="_top" xlink:title="Abstract tank base class with shooting, bonuses, and combat mechanics.">
<polygon fill="white" stroke="#666666" points="196.5,-129 148.5,-129 148.5,-110 196.5,-110 196.5,-129"/>
<text text-anchor="middle" x="172.5" y="-117" font-family="Helvetica,sans-Serif" font-size="10.00">Tank.h</text>
</a>
</g>
</g>
<!-- Node7&#45;&gt;Node8 -->
<g id="edge7_Node000007_Node000008" class="edge">
<title>Node7&#45;&gt;Node8</title>
<g id="a_edge7_Node000007_Node000008"><a xlink:title=" ">
<path fill="none" stroke="#63b8ff" d="M141.61,-164.75C146.78,-157.34 154.35,-146.5 160.69,-137.41"/>
<polygon fill="#63b8ff" stroke="#63b8ff" points="163.65,-139.29 166.5,-129.09 157.91,-135.29 163.65,-139.29"/>
</a>
</g>
</g>
<!-- Node8&#45;&gt;Node6 -->
<g id="edge8_Node000008_Node000006" class="edge">
<title>Node8&#45;&gt;Node6</title>
<g id="a_edge8_Node000008_Node000006"><a xlink:title=" ">
<path fill="none" stroke="#63b8ff" d="M177.9,-109.66C188.83,-91.77 213.75,-51 227.99,-27.69"/>
<polygon fill="#63b8ff" stroke="#63b8ff" points="230.98,-29.52 233.21,-19.16 225.01,-25.87 230.98,-29.52"/>
</a>
</g>
</g>
<!-- Node8&#45;&gt;Node9 -->
<g id="edge9_Node000008_Node000009" class="edge">
<title>Node8&#45;&gt;Node9</title>
<g id="a_edge9_Node000008_Node000009"><a xlink:title=" ">
<path fill="none" stroke="#63b8ff" d="M153.7,-109.98C134.88,-101.46 105.68,-88.23 84,-78.41"/>
<polygon fill="#63b8ff" stroke="#63b8ff" points="85.19,-75.11 74.64,-74.17 82.3,-81.48 85.19,-75.11"/>
</a>
</g>
</g>
<!-- Node8&#45;&gt;Node10 -->
<g id="edge12_Node000008_Node000010" class="edge">
<title>Node8&#45;&gt;Node10</title>
<g id="a_edge12_Node000008_Node000010"><a xlink:title=" ">
<path fill="none" stroke="#63b8ff" d="M187.6,-109.98C202.32,-101.69 224.92,-88.94 242.17,-79.22"/>
<polygon fill="#63b8ff" stroke="#63b8ff" points="244.13,-82.13 251.12,-74.17 240.69,-76.03 244.13,-82.13"/>
</a>
</g>
</g>
<!-- Node9&#45;&gt;Node2 -->
<g id="edge11_Node000009_Node000002" class="edge">
<title>Node9&#45;&gt;Node2</title>
<g id="a_edge11_Node000009_Node000002"><a xlink:title=" ">
<path fill="none" stroke="#63b8ff" d="M50.22,-54.75C45.79,-47.42 39.34,-36.73 33.88,-27.7"/>
<polygon fill="#63b8ff" stroke="#63b8ff" points="36.85,-25.84 28.69,-19.09 30.86,-29.46 36.85,-25.84"/>
</a>
</g>
</g>
<!-- Node9&#45;&gt;Node6 -->
<g id="edge10_Node000009_Node000006" class="edge">
<title>Node9&#45;&gt;Node6</title>
<g id="a_edge10_Node000009_Node000006"><a xlink:title=" ">
<path fill="none" stroke="#63b8ff" d="M84.9,-54.98C115.89,-46.01 164.88,-31.82 199.17,-21.89"/>
<polygon fill="#63b8ff" stroke="#63b8ff" points="200.24,-25.23 208.87,-19.08 198.29,-18.5 200.24,-25.23"/>
</a>
</g>
</g>
<!-- Node10&#45;&gt;Node6 -->
<g id="edge13_Node000010_Node000006" class="edge">
<title>Node10&#45;&gt;Node6</title>
<g id="a_edge13_Node000010_Node000006"><a xlink:title=" ">
<path fill="none" stroke="#63b8ff" d="M261.88,-54.75C258.04,-47.49 252.48,-36.95 247.74,-27.98"/>
<polygon fill="#63b8ff" stroke="#63b8ff" points="250.8,-26.3 243.04,-19.09 244.61,-29.57 250.8,-26.3"/>
</a>
</g>
</g>
<!-- Node11&#45;&gt;Node8 -->
<g id="edge15_Node000011_Node000008" class="edge">
<title>Node11&#45;&gt;Node8</title>
<g id="a_edge15_Node000011_Node000008"><a xlink:title=" ">
<path fill="none" stroke="#63b8ff" d="M224.54,-164.98C215.37,-157.15 201.56,-145.34 190.47,-135.86"/>
<polygon fill="#63b8ff" stroke="#63b8ff" points="192.52,-133.01 182.64,-129.17 187.97,-138.33 192.52,-133.01"/>
</a>
</g>
</g>
<!-- Node12 -->
<g id="Node000012" class="node">
<title>Node12</title>
<g id="a_Node000012"><a xlink:title=" ">
<polygon fill="#e0e0e0" stroke="#999999" points="268,-129 215,-129 215,-110 268,-110 268,-129"/>
<text text-anchor="middle" x="241.5" y="-117" font-family="Helvetica,sans-Serif" font-size="10.00">stdlib.h</text>
</a>
</g>
</g>
<!-- Node11&#45;&gt;Node12 -->
<g id="edge16_Node000011_Node000012" class="edge">
<title>Node11&#45;&gt;Node12</title>
<g id="a_edge16_Node000011_Node000012"><a xlink:title=" ">
<path fill="none" stroke="#63b8ff" d="M235.66,-164.75C236.57,-157.8 237.89,-147.85 239.04,-139.13"/>
<polygon fill="#63b8ff" stroke="#63b8ff" points="242.53,-139.46 240.37,-129.09 235.59,-138.54 242.53,-139.46"/>
</a>
</g>
</g>
<!-- Node13&#45;&gt;Node6 -->
<g id="edge18_Node000013_Node000006" class="edge">
<title>Node13&#45;&gt;Node6</title>
<g id="a_edge18_Node000013_Node000006"><a xlink:title=" ">
<path fill="none" stroke="#63b8ff" d="M399.07,-109.88C391.74,-96.39 375.84,-70.26 355.5,-55 334.98,-39.61 308.51,-28.95 285.94,-21.93"/>
<polygon fill="#63b8ff" stroke="#63b8ff" points="286.79,-18.53 276.21,-19.05 284.8,-25.25 286.79,-18.53"/>
</a>
</g>
</g>
<!-- Node14&#45;&gt;Node6 -->
<g id="edge22_Node000014_Node000006" class="edge">
<title>Node14&#45;&gt;Node6</title>
<g id="a_edge22_Node000014_Node000006"><a xlink:title=" ">
<path fill="none" stroke="#63b8ff" d="M160.44,-54.98C175,-46.69 197.37,-33.94 214.43,-24.22"/>
<polygon fill="#63b8ff" stroke="#63b8ff" points="216.33,-27.16 223.29,-19.17 212.86,-21.08 216.33,-27.16"/>
</a>
</g>
</g>
</g>
</svg>
