<?xml version="1.0" encoding="UTF-8" standalone="no"?>
<!DOCTYPE svg PUBLIC "-//W3C//DTD SVG 1.1//EN"
 "http://www.w3.org/Graphics/SVG/1.1/DTD/svg11.dtd">
<!-- Generated by graphviz version 2.43.0 (0)
 -->
<!-- Title: Graphical Class Hierarchy Pages: 1 -->
<svg width="294pt" height="212pt"
 viewBox="0.00 0.00 294.00 212.00" xmlns="http://www.w3.org/2000/svg" xmlns:xlink="http://www.w3.org/1999/xlink">
<g id="graph0" class="graph" transform="scale(1 1) rotate(0) translate(4 208)">
<title>Graphical Class Hierarchy</title>
<!-- Node0 -->
<g id="Node000000" class="node">
<title>Node0</title>
<g id="a_Node000000"><a xlink:href="classGameObject.html" target="_top" xlink:title="Abstract base class for all game objects.">
<polygon fill="white" stroke="#666666" points="77,-130 0,-130 0,-111 77,-111 77,-130"/>
<text text-anchor="middle" x="38.5" y="-118" font-family="Helvetica,sans-Serif" font-size="10.00">GameObject</text>
</a>
</g>
</g>
<!-- Node1 -->
<g id="Node000001" class="node">
<title>Node1</title>
<g id="a_Node000001"><a xlink:href="classBonus.html" target="_top" xlink:title="Represents a bonus object in the game.">
<polygon fill="white" stroke="#666666" points="168.5,-204 121.5,-204 121.5,-185 168.5,-185 168.5,-204"/>
<text text-anchor="middle" x="145" y="-192" font-family="Helvetica,sans-Serif" font-size="10.00">Bonus</text>
</a>
</g>
</g>
<!-- Node0&#45;&gt;Node1 -->
<g id="edge1_Node000000_Node000001" class="edge">
<title>Node0&#45;&gt;Node1</title>
<g id="a_edge1_Node000000_Node000001"><a xlink:title=" ">
<path fill="none" stroke="#63b8ff" d="M58.94,-136.37C73.48,-147.98 94.04,-163.84 113,-176.5 117.35,-179.4 122.18,-182.34 126.71,-184.97"/>
<polygon fill="#63b8ff" stroke="#63b8ff" points="61.12,-133.63 51.13,-130.09 56.73,-139.09 61.12,-133.63"/>
</a>
</g>
</g>
<!-- Node2 -->
<g id="Node000002" class="node">
<title>Node2</title>
<g id="a_Node000002"><a xlink:href="classExplosion.html" target="_top" xlink:title="Class representing an explosion effect.">
<polygon fill="white" stroke="#666666" points="177,-167 113,-167 113,-148 177,-148 177,-167"/>
<text text-anchor="middle" x="145" y="-155" font-family="Helvetica,sans-Serif" font-size="10.00">Explosion</text>
</a>
</g>
</g>
<!-- Node0&#45;&gt;Node2 -->
<g id="edge2_Node000000_Node000002" class="edge">
<title>Node0&#45;&gt;Node2</title>
<g id="a_edge2_Node000000_Node000002"><a xlink:title=" ">
<path fill="none" stroke="#63b8ff" d="M75.87,-133.38C89.32,-138.14 104.32,-143.45 116.82,-147.88"/>
<polygon fill="#63b8ff" stroke="#63b8ff" points="77.01,-130.07 66.41,-130.03 74.67,-136.67 77.01,-130.07"/>
</a>
</g>
</g>
<!-- Node3 -->
<g id="Node000003" class="node">
<title>Node3</title>
<g id="a_Node000003"><a xlink:href="classObstacle.html" target="_top" xlink:title="Base class for all environmental obstacles.">
<polygon fill="white" stroke="#666666" points="174.5,-130 115.5,-130 115.5,-111 174.5,-111 174.5,-130"/>
<text text-anchor="middle" x="145" y="-118" font-family="Helvetica,sans-Serif" font-size="10.00">Obstacle</text>
</a>
</g>
</g>
<!-- Node0&#45;&gt;Node3 -->
<g id="edge3_Node000000_Node000003" class="edge">
<title>Node0&#45;&gt;Node3</title>
<g id="a_edge3_Node000000_Node000003"><a xlink:title=" ">
<path fill="none" stroke="#63b8ff" d="M87.39,-120.5C96.89,-120.5 106.57,-120.5 115.19,-120.5"/>
<polygon fill="#63b8ff" stroke="#63b8ff" points="87.23,-117 77.23,-120.5 87.23,-124 87.23,-117"/>
</a>
</g>
</g>
<!-- Node7 -->
<g id="Node000007" class="node">
<title>Node7</title>
<g id="a_Node000007"><a xlink:href="classProjectile.html" target="_top" xlink:title="Class representing a projectile fired by tanks.">
<polygon fill="white" stroke="#666666" points="176,-93 114,-93 114,-74 176,-74 176,-93"/>
<text text-anchor="middle" x="145" y="-81" font-family="Helvetica,sans-Serif" font-size="10.00">Projectile</text>
</a>
</g>
</g>
<!-- Node0&#45;&gt;Node7 -->
<g id="edge7_Node000000_Node000007" class="edge">
<title>Node0&#45;&gt;Node7</title>
<g id="a_edge7_Node000000_Node000007"><a xlink:title=" ">
<path fill="none" stroke="#63b8ff" d="M75.87,-107.62C89.32,-102.86 104.32,-97.55 116.82,-93.12"/>
<polygon fill="#63b8ff" stroke="#63b8ff" points="74.67,-104.33 66.41,-110.97 77.01,-110.93 74.67,-104.33"/>
</a>
</g>
</g>
<!-- Node8 -->
<g id="Node000008" class="node">
<title>Node8</title>
<g id="a_Node000008"><a xlink:href="classTank.html" target="_top" xlink:title="Abstract base class for all tank entities.">
<polygon fill="white" stroke="#666666" points="164.5,-56 125.5,-56 125.5,-37 164.5,-37 164.5,-56"/>
<text text-anchor="middle" x="145" y="-44" font-family="Helvetica,sans-Serif" font-size="10.00">Tank</text>
</a>
</g>
</g>
<!-- Node0&#45;&gt;Node8 -->
<g id="edge8_Node000000_Node000008" class="edge">
<title>Node0&#45;&gt;Node8</title>
<g id="a_edge8_Node000000_Node000008"><a xlink:title=" ">
<path fill="none" stroke="#63b8ff" d="M60,-104.36C74.54,-93.11 94.65,-77.95 113,-65.5 117.7,-62.31 122.93,-59.02 127.73,-56.08"/>
<polygon fill="#63b8ff" stroke="#63b8ff" points="57.47,-101.89 51.73,-110.8 61.77,-107.42 57.47,-101.89"/>
</a>
</g>
</g>
<!-- Node4 -->
<g id="Node000004" class="node">
<title>Node4</title>
<g id="a_Node000004"><a xlink:href="classForest.html" target="_top" xlink:title="Class representing a forest obstacle.">
<polygon fill="white" stroke="#666666" points="273,-167 226,-167 226,-148 273,-148 273,-167"/>
<text text-anchor="middle" x="249.5" y="-155" font-family="Helvetica,sans-Serif" font-size="10.00">Forest</text>
</a>
</g>
</g>
<!-- Node3&#45;&gt;Node4 -->
<g id="edge4_Node000003_Node000004" class="edge">
<title>Node3&#45;&gt;Node4</title>
<g id="a_edge4_Node000003_Node000004"><a xlink:title=" ">
<path fill="none" stroke="#63b8ff" d="M182.09,-133.53C196.58,-138.76 212.86,-144.64 225.67,-149.26"/>
<polygon fill="#63b8ff" stroke="#63b8ff" points="182.99,-130.13 172.4,-130.03 180.61,-136.72 182.99,-130.13"/>
</a>
</g>
</g>
<!-- Node5 -->
<g id="Node000005" class="node">
<title>Node5</title>
<g id="a_Node000005"><a xlink:href="classSteelWall.html" target="_top" xlink:title="Class representing a steel wall obstacle.">
<polygon fill="white" stroke="#666666" points="280.5,-130 218.5,-130 218.5,-111 280.5,-111 280.5,-130"/>
<text text-anchor="middle" x="249.5" y="-118" font-family="Helvetica,sans-Serif" font-size="10.00">SteelWall</text>
</a>
</g>
</g>
<!-- Node3&#45;&gt;Node5 -->
<g id="edge5_Node000003_Node000005" class="edge">
<title>Node3&#45;&gt;Node5</title>
<g id="a_edge5_Node000003_Node000005"><a xlink:title=" ">
<path fill="none" stroke="#63b8ff" d="M184.85,-120.5C195.93,-120.5 207.83,-120.5 218.31,-120.5"/>
<polygon fill="#63b8ff" stroke="#63b8ff" points="184.55,-117 174.55,-120.5 184.55,-124 184.55,-117"/>
</a>
</g>
</g>
<!-- Node6 -->
<g id="Node000006" class="node">
<title>Node6</title>
<g id="a_Node000006"><a xlink:href="classWater.html" target="_top" xlink:title="Class representing a water obstacle.">
<polygon fill="white" stroke="#666666" points="272,-93 227,-93 227,-74 272,-74 272,-93"/>
<text text-anchor="middle" x="249.5" y="-81" font-family="Helvetica,sans-Serif" font-size="10.00">Water</text>
</a>
</g>
</g>
<!-- Node3&#45;&gt;Node6 -->
<g id="edge6_Node000003_Node000006" class="edge">
<title>Node3&#45;&gt;Node6</title>
<g id="a_edge6_Node000003_Node000006"><a xlink:title=" ">
<path fill="none" stroke="#63b8ff" d="M181.87,-107.55C196.81,-102.16 213.67,-96.07 226.69,-91.37"/>
<polygon fill="#63b8ff" stroke="#63b8ff" points="180.61,-104.28 172.4,-110.97 182.99,-110.87 180.61,-104.28"/>
</a>
</g>
</g>
<!-- Node9 -->
<g id="Node000009" class="node">
<title>Node9</title>
<g id="a_Node000009"><a xlink:href="classEnemyTank.html" target="_top" xlink:title="Class representing enemy tanks with AI behavior.">
<polygon fill="white" stroke="#666666" points="286,-56 213,-56 213,-37 286,-37 286,-56"/>
<text text-anchor="middle" x="249.5" y="-44" font-family="Helvetica,sans-Serif" font-size="10.00">EnemyTank</text>
</a>
</g>
</g>
<!-- Node8&#45;&gt;Node9 -->
<g id="edge9_Node000008_Node000009" class="edge">
<title>Node8&#45;&gt;Node9</title>
<g id="a_edge9_Node000008_Node000009"><a xlink:title=" ">
<path fill="none" stroke="#63b8ff" d="M174.96,-46.5C186.73,-46.5 200.44,-46.5 212.81,-46.5"/>
<polygon fill="#63b8ff" stroke="#63b8ff" points="174.8,-43 164.8,-46.5 174.8,-50 174.8,-43"/>
</a>
</g>
</g>
<!-- Node10 -->
<g id="Node000010" class="node">
<title>Node10</title>
<g id="a_Node000010"><a xlink:href="classPlayerTank.html" target="_top" xlink:title="Class representing the player&#45;controlled tank.">
<polygon fill="white" stroke="#666666" points="284.5,-19 214.5,-19 214.5,0 284.5,0 284.5,-19"/>
<text text-anchor="middle" x="249.5" y="-7" font-family="Helvetica,sans-Serif" font-size="10.00">PlayerTank</text>
</a>
</g>
</g>
<!-- Node8&#45;&gt;Node10 -->
<g id="edge10_Node000008_Node000010" class="edge">
<title>Node8&#45;&gt;Node10</title>
<g id="a_edge10_Node000008_Node000010"><a xlink:title=" ">
<path fill="none" stroke="#63b8ff" d="M174.52,-36.21C189.41,-30.83 207.53,-24.29 222.1,-19.03"/>
<polygon fill="#63b8ff" stroke="#63b8ff" points="173.02,-33.03 164.8,-39.71 175.39,-39.61 173.02,-33.03"/>
</a>
</g>
</g>
</g>
</svg>
