<?xml version="1.0" encoding="UTF-8" standalone="no"?>
<!DOCTYPE svg PUBLIC "-//W3C//DTD SVG 1.1//EN"
 "http://www.w3.org/Graphics/SVG/1.1/DTD/svg11.dtd">
<!-- Generated by graphviz version 2.43.0 (0)
 -->
<!-- Title: main.cpp Pages: 1 -->
<svg width="1328pt" height="467pt"
 viewBox="0.00 0.00 1327.94 467.00" xmlns="http://www.w3.org/2000/svg" xmlns:xlink="http://www.w3.org/1999/xlink">
<g id="graph0" class="graph" transform="scale(1 1) rotate(0) translate(4 463)">
<title>main.cpp</title>
<!-- Node1 -->
<g id="Node000001" class="node">
<title>Node1</title>
<g id="a_Node000001"><a xlink:title="Main entry point for the Tank Simulator game.">
<polygon fill="#999999" stroke="#666666" points="845,-459 783,-459 783,-440 845,-440 845,-459"/>
<text text-anchor="middle" x="814" y="-447" font-family="Helvetica,sans-Serif" font-size="10.00">main.cpp</text>
</a>
</g>
</g>
<!-- Node2 -->
<g id="Node000002" class="node">
<title>Node2</title>
<g id="a_Node000002"><a xlink:title=" ">
<polygon fill="#e0e0e0" stroke="#999999" points="664,-294 604,-294 604,-275 664,-275 664,-294"/>
<text text-anchor="middle" x="634" y="-282" font-family="Helvetica,sans-Serif" font-size="10.00">iostream</text>
</a>
</g>
</g>
<!-- Node1&#45;&gt;Node2 -->
<g id="edge1_Node000001_Node000002" class="edge">
<title>Node1&#45;&gt;Node2</title>
<g id="a_edge1_Node000001_Node000002"><a xlink:title=" ">
<path fill="none" stroke="#63b8ff" d="M782.94,-442.75C738.22,-432.62 657.21,-406.9 622,-349 613.64,-335.25 618.41,-316.97 624.23,-303.56"/>
<polygon fill="#63b8ff" stroke="#63b8ff" points="627.46,-304.93 628.68,-294.4 621.16,-301.87 627.46,-304.93"/>
</a>
</g>
</g>
<!-- Node3 -->
<g id="Node000003" class="node">
<title>Node3</title>
<g id="a_Node000003"><a xlink:href="GameController_8h.html" target="_top" xlink:title="Central game controller coordinating model, view, and input systems.">
<polygon fill="white" stroke="#666666" points="890,-404 738,-404 738,-385 890,-385 890,-404"/>
<text text-anchor="middle" x="814" y="-392" font-family="Helvetica,sans-Serif" font-size="10.00">controller/GameController.h</text>
</a>
</g>
</g>
<!-- Node1&#45;&gt;Node3 -->
<g id="edge2_Node000001_Node000003" class="edge">
<title>Node1&#45;&gt;Node3</title>
<g id="a_edge2_Node000001_Node000003"><a xlink:title=" ">
<path fill="none" stroke="#63b8ff" d="M814,-439.75C814,-432.8 814,-422.85 814,-414.13"/>
<polygon fill="#63b8ff" stroke="#63b8ff" points="817.5,-414.09 814,-404.09 810.5,-414.09 817.5,-414.09"/>
</a>
</g>
</g>
<!-- Node15 -->
<g id="Node000015" class="node">
<title>Node15</title>
<g id="a_Node000015"><a xlink:title=" ">
<polygon fill="#e0e0e0" stroke="#999999" points="866,-184 802,-184 802,-165 866,-165 866,-184"/>
<text text-anchor="middle" x="834" y="-172" font-family="Helvetica,sans-Serif" font-size="10.00">algorithm</text>
</a>
</g>
</g>
<!-- Node1&#45;&gt;Node15 -->
<g id="edge62_Node000001_Node000015" class="edge">
<title>Node1&#45;&gt;Node15</title>
<g id="a_edge62_Node000001_Node000015"><a xlink:title=" ">
<path fill="none" stroke="#63b8ff" d="M845.21,-448.52C955.31,-447.76 1319,-437.89 1319,-340.5 1319,-340.5 1319,-340.5 1319,-283.5 1319,-254.04 1322.76,-238.7 1300,-220 1267.64,-193.42 985.25,-180.79 876.47,-176.88"/>
<polygon fill="#63b8ff" stroke="#63b8ff" points="876.31,-173.37 866.2,-176.52 876.07,-180.37 876.31,-173.37"/>
</a>
</g>
</g>
<!-- Node3&#45;&gt;Node2 -->
<g id="edge59_Node000003_Node000002" class="edge">
<title>Node3&#45;&gt;Node2</title>
<g id="a_edge59_Node000003_Node000002"><a xlink:title=" ">
<path fill="none" stroke="#63b8ff" d="M742.38,-384.98C697.92,-378.05 646.73,-366.51 633,-349 623.23,-336.54 624.74,-318.08 627.94,-304.27"/>
<polygon fill="#63b8ff" stroke="#63b8ff" points="631.38,-304.96 630.69,-294.39 624.64,-303.08 631.38,-304.96"/>
</a>
</g>
</g>
<!-- Node4 -->
<g id="Node000004" class="node">
<title>Node4</title>
<g id="a_Node000004"><a xlink:href="InputHandler_8h.html" target="_top" xlink:title="Handles user input and maps keystrokes to game commands.">
<polygon fill="white" stroke="#666666" points="1284,-349 1138,-349 1138,-330 1284,-330 1284,-349"/>
<text text-anchor="middle" x="1211" y="-337" font-family="Helvetica,sans-Serif" font-size="10.00">../controller/InputHandler.h</text>
</a>
</g>
</g>
<!-- Node3&#45;&gt;Node4 -->
<g id="edge3_Node000003_Node000004" class="edge">
<title>Node3&#45;&gt;Node4</title>
<g id="a_edge3_Node000003_Node000004"><a xlink:title=" ">
<path fill="none" stroke="#63b8ff" d="M877.78,-384.98C948.44,-375.55 1062.2,-360.36 1136.79,-350.41"/>
<polygon fill="#63b8ff" stroke="#63b8ff" points="1137.6,-353.83 1147.04,-349.04 1136.67,-346.89 1137.6,-353.83"/>
</a>
</g>
</g>
<!-- Node6 -->
<g id="Node000006" class="node">
<title>Node6</title>
<g id="a_Node000006"><a xlink:title=" ">
<polygon fill="#e0e0e0" stroke="#999999" points="980,-239 936,-239 936,-220 980,-220 980,-239"/>
<text text-anchor="middle" x="958" y="-227" font-family="Helvetica,sans-Serif" font-size="10.00">string</text>
</a>
</g>
</g>
<!-- Node3&#45;&gt;Node6 -->
<g id="edge60_Node000003_Node000006" class="edge">
<title>Node3&#45;&gt;Node6</title>
<g id="a_edge60_Node000003_Node000006"><a xlink:title=" ">
<path fill="none" stroke="#63b8ff" d="M890.13,-389.65C952.09,-384.73 1032.5,-373.67 1053,-349 1058.4,-342.51 1056.14,-337.84 1053,-330 1038.19,-293.04 1002.38,-262.03 979.21,-244.88"/>
<polygon fill="#63b8ff" stroke="#63b8ff" points="981.18,-241.99 971.01,-239.01 977.1,-247.68 981.18,-241.99"/>
</a>
</g>
</g>
<!-- Node11 -->
<g id="Node000011" class="node">
<title>Node11</title>
<g id="a_Node000011"><a xlink:title=" ">
<polygon fill="#e0e0e0" stroke="#999999" points="1093,-294 1055,-294 1055,-275 1093,-275 1093,-294"/>
<text text-anchor="middle" x="1074" y="-282" font-family="Helvetica,sans-Serif" font-size="10.00">map</text>
</a>
</g>
</g>
<!-- Node3&#45;&gt;Node11 -->
<g id="edge57_Node000003_Node000011" class="edge">
<title>Node3&#45;&gt;Node11</title>
<g id="a_edge57_Node000003_Node000011"><a xlink:title=" ">
<path fill="none" stroke="#63b8ff" d="M890.28,-391.69C961.78,-388.2 1061.29,-378.08 1086,-349 1096.76,-336.34 1091.06,-317.08 1084.34,-303.1"/>
<polygon fill="#63b8ff" stroke="#63b8ff" points="1087.28,-301.18 1079.49,-294.01 1081.11,-304.48 1087.28,-301.18"/>
</a>
</g>
</g>
<!-- Node12 -->
<g id="Node000012" class="node">
<title>Node12</title>
<g id="a_Node000012"><a xlink:href="GameWorld_8h.html" target="_top" xlink:title="Main game world manager handling objects, collisions, states, and game logic.">
<polygon fill="white" stroke="#666666" points="504.5,-239 379.5,-239 379.5,-220 504.5,-220 504.5,-239"/>
<text text-anchor="middle" x="442" y="-227" font-family="Helvetica,sans-Serif" font-size="10.00">../model/GameWorld.h</text>
</a>
</g>
</g>
<!-- Node3&#45;&gt;Node12 -->
<g id="edge12_Node000003_Node000012" class="edge">
<title>Node3&#45;&gt;Node12</title>
<g id="a_edge12_Node000003_Node000012"><a xlink:title=" ">
<path fill="none" stroke="#63b8ff" d="M737.98,-386.64C674.68,-379.74 590.46,-367.47 562,-349 528.71,-327.39 540.46,-302.67 512,-275 499.25,-262.6 482.51,-251.81 468.6,-243.96"/>
<polygon fill="#63b8ff" stroke="#63b8ff" points="469.96,-240.71 459.5,-239.01 466.61,-246.86 469.96,-240.71"/>
</a>
</g>
</g>
<!-- Node13 -->
<g id="Node000013" class="node">
<title>Node13</title>
<g id="a_Node000013"><a xlink:title=" ">
<polygon fill="#e0e0e0" stroke="#999999" points="702.5,-19 655.5,-19 655.5,0 702.5,0 702.5,-19"/>
<text text-anchor="middle" x="679" y="-7" font-family="Helvetica,sans-Serif" font-size="10.00">vector</text>
</a>
</g>
</g>
<!-- Node3&#45;&gt;Node13 -->
<g id="edge58_Node000003_Node000013" class="edge">
<title>Node3&#45;&gt;Node13</title>
<g id="a_edge58_Node000003_Node000013"><a xlink:title=" ">
<path fill="none" stroke="#63b8ff" d="M737.66,-390.97C699.46,-386.19 654.56,-374.85 622,-349 594.58,-327.23 578.48,-305.87 595,-275 608.61,-249.57 627.91,-258.68 649,-239 675.06,-214.68 698,-211.15 698,-175.5 698,-175.5 698,-175.5 698,-118.5 698,-86.56 689.84,-50.1 684.22,-28.77"/>
<polygon fill="#63b8ff" stroke="#63b8ff" points="687.58,-27.81 681.56,-19.09 680.83,-29.66 687.58,-27.81"/>
</a>
</g>
</g>
<!-- Node26 -->
<g id="Node000026" class="node">
<title>Node26</title>
<g id="a_Node000026"><a xlink:href="MapManager_8h.html" target="_top" xlink:title="Manages game maps, level generation, and procedural content.">
<polygon fill="white" stroke="#666666" points="503,-294 381,-294 381,-275 503,-275 503,-294"/>
<text text-anchor="middle" x="442" y="-282" font-family="Helvetica,sans-Serif" font-size="10.00">../utils/MapManager.h</text>
</a>
</g>
</g>
<!-- Node3&#45;&gt;Node26 -->
<g id="edge35_Node000003_Node000026" class="edge">
<title>Node3&#45;&gt;Node26</title>
<g id="a_edge35_Node000003_Node000026"><a xlink:title=" ">
<path fill="none" stroke="#63b8ff" d="M737.85,-392.2C677.63,-388.76 592.57,-378.44 524,-349 497.79,-337.75 472.63,-316.11 457.24,-301.25"/>
<polygon fill="#63b8ff" stroke="#63b8ff" points="459.7,-298.75 450.14,-294.18 454.76,-303.72 459.7,-298.75"/>
</a>
</g>
</g>
<!-- Node28 -->
<g id="Node000028" class="node">
<title>Node28</title>
<g id="a_Node000028"><a xlink:href="ScoreManager_8h.html" target="_top" xlink:title="Manages high scores, leaderboards, and player achievements.">
<polygon fill="white" stroke="#666666" points="892,-294 764,-294 764,-275 892,-275 892,-294"/>
<text text-anchor="middle" x="828" y="-282" font-family="Helvetica,sans-Serif" font-size="10.00">../utils/ScoreManager.h</text>
</a>
</g>
</g>
<!-- Node3&#45;&gt;Node28 -->
<g id="edge43_Node000003_Node000028" class="edge">
<title>Node3&#45;&gt;Node28</title>
<g id="a_edge43_Node000003_Node000028"><a xlink:title=" ">
<path fill="none" stroke="#63b8ff" d="M815.15,-384.66C817.41,-367.17 822.52,-327.8 825.57,-304.27"/>
<polygon fill="#63b8ff" stroke="#63b8ff" points="829.06,-304.53 826.88,-294.16 822.12,-303.63 829.06,-304.53"/>
</a>
</g>
</g>
<!-- Node29 -->
<g id="Node000029" class="node">
<title>Node29</title>
<g id="a_Node000029"><a xlink:href="ConsoleRenderer_8h.html" target="_top" xlink:title="Renders game state, menus, and UI elements to the console.">
<polygon fill="white" stroke="#666666" points="785.5,-349 642.5,-349 642.5,-330 785.5,-330 785.5,-349"/>
<text text-anchor="middle" x="714" y="-337" font-family="Helvetica,sans-Serif" font-size="10.00">../view/ConsoleRenderer.h</text>
</a>
</g>
</g>
<!-- Node3&#45;&gt;Node29 -->
<g id="edge47_Node000003_Node000029" class="edge">
<title>Node3&#45;&gt;Node29</title>
<g id="a_edge47_Node000003_Node000029"><a xlink:title=" ">
<path fill="none" stroke="#63b8ff" d="M797.93,-384.98C782.14,-376.61 757.78,-363.7 739.37,-353.95"/>
<polygon fill="#63b8ff" stroke="#63b8ff" points="740.83,-350.76 730.36,-349.17 737.56,-356.95 740.83,-350.76"/>
</a>
</g>
</g>
<!-- Node30 -->
<g id="Node000030" class="node">
<title>Node30</title>
<g id="a_Node000030"><a xlink:href="SettingsManager_8h.html" target="_top" xlink:title="Manages game configuration settings and user preferences.">
<polygon fill="white" stroke="#666666" points="982,-349 842,-349 842,-330 982,-330 982,-349"/>
<text text-anchor="middle" x="912" y="-337" font-family="Helvetica,sans-Serif" font-size="10.00">../utils/SettingsManager.h</text>
</a>
</g>
</g>
<!-- Node3&#45;&gt;Node30 -->
<g id="edge54_Node000003_Node000030" class="edge">
<title>Node3&#45;&gt;Node30</title>
<g id="a_edge54_Node000003_Node000030"><a xlink:title=" ">
<path fill="none" stroke="#63b8ff" d="M829.75,-384.98C845.23,-376.61 869.09,-363.7 887.14,-353.95"/>
<polygon fill="#63b8ff" stroke="#63b8ff" points="888.84,-357.01 895.97,-349.17 885.51,-350.85 888.84,-357.01"/>
</a>
</g>
</g>
<!-- Node31 -->
<g id="Node000031" class="node">
<title>Node31</title>
<g id="a_Node000031"><a xlink:title=" ">
<polygon fill="#e0e0e0" stroke="#999999" points="1044,-349 1000,-349 1000,-330 1044,-330 1044,-349"/>
<text text-anchor="middle" x="1022" y="-337" font-family="Helvetica,sans-Serif" font-size="10.00">ctime</text>
</a>
</g>
</g>
<!-- Node3&#45;&gt;Node31 -->
<g id="edge61_Node000003_Node000031" class="edge">
<title>Node3&#45;&gt;Node31</title>
<g id="a_edge61_Node000003_Node000031"><a xlink:title=" ">
<path fill="none" stroke="#63b8ff" d="M848.98,-384.94C882.7,-376.63 935.42,-363.52 989.85,-349.26"/>
<polygon fill="#63b8ff" stroke="#63b8ff" points="990.88,-352.61 999.66,-346.69 989.1,-345.84 990.88,-352.61"/>
</a>
</g>
</g>
<!-- Node5 -->
<g id="Node000005" class="node">
<title>Node5</title>
<g id="a_Node000005"><a xlink:href="PlatformUtils_8h.html" target="_top" xlink:title="Cross&#45;platform utilities for console I/O, colors, and terminal manipulation.">
<polygon fill="white" stroke="#666666" points="1272.5,-294 1149.5,-294 1149.5,-275 1272.5,-275 1272.5,-294"/>
<text text-anchor="middle" x="1211" y="-282" font-family="Helvetica,sans-Serif" font-size="10.00">../utils/PlatformUtils.h</text>
</a>
</g>
</g>
<!-- Node4&#45;&gt;Node5 -->
<g id="edge4_Node000004_Node000005" class="edge">
<title>Node4&#45;&gt;Node5</title>
<g id="a_edge4_Node000004_Node000005"><a xlink:title=" ">
<path fill="none" stroke="#63b8ff" d="M1211,-329.75C1211,-322.8 1211,-312.85 1211,-304.13"/>
<polygon fill="#63b8ff" stroke="#63b8ff" points="1214.5,-304.09 1211,-294.09 1207.5,-304.09 1214.5,-304.09"/>
</a>
</g>
</g>
<!-- Node4&#45;&gt;Node6 -->
<g id="edge11_Node000004_Node000006" class="edge">
<title>Node4&#45;&gt;Node6</title>
<g id="a_edge11_Node000004_Node000006"><a xlink:title=" ">
<path fill="none" stroke="#63b8ff" d="M1198.42,-329.88C1178.63,-316.64 1138.7,-291.11 1102,-275 1064.71,-258.63 1019.53,-245.72 989.84,-238.11"/>
<polygon fill="#63b8ff" stroke="#63b8ff" points="990.58,-234.68 980.03,-235.64 988.87,-241.47 990.58,-234.68"/>
</a>
</g>
</g>
<!-- Node4&#45;&gt;Node11 -->
<g id="edge10_Node000004_Node000011" class="edge">
<title>Node4&#45;&gt;Node11</title>
<g id="a_edge10_Node000004_Node000011"><a xlink:title=" ">
<path fill="none" stroke="#63b8ff" d="M1188.99,-329.98C1165.62,-320.94 1128.58,-306.61 1102.88,-296.67"/>
<polygon fill="#63b8ff" stroke="#63b8ff" points="1103.89,-293.31 1093.3,-292.97 1101.36,-299.84 1103.89,-293.31"/>
</a>
</g>
</g>
<!-- Node5&#45;&gt;Node6 -->
<g id="edge5_Node000005_Node000006" class="edge">
<title>Node5&#45;&gt;Node6</title>
<g id="a_edge5_Node000005_Node000006"><a xlink:title=" ">
<path fill="none" stroke="#63b8ff" d="M1167.28,-274.93C1123.4,-266.23 1053.9,-252.21 994,-239 992.73,-238.72 991.44,-238.43 990.13,-238.14"/>
<polygon fill="#63b8ff" stroke="#63b8ff" points="990.59,-234.65 980.06,-235.82 989.02,-241.47 990.59,-234.65"/>
</a>
</g>
</g>
<!-- Node7 -->
<g id="Node000007" class="node">
<title>Node7</title>
<g id="a_Node000007"><a xlink:title=" ">
<polygon fill="#e0e0e0" stroke="#999999" points="1150.5,-239 1087.5,-239 1087.5,-220 1150.5,-220 1150.5,-239"/>
<text text-anchor="middle" x="1119" y="-227" font-family="Helvetica,sans-Serif" font-size="10.00">termios.h</text>
</a>
</g>
</g>
<!-- Node5&#45;&gt;Node7 -->
<g id="edge6_Node000005_Node000007" class="edge">
<title>Node5&#45;&gt;Node7</title>
<g id="a_edge6_Node000005_Node000007"><a xlink:title=" ">
<path fill="none" stroke="#63b8ff" d="M1196.22,-274.98C1181.82,-266.69 1159.69,-253.94 1142.81,-244.22"/>
<polygon fill="#63b8ff" stroke="#63b8ff" points="1144.46,-241.13 1134.05,-239.17 1140.97,-247.19 1144.46,-241.13"/>
</a>
</g>
</g>
<!-- Node8 -->
<g id="Node000008" class="node">
<title>Node8</title>
<g id="a_Node000008"><a xlink:title=" ">
<polygon fill="#e0e0e0" stroke="#999999" points="1225,-239 1169,-239 1169,-220 1225,-220 1225,-239"/>
<text text-anchor="middle" x="1197" y="-227" font-family="Helvetica,sans-Serif" font-size="10.00">unistd.h</text>
</a>
</g>
</g>
<!-- Node5&#45;&gt;Node8 -->
<g id="edge7_Node000005_Node000008" class="edge">
<title>Node5&#45;&gt;Node8</title>
<g id="a_edge7_Node000005_Node000008"><a xlink:title=" ">
<path fill="none" stroke="#63b8ff" d="M1208.69,-274.75C1206.83,-267.72 1204.16,-257.62 1201.85,-248.84"/>
<polygon fill="#63b8ff" stroke="#63b8ff" points="1205.21,-247.86 1199.27,-239.09 1198.44,-249.65 1205.21,-247.86"/>
</a>
</g>
</g>
<!-- Node9 -->
<g id="Node000009" class="node">
<title>Node9</title>
<g id="a_Node000009"><a xlink:title=" ">
<polygon fill="#e0e0e0" stroke="#999999" points="1290.5,-239 1243.5,-239 1243.5,-220 1290.5,-220 1290.5,-239"/>
<text text-anchor="middle" x="1267" y="-227" font-family="Helvetica,sans-Serif" font-size="10.00">fcntl.h</text>
</a>
</g>
</g>
<!-- Node5&#45;&gt;Node9 -->
<g id="edge8_Node000005_Node000009" class="edge">
<title>Node5&#45;&gt;Node9</title>
<g id="a_edge8_Node000005_Node000009"><a xlink:title=" ">
<path fill="none" stroke="#63b8ff" d="M1220,-274.98C1228.19,-267.23 1240.51,-255.58 1250.47,-246.14"/>
<polygon fill="#63b8ff" stroke="#63b8ff" points="1252.98,-248.59 1257.84,-239.17 1248.17,-243.5 1252.98,-248.59"/>
</a>
</g>
</g>
<!-- Node10 -->
<g id="Node000010" class="node">
<title>Node10</title>
<g id="a_Node000010"><a xlink:title=" ">
<polygon fill="#e0e0e0" stroke="#999999" points="1069,-239 1003,-239 1003,-220 1069,-220 1069,-239"/>
<text text-anchor="middle" x="1036" y="-227" font-family="Helvetica,sans-Serif" font-size="10.00">sys/ioctl.h</text>
</a>
</g>
</g>
<!-- Node5&#45;&gt;Node10 -->
<g id="edge9_Node000005_Node000010" class="edge">
<title>Node5&#45;&gt;Node10</title>
<g id="a_edge9_Node000005_Node000010"><a xlink:title=" ">
<path fill="none" stroke="#63b8ff" d="M1182.88,-274.98C1153.38,-266.05 1106.81,-251.94 1074.03,-242.02"/>
<polygon fill="#63b8ff" stroke="#63b8ff" points="1074.92,-238.63 1064.34,-239.08 1072.89,-245.33 1074.92,-238.63"/>
</a>
</g>
</g>
<!-- Node12&#45;&gt;Node13 -->
<g id="edge13_Node000012_Node000013" class="edge">
<title>Node12&#45;&gt;Node13</title>
<g id="a_edge13_Node000012_Node000013"><a xlink:title=" ">
<path fill="none" stroke="#63b8ff" d="M504.68,-225.07C537.71,-220.15 576.71,-208.96 603,-184 646.83,-142.39 618.1,-108.61 646,-55 651.15,-45.1 658.41,-35.03 664.81,-26.98"/>
<polygon fill="#63b8ff" stroke="#63b8ff" points="667.62,-29.09 671.28,-19.14 662.22,-24.63 667.62,-29.09"/>
</a>
</g>
</g>
<!-- Node14 -->
<g id="Node000014" class="node">
<title>Node14</title>
<g id="a_Node000014"><a xlink:title=" ">
<polygon fill="#e0e0e0" stroke="#999999" points="522,-184 464,-184 464,-165 522,-165 522,-184"/>
<text text-anchor="middle" x="493" y="-172" font-family="Helvetica,sans-Serif" font-size="10.00">memory</text>
</a>
</g>
</g>
<!-- Node12&#45;&gt;Node14 -->
<g id="edge14_Node000012_Node000014" class="edge">
<title>Node12&#45;&gt;Node14</title>
<g id="a_edge14_Node000012_Node000014"><a xlink:title=" ">
<path fill="none" stroke="#63b8ff" d="M450.42,-219.75C457.77,-212.11 468.63,-200.82 477.54,-191.56"/>
<polygon fill="#63b8ff" stroke="#63b8ff" points="480.32,-193.72 484.74,-184.09 475.28,-188.87 480.32,-193.72"/>
</a>
</g>
</g>
<!-- Node12&#45;&gt;Node15 -->
<g id="edge15_Node000012_Node000015" class="edge">
<title>Node12&#45;&gt;Node15</title>
<g id="a_edge15_Node000012_Node000015"><a xlink:title=" ">
<path fill="none" stroke="#63b8ff" d="M504.55,-220.04C585.04,-209.16 722.72,-190.55 791.82,-181.2"/>
<polygon fill="#63b8ff" stroke="#63b8ff" points="792.47,-184.65 801.91,-179.84 791.53,-177.71 792.47,-184.65"/>
</a>
</g>
</g>
<!-- Node16 -->
<g id="Node000016" class="node">
<title>Node16</title>
<g id="a_Node000016"><a xlink:title=" ">
<polygon fill="#e0e0e0" stroke="#999999" points="594,-184 540,-184 540,-165 594,-165 594,-184"/>
<text text-anchor="middle" x="567" y="-172" font-family="Helvetica,sans-Serif" font-size="10.00">random</text>
</a>
</g>
</g>
<!-- Node12&#45;&gt;Node16 -->
<g id="edge16_Node000012_Node000016" class="edge">
<title>Node12&#45;&gt;Node16</title>
<g id="a_edge16_Node000012_Node000016"><a xlink:title=" ">
<path fill="none" stroke="#63b8ff" d="M462.08,-219.98C482.37,-211.38 513.96,-197.99 537.17,-188.15"/>
<polygon fill="#63b8ff" stroke="#63b8ff" points="538.71,-191.3 546.55,-184.17 535.98,-184.85 538.71,-191.3"/>
</a>
</g>
</g>
<!-- Node17 -->
<g id="Node000017" class="node">
<title>Node17</title>
<g id="a_Node000017"><a xlink:href="GameObject_8h.html" target="_top" xlink:title="Base class and structures for all game objects with position, direction, and health.">
<polygon fill="white" stroke="#666666" points="308,-19 222,-19 222,0 308,0 308,-19"/>
<text text-anchor="middle" x="265" y="-7" font-family="Helvetica,sans-Serif" font-size="10.00">GameObject.h</text>
</a>
</g>
</g>
<!-- Node12&#45;&gt;Node17 -->
<g id="edge17_Node000012_Node000017" class="edge">
<title>Node12&#45;&gt;Node17</title>
<g id="a_edge17_Node000012_Node000017"><a xlink:title=" ">
<path fill="none" stroke="#63b8ff" d="M429.51,-219.82C407.19,-203.85 359.92,-167.87 329,-129 303.39,-96.8 282.75,-52.88 272.34,-28.57"/>
<polygon fill="#63b8ff" stroke="#63b8ff" points="275.5,-27.04 268.42,-19.16 269.04,-29.74 275.5,-27.04"/>
</a>
</g>
</g>
<!-- Node18 -->
<g id="Node000018" class="node">
<title>Node18</title>
<g id="a_Node000018"><a xlink:href="PlayerTank_8h.html" target="_top" xlink:title="Player&#45;controlled tank with lives, score system, and special abilities.">
<polygon fill="white" stroke="#666666" points="331.5,-184 252.5,-184 252.5,-165 331.5,-165 331.5,-184"/>
<text text-anchor="middle" x="292" y="-172" font-family="Helvetica,sans-Serif" font-size="10.00">PlayerTank.h</text>
</a>
</g>
</g>
<!-- Node12&#45;&gt;Node18 -->
<g id="edge18_Node000012_Node000018" class="edge">
<title>Node12&#45;&gt;Node18</title>
<g id="a_edge18_Node000012_Node000018"><a xlink:title=" ">
<path fill="none" stroke="#63b8ff" d="M417.9,-219.98C393.12,-211.23 354.3,-197.51 326.31,-187.62"/>
<polygon fill="#63b8ff" stroke="#63b8ff" points="327.13,-184.2 316.54,-184.17 324.8,-190.8 327.13,-184.2"/>
</a>
</g>
</g>
<!-- Node20 -->
<g id="Node000020" class="node">
<title>Node20</title>
<g id="a_Node000020"><a xlink:href="Projectile_8h.html" target="_top" xlink:title="Projectile class for bullets fired by tanks with collision detection.">
<polygon fill="white" stroke="#666666" points="468.5,-74 397.5,-74 397.5,-55 468.5,-55 468.5,-74"/>
<text text-anchor="middle" x="433" y="-62" font-family="Helvetica,sans-Serif" font-size="10.00">Projectile.h</text>
</a>
</g>
</g>
<!-- Node12&#45;&gt;Node20 -->
<g id="edge32_Node000012_Node000020" class="edge">
<title>Node12&#45;&gt;Node20</title>
<g id="a_edge32_Node000012_Node000020"><a xlink:title=" ">
<path fill="none" stroke="#63b8ff" d="M441.52,-219.74C440.11,-194.31 436.01,-120.08 434.06,-84.69"/>
<polygon fill="#63b8ff" stroke="#63b8ff" points="437.53,-84.1 433.49,-74.31 430.54,-84.48 437.53,-84.1"/>
</a>
</g>
</g>
<!-- Node21 -->
<g id="Node000021" class="node">
<title>Node21</title>
<g id="a_Node000021"><a xlink:href="Bonus_8h.html" target="_top" xlink:title="Power&#45;up bonuses with various effects for enhancing player abilities.">
<polygon fill="white" stroke="#666666" points="237,-74 181,-74 181,-55 237,-55 237,-74"/>
<text text-anchor="middle" x="209" y="-62" font-family="Helvetica,sans-Serif" font-size="10.00">Bonus.h</text>
</a>
</g>
</g>
<!-- Node12&#45;&gt;Node21 -->
<g id="edge31_Node000012_Node000021" class="edge">
<title>Node12&#45;&gt;Node21</title>
<g id="a_edge31_Node000012_Node000021"><a xlink:title=" ">
<path fill="none" stroke="#63b8ff" d="M379.19,-223.49C296.07,-216.21 158.21,-201.64 143,-184 132.1,-171.35 135.76,-138.78 153,-110 160.5,-97.47 172.92,-87.07 184.17,-79.48"/>
<polygon fill="#63b8ff" stroke="#63b8ff" points="186.23,-82.31 192.81,-74 182.49,-76.39 186.23,-82.31"/>
</a>
</g>
</g>
<!-- Node22 -->
<g id="Node000022" class="node">
<title>Node22</title>
<g id="a_Node000022"><a xlink:href="EnemyTank_8h.html" target="_top" xlink:title="AI&#45;controlled enemy tanks with various behaviors, types, and difficulty levels.">
<polygon fill="white" stroke="#666666" points="234,-184 152,-184 152,-165 234,-165 234,-184"/>
<text text-anchor="middle" x="193" y="-172" font-family="Helvetica,sans-Serif" font-size="10.00">EnemyTank.h</text>
</a>
</g>
</g>
<!-- Node12&#45;&gt;Node22 -->
<g id="edge26_Node000012_Node000022" class="edge">
<title>Node12&#45;&gt;Node22</title>
<g id="a_edge26_Node000012_Node000022"><a xlink:title=" ">
<path fill="none" stroke="#63b8ff" d="M401.99,-219.98C358.83,-210.8 290.02,-196.15 243.24,-186.19"/>
<polygon fill="#63b8ff" stroke="#63b8ff" points="243.83,-182.74 233.32,-184.08 242.37,-189.59 243.83,-182.74"/>
</a>
</g>
</g>
<!-- Node24 -->
<g id="Node000024" class="node">
<title>Node24</title>
<g id="a_Node000024"><a xlink:href="Obstacle_8h.html" target="_top" xlink:title="Environmental obstacles including walls, water, forests, and their properties.">
<polygon fill="white" stroke="#666666" points="96,-184 28,-184 28,-165 96,-165 96,-184"/>
<text text-anchor="middle" x="62" y="-172" font-family="Helvetica,sans-Serif" font-size="10.00">Obstacle.h</text>
</a>
</g>
</g>
<!-- Node12&#45;&gt;Node24 -->
<g id="edge29_Node000012_Node000024" class="edge">
<title>Node12&#45;&gt;Node24</title>
<g id="a_edge29_Node000012_Node000024"><a xlink:title=" ">
<path fill="none" stroke="#63b8ff" d="M379.47,-220.91C312.65,-212.62 203.67,-198.56 110,-184 108.73,-183.8 107.44,-183.6 106.14,-183.39"/>
<polygon fill="#63b8ff" stroke="#63b8ff" points="106.5,-179.9 96.06,-181.71 105.35,-186.81 106.5,-179.9"/>
</a>
</g>
</g>
<!-- Node25 -->
<g id="Node000025" class="node">
<title>Node25</title>
<g id="a_Node000025"><a xlink:href="Explosion_8h.html" target="_top" xlink:title="Visual explosion effects for game events like tank destruction.">
<polygon fill="white" stroke="#666666" points="411.5,-129 338.5,-129 338.5,-110 411.5,-110 411.5,-129"/>
<text text-anchor="middle" x="375" y="-117" font-family="Helvetica,sans-Serif" font-size="10.00">Explosion.h</text>
</a>
</g>
</g>
<!-- Node12&#45;&gt;Node25 -->
<g id="edge33_Node000012_Node000025" class="edge">
<title>Node12&#45;&gt;Node25</title>
<g id="a_edge33_Node000012_Node000025"><a xlink:title=" ">
<path fill="none" stroke="#63b8ff" d="M436.52,-219.66C425.42,-201.77 400.13,-161 385.67,-137.69"/>
<polygon fill="#63b8ff" stroke="#63b8ff" points="388.62,-135.81 380.37,-129.16 382.67,-139.5 388.62,-135.81"/>
</a>
</g>
</g>
<!-- Node19 -->
<g id="Node000019" class="node">
<title>Node19</title>
<g id="a_Node000019"><a xlink:href="Tank_8h.html" target="_top" xlink:title="Abstract tank base class with shooting, bonuses, and combat mechanics.">
<polygon fill="white" stroke="#666666" points="282,-129 234,-129 234,-110 282,-110 282,-129"/>
<text text-anchor="middle" x="258" y="-117" font-family="Helvetica,sans-Serif" font-size="10.00">Tank.h</text>
</a>
</g>
</g>
<!-- Node18&#45;&gt;Node19 -->
<g id="edge19_Node000018_Node000019" class="edge">
<title>Node18&#45;&gt;Node19</title>
<g id="a_edge19_Node000018_Node000019"><a xlink:title=" ">
<path fill="none" stroke="#63b8ff" d="M286.39,-164.75C281.68,-157.42 274.83,-146.73 269.03,-137.7"/>
<polygon fill="#63b8ff" stroke="#63b8ff" points="271.86,-135.62 263.51,-129.09 265.96,-139.4 271.86,-135.62"/>
</a>
</g>
</g>
<!-- Node19&#45;&gt;Node17 -->
<g id="edge20_Node000019_Node000017" class="edge">
<title>Node19&#45;&gt;Node17</title>
<g id="a_edge20_Node000019_Node000017"><a xlink:title=" ">
<path fill="none" stroke="#63b8ff" d="M258.57,-109.66C259.71,-92.17 262.26,-52.8 263.78,-29.27"/>
<polygon fill="#63b8ff" stroke="#63b8ff" points="267.28,-29.36 264.44,-19.16 260.3,-28.91 267.28,-29.36"/>
</a>
</g>
</g>
<!-- Node19&#45;&gt;Node20 -->
<g id="edge21_Node000019_Node000020" class="edge">
<title>Node19&#45;&gt;Node20</title>
<g id="a_edge21_Node000019_Node000020"><a xlink:title=" ">
<path fill="none" stroke="#63b8ff" d="M282.33,-111.13C311.57,-102.28 360.94,-87.32 395.16,-76.96"/>
<polygon fill="#63b8ff" stroke="#63b8ff" points="396.27,-80.28 404.82,-74.03 394.24,-73.58 396.27,-80.28"/>
</a>
</g>
</g>
<!-- Node19&#45;&gt;Node21 -->
<g id="edge24_Node000019_Node000021" class="edge">
<title>Node19&#45;&gt;Node21</title>
<g id="a_edge24_Node000019_Node000021"><a xlink:title=" ">
<path fill="none" stroke="#63b8ff" d="M249.91,-109.75C242.84,-102.11 232.41,-90.82 223.85,-81.56"/>
<polygon fill="#63b8ff" stroke="#63b8ff" points="226.3,-79.06 216.94,-74.09 221.16,-83.81 226.3,-79.06"/>
</a>
</g>
</g>
<!-- Node20&#45;&gt;Node13 -->
<g id="edge23_Node000020_Node000013" class="edge">
<title>Node20&#45;&gt;Node13</title>
<g id="a_edge23_Node000020_Node000013"><a xlink:title=" ">
<path fill="none" stroke="#63b8ff" d="M468.51,-55.85C515.89,-45.64 599.17,-27.7 645.5,-17.72"/>
<polygon fill="#63b8ff" stroke="#63b8ff" points="646.31,-21.12 655.35,-15.59 644.84,-14.28 646.31,-21.12"/>
</a>
</g>
</g>
<!-- Node20&#45;&gt;Node17 -->
<g id="edge22_Node000020_Node000017" class="edge">
<title>Node20&#45;&gt;Node17</title>
<g id="a_edge22_Node000020_Node000017"><a xlink:title=" ">
<path fill="none" stroke="#63b8ff" d="M406.01,-54.98C377.8,-46.09 333.36,-32.07 301.92,-22.15"/>
<polygon fill="#63b8ff" stroke="#63b8ff" points="302.79,-18.75 292.2,-19.08 300.69,-25.43 302.79,-18.75"/>
</a>
</g>
</g>
<!-- Node21&#45;&gt;Node17 -->
<g id="edge25_Node000021_Node000017" class="edge">
<title>Node21&#45;&gt;Node17</title>
<g id="a_edge25_Node000021_Node000017"><a xlink:title=" ">
<path fill="none" stroke="#63b8ff" d="M218,-54.98C226.19,-47.23 238.51,-35.58 248.47,-26.14"/>
<polygon fill="#63b8ff" stroke="#63b8ff" points="250.98,-28.59 255.84,-19.17 246.17,-23.5 250.98,-28.59"/>
</a>
</g>
</g>
<!-- Node22&#45;&gt;Node19 -->
<g id="edge27_Node000022_Node000019" class="edge">
<title>Node22&#45;&gt;Node19</title>
<g id="a_edge27_Node000022_Node000019"><a xlink:title=" ">
<path fill="none" stroke="#63b8ff" d="M203.44,-164.98C213.15,-157.07 227.82,-145.11 239.5,-135.58"/>
<polygon fill="#63b8ff" stroke="#63b8ff" points="241.83,-138.2 247.37,-129.17 237.4,-132.78 241.83,-138.2"/>
</a>
</g>
</g>
<!-- Node23 -->
<g id="Node000023" class="node">
<title>Node23</title>
<g id="a_Node000023"><a xlink:title=" ">
<polygon fill="#e0e0e0" stroke="#999999" points="215.5,-129 162.5,-129 162.5,-110 215.5,-110 215.5,-129"/>
<text text-anchor="middle" x="189" y="-117" font-family="Helvetica,sans-Serif" font-size="10.00">stdlib.h</text>
</a>
</g>
</g>
<!-- Node22&#45;&gt;Node23 -->
<g id="edge28_Node000022_Node000023" class="edge">
<title>Node22&#45;&gt;Node23</title>
<g id="a_edge28_Node000022_Node000023"><a xlink:title=" ">
<path fill="none" stroke="#63b8ff" d="M192.34,-164.75C191.82,-157.8 191.06,-147.85 190.41,-139.13"/>
<polygon fill="#63b8ff" stroke="#63b8ff" points="193.89,-138.8 189.65,-129.09 186.91,-139.32 193.89,-138.8"/>
</a>
</g>
</g>
<!-- Node24&#45;&gt;Node17 -->
<g id="edge30_Node000024_Node000017" class="edge">
<title>Node24&#45;&gt;Node17</title>
<g id="a_edge30_Node000024_Node000017"><a xlink:title=" ">
<path fill="none" stroke="#63b8ff" d="M67.71,-164.86C76.24,-152.24 93.11,-128.26 110,-110 135.01,-82.95 141.31,-75.37 172,-55 191.21,-42.25 214.65,-31.06 233.18,-23.09"/>
<polygon fill="#63b8ff" stroke="#63b8ff" points="234.78,-26.21 242.65,-19.12 232.07,-19.76 234.78,-26.21"/>
</a>
</g>
</g>
<!-- Node25&#45;&gt;Node17 -->
<g id="edge34_Node000025_Node000017" class="edge">
<title>Node25&#45;&gt;Node17</title>
<g id="a_edge34_Node000025_Node000017"><a xlink:title=" ">
<path fill="none" stroke="#63b8ff" d="M369.01,-109.72C360.06,-96.92 342.27,-72.72 324,-55 312.55,-43.9 298.31,-33.08 286.69,-24.9"/>
<polygon fill="#63b8ff" stroke="#63b8ff" points="288.62,-21.98 278.4,-19.19 284.65,-27.74 288.62,-21.98"/>
</a>
</g>
</g>
<!-- Node26&#45;&gt;Node6 -->
<g id="edge36_Node000026_Node000006" class="edge">
<title>Node26&#45;&gt;Node6</title>
<g id="a_edge36_Node000026_Node000006"><a xlink:title=" ">
<path fill="none" stroke="#63b8ff" d="M503.22,-277.21C613.43,-265.89 841.59,-242.46 925.84,-233.8"/>
<polygon fill="#63b8ff" stroke="#63b8ff" points="926.24,-237.28 935.83,-232.78 925.53,-230.32 926.24,-237.28"/>
</a>
</g>
</g>
<!-- Node26&#45;&gt;Node12 -->
<g id="edge40_Node000026_Node000012" class="edge">
<title>Node26&#45;&gt;Node12</title>
<g id="a_edge40_Node000026_Node000012"><a xlink:title=" ">
<path fill="none" stroke="#63b8ff" d="M442,-274.75C442,-267.8 442,-257.85 442,-249.13"/>
<polygon fill="#63b8ff" stroke="#63b8ff" points="445.5,-249.09 442,-239.09 438.5,-249.09 445.5,-249.09"/>
</a>
</g>
</g>
<!-- Node26&#45;&gt;Node13 -->
<g id="edge37_Node000026_Node000013" class="edge">
<title>Node26&#45;&gt;Node13</title>
<g id="a_edge37_Node000026_Node000013"><a xlink:title=" ">
<path fill="none" stroke="#63b8ff" d="M503.02,-278.95C567.51,-270.43 660,-245.93 660,-175.5 660,-175.5 660,-175.5 660,-118.5 660,-86.56 668.16,-50.1 673.78,-28.77"/>
<polygon fill="#63b8ff" stroke="#63b8ff" points="677.17,-29.66 676.44,-19.09 670.42,-27.81 677.17,-29.66"/>
</a>
</g>
</g>
<!-- Node26&#45;&gt;Node17 -->
<g id="edge39_Node000026_Node000017" class="edge">
<title>Node26&#45;&gt;Node17</title>
<g id="a_edge39_Node000026_Node000017"><a xlink:title=" ">
<path fill="none" stroke="#63b8ff" d="M380.54,-281.24C259.09,-275.1 0,-252.91 0,-175.5 0,-175.5 0,-175.5 0,-118.5 0,-73.21 134.4,-37.65 211.77,-20.94"/>
<polygon fill="#63b8ff" stroke="#63b8ff" points="212.78,-24.3 221.83,-18.8 211.32,-17.45 212.78,-24.3"/>
</a>
</g>
</g>
<!-- Node26&#45;&gt;Node22 -->
<g id="edge42_Node000026_Node000022" class="edge">
<title>Node26&#45;&gt;Node22</title>
<g id="a_edge42_Node000026_Node000022"><a xlink:title=" ">
<path fill="none" stroke="#63b8ff" d="M429.27,-274.94C409.25,-261.76 368.9,-236.33 332,-220 300.84,-206.21 264.06,-194.63 236.16,-186.74"/>
<polygon fill="#63b8ff" stroke="#63b8ff" points="236.88,-183.31 226.31,-184 235.01,-190.05 236.88,-183.31"/>
</a>
</g>
</g>
<!-- Node26&#45;&gt;Node24 -->
<g id="edge41_Node000026_Node000024" class="edge">
<title>Node26&#45;&gt;Node24</title>
<g id="a_edge41_Node000026_Node000024"><a xlink:title=" ">
<path fill="none" stroke="#63b8ff" d="M398.06,-274.95C358.11,-266.85 297.68,-253.74 246,-239 191.79,-223.54 130.1,-201.27 93.7,-187.62"/>
<polygon fill="#63b8ff" stroke="#63b8ff" points="94.72,-184.27 84.13,-184.02 92.25,-190.82 94.72,-184.27"/>
</a>
</g>
</g>
<!-- Node27 -->
<g id="Node000027" class="node">
<title>Node27</title>
<g id="a_Node000027"><a xlink:title=" ">
<polygon fill="#e0e0e0" stroke="#999999" points="323,-239 255,-239 255,-220 323,-220 323,-239"/>
<text text-anchor="middle" x="289" y="-227" font-family="Helvetica,sans-Serif" font-size="10.00">filesystem</text>
</a>
</g>
</g>
<!-- Node26&#45;&gt;Node27 -->
<g id="edge38_Node000026_Node000027" class="edge">
<title>Node26&#45;&gt;Node27</title>
<g id="a_edge38_Node000026_Node000027"><a xlink:title=" ">
<path fill="none" stroke="#63b8ff" d="M417.42,-274.98C391.95,-266.16 351.96,-252.31 323.37,-242.41"/>
<polygon fill="#63b8ff" stroke="#63b8ff" points="324.37,-239.05 313.77,-239.08 322.08,-245.66 324.37,-239.05"/>
</a>
</g>
</g>
<!-- Node28&#45;&gt;Node6 -->
<g id="edge45_Node000028_Node000006" class="edge">
<title>Node28&#45;&gt;Node6</title>
<g id="a_edge45_Node000028_Node000006"><a xlink:title=" ">
<path fill="none" stroke="#63b8ff" d="M848.89,-274.98C870.08,-266.34 903.13,-252.87 927.3,-243.02"/>
<polygon fill="#63b8ff" stroke="#63b8ff" points="928.79,-246.19 936.73,-239.17 926.15,-239.7 928.79,-246.19"/>
</a>
</g>
</g>
<!-- Node28&#45;&gt;Node13 -->
<g id="edge44_Node000028_Node000013" class="edge">
<title>Node28&#45;&gt;Node13</title>
<g id="a_edge44_Node000028_Node000013"><a xlink:title=" ">
<path fill="none" stroke="#63b8ff" d="M820.26,-274.99C805.33,-257.64 774,-216.38 774,-175.5 774,-175.5 774,-175.5 774,-118.5 774,-88.33 769.11,-78.34 750,-55 739.14,-41.74 723.24,-31.26 709.24,-23.81"/>
<polygon fill="#63b8ff" stroke="#63b8ff" points="710.44,-20.5 699.93,-19.14 707.3,-26.75 710.44,-20.5"/>
</a>
</g>
</g>
<!-- Node28&#45;&gt;Node15 -->
<g id="edge46_Node000028_Node000015" class="edge">
<title>Node28&#45;&gt;Node15</title>
<g id="a_edge46_Node000028_Node000015"><a xlink:title=" ">
<path fill="none" stroke="#63b8ff" d="M828.49,-274.66C829.46,-257.17 831.65,-217.8 832.96,-194.27"/>
<polygon fill="#63b8ff" stroke="#63b8ff" points="836.46,-194.34 833.52,-184.16 829.47,-193.95 836.46,-194.34"/>
</a>
</g>
</g>
<!-- Node29&#45;&gt;Node2 -->
<g id="edge51_Node000029_Node000002" class="edge">
<title>Node29&#45;&gt;Node2</title>
<g id="a_edge51_Node000029_Node000002"><a xlink:title=" ">
<path fill="none" stroke="#63b8ff" d="M701.15,-329.98C688.86,-321.84 670.09,-309.41 655.52,-299.76"/>
<polygon fill="#63b8ff" stroke="#63b8ff" points="657.36,-296.78 647.09,-294.17 653.49,-302.61 657.36,-296.78"/>
</a>
</g>
</g>
<!-- Node29&#45;&gt;Node5 -->
<g id="edge50_Node000029_Node000005" class="edge">
<title>Node29&#45;&gt;Node5</title>
<g id="a_edge50_Node000029_Node000005"><a xlink:title=" ">
<path fill="none" stroke="#63b8ff" d="M785.74,-330.85C880.15,-320.78 1045.13,-303.19 1139.45,-293.13"/>
<polygon fill="#63b8ff" stroke="#63b8ff" points="1139.9,-296.6 1149.47,-292.06 1139.16,-289.64 1139.9,-296.6"/>
</a>
</g>
</g>
<!-- Node29&#45;&gt;Node6 -->
<g id="edge52_Node000029_Node000006" class="edge">
<title>Node29&#45;&gt;Node6</title>
<g id="a_edge52_Node000029_Node000006"><a xlink:title=" ">
<path fill="none" stroke="#63b8ff" d="M785.76,-331.72C822.26,-325.8 866.15,-314.72 901,-294 920.22,-282.57 936.59,-262.55 946.79,-248.03"/>
<polygon fill="#63b8ff" stroke="#63b8ff" points="949.89,-249.69 952.57,-239.44 944.09,-245.78 949.89,-249.69"/>
</a>
</g>
</g>
<!-- Node29&#45;&gt;Node12 -->
<g id="edge48_Node000029_Node000012" class="edge">
<title>Node29&#45;&gt;Node12</title>
<g id="a_edge48_Node000029_Node000012"><a xlink:title=" ">
<path fill="none" stroke="#63b8ff" d="M711.02,-329.92C705.71,-315.99 693.23,-288.66 673,-275 647.61,-257.86 572.68,-245.53 514.97,-238.25"/>
<polygon fill="#63b8ff" stroke="#63b8ff" points="515.12,-234.75 504.77,-237 514.27,-241.7 515.12,-234.75"/>
</a>
</g>
</g>
<!-- Node29&#45;&gt;Node13 -->
<g id="edge53_Node000029_Node000013" class="edge">
<title>Node29&#45;&gt;Node13</title>
<g id="a_edge53_Node000029_Node000013"><a xlink:title=" ">
<path fill="none" stroke="#63b8ff" d="M716.97,-329.94C722.97,-311.83 736,-268.2 736,-230.5 736,-230.5 736,-230.5 736,-118.5 736,-82.51 710.94,-46.76 694.05,-26.76"/>
<polygon fill="#63b8ff" stroke="#63b8ff" points="696.64,-24.4 687.41,-19.2 691.38,-29.02 696.64,-24.4"/>
</a>
</g>
</g>
<!-- Node29&#45;&gt;Node26 -->
<g id="edge49_Node000029_Node000026" class="edge">
<title>Node29&#45;&gt;Node26</title>
<g id="a_edge49_Node000029_Node000026"><a xlink:title=" ">
<path fill="none" stroke="#63b8ff" d="M670.3,-329.98C622.85,-320.74 547.03,-305.97 495.92,-296.01"/>
<polygon fill="#63b8ff" stroke="#63b8ff" points="496.53,-292.56 486.04,-294.08 495.19,-299.43 496.53,-292.56"/>
</a>
</g>
</g>
<!-- Node30&#45;&gt;Node6 -->
<g id="edge55_Node000030_Node000006" class="edge">
<title>Node30&#45;&gt;Node6</title>
<g id="a_edge55_Node000030_Node000006"><a xlink:title=" ">
<path fill="none" stroke="#63b8ff" d="M916.64,-329.75C921.28,-320.87 928.5,-306.65 934,-294 940.54,-278.97 947.05,-261.53 951.64,-248.74"/>
<polygon fill="#63b8ff" stroke="#63b8ff" points="954.97,-249.83 955,-239.24 948.37,-247.5 954.97,-249.83"/>
</a>
</g>
</g>
<!-- Node30&#45;&gt;Node11 -->
<g id="edge56_Node000030_Node000011" class="edge">
<title>Node30&#45;&gt;Node11</title>
<g id="a_edge56_Node000030_Node000011"><a xlink:title=" ">
<path fill="none" stroke="#63b8ff" d="M938.03,-329.98C967.28,-320.42 1014.64,-304.92 1045.04,-294.98"/>
<polygon fill="#63b8ff" stroke="#63b8ff" points="1046.23,-298.27 1054.65,-291.83 1044.05,-291.62 1046.23,-298.27"/>
</a>
</g>
</g>
</g>
</svg>
