<?xml version="1.0" encoding="UTF-8" standalone="no"?>
<!DOCTYPE svg PUBLIC "-//W3C//DTD SVG 1.1//EN"
 "http://www.w3.org/Graphics/SVG/1.1/DTD/svg11.dtd">
<!-- Generated by graphviz version 2.43.0 (0)
 -->
<!-- Title: utils/MapManager.cpp Pages: 1 -->
<svg width="1129pt" height="357pt"
 viewBox="0.00 0.00 1129.00 357.00" xmlns="http://www.w3.org/2000/svg" xmlns:xlink="http://www.w3.org/1999/xlink">
<g id="graph0" class="graph" transform="scale(1 1) rotate(0) translate(4 353)">
<title>utils/MapManager.cpp</title>
<!-- Node1 -->
<g id="Node000001" class="node">
<title>Node1</title>
<g id="a_Node000001"><a xlink:title="Implementation for loading, creating, and managing game maps.">
<polygon fill="#999999" stroke="#666666" points="887,-349 763,-349 763,-330 887,-330 887,-349"/>
<text text-anchor="middle" x="825" y="-337" font-family="Helvetica,sans-Serif" font-size="10.00">utils/MapManager.cpp</text>
</a>
</g>
</g>
<!-- Node2 -->
<g id="Node000002" class="node">
<title>Node2</title>
<g id="a_Node000002"><a xlink:href="MapManager_8h.html" target="_top" xlink:title="Manages game maps, level generation, and procedural content.">
<polygon fill="white" stroke="#666666" points="345.5,-294 256.5,-294 256.5,-275 345.5,-275 345.5,-294"/>
<text text-anchor="middle" x="301" y="-282" font-family="Helvetica,sans-Serif" font-size="10.00">MapManager.h</text>
</a>
</g>
</g>
<!-- Node1&#45;&gt;Node2 -->
<g id="edge1_Node000001_Node000002" class="edge">
<title>Node1&#45;&gt;Node2</title>
<g id="a_edge1_Node000001_Node000002"><a xlink:title=" ">
<path fill="none" stroke="#63b8ff" d="M762.83,-332.21C659.41,-321.75 453.7,-300.95 355.56,-291.02"/>
<polygon fill="#63b8ff" stroke="#63b8ff" points="355.85,-287.53 345.55,-290.01 355.15,-294.49 355.85,-287.53"/>
</a>
</g>
</g>
<!-- Node9 -->
<g id="Node000009" class="node">
<title>Node9</title>
<g id="a_Node000009"><a xlink:title=" ">
<polygon fill="#e0e0e0" stroke="#999999" points="714,-184 650,-184 650,-165 714,-165 714,-184"/>
<text text-anchor="middle" x="682" y="-172" font-family="Helvetica,sans-Serif" font-size="10.00">algorithm</text>
</a>
</g>
</g>
<!-- Node1&#45;&gt;Node9 -->
<g id="edge35_Node000001_Node000009" class="edge">
<title>Node1&#45;&gt;Node9</title>
<g id="a_edge35_Node000001_Node000009"><a xlink:title=" ">
<path fill="none" stroke="#63b8ff" d="M804.62,-329.94C788.34,-322.34 765.73,-309.96 750,-294 720.43,-263.99 699.15,-218.58 688.9,-193.58"/>
<polygon fill="#63b8ff" stroke="#63b8ff" points="692.13,-192.23 685.19,-184.22 685.62,-194.81 692.13,-192.23"/>
</a>
</g>
</g>
<!-- Node11 -->
<g id="Node000011" class="node">
<title>Node11</title>
<g id="a_Node000011"><a xlink:href="PlayerTank_8h.html" target="_top" xlink:title="Player&#45;controlled tank with lives, score system, and special abilities.">
<polygon fill="white" stroke="#666666" points="107.5,-184 28.5,-184 28.5,-165 107.5,-165 107.5,-184"/>
<text text-anchor="middle" x="68" y="-172" font-family="Helvetica,sans-Serif" font-size="10.00">PlayerTank.h</text>
</a>
</g>
</g>
<!-- Node1&#45;&gt;Node11 -->
<g id="edge31_Node000001_Node000011" class="edge">
<title>Node1&#45;&gt;Node11</title>
<g id="a_edge31_Node000001_Node000011"><a xlink:title=" ">
<path fill="none" stroke="#63b8ff" d="M762.66,-337.09C633.75,-333.63 342,-322.78 247,-294 179.19,-273.46 113.37,-218.07 83.99,-190.92"/>
<polygon fill="#63b8ff" stroke="#63b8ff" points="86.38,-188.36 76.69,-184.07 81.58,-193.47 86.38,-188.36"/>
</a>
</g>
</g>
<!-- Node19 -->
<g id="Node000019" class="node">
<title>Node19</title>
<g id="a_Node000019"><a xlink:title=" ">
<polygon fill="#e0e0e0" stroke="#999999" points="814.5,-294 759.5,-294 759.5,-275 814.5,-275 814.5,-294"/>
<text text-anchor="middle" x="787" y="-282" font-family="Helvetica,sans-Serif" font-size="10.00">fstream</text>
</a>
</g>
</g>
<!-- Node1&#45;&gt;Node19 -->
<g id="edge32_Node000001_Node000019" class="edge">
<title>Node1&#45;&gt;Node19</title>
<g id="a_edge32_Node000001_Node000019"><a xlink:title=" ">
<path fill="none" stroke="#63b8ff" d="M818.73,-329.75C813.41,-322.34 805.64,-311.5 799.12,-302.41"/>
<polygon fill="#63b8ff" stroke="#63b8ff" points="801.83,-300.18 793.16,-294.09 796.14,-304.26 801.83,-300.18"/>
</a>
</g>
</g>
<!-- Node20 -->
<g id="Node000020" class="node">
<title>Node20</title>
<g id="a_Node000020"><a xlink:title=" ">
<polygon fill="#e0e0e0" stroke="#999999" points="893,-294 833,-294 833,-275 893,-275 893,-294"/>
<text text-anchor="middle" x="863" y="-282" font-family="Helvetica,sans-Serif" font-size="10.00">iostream</text>
</a>
</g>
</g>
<!-- Node1&#45;&gt;Node20 -->
<g id="edge33_Node000001_Node000020" class="edge">
<title>Node1&#45;&gt;Node20</title>
<g id="a_edge33_Node000001_Node000020"><a xlink:title=" ">
<path fill="none" stroke="#63b8ff" d="M831.27,-329.75C836.59,-322.34 844.36,-311.5 850.88,-302.41"/>
<polygon fill="#63b8ff" stroke="#63b8ff" points="853.86,-304.26 856.84,-294.09 848.17,-300.18 853.86,-304.26"/>
</a>
</g>
</g>
<!-- Node21 -->
<g id="Node000021" class="node">
<title>Node21</title>
<g id="a_Node000021"><a xlink:title=" ">
<polygon fill="#e0e0e0" stroke="#999999" points="967,-294 911,-294 911,-275 967,-275 967,-294"/>
<text text-anchor="middle" x="939" y="-282" font-family="Helvetica,sans-Serif" font-size="10.00">sstream</text>
</a>
</g>
</g>
<!-- Node1&#45;&gt;Node21 -->
<g id="edge34_Node000001_Node000021" class="edge">
<title>Node1&#45;&gt;Node21</title>
<g id="a_edge34_Node000001_Node000021"><a xlink:title=" ">
<path fill="none" stroke="#63b8ff" d="M843.32,-329.98C861.66,-321.46 890.11,-308.23 911.23,-298.41"/>
<polygon fill="#63b8ff" stroke="#63b8ff" points="912.76,-301.56 920.35,-294.17 909.81,-295.21 912.76,-301.56"/>
</a>
</g>
</g>
<!-- Node22 -->
<g id="Node000022" class="node">
<title>Node22</title>
<g id="a_Node000022"><a xlink:title=" ">
<polygon fill="#e0e0e0" stroke="#999999" points="1049,-294 985,-294 985,-275 1049,-275 1049,-294"/>
<text text-anchor="middle" x="1017" y="-282" font-family="Helvetica,sans-Serif" font-size="10.00">sys/stat.h</text>
</a>
</g>
</g>
<!-- Node1&#45;&gt;Node22 -->
<g id="edge36_Node000001_Node000022" class="edge">
<title>Node1&#45;&gt;Node22</title>
<g id="a_edge36_Node000001_Node000022"><a xlink:title=" ">
<path fill="none" stroke="#63b8ff" d="M855.85,-329.98C888.5,-320.97 940.2,-306.7 976.2,-296.76"/>
<polygon fill="#63b8ff" stroke="#63b8ff" points="977.2,-300.12 985.91,-294.08 975.34,-293.37 977.2,-300.12"/>
</a>
</g>
</g>
<!-- Node23 -->
<g id="Node000023" class="node">
<title>Node23</title>
<g id="a_Node000023"><a xlink:title=" ">
<polygon fill="#e0e0e0" stroke="#999999" points="1121,-294 1067,-294 1067,-275 1121,-275 1121,-294"/>
<text text-anchor="middle" x="1094" y="-282" font-family="Helvetica,sans-Serif" font-size="10.00">dirent.h</text>
</a>
</g>
</g>
<!-- Node1&#45;&gt;Node23 -->
<g id="edge37_Node000001_Node000023" class="edge">
<title>Node1&#45;&gt;Node23</title>
<g id="a_edge37_Node000001_Node000023"><a xlink:title=" ">
<path fill="none" stroke="#63b8ff" d="M872.87,-329.98C917.94,-321.82 987.56,-308.86 1057.09,-294.12"/>
<polygon fill="#63b8ff" stroke="#63b8ff" points="1057.85,-297.54 1066.9,-292.03 1056.39,-290.69 1057.85,-297.54"/>
</a>
</g>
</g>
<!-- Node3 -->
<g id="Node000003" class="node">
<title>Node3</title>
<g id="a_Node000003"><a xlink:title=" ">
<polygon fill="#e0e0e0" stroke="#999999" points="298,-239 254,-239 254,-220 298,-220 298,-239"/>
<text text-anchor="middle" x="276" y="-227" font-family="Helvetica,sans-Serif" font-size="10.00">string</text>
</a>
</g>
</g>
<!-- Node2&#45;&gt;Node3 -->
<g id="edge2_Node000002_Node000003" class="edge">
<title>Node2&#45;&gt;Node3</title>
<g id="a_edge2_Node000002_Node000003"><a xlink:title=" ">
<path fill="none" stroke="#63b8ff" d="M296.87,-274.75C293.49,-267.57 288.58,-257.18 284.38,-248.27"/>
<polygon fill="#63b8ff" stroke="#63b8ff" points="287.48,-246.64 280.05,-239.09 281.15,-249.63 287.48,-246.64"/>
</a>
</g>
</g>
<!-- Node4 -->
<g id="Node000004" class="node">
<title>Node4</title>
<g id="a_Node000004"><a xlink:title=" ">
<polygon fill="#e0e0e0" stroke="#999999" points="645.5,-19 598.5,-19 598.5,0 645.5,0 645.5,-19"/>
<text text-anchor="middle" x="622" y="-7" font-family="Helvetica,sans-Serif" font-size="10.00">vector</text>
</a>
</g>
</g>
<!-- Node2&#45;&gt;Node4 -->
<g id="edge3_Node000002_Node000004" class="edge">
<title>Node2&#45;&gt;Node4</title>
<g id="a_edge3_Node000002_Node000004"><a xlink:title=" ">
<path fill="none" stroke="#63b8ff" d="M345.67,-279.81C444.41,-270.62 676.22,-243.09 723,-184 765.63,-130.15 682.8,-56.41 642.39,-25.3"/>
<polygon fill="#63b8ff" stroke="#63b8ff" points="644.34,-22.39 634.24,-19.17 640.12,-27.98 644.34,-22.39"/>
</a>
</g>
</g>
<!-- Node5 -->
<g id="Node000005" class="node">
<title>Node5</title>
<g id="a_Node000005"><a xlink:title=" ">
<polygon fill="#e0e0e0" stroke="#999999" points="236,-239 168,-239 168,-220 236,-220 236,-239"/>
<text text-anchor="middle" x="202" y="-227" font-family="Helvetica,sans-Serif" font-size="10.00">filesystem</text>
</a>
</g>
</g>
<!-- Node2&#45;&gt;Node5 -->
<g id="edge4_Node000002_Node000005" class="edge">
<title>Node2&#45;&gt;Node5</title>
<g id="a_edge4_Node000002_Node000005"><a xlink:title=" ">
<path fill="none" stroke="#63b8ff" d="M285.09,-274.98C269.45,-266.61 245.34,-253.7 227.12,-243.95"/>
<polygon fill="#63b8ff" stroke="#63b8ff" points="228.66,-240.8 218.2,-239.17 225.36,-246.98 228.66,-240.8"/>
</a>
</g>
</g>
<!-- Node6 -->
<g id="Node000006" class="node">
<title>Node6</title>
<g id="a_Node000006"><a xlink:href="GameObject_8h.html" target="_top" xlink:title="Base class and structures for all game objects with position, direction, and health.">
<polygon fill="white" stroke="#666666" points="343.5,-19 214.5,-19 214.5,0 343.5,0 343.5,-19"/>
<text text-anchor="middle" x="279" y="-7" font-family="Helvetica,sans-Serif" font-size="10.00">../model/GameObject.h</text>
</a>
</g>
</g>
<!-- Node2&#45;&gt;Node6 -->
<g id="edge5_Node000002_Node000006" class="edge">
<title>Node2&#45;&gt;Node6</title>
<g id="a_edge5_Node000002_Node000006"><a xlink:title=" ">
<path fill="none" stroke="#63b8ff" d="M256.26,-276.99C172.41,-263.52 0,-229.28 0,-175.5 0,-175.5 0,-175.5 0,-118.5 0,-71.69 138.29,-37.26 220.15,-20.98"/>
<polygon fill="#63b8ff" stroke="#63b8ff" points="220.94,-24.39 230.08,-19.04 219.6,-17.52 220.94,-24.39"/>
</a>
</g>
</g>
<!-- Node7 -->
<g id="Node000007" class="node">
<title>Node7</title>
<g id="a_Node000007"><a xlink:href="GameWorld_8h.html" target="_top" xlink:title="Main game world manager handling objects, collisions, states, and game logic.">
<polygon fill="white" stroke="#666666" points="479.5,-239 354.5,-239 354.5,-220 479.5,-220 479.5,-239"/>
<text text-anchor="middle" x="417" y="-227" font-family="Helvetica,sans-Serif" font-size="10.00">../model/GameWorld.h</text>
</a>
</g>
</g>
<!-- Node2&#45;&gt;Node7 -->
<g id="edge6_Node000002_Node000007" class="edge">
<title>Node2&#45;&gt;Node7</title>
<g id="a_edge6_Node000002_Node000007"><a xlink:title=" ">
<path fill="none" stroke="#63b8ff" d="M319.64,-274.98C338.3,-266.46 367.25,-253.23 388.74,-243.41"/>
<polygon fill="#63b8ff" stroke="#63b8ff" points="390.38,-246.51 398.02,-239.17 387.47,-240.14 390.38,-246.51"/>
</a>
</g>
</g>
<!-- Node15 -->
<g id="Node000015" class="node">
<title>Node15</title>
<g id="a_Node000015"><a xlink:href="EnemyTank_8h.html" target="_top" xlink:title="AI&#45;controlled enemy tanks with various behaviors, types, and difficulty levels.">
<polygon fill="white" stroke="#666666" points="294,-184 212,-184 212,-165 294,-165 294,-184"/>
<text text-anchor="middle" x="253" y="-172" font-family="Helvetica,sans-Serif" font-size="10.00">EnemyTank.h</text>
</a>
</g>
</g>
<!-- Node2&#45;&gt;Node15 -->
<g id="edge30_Node000002_Node000015" class="edge">
<title>Node2&#45;&gt;Node15</title>
<g id="a_edge30_Node000002_Node000015"><a xlink:title=" ">
<path fill="none" stroke="#63b8ff" d="M304.52,-274.8C309.08,-262.1 315.5,-238.03 307,-220 300.99,-207.26 289.34,-196.92 278.39,-189.44"/>
<polygon fill="#63b8ff" stroke="#63b8ff" points="280.21,-186.44 269.89,-184.05 276.46,-192.36 280.21,-186.44"/>
</a>
</g>
</g>
<!-- Node17 -->
<g id="Node000017" class="node">
<title>Node17</title>
<g id="a_Node000017"><a xlink:href="Obstacle_8h.html" target="_top" xlink:title="Environmental obstacles including walls, water, forests, and their properties.">
<polygon fill="white" stroke="#666666" points="194,-184 126,-184 126,-165 194,-165 194,-184"/>
<text text-anchor="middle" x="160" y="-172" font-family="Helvetica,sans-Serif" font-size="10.00">Obstacle.h</text>
</a>
</g>
</g>
<!-- Node2&#45;&gt;Node17 -->
<g id="edge29_Node000002_Node000017" class="edge">
<title>Node2&#45;&gt;Node17</title>
<g id="a_edge29_Node000002_Node000017"><a xlink:title=" ">
<path fill="none" stroke="#63b8ff" d="M256.23,-282.65C223.49,-279.39 181.1,-269.09 159,-239 149.63,-226.24 151.08,-207.81 154.17,-194.09"/>
<polygon fill="#63b8ff" stroke="#63b8ff" points="157.59,-194.86 156.82,-184.3 150.83,-193.04 157.59,-194.86"/>
</a>
</g>
</g>
<!-- Node7&#45;&gt;Node4 -->
<g id="edge7_Node000007_Node000004" class="edge">
<title>Node7&#45;&gt;Node4</title>
<g id="a_edge7_Node000007_Node000004"><a xlink:title=" ">
<path fill="none" stroke="#63b8ff" d="M479.71,-221.26C527.12,-214.42 586.75,-202.43 603,-184 641.53,-140.3 632.9,-64.38 626.22,-29.28"/>
<polygon fill="#63b8ff" stroke="#63b8ff" points="629.55,-28.13 624.1,-19.05 622.7,-29.55 629.55,-28.13"/>
</a>
</g>
</g>
<!-- Node7&#45;&gt;Node6 -->
<g id="edge11_Node000007_Node000006" class="edge">
<title>Node7&#45;&gt;Node6</title>
<g id="a_edge11_Node000007_Node000006"><a xlink:title=" ">
<path fill="none" stroke="#63b8ff" d="M412.64,-219.89C399.43,-194.05 358.15,-115.26 316,-55 309.16,-45.22 300.71,-34.94 293.6,-26.73"/>
<polygon fill="#63b8ff" stroke="#63b8ff" points="296.06,-24.21 286.82,-19.02 290.8,-28.84 296.06,-24.21"/>
</a>
</g>
</g>
<!-- Node8 -->
<g id="Node000008" class="node">
<title>Node8</title>
<g id="a_Node000008"><a xlink:title=" ">
<polygon fill="#e0e0e0" stroke="#999999" points="522,-184 464,-184 464,-165 522,-165 522,-184"/>
<text text-anchor="middle" x="493" y="-172" font-family="Helvetica,sans-Serif" font-size="10.00">memory</text>
</a>
</g>
</g>
<!-- Node7&#45;&gt;Node8 -->
<g id="edge8_Node000007_Node000008" class="edge">
<title>Node7&#45;&gt;Node8</title>
<g id="a_edge8_Node000007_Node000008"><a xlink:title=" ">
<path fill="none" stroke="#63b8ff" d="M429.21,-219.98C440.78,-211.92 458.38,-199.65 472.16,-190.03"/>
<polygon fill="#63b8ff" stroke="#63b8ff" points="474.37,-192.76 480.57,-184.17 470.36,-187.02 474.37,-192.76"/>
</a>
</g>
</g>
<!-- Node7&#45;&gt;Node9 -->
<g id="edge9_Node000007_Node000009" class="edge">
<title>Node7&#45;&gt;Node9</title>
<g id="a_edge9_Node000007_Node000009"><a xlink:title=" ">
<path fill="none" stroke="#63b8ff" d="M459.58,-219.98C509.16,-210.07 590.55,-193.79 639.92,-183.92"/>
<polygon fill="#63b8ff" stroke="#63b8ff" points="640.83,-187.3 649.95,-181.91 639.45,-180.44 640.83,-187.3"/>
</a>
</g>
</g>
<!-- Node10 -->
<g id="Node000010" class="node">
<title>Node10</title>
<g id="a_Node000010"><a xlink:title=" ">
<polygon fill="#e0e0e0" stroke="#999999" points="594,-184 540,-184 540,-165 594,-165 594,-184"/>
<text text-anchor="middle" x="567" y="-172" font-family="Helvetica,sans-Serif" font-size="10.00">random</text>
</a>
</g>
</g>
<!-- Node7&#45;&gt;Node10 -->
<g id="edge10_Node000007_Node000010" class="edge">
<title>Node7&#45;&gt;Node10</title>
<g id="a_edge10_Node000007_Node000010"><a xlink:title=" ">
<path fill="none" stroke="#63b8ff" d="M441.1,-219.98C465.88,-211.23 504.7,-197.51 532.69,-187.62"/>
<polygon fill="#63b8ff" stroke="#63b8ff" points="534.2,-190.8 542.46,-184.17 531.87,-184.2 534.2,-190.8"/>
</a>
</g>
</g>
<!-- Node7&#45;&gt;Node11 -->
<g id="edge12_Node000007_Node000011" class="edge">
<title>Node7&#45;&gt;Node11</title>
<g id="a_edge12_Node000007_Node000011"><a xlink:title=" ">
<path fill="none" stroke="#63b8ff" d="M356.6,-219.98C298.16,-211.64 206.81,-198.34 117.59,-184.06"/>
<polygon fill="#63b8ff" stroke="#63b8ff" points="118,-180.58 107.57,-182.45 116.88,-187.49 118,-180.58"/>
</a>
</g>
</g>
<!-- Node13 -->
<g id="Node000013" class="node">
<title>Node13</title>
<g id="a_Node000013"><a xlink:href="Projectile_8h.html" target="_top" xlink:title="Projectile class for bullets fired by tanks with collision detection.">
<polygon fill="white" stroke="#666666" points="518.5,-74 447.5,-74 447.5,-55 518.5,-55 518.5,-74"/>
<text text-anchor="middle" x="483" y="-62" font-family="Helvetica,sans-Serif" font-size="10.00">Projectile.h</text>
</a>
</g>
</g>
<!-- Node7&#45;&gt;Node13 -->
<g id="edge26_Node000007_Node000013" class="edge">
<title>Node7&#45;&gt;Node13</title>
<g id="a_edge26_Node000007_Node000013"><a xlink:title=" ">
<path fill="none" stroke="#63b8ff" d="M422.72,-219.85C433.58,-203.05 457.2,-164.54 470,-129 475.25,-114.42 478.61,-97.16 480.6,-84.32"/>
<polygon fill="#63b8ff" stroke="#63b8ff" points="484.08,-84.73 482.01,-74.34 477.14,-83.76 484.08,-84.73"/>
</a>
</g>
</g>
<!-- Node14 -->
<g id="Node000014" class="node">
<title>Node14</title>
<g id="a_Node000014"><a xlink:href="Bonus_8h.html" target="_top" xlink:title="Power&#45;up bonuses with various effects for enhancing player abilities.">
<polygon fill="white" stroke="#666666" points="307,-74 251,-74 251,-55 307,-55 307,-74"/>
<text text-anchor="middle" x="279" y="-62" font-family="Helvetica,sans-Serif" font-size="10.00">Bonus.h</text>
</a>
</g>
</g>
<!-- Node7&#45;&gt;Node14 -->
<g id="edge25_Node000007_Node000014" class="edge">
<title>Node7&#45;&gt;Node14</title>
<g id="a_edge25_Node000007_Node000014"><a xlink:title=" ">
<path fill="none" stroke="#63b8ff" d="M398.01,-219.89C382.57,-212.17 360.98,-199.67 346,-184 338.23,-175.87 304.96,-114.29 288.41,-83.26"/>
<polygon fill="#63b8ff" stroke="#63b8ff" points="291.47,-81.55 283.68,-74.36 285.29,-84.83 291.47,-81.55"/>
</a>
</g>
</g>
<!-- Node7&#45;&gt;Node15 -->
<g id="edge20_Node000007_Node000015" class="edge">
<title>Node7&#45;&gt;Node15</title>
<g id="a_edge20_Node000007_Node000015"><a xlink:title=" ">
<path fill="none" stroke="#63b8ff" d="M390.65,-219.98C363.24,-211.13 320.11,-197.19 289.44,-187.28"/>
<polygon fill="#63b8ff" stroke="#63b8ff" points="290.15,-183.83 279.56,-184.08 288,-190.49 290.15,-183.83"/>
</a>
</g>
</g>
<!-- Node7&#45;&gt;Node17 -->
<g id="edge23_Node000007_Node000017" class="edge">
<title>Node7&#45;&gt;Node17</title>
<g id="a_edge23_Node000007_Node000017"><a xlink:title=" ">
<path fill="none" stroke="#63b8ff" d="M375.71,-219.98C328.68,-210.29 252.15,-194.5 204.02,-184.58"/>
<polygon fill="#63b8ff" stroke="#63b8ff" points="204.7,-181.14 194.2,-182.55 203.29,-188 204.7,-181.14"/>
</a>
</g>
</g>
<!-- Node18 -->
<g id="Node000018" class="node">
<title>Node18</title>
<g id="a_Node000018"><a xlink:href="Explosion_8h.html" target="_top" xlink:title="Visual explosion effects for game events like tank destruction.">
<polygon fill="white" stroke="#666666" points="461.5,-129 388.5,-129 388.5,-110 461.5,-110 461.5,-129"/>
<text text-anchor="middle" x="425" y="-117" font-family="Helvetica,sans-Serif" font-size="10.00">Explosion.h</text>
</a>
</g>
</g>
<!-- Node7&#45;&gt;Node18 -->
<g id="edge27_Node000007_Node000018" class="edge">
<title>Node7&#45;&gt;Node18</title>
<g id="a_edge27_Node000007_Node000018"><a xlink:title=" ">
<path fill="none" stroke="#63b8ff" d="M417.65,-219.66C418.95,-202.17 421.87,-162.8 423.61,-139.27"/>
<polygon fill="#63b8ff" stroke="#63b8ff" points="427.11,-139.39 424.36,-129.16 420.13,-138.87 427.11,-139.39"/>
</a>
</g>
</g>
<!-- Node12 -->
<g id="Node000012" class="node">
<title>Node12</title>
<g id="a_Node000012"><a xlink:href="Tank_8h.html" target="_top" xlink:title="Abstract tank base class with shooting, bonuses, and combat mechanics.">
<polygon fill="white" stroke="#666666" points="222,-129 174,-129 174,-110 222,-110 222,-129"/>
<text text-anchor="middle" x="198" y="-117" font-family="Helvetica,sans-Serif" font-size="10.00">Tank.h</text>
</a>
</g>
</g>
<!-- Node11&#45;&gt;Node12 -->
<g id="edge13_Node000011_Node000012" class="edge">
<title>Node11&#45;&gt;Node12</title>
<g id="a_edge13_Node000011_Node000012"><a xlink:title=" ">
<path fill="none" stroke="#63b8ff" d="M88.89,-164.98C110.08,-156.34 143.13,-142.87 167.3,-133.02"/>
<polygon fill="#63b8ff" stroke="#63b8ff" points="168.79,-136.19 176.73,-129.17 166.15,-129.7 168.79,-136.19"/>
</a>
</g>
</g>
<!-- Node12&#45;&gt;Node6 -->
<g id="edge14_Node000012_Node000006" class="edge">
<title>Node12&#45;&gt;Node6</title>
<g id="a_edge14_Node000012_Node000006"><a xlink:title=" ">
<path fill="none" stroke="#63b8ff" d="M203.74,-109.7C211.93,-97.28 227.56,-74.01 242,-55 249.22,-45.5 257.7,-35.24 264.72,-26.97"/>
<polygon fill="#63b8ff" stroke="#63b8ff" points="267.55,-29.05 271.4,-19.18 262.23,-24.5 267.55,-29.05"/>
</a>
</g>
</g>
<!-- Node12&#45;&gt;Node13 -->
<g id="edge15_Node000012_Node000013" class="edge">
<title>Node12&#45;&gt;Node13</title>
<g id="a_edge15_Node000012_Node000013"><a xlink:title=" ">
<path fill="none" stroke="#63b8ff" d="M222.1,-112.06C225.09,-111.33 228.11,-110.63 231,-110 302.69,-94.46 386.74,-80.45 437.38,-72.47"/>
<polygon fill="#63b8ff" stroke="#63b8ff" points="438.02,-75.91 447.36,-70.9 436.94,-68.99 438.02,-75.91"/>
</a>
</g>
</g>
<!-- Node12&#45;&gt;Node14 -->
<g id="edge18_Node000012_Node000014" class="edge">
<title>Node12&#45;&gt;Node14</title>
<g id="a_edge18_Node000012_Node000014"><a xlink:title=" ">
<path fill="none" stroke="#63b8ff" d="M211.01,-109.98C223.46,-101.84 242.46,-89.41 257.21,-79.76"/>
<polygon fill="#63b8ff" stroke="#63b8ff" points="259.3,-82.57 265.75,-74.17 255.46,-76.72 259.3,-82.57"/>
</a>
</g>
</g>
<!-- Node13&#45;&gt;Node4 -->
<g id="edge17_Node000013_Node000004" class="edge">
<title>Node13&#45;&gt;Node4</title>
<g id="a_edge17_Node000013_Node000004"><a xlink:title=" ">
<path fill="none" stroke="#63b8ff" d="M505.33,-54.98C528.2,-46.27 563.96,-32.63 589.86,-22.75"/>
<polygon fill="#63b8ff" stroke="#63b8ff" points="591.16,-26 599.26,-19.17 588.67,-19.46 591.16,-26"/>
</a>
</g>
</g>
<!-- Node13&#45;&gt;Node6 -->
<g id="edge16_Node000013_Node000006" class="edge">
<title>Node13&#45;&gt;Node6</title>
<g id="a_edge16_Node000013_Node000006"><a xlink:title=" ">
<path fill="none" stroke="#63b8ff" d="M450.22,-54.98C415.38,-45.93 360.13,-31.58 321.86,-21.64"/>
<polygon fill="#63b8ff" stroke="#63b8ff" points="322.59,-18.21 312.03,-19.08 320.83,-24.98 322.59,-18.21"/>
</a>
</g>
</g>
<!-- Node14&#45;&gt;Node6 -->
<g id="edge19_Node000014_Node000006" class="edge">
<title>Node14&#45;&gt;Node6</title>
<g id="a_edge19_Node000014_Node000006"><a xlink:title=" ">
<path fill="none" stroke="#63b8ff" d="M279,-54.75C279,-47.8 279,-37.85 279,-29.13"/>
<polygon fill="#63b8ff" stroke="#63b8ff" points="282.5,-29.09 279,-19.09 275.5,-29.09 282.5,-29.09"/>
</a>
</g>
</g>
<!-- Node15&#45;&gt;Node12 -->
<g id="edge21_Node000015_Node000012" class="edge">
<title>Node15&#45;&gt;Node12</title>
<g id="a_edge21_Node000015_Node000012"><a xlink:title=" ">
<path fill="none" stroke="#63b8ff" d="M243.92,-164.75C235.91,-157.03 224.04,-145.6 214.38,-136.28"/>
<polygon fill="#63b8ff" stroke="#63b8ff" points="216.54,-133.51 206.91,-129.09 211.69,-138.55 216.54,-133.51"/>
</a>
</g>
</g>
<!-- Node16 -->
<g id="Node000016" class="node">
<title>Node16</title>
<g id="a_Node000016"><a xlink:title=" ">
<polygon fill="#e0e0e0" stroke="#999999" points="293.5,-129 240.5,-129 240.5,-110 293.5,-110 293.5,-129"/>
<text text-anchor="middle" x="267" y="-117" font-family="Helvetica,sans-Serif" font-size="10.00">stdlib.h</text>
</a>
</g>
</g>
<!-- Node15&#45;&gt;Node16 -->
<g id="edge22_Node000015_Node000016" class="edge">
<title>Node15&#45;&gt;Node16</title>
<g id="a_edge22_Node000015_Node000016"><a xlink:title=" ">
<path fill="none" stroke="#63b8ff" d="M255.31,-164.75C257.17,-157.72 259.84,-147.62 262.15,-138.84"/>
<polygon fill="#63b8ff" stroke="#63b8ff" points="265.56,-139.65 264.73,-129.09 258.79,-137.86 265.56,-139.65"/>
</a>
</g>
</g>
<!-- Node17&#45;&gt;Node6 -->
<g id="edge24_Node000017_Node000006" class="edge">
<title>Node17&#45;&gt;Node6</title>
<g id="a_edge24_Node000017_Node000006"><a xlink:title=" ">
<path fill="none" stroke="#63b8ff" d="M158.75,-164.76C157.35,-152.02 156.28,-127.89 165,-110 184.05,-70.92 226.11,-40.79 253.47,-24.37"/>
<polygon fill="#63b8ff" stroke="#63b8ff" points="255.58,-27.18 262.47,-19.14 252.07,-21.13 255.58,-27.18"/>
</a>
</g>
</g>
<!-- Node18&#45;&gt;Node6 -->
<g id="edge28_Node000018_Node000006" class="edge">
<title>Node18&#45;&gt;Node6</title>
<g id="a_edge28_Node000018_Node000006"><a xlink:title=" ">
<path fill="none" stroke="#63b8ff" d="M419.75,-109.64C411.47,-96.29 394.23,-70.9 374,-55 356.32,-41.1 333.59,-30.26 314.8,-22.76"/>
<polygon fill="#63b8ff" stroke="#63b8ff" points="315.97,-19.46 305.38,-19.14 313.46,-25.99 315.97,-19.46"/>
</a>
</g>
</g>
</g>
</svg>
