<?xml version="1.0" encoding="UTF-8" standalone="no"?>
<!DOCTYPE svg PUBLIC "-//W3C//DTD SVG 1.1//EN"
 "http://www.w3.org/Graphics/SVG/1.1/DTD/svg11.dtd">
<!-- Generated by graphviz version 2.43.0 (0)
 -->
<!-- Title: src/utils/MapManager.h Pages: 1 -->
<svg width="918pt" height="302pt"
 viewBox="0.00 0.00 918.00 302.00" xmlns="http://www.w3.org/2000/svg" xmlns:xlink="http://www.w3.org/1999/xlink">
<g id="graph0" class="graph" transform="scale(1 1) rotate(0) translate(4 298)">
<title>src/utils/MapManager.h</title>
<!-- Node1 -->
<g id="Node000001" class="node">
<title>Node1</title>
<g id="a_Node000001"><a xlink:title="Manages game maps, level generation, and procedural content.">
<polygon fill="#999999" stroke="#666666" points="506,-294 376,-294 376,-275 506,-275 506,-294"/>
<text text-anchor="middle" x="441" y="-282" font-family="Helvetica,sans-Serif" font-size="10.00">src/utils/MapManager.h</text>
</a>
</g>
</g>
<!-- Node2 -->
<g id="Node000002" class="node">
<title>Node2</title>
<g id="a_Node000002"><a xlink:title=" ">
<polygon fill="#e0e0e0" stroke="#999999" points="44,-239 0,-239 0,-220 44,-220 44,-239"/>
<text text-anchor="middle" x="22" y="-227" font-family="Helvetica,sans-Serif" font-size="10.00">string</text>
</a>
</g>
</g>
<!-- Node1&#45;&gt;Node2 -->
<g id="edge1_Node000001_Node000002" class="edge">
<title>Node1&#45;&gt;Node2</title>
<g id="a_edge1_Node000001_Node000002"><a xlink:title=" ">
<path fill="none" stroke="#63b8ff" d="M375.95,-278.26C299.48,-271.57 168.93,-258.47 58,-239 56.72,-238.78 55.42,-238.53 54.1,-238.28"/>
<polygon fill="#63b8ff" stroke="#63b8ff" points="54.51,-234.79 44,-236.12 53.05,-241.63 54.51,-234.79"/>
</a>
</g>
</g>
<!-- Node3 -->
<g id="Node000003" class="node">
<title>Node3</title>
<g id="a_Node000003"><a xlink:title=" ">
<polygon fill="#e0e0e0" stroke="#999999" points="233.5,-19 186.5,-19 186.5,0 233.5,0 233.5,-19"/>
<text text-anchor="middle" x="210" y="-7" font-family="Helvetica,sans-Serif" font-size="10.00">vector</text>
</a>
</g>
</g>
<!-- Node1&#45;&gt;Node3 -->
<g id="edge2_Node000001_Node000003" class="edge">
<title>Node1&#45;&gt;Node3</title>
<g id="a_edge2_Node000001_Node000003"><a xlink:title=" ">
<path fill="none" stroke="#63b8ff" d="M375.88,-277.88C269.95,-266.92 72,-238.08 72,-175.5 72,-175.5 72,-175.5 72,-118.5 72,-65.52 135.86,-34.64 176.69,-20.32"/>
<polygon fill="#63b8ff" stroke="#63b8ff" points="177.91,-23.6 186.28,-17.1 175.68,-16.96 177.91,-23.6"/>
</a>
</g>
</g>
<!-- Node4 -->
<g id="Node000004" class="node">
<title>Node4</title>
<g id="a_Node000004"><a xlink:title=" ">
<polygon fill="#e0e0e0" stroke="#999999" points="910,-239 842,-239 842,-220 910,-220 910,-239"/>
<text text-anchor="middle" x="876" y="-227" font-family="Helvetica,sans-Serif" font-size="10.00">filesystem</text>
</a>
</g>
</g>
<!-- Node1&#45;&gt;Node4 -->
<g id="edge3_Node000001_Node000004" class="edge">
<title>Node1&#45;&gt;Node4</title>
<g id="a_edge3_Node000001_Node000004"><a xlink:title=" ">
<path fill="none" stroke="#63b8ff" d="M506.21,-277.22C583.26,-269.53 715.24,-255.45 828,-239 829.27,-238.81 830.56,-238.62 831.86,-238.42"/>
<polygon fill="#63b8ff" stroke="#63b8ff" points="832.64,-241.84 841.95,-236.79 831.52,-234.93 832.64,-241.84"/>
</a>
</g>
</g>
<!-- Node5 -->
<g id="Node000005" class="node">
<title>Node5</title>
<g id="a_Node000005"><a xlink:href="GameObject_8h.html" target="_top" xlink:title="Base class and structures for all game objects with position, direction, and health.">
<polygon fill="white" stroke="#666666" points="551.5,-19 422.5,-19 422.5,0 551.5,0 551.5,-19"/>
<text text-anchor="middle" x="487" y="-7" font-family="Helvetica,sans-Serif" font-size="10.00">../model/GameObject.h</text>
</a>
</g>
</g>
<!-- Node1&#45;&gt;Node5 -->
<g id="edge4_Node000001_Node000005" class="edge">
<title>Node1&#45;&gt;Node5</title>
<g id="a_edge4_Node000001_Node000005"><a xlink:title=" ">
<path fill="none" stroke="#63b8ff" d="M506.4,-278.06C613.37,-267.34 814,-238.79 814,-175.5 814,-175.5 814,-175.5 814,-118.5 814,-65.66 658.13,-34.31 561.62,-19.95"/>
<polygon fill="#63b8ff" stroke="#63b8ff" points="562.01,-16.47 551.6,-18.49 561,-23.4 562.01,-16.47"/>
</a>
</g>
</g>
<!-- Node6 -->
<g id="Node000006" class="node">
<title>Node6</title>
<g id="a_Node000006"><a xlink:href="GameWorld_8h.html" target="_top" xlink:title="Main game world manager handling objects, collisions, states, and game logic.">
<polygon fill="white" stroke="#666666" points="503.5,-239 378.5,-239 378.5,-220 503.5,-220 503.5,-239"/>
<text text-anchor="middle" x="441" y="-227" font-family="Helvetica,sans-Serif" font-size="10.00">../model/GameWorld.h</text>
</a>
</g>
</g>
<!-- Node1&#45;&gt;Node6 -->
<g id="edge5_Node000001_Node000006" class="edge">
<title>Node1&#45;&gt;Node6</title>
<g id="a_edge5_Node000001_Node000006"><a xlink:title=" ">
<path fill="none" stroke="#63b8ff" d="M441,-274.75C441,-267.8 441,-257.85 441,-249.13"/>
<polygon fill="#63b8ff" stroke="#63b8ff" points="444.5,-249.09 441,-239.09 437.5,-249.09 444.5,-249.09"/>
</a>
</g>
</g>
<!-- Node14 -->
<g id="Node000014" class="node">
<title>Node14</title>
<g id="a_Node000014"><a xlink:href="EnemyTank_8h.html" target="_top" xlink:title="AI&#45;controlled enemy tanks with various behaviors, types, and difficulty levels.">
<polygon fill="white" stroke="#666666" points="182,-184 100,-184 100,-165 182,-165 182,-184"/>
<text text-anchor="middle" x="141" y="-172" font-family="Helvetica,sans-Serif" font-size="10.00">EnemyTank.h</text>
</a>
</g>
</g>
<!-- Node1&#45;&gt;Node14 -->
<g id="edge29_Node000001_Node000014" class="edge">
<title>Node1&#45;&gt;Node14</title>
<g id="a_edge29_Node000001_Node000014"><a xlink:title=" ">
<path fill="none" stroke="#63b8ff" d="M417.21,-274.94C364.04,-255.79 235.47,-209.51 174.35,-187.51"/>
<polygon fill="#63b8ff" stroke="#63b8ff" points="175.39,-184.16 164.79,-184.07 173.02,-190.75 175.39,-184.16"/>
</a>
</g>
</g>
<!-- Node16 -->
<g id="Node000016" class="node">
<title>Node16</title>
<g id="a_Node000016"><a xlink:href="Obstacle_8h.html" target="_top" xlink:title="Environmental obstacles including walls, water, forests, and their properties.">
<polygon fill="white" stroke="#666666" points="786,-184 718,-184 718,-165 786,-165 786,-184"/>
<text text-anchor="middle" x="752" y="-172" font-family="Helvetica,sans-Serif" font-size="10.00">Obstacle.h</text>
</a>
</g>
</g>
<!-- Node1&#45;&gt;Node16 -->
<g id="edge28_Node000001_Node000016" class="edge">
<title>Node1&#45;&gt;Node16</title>
<g id="a_edge28_Node000001_Node000016"><a xlink:title=" ">
<path fill="none" stroke="#63b8ff" d="M465.66,-274.94C520.89,-255.76 654.61,-209.32 717.82,-187.37"/>
<polygon fill="#63b8ff" stroke="#63b8ff" points="719.04,-190.65 727.33,-184.07 716.74,-184.04 719.04,-190.65"/>
</a>
</g>
</g>
<!-- Node6&#45;&gt;Node3 -->
<g id="edge6_Node000006_Node000003" class="edge">
<title>Node6&#45;&gt;Node3</title>
<g id="a_edge6_Node000006_Node000003"><a xlink:title=" ">
<path fill="none" stroke="#63b8ff" d="M378.03,-220.46C331.16,-213.23 272.42,-201.09 255,-184 212.3,-142.1 208.35,-65.27 209.04,-29.62"/>
<polygon fill="#63b8ff" stroke="#63b8ff" points="212.55,-29.33 209.4,-19.21 205.55,-29.08 212.55,-29.33"/>
</a>
</g>
</g>
<!-- Node6&#45;&gt;Node5 -->
<g id="edge10_Node000006_Node000005" class="edge">
<title>Node6&#45;&gt;Node5</title>
<g id="a_edge10_Node000006_Node000005"><a xlink:title=" ">
<path fill="none" stroke="#63b8ff" d="M430.29,-219.93C421.07,-211.8 408.41,-198.68 403,-184 400.08,-176.08 400.42,-173.04 403,-165 418.17,-117.67 446.14,-118.63 468,-74 475.05,-59.61 480.05,-42.09 483.15,-29.1"/>
<polygon fill="#63b8ff" stroke="#63b8ff" points="486.63,-29.57 485.38,-19.05 479.79,-28.05 486.63,-29.57"/>
</a>
</g>
</g>
<!-- Node7 -->
<g id="Node000007" class="node">
<title>Node7</title>
<g id="a_Node000007"><a xlink:title=" ">
<polygon fill="#e0e0e0" stroke="#999999" points="470,-184 412,-184 412,-165 470,-165 470,-184"/>
<text text-anchor="middle" x="441" y="-172" font-family="Helvetica,sans-Serif" font-size="10.00">memory</text>
</a>
</g>
</g>
<!-- Node6&#45;&gt;Node7 -->
<g id="edge7_Node000006_Node000007" class="edge">
<title>Node6&#45;&gt;Node7</title>
<g id="a_edge7_Node000006_Node000007"><a xlink:title=" ">
<path fill="none" stroke="#63b8ff" d="M441,-219.75C441,-212.8 441,-202.85 441,-194.13"/>
<polygon fill="#63b8ff" stroke="#63b8ff" points="444.5,-194.09 441,-184.09 437.5,-194.09 444.5,-194.09"/>
</a>
</g>
</g>
<!-- Node8 -->
<g id="Node000008" class="node">
<title>Node8</title>
<g id="a_Node000008"><a xlink:title=" ">
<polygon fill="#e0e0e0" stroke="#999999" points="552,-184 488,-184 488,-165 552,-165 552,-184"/>
<text text-anchor="middle" x="520" y="-172" font-family="Helvetica,sans-Serif" font-size="10.00">algorithm</text>
</a>
</g>
</g>
<!-- Node6&#45;&gt;Node8 -->
<g id="edge8_Node000006_Node000008" class="edge">
<title>Node6&#45;&gt;Node8</title>
<g id="a_edge8_Node000006_Node000008"><a xlink:title=" ">
<path fill="none" stroke="#63b8ff" d="M453.69,-219.98C465.83,-211.84 484.36,-199.41 498.75,-189.76"/>
<polygon fill="#63b8ff" stroke="#63b8ff" points="500.72,-192.65 507.08,-184.17 496.82,-186.84 500.72,-192.65"/>
</a>
</g>
</g>
<!-- Node9 -->
<g id="Node000009" class="node">
<title>Node9</title>
<g id="a_Node000009"><a xlink:title=" ">
<polygon fill="#e0e0e0" stroke="#999999" points="624,-184 570,-184 570,-165 624,-165 624,-184"/>
<text text-anchor="middle" x="597" y="-172" font-family="Helvetica,sans-Serif" font-size="10.00">random</text>
</a>
</g>
</g>
<!-- Node6&#45;&gt;Node9 -->
<g id="edge9_Node000006_Node000009" class="edge">
<title>Node6&#45;&gt;Node9</title>
<g id="a_edge9_Node000006_Node000009"><a xlink:title=" ">
<path fill="none" stroke="#63b8ff" d="M466.06,-219.98C492.03,-211.16 532.81,-197.31 561.96,-187.41"/>
<polygon fill="#63b8ff" stroke="#63b8ff" points="563.4,-190.61 571.74,-184.08 561.15,-183.99 563.4,-190.61"/>
</a>
</g>
</g>
<!-- Node10 -->
<g id="Node000010" class="node">
<title>Node10</title>
<g id="a_Node000010"><a xlink:href="PlayerTank_8h.html" target="_top" xlink:title="Player&#45;controlled tank with lives, score system, and special abilities.">
<polygon fill="white" stroke="#666666" points="355.5,-184 276.5,-184 276.5,-165 355.5,-165 355.5,-184"/>
<text text-anchor="middle" x="316" y="-172" font-family="Helvetica,sans-Serif" font-size="10.00">PlayerTank.h</text>
</a>
</g>
</g>
<!-- Node6&#45;&gt;Node10 -->
<g id="edge11_Node000006_Node000010" class="edge">
<title>Node6&#45;&gt;Node10</title>
<g id="a_edge11_Node000006_Node000010"><a xlink:title=" ">
<path fill="none" stroke="#63b8ff" d="M420.92,-219.98C400.63,-211.38 369.04,-197.99 345.83,-188.15"/>
<polygon fill="#63b8ff" stroke="#63b8ff" points="347.02,-184.85 336.45,-184.17 344.29,-191.3 347.02,-184.85"/>
</a>
</g>
</g>
<!-- Node12 -->
<g id="Node000012" class="node">
<title>Node12</title>
<g id="a_Node000012"><a xlink:href="Projectile_8h.html" target="_top" xlink:title="Projectile class for bullets fired by tanks with collision detection.">
<polygon fill="white" stroke="#666666" points="330.5,-74 259.5,-74 259.5,-55 330.5,-55 330.5,-74"/>
<text text-anchor="middle" x="295" y="-62" font-family="Helvetica,sans-Serif" font-size="10.00">Projectile.h</text>
</a>
</g>
</g>
<!-- Node6&#45;&gt;Node12 -->
<g id="edge25_Node000006_Node000012" class="edge">
<title>Node6&#45;&gt;Node12</title>
<g id="a_edge25_Node000006_Node000012"><a xlink:title=" ">
<path fill="none" stroke="#63b8ff" d="M378.13,-220.58C334.1,-213.6 280.77,-201.73 267,-184 243.66,-153.94 266.99,-107.57 282.89,-82.68"/>
<polygon fill="#63b8ff" stroke="#63b8ff" points="285.86,-84.53 288.51,-74.28 280.05,-80.64 285.86,-84.53"/>
</a>
</g>
</g>
<!-- Node13 -->
<g id="Node000013" class="node">
<title>Node13</title>
<g id="a_Node000013"><a xlink:href="Bonus_8h.html" target="_top" xlink:title="Power&#45;up bonuses with various effects for enhancing player abilities.">
<polygon fill="white" stroke="#666666" points="459,-74 403,-74 403,-55 459,-55 459,-74"/>
<text text-anchor="middle" x="431" y="-62" font-family="Helvetica,sans-Serif" font-size="10.00">Bonus.h</text>
</a>
</g>
</g>
<!-- Node6&#45;&gt;Node13 -->
<g id="edge24_Node000006_Node000013" class="edge">
<title>Node6&#45;&gt;Node13</title>
<g id="a_edge24_Node000006_Node000013"><a xlink:title=" ">
<path fill="none" stroke="#63b8ff" d="M503.79,-222.33C553.44,-215.99 616.98,-204.16 633,-184 638.25,-177.39 638.05,-171.77 633,-165 599.46,-120.02 561.84,-154.76 512,-129 487.36,-116.26 462.81,-95.62 447.31,-81.35"/>
<polygon fill="#63b8ff" stroke="#63b8ff" points="449.36,-78.47 439.69,-74.16 444.56,-83.57 449.36,-78.47"/>
</a>
</g>
</g>
<!-- Node6&#45;&gt;Node14 -->
<g id="edge19_Node000006_Node000014" class="edge">
<title>Node6&#45;&gt;Node14</title>
<g id="a_edge19_Node000006_Node000014"><a xlink:title=" ">
<path fill="none" stroke="#63b8ff" d="M392.8,-219.98C337.91,-210.29 248.6,-194.51 192.41,-184.58"/>
<polygon fill="#63b8ff" stroke="#63b8ff" points="192.78,-181.09 182.32,-182.8 191.56,-187.99 192.78,-181.09"/>
</a>
</g>
</g>
<!-- Node6&#45;&gt;Node16 -->
<g id="edge22_Node000006_Node000016" class="edge">
<title>Node6&#45;&gt;Node16</title>
<g id="a_edge22_Node000006_Node000016"><a xlink:title=" ">
<path fill="none" stroke="#63b8ff" d="M492.42,-219.92C545.45,-211.04 630.54,-196.72 704,-184 705.27,-183.78 706.55,-183.56 707.85,-183.33"/>
<polygon fill="#63b8ff" stroke="#63b8ff" points="708.67,-186.74 717.92,-181.57 707.46,-179.85 708.67,-186.74"/>
</a>
</g>
</g>
<!-- Node17 -->
<g id="Node000017" class="node">
<title>Node17</title>
<g id="a_Node000017"><a xlink:href="Explosion_8h.html" target="_top" xlink:title="Visual explosion effects for game events like tank destruction.">
<polygon fill="white" stroke="#666666" points="594.5,-129 521.5,-129 521.5,-110 594.5,-110 594.5,-129"/>
<text text-anchor="middle" x="558" y="-117" font-family="Helvetica,sans-Serif" font-size="10.00">Explosion.h</text>
</a>
</g>
</g>
<!-- Node6&#45;&gt;Node17 -->
<g id="edge26_Node000006_Node000017" class="edge">
<title>Node6&#45;&gt;Node17</title>
<g id="a_edge26_Node000006_Node000017"><a xlink:title=" ">
<path fill="none" stroke="#63b8ff" d="M503.66,-224.8C562.94,-219.84 645.78,-208.61 666,-184 687.48,-157.85 642.96,-140.03 604.72,-130.07"/>
<polygon fill="#63b8ff" stroke="#63b8ff" points="605.22,-126.59 594.67,-127.59 603.54,-133.39 605.22,-126.59"/>
</a>
</g>
</g>
<!-- Node11 -->
<g id="Node000011" class="node">
<title>Node11</title>
<g id="a_Node000011"><a xlink:href="Tank_8h.html" target="_top" xlink:title="Abstract tank base class with shooting, bonuses, and combat mechanics.">
<polygon fill="white" stroke="#666666" points="340,-129 292,-129 292,-110 340,-110 340,-129"/>
<text text-anchor="middle" x="316" y="-117" font-family="Helvetica,sans-Serif" font-size="10.00">Tank.h</text>
</a>
</g>
</g>
<!-- Node10&#45;&gt;Node11 -->
<g id="edge12_Node000010_Node000011" class="edge">
<title>Node10&#45;&gt;Node11</title>
<g id="a_edge12_Node000010_Node000011"><a xlink:title=" ">
<path fill="none" stroke="#63b8ff" d="M316,-164.75C316,-157.8 316,-147.85 316,-139.13"/>
<polygon fill="#63b8ff" stroke="#63b8ff" points="319.5,-139.09 316,-129.09 312.5,-139.09 319.5,-139.09"/>
</a>
</g>
</g>
<!-- Node11&#45;&gt;Node5 -->
<g id="edge13_Node000011_Node000005" class="edge">
<title>Node11&#45;&gt;Node5</title>
<g id="a_edge13_Node000011_Node000005"><a xlink:title=" ">
<path fill="none" stroke="#63b8ff" d="M325.06,-109.91C339.06,-96.93 367.16,-72.01 394,-55 413.83,-42.44 437.75,-31.07 456.36,-22.97"/>
<polygon fill="#63b8ff" stroke="#63b8ff" points="457.74,-26.18 465.56,-19.04 454.99,-19.74 457.74,-26.18"/>
</a>
</g>
</g>
<!-- Node11&#45;&gt;Node12 -->
<g id="edge14_Node000011_Node000012" class="edge">
<title>Node11&#45;&gt;Node12</title>
<g id="a_edge14_Node000011_Node000012"><a xlink:title=" ">
<path fill="none" stroke="#63b8ff" d="M312.53,-109.75C309.72,-102.65 305.66,-92.4 302.15,-83.56"/>
<polygon fill="#63b8ff" stroke="#63b8ff" points="305.34,-82.1 298.4,-74.09 298.83,-84.68 305.34,-82.1"/>
</a>
</g>
</g>
<!-- Node11&#45;&gt;Node13 -->
<g id="edge17_Node000011_Node000013" class="edge">
<title>Node11&#45;&gt;Node13</title>
<g id="a_edge17_Node000011_Node000013"><a xlink:title=" ">
<path fill="none" stroke="#63b8ff" d="M334.48,-109.98C352.98,-101.46 381.68,-88.23 402.98,-78.41"/>
<polygon fill="#63b8ff" stroke="#63b8ff" points="404.57,-81.53 412.19,-74.17 401.64,-75.18 404.57,-81.53"/>
</a>
</g>
</g>
<!-- Node12&#45;&gt;Node3 -->
<g id="edge16_Node000012_Node000003" class="edge">
<title>Node12&#45;&gt;Node3</title>
<g id="a_edge16_Node000012_Node000003"><a xlink:title=" ">
<path fill="none" stroke="#63b8ff" d="M281.34,-54.98C268.16,-46.77 247.97,-34.18 232.43,-24.49"/>
<polygon fill="#63b8ff" stroke="#63b8ff" points="234.24,-21.49 223.91,-19.17 230.54,-27.43 234.24,-21.49"/>
</a>
</g>
</g>
<!-- Node12&#45;&gt;Node5 -->
<g id="edge15_Node000012_Node000005" class="edge">
<title>Node12&#45;&gt;Node5</title>
<g id="a_edge15_Node000012_Node000005"><a xlink:title=" ">
<path fill="none" stroke="#63b8ff" d="M325.85,-54.98C358.5,-45.97 410.2,-31.7 446.2,-21.76"/>
<polygon fill="#63b8ff" stroke="#63b8ff" points="447.2,-25.12 455.91,-19.08 445.34,-18.37 447.2,-25.12"/>
</a>
</g>
</g>
<!-- Node13&#45;&gt;Node5 -->
<g id="edge18_Node000013_Node000005" class="edge">
<title>Node13&#45;&gt;Node5</title>
<g id="a_edge18_Node000013_Node000005"><a xlink:title=" ">
<path fill="none" stroke="#63b8ff" d="M440,-54.98C448.19,-47.23 460.51,-35.58 470.47,-26.14"/>
<polygon fill="#63b8ff" stroke="#63b8ff" points="472.98,-28.59 477.84,-19.17 468.17,-23.5 472.98,-28.59"/>
</a>
</g>
</g>
<!-- Node14&#45;&gt;Node11 -->
<g id="edge20_Node000014_Node000011" class="edge">
<title>Node14&#45;&gt;Node11</title>
<g id="a_edge20_Node000014_Node000011"><a xlink:title=" ">
<path fill="none" stroke="#63b8ff" d="M169.12,-164.98C199.94,-155.65 249.37,-140.68 282.26,-130.72"/>
<polygon fill="#63b8ff" stroke="#63b8ff" points="283.34,-134.05 291.9,-127.8 281.31,-127.35 283.34,-134.05"/>
</a>
</g>
</g>
<!-- Node15 -->
<g id="Node000015" class="node">
<title>Node15</title>
<g id="a_Node000015"><a xlink:title=" ">
<polygon fill="#e0e0e0" stroke="#999999" points="167.5,-129 114.5,-129 114.5,-110 167.5,-110 167.5,-129"/>
<text text-anchor="middle" x="141" y="-117" font-family="Helvetica,sans-Serif" font-size="10.00">stdlib.h</text>
</a>
</g>
</g>
<!-- Node14&#45;&gt;Node15 -->
<g id="edge21_Node000014_Node000015" class="edge">
<title>Node14&#45;&gt;Node15</title>
<g id="a_edge21_Node000014_Node000015"><a xlink:title=" ">
<path fill="none" stroke="#63b8ff" d="M141,-164.75C141,-157.8 141,-147.85 141,-139.13"/>
<polygon fill="#63b8ff" stroke="#63b8ff" points="144.5,-139.09 141,-129.09 137.5,-139.09 144.5,-139.09"/>
</a>
</g>
</g>
<!-- Node16&#45;&gt;Node5 -->
<g id="edge23_Node000016_Node000005" class="edge">
<title>Node16&#45;&gt;Node5</title>
<g id="a_edge23_Node000016_Node000005"><a xlink:title=" ">
<path fill="none" stroke="#63b8ff" d="M738.13,-164.97C695.03,-138.46 563.16,-57.35 509.79,-24.52"/>
<polygon fill="#63b8ff" stroke="#63b8ff" points="511.41,-21.4 501.06,-19.15 507.74,-27.37 511.41,-21.4"/>
</a>
</g>
</g>
<!-- Node17&#45;&gt;Node5 -->
<g id="edge27_Node000017_Node000005" class="edge">
<title>Node17&#45;&gt;Node5</title>
<g id="a_edge27_Node000017_Node000005"><a xlink:title=" ">
<path fill="none" stroke="#63b8ff" d="M552.19,-109.66C540.43,-91.77 513.63,-51 498.3,-27.69"/>
<polygon fill="#63b8ff" stroke="#63b8ff" points="501.11,-25.59 492.69,-19.16 495.26,-29.44 501.11,-25.59"/>
</a>
</g>
</g>
</g>
</svg>
