<?xml version="1.0" encoding="UTF-8" standalone="no"?>
<!DOCTYPE svg PUBLIC "-//W3C//DTD SVG 1.1//EN"
 "http://www.w3.org/Graphics/SVG/1.1/DTD/svg11.dtd">
<!-- Generated by graphviz version 2.43.0 (0)
 -->
<!-- Title: src/utils/PlatformUtils.h Pages: 1 -->
<svg width="684pt" height="192pt"
 viewBox="0.00 0.00 683.50 192.00" xmlns="http://www.w3.org/2000/svg" xmlns:xlink="http://www.w3.org/1999/xlink">
<g id="graph0" class="graph" transform="scale(1 1) rotate(0) translate(4 188)">
<title>src/utils/PlatformUtils.h</title>
<!-- Node1 -->
<g id="Node000001" class="node">
<title>Node1</title>
<g id="a_Node000001"><a xlink:title="Cross&#45;platform utilities for console I/O, colors, and terminal manipulation.">
<polygon fill="#999999" stroke="#666666" points="400.5,-184 269.5,-184 269.5,-165 400.5,-165 400.5,-184"/>
<text text-anchor="middle" x="335" y="-172" font-family="Helvetica,sans-Serif" font-size="10.00">src/utils/PlatformUtils.h</text>
</a>
</g>
</g>
<!-- Node2 -->
<g id="Node000002" class="node">
<title>Node2</title>
<g id="a_Node000002"><a xlink:href="InputHandler_8h.html" target="_top" xlink:title="Handles user input and maps keystrokes to game commands.">
<polygon fill="white" stroke="#666666" points="160.5,-129 5.5,-129 5.5,-110 160.5,-110 160.5,-129"/>
<text text-anchor="middle" x="83" y="-117" font-family="Helvetica,sans-Serif" font-size="10.00">src/controller/InputHandler.h</text>
</a>
</g>
</g>
<!-- Node1&#45;&gt;Node2 -->
<g id="edge1_Node000001_Node000002" class="edge">
<title>Node1&#45;&gt;Node2</title>
<g id="a_edge1_Node000001_Node000002"><a xlink:title=" ">
<path fill="none" stroke="#63b8ff" d="M284.5,-162.88C237.26,-152.94 167.61,-138.3 123.81,-129.08"/>
<polygon fill="#63b8ff" stroke="#63b8ff" points="284.01,-166.35 294.51,-164.98 285.45,-159.5 284.01,-166.35"/>
</a>
</g>
</g>
<!-- Node7 -->
<g id="Node000007" class="node">
<title>Node7</title>
<g id="a_Node000007"><a xlink:href="PlatformUtils_8cpp.html" target="_top" xlink:title="Implementation of cross&#45;platform console utilities.">
<polygon fill="white" stroke="#666666" points="321.5,-129 178.5,-129 178.5,-110 321.5,-110 321.5,-129"/>
<text text-anchor="middle" x="250" y="-117" font-family="Helvetica,sans-Serif" font-size="10.00">src/utils/PlatformUtils.cpp</text>
</a>
</g>
</g>
<!-- Node1&#45;&gt;Node7 -->
<g id="edge6_Node000001_Node000007" class="edge">
<title>Node1&#45;&gt;Node7</title>
<g id="a_edge6_Node000001_Node000007"><a xlink:title=" ">
<path fill="none" stroke="#63b8ff" d="M312.43,-159.42C297,-149.81 277.05,-137.37 263.91,-129.17"/>
<polygon fill="#63b8ff" stroke="#63b8ff" points="311.01,-162.66 321.34,-164.98 314.71,-156.72 311.01,-162.66"/>
</a>
</g>
</g>
<!-- Node8 -->
<g id="Node000008" class="node">
<title>Node8</title>
<g id="a_Node000008"><a xlink:href="SettingsManager_8cpp.html" target="_top" xlink:title="Implementation of settings management with file persistence.">
<polygon fill="white" stroke="#666666" points="500,-129 340,-129 340,-110 500,-110 500,-129"/>
<text text-anchor="middle" x="420" y="-117" font-family="Helvetica,sans-Serif" font-size="10.00">src/utils/SettingsManager.cpp</text>
</a>
</g>
</g>
<!-- Node1&#45;&gt;Node8 -->
<g id="edge7_Node000001_Node000008" class="edge">
<title>Node1&#45;&gt;Node8</title>
<g id="a_edge7_Node000001_Node000008"><a xlink:title=" ">
<path fill="none" stroke="#63b8ff" d="M357.57,-159.42C373,-149.81 392.95,-137.37 406.09,-129.17"/>
<polygon fill="#63b8ff" stroke="#63b8ff" points="355.29,-156.72 348.66,-164.98 358.99,-162.66 355.29,-156.72"/>
</a>
</g>
</g>
<!-- Node9 -->
<g id="Node000009" class="node">
<title>Node9</title>
<g id="a_Node000009"><a xlink:href="ConsoleRenderer_8h.html" target="_top" xlink:title="Renders game state, menus, and UI elements to the console.">
<polygon fill="white" stroke="#666666" points="670,-129 518,-129 518,-110 670,-110 670,-129"/>
<text text-anchor="middle" x="594" y="-117" font-family="Helvetica,sans-Serif" font-size="10.00">src/view/ConsoleRenderer.h</text>
</a>
</g>
</g>
<!-- Node1&#45;&gt;Node9 -->
<g id="edge8_Node000001_Node000009" class="edge">
<title>Node1&#45;&gt;Node9</title>
<g id="a_edge8_Node000001_Node000009"><a xlink:title=" ">
<path fill="none" stroke="#63b8ff" d="M386.6,-162.94C435.15,-153.01 506.94,-138.31 552.06,-129.08"/>
<polygon fill="#63b8ff" stroke="#63b8ff" points="385.71,-159.55 376.61,-164.98 387.11,-166.41 385.71,-159.55"/>
</a>
</g>
</g>
<!-- Node3 -->
<g id="Node000003" class="node">
<title>Node3</title>
<g id="a_Node000003"><a xlink:href="GameController_8h.html" target="_top" xlink:title="Central game controller coordinating model, view, and input systems.">
<polygon fill="white" stroke="#666666" points="424.5,-74 255.5,-74 255.5,-55 424.5,-55 424.5,-74"/>
<text text-anchor="middle" x="340" y="-62" font-family="Helvetica,sans-Serif" font-size="10.00">src/controller/GameController.h</text>
</a>
</g>
</g>
<!-- Node2&#45;&gt;Node3 -->
<g id="edge2_Node000002_Node000003" class="edge">
<title>Node2&#45;&gt;Node3</title>
<g id="a_edge2_Node000002_Node000003"><a xlink:title=" ">
<path fill="none" stroke="#63b8ff" d="M134.2,-107.94C182.38,-98.01 253.62,-83.31 298.38,-74.08"/>
<polygon fill="#63b8ff" stroke="#63b8ff" points="133.38,-104.54 124.29,-109.98 134.79,-111.39 133.38,-104.54"/>
</a>
</g>
</g>
<!-- Node6 -->
<g id="Node000006" class="node">
<title>Node6</title>
<g id="a_Node000006"><a xlink:href="InputHandler_8cpp.html" target="_top" xlink:title="Implementation of input handling with keyboard and Unicode support.">
<polygon fill="white" stroke="#666666" points="166,-74 0,-74 0,-55 166,-55 166,-74"/>
<text text-anchor="middle" x="83" y="-62" font-family="Helvetica,sans-Serif" font-size="10.00">src/controller/InputHandler.cpp</text>
</a>
</g>
</g>
<!-- Node2&#45;&gt;Node6 -->
<g id="edge5_Node000002_Node000006" class="edge">
<title>Node2&#45;&gt;Node6</title>
<g id="a_edge5_Node000002_Node000006"><a xlink:title=" ">
<path fill="none" stroke="#63b8ff" d="M83,-99.66C83,-90.93 83,-80.99 83,-74.09"/>
<polygon fill="#63b8ff" stroke="#63b8ff" points="79.5,-99.75 83,-109.75 86.5,-99.75 79.5,-99.75"/>
</a>
</g>
</g>
<!-- Node4 -->
<g id="Node000004" class="node">
<title>Node4</title>
<g id="a_Node000004"><a xlink:href="GameController_8cpp.html" target="_top" xlink:title="Implementation of main game controller and game loop logic.">
<polygon fill="white" stroke="#666666" points="356,-19 176,-19 176,0 356,0 356,-19"/>
<text text-anchor="middle" x="266" y="-7" font-family="Helvetica,sans-Serif" font-size="10.00">src/controller/GameController.cpp</text>
</a>
</g>
</g>
<!-- Node3&#45;&gt;Node4 -->
<g id="edge3_Node000003_Node000004" class="edge">
<title>Node3&#45;&gt;Node4</title>
<g id="a_edge3_Node000003_Node000004"><a xlink:title=" ">
<path fill="none" stroke="#63b8ff" d="M319.97,-49.15C306.59,-39.57 289.44,-27.29 278.11,-19.17"/>
<polygon fill="#63b8ff" stroke="#63b8ff" points="317.94,-52.01 328.11,-54.98 322.02,-46.32 317.94,-52.01"/>
</a>
</g>
</g>
<!-- Node5 -->
<g id="Node000005" class="node">
<title>Node5</title>
<g id="a_Node000005"><a xlink:href="main_8cpp.html" target="_top" xlink:title="Main entry point for the Tank Simulator game.">
<polygon fill="white" stroke="#666666" points="453.5,-19 374.5,-19 374.5,0 453.5,0 453.5,-19"/>
<text text-anchor="middle" x="414" y="-7" font-family="Helvetica,sans-Serif" font-size="10.00">src/main.cpp</text>
</a>
</g>
</g>
<!-- Node3&#45;&gt;Node5 -->
<g id="edge4_Node000003_Node000005" class="edge">
<title>Node3&#45;&gt;Node5</title>
<g id="a_edge4_Node000003_Node000005"><a xlink:title=" ">
<path fill="none" stroke="#63b8ff" d="M360.03,-49.15C373.41,-39.57 390.56,-27.29 401.89,-19.17"/>
<polygon fill="#63b8ff" stroke="#63b8ff" points="357.98,-46.32 351.89,-54.98 362.06,-52.01 357.98,-46.32"/>
</a>
</g>
</g>
<!-- Node9&#45;&gt;Node3 -->
<g id="edge9_Node000009_Node000003" class="edge">
<title>Node9&#45;&gt;Node3</title>
<g id="a_edge9_Node000009_Node000003"><a xlink:title=" ">
<path fill="none" stroke="#63b8ff" d="M543.39,-107.94C495.78,-98.01 425.38,-83.31 381.13,-74.08"/>
<polygon fill="#63b8ff" stroke="#63b8ff" points="542.69,-111.37 553.19,-109.98 544.12,-104.52 542.69,-111.37"/>
</a>
</g>
</g>
<!-- Node10 -->
<g id="Node000010" class="node">
<title>Node10</title>
<g id="a_Node000010"><a xlink:href="ConsoleRenderer_8cpp.html" target="_top" xlink:title="Implementation of console&#45;based game rendering with ASCII/Unicode support.">
<polygon fill="white" stroke="#666666" points="675.5,-74 512.5,-74 512.5,-55 675.5,-55 675.5,-74"/>
<text text-anchor="middle" x="594" y="-62" font-family="Helvetica,sans-Serif" font-size="10.00">src/view/ConsoleRenderer.cpp</text>
</a>
</g>
</g>
<!-- Node9&#45;&gt;Node10 -->
<g id="edge10_Node000009_Node000010" class="edge">
<title>Node9&#45;&gt;Node10</title>
<g id="a_edge10_Node000009_Node000010"><a xlink:title=" ">
<path fill="none" stroke="#63b8ff" d="M594,-99.66C594,-90.93 594,-80.99 594,-74.09"/>
<polygon fill="#63b8ff" stroke="#63b8ff" points="590.5,-99.75 594,-109.75 597.5,-99.75 590.5,-99.75"/>
</a>
</g>
</g>
</g>
</svg>
