<?xml version="1.0" encoding="UTF-8" standalone="no"?>
<!DOCTYPE svg PUBLIC "-//W3C//DTD SVG 1.1//EN"
 "http://www.w3.org/Graphics/SVG/1.1/DTD/svg11.dtd">
<!-- Generated by graphviz version 2.43.0 (0)
 -->
<!-- Title: src/model/PlayerTank.cpp Pages: 1 -->
<svg width="196pt" height="247pt"
 viewBox="0.00 0.00 196.00 247.00" xmlns="http://www.w3.org/2000/svg" xmlns:xlink="http://www.w3.org/1999/xlink">

<svg id="main" version="1.1" xmlns="http://www.w3.org/2000/svg" xmlns:xlink="http://www.w3.org/1999/xlink" xml:space="preserve" onload="init(evt)">
<style type="text/css"><![CDATA[
.node, .edge {opacity: 0.7;}
.node.selected, .edge.selected {opacity: 1;}
.edge:hover path { stroke: red; }
.edge:hover polygon { stroke: red; fill: red; }
]]></style>
<script type="application/ecmascript" xlink:href="svg.min.js"/>
<svg id="graph" class="graph">
<g id="graph0" class="graph" transform="scale(1 1) rotate(0) translate(4 243)">
<title>src/model/PlayerTank.cpp</title>
<!-- Node1 -->
<g id="Node000001" class="node">
<title>Node1</title>
<g id="a_Node000001"><a xlink:title="Implementation of player&#45;controlled tank with lives, score, and bonus management.">
<polygon fill="#999999" stroke="#666666" points="141,-239 0,-239 0,-220 141,-220 141,-239"/>
<text text-anchor="middle" x="70.5" y="-227" font-family="Helvetica,sans-Serif" font-size="10.00">src/model/PlayerTank.cpp</text>
</a>
</g>
</g>
<!-- Node2 -->
<g id="Node000002" class="node">
<title>Node2</title>
<g id="a_Node000002"><a xlink:href="PlayerTank_8h.html" target="_top" xlink:title="Player&#45;controlled tank with lives, score system, and special abilities.">
<polygon fill="white" stroke="#666666" points="110,-184 31,-184 31,-165 110,-165 110,-184"/>
<text text-anchor="middle" x="70.5" y="-172" font-family="Helvetica,sans-Serif" font-size="10.00">PlayerTank.h</text>
</a>
</g>
</g>
<!-- Node1&#45;&gt;Node2 -->
<g id="edge1_Node000001_Node000002" class="edge">
<title>Node1&#45;&gt;Node2</title>
<g id="a_edge1_Node000001_Node000002"><a xlink:title=" ">
<path fill="none" stroke="#63b8ff" d="M70.5,-219.75C70.5,-212.8 70.5,-202.85 70.5,-194.13"/>
<polygon fill="#63b8ff" stroke="#63b8ff" points="74,-194.09 70.5,-184.09 67,-194.09 74,-194.09"/>
</a>
</g>
</g>
<!-- Node3 -->
<g id="Node000003" class="node">
<title>Node3</title>
<g id="a_Node000003"><a xlink:href="Tank_8h.html" target="_top" xlink:title="Abstract tank base class with shooting, bonuses, and combat mechanics.">
<polygon fill="white" stroke="#666666" points="94.5,-129 46.5,-129 46.5,-110 94.5,-110 94.5,-129"/>
<text text-anchor="middle" x="70.5" y="-117" font-family="Helvetica,sans-Serif" font-size="10.00">Tank.h</text>
</a>
</g>
</g>
<!-- Node2&#45;&gt;Node3 -->
<g id="edge2_Node000002_Node000003" class="edge">
<title>Node2&#45;&gt;Node3</title>
<g id="a_edge2_Node000002_Node000003"><a xlink:title=" ">
<path fill="none" stroke="#63b8ff" d="M70.5,-164.75C70.5,-157.8 70.5,-147.85 70.5,-139.13"/>
<polygon fill="#63b8ff" stroke="#63b8ff" points="74,-139.09 70.5,-129.09 67,-139.09 74,-139.09"/>
</a>
</g>
</g>
<!-- Node4 -->
<g id="Node000004" class="node">
<title>Node4</title>
<g id="a_Node000004"><a xlink:href="GameObject_8h.html" target="_top" xlink:title="Base class and structures for all game objects with position, direction, and health.">
<polygon fill="white" stroke="#666666" points="111.5,-19 25.5,-19 25.5,0 111.5,0 111.5,-19"/>
<text text-anchor="middle" x="68.5" y="-7" font-family="Helvetica,sans-Serif" font-size="10.00">GameObject.h</text>
</a>
</g>
</g>
<!-- Node3&#45;&gt;Node4 -->
<g id="edge3_Node000003_Node000004" class="edge">
<title>Node3&#45;&gt;Node4</title>
<g id="a_edge3_Node000003_Node000004"><a xlink:title=" ">
<path fill="none" stroke="#63b8ff" d="M60.06,-109.87C51.08,-101.7 38.76,-88.55 33.5,-74 27.32,-56.91 39.24,-38.9 50.82,-26.44"/>
<polygon fill="#63b8ff" stroke="#63b8ff" points="53.55,-28.66 58.18,-19.12 48.62,-23.69 53.55,-28.66"/>
</a>
</g>
</g>
<!-- Node5 -->
<g id="Node000005" class="node">
<title>Node5</title>
<g id="a_Node000005"><a xlink:href="Projectile_8h.html" target="_top" xlink:title="Projectile class for bullets fired by tanks with collision detection.">
<polygon fill="white" stroke="#666666" points="188,-74 117,-74 117,-55 188,-55 188,-74"/>
<text text-anchor="middle" x="152.5" y="-62" font-family="Helvetica,sans-Serif" font-size="10.00">Projectile.h</text>
</a>
</g>
</g>
<!-- Node3&#45;&gt;Node5 -->
<g id="edge4_Node000003_Node000005" class="edge">
<title>Node3&#45;&gt;Node5</title>
<g id="a_edge4_Node000003_Node000005"><a xlink:title=" ">
<path fill="none" stroke="#63b8ff" d="M83.67,-109.98C96.27,-101.84 115.5,-89.41 130.44,-79.76"/>
<polygon fill="#63b8ff" stroke="#63b8ff" points="132.59,-82.54 139.09,-74.17 128.79,-76.66 132.59,-82.54"/>
</a>
</g>
</g>
<!-- Node7 -->
<g id="Node000007" class="node">
<title>Node7</title>
<g id="a_Node000007"><a xlink:href="Bonus_8h.html" target="_top" xlink:title="Power&#45;up bonuses with various effects for enhancing player abilities.">
<polygon fill="white" stroke="#666666" points="98.5,-74 42.5,-74 42.5,-55 98.5,-55 98.5,-74"/>
<text text-anchor="middle" x="70.5" y="-62" font-family="Helvetica,sans-Serif" font-size="10.00">Bonus.h</text>
</a>
</g>
</g>
<!-- Node3&#45;&gt;Node7 -->
<g id="edge7_Node000003_Node000007" class="edge">
<title>Node3&#45;&gt;Node7</title>
<g id="a_edge7_Node000003_Node000007"><a xlink:title=" ">
<path fill="none" stroke="#63b8ff" d="M70.5,-109.75C70.5,-102.8 70.5,-92.85 70.5,-84.13"/>
<polygon fill="#63b8ff" stroke="#63b8ff" points="74,-84.09 70.5,-74.09 67,-84.09 74,-84.09"/>
</a>
</g>
</g>
<!-- Node5&#45;&gt;Node4 -->
<g id="edge5_Node000005_Node000004" class="edge">
<title>Node5&#45;&gt;Node4</title>
<g id="a_edge5_Node000005_Node000004"><a xlink:title=" ">
<path fill="none" stroke="#63b8ff" d="M139,-54.98C126.1,-46.84 106.4,-34.41 91.1,-24.76"/>
<polygon fill="#63b8ff" stroke="#63b8ff" points="92.57,-21.55 82.24,-19.17 88.83,-27.47 92.57,-21.55"/>
</a>
</g>
</g>
<!-- Node6 -->
<g id="Node000006" class="node">
<title>Node6</title>
<g id="a_Node000006"><a xlink:title=" ">
<polygon fill="#e0e0e0" stroke="#999999" points="177,-19 130,-19 130,0 177,0 177,-19"/>
<text text-anchor="middle" x="153.5" y="-7" font-family="Helvetica,sans-Serif" font-size="10.00">vector</text>
</a>
</g>
</g>
<!-- Node5&#45;&gt;Node6 -->
<g id="edge6_Node000005_Node000006" class="edge">
<title>Node5&#45;&gt;Node6</title>
<g id="a_edge6_Node000005_Node000006"><a xlink:title=" ">
<path fill="none" stroke="#63b8ff" d="M152.67,-54.75C152.8,-47.8 152.98,-37.85 153.15,-29.13"/>
<polygon fill="#63b8ff" stroke="#63b8ff" points="156.65,-29.15 153.34,-19.09 149.65,-29.02 156.65,-29.15"/>
</a>
</g>
</g>
<!-- Node7&#45;&gt;Node4 -->
<g id="edge8_Node000007_Node000004" class="edge">
<title>Node7&#45;&gt;Node4</title>
<g id="a_edge8_Node000007_Node000004"><a xlink:title=" ">
<path fill="none" stroke="#63b8ff" d="M70.17,-54.75C69.91,-47.8 69.53,-37.85 69.2,-29.13"/>
<polygon fill="#63b8ff" stroke="#63b8ff" points="72.7,-28.95 68.82,-19.09 65.7,-29.21 72.7,-28.95"/>
</a>
</g>
</g>
</g>
</svg>
</svg>

<style type='text/css'>
<![CDATA[
[data-mouse-over-selected='false'] { opacity: 0.7; }
[data-mouse-over-selected='true']  { opacity: 1.0; }
]]>
</style>
<script type="application/ecmascript"><![CDATA[
document.addEventListener('DOMContentLoaded', (event) => {
  highlightEdges();
  highlightAdjacentNodes();
});
]]></script>
</svg>
