<?xml version="1.0" encoding="UTF-8" standalone="no"?>
<!DOCTYPE svg PUBLIC "-//W3C//DTD SVG 1.1//EN"
 "http://www.w3.org/Graphics/SVG/1.1/DTD/svg11.dtd">
<!-- Generated by graphviz version 2.43.0 (0)
 -->
<!-- Title: model/PlayerTank.h Pages: 1 -->
<svg width="524pt" height="302pt"
 viewBox="0.00 0.00 524.00 302.00" xmlns="http://www.w3.org/2000/svg" xmlns:xlink="http://www.w3.org/1999/xlink">
<g id="graph0" class="graph" transform="scale(1 1) rotate(0) translate(4 298)">
<title>model/PlayerTank.h</title>
<!-- Node1 -->
<g id="Node000001" class="node">
<title>Node1</title>
<g id="a_Node000001"><a xlink:title="Player&#45;controlled tank with lives, score system, and special abilities.">
<polygon fill="#999999" stroke="#666666" points="376.5,-294 263.5,-294 263.5,-275 376.5,-275 376.5,-294"/>
<text text-anchor="middle" x="320" y="-282" font-family="Helvetica,sans-Serif" font-size="10.00">model/PlayerTank.h</text>
</a>
</g>
</g>
<!-- Node2 -->
<g id="Node000002" class="node">
<title>Node2</title>
<g id="a_Node000002"><a xlink:href="Bonus_8cpp.html" target="_top" xlink:title="Implementation of power&#45;up bonuses with various effects for player tank.">
<polygon fill="white" stroke="#666666" points="182.5,-239 81.5,-239 81.5,-220 182.5,-220 182.5,-239"/>
<text text-anchor="middle" x="132" y="-227" font-family="Helvetica,sans-Serif" font-size="10.00">model/Bonus.cpp</text>
</a>
</g>
</g>
<!-- Node1&#45;&gt;Node2 -->
<g id="edge1_Node000001_Node000002" class="edge">
<title>Node1&#45;&gt;Node2</title>
<g id="a_edge1_Node000001_Node000002"><a xlink:title=" ">
<path fill="none" stroke="#63b8ff" d="M279.86,-272.18C244.7,-262.27 194.37,-248.08 162.44,-239.08"/>
<polygon fill="#63b8ff" stroke="#63b8ff" points="279.22,-275.64 289.79,-274.98 281.12,-268.9 279.22,-275.64"/>
</a>
</g>
</g>
<!-- Node3 -->
<g id="Node000003" class="node">
<title>Node3</title>
<g id="a_Node000003"><a xlink:href="GameWorld_8h.html" target="_top" xlink:title="Main game world manager handling objects, collisions, states, and game logic.">
<polygon fill="white" stroke="#666666" points="317,-239 201,-239 201,-220 317,-220 317,-239"/>
<text text-anchor="middle" x="259" y="-227" font-family="Helvetica,sans-Serif" font-size="10.00">model/GameWorld.h</text>
</a>
</g>
</g>
<!-- Node1&#45;&gt;Node3 -->
<g id="edge2_Node000001_Node000003" class="edge">
<title>Node1&#45;&gt;Node3</title>
<g id="a_edge2_Node000001_Node000003"><a xlink:title=" ">
<path fill="none" stroke="#63b8ff" d="M302.53,-268.32C291.66,-258.87 278.06,-247.06 268.98,-239.17"/>
<polygon fill="#63b8ff" stroke="#63b8ff" points="300.35,-271.07 310.2,-274.98 304.95,-265.78 300.35,-271.07"/>
</a>
</g>
</g>
<!-- Node9 -->
<g id="Node000009" class="node">
<title>Node9</title>
<g id="a_Node000009"><a xlink:href="MapManager_8cpp.html" target="_top" xlink:title="Implementation for loading, creating, and managing game maps.">
<polygon fill="white" stroke="#666666" points="498,-129 374,-129 374,-110 498,-110 498,-129"/>
<text text-anchor="middle" x="436" y="-117" font-family="Helvetica,sans-Serif" font-size="10.00">utils/MapManager.cpp</text>
</a>
</g>
</g>
<!-- Node1&#45;&gt;Node9 -->
<g id="edge15_Node000001_Node000009" class="edge">
<title>Node1&#45;&gt;Node9</title>
<g id="a_edge15_Node000001_Node000009"><a xlink:title=" ">
<path fill="none" stroke="#63b8ff" d="M332.33,-266.18C356.92,-231.62 411.28,-155.23 429.73,-129.31"/>
<polygon fill="#63b8ff" stroke="#63b8ff" points="329.18,-264.56 326.24,-274.74 334.89,-268.62 329.18,-264.56"/>
</a>
</g>
</g>
<!-- Node12 -->
<g id="Node000012" class="node">
<title>Node12</title>
<g id="a_Node000012"><a xlink:href="PlayerTank_8cpp.html" target="_top" xlink:title="Implementation of player&#45;controlled tank with lives, score, and bonus management.">
<polygon fill="white" stroke="#666666" points="516,-239 392,-239 392,-220 516,-220 516,-239"/>
<text text-anchor="middle" x="454" y="-227" font-family="Helvetica,sans-Serif" font-size="10.00">model/PlayerTank.cpp</text>
</a>
</g>
</g>
<!-- Node1&#45;&gt;Node12 -->
<g id="edge14_Node000001_Node000012" class="edge">
<title>Node1&#45;&gt;Node12</title>
<g id="a_edge14_Node000001_Node000012"><a xlink:title=" ">
<path fill="none" stroke="#63b8ff" d="M350.87,-271.29C375.7,-261.47 409.99,-247.91 432.08,-239.17"/>
<polygon fill="#63b8ff" stroke="#63b8ff" points="349.54,-268.05 341.53,-274.98 352.12,-274.56 349.54,-268.05"/>
</a>
</g>
</g>
<!-- Node4 -->
<g id="Node000004" class="node">
<title>Node4</title>
<g id="a_Node000004"><a xlink:href="GameController_8h.html" target="_top" xlink:title="Central game controller coordinating model, view, and input systems.">
<polygon fill="white" stroke="#666666" points="251,-74 99,-74 99,-55 251,-55 251,-74"/>
<text text-anchor="middle" x="175" y="-62" font-family="Helvetica,sans-Serif" font-size="10.00">controller/GameController.h</text>
</a>
</g>
</g>
<!-- Node3&#45;&gt;Node4 -->
<g id="edge3_Node000003_Node000004" class="edge">
<title>Node3&#45;&gt;Node4</title>
<g id="a_edge3_Node000003_Node000004"><a xlink:title=" ">
<path fill="none" stroke="#63b8ff" d="M215.94,-216.17C200.22,-209.35 184.09,-199.11 175,-184 153.46,-148.22 166.08,-94.67 172.23,-74.03"/>
<polygon fill="#63b8ff" stroke="#63b8ff" points="215.01,-219.56 225.6,-219.98 217.58,-213.05 215.01,-219.56"/>
</a>
</g>
</g>
<!-- Node7 -->
<g id="Node000007" class="node">
<title>Node7</title>
<g id="a_Node000007"><a xlink:href="GameWorld_8cpp.html" target="_top" xlink:title="Core game simulation with object management, collisions, and level generation.">
<polygon fill="white" stroke="#666666" points="128,-184 0,-184 0,-165 128,-165 128,-184"/>
<text text-anchor="middle" x="64" y="-172" font-family="Helvetica,sans-Serif" font-size="10.00">model/GameWorld.cpp</text>
</a>
</g>
</g>
<!-- Node3&#45;&gt;Node7 -->
<g id="edge6_Node000003_Node000007" class="edge">
<title>Node3&#45;&gt;Node7</title>
<g id="a_edge6_Node000003_Node000007"><a xlink:title=" ">
<path fill="none" stroke="#63b8ff" d="M217.83,-217.31C181.34,-207.39 128.83,-193.12 95.58,-184.08"/>
<polygon fill="#63b8ff" stroke="#63b8ff" points="217.1,-220.74 227.67,-219.98 218.94,-213.98 217.1,-220.74"/>
</a>
</g>
</g>
<!-- Node8 -->
<g id="Node000008" class="node">
<title>Node8</title>
<g id="a_Node000008"><a xlink:href="MapManager_8h.html" target="_top" xlink:title="Manages game maps, level generation, and procedural content.">
<polygon fill="white" stroke="#666666" points="297.5,-184 184.5,-184 184.5,-165 297.5,-165 297.5,-184"/>
<text text-anchor="middle" x="241" y="-172" font-family="Helvetica,sans-Serif" font-size="10.00">utils/MapManager.h</text>
</a>
</g>
</g>
<!-- Node3&#45;&gt;Node8 -->
<g id="edge7_Node000003_Node000008" class="edge">
<title>Node3&#45;&gt;Node8</title>
<g id="a_edge7_Node000003_Node000008"><a xlink:title=" ">
<path fill="none" stroke="#63b8ff" d="M252.8,-210.24C249.79,-201.37 246.31,-191.14 243.92,-184.09"/>
<polygon fill="#63b8ff" stroke="#63b8ff" points="249.5,-211.4 256.03,-219.75 256.13,-209.15 249.5,-211.4"/>
</a>
</g>
</g>
<!-- Node10 -->
<g id="Node000010" class="node">
<title>Node10</title>
<g id="a_Node000010"><a xlink:href="ConsoleRenderer_8h.html" target="_top" xlink:title="Renders game state, menus, and UI elements to the console.">
<polygon fill="white" stroke="#666666" points="356,-129 222,-129 222,-110 356,-110 356,-129"/>
<text text-anchor="middle" x="289" y="-117" font-family="Helvetica,sans-Serif" font-size="10.00">view/ConsoleRenderer.h</text>
</a>
</g>
</g>
<!-- Node3&#45;&gt;Node10 -->
<g id="edge13_Node000003_Node000010" class="edge">
<title>Node3&#45;&gt;Node10</title>
<g id="a_edge13_Node000003_Node000010"><a xlink:title=" ">
<path fill="none" stroke="#63b8ff" d="M281.63,-213.97C291.37,-206.35 301.73,-196.08 307,-184 315.16,-165.31 303.27,-141.91 295.27,-129.39"/>
<polygon fill="#63b8ff" stroke="#63b8ff" points="279.41,-211.26 273.37,-219.96 283.52,-216.93 279.41,-211.26"/>
</a>
</g>
</g>
<!-- Node5 -->
<g id="Node000005" class="node">
<title>Node5</title>
<g id="a_Node000005"><a xlink:href="GameController_8cpp.html" target="_top" xlink:title="Implementation of main game controller and game loop logic.">
<polygon fill="white" stroke="#666666" points="191.5,-19 28.5,-19 28.5,0 191.5,0 191.5,-19"/>
<text text-anchor="middle" x="110" y="-7" font-family="Helvetica,sans-Serif" font-size="10.00">controller/GameController.cpp</text>
</a>
</g>
</g>
<!-- Node4&#45;&gt;Node5 -->
<g id="edge4_Node000004_Node000005" class="edge">
<title>Node4&#45;&gt;Node5</title>
<g id="a_edge4_Node000004_Node000005"><a xlink:title=" ">
<path fill="none" stroke="#63b8ff" d="M156.73,-48.6C145.08,-39.11 130.4,-27.13 120.63,-19.17"/>
<polygon fill="#63b8ff" stroke="#63b8ff" points="154.59,-51.38 164.56,-54.98 159.02,-45.95 154.59,-51.38"/>
</a>
</g>
</g>
<!-- Node6 -->
<g id="Node000006" class="node">
<title>Node6</title>
<g id="a_Node000006"><a xlink:href="main_8cpp.html" target="_top" xlink:title="Main entry point for the Tank Simulator game.">
<polygon fill="white" stroke="#666666" points="272,-19 210,-19 210,0 272,0 272,-19"/>
<text text-anchor="middle" x="241" y="-7" font-family="Helvetica,sans-Serif" font-size="10.00">main.cpp</text>
</a>
</g>
</g>
<!-- Node4&#45;&gt;Node6 -->
<g id="edge5_Node000004_Node000006" class="edge">
<title>Node4&#45;&gt;Node6</title>
<g id="a_edge5_Node000004_Node000006"><a xlink:title=" ">
<path fill="none" stroke="#63b8ff" d="M193.55,-48.6C205.38,-39.11 220.29,-27.13 230.2,-19.17"/>
<polygon fill="#63b8ff" stroke="#63b8ff" points="191.21,-45.99 185.6,-54.98 195.59,-51.45 191.21,-45.99"/>
</a>
</g>
</g>
<!-- Node8&#45;&gt;Node4 -->
<g id="edge8_Node000008_Node000004" class="edge">
<title>Node8&#45;&gt;Node4</title>
<g id="a_edge8_Node000008_Node000004"><a xlink:title=" ">
<path fill="none" stroke="#63b8ff" d="M229.87,-156.01C224.7,-147.84 218.49,-137.95 213,-129 201.04,-109.51 187.34,-86.42 180.1,-74.16"/>
<polygon fill="#63b8ff" stroke="#63b8ff" points="227.05,-158.1 235.36,-164.67 232.96,-154.35 227.05,-158.1"/>
</a>
</g>
</g>
<!-- Node8&#45;&gt;Node9 -->
<g id="edge9_Node000008_Node000009" class="edge">
<title>Node8&#45;&gt;Node9</title>
<g id="a_edge9_Node000008_Node000009"><a xlink:title=" ">
<path fill="none" stroke="#63b8ff" d="M282.17,-162.31C318.66,-152.39 371.17,-138.12 404.42,-129.08"/>
<polygon fill="#63b8ff" stroke="#63b8ff" points="281.06,-158.98 272.33,-164.98 282.9,-165.74 281.06,-158.98"/>
</a>
</g>
</g>
<!-- Node8&#45;&gt;Node10 -->
<g id="edge10_Node000008_Node000010" class="edge">
<title>Node8&#45;&gt;Node10</title>
<g id="a_edge10_Node000008_Node000010"><a xlink:title=" ">
<path fill="none" stroke="#63b8ff" d="M255.73,-157.24C264.14,-147.95 274.35,-136.68 281.22,-129.09"/>
<polygon fill="#63b8ff" stroke="#63b8ff" points="253.04,-154.99 248.93,-164.75 258.23,-159.69 253.04,-154.99"/>
</a>
</g>
</g>
<!-- Node10&#45;&gt;Node4 -->
<g id="edge11_Node000010_Node000004" class="edge">
<title>Node10&#45;&gt;Node4</title>
<g id="a_edge11_Node000010_Node000004"><a xlink:title=" ">
<path fill="none" stroke="#63b8ff" d="M261.61,-105.77C240.58,-95.99 212.11,-82.75 193.65,-74.17"/>
<polygon fill="#63b8ff" stroke="#63b8ff" points="260.14,-108.94 270.68,-109.98 263.09,-102.6 260.14,-108.94"/>
</a>
</g>
</g>
<!-- Node11 -->
<g id="Node000011" class="node">
<title>Node11</title>
<g id="a_Node000011"><a xlink:href="ConsoleRenderer_8cpp.html" target="_top" xlink:title="Implementation of console&#45;based game rendering with ASCII/Unicode support.">
<polygon fill="white" stroke="#666666" points="415,-74 269,-74 269,-55 415,-55 415,-74"/>
<text text-anchor="middle" x="342" y="-62" font-family="Helvetica,sans-Serif" font-size="10.00">view/ConsoleRenderer.cpp</text>
</a>
</g>
</g>
<!-- Node10&#45;&gt;Node11 -->
<g id="edge12_Node000010_Node000011" class="edge">
<title>Node10&#45;&gt;Node11</title>
<g id="a_edge12_Node000010_Node000011"><a xlink:title=" ">
<path fill="none" stroke="#63b8ff" d="M304.98,-102.52C314.32,-93.18 325.75,-81.75 333.41,-74.09"/>
<polygon fill="#63b8ff" stroke="#63b8ff" points="302.35,-100.2 297.75,-109.75 307.3,-105.15 302.35,-100.2"/>
</a>
</g>
</g>
</g>
</svg>
