<?xml version="1.0" encoding="UTF-8" standalone="no"?>
<!DOCTYPE svg PUBLIC "-//W3C//DTD SVG 1.1//EN"
 "http://www.w3.org/Graphics/SVG/1.1/DTD/svg11.dtd">
<!-- Generated by graphviz version 2.43.0 (0)
 -->
<!-- Title: model/PlayerTank.cpp Pages: 1 -->
<svg width="188pt" height="247pt"
 viewBox="0.00 0.00 187.50 247.00" xmlns="http://www.w3.org/2000/svg" xmlns:xlink="http://www.w3.org/1999/xlink">
<g id="graph0" class="graph" transform="scale(1 1) rotate(0) translate(4 243)">
<title>model/PlayerTank.cpp</title>
<!-- Node1 -->
<g id="Node000001" class="node">
<title>Node1</title>
<g id="a_Node000001"><a xlink:title="Implementation of player&#45;controlled tank with lives, score, and bonus management.">
<polygon fill="#999999" stroke="#666666" points="124,-239 0,-239 0,-220 124,-220 124,-239"/>
<text text-anchor="middle" x="62" y="-227" font-family="Helvetica,sans-Serif" font-size="10.00">model/PlayerTank.cpp</text>
</a>
</g>
</g>
<!-- Node2 -->
<g id="Node000002" class="node">
<title>Node2</title>
<g id="a_Node000002"><a xlink:href="PlayerTank_8h.html" target="_top" xlink:title="Player&#45;controlled tank with lives, score system, and special abilities.">
<polygon fill="white" stroke="#666666" points="101.5,-184 22.5,-184 22.5,-165 101.5,-165 101.5,-184"/>
<text text-anchor="middle" x="62" y="-172" font-family="Helvetica,sans-Serif" font-size="10.00">PlayerTank.h</text>
</a>
</g>
</g>
<!-- Node1&#45;&gt;Node2 -->
<g id="edge1_Node000001_Node000002" class="edge">
<title>Node1&#45;&gt;Node2</title>
<g id="a_edge1_Node000001_Node000002"><a xlink:title=" ">
<path fill="none" stroke="#63b8ff" d="M62,-219.75C62,-212.8 62,-202.85 62,-194.13"/>
<polygon fill="#63b8ff" stroke="#63b8ff" points="65.5,-194.09 62,-184.09 58.5,-194.09 65.5,-194.09"/>
</a>
</g>
</g>
<!-- Node3 -->
<g id="Node000003" class="node">
<title>Node3</title>
<g id="a_Node000003"><a xlink:href="Tank_8h.html" target="_top" xlink:title="Abstract tank base class with shooting, bonuses, and combat mechanics.">
<polygon fill="white" stroke="#666666" points="86,-129 38,-129 38,-110 86,-110 86,-129"/>
<text text-anchor="middle" x="62" y="-117" font-family="Helvetica,sans-Serif" font-size="10.00">Tank.h</text>
</a>
</g>
</g>
<!-- Node2&#45;&gt;Node3 -->
<g id="edge2_Node000002_Node000003" class="edge">
<title>Node2&#45;&gt;Node3</title>
<g id="a_edge2_Node000002_Node000003"><a xlink:title=" ">
<path fill="none" stroke="#63b8ff" d="M62,-164.75C62,-157.8 62,-147.85 62,-139.13"/>
<polygon fill="#63b8ff" stroke="#63b8ff" points="65.5,-139.09 62,-129.09 58.5,-139.09 65.5,-139.09"/>
</a>
</g>
</g>
<!-- Node4 -->
<g id="Node000004" class="node">
<title>Node4</title>
<g id="a_Node000004"><a xlink:href="GameObject_8h.html" target="_top" xlink:title="Base class and structures for all game objects with position, direction, and health.">
<polygon fill="white" stroke="#666666" points="103,-19 17,-19 17,0 103,0 103,-19"/>
<text text-anchor="middle" x="60" y="-7" font-family="Helvetica,sans-Serif" font-size="10.00">GameObject.h</text>
</a>
</g>
</g>
<!-- Node3&#45;&gt;Node4 -->
<g id="edge3_Node000003_Node000004" class="edge">
<title>Node3&#45;&gt;Node4</title>
<g id="a_edge3_Node000003_Node000004"><a xlink:title=" ">
<path fill="none" stroke="#63b8ff" d="M51.56,-109.87C42.58,-101.7 30.26,-88.55 25,-74 18.82,-56.91 30.74,-38.9 42.32,-26.44"/>
<polygon fill="#63b8ff" stroke="#63b8ff" points="45.05,-28.66 49.68,-19.12 40.12,-23.69 45.05,-28.66"/>
</a>
</g>
</g>
<!-- Node5 -->
<g id="Node000005" class="node">
<title>Node5</title>
<g id="a_Node000005"><a xlink:href="Projectile_8h.html" target="_top" xlink:title="Projectile class for bullets fired by tanks with collision detection.">
<polygon fill="white" stroke="#666666" points="179.5,-74 108.5,-74 108.5,-55 179.5,-55 179.5,-74"/>
<text text-anchor="middle" x="144" y="-62" font-family="Helvetica,sans-Serif" font-size="10.00">Projectile.h</text>
</a>
</g>
</g>
<!-- Node3&#45;&gt;Node5 -->
<g id="edge4_Node000003_Node000005" class="edge">
<title>Node3&#45;&gt;Node5</title>
<g id="a_edge4_Node000003_Node000005"><a xlink:title=" ">
<path fill="none" stroke="#63b8ff" d="M75.17,-109.98C87.77,-101.84 107,-89.41 121.94,-79.76"/>
<polygon fill="#63b8ff" stroke="#63b8ff" points="124.09,-82.54 130.59,-74.17 120.29,-76.66 124.09,-82.54"/>
</a>
</g>
</g>
<!-- Node7 -->
<g id="Node000007" class="node">
<title>Node7</title>
<g id="a_Node000007"><a xlink:href="Bonus_8h.html" target="_top" xlink:title="Power&#45;up bonuses with various effects for enhancing player abilities.">
<polygon fill="white" stroke="#666666" points="90,-74 34,-74 34,-55 90,-55 90,-74"/>
<text text-anchor="middle" x="62" y="-62" font-family="Helvetica,sans-Serif" font-size="10.00">Bonus.h</text>
</a>
</g>
</g>
<!-- Node3&#45;&gt;Node7 -->
<g id="edge7_Node000003_Node000007" class="edge">
<title>Node3&#45;&gt;Node7</title>
<g id="a_edge7_Node000003_Node000007"><a xlink:title=" ">
<path fill="none" stroke="#63b8ff" d="M62,-109.75C62,-102.8 62,-92.85 62,-84.13"/>
<polygon fill="#63b8ff" stroke="#63b8ff" points="65.5,-84.09 62,-74.09 58.5,-84.09 65.5,-84.09"/>
</a>
</g>
</g>
<!-- Node5&#45;&gt;Node4 -->
<g id="edge5_Node000005_Node000004" class="edge">
<title>Node5&#45;&gt;Node4</title>
<g id="a_edge5_Node000005_Node000004"><a xlink:title=" ">
<path fill="none" stroke="#63b8ff" d="M130.5,-54.98C117.6,-46.84 97.9,-34.41 82.6,-24.76"/>
<polygon fill="#63b8ff" stroke="#63b8ff" points="84.07,-21.55 73.74,-19.17 80.33,-27.47 84.07,-21.55"/>
</a>
</g>
</g>
<!-- Node6 -->
<g id="Node000006" class="node">
<title>Node6</title>
<g id="a_Node000006"><a xlink:title=" ">
<polygon fill="#e0e0e0" stroke="#999999" points="168.5,-19 121.5,-19 121.5,0 168.5,0 168.5,-19"/>
<text text-anchor="middle" x="145" y="-7" font-family="Helvetica,sans-Serif" font-size="10.00">vector</text>
</a>
</g>
</g>
<!-- Node5&#45;&gt;Node6 -->
<g id="edge6_Node000005_Node000006" class="edge">
<title>Node5&#45;&gt;Node6</title>
<g id="a_edge6_Node000005_Node000006"><a xlink:title=" ">
<path fill="none" stroke="#63b8ff" d="M144.17,-54.75C144.3,-47.8 144.48,-37.85 144.65,-29.13"/>
<polygon fill="#63b8ff" stroke="#63b8ff" points="148.15,-29.15 144.84,-19.09 141.15,-29.02 148.15,-29.15"/>
</a>
</g>
</g>
<!-- Node7&#45;&gt;Node4 -->
<g id="edge8_Node000007_Node000004" class="edge">
<title>Node7&#45;&gt;Node4</title>
<g id="a_edge8_Node000007_Node000004"><a xlink:title=" ">
<path fill="none" stroke="#63b8ff" d="M61.67,-54.75C61.41,-47.8 61.03,-37.85 60.7,-29.13"/>
<polygon fill="#63b8ff" stroke="#63b8ff" points="64.2,-28.95 60.32,-19.09 57.2,-29.21 64.2,-28.95"/>
</a>
</g>
</g>
</g>
</svg>
