<?xml version="1.0" encoding="UTF-8" standalone="no"?>
<!DOCTYPE svg PUBLIC "-//W3C//DTD SVG 1.1//EN"
 "http://www.w3.org/Graphics/SVG/1.1/DTD/svg11.dtd">
<!-- Generated by graphviz version 2.43.0 (0)
 -->
<!-- Title: model/Tank.h Pages: 1 -->
<svg width="792pt" height="357pt"
 viewBox="0.00 0.00 792.00 357.00" xmlns="http://www.w3.org/2000/svg" xmlns:xlink="http://www.w3.org/1999/xlink">
<g id="graph0" class="graph" transform="scale(1 1) rotate(0) translate(4 353)">
<title>model/Tank.h</title>
<!-- Node1 -->
<g id="Node000001" class="node">
<title>Node1</title>
<g id="a_Node000001"><a xlink:title="Abstract tank base class with shooting, bonuses, and combat mechanics.">
<polygon fill="#999999" stroke="#666666" points="588.5,-349 506.5,-349 506.5,-330 588.5,-330 588.5,-349"/>
<text text-anchor="middle" x="547.5" y="-337" font-family="Helvetica,sans-Serif" font-size="10.00">model/Tank.h</text>
</a>
</g>
</g>
<!-- Node2 -->
<g id="Node000002" class="node">
<title>Node2</title>
<g id="a_Node000002"><a xlink:href="EnemyTank_8h.html" target="_top" xlink:title="AI&#45;controlled enemy tanks with various behaviors, types, and difficulty levels.">
<polygon fill="white" stroke="#666666" points="365.5,-294 249.5,-294 249.5,-275 365.5,-275 365.5,-294"/>
<text text-anchor="middle" x="307.5" y="-282" font-family="Helvetica,sans-Serif" font-size="10.00">model/EnemyTank.h</text>
</a>
</g>
</g>
<!-- Node1&#45;&gt;Node2 -->
<g id="edge1_Node000001_Node000002" class="edge">
<title>Node1&#45;&gt;Node2</title>
<g id="a_edge1_Node000001_Node000002"><a xlink:title=" ">
<path fill="none" stroke="#63b8ff" d="M499.12,-327.82C454.14,-317.88 388,-303.28 346.36,-294.08"/>
<polygon fill="#63b8ff" stroke="#63b8ff" points="498.42,-331.25 508.94,-329.98 499.93,-324.41 498.42,-331.25"/>
</a>
</g>
</g>
<!-- Node13 -->
<g id="Node000013" class="node">
<title>Node13</title>
<g id="a_Node000013"><a xlink:href="PlayerTank_8h.html" target="_top" xlink:title="Player&#45;controlled tank with lives, score system, and special abilities.">
<polygon fill="white" stroke="#666666" points="538,-294 425,-294 425,-275 538,-275 538,-294"/>
<text text-anchor="middle" x="481.5" y="-282" font-family="Helvetica,sans-Serif" font-size="10.00">model/PlayerTank.h</text>
</a>
</g>
</g>
<!-- Node1&#45;&gt;Node13 -->
<g id="edge16_Node000001_Node000013" class="edge">
<title>Node1&#45;&gt;Node13</title>
<g id="a_edge16_Node000001_Node000013"><a xlink:title=" ">
<path fill="none" stroke="#63b8ff" d="M528.95,-323.6C517.12,-314.11 502.21,-302.13 492.3,-294.17"/>
<polygon fill="#63b8ff" stroke="#63b8ff" points="526.91,-326.45 536.9,-329.98 531.29,-320.99 526.91,-326.45"/>
</a>
</g>
</g>
<!-- Node16 -->
<g id="Node000016" class="node">
<title>Node16</title>
<g id="a_Node000016"><a xlink:href="Projectile_8cpp.html" target="_top" xlink:title="Implementation of projectile movement, collision detection, and damage calculation.">
<polygon fill="white" stroke="#666666" points="672.5,-294 556.5,-294 556.5,-275 672.5,-275 672.5,-294"/>
<text text-anchor="middle" x="614.5" y="-282" font-family="Helvetica,sans-Serif" font-size="10.00">model/Projectile.cpp</text>
</a>
</g>
</g>
<!-- Node1&#45;&gt;Node16 -->
<g id="edge21_Node000001_Node000016" class="edge">
<title>Node1&#45;&gt;Node16</title>
<g id="a_edge21_Node000001_Node000016"><a xlink:title=" ">
<path fill="none" stroke="#63b8ff" d="M566.33,-323.6C578.34,-314.11 593.47,-302.13 603.54,-294.17"/>
<polygon fill="#63b8ff" stroke="#63b8ff" points="563.94,-321.04 558.26,-329.98 568.28,-326.53 563.94,-321.04"/>
</a>
</g>
</g>
<!-- Node17 -->
<g id="Node000017" class="node">
<title>Node17</title>
<g id="a_Node000017"><a xlink:href="Tank_8cpp.html" target="_top" xlink:title="Implementation of tank mechanics including movement, firing, and bonus effects.">
<polygon fill="white" stroke="#666666" points="784,-294 691,-294 691,-275 784,-275 784,-294"/>
<text text-anchor="middle" x="737.5" y="-282" font-family="Helvetica,sans-Serif" font-size="10.00">model/Tank.cpp</text>
</a>
</g>
</g>
<!-- Node1&#45;&gt;Node17 -->
<g id="edge22_Node000001_Node000017" class="edge">
<title>Node1&#45;&gt;Node17</title>
<g id="a_edge22_Node000001_Node000017"><a xlink:title=" ">
<path fill="none" stroke="#63b8ff" d="M588.07,-327.18C623.6,-317.27 674.47,-303.08 706.73,-294.08"/>
<polygon fill="#63b8ff" stroke="#63b8ff" points="586.72,-323.93 578.03,-329.98 588.6,-330.67 586.72,-323.93"/>
</a>
</g>
</g>
<!-- Node3 -->
<g id="Node000003" class="node">
<title>Node3</title>
<g id="a_Node000003"><a xlink:href="EnemyTank_8cpp.html" target="_top" xlink:title="Implementation of enemy tank AI behaviors, movement patterns, and combat logic.">
<polygon fill="white" stroke="#666666" points="237,-239 110,-239 110,-220 237,-220 237,-239"/>
<text text-anchor="middle" x="173.5" y="-227" font-family="Helvetica,sans-Serif" font-size="10.00">model/EnemyTank.cpp</text>
</a>
</g>
</g>
<!-- Node2&#45;&gt;Node3 -->
<g id="edge2_Node000002_Node000003" class="edge">
<title>Node2&#45;&gt;Node3</title>
<g id="a_edge2_Node000002_Node000003"><a xlink:title=" ">
<path fill="none" stroke="#63b8ff" d="M276.63,-271.29C251.8,-261.47 217.51,-247.91 195.42,-239.17"/>
<polygon fill="#63b8ff" stroke="#63b8ff" points="275.38,-274.56 285.97,-274.98 277.96,-268.05 275.38,-274.56"/>
</a>
</g>
</g>
<!-- Node4 -->
<g id="Node000004" class="node">
<title>Node4</title>
<g id="a_Node000004"><a xlink:href="GameWorld_8h.html" target="_top" xlink:title="Main game world manager handling objects, collisions, states, and game logic.">
<polygon fill="white" stroke="#666666" points="409.5,-239 293.5,-239 293.5,-220 409.5,-220 409.5,-239"/>
<text text-anchor="middle" x="351.5" y="-227" font-family="Helvetica,sans-Serif" font-size="10.00">model/GameWorld.h</text>
</a>
</g>
</g>
<!-- Node2&#45;&gt;Node4 -->
<g id="edge3_Node000002_Node000004" class="edge">
<title>Node2&#45;&gt;Node4</title>
<g id="a_edge3_Node000002_Node000004"><a xlink:title=" ">
<path fill="none" stroke="#63b8ff" d="M321.23,-266.96C328.9,-257.72 338.13,-246.6 344.37,-239.09"/>
<polygon fill="#63b8ff" stroke="#63b8ff" points="318.46,-264.82 314.77,-274.75 323.85,-269.29 318.46,-264.82"/>
</a>
</g>
</g>
<!-- Node9 -->
<g id="Node000009" class="node">
<title>Node9</title>
<g id="a_Node000009"><a xlink:href="MapManager_8h.html" target="_top" xlink:title="Manages game maps, level generation, and procedural content.">
<polygon fill="white" stroke="#666666" points="269,-184 156,-184 156,-165 269,-165 269,-184"/>
<text text-anchor="middle" x="212.5" y="-172" font-family="Helvetica,sans-Serif" font-size="10.00">utils/MapManager.h</text>
</a>
</g>
</g>
<!-- Node2&#45;&gt;Node9 -->
<g id="edge15_Node000002_Node000009" class="edge">
<title>Node2&#45;&gt;Node9</title>
<g id="a_edge15_Node000002_Node000009"><a xlink:title=" ">
<path fill="none" stroke="#63b8ff" d="M292.98,-267C272.52,-243.73 235.92,-202.13 220.12,-184.16"/>
<polygon fill="#63b8ff" stroke="#63b8ff" points="290.49,-269.47 299.73,-274.66 295.75,-264.84 290.49,-269.47"/>
</a>
</g>
</g>
<!-- Node5 -->
<g id="Node000005" class="node">
<title>Node5</title>
<g id="a_Node000005"><a xlink:href="GameController_8h.html" target="_top" xlink:title="Central game controller coordinating model, view, and input systems.">
<polygon fill="white" stroke="#666666" points="222.5,-74 70.5,-74 70.5,-55 222.5,-55 222.5,-74"/>
<text text-anchor="middle" x="146.5" y="-62" font-family="Helvetica,sans-Serif" font-size="10.00">controller/GameController.h</text>
</a>
</g>
</g>
<!-- Node4&#45;&gt;Node5 -->
<g id="edge4_Node000004_Node000005" class="edge">
<title>Node4&#45;&gt;Node5</title>
<g id="a_edge4_Node000004_Node000005"><a xlink:title=" ">
<path fill="none" stroke="#63b8ff" d="M283.32,-222.79C230.52,-216.79 163.57,-205.18 146.5,-184 120.16,-151.33 135.8,-95.48 143.24,-74.14"/>
<polygon fill="#63b8ff" stroke="#63b8ff" points="283.01,-226.28 293.34,-223.88 283.77,-219.32 283.01,-226.28"/>
</a>
</g>
</g>
<!-- Node8 -->
<g id="Node000008" class="node">
<title>Node8</title>
<g id="a_Node000008"><a xlink:href="GameWorld_8cpp.html" target="_top" xlink:title="Core game simulation with object management, collisions, and level generation.">
<polygon fill="white" stroke="#666666" points="415.5,-184 287.5,-184 287.5,-165 415.5,-165 415.5,-184"/>
<text text-anchor="middle" x="351.5" y="-172" font-family="Helvetica,sans-Serif" font-size="10.00">model/GameWorld.cpp</text>
</a>
</g>
</g>
<!-- Node4&#45;&gt;Node8 -->
<g id="edge7_Node000004_Node000008" class="edge">
<title>Node4&#45;&gt;Node8</title>
<g id="a_edge7_Node000004_Node000008"><a xlink:title=" ">
<path fill="none" stroke="#63b8ff" d="M351.5,-209.66C351.5,-200.93 351.5,-190.99 351.5,-184.09"/>
<polygon fill="#63b8ff" stroke="#63b8ff" points="348,-209.75 351.5,-219.75 355,-209.75 348,-209.75"/>
</a>
</g>
</g>
<!-- Node4&#45;&gt;Node9 -->
<g id="edge8_Node000004_Node000009" class="edge">
<title>Node4&#45;&gt;Node9</title>
<g id="a_edge8_Node000004_Node000009"><a xlink:title=" ">
<path fill="none" stroke="#63b8ff" d="M319.82,-216.42C294.03,-206.59 258.26,-192.95 235.24,-184.17"/>
<polygon fill="#63b8ff" stroke="#63b8ff" points="318.58,-219.69 329.17,-219.98 321.07,-213.15 318.58,-219.69"/>
</a>
</g>
</g>
<!-- Node11 -->
<g id="Node000011" class="node">
<title>Node11</title>
<g id="a_Node000011"><a xlink:href="ConsoleRenderer_8h.html" target="_top" xlink:title="Renders game state, menus, and UI elements to the console.">
<polygon fill="white" stroke="#666666" points="365.5,-129 231.5,-129 231.5,-110 365.5,-110 365.5,-129"/>
<text text-anchor="middle" x="298.5" y="-117" font-family="Helvetica,sans-Serif" font-size="10.00">view/ConsoleRenderer.h</text>
</a>
</g>
</g>
<!-- Node4&#45;&gt;Node11 -->
<g id="edge14_Node000004_Node000011" class="edge">
<title>Node4&#45;&gt;Node11</title>
<g id="a_edge14_Node000004_Node000011"><a xlink:title=" ">
<path fill="none" stroke="#63b8ff" d="M385.01,-215.96C410.63,-204.39 439.27,-185.89 424.5,-165 410.83,-145.68 388.06,-134.69 365.6,-128.46"/>
<polygon fill="#63b8ff" stroke="#63b8ff" points="383.61,-212.75 375.79,-219.9 386.36,-219.19 383.61,-212.75"/>
</a>
</g>
</g>
<!-- Node6 -->
<g id="Node000006" class="node">
<title>Node6</title>
<g id="a_Node000006"><a xlink:href="GameController_8cpp.html" target="_top" xlink:title="Implementation of main game controller and game loop logic.">
<polygon fill="white" stroke="#666666" points="163,-19 0,-19 0,0 163,0 163,-19"/>
<text text-anchor="middle" x="81.5" y="-7" font-family="Helvetica,sans-Serif" font-size="10.00">controller/GameController.cpp</text>
</a>
</g>
</g>
<!-- Node5&#45;&gt;Node6 -->
<g id="edge5_Node000005_Node000006" class="edge">
<title>Node5&#45;&gt;Node6</title>
<g id="a_edge5_Node000005_Node000006"><a xlink:title=" ">
<path fill="none" stroke="#63b8ff" d="M128.23,-48.6C116.58,-39.11 101.9,-27.13 92.13,-19.17"/>
<polygon fill="#63b8ff" stroke="#63b8ff" points="126.09,-51.38 136.06,-54.98 130.52,-45.95 126.09,-51.38"/>
</a>
</g>
</g>
<!-- Node7 -->
<g id="Node000007" class="node">
<title>Node7</title>
<g id="a_Node000007"><a xlink:href="main_8cpp.html" target="_top" xlink:title="Main entry point for the Tank Simulator game.">
<polygon fill="white" stroke="#666666" points="243.5,-19 181.5,-19 181.5,0 243.5,0 243.5,-19"/>
<text text-anchor="middle" x="212.5" y="-7" font-family="Helvetica,sans-Serif" font-size="10.00">main.cpp</text>
</a>
</g>
</g>
<!-- Node5&#45;&gt;Node7 -->
<g id="edge6_Node000005_Node000007" class="edge">
<title>Node5&#45;&gt;Node7</title>
<g id="a_edge6_Node000005_Node000007"><a xlink:title=" ">
<path fill="none" stroke="#63b8ff" d="M165.05,-48.6C176.88,-39.11 191.79,-27.13 201.7,-19.17"/>
<polygon fill="#63b8ff" stroke="#63b8ff" points="162.71,-45.99 157.1,-54.98 167.09,-51.45 162.71,-45.99"/>
</a>
</g>
</g>
<!-- Node9&#45;&gt;Node5 -->
<g id="edge9_Node000009_Node000005" class="edge">
<title>Node9&#45;&gt;Node5</title>
<g id="a_edge9_Node000009_Node000005"><a xlink:title=" ">
<path fill="none" stroke="#63b8ff" d="M201.85,-156.07C187.53,-132.64 162.63,-91.89 151.79,-74.16"/>
<polygon fill="#63b8ff" stroke="#63b8ff" points="198.9,-157.95 207.1,-164.66 204.87,-154.3 198.9,-157.95"/>
</a>
</g>
</g>
<!-- Node10 -->
<g id="Node000010" class="node">
<title>Node10</title>
<g id="a_Node000010"><a xlink:href="MapManager_8cpp.html" target="_top" xlink:title="Implementation for loading, creating, and managing game maps.">
<polygon fill="white" stroke="#666666" points="525.5,-129 401.5,-129 401.5,-110 525.5,-110 525.5,-129"/>
<text text-anchor="middle" x="463.5" y="-117" font-family="Helvetica,sans-Serif" font-size="10.00">utils/MapManager.cpp</text>
</a>
</g>
</g>
<!-- Node9&#45;&gt;Node10 -->
<g id="edge10_Node000009_Node000010" class="edge">
<title>Node9&#45;&gt;Node10</title>
<g id="a_edge10_Node000009_Node000010"><a xlink:title=" ">
<path fill="none" stroke="#63b8ff" d="M262.8,-162.88C309.85,-152.94 379.22,-138.3 422.86,-129.08"/>
<polygon fill="#63b8ff" stroke="#63b8ff" points="261.89,-159.49 252.83,-164.98 263.33,-166.34 261.89,-159.49"/>
</a>
</g>
</g>
<!-- Node9&#45;&gt;Node11 -->
<g id="edge11_Node000009_Node000011" class="edge">
<title>Node9&#45;&gt;Node11</title>
<g id="a_edge11_Node000009_Node000011"><a xlink:title=" ">
<path fill="none" stroke="#63b8ff" d="M234.9,-159.7C250.57,-150.04 271.01,-137.44 284.43,-129.17"/>
<polygon fill="#63b8ff" stroke="#63b8ff" points="232.99,-156.76 226.32,-164.98 236.67,-162.72 232.99,-156.76"/>
</a>
</g>
</g>
<!-- Node11&#45;&gt;Node5 -->
<g id="edge12_Node000011_Node000005" class="edge">
<title>Node11&#45;&gt;Node5</title>
<g id="a_edge12_Node000011_Node000005"><a xlink:title=" ">
<path fill="none" stroke="#63b8ff" d="M264.57,-106.67C236.23,-96.79 196.48,-82.93 171.11,-74.08"/>
<polygon fill="#63b8ff" stroke="#63b8ff" points="263.48,-110 274.08,-109.98 265.79,-103.39 263.48,-110"/>
</a>
</g>
</g>
<!-- Node12 -->
<g id="Node000012" class="node">
<title>Node12</title>
<g id="a_Node000012"><a xlink:href="ConsoleRenderer_8cpp.html" target="_top" xlink:title="Implementation of console&#45;based game rendering with ASCII/Unicode support.">
<polygon fill="white" stroke="#666666" points="386.5,-74 240.5,-74 240.5,-55 386.5,-55 386.5,-74"/>
<text text-anchor="middle" x="313.5" y="-62" font-family="Helvetica,sans-Serif" font-size="10.00">view/ConsoleRenderer.cpp</text>
</a>
</g>
</g>
<!-- Node11&#45;&gt;Node12 -->
<g id="edge13_Node000011_Node000012" class="edge">
<title>Node11&#45;&gt;Node12</title>
<g id="a_edge13_Node000011_Node000012"><a xlink:title=" ">
<path fill="none" stroke="#63b8ff" d="M303.75,-99.95C306.24,-91.15 309.1,-81.06 311.07,-74.09"/>
<polygon fill="#63b8ff" stroke="#63b8ff" points="300.33,-99.17 300.98,-109.75 307.07,-101.08 300.33,-99.17"/>
</a>
</g>
</g>
<!-- Node13&#45;&gt;Node4 -->
<g id="edge18_Node000013_Node000004" class="edge">
<title>Node13&#45;&gt;Node4</title>
<g id="a_edge18_Node000013_Node000004"><a xlink:title=" ">
<path fill="none" stroke="#63b8ff" d="M451.23,-271.16C427.16,-261.35 394.1,-247.87 372.77,-239.17"/>
<polygon fill="#63b8ff" stroke="#63b8ff" points="450.03,-274.45 460.61,-274.98 452.67,-267.97 450.03,-274.45"/>
</a>
</g>
</g>
<!-- Node13&#45;&gt;Node10 -->
<g id="edge20_Node000013_Node000010" class="edge">
<title>Node13&#45;&gt;Node10</title>
<g id="a_edge20_Node000013_Node000010"><a xlink:title=" ">
<path fill="none" stroke="#63b8ff" d="M479.39,-264.37C475.48,-229.03 467.29,-154.79 464.47,-129.31"/>
<polygon fill="#63b8ff" stroke="#63b8ff" points="475.96,-265.18 480.53,-274.74 482.91,-264.41 475.96,-265.18"/>
</a>
</g>
</g>
<!-- Node14 -->
<g id="Node000014" class="node">
<title>Node14</title>
<g id="a_Node000014"><a xlink:href="Bonus_8cpp.html" target="_top" xlink:title="Implementation of power&#45;up bonuses with various effects for player tank.">
<polygon fill="white" stroke="#666666" points="611,-239 510,-239 510,-220 611,-220 611,-239"/>
<text text-anchor="middle" x="560.5" y="-227" font-family="Helvetica,sans-Serif" font-size="10.00">model/Bonus.cpp</text>
</a>
</g>
</g>
<!-- Node13&#45;&gt;Node14 -->
<g id="edge17_Node000013_Node000014" class="edge">
<title>Node13&#45;&gt;Node14</title>
<g id="a_edge17_Node000013_Node000014"><a xlink:title=" ">
<path fill="none" stroke="#63b8ff" d="M502.89,-269.15C517.17,-259.57 535.47,-247.29 547.58,-239.17"/>
<polygon fill="#63b8ff" stroke="#63b8ff" points="500.55,-266.51 494.19,-274.98 504.45,-272.32 500.55,-266.51"/>
</a>
</g>
</g>
<!-- Node15 -->
<g id="Node000015" class="node">
<title>Node15</title>
<g id="a_Node000015"><a xlink:href="PlayerTank_8cpp.html" target="_top" xlink:title="Implementation of player&#45;controlled tank with lives, score, and bonus management.">
<polygon fill="white" stroke="#666666" points="753.5,-239 629.5,-239 629.5,-220 753.5,-220 753.5,-239"/>
<text text-anchor="middle" x="691.5" y="-227" font-family="Helvetica,sans-Serif" font-size="10.00">model/PlayerTank.cpp</text>
</a>
</g>
</g>
<!-- Node13&#45;&gt;Node15 -->
<g id="edge19_Node000013_Node000015" class="edge">
<title>Node13&#45;&gt;Node15</title>
<g id="a_edge19_Node000013_Node000015"><a xlink:title=" ">
<path fill="none" stroke="#63b8ff" d="M525.08,-272.5C564.4,-262.58 621.45,-248.18 657.5,-239.08"/>
<polygon fill="#63b8ff" stroke="#63b8ff" points="524.08,-269.14 515.24,-274.98 525.79,-275.93 524.08,-269.14"/>
</a>
</g>
</g>
</g>
</svg>
